%TF.GenerationSoftware,KiCad,Pcbnew,7.0.2*%
%TF.CreationDate,2023-11-03T12:40:05-06:00*%
%TF.ProjectId,KF40_DB25_Pinheader,4b463430-5f44-4423-9235-5f50696e6865,rev?*%
%TF.SameCoordinates,Original*%
%TF.FileFunction,Copper,L2,Inr*%
%TF.FilePolarity,Positive*%
%FSLAX46Y46*%
G04 Gerber Fmt 4.6, Leading zero omitted, Abs format (unit mm)*
G04 Created by KiCad (PCBNEW 7.0.2) date 2023-11-03 12:40:05*
%MOMM*%
%LPD*%
G01*
G04 APERTURE LIST*
%TA.AperFunction,ComponentPad*%
%ADD10C,10.000000*%
%TD*%
%TA.AperFunction,ComponentPad*%
%ADD11C,5.000000*%
%TD*%
%TA.AperFunction,ComponentPad*%
%ADD12C,1.800000*%
%TD*%
%TA.AperFunction,ComponentPad*%
%ADD13R,1.800000X1.800000*%
%TD*%
%TA.AperFunction,ComponentPad*%
%ADD14O,1.700000X1.700000*%
%TD*%
%TA.AperFunction,ComponentPad*%
%ADD15R,1.700000X1.700000*%
%TD*%
%TA.AperFunction,Conductor*%
%ADD16C,0.500000*%
%TD*%
%TA.AperFunction,Conductor*%
%ADD17C,0.100000*%
%TD*%
G04 APERTURE END LIST*
D10*
%TO.N,GND*%
%TO.C,H2*%
X26846788Y-15500000D03*
%TD*%
D11*
%TO.N,N/C*%
%TO.C,J1*%
X-23520000Y55000000D03*
X23520000Y55000000D03*
D12*
%TO.N,Net-(J1-P25)*%
X-15235000Y56420000D03*
%TO.N,Net-(J1-P24)*%
X-12465000Y56420000D03*
%TO.N,Net-(J1-P23)*%
X-9695000Y56420000D03*
%TO.N,Net-(J1-P22)*%
X-6925000Y56420000D03*
%TO.N,Net-(J1-P21)*%
X-4155000Y56420000D03*
%TO.N,Net-(J1-P20)*%
X-1385000Y56420000D03*
%TO.N,Net-(J1-P19)*%
X1385000Y56420000D03*
%TO.N,Net-(J1-P18)*%
X4155000Y56420000D03*
%TO.N,Net-(J1-P17)*%
X6925000Y56420000D03*
%TO.N,Net-(J1-P16)*%
X9695000Y56420000D03*
%TO.N,Net-(J1-P15)*%
X12465000Y56420000D03*
%TO.N,Net-(J1-P14)*%
X15235000Y56420000D03*
%TO.N,unconnected-(J1-Pad13)*%
X-16620000Y53580000D03*
%TO.N,Net-(J8-Pin_1)*%
X-13850000Y53580000D03*
%TO.N,Net-(J7-Pin_1)*%
X-11080000Y53580000D03*
%TO.N,Net-(J6-Pin_3)*%
X-8310000Y53580000D03*
%TO.N,Net-(J6-Pin_1)*%
X-5540000Y53580000D03*
%TO.N,Net-(J5-Pin_3)*%
X-2770000Y53580000D03*
%TO.N,Net-(J5-Pin_1)*%
X0Y53580000D03*
%TO.N,Net-(J4-Pin_3)*%
X2770000Y53580000D03*
%TO.N,Net-(J4-Pin_1)*%
X5540000Y53580000D03*
%TO.N,Net-(J3-Pin_3)*%
X8310000Y53580000D03*
%TO.N,Net-(J3-Pin_1)*%
X11080000Y53580000D03*
%TO.N,Net-(J2-Pin_3)*%
X13850000Y53580000D03*
D13*
%TO.N,Net-(J2-Pin_1)*%
X16620000Y53580000D03*
%TD*%
D10*
%TO.N,GND*%
%TO.C,H6*%
X-26846788Y15500000D03*
%TD*%
%TO.N,GND*%
%TO.C,H4*%
X-26846788Y-15500000D03*
%TD*%
%TO.N,GND*%
%TO.C,H1*%
X26846788Y15500000D03*
%TD*%
%TO.N,GND*%
%TO.C,H5*%
X0Y31000000D03*
%TD*%
%TO.N,GND*%
%TO.C,H3*%
X0Y-31000000D03*
%TD*%
D14*
%TO.N,Net-(J1-P23)*%
%TO.C,J6*%
X-5000000Y-4480000D03*
%TO.N,Net-(J6-Pin_3)*%
X-5000000Y-1940000D03*
%TO.N,Net-(J1-P22)*%
X-5000000Y600000D03*
D15*
%TO.N,Net-(J6-Pin_1)*%
X-5000000Y3140000D03*
%TD*%
D14*
%TO.N,Net-(J1-P24)*%
%TO.C,J7*%
X-9600000Y600000D03*
D15*
%TO.N,Net-(J7-Pin_1)*%
X-9600000Y3140000D03*
%TD*%
D14*
%TO.N,Net-(J1-P21)*%
%TO.C,J5*%
X-400000Y-4480000D03*
%TO.N,Net-(J5-Pin_3)*%
X-400000Y-1940000D03*
%TO.N,Net-(J1-P20)*%
X-400000Y600000D03*
D15*
%TO.N,Net-(J5-Pin_1)*%
X-400000Y3140000D03*
%TD*%
D14*
%TO.N,Net-(J1-P25)*%
%TO.C,J8*%
X-14200000Y600000D03*
D15*
%TO.N,Net-(J8-Pin_1)*%
X-14200000Y3140000D03*
%TD*%
D14*
%TO.N,Net-(J1-P17)*%
%TO.C,J3*%
X8800000Y-4480000D03*
%TO.N,Net-(J3-Pin_3)*%
X8800000Y-1940000D03*
%TO.N,Net-(J1-P16)*%
X8800000Y600000D03*
D15*
%TO.N,Net-(J3-Pin_1)*%
X8800000Y3140000D03*
%TD*%
D14*
%TO.N,Net-(J1-P15)*%
%TO.C,J2*%
X13400000Y-4480000D03*
%TO.N,Net-(J2-Pin_3)*%
X13400000Y-1940000D03*
%TO.N,Net-(J1-P14)*%
X13400000Y600000D03*
D15*
%TO.N,Net-(J2-Pin_1)*%
X13400000Y3140000D03*
%TD*%
D14*
%TO.N,Net-(J1-P19)*%
%TO.C,J4*%
X4200000Y-4480000D03*
%TO.N,Net-(J4-Pin_3)*%
X4200000Y-1940000D03*
%TO.N,Net-(J1-P18)*%
X4200000Y600000D03*
D15*
%TO.N,Net-(J4-Pin_1)*%
X4200000Y3140000D03*
%TD*%
D16*
%TO.N,Net-(J8-Pin_1)*%
X-14200000Y3140000D02*
X-14200000Y53230000D01*
%TO.N,Net-(J7-Pin_1)*%
X-11765000Y50035000D02*
X-11765000Y5305000D01*
%TO.N,Net-(J1-P24)*%
X-12465000Y56420000D02*
X-12465000Y3465000D01*
%TO.N,Net-(J1-P25)*%
X-15235000Y56420000D02*
X-15235000Y4705000D01*
D17*
%TO.N,Net-(J2-Pin_1)*%
X16620000Y53580000D02*
X16620000Y6360000D01*
%TO.N,Net-(J2-Pin_3)*%
X16020000Y7244264D02*
X16020000Y51410000D01*
%TO.N,Net-(J3-Pin_3)*%
X14820000Y13724264D02*
X14820000Y47070000D01*
%TO.N,Net-(J3-Pin_1)*%
X15420000Y8810000D02*
X15420000Y49240000D01*
%TO.N,Net-(J4-Pin_1)*%
X14220000Y14020000D02*
X14220000Y44900000D01*
%TO.N,Net-(J1-P14)*%
X16320000Y51580000D02*
X16320000Y7120000D01*
%TO.N,Net-(J1-P15)*%
X15720000Y49800000D02*
X15720000Y7368528D01*
%TO.N,Net-(J1-P16)*%
X15120000Y47913654D02*
X15120000Y13600000D01*
%TO.N,Net-(J1-P17)*%
X14520000Y45743654D02*
X14520000Y13848528D01*
%TO.N,Net-(J1-P18)*%
X13920000Y43573654D02*
X13920000Y14144264D01*
D16*
%TO.N,Net-(J8-Pin_1)*%
X-14200000Y53230000D02*
X-13850000Y53580000D01*
%TO.N,Net-(J1-P25)*%
X-15235000Y4705000D02*
X-15500000Y4440000D01*
%TO.N,Net-(J7-Pin_1)*%
X-11080000Y53580000D02*
X-11080000Y50720000D01*
X-11080000Y50720000D02*
X-11765000Y50035000D01*
X-11765000Y5305000D02*
X-9600000Y3140000D01*
D17*
%TO.N,Net-(J1-P18)*%
X4155000Y53338654D02*
X13920000Y43573654D01*
X3100000Y4240000D02*
X3100000Y1700000D01*
X11972132Y13112132D02*
X3100000Y4240000D01*
X12887868Y13112132D02*
X11972132Y13112132D01*
X13920000Y14144264D02*
X12887868Y13112132D01*
%TO.N,Net-(J4-Pin_1)*%
X4200000Y4000000D02*
X14220000Y14020000D01*
%TO.N,Net-(J1-P18)*%
X3100000Y1700000D02*
X4200000Y600000D01*
%TO.N,Net-(J4-Pin_1)*%
X4200000Y3140000D02*
X4200000Y4000000D01*
X14220000Y44900000D02*
X5540000Y53580000D01*
%TO.N,Net-(J3-Pin_3)*%
X7400000Y6304264D02*
X14820000Y13724264D01*
%TO.N,Net-(J1-P17)*%
X14520000Y13848528D02*
X7100000Y6428528D01*
%TO.N,Net-(J1-P16)*%
X15120000Y13600000D02*
X7700000Y6180000D01*
%TO.N,Net-(J1-P17)*%
X6925000Y53338654D02*
X14520000Y45743654D01*
X7100000Y-2780000D02*
X8800000Y-4480000D01*
X7100000Y6428528D02*
X7100000Y-2780000D01*
%TO.N,Net-(J3-Pin_3)*%
X14820000Y47070000D02*
X8310000Y53580000D01*
X8800000Y-1940000D02*
X7400000Y-540000D01*
X7400000Y-540000D02*
X7400000Y6304264D01*
%TO.N,Net-(J1-P16)*%
X9695000Y53338654D02*
X15120000Y47913654D01*
X7700000Y1700000D02*
X8800000Y600000D01*
X7700000Y6180000D02*
X7700000Y1700000D01*
%TO.N,Net-(J3-Pin_1)*%
X15420000Y49240000D02*
X11080000Y53580000D01*
X9750000Y3140000D02*
X15420000Y8810000D01*
X8800000Y3140000D02*
X9750000Y3140000D01*
%TO.N,Net-(J1-P15)*%
X12465000Y53055000D02*
X15720000Y49800000D01*
X13811472Y6600000D02*
X11700000Y4488528D01*
X15720000Y7368528D02*
X14951472Y6600000D01*
X14951472Y6600000D02*
X13811472Y6600000D01*
%TO.N,Net-(J2-Pin_3)*%
X15075736Y6300000D02*
X16020000Y7244264D01*
X13935736Y6300000D02*
X15075736Y6300000D01*
X12000000Y4364264D02*
X13935736Y6300000D01*
X13400000Y-1940000D02*
X12000000Y-540000D01*
X12000000Y-540000D02*
X12000000Y4364264D01*
X16020000Y51410000D02*
X13850000Y53580000D01*
%TO.N,Net-(J1-P14)*%
X15235000Y52665000D02*
X16320000Y51580000D01*
X16320000Y7120000D02*
X15200000Y6000000D01*
X15200000Y6000000D02*
X14060000Y6000000D01*
X14060000Y6000000D02*
X12300000Y4240000D01*
%TO.N,Net-(J2-Pin_1)*%
X16620000Y6360000D02*
X13400000Y3140000D01*
%TO.N,Net-(J3-Pin_3)*%
X8310000Y53580000D02*
X8481346Y53580000D01*
%TO.N,Net-(J4-Pin_3)*%
X-6000000Y28600000D02*
X-6000000Y36200000D01*
X2830000Y7170000D02*
X2800000Y7200000D01*
X-6000000Y36200000D02*
X-4400000Y37800000D01*
X2800000Y-540000D02*
X2800000Y7140000D01*
X2800000Y7140000D02*
X2830000Y7170000D01*
X2800000Y19800000D02*
X-6000000Y28600000D01*
X2800000Y7200000D02*
X2800000Y19800000D01*
X-4400000Y37800000D02*
X2600000Y37800000D01*
X2770000Y37970000D02*
X2770000Y53580000D01*
X2600000Y37800000D02*
X2770000Y37970000D01*
X4200000Y-1940000D02*
X2800000Y-540000D01*
%TO.N,Net-(J5-Pin_1)*%
X2170000Y48200000D02*
X2170000Y40170000D01*
X-4648528Y38400000D02*
X-6600000Y36448528D01*
X2170000Y40170000D02*
X400000Y38400000D01*
X-400000Y22151472D02*
X-400000Y3140000D01*
X-6600000Y36448528D02*
X-6600000Y28351472D01*
X-6600000Y28351472D02*
X-400000Y22151472D01*
X0Y53580000D02*
X0Y50370000D01*
X0Y50370000D02*
X2170000Y48200000D01*
X400000Y38400000D02*
X-4648528Y38400000D01*
%TO.N,Net-(J5-Pin_3)*%
X-7200000Y36697056D02*
X-7200000Y28102944D01*
X-1000000Y10324264D02*
X-1800000Y9524264D01*
X1570000Y40418528D02*
X151472Y39000000D01*
X-1000000Y21902944D02*
X-1000000Y10324264D01*
X-7200000Y28102944D02*
X-1000000Y21902944D01*
X-2770000Y52291472D02*
X1570000Y47951472D01*
X-1800000Y9524264D02*
X-1800000Y-540000D01*
X1570000Y47951472D02*
X1570000Y40418528D01*
X151472Y39000000D02*
X-4897056Y39000000D01*
X-1800000Y-540000D02*
X-400000Y-1940000D01*
X-2770000Y53580000D02*
X-2770000Y52291472D01*
X-4897056Y39000000D02*
X-7200000Y36697056D01*
%TO.N,Net-(J6-Pin_1)*%
X-7800000Y36945584D02*
X-5540000Y39205584D01*
X-7800000Y27854416D02*
X-7800000Y36945584D01*
X-1600000Y10572792D02*
X-1600000Y21654416D01*
X-5000000Y7172792D02*
X-1600000Y10572792D01*
X-5540000Y39205584D02*
X-5540000Y53580000D01*
X-5000000Y3140000D02*
X-5000000Y7172792D01*
X-1600000Y21654416D02*
X-7800000Y27854416D01*
%TO.N,Net-(J6-Pin_3)*%
X-5000000Y-1940000D02*
X-6400000Y-540000D01*
X-2200000Y10821320D02*
X-2200000Y21405888D01*
X-8400000Y37194112D02*
X-7225000Y38369112D01*
X-8400000Y27605888D02*
X-8400000Y37194112D01*
X-6400000Y6621320D02*
X-2200000Y10821320D01*
X-7225000Y52495000D02*
X-8310000Y53580000D01*
X-6400000Y-540000D02*
X-6400000Y6621320D01*
X-2200000Y21405888D02*
X-8400000Y27605888D01*
X-7225000Y38369112D02*
X-7225000Y52495000D01*
%TO.N,Net-(J1-P14)*%
X15235000Y56420000D02*
X15235000Y52665000D01*
X12300000Y4240000D02*
X12300000Y1700000D01*
X12300000Y1700000D02*
X13400000Y600000D01*
X15235000Y56420000D02*
X15063654Y56420000D01*
%TO.N,Net-(J1-P15)*%
X11700000Y4488528D02*
X11700000Y-2780000D01*
X12465000Y56420000D02*
X12465000Y53055000D01*
X11700000Y-2780000D02*
X13400000Y-4480000D01*
%TO.N,Net-(J1-P16)*%
X9695000Y56420000D02*
X9695000Y53338654D01*
X9420000Y56420000D02*
X9695000Y56420000D01*
%TO.N,Net-(J1-P17)*%
X6925000Y56420000D02*
X6925000Y53338654D01*
%TO.N,Net-(J1-P18)*%
X4155000Y56420000D02*
X4155000Y53338654D01*
%TO.N,Net-(J1-P19)*%
X2500000Y-2780000D02*
X4200000Y-4480000D01*
X-6300000Y36324264D02*
X-6300000Y28475736D01*
X2500000Y19675736D02*
X2500000Y-2780000D01*
X1385000Y51285000D02*
X2470000Y50200000D01*
X2300000Y38100000D02*
X-4524264Y38100000D01*
X-6300000Y28475736D02*
X2500000Y19675736D01*
X-4524264Y38100000D02*
X-6300000Y36324264D01*
X2470000Y50200000D02*
X2470000Y38270000D01*
X1385000Y56420000D02*
X1385000Y51285000D01*
X2470000Y38270000D02*
X2300000Y38100000D01*
%TO.N,Net-(J1-P20)*%
X-6900000Y36572792D02*
X-6900000Y28227208D01*
X-700000Y22027208D02*
X-700000Y10200000D01*
X1870000Y40294264D02*
X275736Y38700000D01*
X-6900000Y28227208D02*
X-700000Y22027208D01*
X-1500000Y9400000D02*
X-1500000Y1700000D01*
X-4772792Y38700000D02*
X-6900000Y36572792D01*
X-1385000Y56420000D02*
X-1385000Y51330736D01*
X-1385000Y51330736D02*
X1870000Y48075736D01*
X1870000Y48075736D02*
X1870000Y40294264D01*
X275736Y38700000D02*
X-4772792Y38700000D01*
X-700000Y10200000D02*
X-1500000Y9400000D01*
X-1500000Y1700000D02*
X-400000Y600000D01*
%TO.N,Net-(J1-P21)*%
X27208Y39300000D02*
X1270000Y40542792D01*
X1270000Y47827208D02*
X-4155000Y53252208D01*
X-7500000Y27978680D02*
X-7500000Y36821320D01*
X-1300000Y21778680D02*
X-7500000Y27978680D01*
X-1300000Y10448528D02*
X-1300000Y21778680D01*
X-2100000Y9648528D02*
X-1300000Y10448528D01*
X-2100000Y-2780000D02*
X-2100000Y9648528D01*
X-400000Y-4480000D02*
X-2100000Y-2780000D01*
X-4155000Y53252208D02*
X-4155000Y56420000D01*
X-5021320Y39300000D02*
X27208Y39300000D01*
X-7500000Y36821320D02*
X-5021320Y39300000D01*
X1270000Y40542792D02*
X1270000Y47827208D01*
%TO.N,Net-(J1-P22)*%
X-1900000Y10697056D02*
X-6100000Y6497056D01*
X-6100000Y6497056D02*
X-6100000Y1700000D01*
X-8100000Y27730152D02*
X-1900000Y21530152D01*
X-6925000Y38244848D02*
X-8100000Y37069848D01*
X-8100000Y37069848D02*
X-8100000Y27730152D01*
X-6100000Y1700000D02*
X-5000000Y600000D01*
X-6925000Y56420000D02*
X-6925000Y38244848D01*
X-1900000Y21530152D02*
X-1900000Y10697056D01*
%TO.N,Net-(J1-P23)*%
X-2500000Y21281624D02*
X-2500000Y10945584D01*
X-8700000Y27800000D02*
X-8700000Y27481624D01*
X-2500000Y10945584D02*
X-6700000Y6745584D01*
X-8700000Y37318376D02*
X-8700000Y34200000D01*
X-6700000Y-2780000D02*
X-5000000Y-4480000D01*
X-9695000Y56420000D02*
X-9695000Y52170000D01*
X-8700000Y27481624D02*
X-2500000Y21281624D01*
X-8700000Y34200000D02*
X-8700000Y27800000D01*
X-7525000Y50000000D02*
X-7525000Y40800000D01*
X-7525000Y38800000D02*
X-7525000Y38493376D01*
X-7525000Y40800000D02*
X-7525000Y38800000D01*
X-7525000Y38493376D02*
X-8009188Y38009188D01*
X-8009188Y38009188D02*
X-8700000Y37318376D01*
X-6700000Y6745584D02*
X-6700000Y-2780000D01*
X-9695000Y52170000D02*
X-7525000Y50000000D01*
D16*
%TO.N,Net-(J1-P24)*%
X-12465000Y3465000D02*
X-9600000Y600000D01*
%TO.N,Net-(J1-P25)*%
X-15500000Y1900000D02*
X-14200000Y600000D01*
X-15500000Y4440000D02*
X-15500000Y1900000D01*
%TD*%
%TA.AperFunction,Conductor*%
%TO.N,GND*%
G36*
X3978359Y52717774D02*
G01*
X4027545Y52687582D01*
X13333181Y43381947D01*
X13366666Y43320624D01*
X13369500Y43294266D01*
X13369500Y14423650D01*
X13349815Y14356611D01*
X13333181Y14335969D01*
X12696162Y13698951D01*
X12634839Y13665466D01*
X12608481Y13662632D01*
X11983654Y13662632D01*
X11979421Y13662704D01*
X11915306Y13664894D01*
X11875391Y13655166D01*
X11862926Y13652797D01*
X11822212Y13647202D01*
X11805752Y13640052D01*
X11785710Y13633312D01*
X11768280Y13629065D01*
X11768276Y13629063D01*
X11732465Y13608928D01*
X11721100Y13603282D01*
X11683412Y13586912D01*
X11683410Y13586910D01*
X11683409Y13586910D01*
X11669496Y13575590D01*
X11652010Y13563688D01*
X11639592Y13556707D01*
X11636371Y13554896D01*
X11607326Y13525850D01*
X11597898Y13517341D01*
X11566023Y13491409D01*
X11555671Y13476744D01*
X11542049Y13460573D01*
X3562181Y5480705D01*
X3500858Y5447220D01*
X3431166Y5452204D01*
X3375233Y5494076D01*
X3350816Y5559540D01*
X3350500Y5568386D01*
X3350500Y6965733D01*
X3359145Y7011221D01*
X3369875Y7038433D01*
X3369876Y7038435D01*
X3370522Y7044724D01*
X3375680Y7069549D01*
X3377596Y7075585D01*
X3379392Y7128195D01*
X3379970Y7136632D01*
X3380321Y7140046D01*
X3385351Y7188971D01*
X3384276Y7195202D01*
X3382546Y7220509D01*
X3382762Y7226824D01*
X3373925Y7263087D01*
X3370299Y7277964D01*
X3368586Y7286203D01*
X3359640Y7338100D01*
X3359638Y7338102D01*
X3356743Y7354900D01*
X3357338Y7355002D01*
X3350500Y7385303D01*
X3350500Y19788477D01*
X3350572Y19792710D01*
X3352762Y19856824D01*
X3352762Y19856826D01*
X3343031Y19896751D01*
X3340666Y19909196D01*
X3335070Y19949920D01*
X3327918Y19966383D01*
X3321180Y19986419D01*
X3316933Y20003852D01*
X3296788Y20039678D01*
X3291154Y20051021D01*
X3274780Y20088720D01*
X3263450Y20102644D01*
X3251560Y20120114D01*
X3242765Y20135759D01*
X3213710Y20164812D01*
X3205221Y20174218D01*
X3179278Y20206108D01*
X3164607Y20216463D01*
X3148447Y20230075D01*
X-2413034Y25791558D01*
X-2446519Y25852880D01*
X-2441535Y25922572D01*
X-2399663Y25978505D01*
X-2334199Y26002922D01*
X-2274277Y25992230D01*
X-2054959Y25893092D01*
X-2050079Y25891131D01*
X-1614458Y25737216D01*
X-1609431Y25735676D01*
X-1162330Y25619261D01*
X-1157179Y25618151D01*
X-701818Y25540072D01*
X-696610Y25539405D01*
X-236261Y25500223D01*
X-231006Y25500000D01*
X231006Y25500000D01*
X236261Y25500223D01*
X696610Y25539405D01*
X701818Y25540072D01*
X1157179Y25618151D01*
X1162330Y25619261D01*
X1609431Y25735676D01*
X1614458Y25737216D01*
X2050079Y25891131D01*
X2054959Y25893092D01*
X2475942Y26083388D01*
X2480661Y26085767D01*
X2884001Y26311087D01*
X2888465Y26313835D01*
X3271236Y26572544D01*
X3275497Y26575695D01*
X3634925Y26865913D01*
X3638897Y26869408D01*
X3709434Y26937012D01*
X1582160Y29064286D01*
X1714751Y29173975D01*
X1930092Y29403289D01*
X1938579Y29414971D01*
X4062489Y27291062D01*
X4281313Y27539694D01*
X4284623Y27543793D01*
X4559344Y27915241D01*
X4562292Y27919602D01*
X4804530Y28313021D01*
X4807092Y28317608D01*
X5015090Y28730149D01*
X5017259Y28734946D01*
X5189523Y29163642D01*
X5191269Y29168583D01*
X5326558Y29610348D01*
X5327887Y29615452D01*
X5425222Y30067088D01*
X5426109Y30072261D01*
X5484793Y30530537D01*
X5485239Y30535782D01*
X5504848Y30997363D01*
X5504848Y31002636D01*
X5485239Y31464217D01*
X5484793Y31469462D01*
X5426109Y31927738D01*
X5425222Y31932911D01*
X5327887Y32384547D01*
X5326558Y32389651D01*
X5191269Y32831416D01*
X5189523Y32836357D01*
X5017259Y33265053D01*
X5015090Y33269850D01*
X4807092Y33682391D01*
X4804530Y33686978D01*
X4562292Y34080397D01*
X4559344Y34084758D01*
X4284623Y34456206D01*
X4281313Y34460305D01*
X4062490Y34708937D01*
X1938580Y32585027D01*
X1930092Y32596711D01*
X1714751Y32826025D01*
X1582160Y32935713D01*
X3709434Y35062987D01*
X3638884Y35130603D01*
X3634939Y35134075D01*
X3275497Y35424304D01*
X3271236Y35427455D01*
X2888465Y35686164D01*
X2884001Y35688912D01*
X2480661Y35914232D01*
X2475942Y35916611D01*
X2054959Y36106907D01*
X2050079Y36108868D01*
X1614458Y36262783D01*
X1609431Y36264323D01*
X1162330Y36380738D01*
X1157179Y36381848D01*
X701818Y36459927D01*
X696610Y36460594D01*
X236261Y36499776D01*
X231006Y36500000D01*
X-231006Y36500000D01*
X-236261Y36499776D01*
X-696610Y36460594D01*
X-701818Y36459927D01*
X-1157179Y36381848D01*
X-1162330Y36380738D01*
X-1609431Y36264323D01*
X-1614458Y36262783D01*
X-2050079Y36108868D01*
X-2054959Y36106907D01*
X-2475942Y35916611D01*
X-2480661Y35914232D01*
X-2884001Y35688912D01*
X-2888465Y35686164D01*
X-3271236Y35427455D01*
X-3275497Y35424304D01*
X-3634939Y35134075D01*
X-3638884Y35130603D01*
X-3709434Y35062987D01*
X-1582160Y32935713D01*
X-1714751Y32826025D01*
X-1930092Y32596711D01*
X-1938580Y32585027D01*
X-4062490Y34708937D01*
X-4281313Y34460305D01*
X-4284623Y34456206D01*
X-4559344Y34084758D01*
X-4562292Y34080397D01*
X-4804530Y33686978D01*
X-4807092Y33682391D01*
X-5015090Y33269850D01*
X-5017259Y33265053D01*
X-5189523Y32836357D01*
X-5191272Y32831410D01*
X-5206935Y32780265D01*
X-5245387Y32721928D01*
X-5309275Y32693640D01*
X-5378313Y32704383D01*
X-5430584Y32750746D01*
X-5449500Y32816574D01*
X-5449500Y35920613D01*
X-5429815Y35987652D01*
X-5413181Y36008294D01*
X-4208294Y37213181D01*
X-4146971Y37246666D01*
X-4120613Y37249500D01*
X2588478Y37249500D01*
X2592711Y37249428D01*
X2656826Y37247237D01*
X2696733Y37256963D01*
X2709207Y37259334D01*
X2749922Y37264930D01*
X2766380Y37272079D01*
X2786421Y37278819D01*
X2803853Y37283067D01*
X2839672Y37303206D01*
X2851039Y37308852D01*
X2861493Y37313393D01*
X2888720Y37325220D01*
X2902637Y37336542D01*
X2920116Y37348437D01*
X2935757Y37357232D01*
X2964809Y37386284D01*
X2974236Y37394792D01*
X3006107Y37420721D01*
X3006683Y37421536D01*
X3016455Y37435380D01*
X3030076Y37451551D01*
X3151118Y37572594D01*
X3154132Y37575507D01*
X3201044Y37619320D01*
X3222391Y37654425D01*
X3229532Y37664918D01*
X3254361Y37697658D01*
X3260944Y37714353D01*
X3270351Y37733290D01*
X3279671Y37748617D01*
X3279672Y37748618D01*
X3290756Y37788179D01*
X3294804Y37800216D01*
X3309876Y37838435D01*
X3311710Y37856283D01*
X3315656Y37877046D01*
X3320500Y37894335D01*
X3320500Y37935416D01*
X3321150Y37948097D01*
X3321432Y37950848D01*
X3325352Y37988971D01*
X3322302Y38006656D01*
X3320500Y38027723D01*
X3320500Y44671975D01*
X3320500Y52211600D01*
X3340184Y52278636D01*
X3385481Y52320651D01*
X3538622Y52403528D01*
X3538626Y52403530D01*
X3721784Y52546087D01*
X3848635Y52683884D01*
X3908521Y52719874D01*
X3978359Y52717774D01*
G37*
%TD.AperFunction*%
%TA.AperFunction,Conductor*%
G36*
X27442539Y64579815D02*
G01*
X27488294Y64527011D01*
X27499500Y64475500D01*
X27499500Y25507599D01*
X27499396Y25502532D01*
X27499287Y25499867D01*
X27502354Y25496627D01*
X28310539Y24596206D01*
X28313176Y24593171D01*
X29093084Y23665426D01*
X29095621Y23662307D01*
X29845034Y22709775D01*
X29847469Y22706575D01*
X30534649Y21772335D01*
X30566428Y21729058D01*
X30568698Y21725861D01*
X31159240Y20865924D01*
X31257082Y20723134D01*
X31259232Y20719888D01*
X31780381Y19905634D01*
X31914667Y19695239D01*
X31916695Y19691950D01*
X32384387Y18906227D01*
X32538425Y18646565D01*
X32540331Y18643236D01*
X32963717Y17876426D01*
X33127763Y17578107D01*
X33129547Y17574742D01*
X33514405Y16820943D01*
X33682031Y16491043D01*
X33683692Y16487647D01*
X34034009Y15742815D01*
X34200625Y15386553D01*
X34202163Y15383132D01*
X34520707Y14644588D01*
X34683028Y14265748D01*
X34684443Y14262304D01*
X34973170Y13528326D01*
X35128713Y13129841D01*
X35130005Y13126381D01*
X35390400Y12395731D01*
X35537193Y11980084D01*
X35538363Y11976610D01*
X35771545Y11248478D01*
X35908068Y10817602D01*
X35909116Y10814118D01*
X36115972Y10087924D01*
X36240915Y9643716D01*
X36241842Y9640227D01*
X36423059Y8915654D01*
X36535406Y8459596D01*
X36536212Y8456106D01*
X36692336Y7733013D01*
X36791207Y7266573D01*
X36791894Y7263087D01*
X36923318Y6541768D01*
X37008081Y6065756D01*
X37008649Y6062278D01*
X37115750Y5342901D01*
X37185757Y4858641D01*
X37186209Y4855174D01*
X37269367Y4137573D01*
X37324073Y3646370D01*
X37324409Y3642918D01*
X37383888Y2927456D01*
X37422879Y2430238D01*
X37423101Y2426806D01*
X37459142Y1713985D01*
X37482074Y1211485D01*
X37482183Y1208075D01*
X37495026Y498212D01*
X37501590Y-8508D01*
X37501587Y-11892D01*
X37491457Y-718432D01*
X37481405Y-1228490D01*
X37481293Y-1231842D01*
X37448411Y-1934506D01*
X37421545Y-2447162D01*
X37421326Y-2450481D01*
X37365906Y-3148868D01*
X37322074Y-3663219D01*
X37321750Y-3666501D01*
X37244010Y-4360113D01*
X37183091Y-4875428D01*
X37182665Y-4878669D01*
X37082830Y-5566974D01*
X37004755Y-6082443D01*
X37004227Y-6085642D01*
X36882519Y-6768156D01*
X36787244Y-7283026D01*
X36786618Y-7286178D01*
X36643287Y-7962316D01*
X36530805Y-8475848D01*
X36530084Y-8478950D01*
X36365361Y-9148242D01*
X36235675Y-9659786D01*
X36234861Y-9662835D01*
X36049039Y-10324603D01*
X35902200Y-10833449D01*
X35901295Y-10836443D01*
X35694608Y-11490281D01*
X35530732Y-11995609D01*
X35529739Y-11998545D01*
X35302480Y-12643873D01*
X35121658Y-13145065D01*
X35120580Y-13147941D01*
X34873027Y-13784254D01*
X34675399Y-14280629D01*
X34674239Y-14283442D01*
X34406721Y-14910143D01*
X34192442Y-15401061D01*
X34191203Y-15403808D01*
X33904042Y-16020360D01*
X33673293Y-16505187D01*
X33671978Y-16507867D01*
X33365550Y-17113657D01*
X33118497Y-17591853D01*
X33117108Y-17594464D01*
X32791724Y-18189043D01*
X32528684Y-18659826D01*
X32527225Y-18662366D01*
X32183243Y-19245225D01*
X31904386Y-19708139D01*
X31902860Y-19710607D01*
X31540706Y-20281149D01*
X31246386Y-20735484D01*
X31244796Y-20737877D01*
X30864816Y-21295672D01*
X30555256Y-21740964D01*
X30553606Y-21743281D01*
X30156303Y-22287695D01*
X29831813Y-22723392D01*
X29830105Y-22725631D01*
X29415854Y-23256247D01*
X29076795Y-23681763D01*
X29075034Y-23683923D01*
X28644289Y-24200242D01*
X28290980Y-24615095D01*
X28289167Y-24617175D01*
X27842419Y-25118684D01*
X27475300Y-25522279D01*
X27473441Y-25524279D01*
X27011065Y-26010624D01*
X26630501Y-26402496D01*
X26628598Y-26404414D01*
X26151163Y-26875054D01*
X25757483Y-27254798D01*
X25755539Y-27256633D01*
X25263605Y-27711077D01*
X24857185Y-28078263D01*
X24855204Y-28080015D01*
X24349294Y-28517839D01*
X23930680Y-28871919D01*
X23928664Y-28873588D01*
X23409178Y-29294494D01*
X22978781Y-29635070D01*
X22976734Y-29636655D01*
X22444290Y-30040184D01*
X22002614Y-30366815D01*
X22000540Y-30368316D01*
X21455607Y-30754148D01*
X21003168Y-31066415D01*
X21001070Y-31067832D01*
X20444248Y-31435575D01*
X19981492Y-31733137D01*
X19979373Y-31734470D01*
X19411267Y-32083754D01*
X18937584Y-32366922D01*
X18937526Y-32366955D01*
X18361409Y-32695916D01*
X18357698Y-32698035D01*
X17874723Y-32965752D01*
X17284688Y-33277742D01*
X16792944Y-33529694D01*
X16193402Y-33822245D01*
X15693384Y-34058156D01*
X15084966Y-34330984D01*
X14577244Y-34550560D01*
X13960521Y-34803429D01*
X13445689Y-35006394D01*
X12821327Y-35239049D01*
X12299872Y-35425194D01*
X11668587Y-35637385D01*
X11210255Y-35784312D01*
X11141037Y-35806501D01*
X10503434Y-35998045D01*
X9970498Y-36149889D01*
X9327102Y-36320640D01*
X8789417Y-36455021D01*
X8140951Y-36604794D01*
X7598970Y-36721591D01*
X6946176Y-36850223D01*
X6400535Y-36949289D01*
X6358963Y-36956088D01*
X5744038Y-37056669D01*
X5195314Y-37137887D01*
X4535809Y-37223912D01*
X4247346Y-37257025D01*
X3984647Y-37287181D01*
X3322710Y-37351777D01*
X2769733Y-37397020D01*
X2106134Y-37440117D01*
X2054343Y-37442656D01*
X1551938Y-37467285D01*
X887276Y-37488845D01*
X754798Y-37491008D01*
X332429Y-37497904D01*
X-332490Y-37497904D01*
X-439300Y-37496159D01*
X-887283Y-37488845D01*
X-1551945Y-37467285D01*
X-2106138Y-37440117D01*
X-2769740Y-37397020D01*
X-3322718Y-37351777D01*
X-3984652Y-37287180D01*
X-4389140Y-37240748D01*
X-4535803Y-37223913D01*
X-5195320Y-37137887D01*
X-5744045Y-37056668D01*
X-6400536Y-36949288D01*
X-6946183Y-36850223D01*
X-7598976Y-36721589D01*
X-8140959Y-36604792D01*
X-8789409Y-36455023D01*
X-9327108Y-36320638D01*
X-9970504Y-36149888D01*
X-10503442Y-35998043D01*
X-11141051Y-35806497D01*
X-11668596Y-35637383D01*
X-12299876Y-35425192D01*
X-12821336Y-35239046D01*
X-13445694Y-35006392D01*
X-13960529Y-34803425D01*
X-14577234Y-34550564D01*
X-14795418Y-34456206D01*
X-15084975Y-34330980D01*
X-15693388Y-34058154D01*
X-16193411Y-33822242D01*
X-16792948Y-33529692D01*
X-17284697Y-33277737D01*
X-17874726Y-32965750D01*
X-18357707Y-32698029D01*
X-18937588Y-32366920D01*
X-18937623Y-32366899D01*
X-19398107Y-32091621D01*
X-19411272Y-32083751D01*
X-19979373Y-31734470D01*
X-19981492Y-31733137D01*
X-20444247Y-31435575D01*
X-21001070Y-31067832D01*
X-21003169Y-31066415D01*
X-21095577Y-31002636D01*
X-5504848Y-31002636D01*
X-5485239Y-31464217D01*
X-5484793Y-31469462D01*
X-5426109Y-31927738D01*
X-5425222Y-31932911D01*
X-5327887Y-32384547D01*
X-5326558Y-32389651D01*
X-5191269Y-32831416D01*
X-5189523Y-32836357D01*
X-5017259Y-33265053D01*
X-5015090Y-33269850D01*
X-4807092Y-33682391D01*
X-4804530Y-33686978D01*
X-4562292Y-34080397D01*
X-4559344Y-34084758D01*
X-4284623Y-34456206D01*
X-4281313Y-34460305D01*
X-4062490Y-34708937D01*
X-1938580Y-32585027D01*
X-1930092Y-32596711D01*
X-1714751Y-32826025D01*
X-1582160Y-32935713D01*
X-3709434Y-35062987D01*
X-3638884Y-35130603D01*
X-3634939Y-35134075D01*
X-3275497Y-35424304D01*
X-3271236Y-35427455D01*
X-2888465Y-35686164D01*
X-2884001Y-35688912D01*
X-2480661Y-35914232D01*
X-2475942Y-35916611D01*
X-2054959Y-36106907D01*
X-2050079Y-36108868D01*
X-1614458Y-36262783D01*
X-1609431Y-36264323D01*
X-1162330Y-36380738D01*
X-1157179Y-36381848D01*
X-701818Y-36459927D01*
X-696610Y-36460594D01*
X-236261Y-36499776D01*
X-231006Y-36500000D01*
X231006Y-36500000D01*
X236261Y-36499776D01*
X696610Y-36460594D01*
X701818Y-36459927D01*
X1157179Y-36381848D01*
X1162330Y-36380738D01*
X1609431Y-36264323D01*
X1614458Y-36262783D01*
X2050079Y-36108868D01*
X2054959Y-36106907D01*
X2475942Y-35916611D01*
X2480661Y-35914232D01*
X2884001Y-35688912D01*
X2888465Y-35686164D01*
X3271236Y-35427455D01*
X3275497Y-35424304D01*
X3634939Y-35134075D01*
X3638884Y-35130603D01*
X3709434Y-35062987D01*
X1582160Y-32935713D01*
X1714751Y-32826025D01*
X1930092Y-32596711D01*
X1938580Y-32585027D01*
X4062490Y-34708937D01*
X4281313Y-34460305D01*
X4284623Y-34456206D01*
X4559344Y-34084758D01*
X4562292Y-34080397D01*
X4804530Y-33686978D01*
X4807092Y-33682391D01*
X5015090Y-33269850D01*
X5017259Y-33265053D01*
X5189523Y-32836357D01*
X5191269Y-32831416D01*
X5326558Y-32389651D01*
X5327887Y-32384547D01*
X5425222Y-31932911D01*
X5426109Y-31927738D01*
X5484793Y-31469462D01*
X5485239Y-31464217D01*
X5504848Y-31002636D01*
X5504848Y-30997363D01*
X5485239Y-30535782D01*
X5484793Y-30530537D01*
X5426109Y-30072261D01*
X5425222Y-30067088D01*
X5327887Y-29615452D01*
X5326558Y-29610348D01*
X5191269Y-29168583D01*
X5189523Y-29163642D01*
X5017259Y-28734946D01*
X5015090Y-28730149D01*
X4807092Y-28317608D01*
X4804530Y-28313021D01*
X4562292Y-27919602D01*
X4559344Y-27915241D01*
X4284623Y-27543793D01*
X4281313Y-27539694D01*
X4062489Y-27291062D01*
X1938579Y-29414971D01*
X1930092Y-29403289D01*
X1714751Y-29173975D01*
X1582159Y-29064286D01*
X3709434Y-26937012D01*
X3638897Y-26869408D01*
X3634925Y-26865913D01*
X3275497Y-26575695D01*
X3271236Y-26572544D01*
X2888465Y-26313835D01*
X2884001Y-26311087D01*
X2480661Y-26085767D01*
X2475942Y-26083388D01*
X2054959Y-25893092D01*
X2050079Y-25891131D01*
X1614458Y-25737216D01*
X1609431Y-25735676D01*
X1162330Y-25619261D01*
X1157179Y-25618151D01*
X701818Y-25540072D01*
X696610Y-25539405D01*
X236261Y-25500223D01*
X231006Y-25500000D01*
X-231006Y-25500000D01*
X-236261Y-25500223D01*
X-696610Y-25539405D01*
X-701818Y-25540072D01*
X-1157179Y-25618151D01*
X-1162330Y-25619261D01*
X-1609431Y-25735676D01*
X-1614458Y-25737216D01*
X-2050079Y-25891131D01*
X-2054959Y-25893092D01*
X-2475942Y-26083388D01*
X-2480661Y-26085767D01*
X-2884001Y-26311087D01*
X-2888465Y-26313835D01*
X-3271236Y-26572544D01*
X-3275497Y-26575695D01*
X-3634925Y-26865913D01*
X-3638897Y-26869408D01*
X-3709434Y-26937012D01*
X-1582159Y-29064286D01*
X-1714751Y-29173975D01*
X-1930092Y-29403289D01*
X-1938579Y-29414971D01*
X-4062489Y-27291062D01*
X-4281313Y-27539694D01*
X-4284623Y-27543793D01*
X-4559344Y-27915241D01*
X-4562292Y-27919602D01*
X-4804530Y-28313021D01*
X-4807092Y-28317608D01*
X-5015090Y-28730149D01*
X-5017259Y-28734946D01*
X-5189523Y-29163642D01*
X-5191269Y-29168583D01*
X-5326558Y-29610348D01*
X-5327887Y-29615452D01*
X-5425222Y-30067088D01*
X-5426109Y-30072261D01*
X-5484793Y-30530537D01*
X-5485239Y-30535782D01*
X-5504848Y-30997363D01*
X-5504848Y-31002636D01*
X-21095577Y-31002636D01*
X-21455607Y-30754148D01*
X-22000540Y-30368316D01*
X-22002615Y-30366815D01*
X-22444290Y-30040184D01*
X-22976734Y-29636655D01*
X-22978781Y-29635070D01*
X-23409178Y-29294494D01*
X-23928663Y-28873588D01*
X-23930679Y-28871919D01*
X-24349292Y-28517840D01*
X-24855203Y-28080015D01*
X-24857185Y-28078263D01*
X-25263605Y-27711077D01*
X-25755539Y-27256633D01*
X-25757483Y-27254798D01*
X-26151163Y-26875054D01*
X-26628598Y-26404414D01*
X-26630501Y-26402496D01*
X-27011065Y-26010624D01*
X-27473441Y-25524279D01*
X-27475300Y-25522279D01*
X-27842419Y-25118684D01*
X-28289167Y-24617175D01*
X-28290980Y-24615095D01*
X-28644289Y-24200242D01*
X-29075034Y-23683923D01*
X-29076795Y-23681763D01*
X-29415854Y-23256247D01*
X-29830105Y-22725632D01*
X-29831812Y-22723392D01*
X-30156303Y-22287695D01*
X-30553606Y-21743281D01*
X-30555257Y-21740964D01*
X-30864816Y-21295672D01*
X-31244795Y-20737877D01*
X-31246385Y-20735484D01*
X-31540706Y-20281149D01*
X-31902861Y-19710606D01*
X-31904387Y-19708138D01*
X-32183243Y-19245225D01*
X-32527224Y-18662367D01*
X-32528683Y-18659826D01*
X-32791724Y-18189043D01*
X-33117107Y-17594464D01*
X-33118496Y-17591853D01*
X-33365550Y-17113657D01*
X-33671977Y-16507867D01*
X-33673293Y-16505187D01*
X-33904042Y-16020361D01*
X-34145173Y-15502636D01*
X-32351636Y-15502636D01*
X-32332027Y-15964217D01*
X-32331581Y-15969462D01*
X-32272897Y-16427738D01*
X-32272010Y-16432911D01*
X-32174675Y-16884547D01*
X-32173346Y-16889651D01*
X-32038057Y-17331416D01*
X-32036311Y-17336357D01*
X-31864047Y-17765053D01*
X-31861878Y-17769850D01*
X-31653880Y-18182391D01*
X-31651318Y-18186978D01*
X-31409080Y-18580397D01*
X-31406132Y-18584758D01*
X-31131411Y-18956206D01*
X-31128101Y-18960305D01*
X-30909278Y-19208937D01*
X-28785368Y-17085027D01*
X-28776880Y-17096711D01*
X-28561539Y-17326025D01*
X-28428948Y-17435713D01*
X-30556222Y-19562987D01*
X-30485672Y-19630603D01*
X-30481727Y-19634075D01*
X-30122285Y-19924304D01*
X-30118024Y-19927455D01*
X-29735253Y-20186164D01*
X-29730789Y-20188912D01*
X-29327449Y-20414232D01*
X-29322730Y-20416611D01*
X-28901747Y-20606907D01*
X-28896867Y-20608868D01*
X-28461246Y-20762783D01*
X-28456219Y-20764323D01*
X-28009118Y-20880738D01*
X-28003967Y-20881848D01*
X-27548606Y-20959927D01*
X-27543398Y-20960594D01*
X-27083049Y-20999776D01*
X-27077794Y-21000000D01*
X-26615782Y-21000000D01*
X-26610526Y-20999776D01*
X-26150177Y-20960594D01*
X-26144969Y-20959927D01*
X-25689608Y-20881848D01*
X-25684457Y-20880738D01*
X-25237356Y-20764323D01*
X-25232329Y-20762783D01*
X-24796708Y-20608868D01*
X-24791828Y-20606907D01*
X-24370845Y-20416611D01*
X-24366126Y-20414232D01*
X-23962786Y-20188912D01*
X-23958322Y-20186164D01*
X-23575551Y-19927455D01*
X-23571290Y-19924304D01*
X-23211862Y-19634086D01*
X-23207890Y-19630591D01*
X-23137352Y-19562987D01*
X-25264627Y-17435713D01*
X-25132037Y-17326025D01*
X-24916696Y-17096711D01*
X-24908206Y-17085026D01*
X-22784297Y-19208936D01*
X-22565474Y-18960305D01*
X-22562164Y-18956206D01*
X-22287443Y-18584758D01*
X-22284495Y-18580397D01*
X-22042257Y-18186978D01*
X-22039695Y-18182391D01*
X-21831697Y-17769850D01*
X-21829528Y-17765053D01*
X-21657264Y-17336357D01*
X-21655518Y-17331416D01*
X-21520229Y-16889651D01*
X-21518900Y-16884547D01*
X-21421565Y-16432911D01*
X-21420678Y-16427738D01*
X-21361994Y-15969462D01*
X-21361548Y-15964217D01*
X-21341940Y-15502636D01*
X21341940Y-15502636D01*
X21361548Y-15964217D01*
X21361994Y-15969462D01*
X21420678Y-16427738D01*
X21421565Y-16432911D01*
X21518900Y-16884547D01*
X21520229Y-16889651D01*
X21655518Y-17331416D01*
X21657264Y-17336357D01*
X21829528Y-17765053D01*
X21831697Y-17769850D01*
X22039695Y-18182391D01*
X22042257Y-18186978D01*
X22284495Y-18580397D01*
X22287443Y-18584758D01*
X22562164Y-18956206D01*
X22565474Y-18960305D01*
X22784297Y-19208936D01*
X24908206Y-17085026D01*
X24916696Y-17096711D01*
X25132037Y-17326025D01*
X25264627Y-17435713D01*
X23137352Y-19562987D01*
X23207890Y-19630591D01*
X23211862Y-19634086D01*
X23571290Y-19924304D01*
X23575551Y-19927455D01*
X23958322Y-20186164D01*
X23962786Y-20188912D01*
X24366126Y-20414232D01*
X24370845Y-20416611D01*
X24791828Y-20606907D01*
X24796708Y-20608868D01*
X25232329Y-20762783D01*
X25237356Y-20764323D01*
X25684457Y-20880738D01*
X25689608Y-20881848D01*
X26144969Y-20959927D01*
X26150177Y-20960594D01*
X26610526Y-20999776D01*
X26615782Y-21000000D01*
X27077794Y-21000000D01*
X27083049Y-20999776D01*
X27543398Y-20960594D01*
X27548606Y-20959927D01*
X28003967Y-20881848D01*
X28009118Y-20880738D01*
X28456219Y-20764323D01*
X28461246Y-20762783D01*
X28896867Y-20608868D01*
X28901747Y-20606907D01*
X29322730Y-20416611D01*
X29327449Y-20414232D01*
X29730789Y-20188912D01*
X29735253Y-20186164D01*
X30118024Y-19927455D01*
X30122285Y-19924304D01*
X30481727Y-19634075D01*
X30485672Y-19630603D01*
X30556222Y-19562987D01*
X28428948Y-17435713D01*
X28561539Y-17326025D01*
X28776880Y-17096711D01*
X28785368Y-17085027D01*
X30909278Y-19208937D01*
X31128101Y-18960305D01*
X31131411Y-18956206D01*
X31406132Y-18584758D01*
X31409080Y-18580397D01*
X31651318Y-18186978D01*
X31653880Y-18182391D01*
X31861878Y-17769850D01*
X31864047Y-17765053D01*
X32036311Y-17336357D01*
X32038057Y-17331416D01*
X32173346Y-16889651D01*
X32174675Y-16884547D01*
X32272010Y-16432911D01*
X32272897Y-16427738D01*
X32331581Y-15969462D01*
X32332027Y-15964217D01*
X32351636Y-15502636D01*
X32351636Y-15497363D01*
X32332027Y-15035782D01*
X32331581Y-15030537D01*
X32272897Y-14572261D01*
X32272010Y-14567088D01*
X32174675Y-14115452D01*
X32173346Y-14110348D01*
X32038057Y-13668583D01*
X32036311Y-13663642D01*
X31864047Y-13234946D01*
X31861878Y-13230149D01*
X31653880Y-12817608D01*
X31651318Y-12813021D01*
X31409080Y-12419602D01*
X31406132Y-12415241D01*
X31131411Y-12043793D01*
X31128101Y-12039694D01*
X30909277Y-11791062D01*
X28785367Y-13914971D01*
X28776880Y-13903289D01*
X28561539Y-13673975D01*
X28428947Y-13564285D01*
X30556222Y-11437012D01*
X30485685Y-11369408D01*
X30481713Y-11365913D01*
X30122285Y-11075695D01*
X30118024Y-11072544D01*
X29735253Y-10813835D01*
X29730789Y-10811087D01*
X29327449Y-10585767D01*
X29322730Y-10583388D01*
X28901747Y-10393092D01*
X28896867Y-10391131D01*
X28461246Y-10237216D01*
X28456219Y-10235676D01*
X28009118Y-10119261D01*
X28003967Y-10118151D01*
X27548606Y-10040072D01*
X27543398Y-10039405D01*
X27083049Y-10000223D01*
X27077794Y-10000000D01*
X26615782Y-10000000D01*
X26610526Y-10000223D01*
X26150177Y-10039405D01*
X26144969Y-10040072D01*
X25689608Y-10118151D01*
X25684457Y-10119261D01*
X25237356Y-10235676D01*
X25232329Y-10237216D01*
X24796708Y-10391131D01*
X24791828Y-10393092D01*
X24370845Y-10583388D01*
X24366126Y-10585767D01*
X23962786Y-10811087D01*
X23958322Y-10813835D01*
X23575551Y-11072544D01*
X23571290Y-11075695D01*
X23211849Y-11365923D01*
X23207902Y-11369397D01*
X23137353Y-11437011D01*
X23137353Y-11437012D01*
X25264627Y-13564286D01*
X25132037Y-13673975D01*
X24916696Y-13903289D01*
X24908207Y-13914972D01*
X22784297Y-11791062D01*
X22565464Y-12039704D01*
X22562171Y-12043783D01*
X22287443Y-12415241D01*
X22284495Y-12419602D01*
X22042257Y-12813021D01*
X22039695Y-12817608D01*
X21831697Y-13230149D01*
X21829528Y-13234946D01*
X21657264Y-13663642D01*
X21655518Y-13668583D01*
X21520229Y-14110348D01*
X21518900Y-14115452D01*
X21421565Y-14567088D01*
X21420678Y-14572261D01*
X21361994Y-15030537D01*
X21361548Y-15035782D01*
X21341940Y-15497363D01*
X21341940Y-15502636D01*
X-21341940Y-15502636D01*
X-21341940Y-15497363D01*
X-21361548Y-15035782D01*
X-21361994Y-15030537D01*
X-21420678Y-14572261D01*
X-21421565Y-14567088D01*
X-21518900Y-14115452D01*
X-21520229Y-14110348D01*
X-21655518Y-13668583D01*
X-21657264Y-13663642D01*
X-21829528Y-13234946D01*
X-21831697Y-13230149D01*
X-22039695Y-12817608D01*
X-22042257Y-12813021D01*
X-22284495Y-12419602D01*
X-22287443Y-12415241D01*
X-22562171Y-12043783D01*
X-22565464Y-12039704D01*
X-22784297Y-11791062D01*
X-24908207Y-13914972D01*
X-24916696Y-13903289D01*
X-25132037Y-13673975D01*
X-25264627Y-13564286D01*
X-23137353Y-11437012D01*
X-23137353Y-11437011D01*
X-23207902Y-11369397D01*
X-23211849Y-11365923D01*
X-23571290Y-11075695D01*
X-23575551Y-11072544D01*
X-23958322Y-10813835D01*
X-23962786Y-10811087D01*
X-24366126Y-10585767D01*
X-24370845Y-10583388D01*
X-24791828Y-10393092D01*
X-24796708Y-10391131D01*
X-25232329Y-10237216D01*
X-25237356Y-10235676D01*
X-25684457Y-10119261D01*
X-25689608Y-10118151D01*
X-26144969Y-10040072D01*
X-26150177Y-10039405D01*
X-26610526Y-10000223D01*
X-26615782Y-10000000D01*
X-27077794Y-10000000D01*
X-27083049Y-10000223D01*
X-27543398Y-10039405D01*
X-27548606Y-10040072D01*
X-28003967Y-10118151D01*
X-28009118Y-10119261D01*
X-28456219Y-10235676D01*
X-28461246Y-10237216D01*
X-28896867Y-10391131D01*
X-28901747Y-10393092D01*
X-29322730Y-10583388D01*
X-29327449Y-10585767D01*
X-29730789Y-10811087D01*
X-29735253Y-10813835D01*
X-30118024Y-11072544D01*
X-30122285Y-11075695D01*
X-30481713Y-11365913D01*
X-30485685Y-11369408D01*
X-30556222Y-11437012D01*
X-28428947Y-13564285D01*
X-28561539Y-13673975D01*
X-28776880Y-13903289D01*
X-28785367Y-13914971D01*
X-30909277Y-11791062D01*
X-31128101Y-12039694D01*
X-31131411Y-12043793D01*
X-31406132Y-12415241D01*
X-31409080Y-12419602D01*
X-31651318Y-12813021D01*
X-31653880Y-12817608D01*
X-31861878Y-13230149D01*
X-31864047Y-13234946D01*
X-32036311Y-13663642D01*
X-32038057Y-13668583D01*
X-32173346Y-14110348D01*
X-32174675Y-14115452D01*
X-32272010Y-14567088D01*
X-32272897Y-14572261D01*
X-32331581Y-15030537D01*
X-32332027Y-15035782D01*
X-32351636Y-15497363D01*
X-32351636Y-15502636D01*
X-34145173Y-15502636D01*
X-34191202Y-15403809D01*
X-34192442Y-15401061D01*
X-34406721Y-14910143D01*
X-34674240Y-14283441D01*
X-34675400Y-14280628D01*
X-34873027Y-13784254D01*
X-35120579Y-13147941D01*
X-35121657Y-13145065D01*
X-35302480Y-12643874D01*
X-35529739Y-11998546D01*
X-35530732Y-11995610D01*
X-35694608Y-11490282D01*
X-35901294Y-10836444D01*
X-35902200Y-10833449D01*
X-36049039Y-10324603D01*
X-36234860Y-9662836D01*
X-36235674Y-9659786D01*
X-36365360Y-9148242D01*
X-36530084Y-8478951D01*
X-36530805Y-8475848D01*
X-36643287Y-7962316D01*
X-36786618Y-7286177D01*
X-36787244Y-7283026D01*
X-36882519Y-6768156D01*
X-37004227Y-6085641D01*
X-37004755Y-6082443D01*
X-37082830Y-5566974D01*
X-37182665Y-4878669D01*
X-37183092Y-4875427D01*
X-37244010Y-4360113D01*
X-37321750Y-3666501D01*
X-37322074Y-3663219D01*
X-37365906Y-3148868D01*
X-37421326Y-2450481D01*
X-37421545Y-2447161D01*
X-37448411Y-1934507D01*
X-37481293Y-1231842D01*
X-37481405Y-1228489D01*
X-37491457Y-718432D01*
X-37501587Y-11892D01*
X-37501590Y-8509D01*
X-37495026Y498212D01*
X-37482183Y1208075D01*
X-37482074Y1211485D01*
X-37459142Y1713984D01*
X-37423101Y2426806D01*
X-37422879Y2430238D01*
X-37383888Y2927456D01*
X-37324409Y3642918D01*
X-37324073Y3646369D01*
X-37269367Y4137573D01*
X-37186209Y4855174D01*
X-37185757Y4858642D01*
X-37115750Y5342901D01*
X-37008649Y6062278D01*
X-37008081Y6065757D01*
X-36923318Y6541768D01*
X-36791894Y7263087D01*
X-36791207Y7266573D01*
X-36692336Y7733013D01*
X-36536212Y8456106D01*
X-36535406Y8459596D01*
X-36423059Y8915654D01*
X-36241842Y9640227D01*
X-36240915Y9643716D01*
X-36115972Y10087924D01*
X-35909116Y10814118D01*
X-35908068Y10817602D01*
X-35771545Y11248478D01*
X-35538363Y11976610D01*
X-35537193Y11980084D01*
X-35390400Y12395730D01*
X-35130006Y13126381D01*
X-35128714Y13129842D01*
X-34973170Y13528326D01*
X-34684443Y14262304D01*
X-34683028Y14265748D01*
X-34520707Y14644588D01*
X-34202163Y15383132D01*
X-34200625Y15386553D01*
X-34148802Y15497363D01*
X-32351636Y15497363D01*
X-32332027Y15035782D01*
X-32331581Y15030537D01*
X-32272897Y14572261D01*
X-32272010Y14567088D01*
X-32174675Y14115452D01*
X-32173346Y14110348D01*
X-32038057Y13668583D01*
X-32036311Y13663642D01*
X-31864047Y13234946D01*
X-31861878Y13230149D01*
X-31653880Y12817608D01*
X-31651318Y12813021D01*
X-31409080Y12419602D01*
X-31406132Y12415241D01*
X-31131411Y12043793D01*
X-31128101Y12039694D01*
X-30909277Y11791062D01*
X-28785368Y13914971D01*
X-28776880Y13903289D01*
X-28561539Y13673975D01*
X-28428948Y13564286D01*
X-30556222Y11437012D01*
X-30485685Y11369408D01*
X-30481713Y11365913D01*
X-30122285Y11075695D01*
X-30118024Y11072544D01*
X-29735253Y10813835D01*
X-29730789Y10811087D01*
X-29327449Y10585767D01*
X-29322730Y10583388D01*
X-28901747Y10393092D01*
X-28896867Y10391131D01*
X-28461246Y10237216D01*
X-28456219Y10235676D01*
X-28009118Y10119261D01*
X-28003967Y10118151D01*
X-27548606Y10040072D01*
X-27543398Y10039405D01*
X-27083049Y10000223D01*
X-27077794Y10000000D01*
X-26615782Y10000000D01*
X-26610526Y10000223D01*
X-26150177Y10039405D01*
X-26144969Y10040072D01*
X-25689608Y10118151D01*
X-25684457Y10119261D01*
X-25237356Y10235676D01*
X-25232329Y10237216D01*
X-24796708Y10391131D01*
X-24791828Y10393092D01*
X-24370845Y10583388D01*
X-24366126Y10585767D01*
X-23962786Y10811087D01*
X-23958322Y10813835D01*
X-23575551Y11072544D01*
X-23571290Y11075695D01*
X-23211849Y11365923D01*
X-23207902Y11369397D01*
X-23137353Y11437011D01*
X-23137353Y11437012D01*
X-25264627Y13564286D01*
X-25132037Y13673975D01*
X-24916696Y13903289D01*
X-24908207Y13914972D01*
X-22784297Y11791062D01*
X-22565464Y12039704D01*
X-22562171Y12043783D01*
X-22287443Y12415241D01*
X-22284495Y12419602D01*
X-22042257Y12813021D01*
X-22039695Y12817608D01*
X-21831697Y13230149D01*
X-21829528Y13234946D01*
X-21657264Y13663642D01*
X-21655518Y13668583D01*
X-21520229Y14110348D01*
X-21518900Y14115452D01*
X-21421565Y14567088D01*
X-21420678Y14572261D01*
X-21361994Y15030537D01*
X-21361548Y15035782D01*
X-21341940Y15497363D01*
X-21341940Y15502636D01*
X-21361548Y15964217D01*
X-21361994Y15969462D01*
X-21420678Y16427738D01*
X-21421565Y16432911D01*
X-21518900Y16884547D01*
X-21520229Y16889651D01*
X-21655518Y17331416D01*
X-21657264Y17336357D01*
X-21829528Y17765053D01*
X-21831697Y17769850D01*
X-22039695Y18182391D01*
X-22042257Y18186978D01*
X-22284495Y18580397D01*
X-22287443Y18584758D01*
X-22562164Y18956206D01*
X-22565474Y18960305D01*
X-22784297Y19208936D01*
X-24908207Y17085027D01*
X-24916696Y17096711D01*
X-25132037Y17326025D01*
X-25264627Y17435713D01*
X-23137352Y19562987D01*
X-23207890Y19630591D01*
X-23211862Y19634086D01*
X-23571290Y19924304D01*
X-23575551Y19927455D01*
X-23958322Y20186164D01*
X-23962786Y20188912D01*
X-24366126Y20414232D01*
X-24370845Y20416611D01*
X-24791828Y20606907D01*
X-24796708Y20608868D01*
X-25232329Y20762783D01*
X-25237356Y20764323D01*
X-25684457Y20880738D01*
X-25689608Y20881848D01*
X-26144969Y20959927D01*
X-26150177Y20960594D01*
X-26610526Y20999776D01*
X-26615782Y21000000D01*
X-27077794Y21000000D01*
X-27083049Y20999776D01*
X-27543398Y20960594D01*
X-27548606Y20959927D01*
X-28003967Y20881848D01*
X-28009118Y20880738D01*
X-28456219Y20764323D01*
X-28461246Y20762783D01*
X-28896867Y20608868D01*
X-28901747Y20606907D01*
X-29322730Y20416611D01*
X-29327449Y20414232D01*
X-29730789Y20188912D01*
X-29735253Y20186164D01*
X-30118024Y19927455D01*
X-30122285Y19924304D01*
X-30481727Y19634075D01*
X-30485672Y19630603D01*
X-30556222Y19562987D01*
X-28428948Y17435713D01*
X-28561539Y17326025D01*
X-28776880Y17096711D01*
X-28785368Y17085027D01*
X-30909278Y19208937D01*
X-31128101Y18960305D01*
X-31131411Y18956206D01*
X-31406132Y18584758D01*
X-31409080Y18580397D01*
X-31651318Y18186978D01*
X-31653880Y18182391D01*
X-31861878Y17769850D01*
X-31864047Y17765053D01*
X-32036311Y17336357D01*
X-32038057Y17331416D01*
X-32173346Y16889651D01*
X-32174675Y16884547D01*
X-32272010Y16432911D01*
X-32272897Y16427738D01*
X-32331581Y15969462D01*
X-32332027Y15964217D01*
X-32351636Y15502636D01*
X-32351636Y15497363D01*
X-34148802Y15497363D01*
X-34034009Y15742815D01*
X-33683692Y16487647D01*
X-33682031Y16491043D01*
X-33514405Y16820943D01*
X-33129547Y17574742D01*
X-33127763Y17578107D01*
X-32963717Y17876426D01*
X-32540331Y18643236D01*
X-32538425Y18646565D01*
X-32384388Y18906226D01*
X-31916695Y19691950D01*
X-31914667Y19695240D01*
X-31780381Y19905634D01*
X-31259232Y20719888D01*
X-31257082Y20723134D01*
X-31159240Y20865924D01*
X-30568698Y21725861D01*
X-30566428Y21729058D01*
X-30534650Y21772334D01*
X-29847469Y22706575D01*
X-29845034Y22709775D01*
X-29095621Y23662307D01*
X-29093084Y23665426D01*
X-28313176Y24593171D01*
X-28310539Y24596206D01*
X-27502354Y25496627D01*
X-27499287Y25499867D01*
X-27499396Y25502532D01*
X-27499500Y25507599D01*
X-27499500Y55000000D01*
X-26525585Y55000000D01*
X-26505262Y54651073D01*
X-26444569Y54306864D01*
X-26344326Y53972029D01*
X-26205889Y53651096D01*
X-26031130Y53348404D01*
X-25822412Y53068047D01*
X-25582558Y52813817D01*
X-25579800Y52811503D01*
X-25579795Y52811498D01*
X-25378476Y52642572D01*
X-25314811Y52589151D01*
X-25311793Y52587166D01*
X-25025812Y52399072D01*
X-25025804Y52399067D01*
X-25022793Y52397087D01*
X-24964193Y52367657D01*
X-24713688Y52241848D01*
X-24713678Y52241843D01*
X-24710451Y52240223D01*
X-24665862Y52223994D01*
X-24385400Y52121914D01*
X-24385392Y52121911D01*
X-24382011Y52120681D01*
X-24378512Y52119851D01*
X-24378503Y52119849D01*
X-24045420Y52040907D01*
X-24045404Y52040904D01*
X-24041914Y52040077D01*
X-24038349Y52039660D01*
X-24038336Y52039658D01*
X-23698329Y51999917D01*
X-23698324Y51999916D01*
X-23694759Y51999500D01*
X-23691161Y51999500D01*
X-23348839Y51999500D01*
X-23345241Y51999500D01*
X-23341676Y51999916D01*
X-23341670Y51999917D01*
X-23001663Y52039658D01*
X-23001647Y52039660D01*
X-22998086Y52040077D01*
X-22994598Y52040903D01*
X-22994579Y52040907D01*
X-22661496Y52119849D01*
X-22661482Y52119852D01*
X-22657989Y52120681D01*
X-22654612Y52121910D01*
X-22654599Y52121914D01*
X-22332950Y52238985D01*
X-22332947Y52238985D01*
X-22329549Y52240223D01*
X-22326327Y52241840D01*
X-22326311Y52241848D01*
X-22020436Y52395465D01*
X-22020431Y52395467D01*
X-22017207Y52397087D01*
X-22014203Y52399062D01*
X-22014187Y52399072D01*
X-21728206Y52587166D01*
X-21728198Y52587171D01*
X-21725189Y52589151D01*
X-21722438Y52591458D01*
X-21722429Y52591466D01*
X-21460204Y52811498D01*
X-21460190Y52811510D01*
X-21457442Y52813817D01*
X-21454967Y52816439D01*
X-21454962Y52816445D01*
X-21220062Y53065424D01*
X-21220056Y53065430D01*
X-21217588Y53068047D01*
X-21215448Y53070921D01*
X-21215435Y53070937D01*
X-21011029Y53345503D01*
X-21011023Y53345511D01*
X-21008870Y53348404D01*
X-21007071Y53351518D01*
X-21007061Y53351535D01*
X-20875157Y53580000D01*
X-18025301Y53580000D01*
X-18011748Y53416456D01*
X-18006134Y53348695D01*
X-17949157Y53123700D01*
X-17855924Y52911151D01*
X-17728979Y52716847D01*
X-17571784Y52546087D01*
X-17388626Y52403530D01*
X-17184503Y52293064D01*
X-17184499Y52293062D01*
X-17184498Y52293062D01*
X-16964984Y52217702D01*
X-16825538Y52194433D01*
X-16736049Y52179500D01*
X-16736048Y52179500D01*
X-16503952Y52179500D01*
X-16503951Y52179500D01*
X-16465544Y52185909D01*
X-16275018Y52217701D01*
X-16149761Y52260702D01*
X-16079962Y52263851D01*
X-16019541Y52228764D01*
X-15987681Y52166581D01*
X-15985499Y52143430D01*
X-15985499Y28670963D01*
X-15985499Y5074107D01*
X-16005184Y5007068D01*
X-16014506Y4994405D01*
X-16018527Y4989611D01*
X-16018530Y4989610D01*
X-16050374Y4951657D01*
X-16057674Y4943692D01*
X-16061591Y4939777D01*
X-16080833Y4915439D01*
X-16083090Y4912670D01*
X-16131302Y4855214D01*
X-16131303Y4855211D01*
X-16132115Y4854244D01*
X-16142573Y4837827D01*
X-16143106Y4836682D01*
X-16143111Y4836677D01*
X-16174833Y4768646D01*
X-16176362Y4765488D01*
X-16208158Y4702180D01*
X-16210612Y4697294D01*
X-16217000Y4678914D01*
X-16217255Y4677675D01*
X-16217257Y4677673D01*
X-16232447Y4604103D01*
X-16233186Y4600770D01*
X-16250500Y4527721D01*
X-16250500Y4527716D01*
X-16250791Y4526489D01*
X-16252770Y4507121D01*
X-16252733Y4505859D01*
X-16252734Y4505856D01*
X-16251807Y4474014D01*
X-16250552Y4430869D01*
X-16250500Y4427263D01*
X-16250500Y1963705D01*
X-16251809Y1945735D01*
X-16255289Y1921977D01*
X-16252840Y1893984D01*
X-16250972Y1872629D01*
X-16250500Y1861823D01*
X-16250500Y1856291D01*
X-16250080Y1852701D01*
X-16246903Y1825520D01*
X-16246536Y1821929D01*
X-16239889Y1745949D01*
X-16235672Y1726930D01*
X-16235241Y1725746D01*
X-16235241Y1725745D01*
X-16230961Y1713985D01*
X-16209592Y1655274D01*
X-16208408Y1651868D01*
X-16184417Y1579468D01*
X-16175929Y1561936D01*
X-16175237Y1560884D01*
X-16175237Y1560883D01*
X-16133999Y1498184D01*
X-16132087Y1495181D01*
X-16092050Y1430270D01*
X-16079750Y1415172D01*
X-16024289Y1362847D01*
X-16021702Y1360334D01*
X-15572869Y911502D01*
X-15539384Y850179D01*
X-15537022Y813015D01*
X-15555659Y600000D01*
X-15535063Y364592D01*
X-15473903Y136337D01*
X-15374035Y-77830D01*
X-15238495Y-271401D01*
X-15071401Y-438495D01*
X-14877830Y-574035D01*
X-14663663Y-673903D01*
X-14435408Y-735063D01*
X-14200000Y-755659D01*
X-13964592Y-735063D01*
X-13964592Y-735062D01*
X-13736337Y-673903D01*
X-13522170Y-574035D01*
X-13328599Y-438495D01*
X-13161505Y-271401D01*
X-13025965Y-77830D01*
X-12926097Y136337D01*
X-12864936Y364592D01*
X-12844340Y600000D01*
X-12864936Y835407D01*
X-12926097Y1063663D01*
X-13025965Y1277829D01*
X-13161505Y1471401D01*
X-13283430Y1593326D01*
X-13316915Y1654649D01*
X-13311931Y1724341D01*
X-13270059Y1780274D01*
X-13239083Y1797189D01*
X-13107669Y1846204D01*
X-12992454Y1932454D01*
X-12906204Y2047668D01*
X-12855909Y2182516D01*
X-12849854Y2238833D01*
X-12849853Y2238835D01*
X-12849500Y2242127D01*
X-12849500Y2488770D01*
X-12829815Y2555809D01*
X-12777011Y2601564D01*
X-12707853Y2611508D01*
X-12644297Y2582483D01*
X-12637819Y2576451D01*
X-10972869Y911501D01*
X-10939384Y850178D01*
X-10937022Y813014D01*
X-10955659Y600000D01*
X-10935063Y364592D01*
X-10873903Y136337D01*
X-10774035Y-77830D01*
X-10638495Y-271401D01*
X-10471401Y-438495D01*
X-10277830Y-574035D01*
X-10063663Y-673903D01*
X-9835408Y-735063D01*
X-9600000Y-755659D01*
X-9364592Y-735063D01*
X-9364592Y-735062D01*
X-9136337Y-673903D01*
X-8922170Y-574035D01*
X-8728599Y-438495D01*
X-8561505Y-271401D01*
X-8425965Y-77830D01*
X-8326097Y136337D01*
X-8264936Y364592D01*
X-8244340Y600000D01*
X-8264936Y835407D01*
X-8326097Y1063663D01*
X-8425965Y1277829D01*
X-8561505Y1471401D01*
X-8683430Y1593326D01*
X-8716915Y1654649D01*
X-8711931Y1724341D01*
X-8670059Y1780274D01*
X-8639083Y1797189D01*
X-8507669Y1846204D01*
X-8392454Y1932454D01*
X-8306204Y2047668D01*
X-8255909Y2182516D01*
X-8249854Y2238833D01*
X-8249853Y2238835D01*
X-8249500Y2242127D01*
X-8249500Y3107492D01*
X-8249500Y4034560D01*
X-8249500Y4034578D01*
X-8249501Y4037872D01*
X-8255909Y4097483D01*
X-8270862Y4137573D01*
X-8306204Y4232330D01*
X-8306204Y4232331D01*
X-8392454Y4347546D01*
X-8507669Y4433796D01*
X-8642517Y4484091D01*
X-8702127Y4490500D01*
X-9837769Y4490499D01*
X-9904808Y4510184D01*
X-9925450Y4526818D01*
X-10978181Y5579548D01*
X-11011666Y5640871D01*
X-11014500Y5667229D01*
X-11014500Y49672770D01*
X-10994815Y49739809D01*
X-10978181Y49760451D01*
X-10594362Y50144269D01*
X-10580732Y50156049D01*
X-10561470Y50170389D01*
X-10529627Y50208337D01*
X-10522344Y50216287D01*
X-10520961Y50217670D01*
X-10520947Y50217685D01*
X-10518410Y50220223D01*
X-10516184Y50223037D01*
X-10516177Y50223046D01*
X-10499184Y50244536D01*
X-10496911Y50247326D01*
X-10447894Y50305744D01*
X-10437419Y50322185D01*
X-10405184Y50391310D01*
X-10403615Y50394551D01*
X-10369396Y50462689D01*
X-10362998Y50481095D01*
X-10347582Y50555754D01*
X-10346802Y50559273D01*
X-10329209Y50633505D01*
X-10327230Y50652874D01*
X-10329448Y50729110D01*
X-10329500Y50732715D01*
X-10329500Y51726612D01*
X-10309815Y51793651D01*
X-10257011Y51839406D01*
X-10187853Y51849350D01*
X-10124297Y51820325D01*
X-10117824Y51814298D01*
X-10108718Y51805193D01*
X-10100206Y51795762D01*
X-10098489Y51793651D01*
X-10074277Y51763891D01*
X-10059615Y51753541D01*
X-10043444Y51739919D01*
X-8111818Y49808293D01*
X-8078333Y49746970D01*
X-8075499Y49720612D01*
X-8075500Y40875665D01*
X-8075500Y38772762D01*
X-8095185Y38705723D01*
X-8111818Y38685081D01*
X-8344946Y38451954D01*
X-8344947Y38451954D01*
X-9081145Y37715754D01*
X-9084129Y37712870D01*
X-9131044Y37669056D01*
X-9152398Y37633938D01*
X-9159532Y37623458D01*
X-9184361Y37590718D01*
X-9190945Y37574019D01*
X-9200344Y37555095D01*
X-9209672Y37539758D01*
X-9220760Y37500181D01*
X-9224800Y37488168D01*
X-9239876Y37449940D01*
X-9241373Y37435379D01*
X-9241711Y37432089D01*
X-9245658Y37411320D01*
X-9250500Y37394041D01*
X-9250500Y37394039D01*
X-9250500Y37352957D01*
X-9251150Y37340276D01*
X-9255352Y37299403D01*
X-9252303Y37281720D01*
X-9250500Y37260651D01*
X-9250500Y27493146D01*
X-9250572Y27488913D01*
X-9252762Y27424798D01*
X-9243035Y27384886D01*
X-9240665Y27372418D01*
X-9235070Y27331704D01*
X-9227921Y27315247D01*
X-9221180Y27295202D01*
X-9216933Y27277772D01*
X-9196792Y27241951D01*
X-9191149Y27230588D01*
X-9174780Y27192904D01*
X-9163456Y27178984D01*
X-9151559Y27161504D01*
X-9142765Y27145864D01*
X-9113713Y27116812D01*
X-9105205Y27107385D01*
X-9079277Y27075515D01*
X-9064615Y27065165D01*
X-9048444Y27051543D01*
X-3086819Y21089918D01*
X-3053334Y21028595D01*
X-3050500Y21002237D01*
X-3050500Y11224970D01*
X-3070185Y11157931D01*
X-3086814Y11137294D01*
X-7081145Y7142962D01*
X-7084129Y7140078D01*
X-7131044Y7096264D01*
X-7152398Y7061146D01*
X-7159532Y7050666D01*
X-7184361Y7017926D01*
X-7190945Y7001227D01*
X-7200344Y6982303D01*
X-7209672Y6966966D01*
X-7220760Y6927389D01*
X-7224800Y6915376D01*
X-7239876Y6877148D01*
X-7241711Y6859297D01*
X-7245658Y6838528D01*
X-7250500Y6821249D01*
X-7250500Y6821247D01*
X-7250500Y6780165D01*
X-7251150Y6767484D01*
X-7255352Y6726611D01*
X-7252303Y6708928D01*
X-7250500Y6687859D01*
X-7250500Y-2768476D01*
X-7250572Y-2772709D01*
X-7252762Y-2836826D01*
X-7243031Y-2876751D01*
X-7240666Y-2889196D01*
X-7235070Y-2929920D01*
X-7227918Y-2946383D01*
X-7221180Y-2966419D01*
X-7216933Y-2983852D01*
X-7196778Y-3019695D01*
X-7191157Y-3031015D01*
X-7174780Y-3068720D01*
X-7163458Y-3082635D01*
X-7151563Y-3100111D01*
X-7142766Y-3115759D01*
X-7113714Y-3144810D01*
X-7113712Y-3144812D01*
X-7105211Y-3154230D01*
X-7079278Y-3186108D01*
X-7064610Y-3196461D01*
X-7048450Y-3210073D01*
X-6317821Y-3940701D01*
X-6284338Y-4002022D01*
X-6285728Y-4060472D01*
X-6335063Y-4244592D01*
X-6355659Y-4480000D01*
X-6335063Y-4715408D01*
X-6273903Y-4943663D01*
X-6174035Y-5157830D01*
X-6038495Y-5351401D01*
X-5871401Y-5518495D01*
X-5677830Y-5654035D01*
X-5463663Y-5753903D01*
X-5235408Y-5815063D01*
X-5000000Y-5835659D01*
X-4764592Y-5815063D01*
X-4764592Y-5815062D01*
X-4536337Y-5753903D01*
X-4322170Y-5654035D01*
X-4128599Y-5518495D01*
X-3961505Y-5351401D01*
X-3825965Y-5157830D01*
X-3726097Y-4943663D01*
X-3707813Y-4875427D01*
X-3664936Y-4715407D01*
X-3644340Y-4480000D01*
X-3664936Y-4244592D01*
X-3726097Y-4016336D01*
X-3825965Y-3802170D01*
X-3961505Y-3608598D01*
X-4128595Y-3441508D01*
X-4128599Y-3441505D01*
X-4314160Y-3311573D01*
X-4357783Y-3256998D01*
X-4364976Y-3187499D01*
X-4333454Y-3125145D01*
X-4314162Y-3108428D01*
X-4128599Y-2978495D01*
X-3961505Y-2811401D01*
X-3825965Y-2617830D01*
X-3726097Y-2403663D01*
X-3709709Y-2342502D01*
X-3664936Y-2175407D01*
X-3644340Y-1940000D01*
X-3664936Y-1704592D01*
X-3726097Y-1476336D01*
X-3825965Y-1262170D01*
X-3961505Y-1068598D01*
X-4128595Y-901508D01*
X-4128599Y-901505D01*
X-4314160Y-771573D01*
X-4357783Y-716998D01*
X-4364976Y-647499D01*
X-4333454Y-585145D01*
X-4314162Y-568428D01*
X-4128599Y-438495D01*
X-3961505Y-271401D01*
X-3825965Y-77830D01*
X-3726097Y136337D01*
X-3664936Y364592D01*
X-3644340Y600000D01*
X-3664936Y835407D01*
X-3726097Y1063663D01*
X-3825965Y1277829D01*
X-3961505Y1471401D01*
X-4083430Y1593326D01*
X-4116915Y1654649D01*
X-4111931Y1724341D01*
X-4070059Y1780274D01*
X-4039083Y1797189D01*
X-3907669Y1846204D01*
X-3792454Y1932454D01*
X-3706204Y2047668D01*
X-3655909Y2182516D01*
X-3649854Y2238833D01*
X-3649853Y2238835D01*
X-3649500Y2242127D01*
X-3649500Y3107492D01*
X-3649500Y4034560D01*
X-3649500Y4034578D01*
X-3649501Y4037872D01*
X-3655909Y4097483D01*
X-3670862Y4137573D01*
X-3706204Y4232330D01*
X-3706204Y4232331D01*
X-3792454Y4347546D01*
X-3907669Y4433796D01*
X-4042517Y4484091D01*
X-4102127Y4490500D01*
X-4325500Y4490499D01*
X-4392539Y4510183D01*
X-4438294Y4562987D01*
X-4449500Y4614499D01*
X-4449500Y6893405D01*
X-4429815Y6960444D01*
X-4413181Y6981086D01*
X-2862181Y8532086D01*
X-2800858Y8565571D01*
X-2731166Y8560587D01*
X-2675233Y8518715D01*
X-2650816Y8453251D01*
X-2650500Y8444405D01*
X-2650500Y-2768476D01*
X-2650572Y-2772709D01*
X-2652762Y-2836826D01*
X-2643031Y-2876751D01*
X-2640666Y-2889196D01*
X-2635070Y-2929920D01*
X-2627918Y-2946383D01*
X-2621180Y-2966419D01*
X-2616933Y-2983852D01*
X-2596778Y-3019695D01*
X-2591157Y-3031015D01*
X-2574780Y-3068720D01*
X-2563458Y-3082635D01*
X-2551563Y-3100111D01*
X-2542766Y-3115759D01*
X-2513714Y-3144810D01*
X-2513712Y-3144812D01*
X-2505211Y-3154230D01*
X-2479278Y-3186108D01*
X-2464610Y-3196461D01*
X-2448450Y-3210073D01*
X-1717821Y-3940701D01*
X-1684338Y-4002022D01*
X-1685728Y-4060472D01*
X-1735063Y-4244592D01*
X-1755659Y-4480000D01*
X-1735063Y-4715408D01*
X-1673903Y-4943663D01*
X-1574035Y-5157830D01*
X-1438495Y-5351401D01*
X-1271401Y-5518495D01*
X-1077830Y-5654035D01*
X-863663Y-5753903D01*
X-635408Y-5815063D01*
X-400000Y-5835659D01*
X-164592Y-5815063D01*
X-164591Y-5815062D01*
X63663Y-5753903D01*
X277830Y-5654035D01*
X471401Y-5518495D01*
X638495Y-5351401D01*
X774035Y-5157830D01*
X873903Y-4943663D01*
X935063Y-4715408D01*
X955659Y-4480000D01*
X935063Y-4244592D01*
X873903Y-4016337D01*
X774035Y-3802171D01*
X638495Y-3608599D01*
X471401Y-3441505D01*
X285839Y-3311573D01*
X242216Y-3256998D01*
X235022Y-3187500D01*
X266545Y-3125145D01*
X285837Y-3108428D01*
X471401Y-2978495D01*
X638495Y-2811401D01*
X774035Y-2617830D01*
X873903Y-2403663D01*
X935063Y-2175408D01*
X955659Y-1940000D01*
X935063Y-1704592D01*
X873903Y-1476337D01*
X774035Y-1262171D01*
X638495Y-1068599D01*
X471401Y-901505D01*
X285839Y-771573D01*
X242216Y-716998D01*
X235022Y-647500D01*
X266545Y-585145D01*
X285837Y-568428D01*
X471401Y-438495D01*
X638495Y-271401D01*
X774035Y-77830D01*
X873903Y136337D01*
X935063Y364592D01*
X955659Y600000D01*
X935063Y835408D01*
X873903Y1063663D01*
X774035Y1277829D01*
X638495Y1471401D01*
X516566Y1593329D01*
X483084Y1654648D01*
X488068Y1724340D01*
X529939Y1780274D01*
X560916Y1797189D01*
X636874Y1825520D01*
X692331Y1846204D01*
X807546Y1932454D01*
X893796Y2047669D01*
X944091Y2182517D01*
X950500Y2242127D01*
X950499Y4037872D01*
X944091Y4097483D01*
X893796Y4232331D01*
X807546Y4347546D01*
X692331Y4433796D01*
X557483Y4484091D01*
X497873Y4490500D01*
X274499Y4490499D01*
X207461Y4510183D01*
X161706Y4562987D01*
X150500Y4614499D01*
X150500Y20947349D01*
X170185Y21014388D01*
X222989Y21060143D01*
X292147Y21070087D01*
X355703Y21041062D01*
X362181Y21035030D01*
X1913181Y19484030D01*
X1946666Y19422707D01*
X1949500Y19396349D01*
X1949500Y-2768476D01*
X1949428Y-2772709D01*
X1947237Y-2836826D01*
X1956963Y-2876733D01*
X1959334Y-2889207D01*
X1964930Y-2929922D01*
X1972079Y-2946380D01*
X1978819Y-2966421D01*
X1983067Y-2983853D01*
X2003206Y-3019672D01*
X2008852Y-3031038D01*
X2025220Y-3068720D01*
X2033009Y-3078294D01*
X2036542Y-3082637D01*
X2048437Y-3100116D01*
X2057232Y-3115757D01*
X2086285Y-3144810D01*
X2094793Y-3154237D01*
X2120721Y-3186107D01*
X2135378Y-3196453D01*
X2151552Y-3210077D01*
X2882176Y-3940700D01*
X2915661Y-4002023D01*
X2914270Y-4060474D01*
X2864936Y-4244592D01*
X2844340Y-4480000D01*
X2864936Y-4715407D01*
X2907813Y-4875427D01*
X2926097Y-4943663D01*
X3025965Y-5157830D01*
X3161505Y-5351401D01*
X3328599Y-5518495D01*
X3522170Y-5654035D01*
X3736337Y-5753903D01*
X3964592Y-5815063D01*
X4200000Y-5835659D01*
X4435408Y-5815063D01*
X4663663Y-5753903D01*
X4877830Y-5654035D01*
X5071401Y-5518495D01*
X5238495Y-5351401D01*
X5374035Y-5157830D01*
X5473903Y-4943663D01*
X5535063Y-4715408D01*
X5555659Y-4480000D01*
X5535063Y-4244592D01*
X5473903Y-4016337D01*
X5374035Y-3802171D01*
X5238495Y-3608599D01*
X5071401Y-3441505D01*
X4885839Y-3311573D01*
X4842216Y-3256998D01*
X4835022Y-3187500D01*
X4866545Y-3125145D01*
X4885837Y-3108428D01*
X5071401Y-2978495D01*
X5238495Y-2811401D01*
X5374035Y-2617830D01*
X5473903Y-2403663D01*
X5535063Y-2175408D01*
X5555659Y-1940000D01*
X5535063Y-1704592D01*
X5473903Y-1476337D01*
X5374035Y-1262171D01*
X5238495Y-1068599D01*
X5071401Y-901505D01*
X4885839Y-771573D01*
X4842216Y-716998D01*
X4835022Y-647500D01*
X4866545Y-585145D01*
X4885837Y-568428D01*
X5071401Y-438495D01*
X5238495Y-271401D01*
X5374035Y-77830D01*
X5473903Y136337D01*
X5535063Y364592D01*
X5555659Y600000D01*
X5535063Y835408D01*
X5473903Y1063663D01*
X5374035Y1277829D01*
X5238495Y1471401D01*
X5116566Y1593329D01*
X5083084Y1654648D01*
X5088068Y1724340D01*
X5129939Y1780274D01*
X5160916Y1797189D01*
X5236874Y1825520D01*
X5292331Y1846204D01*
X5407546Y1932454D01*
X5493796Y2047669D01*
X5544091Y2182517D01*
X5550500Y2242127D01*
X5550499Y4037872D01*
X5544091Y4097483D01*
X5493796Y4232331D01*
X5437055Y4308126D01*
X5412639Y4373589D01*
X5427491Y4441862D01*
X5448642Y4470117D01*
X6337818Y5359293D01*
X6399141Y5392778D01*
X6468833Y5387794D01*
X6524766Y5345922D01*
X6549183Y5280458D01*
X6549499Y5271612D01*
X6549499Y-2768480D01*
X6549427Y-2772709D01*
X6547238Y-2836826D01*
X6556965Y-2876744D01*
X6559334Y-2889207D01*
X6564930Y-2929922D01*
X6572079Y-2946380D01*
X6578819Y-2966421D01*
X6583067Y-2983853D01*
X6603206Y-3019672D01*
X6608852Y-3031038D01*
X6625220Y-3068720D01*
X6633009Y-3078294D01*
X6636542Y-3082637D01*
X6648437Y-3100116D01*
X6657232Y-3115757D01*
X6686285Y-3144810D01*
X6694793Y-3154237D01*
X6720721Y-3186107D01*
X6735378Y-3196453D01*
X6751552Y-3210077D01*
X7482176Y-3940700D01*
X7515661Y-4002023D01*
X7514270Y-4060474D01*
X7464936Y-4244592D01*
X7444340Y-4480000D01*
X7464936Y-4715407D01*
X7507813Y-4875427D01*
X7526097Y-4943663D01*
X7625965Y-5157830D01*
X7761505Y-5351401D01*
X7928599Y-5518495D01*
X8122170Y-5654035D01*
X8336337Y-5753903D01*
X8564592Y-5815063D01*
X8800000Y-5835659D01*
X9035408Y-5815063D01*
X9263663Y-5753903D01*
X9477830Y-5654035D01*
X9671401Y-5518495D01*
X9838495Y-5351401D01*
X9974035Y-5157830D01*
X10073903Y-4943663D01*
X10135063Y-4715408D01*
X10155659Y-4480000D01*
X10135063Y-4244592D01*
X10073903Y-4016337D01*
X9974035Y-3802171D01*
X9838495Y-3608599D01*
X9671401Y-3441505D01*
X9485839Y-3311573D01*
X9442217Y-3256998D01*
X9435024Y-3187499D01*
X9466546Y-3125145D01*
X9485837Y-3108428D01*
X9671401Y-2978495D01*
X9838495Y-2811401D01*
X9974035Y-2617830D01*
X10073903Y-2403663D01*
X10135063Y-2175408D01*
X10155659Y-1940000D01*
X10135063Y-1704592D01*
X10073903Y-1476337D01*
X9974035Y-1262171D01*
X9838495Y-1068599D01*
X9671401Y-901505D01*
X9485839Y-771573D01*
X9442216Y-716998D01*
X9435022Y-647500D01*
X9466545Y-585145D01*
X9485837Y-568428D01*
X9671401Y-438495D01*
X9838495Y-271401D01*
X9974035Y-77830D01*
X10073903Y136337D01*
X10135063Y364592D01*
X10155659Y600000D01*
X10135063Y835408D01*
X10073903Y1063663D01*
X9974035Y1277829D01*
X9838495Y1471401D01*
X9716566Y1593329D01*
X9683084Y1654648D01*
X9688068Y1724340D01*
X9729939Y1780274D01*
X9760916Y1797189D01*
X9836874Y1825520D01*
X9892331Y1846204D01*
X10007546Y1932454D01*
X10093796Y2047669D01*
X10144091Y2182517D01*
X10150500Y2242127D01*
X10150499Y2710612D01*
X10170183Y2777651D01*
X10186818Y2798293D01*
X10937819Y3549293D01*
X10999142Y3582778D01*
X11068834Y3577794D01*
X11124767Y3535922D01*
X11149184Y3470458D01*
X11149500Y3461612D01*
X11149500Y-2768476D01*
X11149428Y-2772709D01*
X11147237Y-2836826D01*
X11156963Y-2876733D01*
X11159334Y-2889207D01*
X11164930Y-2929922D01*
X11172079Y-2946380D01*
X11178819Y-2966421D01*
X11183067Y-2983853D01*
X11203206Y-3019672D01*
X11208852Y-3031038D01*
X11225220Y-3068720D01*
X11233009Y-3078294D01*
X11236542Y-3082637D01*
X11248437Y-3100116D01*
X11257232Y-3115757D01*
X11286285Y-3144810D01*
X11294793Y-3154237D01*
X11320721Y-3186107D01*
X11335378Y-3196453D01*
X11351552Y-3210077D01*
X12082176Y-3940700D01*
X12115661Y-4002023D01*
X12114270Y-4060474D01*
X12064936Y-4244592D01*
X12044340Y-4480000D01*
X12064936Y-4715407D01*
X12107813Y-4875427D01*
X12126097Y-4943663D01*
X12225965Y-5157830D01*
X12361505Y-5351401D01*
X12528599Y-5518495D01*
X12722170Y-5654035D01*
X12936337Y-5753903D01*
X13164592Y-5815063D01*
X13400000Y-5835659D01*
X13635408Y-5815063D01*
X13863663Y-5753903D01*
X14077830Y-5654035D01*
X14271401Y-5518495D01*
X14438495Y-5351401D01*
X14574035Y-5157830D01*
X14673903Y-4943663D01*
X14735063Y-4715408D01*
X14755659Y-4480000D01*
X14735063Y-4244592D01*
X14673903Y-4016337D01*
X14574035Y-3802171D01*
X14438495Y-3608599D01*
X14271401Y-3441505D01*
X14085839Y-3311573D01*
X14042217Y-3256998D01*
X14035024Y-3187499D01*
X14066546Y-3125145D01*
X14085837Y-3108428D01*
X14271401Y-2978495D01*
X14438495Y-2811401D01*
X14574035Y-2617830D01*
X14673903Y-2403663D01*
X14735063Y-2175408D01*
X14755659Y-1940000D01*
X14735063Y-1704592D01*
X14673903Y-1476337D01*
X14574035Y-1262171D01*
X14438495Y-1068599D01*
X14271401Y-901505D01*
X14085839Y-771573D01*
X14042217Y-716998D01*
X14035024Y-647499D01*
X14066546Y-585145D01*
X14085837Y-568428D01*
X14271401Y-438495D01*
X14438495Y-271401D01*
X14574035Y-77830D01*
X14673903Y136337D01*
X14735063Y364592D01*
X14755659Y600000D01*
X14735063Y835408D01*
X14673903Y1063663D01*
X14574035Y1277829D01*
X14438495Y1471401D01*
X14316566Y1593329D01*
X14283084Y1654648D01*
X14288068Y1724340D01*
X14329939Y1780274D01*
X14360916Y1797189D01*
X14436874Y1825520D01*
X14492331Y1846204D01*
X14607546Y1932454D01*
X14693796Y2047669D01*
X14744091Y2182517D01*
X14750500Y2242127D01*
X14750499Y3660612D01*
X14770184Y3727651D01*
X14786818Y3748293D01*
X17001117Y5962592D01*
X17004161Y5965534D01*
X17051041Y6009317D01*
X17051044Y6009320D01*
X17072397Y6044434D01*
X17079532Y6054916D01*
X17104360Y6087657D01*
X17104361Y6087658D01*
X17110945Y6104354D01*
X17120345Y6123281D01*
X17129672Y6138618D01*
X17140757Y6178181D01*
X17144805Y6190219D01*
X17159876Y6228436D01*
X17161711Y6246285D01*
X17165656Y6267046D01*
X17170500Y6284335D01*
X17170500Y6325417D01*
X17171150Y6338098D01*
X17171432Y6340849D01*
X17175352Y6378972D01*
X17172302Y6396657D01*
X17170500Y6417724D01*
X17170500Y15497363D01*
X21341940Y15497363D01*
X21361548Y15035782D01*
X21361994Y15030537D01*
X21420678Y14572261D01*
X21421565Y14567088D01*
X21518900Y14115452D01*
X21520229Y14110348D01*
X21655518Y13668583D01*
X21657264Y13663642D01*
X21829528Y13234946D01*
X21831697Y13230149D01*
X22039695Y12817608D01*
X22042257Y12813021D01*
X22284495Y12419602D01*
X22287443Y12415241D01*
X22562171Y12043783D01*
X22565464Y12039704D01*
X22784297Y11791062D01*
X24908207Y13914972D01*
X24916696Y13903289D01*
X25132037Y13673975D01*
X25264627Y13564286D01*
X23137353Y11437012D01*
X23137353Y11437011D01*
X23207902Y11369397D01*
X23211849Y11365923D01*
X23571290Y11075695D01*
X23575551Y11072544D01*
X23958322Y10813835D01*
X23962786Y10811087D01*
X24366126Y10585767D01*
X24370845Y10583388D01*
X24791828Y10393092D01*
X24796708Y10391131D01*
X25232329Y10237216D01*
X25237356Y10235676D01*
X25684457Y10119261D01*
X25689608Y10118151D01*
X26144969Y10040072D01*
X26150177Y10039405D01*
X26610526Y10000223D01*
X26615782Y10000000D01*
X27077794Y10000000D01*
X27083049Y10000223D01*
X27543398Y10039405D01*
X27548606Y10040072D01*
X28003967Y10118151D01*
X28009118Y10119261D01*
X28456219Y10235676D01*
X28461246Y10237216D01*
X28896867Y10391131D01*
X28901747Y10393092D01*
X29322730Y10583388D01*
X29327449Y10585767D01*
X29730789Y10811087D01*
X29735253Y10813835D01*
X30118024Y11072544D01*
X30122285Y11075695D01*
X30481713Y11365913D01*
X30485685Y11369408D01*
X30556222Y11437012D01*
X28428948Y13564286D01*
X28561539Y13673975D01*
X28776880Y13903289D01*
X28785368Y13914971D01*
X30909277Y11791062D01*
X31128101Y12039694D01*
X31131411Y12043793D01*
X31406132Y12415241D01*
X31409080Y12419602D01*
X31651318Y12813021D01*
X31653880Y12817608D01*
X31861878Y13230149D01*
X31864047Y13234946D01*
X32036311Y13663642D01*
X32038057Y13668583D01*
X32173346Y14110348D01*
X32174675Y14115452D01*
X32272010Y14567088D01*
X32272897Y14572261D01*
X32331581Y15030537D01*
X32332027Y15035782D01*
X32351636Y15497363D01*
X32351636Y15502636D01*
X32332027Y15964217D01*
X32331581Y15969462D01*
X32272897Y16427738D01*
X32272010Y16432911D01*
X32174675Y16884547D01*
X32173346Y16889651D01*
X32038057Y17331416D01*
X32036311Y17336357D01*
X31864047Y17765053D01*
X31861878Y17769850D01*
X31653880Y18182391D01*
X31651318Y18186978D01*
X31409080Y18580397D01*
X31406132Y18584758D01*
X31131411Y18956206D01*
X31128101Y18960305D01*
X30909278Y19208937D01*
X28785368Y17085027D01*
X28776880Y17096711D01*
X28561539Y17326025D01*
X28428948Y17435713D01*
X30556222Y19562987D01*
X30485672Y19630603D01*
X30481727Y19634075D01*
X30122285Y19924304D01*
X30118024Y19927455D01*
X29735253Y20186164D01*
X29730789Y20188912D01*
X29327449Y20414232D01*
X29322730Y20416611D01*
X28901747Y20606907D01*
X28896867Y20608868D01*
X28461246Y20762783D01*
X28456219Y20764323D01*
X28009118Y20880738D01*
X28003967Y20881848D01*
X27548606Y20959927D01*
X27543398Y20960594D01*
X27083049Y20999776D01*
X27077794Y21000000D01*
X26615782Y21000000D01*
X26610526Y20999776D01*
X26150177Y20960594D01*
X26144969Y20959927D01*
X25689608Y20881848D01*
X25684457Y20880738D01*
X25237356Y20764323D01*
X25232329Y20762783D01*
X24796708Y20608868D01*
X24791828Y20606907D01*
X24370845Y20416611D01*
X24366126Y20414232D01*
X23962786Y20188912D01*
X23958322Y20186164D01*
X23575551Y19927455D01*
X23571290Y19924304D01*
X23211862Y19634086D01*
X23207890Y19630591D01*
X23137352Y19562987D01*
X25264627Y17435713D01*
X25132037Y17326025D01*
X24916696Y17096711D01*
X24908207Y17085027D01*
X22784297Y19208936D01*
X22565474Y18960305D01*
X22562164Y18956206D01*
X22287443Y18584758D01*
X22284495Y18580397D01*
X22042257Y18186978D01*
X22039695Y18182391D01*
X21831697Y17769850D01*
X21829528Y17765053D01*
X21657264Y17336357D01*
X21655518Y17331416D01*
X21520229Y16889651D01*
X21518900Y16884547D01*
X21421565Y16432911D01*
X21420678Y16427738D01*
X21361994Y15969462D01*
X21361548Y15964217D01*
X21341940Y15502636D01*
X21341940Y15497363D01*
X17170500Y15497363D01*
X17170500Y52055500D01*
X17190185Y52122539D01*
X17242989Y52168294D01*
X17294500Y52179500D01*
X17564560Y52179500D01*
X17564578Y52179500D01*
X17567872Y52179501D01*
X17571152Y52179853D01*
X17571159Y52179854D01*
X17627484Y52185909D01*
X17707952Y52215922D01*
X17762331Y52236204D01*
X17877546Y52322454D01*
X17963796Y52437669D01*
X18014091Y52572517D01*
X18020500Y52632127D01*
X18020499Y54527872D01*
X18014091Y54587483D01*
X17963796Y54722331D01*
X17877546Y54837546D01*
X17762331Y54923796D01*
X17627483Y54974091D01*
X17567873Y54980500D01*
X16007251Y54980499D01*
X15940840Y55000000D01*
X20514415Y55000000D01*
X20514625Y54996394D01*
X20534527Y54654687D01*
X20534528Y54654678D01*
X20534738Y54651073D01*
X20535364Y54647520D01*
X20535366Y54647507D01*
X20594803Y54310421D01*
X20594806Y54310407D01*
X20595431Y54306864D01*
X20596462Y54303418D01*
X20596465Y54303408D01*
X20694642Y53975474D01*
X20694645Y53975464D01*
X20695674Y53972029D01*
X20697097Y53968728D01*
X20697099Y53968725D01*
X20832682Y53654406D01*
X20832690Y53654389D01*
X20834111Y53651096D01*
X20835909Y53647980D01*
X20835915Y53647970D01*
X21007061Y53351535D01*
X21007071Y53351518D01*
X21008870Y53348404D01*
X21011023Y53345511D01*
X21011029Y53345503D01*
X21215435Y53070937D01*
X21215448Y53070921D01*
X21217588Y53068047D01*
X21220056Y53065430D01*
X21220062Y53065424D01*
X21454962Y52816445D01*
X21454967Y52816439D01*
X21457442Y52813817D01*
X21460190Y52811510D01*
X21460204Y52811498D01*
X21722429Y52591466D01*
X21722438Y52591458D01*
X21725189Y52589151D01*
X21728198Y52587171D01*
X21728206Y52587166D01*
X22014187Y52399072D01*
X22014203Y52399062D01*
X22017207Y52397087D01*
X22020431Y52395467D01*
X22020436Y52395465D01*
X22326311Y52241848D01*
X22326327Y52241840D01*
X22329549Y52240223D01*
X22332947Y52238985D01*
X22332950Y52238985D01*
X22654599Y52121914D01*
X22654612Y52121910D01*
X22657989Y52120681D01*
X22661482Y52119852D01*
X22661496Y52119849D01*
X22994579Y52040907D01*
X22994598Y52040903D01*
X22998086Y52040077D01*
X23001647Y52039660D01*
X23001663Y52039658D01*
X23341670Y51999917D01*
X23341676Y51999916D01*
X23345241Y51999500D01*
X23348839Y51999500D01*
X23691161Y51999500D01*
X23694759Y51999500D01*
X23698324Y51999916D01*
X23698329Y51999917D01*
X24038336Y52039658D01*
X24038349Y52039660D01*
X24041914Y52040077D01*
X24045404Y52040904D01*
X24045420Y52040907D01*
X24378503Y52119849D01*
X24378512Y52119851D01*
X24382011Y52120681D01*
X24385392Y52121911D01*
X24385400Y52121914D01*
X24665862Y52223994D01*
X24710451Y52240223D01*
X24713678Y52241843D01*
X24713688Y52241848D01*
X24964193Y52367657D01*
X25022793Y52397087D01*
X25025804Y52399067D01*
X25025812Y52399072D01*
X25311793Y52587166D01*
X25314811Y52589151D01*
X25378476Y52642572D01*
X25579795Y52811498D01*
X25579800Y52811503D01*
X25582558Y52813817D01*
X25822412Y53068047D01*
X26031130Y53348404D01*
X26205889Y53651096D01*
X26344326Y53972029D01*
X26444569Y54306864D01*
X26505262Y54651073D01*
X26525585Y55000000D01*
X26505262Y55348927D01*
X26444569Y55693136D01*
X26344326Y56027971D01*
X26205889Y56348904D01*
X26031130Y56651596D01*
X25822412Y56931953D01*
X25582558Y57186183D01*
X25314811Y57410849D01*
X25022793Y57602913D01*
X24710451Y57759777D01*
X24382011Y57879319D01*
X24041914Y57959923D01*
X23694759Y58000500D01*
X23345241Y58000500D01*
X22998086Y57959923D01*
X22994581Y57959092D01*
X22994579Y57959092D01*
X22828037Y57919621D01*
X22657989Y57879319D01*
X22329549Y57759777D01*
X22017207Y57602913D01*
X22014190Y57600929D01*
X22014187Y57600927D01*
X21877465Y57511003D01*
X21725189Y57410849D01*
X21722429Y57408533D01*
X21573007Y57283153D01*
X21457442Y57186183D01*
X21217588Y56931953D01*
X21215441Y56929069D01*
X21215435Y56929062D01*
X21019229Y56665511D01*
X21008870Y56651596D01*
X21007067Y56648473D01*
X21007061Y56648464D01*
X20875158Y56420000D01*
X20834111Y56348904D01*
X20832687Y56345603D01*
X20832682Y56345593D01*
X20727609Y56102005D01*
X20695674Y56027971D01*
X20694643Y56024530D01*
X20694642Y56024525D01*
X20612799Y55751148D01*
X20595431Y55693136D01*
X20594805Y55689588D01*
X20594803Y55689578D01*
X20535366Y55352492D01*
X20535364Y55352481D01*
X20534738Y55348927D01*
X20514415Y55000000D01*
X15940840Y55000000D01*
X15940213Y55000184D01*
X15894458Y55052987D01*
X15884514Y55122146D01*
X15913539Y55185702D01*
X15948231Y55213551D01*
X16003626Y55243530D01*
X16186784Y55386087D01*
X16343979Y55556847D01*
X16470924Y55751151D01*
X16564157Y55963700D01*
X16621134Y56188695D01*
X16640300Y56420000D01*
X16621134Y56651305D01*
X16564157Y56876300D01*
X16470924Y57088849D01*
X16343979Y57283153D01*
X16186784Y57453913D01*
X16003626Y57596470D01*
X15799503Y57706936D01*
X15579981Y57782298D01*
X15351049Y57820500D01*
X15118951Y57820500D01*
X14890019Y57782298D01*
X14890017Y57782297D01*
X14890015Y57782297D01*
X14819681Y57758151D01*
X14670497Y57706936D01*
X14466374Y57596470D01*
X14283216Y57453913D01*
X14126021Y57283153D01*
X14060950Y57183554D01*
X13999076Y57088849D01*
X13963556Y57007871D01*
X13918600Y56954385D01*
X13851864Y56933695D01*
X13784536Y56952370D01*
X13737993Y57004480D01*
X13736444Y57007871D01*
X13700924Y57088849D01*
X13573979Y57283153D01*
X13416784Y57453913D01*
X13233626Y57596470D01*
X13029503Y57706936D01*
X12809981Y57782298D01*
X12581049Y57820500D01*
X12348951Y57820500D01*
X12120019Y57782298D01*
X12120017Y57782297D01*
X12120015Y57782297D01*
X12049681Y57758151D01*
X11900497Y57706936D01*
X11696374Y57596470D01*
X11513216Y57453913D01*
X11356021Y57283153D01*
X11290950Y57183554D01*
X11229076Y57088849D01*
X11193556Y57007871D01*
X11148600Y56954385D01*
X11081864Y56933695D01*
X11014536Y56952370D01*
X10967993Y57004480D01*
X10966444Y57007871D01*
X10930924Y57088849D01*
X10803979Y57283153D01*
X10646784Y57453913D01*
X10463626Y57596470D01*
X10259503Y57706936D01*
X10039981Y57782298D01*
X9811049Y57820500D01*
X9578951Y57820500D01*
X9350019Y57782298D01*
X9350017Y57782297D01*
X9350015Y57782297D01*
X9279681Y57758151D01*
X9130497Y57706936D01*
X8926374Y57596470D01*
X8743216Y57453913D01*
X8586021Y57283153D01*
X8520950Y57183554D01*
X8459076Y57088849D01*
X8423556Y57007871D01*
X8378600Y56954385D01*
X8311864Y56933695D01*
X8244536Y56952370D01*
X8197993Y57004480D01*
X8196444Y57007871D01*
X8160924Y57088849D01*
X8033979Y57283153D01*
X7876784Y57453913D01*
X7693626Y57596470D01*
X7489503Y57706936D01*
X7269981Y57782298D01*
X7041049Y57820500D01*
X6808951Y57820500D01*
X6580019Y57782298D01*
X6580017Y57782297D01*
X6580015Y57782297D01*
X6509681Y57758151D01*
X6360497Y57706936D01*
X6156374Y57596470D01*
X5973216Y57453913D01*
X5816021Y57283153D01*
X5750950Y57183554D01*
X5689076Y57088849D01*
X5653556Y57007871D01*
X5608600Y56954385D01*
X5541864Y56933695D01*
X5474536Y56952370D01*
X5427993Y57004480D01*
X5426444Y57007871D01*
X5390924Y57088849D01*
X5263979Y57283153D01*
X5106784Y57453913D01*
X4923626Y57596470D01*
X4719503Y57706936D01*
X4499981Y57782298D01*
X4271049Y57820500D01*
X4038951Y57820500D01*
X3810019Y57782298D01*
X3810017Y57782297D01*
X3810015Y57782297D01*
X3739681Y57758151D01*
X3590497Y57706936D01*
X3386374Y57596470D01*
X3203216Y57453913D01*
X3046021Y57283153D01*
X2980950Y57183554D01*
X2919076Y57088849D01*
X2883556Y57007871D01*
X2838600Y56954385D01*
X2771864Y56933695D01*
X2704536Y56952370D01*
X2657993Y57004480D01*
X2656444Y57007871D01*
X2620924Y57088849D01*
X2493979Y57283153D01*
X2336784Y57453913D01*
X2153626Y57596470D01*
X1949503Y57706936D01*
X1729981Y57782298D01*
X1501049Y57820500D01*
X1268951Y57820500D01*
X1040019Y57782298D01*
X1040017Y57782297D01*
X1040015Y57782297D01*
X969681Y57758151D01*
X820497Y57706936D01*
X616374Y57596470D01*
X433216Y57453913D01*
X276021Y57283153D01*
X210950Y57183554D01*
X149076Y57088849D01*
X113556Y57007871D01*
X68600Y56954385D01*
X1864Y56933695D01*
X-65464Y56952370D01*
X-112007Y57004480D01*
X-113556Y57007871D01*
X-149076Y57088849D01*
X-210950Y57183554D01*
X-276021Y57283153D01*
X-433216Y57453913D01*
X-616374Y57596470D01*
X-820497Y57706936D01*
X-969681Y57758151D01*
X-1040015Y57782297D01*
X-1040017Y57782297D01*
X-1040019Y57782298D01*
X-1268951Y57820500D01*
X-1501049Y57820500D01*
X-1729981Y57782298D01*
X-1949503Y57706936D01*
X-2153626Y57596470D01*
X-2336784Y57453913D01*
X-2493979Y57283153D01*
X-2620924Y57088849D01*
X-2656444Y57007871D01*
X-2701400Y56954385D01*
X-2768136Y56933695D01*
X-2835464Y56952370D01*
X-2882007Y57004480D01*
X-2883556Y57007871D01*
X-2919076Y57088849D01*
X-2980950Y57183554D01*
X-3046021Y57283153D01*
X-3203216Y57453913D01*
X-3386374Y57596470D01*
X-3590497Y57706936D01*
X-3739681Y57758151D01*
X-3810015Y57782297D01*
X-3810017Y57782297D01*
X-3810019Y57782298D01*
X-4038951Y57820500D01*
X-4271049Y57820500D01*
X-4499981Y57782298D01*
X-4719503Y57706936D01*
X-4923626Y57596470D01*
X-5106784Y57453913D01*
X-5263979Y57283153D01*
X-5390924Y57088849D01*
X-5426444Y57007871D01*
X-5471400Y56954385D01*
X-5538136Y56933695D01*
X-5605464Y56952370D01*
X-5652007Y57004480D01*
X-5653556Y57007871D01*
X-5689076Y57088849D01*
X-5750950Y57183554D01*
X-5816021Y57283153D01*
X-5973216Y57453913D01*
X-6156374Y57596470D01*
X-6360497Y57706936D01*
X-6509681Y57758151D01*
X-6580015Y57782297D01*
X-6580017Y57782297D01*
X-6580019Y57782298D01*
X-6808951Y57820500D01*
X-7041049Y57820500D01*
X-7269981Y57782298D01*
X-7489503Y57706936D01*
X-7693626Y57596470D01*
X-7876784Y57453913D01*
X-8033979Y57283153D01*
X-8160924Y57088849D01*
X-8196444Y57007871D01*
X-8241400Y56954385D01*
X-8308136Y56933695D01*
X-8375464Y56952370D01*
X-8422007Y57004480D01*
X-8423556Y57007871D01*
X-8459076Y57088849D01*
X-8520950Y57183554D01*
X-8586021Y57283153D01*
X-8743216Y57453913D01*
X-8926374Y57596470D01*
X-9130497Y57706936D01*
X-9279681Y57758151D01*
X-9350015Y57782297D01*
X-9350017Y57782297D01*
X-9350019Y57782298D01*
X-9578951Y57820500D01*
X-9811049Y57820500D01*
X-10039981Y57782298D01*
X-10259503Y57706936D01*
X-10463626Y57596470D01*
X-10646784Y57453913D01*
X-10803979Y57283153D01*
X-10930924Y57088849D01*
X-10966444Y57007871D01*
X-11011400Y56954385D01*
X-11078136Y56933695D01*
X-11145464Y56952370D01*
X-11192007Y57004480D01*
X-11193556Y57007871D01*
X-11229076Y57088849D01*
X-11290950Y57183554D01*
X-11356021Y57283153D01*
X-11513216Y57453913D01*
X-11696374Y57596470D01*
X-11900497Y57706936D01*
X-12049681Y57758151D01*
X-12120015Y57782297D01*
X-12120017Y57782297D01*
X-12120019Y57782298D01*
X-12348951Y57820500D01*
X-12581049Y57820500D01*
X-12809981Y57782298D01*
X-13029503Y57706936D01*
X-13233626Y57596470D01*
X-13416784Y57453913D01*
X-13573979Y57283153D01*
X-13700924Y57088849D01*
X-13736444Y57007871D01*
X-13781400Y56954385D01*
X-13848136Y56933695D01*
X-13915464Y56952370D01*
X-13962007Y57004480D01*
X-13963556Y57007871D01*
X-13999076Y57088849D01*
X-14060950Y57183554D01*
X-14126021Y57283153D01*
X-14283216Y57453913D01*
X-14466374Y57596470D01*
X-14670497Y57706936D01*
X-14819681Y57758151D01*
X-14890015Y57782297D01*
X-14890017Y57782297D01*
X-14890019Y57782298D01*
X-15118951Y57820500D01*
X-15351049Y57820500D01*
X-15579981Y57782298D01*
X-15799503Y57706936D01*
X-16003626Y57596470D01*
X-16186784Y57453913D01*
X-16343979Y57283153D01*
X-16470924Y57088849D01*
X-16564157Y56876300D01*
X-16621134Y56651305D01*
X-16640300Y56420000D01*
X-16621134Y56188695D01*
X-16564157Y55963700D01*
X-16470924Y55751151D01*
X-16343979Y55556847D01*
X-16186783Y55386087D01*
X-16186784Y55386087D01*
X-16033338Y55266656D01*
X-15992525Y55209945D01*
X-15985500Y55168802D01*
X-15985500Y55016579D01*
X-16005185Y54949540D01*
X-16057989Y54903785D01*
X-16127147Y54893841D01*
X-16149763Y54899298D01*
X-16275015Y54942297D01*
X-16275017Y54942297D01*
X-16275019Y54942298D01*
X-16503951Y54980500D01*
X-16736049Y54980500D01*
X-16964981Y54942298D01*
X-17184503Y54866936D01*
X-17388626Y54756470D01*
X-17571784Y54613913D01*
X-17728979Y54443153D01*
X-17855924Y54248849D01*
X-17949157Y54036300D01*
X-18006134Y53811305D01*
X-18006134Y53811299D01*
X-18025301Y53580000D01*
X-20875157Y53580000D01*
X-20835915Y53647970D01*
X-20835909Y53647980D01*
X-20834111Y53651096D01*
X-20832690Y53654389D01*
X-20832682Y53654406D01*
X-20697099Y53968725D01*
X-20697097Y53968728D01*
X-20695674Y53972029D01*
X-20694645Y53975464D01*
X-20694642Y53975474D01*
X-20596465Y54303408D01*
X-20596462Y54303418D01*
X-20595431Y54306864D01*
X-20594806Y54310407D01*
X-20594803Y54310421D01*
X-20535366Y54647507D01*
X-20535364Y54647520D01*
X-20534738Y54651073D01*
X-20534528Y54654678D01*
X-20534527Y54654687D01*
X-20514625Y54996394D01*
X-20514415Y55000000D01*
X-20534738Y55348927D01*
X-20535364Y55352481D01*
X-20535366Y55352492D01*
X-20594803Y55689578D01*
X-20594805Y55689588D01*
X-20595431Y55693136D01*
X-20612799Y55751148D01*
X-20694642Y56024525D01*
X-20694643Y56024530D01*
X-20695674Y56027971D01*
X-20727609Y56102005D01*
X-20832682Y56345593D01*
X-20832687Y56345603D01*
X-20834111Y56348904D01*
X-20875158Y56420000D01*
X-21007061Y56648464D01*
X-21007067Y56648473D01*
X-21008870Y56651596D01*
X-21019229Y56665511D01*
X-21215435Y56929062D01*
X-21215441Y56929069D01*
X-21217588Y56931953D01*
X-21457442Y57186183D01*
X-21573007Y57283153D01*
X-21722429Y57408533D01*
X-21725189Y57410849D01*
X-21877465Y57511003D01*
X-22014187Y57600927D01*
X-22014190Y57600929D01*
X-22017207Y57602913D01*
X-22329549Y57759777D01*
X-22657989Y57879319D01*
X-22828037Y57919621D01*
X-22994579Y57959092D01*
X-22994581Y57959092D01*
X-22998086Y57959923D01*
X-23345241Y58000500D01*
X-23694759Y58000500D01*
X-24041914Y57959923D01*
X-24382011Y57879319D01*
X-24710451Y57759777D01*
X-25022793Y57602913D01*
X-25314811Y57410849D01*
X-25582558Y57186183D01*
X-25822412Y56931953D01*
X-26031130Y56651596D01*
X-26205889Y56348904D01*
X-26344326Y56027971D01*
X-26444569Y55693136D01*
X-26505262Y55348927D01*
X-26525585Y55000000D01*
X-27499500Y55000000D01*
X-27499500Y64475500D01*
X-27479815Y64542539D01*
X-27427011Y64588294D01*
X-27375500Y64599500D01*
X27375500Y64599500D01*
X27442539Y64579815D01*
G37*
%TD.AperFunction*%
%TD*%
M02*
