%TF.GenerationSoftware,KiCad,Pcbnew,7.0.2*%
%TF.CreationDate,2023-11-03T12:40:05-06:00*%
%TF.ProjectId,KF40_DB25_Pinheader,4b463430-5f44-4423-9235-5f50696e6865,rev?*%
%TF.SameCoordinates,Original*%
%TF.FileFunction,Legend,Bot*%
%TF.FilePolarity,Positive*%
%FSLAX46Y46*%
G04 Gerber Fmt 4.6, Leading zero omitted, Abs format (unit mm)*
G04 Created by KiCad (PCBNEW 7.0.2) date 2023-11-03 12:40:05*
%MOMM*%
%LPD*%
G01*
G04 APERTURE LIST*
%ADD10C,0.150000*%
%ADD11C,0.120000*%
%ADD12C,17.000000*%
%ADD13C,10.000000*%
%ADD14C,5.000000*%
%ADD15C,1.800000*%
%ADD16R,1.800000X1.800000*%
%ADD17O,1.700000X1.700000*%
%ADD18R,1.700000X1.700000*%
G04 APERTURE END LIST*
D10*
%TO.C,J6*%
X-4466666Y7337380D02*
X-4466666Y6623095D01*
X-4466666Y6623095D02*
X-4419047Y6480238D01*
X-4419047Y6480238D02*
X-4323809Y6385000D01*
X-4323809Y6385000D02*
X-4180952Y6337380D01*
X-4180952Y6337380D02*
X-4085714Y6337380D01*
X-5371428Y7337380D02*
X-5180952Y7337380D01*
X-5180952Y7337380D02*
X-5085714Y7289761D01*
X-5085714Y7289761D02*
X-5038095Y7242142D01*
X-5038095Y7242142D02*
X-4942857Y7099285D01*
X-4942857Y7099285D02*
X-4895238Y6908809D01*
X-4895238Y6908809D02*
X-4895238Y6527857D01*
X-4895238Y6527857D02*
X-4942857Y6432619D01*
X-4942857Y6432619D02*
X-4990476Y6385000D01*
X-4990476Y6385000D02*
X-5085714Y6337380D01*
X-5085714Y6337380D02*
X-5276190Y6337380D01*
X-5276190Y6337380D02*
X-5371428Y6385000D01*
X-5371428Y6385000D02*
X-5419047Y6432619D01*
X-5419047Y6432619D02*
X-5466666Y6527857D01*
X-5466666Y6527857D02*
X-5466666Y6765952D01*
X-5466666Y6765952D02*
X-5419047Y6861190D01*
X-5419047Y6861190D02*
X-5371428Y6908809D01*
X-5371428Y6908809D02*
X-5276190Y6956428D01*
X-5276190Y6956428D02*
X-5085714Y6956428D01*
X-5085714Y6956428D02*
X-4990476Y6908809D01*
X-4990476Y6908809D02*
X-4942857Y6861190D01*
X-4942857Y6861190D02*
X-4895238Y6765952D01*
%TO.C,J7*%
X-9066666Y7337380D02*
X-9066666Y6623095D01*
X-9066666Y6623095D02*
X-9019047Y6480238D01*
X-9019047Y6480238D02*
X-8923809Y6385000D01*
X-8923809Y6385000D02*
X-8780952Y6337380D01*
X-8780952Y6337380D02*
X-8685714Y6337380D01*
X-9447619Y7337380D02*
X-10114285Y7337380D01*
X-10114285Y7337380D02*
X-9685714Y6337380D01*
%TO.C,J5*%
X133333Y7337380D02*
X133333Y6623095D01*
X133333Y6623095D02*
X180952Y6480238D01*
X180952Y6480238D02*
X276190Y6385000D01*
X276190Y6385000D02*
X419047Y6337380D01*
X419047Y6337380D02*
X514285Y6337380D01*
X-819047Y7337380D02*
X-342857Y7337380D01*
X-342857Y7337380D02*
X-295238Y6861190D01*
X-295238Y6861190D02*
X-342857Y6908809D01*
X-342857Y6908809D02*
X-438095Y6956428D01*
X-438095Y6956428D02*
X-676190Y6956428D01*
X-676190Y6956428D02*
X-771428Y6908809D01*
X-771428Y6908809D02*
X-819047Y6861190D01*
X-819047Y6861190D02*
X-866666Y6765952D01*
X-866666Y6765952D02*
X-866666Y6527857D01*
X-866666Y6527857D02*
X-819047Y6432619D01*
X-819047Y6432619D02*
X-771428Y6385000D01*
X-771428Y6385000D02*
X-676190Y6337380D01*
X-676190Y6337380D02*
X-438095Y6337380D01*
X-438095Y6337380D02*
X-342857Y6385000D01*
X-342857Y6385000D02*
X-295238Y6432619D01*
%TO.C,J8*%
X-13666666Y7337380D02*
X-13666666Y6623095D01*
X-13666666Y6623095D02*
X-13619047Y6480238D01*
X-13619047Y6480238D02*
X-13523809Y6385000D01*
X-13523809Y6385000D02*
X-13380952Y6337380D01*
X-13380952Y6337380D02*
X-13285714Y6337380D01*
X-14285714Y6908809D02*
X-14190476Y6956428D01*
X-14190476Y6956428D02*
X-14142857Y7004047D01*
X-14142857Y7004047D02*
X-14095238Y7099285D01*
X-14095238Y7099285D02*
X-14095238Y7146904D01*
X-14095238Y7146904D02*
X-14142857Y7242142D01*
X-14142857Y7242142D02*
X-14190476Y7289761D01*
X-14190476Y7289761D02*
X-14285714Y7337380D01*
X-14285714Y7337380D02*
X-14476190Y7337380D01*
X-14476190Y7337380D02*
X-14571428Y7289761D01*
X-14571428Y7289761D02*
X-14619047Y7242142D01*
X-14619047Y7242142D02*
X-14666666Y7146904D01*
X-14666666Y7146904D02*
X-14666666Y7099285D01*
X-14666666Y7099285D02*
X-14619047Y7004047D01*
X-14619047Y7004047D02*
X-14571428Y6956428D01*
X-14571428Y6956428D02*
X-14476190Y6908809D01*
X-14476190Y6908809D02*
X-14285714Y6908809D01*
X-14285714Y6908809D02*
X-14190476Y6861190D01*
X-14190476Y6861190D02*
X-14142857Y6813571D01*
X-14142857Y6813571D02*
X-14095238Y6718333D01*
X-14095238Y6718333D02*
X-14095238Y6527857D01*
X-14095238Y6527857D02*
X-14142857Y6432619D01*
X-14142857Y6432619D02*
X-14190476Y6385000D01*
X-14190476Y6385000D02*
X-14285714Y6337380D01*
X-14285714Y6337380D02*
X-14476190Y6337380D01*
X-14476190Y6337380D02*
X-14571428Y6385000D01*
X-14571428Y6385000D02*
X-14619047Y6432619D01*
X-14619047Y6432619D02*
X-14666666Y6527857D01*
X-14666666Y6527857D02*
X-14666666Y6718333D01*
X-14666666Y6718333D02*
X-14619047Y6813571D01*
X-14619047Y6813571D02*
X-14571428Y6861190D01*
X-14571428Y6861190D02*
X-14476190Y6908809D01*
%TO.C,J3*%
X9333333Y7337380D02*
X9333333Y6623095D01*
X9333333Y6623095D02*
X9380952Y6480238D01*
X9380952Y6480238D02*
X9476190Y6385000D01*
X9476190Y6385000D02*
X9619047Y6337380D01*
X9619047Y6337380D02*
X9714285Y6337380D01*
X8952380Y7337380D02*
X8333333Y7337380D01*
X8333333Y7337380D02*
X8666666Y6956428D01*
X8666666Y6956428D02*
X8523809Y6956428D01*
X8523809Y6956428D02*
X8428571Y6908809D01*
X8428571Y6908809D02*
X8380952Y6861190D01*
X8380952Y6861190D02*
X8333333Y6765952D01*
X8333333Y6765952D02*
X8333333Y6527857D01*
X8333333Y6527857D02*
X8380952Y6432619D01*
X8380952Y6432619D02*
X8428571Y6385000D01*
X8428571Y6385000D02*
X8523809Y6337380D01*
X8523809Y6337380D02*
X8809523Y6337380D01*
X8809523Y6337380D02*
X8904761Y6385000D01*
X8904761Y6385000D02*
X8952380Y6432619D01*
%TO.C,J2*%
X13933333Y7337380D02*
X13933333Y6623095D01*
X13933333Y6623095D02*
X13980952Y6480238D01*
X13980952Y6480238D02*
X14076190Y6385000D01*
X14076190Y6385000D02*
X14219047Y6337380D01*
X14219047Y6337380D02*
X14314285Y6337380D01*
X13504761Y7242142D02*
X13457142Y7289761D01*
X13457142Y7289761D02*
X13361904Y7337380D01*
X13361904Y7337380D02*
X13123809Y7337380D01*
X13123809Y7337380D02*
X13028571Y7289761D01*
X13028571Y7289761D02*
X12980952Y7242142D01*
X12980952Y7242142D02*
X12933333Y7146904D01*
X12933333Y7146904D02*
X12933333Y7051666D01*
X12933333Y7051666D02*
X12980952Y6908809D01*
X12980952Y6908809D02*
X13552380Y6337380D01*
X13552380Y6337380D02*
X12933333Y6337380D01*
%TO.C,J4*%
X4733333Y7337380D02*
X4733333Y6623095D01*
X4733333Y6623095D02*
X4780952Y6480238D01*
X4780952Y6480238D02*
X4876190Y6385000D01*
X4876190Y6385000D02*
X5019047Y6337380D01*
X5019047Y6337380D02*
X5114285Y6337380D01*
X3828571Y7004047D02*
X3828571Y6337380D01*
X4066666Y7385000D02*
X4304761Y6670714D01*
X4304761Y6670714D02*
X3685714Y6670714D01*
D11*
%TO.C,J6*%
X-6330000Y4470000D02*
X-6330000Y3140000D01*
X-6330000Y1870000D02*
X-6330000Y-5810000D01*
X-5000000Y4470000D02*
X-6330000Y4470000D01*
X-3670000Y1870000D02*
X-6330000Y1870000D01*
X-3670000Y1870000D02*
X-3670000Y-5810000D01*
X-3670000Y-5810000D02*
X-6330000Y-5810000D01*
%TO.C,J7*%
X-10930000Y4470000D02*
X-10930000Y3140000D01*
X-10930000Y1870000D02*
X-10930000Y-730000D01*
X-9600000Y4470000D02*
X-10930000Y4470000D01*
X-8270000Y1870000D02*
X-10930000Y1870000D01*
X-8270000Y1870000D02*
X-8270000Y-730000D01*
X-8270000Y-730000D02*
X-10930000Y-730000D01*
%TO.C,J5*%
X-1730000Y4470000D02*
X-1730000Y3140000D01*
X-1730000Y1870000D02*
X-1730000Y-5810000D01*
X-400000Y4470000D02*
X-1730000Y4470000D01*
X930000Y1870000D02*
X-1730000Y1870000D01*
X930000Y1870000D02*
X930000Y-5810000D01*
X930000Y-5810000D02*
X-1730000Y-5810000D01*
%TO.C,J8*%
X-15530000Y4470000D02*
X-15530000Y3140000D01*
X-15530000Y1870000D02*
X-15530000Y-730000D01*
X-14200000Y4470000D02*
X-15530000Y4470000D01*
X-12870000Y1870000D02*
X-15530000Y1870000D01*
X-12870000Y1870000D02*
X-12870000Y-730000D01*
X-12870000Y-730000D02*
X-15530000Y-730000D01*
%TO.C,J3*%
X7470000Y4470000D02*
X7470000Y3140000D01*
X7470000Y1870000D02*
X7470000Y-5810000D01*
X8800000Y4470000D02*
X7470000Y4470000D01*
X10130000Y1870000D02*
X7470000Y1870000D01*
X10130000Y1870000D02*
X10130000Y-5810000D01*
X10130000Y-5810000D02*
X7470000Y-5810000D01*
%TO.C,J2*%
X12070000Y4470000D02*
X12070000Y3140000D01*
X12070000Y1870000D02*
X12070000Y-5810000D01*
X13400000Y4470000D02*
X12070000Y4470000D01*
X14730000Y1870000D02*
X12070000Y1870000D01*
X14730000Y1870000D02*
X14730000Y-5810000D01*
X14730000Y-5810000D02*
X12070000Y-5810000D01*
%TO.C,J4*%
X2870000Y4470000D02*
X2870000Y3140000D01*
X2870000Y1870000D02*
X2870000Y-5810000D01*
X4200000Y4470000D02*
X2870000Y4470000D01*
X5530000Y1870000D02*
X2870000Y1870000D01*
X5530000Y1870000D02*
X5530000Y-5810000D01*
X5530000Y-5810000D02*
X2870000Y-5810000D01*
%TD*%
%LPC*%
D12*
X29100000Y0D02*
G75*
G03*
X29100000Y0I-29100000J0D01*
G01*
D13*
%TO.C,H2*%
X26846788Y-15500000D03*
%TD*%
D14*
%TO.C,J1*%
X-23520000Y55000000D03*
X23520000Y55000000D03*
D15*
X-15235000Y56420000D03*
X-12465000Y56420000D03*
X-9695000Y56420000D03*
X-6925000Y56420000D03*
X-4155000Y56420000D03*
X-1385000Y56420000D03*
X1385000Y56420000D03*
X4155000Y56420000D03*
X6925000Y56420000D03*
X9695000Y56420000D03*
X12465000Y56420000D03*
X15235000Y56420000D03*
X-16620000Y53580000D03*
X-13850000Y53580000D03*
X-11080000Y53580000D03*
X-8310000Y53580000D03*
X-5540000Y53580000D03*
X-2770000Y53580000D03*
X0Y53580000D03*
X2770000Y53580000D03*
X5540000Y53580000D03*
X8310000Y53580000D03*
X11080000Y53580000D03*
X13850000Y53580000D03*
D16*
X16620000Y53580000D03*
%TD*%
D13*
%TO.C,H6*%
X-26846788Y15500000D03*
%TD*%
%TO.C,H4*%
X-26846788Y-15500000D03*
%TD*%
%TO.C,H1*%
X26846788Y15500000D03*
%TD*%
%TO.C,H5*%
X0Y31000000D03*
%TD*%
%TO.C,H3*%
X0Y-31000000D03*
%TD*%
D17*
%TO.C,J6*%
X-5000000Y-4480000D03*
X-5000000Y-1940000D03*
X-5000000Y600000D03*
D18*
X-5000000Y3140000D03*
%TD*%
D17*
%TO.C,J7*%
X-9600000Y600000D03*
D18*
X-9600000Y3140000D03*
%TD*%
D17*
%TO.C,J5*%
X-400000Y-4480000D03*
X-400000Y-1940000D03*
X-400000Y600000D03*
D18*
X-400000Y3140000D03*
%TD*%
D17*
%TO.C,J8*%
X-14200000Y600000D03*
D18*
X-14200000Y3140000D03*
%TD*%
D17*
%TO.C,J3*%
X8800000Y-4480000D03*
X8800000Y-1940000D03*
X8800000Y600000D03*
D18*
X8800000Y3140000D03*
%TD*%
D17*
%TO.C,J2*%
X13400000Y-4480000D03*
X13400000Y-1940000D03*
X13400000Y600000D03*
D18*
X13400000Y3140000D03*
%TD*%
D17*
%TO.C,J4*%
X4200000Y-4480000D03*
X4200000Y-1940000D03*
X4200000Y600000D03*
D18*
X4200000Y3140000D03*
%TD*%
%LPD*%
M02*
