M48
; DRILL file {KiCad 7.0.2} date Fri Nov  3 12:40:05 2023
; FORMAT={-:-/ absolute / inch / decimal}
; #@! TF.CreationDate,2023-11-03T12:40:05-06:00
; #@! TF.GenerationSoftware,Kicad,Pcbnew,7.0.2
; #@! TF.FileFunction,Plated,1,4,PTH
FMAT,2
INCH
; #@! TA.AperFunction,Plated,PTH,ComponentDrill
T1C0.0394
; #@! TA.AperFunction,Plated,PTH,ComponentDrill
T2C0.0433
; #@! TA.AperFunction,Plated,PTH,ComponentDrill
T3C0.1260
; #@! TA.AperFunction,Plated,PTH,ComponentDrill
T4C0.1969
%
G90
G05
T1
X-0.5591Y0.1236
X-0.5591Y0.0236
X-0.378Y0.1236
X-0.378Y0.0236
X-0.1969Y0.1236
X-0.1969Y0.0236
X-0.1969Y-0.0764
X-0.1969Y-0.1764
X-0.0157Y0.1236
X-0.0157Y0.0236
X-0.0157Y-0.0764
X-0.0157Y-0.1764
X0.1654Y0.1236
X0.1654Y0.0236
X0.1654Y-0.0764
X0.1654Y-0.1764
X0.3465Y0.1236
X0.3465Y0.0236
X0.3465Y-0.0764
X0.3465Y-0.1764
X0.5276Y0.1236
X0.5276Y0.0236
X0.5276Y-0.0764
X0.5276Y-0.1764
T2
X-0.6543Y2.1094
X-0.5998Y2.2213
X-0.5453Y2.1094
X-0.4907Y2.2213
X-0.4362Y2.1094
X-0.3817Y2.2213
X-0.3272Y2.1094
X-0.2726Y2.2213
X-0.2181Y2.1094
X-0.1636Y2.2213
X-0.1091Y2.1094
X-0.0545Y2.2213
X0.0Y2.1094
X0.0545Y2.2213
X0.1091Y2.1094
X0.1636Y2.2213
X0.2181Y2.1094
X0.2726Y2.2213
X0.3272Y2.1094
X0.3817Y2.2213
X0.4362Y2.1094
X0.4907Y2.2213
X0.5453Y2.1094
X0.5998Y2.2213
X0.6543Y2.1094
T3
X-0.926Y2.1654
X0.926Y2.1654
T4
X-1.057Y0.6102
X-1.057Y-0.6102
X0.0Y1.2205
X0.0Y-1.2205
X1.057Y0.6102
X1.057Y-0.6102
T0
M30
