%TF.GenerationSoftware,KiCad,Pcbnew,7.0.2*%
%TF.CreationDate,2023-11-03T12:40:05-06:00*%
%TF.ProjectId,KF40_DB25_Pinheader,4b463430-5f44-4423-9235-5f50696e6865,rev?*%
%TF.SameCoordinates,Original*%
%TF.FileFunction,Copper,L4,Bot*%
%TF.FilePolarity,Positive*%
%FSLAX46Y46*%
G04 Gerber Fmt 4.6, Leading zero omitted, Abs format (unit mm)*
G04 Created by KiCad (PCBNEW 7.0.2) date 2023-11-03 12:40:05*
%MOMM*%
%LPD*%
G01*
G04 APERTURE LIST*
%TA.AperFunction,ComponentPad*%
%ADD10C,10.000000*%
%TD*%
%TA.AperFunction,ComponentPad*%
%ADD11C,5.000000*%
%TD*%
%TA.AperFunction,ComponentPad*%
%ADD12C,1.800000*%
%TD*%
%TA.AperFunction,ComponentPad*%
%ADD13R,1.800000X1.800000*%
%TD*%
%TA.AperFunction,ComponentPad*%
%ADD14O,1.700000X1.700000*%
%TD*%
%TA.AperFunction,ComponentPad*%
%ADD15R,1.700000X1.700000*%
%TD*%
G04 APERTURE END LIST*
D10*
%TO.P,H2,1,1*%
%TO.N,GND*%
X26846788Y-15500000D03*
%TD*%
D11*
%TO.P,J1,27*%
%TO.N,N/C*%
X-23520000Y55000000D03*
%TO.P,J1,26*%
X23520000Y55000000D03*
D12*
%TO.P,J1,25,P25*%
%TO.N,Net-(J1-P25)*%
X-15235000Y56420000D03*
%TO.P,J1,24,P24*%
%TO.N,Net-(J1-P24)*%
X-12465000Y56420000D03*
%TO.P,J1,23,P23*%
%TO.N,Net-(J1-P23)*%
X-9695000Y56420000D03*
%TO.P,J1,22,P22*%
%TO.N,Net-(J1-P22)*%
X-6925000Y56420000D03*
%TO.P,J1,21,P21*%
%TO.N,Net-(J1-P21)*%
X-4155000Y56420000D03*
%TO.P,J1,20,P20*%
%TO.N,Net-(J1-P20)*%
X-1385000Y56420000D03*
%TO.P,J1,19,P19*%
%TO.N,Net-(J1-P19)*%
X1385000Y56420000D03*
%TO.P,J1,18,P18*%
%TO.N,Net-(J1-P18)*%
X4155000Y56420000D03*
%TO.P,J1,17,P17*%
%TO.N,Net-(J1-P17)*%
X6925000Y56420000D03*
%TO.P,J1,16,P16*%
%TO.N,Net-(J1-P16)*%
X9695000Y56420000D03*
%TO.P,J1,15,P15*%
%TO.N,Net-(J1-P15)*%
X12465000Y56420000D03*
%TO.P,J1,14,P14*%
%TO.N,Net-(J1-P14)*%
X15235000Y56420000D03*
%TO.P,J1,13,13*%
%TO.N,unconnected-(J1-Pad13)*%
X-16620000Y53580000D03*
%TO.P,J1,12,12*%
%TO.N,Net-(J8-Pin_1)*%
X-13850000Y53580000D03*
%TO.P,J1,11,11*%
%TO.N,Net-(J7-Pin_1)*%
X-11080000Y53580000D03*
%TO.P,J1,10,10*%
%TO.N,Net-(J6-Pin_3)*%
X-8310000Y53580000D03*
%TO.P,J1,9,9*%
%TO.N,Net-(J6-Pin_1)*%
X-5540000Y53580000D03*
%TO.P,J1,8,8*%
%TO.N,Net-(J5-Pin_3)*%
X-2770000Y53580000D03*
%TO.P,J1,7,7*%
%TO.N,Net-(J5-Pin_1)*%
X0Y53580000D03*
%TO.P,J1,6,6*%
%TO.N,Net-(J4-Pin_3)*%
X2770000Y53580000D03*
%TO.P,J1,5,5*%
%TO.N,Net-(J4-Pin_1)*%
X5540000Y53580000D03*
%TO.P,J1,4,4*%
%TO.N,Net-(J3-Pin_3)*%
X8310000Y53580000D03*
%TO.P,J1,3,3*%
%TO.N,Net-(J3-Pin_1)*%
X11080000Y53580000D03*
%TO.P,J1,2,2*%
%TO.N,Net-(J2-Pin_3)*%
X13850000Y53580000D03*
D13*
%TO.P,J1,1,1*%
%TO.N,Net-(J2-Pin_1)*%
X16620000Y53580000D03*
%TD*%
D10*
%TO.P,H6,1,1*%
%TO.N,GND*%
X-26846788Y15500000D03*
%TD*%
%TO.P,H4,1,1*%
%TO.N,GND*%
X-26846788Y-15500000D03*
%TD*%
%TO.P,H1,1,1*%
%TO.N,GND*%
X26846788Y15500000D03*
%TD*%
%TO.P,H5,1,1*%
%TO.N,GND*%
X0Y31000000D03*
%TD*%
%TO.P,H3,1,1*%
%TO.N,GND*%
X0Y-31000000D03*
%TD*%
D14*
%TO.P,J6,4,Pin_4*%
%TO.N,Net-(J1-P23)*%
X-5000000Y-4480000D03*
%TO.P,J6,3,Pin_3*%
%TO.N,Net-(J6-Pin_3)*%
X-5000000Y-1940000D03*
%TO.P,J6,2,Pin_2*%
%TO.N,Net-(J1-P22)*%
X-5000000Y600000D03*
D15*
%TO.P,J6,1,Pin_1*%
%TO.N,Net-(J6-Pin_1)*%
X-5000000Y3140000D03*
%TD*%
D14*
%TO.P,J7,2,Pin_2*%
%TO.N,Net-(J1-P24)*%
X-9600000Y600000D03*
D15*
%TO.P,J7,1,Pin_1*%
%TO.N,Net-(J7-Pin_1)*%
X-9600000Y3140000D03*
%TD*%
D14*
%TO.P,J5,4,Pin_4*%
%TO.N,Net-(J1-P21)*%
X-400000Y-4480000D03*
%TO.P,J5,3,Pin_3*%
%TO.N,Net-(J5-Pin_3)*%
X-400000Y-1940000D03*
%TO.P,J5,2,Pin_2*%
%TO.N,Net-(J1-P20)*%
X-400000Y600000D03*
D15*
%TO.P,J5,1,Pin_1*%
%TO.N,Net-(J5-Pin_1)*%
X-400000Y3140000D03*
%TD*%
D14*
%TO.P,J8,2,Pin_2*%
%TO.N,Net-(J1-P25)*%
X-14200000Y600000D03*
D15*
%TO.P,J8,1,Pin_1*%
%TO.N,Net-(J8-Pin_1)*%
X-14200000Y3140000D03*
%TD*%
D14*
%TO.P,J3,4,Pin_4*%
%TO.N,Net-(J1-P17)*%
X8800000Y-4480000D03*
%TO.P,J3,3,Pin_3*%
%TO.N,Net-(J3-Pin_3)*%
X8800000Y-1940000D03*
%TO.P,J3,2,Pin_2*%
%TO.N,Net-(J1-P16)*%
X8800000Y600000D03*
D15*
%TO.P,J3,1,Pin_1*%
%TO.N,Net-(J3-Pin_1)*%
X8800000Y3140000D03*
%TD*%
D14*
%TO.P,J2,4,Pin_4*%
%TO.N,Net-(J1-P15)*%
X13400000Y-4480000D03*
%TO.P,J2,3,Pin_3*%
%TO.N,Net-(J2-Pin_3)*%
X13400000Y-1940000D03*
%TO.P,J2,2,Pin_2*%
%TO.N,Net-(J1-P14)*%
X13400000Y600000D03*
D15*
%TO.P,J2,1,Pin_1*%
%TO.N,Net-(J2-Pin_1)*%
X13400000Y3140000D03*
%TD*%
D14*
%TO.P,J4,4,Pin_4*%
%TO.N,Net-(J1-P19)*%
X4200000Y-4480000D03*
%TO.P,J4,3,Pin_3*%
%TO.N,Net-(J4-Pin_3)*%
X4200000Y-1940000D03*
%TO.P,J4,2,Pin_2*%
%TO.N,Net-(J1-P18)*%
X4200000Y600000D03*
D15*
%TO.P,J4,1,Pin_1*%
%TO.N,Net-(J4-Pin_1)*%
X4200000Y3140000D03*
%TD*%
%TA.AperFunction,Conductor*%
%TO.N,GND*%
G36*
X27442539Y64579815D02*
G01*
X27488294Y64527011D01*
X27499500Y64475500D01*
X27499500Y25507599D01*
X27499396Y25502532D01*
X27499287Y25499867D01*
X27502354Y25496627D01*
X28310539Y24596206D01*
X28313176Y24593171D01*
X29093084Y23665426D01*
X29095621Y23662307D01*
X29845034Y22709775D01*
X29847469Y22706575D01*
X30534649Y21772335D01*
X30566428Y21729058D01*
X30568698Y21725861D01*
X31159240Y20865924D01*
X31257082Y20723134D01*
X31259232Y20719888D01*
X31780381Y19905634D01*
X31914667Y19695239D01*
X31916695Y19691950D01*
X32384387Y18906227D01*
X32538425Y18646565D01*
X32540331Y18643236D01*
X32963717Y17876426D01*
X33127763Y17578107D01*
X33129547Y17574742D01*
X33514405Y16820943D01*
X33682031Y16491043D01*
X33683692Y16487647D01*
X34034009Y15742815D01*
X34200625Y15386553D01*
X34202163Y15383132D01*
X34520707Y14644588D01*
X34683028Y14265748D01*
X34684443Y14262304D01*
X34973170Y13528326D01*
X35128713Y13129841D01*
X35130005Y13126381D01*
X35390400Y12395731D01*
X35537193Y11980084D01*
X35538363Y11976610D01*
X35771545Y11248478D01*
X35908068Y10817602D01*
X35909116Y10814118D01*
X36115972Y10087924D01*
X36240915Y9643716D01*
X36241842Y9640227D01*
X36423059Y8915654D01*
X36535406Y8459596D01*
X36536212Y8456106D01*
X36692336Y7733013D01*
X36791207Y7266573D01*
X36791894Y7263087D01*
X36923318Y6541768D01*
X37008081Y6065756D01*
X37008649Y6062278D01*
X37115750Y5342901D01*
X37185757Y4858641D01*
X37186209Y4855174D01*
X37269367Y4137573D01*
X37324073Y3646370D01*
X37324409Y3642918D01*
X37383888Y2927456D01*
X37422879Y2430238D01*
X37423101Y2426806D01*
X37459142Y1713985D01*
X37482074Y1211485D01*
X37482183Y1208075D01*
X37495026Y498212D01*
X37501590Y-8508D01*
X37501587Y-11892D01*
X37491457Y-718432D01*
X37481405Y-1228490D01*
X37481293Y-1231842D01*
X37448411Y-1934506D01*
X37421545Y-2447162D01*
X37421326Y-2450481D01*
X37365906Y-3148868D01*
X37322074Y-3663219D01*
X37321750Y-3666501D01*
X37244010Y-4360113D01*
X37183091Y-4875428D01*
X37182665Y-4878669D01*
X37082830Y-5566974D01*
X37004755Y-6082443D01*
X37004227Y-6085642D01*
X36882519Y-6768156D01*
X36787244Y-7283026D01*
X36786618Y-7286178D01*
X36643287Y-7962316D01*
X36530805Y-8475848D01*
X36530084Y-8478950D01*
X36365361Y-9148242D01*
X36235675Y-9659786D01*
X36234861Y-9662835D01*
X36049039Y-10324603D01*
X35902200Y-10833449D01*
X35901295Y-10836443D01*
X35694608Y-11490281D01*
X35530732Y-11995609D01*
X35529739Y-11998545D01*
X35302480Y-12643873D01*
X35121658Y-13145065D01*
X35120580Y-13147941D01*
X34873027Y-13784254D01*
X34675399Y-14280629D01*
X34674239Y-14283442D01*
X34406721Y-14910143D01*
X34192442Y-15401061D01*
X34191203Y-15403808D01*
X33904042Y-16020360D01*
X33673293Y-16505187D01*
X33671978Y-16507867D01*
X33365550Y-17113657D01*
X33118497Y-17591853D01*
X33117108Y-17594464D01*
X32791724Y-18189043D01*
X32528684Y-18659826D01*
X32527225Y-18662366D01*
X32183243Y-19245225D01*
X31904386Y-19708139D01*
X31902860Y-19710607D01*
X31540706Y-20281149D01*
X31246386Y-20735484D01*
X31244796Y-20737877D01*
X30864816Y-21295672D01*
X30555256Y-21740964D01*
X30553606Y-21743281D01*
X30156303Y-22287695D01*
X29831813Y-22723392D01*
X29830105Y-22725631D01*
X29415854Y-23256247D01*
X29076795Y-23681763D01*
X29075034Y-23683923D01*
X28644289Y-24200242D01*
X28290980Y-24615095D01*
X28289167Y-24617175D01*
X27842419Y-25118684D01*
X27475300Y-25522279D01*
X27473441Y-25524279D01*
X27011065Y-26010624D01*
X26630501Y-26402496D01*
X26628598Y-26404414D01*
X26151163Y-26875054D01*
X25757483Y-27254798D01*
X25755539Y-27256633D01*
X25263605Y-27711077D01*
X24857185Y-28078263D01*
X24855204Y-28080015D01*
X24349294Y-28517839D01*
X23930680Y-28871919D01*
X23928664Y-28873588D01*
X23409178Y-29294494D01*
X22978781Y-29635070D01*
X22976734Y-29636655D01*
X22444290Y-30040184D01*
X22002614Y-30366815D01*
X22000540Y-30368316D01*
X21455607Y-30754148D01*
X21003168Y-31066415D01*
X21001070Y-31067832D01*
X20444248Y-31435575D01*
X19981492Y-31733137D01*
X19979373Y-31734470D01*
X19411267Y-32083754D01*
X18937584Y-32366922D01*
X18937526Y-32366955D01*
X18361409Y-32695916D01*
X18357698Y-32698035D01*
X17874723Y-32965752D01*
X17284688Y-33277742D01*
X16792944Y-33529694D01*
X16193402Y-33822245D01*
X15693384Y-34058156D01*
X15084966Y-34330984D01*
X14577244Y-34550560D01*
X13960521Y-34803429D01*
X13445689Y-35006394D01*
X12821327Y-35239049D01*
X12299872Y-35425194D01*
X11668587Y-35637385D01*
X11210255Y-35784312D01*
X11141037Y-35806501D01*
X10503434Y-35998045D01*
X9970498Y-36149889D01*
X9327102Y-36320640D01*
X8789417Y-36455021D01*
X8140951Y-36604794D01*
X7598970Y-36721591D01*
X6946176Y-36850223D01*
X6400535Y-36949289D01*
X6358963Y-36956088D01*
X5744038Y-37056669D01*
X5195314Y-37137887D01*
X4535809Y-37223912D01*
X4247346Y-37257025D01*
X3984647Y-37287181D01*
X3322710Y-37351777D01*
X2769733Y-37397020D01*
X2106134Y-37440117D01*
X2054343Y-37442656D01*
X1551938Y-37467285D01*
X887276Y-37488845D01*
X754798Y-37491008D01*
X332429Y-37497904D01*
X-332490Y-37497904D01*
X-439300Y-37496159D01*
X-887283Y-37488845D01*
X-1551945Y-37467285D01*
X-2106138Y-37440117D01*
X-2769740Y-37397020D01*
X-3322718Y-37351777D01*
X-3984652Y-37287180D01*
X-4389140Y-37240748D01*
X-4535803Y-37223913D01*
X-5195320Y-37137887D01*
X-5744045Y-37056668D01*
X-6400536Y-36949288D01*
X-6946183Y-36850223D01*
X-7598976Y-36721589D01*
X-8140959Y-36604792D01*
X-8789409Y-36455023D01*
X-9327108Y-36320638D01*
X-9970504Y-36149888D01*
X-10503442Y-35998043D01*
X-11141051Y-35806497D01*
X-11668596Y-35637383D01*
X-12299876Y-35425192D01*
X-12821336Y-35239046D01*
X-13445694Y-35006392D01*
X-13960529Y-34803425D01*
X-14577234Y-34550564D01*
X-14795418Y-34456206D01*
X-15084975Y-34330980D01*
X-15693388Y-34058154D01*
X-16193411Y-33822242D01*
X-16792948Y-33529692D01*
X-17284697Y-33277737D01*
X-17874726Y-32965750D01*
X-18357707Y-32698029D01*
X-18937588Y-32366920D01*
X-18937623Y-32366899D01*
X-19398107Y-32091621D01*
X-19411272Y-32083751D01*
X-19979373Y-31734470D01*
X-19981492Y-31733137D01*
X-20444247Y-31435575D01*
X-21001070Y-31067832D01*
X-21003169Y-31066415D01*
X-21095577Y-31002636D01*
X-5504848Y-31002636D01*
X-5485239Y-31464217D01*
X-5484793Y-31469462D01*
X-5426109Y-31927738D01*
X-5425222Y-31932911D01*
X-5327887Y-32384547D01*
X-5326558Y-32389651D01*
X-5191269Y-32831416D01*
X-5189523Y-32836357D01*
X-5017259Y-33265053D01*
X-5015090Y-33269850D01*
X-4807092Y-33682391D01*
X-4804530Y-33686978D01*
X-4562292Y-34080397D01*
X-4559344Y-34084758D01*
X-4284623Y-34456206D01*
X-4281313Y-34460305D01*
X-4062490Y-34708937D01*
X-1938580Y-32585027D01*
X-1930092Y-32596711D01*
X-1714751Y-32826025D01*
X-1582160Y-32935713D01*
X-3709434Y-35062987D01*
X-3638884Y-35130603D01*
X-3634939Y-35134075D01*
X-3275497Y-35424304D01*
X-3271236Y-35427455D01*
X-2888465Y-35686164D01*
X-2884001Y-35688912D01*
X-2480661Y-35914232D01*
X-2475942Y-35916611D01*
X-2054959Y-36106907D01*
X-2050079Y-36108868D01*
X-1614458Y-36262783D01*
X-1609431Y-36264323D01*
X-1162330Y-36380738D01*
X-1157179Y-36381848D01*
X-701818Y-36459927D01*
X-696610Y-36460594D01*
X-236261Y-36499776D01*
X-231006Y-36500000D01*
X231006Y-36500000D01*
X236261Y-36499776D01*
X696610Y-36460594D01*
X701818Y-36459927D01*
X1157179Y-36381848D01*
X1162330Y-36380738D01*
X1609431Y-36264323D01*
X1614458Y-36262783D01*
X2050079Y-36108868D01*
X2054959Y-36106907D01*
X2475942Y-35916611D01*
X2480661Y-35914232D01*
X2884001Y-35688912D01*
X2888465Y-35686164D01*
X3271236Y-35427455D01*
X3275497Y-35424304D01*
X3634939Y-35134075D01*
X3638884Y-35130603D01*
X3709434Y-35062987D01*
X1582160Y-32935713D01*
X1714751Y-32826025D01*
X1930092Y-32596711D01*
X1938580Y-32585027D01*
X4062490Y-34708937D01*
X4281313Y-34460305D01*
X4284623Y-34456206D01*
X4559344Y-34084758D01*
X4562292Y-34080397D01*
X4804530Y-33686978D01*
X4807092Y-33682391D01*
X5015090Y-33269850D01*
X5017259Y-33265053D01*
X5189523Y-32836357D01*
X5191269Y-32831416D01*
X5326558Y-32389651D01*
X5327887Y-32384547D01*
X5425222Y-31932911D01*
X5426109Y-31927738D01*
X5484793Y-31469462D01*
X5485239Y-31464217D01*
X5504848Y-31002636D01*
X5504848Y-30997363D01*
X5485239Y-30535782D01*
X5484793Y-30530537D01*
X5426109Y-30072261D01*
X5425222Y-30067088D01*
X5327887Y-29615452D01*
X5326558Y-29610348D01*
X5191269Y-29168583D01*
X5189523Y-29163642D01*
X5017259Y-28734946D01*
X5015090Y-28730149D01*
X4807092Y-28317608D01*
X4804530Y-28313021D01*
X4562292Y-27919602D01*
X4559344Y-27915241D01*
X4284623Y-27543793D01*
X4281313Y-27539694D01*
X4062489Y-27291062D01*
X1938579Y-29414971D01*
X1930092Y-29403289D01*
X1714751Y-29173975D01*
X1582159Y-29064286D01*
X3709434Y-26937012D01*
X3638897Y-26869408D01*
X3634925Y-26865913D01*
X3275497Y-26575695D01*
X3271236Y-26572544D01*
X2888465Y-26313835D01*
X2884001Y-26311087D01*
X2480661Y-26085767D01*
X2475942Y-26083388D01*
X2054959Y-25893092D01*
X2050079Y-25891131D01*
X1614458Y-25737216D01*
X1609431Y-25735676D01*
X1162330Y-25619261D01*
X1157179Y-25618151D01*
X701818Y-25540072D01*
X696610Y-25539405D01*
X236261Y-25500223D01*
X231006Y-25500000D01*
X-231006Y-25500000D01*
X-236261Y-25500223D01*
X-696610Y-25539405D01*
X-701818Y-25540072D01*
X-1157179Y-25618151D01*
X-1162330Y-25619261D01*
X-1609431Y-25735676D01*
X-1614458Y-25737216D01*
X-2050079Y-25891131D01*
X-2054959Y-25893092D01*
X-2475942Y-26083388D01*
X-2480661Y-26085767D01*
X-2884001Y-26311087D01*
X-2888465Y-26313835D01*
X-3271236Y-26572544D01*
X-3275497Y-26575695D01*
X-3634925Y-26865913D01*
X-3638897Y-26869408D01*
X-3709434Y-26937012D01*
X-1582159Y-29064286D01*
X-1714751Y-29173975D01*
X-1930092Y-29403289D01*
X-1938579Y-29414971D01*
X-4062489Y-27291062D01*
X-4281313Y-27539694D01*
X-4284623Y-27543793D01*
X-4559344Y-27915241D01*
X-4562292Y-27919602D01*
X-4804530Y-28313021D01*
X-4807092Y-28317608D01*
X-5015090Y-28730149D01*
X-5017259Y-28734946D01*
X-5189523Y-29163642D01*
X-5191269Y-29168583D01*
X-5326558Y-29610348D01*
X-5327887Y-29615452D01*
X-5425222Y-30067088D01*
X-5426109Y-30072261D01*
X-5484793Y-30530537D01*
X-5485239Y-30535782D01*
X-5504848Y-30997363D01*
X-5504848Y-31002636D01*
X-21095577Y-31002636D01*
X-21455607Y-30754148D01*
X-22000540Y-30368316D01*
X-22002615Y-30366815D01*
X-22444290Y-30040184D01*
X-22976734Y-29636655D01*
X-22978781Y-29635070D01*
X-23409178Y-29294494D01*
X-23928663Y-28873588D01*
X-23930679Y-28871919D01*
X-24349292Y-28517840D01*
X-24855203Y-28080015D01*
X-24857185Y-28078263D01*
X-25263605Y-27711077D01*
X-25755539Y-27256633D01*
X-25757483Y-27254798D01*
X-26151163Y-26875054D01*
X-26628598Y-26404414D01*
X-26630501Y-26402496D01*
X-27011065Y-26010624D01*
X-27473441Y-25524279D01*
X-27475300Y-25522279D01*
X-27842419Y-25118684D01*
X-28289167Y-24617175D01*
X-28290980Y-24615095D01*
X-28644289Y-24200242D01*
X-29075034Y-23683923D01*
X-29076795Y-23681763D01*
X-29415854Y-23256247D01*
X-29830105Y-22725632D01*
X-29831812Y-22723392D01*
X-30156303Y-22287695D01*
X-30553606Y-21743281D01*
X-30555257Y-21740964D01*
X-30864816Y-21295672D01*
X-31244795Y-20737877D01*
X-31246385Y-20735484D01*
X-31540706Y-20281149D01*
X-31902861Y-19710606D01*
X-31904387Y-19708138D01*
X-32183243Y-19245225D01*
X-32527224Y-18662367D01*
X-32528683Y-18659826D01*
X-32791724Y-18189043D01*
X-33117107Y-17594464D01*
X-33118496Y-17591853D01*
X-33365550Y-17113657D01*
X-33671977Y-16507867D01*
X-33673293Y-16505187D01*
X-33904042Y-16020361D01*
X-34145173Y-15502636D01*
X-32351636Y-15502636D01*
X-32332027Y-15964217D01*
X-32331581Y-15969462D01*
X-32272897Y-16427738D01*
X-32272010Y-16432911D01*
X-32174675Y-16884547D01*
X-32173346Y-16889651D01*
X-32038057Y-17331416D01*
X-32036311Y-17336357D01*
X-31864047Y-17765053D01*
X-31861878Y-17769850D01*
X-31653880Y-18182391D01*
X-31651318Y-18186978D01*
X-31409080Y-18580397D01*
X-31406132Y-18584758D01*
X-31131411Y-18956206D01*
X-31128101Y-18960305D01*
X-30909278Y-19208937D01*
X-28785368Y-17085027D01*
X-28776880Y-17096711D01*
X-28561539Y-17326025D01*
X-28428948Y-17435713D01*
X-30556222Y-19562987D01*
X-30485672Y-19630603D01*
X-30481727Y-19634075D01*
X-30122285Y-19924304D01*
X-30118024Y-19927455D01*
X-29735253Y-20186164D01*
X-29730789Y-20188912D01*
X-29327449Y-20414232D01*
X-29322730Y-20416611D01*
X-28901747Y-20606907D01*
X-28896867Y-20608868D01*
X-28461246Y-20762783D01*
X-28456219Y-20764323D01*
X-28009118Y-20880738D01*
X-28003967Y-20881848D01*
X-27548606Y-20959927D01*
X-27543398Y-20960594D01*
X-27083049Y-20999776D01*
X-27077794Y-21000000D01*
X-26615782Y-21000000D01*
X-26610526Y-20999776D01*
X-26150177Y-20960594D01*
X-26144969Y-20959927D01*
X-25689608Y-20881848D01*
X-25684457Y-20880738D01*
X-25237356Y-20764323D01*
X-25232329Y-20762783D01*
X-24796708Y-20608868D01*
X-24791828Y-20606907D01*
X-24370845Y-20416611D01*
X-24366126Y-20414232D01*
X-23962786Y-20188912D01*
X-23958322Y-20186164D01*
X-23575551Y-19927455D01*
X-23571290Y-19924304D01*
X-23211862Y-19634086D01*
X-23207890Y-19630591D01*
X-23137352Y-19562987D01*
X-25264627Y-17435713D01*
X-25132037Y-17326025D01*
X-24916696Y-17096711D01*
X-24908206Y-17085026D01*
X-22784297Y-19208936D01*
X-22565474Y-18960305D01*
X-22562164Y-18956206D01*
X-22287443Y-18584758D01*
X-22284495Y-18580397D01*
X-22042257Y-18186978D01*
X-22039695Y-18182391D01*
X-21831697Y-17769850D01*
X-21829528Y-17765053D01*
X-21657264Y-17336357D01*
X-21655518Y-17331416D01*
X-21520229Y-16889651D01*
X-21518900Y-16884547D01*
X-21421565Y-16432911D01*
X-21420678Y-16427738D01*
X-21361994Y-15969462D01*
X-21361548Y-15964217D01*
X-21341940Y-15502636D01*
X21341940Y-15502636D01*
X21361548Y-15964217D01*
X21361994Y-15969462D01*
X21420678Y-16427738D01*
X21421565Y-16432911D01*
X21518900Y-16884547D01*
X21520229Y-16889651D01*
X21655518Y-17331416D01*
X21657264Y-17336357D01*
X21829528Y-17765053D01*
X21831697Y-17769850D01*
X22039695Y-18182391D01*
X22042257Y-18186978D01*
X22284495Y-18580397D01*
X22287443Y-18584758D01*
X22562164Y-18956206D01*
X22565474Y-18960305D01*
X22784297Y-19208936D01*
X24908206Y-17085026D01*
X24916696Y-17096711D01*
X25132037Y-17326025D01*
X25264627Y-17435713D01*
X23137352Y-19562987D01*
X23207890Y-19630591D01*
X23211862Y-19634086D01*
X23571290Y-19924304D01*
X23575551Y-19927455D01*
X23958322Y-20186164D01*
X23962786Y-20188912D01*
X24366126Y-20414232D01*
X24370845Y-20416611D01*
X24791828Y-20606907D01*
X24796708Y-20608868D01*
X25232329Y-20762783D01*
X25237356Y-20764323D01*
X25684457Y-20880738D01*
X25689608Y-20881848D01*
X26144969Y-20959927D01*
X26150177Y-20960594D01*
X26610526Y-20999776D01*
X26615782Y-21000000D01*
X27077794Y-21000000D01*
X27083049Y-20999776D01*
X27543398Y-20960594D01*
X27548606Y-20959927D01*
X28003967Y-20881848D01*
X28009118Y-20880738D01*
X28456219Y-20764323D01*
X28461246Y-20762783D01*
X28896867Y-20608868D01*
X28901747Y-20606907D01*
X29322730Y-20416611D01*
X29327449Y-20414232D01*
X29730789Y-20188912D01*
X29735253Y-20186164D01*
X30118024Y-19927455D01*
X30122285Y-19924304D01*
X30481727Y-19634075D01*
X30485672Y-19630603D01*
X30556222Y-19562987D01*
X28428948Y-17435713D01*
X28561539Y-17326025D01*
X28776880Y-17096711D01*
X28785368Y-17085027D01*
X30909278Y-19208937D01*
X31128101Y-18960305D01*
X31131411Y-18956206D01*
X31406132Y-18584758D01*
X31409080Y-18580397D01*
X31651318Y-18186978D01*
X31653880Y-18182391D01*
X31861878Y-17769850D01*
X31864047Y-17765053D01*
X32036311Y-17336357D01*
X32038057Y-17331416D01*
X32173346Y-16889651D01*
X32174675Y-16884547D01*
X32272010Y-16432911D01*
X32272897Y-16427738D01*
X32331581Y-15969462D01*
X32332027Y-15964217D01*
X32351636Y-15502636D01*
X32351636Y-15497363D01*
X32332027Y-15035782D01*
X32331581Y-15030537D01*
X32272897Y-14572261D01*
X32272010Y-14567088D01*
X32174675Y-14115452D01*
X32173346Y-14110348D01*
X32038057Y-13668583D01*
X32036311Y-13663642D01*
X31864047Y-13234946D01*
X31861878Y-13230149D01*
X31653880Y-12817608D01*
X31651318Y-12813021D01*
X31409080Y-12419602D01*
X31406132Y-12415241D01*
X31131411Y-12043793D01*
X31128101Y-12039694D01*
X30909277Y-11791062D01*
X28785367Y-13914971D01*
X28776880Y-13903289D01*
X28561539Y-13673975D01*
X28428947Y-13564285D01*
X30556222Y-11437012D01*
X30485685Y-11369408D01*
X30481713Y-11365913D01*
X30122285Y-11075695D01*
X30118024Y-11072544D01*
X29735253Y-10813835D01*
X29730789Y-10811087D01*
X29327449Y-10585767D01*
X29322730Y-10583388D01*
X28901747Y-10393092D01*
X28896867Y-10391131D01*
X28461246Y-10237216D01*
X28456219Y-10235676D01*
X28009118Y-10119261D01*
X28003967Y-10118151D01*
X27548606Y-10040072D01*
X27543398Y-10039405D01*
X27083049Y-10000223D01*
X27077794Y-10000000D01*
X26615782Y-10000000D01*
X26610526Y-10000223D01*
X26150177Y-10039405D01*
X26144969Y-10040072D01*
X25689608Y-10118151D01*
X25684457Y-10119261D01*
X25237356Y-10235676D01*
X25232329Y-10237216D01*
X24796708Y-10391131D01*
X24791828Y-10393092D01*
X24370845Y-10583388D01*
X24366126Y-10585767D01*
X23962786Y-10811087D01*
X23958322Y-10813835D01*
X23575551Y-11072544D01*
X23571290Y-11075695D01*
X23211849Y-11365923D01*
X23207902Y-11369397D01*
X23137353Y-11437011D01*
X23137353Y-11437012D01*
X25264627Y-13564286D01*
X25132037Y-13673975D01*
X24916696Y-13903289D01*
X24908207Y-13914972D01*
X22784297Y-11791062D01*
X22565464Y-12039704D01*
X22562171Y-12043783D01*
X22287443Y-12415241D01*
X22284495Y-12419602D01*
X22042257Y-12813021D01*
X22039695Y-12817608D01*
X21831697Y-13230149D01*
X21829528Y-13234946D01*
X21657264Y-13663642D01*
X21655518Y-13668583D01*
X21520229Y-14110348D01*
X21518900Y-14115452D01*
X21421565Y-14567088D01*
X21420678Y-14572261D01*
X21361994Y-15030537D01*
X21361548Y-15035782D01*
X21341940Y-15497363D01*
X21341940Y-15502636D01*
X-21341940Y-15502636D01*
X-21341940Y-15497363D01*
X-21361548Y-15035782D01*
X-21361994Y-15030537D01*
X-21420678Y-14572261D01*
X-21421565Y-14567088D01*
X-21518900Y-14115452D01*
X-21520229Y-14110348D01*
X-21655518Y-13668583D01*
X-21657264Y-13663642D01*
X-21829528Y-13234946D01*
X-21831697Y-13230149D01*
X-22039695Y-12817608D01*
X-22042257Y-12813021D01*
X-22284495Y-12419602D01*
X-22287443Y-12415241D01*
X-22562171Y-12043783D01*
X-22565464Y-12039704D01*
X-22784297Y-11791062D01*
X-24908207Y-13914972D01*
X-24916696Y-13903289D01*
X-25132037Y-13673975D01*
X-25264627Y-13564286D01*
X-23137353Y-11437012D01*
X-23137353Y-11437011D01*
X-23207902Y-11369397D01*
X-23211849Y-11365923D01*
X-23571290Y-11075695D01*
X-23575551Y-11072544D01*
X-23958322Y-10813835D01*
X-23962786Y-10811087D01*
X-24366126Y-10585767D01*
X-24370845Y-10583388D01*
X-24791828Y-10393092D01*
X-24796708Y-10391131D01*
X-25232329Y-10237216D01*
X-25237356Y-10235676D01*
X-25684457Y-10119261D01*
X-25689608Y-10118151D01*
X-26144969Y-10040072D01*
X-26150177Y-10039405D01*
X-26610526Y-10000223D01*
X-26615782Y-10000000D01*
X-27077794Y-10000000D01*
X-27083049Y-10000223D01*
X-27543398Y-10039405D01*
X-27548606Y-10040072D01*
X-28003967Y-10118151D01*
X-28009118Y-10119261D01*
X-28456219Y-10235676D01*
X-28461246Y-10237216D01*
X-28896867Y-10391131D01*
X-28901747Y-10393092D01*
X-29322730Y-10583388D01*
X-29327449Y-10585767D01*
X-29730789Y-10811087D01*
X-29735253Y-10813835D01*
X-30118024Y-11072544D01*
X-30122285Y-11075695D01*
X-30481713Y-11365913D01*
X-30485685Y-11369408D01*
X-30556222Y-11437012D01*
X-28428947Y-13564285D01*
X-28561539Y-13673975D01*
X-28776880Y-13903289D01*
X-28785367Y-13914971D01*
X-30909277Y-11791062D01*
X-31128101Y-12039694D01*
X-31131411Y-12043793D01*
X-31406132Y-12415241D01*
X-31409080Y-12419602D01*
X-31651318Y-12813021D01*
X-31653880Y-12817608D01*
X-31861878Y-13230149D01*
X-31864047Y-13234946D01*
X-32036311Y-13663642D01*
X-32038057Y-13668583D01*
X-32173346Y-14110348D01*
X-32174675Y-14115452D01*
X-32272010Y-14567088D01*
X-32272897Y-14572261D01*
X-32331581Y-15030537D01*
X-32332027Y-15035782D01*
X-32351636Y-15497363D01*
X-32351636Y-15502636D01*
X-34145173Y-15502636D01*
X-34191202Y-15403809D01*
X-34192442Y-15401061D01*
X-34406721Y-14910143D01*
X-34674240Y-14283441D01*
X-34675400Y-14280628D01*
X-34873027Y-13784254D01*
X-35120579Y-13147941D01*
X-35121657Y-13145065D01*
X-35302480Y-12643874D01*
X-35529739Y-11998546D01*
X-35530732Y-11995610D01*
X-35694608Y-11490282D01*
X-35901294Y-10836444D01*
X-35902200Y-10833449D01*
X-36049039Y-10324603D01*
X-36234860Y-9662836D01*
X-36235674Y-9659786D01*
X-36365360Y-9148242D01*
X-36530084Y-8478951D01*
X-36530805Y-8475848D01*
X-36643287Y-7962316D01*
X-36786618Y-7286177D01*
X-36787244Y-7283026D01*
X-36882519Y-6768156D01*
X-37004227Y-6085641D01*
X-37004755Y-6082443D01*
X-37082830Y-5566974D01*
X-37182665Y-4878669D01*
X-37183092Y-4875427D01*
X-37229838Y-4480000D01*
X-6355659Y-4480000D01*
X-6335063Y-4715408D01*
X-6273903Y-4943663D01*
X-6174035Y-5157830D01*
X-6038495Y-5351401D01*
X-5871401Y-5518495D01*
X-5677830Y-5654035D01*
X-5463663Y-5753903D01*
X-5235408Y-5815063D01*
X-5000000Y-5835659D01*
X-4764592Y-5815063D01*
X-4764592Y-5815062D01*
X-4536337Y-5753903D01*
X-4322170Y-5654035D01*
X-4128599Y-5518495D01*
X-3961505Y-5351401D01*
X-3825965Y-5157830D01*
X-3726097Y-4943663D01*
X-3707813Y-4875427D01*
X-3664936Y-4715407D01*
X-3644340Y-4480000D01*
X-1755659Y-4480000D01*
X-1735063Y-4715408D01*
X-1673903Y-4943663D01*
X-1574035Y-5157830D01*
X-1438495Y-5351401D01*
X-1271401Y-5518495D01*
X-1077830Y-5654035D01*
X-863663Y-5753903D01*
X-635408Y-5815063D01*
X-400000Y-5835659D01*
X-164592Y-5815063D01*
X-164591Y-5815062D01*
X63663Y-5753903D01*
X277830Y-5654035D01*
X471401Y-5518495D01*
X638495Y-5351401D01*
X774035Y-5157830D01*
X873903Y-4943663D01*
X935063Y-4715408D01*
X955659Y-4480000D01*
X2844340Y-4480000D01*
X2864936Y-4715407D01*
X2907813Y-4875427D01*
X2926097Y-4943663D01*
X3025965Y-5157830D01*
X3161505Y-5351401D01*
X3328599Y-5518495D01*
X3522170Y-5654035D01*
X3736337Y-5753903D01*
X3964592Y-5815063D01*
X4200000Y-5835659D01*
X4435408Y-5815063D01*
X4663663Y-5753903D01*
X4877830Y-5654035D01*
X5071401Y-5518495D01*
X5238495Y-5351401D01*
X5374035Y-5157830D01*
X5473903Y-4943663D01*
X5535063Y-4715408D01*
X5555659Y-4480000D01*
X7444340Y-4480000D01*
X7464936Y-4715407D01*
X7507813Y-4875427D01*
X7526097Y-4943663D01*
X7625965Y-5157830D01*
X7761505Y-5351401D01*
X7928599Y-5518495D01*
X8122170Y-5654035D01*
X8336337Y-5753903D01*
X8564592Y-5815063D01*
X8800000Y-5835659D01*
X9035408Y-5815063D01*
X9263663Y-5753903D01*
X9477830Y-5654035D01*
X9671401Y-5518495D01*
X9838495Y-5351401D01*
X9974035Y-5157830D01*
X10073903Y-4943663D01*
X10135063Y-4715408D01*
X10155659Y-4480000D01*
X12044340Y-4480000D01*
X12064936Y-4715407D01*
X12107813Y-4875427D01*
X12126097Y-4943663D01*
X12225965Y-5157830D01*
X12361505Y-5351401D01*
X12528599Y-5518495D01*
X12722170Y-5654035D01*
X12936337Y-5753903D01*
X13164592Y-5815063D01*
X13400000Y-5835659D01*
X13635408Y-5815063D01*
X13863663Y-5753903D01*
X14077830Y-5654035D01*
X14271401Y-5518495D01*
X14438495Y-5351401D01*
X14574035Y-5157830D01*
X14673903Y-4943663D01*
X14735063Y-4715408D01*
X14755659Y-4480000D01*
X14735063Y-4244592D01*
X14673903Y-4016337D01*
X14574035Y-3802171D01*
X14438495Y-3608599D01*
X14271401Y-3441505D01*
X14085839Y-3311573D01*
X14042217Y-3256998D01*
X14035024Y-3187499D01*
X14066546Y-3125145D01*
X14085837Y-3108428D01*
X14271401Y-2978495D01*
X14438495Y-2811401D01*
X14574035Y-2617830D01*
X14673903Y-2403663D01*
X14735063Y-2175408D01*
X14755659Y-1940000D01*
X14735063Y-1704592D01*
X14673903Y-1476337D01*
X14574035Y-1262171D01*
X14438495Y-1068599D01*
X14271401Y-901505D01*
X14085839Y-771573D01*
X14042217Y-716998D01*
X14035024Y-647499D01*
X14066546Y-585145D01*
X14085837Y-568428D01*
X14271401Y-438495D01*
X14438495Y-271401D01*
X14574035Y-77830D01*
X14673903Y136337D01*
X14735063Y364592D01*
X14755659Y600000D01*
X14735063Y835408D01*
X14673903Y1063663D01*
X14574035Y1277829D01*
X14438495Y1471401D01*
X14316566Y1593329D01*
X14283084Y1654648D01*
X14288068Y1724340D01*
X14329939Y1780274D01*
X14360916Y1797189D01*
X14430898Y1823291D01*
X14492331Y1846204D01*
X14607546Y1932454D01*
X14693796Y2047669D01*
X14744091Y2182517D01*
X14750500Y2242127D01*
X14750499Y4037872D01*
X14744091Y4097483D01*
X14693796Y4232331D01*
X14607546Y4347546D01*
X14492331Y4433796D01*
X14357483Y4484091D01*
X14297873Y4490500D01*
X12502128Y4490499D01*
X12442517Y4484091D01*
X12307669Y4433796D01*
X12192454Y4347546D01*
X12106204Y4232331D01*
X12055909Y4097483D01*
X12049500Y4037873D01*
X12049500Y4034550D01*
X12049500Y2245439D01*
X12049500Y2245420D01*
X12049501Y2242128D01*
X12049853Y2238848D01*
X12049854Y2238840D01*
X12055909Y2182515D01*
X12106204Y2047669D01*
X12192454Y1932454D01*
X12307669Y1846204D01*
X12439083Y1797189D01*
X12495016Y1755317D01*
X12519433Y1689852D01*
X12504581Y1621580D01*
X12483430Y1593326D01*
X12361505Y1471401D01*
X12225965Y1277829D01*
X12126097Y1063663D01*
X12064936Y835407D01*
X12044340Y600000D01*
X12064936Y364592D01*
X12126097Y136337D01*
X12225965Y-77830D01*
X12361505Y-271401D01*
X12528599Y-438495D01*
X12714160Y-568426D01*
X12757783Y-623002D01*
X12764976Y-692501D01*
X12733454Y-754855D01*
X12714159Y-771575D01*
X12528595Y-901508D01*
X12361505Y-1068598D01*
X12225965Y-1262170D01*
X12126097Y-1476336D01*
X12064936Y-1704592D01*
X12044340Y-1939999D01*
X12064936Y-2175407D01*
X12109709Y-2342502D01*
X12126097Y-2403663D01*
X12225965Y-2617830D01*
X12361505Y-2811401D01*
X12528599Y-2978495D01*
X12714160Y-3108426D01*
X12757783Y-3163002D01*
X12764976Y-3232501D01*
X12733454Y-3294855D01*
X12714159Y-3311575D01*
X12528595Y-3441508D01*
X12361505Y-3608598D01*
X12225965Y-3802170D01*
X12126097Y-4016336D01*
X12064936Y-4244592D01*
X12044340Y-4480000D01*
X10155659Y-4480000D01*
X10135063Y-4244592D01*
X10073903Y-4016337D01*
X9974035Y-3802171D01*
X9838495Y-3608599D01*
X9671401Y-3441505D01*
X9485839Y-3311573D01*
X9442217Y-3256998D01*
X9435024Y-3187499D01*
X9466546Y-3125145D01*
X9485837Y-3108428D01*
X9671401Y-2978495D01*
X9838495Y-2811401D01*
X9974035Y-2617830D01*
X10073903Y-2403663D01*
X10135063Y-2175408D01*
X10155659Y-1940000D01*
X10135063Y-1704592D01*
X10073903Y-1476337D01*
X9974035Y-1262171D01*
X9838495Y-1068599D01*
X9671401Y-901505D01*
X9485839Y-771573D01*
X9442216Y-716998D01*
X9435022Y-647500D01*
X9466545Y-585145D01*
X9485837Y-568428D01*
X9671401Y-438495D01*
X9838495Y-271401D01*
X9974035Y-77830D01*
X10073903Y136337D01*
X10135063Y364592D01*
X10155659Y600000D01*
X10135063Y835408D01*
X10073903Y1063663D01*
X9974035Y1277829D01*
X9838495Y1471401D01*
X9716566Y1593329D01*
X9683084Y1654648D01*
X9688068Y1724340D01*
X9729939Y1780274D01*
X9760916Y1797189D01*
X9830898Y1823291D01*
X9892331Y1846204D01*
X10007546Y1932454D01*
X10093796Y2047669D01*
X10144091Y2182517D01*
X10150500Y2242127D01*
X10150499Y4037872D01*
X10144091Y4097483D01*
X10093796Y4232331D01*
X10007546Y4347546D01*
X9892331Y4433796D01*
X9757483Y4484091D01*
X9697873Y4490500D01*
X7902128Y4490499D01*
X7842517Y4484091D01*
X7707669Y4433796D01*
X7592454Y4347546D01*
X7506204Y4232331D01*
X7455909Y4097483D01*
X7449500Y4037873D01*
X7449500Y4034550D01*
X7449500Y2245439D01*
X7449500Y2245420D01*
X7449501Y2242128D01*
X7449853Y2238848D01*
X7449854Y2238840D01*
X7455909Y2182515D01*
X7506204Y2047669D01*
X7592454Y1932454D01*
X7707669Y1846204D01*
X7839083Y1797189D01*
X7895016Y1755317D01*
X7919433Y1689852D01*
X7904581Y1621580D01*
X7883430Y1593326D01*
X7761505Y1471401D01*
X7625965Y1277829D01*
X7526097Y1063663D01*
X7464936Y835407D01*
X7444340Y600000D01*
X7464936Y364592D01*
X7526097Y136337D01*
X7625965Y-77830D01*
X7761505Y-271401D01*
X7928599Y-438495D01*
X8114160Y-568426D01*
X8157783Y-623002D01*
X8164976Y-692501D01*
X8133454Y-754855D01*
X8114159Y-771575D01*
X7928595Y-901508D01*
X7761505Y-1068598D01*
X7625965Y-1262170D01*
X7526097Y-1476336D01*
X7464936Y-1704592D01*
X7444340Y-1940000D01*
X7464936Y-2175407D01*
X7509709Y-2342502D01*
X7526097Y-2403663D01*
X7625965Y-2617830D01*
X7761505Y-2811401D01*
X7928599Y-2978495D01*
X8114160Y-3108426D01*
X8157783Y-3163002D01*
X8164976Y-3232501D01*
X8133454Y-3294855D01*
X8114159Y-3311575D01*
X7928595Y-3441508D01*
X7761505Y-3608598D01*
X7625965Y-3802170D01*
X7526097Y-4016336D01*
X7464936Y-4244592D01*
X7444340Y-4480000D01*
X5555659Y-4480000D01*
X5535063Y-4244592D01*
X5473903Y-4016337D01*
X5374035Y-3802171D01*
X5238495Y-3608599D01*
X5071401Y-3441505D01*
X4885839Y-3311573D01*
X4842216Y-3256998D01*
X4835022Y-3187500D01*
X4866545Y-3125145D01*
X4885837Y-3108428D01*
X5071401Y-2978495D01*
X5238495Y-2811401D01*
X5374035Y-2617830D01*
X5473903Y-2403663D01*
X5535063Y-2175408D01*
X5555659Y-1940000D01*
X5535063Y-1704592D01*
X5473903Y-1476337D01*
X5374035Y-1262171D01*
X5238495Y-1068599D01*
X5071401Y-901505D01*
X4885839Y-771573D01*
X4842216Y-716998D01*
X4835022Y-647500D01*
X4866545Y-585145D01*
X4885837Y-568428D01*
X5071401Y-438495D01*
X5238495Y-271401D01*
X5374035Y-77830D01*
X5473903Y136337D01*
X5535063Y364592D01*
X5555659Y600000D01*
X5535063Y835408D01*
X5473903Y1063663D01*
X5374035Y1277829D01*
X5238495Y1471401D01*
X5116566Y1593329D01*
X5083084Y1654648D01*
X5088068Y1724340D01*
X5129939Y1780274D01*
X5160916Y1797189D01*
X5230898Y1823291D01*
X5292331Y1846204D01*
X5407546Y1932454D01*
X5493796Y2047669D01*
X5544091Y2182517D01*
X5550500Y2242127D01*
X5550499Y4037872D01*
X5544091Y4097483D01*
X5493796Y4232331D01*
X5407546Y4347546D01*
X5292331Y4433796D01*
X5157483Y4484091D01*
X5097873Y4490500D01*
X3302128Y4490499D01*
X3242517Y4484091D01*
X3107669Y4433796D01*
X2992454Y4347546D01*
X2906204Y4232331D01*
X2855909Y4097483D01*
X2849500Y4037873D01*
X2849500Y4034550D01*
X2849500Y2245439D01*
X2849500Y2245420D01*
X2849501Y2242128D01*
X2849853Y2238848D01*
X2849854Y2238840D01*
X2855909Y2182515D01*
X2906204Y2047669D01*
X2992454Y1932454D01*
X3107669Y1846204D01*
X3239083Y1797189D01*
X3295016Y1755317D01*
X3319433Y1689852D01*
X3304581Y1621580D01*
X3283430Y1593326D01*
X3161505Y1471401D01*
X3025965Y1277829D01*
X2926097Y1063663D01*
X2864936Y835407D01*
X2844340Y600000D01*
X2864936Y364592D01*
X2926097Y136337D01*
X3025965Y-77830D01*
X3161505Y-271401D01*
X3328599Y-438495D01*
X3514160Y-568426D01*
X3557783Y-623002D01*
X3564976Y-692501D01*
X3533454Y-754855D01*
X3514159Y-771575D01*
X3328595Y-901508D01*
X3161505Y-1068598D01*
X3025965Y-1262170D01*
X2926097Y-1476336D01*
X2864936Y-1704592D01*
X2844340Y-1940000D01*
X2864936Y-2175407D01*
X2909709Y-2342502D01*
X2926097Y-2403663D01*
X3025965Y-2617830D01*
X3161505Y-2811401D01*
X3328599Y-2978495D01*
X3514160Y-3108426D01*
X3557783Y-3163002D01*
X3564976Y-3232501D01*
X3533454Y-3294855D01*
X3514159Y-3311575D01*
X3328595Y-3441508D01*
X3161505Y-3608598D01*
X3025965Y-3802170D01*
X2926097Y-4016336D01*
X2864936Y-4244592D01*
X2844340Y-4480000D01*
X955659Y-4480000D01*
X935063Y-4244592D01*
X873903Y-4016337D01*
X774035Y-3802171D01*
X638495Y-3608599D01*
X471401Y-3441505D01*
X285839Y-3311573D01*
X242216Y-3256998D01*
X235022Y-3187500D01*
X266545Y-3125145D01*
X285837Y-3108428D01*
X471401Y-2978495D01*
X638495Y-2811401D01*
X774035Y-2617830D01*
X873903Y-2403663D01*
X935063Y-2175408D01*
X955659Y-1940000D01*
X935063Y-1704592D01*
X873903Y-1476337D01*
X774035Y-1262171D01*
X638495Y-1068599D01*
X471401Y-901505D01*
X285839Y-771573D01*
X242216Y-716998D01*
X235022Y-647500D01*
X266545Y-585145D01*
X285837Y-568428D01*
X471401Y-438495D01*
X638495Y-271401D01*
X774035Y-77830D01*
X873903Y136337D01*
X935063Y364592D01*
X955659Y600000D01*
X935063Y835408D01*
X873903Y1063663D01*
X774035Y1277829D01*
X638495Y1471401D01*
X516566Y1593329D01*
X483084Y1654648D01*
X488068Y1724340D01*
X529939Y1780274D01*
X560916Y1797189D01*
X630898Y1823291D01*
X692331Y1846204D01*
X807546Y1932454D01*
X893796Y2047669D01*
X944091Y2182517D01*
X950500Y2242127D01*
X950499Y4037872D01*
X944091Y4097483D01*
X893796Y4232331D01*
X807546Y4347546D01*
X692331Y4433796D01*
X557483Y4484091D01*
X497873Y4490500D01*
X-1297872Y4490499D01*
X-1357483Y4484091D01*
X-1492331Y4433796D01*
X-1607546Y4347546D01*
X-1693796Y4232331D01*
X-1744091Y4097483D01*
X-1750500Y4037873D01*
X-1750499Y2242128D01*
X-1744091Y2182517D01*
X-1693796Y2047669D01*
X-1607546Y1932454D01*
X-1492331Y1846204D01*
X-1430898Y1823291D01*
X-1360916Y1797189D01*
X-1304983Y1755317D01*
X-1280566Y1689853D01*
X-1295418Y1621580D01*
X-1316563Y1593332D01*
X-1438495Y1471401D01*
X-1574035Y1277829D01*
X-1673903Y1063663D01*
X-1735063Y835408D01*
X-1755659Y600000D01*
X-1735063Y364592D01*
X-1673903Y136337D01*
X-1574035Y-77830D01*
X-1438495Y-271401D01*
X-1271401Y-438495D01*
X-1085839Y-568426D01*
X-1042216Y-623002D01*
X-1035022Y-692500D01*
X-1066545Y-754855D01*
X-1085841Y-771575D01*
X-1271401Y-901505D01*
X-1438495Y-1068599D01*
X-1574035Y-1262171D01*
X-1673903Y-1476337D01*
X-1735063Y-1704592D01*
X-1755659Y-1940000D01*
X-1735063Y-2175408D01*
X-1673903Y-2403663D01*
X-1574035Y-2617830D01*
X-1438495Y-2811401D01*
X-1271401Y-2978495D01*
X-1085839Y-3108426D01*
X-1042216Y-3163002D01*
X-1035022Y-3232500D01*
X-1066545Y-3294855D01*
X-1085841Y-3311575D01*
X-1271401Y-3441505D01*
X-1438495Y-3608599D01*
X-1574035Y-3802171D01*
X-1673903Y-4016337D01*
X-1735063Y-4244592D01*
X-1755659Y-4480000D01*
X-3644340Y-4480000D01*
X-3664936Y-4244592D01*
X-3726097Y-4016336D01*
X-3825965Y-3802170D01*
X-3961505Y-3608598D01*
X-4128595Y-3441508D01*
X-4128599Y-3441505D01*
X-4314160Y-3311573D01*
X-4357783Y-3256998D01*
X-4364976Y-3187499D01*
X-4333454Y-3125145D01*
X-4314162Y-3108428D01*
X-4128599Y-2978495D01*
X-3961505Y-2811401D01*
X-3825965Y-2617830D01*
X-3726097Y-2403663D01*
X-3709709Y-2342502D01*
X-3664936Y-2175407D01*
X-3644340Y-1940000D01*
X-3664936Y-1704592D01*
X-3726097Y-1476336D01*
X-3825965Y-1262170D01*
X-3961505Y-1068598D01*
X-4128595Y-901508D01*
X-4128599Y-901505D01*
X-4314160Y-771573D01*
X-4357783Y-716998D01*
X-4364976Y-647499D01*
X-4333454Y-585145D01*
X-4314162Y-568428D01*
X-4128599Y-438495D01*
X-3961505Y-271401D01*
X-3825965Y-77830D01*
X-3726097Y136337D01*
X-3664936Y364592D01*
X-3644340Y600000D01*
X-3664936Y835407D01*
X-3726097Y1063663D01*
X-3825965Y1277829D01*
X-3961505Y1471401D01*
X-4083430Y1593326D01*
X-4116915Y1654649D01*
X-4111931Y1724341D01*
X-4070059Y1780274D01*
X-4039083Y1797189D01*
X-3907669Y1846204D01*
X-3792454Y1932454D01*
X-3706204Y2047668D01*
X-3655909Y2182516D01*
X-3649854Y2238833D01*
X-3649853Y2238835D01*
X-3649500Y2242127D01*
X-3649500Y3107492D01*
X-3649500Y4034560D01*
X-3649500Y4034578D01*
X-3649501Y4037872D01*
X-3655909Y4097483D01*
X-3670862Y4137573D01*
X-3706204Y4232330D01*
X-3706204Y4232331D01*
X-3792454Y4347546D01*
X-3907669Y4433796D01*
X-4042517Y4484091D01*
X-4102127Y4490500D01*
X-5897872Y4490499D01*
X-5957483Y4484091D01*
X-6092331Y4433796D01*
X-6207546Y4347546D01*
X-6293796Y4232331D01*
X-6344091Y4097483D01*
X-6350500Y4037873D01*
X-6350499Y2242128D01*
X-6344091Y2182517D01*
X-6293796Y2047669D01*
X-6207546Y1932454D01*
X-6092331Y1846204D01*
X-6030898Y1823291D01*
X-5960916Y1797189D01*
X-5904983Y1755317D01*
X-5880566Y1689853D01*
X-5895418Y1621580D01*
X-5916563Y1593332D01*
X-6038495Y1471401D01*
X-6174035Y1277829D01*
X-6273903Y1063663D01*
X-6335063Y835408D01*
X-6355659Y600000D01*
X-6335063Y364592D01*
X-6273903Y136337D01*
X-6174035Y-77830D01*
X-6038495Y-271401D01*
X-5871401Y-438495D01*
X-5685839Y-568426D01*
X-5642216Y-623002D01*
X-5635022Y-692500D01*
X-5666545Y-754855D01*
X-5685841Y-771575D01*
X-5871401Y-901505D01*
X-6038495Y-1068599D01*
X-6174035Y-1262171D01*
X-6273903Y-1476337D01*
X-6335063Y-1704592D01*
X-6355659Y-1940000D01*
X-6335063Y-2175408D01*
X-6273903Y-2403663D01*
X-6174035Y-2617830D01*
X-6038495Y-2811401D01*
X-5871401Y-2978495D01*
X-5685839Y-3108426D01*
X-5642216Y-3163002D01*
X-5635022Y-3232500D01*
X-5666545Y-3294855D01*
X-5685841Y-3311575D01*
X-5871401Y-3441505D01*
X-6038495Y-3608599D01*
X-6174035Y-3802171D01*
X-6273903Y-4016337D01*
X-6335063Y-4244592D01*
X-6355659Y-4480000D01*
X-37229838Y-4480000D01*
X-37244010Y-4360113D01*
X-37321750Y-3666501D01*
X-37322074Y-3663219D01*
X-37365906Y-3148868D01*
X-37421326Y-2450481D01*
X-37421545Y-2447161D01*
X-37448411Y-1934507D01*
X-37481293Y-1231842D01*
X-37481405Y-1228489D01*
X-37491457Y-718432D01*
X-37501587Y-11892D01*
X-37501590Y-8509D01*
X-37495026Y498212D01*
X-37493184Y600000D01*
X-15555659Y600000D01*
X-15535063Y364592D01*
X-15473903Y136337D01*
X-15374035Y-77830D01*
X-15238495Y-271401D01*
X-15071401Y-438495D01*
X-14877830Y-574035D01*
X-14663663Y-673903D01*
X-14435408Y-735063D01*
X-14200000Y-755659D01*
X-13964592Y-735063D01*
X-13964592Y-735062D01*
X-13736337Y-673903D01*
X-13522170Y-574035D01*
X-13328599Y-438495D01*
X-13161505Y-271401D01*
X-13025965Y-77830D01*
X-12926097Y136337D01*
X-12864936Y364592D01*
X-12844340Y600000D01*
X-10955659Y600000D01*
X-10935063Y364592D01*
X-10873903Y136337D01*
X-10774035Y-77830D01*
X-10638495Y-271401D01*
X-10471401Y-438495D01*
X-10277830Y-574035D01*
X-10063663Y-673903D01*
X-9835408Y-735063D01*
X-9600000Y-755659D01*
X-9364592Y-735063D01*
X-9364592Y-735062D01*
X-9136337Y-673903D01*
X-8922170Y-574035D01*
X-8728599Y-438495D01*
X-8561505Y-271401D01*
X-8425965Y-77830D01*
X-8326097Y136337D01*
X-8264936Y364592D01*
X-8244340Y600000D01*
X-8264936Y835407D01*
X-8326097Y1063663D01*
X-8425965Y1277829D01*
X-8561505Y1471401D01*
X-8683430Y1593326D01*
X-8716915Y1654649D01*
X-8711931Y1724341D01*
X-8670059Y1780274D01*
X-8639083Y1797189D01*
X-8507669Y1846204D01*
X-8392454Y1932454D01*
X-8306204Y2047668D01*
X-8255909Y2182516D01*
X-8249854Y2238833D01*
X-8249853Y2238835D01*
X-8249500Y2242127D01*
X-8249500Y3107492D01*
X-8249500Y4034560D01*
X-8249500Y4034578D01*
X-8249501Y4037872D01*
X-8255909Y4097483D01*
X-8270862Y4137573D01*
X-8306204Y4232330D01*
X-8306204Y4232331D01*
X-8392454Y4347546D01*
X-8507669Y4433796D01*
X-8642517Y4484091D01*
X-8702127Y4490500D01*
X-10497872Y4490499D01*
X-10557483Y4484091D01*
X-10692331Y4433796D01*
X-10807546Y4347546D01*
X-10893796Y4232331D01*
X-10944091Y4097483D01*
X-10950500Y4037873D01*
X-10950499Y2242128D01*
X-10944091Y2182517D01*
X-10893796Y2047669D01*
X-10807546Y1932454D01*
X-10692331Y1846204D01*
X-10630898Y1823291D01*
X-10560916Y1797189D01*
X-10504983Y1755317D01*
X-10480566Y1689853D01*
X-10495418Y1621580D01*
X-10516563Y1593332D01*
X-10638495Y1471401D01*
X-10774035Y1277829D01*
X-10873903Y1063663D01*
X-10935063Y835408D01*
X-10955659Y600000D01*
X-12844340Y600000D01*
X-12864936Y835407D01*
X-12926097Y1063663D01*
X-13025965Y1277829D01*
X-13161505Y1471401D01*
X-13283430Y1593326D01*
X-13316915Y1654649D01*
X-13311931Y1724341D01*
X-13270059Y1780274D01*
X-13239083Y1797189D01*
X-13107669Y1846204D01*
X-12992454Y1932454D01*
X-12906204Y2047668D01*
X-12855909Y2182516D01*
X-12849854Y2238833D01*
X-12849853Y2238835D01*
X-12849500Y2242127D01*
X-12849500Y3107492D01*
X-12849500Y4034560D01*
X-12849500Y4034578D01*
X-12849501Y4037872D01*
X-12855909Y4097483D01*
X-12870862Y4137573D01*
X-12906204Y4232330D01*
X-12906204Y4232331D01*
X-12992454Y4347546D01*
X-13107669Y4433796D01*
X-13242517Y4484091D01*
X-13302127Y4490500D01*
X-15097872Y4490499D01*
X-15157483Y4484091D01*
X-15292331Y4433796D01*
X-15407546Y4347546D01*
X-15493796Y4232331D01*
X-15544091Y4097483D01*
X-15550500Y4037873D01*
X-15550499Y2242128D01*
X-15544091Y2182517D01*
X-15493796Y2047669D01*
X-15407546Y1932454D01*
X-15292331Y1846204D01*
X-15230898Y1823291D01*
X-15160916Y1797189D01*
X-15104983Y1755317D01*
X-15080566Y1689853D01*
X-15095418Y1621580D01*
X-15116563Y1593332D01*
X-15238495Y1471401D01*
X-15374035Y1277829D01*
X-15473903Y1063663D01*
X-15535063Y835408D01*
X-15555659Y600000D01*
X-37493184Y600000D01*
X-37482183Y1208075D01*
X-37482074Y1211485D01*
X-37459142Y1713984D01*
X-37423101Y2426806D01*
X-37422879Y2430238D01*
X-37383888Y2927456D01*
X-37324409Y3642918D01*
X-37324073Y3646369D01*
X-37269367Y4137573D01*
X-37186209Y4855174D01*
X-37185757Y4858642D01*
X-37115750Y5342901D01*
X-37008649Y6062278D01*
X-37008081Y6065757D01*
X-36923318Y6541768D01*
X-36791894Y7263087D01*
X-36791207Y7266573D01*
X-36692336Y7733013D01*
X-36536212Y8456106D01*
X-36535406Y8459596D01*
X-36423059Y8915654D01*
X-36241842Y9640227D01*
X-36240915Y9643716D01*
X-36115972Y10087924D01*
X-35909116Y10814118D01*
X-35908068Y10817602D01*
X-35771545Y11248478D01*
X-35538363Y11976610D01*
X-35537193Y11980084D01*
X-35390400Y12395730D01*
X-35130006Y13126381D01*
X-35128714Y13129842D01*
X-34973170Y13528326D01*
X-34684443Y14262304D01*
X-34683028Y14265748D01*
X-34520707Y14644588D01*
X-34202163Y15383132D01*
X-34200625Y15386553D01*
X-34148802Y15497363D01*
X-32351636Y15497363D01*
X-32332027Y15035782D01*
X-32331581Y15030537D01*
X-32272897Y14572261D01*
X-32272010Y14567088D01*
X-32174675Y14115452D01*
X-32173346Y14110348D01*
X-32038057Y13668583D01*
X-32036311Y13663642D01*
X-31864047Y13234946D01*
X-31861878Y13230149D01*
X-31653880Y12817608D01*
X-31651318Y12813021D01*
X-31409080Y12419602D01*
X-31406132Y12415241D01*
X-31131411Y12043793D01*
X-31128101Y12039694D01*
X-30909277Y11791062D01*
X-28785368Y13914971D01*
X-28776880Y13903289D01*
X-28561539Y13673975D01*
X-28428948Y13564286D01*
X-30556222Y11437012D01*
X-30485685Y11369408D01*
X-30481713Y11365913D01*
X-30122285Y11075695D01*
X-30118024Y11072544D01*
X-29735253Y10813835D01*
X-29730789Y10811087D01*
X-29327449Y10585767D01*
X-29322730Y10583388D01*
X-28901747Y10393092D01*
X-28896867Y10391131D01*
X-28461246Y10237216D01*
X-28456219Y10235676D01*
X-28009118Y10119261D01*
X-28003967Y10118151D01*
X-27548606Y10040072D01*
X-27543398Y10039405D01*
X-27083049Y10000223D01*
X-27077794Y10000000D01*
X-26615782Y10000000D01*
X-26610526Y10000223D01*
X-26150177Y10039405D01*
X-26144969Y10040072D01*
X-25689608Y10118151D01*
X-25684457Y10119261D01*
X-25237356Y10235676D01*
X-25232329Y10237216D01*
X-24796708Y10391131D01*
X-24791828Y10393092D01*
X-24370845Y10583388D01*
X-24366126Y10585767D01*
X-23962786Y10811087D01*
X-23958322Y10813835D01*
X-23575551Y11072544D01*
X-23571290Y11075695D01*
X-23211849Y11365923D01*
X-23207902Y11369397D01*
X-23137353Y11437011D01*
X-23137353Y11437012D01*
X-25264627Y13564286D01*
X-25132037Y13673975D01*
X-24916696Y13903289D01*
X-24908207Y13914972D01*
X-22784297Y11791062D01*
X-22565464Y12039704D01*
X-22562171Y12043783D01*
X-22287443Y12415241D01*
X-22284495Y12419602D01*
X-22042257Y12813021D01*
X-22039695Y12817608D01*
X-21831697Y13230149D01*
X-21829528Y13234946D01*
X-21657264Y13663642D01*
X-21655518Y13668583D01*
X-21520229Y14110348D01*
X-21518900Y14115452D01*
X-21421565Y14567088D01*
X-21420678Y14572261D01*
X-21361994Y15030537D01*
X-21361548Y15035782D01*
X-21341940Y15497363D01*
X21341940Y15497363D01*
X21361548Y15035782D01*
X21361994Y15030537D01*
X21420678Y14572261D01*
X21421565Y14567088D01*
X21518900Y14115452D01*
X21520229Y14110348D01*
X21655518Y13668583D01*
X21657264Y13663642D01*
X21829528Y13234946D01*
X21831697Y13230149D01*
X22039695Y12817608D01*
X22042257Y12813021D01*
X22284495Y12419602D01*
X22287443Y12415241D01*
X22562171Y12043783D01*
X22565464Y12039704D01*
X22784297Y11791062D01*
X24908207Y13914972D01*
X24916696Y13903289D01*
X25132037Y13673975D01*
X25264627Y13564286D01*
X23137353Y11437012D01*
X23137353Y11437011D01*
X23207902Y11369397D01*
X23211849Y11365923D01*
X23571290Y11075695D01*
X23575551Y11072544D01*
X23958322Y10813835D01*
X23962786Y10811087D01*
X24366126Y10585767D01*
X24370845Y10583388D01*
X24791828Y10393092D01*
X24796708Y10391131D01*
X25232329Y10237216D01*
X25237356Y10235676D01*
X25684457Y10119261D01*
X25689608Y10118151D01*
X26144969Y10040072D01*
X26150177Y10039405D01*
X26610526Y10000223D01*
X26615782Y10000000D01*
X27077794Y10000000D01*
X27083049Y10000223D01*
X27543398Y10039405D01*
X27548606Y10040072D01*
X28003967Y10118151D01*
X28009118Y10119261D01*
X28456219Y10235676D01*
X28461246Y10237216D01*
X28896867Y10391131D01*
X28901747Y10393092D01*
X29322730Y10583388D01*
X29327449Y10585767D01*
X29730789Y10811087D01*
X29735253Y10813835D01*
X30118024Y11072544D01*
X30122285Y11075695D01*
X30481713Y11365913D01*
X30485685Y11369408D01*
X30556222Y11437012D01*
X28428948Y13564286D01*
X28561539Y13673975D01*
X28776880Y13903289D01*
X28785368Y13914971D01*
X30909277Y11791062D01*
X31128101Y12039694D01*
X31131411Y12043793D01*
X31406132Y12415241D01*
X31409080Y12419602D01*
X31651318Y12813021D01*
X31653880Y12817608D01*
X31861878Y13230149D01*
X31864047Y13234946D01*
X32036311Y13663642D01*
X32038057Y13668583D01*
X32173346Y14110348D01*
X32174675Y14115452D01*
X32272010Y14567088D01*
X32272897Y14572261D01*
X32331581Y15030537D01*
X32332027Y15035782D01*
X32351636Y15497363D01*
X32351636Y15502636D01*
X32332027Y15964217D01*
X32331581Y15969462D01*
X32272897Y16427738D01*
X32272010Y16432911D01*
X32174675Y16884547D01*
X32173346Y16889651D01*
X32038057Y17331416D01*
X32036311Y17336357D01*
X31864047Y17765053D01*
X31861878Y17769850D01*
X31653880Y18182391D01*
X31651318Y18186978D01*
X31409080Y18580397D01*
X31406132Y18584758D01*
X31131411Y18956206D01*
X31128101Y18960305D01*
X30909278Y19208937D01*
X28785368Y17085027D01*
X28776880Y17096711D01*
X28561539Y17326025D01*
X28428948Y17435713D01*
X30556222Y19562987D01*
X30485672Y19630603D01*
X30481727Y19634075D01*
X30122285Y19924304D01*
X30118024Y19927455D01*
X29735253Y20186164D01*
X29730789Y20188912D01*
X29327449Y20414232D01*
X29322730Y20416611D01*
X28901747Y20606907D01*
X28896867Y20608868D01*
X28461246Y20762783D01*
X28456219Y20764323D01*
X28009118Y20880738D01*
X28003967Y20881848D01*
X27548606Y20959927D01*
X27543398Y20960594D01*
X27083049Y20999776D01*
X27077794Y21000000D01*
X26615782Y21000000D01*
X26610526Y20999776D01*
X26150177Y20960594D01*
X26144969Y20959927D01*
X25689608Y20881848D01*
X25684457Y20880738D01*
X25237356Y20764323D01*
X25232329Y20762783D01*
X24796708Y20608868D01*
X24791828Y20606907D01*
X24370845Y20416611D01*
X24366126Y20414232D01*
X23962786Y20188912D01*
X23958322Y20186164D01*
X23575551Y19927455D01*
X23571290Y19924304D01*
X23211862Y19634086D01*
X23207890Y19630591D01*
X23137352Y19562987D01*
X25264627Y17435713D01*
X25132037Y17326025D01*
X24916696Y17096711D01*
X24908207Y17085027D01*
X22784297Y19208936D01*
X22565474Y18960305D01*
X22562164Y18956206D01*
X22287443Y18584758D01*
X22284495Y18580397D01*
X22042257Y18186978D01*
X22039695Y18182391D01*
X21831697Y17769850D01*
X21829528Y17765053D01*
X21657264Y17336357D01*
X21655518Y17331416D01*
X21520229Y16889651D01*
X21518900Y16884547D01*
X21421565Y16432911D01*
X21420678Y16427738D01*
X21361994Y15969462D01*
X21361548Y15964217D01*
X21341940Y15502636D01*
X21341940Y15497363D01*
X-21341940Y15497363D01*
X-21341940Y15502636D01*
X-21361548Y15964217D01*
X-21361994Y15969462D01*
X-21420678Y16427738D01*
X-21421565Y16432911D01*
X-21518900Y16884547D01*
X-21520229Y16889651D01*
X-21655518Y17331416D01*
X-21657264Y17336357D01*
X-21829528Y17765053D01*
X-21831697Y17769850D01*
X-22039695Y18182391D01*
X-22042257Y18186978D01*
X-22284495Y18580397D01*
X-22287443Y18584758D01*
X-22562164Y18956206D01*
X-22565474Y18960305D01*
X-22784297Y19208936D01*
X-24908207Y17085027D01*
X-24916696Y17096711D01*
X-25132037Y17326025D01*
X-25264627Y17435713D01*
X-23137352Y19562987D01*
X-23207890Y19630591D01*
X-23211862Y19634086D01*
X-23571290Y19924304D01*
X-23575551Y19927455D01*
X-23958322Y20186164D01*
X-23962786Y20188912D01*
X-24366126Y20414232D01*
X-24370845Y20416611D01*
X-24791828Y20606907D01*
X-24796708Y20608868D01*
X-25232329Y20762783D01*
X-25237356Y20764323D01*
X-25684457Y20880738D01*
X-25689608Y20881848D01*
X-26144969Y20959927D01*
X-26150177Y20960594D01*
X-26610526Y20999776D01*
X-26615782Y21000000D01*
X-27077794Y21000000D01*
X-27083049Y20999776D01*
X-27543398Y20960594D01*
X-27548606Y20959927D01*
X-28003967Y20881848D01*
X-28009118Y20880738D01*
X-28456219Y20764323D01*
X-28461246Y20762783D01*
X-28896867Y20608868D01*
X-28901747Y20606907D01*
X-29322730Y20416611D01*
X-29327449Y20414232D01*
X-29730789Y20188912D01*
X-29735253Y20186164D01*
X-30118024Y19927455D01*
X-30122285Y19924304D01*
X-30481727Y19634075D01*
X-30485672Y19630603D01*
X-30556222Y19562987D01*
X-28428948Y17435713D01*
X-28561539Y17326025D01*
X-28776880Y17096711D01*
X-28785368Y17085027D01*
X-30909278Y19208937D01*
X-31128101Y18960305D01*
X-31131411Y18956206D01*
X-31406132Y18584758D01*
X-31409080Y18580397D01*
X-31651318Y18186978D01*
X-31653880Y18182391D01*
X-31861878Y17769850D01*
X-31864047Y17765053D01*
X-32036311Y17336357D01*
X-32038057Y17331416D01*
X-32173346Y16889651D01*
X-32174675Y16884547D01*
X-32272010Y16432911D01*
X-32272897Y16427738D01*
X-32331581Y15969462D01*
X-32332027Y15964217D01*
X-32351636Y15502636D01*
X-32351636Y15497363D01*
X-34148802Y15497363D01*
X-34034009Y15742815D01*
X-33683692Y16487647D01*
X-33682031Y16491043D01*
X-33514405Y16820943D01*
X-33129547Y17574742D01*
X-33127763Y17578107D01*
X-32963717Y17876426D01*
X-32540331Y18643236D01*
X-32538425Y18646565D01*
X-32384388Y18906226D01*
X-31916695Y19691950D01*
X-31914667Y19695240D01*
X-31780381Y19905634D01*
X-31259232Y20719888D01*
X-31257082Y20723134D01*
X-31159240Y20865924D01*
X-30568698Y21725861D01*
X-30566428Y21729058D01*
X-30534650Y21772334D01*
X-29847469Y22706575D01*
X-29845034Y22709775D01*
X-29095621Y23662307D01*
X-29093084Y23665426D01*
X-28313176Y24593171D01*
X-28310539Y24596206D01*
X-27502354Y25496627D01*
X-27499287Y25499867D01*
X-27499396Y25502532D01*
X-27499500Y25507599D01*
X-27499500Y30997363D01*
X-5504848Y30997363D01*
X-5485239Y30535782D01*
X-5484793Y30530537D01*
X-5426109Y30072261D01*
X-5425222Y30067088D01*
X-5327887Y29615452D01*
X-5326558Y29610348D01*
X-5191269Y29168583D01*
X-5189523Y29163642D01*
X-5017259Y28734946D01*
X-5015090Y28730149D01*
X-4807092Y28317608D01*
X-4804530Y28313021D01*
X-4562292Y27919602D01*
X-4559344Y27915241D01*
X-4284623Y27543793D01*
X-4281313Y27539694D01*
X-4062489Y27291062D01*
X-1938579Y29414971D01*
X-1930092Y29403289D01*
X-1714751Y29173975D01*
X-1582160Y29064286D01*
X-3709434Y26937012D01*
X-3638897Y26869408D01*
X-3634925Y26865913D01*
X-3275497Y26575695D01*
X-3271236Y26572544D01*
X-2888465Y26313835D01*
X-2884001Y26311087D01*
X-2480661Y26085767D01*
X-2475942Y26083388D01*
X-2054959Y25893092D01*
X-2050079Y25891131D01*
X-1614458Y25737216D01*
X-1609431Y25735676D01*
X-1162330Y25619261D01*
X-1157179Y25618151D01*
X-701818Y25540072D01*
X-696610Y25539405D01*
X-236261Y25500223D01*
X-231006Y25500000D01*
X231006Y25500000D01*
X236261Y25500223D01*
X696610Y25539405D01*
X701818Y25540072D01*
X1157179Y25618151D01*
X1162330Y25619261D01*
X1609431Y25735676D01*
X1614458Y25737216D01*
X2050079Y25891131D01*
X2054959Y25893092D01*
X2475942Y26083388D01*
X2480661Y26085767D01*
X2884001Y26311087D01*
X2888465Y26313835D01*
X3271236Y26572544D01*
X3275497Y26575695D01*
X3634925Y26865913D01*
X3638897Y26869408D01*
X3709434Y26937012D01*
X1582160Y29064286D01*
X1714751Y29173975D01*
X1930092Y29403289D01*
X1938579Y29414971D01*
X4062489Y27291062D01*
X4281313Y27539694D01*
X4284623Y27543793D01*
X4559344Y27915241D01*
X4562292Y27919602D01*
X4804530Y28313021D01*
X4807092Y28317608D01*
X5015090Y28730149D01*
X5017259Y28734946D01*
X5189523Y29163642D01*
X5191269Y29168583D01*
X5326558Y29610348D01*
X5327887Y29615452D01*
X5425222Y30067088D01*
X5426109Y30072261D01*
X5484793Y30530537D01*
X5485239Y30535782D01*
X5504848Y30997363D01*
X5504848Y31002636D01*
X5485239Y31464217D01*
X5484793Y31469462D01*
X5426109Y31927738D01*
X5425222Y31932911D01*
X5327887Y32384547D01*
X5326558Y32389651D01*
X5191269Y32831416D01*
X5189523Y32836357D01*
X5017259Y33265053D01*
X5015090Y33269850D01*
X4807092Y33682391D01*
X4804530Y33686978D01*
X4562292Y34080397D01*
X4559344Y34084758D01*
X4284623Y34456206D01*
X4281313Y34460305D01*
X4062490Y34708937D01*
X1938580Y32585027D01*
X1930092Y32596711D01*
X1714751Y32826025D01*
X1582160Y32935713D01*
X3709434Y35062987D01*
X3638884Y35130603D01*
X3634939Y35134075D01*
X3275497Y35424304D01*
X3271236Y35427455D01*
X2888465Y35686164D01*
X2884001Y35688912D01*
X2480661Y35914232D01*
X2475942Y35916611D01*
X2054959Y36106907D01*
X2050079Y36108868D01*
X1614458Y36262783D01*
X1609431Y36264323D01*
X1162330Y36380738D01*
X1157179Y36381848D01*
X701818Y36459927D01*
X696610Y36460594D01*
X236261Y36499776D01*
X231006Y36500000D01*
X-231006Y36500000D01*
X-236261Y36499776D01*
X-696610Y36460594D01*
X-701818Y36459927D01*
X-1157179Y36381848D01*
X-1162330Y36380738D01*
X-1609431Y36264323D01*
X-1614458Y36262783D01*
X-2050079Y36108868D01*
X-2054959Y36106907D01*
X-2475942Y35916611D01*
X-2480661Y35914232D01*
X-2884001Y35688912D01*
X-2888465Y35686164D01*
X-3271236Y35427455D01*
X-3275497Y35424304D01*
X-3634939Y35134075D01*
X-3638884Y35130603D01*
X-3709434Y35062987D01*
X-1582160Y32935713D01*
X-1714751Y32826025D01*
X-1930092Y32596711D01*
X-1938580Y32585027D01*
X-4062490Y34708937D01*
X-4281313Y34460305D01*
X-4284623Y34456206D01*
X-4559344Y34084758D01*
X-4562292Y34080397D01*
X-4804530Y33686978D01*
X-4807092Y33682391D01*
X-5015090Y33269850D01*
X-5017259Y33265053D01*
X-5189523Y32836357D01*
X-5191269Y32831416D01*
X-5326558Y32389651D01*
X-5327887Y32384547D01*
X-5425222Y31932911D01*
X-5426109Y31927738D01*
X-5484793Y31469462D01*
X-5485239Y31464217D01*
X-5504848Y31002636D01*
X-5504848Y30997363D01*
X-27499500Y30997363D01*
X-27499500Y55000000D01*
X-26525585Y55000000D01*
X-26505262Y54651073D01*
X-26444569Y54306864D01*
X-26344326Y53972029D01*
X-26205889Y53651096D01*
X-26031130Y53348404D01*
X-25822412Y53068047D01*
X-25582558Y52813817D01*
X-25579800Y52811503D01*
X-25579795Y52811498D01*
X-25369987Y52635449D01*
X-25314811Y52589151D01*
X-25311793Y52587166D01*
X-25025812Y52399072D01*
X-25025804Y52399067D01*
X-25022793Y52397087D01*
X-25019563Y52395465D01*
X-24713688Y52241848D01*
X-24713678Y52241843D01*
X-24710451Y52240223D01*
X-24648575Y52217702D01*
X-24385400Y52121914D01*
X-24385392Y52121911D01*
X-24382011Y52120681D01*
X-24378512Y52119851D01*
X-24378503Y52119849D01*
X-24045420Y52040907D01*
X-24045404Y52040904D01*
X-24041914Y52040077D01*
X-24038349Y52039660D01*
X-24038336Y52039658D01*
X-23698329Y51999917D01*
X-23698324Y51999916D01*
X-23694759Y51999500D01*
X-23691161Y51999500D01*
X-23348839Y51999500D01*
X-23345241Y51999500D01*
X-23341676Y51999916D01*
X-23341670Y51999917D01*
X-23001663Y52039658D01*
X-23001647Y52039660D01*
X-22998086Y52040077D01*
X-22994598Y52040903D01*
X-22994579Y52040907D01*
X-22661496Y52119849D01*
X-22661482Y52119852D01*
X-22657989Y52120681D01*
X-22654612Y52121910D01*
X-22654599Y52121914D01*
X-22332950Y52238985D01*
X-22332947Y52238985D01*
X-22329549Y52240223D01*
X-22326327Y52241840D01*
X-22326311Y52241848D01*
X-22020436Y52395465D01*
X-22020431Y52395467D01*
X-22017207Y52397087D01*
X-22014203Y52399062D01*
X-22014187Y52399072D01*
X-21728206Y52587166D01*
X-21728198Y52587171D01*
X-21725189Y52589151D01*
X-21722438Y52591458D01*
X-21722429Y52591466D01*
X-21460204Y52811498D01*
X-21460190Y52811510D01*
X-21457442Y52813817D01*
X-21454967Y52816439D01*
X-21454962Y52816445D01*
X-21220062Y53065424D01*
X-21220056Y53065430D01*
X-21217588Y53068047D01*
X-21215448Y53070921D01*
X-21215435Y53070937D01*
X-21011029Y53345503D01*
X-21011023Y53345511D01*
X-21008870Y53348404D01*
X-21007071Y53351518D01*
X-21007061Y53351535D01*
X-20875157Y53580000D01*
X-18025301Y53580000D01*
X-18011748Y53416456D01*
X-18006134Y53348695D01*
X-17949157Y53123700D01*
X-17855924Y52911151D01*
X-17728979Y52716847D01*
X-17571784Y52546087D01*
X-17388626Y52403530D01*
X-17184503Y52293064D01*
X-17184499Y52293062D01*
X-17184498Y52293062D01*
X-16964984Y52217702D01*
X-16793282Y52189050D01*
X-16736049Y52179500D01*
X-16736048Y52179500D01*
X-16503952Y52179500D01*
X-16503951Y52179500D01*
X-16458164Y52187140D01*
X-16275015Y52217702D01*
X-16055501Y52293062D01*
X-15851372Y52403531D01*
X-15668215Y52546087D01*
X-15511020Y52716848D01*
X-15384077Y52911148D01*
X-15348556Y52992129D01*
X-15303599Y53045614D01*
X-15236863Y53066304D01*
X-15169536Y53047629D01*
X-15122992Y52995518D01*
X-15121453Y52992150D01*
X-15085924Y52911151D01*
X-14958979Y52716847D01*
X-14801784Y52546087D01*
X-14618626Y52403530D01*
X-14414503Y52293064D01*
X-14414499Y52293062D01*
X-14414498Y52293062D01*
X-14194984Y52217702D01*
X-14023281Y52189050D01*
X-13966049Y52179500D01*
X-13966048Y52179500D01*
X-13733952Y52179500D01*
X-13733951Y52179500D01*
X-13688164Y52187140D01*
X-13505015Y52217702D01*
X-13285501Y52293062D01*
X-13081372Y52403531D01*
X-12898215Y52546087D01*
X-12741020Y52716848D01*
X-12614077Y52911148D01*
X-12578556Y52992129D01*
X-12533599Y53045614D01*
X-12466863Y53066304D01*
X-12399536Y53047629D01*
X-12352992Y52995518D01*
X-12351453Y52992150D01*
X-12315924Y52911151D01*
X-12188979Y52716847D01*
X-12031784Y52546087D01*
X-11848626Y52403530D01*
X-11644503Y52293064D01*
X-11644499Y52293062D01*
X-11644498Y52293062D01*
X-11424984Y52217702D01*
X-11253282Y52189050D01*
X-11196049Y52179500D01*
X-11196048Y52179500D01*
X-10963952Y52179500D01*
X-10963951Y52179500D01*
X-10918164Y52187140D01*
X-10735015Y52217702D01*
X-10515501Y52293062D01*
X-10311372Y52403531D01*
X-10128215Y52546087D01*
X-9971020Y52716848D01*
X-9844077Y52911148D01*
X-9808556Y52992129D01*
X-9763599Y53045614D01*
X-9696863Y53066304D01*
X-9629536Y53047629D01*
X-9582992Y52995518D01*
X-9581453Y52992150D01*
X-9545924Y52911151D01*
X-9418979Y52716847D01*
X-9261784Y52546087D01*
X-9078626Y52403530D01*
X-8874503Y52293064D01*
X-8874499Y52293062D01*
X-8874498Y52293062D01*
X-8654984Y52217702D01*
X-8483281Y52189050D01*
X-8426049Y52179500D01*
X-8426048Y52179500D01*
X-8193952Y52179500D01*
X-8193951Y52179500D01*
X-8148164Y52187140D01*
X-7965015Y52217702D01*
X-7745501Y52293062D01*
X-7541372Y52403531D01*
X-7358215Y52546087D01*
X-7201020Y52716848D01*
X-7074077Y52911148D01*
X-7038556Y52992129D01*
X-6993599Y53045614D01*
X-6926863Y53066304D01*
X-6859536Y53047629D01*
X-6812992Y52995518D01*
X-6811453Y52992150D01*
X-6775924Y52911151D01*
X-6648979Y52716847D01*
X-6491784Y52546087D01*
X-6308626Y52403530D01*
X-6104503Y52293064D01*
X-6104499Y52293062D01*
X-6104498Y52293062D01*
X-5884984Y52217702D01*
X-5713282Y52189050D01*
X-5656049Y52179500D01*
X-5656048Y52179500D01*
X-5423952Y52179500D01*
X-5423951Y52179500D01*
X-5378164Y52187140D01*
X-5195015Y52217702D01*
X-4975501Y52293062D01*
X-4771372Y52403531D01*
X-4588215Y52546087D01*
X-4431020Y52716848D01*
X-4304077Y52911148D01*
X-4268556Y52992129D01*
X-4223599Y53045614D01*
X-4156863Y53066304D01*
X-4089536Y53047629D01*
X-4042992Y52995518D01*
X-4041453Y52992150D01*
X-4005924Y52911151D01*
X-3878979Y52716847D01*
X-3721784Y52546087D01*
X-3538626Y52403530D01*
X-3334503Y52293064D01*
X-3334499Y52293062D01*
X-3334498Y52293062D01*
X-3114984Y52217702D01*
X-2943281Y52189050D01*
X-2886049Y52179500D01*
X-2886048Y52179500D01*
X-2653952Y52179500D01*
X-2653951Y52179500D01*
X-2608164Y52187140D01*
X-2425015Y52217702D01*
X-2205501Y52293062D01*
X-2001372Y52403531D01*
X-1818215Y52546087D01*
X-1661020Y52716848D01*
X-1534077Y52911148D01*
X-1498556Y52992129D01*
X-1453599Y53045614D01*
X-1386863Y53066304D01*
X-1319536Y53047629D01*
X-1272992Y52995518D01*
X-1271453Y52992150D01*
X-1235924Y52911151D01*
X-1108979Y52716847D01*
X-951784Y52546087D01*
X-768626Y52403530D01*
X-564503Y52293064D01*
X-564499Y52293062D01*
X-564498Y52293062D01*
X-344984Y52217702D01*
X-173281Y52189050D01*
X-116049Y52179500D01*
X-116048Y52179500D01*
X116048Y52179500D01*
X116049Y52179500D01*
X173281Y52189050D01*
X344984Y52217702D01*
X564498Y52293062D01*
X564499Y52293062D01*
X564503Y52293064D01*
X768626Y52403530D01*
X951784Y52546087D01*
X1108979Y52716847D01*
X1235924Y52911151D01*
X1271444Y52992129D01*
X1316401Y53045614D01*
X1383137Y53066304D01*
X1450464Y53047629D01*
X1497008Y52995518D01*
X1498556Y52992129D01*
X1534077Y52911148D01*
X1661020Y52716848D01*
X1818215Y52546087D01*
X2001372Y52403531D01*
X2205501Y52293062D01*
X2425015Y52217702D01*
X2608164Y52187140D01*
X2653951Y52179500D01*
X2653952Y52179500D01*
X2886048Y52179500D01*
X2886049Y52179500D01*
X2943281Y52189050D01*
X3114984Y52217702D01*
X3334498Y52293062D01*
X3334499Y52293062D01*
X3334503Y52293064D01*
X3538626Y52403530D01*
X3721784Y52546087D01*
X3878979Y52716847D01*
X4005924Y52911151D01*
X4041444Y52992129D01*
X4086401Y53045614D01*
X4153137Y53066304D01*
X4220464Y53047629D01*
X4267008Y52995518D01*
X4268556Y52992129D01*
X4304077Y52911148D01*
X4431020Y52716848D01*
X4588215Y52546087D01*
X4771372Y52403531D01*
X4975501Y52293062D01*
X5195015Y52217702D01*
X5378164Y52187140D01*
X5423951Y52179500D01*
X5423952Y52179500D01*
X5656048Y52179500D01*
X5656049Y52179500D01*
X5713282Y52189050D01*
X5884984Y52217702D01*
X6104498Y52293062D01*
X6104499Y52293062D01*
X6104503Y52293064D01*
X6308626Y52403530D01*
X6491784Y52546087D01*
X6648979Y52716847D01*
X6775924Y52911151D01*
X6811444Y52992129D01*
X6856401Y53045614D01*
X6923137Y53066304D01*
X6990464Y53047629D01*
X7037008Y52995518D01*
X7038556Y52992129D01*
X7074077Y52911148D01*
X7201020Y52716848D01*
X7358215Y52546087D01*
X7541372Y52403531D01*
X7745501Y52293062D01*
X7965015Y52217702D01*
X8148164Y52187140D01*
X8193951Y52179500D01*
X8193952Y52179500D01*
X8426048Y52179500D01*
X8426049Y52179500D01*
X8483281Y52189050D01*
X8654984Y52217702D01*
X8874498Y52293062D01*
X8874499Y52293062D01*
X8874503Y52293064D01*
X9078626Y52403530D01*
X9261784Y52546087D01*
X9418979Y52716847D01*
X9545924Y52911151D01*
X9581444Y52992129D01*
X9626401Y53045614D01*
X9693137Y53066304D01*
X9760464Y53047629D01*
X9807008Y52995518D01*
X9808556Y52992129D01*
X9844077Y52911148D01*
X9971020Y52716848D01*
X10128215Y52546087D01*
X10311372Y52403531D01*
X10515501Y52293062D01*
X10735015Y52217702D01*
X10918164Y52187140D01*
X10963951Y52179500D01*
X10963952Y52179500D01*
X11196048Y52179500D01*
X11196049Y52179500D01*
X11253282Y52189050D01*
X11424984Y52217702D01*
X11644498Y52293062D01*
X11644499Y52293062D01*
X11644503Y52293064D01*
X11848626Y52403530D01*
X12031784Y52546087D01*
X12188979Y52716847D01*
X12315924Y52911151D01*
X12351444Y52992129D01*
X12396401Y53045614D01*
X12463137Y53066304D01*
X12530464Y53047629D01*
X12577008Y52995518D01*
X12578556Y52992129D01*
X12614077Y52911148D01*
X12741020Y52716848D01*
X12898215Y52546087D01*
X13081372Y52403531D01*
X13285501Y52293062D01*
X13505015Y52217702D01*
X13688164Y52187140D01*
X13733951Y52179500D01*
X13733952Y52179500D01*
X13966048Y52179500D01*
X13966049Y52179500D01*
X14023281Y52189050D01*
X14194984Y52217702D01*
X14414498Y52293062D01*
X14414499Y52293062D01*
X14414503Y52293064D01*
X14618626Y52403530D01*
X14801784Y52546087D01*
X14958979Y52716847D01*
X14991691Y52766917D01*
X15044836Y52812275D01*
X15114068Y52821699D01*
X15177404Y52792198D01*
X15214736Y52733138D01*
X15219500Y52699099D01*
X15219500Y52635440D01*
X15219500Y52635421D01*
X15219501Y52632128D01*
X15219853Y52628848D01*
X15219854Y52628840D01*
X15225909Y52572515D01*
X15276204Y52437669D01*
X15362454Y52322454D01*
X15477668Y52236204D01*
X15612516Y52185909D01*
X15668833Y52179854D01*
X15668835Y52179853D01*
X15672127Y52179500D01*
X15675448Y52179500D01*
X15675449Y52179500D01*
X17564560Y52179500D01*
X17564578Y52179500D01*
X17567872Y52179501D01*
X17571152Y52179853D01*
X17571159Y52179854D01*
X17627484Y52185909D01*
X17694907Y52211056D01*
X17762331Y52236204D01*
X17877546Y52322454D01*
X17963796Y52437669D01*
X18014091Y52572517D01*
X18020500Y52632127D01*
X18020499Y54527872D01*
X18014091Y54587483D01*
X17963796Y54722331D01*
X17877546Y54837546D01*
X17762331Y54923796D01*
X17627483Y54974091D01*
X17567873Y54980500D01*
X16007251Y54980499D01*
X15940840Y55000000D01*
X20514415Y55000000D01*
X20514625Y54996394D01*
X20534527Y54654687D01*
X20534528Y54654678D01*
X20534738Y54651073D01*
X20535364Y54647520D01*
X20535366Y54647507D01*
X20594803Y54310421D01*
X20594806Y54310407D01*
X20595431Y54306864D01*
X20596462Y54303418D01*
X20596465Y54303408D01*
X20694642Y53975474D01*
X20694645Y53975464D01*
X20695674Y53972029D01*
X20697097Y53968728D01*
X20697099Y53968725D01*
X20832682Y53654406D01*
X20832690Y53654389D01*
X20834111Y53651096D01*
X20835909Y53647980D01*
X20835915Y53647970D01*
X21007061Y53351535D01*
X21007071Y53351518D01*
X21008870Y53348404D01*
X21011023Y53345511D01*
X21011029Y53345503D01*
X21215435Y53070937D01*
X21215448Y53070921D01*
X21217588Y53068047D01*
X21220056Y53065430D01*
X21220062Y53065424D01*
X21454962Y52816445D01*
X21454967Y52816439D01*
X21457442Y52813817D01*
X21460190Y52811510D01*
X21460204Y52811498D01*
X21722429Y52591466D01*
X21722438Y52591458D01*
X21725189Y52589151D01*
X21728198Y52587171D01*
X21728206Y52587166D01*
X22014187Y52399072D01*
X22014203Y52399062D01*
X22017207Y52397087D01*
X22020431Y52395467D01*
X22020436Y52395465D01*
X22326311Y52241848D01*
X22326327Y52241840D01*
X22329549Y52240223D01*
X22332947Y52238985D01*
X22332950Y52238985D01*
X22654599Y52121914D01*
X22654612Y52121910D01*
X22657989Y52120681D01*
X22661482Y52119852D01*
X22661496Y52119849D01*
X22994579Y52040907D01*
X22994598Y52040903D01*
X22998086Y52040077D01*
X23001647Y52039660D01*
X23001663Y52039658D01*
X23341670Y51999917D01*
X23341676Y51999916D01*
X23345241Y51999500D01*
X23348839Y51999500D01*
X23691161Y51999500D01*
X23694759Y51999500D01*
X23698324Y51999916D01*
X23698329Y51999917D01*
X24038336Y52039658D01*
X24038349Y52039660D01*
X24041914Y52040077D01*
X24045404Y52040904D01*
X24045420Y52040907D01*
X24378503Y52119849D01*
X24378512Y52119851D01*
X24382011Y52120681D01*
X24385392Y52121911D01*
X24385400Y52121914D01*
X24648575Y52217702D01*
X24710451Y52240223D01*
X24713678Y52241843D01*
X24713688Y52241848D01*
X25019563Y52395465D01*
X25022793Y52397087D01*
X25025804Y52399067D01*
X25025812Y52399072D01*
X25311793Y52587166D01*
X25314811Y52589151D01*
X25369987Y52635449D01*
X25579795Y52811498D01*
X25579800Y52811503D01*
X25582558Y52813817D01*
X25822412Y53068047D01*
X26031130Y53348404D01*
X26205889Y53651096D01*
X26344326Y53972029D01*
X26444569Y54306864D01*
X26505262Y54651073D01*
X26525585Y55000000D01*
X26505262Y55348927D01*
X26444569Y55693136D01*
X26344326Y56027971D01*
X26205889Y56348904D01*
X26031130Y56651596D01*
X25822412Y56931953D01*
X25582558Y57186183D01*
X25314811Y57410849D01*
X25022793Y57602913D01*
X24710451Y57759777D01*
X24382011Y57879319D01*
X24041914Y57959923D01*
X23694759Y58000500D01*
X23345241Y58000500D01*
X22998086Y57959923D01*
X22994581Y57959092D01*
X22994579Y57959092D01*
X22828037Y57919621D01*
X22657989Y57879319D01*
X22329549Y57759777D01*
X22017207Y57602913D01*
X22014190Y57600929D01*
X22014187Y57600927D01*
X21877465Y57511003D01*
X21725189Y57410849D01*
X21722429Y57408533D01*
X21573007Y57283153D01*
X21457442Y57186183D01*
X21217588Y56931953D01*
X21215441Y56929069D01*
X21215435Y56929062D01*
X21019229Y56665511D01*
X21008870Y56651596D01*
X21007067Y56648473D01*
X21007061Y56648464D01*
X20875158Y56420000D01*
X20834111Y56348904D01*
X20832687Y56345603D01*
X20832682Y56345593D01*
X20727609Y56102005D01*
X20695674Y56027971D01*
X20694643Y56024530D01*
X20694642Y56024525D01*
X20612799Y55751148D01*
X20595431Y55693136D01*
X20594805Y55689588D01*
X20594803Y55689578D01*
X20535366Y55352492D01*
X20535364Y55352481D01*
X20534738Y55348927D01*
X20514415Y55000000D01*
X15940840Y55000000D01*
X15940213Y55000184D01*
X15894458Y55052987D01*
X15884514Y55122146D01*
X15913539Y55185702D01*
X15948231Y55213551D01*
X16003626Y55243530D01*
X16186784Y55386087D01*
X16343979Y55556847D01*
X16470924Y55751151D01*
X16564157Y55963700D01*
X16621134Y56188695D01*
X16640300Y56420000D01*
X16621134Y56651305D01*
X16564157Y56876300D01*
X16470924Y57088849D01*
X16343979Y57283153D01*
X16186784Y57453913D01*
X16003626Y57596470D01*
X15799503Y57706936D01*
X15579981Y57782298D01*
X15351049Y57820500D01*
X15118951Y57820500D01*
X14890019Y57782298D01*
X14890017Y57782297D01*
X14890015Y57782297D01*
X14819681Y57758151D01*
X14670497Y57706936D01*
X14466374Y57596470D01*
X14283216Y57453913D01*
X14126021Y57283153D01*
X14060950Y57183554D01*
X13999076Y57088849D01*
X13963556Y57007871D01*
X13918600Y56954385D01*
X13851864Y56933695D01*
X13784536Y56952370D01*
X13737993Y57004480D01*
X13736444Y57007871D01*
X13700924Y57088849D01*
X13573979Y57283153D01*
X13416784Y57453913D01*
X13233626Y57596470D01*
X13029503Y57706936D01*
X12809981Y57782298D01*
X12581049Y57820500D01*
X12348951Y57820500D01*
X12120019Y57782298D01*
X12120017Y57782297D01*
X12120015Y57782297D01*
X12049681Y57758151D01*
X11900497Y57706936D01*
X11696374Y57596470D01*
X11513216Y57453913D01*
X11356021Y57283153D01*
X11290950Y57183554D01*
X11229076Y57088849D01*
X11193556Y57007871D01*
X11148600Y56954385D01*
X11081864Y56933695D01*
X11014536Y56952370D01*
X10967993Y57004480D01*
X10966444Y57007871D01*
X10930924Y57088849D01*
X10803979Y57283153D01*
X10646784Y57453913D01*
X10463626Y57596470D01*
X10259503Y57706936D01*
X10039981Y57782298D01*
X9811049Y57820500D01*
X9578951Y57820500D01*
X9350019Y57782298D01*
X9350017Y57782297D01*
X9350015Y57782297D01*
X9279681Y57758151D01*
X9130497Y57706936D01*
X8926374Y57596470D01*
X8743216Y57453913D01*
X8586021Y57283153D01*
X8520950Y57183554D01*
X8459076Y57088849D01*
X8423556Y57007871D01*
X8378600Y56954385D01*
X8311864Y56933695D01*
X8244536Y56952370D01*
X8197993Y57004480D01*
X8196444Y57007871D01*
X8160924Y57088849D01*
X8033979Y57283153D01*
X7876784Y57453913D01*
X7693626Y57596470D01*
X7489503Y57706936D01*
X7269981Y57782298D01*
X7041049Y57820500D01*
X6808951Y57820500D01*
X6580019Y57782298D01*
X6580017Y57782297D01*
X6580015Y57782297D01*
X6509681Y57758151D01*
X6360497Y57706936D01*
X6156374Y57596470D01*
X5973216Y57453913D01*
X5816021Y57283153D01*
X5750950Y57183554D01*
X5689076Y57088849D01*
X5653556Y57007871D01*
X5608600Y56954385D01*
X5541864Y56933695D01*
X5474536Y56952370D01*
X5427993Y57004480D01*
X5426444Y57007871D01*
X5390924Y57088849D01*
X5263979Y57283153D01*
X5106784Y57453913D01*
X4923626Y57596470D01*
X4719503Y57706936D01*
X4499981Y57782298D01*
X4271049Y57820500D01*
X4038951Y57820500D01*
X3810019Y57782298D01*
X3810017Y57782297D01*
X3810015Y57782297D01*
X3739681Y57758151D01*
X3590497Y57706936D01*
X3386374Y57596470D01*
X3203216Y57453913D01*
X3046021Y57283153D01*
X2980950Y57183554D01*
X2919076Y57088849D01*
X2883556Y57007871D01*
X2838600Y56954385D01*
X2771864Y56933695D01*
X2704536Y56952370D01*
X2657993Y57004480D01*
X2656444Y57007871D01*
X2620924Y57088849D01*
X2493979Y57283153D01*
X2336784Y57453913D01*
X2153626Y57596470D01*
X1949503Y57706936D01*
X1729981Y57782298D01*
X1501049Y57820500D01*
X1268951Y57820500D01*
X1040019Y57782298D01*
X1040017Y57782297D01*
X1040015Y57782297D01*
X969681Y57758151D01*
X820497Y57706936D01*
X616374Y57596470D01*
X433216Y57453913D01*
X276021Y57283153D01*
X210950Y57183554D01*
X149076Y57088849D01*
X113556Y57007871D01*
X68600Y56954385D01*
X1864Y56933695D01*
X-65464Y56952370D01*
X-112007Y57004480D01*
X-113556Y57007871D01*
X-149076Y57088849D01*
X-210950Y57183554D01*
X-276021Y57283153D01*
X-433216Y57453913D01*
X-616374Y57596470D01*
X-820497Y57706936D01*
X-969681Y57758151D01*
X-1040015Y57782297D01*
X-1040017Y57782297D01*
X-1040019Y57782298D01*
X-1268951Y57820500D01*
X-1501049Y57820500D01*
X-1729981Y57782298D01*
X-1949503Y57706936D01*
X-2153626Y57596470D01*
X-2336784Y57453913D01*
X-2493979Y57283153D01*
X-2620924Y57088849D01*
X-2656444Y57007871D01*
X-2701400Y56954385D01*
X-2768136Y56933695D01*
X-2835464Y56952370D01*
X-2882007Y57004480D01*
X-2883556Y57007871D01*
X-2919076Y57088849D01*
X-2980950Y57183554D01*
X-3046021Y57283153D01*
X-3203216Y57453913D01*
X-3386374Y57596470D01*
X-3590497Y57706936D01*
X-3739681Y57758151D01*
X-3810015Y57782297D01*
X-3810017Y57782297D01*
X-3810019Y57782298D01*
X-4038951Y57820500D01*
X-4271049Y57820500D01*
X-4499981Y57782298D01*
X-4719503Y57706936D01*
X-4923626Y57596470D01*
X-5106784Y57453913D01*
X-5263979Y57283153D01*
X-5390924Y57088849D01*
X-5426444Y57007871D01*
X-5471400Y56954385D01*
X-5538136Y56933695D01*
X-5605464Y56952370D01*
X-5652007Y57004480D01*
X-5653556Y57007871D01*
X-5689076Y57088849D01*
X-5750950Y57183554D01*
X-5816021Y57283153D01*
X-5973216Y57453913D01*
X-6156374Y57596470D01*
X-6360497Y57706936D01*
X-6509681Y57758151D01*
X-6580015Y57782297D01*
X-6580017Y57782297D01*
X-6580019Y57782298D01*
X-6808951Y57820500D01*
X-7041049Y57820500D01*
X-7269981Y57782298D01*
X-7489503Y57706936D01*
X-7693626Y57596470D01*
X-7876784Y57453913D01*
X-8033979Y57283153D01*
X-8160924Y57088849D01*
X-8196444Y57007871D01*
X-8241400Y56954385D01*
X-8308136Y56933695D01*
X-8375464Y56952370D01*
X-8422007Y57004480D01*
X-8423556Y57007871D01*
X-8459076Y57088849D01*
X-8520950Y57183554D01*
X-8586021Y57283153D01*
X-8743216Y57453913D01*
X-8926374Y57596470D01*
X-9130497Y57706936D01*
X-9279681Y57758151D01*
X-9350015Y57782297D01*
X-9350017Y57782297D01*
X-9350019Y57782298D01*
X-9578951Y57820500D01*
X-9811049Y57820500D01*
X-10039981Y57782298D01*
X-10259503Y57706936D01*
X-10463626Y57596470D01*
X-10646784Y57453913D01*
X-10803979Y57283153D01*
X-10930924Y57088849D01*
X-10966444Y57007871D01*
X-11011400Y56954385D01*
X-11078136Y56933695D01*
X-11145464Y56952370D01*
X-11192007Y57004480D01*
X-11193556Y57007871D01*
X-11229076Y57088849D01*
X-11290950Y57183554D01*
X-11356021Y57283153D01*
X-11513216Y57453913D01*
X-11696374Y57596470D01*
X-11900497Y57706936D01*
X-12049681Y57758151D01*
X-12120015Y57782297D01*
X-12120017Y57782297D01*
X-12120019Y57782298D01*
X-12348951Y57820500D01*
X-12581049Y57820500D01*
X-12809981Y57782298D01*
X-13029503Y57706936D01*
X-13233626Y57596470D01*
X-13416784Y57453913D01*
X-13573979Y57283153D01*
X-13700924Y57088849D01*
X-13736444Y57007871D01*
X-13781400Y56954385D01*
X-13848136Y56933695D01*
X-13915464Y56952370D01*
X-13962007Y57004480D01*
X-13963556Y57007871D01*
X-13999076Y57088849D01*
X-14060950Y57183554D01*
X-14126021Y57283153D01*
X-14283216Y57453913D01*
X-14466374Y57596470D01*
X-14670497Y57706936D01*
X-14819681Y57758151D01*
X-14890015Y57782297D01*
X-14890017Y57782297D01*
X-14890019Y57782298D01*
X-15118951Y57820500D01*
X-15351049Y57820500D01*
X-15579981Y57782298D01*
X-15799503Y57706936D01*
X-16003626Y57596470D01*
X-16186784Y57453913D01*
X-16343979Y57283153D01*
X-16470924Y57088849D01*
X-16564157Y56876300D01*
X-16621134Y56651305D01*
X-16640300Y56420000D01*
X-16621134Y56188695D01*
X-16564157Y55963700D01*
X-16470924Y55751151D01*
X-16343979Y55556847D01*
X-16186784Y55386087D01*
X-16003626Y55243530D01*
X-15799503Y55133064D01*
X-15799499Y55133062D01*
X-15799498Y55133062D01*
X-15579984Y55057702D01*
X-15408282Y55029050D01*
X-15351049Y55019500D01*
X-15351048Y55019500D01*
X-15118952Y55019500D01*
X-15118951Y55019500D01*
X-15073164Y55027140D01*
X-14890015Y55057702D01*
X-14670501Y55133062D01*
X-14466372Y55243531D01*
X-14283215Y55386087D01*
X-14126020Y55556848D01*
X-13999077Y55751148D01*
X-13963556Y55832129D01*
X-13918599Y55885614D01*
X-13851863Y55906304D01*
X-13784536Y55887629D01*
X-13737992Y55835518D01*
X-13736453Y55832150D01*
X-13700924Y55751151D01*
X-13573979Y55556847D01*
X-13416784Y55386087D01*
X-13233626Y55243530D01*
X-13029503Y55133064D01*
X-13029499Y55133062D01*
X-13029498Y55133062D01*
X-12809984Y55057702D01*
X-12638281Y55029050D01*
X-12581049Y55019500D01*
X-12581048Y55019500D01*
X-12348952Y55019500D01*
X-12348951Y55019500D01*
X-12303164Y55027140D01*
X-12120015Y55057702D01*
X-11900501Y55133062D01*
X-11696372Y55243531D01*
X-11513215Y55386087D01*
X-11356020Y55556848D01*
X-11229077Y55751148D01*
X-11193556Y55832129D01*
X-11148599Y55885614D01*
X-11081863Y55906304D01*
X-11014536Y55887629D01*
X-10967992Y55835518D01*
X-10966453Y55832150D01*
X-10930924Y55751151D01*
X-10803979Y55556847D01*
X-10646784Y55386087D01*
X-10463626Y55243530D01*
X-10259503Y55133064D01*
X-10259499Y55133062D01*
X-10259498Y55133062D01*
X-10039984Y55057702D01*
X-9868282Y55029050D01*
X-9811049Y55019500D01*
X-9811048Y55019500D01*
X-9578952Y55019500D01*
X-9578951Y55019500D01*
X-9533164Y55027140D01*
X-9350015Y55057702D01*
X-9130501Y55133062D01*
X-8926372Y55243531D01*
X-8743215Y55386087D01*
X-8586020Y55556848D01*
X-8459077Y55751148D01*
X-8423556Y55832129D01*
X-8378599Y55885614D01*
X-8311863Y55906304D01*
X-8244536Y55887629D01*
X-8197992Y55835518D01*
X-8196453Y55832150D01*
X-8160924Y55751151D01*
X-8033979Y55556847D01*
X-7876784Y55386087D01*
X-7693626Y55243530D01*
X-7489503Y55133064D01*
X-7489499Y55133062D01*
X-7489498Y55133062D01*
X-7269984Y55057702D01*
X-7098281Y55029050D01*
X-7041049Y55019500D01*
X-7041048Y55019500D01*
X-6808952Y55019500D01*
X-6808951Y55019500D01*
X-6763164Y55027140D01*
X-6580015Y55057702D01*
X-6360501Y55133062D01*
X-6156372Y55243531D01*
X-5973215Y55386087D01*
X-5816020Y55556848D01*
X-5689077Y55751148D01*
X-5653556Y55832129D01*
X-5608599Y55885614D01*
X-5541863Y55906304D01*
X-5474536Y55887629D01*
X-5427992Y55835518D01*
X-5426453Y55832150D01*
X-5390924Y55751151D01*
X-5263979Y55556847D01*
X-5106784Y55386087D01*
X-4923626Y55243530D01*
X-4719503Y55133064D01*
X-4719499Y55133062D01*
X-4719498Y55133062D01*
X-4499984Y55057702D01*
X-4328282Y55029050D01*
X-4271049Y55019500D01*
X-4271048Y55019500D01*
X-4038952Y55019500D01*
X-4038951Y55019500D01*
X-3993164Y55027140D01*
X-3810015Y55057702D01*
X-3590501Y55133062D01*
X-3386372Y55243531D01*
X-3203215Y55386087D01*
X-3046020Y55556848D01*
X-2919077Y55751148D01*
X-2883556Y55832129D01*
X-2838599Y55885614D01*
X-2771863Y55906304D01*
X-2704536Y55887629D01*
X-2657992Y55835518D01*
X-2656453Y55832150D01*
X-2620924Y55751151D01*
X-2493979Y55556847D01*
X-2336784Y55386087D01*
X-2153626Y55243530D01*
X-1949503Y55133064D01*
X-1949499Y55133062D01*
X-1949498Y55133062D01*
X-1729984Y55057702D01*
X-1558281Y55029050D01*
X-1501049Y55019500D01*
X-1501048Y55019500D01*
X-1268952Y55019500D01*
X-1268951Y55019500D01*
X-1223164Y55027140D01*
X-1040015Y55057702D01*
X-820501Y55133062D01*
X-616372Y55243531D01*
X-433215Y55386087D01*
X-276020Y55556848D01*
X-149077Y55751148D01*
X-113556Y55832129D01*
X-68599Y55885614D01*
X-1863Y55906304D01*
X65464Y55887629D01*
X112008Y55835518D01*
X113556Y55832129D01*
X149077Y55751148D01*
X276020Y55556848D01*
X433215Y55386087D01*
X616372Y55243531D01*
X820501Y55133062D01*
X1040015Y55057702D01*
X1223164Y55027140D01*
X1268951Y55019500D01*
X1268952Y55019500D01*
X1501048Y55019500D01*
X1501049Y55019500D01*
X1558281Y55029050D01*
X1729984Y55057702D01*
X1949498Y55133062D01*
X1949499Y55133062D01*
X1949503Y55133064D01*
X2153626Y55243530D01*
X2336784Y55386087D01*
X2493979Y55556847D01*
X2620924Y55751151D01*
X2656444Y55832129D01*
X2701401Y55885614D01*
X2768137Y55906304D01*
X2835464Y55887629D01*
X2882008Y55835518D01*
X2883556Y55832129D01*
X2919077Y55751148D01*
X3046020Y55556848D01*
X3203215Y55386087D01*
X3386372Y55243531D01*
X3590501Y55133062D01*
X3810015Y55057702D01*
X3993164Y55027140D01*
X4038951Y55019500D01*
X4038952Y55019500D01*
X4271048Y55019500D01*
X4271049Y55019500D01*
X4328282Y55029050D01*
X4499984Y55057702D01*
X4719498Y55133062D01*
X4719499Y55133062D01*
X4719503Y55133064D01*
X4923626Y55243530D01*
X5106784Y55386087D01*
X5263979Y55556847D01*
X5390924Y55751151D01*
X5426444Y55832129D01*
X5471401Y55885614D01*
X5538137Y55906304D01*
X5605464Y55887629D01*
X5652008Y55835518D01*
X5653556Y55832129D01*
X5689077Y55751148D01*
X5816020Y55556848D01*
X5973215Y55386087D01*
X6156372Y55243531D01*
X6360501Y55133062D01*
X6580015Y55057702D01*
X6763164Y55027140D01*
X6808951Y55019500D01*
X6808952Y55019500D01*
X7041048Y55019500D01*
X7041049Y55019500D01*
X7098281Y55029050D01*
X7269984Y55057702D01*
X7489498Y55133062D01*
X7489499Y55133062D01*
X7489503Y55133064D01*
X7693626Y55243530D01*
X7876784Y55386087D01*
X8033979Y55556847D01*
X8160924Y55751151D01*
X8196444Y55832129D01*
X8241401Y55885614D01*
X8308137Y55906304D01*
X8375464Y55887629D01*
X8422008Y55835518D01*
X8423556Y55832129D01*
X8459077Y55751148D01*
X8586020Y55556848D01*
X8743215Y55386087D01*
X8926372Y55243531D01*
X9130501Y55133062D01*
X9350015Y55057702D01*
X9533164Y55027140D01*
X9578951Y55019500D01*
X9578952Y55019500D01*
X9811048Y55019500D01*
X9811049Y55019500D01*
X9868282Y55029050D01*
X10039984Y55057702D01*
X10259498Y55133062D01*
X10259499Y55133062D01*
X10259503Y55133064D01*
X10463626Y55243530D01*
X10646784Y55386087D01*
X10803979Y55556847D01*
X10930924Y55751151D01*
X10966444Y55832129D01*
X11011401Y55885614D01*
X11078137Y55906304D01*
X11145464Y55887629D01*
X11192008Y55835518D01*
X11193556Y55832129D01*
X11229077Y55751148D01*
X11356020Y55556848D01*
X11513215Y55386087D01*
X11696372Y55243531D01*
X11900501Y55133062D01*
X12120015Y55057702D01*
X12303164Y55027140D01*
X12348951Y55019500D01*
X12348952Y55019500D01*
X12581048Y55019500D01*
X12581049Y55019500D01*
X12638281Y55029050D01*
X12809984Y55057702D01*
X13029498Y55133062D01*
X13029499Y55133062D01*
X13029503Y55133064D01*
X13233626Y55243530D01*
X13416784Y55386087D01*
X13573979Y55556847D01*
X13700924Y55751151D01*
X13736444Y55832129D01*
X13781401Y55885614D01*
X13848137Y55906304D01*
X13915464Y55887629D01*
X13962008Y55835518D01*
X13963556Y55832129D01*
X13999077Y55751148D01*
X14126020Y55556848D01*
X14283215Y55386087D01*
X14466372Y55243531D01*
X14670501Y55133062D01*
X14890015Y55057702D01*
X15073164Y55027140D01*
X15118951Y55019500D01*
X15118952Y55019500D01*
X15250942Y55019500D01*
X15317981Y54999815D01*
X15363736Y54947011D01*
X15373680Y54877853D01*
X15350209Y54821189D01*
X15276204Y54722331D01*
X15225909Y54587483D01*
X15219500Y54527873D01*
X15219500Y54524550D01*
X15219500Y54460904D01*
X15199815Y54393865D01*
X15147011Y54348110D01*
X15077853Y54338166D01*
X15014297Y54367191D01*
X14991691Y54393083D01*
X14991180Y54393865D01*
X14958979Y54443153D01*
X14801784Y54613913D01*
X14618626Y54756470D01*
X14414503Y54866936D01*
X14194981Y54942298D01*
X13966049Y54980500D01*
X13733951Y54980500D01*
X13505019Y54942298D01*
X13505017Y54942297D01*
X13505015Y54942297D01*
X13395258Y54904616D01*
X13285497Y54866936D01*
X13081374Y54756470D01*
X12898216Y54613913D01*
X12741021Y54443153D01*
X12672430Y54338166D01*
X12614076Y54248849D01*
X12578556Y54167871D01*
X12533600Y54114385D01*
X12466864Y54093695D01*
X12399536Y54112370D01*
X12352993Y54164480D01*
X12351444Y54167871D01*
X12315924Y54248849D01*
X12188979Y54443153D01*
X12031784Y54613913D01*
X11848626Y54756470D01*
X11644503Y54866936D01*
X11424981Y54942298D01*
X11196049Y54980500D01*
X10963951Y54980500D01*
X10735019Y54942298D01*
X10735017Y54942297D01*
X10735015Y54942297D01*
X10625258Y54904616D01*
X10515497Y54866936D01*
X10311374Y54756470D01*
X10128216Y54613913D01*
X9971021Y54443153D01*
X9902430Y54338166D01*
X9844076Y54248849D01*
X9808556Y54167871D01*
X9763600Y54114385D01*
X9696864Y54093695D01*
X9629536Y54112370D01*
X9582993Y54164480D01*
X9581444Y54167871D01*
X9545924Y54248849D01*
X9418979Y54443153D01*
X9261784Y54613913D01*
X9078626Y54756470D01*
X8874503Y54866936D01*
X8654981Y54942298D01*
X8426049Y54980500D01*
X8193951Y54980500D01*
X7965019Y54942298D01*
X7965017Y54942297D01*
X7965015Y54942297D01*
X7855258Y54904616D01*
X7745497Y54866936D01*
X7541374Y54756470D01*
X7358216Y54613913D01*
X7201021Y54443153D01*
X7132430Y54338166D01*
X7074076Y54248849D01*
X7038556Y54167871D01*
X6993600Y54114385D01*
X6926864Y54093695D01*
X6859536Y54112370D01*
X6812993Y54164480D01*
X6811444Y54167871D01*
X6775924Y54248849D01*
X6648979Y54443153D01*
X6491784Y54613913D01*
X6308626Y54756470D01*
X6104503Y54866936D01*
X5884981Y54942298D01*
X5656049Y54980500D01*
X5423951Y54980500D01*
X5195019Y54942298D01*
X5195017Y54942297D01*
X5195015Y54942297D01*
X5085258Y54904616D01*
X4975497Y54866936D01*
X4771374Y54756470D01*
X4588216Y54613913D01*
X4431021Y54443153D01*
X4362430Y54338166D01*
X4304076Y54248849D01*
X4268556Y54167871D01*
X4223600Y54114385D01*
X4156864Y54093695D01*
X4089536Y54112370D01*
X4042993Y54164480D01*
X4041444Y54167871D01*
X4005924Y54248849D01*
X3878979Y54443153D01*
X3721784Y54613913D01*
X3538626Y54756470D01*
X3334503Y54866936D01*
X3114981Y54942298D01*
X2886049Y54980500D01*
X2653951Y54980500D01*
X2425019Y54942298D01*
X2425017Y54942297D01*
X2425015Y54942297D01*
X2315258Y54904616D01*
X2205497Y54866936D01*
X2001374Y54756470D01*
X1818216Y54613913D01*
X1661021Y54443153D01*
X1592430Y54338166D01*
X1534076Y54248849D01*
X1498556Y54167871D01*
X1453600Y54114385D01*
X1386864Y54093695D01*
X1319536Y54112370D01*
X1272993Y54164480D01*
X1271444Y54167871D01*
X1235924Y54248849D01*
X1108979Y54443153D01*
X951784Y54613913D01*
X768626Y54756470D01*
X564503Y54866936D01*
X344981Y54942298D01*
X116049Y54980500D01*
X-116049Y54980500D01*
X-344981Y54942298D01*
X-564503Y54866936D01*
X-768626Y54756470D01*
X-951784Y54613913D01*
X-1108979Y54443153D01*
X-1235924Y54248849D01*
X-1271444Y54167871D01*
X-1316400Y54114385D01*
X-1383136Y54093695D01*
X-1450464Y54112370D01*
X-1497007Y54164480D01*
X-1498556Y54167871D01*
X-1534076Y54248849D01*
X-1592430Y54338166D01*
X-1661021Y54443153D01*
X-1818216Y54613913D01*
X-2001374Y54756470D01*
X-2205497Y54866936D01*
X-2315258Y54904616D01*
X-2425015Y54942297D01*
X-2425017Y54942297D01*
X-2425019Y54942298D01*
X-2653951Y54980500D01*
X-2886049Y54980500D01*
X-3114981Y54942298D01*
X-3334503Y54866936D01*
X-3538626Y54756470D01*
X-3721784Y54613913D01*
X-3878979Y54443153D01*
X-4005924Y54248849D01*
X-4041444Y54167871D01*
X-4086400Y54114385D01*
X-4153136Y54093695D01*
X-4220464Y54112370D01*
X-4267007Y54164480D01*
X-4268556Y54167871D01*
X-4304076Y54248849D01*
X-4362430Y54338166D01*
X-4431021Y54443153D01*
X-4588216Y54613913D01*
X-4771374Y54756470D01*
X-4975497Y54866936D01*
X-5085258Y54904616D01*
X-5195015Y54942297D01*
X-5195017Y54942297D01*
X-5195019Y54942298D01*
X-5423951Y54980500D01*
X-5656049Y54980500D01*
X-5884981Y54942298D01*
X-6104503Y54866936D01*
X-6308626Y54756470D01*
X-6491784Y54613913D01*
X-6648979Y54443153D01*
X-6775924Y54248849D01*
X-6811444Y54167871D01*
X-6856400Y54114385D01*
X-6923136Y54093695D01*
X-6990464Y54112370D01*
X-7037007Y54164480D01*
X-7038556Y54167871D01*
X-7074076Y54248849D01*
X-7132430Y54338166D01*
X-7201021Y54443153D01*
X-7358216Y54613913D01*
X-7541374Y54756470D01*
X-7745497Y54866936D01*
X-7855258Y54904616D01*
X-7965015Y54942297D01*
X-7965017Y54942297D01*
X-7965019Y54942298D01*
X-8193951Y54980500D01*
X-8426049Y54980500D01*
X-8654981Y54942298D01*
X-8874503Y54866936D01*
X-9078626Y54756470D01*
X-9261784Y54613913D01*
X-9418979Y54443153D01*
X-9545924Y54248849D01*
X-9581444Y54167871D01*
X-9626400Y54114385D01*
X-9693136Y54093695D01*
X-9760464Y54112370D01*
X-9807007Y54164480D01*
X-9808556Y54167871D01*
X-9844076Y54248849D01*
X-9902430Y54338166D01*
X-9971021Y54443153D01*
X-10128216Y54613913D01*
X-10311374Y54756470D01*
X-10515497Y54866936D01*
X-10625258Y54904616D01*
X-10735015Y54942297D01*
X-10735017Y54942297D01*
X-10735019Y54942298D01*
X-10963951Y54980500D01*
X-11196049Y54980500D01*
X-11424981Y54942298D01*
X-11644503Y54866936D01*
X-11848626Y54756470D01*
X-12031784Y54613913D01*
X-12188979Y54443153D01*
X-12315924Y54248849D01*
X-12351444Y54167871D01*
X-12396400Y54114385D01*
X-12463136Y54093695D01*
X-12530464Y54112370D01*
X-12577007Y54164480D01*
X-12578556Y54167871D01*
X-12614076Y54248849D01*
X-12672430Y54338166D01*
X-12741021Y54443153D01*
X-12898216Y54613913D01*
X-13081374Y54756470D01*
X-13285497Y54866936D01*
X-13395258Y54904616D01*
X-13505015Y54942297D01*
X-13505017Y54942297D01*
X-13505019Y54942298D01*
X-13733951Y54980500D01*
X-13966049Y54980500D01*
X-14194981Y54942298D01*
X-14414503Y54866936D01*
X-14618626Y54756470D01*
X-14801784Y54613913D01*
X-14958979Y54443153D01*
X-15085924Y54248849D01*
X-15121444Y54167871D01*
X-15166400Y54114385D01*
X-15233136Y54093695D01*
X-15300464Y54112370D01*
X-15347007Y54164480D01*
X-15348556Y54167871D01*
X-15384076Y54248849D01*
X-15442430Y54338166D01*
X-15511021Y54443153D01*
X-15668216Y54613913D01*
X-15851374Y54756470D01*
X-16055497Y54866936D01*
X-16165258Y54904616D01*
X-16275015Y54942297D01*
X-16275017Y54942297D01*
X-16275019Y54942298D01*
X-16503951Y54980500D01*
X-16736049Y54980500D01*
X-16964981Y54942298D01*
X-17184503Y54866936D01*
X-17388626Y54756470D01*
X-17571784Y54613913D01*
X-17728979Y54443153D01*
X-17855924Y54248849D01*
X-17949157Y54036300D01*
X-18006134Y53811305D01*
X-18006134Y53811299D01*
X-18025301Y53580000D01*
X-20875157Y53580000D01*
X-20835915Y53647970D01*
X-20835909Y53647980D01*
X-20834111Y53651096D01*
X-20832690Y53654389D01*
X-20832682Y53654406D01*
X-20697099Y53968725D01*
X-20697097Y53968728D01*
X-20695674Y53972029D01*
X-20694645Y53975464D01*
X-20694642Y53975474D01*
X-20596465Y54303408D01*
X-20596462Y54303418D01*
X-20595431Y54306864D01*
X-20594806Y54310407D01*
X-20594803Y54310421D01*
X-20535366Y54647507D01*
X-20535364Y54647520D01*
X-20534738Y54651073D01*
X-20534528Y54654678D01*
X-20534527Y54654687D01*
X-20514625Y54996394D01*
X-20514415Y55000000D01*
X-20534738Y55348927D01*
X-20535364Y55352481D01*
X-20535366Y55352492D01*
X-20594803Y55689578D01*
X-20594805Y55689588D01*
X-20595431Y55693136D01*
X-20612799Y55751148D01*
X-20694642Y56024525D01*
X-20694643Y56024530D01*
X-20695674Y56027971D01*
X-20727609Y56102005D01*
X-20832682Y56345593D01*
X-20832687Y56345603D01*
X-20834111Y56348904D01*
X-20875158Y56420000D01*
X-21007061Y56648464D01*
X-21007067Y56648473D01*
X-21008870Y56651596D01*
X-21019229Y56665511D01*
X-21215435Y56929062D01*
X-21215441Y56929069D01*
X-21217588Y56931953D01*
X-21457442Y57186183D01*
X-21573007Y57283153D01*
X-21722429Y57408533D01*
X-21725189Y57410849D01*
X-21877465Y57511003D01*
X-22014187Y57600927D01*
X-22014190Y57600929D01*
X-22017207Y57602913D01*
X-22329549Y57759777D01*
X-22657989Y57879319D01*
X-22828037Y57919621D01*
X-22994579Y57959092D01*
X-22994581Y57959092D01*
X-22998086Y57959923D01*
X-23345241Y58000500D01*
X-23694759Y58000500D01*
X-24041914Y57959923D01*
X-24382011Y57879319D01*
X-24710451Y57759777D01*
X-25022793Y57602913D01*
X-25314811Y57410849D01*
X-25582558Y57186183D01*
X-25822412Y56931953D01*
X-26031130Y56651596D01*
X-26205889Y56348904D01*
X-26344326Y56027971D01*
X-26444569Y55693136D01*
X-26505262Y55348927D01*
X-26525585Y55000000D01*
X-27499500Y55000000D01*
X-27499500Y64475500D01*
X-27479815Y64542539D01*
X-27427011Y64588294D01*
X-27375500Y64599500D01*
X27375500Y64599500D01*
X27442539Y64579815D01*
G37*
%TD.AperFunction*%
%TD*%
M02*
