%TF.GenerationSoftware,KiCad,Pcbnew,7.0.2*%
%TF.CreationDate,2023-11-07T11:53:16-07:00*%
%TF.ProjectId,Gateway06,47617465-7761-4793-9036-2e6b69636164,rev?*%
%TF.SameCoordinates,Original*%
%TF.FileFunction,Copper,L1,Top*%
%TF.FilePolarity,Positive*%
%FSLAX46Y46*%
G04 Gerber Fmt 4.6, Leading zero omitted, Abs format (unit mm)*
G04 Created by KiCad (PCBNEW 7.0.2) date 2023-11-07 11:53:16*
%MOMM*%
%LPD*%
G01*
G04 APERTURE LIST*
%TA.AperFunction,ComponentPad*%
%ADD10C,1.600000*%
%TD*%
%TA.AperFunction,ComponentPad*%
%ADD11C,1.450000*%
%TD*%
%TA.AperFunction,SMDPad,CuDef*%
%ADD12R,0.250000X1.700000*%
%TD*%
%TA.AperFunction,ViaPad*%
%ADD13C,0.450000*%
%TD*%
%TA.AperFunction,Conductor*%
%ADD14C,0.127000*%
%TD*%
G04 APERTURE END LIST*
D10*
%TO.P,U2,0,GND*%
%TO.N,GND*%
X1605000Y-3740000D03*
D11*
X3080000Y-5740000D03*
X14920000Y-5740000D03*
D10*
X16395000Y-3740000D03*
D12*
%TO.P,U2,1*%
X13750000Y-7350000D03*
%TO.P,U2,2*%
%TO.N,Net-(U1-Pad2)*%
X13750000Y-2650000D03*
%TO.P,U2,3*%
%TO.N,GND*%
X13250000Y-7350000D03*
%TO.P,U2,4*%
%TO.N,Net-(U1-Pad4)*%
X13250000Y-2650000D03*
%TO.P,U2,5*%
%TO.N,GND*%
X12750000Y-7350000D03*
%TO.P,U2,6*%
%TO.N,Net-(U1-Pad6)*%
X12750000Y-2650000D03*
%TO.P,U2,7*%
%TO.N,GND*%
X12250000Y-7350000D03*
%TO.P,U2,8*%
%TO.N,Net-(U1-Pad8)*%
X12250000Y-2650000D03*
%TO.P,U2,9*%
%TO.N,GND*%
X11750000Y-7350000D03*
%TO.P,U2,10*%
%TO.N,Net-(U1-Pad10)*%
X11750000Y-2650000D03*
%TO.P,U2,11*%
%TO.N,GND*%
X11250000Y-7350000D03*
%TO.P,U2,12*%
%TO.N,Net-(U1-Pad12)*%
X11250000Y-2650000D03*
%TO.P,U2,13*%
%TO.N,GND*%
X10750000Y-7350000D03*
%TO.P,U2,14*%
%TO.N,Net-(U1-Pad14)*%
X10750000Y-2650000D03*
%TO.P,U2,15*%
%TO.N,GND*%
X10250000Y-7350000D03*
%TO.P,U2,16*%
%TO.N,Net-(U1-Pad16)*%
X10250000Y-2650000D03*
%TO.P,U2,17*%
%TO.N,GND*%
X9750000Y-7350000D03*
%TO.P,U2,18*%
%TO.N,Net-(U1-Pad18)*%
X9750000Y-2650000D03*
%TO.P,U2,19*%
%TO.N,GND*%
X9250000Y-7350000D03*
%TO.P,U2,20*%
%TO.N,Net-(U1-Pad20)*%
X9250000Y-2650000D03*
%TO.P,U2,21*%
%TO.N,GND*%
X8750000Y-7350000D03*
%TO.P,U2,22*%
%TO.N,Net-(U1-Pad22)*%
X8750000Y-2650000D03*
%TO.P,U2,23*%
%TO.N,GND*%
X8250000Y-7350000D03*
%TO.P,U2,24*%
%TO.N,Net-(U1-Pad24)*%
X8250000Y-2650000D03*
%TO.P,U2,25*%
%TO.N,GND*%
X7750000Y-7350000D03*
%TO.P,U2,26*%
%TO.N,Net-(U1-Pad26)*%
X7750000Y-2650000D03*
%TO.P,U2,27*%
%TO.N,GND*%
X7250000Y-7350000D03*
%TO.P,U2,28*%
%TO.N,Net-(U1-Pad28)*%
X7250000Y-2650000D03*
%TO.P,U2,29*%
%TO.N,GND*%
X6750000Y-7350000D03*
%TO.P,U2,30*%
%TO.N,Net-(U1-Pad30)*%
X6750000Y-2650000D03*
%TO.P,U2,31*%
%TO.N,GND*%
X6250000Y-7350000D03*
%TO.P,U2,32*%
%TO.N,Net-(U1-Pad32)*%
X6250000Y-2650000D03*
%TO.P,U2,33*%
%TO.N,GND*%
X5750000Y-7350000D03*
%TO.P,U2,34*%
%TO.N,Net-(U1-Pad34)*%
X5750000Y-2650000D03*
%TO.P,U2,35*%
%TO.N,GND*%
X5250000Y-7350000D03*
%TO.P,U2,36*%
%TO.N,Net-(U1-Pad36)*%
X5250000Y-2650000D03*
%TO.P,U2,37*%
%TO.N,GND*%
X4750000Y-7350000D03*
%TO.P,U2,38*%
%TO.N,Net-(U1-Pad38)*%
X4750000Y-2650000D03*
%TO.P,U2,39*%
%TO.N,GND*%
X4250000Y-7350000D03*
%TO.P,U2,40*%
%TO.N,Net-(U1-Pad40)*%
X4250000Y-2650000D03*
%TD*%
D10*
%TO.P,U1,0,GND*%
%TO.N,GND*%
X1605000Y3740000D03*
D11*
X3080000Y5740000D03*
X14920000Y5740000D03*
D10*
X16395000Y3740000D03*
%TD*%
D13*
%TO.N,Net-(U1-Pad22)*%
X8986753Y1787D03*
%TO.N,Net-(U1-Pad2)*%
X15879311Y211400D03*
%TO.N,Net-(U1-Pad4)*%
X15273984Y-24041D03*
%TO.N,Net-(U1-Pad6)*%
X14625000Y-50000D03*
%TO.N,Net-(U1-Pad8)*%
X13975000Y100000D03*
%TO.N,Net-(U1-Pad10)*%
X13225000Y100000D03*
%TO.N,Net-(U1-Pad12)*%
X12500000Y50000D03*
%TO.N,Net-(U1-Pad14)*%
X11822061Y-31266D03*
%TO.N,Net-(U1-Pad16)*%
X11175000Y25000D03*
%TO.N,Net-(U1-Pad18)*%
X10425000Y25000D03*
%TO.N,Net-(U1-Pad20)*%
X9700000Y25000D03*
%TO.N,Net-(U1-Pad24)*%
X8337300Y-6159D03*
%TO.N,Net-(U1-Pad26)*%
X7689675Y43184D03*
%TO.N,Net-(U1-Pad28)*%
X7034413Y47038D03*
%TO.N,Net-(U1-Pad30)*%
X6340726Y50588D03*
%TO.N,Net-(U1-Pad32)*%
X5600000Y0D03*
%TO.N,Net-(U1-Pad34)*%
X4800000Y0D03*
%TO.N,Net-(U1-Pad36)*%
X4000000Y0D03*
%TO.N,Net-(U1-Pad38)*%
X3200000Y0D03*
%TO.N,Net-(U1-Pad40)*%
X2000000Y0D03*
%TD*%
D14*
%TO.N,GND*%
X4250000Y-6910000D02*
X4250000Y-7350000D01*
X3080000Y-5740000D02*
X4250000Y-6910000D01*
%TO.N,Net-(U1-Pad22)*%
X8750000Y-450000D02*
X8986753Y-213247D01*
X8986753Y-213247D02*
X8986753Y1787D01*
%TO.N,GND*%
X13750000Y-7350000D02*
X4250000Y-7350000D01*
%TO.N,Net-(U1-Pad2)*%
X15879311Y-520689D02*
X15879311Y211400D01*
X13750000Y-2650000D02*
X15879311Y-520689D01*
%TO.N,Net-(U1-Pad4)*%
X15273984Y-91860D02*
X15273984Y-24041D01*
X14827344Y-538500D02*
X15273984Y-91860D01*
X14659500Y-538500D02*
X14827344Y-538500D01*
X13250000Y-1948000D02*
X14659500Y-538500D01*
X13250000Y-2650000D02*
X13250000Y-1948000D01*
%TO.N,Net-(U1-Pad6)*%
X12750000Y-1925000D02*
X14625000Y-50000D01*
X12750000Y-2650000D02*
X12750000Y-1925000D01*
%TO.N,Net-(U1-Pad8)*%
X12250000Y-1625000D02*
X13975000Y100000D01*
X12250000Y-2650000D02*
X12250000Y-1625000D01*
%TO.N,Net-(U1-Pad10)*%
X11750000Y-1390844D02*
X11750000Y-2650000D01*
X13225000Y84156D02*
X11750000Y-1390844D01*
X13225000Y100000D02*
X13225000Y84156D01*
%TO.N,Net-(U1-Pad12)*%
X12500000Y-44171D02*
X12500000Y50000D01*
X11919171Y-625000D02*
X12500000Y-44171D01*
X11875000Y-625000D02*
X11919171Y-625000D01*
X11250000Y-1250000D02*
X11875000Y-625000D01*
X11250000Y-2650000D02*
X11250000Y-1250000D01*
%TO.N,Net-(U1-Pad14)*%
X10750000Y-1103327D02*
X11822061Y-31266D01*
X10750000Y-2650000D02*
X10750000Y-1103327D01*
%TO.N,Net-(U1-Pad16)*%
X11115844Y25000D02*
X10250000Y-840844D01*
X11175000Y25000D02*
X11115844Y25000D01*
X10250000Y-840844D02*
X10250000Y-2650000D01*
%TO.N,Net-(U1-Pad18)*%
X9750000Y-650000D02*
X10425000Y25000D01*
X9750000Y-2650000D02*
X9750000Y-650000D01*
%TO.N,Net-(U1-Pad20)*%
X9250000Y-425103D02*
X9250000Y-2650000D01*
X9700000Y24897D02*
X9250000Y-425103D01*
X9700000Y25000D02*
X9700000Y24897D01*
%TO.N,Net-(U1-Pad22)*%
X8750000Y-2650000D02*
X8750000Y-450000D01*
%TO.N,Net-(U1-Pad24)*%
X8250000Y-93459D02*
X8337300Y-6159D01*
X8250000Y-2650000D02*
X8250000Y-93459D01*
%TO.N,Net-(U1-Pad26)*%
X7750000Y-17141D02*
X7750000Y-2650000D01*
X7689675Y43184D02*
X7750000Y-17141D01*
%TO.N,Net-(U1-Pad28)*%
X7250000Y-168549D02*
X7034413Y47038D01*
X7250000Y-2650000D02*
X7250000Y-168549D01*
%TO.N,Net-(U1-Pad30)*%
X6340726Y50588D02*
X6750000Y-358686D01*
X6750000Y-358686D02*
X6750000Y-2650000D01*
%TO.N,Net-(U1-Pad32)*%
X6250000Y-650000D02*
X5600000Y0D01*
X6250000Y-2650000D02*
X6250000Y-650000D01*
%TO.N,Net-(U1-Pad34)*%
X4800000Y0D02*
X5750000Y-950000D01*
X5750000Y-950000D02*
X5750000Y-2650000D01*
%TO.N,Net-(U1-Pad36)*%
X5250000Y-1250000D02*
X4000000Y0D01*
X5250000Y-2650000D02*
X5250000Y-1250000D01*
%TO.N,Net-(U1-Pad38)*%
X3200000Y0D02*
X4750000Y-1550000D01*
X4750000Y-1550000D02*
X4750000Y-2650000D01*
%TO.N,Net-(U1-Pad40)*%
X2000000Y-400000D02*
X2000000Y0D01*
X4250000Y-2650000D02*
X2000000Y-400000D01*
%TD*%
%TA.AperFunction,Conductor*%
%TO.N,GND*%
G36*
X516309Y26494422D02*
G01*
X1538364Y26454761D01*
X1543242Y26454477D01*
X2563000Y26375215D01*
X2567864Y26374742D01*
X3583779Y26255999D01*
X3588620Y26255338D01*
X4599183Y26097289D01*
X4603996Y26096440D01*
X5607635Y25899332D01*
X5612411Y25898298D01*
X6607690Y25662412D01*
X6612422Y25661193D01*
X7597802Y25386894D01*
X7602483Y25385492D01*
X8576457Y25073200D01*
X8581080Y25071618D01*
X9542237Y24721786D01*
X9546796Y24720026D01*
X10493642Y24333196D01*
X10498129Y24331261D01*
X11429285Y23907999D01*
X11433694Y23905891D01*
X12347754Y23446832D01*
X12352077Y23444554D01*
X13247603Y22950424D01*
X13251835Y22947981D01*
X14127566Y22419474D01*
X14131700Y22416868D01*
X14986239Y21854829D01*
X14990269Y21852066D01*
X15822426Y21257277D01*
X15826346Y21254358D01*
X16634769Y20627782D01*
X16638572Y20624715D01*
X17422126Y19967236D01*
X17425808Y19964023D01*
X18183264Y19276667D01*
X18186804Y19273327D01*
X18917035Y18557121D01*
X18920457Y18553632D01*
X19622358Y17809661D01*
X19625642Y17806043D01*
X20298195Y17035382D01*
X20301336Y17031638D01*
X20943467Y16235521D01*
X20946461Y16231659D01*
X21557274Y15411194D01*
X21560115Y15407219D01*
X22138624Y14563733D01*
X22141309Y14559650D01*
X22686692Y13694341D01*
X22689217Y13690157D01*
X23200627Y12804367D01*
X23202988Y12800089D01*
X23679681Y11895112D01*
X23681874Y11890745D01*
X24123111Y10967975D01*
X24125133Y10963526D01*
X24530256Y10024345D01*
X24532104Y10019822D01*
X24900499Y9065658D01*
X24902171Y9061065D01*
X25233301Y8093299D01*
X25234793Y8088646D01*
X25528148Y7108774D01*
X25529458Y7104067D01*
X25784593Y6113572D01*
X25785720Y6108817D01*
X26002256Y5109174D01*
X26003198Y5104379D01*
X26180813Y4097075D01*
X26181568Y4092247D01*
X26319990Y3078816D01*
X26320557Y3073962D01*
X26419576Y2055950D01*
X26419955Y2051078D01*
X26479429Y1029955D01*
X26479618Y1025072D01*
X26499452Y2443D01*
X26499452Y-2443D01*
X26479618Y-1025072D01*
X26479429Y-1029955D01*
X26419955Y-2051078D01*
X26419576Y-2055950D01*
X26320557Y-3073962D01*
X26319990Y-3078816D01*
X26181568Y-4092247D01*
X26180813Y-4097075D01*
X26003198Y-5104379D01*
X26002256Y-5109174D01*
X25785720Y-6108817D01*
X25784593Y-6113572D01*
X25529458Y-7104067D01*
X25528148Y-7108774D01*
X25234793Y-8088646D01*
X25233301Y-8093299D01*
X24902171Y-9061065D01*
X24900499Y-9065658D01*
X24532104Y-10019822D01*
X24530256Y-10024345D01*
X24125133Y-10963526D01*
X24123111Y-10967975D01*
X23681874Y-11890745D01*
X23679681Y-11895112D01*
X23202988Y-12800089D01*
X23200627Y-12804367D01*
X22689217Y-13690157D01*
X22686692Y-13694341D01*
X22141309Y-14559650D01*
X22138624Y-14563733D01*
X21560115Y-15407219D01*
X21557274Y-15411194D01*
X20946461Y-16231659D01*
X20943467Y-16235521D01*
X20301336Y-17031638D01*
X20298195Y-17035382D01*
X19625642Y-17806043D01*
X19622358Y-17809661D01*
X18920457Y-18553632D01*
X18917035Y-18557121D01*
X18186804Y-19273327D01*
X18183264Y-19276667D01*
X17774690Y-19647429D01*
X17425808Y-19964023D01*
X17422126Y-19967236D01*
X16638572Y-20624715D01*
X16634769Y-20627782D01*
X15826346Y-21254358D01*
X15822426Y-21257277D01*
X14990269Y-21852066D01*
X14986239Y-21854829D01*
X14131700Y-22416868D01*
X14127566Y-22419474D01*
X13251835Y-22947981D01*
X13247603Y-22950424D01*
X12352077Y-23444554D01*
X12347754Y-23446832D01*
X11433694Y-23905891D01*
X11429285Y-23907999D01*
X10498129Y-24331261D01*
X10493642Y-24333196D01*
X9546796Y-24720026D01*
X9542237Y-24721786D01*
X8581080Y-25071618D01*
X8576457Y-25073200D01*
X7602483Y-25385492D01*
X7597802Y-25386894D01*
X6612422Y-25661193D01*
X6607690Y-25662412D01*
X5612411Y-25898298D01*
X5607635Y-25899332D01*
X4603996Y-26096440D01*
X4599183Y-26097289D01*
X3588620Y-26255338D01*
X3583779Y-26255999D01*
X2567864Y-26374742D01*
X2563000Y-26375215D01*
X1543242Y-26454477D01*
X1538364Y-26454761D01*
X516309Y-26494422D01*
X511423Y-26494517D01*
X-511423Y-26494517D01*
X-516309Y-26494422D01*
X-1538364Y-26454761D01*
X-1543242Y-26454477D01*
X-2563000Y-26375215D01*
X-2567864Y-26374742D01*
X-3583779Y-26255999D01*
X-3588620Y-26255338D01*
X-4599183Y-26097289D01*
X-4603996Y-26096440D01*
X-5607635Y-25899332D01*
X-5612411Y-25898298D01*
X-6607690Y-25662412D01*
X-6612422Y-25661193D01*
X-7597802Y-25386894D01*
X-7602483Y-25385492D01*
X-8576457Y-25073200D01*
X-8581080Y-25071618D01*
X-9542237Y-24721786D01*
X-9546796Y-24720026D01*
X-10493642Y-24333196D01*
X-10498129Y-24331261D01*
X-11429285Y-23907999D01*
X-11433694Y-23905891D01*
X-12347754Y-23446832D01*
X-12352077Y-23444554D01*
X-13247603Y-22950424D01*
X-13251835Y-22947981D01*
X-14127566Y-22419474D01*
X-14131700Y-22416868D01*
X-14986239Y-21854829D01*
X-14990269Y-21852066D01*
X-15822426Y-21257277D01*
X-15826346Y-21254358D01*
X-16634769Y-20627782D01*
X-16638572Y-20624715D01*
X-17422126Y-19967236D01*
X-17425808Y-19964023D01*
X-17774690Y-19647429D01*
X-18183264Y-19276667D01*
X-18186804Y-19273327D01*
X-18917035Y-18557121D01*
X-18920457Y-18553632D01*
X-19622358Y-17809661D01*
X-19625642Y-17806043D01*
X-20298195Y-17035382D01*
X-20301336Y-17031638D01*
X-20943467Y-16235521D01*
X-20946461Y-16231659D01*
X-21557274Y-15411194D01*
X-21560115Y-15407219D01*
X-22138624Y-14563733D01*
X-22141309Y-14559650D01*
X-22686692Y-13694341D01*
X-22689217Y-13690157D01*
X-23200627Y-12804367D01*
X-23202988Y-12800089D01*
X-23679681Y-11895112D01*
X-23681874Y-11890745D01*
X-24123111Y-10967975D01*
X-24125133Y-10963526D01*
X-24530256Y-10024345D01*
X-24532104Y-10019822D01*
X-24538822Y-10002423D01*
X-14206453Y-10002423D01*
X-14191148Y-10319983D01*
X-14191023Y-10323744D01*
X-14190402Y-10357679D01*
X-14189103Y-10362427D01*
X-14187190Y-10402115D01*
X-14139476Y-10732742D01*
X-14139471Y-10732773D01*
X-14139016Y-10736272D01*
X-14136303Y-10759684D01*
X-14135148Y-10762729D01*
X-14130034Y-10798167D01*
X-14046842Y-11140357D01*
X-14046126Y-11143485D01*
X-14043721Y-11154639D01*
X-14043029Y-11156043D01*
X-14035504Y-11186997D01*
X-13904454Y-11565085D01*
X-13738071Y-11929010D01*
X-13537860Y-12275478D01*
X-13305634Y-12601354D01*
X-13043492Y-12903689D01*
X-12753809Y-13179747D01*
X-12439205Y-13427030D01*
X-12102527Y-13643300D01*
X-11746823Y-13826600D01*
X-11375311Y-13975271D01*
X-10991352Y-14087967D01*
X-10598423Y-14163670D01*
X-10200078Y-14201693D01*
X-9802910Y-14201693D01*
X-9799922Y-14201693D01*
X-9401577Y-14163670D01*
X-9008648Y-14087967D01*
X-8624689Y-13975271D01*
X-8253177Y-13826600D01*
X-7897473Y-13643300D01*
X-7727820Y-13534321D01*
X-7563321Y-13428653D01*
X-7563315Y-13428649D01*
X-7560795Y-13427030D01*
X-7246191Y-13179747D01*
X-7244031Y-13177689D01*
X-6958666Y-12905746D01*
X-6958660Y-12905740D01*
X-6956508Y-12903689D01*
X-6694366Y-12601354D01*
X-6462140Y-12275478D01*
X-6261929Y-11929010D01*
X-6260687Y-11926295D01*
X-6260681Y-11926282D01*
X-6096789Y-11567804D01*
X-6096788Y-11567802D01*
X-6095546Y-11565085D01*
X-6086400Y-11538700D01*
X-6086397Y-11538695D01*
X-6086354Y-11538566D01*
X-5965477Y-11189827D01*
X-5964496Y-11186997D01*
X-5963790Y-11184094D01*
X-5963787Y-11184083D01*
X-5956969Y-11156040D01*
X-5956348Y-11154966D01*
X-5953867Y-11143457D01*
X-5953131Y-11140249D01*
X-5870670Y-10801066D01*
X-5870666Y-10801050D01*
X-5869966Y-10798167D01*
X-5864851Y-10762726D01*
X-5863775Y-10760373D01*
X-5860979Y-10736239D01*
X-5860524Y-10732742D01*
X-5813238Y-10405086D01*
X-5813236Y-10405070D01*
X-5812810Y-10402115D01*
X-5812666Y-10399129D01*
X-5812665Y-10399118D01*
X-5810897Y-10362427D01*
X-5809616Y-10358733D01*
X-5808975Y-10323711D01*
X-5808850Y-10319952D01*
X-5793691Y-10005416D01*
X-5793690Y-10005410D01*
X-5793547Y-10002423D01*
X-5793687Y-9999446D01*
X-5793687Y-9999427D01*
X-5795599Y-9958786D01*
X-5794365Y-9953715D01*
X-5797856Y-9909469D01*
X-5798107Y-9905481D01*
X-5812209Y-9605703D01*
X-5812209Y-9605699D01*
X-5812350Y-9602709D01*
X-5812775Y-9599737D01*
X-5819099Y-9555553D01*
X-5818167Y-9549107D01*
X-5827353Y-9497384D01*
X-5828023Y-9493208D01*
X-5868625Y-9209554D01*
X-5869049Y-9206591D01*
X-5869748Y-9203698D01*
X-5869753Y-9203676D01*
X-5881178Y-9156449D01*
X-5880802Y-9148667D01*
X-5896882Y-9091189D01*
X-5898009Y-9086868D01*
X-5962429Y-8820552D01*
X-5962433Y-8820537D01*
X-5963131Y-8817653D01*
X-5964106Y-8814829D01*
X-5981258Y-8765159D01*
X-5981682Y-8756119D01*
X-6005535Y-8694586D01*
X-6007152Y-8690173D01*
X-6092766Y-8442247D01*
X-6092771Y-8442234D01*
X-6093745Y-8439414D01*
X-6094985Y-8436693D01*
X-6094994Y-8436671D01*
X-6118425Y-8385265D01*
X-6119882Y-8375072D01*
X-6152112Y-8311126D01*
X-6154247Y-8306675D01*
X-6258460Y-8078037D01*
X-6258464Y-8078027D01*
X-6259709Y-8075298D01*
X-6261210Y-8072693D01*
X-6261215Y-8072683D01*
X-6291402Y-8020304D01*
X-6294111Y-8009096D01*
X-6335042Y-7944370D01*
X-6337715Y-7939944D01*
X-6458013Y-7731212D01*
X-6458029Y-7731186D01*
X-6459520Y-7728600D01*
X-6461249Y-7726167D01*
X-6461256Y-7726157D01*
X-6498597Y-7673630D01*
X-6502757Y-7661577D01*
X-6552501Y-7597603D01*
X-6555727Y-7593265D01*
X-6689637Y-7404895D01*
X-6689649Y-7404879D01*
X-6691372Y-7402456D01*
X-6738068Y-7348474D01*
X-6738080Y-7348460D01*
X-6743864Y-7335765D01*
X-6802294Y-7274034D01*
X-6806069Y-7269864D01*
X-6953164Y-7099819D01*
X-6955336Y-7097744D01*
X-7240354Y-6825505D01*
X-7240359Y-6825500D01*
X-7242529Y-6823428D01*
X-7244870Y-6821583D01*
X-7244888Y-6821568D01*
X-7393716Y-6704313D01*
X-7399788Y-6698937D01*
X-7409260Y-6699500D01*
X-12590777Y-6699500D01*
X-12600267Y-6698940D01*
X-12606509Y-6704491D01*
X-12755111Y-6821568D01*
X-12755119Y-6821575D01*
X-12757471Y-6823428D01*
X-13046836Y-7099819D01*
X-13048795Y-7102084D01*
X-13048801Y-7102090D01*
X-13169273Y-7241359D01*
X-13193921Y-7269853D01*
X-13193931Y-7269864D01*
X-13197716Y-7274047D01*
X-13253519Y-7333003D01*
X-13261932Y-7348474D01*
X-13308628Y-7402456D01*
X-13424967Y-7566109D01*
X-13444278Y-7593274D01*
X-13447505Y-7597613D01*
X-13495099Y-7658822D01*
X-13501407Y-7673637D01*
X-13540480Y-7728600D01*
X-13541985Y-7731212D01*
X-13662286Y-7939950D01*
X-13664961Y-7944378D01*
X-13704202Y-8006431D01*
X-13708600Y-8020310D01*
X-13740291Y-8075298D01*
X-13845761Y-8306694D01*
X-13847896Y-8311146D01*
X-13878849Y-8372560D01*
X-13881575Y-8385268D01*
X-13906255Y-8439414D01*
X-13927031Y-8499579D01*
X-13992858Y-8690204D01*
X-13994475Y-8694619D01*
X-14017424Y-8753820D01*
X-14018742Y-8765159D01*
X-14036869Y-8817653D01*
X-14102005Y-9086928D01*
X-14103122Y-9091213D01*
X-14118626Y-9146631D01*
X-14118821Y-9156449D01*
X-14130951Y-9206591D01*
X-14171984Y-9493263D01*
X-14172648Y-9497404D01*
X-14181521Y-9547366D01*
X-14180901Y-9555558D01*
X-14187650Y-9602709D01*
X-14201894Y-9905516D01*
X-14202145Y-9909507D01*
X-14205521Y-9952303D01*
X-14204400Y-9958788D01*
X-14206453Y-10002423D01*
X-24538822Y-10002423D01*
X-24900499Y-9065658D01*
X-24902171Y-9061065D01*
X-25233301Y-8093299D01*
X-25234793Y-8088646D01*
X-25528148Y-7108774D01*
X-25529458Y-7104067D01*
X-25784593Y-6113572D01*
X-25785720Y-6108817D01*
X-25865611Y-5740000D01*
X2050039Y-5740000D01*
X2069829Y-5940935D01*
X2128440Y-6134147D01*
X2223619Y-6312214D01*
X2256088Y-6351777D01*
X2471346Y-6136519D01*
X2549064Y-6240912D01*
X2678894Y-6349853D01*
X2681146Y-6350984D01*
X2468220Y-6563910D01*
X2507785Y-6596380D01*
X2685852Y-6691559D01*
X2879064Y-6750170D01*
X3080000Y-6769960D01*
X3280935Y-6750170D01*
X3474145Y-6691560D01*
X3639603Y-6603120D01*
X3709109Y-6588648D01*
X3775405Y-6614051D01*
X3817444Y-6671264D01*
X3825000Y-6714242D01*
X3825000Y-8241155D01*
X3825420Y-8248407D01*
X3827909Y-8269876D01*
X3873212Y-8372478D01*
X3952520Y-8451786D01*
X4055122Y-8497089D01*
X4076592Y-8499579D01*
X4083853Y-8499999D01*
X4416155Y-8499999D01*
X4423407Y-8499579D01*
X4444872Y-8497090D01*
X4449099Y-8495224D01*
X4519494Y-8486002D01*
X4550896Y-8495222D01*
X4555125Y-8497089D01*
X4576592Y-8499579D01*
X4583853Y-8499999D01*
X4916155Y-8499999D01*
X4923407Y-8499579D01*
X4944872Y-8497090D01*
X4949099Y-8495224D01*
X5019494Y-8486002D01*
X5050896Y-8495222D01*
X5055125Y-8497089D01*
X5076592Y-8499579D01*
X5083853Y-8499999D01*
X5416155Y-8499999D01*
X5423407Y-8499579D01*
X5444872Y-8497090D01*
X5449099Y-8495224D01*
X5519494Y-8486002D01*
X5550896Y-8495222D01*
X5555125Y-8497089D01*
X5576592Y-8499579D01*
X5583853Y-8499999D01*
X5916155Y-8499999D01*
X5923407Y-8499579D01*
X5944872Y-8497090D01*
X5949099Y-8495224D01*
X6019494Y-8486002D01*
X6050896Y-8495222D01*
X6055125Y-8497089D01*
X6076592Y-8499579D01*
X6083853Y-8499999D01*
X6416155Y-8499999D01*
X6423407Y-8499579D01*
X6444872Y-8497090D01*
X6449099Y-8495224D01*
X6519494Y-8486002D01*
X6550896Y-8495222D01*
X6555125Y-8497089D01*
X6576592Y-8499579D01*
X6583853Y-8499999D01*
X6916155Y-8499999D01*
X6923407Y-8499579D01*
X6944872Y-8497090D01*
X6949099Y-8495224D01*
X7019494Y-8486002D01*
X7050896Y-8495222D01*
X7055125Y-8497089D01*
X7076592Y-8499579D01*
X7083853Y-8499999D01*
X7416155Y-8499999D01*
X7423407Y-8499579D01*
X7444872Y-8497090D01*
X7449099Y-8495224D01*
X7519494Y-8486002D01*
X7550896Y-8495222D01*
X7555125Y-8497089D01*
X7576592Y-8499579D01*
X7583853Y-8499999D01*
X7916155Y-8499999D01*
X7923407Y-8499579D01*
X7944872Y-8497090D01*
X7949099Y-8495224D01*
X8019494Y-8486002D01*
X8050896Y-8495222D01*
X8055125Y-8497089D01*
X8076592Y-8499579D01*
X8083853Y-8499999D01*
X8416155Y-8499999D01*
X8423407Y-8499579D01*
X8444872Y-8497090D01*
X8449099Y-8495224D01*
X8519494Y-8486002D01*
X8550896Y-8495222D01*
X8555125Y-8497089D01*
X8576592Y-8499579D01*
X8583853Y-8499999D01*
X8916155Y-8499999D01*
X8923407Y-8499579D01*
X8944872Y-8497090D01*
X8949099Y-8495224D01*
X9019494Y-8486002D01*
X9050896Y-8495222D01*
X9055125Y-8497089D01*
X9076592Y-8499579D01*
X9083853Y-8499999D01*
X9416155Y-8499999D01*
X9423407Y-8499579D01*
X9444872Y-8497090D01*
X9449099Y-8495224D01*
X9519494Y-8486002D01*
X9550896Y-8495222D01*
X9555125Y-8497089D01*
X9576592Y-8499579D01*
X9583853Y-8499999D01*
X9916155Y-8499999D01*
X9923407Y-8499579D01*
X9944872Y-8497090D01*
X9949099Y-8495224D01*
X10019494Y-8486002D01*
X10050896Y-8495222D01*
X10055125Y-8497089D01*
X10076592Y-8499579D01*
X10083853Y-8499999D01*
X10416155Y-8499999D01*
X10423407Y-8499579D01*
X10444872Y-8497090D01*
X10449099Y-8495224D01*
X10519494Y-8486002D01*
X10550896Y-8495222D01*
X10555125Y-8497089D01*
X10576592Y-8499579D01*
X10583853Y-8499999D01*
X10916155Y-8499999D01*
X10923407Y-8499579D01*
X10944872Y-8497090D01*
X10949099Y-8495224D01*
X11019494Y-8486002D01*
X11050896Y-8495222D01*
X11055125Y-8497089D01*
X11076592Y-8499579D01*
X11083853Y-8499999D01*
X11416155Y-8499999D01*
X11423407Y-8499579D01*
X11444872Y-8497090D01*
X11449099Y-8495224D01*
X11519494Y-8486002D01*
X11550896Y-8495222D01*
X11555125Y-8497089D01*
X11576592Y-8499579D01*
X11583853Y-8499999D01*
X11916155Y-8499999D01*
X11923407Y-8499579D01*
X11944872Y-8497090D01*
X11949099Y-8495224D01*
X12019494Y-8486002D01*
X12050896Y-8495222D01*
X12055125Y-8497089D01*
X12076592Y-8499579D01*
X12083853Y-8499999D01*
X12416155Y-8499999D01*
X12423407Y-8499579D01*
X12444872Y-8497090D01*
X12449099Y-8495224D01*
X12519494Y-8486002D01*
X12550896Y-8495222D01*
X12555125Y-8497089D01*
X12576592Y-8499579D01*
X12583853Y-8499999D01*
X12916155Y-8499999D01*
X12923407Y-8499579D01*
X12944872Y-8497090D01*
X12949099Y-8495224D01*
X13019494Y-8486002D01*
X13050896Y-8495222D01*
X13055125Y-8497089D01*
X13076592Y-8499579D01*
X13083853Y-8499999D01*
X13416155Y-8499999D01*
X13423407Y-8499579D01*
X13444872Y-8497090D01*
X13449099Y-8495224D01*
X13519494Y-8486002D01*
X13550896Y-8495222D01*
X13555125Y-8497089D01*
X13576592Y-8499579D01*
X13583853Y-8499999D01*
X13916155Y-8499999D01*
X13923407Y-8499579D01*
X13944876Y-8497090D01*
X14047478Y-8451787D01*
X14126786Y-8372479D01*
X14172089Y-8269877D01*
X14174579Y-8248407D01*
X14174999Y-8241146D01*
X14174999Y-6714242D01*
X14195001Y-6646121D01*
X14248657Y-6599628D01*
X14318931Y-6589524D01*
X14360396Y-6603120D01*
X14525854Y-6691560D01*
X14719064Y-6750170D01*
X14920000Y-6769960D01*
X15120935Y-6750170D01*
X15314145Y-6691560D01*
X15492217Y-6596377D01*
X15531777Y-6563910D01*
X15315499Y-6347632D01*
X15389194Y-6299163D01*
X15505499Y-6175888D01*
X15528382Y-6136251D01*
X15743909Y-6351778D01*
X15743910Y-6351777D01*
X15776377Y-6312217D01*
X15871560Y-6134145D01*
X15930170Y-5940935D01*
X15949960Y-5739999D01*
X15930170Y-5539064D01*
X15871559Y-5345852D01*
X15776380Y-5167785D01*
X15743909Y-5128220D01*
X15528651Y-5343477D01*
X15450936Y-5239088D01*
X15321106Y-5130147D01*
X15318851Y-5129014D01*
X15531778Y-4916088D01*
X15492214Y-4883619D01*
X15314147Y-4788440D01*
X15120935Y-4729829D01*
X14920000Y-4710039D01*
X14719064Y-4729829D01*
X14525854Y-4788439D01*
X14347781Y-4883622D01*
X14308220Y-4916088D01*
X14308220Y-4916089D01*
X14524498Y-5132367D01*
X14450806Y-5180837D01*
X14334501Y-5304112D01*
X14311616Y-5343748D01*
X14096088Y-5128220D01*
X14063622Y-5167781D01*
X13968439Y-5345854D01*
X13909829Y-5539064D01*
X13890039Y-5739999D01*
X13909829Y-5940930D01*
X13939100Y-6037424D01*
X13939733Y-6108418D01*
X13901884Y-6168484D01*
X13837569Y-6198553D01*
X13818526Y-6200000D01*
X13583844Y-6200000D01*
X13576592Y-6200420D01*
X13555121Y-6202910D01*
X13550886Y-6204780D01*
X13480490Y-6213993D01*
X13449109Y-6204779D01*
X13444877Y-6202910D01*
X13423407Y-6200420D01*
X13416146Y-6200000D01*
X13083844Y-6200000D01*
X13076592Y-6200420D01*
X13055121Y-6202910D01*
X13050886Y-6204780D01*
X12980490Y-6213993D01*
X12949109Y-6204779D01*
X12944877Y-6202910D01*
X12923407Y-6200420D01*
X12916146Y-6200000D01*
X12583844Y-6200000D01*
X12576592Y-6200420D01*
X12555121Y-6202910D01*
X12550886Y-6204780D01*
X12480490Y-6213993D01*
X12449109Y-6204779D01*
X12444877Y-6202910D01*
X12423407Y-6200420D01*
X12416146Y-6200000D01*
X12083844Y-6200000D01*
X12076592Y-6200420D01*
X12055121Y-6202910D01*
X12050886Y-6204780D01*
X11980490Y-6213993D01*
X11949109Y-6204779D01*
X11944877Y-6202910D01*
X11923407Y-6200420D01*
X11916146Y-6200000D01*
X11583844Y-6200000D01*
X11576592Y-6200420D01*
X11555121Y-6202910D01*
X11550886Y-6204780D01*
X11480490Y-6213993D01*
X11449109Y-6204779D01*
X11444877Y-6202910D01*
X11423407Y-6200420D01*
X11416146Y-6200000D01*
X11083844Y-6200000D01*
X11076592Y-6200420D01*
X11055121Y-6202910D01*
X11050886Y-6204780D01*
X10980490Y-6213993D01*
X10949109Y-6204779D01*
X10944877Y-6202910D01*
X10923407Y-6200420D01*
X10916146Y-6200000D01*
X10583844Y-6200000D01*
X10576592Y-6200420D01*
X10555121Y-6202910D01*
X10550886Y-6204780D01*
X10480490Y-6213993D01*
X10449109Y-6204779D01*
X10444877Y-6202910D01*
X10423407Y-6200420D01*
X10416146Y-6200000D01*
X10083844Y-6200000D01*
X10076592Y-6200420D01*
X10055121Y-6202910D01*
X10050886Y-6204780D01*
X9980490Y-6213993D01*
X9949109Y-6204779D01*
X9944877Y-6202910D01*
X9923407Y-6200420D01*
X9916146Y-6200000D01*
X9583844Y-6200000D01*
X9576592Y-6200420D01*
X9555121Y-6202910D01*
X9550886Y-6204780D01*
X9480490Y-6213993D01*
X9449109Y-6204779D01*
X9444877Y-6202910D01*
X9423407Y-6200420D01*
X9416146Y-6200000D01*
X9083844Y-6200000D01*
X9076592Y-6200420D01*
X9055121Y-6202910D01*
X9050886Y-6204780D01*
X8980490Y-6213993D01*
X8949109Y-6204779D01*
X8944877Y-6202910D01*
X8923407Y-6200420D01*
X8916146Y-6200000D01*
X8583844Y-6200000D01*
X8576592Y-6200420D01*
X8555121Y-6202910D01*
X8550886Y-6204780D01*
X8480490Y-6213993D01*
X8449109Y-6204779D01*
X8444877Y-6202910D01*
X8423407Y-6200420D01*
X8416146Y-6200000D01*
X8083844Y-6200000D01*
X8076592Y-6200420D01*
X8055121Y-6202910D01*
X8050886Y-6204780D01*
X7980490Y-6213993D01*
X7949109Y-6204779D01*
X7944877Y-6202910D01*
X7923407Y-6200420D01*
X7916146Y-6200000D01*
X7583844Y-6200000D01*
X7576592Y-6200420D01*
X7555121Y-6202910D01*
X7550886Y-6204780D01*
X7480490Y-6213993D01*
X7449109Y-6204779D01*
X7444877Y-6202910D01*
X7423407Y-6200420D01*
X7416146Y-6200000D01*
X7083844Y-6200000D01*
X7076592Y-6200420D01*
X7055121Y-6202910D01*
X7050886Y-6204780D01*
X6980490Y-6213993D01*
X6949109Y-6204779D01*
X6944877Y-6202910D01*
X6923407Y-6200420D01*
X6916146Y-6200000D01*
X6583844Y-6200000D01*
X6576592Y-6200420D01*
X6555121Y-6202910D01*
X6550886Y-6204780D01*
X6480490Y-6213993D01*
X6449109Y-6204779D01*
X6444877Y-6202910D01*
X6423407Y-6200420D01*
X6416146Y-6200000D01*
X6083844Y-6200000D01*
X6076592Y-6200420D01*
X6055121Y-6202910D01*
X6050886Y-6204780D01*
X5980490Y-6213993D01*
X5949109Y-6204779D01*
X5944877Y-6202910D01*
X5923407Y-6200420D01*
X5916146Y-6200000D01*
X5583844Y-6200000D01*
X5576592Y-6200420D01*
X5555121Y-6202910D01*
X5550886Y-6204780D01*
X5480490Y-6213993D01*
X5449109Y-6204779D01*
X5444877Y-6202910D01*
X5423407Y-6200420D01*
X5416146Y-6200000D01*
X5083844Y-6200000D01*
X5076592Y-6200420D01*
X5055121Y-6202910D01*
X5050886Y-6204780D01*
X4980490Y-6213993D01*
X4949109Y-6204779D01*
X4944877Y-6202910D01*
X4923407Y-6200420D01*
X4916146Y-6200000D01*
X4583844Y-6200000D01*
X4576592Y-6200420D01*
X4555121Y-6202910D01*
X4550886Y-6204780D01*
X4480490Y-6213993D01*
X4449109Y-6204779D01*
X4444877Y-6202910D01*
X4423407Y-6200420D01*
X4416146Y-6200000D01*
X4181474Y-6200000D01*
X4113353Y-6179998D01*
X4066860Y-6126342D01*
X4056756Y-6056068D01*
X4060900Y-6037423D01*
X4090170Y-5940933D01*
X4109960Y-5740000D01*
X4090170Y-5539064D01*
X4031559Y-5345852D01*
X3936380Y-5167785D01*
X3903910Y-5128220D01*
X3688652Y-5343478D01*
X3610936Y-5239088D01*
X3481106Y-5130147D01*
X3478851Y-5129014D01*
X3691778Y-4916088D01*
X3652214Y-4883619D01*
X3474147Y-4788440D01*
X3280935Y-4729829D01*
X3080000Y-4710039D01*
X2879064Y-4729829D01*
X2685854Y-4788439D01*
X2507781Y-4883622D01*
X2468220Y-4916088D01*
X2468220Y-4916089D01*
X2684498Y-5132367D01*
X2610806Y-5180837D01*
X2494501Y-5304112D01*
X2471617Y-5343748D01*
X2256089Y-5128220D01*
X2256088Y-5128220D01*
X2223622Y-5167781D01*
X2128439Y-5345854D01*
X2069829Y-5539064D01*
X2050039Y-5740000D01*
X-25865611Y-5740000D01*
X-26002256Y-5109174D01*
X-26003198Y-5104379D01*
X-26180813Y-4097075D01*
X-26181568Y-4092247D01*
X-26229681Y-3740000D01*
X500286Y-3740000D01*
X519096Y-3942988D01*
X574884Y-4139064D01*
X665755Y-4321556D01*
X728379Y-4404486D01*
X728381Y-4404486D01*
X1160184Y-3972682D01*
X1223239Y-4070798D01*
X1331900Y-4164952D01*
X1373281Y-4183850D01*
X937321Y-4619809D01*
X937321Y-4619811D01*
X939261Y-4621580D01*
X1112584Y-4728898D01*
X1302680Y-4802540D01*
X1503072Y-4840000D01*
X1706928Y-4840000D01*
X1907319Y-4802540D01*
X2097414Y-4728898D01*
X2270735Y-4621581D01*
X2272678Y-4619809D01*
X1836719Y-4183850D01*
X1878100Y-4164952D01*
X1986761Y-4070798D01*
X2049814Y-3972683D01*
X2481617Y-4404486D01*
X2481619Y-4404486D01*
X2544244Y-4321558D01*
X2635115Y-4139064D01*
X2690903Y-3942988D01*
X2709713Y-3740000D01*
X15290286Y-3740000D01*
X15309096Y-3942988D01*
X15364884Y-4139064D01*
X15455755Y-4321556D01*
X15518380Y-4404486D01*
X15950184Y-3972682D01*
X16013239Y-4070798D01*
X16121900Y-4164952D01*
X16163281Y-4183850D01*
X15727321Y-4619809D01*
X15727321Y-4619811D01*
X15729261Y-4621580D01*
X15902584Y-4728898D01*
X16092680Y-4802540D01*
X16293072Y-4840000D01*
X16496928Y-4840000D01*
X16697319Y-4802540D01*
X16887414Y-4728898D01*
X17060735Y-4621581D01*
X17062678Y-4619809D01*
X16626719Y-4183850D01*
X16668100Y-4164952D01*
X16776761Y-4070798D01*
X16839814Y-3972683D01*
X17271617Y-4404486D01*
X17271619Y-4404486D01*
X17334244Y-4321558D01*
X17425115Y-4139064D01*
X17480903Y-3942988D01*
X17499713Y-3740000D01*
X17480903Y-3537011D01*
X17425115Y-3340935D01*
X17334244Y-3158443D01*
X17271618Y-3075512D01*
X16839814Y-3507315D01*
X16776761Y-3409202D01*
X16668100Y-3315048D01*
X16626717Y-3296149D01*
X17062677Y-2860189D01*
X17062677Y-2860188D01*
X17060736Y-2858418D01*
X16887414Y-2751101D01*
X16697319Y-2677459D01*
X16496928Y-2640000D01*
X16293072Y-2640000D01*
X16092680Y-2677459D01*
X15902585Y-2751101D01*
X15729263Y-2858419D01*
X15727320Y-2860189D01*
X16163280Y-3296149D01*
X16121900Y-3315048D01*
X16013239Y-3409202D01*
X15950185Y-3507316D01*
X15518381Y-3075512D01*
X15518379Y-3075512D01*
X15455754Y-3158442D01*
X15364884Y-3340935D01*
X15309096Y-3537011D01*
X15290286Y-3740000D01*
X2709713Y-3740000D01*
X2690903Y-3537011D01*
X2635115Y-3340935D01*
X2544244Y-3158443D01*
X2481618Y-3075512D01*
X2049814Y-3507315D01*
X1986761Y-3409202D01*
X1878100Y-3315048D01*
X1836718Y-3296149D01*
X2272677Y-2860190D01*
X2272677Y-2860188D01*
X2270736Y-2858418D01*
X2097414Y-2751101D01*
X1907319Y-2677459D01*
X1706928Y-2640000D01*
X1503072Y-2640000D01*
X1302680Y-2677459D01*
X1112585Y-2751101D01*
X939263Y-2858419D01*
X937321Y-2860189D01*
X1373281Y-3296149D01*
X1331900Y-3315048D01*
X1223239Y-3409202D01*
X1160184Y-3507316D01*
X728380Y-3075512D01*
X728379Y-3075512D01*
X665754Y-3158442D01*
X574884Y-3340935D01*
X519096Y-3537011D01*
X500286Y-3740000D01*
X-26229681Y-3740000D01*
X-26319990Y-3078816D01*
X-26320557Y-3073962D01*
X-26419576Y-2055950D01*
X-26419955Y-2051078D01*
X-26479429Y-1029955D01*
X-26479618Y-1025072D01*
X-26499452Y-2443D01*
X-26499452Y0D01*
X1569195Y0D01*
X1583362Y-89442D01*
X1590281Y-133126D01*
X1613420Y-178538D01*
X1651473Y-253222D01*
X1694391Y-296140D01*
X1728417Y-358452D01*
X1728692Y-389262D01*
X1735392Y-422948D01*
X1736000Y-426002D01*
X1751317Y-503008D01*
X1809667Y-590333D01*
X1821394Y-598169D01*
X1840485Y-613837D01*
X4037595Y-2810948D01*
X4071621Y-2873260D01*
X4074500Y-2900043D01*
X4074500Y-3504971D01*
X4077429Y-3519702D01*
X4077429Y-3519703D01*
X4077430Y-3519704D01*
X4088592Y-3536408D01*
X4105296Y-3547570D01*
X4120027Y-3550500D01*
X4379972Y-3550499D01*
X4394704Y-3547570D01*
X4411408Y-3536408D01*
X4411408Y-3536406D01*
X4429994Y-3523988D01*
X4497746Y-3502770D01*
X4566214Y-3521551D01*
X4570005Y-3523987D01*
X4588590Y-3536406D01*
X4588592Y-3536408D01*
X4605296Y-3547570D01*
X4620027Y-3550500D01*
X4879972Y-3550499D01*
X4894704Y-3547570D01*
X4911408Y-3536408D01*
X4911408Y-3536406D01*
X4929994Y-3523988D01*
X4997746Y-3502770D01*
X5066214Y-3521551D01*
X5070005Y-3523987D01*
X5088590Y-3536406D01*
X5088592Y-3536408D01*
X5105296Y-3547570D01*
X5120027Y-3550500D01*
X5379972Y-3550499D01*
X5394704Y-3547570D01*
X5411408Y-3536408D01*
X5411408Y-3536406D01*
X5429994Y-3523988D01*
X5497746Y-3502770D01*
X5566214Y-3521551D01*
X5570005Y-3523987D01*
X5588590Y-3536406D01*
X5588592Y-3536408D01*
X5605296Y-3547570D01*
X5620027Y-3550500D01*
X5879972Y-3550499D01*
X5894704Y-3547570D01*
X5911408Y-3536408D01*
X5911408Y-3536406D01*
X5929994Y-3523988D01*
X5997746Y-3502770D01*
X6066214Y-3521551D01*
X6070005Y-3523987D01*
X6088590Y-3536406D01*
X6088592Y-3536408D01*
X6105296Y-3547570D01*
X6120027Y-3550500D01*
X6379972Y-3550499D01*
X6394704Y-3547570D01*
X6411408Y-3536408D01*
X6411408Y-3536406D01*
X6429994Y-3523988D01*
X6497746Y-3502770D01*
X6566214Y-3521551D01*
X6570005Y-3523987D01*
X6588590Y-3536406D01*
X6588592Y-3536408D01*
X6605296Y-3547570D01*
X6620027Y-3550500D01*
X6879972Y-3550499D01*
X6894704Y-3547570D01*
X6911408Y-3536408D01*
X6911408Y-3536406D01*
X6929994Y-3523988D01*
X6997746Y-3502770D01*
X7066214Y-3521551D01*
X7070005Y-3523987D01*
X7088590Y-3536406D01*
X7088592Y-3536408D01*
X7105296Y-3547570D01*
X7120027Y-3550500D01*
X7379972Y-3550499D01*
X7394704Y-3547570D01*
X7411408Y-3536408D01*
X7411408Y-3536406D01*
X7429994Y-3523988D01*
X7497746Y-3502770D01*
X7566214Y-3521551D01*
X7570005Y-3523987D01*
X7588590Y-3536406D01*
X7588592Y-3536408D01*
X7605296Y-3547570D01*
X7620027Y-3550500D01*
X7879972Y-3550499D01*
X7894704Y-3547570D01*
X7911408Y-3536408D01*
X7911408Y-3536406D01*
X7929994Y-3523988D01*
X7997746Y-3502770D01*
X8066214Y-3521551D01*
X8070005Y-3523987D01*
X8088590Y-3536406D01*
X8088592Y-3536408D01*
X8105296Y-3547570D01*
X8120027Y-3550500D01*
X8379972Y-3550499D01*
X8394704Y-3547570D01*
X8411408Y-3536408D01*
X8411408Y-3536406D01*
X8429994Y-3523988D01*
X8497746Y-3502770D01*
X8566214Y-3521551D01*
X8570005Y-3523987D01*
X8588590Y-3536406D01*
X8588592Y-3536408D01*
X8605296Y-3547570D01*
X8620027Y-3550500D01*
X8879972Y-3550499D01*
X8894704Y-3547570D01*
X8911408Y-3536408D01*
X8911408Y-3536406D01*
X8929994Y-3523988D01*
X8997746Y-3502770D01*
X9066214Y-3521551D01*
X9070005Y-3523987D01*
X9088590Y-3536406D01*
X9088592Y-3536408D01*
X9105296Y-3547570D01*
X9120027Y-3550500D01*
X9379972Y-3550499D01*
X9394704Y-3547570D01*
X9411408Y-3536408D01*
X9411408Y-3536406D01*
X9429994Y-3523988D01*
X9497746Y-3502770D01*
X9566214Y-3521551D01*
X9570005Y-3523987D01*
X9588590Y-3536406D01*
X9588592Y-3536408D01*
X9605296Y-3547570D01*
X9620027Y-3550500D01*
X9879972Y-3550499D01*
X9894704Y-3547570D01*
X9911408Y-3536408D01*
X9911408Y-3536406D01*
X9929994Y-3523988D01*
X9997746Y-3502770D01*
X10066214Y-3521551D01*
X10070005Y-3523987D01*
X10088590Y-3536406D01*
X10088592Y-3536408D01*
X10105296Y-3547570D01*
X10120027Y-3550500D01*
X10379972Y-3550499D01*
X10394704Y-3547570D01*
X10411408Y-3536408D01*
X10411408Y-3536406D01*
X10429994Y-3523988D01*
X10497746Y-3502770D01*
X10566214Y-3521551D01*
X10570005Y-3523987D01*
X10588590Y-3536406D01*
X10588592Y-3536408D01*
X10605296Y-3547570D01*
X10620027Y-3550500D01*
X10879972Y-3550499D01*
X10894704Y-3547570D01*
X10911408Y-3536408D01*
X10911408Y-3536406D01*
X10929994Y-3523988D01*
X10997746Y-3502770D01*
X11066214Y-3521551D01*
X11070005Y-3523987D01*
X11088590Y-3536406D01*
X11088592Y-3536408D01*
X11105296Y-3547570D01*
X11120027Y-3550500D01*
X11379972Y-3550499D01*
X11394704Y-3547570D01*
X11411408Y-3536408D01*
X11411408Y-3536406D01*
X11429994Y-3523988D01*
X11497746Y-3502770D01*
X11566214Y-3521551D01*
X11570005Y-3523987D01*
X11588590Y-3536406D01*
X11588592Y-3536408D01*
X11605296Y-3547570D01*
X11620027Y-3550500D01*
X11879972Y-3550499D01*
X11894704Y-3547570D01*
X11911408Y-3536408D01*
X11911408Y-3536406D01*
X11929994Y-3523988D01*
X11997746Y-3502770D01*
X12066214Y-3521551D01*
X12070005Y-3523987D01*
X12088590Y-3536406D01*
X12088592Y-3536408D01*
X12105296Y-3547570D01*
X12120027Y-3550500D01*
X12379972Y-3550499D01*
X12394704Y-3547570D01*
X12411408Y-3536408D01*
X12411408Y-3536406D01*
X12429994Y-3523988D01*
X12497746Y-3502770D01*
X12566214Y-3521551D01*
X12570005Y-3523987D01*
X12588590Y-3536406D01*
X12588592Y-3536408D01*
X12605296Y-3547570D01*
X12620027Y-3550500D01*
X12879972Y-3550499D01*
X12894704Y-3547570D01*
X12911408Y-3536408D01*
X12911408Y-3536406D01*
X12929994Y-3523988D01*
X12997746Y-3502770D01*
X13066214Y-3521551D01*
X13070005Y-3523987D01*
X13088590Y-3536406D01*
X13088592Y-3536408D01*
X13105296Y-3547570D01*
X13120027Y-3550500D01*
X13379972Y-3550499D01*
X13394704Y-3547570D01*
X13411408Y-3536408D01*
X13411408Y-3536406D01*
X13429994Y-3523988D01*
X13497746Y-3502770D01*
X13566214Y-3521551D01*
X13570005Y-3523987D01*
X13588590Y-3536406D01*
X13588592Y-3536408D01*
X13605296Y-3547570D01*
X13620027Y-3550500D01*
X13879972Y-3550499D01*
X13894704Y-3547570D01*
X13911408Y-3536408D01*
X13922570Y-3519704D01*
X13925500Y-3504973D01*
X13925499Y-2900040D01*
X13945501Y-2831920D01*
X13962399Y-2810951D01*
X16038826Y-734524D01*
X16057914Y-718859D01*
X16069644Y-711022D01*
X16127994Y-623697D01*
X16143311Y-546691D01*
X16143311Y-546690D01*
X16145732Y-534520D01*
X16145732Y-534515D01*
X16148482Y-520688D01*
X16145732Y-506861D01*
X16143311Y-482282D01*
X16143311Y-178538D01*
X16163313Y-110417D01*
X16180216Y-89442D01*
X16227839Y-41820D01*
X16289030Y78274D01*
X16310115Y211400D01*
X16289030Y344526D01*
X16227839Y464620D01*
X16132531Y559928D01*
X16012437Y621119D01*
X15879311Y642204D01*
X15746185Y621119D01*
X15626091Y559928D01*
X15626090Y559927D01*
X15626088Y559926D01*
X15530783Y464621D01*
X15525887Y455012D01*
X15477138Y403398D01*
X15408223Y386333D01*
X15393921Y387766D01*
X15273984Y406763D01*
X15273983Y406762D01*
X15273983Y406763D01*
X15255781Y403879D01*
X15140858Y385678D01*
X15020764Y324487D01*
X15020763Y324486D01*
X15020761Y324485D01*
X15020184Y323908D01*
X14957872Y289882D01*
X14887057Y294947D01*
X14873890Y300734D01*
X14758126Y359719D01*
X14625000Y380804D01*
X14491874Y359719D01*
X14457611Y342261D01*
X14387838Y329157D01*
X14322053Y355856D01*
X14311323Y365424D01*
X14228220Y448528D01*
X14108126Y509719D01*
X13975000Y530804D01*
X13841874Y509719D01*
X13721780Y448528D01*
X13721779Y448527D01*
X13721777Y448526D01*
X13689095Y415844D01*
X13626783Y381818D01*
X13555968Y386883D01*
X13510905Y415844D01*
X13478222Y448526D01*
X13478220Y448528D01*
X13358126Y509719D01*
X13225000Y530804D01*
X13091874Y509719D01*
X12971780Y448528D01*
X12926593Y403341D01*
X12864284Y369318D01*
X12793469Y374382D01*
X12766147Y391940D01*
X12753222Y398525D01*
X12753220Y398528D01*
X12633126Y459719D01*
X12500000Y480804D01*
X12366874Y459719D01*
X12246780Y398528D01*
X12246779Y398527D01*
X12246777Y398526D01*
X12199788Y351537D01*
X12137476Y317511D01*
X12066661Y322576D01*
X12053490Y328365D01*
X12045292Y332542D01*
X11955187Y378453D01*
X11822061Y399538D01*
X11688935Y378453D01*
X11613122Y339824D01*
X11594526Y330349D01*
X11524750Y317244D01*
X11458965Y343944D01*
X11448235Y353512D01*
X11428220Y373528D01*
X11308126Y434719D01*
X11175000Y455804D01*
X11041874Y434719D01*
X10921780Y373528D01*
X10921779Y373527D01*
X10921777Y373526D01*
X10889095Y340844D01*
X10826783Y306818D01*
X10755968Y311883D01*
X10710905Y340844D01*
X10678222Y373526D01*
X10678220Y373528D01*
X10558126Y434719D01*
X10425000Y455804D01*
X10291874Y434719D01*
X10171780Y373528D01*
X10151594Y353342D01*
X10089285Y319318D01*
X10018469Y324382D01*
X9973405Y353342D01*
X9953220Y373528D01*
X9833126Y434719D01*
X9700000Y455804D01*
X9566874Y434719D01*
X9446780Y373528D01*
X9446779Y373527D01*
X9446777Y373526D01*
X9420864Y347613D01*
X9358552Y313587D01*
X9287737Y318652D01*
X9242673Y347614D01*
X9239973Y350315D01*
X9119879Y411506D01*
X8986753Y432591D01*
X8853627Y411506D01*
X8733535Y350316D01*
X8715752Y341255D01*
X8713985Y344722D01*
X8682437Y327489D01*
X8611621Y332542D01*
X8598430Y338338D01*
X8590521Y342367D01*
X8590520Y342369D01*
X8470426Y403560D01*
X8337300Y424645D01*
X8204174Y403560D01*
X8104802Y352927D01*
X8035027Y339824D01*
X7969242Y366524D01*
X7958512Y376094D01*
X7942895Y391712D01*
X7822801Y452903D01*
X7689675Y473988D01*
X7556549Y452903D01*
X7436455Y391712D01*
X7436454Y391711D01*
X7421986Y384339D01*
X7352209Y371235D01*
X7306985Y389590D01*
X7305414Y386506D01*
X7287633Y395565D01*
X7287633Y395566D01*
X7167539Y456757D01*
X7034413Y477842D01*
X6901287Y456757D01*
X6781193Y395566D01*
X6781192Y395565D01*
X6781190Y395564D01*
X6778439Y392813D01*
X6716127Y358787D01*
X6645312Y363852D01*
X6600248Y392813D01*
X6593946Y399116D01*
X6473852Y460307D01*
X6340726Y481392D01*
X6207600Y460307D01*
X6087506Y399116D01*
X6087505Y399115D01*
X6087503Y399114D01*
X6034164Y345775D01*
X5971852Y311749D01*
X5901037Y316814D01*
X5855974Y345775D01*
X5853222Y348526D01*
X5853220Y348528D01*
X5733126Y409719D01*
X5600000Y430804D01*
X5466874Y409719D01*
X5346780Y348528D01*
X5346779Y348527D01*
X5346777Y348526D01*
X5289095Y290844D01*
X5226783Y256818D01*
X5155968Y261883D01*
X5110905Y290844D01*
X5053222Y348526D01*
X5053220Y348528D01*
X4933126Y409719D01*
X4800000Y430804D01*
X4666874Y409719D01*
X4546780Y348528D01*
X4546779Y348527D01*
X4546777Y348526D01*
X4489095Y290844D01*
X4426783Y256818D01*
X4355968Y261883D01*
X4310905Y290844D01*
X4253222Y348526D01*
X4253220Y348528D01*
X4133126Y409719D01*
X4000000Y430804D01*
X3866874Y409719D01*
X3746780Y348528D01*
X3689093Y290841D01*
X3626784Y256818D01*
X3555968Y261882D01*
X3510906Y290841D01*
X3453220Y348528D01*
X3333126Y409719D01*
X3200000Y430804D01*
X3066874Y409719D01*
X2946780Y348528D01*
X2946779Y348527D01*
X2946777Y348526D01*
X2851473Y253222D01*
X2851472Y253220D01*
X2790281Y133126D01*
X2790281Y133125D01*
X2769195Y0D01*
X2783362Y-89442D01*
X2790281Y-133126D01*
X2813420Y-178538D01*
X2851473Y-253222D01*
X2946777Y-348526D01*
X2946779Y-348527D01*
X2946780Y-348528D01*
X3066874Y-409719D01*
X3200000Y-430804D01*
X3200000Y-430803D01*
X3219712Y-433926D01*
X3219184Y-437256D01*
X3256579Y-442082D01*
X3294993Y-468345D01*
X4361053Y-1534405D01*
X4395079Y-1596717D01*
X4390014Y-1667532D01*
X4347467Y-1724368D01*
X4280947Y-1749179D01*
X4271959Y-1749500D01*
X4120028Y-1749500D01*
X4105297Y-1752429D01*
X4088591Y-1763593D01*
X4077430Y-1780296D01*
X4074500Y-1795027D01*
X4074500Y-1796957D01*
X4073310Y-1801008D01*
X4072079Y-1807199D01*
X4071525Y-1807088D01*
X4054498Y-1865078D01*
X4000842Y-1911571D01*
X3930568Y-1921675D01*
X3865988Y-1892181D01*
X3859405Y-1886052D01*
X2372095Y-398742D01*
X2338069Y-336430D01*
X2343134Y-265615D01*
X2348923Y-252444D01*
X2409719Y-133126D01*
X2430804Y0D01*
X2409719Y133126D01*
X2348528Y253220D01*
X2253220Y348528D01*
X2133126Y409719D01*
X2000000Y430804D01*
X1866874Y409719D01*
X1746780Y348528D01*
X1746779Y348527D01*
X1746777Y348526D01*
X1651473Y253222D01*
X1651472Y253220D01*
X1590281Y133126D01*
X1590281Y133125D01*
X1569195Y0D01*
X-26499452Y0D01*
X-26499452Y2443D01*
X-26479618Y1025072D01*
X-26479429Y1029955D01*
X-26419955Y2051078D01*
X-26419576Y2055950D01*
X-26320557Y3073962D01*
X-26319990Y3078816D01*
X-26229681Y3740000D01*
X500286Y3740000D01*
X519096Y3537011D01*
X574884Y3340935D01*
X665754Y3158442D01*
X728379Y3075512D01*
X728380Y3075512D01*
X1160184Y3507317D01*
X1223239Y3409202D01*
X1331900Y3315048D01*
X1373280Y3296149D01*
X937320Y2860189D01*
X939263Y2858419D01*
X1112585Y2751101D01*
X1302680Y2677459D01*
X1503072Y2640000D01*
X1706928Y2640000D01*
X1907319Y2677459D01*
X2097414Y2751101D01*
X2270736Y2858418D01*
X2272677Y2860188D01*
X2272677Y2860189D01*
X1836717Y3296149D01*
X1878100Y3315048D01*
X1986761Y3409202D01*
X2049814Y3507316D01*
X2481618Y3075512D01*
X2481619Y3075512D01*
X2544244Y3158443D01*
X2635115Y3340935D01*
X2690903Y3537011D01*
X2709713Y3740000D01*
X15290286Y3740000D01*
X15309096Y3537011D01*
X15364884Y3340935D01*
X15455754Y3158442D01*
X15518379Y3075512D01*
X15518381Y3075512D01*
X15950185Y3507316D01*
X16013239Y3409202D01*
X16121900Y3315048D01*
X16163280Y3296149D01*
X15727320Y2860189D01*
X15729263Y2858419D01*
X15902585Y2751101D01*
X16092680Y2677459D01*
X16293072Y2640000D01*
X16496928Y2640000D01*
X16697319Y2677459D01*
X16887414Y2751101D01*
X17060736Y2858418D01*
X17062677Y2860188D01*
X17062677Y2860189D01*
X16626717Y3296149D01*
X16668100Y3315048D01*
X16776761Y3409202D01*
X16839814Y3507316D01*
X17271618Y3075512D01*
X17271619Y3075512D01*
X17334244Y3158443D01*
X17425115Y3340935D01*
X17480903Y3537011D01*
X17499713Y3740000D01*
X17480903Y3942988D01*
X17425115Y4139064D01*
X17334244Y4321558D01*
X17271619Y4404486D01*
X17271617Y4404486D01*
X16839814Y3972683D01*
X16776761Y4070798D01*
X16668100Y4164952D01*
X16626719Y4183850D01*
X17062678Y4619809D01*
X17060735Y4621581D01*
X16887414Y4728898D01*
X16697319Y4802540D01*
X16496928Y4840000D01*
X16293072Y4840000D01*
X16092680Y4802540D01*
X15902584Y4728898D01*
X15729261Y4621580D01*
X15727321Y4619811D01*
X15727321Y4619809D01*
X16163281Y4183850D01*
X16121900Y4164952D01*
X16013239Y4070798D01*
X15950184Y3972682D01*
X15518380Y4404486D01*
X15518379Y4404486D01*
X15455755Y4321556D01*
X15364884Y4139064D01*
X15309096Y3942988D01*
X15290286Y3740000D01*
X2709713Y3740000D01*
X2690903Y3942988D01*
X2635115Y4139064D01*
X2544244Y4321558D01*
X2481619Y4404486D01*
X2481617Y4404486D01*
X2049814Y3972683D01*
X1986761Y4070798D01*
X1878100Y4164952D01*
X1836719Y4183850D01*
X2272678Y4619809D01*
X2270735Y4621581D01*
X2097414Y4728898D01*
X1907319Y4802540D01*
X1706928Y4840000D01*
X1503072Y4840000D01*
X1302680Y4802540D01*
X1112584Y4728898D01*
X939261Y4621580D01*
X937321Y4619811D01*
X937321Y4619809D01*
X1373281Y4183850D01*
X1331900Y4164952D01*
X1223239Y4070798D01*
X1160184Y3972682D01*
X728381Y4404486D01*
X728379Y4404486D01*
X665755Y4321556D01*
X574884Y4139064D01*
X519096Y3942988D01*
X500286Y3740000D01*
X-26229681Y3740000D01*
X-26181568Y4092247D01*
X-26180813Y4097075D01*
X-26003198Y5104379D01*
X-26002256Y5109174D01*
X-25865611Y5740000D01*
X2050039Y5740000D01*
X2069829Y5539064D01*
X2128439Y5345854D01*
X2223622Y5167781D01*
X2256089Y5128220D01*
X2471347Y5343478D01*
X2549064Y5239088D01*
X2678894Y5130147D01*
X2681146Y5129015D01*
X2468220Y4916089D01*
X2468220Y4916088D01*
X2507781Y4883622D01*
X2685854Y4788439D01*
X2879064Y4729829D01*
X3080000Y4710039D01*
X3280935Y4729829D01*
X3474147Y4788440D01*
X3652214Y4883619D01*
X3691778Y4916088D01*
X3475499Y5132367D01*
X3549194Y5180837D01*
X3665499Y5304112D01*
X3688382Y5343748D01*
X3903910Y5128221D01*
X3936380Y5167785D01*
X4031559Y5345852D01*
X4090170Y5539064D01*
X4109960Y5740000D01*
X13890039Y5740000D01*
X13909829Y5539064D01*
X13968439Y5345854D01*
X14063622Y5167781D01*
X14096089Y5128220D01*
X14311347Y5343478D01*
X14389064Y5239088D01*
X14518894Y5130147D01*
X14521146Y5129015D01*
X14308220Y4916089D01*
X14308220Y4916088D01*
X14347781Y4883622D01*
X14525854Y4788439D01*
X14719064Y4729829D01*
X14920000Y4710039D01*
X15120935Y4729829D01*
X15314147Y4788440D01*
X15492214Y4883619D01*
X15531778Y4916088D01*
X15315499Y5132367D01*
X15389194Y5180837D01*
X15505499Y5304112D01*
X15528382Y5343748D01*
X15743910Y5128221D01*
X15776380Y5167785D01*
X15871559Y5345852D01*
X15930170Y5539064D01*
X15949961Y5740000D01*
X15930170Y5940935D01*
X15871560Y6134145D01*
X15776377Y6312217D01*
X15743910Y6351777D01*
X15743909Y6351778D01*
X15528652Y6136521D01*
X15450936Y6240912D01*
X15321106Y6349853D01*
X15318853Y6350984D01*
X15531778Y6563909D01*
X15531777Y6563910D01*
X15492217Y6596377D01*
X15314145Y6691560D01*
X15120935Y6750170D01*
X14920000Y6769960D01*
X14719064Y6750170D01*
X14525852Y6691559D01*
X14347785Y6596380D01*
X14308220Y6563910D01*
X14524498Y6347631D01*
X14450806Y6299163D01*
X14334501Y6175888D01*
X14311616Y6136250D01*
X14096088Y6351778D01*
X14063619Y6312214D01*
X13968440Y6134147D01*
X13909829Y5940935D01*
X13890039Y5740000D01*
X4109960Y5740000D01*
X4090170Y5940935D01*
X4031560Y6134145D01*
X3936377Y6312217D01*
X3903910Y6351777D01*
X3903909Y6351778D01*
X3688652Y6136521D01*
X3610936Y6240912D01*
X3481106Y6349853D01*
X3478851Y6350984D01*
X3691777Y6563910D01*
X3652217Y6596377D01*
X3474145Y6691560D01*
X3280935Y6750170D01*
X3080000Y6769960D01*
X2879064Y6750170D01*
X2685852Y6691559D01*
X2507785Y6596380D01*
X2468220Y6563910D01*
X2684498Y6347631D01*
X2610806Y6299163D01*
X2494501Y6175888D01*
X2471616Y6136250D01*
X2256088Y6351778D01*
X2223619Y6312214D01*
X2128440Y6134147D01*
X2069829Y5940935D01*
X2050039Y5740000D01*
X-25865611Y5740000D01*
X-25785720Y6108817D01*
X-25784593Y6113572D01*
X-25529458Y7104067D01*
X-25528148Y7108774D01*
X-25234793Y8088646D01*
X-25233301Y8093299D01*
X-24902171Y9061065D01*
X-24900499Y9065658D01*
X-24540693Y9997577D01*
X-14206453Y9997577D01*
X-14191150Y9680048D01*
X-14191148Y9680016D01*
X-14191023Y9676255D01*
X-14190402Y9642327D01*
X-14189103Y9637572D01*
X-14187190Y9597885D01*
X-14139464Y9267179D01*
X-14139016Y9263729D01*
X-14136305Y9240326D01*
X-14135149Y9237274D01*
X-14130034Y9201833D01*
X-14046846Y8859658D01*
X-14046126Y8856516D01*
X-14043721Y8845362D01*
X-14043028Y8843952D01*
X-14035504Y8813003D01*
X-13913645Y8461433D01*
X-13913636Y8461407D01*
X-13913601Y8461302D01*
X-13913599Y8461299D01*
X-13904454Y8434915D01*
X-13903210Y8432195D01*
X-13748271Y8093299D01*
X-13738071Y8070990D01*
X-13537860Y7724522D01*
X-13305634Y7398646D01*
X-13043492Y7096311D01*
X-13041338Y7094259D01*
X-13041333Y7094253D01*
X-12755968Y6822310D01*
X-12753809Y6820253D01*
X-12751464Y6818410D01*
X-12751462Y6818408D01*
X-12468985Y6596377D01*
X-12439205Y6572970D01*
X-12436688Y6571353D01*
X-12436678Y6571346D01*
X-12105045Y6358317D01*
X-12105037Y6358312D01*
X-12102527Y6356700D01*
X-12099871Y6355331D01*
X-12099867Y6355329D01*
X-11990873Y6299163D01*
X-11746823Y6173400D01*
X-11744053Y6172291D01*
X-11744041Y6172286D01*
X-11386266Y6029113D01*
X-11375311Y6024729D01*
X-11372447Y6023888D01*
X-11372443Y6023887D01*
X-10994225Y5912876D01*
X-10994219Y5912874D01*
X-10991352Y5912033D01*
X-10988414Y5911467D01*
X-10601369Y5836897D01*
X-10601357Y5836895D01*
X-10598423Y5836330D01*
X-10595448Y5836046D01*
X-10595434Y5836044D01*
X-10203051Y5798590D01*
X-10203034Y5798589D01*
X-10200078Y5798307D01*
X-9802910Y5798307D01*
X-9799922Y5798307D01*
X-9796966Y5798589D01*
X-9796948Y5798590D01*
X-9404565Y5836044D01*
X-9404548Y5836046D01*
X-9401577Y5836330D01*
X-9398645Y5836894D01*
X-9398630Y5836897D01*
X-9011585Y5911467D01*
X-9011582Y5911467D01*
X-9008648Y5912033D01*
X-9005784Y5912873D01*
X-9005774Y5912876D01*
X-8627556Y6023887D01*
X-8627546Y6023890D01*
X-8624689Y6024729D01*
X-8621923Y6025835D01*
X-8621914Y6025839D01*
X-8255958Y6172286D01*
X-8255938Y6172294D01*
X-8253177Y6173400D01*
X-8250515Y6174771D01*
X-8250510Y6174774D01*
X-7900132Y6355329D01*
X-7900119Y6355336D01*
X-7897473Y6356700D01*
X-7894971Y6358307D01*
X-7894954Y6358317D01*
X-7563321Y6571346D01*
X-7563301Y6571360D01*
X-7560795Y6572970D01*
X-7558454Y6574809D01*
X-7558440Y6574820D01*
X-7248537Y6818408D01*
X-7248524Y6818418D01*
X-7246191Y6820253D01*
X-7244047Y6822296D01*
X-7244031Y6822310D01*
X-6958666Y7094253D01*
X-6958650Y7094269D01*
X-6956508Y7096311D01*
X-6954561Y7098556D01*
X-6954551Y7098567D01*
X-6696333Y7396377D01*
X-6696329Y7396381D01*
X-6694366Y7398646D01*
X-6692629Y7401082D01*
X-6692623Y7401091D01*
X-6463873Y7722090D01*
X-6463872Y7722091D01*
X-6462140Y7724522D01*
X-6460653Y7727093D01*
X-6460646Y7727106D01*
X-6263430Y8068392D01*
X-6263427Y8068396D01*
X-6261929Y8070990D01*
X-6260691Y8073695D01*
X-6260681Y8073717D01*
X-6096789Y8432195D01*
X-6096785Y8432204D01*
X-6095546Y8434915D01*
X-6094570Y8437728D01*
X-6094567Y8437738D01*
X-6086401Y8461299D01*
X-6086397Y8461304D01*
X-6086354Y8461433D01*
X-5965477Y8810172D01*
X-5965475Y8810176D01*
X-5964496Y8813003D01*
X-5963793Y8815893D01*
X-5963789Y8815908D01*
X-5956969Y8843960D01*
X-5956347Y8845035D01*
X-5953864Y8856552D01*
X-5953129Y8859758D01*
X-5870670Y9198933D01*
X-5870666Y9198953D01*
X-5869966Y9201833D01*
X-5864852Y9237266D01*
X-5864851Y9237274D01*
X-5863775Y9239626D01*
X-5860979Y9263761D01*
X-5860524Y9267258D01*
X-5813238Y9594913D01*
X-5813236Y9594931D01*
X-5812810Y9597885D01*
X-5812666Y9600868D01*
X-5812665Y9600881D01*
X-5810897Y9637572D01*
X-5809616Y9641265D01*
X-5808975Y9676289D01*
X-5808850Y9680048D01*
X-5793691Y9994583D01*
X-5793690Y9994589D01*
X-5793547Y9997577D01*
X-5793687Y10000553D01*
X-5793687Y10000571D01*
X-5795599Y10041212D01*
X-5794365Y10046282D01*
X-5797856Y10090527D01*
X-5798107Y10094515D01*
X-5812209Y10394296D01*
X-5812209Y10394298D01*
X-5812350Y10397291D01*
X-5819099Y10444445D01*
X-5818168Y10450889D01*
X-5827353Y10502608D01*
X-5828023Y10506787D01*
X-5868624Y10790443D01*
X-5868625Y10790452D01*
X-5869049Y10793409D01*
X-5872636Y10808238D01*
X-5881177Y10843548D01*
X-5880801Y10851326D01*
X-5896879Y10908797D01*
X-5898006Y10913119D01*
X-5962428Y11179442D01*
X-5962429Y11179447D01*
X-5963131Y11182347D01*
X-5981257Y11234838D01*
X-5981681Y11243876D01*
X-6005529Y11305394D01*
X-6007147Y11309810D01*
X-6092764Y11557746D01*
X-6092766Y11557751D01*
X-6093745Y11560586D01*
X-6118424Y11614731D01*
X-6119882Y11624925D01*
X-6152108Y11688865D01*
X-6154243Y11693316D01*
X-6258460Y11921962D01*
X-6258460Y11921963D01*
X-6259709Y11924702D01*
X-6261202Y11927293D01*
X-6261209Y11927306D01*
X-6291400Y11979690D01*
X-6294110Y11990899D01*
X-6335036Y12055617D01*
X-6337711Y12060045D01*
X-6458023Y12268802D01*
X-6459520Y12271400D01*
X-6498593Y12326364D01*
X-6502754Y12338418D01*
X-6552499Y12402393D01*
X-6555726Y12406732D01*
X-6575033Y12433891D01*
X-6691372Y12597544D01*
X-6738069Y12651527D01*
X-6743853Y12664221D01*
X-6802282Y12725952D01*
X-6806054Y12730119D01*
X-6953164Y12900181D01*
X-7109032Y13049061D01*
X-7240355Y13174496D01*
X-7240361Y13174501D01*
X-7242529Y13176572D01*
X-7393747Y13295710D01*
X-7399791Y13301055D01*
X-7409215Y13300500D01*
X-12590821Y13300500D01*
X-12600262Y13301052D01*
X-12606452Y13295551D01*
X-12757471Y13176572D01*
X-13046836Y12900181D01*
X-13193963Y12730098D01*
X-13197730Y12725936D01*
X-13253526Y12666987D01*
X-13261943Y12651512D01*
X-13308628Y12597544D01*
X-13444299Y12406696D01*
X-13447515Y12402372D01*
X-13495098Y12341178D01*
X-13501409Y12326360D01*
X-13540480Y12271400D01*
X-13640674Y12097550D01*
X-13662299Y12060028D01*
X-13664973Y12055601D01*
X-13704200Y11993568D01*
X-13708602Y11979685D01*
X-13740291Y11924702D01*
X-13845766Y11693295D01*
X-13847901Y11688843D01*
X-13878847Y11627441D01*
X-13881577Y11614729D01*
X-13906255Y11560586D01*
X-13992870Y11309759D01*
X-13994475Y11305381D01*
X-14017423Y11246184D01*
X-14018743Y11234838D01*
X-14036869Y11182347D01*
X-14102006Y10913067D01*
X-14103124Y10908779D01*
X-14118625Y10853371D01*
X-14118823Y10843548D01*
X-14130951Y10793409D01*
X-14171984Y10506738D01*
X-14172649Y10502590D01*
X-14181520Y10452639D01*
X-14180901Y10444440D01*
X-14187650Y10397291D01*
X-14201896Y10094447D01*
X-14202145Y10090490D01*
X-14205521Y10047702D01*
X-14204400Y10041209D01*
X-14206453Y9997577D01*
X-24540693Y9997577D01*
X-24532104Y10019822D01*
X-24530256Y10024345D01*
X-24125133Y10963526D01*
X-24123111Y10967975D01*
X-23681874Y11890745D01*
X-23679681Y11895112D01*
X-23202988Y12800089D01*
X-23200627Y12804367D01*
X-22689217Y13690157D01*
X-22686692Y13694341D01*
X-22141309Y14559650D01*
X-22138624Y14563733D01*
X-21560115Y15407219D01*
X-21557274Y15411194D01*
X-20946461Y16231659D01*
X-20943467Y16235521D01*
X-20301336Y17031638D01*
X-20298195Y17035382D01*
X-19625642Y17806043D01*
X-19622358Y17809661D01*
X-18920457Y18553632D01*
X-18917035Y18557121D01*
X-18186804Y19273327D01*
X-18183264Y19276667D01*
X-17425808Y19964023D01*
X-17422126Y19967236D01*
X-16638572Y20624715D01*
X-16634769Y20627782D01*
X-15826346Y21254358D01*
X-15822426Y21257277D01*
X-14990269Y21852066D01*
X-14986239Y21854829D01*
X-14131700Y22416868D01*
X-14127566Y22419474D01*
X-13251835Y22947981D01*
X-13247603Y22950424D01*
X-12352077Y23444554D01*
X-12347754Y23446832D01*
X-11433694Y23905891D01*
X-11429285Y23907999D01*
X-10498129Y24331261D01*
X-10493642Y24333196D01*
X-9546796Y24720026D01*
X-9542237Y24721786D01*
X-8581080Y25071618D01*
X-8576457Y25073200D01*
X-7602483Y25385492D01*
X-7597802Y25386894D01*
X-6612422Y25661193D01*
X-6607690Y25662412D01*
X-5612411Y25898298D01*
X-5607635Y25899332D01*
X-4603996Y26096440D01*
X-4599183Y26097289D01*
X-3588620Y26255338D01*
X-3583779Y26255999D01*
X-2567864Y26374742D01*
X-2563000Y26375215D01*
X-1543242Y26454477D01*
X-1538364Y26454761D01*
X-516309Y26494422D01*
X-511423Y26494517D01*
X511423Y26494517D01*
X516309Y26494422D01*
G37*
%TD.AperFunction*%
%TD*%
M02*
