%TF.GenerationSoftware,KiCad,Pcbnew,7.0.2*%
%TF.CreationDate,2023-11-07T11:53:16-07:00*%
%TF.ProjectId,Gateway06,47617465-7761-4793-9036-2e6b69636164,rev?*%
%TF.SameCoordinates,Original*%
%TF.FileFunction,Legend,Bot*%
%TF.FilePolarity,Positive*%
%FSLAX46Y46*%
G04 Gerber Fmt 4.6, Leading zero omitted, Abs format (unit mm)*
G04 Created by KiCad (PCBNEW 7.0.2) date 2023-11-07 11:53:16*
%MOMM*%
%LPD*%
G01*
G04 APERTURE LIST*
G04 Aperture macros list*
%AMRoundRect*
0 Rectangle with rounded corners*
0 $1 Rounding radius*
0 $2 $3 $4 $5 $6 $7 $8 $9 X,Y pos of 4 corners*
0 Add a 4 corners polygon primitive as box body*
4,1,4,$2,$3,$4,$5,$6,$7,$8,$9,$2,$3,0*
0 Add four circle primitives for the rounded corners*
1,1,$1+$1,$2,$3*
1,1,$1+$1,$4,$5*
1,1,$1+$1,$6,$7*
1,1,$1+$1,$8,$9*
0 Add four rect primitives between the rounded corners*
20,1,$1+$1,$2,$3,$4,$5,0*
20,1,$1+$1,$4,$5,$6,$7,0*
20,1,$1+$1,$6,$7,$8,$9,0*
20,1,$1+$1,$8,$9,$2,$3,0*%
G04 Aperture macros list end*
%ADD10C,0.250000*%
%ADD11C,0.120000*%
%ADD12C,3.200000*%
%ADD13C,2.150000*%
%ADD14C,1.600000*%
%ADD15C,1.450000*%
%ADD16RoundRect,0.050000X-0.125000X-0.850000X0.125000X-0.850000X0.125000X0.850000X-0.125000X0.850000X0*%
G04 APERTURE END LIST*
D10*
X4838475Y18787380D02*
X4505142Y17787380D01*
X4505142Y17787380D02*
X4171809Y18787380D01*
X3409904Y17787380D02*
X3409904Y18311190D01*
X3409904Y18311190D02*
X3457523Y18406428D01*
X3457523Y18406428D02*
X3552761Y18454047D01*
X3552761Y18454047D02*
X3743237Y18454047D01*
X3743237Y18454047D02*
X3838475Y18406428D01*
X3409904Y17835000D02*
X3505142Y17787380D01*
X3505142Y17787380D02*
X3743237Y17787380D01*
X3743237Y17787380D02*
X3838475Y17835000D01*
X3838475Y17835000D02*
X3886094Y17930238D01*
X3886094Y17930238D02*
X3886094Y18025476D01*
X3886094Y18025476D02*
X3838475Y18120714D01*
X3838475Y18120714D02*
X3743237Y18168333D01*
X3743237Y18168333D02*
X3505142Y18168333D01*
X3505142Y18168333D02*
X3409904Y18215952D01*
X2505142Y17835000D02*
X2600380Y17787380D01*
X2600380Y17787380D02*
X2790856Y17787380D01*
X2790856Y17787380D02*
X2886094Y17835000D01*
X2886094Y17835000D02*
X2933713Y17882619D01*
X2933713Y17882619D02*
X2981332Y17977857D01*
X2981332Y17977857D02*
X2981332Y18263571D01*
X2981332Y18263571D02*
X2933713Y18358809D01*
X2933713Y18358809D02*
X2886094Y18406428D01*
X2886094Y18406428D02*
X2790856Y18454047D01*
X2790856Y18454047D02*
X2600380Y18454047D01*
X2600380Y18454047D02*
X2505142Y18406428D01*
X1647999Y18454047D02*
X1647999Y17787380D01*
X2076570Y18454047D02*
X2076570Y17930238D01*
X2076570Y17930238D02*
X2028951Y17835000D01*
X2028951Y17835000D02*
X1933713Y17787380D01*
X1933713Y17787380D02*
X1790856Y17787380D01*
X1790856Y17787380D02*
X1695618Y17835000D01*
X1695618Y17835000D02*
X1647999Y17882619D01*
X743237Y18454047D02*
X743237Y17787380D01*
X1171808Y18454047D02*
X1171808Y17930238D01*
X1171808Y17930238D02*
X1124189Y17835000D01*
X1124189Y17835000D02*
X1028951Y17787380D01*
X1028951Y17787380D02*
X886094Y17787380D01*
X886094Y17787380D02*
X790856Y17835000D01*
X790856Y17835000D02*
X743237Y17882619D01*
X267046Y17787380D02*
X267046Y18454047D01*
X267046Y18358809D02*
X219427Y18406428D01*
X219427Y18406428D02*
X124189Y18454047D01*
X124189Y18454047D02*
X-18667Y18454047D01*
X-18667Y18454047D02*
X-113905Y18406428D01*
X-113905Y18406428D02*
X-161524Y18311190D01*
X-161524Y18311190D02*
X-161524Y17787380D01*
X-161524Y18311190D02*
X-209143Y18406428D01*
X-209143Y18406428D02*
X-304381Y18454047D01*
X-304381Y18454047D02*
X-447238Y18454047D01*
X-447238Y18454047D02*
X-542477Y18406428D01*
X-542477Y18406428D02*
X-590096Y18311190D01*
X-590096Y18311190D02*
X-590096Y17787380D01*
X-1780572Y17835000D02*
X-1875810Y17787380D01*
X-1875810Y17787380D02*
X-2066286Y17787380D01*
X-2066286Y17787380D02*
X-2161524Y17835000D01*
X-2161524Y17835000D02*
X-2209143Y17930238D01*
X-2209143Y17930238D02*
X-2209143Y17977857D01*
X-2209143Y17977857D02*
X-2161524Y18073095D01*
X-2161524Y18073095D02*
X-2066286Y18120714D01*
X-2066286Y18120714D02*
X-1923429Y18120714D01*
X-1923429Y18120714D02*
X-1828191Y18168333D01*
X-1828191Y18168333D02*
X-1780572Y18263571D01*
X-1780572Y18263571D02*
X-1780572Y18311190D01*
X-1780572Y18311190D02*
X-1828191Y18406428D01*
X-1828191Y18406428D02*
X-1923429Y18454047D01*
X-1923429Y18454047D02*
X-2066286Y18454047D01*
X-2066286Y18454047D02*
X-2161524Y18406428D01*
X-2637715Y17787380D02*
X-2637715Y18454047D01*
X-2637715Y18787380D02*
X-2590096Y18739761D01*
X-2590096Y18739761D02*
X-2637715Y18692142D01*
X-2637715Y18692142D02*
X-2685334Y18739761D01*
X-2685334Y18739761D02*
X-2637715Y18787380D01*
X-2637715Y18787380D02*
X-2637715Y18692142D01*
X-3542476Y17787380D02*
X-3542476Y18787380D01*
X-3542476Y17835000D02*
X-3447238Y17787380D01*
X-3447238Y17787380D02*
X-3256762Y17787380D01*
X-3256762Y17787380D02*
X-3161524Y17835000D01*
X-3161524Y17835000D02*
X-3113905Y17882619D01*
X-3113905Y17882619D02*
X-3066286Y17977857D01*
X-3066286Y17977857D02*
X-3066286Y18263571D01*
X-3066286Y18263571D02*
X-3113905Y18358809D01*
X-3113905Y18358809D02*
X-3161524Y18406428D01*
X-3161524Y18406428D02*
X-3256762Y18454047D01*
X-3256762Y18454047D02*
X-3447238Y18454047D01*
X-3447238Y18454047D02*
X-3542476Y18406428D01*
X-4399619Y17835000D02*
X-4304381Y17787380D01*
X-4304381Y17787380D02*
X-4113905Y17787380D01*
X-4113905Y17787380D02*
X-4018667Y17835000D01*
X-4018667Y17835000D02*
X-3971048Y17930238D01*
X-3971048Y17930238D02*
X-3971048Y18311190D01*
X-3971048Y18311190D02*
X-4018667Y18406428D01*
X-4018667Y18406428D02*
X-4113905Y18454047D01*
X-4113905Y18454047D02*
X-4304381Y18454047D01*
X-4304381Y18454047D02*
X-4399619Y18406428D01*
X-4399619Y18406428D02*
X-4447238Y18311190D01*
X-4447238Y18311190D02*
X-4447238Y18215952D01*
X-4447238Y18215952D02*
X-3971048Y18120714D01*
D11*
%TO.C,U1*%
X540000Y5370000D02*
X540000Y6170000D01*
X540000Y5370000D02*
X860000Y5170000D01*
X540000Y6170000D02*
X860000Y6370000D01*
X860000Y2890000D02*
X860000Y7110000D01*
X1310000Y2440000D02*
X16690000Y2440000D01*
X1310000Y7560000D02*
X16690000Y7560000D01*
X17140000Y7110000D02*
X17140000Y2890000D01*
X17460000Y5370000D02*
X17140000Y5170000D01*
X17460000Y5370000D02*
X17460000Y6170000D01*
X17460000Y6170000D02*
X17140000Y6370000D01*
X860000Y2890000D02*
G75*
G03*
X1310000Y2440000I450000J0D01*
G01*
X1310000Y7560000D02*
G75*
G03*
X860000Y7110000I0J-450000D01*
G01*
X16690000Y2440000D02*
G75*
G03*
X17140000Y2890000I0J450000D01*
G01*
X17140000Y7110000D02*
G75*
G03*
X16690000Y7560000I-450000J0D01*
G01*
%TD*%
%LPC*%
D12*
X25400000Y0D02*
G75*
G03*
X25400000Y0I-25400000J0D01*
G01*
D13*
%TO.C,H2*%
X-4699764Y-10000000D02*
G75*
G03*
X-4699764Y-10000000I-5300236J0D01*
G01*
%TO.C,H1*%
X-4699764Y10000000D02*
G75*
G03*
X-4699764Y10000000I-5300236J0D01*
G01*
%TD*%
D14*
%TO.C,U2*%
X1605000Y-3740000D03*
D15*
X3080000Y-5740000D03*
X14920000Y-5740000D03*
D14*
X16395000Y-3740000D03*
%TD*%
%TO.C,U1*%
X1605000Y3740000D03*
D15*
X3080000Y5740000D03*
X14920000Y5740000D03*
D14*
X16395000Y3740000D03*
D16*
X13750000Y7350000D03*
X13750000Y2650000D03*
X13250000Y7350000D03*
X13250000Y2650000D03*
X12750000Y7350000D03*
X12750000Y2650000D03*
X12250000Y7350000D03*
X12250000Y2650000D03*
X11750000Y7350000D03*
X11750000Y2650000D03*
X11250000Y7350000D03*
X11250000Y2650000D03*
X10750000Y7350000D03*
X10750000Y2650000D03*
X10250000Y7350000D03*
X10250000Y2650000D03*
X9750000Y7350000D03*
X9750000Y2650000D03*
X9250000Y7350000D03*
X9250000Y2650000D03*
X8750000Y7350000D03*
X8750000Y2650000D03*
X8250000Y7350000D03*
X8250000Y2650000D03*
X7750000Y7350000D03*
X7750000Y2650000D03*
X7250000Y7350000D03*
X7250000Y2650000D03*
X6750000Y7350000D03*
X6750000Y2650000D03*
X6250000Y7350000D03*
X6250000Y2650000D03*
X5750000Y7350000D03*
X5750000Y2650000D03*
X5250000Y7350000D03*
X5250000Y2650000D03*
X4750000Y7350000D03*
X4750000Y2650000D03*
X4250000Y7350000D03*
X4250000Y2650000D03*
%TD*%
%LPD*%
M02*
