%TF.GenerationSoftware,KiCad,Pcbnew,7.0.2*%
%TF.CreationDate,2023-11-07T11:53:16-07:00*%
%TF.ProjectId,Gateway06,47617465-7761-4793-9036-2e6b69636164,rev?*%
%TF.SameCoordinates,Original*%
%TF.FileFunction,Legend,Top*%
%TF.FilePolarity,Positive*%
%FSLAX46Y46*%
G04 Gerber Fmt 4.6, Leading zero omitted, Abs format (unit mm)*
G04 Created by KiCad (PCBNEW 7.0.2) date 2023-11-07 11:53:16*
%MOMM*%
%LPD*%
G01*
G04 APERTURE LIST*
G04 Aperture macros list*
%AMRoundRect*
0 Rectangle with rounded corners*
0 $1 Rounding radius*
0 $2 $3 $4 $5 $6 $7 $8 $9 X,Y pos of 4 corners*
0 Add a 4 corners polygon primitive as box body*
4,1,4,$2,$3,$4,$5,$6,$7,$8,$9,$2,$3,0*
0 Add four circle primitives for the rounded corners*
1,1,$1+$1,$2,$3*
1,1,$1+$1,$4,$5*
1,1,$1+$1,$6,$7*
1,1,$1+$1,$8,$9*
0 Add four rect primitives between the rounded corners*
20,1,$1+$1,$2,$3,$4,$5,0*
20,1,$1+$1,$4,$5,$6,$7,0*
20,1,$1+$1,$6,$7,$8,$9,0*
20,1,$1+$1,$8,$9,$2,$3,0*%
G04 Aperture macros list end*
%ADD10C,0.250000*%
%ADD11C,0.100000*%
%ADD12C,0.120000*%
%ADD13C,3.200000*%
%ADD14C,2.150000*%
%ADD15C,1.600000*%
%ADD16C,1.450000*%
%ADD17RoundRect,0.050000X-0.125000X-0.850000X0.125000X-0.850000X0.125000X0.850000X-0.125000X0.850000X0*%
G04 APERTURE END LIST*
D10*
X-8090095Y18073095D02*
X-7613905Y18073095D01*
X-8185333Y17787380D02*
X-7852000Y18787380D01*
X-7852000Y18787380D02*
X-7518667Y17787380D01*
X-7185333Y17787380D02*
X-7185333Y18454047D01*
X-7185333Y18358809D02*
X-7137714Y18406428D01*
X-7137714Y18406428D02*
X-7042476Y18454047D01*
X-7042476Y18454047D02*
X-6899619Y18454047D01*
X-6899619Y18454047D02*
X-6804381Y18406428D01*
X-6804381Y18406428D02*
X-6756762Y18311190D01*
X-6756762Y18311190D02*
X-6756762Y17787380D01*
X-6756762Y18311190D02*
X-6709143Y18406428D01*
X-6709143Y18406428D02*
X-6613905Y18454047D01*
X-6613905Y18454047D02*
X-6471048Y18454047D01*
X-6471048Y18454047D02*
X-6375809Y18406428D01*
X-6375809Y18406428D02*
X-6328190Y18311190D01*
X-6328190Y18311190D02*
X-6328190Y17787380D01*
X-5852000Y17787380D02*
X-5852000Y18787380D01*
X-5852000Y18406428D02*
X-5756762Y18454047D01*
X-5756762Y18454047D02*
X-5566286Y18454047D01*
X-5566286Y18454047D02*
X-5471048Y18406428D01*
X-5471048Y18406428D02*
X-5423429Y18358809D01*
X-5423429Y18358809D02*
X-5375810Y18263571D01*
X-5375810Y18263571D02*
X-5375810Y17977857D01*
X-5375810Y17977857D02*
X-5423429Y17882619D01*
X-5423429Y17882619D02*
X-5471048Y17835000D01*
X-5471048Y17835000D02*
X-5566286Y17787380D01*
X-5566286Y17787380D02*
X-5756762Y17787380D01*
X-5756762Y17787380D02*
X-5852000Y17835000D01*
X-4947238Y17787380D02*
X-4947238Y18454047D01*
X-4947238Y18787380D02*
X-4994857Y18739761D01*
X-4994857Y18739761D02*
X-4947238Y18692142D01*
X-4947238Y18692142D02*
X-4899619Y18739761D01*
X-4899619Y18739761D02*
X-4947238Y18787380D01*
X-4947238Y18787380D02*
X-4947238Y18692142D01*
X-4090096Y17835000D02*
X-4185334Y17787380D01*
X-4185334Y17787380D02*
X-4375810Y17787380D01*
X-4375810Y17787380D02*
X-4471048Y17835000D01*
X-4471048Y17835000D02*
X-4518667Y17930238D01*
X-4518667Y17930238D02*
X-4518667Y18311190D01*
X-4518667Y18311190D02*
X-4471048Y18406428D01*
X-4471048Y18406428D02*
X-4375810Y18454047D01*
X-4375810Y18454047D02*
X-4185334Y18454047D01*
X-4185334Y18454047D02*
X-4090096Y18406428D01*
X-4090096Y18406428D02*
X-4042477Y18311190D01*
X-4042477Y18311190D02*
X-4042477Y18215952D01*
X-4042477Y18215952D02*
X-4518667Y18120714D01*
X-3613905Y18454047D02*
X-3613905Y17787380D01*
X-3613905Y18358809D02*
X-3566286Y18406428D01*
X-3566286Y18406428D02*
X-3471048Y18454047D01*
X-3471048Y18454047D02*
X-3328191Y18454047D01*
X-3328191Y18454047D02*
X-3232953Y18406428D01*
X-3232953Y18406428D02*
X-3185334Y18311190D01*
X-3185334Y18311190D02*
X-3185334Y17787380D01*
X-2852000Y18454047D02*
X-2471048Y18454047D01*
X-2709143Y18787380D02*
X-2709143Y17930238D01*
X-2709143Y17930238D02*
X-2661524Y17835000D01*
X-2661524Y17835000D02*
X-2566286Y17787380D01*
X-2566286Y17787380D02*
X-2471048Y17787380D01*
X-1375809Y18454047D02*
X-1375809Y17454047D01*
X-1375809Y18406428D02*
X-1280571Y18454047D01*
X-1280571Y18454047D02*
X-1090095Y18454047D01*
X-1090095Y18454047D02*
X-994857Y18406428D01*
X-994857Y18406428D02*
X-947238Y18358809D01*
X-947238Y18358809D02*
X-899619Y18263571D01*
X-899619Y18263571D02*
X-899619Y17977857D01*
X-899619Y17977857D02*
X-947238Y17882619D01*
X-947238Y17882619D02*
X-994857Y17835000D01*
X-994857Y17835000D02*
X-1090095Y17787380D01*
X-1090095Y17787380D02*
X-1280571Y17787380D01*
X-1280571Y17787380D02*
X-1375809Y17835000D01*
X-471047Y17787380D02*
X-471047Y18454047D01*
X-471047Y18263571D02*
X-423428Y18358809D01*
X-423428Y18358809D02*
X-375809Y18406428D01*
X-375809Y18406428D02*
X-280571Y18454047D01*
X-280571Y18454047D02*
X-185333Y18454047D01*
X528952Y17835000D02*
X433714Y17787380D01*
X433714Y17787380D02*
X243238Y17787380D01*
X243238Y17787380D02*
X148000Y17835000D01*
X148000Y17835000D02*
X100381Y17930238D01*
X100381Y17930238D02*
X100381Y18311190D01*
X100381Y18311190D02*
X148000Y18406428D01*
X148000Y18406428D02*
X243238Y18454047D01*
X243238Y18454047D02*
X433714Y18454047D01*
X433714Y18454047D02*
X528952Y18406428D01*
X528952Y18406428D02*
X576571Y18311190D01*
X576571Y18311190D02*
X576571Y18215952D01*
X576571Y18215952D02*
X100381Y18120714D01*
X957524Y17835000D02*
X1052762Y17787380D01*
X1052762Y17787380D02*
X1243238Y17787380D01*
X1243238Y17787380D02*
X1338476Y17835000D01*
X1338476Y17835000D02*
X1386095Y17930238D01*
X1386095Y17930238D02*
X1386095Y17977857D01*
X1386095Y17977857D02*
X1338476Y18073095D01*
X1338476Y18073095D02*
X1243238Y18120714D01*
X1243238Y18120714D02*
X1100381Y18120714D01*
X1100381Y18120714D02*
X1005143Y18168333D01*
X1005143Y18168333D02*
X957524Y18263571D01*
X957524Y18263571D02*
X957524Y18311190D01*
X957524Y18311190D02*
X1005143Y18406428D01*
X1005143Y18406428D02*
X1100381Y18454047D01*
X1100381Y18454047D02*
X1243238Y18454047D01*
X1243238Y18454047D02*
X1338476Y18406428D01*
X1767048Y17835000D02*
X1862286Y17787380D01*
X1862286Y17787380D02*
X2052762Y17787380D01*
X2052762Y17787380D02*
X2148000Y17835000D01*
X2148000Y17835000D02*
X2195619Y17930238D01*
X2195619Y17930238D02*
X2195619Y17977857D01*
X2195619Y17977857D02*
X2148000Y18073095D01*
X2148000Y18073095D02*
X2052762Y18120714D01*
X2052762Y18120714D02*
X1909905Y18120714D01*
X1909905Y18120714D02*
X1814667Y18168333D01*
X1814667Y18168333D02*
X1767048Y18263571D01*
X1767048Y18263571D02*
X1767048Y18311190D01*
X1767048Y18311190D02*
X1814667Y18406428D01*
X1814667Y18406428D02*
X1909905Y18454047D01*
X1909905Y18454047D02*
X2052762Y18454047D01*
X2052762Y18454047D02*
X2148000Y18406428D01*
X3052762Y18454047D02*
X3052762Y17787380D01*
X2624191Y18454047D02*
X2624191Y17930238D01*
X2624191Y17930238D02*
X2671810Y17835000D01*
X2671810Y17835000D02*
X2767048Y17787380D01*
X2767048Y17787380D02*
X2909905Y17787380D01*
X2909905Y17787380D02*
X3005143Y17835000D01*
X3005143Y17835000D02*
X3052762Y17882619D01*
X3528953Y17787380D02*
X3528953Y18454047D01*
X3528953Y18263571D02*
X3576572Y18358809D01*
X3576572Y18358809D02*
X3624191Y18406428D01*
X3624191Y18406428D02*
X3719429Y18454047D01*
X3719429Y18454047D02*
X3814667Y18454047D01*
X4528953Y17835000D02*
X4433715Y17787380D01*
X4433715Y17787380D02*
X4243239Y17787380D01*
X4243239Y17787380D02*
X4148001Y17835000D01*
X4148001Y17835000D02*
X4100382Y17930238D01*
X4100382Y17930238D02*
X4100382Y18311190D01*
X4100382Y18311190D02*
X4148001Y18406428D01*
X4148001Y18406428D02*
X4243239Y18454047D01*
X4243239Y18454047D02*
X4433715Y18454047D01*
X4433715Y18454047D02*
X4528953Y18406428D01*
X4528953Y18406428D02*
X4576572Y18311190D01*
X4576572Y18311190D02*
X4576572Y18215952D01*
X4576572Y18215952D02*
X4100382Y18120714D01*
X5719430Y17835000D02*
X5814668Y17787380D01*
X5814668Y17787380D02*
X6005144Y17787380D01*
X6005144Y17787380D02*
X6100382Y17835000D01*
X6100382Y17835000D02*
X6148001Y17930238D01*
X6148001Y17930238D02*
X6148001Y17977857D01*
X6148001Y17977857D02*
X6100382Y18073095D01*
X6100382Y18073095D02*
X6005144Y18120714D01*
X6005144Y18120714D02*
X5862287Y18120714D01*
X5862287Y18120714D02*
X5767049Y18168333D01*
X5767049Y18168333D02*
X5719430Y18263571D01*
X5719430Y18263571D02*
X5719430Y18311190D01*
X5719430Y18311190D02*
X5767049Y18406428D01*
X5767049Y18406428D02*
X5862287Y18454047D01*
X5862287Y18454047D02*
X6005144Y18454047D01*
X6005144Y18454047D02*
X6100382Y18406428D01*
X6576573Y17787380D02*
X6576573Y18454047D01*
X6576573Y18787380D02*
X6528954Y18739761D01*
X6528954Y18739761D02*
X6576573Y18692142D01*
X6576573Y18692142D02*
X6624192Y18739761D01*
X6624192Y18739761D02*
X6576573Y18787380D01*
X6576573Y18787380D02*
X6576573Y18692142D01*
X7481334Y17787380D02*
X7481334Y18787380D01*
X7481334Y17835000D02*
X7386096Y17787380D01*
X7386096Y17787380D02*
X7195620Y17787380D01*
X7195620Y17787380D02*
X7100382Y17835000D01*
X7100382Y17835000D02*
X7052763Y17882619D01*
X7052763Y17882619D02*
X7005144Y17977857D01*
X7005144Y17977857D02*
X7005144Y18263571D01*
X7005144Y18263571D02*
X7052763Y18358809D01*
X7052763Y18358809D02*
X7100382Y18406428D01*
X7100382Y18406428D02*
X7195620Y18454047D01*
X7195620Y18454047D02*
X7386096Y18454047D01*
X7386096Y18454047D02*
X7481334Y18406428D01*
X8338477Y17835000D02*
X8243239Y17787380D01*
X8243239Y17787380D02*
X8052763Y17787380D01*
X8052763Y17787380D02*
X7957525Y17835000D01*
X7957525Y17835000D02*
X7909906Y17930238D01*
X7909906Y17930238D02*
X7909906Y18311190D01*
X7909906Y18311190D02*
X7957525Y18406428D01*
X7957525Y18406428D02*
X8052763Y18454047D01*
X8052763Y18454047D02*
X8243239Y18454047D01*
X8243239Y18454047D02*
X8338477Y18406428D01*
X8338477Y18406428D02*
X8386096Y18311190D01*
X8386096Y18311190D02*
X8386096Y18215952D01*
X8386096Y18215952D02*
X7909906Y18120714D01*
D11*
%TO.C,H2*%
X-10761904Y2037380D02*
X-10761904Y3037380D01*
X-10761904Y2561190D02*
X-10190476Y2561190D01*
X-10190476Y2037380D02*
X-10190476Y3037380D01*
X-9761904Y2942142D02*
X-9714285Y2989761D01*
X-9714285Y2989761D02*
X-9619047Y3037380D01*
X-9619047Y3037380D02*
X-9380952Y3037380D01*
X-9380952Y3037380D02*
X-9285714Y2989761D01*
X-9285714Y2989761D02*
X-9238095Y2942142D01*
X-9238095Y2942142D02*
X-9190476Y2846904D01*
X-9190476Y2846904D02*
X-9190476Y2751666D01*
X-9190476Y2751666D02*
X-9238095Y2608809D01*
X-9238095Y2608809D02*
X-9809523Y2037380D01*
X-9809523Y2037380D02*
X-9190476Y2037380D01*
%TO.C,H1*%
X-10761904Y22037380D02*
X-10761904Y23037380D01*
X-10761904Y22561190D02*
X-10190476Y22561190D01*
X-10190476Y22037380D02*
X-10190476Y23037380D01*
X-9190476Y22037380D02*
X-9761904Y22037380D01*
X-9476190Y22037380D02*
X-9476190Y23037380D01*
X-9476190Y23037380D02*
X-9571428Y22894523D01*
X-9571428Y22894523D02*
X-9666666Y22799285D01*
X-9666666Y22799285D02*
X-9761904Y22751666D01*
%TO.C,H2*%
X-3650000Y-10000000D02*
G75*
G03*
X-3650000Y-10000000I-6350000J0D01*
G01*
%TO.C,H1*%
X-3650000Y10000000D02*
G75*
G03*
X-3650000Y10000000I-6350000J0D01*
G01*
D12*
%TO.C,U2*%
X540000Y-5370000D02*
X540000Y-6170000D01*
X540000Y-5370000D02*
X860000Y-5170000D01*
X540000Y-6170000D02*
X860000Y-6370000D01*
X860000Y-2890000D02*
X860000Y-7110000D01*
X1310000Y-2440000D02*
X16690000Y-2440000D01*
X1310000Y-7560000D02*
X16690000Y-7560000D01*
X17140000Y-7110000D02*
X17140000Y-2890000D01*
X17460000Y-5370000D02*
X17140000Y-5170000D01*
X17460000Y-5370000D02*
X17460000Y-6170000D01*
X17460000Y-6170000D02*
X17140000Y-6370000D01*
X1310000Y-2440000D02*
G75*
G03*
X860000Y-2890000I0J-450000D01*
G01*
X860000Y-7110000D02*
G75*
G03*
X1310000Y-7560000I450000J0D01*
G01*
X17140000Y-2890000D02*
G75*
G03*
X16690000Y-2440000I-450000J0D01*
G01*
X16690000Y-7560000D02*
G75*
G03*
X17140000Y-7110000I0J450000D01*
G01*
%TD*%
%LPC*%
D13*
X25400000Y0D02*
G75*
G03*
X25400000Y0I-25400000J0D01*
G01*
D14*
%TO.C,H2*%
X-4699764Y-10000000D02*
G75*
G03*
X-4699764Y-10000000I-5300236J0D01*
G01*
%TO.C,H1*%
X-4699764Y10000000D02*
G75*
G03*
X-4699764Y10000000I-5300236J0D01*
G01*
%TD*%
D15*
%TO.C,U2*%
X1605000Y-3740000D03*
D16*
X3080000Y-5740000D03*
X14920000Y-5740000D03*
D15*
X16395000Y-3740000D03*
D17*
X13750000Y-7350000D03*
X13750000Y-2650000D03*
X13250000Y-7350000D03*
X13250000Y-2650000D03*
X12750000Y-7350000D03*
X12750000Y-2650000D03*
X12250000Y-7350000D03*
X12250000Y-2650000D03*
X11750000Y-7350000D03*
X11750000Y-2650000D03*
X11250000Y-7350000D03*
X11250000Y-2650000D03*
X10750000Y-7350000D03*
X10750000Y-2650000D03*
X10250000Y-7350000D03*
X10250000Y-2650000D03*
X9750000Y-7350000D03*
X9750000Y-2650000D03*
X9250000Y-7350000D03*
X9250000Y-2650000D03*
X8750000Y-7350000D03*
X8750000Y-2650000D03*
X8250000Y-7350000D03*
X8250000Y-2650000D03*
X7750000Y-7350000D03*
X7750000Y-2650000D03*
X7250000Y-7350000D03*
X7250000Y-2650000D03*
X6750000Y-7350000D03*
X6750000Y-2650000D03*
X6250000Y-7350000D03*
X6250000Y-2650000D03*
X5750000Y-7350000D03*
X5750000Y-2650000D03*
X5250000Y-7350000D03*
X5250000Y-2650000D03*
X4750000Y-7350000D03*
X4750000Y-2650000D03*
X4250000Y-7350000D03*
X4250000Y-2650000D03*
%TD*%
D15*
%TO.C,U1*%
X1605000Y3740000D03*
D16*
X3080000Y5740000D03*
X14920000Y5740000D03*
D15*
X16395000Y3740000D03*
%TD*%
%LPD*%
M02*
