%TF.GenerationSoftware,KiCad,Pcbnew,7.0.2*%
%TF.CreationDate,2023-11-07T11:53:16-07:00*%
%TF.ProjectId,Gateway06,47617465-7761-4793-9036-2e6b69636164,rev?*%
%TF.SameCoordinates,Original*%
%TF.FileFunction,Soldermask,Top*%
%TF.FilePolarity,Negative*%
%FSLAX46Y46*%
G04 Gerber Fmt 4.6, Leading zero omitted, Abs format (unit mm)*
G04 Created by KiCad (PCBNEW 7.0.2) date 2023-11-07 11:53:16*
%MOMM*%
%LPD*%
G01*
G04 APERTURE LIST*
G04 Aperture macros list*
%AMRoundRect*
0 Rectangle with rounded corners*
0 $1 Rounding radius*
0 $2 $3 $4 $5 $6 $7 $8 $9 X,Y pos of 4 corners*
0 Add a 4 corners polygon primitive as box body*
4,1,4,$2,$3,$4,$5,$6,$7,$8,$9,$2,$3,0*
0 Add four circle primitives for the rounded corners*
1,1,$1+$1,$2,$3*
1,1,$1+$1,$4,$5*
1,1,$1+$1,$6,$7*
1,1,$1+$1,$8,$9*
0 Add four rect primitives between the rounded corners*
20,1,$1+$1,$2,$3,$4,$5,0*
20,1,$1+$1,$4,$5,$6,$7,0*
20,1,$1+$1,$6,$7,$8,$9,0*
20,1,$1+$1,$8,$9,$2,$3,0*%
G04 Aperture macros list end*
%ADD10C,3.200000*%
%ADD11C,2.150000*%
%ADD12C,1.600000*%
%ADD13C,1.450000*%
%ADD14RoundRect,0.050000X-0.125000X-0.850000X0.125000X-0.850000X0.125000X0.850000X-0.125000X0.850000X0*%
G04 APERTURE END LIST*
D10*
X25400000Y0D02*
G75*
G03*
X25400000Y0I-25400000J0D01*
G01*
D11*
%TO.C,H2*%
X-4699764Y-10000000D02*
G75*
G03*
X-4699764Y-10000000I-5300236J0D01*
G01*
%TO.C,H1*%
X-4699764Y10000000D02*
G75*
G03*
X-4699764Y10000000I-5300236J0D01*
G01*
%TD*%
D12*
%TO.C,U2*%
X1605000Y-3740000D03*
D13*
X3080000Y-5740000D03*
X14920000Y-5740000D03*
D12*
X16395000Y-3740000D03*
D14*
X13750000Y-7350000D03*
X13750000Y-2650000D03*
X13250000Y-7350000D03*
X13250000Y-2650000D03*
X12750000Y-7350000D03*
X12750000Y-2650000D03*
X12250000Y-7350000D03*
X12250000Y-2650000D03*
X11750000Y-7350000D03*
X11750000Y-2650000D03*
X11250000Y-7350000D03*
X11250000Y-2650000D03*
X10750000Y-7350000D03*
X10750000Y-2650000D03*
X10250000Y-7350000D03*
X10250000Y-2650000D03*
X9750000Y-7350000D03*
X9750000Y-2650000D03*
X9250000Y-7350000D03*
X9250000Y-2650000D03*
X8750000Y-7350000D03*
X8750000Y-2650000D03*
X8250000Y-7350000D03*
X8250000Y-2650000D03*
X7750000Y-7350000D03*
X7750000Y-2650000D03*
X7250000Y-7350000D03*
X7250000Y-2650000D03*
X6750000Y-7350000D03*
X6750000Y-2650000D03*
X6250000Y-7350000D03*
X6250000Y-2650000D03*
X5750000Y-7350000D03*
X5750000Y-2650000D03*
X5250000Y-7350000D03*
X5250000Y-2650000D03*
X4750000Y-7350000D03*
X4750000Y-2650000D03*
X4250000Y-7350000D03*
X4250000Y-2650000D03*
%TD*%
D12*
%TO.C,U1*%
X1605000Y3740000D03*
D13*
X3080000Y5740000D03*
X14920000Y5740000D03*
D12*
X16395000Y3740000D03*
%TD*%
M02*
