%TF.GenerationSoftware,KiCad,Pcbnew,7.0.2*%
%TF.CreationDate,2023-11-07T11:53:16-07:00*%
%TF.ProjectId,Gateway06,47617465-7761-4793-9036-2e6b69636164,rev?*%
%TF.SameCoordinates,Original*%
%TF.FileFunction,Paste,Top*%
%TF.FilePolarity,Positive*%
%FSLAX46Y46*%
G04 Gerber Fmt 4.6, Leading zero omitted, Abs format (unit mm)*
G04 Created by KiCad (PCBNEW 7.0.2) date 2023-11-07 11:53:16*
%MOMM*%
%LPD*%
G01*
G04 APERTURE LIST*
%ADD10R,0.250000X1.700000*%
G04 APERTURE END LIST*
D10*
%TO.C,U2*%
X13750000Y-7350000D03*
X13750000Y-2650000D03*
X13250000Y-7350000D03*
X13250000Y-2650000D03*
X12750000Y-7350000D03*
X12750000Y-2650000D03*
X12250000Y-7350000D03*
X12250000Y-2650000D03*
X11750000Y-7350000D03*
X11750000Y-2650000D03*
X11250000Y-7350000D03*
X11250000Y-2650000D03*
X10750000Y-7350000D03*
X10750000Y-2650000D03*
X10250000Y-7350000D03*
X10250000Y-2650000D03*
X9750000Y-7350000D03*
X9750000Y-2650000D03*
X9250000Y-7350000D03*
X9250000Y-2650000D03*
X8750000Y-7350000D03*
X8750000Y-2650000D03*
X8250000Y-7350000D03*
X8250000Y-2650000D03*
X7750000Y-7350000D03*
X7750000Y-2650000D03*
X7250000Y-7350000D03*
X7250000Y-2650000D03*
X6750000Y-7350000D03*
X6750000Y-2650000D03*
X6250000Y-7350000D03*
X6250000Y-2650000D03*
X5750000Y-7350000D03*
X5750000Y-2650000D03*
X5250000Y-7350000D03*
X5250000Y-2650000D03*
X4750000Y-7350000D03*
X4750000Y-2650000D03*
X4250000Y-7350000D03*
X4250000Y-2650000D03*
%TD*%
M02*
