M48
; DRILL file {KiCad 7.0.2} date Tue Nov  7 11:53:16 2023
; FORMAT={-:-/ absolute / inch / decimal}
; #@! TF.CreationDate,2023-11-07T11:53:16-07:00
; #@! TF.GenerationSoftware,Kicad,Pcbnew,7.0.2
; #@! TF.FileFunction,Plated,1,2,PTH
FMAT,2
INCH
; #@! TA.AperFunction,Plated,PTH,ViaDrill
T1C0.0118
; #@! TA.AperFunction,Plated,PTH,ComponentDrill
T2C0.0394
; #@! TA.AperFunction,Plated,PTH,ComponentDrill
T3C0.0571
%
G90
G05
T1
X0.0787Y0.0
X0.126Y0.0
X0.1575Y0.0
X0.189Y0.0
X0.2205Y0.0
X0.2496Y0.002
X0.2769Y0.0019
X0.3027Y0.0017
X0.3282Y-0.0002
X0.3538Y0.0001
X0.3819Y0.001
X0.4104Y0.001
X0.44Y0.001
X0.4654Y-0.0012
X0.4921Y0.002
X0.5207Y0.0039
X0.5502Y0.0039
X0.5758Y-0.002
X0.6013Y-0.0009
X0.6252Y0.0083
T2
X0.0632Y0.1472
X0.0632Y-0.1472
X0.6455Y0.1472
X0.6455Y-0.1472
T3
X0.1213Y0.226
X0.1213Y-0.226
X0.5874Y0.226
X0.5874Y-0.226
T0
M30
