<?xml version="1.0" encoding="UTF-8" standalone="no"?>
<svg
   xmlns:dc="http://purl.org/dc/elements/1.1/"
   xmlns:cc="http://creativecommons.org/ns#"
   xmlns:rdf="http://www.w3.org/1999/02/22-rdf-syntax-ns#"
   xmlns:svg="http://www.w3.org/2000/svg"
   xmlns="http://www.w3.org/2000/svg"
   xmlns:sodipodi="http://sodipodi.sourceforge.net/DTD/sodipodi-0.dtd"
   xmlns:inkscape="http://www.inkscape.org/namespaces/inkscape"
   width="210mm"
   height="297mm"
   viewBox="0 0 210 297"
   version="1.1"
   id="svg8"
   inkscape:version="1.0.1 (3bc2e813f5, 2020-09-07)"
   sodipodi:docname="CryoLoomConnector Outline.svg">
  <defs
     id="defs2" />
  <sodipodi:namedview
     id="base"
     pagecolor="#ffffff"
     bordercolor="#666666"
     borderopacity="1.0"
     inkscape:pageopacity="0.0"
     inkscape:pageshadow="2"
     inkscape:zoom="1.979899"
     inkscape:cx="301.54023"
     inkscape:cy="211.4302"
     inkscape:document-units="mm"
     inkscape:current-layer="layer1"
     inkscape:document-rotation="0"
     showgrid="false"
     inkscape:window-width="1920"
     inkscape:window-height="1017"
     inkscape:window-x="1272"
     inkscape:window-y="-8"
     inkscape:window-maximized="1" />
  <metadata
     id="metadata5">
    <rdf:RDF>
      <cc:Work
         rdf:about="">
        <dc:format>image/svg+xml</dc:format>
        <dc:type
           rdf:resource="http://purl.org/dc/dcmitype/StillImage" />
        <dc:title></dc:title>
      </cc:Work>
    </rdf:RDF>
  </metadata>
  <g
     inkscape:label="Layer 1"
     inkscape:groupmode="layer"
     id="layer1">
    <path
       id="rect831"
       style="fill:#000000;fill-opacity:0.379032;stroke:#000000;stroke-width:0.377953;stop-color:#000000"
       d="m 314.94336,200 c -2.09386,0 -3.7793,1.68544 -3.7793,3.7793 l 0,59.89335 c 0.0106,3.95977 3.64827,2.84451 3.61328,7.04883 -0.0386,4.63794 -3.61425,4.32816 -3.61328,5.98242 l 0,1.72188 c 0,2.09386 1.68544,3.7793 3.7793,3.7793 h 56.31445 c 2.09386,0 3.7793,-1.68544 3.7793,-3.7793 l 0,-1.72188 c -0.0437,-2.0114 -3.57466,-1.34448 -3.61328,-5.98242 -0.035,-4.20503 3.57963,-3.38462 3.61328,-7.05078 l 0,-59.8914 c 0,-2.09386 -1.68544,-3.7793 -3.7793,-3.7793 z"
       transform="scale(0.26458333)"
       sodipodi:nodetypes="sscscsssscscsss" />
  </g>
</svg>
