M48
; DRILL file {KiCad (5.1.10)-1} date 04/08/22 13:18:16
; FORMAT={-:-/ absolute / inch / decimal}
; #@! TF.CreationDate,2022-04-08T13:18:16-06:00
; #@! TF.GenerationSoftware,Kicad,Pcbnew,(5.1.10)-1
; #@! TF.FileFunction,Plated,1,4,PTH
FMAT,2
INCH
T1C0.0217
T2C0.0240
T3C0.0394
T4C0.2035
%
G90
G05
T1
X-1.9646Y2.5709
X-1.9646Y2.5315
X-1.9646Y2.4921
X-1.9646Y2.4528
X-1.9646Y2.4134
X-1.9646Y2.374
X-1.9646Y2.3346
X-1.9646Y2.2953
X-1.9646Y2.2559
X-1.9646Y2.2165
X-1.8937Y2.5512
X-1.8937Y2.5118
X-1.8937Y2.4724
X-1.8937Y2.4331
X-1.8937Y2.3937
X-1.8937Y2.3543
X-1.8937Y2.315
X-1.8937Y2.2756
X-1.8937Y2.2362
X-1.2165Y2.5709
X-1.2165Y2.5315
X-1.2165Y2.4921
X-1.2165Y2.4528
X-1.2165Y2.4134
X-1.2165Y2.374
X-1.2165Y2.3346
X-1.2165Y2.2953
X-1.2165Y2.2559
X-1.2165Y2.2165
X-1.1457Y2.5512
X-1.1457Y2.5118
X-1.1457Y2.4724
X-1.1457Y2.4331
X-1.1457Y2.3937
X-1.1457Y2.3543
X-1.1457Y2.315
X-1.1457Y2.2756
X-1.1457Y2.2362
X-0.6654Y-2.3031
X-0.6654Y-2.3425
X-0.6654Y-2.3819
X-0.6654Y-2.4213
X-0.6654Y-2.4606
X-0.6654Y-2.5
X-0.6654Y-2.5394
X-0.6654Y-2.5787
X-0.6654Y-2.6181
X-0.6654Y-2.6575
X-0.5945Y-2.3228
X-0.5945Y-2.3622
X-0.5945Y-2.4016
X-0.5945Y-2.4409
X-0.5945Y-2.4803
X-0.5945Y-2.5197
X-0.5945Y-2.5591
X-0.5945Y-2.5984
X-0.5945Y-2.6378
X-0.4685Y2.5709
X-0.4685Y2.5315
X-0.4685Y2.4921
X-0.4685Y2.4528
X-0.4685Y2.4134
X-0.4685Y2.374
X-0.4685Y2.3346
X-0.4685Y2.2953
X-0.4685Y2.2559
X-0.4685Y2.2165
X-0.3976Y2.5512
X-0.3976Y2.5118
X-0.3976Y2.4724
X-0.3976Y2.4331
X-0.3976Y2.3937
X-0.3976Y2.3543
X-0.3976Y2.315
X-0.3976Y2.2756
X-0.3976Y2.2362
X-0.0354Y-2.3031
X-0.0354Y-2.3425
X-0.0354Y-2.3819
X-0.0354Y-2.4213
X-0.0354Y-2.4606
X-0.0354Y-2.5
X-0.0354Y-2.5394
X-0.0354Y-2.5787
X-0.0354Y-2.6181
X-0.0354Y-2.6575
X0.0354Y-2.3228
X0.0354Y-2.3622
X0.0354Y-2.4016
X0.0354Y-2.4409
X0.0354Y-2.4803
X0.0354Y-2.5197
X0.0354Y-2.5591
X0.0354Y-2.5984
X0.0354Y-2.6378
X0.3976Y2.5709
X0.3976Y2.5315
X0.3976Y2.4921
X0.3976Y2.4528
X0.3976Y2.4134
X0.3976Y2.374
X0.3976Y2.3346
X0.3976Y2.2953
X0.3976Y2.2559
X0.3976Y2.2165
X0.4685Y2.5512
X0.4685Y2.5118
X0.4685Y2.4724
X0.4685Y2.4331
X0.4685Y2.3937
X0.4685Y2.3543
X0.4685Y2.315
X0.4685Y2.2756
X0.4685Y2.2362
X0.5945Y-2.3031
X0.5945Y-2.3425
X0.5945Y-2.3819
X0.5945Y-2.4213
X0.5945Y-2.4606
X0.5945Y-2.5
X0.5945Y-2.5394
X0.5945Y-2.5787
X0.5945Y-2.6181
X0.5945Y-2.6575
X0.6654Y-2.3228
X0.6654Y-2.3622
X0.6654Y-2.4016
X0.6654Y-2.4409
X0.6654Y-2.4803
X0.6654Y-2.5197
X0.6654Y-2.5591
X0.6654Y-2.5984
X0.6654Y-2.6378
X1.1457Y2.5709
X1.1457Y2.5315
X1.1457Y2.4921
X1.1457Y2.4528
X1.1457Y2.4134
X1.1457Y2.374
X1.1457Y2.3346
X1.1457Y2.2953
X1.1457Y2.2559
X1.1457Y2.2165
X1.2165Y2.5512
X1.2165Y2.5118
X1.2165Y2.4724
X1.2165Y2.4331
X1.2165Y2.3937
X1.2165Y2.3543
X1.2165Y2.315
X1.2165Y2.2756
X1.2165Y2.2362
X1.8937Y2.5709
X1.8937Y2.5315
X1.8937Y2.4921
X1.8937Y2.4528
X1.8937Y2.4134
X1.8937Y2.374
X1.8937Y2.3346
X1.8937Y2.2953
X1.8937Y2.2559
X1.8937Y2.2165
X1.9646Y2.5512
X1.9646Y2.5118
X1.9646Y2.4724
X1.9646Y2.4331
X1.9646Y2.3937
X1.9646Y2.3543
X1.9646Y2.315
X1.9646Y2.2756
X1.9646Y2.2362
T2
X-0.3Y0.4724
X-0.3Y0.0
X-0.3Y-0.4724
X-0.275Y0.5157
X-0.275Y0.0433
X-0.275Y-0.4291
X-0.25Y0.4724
X-0.25Y0.0
X-0.25Y-0.4724
X-0.225Y0.5157
X-0.225Y0.0433
X-0.225Y-0.4291
X-0.2Y0.4724
X-0.2Y0.0
X-0.2Y-0.4724
X-0.175Y0.5157
X-0.175Y0.0433
X-0.175Y-0.4291
X-0.15Y0.4724
X-0.15Y0.0
X-0.15Y-0.4724
X-0.125Y0.5157
X-0.125Y0.0433
X-0.125Y-0.4291
X-0.1Y0.4724
X-0.1Y0.0
X-0.1Y-0.4724
X-0.075Y0.5157
X-0.075Y0.0433
X-0.075Y-0.4291
X-0.05Y0.4724
X-0.05Y0.0
X-0.05Y-0.4724
X-0.025Y0.5157
X-0.025Y0.0433
X-0.025Y-0.4291
X0.0Y0.4724
X0.0Y0.0
X0.0Y-0.4724
X0.025Y0.5157
X0.025Y0.0433
X0.025Y-0.4291
X0.05Y0.4724
X0.05Y0.0
X0.05Y-0.4724
X0.075Y0.5157
X0.075Y0.0433
X0.075Y-0.4291
X0.1Y0.4724
X0.1Y0.0
X0.1Y-0.4724
X0.125Y0.5157
X0.125Y0.0433
X0.125Y-0.4291
X0.15Y0.4724
X0.15Y0.0
X0.15Y-0.4724
X0.175Y0.5157
X0.175Y0.0433
X0.175Y-0.4291
X0.2Y0.4724
X0.2Y0.0
X0.2Y-0.4724
X0.225Y0.5157
X0.225Y0.0433
X0.225Y-0.4291
X0.25Y0.4724
X0.25Y0.0
X0.25Y-0.4724
X0.275Y0.5157
X0.275Y0.0433
X0.275Y-0.4291
X0.3Y0.4724
X0.3Y0.0
X0.3Y-0.4724
T4
X-1.5013Y0.6219
X-1.5013Y-0.6219
X-0.6219Y1.5013
X-0.6219Y-1.5013
X0.6219Y1.5013
X0.6219Y-1.5013
X1.5013Y0.6219
X1.5013Y-0.6219
T3
G00X-1.872Y2.6594
M15
G01X-1.9862Y2.6594
M16
G05
G00X-1.872Y2.128
M15
G01X-1.9862Y2.128
M16
G05
G00X-1.124Y2.6594
M15
G01X-1.2382Y2.6594
M16
G05
G00X-1.124Y2.128
M15
G01X-1.2382Y2.128
M16
G05
G00X-0.5728Y-2.2146
M15
G01X-0.687Y-2.2146
M16
G05
G00X-0.5728Y-2.7461
M15
G01X-0.687Y-2.7461
M16
G05
G00X-0.376Y2.6594
M15
G01X-0.4902Y2.6594
M16
G05
G00X-0.376Y2.128
M15
G01X-0.4902Y2.128
M16
G05
G00X0.0571Y-2.2146
M15
G01X-0.0571Y-2.2146
M16
G05
G00X0.0571Y-2.7461
M15
G01X-0.0571Y-2.7461
M16
G05
G00X0.4902Y2.6594
M15
G01X0.376Y2.6594
M16
G05
G00X0.4902Y2.128
M15
G01X0.376Y2.128
M16
G05
G00X0.687Y-2.2146
M15
G01X0.5728Y-2.2146
M16
G05
G00X0.687Y-2.7461
M15
G01X0.5728Y-2.7461
M16
G05
G00X1.2382Y2.6594
M15
G01X1.124Y2.6594
M16
G05
G00X1.2382Y2.128
M15
G01X1.124Y2.128
M16
G05
G00X1.9862Y2.6594
M15
G01X1.872Y2.6594
M16
G05
G00X1.9862Y2.128
M15
G01X1.872Y2.128
M16
G05
T0
M30
