G04 #@! TF.GenerationSoftware,KiCad,Pcbnew,(5.1.9)-1*
G04 #@! TF.CreationDate,2022-02-09T13:04:00-07:00*
G04 #@! TF.ProjectId,HDMI_to_DB9,48444d49-5f74-46f5-9f44-42392e6b6963,rev?*
G04 #@! TF.SameCoordinates,Original*
G04 #@! TF.FileFunction,Legend,Top*
G04 #@! TF.FilePolarity,Positive*
%FSLAX46Y46*%
G04 Gerber Fmt 4.6, Leading zero omitted, Abs format (unit mm)*
G04 Created by KiCad (PCBNEW (5.1.9)-1) date 2022-02-09 13:04:00*
%MOMM*%
%LPD*%
G01*
G04 APERTURE LIST*
%ADD10C,0.300000*%
%ADD11C,0.254000*%
%ADD12C,0.200000*%
%ADD13C,0.150000*%
%ADD14C,0.203000*%
G04 APERTURE END LIST*
D10*
X80178571Y-209500000D02*
X81178571Y-209500000D01*
X79607142Y-209857142D02*
X80678571Y-210214285D01*
X80678571Y-209285714D01*
X79678571Y-208428571D02*
X79678571Y-208285714D01*
X79750000Y-208142857D01*
X79821428Y-208071428D01*
X79964285Y-208000000D01*
X80250000Y-207928571D01*
X80607142Y-207928571D01*
X80892857Y-208000000D01*
X81035714Y-208071428D01*
X81107142Y-208142857D01*
X81178571Y-208285714D01*
X81178571Y-208428571D01*
X81107142Y-208571428D01*
X81035714Y-208642857D01*
X80892857Y-208714285D01*
X80607142Y-208785714D01*
X80250000Y-208785714D01*
X79964285Y-208714285D01*
X79821428Y-208642857D01*
X79750000Y-208571428D01*
X79678571Y-208428571D01*
X81178571Y-207285714D02*
X79678571Y-207285714D01*
X81178571Y-206428571D02*
X80321428Y-207071428D01*
X79678571Y-206428571D02*
X80535714Y-207285714D01*
X81178571Y-204000000D02*
X80392857Y-204000000D01*
X80250000Y-204071428D01*
X80178571Y-204214285D01*
X80178571Y-204500000D01*
X80250000Y-204642857D01*
X81107142Y-204000000D02*
X81178571Y-204142857D01*
X81178571Y-204500000D01*
X81107142Y-204642857D01*
X80964285Y-204714285D01*
X80821428Y-204714285D01*
X80678571Y-204642857D01*
X80607142Y-204500000D01*
X80607142Y-204142857D01*
X80535714Y-204000000D01*
X80178571Y-203285714D02*
X81178571Y-203285714D01*
X80321428Y-203285714D02*
X80250000Y-203214285D01*
X80178571Y-203071428D01*
X80178571Y-202857142D01*
X80250000Y-202714285D01*
X80392857Y-202642857D01*
X81178571Y-202642857D01*
X81178571Y-201285714D02*
X79678571Y-201285714D01*
X81107142Y-201285714D02*
X81178571Y-201428571D01*
X81178571Y-201714285D01*
X81107142Y-201857142D01*
X81035714Y-201928571D01*
X80892857Y-202000000D01*
X80464285Y-202000000D01*
X80321428Y-201928571D01*
X80250000Y-201857142D01*
X80178571Y-201714285D01*
X80178571Y-201428571D01*
X80250000Y-201285714D01*
X80178571Y-198785714D02*
X81178571Y-198785714D01*
X79607142Y-199142857D02*
X80678571Y-199500000D01*
X80678571Y-198571428D01*
X81178571Y-198000000D02*
X79678571Y-198000000D01*
X81178571Y-197142857D02*
X80321428Y-197785714D01*
X79678571Y-197142857D02*
X80535714Y-198000000D01*
X81178571Y-195357142D02*
X79678571Y-195357142D01*
X79678571Y-195000000D01*
X79750000Y-194785714D01*
X79892857Y-194642857D01*
X80035714Y-194571428D01*
X80321428Y-194500000D01*
X80535714Y-194500000D01*
X80821428Y-194571428D01*
X80964285Y-194642857D01*
X81107142Y-194785714D01*
X81178571Y-195000000D01*
X81178571Y-195357142D01*
X81178571Y-193857142D02*
X80178571Y-193857142D01*
X79678571Y-193857142D02*
X79750000Y-193928571D01*
X79821428Y-193857142D01*
X79750000Y-193785714D01*
X79678571Y-193857142D01*
X79821428Y-193857142D01*
X81178571Y-192928571D02*
X81107142Y-193071428D01*
X81035714Y-193142857D01*
X80892857Y-193214285D01*
X80464285Y-193214285D01*
X80321428Y-193142857D01*
X80250000Y-193071428D01*
X80178571Y-192928571D01*
X80178571Y-192714285D01*
X80250000Y-192571428D01*
X80321428Y-192500000D01*
X80464285Y-192428571D01*
X80892857Y-192428571D01*
X81035714Y-192500000D01*
X81107142Y-192571428D01*
X81178571Y-192714285D01*
X81178571Y-192928571D01*
X81178571Y-191142857D02*
X79678571Y-191142857D01*
X81107142Y-191142857D02*
X81178571Y-191285714D01*
X81178571Y-191571428D01*
X81107142Y-191714285D01*
X81035714Y-191785714D01*
X80892857Y-191857142D01*
X80464285Y-191857142D01*
X80321428Y-191785714D01*
X80250000Y-191714285D01*
X80178571Y-191571428D01*
X80178571Y-191285714D01*
X80250000Y-191142857D01*
X81107142Y-189857142D02*
X81178571Y-190000000D01*
X81178571Y-190285714D01*
X81107142Y-190428571D01*
X80964285Y-190500000D01*
X80392857Y-190500000D01*
X80250000Y-190428571D01*
X80178571Y-190285714D01*
X80178571Y-190000000D01*
X80250000Y-189857142D01*
X80392857Y-189785714D01*
X80535714Y-189785714D01*
X80678571Y-190500000D01*
X43607142Y-211142857D02*
X43678571Y-210928571D01*
X43678571Y-210571428D01*
X43607142Y-210428571D01*
X43535714Y-210357142D01*
X43392857Y-210285714D01*
X43250000Y-210285714D01*
X43107142Y-210357142D01*
X43035714Y-210428571D01*
X42964285Y-210571428D01*
X42892857Y-210857142D01*
X42821428Y-211000000D01*
X42750000Y-211071428D01*
X42607142Y-211142857D01*
X42464285Y-211142857D01*
X42321428Y-211071428D01*
X42250000Y-211000000D01*
X42178571Y-210857142D01*
X42178571Y-210500000D01*
X42250000Y-210285714D01*
X42678571Y-209857142D02*
X42678571Y-209285714D01*
X42178571Y-209642857D02*
X43464285Y-209642857D01*
X43607142Y-209571428D01*
X43678571Y-209428571D01*
X43678571Y-209285714D01*
X43678571Y-208785714D02*
X42678571Y-208785714D01*
X42178571Y-208785714D02*
X42250000Y-208857142D01*
X42321428Y-208785714D01*
X42250000Y-208714285D01*
X42178571Y-208785714D01*
X42321428Y-208785714D01*
X43678571Y-207857142D02*
X43607142Y-208000000D01*
X43464285Y-208071428D01*
X42178571Y-208071428D01*
X43678571Y-207071428D02*
X43607142Y-207214285D01*
X43464285Y-207285714D01*
X42178571Y-207285714D01*
X43678571Y-205357142D02*
X42178571Y-205357142D01*
X42892857Y-205357142D02*
X42892857Y-204500000D01*
X43678571Y-204500000D02*
X42178571Y-204500000D01*
X43607142Y-203214285D02*
X43678571Y-203357142D01*
X43678571Y-203642857D01*
X43607142Y-203785714D01*
X43464285Y-203857142D01*
X42892857Y-203857142D01*
X42750000Y-203785714D01*
X42678571Y-203642857D01*
X42678571Y-203357142D01*
X42750000Y-203214285D01*
X42892857Y-203142857D01*
X43035714Y-203142857D01*
X43178571Y-203857142D01*
X43678571Y-201857142D02*
X42892857Y-201857142D01*
X42750000Y-201928571D01*
X42678571Y-202071428D01*
X42678571Y-202357142D01*
X42750000Y-202500000D01*
X43607142Y-201857142D02*
X43678571Y-202000000D01*
X43678571Y-202357142D01*
X43607142Y-202500000D01*
X43464285Y-202571428D01*
X43321428Y-202571428D01*
X43178571Y-202500000D01*
X43107142Y-202357142D01*
X43107142Y-202000000D01*
X43035714Y-201857142D01*
X42678571Y-201357142D02*
X42678571Y-200785714D01*
X42178571Y-201142857D02*
X43464285Y-201142857D01*
X43607142Y-201071428D01*
X43678571Y-200928571D01*
X43678571Y-200785714D01*
X43607142Y-199714285D02*
X43678571Y-199857142D01*
X43678571Y-200142857D01*
X43607142Y-200285714D01*
X43464285Y-200357142D01*
X42892857Y-200357142D01*
X42750000Y-200285714D01*
X42678571Y-200142857D01*
X42678571Y-199857142D01*
X42750000Y-199714285D01*
X42892857Y-199642857D01*
X43035714Y-199642857D01*
X43178571Y-200357142D01*
X43678571Y-199000000D02*
X42678571Y-199000000D01*
X42964285Y-199000000D02*
X42821428Y-198928571D01*
X42750000Y-198857142D01*
X42678571Y-198714285D01*
X42678571Y-198571428D01*
X43678571Y-195714285D02*
X43678571Y-195785714D01*
X43607142Y-195928571D01*
X43392857Y-196142857D01*
X42964285Y-196500000D01*
X42750000Y-196642857D01*
X42535714Y-196714285D01*
X42392857Y-196714285D01*
X42250000Y-196642857D01*
X42178571Y-196500000D01*
X42178571Y-196428571D01*
X42250000Y-196285714D01*
X42392857Y-196214285D01*
X42464285Y-196214285D01*
X42607142Y-196285714D01*
X42678571Y-196357142D01*
X42964285Y-196785714D01*
X43035714Y-196857142D01*
X43178571Y-196928571D01*
X43392857Y-196928571D01*
X43535714Y-196857142D01*
X43607142Y-196785714D01*
X43678571Y-196642857D01*
X43678571Y-196428571D01*
X43607142Y-196285714D01*
X43535714Y-196214285D01*
X43250000Y-196000000D01*
X43035714Y-195928571D01*
X42892857Y-195928571D01*
X42892857Y-193928571D02*
X42892857Y-193428571D01*
X43678571Y-193214285D02*
X43678571Y-193928571D01*
X42178571Y-193928571D01*
X42178571Y-193214285D01*
X43678571Y-192714285D02*
X42678571Y-191928571D01*
X42678571Y-192714285D02*
X43678571Y-191928571D01*
X42678571Y-191571428D02*
X42678571Y-191000000D01*
X42178571Y-191357142D02*
X43464285Y-191357142D01*
X43607142Y-191285714D01*
X43678571Y-191142857D01*
X43678571Y-191000000D01*
X43678571Y-190500000D02*
X42678571Y-190500000D01*
X42964285Y-190500000D02*
X42821428Y-190428571D01*
X42750000Y-190357142D01*
X42678571Y-190214285D01*
X42678571Y-190071428D01*
X43678571Y-188928571D02*
X42892857Y-188928571D01*
X42750000Y-189000000D01*
X42678571Y-189142857D01*
X42678571Y-189428571D01*
X42750000Y-189571428D01*
X43607142Y-188928571D02*
X43678571Y-189071428D01*
X43678571Y-189428571D01*
X43607142Y-189571428D01*
X43464285Y-189642857D01*
X43321428Y-189642857D01*
X43178571Y-189571428D01*
X43107142Y-189428571D01*
X43107142Y-189071428D01*
X43035714Y-188928571D01*
X98535714Y-182392857D02*
X98607142Y-182464285D01*
X98678571Y-182678571D01*
X98678571Y-182821428D01*
X98607142Y-183035714D01*
X98464285Y-183178571D01*
X98321428Y-183250000D01*
X98035714Y-183321428D01*
X97821428Y-183321428D01*
X97535714Y-183250000D01*
X97392857Y-183178571D01*
X97250000Y-183035714D01*
X97178571Y-182821428D01*
X97178571Y-182678571D01*
X97250000Y-182464285D01*
X97321428Y-182392857D01*
X98678571Y-181535714D02*
X98607142Y-181678571D01*
X98535714Y-181750000D01*
X98392857Y-181821428D01*
X97964285Y-181821428D01*
X97821428Y-181750000D01*
X97750000Y-181678571D01*
X97678571Y-181535714D01*
X97678571Y-181321428D01*
X97750000Y-181178571D01*
X97821428Y-181107142D01*
X97964285Y-181035714D01*
X98392857Y-181035714D01*
X98535714Y-181107142D01*
X98607142Y-181178571D01*
X98678571Y-181321428D01*
X98678571Y-181535714D01*
X97678571Y-180392857D02*
X98678571Y-180392857D01*
X97821428Y-180392857D02*
X97750000Y-180321428D01*
X97678571Y-180178571D01*
X97678571Y-179964285D01*
X97750000Y-179821428D01*
X97892857Y-179750000D01*
X98678571Y-179750000D01*
X98678571Y-178392857D02*
X97178571Y-178392857D01*
X98607142Y-178392857D02*
X98678571Y-178535714D01*
X98678571Y-178821428D01*
X98607142Y-178964285D01*
X98535714Y-179035714D01*
X98392857Y-179107142D01*
X97964285Y-179107142D01*
X97821428Y-179035714D01*
X97750000Y-178964285D01*
X97678571Y-178821428D01*
X97678571Y-178535714D01*
X97750000Y-178392857D01*
X98607142Y-177107142D02*
X98678571Y-177250000D01*
X98678571Y-177535714D01*
X98607142Y-177678571D01*
X98464285Y-177750000D01*
X97892857Y-177750000D01*
X97750000Y-177678571D01*
X97678571Y-177535714D01*
X97678571Y-177250000D01*
X97750000Y-177107142D01*
X97892857Y-177035714D01*
X98035714Y-177035714D01*
X98178571Y-177750000D01*
X97678571Y-176392857D02*
X98678571Y-176392857D01*
X97821428Y-176392857D02*
X97750000Y-176321428D01*
X97678571Y-176178571D01*
X97678571Y-175964285D01*
X97750000Y-175821428D01*
X97892857Y-175750000D01*
X98678571Y-175750000D01*
X98607142Y-175107142D02*
X98678571Y-174964285D01*
X98678571Y-174678571D01*
X98607142Y-174535714D01*
X98464285Y-174464285D01*
X98392857Y-174464285D01*
X98250000Y-174535714D01*
X98178571Y-174678571D01*
X98178571Y-174892857D01*
X98107142Y-175035714D01*
X97964285Y-175107142D01*
X97892857Y-175107142D01*
X97750000Y-175035714D01*
X97678571Y-174892857D01*
X97678571Y-174678571D01*
X97750000Y-174535714D01*
X98607142Y-173250000D02*
X98678571Y-173392857D01*
X98678571Y-173678571D01*
X98607142Y-173821428D01*
X98464285Y-173892857D01*
X97892857Y-173892857D01*
X97750000Y-173821428D01*
X97678571Y-173678571D01*
X97678571Y-173392857D01*
X97750000Y-173250000D01*
X97892857Y-173178571D01*
X98035714Y-173178571D01*
X98178571Y-173892857D01*
X98678571Y-172535714D02*
X97678571Y-172535714D01*
X97964285Y-172535714D02*
X97821428Y-172464285D01*
X97750000Y-172392857D01*
X97678571Y-172250000D01*
X97678571Y-172107142D01*
X97178571Y-170678571D02*
X97178571Y-169821428D01*
X98678571Y-170250000D02*
X97178571Y-170250000D01*
X98678571Y-169321428D02*
X97178571Y-169321428D01*
X98678571Y-168678571D02*
X97892857Y-168678571D01*
X97750000Y-168750000D01*
X97678571Y-168892857D01*
X97678571Y-169107142D01*
X97750000Y-169250000D01*
X97821428Y-169321428D01*
X98607142Y-167392857D02*
X98678571Y-167535714D01*
X98678571Y-167821428D01*
X98607142Y-167964285D01*
X98464285Y-168035714D01*
X97892857Y-168035714D01*
X97750000Y-167964285D01*
X97678571Y-167821428D01*
X97678571Y-167535714D01*
X97750000Y-167392857D01*
X97892857Y-167321428D01*
X98035714Y-167321428D01*
X98178571Y-168035714D01*
X98678571Y-166678571D02*
X97678571Y-166678571D01*
X97964285Y-166678571D02*
X97821428Y-166607142D01*
X97750000Y-166535714D01*
X97678571Y-166392857D01*
X97678571Y-166250000D01*
X98678571Y-165750000D02*
X97678571Y-165750000D01*
X97821428Y-165750000D02*
X97750000Y-165678571D01*
X97678571Y-165535714D01*
X97678571Y-165321428D01*
X97750000Y-165178571D01*
X97892857Y-165107142D01*
X98678571Y-165107142D01*
X97892857Y-165107142D02*
X97750000Y-165035714D01*
X97678571Y-164892857D01*
X97678571Y-164678571D01*
X97750000Y-164535714D01*
X97892857Y-164464285D01*
X98678571Y-164464285D01*
X98678571Y-163535714D02*
X98607142Y-163678571D01*
X98535714Y-163750000D01*
X98392857Y-163821428D01*
X97964285Y-163821428D01*
X97821428Y-163750000D01*
X97750000Y-163678571D01*
X97678571Y-163535714D01*
X97678571Y-163321428D01*
X97750000Y-163178571D01*
X97821428Y-163107142D01*
X97964285Y-163035714D01*
X98392857Y-163035714D01*
X98535714Y-163107142D01*
X98607142Y-163178571D01*
X98678571Y-163321428D01*
X98678571Y-163535714D01*
X98678571Y-162392857D02*
X97678571Y-162392857D01*
X97821428Y-162392857D02*
X97750000Y-162321428D01*
X97678571Y-162178571D01*
X97678571Y-161964285D01*
X97750000Y-161821428D01*
X97892857Y-161750000D01*
X98678571Y-161750000D01*
X97892857Y-161750000D02*
X97750000Y-161678571D01*
X97678571Y-161535714D01*
X97678571Y-161321428D01*
X97750000Y-161178571D01*
X97892857Y-161107142D01*
X98678571Y-161107142D01*
X98607142Y-159821428D02*
X98678571Y-159964285D01*
X98678571Y-160250000D01*
X98607142Y-160392857D01*
X98464285Y-160464285D01*
X97892857Y-160464285D01*
X97750000Y-160392857D01*
X97678571Y-160250000D01*
X97678571Y-159964285D01*
X97750000Y-159821428D01*
X97892857Y-159750000D01*
X98035714Y-159750000D01*
X98178571Y-160464285D01*
X97678571Y-159321428D02*
X97678571Y-158750000D01*
X97178571Y-159107142D02*
X98464285Y-159107142D01*
X98607142Y-159035714D01*
X98678571Y-158892857D01*
X98678571Y-158750000D01*
X98607142Y-157678571D02*
X98678571Y-157821428D01*
X98678571Y-158107142D01*
X98607142Y-158250000D01*
X98464285Y-158321428D01*
X97892857Y-158321428D01*
X97750000Y-158250000D01*
X97678571Y-158107142D01*
X97678571Y-157821428D01*
X97750000Y-157678571D01*
X97892857Y-157607142D01*
X98035714Y-157607142D01*
X98178571Y-158321428D01*
X98678571Y-156964285D02*
X97678571Y-156964285D01*
X97964285Y-156964285D02*
X97821428Y-156892857D01*
X97750000Y-156821428D01*
X97678571Y-156678571D01*
X97678571Y-156535714D01*
X63607142Y-179785714D02*
X63678571Y-179571428D01*
X63678571Y-179214285D01*
X63607142Y-179071428D01*
X63535714Y-179000000D01*
X63392857Y-178928571D01*
X63250000Y-178928571D01*
X63107142Y-179000000D01*
X63035714Y-179071428D01*
X62964285Y-179214285D01*
X62892857Y-179500000D01*
X62821428Y-179642857D01*
X62750000Y-179714285D01*
X62607142Y-179785714D01*
X62464285Y-179785714D01*
X62321428Y-179714285D01*
X62250000Y-179642857D01*
X62178571Y-179500000D01*
X62178571Y-179142857D01*
X62250000Y-178928571D01*
X62678571Y-178500000D02*
X62678571Y-177928571D01*
X62178571Y-178285714D02*
X63464285Y-178285714D01*
X63607142Y-178214285D01*
X63678571Y-178071428D01*
X63678571Y-177928571D01*
X63678571Y-177428571D02*
X62678571Y-177428571D01*
X62178571Y-177428571D02*
X62250000Y-177500000D01*
X62321428Y-177428571D01*
X62250000Y-177357142D01*
X62178571Y-177428571D01*
X62321428Y-177428571D01*
X63678571Y-176500000D02*
X63607142Y-176642857D01*
X63464285Y-176714285D01*
X62178571Y-176714285D01*
X63678571Y-175714285D02*
X63607142Y-175857142D01*
X63464285Y-175928571D01*
X62178571Y-175928571D01*
X62178571Y-174214285D02*
X62178571Y-173357142D01*
X63678571Y-173785714D02*
X62178571Y-173785714D01*
X63678571Y-172857142D02*
X62178571Y-172857142D01*
X63678571Y-172214285D02*
X62892857Y-172214285D01*
X62750000Y-172285714D01*
X62678571Y-172428571D01*
X62678571Y-172642857D01*
X62750000Y-172785714D01*
X62821428Y-172857142D01*
X63607142Y-170928571D02*
X63678571Y-171071428D01*
X63678571Y-171357142D01*
X63607142Y-171500000D01*
X63464285Y-171571428D01*
X62892857Y-171571428D01*
X62750000Y-171500000D01*
X62678571Y-171357142D01*
X62678571Y-171071428D01*
X62750000Y-170928571D01*
X62892857Y-170857142D01*
X63035714Y-170857142D01*
X63178571Y-171571428D01*
X63678571Y-170214285D02*
X62678571Y-170214285D01*
X62964285Y-170214285D02*
X62821428Y-170142857D01*
X62750000Y-170071428D01*
X62678571Y-169928571D01*
X62678571Y-169785714D01*
X63678571Y-169285714D02*
X62678571Y-169285714D01*
X62821428Y-169285714D02*
X62750000Y-169214285D01*
X62678571Y-169071428D01*
X62678571Y-168857142D01*
X62750000Y-168714285D01*
X62892857Y-168642857D01*
X63678571Y-168642857D01*
X62892857Y-168642857D02*
X62750000Y-168571428D01*
X62678571Y-168428571D01*
X62678571Y-168214285D01*
X62750000Y-168071428D01*
X62892857Y-168000000D01*
X63678571Y-168000000D01*
X63678571Y-167071428D02*
X63607142Y-167214285D01*
X63535714Y-167285714D01*
X63392857Y-167357142D01*
X62964285Y-167357142D01*
X62821428Y-167285714D01*
X62750000Y-167214285D01*
X62678571Y-167071428D01*
X62678571Y-166857142D01*
X62750000Y-166714285D01*
X62821428Y-166642857D01*
X62964285Y-166571428D01*
X63392857Y-166571428D01*
X63535714Y-166642857D01*
X63607142Y-166714285D01*
X63678571Y-166857142D01*
X63678571Y-167071428D01*
X63678571Y-165928571D02*
X62678571Y-165928571D01*
X62821428Y-165928571D02*
X62750000Y-165857142D01*
X62678571Y-165714285D01*
X62678571Y-165500000D01*
X62750000Y-165357142D01*
X62892857Y-165285714D01*
X63678571Y-165285714D01*
X62892857Y-165285714D02*
X62750000Y-165214285D01*
X62678571Y-165071428D01*
X62678571Y-164857142D01*
X62750000Y-164714285D01*
X62892857Y-164642857D01*
X63678571Y-164642857D01*
X63607142Y-163357142D02*
X63678571Y-163500000D01*
X63678571Y-163785714D01*
X63607142Y-163928571D01*
X63464285Y-164000000D01*
X62892857Y-164000000D01*
X62750000Y-163928571D01*
X62678571Y-163785714D01*
X62678571Y-163500000D01*
X62750000Y-163357142D01*
X62892857Y-163285714D01*
X63035714Y-163285714D01*
X63178571Y-164000000D01*
X62678571Y-162857142D02*
X62678571Y-162285714D01*
X62178571Y-162642857D02*
X63464285Y-162642857D01*
X63607142Y-162571428D01*
X63678571Y-162428571D01*
X63678571Y-162285714D01*
X63607142Y-161214285D02*
X63678571Y-161357142D01*
X63678571Y-161642857D01*
X63607142Y-161785714D01*
X63464285Y-161857142D01*
X62892857Y-161857142D01*
X62750000Y-161785714D01*
X62678571Y-161642857D01*
X62678571Y-161357142D01*
X62750000Y-161214285D01*
X62892857Y-161142857D01*
X63035714Y-161142857D01*
X63178571Y-161857142D01*
X63678571Y-160500000D02*
X62678571Y-160500000D01*
X62964285Y-160500000D02*
X62821428Y-160428571D01*
X62750000Y-160357142D01*
X62678571Y-160214285D01*
X62678571Y-160071428D01*
X27778571Y-148935714D02*
X28778571Y-148935714D01*
X27207142Y-149292857D02*
X28278571Y-149650000D01*
X28278571Y-148721428D01*
X28707142Y-147078571D02*
X28778571Y-146864285D01*
X28778571Y-146507142D01*
X28707142Y-146364285D01*
X28635714Y-146292857D01*
X28492857Y-146221428D01*
X28350000Y-146221428D01*
X28207142Y-146292857D01*
X28135714Y-146364285D01*
X28064285Y-146507142D01*
X27992857Y-146792857D01*
X27921428Y-146935714D01*
X27850000Y-147007142D01*
X27707142Y-147078571D01*
X27564285Y-147078571D01*
X27421428Y-147007142D01*
X27350000Y-146935714D01*
X27278571Y-146792857D01*
X27278571Y-146435714D01*
X27350000Y-146221428D01*
X27778571Y-145721428D02*
X28778571Y-145435714D01*
X28064285Y-145150000D01*
X28778571Y-144864285D01*
X27778571Y-144578571D01*
X28778571Y-144007142D02*
X27778571Y-144007142D01*
X27278571Y-144007142D02*
X27350000Y-144078571D01*
X27421428Y-144007142D01*
X27350000Y-143935714D01*
X27278571Y-144007142D01*
X27421428Y-144007142D01*
X27778571Y-143507142D02*
X27778571Y-142935714D01*
X27278571Y-143292857D02*
X28564285Y-143292857D01*
X28707142Y-143221428D01*
X28778571Y-143078571D01*
X28778571Y-142935714D01*
X28707142Y-141792857D02*
X28778571Y-141935714D01*
X28778571Y-142221428D01*
X28707142Y-142364285D01*
X28635714Y-142435714D01*
X28492857Y-142507142D01*
X28064285Y-142507142D01*
X27921428Y-142435714D01*
X27850000Y-142364285D01*
X27778571Y-142221428D01*
X27778571Y-141935714D01*
X27850000Y-141792857D01*
X28778571Y-141150000D02*
X27278571Y-141150000D01*
X28778571Y-140507142D02*
X27992857Y-140507142D01*
X27850000Y-140578571D01*
X27778571Y-140721428D01*
X27778571Y-140935714D01*
X27850000Y-141078571D01*
X27921428Y-141150000D01*
X28778571Y-137435714D02*
X28778571Y-137507142D01*
X28707142Y-137650000D01*
X28492857Y-137864285D01*
X28064285Y-138221428D01*
X27850000Y-138364285D01*
X27635714Y-138435714D01*
X27492857Y-138435714D01*
X27350000Y-138364285D01*
X27278571Y-138221428D01*
X27278571Y-138150000D01*
X27350000Y-138007142D01*
X27492857Y-137935714D01*
X27564285Y-137935714D01*
X27707142Y-138007142D01*
X27778571Y-138078571D01*
X28064285Y-138507142D01*
X28135714Y-138578571D01*
X28278571Y-138650000D01*
X28492857Y-138650000D01*
X28635714Y-138578571D01*
X28707142Y-138507142D01*
X28778571Y-138364285D01*
X28778571Y-138150000D01*
X28707142Y-138007142D01*
X28635714Y-137935714D01*
X28350000Y-137721428D01*
X28135714Y-137650000D01*
X27992857Y-137650000D01*
X27278571Y-135792857D02*
X27278571Y-134864285D01*
X27850000Y-135364285D01*
X27850000Y-135150000D01*
X27921428Y-135007142D01*
X27992857Y-134935714D01*
X28135714Y-134864285D01*
X28492857Y-134864285D01*
X28635714Y-134935714D01*
X28707142Y-135007142D01*
X28778571Y-135150000D01*
X28778571Y-135578571D01*
X28707142Y-135721428D01*
X28635714Y-135792857D01*
X28707142Y-133150000D02*
X28778571Y-132935714D01*
X28778571Y-132578571D01*
X28707142Y-132435714D01*
X28635714Y-132364285D01*
X28492857Y-132292857D01*
X28350000Y-132292857D01*
X28207142Y-132364285D01*
X28135714Y-132435714D01*
X28064285Y-132578571D01*
X27992857Y-132864285D01*
X27921428Y-133007142D01*
X27850000Y-133078571D01*
X27707142Y-133150000D01*
X27564285Y-133150000D01*
X27421428Y-133078571D01*
X27350000Y-133007142D01*
X27278571Y-132864285D01*
X27278571Y-132507142D01*
X27350000Y-132292857D01*
X27778571Y-131792857D02*
X28778571Y-131507142D01*
X28064285Y-131221428D01*
X28778571Y-130935714D01*
X27778571Y-130650000D01*
X28778571Y-130078571D02*
X27778571Y-130078571D01*
X27278571Y-130078571D02*
X27350000Y-130150000D01*
X27421428Y-130078571D01*
X27350000Y-130007142D01*
X27278571Y-130078571D01*
X27421428Y-130078571D01*
X27778571Y-129578571D02*
X27778571Y-129007142D01*
X27278571Y-129364285D02*
X28564285Y-129364285D01*
X28707142Y-129292857D01*
X28778571Y-129150000D01*
X28778571Y-129007142D01*
X28707142Y-127864285D02*
X28778571Y-128007142D01*
X28778571Y-128292857D01*
X28707142Y-128435714D01*
X28635714Y-128507142D01*
X28492857Y-128578571D01*
X28064285Y-128578571D01*
X27921428Y-128507142D01*
X27850000Y-128435714D01*
X27778571Y-128292857D01*
X27778571Y-128007142D01*
X27850000Y-127864285D01*
X28778571Y-127221428D02*
X27278571Y-127221428D01*
X28778571Y-126578571D02*
X27992857Y-126578571D01*
X27850000Y-126650000D01*
X27778571Y-126792857D01*
X27778571Y-127007142D01*
X27850000Y-127150000D01*
X27921428Y-127221428D01*
X28778571Y-124721428D02*
X27278571Y-124721428D01*
X27278571Y-124364285D01*
X27350000Y-124150000D01*
X27492857Y-124007142D01*
X27635714Y-123935714D01*
X27921428Y-123864285D01*
X28135714Y-123864285D01*
X28421428Y-123935714D01*
X28564285Y-124007142D01*
X28707142Y-124150000D01*
X28778571Y-124364285D01*
X28778571Y-124721428D01*
X28778571Y-123221428D02*
X27778571Y-123221428D01*
X27278571Y-123221428D02*
X27350000Y-123292857D01*
X27421428Y-123221428D01*
X27350000Y-123150000D01*
X27278571Y-123221428D01*
X27421428Y-123221428D01*
X28778571Y-122292857D02*
X28707142Y-122435714D01*
X28635714Y-122507142D01*
X28492857Y-122578571D01*
X28064285Y-122578571D01*
X27921428Y-122507142D01*
X27850000Y-122435714D01*
X27778571Y-122292857D01*
X27778571Y-122078571D01*
X27850000Y-121935714D01*
X27921428Y-121864285D01*
X28064285Y-121792857D01*
X28492857Y-121792857D01*
X28635714Y-121864285D01*
X28707142Y-121935714D01*
X28778571Y-122078571D01*
X28778571Y-122292857D01*
X28778571Y-120507142D02*
X27278571Y-120507142D01*
X28707142Y-120507142D02*
X28778571Y-120650000D01*
X28778571Y-120935714D01*
X28707142Y-121078571D01*
X28635714Y-121150000D01*
X28492857Y-121221428D01*
X28064285Y-121221428D01*
X27921428Y-121150000D01*
X27850000Y-121078571D01*
X27778571Y-120935714D01*
X27778571Y-120650000D01*
X27850000Y-120507142D01*
X28707142Y-119221428D02*
X28778571Y-119364285D01*
X28778571Y-119650000D01*
X28707142Y-119792857D01*
X28564285Y-119864285D01*
X27992857Y-119864285D01*
X27850000Y-119792857D01*
X27778571Y-119650000D01*
X27778571Y-119364285D01*
X27850000Y-119221428D01*
X27992857Y-119150000D01*
X28135714Y-119150000D01*
X28278571Y-119864285D01*
X28678571Y-181535714D02*
X27178571Y-181535714D01*
X27178571Y-181178571D01*
X27250000Y-180964285D01*
X27392857Y-180821428D01*
X27535714Y-180750000D01*
X27821428Y-180678571D01*
X28035714Y-180678571D01*
X28321428Y-180750000D01*
X28464285Y-180821428D01*
X28607142Y-180964285D01*
X28678571Y-181178571D01*
X28678571Y-181535714D01*
X28678571Y-178892857D02*
X27178571Y-178892857D01*
X27892857Y-178892857D02*
X27892857Y-178035714D01*
X28678571Y-178035714D02*
X27178571Y-178035714D01*
X28607142Y-176750000D02*
X28678571Y-176892857D01*
X28678571Y-177178571D01*
X28607142Y-177321428D01*
X28464285Y-177392857D01*
X27892857Y-177392857D01*
X27750000Y-177321428D01*
X27678571Y-177178571D01*
X27678571Y-176892857D01*
X27750000Y-176750000D01*
X27892857Y-176678571D01*
X28035714Y-176678571D01*
X28178571Y-177392857D01*
X28678571Y-175392857D02*
X27892857Y-175392857D01*
X27750000Y-175464285D01*
X27678571Y-175607142D01*
X27678571Y-175892857D01*
X27750000Y-176035714D01*
X28607142Y-175392857D02*
X28678571Y-175535714D01*
X28678571Y-175892857D01*
X28607142Y-176035714D01*
X28464285Y-176107142D01*
X28321428Y-176107142D01*
X28178571Y-176035714D01*
X28107142Y-175892857D01*
X28107142Y-175535714D01*
X28035714Y-175392857D01*
X28678571Y-174035714D02*
X27178571Y-174035714D01*
X28607142Y-174035714D02*
X28678571Y-174178571D01*
X28678571Y-174464285D01*
X28607142Y-174607142D01*
X28535714Y-174678571D01*
X28392857Y-174750000D01*
X27964285Y-174750000D01*
X27821428Y-174678571D01*
X27750000Y-174607142D01*
X27678571Y-174464285D01*
X27678571Y-174178571D01*
X27750000Y-174035714D01*
X27178571Y-172392857D02*
X27178571Y-171535714D01*
X28678571Y-171964285D02*
X27178571Y-171964285D01*
X28678571Y-171035714D02*
X27178571Y-171035714D01*
X28678571Y-170392857D02*
X27892857Y-170392857D01*
X27750000Y-170464285D01*
X27678571Y-170607142D01*
X27678571Y-170821428D01*
X27750000Y-170964285D01*
X27821428Y-171035714D01*
X28607142Y-169107142D02*
X28678571Y-169250000D01*
X28678571Y-169535714D01*
X28607142Y-169678571D01*
X28464285Y-169750000D01*
X27892857Y-169750000D01*
X27750000Y-169678571D01*
X27678571Y-169535714D01*
X27678571Y-169250000D01*
X27750000Y-169107142D01*
X27892857Y-169035714D01*
X28035714Y-169035714D01*
X28178571Y-169750000D01*
X28678571Y-168392857D02*
X27678571Y-168392857D01*
X27964285Y-168392857D02*
X27821428Y-168321428D01*
X27750000Y-168250000D01*
X27678571Y-168107142D01*
X27678571Y-167964285D01*
X28678571Y-167464285D02*
X27678571Y-167464285D01*
X27821428Y-167464285D02*
X27750000Y-167392857D01*
X27678571Y-167250000D01*
X27678571Y-167035714D01*
X27750000Y-166892857D01*
X27892857Y-166821428D01*
X28678571Y-166821428D01*
X27892857Y-166821428D02*
X27750000Y-166750000D01*
X27678571Y-166607142D01*
X27678571Y-166392857D01*
X27750000Y-166250000D01*
X27892857Y-166178571D01*
X28678571Y-166178571D01*
X28678571Y-165250000D02*
X28607142Y-165392857D01*
X28535714Y-165464285D01*
X28392857Y-165535714D01*
X27964285Y-165535714D01*
X27821428Y-165464285D01*
X27750000Y-165392857D01*
X27678571Y-165250000D01*
X27678571Y-165035714D01*
X27750000Y-164892857D01*
X27821428Y-164821428D01*
X27964285Y-164750000D01*
X28392857Y-164750000D01*
X28535714Y-164821428D01*
X28607142Y-164892857D01*
X28678571Y-165035714D01*
X28678571Y-165250000D01*
X28678571Y-164107142D02*
X27678571Y-164107142D01*
X27821428Y-164107142D02*
X27750000Y-164035714D01*
X27678571Y-163892857D01*
X27678571Y-163678571D01*
X27750000Y-163535714D01*
X27892857Y-163464285D01*
X28678571Y-163464285D01*
X27892857Y-163464285D02*
X27750000Y-163392857D01*
X27678571Y-163250000D01*
X27678571Y-163035714D01*
X27750000Y-162892857D01*
X27892857Y-162821428D01*
X28678571Y-162821428D01*
X28607142Y-161535714D02*
X28678571Y-161678571D01*
X28678571Y-161964285D01*
X28607142Y-162107142D01*
X28464285Y-162178571D01*
X27892857Y-162178571D01*
X27750000Y-162107142D01*
X27678571Y-161964285D01*
X27678571Y-161678571D01*
X27750000Y-161535714D01*
X27892857Y-161464285D01*
X28035714Y-161464285D01*
X28178571Y-162178571D01*
X27678571Y-161035714D02*
X27678571Y-160464285D01*
X27178571Y-160821428D02*
X28464285Y-160821428D01*
X28607142Y-160750000D01*
X28678571Y-160607142D01*
X28678571Y-160464285D01*
X28607142Y-159392857D02*
X28678571Y-159535714D01*
X28678571Y-159821428D01*
X28607142Y-159964285D01*
X28464285Y-160035714D01*
X27892857Y-160035714D01*
X27750000Y-159964285D01*
X27678571Y-159821428D01*
X27678571Y-159535714D01*
X27750000Y-159392857D01*
X27892857Y-159321428D01*
X28035714Y-159321428D01*
X28178571Y-160035714D01*
X28678571Y-158678571D02*
X27678571Y-158678571D01*
X27964285Y-158678571D02*
X27821428Y-158607142D01*
X27750000Y-158535714D01*
X27678571Y-158392857D01*
X27678571Y-158250000D01*
X62778571Y-110257142D02*
X63778571Y-110257142D01*
X62207142Y-110614285D02*
X63278571Y-110971428D01*
X63278571Y-110042857D01*
X63778571Y-108328571D02*
X62278571Y-108328571D01*
X62992857Y-108328571D02*
X62992857Y-107471428D01*
X63778571Y-107471428D02*
X62278571Y-107471428D01*
X63707142Y-106185714D02*
X63778571Y-106328571D01*
X63778571Y-106614285D01*
X63707142Y-106757142D01*
X63564285Y-106828571D01*
X62992857Y-106828571D01*
X62850000Y-106757142D01*
X62778571Y-106614285D01*
X62778571Y-106328571D01*
X62850000Y-106185714D01*
X62992857Y-106114285D01*
X63135714Y-106114285D01*
X63278571Y-106828571D01*
X63778571Y-104828571D02*
X62992857Y-104828571D01*
X62850000Y-104900000D01*
X62778571Y-105042857D01*
X62778571Y-105328571D01*
X62850000Y-105471428D01*
X63707142Y-104828571D02*
X63778571Y-104971428D01*
X63778571Y-105328571D01*
X63707142Y-105471428D01*
X63564285Y-105542857D01*
X63421428Y-105542857D01*
X63278571Y-105471428D01*
X63207142Y-105328571D01*
X63207142Y-104971428D01*
X63135714Y-104828571D01*
X63778571Y-103471428D02*
X62278571Y-103471428D01*
X63707142Y-103471428D02*
X63778571Y-103614285D01*
X63778571Y-103900000D01*
X63707142Y-104042857D01*
X63635714Y-104114285D01*
X63492857Y-104185714D01*
X63064285Y-104185714D01*
X62921428Y-104114285D01*
X62850000Y-104042857D01*
X62778571Y-103900000D01*
X62778571Y-103614285D01*
X62850000Y-103471428D01*
X62278571Y-101828571D02*
X62278571Y-100971428D01*
X63778571Y-101400000D02*
X62278571Y-101400000D01*
X63778571Y-100471428D02*
X62278571Y-100471428D01*
X63778571Y-99828571D02*
X62992857Y-99828571D01*
X62850000Y-99900000D01*
X62778571Y-100042857D01*
X62778571Y-100257142D01*
X62850000Y-100400000D01*
X62921428Y-100471428D01*
X63707142Y-98542857D02*
X63778571Y-98685714D01*
X63778571Y-98971428D01*
X63707142Y-99114285D01*
X63564285Y-99185714D01*
X62992857Y-99185714D01*
X62850000Y-99114285D01*
X62778571Y-98971428D01*
X62778571Y-98685714D01*
X62850000Y-98542857D01*
X62992857Y-98471428D01*
X63135714Y-98471428D01*
X63278571Y-99185714D01*
X63778571Y-97828571D02*
X62778571Y-97828571D01*
X63064285Y-97828571D02*
X62921428Y-97757142D01*
X62850000Y-97685714D01*
X62778571Y-97542857D01*
X62778571Y-97400000D01*
X63778571Y-96900000D02*
X62778571Y-96900000D01*
X62921428Y-96900000D02*
X62850000Y-96828571D01*
X62778571Y-96685714D01*
X62778571Y-96471428D01*
X62850000Y-96328571D01*
X62992857Y-96257142D01*
X63778571Y-96257142D01*
X62992857Y-96257142D02*
X62850000Y-96185714D01*
X62778571Y-96042857D01*
X62778571Y-95828571D01*
X62850000Y-95685714D01*
X62992857Y-95614285D01*
X63778571Y-95614285D01*
X63778571Y-94685714D02*
X63707142Y-94828571D01*
X63635714Y-94900000D01*
X63492857Y-94971428D01*
X63064285Y-94971428D01*
X62921428Y-94900000D01*
X62850000Y-94828571D01*
X62778571Y-94685714D01*
X62778571Y-94471428D01*
X62850000Y-94328571D01*
X62921428Y-94257142D01*
X63064285Y-94185714D01*
X63492857Y-94185714D01*
X63635714Y-94257142D01*
X63707142Y-94328571D01*
X63778571Y-94471428D01*
X63778571Y-94685714D01*
X63778571Y-93542857D02*
X62778571Y-93542857D01*
X62921428Y-93542857D02*
X62850000Y-93471428D01*
X62778571Y-93328571D01*
X62778571Y-93114285D01*
X62850000Y-92971428D01*
X62992857Y-92900000D01*
X63778571Y-92900000D01*
X62992857Y-92900000D02*
X62850000Y-92828571D01*
X62778571Y-92685714D01*
X62778571Y-92471428D01*
X62850000Y-92328571D01*
X62992857Y-92257142D01*
X63778571Y-92257142D01*
X63707142Y-90971428D02*
X63778571Y-91114285D01*
X63778571Y-91400000D01*
X63707142Y-91542857D01*
X63564285Y-91614285D01*
X62992857Y-91614285D01*
X62850000Y-91542857D01*
X62778571Y-91400000D01*
X62778571Y-91114285D01*
X62850000Y-90971428D01*
X62992857Y-90900000D01*
X63135714Y-90900000D01*
X63278571Y-91614285D01*
X62778571Y-90471428D02*
X62778571Y-89900000D01*
X62278571Y-90257142D02*
X63564285Y-90257142D01*
X63707142Y-90185714D01*
X63778571Y-90042857D01*
X63778571Y-89900000D01*
X63707142Y-88828571D02*
X63778571Y-88971428D01*
X63778571Y-89257142D01*
X63707142Y-89400000D01*
X63564285Y-89471428D01*
X62992857Y-89471428D01*
X62850000Y-89400000D01*
X62778571Y-89257142D01*
X62778571Y-88971428D01*
X62850000Y-88828571D01*
X62992857Y-88757142D01*
X63135714Y-88757142D01*
X63278571Y-89471428D01*
X63778571Y-88114285D02*
X62778571Y-88114285D01*
X63064285Y-88114285D02*
X62921428Y-88042857D01*
X62850000Y-87971428D01*
X62778571Y-87828571D01*
X62778571Y-87685714D01*
X64778571Y-148471428D02*
X65778571Y-148471428D01*
X64207142Y-148828571D02*
X65278571Y-149185714D01*
X65278571Y-148257142D01*
X65778571Y-146542857D02*
X64278571Y-146542857D01*
X64278571Y-145971428D01*
X64350000Y-145828571D01*
X64421428Y-145757142D01*
X64564285Y-145685714D01*
X64778571Y-145685714D01*
X64921428Y-145757142D01*
X64992857Y-145828571D01*
X65064285Y-145971428D01*
X65064285Y-146542857D01*
X64778571Y-144400000D02*
X65778571Y-144400000D01*
X64778571Y-145042857D02*
X65564285Y-145042857D01*
X65707142Y-144971428D01*
X65778571Y-144828571D01*
X65778571Y-144614285D01*
X65707142Y-144471428D01*
X65635714Y-144400000D01*
X65778571Y-143685714D02*
X64778571Y-143685714D01*
X64921428Y-143685714D02*
X64850000Y-143614285D01*
X64778571Y-143471428D01*
X64778571Y-143257142D01*
X64850000Y-143114285D01*
X64992857Y-143042857D01*
X65778571Y-143042857D01*
X64992857Y-143042857D02*
X64850000Y-142971428D01*
X64778571Y-142828571D01*
X64778571Y-142614285D01*
X64850000Y-142471428D01*
X64992857Y-142400000D01*
X65778571Y-142400000D01*
X64778571Y-141685714D02*
X66278571Y-141685714D01*
X64850000Y-141685714D02*
X64778571Y-141542857D01*
X64778571Y-141257142D01*
X64850000Y-141114285D01*
X64921428Y-141042857D01*
X65064285Y-140971428D01*
X65492857Y-140971428D01*
X65635714Y-141042857D01*
X65707142Y-141114285D01*
X65778571Y-141257142D01*
X65778571Y-141542857D01*
X65707142Y-141685714D01*
X65778571Y-137971428D02*
X65778571Y-138042857D01*
X65707142Y-138185714D01*
X65492857Y-138400000D01*
X65064285Y-138757142D01*
X64850000Y-138900000D01*
X64635714Y-138971428D01*
X64492857Y-138971428D01*
X64350000Y-138900000D01*
X64278571Y-138757142D01*
X64278571Y-138685714D01*
X64350000Y-138542857D01*
X64492857Y-138471428D01*
X64564285Y-138471428D01*
X64707142Y-138542857D01*
X64778571Y-138614285D01*
X65064285Y-139042857D01*
X65135714Y-139114285D01*
X65278571Y-139185714D01*
X65492857Y-139185714D01*
X65635714Y-139114285D01*
X65707142Y-139042857D01*
X65778571Y-138900000D01*
X65778571Y-138685714D01*
X65707142Y-138542857D01*
X65635714Y-138471428D01*
X65350000Y-138257142D01*
X65135714Y-138185714D01*
X64992857Y-138185714D01*
X64278571Y-136328571D02*
X64278571Y-135400000D01*
X64850000Y-135900000D01*
X64850000Y-135685714D01*
X64921428Y-135542857D01*
X64992857Y-135471428D01*
X65135714Y-135400000D01*
X65492857Y-135400000D01*
X65635714Y-135471428D01*
X65707142Y-135542857D01*
X65778571Y-135685714D01*
X65778571Y-136114285D01*
X65707142Y-136257142D01*
X65635714Y-136328571D01*
X65778571Y-133614285D02*
X64278571Y-133614285D01*
X64278571Y-133042857D01*
X64350000Y-132900000D01*
X64421428Y-132828571D01*
X64564285Y-132757142D01*
X64778571Y-132757142D01*
X64921428Y-132828571D01*
X64992857Y-132900000D01*
X65064285Y-133042857D01*
X65064285Y-133614285D01*
X64778571Y-131471428D02*
X65778571Y-131471428D01*
X64778571Y-132114285D02*
X65564285Y-132114285D01*
X65707142Y-132042857D01*
X65778571Y-131900000D01*
X65778571Y-131685714D01*
X65707142Y-131542857D01*
X65635714Y-131471428D01*
X65778571Y-130757142D02*
X64778571Y-130757142D01*
X64921428Y-130757142D02*
X64850000Y-130685714D01*
X64778571Y-130542857D01*
X64778571Y-130328571D01*
X64850000Y-130185714D01*
X64992857Y-130114285D01*
X65778571Y-130114285D01*
X64992857Y-130114285D02*
X64850000Y-130042857D01*
X64778571Y-129900000D01*
X64778571Y-129685714D01*
X64850000Y-129542857D01*
X64992857Y-129471428D01*
X65778571Y-129471428D01*
X64778571Y-128757142D02*
X66278571Y-128757142D01*
X64850000Y-128757142D02*
X64778571Y-128614285D01*
X64778571Y-128328571D01*
X64850000Y-128185714D01*
X64921428Y-128114285D01*
X65064285Y-128042857D01*
X65492857Y-128042857D01*
X65635714Y-128114285D01*
X65707142Y-128185714D01*
X65778571Y-128328571D01*
X65778571Y-128614285D01*
X65707142Y-128757142D01*
X65778571Y-126257142D02*
X64278571Y-126257142D01*
X64992857Y-126257142D02*
X64992857Y-125400000D01*
X65778571Y-125400000D02*
X64278571Y-125400000D01*
X65707142Y-124114285D02*
X65778571Y-124257142D01*
X65778571Y-124542857D01*
X65707142Y-124685714D01*
X65564285Y-124757142D01*
X64992857Y-124757142D01*
X64850000Y-124685714D01*
X64778571Y-124542857D01*
X64778571Y-124257142D01*
X64850000Y-124114285D01*
X64992857Y-124042857D01*
X65135714Y-124042857D01*
X65278571Y-124757142D01*
X65778571Y-122757142D02*
X64992857Y-122757142D01*
X64850000Y-122828571D01*
X64778571Y-122971428D01*
X64778571Y-123257142D01*
X64850000Y-123400000D01*
X65707142Y-122757142D02*
X65778571Y-122900000D01*
X65778571Y-123257142D01*
X65707142Y-123400000D01*
X65564285Y-123471428D01*
X65421428Y-123471428D01*
X65278571Y-123400000D01*
X65207142Y-123257142D01*
X65207142Y-122900000D01*
X65135714Y-122757142D01*
X64778571Y-122257142D02*
X64778571Y-121685714D01*
X64278571Y-122042857D02*
X65564285Y-122042857D01*
X65707142Y-121971428D01*
X65778571Y-121828571D01*
X65778571Y-121685714D01*
X65707142Y-120614285D02*
X65778571Y-120757142D01*
X65778571Y-121042857D01*
X65707142Y-121185714D01*
X65564285Y-121257142D01*
X64992857Y-121257142D01*
X64850000Y-121185714D01*
X64778571Y-121042857D01*
X64778571Y-120757142D01*
X64850000Y-120614285D01*
X64992857Y-120542857D01*
X65135714Y-120542857D01*
X65278571Y-121257142D01*
X65778571Y-119900000D02*
X64778571Y-119900000D01*
X65064285Y-119900000D02*
X64921428Y-119828571D01*
X64850000Y-119757142D01*
X64778571Y-119614285D01*
X64778571Y-119471428D01*
X97778571Y-112935714D02*
X98778571Y-112935714D01*
X97207142Y-113292857D02*
X98278571Y-113650000D01*
X98278571Y-112721428D01*
X98778571Y-111007142D02*
X97278571Y-111007142D01*
X97278571Y-110435714D01*
X97350000Y-110292857D01*
X97421428Y-110221428D01*
X97564285Y-110150000D01*
X97778571Y-110150000D01*
X97921428Y-110221428D01*
X97992857Y-110292857D01*
X98064285Y-110435714D01*
X98064285Y-111007142D01*
X97778571Y-108864285D02*
X98778571Y-108864285D01*
X97778571Y-109507142D02*
X98564285Y-109507142D01*
X98707142Y-109435714D01*
X98778571Y-109292857D01*
X98778571Y-109078571D01*
X98707142Y-108935714D01*
X98635714Y-108864285D01*
X98778571Y-108150000D02*
X97778571Y-108150000D01*
X97921428Y-108150000D02*
X97850000Y-108078571D01*
X97778571Y-107935714D01*
X97778571Y-107721428D01*
X97850000Y-107578571D01*
X97992857Y-107507142D01*
X98778571Y-107507142D01*
X97992857Y-107507142D02*
X97850000Y-107435714D01*
X97778571Y-107292857D01*
X97778571Y-107078571D01*
X97850000Y-106935714D01*
X97992857Y-106864285D01*
X98778571Y-106864285D01*
X97778571Y-106150000D02*
X99278571Y-106150000D01*
X97850000Y-106150000D02*
X97778571Y-106007142D01*
X97778571Y-105721428D01*
X97850000Y-105578571D01*
X97921428Y-105507142D01*
X98064285Y-105435714D01*
X98492857Y-105435714D01*
X98635714Y-105507142D01*
X98707142Y-105578571D01*
X98778571Y-105721428D01*
X98778571Y-106007142D01*
X98707142Y-106150000D01*
X98778571Y-102435714D02*
X98778571Y-102507142D01*
X98707142Y-102650000D01*
X98492857Y-102864285D01*
X98064285Y-103221428D01*
X97850000Y-103364285D01*
X97635714Y-103435714D01*
X97492857Y-103435714D01*
X97350000Y-103364285D01*
X97278571Y-103221428D01*
X97278571Y-103150000D01*
X97350000Y-103007142D01*
X97492857Y-102935714D01*
X97564285Y-102935714D01*
X97707142Y-103007142D01*
X97778571Y-103078571D01*
X98064285Y-103507142D01*
X98135714Y-103578571D01*
X98278571Y-103650000D01*
X98492857Y-103650000D01*
X98635714Y-103578571D01*
X98707142Y-103507142D01*
X98778571Y-103364285D01*
X98778571Y-103150000D01*
X98707142Y-103007142D01*
X98635714Y-102935714D01*
X98350000Y-102721428D01*
X98135714Y-102650000D01*
X97992857Y-102650000D01*
X97278571Y-100792857D02*
X97278571Y-99864285D01*
X97850000Y-100364285D01*
X97850000Y-100150000D01*
X97921428Y-100007142D01*
X97992857Y-99935714D01*
X98135714Y-99864285D01*
X98492857Y-99864285D01*
X98635714Y-99935714D01*
X98707142Y-100007142D01*
X98778571Y-100150000D01*
X98778571Y-100578571D01*
X98707142Y-100721428D01*
X98635714Y-100792857D01*
X98778571Y-98078571D02*
X97278571Y-98078571D01*
X97278571Y-97507142D01*
X97350000Y-97364285D01*
X97421428Y-97292857D01*
X97564285Y-97221428D01*
X97778571Y-97221428D01*
X97921428Y-97292857D01*
X97992857Y-97364285D01*
X98064285Y-97507142D01*
X98064285Y-98078571D01*
X97778571Y-95935714D02*
X98778571Y-95935714D01*
X97778571Y-96578571D02*
X98564285Y-96578571D01*
X98707142Y-96507142D01*
X98778571Y-96364285D01*
X98778571Y-96150000D01*
X98707142Y-96007142D01*
X98635714Y-95935714D01*
X98778571Y-95221428D02*
X97778571Y-95221428D01*
X97921428Y-95221428D02*
X97850000Y-95150000D01*
X97778571Y-95007142D01*
X97778571Y-94792857D01*
X97850000Y-94650000D01*
X97992857Y-94578571D01*
X98778571Y-94578571D01*
X97992857Y-94578571D02*
X97850000Y-94507142D01*
X97778571Y-94364285D01*
X97778571Y-94150000D01*
X97850000Y-94007142D01*
X97992857Y-93935714D01*
X98778571Y-93935714D01*
X97778571Y-93221428D02*
X99278571Y-93221428D01*
X97850000Y-93221428D02*
X97778571Y-93078571D01*
X97778571Y-92792857D01*
X97850000Y-92650000D01*
X97921428Y-92578571D01*
X98064285Y-92507142D01*
X98492857Y-92507142D01*
X98635714Y-92578571D01*
X98707142Y-92650000D01*
X98778571Y-92792857D01*
X98778571Y-93078571D01*
X98707142Y-93221428D01*
X98778571Y-90721428D02*
X97278571Y-90721428D01*
X97278571Y-90364285D01*
X97350000Y-90150000D01*
X97492857Y-90007142D01*
X97635714Y-89935714D01*
X97921428Y-89864285D01*
X98135714Y-89864285D01*
X98421428Y-89935714D01*
X98564285Y-90007142D01*
X98707142Y-90150000D01*
X98778571Y-90364285D01*
X98778571Y-90721428D01*
X98778571Y-89221428D02*
X97778571Y-89221428D01*
X97278571Y-89221428D02*
X97350000Y-89292857D01*
X97421428Y-89221428D01*
X97350000Y-89150000D01*
X97278571Y-89221428D01*
X97421428Y-89221428D01*
X98778571Y-88292857D02*
X98707142Y-88435714D01*
X98635714Y-88507142D01*
X98492857Y-88578571D01*
X98064285Y-88578571D01*
X97921428Y-88507142D01*
X97850000Y-88435714D01*
X97778571Y-88292857D01*
X97778571Y-88078571D01*
X97850000Y-87935714D01*
X97921428Y-87864285D01*
X98064285Y-87792857D01*
X98492857Y-87792857D01*
X98635714Y-87864285D01*
X98707142Y-87935714D01*
X98778571Y-88078571D01*
X98778571Y-88292857D01*
X98778571Y-86507142D02*
X97278571Y-86507142D01*
X98707142Y-86507142D02*
X98778571Y-86650000D01*
X98778571Y-86935714D01*
X98707142Y-87078571D01*
X98635714Y-87150000D01*
X98492857Y-87221428D01*
X98064285Y-87221428D01*
X97921428Y-87150000D01*
X97850000Y-87078571D01*
X97778571Y-86935714D01*
X97778571Y-86650000D01*
X97850000Y-86507142D01*
X98707142Y-85221428D02*
X98778571Y-85364285D01*
X98778571Y-85650000D01*
X98707142Y-85792857D01*
X98564285Y-85864285D01*
X97992857Y-85864285D01*
X97850000Y-85792857D01*
X97778571Y-85650000D01*
X97778571Y-85364285D01*
X97850000Y-85221428D01*
X97992857Y-85150000D01*
X98135714Y-85150000D01*
X98278571Y-85864285D01*
X97992857Y-136900000D02*
X97992857Y-136400000D01*
X98778571Y-136185714D02*
X98778571Y-136900000D01*
X97278571Y-136900000D01*
X97278571Y-136185714D01*
X98778571Y-135685714D02*
X97778571Y-134900000D01*
X97778571Y-135685714D02*
X98778571Y-134900000D01*
X97778571Y-134542857D02*
X97778571Y-133971428D01*
X97278571Y-134328571D02*
X98564285Y-134328571D01*
X98707142Y-134257142D01*
X98778571Y-134114285D01*
X98778571Y-133971428D01*
X98778571Y-133471428D02*
X97778571Y-133471428D01*
X98064285Y-133471428D02*
X97921428Y-133400000D01*
X97850000Y-133328571D01*
X97778571Y-133185714D01*
X97778571Y-133042857D01*
X98778571Y-131900000D02*
X97992857Y-131900000D01*
X97850000Y-131971428D01*
X97778571Y-132114285D01*
X97778571Y-132400000D01*
X97850000Y-132542857D01*
X98707142Y-131900000D02*
X98778571Y-132042857D01*
X98778571Y-132400000D01*
X98707142Y-132542857D01*
X98564285Y-132614285D01*
X98421428Y-132614285D01*
X98278571Y-132542857D01*
X98207142Y-132400000D01*
X98207142Y-132042857D01*
X98135714Y-131900000D01*
X27278571Y-111042857D02*
X27278571Y-110114285D01*
X27850000Y-110614285D01*
X27850000Y-110400000D01*
X27921428Y-110257142D01*
X27992857Y-110185714D01*
X28135714Y-110114285D01*
X28492857Y-110114285D01*
X28635714Y-110185714D01*
X28707142Y-110257142D01*
X28778571Y-110400000D01*
X28778571Y-110828571D01*
X28707142Y-110971428D01*
X28635714Y-111042857D01*
X28778571Y-108328571D02*
X27278571Y-108328571D01*
X27992857Y-108328571D02*
X27992857Y-107471428D01*
X28778571Y-107471428D02*
X27278571Y-107471428D01*
X28707142Y-106185714D02*
X28778571Y-106328571D01*
X28778571Y-106614285D01*
X28707142Y-106757142D01*
X28564285Y-106828571D01*
X27992857Y-106828571D01*
X27850000Y-106757142D01*
X27778571Y-106614285D01*
X27778571Y-106328571D01*
X27850000Y-106185714D01*
X27992857Y-106114285D01*
X28135714Y-106114285D01*
X28278571Y-106828571D01*
X28778571Y-104828571D02*
X27992857Y-104828571D01*
X27850000Y-104900000D01*
X27778571Y-105042857D01*
X27778571Y-105328571D01*
X27850000Y-105471428D01*
X28707142Y-104828571D02*
X28778571Y-104971428D01*
X28778571Y-105328571D01*
X28707142Y-105471428D01*
X28564285Y-105542857D01*
X28421428Y-105542857D01*
X28278571Y-105471428D01*
X28207142Y-105328571D01*
X28207142Y-104971428D01*
X28135714Y-104828571D01*
X28778571Y-103471428D02*
X27278571Y-103471428D01*
X28707142Y-103471428D02*
X28778571Y-103614285D01*
X28778571Y-103900000D01*
X28707142Y-104042857D01*
X28635714Y-104114285D01*
X28492857Y-104185714D01*
X28064285Y-104185714D01*
X27921428Y-104114285D01*
X27850000Y-104042857D01*
X27778571Y-103900000D01*
X27778571Y-103614285D01*
X27850000Y-103471428D01*
X27278571Y-101828571D02*
X27278571Y-100971428D01*
X28778571Y-101400000D02*
X27278571Y-101400000D01*
X28778571Y-100471428D02*
X27278571Y-100471428D01*
X28778571Y-99828571D02*
X27992857Y-99828571D01*
X27850000Y-99900000D01*
X27778571Y-100042857D01*
X27778571Y-100257142D01*
X27850000Y-100400000D01*
X27921428Y-100471428D01*
X28707142Y-98542857D02*
X28778571Y-98685714D01*
X28778571Y-98971428D01*
X28707142Y-99114285D01*
X28564285Y-99185714D01*
X27992857Y-99185714D01*
X27850000Y-99114285D01*
X27778571Y-98971428D01*
X27778571Y-98685714D01*
X27850000Y-98542857D01*
X27992857Y-98471428D01*
X28135714Y-98471428D01*
X28278571Y-99185714D01*
X28778571Y-97828571D02*
X27778571Y-97828571D01*
X28064285Y-97828571D02*
X27921428Y-97757142D01*
X27850000Y-97685714D01*
X27778571Y-97542857D01*
X27778571Y-97400000D01*
X28778571Y-96900000D02*
X27778571Y-96900000D01*
X27921428Y-96900000D02*
X27850000Y-96828571D01*
X27778571Y-96685714D01*
X27778571Y-96471428D01*
X27850000Y-96328571D01*
X27992857Y-96257142D01*
X28778571Y-96257142D01*
X27992857Y-96257142D02*
X27850000Y-96185714D01*
X27778571Y-96042857D01*
X27778571Y-95828571D01*
X27850000Y-95685714D01*
X27992857Y-95614285D01*
X28778571Y-95614285D01*
X28778571Y-94685714D02*
X28707142Y-94828571D01*
X28635714Y-94900000D01*
X28492857Y-94971428D01*
X28064285Y-94971428D01*
X27921428Y-94900000D01*
X27850000Y-94828571D01*
X27778571Y-94685714D01*
X27778571Y-94471428D01*
X27850000Y-94328571D01*
X27921428Y-94257142D01*
X28064285Y-94185714D01*
X28492857Y-94185714D01*
X28635714Y-94257142D01*
X28707142Y-94328571D01*
X28778571Y-94471428D01*
X28778571Y-94685714D01*
X28778571Y-93542857D02*
X27778571Y-93542857D01*
X27921428Y-93542857D02*
X27850000Y-93471428D01*
X27778571Y-93328571D01*
X27778571Y-93114285D01*
X27850000Y-92971428D01*
X27992857Y-92900000D01*
X28778571Y-92900000D01*
X27992857Y-92900000D02*
X27850000Y-92828571D01*
X27778571Y-92685714D01*
X27778571Y-92471428D01*
X27850000Y-92328571D01*
X27992857Y-92257142D01*
X28778571Y-92257142D01*
X28707142Y-90971428D02*
X28778571Y-91114285D01*
X28778571Y-91400000D01*
X28707142Y-91542857D01*
X28564285Y-91614285D01*
X27992857Y-91614285D01*
X27850000Y-91542857D01*
X27778571Y-91400000D01*
X27778571Y-91114285D01*
X27850000Y-90971428D01*
X27992857Y-90900000D01*
X28135714Y-90900000D01*
X28278571Y-91614285D01*
X27778571Y-90471428D02*
X27778571Y-89900000D01*
X27278571Y-90257142D02*
X28564285Y-90257142D01*
X28707142Y-90185714D01*
X28778571Y-90042857D01*
X28778571Y-89900000D01*
X28707142Y-88828571D02*
X28778571Y-88971428D01*
X28778571Y-89257142D01*
X28707142Y-89400000D01*
X28564285Y-89471428D01*
X27992857Y-89471428D01*
X27850000Y-89400000D01*
X27778571Y-89257142D01*
X27778571Y-88971428D01*
X27850000Y-88828571D01*
X27992857Y-88757142D01*
X28135714Y-88757142D01*
X28278571Y-89471428D01*
X28778571Y-88114285D02*
X27778571Y-88114285D01*
X28064285Y-88114285D02*
X27921428Y-88042857D01*
X27850000Y-87971428D01*
X27778571Y-87828571D01*
X27778571Y-87685714D01*
X62778571Y-149471428D02*
X63778571Y-149471428D01*
X62207142Y-149828571D02*
X63278571Y-150185714D01*
X63278571Y-149257142D01*
X63707142Y-147614285D02*
X63778571Y-147400000D01*
X63778571Y-147042857D01*
X63707142Y-146900000D01*
X63635714Y-146828571D01*
X63492857Y-146757142D01*
X63350000Y-146757142D01*
X63207142Y-146828571D01*
X63135714Y-146900000D01*
X63064285Y-147042857D01*
X62992857Y-147328571D01*
X62921428Y-147471428D01*
X62850000Y-147542857D01*
X62707142Y-147614285D01*
X62564285Y-147614285D01*
X62421428Y-147542857D01*
X62350000Y-147471428D01*
X62278571Y-147328571D01*
X62278571Y-146971428D01*
X62350000Y-146757142D01*
X62778571Y-146257142D02*
X63778571Y-145971428D01*
X63064285Y-145685714D01*
X63778571Y-145400000D01*
X62778571Y-145114285D01*
X63778571Y-144542857D02*
X62778571Y-144542857D01*
X62278571Y-144542857D02*
X62350000Y-144614285D01*
X62421428Y-144542857D01*
X62350000Y-144471428D01*
X62278571Y-144542857D01*
X62421428Y-144542857D01*
X62778571Y-144042857D02*
X62778571Y-143471428D01*
X62278571Y-143828571D02*
X63564285Y-143828571D01*
X63707142Y-143757142D01*
X63778571Y-143614285D01*
X63778571Y-143471428D01*
X63707142Y-142328571D02*
X63778571Y-142471428D01*
X63778571Y-142757142D01*
X63707142Y-142900000D01*
X63635714Y-142971428D01*
X63492857Y-143042857D01*
X63064285Y-143042857D01*
X62921428Y-142971428D01*
X62850000Y-142900000D01*
X62778571Y-142757142D01*
X62778571Y-142471428D01*
X62850000Y-142328571D01*
X63778571Y-141685714D02*
X62278571Y-141685714D01*
X63778571Y-141042857D02*
X62992857Y-141042857D01*
X62850000Y-141114285D01*
X62778571Y-141257142D01*
X62778571Y-141471428D01*
X62850000Y-141614285D01*
X62921428Y-141685714D01*
X63778571Y-137971428D02*
X63778571Y-138042857D01*
X63707142Y-138185714D01*
X63492857Y-138400000D01*
X63064285Y-138757142D01*
X62850000Y-138900000D01*
X62635714Y-138971428D01*
X62492857Y-138971428D01*
X62350000Y-138900000D01*
X62278571Y-138757142D01*
X62278571Y-138685714D01*
X62350000Y-138542857D01*
X62492857Y-138471428D01*
X62564285Y-138471428D01*
X62707142Y-138542857D01*
X62778571Y-138614285D01*
X63064285Y-139042857D01*
X63135714Y-139114285D01*
X63278571Y-139185714D01*
X63492857Y-139185714D01*
X63635714Y-139114285D01*
X63707142Y-139042857D01*
X63778571Y-138900000D01*
X63778571Y-138685714D01*
X63707142Y-138542857D01*
X63635714Y-138471428D01*
X63350000Y-138257142D01*
X63135714Y-138185714D01*
X62992857Y-138185714D01*
X62278571Y-136328571D02*
X62278571Y-135400000D01*
X62850000Y-135900000D01*
X62850000Y-135685714D01*
X62921428Y-135542857D01*
X62992857Y-135471428D01*
X63135714Y-135400000D01*
X63492857Y-135400000D01*
X63635714Y-135471428D01*
X63707142Y-135542857D01*
X63778571Y-135685714D01*
X63778571Y-136114285D01*
X63707142Y-136257142D01*
X63635714Y-136328571D01*
X63707142Y-133685714D02*
X63778571Y-133471428D01*
X63778571Y-133114285D01*
X63707142Y-132971428D01*
X63635714Y-132900000D01*
X63492857Y-132828571D01*
X63350000Y-132828571D01*
X63207142Y-132900000D01*
X63135714Y-132971428D01*
X63064285Y-133114285D01*
X62992857Y-133400000D01*
X62921428Y-133542857D01*
X62850000Y-133614285D01*
X62707142Y-133685714D01*
X62564285Y-133685714D01*
X62421428Y-133614285D01*
X62350000Y-133542857D01*
X62278571Y-133400000D01*
X62278571Y-133042857D01*
X62350000Y-132828571D01*
X62778571Y-132328571D02*
X63778571Y-132042857D01*
X63064285Y-131757142D01*
X63778571Y-131471428D01*
X62778571Y-131185714D01*
X63778571Y-130614285D02*
X62778571Y-130614285D01*
X62278571Y-130614285D02*
X62350000Y-130685714D01*
X62421428Y-130614285D01*
X62350000Y-130542857D01*
X62278571Y-130614285D01*
X62421428Y-130614285D01*
X62778571Y-130114285D02*
X62778571Y-129542857D01*
X62278571Y-129900000D02*
X63564285Y-129900000D01*
X63707142Y-129828571D01*
X63778571Y-129685714D01*
X63778571Y-129542857D01*
X63707142Y-128400000D02*
X63778571Y-128542857D01*
X63778571Y-128828571D01*
X63707142Y-128971428D01*
X63635714Y-129042857D01*
X63492857Y-129114285D01*
X63064285Y-129114285D01*
X62921428Y-129042857D01*
X62850000Y-128971428D01*
X62778571Y-128828571D01*
X62778571Y-128542857D01*
X62850000Y-128400000D01*
X63778571Y-127757142D02*
X62278571Y-127757142D01*
X63778571Y-127114285D02*
X62992857Y-127114285D01*
X62850000Y-127185714D01*
X62778571Y-127328571D01*
X62778571Y-127542857D01*
X62850000Y-127685714D01*
X62921428Y-127757142D01*
X63778571Y-125257142D02*
X62278571Y-125257142D01*
X62992857Y-125257142D02*
X62992857Y-124400000D01*
X63778571Y-124400000D02*
X62278571Y-124400000D01*
X63707142Y-123114285D02*
X63778571Y-123257142D01*
X63778571Y-123542857D01*
X63707142Y-123685714D01*
X63564285Y-123757142D01*
X62992857Y-123757142D01*
X62850000Y-123685714D01*
X62778571Y-123542857D01*
X62778571Y-123257142D01*
X62850000Y-123114285D01*
X62992857Y-123042857D01*
X63135714Y-123042857D01*
X63278571Y-123757142D01*
X63778571Y-121757142D02*
X62992857Y-121757142D01*
X62850000Y-121828571D01*
X62778571Y-121971428D01*
X62778571Y-122257142D01*
X62850000Y-122400000D01*
X63707142Y-121757142D02*
X63778571Y-121900000D01*
X63778571Y-122257142D01*
X63707142Y-122400000D01*
X63564285Y-122471428D01*
X63421428Y-122471428D01*
X63278571Y-122400000D01*
X63207142Y-122257142D01*
X63207142Y-121900000D01*
X63135714Y-121757142D01*
X62778571Y-121257142D02*
X62778571Y-120685714D01*
X62278571Y-121042857D02*
X63564285Y-121042857D01*
X63707142Y-120971428D01*
X63778571Y-120828571D01*
X63778571Y-120685714D01*
X63707142Y-119614285D02*
X63778571Y-119757142D01*
X63778571Y-120042857D01*
X63707142Y-120185714D01*
X63564285Y-120257142D01*
X62992857Y-120257142D01*
X62850000Y-120185714D01*
X62778571Y-120042857D01*
X62778571Y-119757142D01*
X62850000Y-119614285D01*
X62992857Y-119542857D01*
X63135714Y-119542857D01*
X63278571Y-120257142D01*
X63778571Y-118900000D02*
X62778571Y-118900000D01*
X63064285Y-118900000D02*
X62921428Y-118828571D01*
X62850000Y-118757142D01*
X62778571Y-118614285D01*
X62778571Y-118471428D01*
X97892857Y-67500000D02*
X97892857Y-67000000D01*
X98678571Y-66785714D02*
X98678571Y-67500000D01*
X97178571Y-67500000D01*
X97178571Y-66785714D01*
X98678571Y-66285714D02*
X97678571Y-65500000D01*
X97678571Y-66285714D02*
X98678571Y-65500000D01*
X97678571Y-65142857D02*
X97678571Y-64571428D01*
X97178571Y-64928571D02*
X98464285Y-64928571D01*
X98607142Y-64857142D01*
X98678571Y-64714285D01*
X98678571Y-64571428D01*
X98678571Y-64071428D02*
X97678571Y-64071428D01*
X97964285Y-64071428D02*
X97821428Y-64000000D01*
X97750000Y-63928571D01*
X97678571Y-63785714D01*
X97678571Y-63642857D01*
X98678571Y-62500000D02*
X97892857Y-62500000D01*
X97750000Y-62571428D01*
X97678571Y-62714285D01*
X97678571Y-63000000D01*
X97750000Y-63142857D01*
X98607142Y-62500000D02*
X98678571Y-62642857D01*
X98678571Y-63000000D01*
X98607142Y-63142857D01*
X98464285Y-63214285D01*
X98321428Y-63214285D01*
X98178571Y-63142857D01*
X98107142Y-63000000D01*
X98107142Y-62642857D01*
X98035714Y-62500000D01*
X64678571Y-79071428D02*
X65678571Y-79071428D01*
X64107142Y-79428571D02*
X65178571Y-79785714D01*
X65178571Y-78857142D01*
X65678571Y-77142857D02*
X64178571Y-77142857D01*
X64178571Y-76571428D01*
X64250000Y-76428571D01*
X64321428Y-76357142D01*
X64464285Y-76285714D01*
X64678571Y-76285714D01*
X64821428Y-76357142D01*
X64892857Y-76428571D01*
X64964285Y-76571428D01*
X64964285Y-77142857D01*
X64678571Y-75000000D02*
X65678571Y-75000000D01*
X64678571Y-75642857D02*
X65464285Y-75642857D01*
X65607142Y-75571428D01*
X65678571Y-75428571D01*
X65678571Y-75214285D01*
X65607142Y-75071428D01*
X65535714Y-75000000D01*
X65678571Y-74285714D02*
X64678571Y-74285714D01*
X64821428Y-74285714D02*
X64750000Y-74214285D01*
X64678571Y-74071428D01*
X64678571Y-73857142D01*
X64750000Y-73714285D01*
X64892857Y-73642857D01*
X65678571Y-73642857D01*
X64892857Y-73642857D02*
X64750000Y-73571428D01*
X64678571Y-73428571D01*
X64678571Y-73214285D01*
X64750000Y-73071428D01*
X64892857Y-73000000D01*
X65678571Y-73000000D01*
X64678571Y-72285714D02*
X66178571Y-72285714D01*
X64750000Y-72285714D02*
X64678571Y-72142857D01*
X64678571Y-71857142D01*
X64750000Y-71714285D01*
X64821428Y-71642857D01*
X64964285Y-71571428D01*
X65392857Y-71571428D01*
X65535714Y-71642857D01*
X65607142Y-71714285D01*
X65678571Y-71857142D01*
X65678571Y-72142857D01*
X65607142Y-72285714D01*
X65678571Y-68571428D02*
X65678571Y-68642857D01*
X65607142Y-68785714D01*
X65392857Y-69000000D01*
X64964285Y-69357142D01*
X64750000Y-69500000D01*
X64535714Y-69571428D01*
X64392857Y-69571428D01*
X64250000Y-69500000D01*
X64178571Y-69357142D01*
X64178571Y-69285714D01*
X64250000Y-69142857D01*
X64392857Y-69071428D01*
X64464285Y-69071428D01*
X64607142Y-69142857D01*
X64678571Y-69214285D01*
X64964285Y-69642857D01*
X65035714Y-69714285D01*
X65178571Y-69785714D01*
X65392857Y-69785714D01*
X65535714Y-69714285D01*
X65607142Y-69642857D01*
X65678571Y-69500000D01*
X65678571Y-69285714D01*
X65607142Y-69142857D01*
X65535714Y-69071428D01*
X65250000Y-68857142D01*
X65035714Y-68785714D01*
X64892857Y-68785714D01*
X64178571Y-66928571D02*
X64178571Y-66000000D01*
X64750000Y-66500000D01*
X64750000Y-66285714D01*
X64821428Y-66142857D01*
X64892857Y-66071428D01*
X65035714Y-66000000D01*
X65392857Y-66000000D01*
X65535714Y-66071428D01*
X65607142Y-66142857D01*
X65678571Y-66285714D01*
X65678571Y-66714285D01*
X65607142Y-66857142D01*
X65535714Y-66928571D01*
X65678571Y-64214285D02*
X64178571Y-64214285D01*
X64178571Y-63642857D01*
X64250000Y-63500000D01*
X64321428Y-63428571D01*
X64464285Y-63357142D01*
X64678571Y-63357142D01*
X64821428Y-63428571D01*
X64892857Y-63500000D01*
X64964285Y-63642857D01*
X64964285Y-64214285D01*
X64678571Y-62071428D02*
X65678571Y-62071428D01*
X64678571Y-62714285D02*
X65464285Y-62714285D01*
X65607142Y-62642857D01*
X65678571Y-62500000D01*
X65678571Y-62285714D01*
X65607142Y-62142857D01*
X65535714Y-62071428D01*
X65678571Y-61357142D02*
X64678571Y-61357142D01*
X64821428Y-61357142D02*
X64750000Y-61285714D01*
X64678571Y-61142857D01*
X64678571Y-60928571D01*
X64750000Y-60785714D01*
X64892857Y-60714285D01*
X65678571Y-60714285D01*
X64892857Y-60714285D02*
X64750000Y-60642857D01*
X64678571Y-60500000D01*
X64678571Y-60285714D01*
X64750000Y-60142857D01*
X64892857Y-60071428D01*
X65678571Y-60071428D01*
X64678571Y-59357142D02*
X66178571Y-59357142D01*
X64750000Y-59357142D02*
X64678571Y-59214285D01*
X64678571Y-58928571D01*
X64750000Y-58785714D01*
X64821428Y-58714285D01*
X64964285Y-58642857D01*
X65392857Y-58642857D01*
X65535714Y-58714285D01*
X65607142Y-58785714D01*
X65678571Y-58928571D01*
X65678571Y-59214285D01*
X65607142Y-59357142D01*
X65678571Y-56857142D02*
X64178571Y-56857142D01*
X64892857Y-56857142D02*
X64892857Y-56000000D01*
X65678571Y-56000000D02*
X64178571Y-56000000D01*
X65607142Y-54714285D02*
X65678571Y-54857142D01*
X65678571Y-55142857D01*
X65607142Y-55285714D01*
X65464285Y-55357142D01*
X64892857Y-55357142D01*
X64750000Y-55285714D01*
X64678571Y-55142857D01*
X64678571Y-54857142D01*
X64750000Y-54714285D01*
X64892857Y-54642857D01*
X65035714Y-54642857D01*
X65178571Y-55357142D01*
X65678571Y-53357142D02*
X64892857Y-53357142D01*
X64750000Y-53428571D01*
X64678571Y-53571428D01*
X64678571Y-53857142D01*
X64750000Y-54000000D01*
X65607142Y-53357142D02*
X65678571Y-53500000D01*
X65678571Y-53857142D01*
X65607142Y-54000000D01*
X65464285Y-54071428D01*
X65321428Y-54071428D01*
X65178571Y-54000000D01*
X65107142Y-53857142D01*
X65107142Y-53500000D01*
X65035714Y-53357142D01*
X64678571Y-52857142D02*
X64678571Y-52285714D01*
X64178571Y-52642857D02*
X65464285Y-52642857D01*
X65607142Y-52571428D01*
X65678571Y-52428571D01*
X65678571Y-52285714D01*
X65607142Y-51214285D02*
X65678571Y-51357142D01*
X65678571Y-51642857D01*
X65607142Y-51785714D01*
X65464285Y-51857142D01*
X64892857Y-51857142D01*
X64750000Y-51785714D01*
X64678571Y-51642857D01*
X64678571Y-51357142D01*
X64750000Y-51214285D01*
X64892857Y-51142857D01*
X65035714Y-51142857D01*
X65178571Y-51857142D01*
X65678571Y-50500000D02*
X64678571Y-50500000D01*
X64964285Y-50500000D02*
X64821428Y-50428571D01*
X64750000Y-50357142D01*
X64678571Y-50214285D01*
X64678571Y-50071428D01*
X62678571Y-80071428D02*
X63678571Y-80071428D01*
X62107142Y-80428571D02*
X63178571Y-80785714D01*
X63178571Y-79857142D01*
X63607142Y-78214285D02*
X63678571Y-78000000D01*
X63678571Y-77642857D01*
X63607142Y-77500000D01*
X63535714Y-77428571D01*
X63392857Y-77357142D01*
X63250000Y-77357142D01*
X63107142Y-77428571D01*
X63035714Y-77500000D01*
X62964285Y-77642857D01*
X62892857Y-77928571D01*
X62821428Y-78071428D01*
X62750000Y-78142857D01*
X62607142Y-78214285D01*
X62464285Y-78214285D01*
X62321428Y-78142857D01*
X62250000Y-78071428D01*
X62178571Y-77928571D01*
X62178571Y-77571428D01*
X62250000Y-77357142D01*
X62678571Y-76857142D02*
X63678571Y-76571428D01*
X62964285Y-76285714D01*
X63678571Y-76000000D01*
X62678571Y-75714285D01*
X63678571Y-75142857D02*
X62678571Y-75142857D01*
X62178571Y-75142857D02*
X62250000Y-75214285D01*
X62321428Y-75142857D01*
X62250000Y-75071428D01*
X62178571Y-75142857D01*
X62321428Y-75142857D01*
X62678571Y-74642857D02*
X62678571Y-74071428D01*
X62178571Y-74428571D02*
X63464285Y-74428571D01*
X63607142Y-74357142D01*
X63678571Y-74214285D01*
X63678571Y-74071428D01*
X63607142Y-72928571D02*
X63678571Y-73071428D01*
X63678571Y-73357142D01*
X63607142Y-73500000D01*
X63535714Y-73571428D01*
X63392857Y-73642857D01*
X62964285Y-73642857D01*
X62821428Y-73571428D01*
X62750000Y-73500000D01*
X62678571Y-73357142D01*
X62678571Y-73071428D01*
X62750000Y-72928571D01*
X63678571Y-72285714D02*
X62178571Y-72285714D01*
X63678571Y-71642857D02*
X62892857Y-71642857D01*
X62750000Y-71714285D01*
X62678571Y-71857142D01*
X62678571Y-72071428D01*
X62750000Y-72214285D01*
X62821428Y-72285714D01*
X63678571Y-68571428D02*
X63678571Y-68642857D01*
X63607142Y-68785714D01*
X63392857Y-69000000D01*
X62964285Y-69357142D01*
X62750000Y-69500000D01*
X62535714Y-69571428D01*
X62392857Y-69571428D01*
X62250000Y-69500000D01*
X62178571Y-69357142D01*
X62178571Y-69285714D01*
X62250000Y-69142857D01*
X62392857Y-69071428D01*
X62464285Y-69071428D01*
X62607142Y-69142857D01*
X62678571Y-69214285D01*
X62964285Y-69642857D01*
X63035714Y-69714285D01*
X63178571Y-69785714D01*
X63392857Y-69785714D01*
X63535714Y-69714285D01*
X63607142Y-69642857D01*
X63678571Y-69500000D01*
X63678571Y-69285714D01*
X63607142Y-69142857D01*
X63535714Y-69071428D01*
X63250000Y-68857142D01*
X63035714Y-68785714D01*
X62892857Y-68785714D01*
X62178571Y-66928571D02*
X62178571Y-66000000D01*
X62750000Y-66500000D01*
X62750000Y-66285714D01*
X62821428Y-66142857D01*
X62892857Y-66071428D01*
X63035714Y-66000000D01*
X63392857Y-66000000D01*
X63535714Y-66071428D01*
X63607142Y-66142857D01*
X63678571Y-66285714D01*
X63678571Y-66714285D01*
X63607142Y-66857142D01*
X63535714Y-66928571D01*
X63607142Y-64285714D02*
X63678571Y-64071428D01*
X63678571Y-63714285D01*
X63607142Y-63571428D01*
X63535714Y-63500000D01*
X63392857Y-63428571D01*
X63250000Y-63428571D01*
X63107142Y-63500000D01*
X63035714Y-63571428D01*
X62964285Y-63714285D01*
X62892857Y-64000000D01*
X62821428Y-64142857D01*
X62750000Y-64214285D01*
X62607142Y-64285714D01*
X62464285Y-64285714D01*
X62321428Y-64214285D01*
X62250000Y-64142857D01*
X62178571Y-64000000D01*
X62178571Y-63642857D01*
X62250000Y-63428571D01*
X62678571Y-62928571D02*
X63678571Y-62642857D01*
X62964285Y-62357142D01*
X63678571Y-62071428D01*
X62678571Y-61785714D01*
X63678571Y-61214285D02*
X62678571Y-61214285D01*
X62178571Y-61214285D02*
X62250000Y-61285714D01*
X62321428Y-61214285D01*
X62250000Y-61142857D01*
X62178571Y-61214285D01*
X62321428Y-61214285D01*
X62678571Y-60714285D02*
X62678571Y-60142857D01*
X62178571Y-60500000D02*
X63464285Y-60500000D01*
X63607142Y-60428571D01*
X63678571Y-60285714D01*
X63678571Y-60142857D01*
X63607142Y-59000000D02*
X63678571Y-59142857D01*
X63678571Y-59428571D01*
X63607142Y-59571428D01*
X63535714Y-59642857D01*
X63392857Y-59714285D01*
X62964285Y-59714285D01*
X62821428Y-59642857D01*
X62750000Y-59571428D01*
X62678571Y-59428571D01*
X62678571Y-59142857D01*
X62750000Y-59000000D01*
X63678571Y-58357142D02*
X62178571Y-58357142D01*
X63678571Y-57714285D02*
X62892857Y-57714285D01*
X62750000Y-57785714D01*
X62678571Y-57928571D01*
X62678571Y-58142857D01*
X62750000Y-58285714D01*
X62821428Y-58357142D01*
X63678571Y-55857142D02*
X62178571Y-55857142D01*
X62892857Y-55857142D02*
X62892857Y-55000000D01*
X63678571Y-55000000D02*
X62178571Y-55000000D01*
X63607142Y-53714285D02*
X63678571Y-53857142D01*
X63678571Y-54142857D01*
X63607142Y-54285714D01*
X63464285Y-54357142D01*
X62892857Y-54357142D01*
X62750000Y-54285714D01*
X62678571Y-54142857D01*
X62678571Y-53857142D01*
X62750000Y-53714285D01*
X62892857Y-53642857D01*
X63035714Y-53642857D01*
X63178571Y-54357142D01*
X63678571Y-52357142D02*
X62892857Y-52357142D01*
X62750000Y-52428571D01*
X62678571Y-52571428D01*
X62678571Y-52857142D01*
X62750000Y-53000000D01*
X63607142Y-52357142D02*
X63678571Y-52500000D01*
X63678571Y-52857142D01*
X63607142Y-53000000D01*
X63464285Y-53071428D01*
X63321428Y-53071428D01*
X63178571Y-53000000D01*
X63107142Y-52857142D01*
X63107142Y-52500000D01*
X63035714Y-52357142D01*
X62678571Y-51857142D02*
X62678571Y-51285714D01*
X62178571Y-51642857D02*
X63464285Y-51642857D01*
X63607142Y-51571428D01*
X63678571Y-51428571D01*
X63678571Y-51285714D01*
X63607142Y-50214285D02*
X63678571Y-50357142D01*
X63678571Y-50642857D01*
X63607142Y-50785714D01*
X63464285Y-50857142D01*
X62892857Y-50857142D01*
X62750000Y-50785714D01*
X62678571Y-50642857D01*
X62678571Y-50357142D01*
X62750000Y-50214285D01*
X62892857Y-50142857D01*
X63035714Y-50142857D01*
X63178571Y-50857142D01*
X63678571Y-49500000D02*
X62678571Y-49500000D01*
X62964285Y-49500000D02*
X62821428Y-49428571D01*
X62750000Y-49357142D01*
X62678571Y-49214285D01*
X62678571Y-49071428D01*
X27678571Y-79535714D02*
X28678571Y-79535714D01*
X27107142Y-79892857D02*
X28178571Y-80250000D01*
X28178571Y-79321428D01*
X28607142Y-77678571D02*
X28678571Y-77464285D01*
X28678571Y-77107142D01*
X28607142Y-76964285D01*
X28535714Y-76892857D01*
X28392857Y-76821428D01*
X28250000Y-76821428D01*
X28107142Y-76892857D01*
X28035714Y-76964285D01*
X27964285Y-77107142D01*
X27892857Y-77392857D01*
X27821428Y-77535714D01*
X27750000Y-77607142D01*
X27607142Y-77678571D01*
X27464285Y-77678571D01*
X27321428Y-77607142D01*
X27250000Y-77535714D01*
X27178571Y-77392857D01*
X27178571Y-77035714D01*
X27250000Y-76821428D01*
X27678571Y-76321428D02*
X28678571Y-76035714D01*
X27964285Y-75750000D01*
X28678571Y-75464285D01*
X27678571Y-75178571D01*
X28678571Y-74607142D02*
X27678571Y-74607142D01*
X27178571Y-74607142D02*
X27250000Y-74678571D01*
X27321428Y-74607142D01*
X27250000Y-74535714D01*
X27178571Y-74607142D01*
X27321428Y-74607142D01*
X27678571Y-74107142D02*
X27678571Y-73535714D01*
X27178571Y-73892857D02*
X28464285Y-73892857D01*
X28607142Y-73821428D01*
X28678571Y-73678571D01*
X28678571Y-73535714D01*
X28607142Y-72392857D02*
X28678571Y-72535714D01*
X28678571Y-72821428D01*
X28607142Y-72964285D01*
X28535714Y-73035714D01*
X28392857Y-73107142D01*
X27964285Y-73107142D01*
X27821428Y-73035714D01*
X27750000Y-72964285D01*
X27678571Y-72821428D01*
X27678571Y-72535714D01*
X27750000Y-72392857D01*
X28678571Y-71750000D02*
X27178571Y-71750000D01*
X28678571Y-71107142D02*
X27892857Y-71107142D01*
X27750000Y-71178571D01*
X27678571Y-71321428D01*
X27678571Y-71535714D01*
X27750000Y-71678571D01*
X27821428Y-71750000D01*
X28678571Y-68035714D02*
X28678571Y-68107142D01*
X28607142Y-68250000D01*
X28392857Y-68464285D01*
X27964285Y-68821428D01*
X27750000Y-68964285D01*
X27535714Y-69035714D01*
X27392857Y-69035714D01*
X27250000Y-68964285D01*
X27178571Y-68821428D01*
X27178571Y-68750000D01*
X27250000Y-68607142D01*
X27392857Y-68535714D01*
X27464285Y-68535714D01*
X27607142Y-68607142D01*
X27678571Y-68678571D01*
X27964285Y-69107142D01*
X28035714Y-69178571D01*
X28178571Y-69250000D01*
X28392857Y-69250000D01*
X28535714Y-69178571D01*
X28607142Y-69107142D01*
X28678571Y-68964285D01*
X28678571Y-68750000D01*
X28607142Y-68607142D01*
X28535714Y-68535714D01*
X28250000Y-68321428D01*
X28035714Y-68250000D01*
X27892857Y-68250000D01*
X27178571Y-66392857D02*
X27178571Y-65464285D01*
X27750000Y-65964285D01*
X27750000Y-65750000D01*
X27821428Y-65607142D01*
X27892857Y-65535714D01*
X28035714Y-65464285D01*
X28392857Y-65464285D01*
X28535714Y-65535714D01*
X28607142Y-65607142D01*
X28678571Y-65750000D01*
X28678571Y-66178571D01*
X28607142Y-66321428D01*
X28535714Y-66392857D01*
X28607142Y-63750000D02*
X28678571Y-63535714D01*
X28678571Y-63178571D01*
X28607142Y-63035714D01*
X28535714Y-62964285D01*
X28392857Y-62892857D01*
X28250000Y-62892857D01*
X28107142Y-62964285D01*
X28035714Y-63035714D01*
X27964285Y-63178571D01*
X27892857Y-63464285D01*
X27821428Y-63607142D01*
X27750000Y-63678571D01*
X27607142Y-63750000D01*
X27464285Y-63750000D01*
X27321428Y-63678571D01*
X27250000Y-63607142D01*
X27178571Y-63464285D01*
X27178571Y-63107142D01*
X27250000Y-62892857D01*
X27678571Y-62392857D02*
X28678571Y-62107142D01*
X27964285Y-61821428D01*
X28678571Y-61535714D01*
X27678571Y-61250000D01*
X28678571Y-60678571D02*
X27678571Y-60678571D01*
X27178571Y-60678571D02*
X27250000Y-60750000D01*
X27321428Y-60678571D01*
X27250000Y-60607142D01*
X27178571Y-60678571D01*
X27321428Y-60678571D01*
X27678571Y-60178571D02*
X27678571Y-59607142D01*
X27178571Y-59964285D02*
X28464285Y-59964285D01*
X28607142Y-59892857D01*
X28678571Y-59750000D01*
X28678571Y-59607142D01*
X28607142Y-58464285D02*
X28678571Y-58607142D01*
X28678571Y-58892857D01*
X28607142Y-59035714D01*
X28535714Y-59107142D01*
X28392857Y-59178571D01*
X27964285Y-59178571D01*
X27821428Y-59107142D01*
X27750000Y-59035714D01*
X27678571Y-58892857D01*
X27678571Y-58607142D01*
X27750000Y-58464285D01*
X28678571Y-57821428D02*
X27178571Y-57821428D01*
X28678571Y-57178571D02*
X27892857Y-57178571D01*
X27750000Y-57250000D01*
X27678571Y-57392857D01*
X27678571Y-57607142D01*
X27750000Y-57750000D01*
X27821428Y-57821428D01*
X28678571Y-55321428D02*
X27178571Y-55321428D01*
X27178571Y-54964285D01*
X27250000Y-54750000D01*
X27392857Y-54607142D01*
X27535714Y-54535714D01*
X27821428Y-54464285D01*
X28035714Y-54464285D01*
X28321428Y-54535714D01*
X28464285Y-54607142D01*
X28607142Y-54750000D01*
X28678571Y-54964285D01*
X28678571Y-55321428D01*
X28678571Y-53821428D02*
X27678571Y-53821428D01*
X27178571Y-53821428D02*
X27250000Y-53892857D01*
X27321428Y-53821428D01*
X27250000Y-53750000D01*
X27178571Y-53821428D01*
X27321428Y-53821428D01*
X28678571Y-52892857D02*
X28607142Y-53035714D01*
X28535714Y-53107142D01*
X28392857Y-53178571D01*
X27964285Y-53178571D01*
X27821428Y-53107142D01*
X27750000Y-53035714D01*
X27678571Y-52892857D01*
X27678571Y-52678571D01*
X27750000Y-52535714D01*
X27821428Y-52464285D01*
X27964285Y-52392857D01*
X28392857Y-52392857D01*
X28535714Y-52464285D01*
X28607142Y-52535714D01*
X28678571Y-52678571D01*
X28678571Y-52892857D01*
X28678571Y-51107142D02*
X27178571Y-51107142D01*
X28607142Y-51107142D02*
X28678571Y-51250000D01*
X28678571Y-51535714D01*
X28607142Y-51678571D01*
X28535714Y-51750000D01*
X28392857Y-51821428D01*
X27964285Y-51821428D01*
X27821428Y-51750000D01*
X27750000Y-51678571D01*
X27678571Y-51535714D01*
X27678571Y-51250000D01*
X27750000Y-51107142D01*
X28607142Y-49821428D02*
X28678571Y-49964285D01*
X28678571Y-50250000D01*
X28607142Y-50392857D01*
X28464285Y-50464285D01*
X27892857Y-50464285D01*
X27750000Y-50392857D01*
X27678571Y-50250000D01*
X27678571Y-49964285D01*
X27750000Y-49821428D01*
X27892857Y-49750000D01*
X28035714Y-49750000D01*
X28178571Y-50464285D01*
X97678571Y-43535714D02*
X98678571Y-43535714D01*
X97107142Y-43892857D02*
X98178571Y-44250000D01*
X98178571Y-43321428D01*
X98678571Y-41607142D02*
X97178571Y-41607142D01*
X97178571Y-41035714D01*
X97250000Y-40892857D01*
X97321428Y-40821428D01*
X97464285Y-40750000D01*
X97678571Y-40750000D01*
X97821428Y-40821428D01*
X97892857Y-40892857D01*
X97964285Y-41035714D01*
X97964285Y-41607142D01*
X97678571Y-39464285D02*
X98678571Y-39464285D01*
X97678571Y-40107142D02*
X98464285Y-40107142D01*
X98607142Y-40035714D01*
X98678571Y-39892857D01*
X98678571Y-39678571D01*
X98607142Y-39535714D01*
X98535714Y-39464285D01*
X98678571Y-38750000D02*
X97678571Y-38750000D01*
X97821428Y-38750000D02*
X97750000Y-38678571D01*
X97678571Y-38535714D01*
X97678571Y-38321428D01*
X97750000Y-38178571D01*
X97892857Y-38107142D01*
X98678571Y-38107142D01*
X97892857Y-38107142D02*
X97750000Y-38035714D01*
X97678571Y-37892857D01*
X97678571Y-37678571D01*
X97750000Y-37535714D01*
X97892857Y-37464285D01*
X98678571Y-37464285D01*
X97678571Y-36750000D02*
X99178571Y-36750000D01*
X97750000Y-36750000D02*
X97678571Y-36607142D01*
X97678571Y-36321428D01*
X97750000Y-36178571D01*
X97821428Y-36107142D01*
X97964285Y-36035714D01*
X98392857Y-36035714D01*
X98535714Y-36107142D01*
X98607142Y-36178571D01*
X98678571Y-36321428D01*
X98678571Y-36607142D01*
X98607142Y-36750000D01*
X98678571Y-33035714D02*
X98678571Y-33107142D01*
X98607142Y-33250000D01*
X98392857Y-33464285D01*
X97964285Y-33821428D01*
X97750000Y-33964285D01*
X97535714Y-34035714D01*
X97392857Y-34035714D01*
X97250000Y-33964285D01*
X97178571Y-33821428D01*
X97178571Y-33750000D01*
X97250000Y-33607142D01*
X97392857Y-33535714D01*
X97464285Y-33535714D01*
X97607142Y-33607142D01*
X97678571Y-33678571D01*
X97964285Y-34107142D01*
X98035714Y-34178571D01*
X98178571Y-34250000D01*
X98392857Y-34250000D01*
X98535714Y-34178571D01*
X98607142Y-34107142D01*
X98678571Y-33964285D01*
X98678571Y-33750000D01*
X98607142Y-33607142D01*
X98535714Y-33535714D01*
X98250000Y-33321428D01*
X98035714Y-33250000D01*
X97892857Y-33250000D01*
X97178571Y-31392857D02*
X97178571Y-30464285D01*
X97750000Y-30964285D01*
X97750000Y-30750000D01*
X97821428Y-30607142D01*
X97892857Y-30535714D01*
X98035714Y-30464285D01*
X98392857Y-30464285D01*
X98535714Y-30535714D01*
X98607142Y-30607142D01*
X98678571Y-30750000D01*
X98678571Y-31178571D01*
X98607142Y-31321428D01*
X98535714Y-31392857D01*
X98678571Y-28678571D02*
X97178571Y-28678571D01*
X97178571Y-28107142D01*
X97250000Y-27964285D01*
X97321428Y-27892857D01*
X97464285Y-27821428D01*
X97678571Y-27821428D01*
X97821428Y-27892857D01*
X97892857Y-27964285D01*
X97964285Y-28107142D01*
X97964285Y-28678571D01*
X97678571Y-26535714D02*
X98678571Y-26535714D01*
X97678571Y-27178571D02*
X98464285Y-27178571D01*
X98607142Y-27107142D01*
X98678571Y-26964285D01*
X98678571Y-26750000D01*
X98607142Y-26607142D01*
X98535714Y-26535714D01*
X98678571Y-25821428D02*
X97678571Y-25821428D01*
X97821428Y-25821428D02*
X97750000Y-25750000D01*
X97678571Y-25607142D01*
X97678571Y-25392857D01*
X97750000Y-25250000D01*
X97892857Y-25178571D01*
X98678571Y-25178571D01*
X97892857Y-25178571D02*
X97750000Y-25107142D01*
X97678571Y-24964285D01*
X97678571Y-24750000D01*
X97750000Y-24607142D01*
X97892857Y-24535714D01*
X98678571Y-24535714D01*
X97678571Y-23821428D02*
X99178571Y-23821428D01*
X97750000Y-23821428D02*
X97678571Y-23678571D01*
X97678571Y-23392857D01*
X97750000Y-23250000D01*
X97821428Y-23178571D01*
X97964285Y-23107142D01*
X98392857Y-23107142D01*
X98535714Y-23178571D01*
X98607142Y-23250000D01*
X98678571Y-23392857D01*
X98678571Y-23678571D01*
X98607142Y-23821428D01*
X98678571Y-21321428D02*
X97178571Y-21321428D01*
X97178571Y-20964285D01*
X97250000Y-20750000D01*
X97392857Y-20607142D01*
X97535714Y-20535714D01*
X97821428Y-20464285D01*
X98035714Y-20464285D01*
X98321428Y-20535714D01*
X98464285Y-20607142D01*
X98607142Y-20750000D01*
X98678571Y-20964285D01*
X98678571Y-21321428D01*
X98678571Y-19821428D02*
X97678571Y-19821428D01*
X97178571Y-19821428D02*
X97250000Y-19892857D01*
X97321428Y-19821428D01*
X97250000Y-19750000D01*
X97178571Y-19821428D01*
X97321428Y-19821428D01*
X98678571Y-18892857D02*
X98607142Y-19035714D01*
X98535714Y-19107142D01*
X98392857Y-19178571D01*
X97964285Y-19178571D01*
X97821428Y-19107142D01*
X97750000Y-19035714D01*
X97678571Y-18892857D01*
X97678571Y-18678571D01*
X97750000Y-18535714D01*
X97821428Y-18464285D01*
X97964285Y-18392857D01*
X98392857Y-18392857D01*
X98535714Y-18464285D01*
X98607142Y-18535714D01*
X98678571Y-18678571D01*
X98678571Y-18892857D01*
X98678571Y-17107142D02*
X97178571Y-17107142D01*
X98607142Y-17107142D02*
X98678571Y-17250000D01*
X98678571Y-17535714D01*
X98607142Y-17678571D01*
X98535714Y-17750000D01*
X98392857Y-17821428D01*
X97964285Y-17821428D01*
X97821428Y-17750000D01*
X97750000Y-17678571D01*
X97678571Y-17535714D01*
X97678571Y-17250000D01*
X97750000Y-17107142D01*
X98607142Y-15821428D02*
X98678571Y-15964285D01*
X98678571Y-16250000D01*
X98607142Y-16392857D01*
X98464285Y-16464285D01*
X97892857Y-16464285D01*
X97750000Y-16392857D01*
X97678571Y-16250000D01*
X97678571Y-15964285D01*
X97750000Y-15821428D01*
X97892857Y-15750000D01*
X98035714Y-15750000D01*
X98178571Y-16464285D01*
X62678571Y-40857142D02*
X63678571Y-40857142D01*
X62107142Y-41214285D02*
X63178571Y-41571428D01*
X63178571Y-40642857D01*
X63678571Y-38928571D02*
X62178571Y-38928571D01*
X62892857Y-38928571D02*
X62892857Y-38071428D01*
X63678571Y-38071428D02*
X62178571Y-38071428D01*
X63607142Y-36785714D02*
X63678571Y-36928571D01*
X63678571Y-37214285D01*
X63607142Y-37357142D01*
X63464285Y-37428571D01*
X62892857Y-37428571D01*
X62750000Y-37357142D01*
X62678571Y-37214285D01*
X62678571Y-36928571D01*
X62750000Y-36785714D01*
X62892857Y-36714285D01*
X63035714Y-36714285D01*
X63178571Y-37428571D01*
X63678571Y-35428571D02*
X62892857Y-35428571D01*
X62750000Y-35500000D01*
X62678571Y-35642857D01*
X62678571Y-35928571D01*
X62750000Y-36071428D01*
X63607142Y-35428571D02*
X63678571Y-35571428D01*
X63678571Y-35928571D01*
X63607142Y-36071428D01*
X63464285Y-36142857D01*
X63321428Y-36142857D01*
X63178571Y-36071428D01*
X63107142Y-35928571D01*
X63107142Y-35571428D01*
X63035714Y-35428571D01*
X63678571Y-34071428D02*
X62178571Y-34071428D01*
X63607142Y-34071428D02*
X63678571Y-34214285D01*
X63678571Y-34500000D01*
X63607142Y-34642857D01*
X63535714Y-34714285D01*
X63392857Y-34785714D01*
X62964285Y-34785714D01*
X62821428Y-34714285D01*
X62750000Y-34642857D01*
X62678571Y-34500000D01*
X62678571Y-34214285D01*
X62750000Y-34071428D01*
X62178571Y-32428571D02*
X62178571Y-31571428D01*
X63678571Y-32000000D02*
X62178571Y-32000000D01*
X63678571Y-31071428D02*
X62178571Y-31071428D01*
X63678571Y-30428571D02*
X62892857Y-30428571D01*
X62750000Y-30500000D01*
X62678571Y-30642857D01*
X62678571Y-30857142D01*
X62750000Y-31000000D01*
X62821428Y-31071428D01*
X63607142Y-29142857D02*
X63678571Y-29285714D01*
X63678571Y-29571428D01*
X63607142Y-29714285D01*
X63464285Y-29785714D01*
X62892857Y-29785714D01*
X62750000Y-29714285D01*
X62678571Y-29571428D01*
X62678571Y-29285714D01*
X62750000Y-29142857D01*
X62892857Y-29071428D01*
X63035714Y-29071428D01*
X63178571Y-29785714D01*
X63678571Y-28428571D02*
X62678571Y-28428571D01*
X62964285Y-28428571D02*
X62821428Y-28357142D01*
X62750000Y-28285714D01*
X62678571Y-28142857D01*
X62678571Y-28000000D01*
X63678571Y-27500000D02*
X62678571Y-27500000D01*
X62821428Y-27500000D02*
X62750000Y-27428571D01*
X62678571Y-27285714D01*
X62678571Y-27071428D01*
X62750000Y-26928571D01*
X62892857Y-26857142D01*
X63678571Y-26857142D01*
X62892857Y-26857142D02*
X62750000Y-26785714D01*
X62678571Y-26642857D01*
X62678571Y-26428571D01*
X62750000Y-26285714D01*
X62892857Y-26214285D01*
X63678571Y-26214285D01*
X63678571Y-25285714D02*
X63607142Y-25428571D01*
X63535714Y-25500000D01*
X63392857Y-25571428D01*
X62964285Y-25571428D01*
X62821428Y-25500000D01*
X62750000Y-25428571D01*
X62678571Y-25285714D01*
X62678571Y-25071428D01*
X62750000Y-24928571D01*
X62821428Y-24857142D01*
X62964285Y-24785714D01*
X63392857Y-24785714D01*
X63535714Y-24857142D01*
X63607142Y-24928571D01*
X63678571Y-25071428D01*
X63678571Y-25285714D01*
X63678571Y-24142857D02*
X62678571Y-24142857D01*
X62821428Y-24142857D02*
X62750000Y-24071428D01*
X62678571Y-23928571D01*
X62678571Y-23714285D01*
X62750000Y-23571428D01*
X62892857Y-23500000D01*
X63678571Y-23500000D01*
X62892857Y-23500000D02*
X62750000Y-23428571D01*
X62678571Y-23285714D01*
X62678571Y-23071428D01*
X62750000Y-22928571D01*
X62892857Y-22857142D01*
X63678571Y-22857142D01*
X63607142Y-21571428D02*
X63678571Y-21714285D01*
X63678571Y-22000000D01*
X63607142Y-22142857D01*
X63464285Y-22214285D01*
X62892857Y-22214285D01*
X62750000Y-22142857D01*
X62678571Y-22000000D01*
X62678571Y-21714285D01*
X62750000Y-21571428D01*
X62892857Y-21500000D01*
X63035714Y-21500000D01*
X63178571Y-22214285D01*
X62678571Y-21071428D02*
X62678571Y-20500000D01*
X62178571Y-20857142D02*
X63464285Y-20857142D01*
X63607142Y-20785714D01*
X63678571Y-20642857D01*
X63678571Y-20500000D01*
X63607142Y-19428571D02*
X63678571Y-19571428D01*
X63678571Y-19857142D01*
X63607142Y-20000000D01*
X63464285Y-20071428D01*
X62892857Y-20071428D01*
X62750000Y-20000000D01*
X62678571Y-19857142D01*
X62678571Y-19571428D01*
X62750000Y-19428571D01*
X62892857Y-19357142D01*
X63035714Y-19357142D01*
X63178571Y-20071428D01*
X63678571Y-18714285D02*
X62678571Y-18714285D01*
X62964285Y-18714285D02*
X62821428Y-18642857D01*
X62750000Y-18571428D01*
X62678571Y-18428571D01*
X62678571Y-18285714D01*
X27178571Y-41642857D02*
X27178571Y-40714285D01*
X27750000Y-41214285D01*
X27750000Y-41000000D01*
X27821428Y-40857142D01*
X27892857Y-40785714D01*
X28035714Y-40714285D01*
X28392857Y-40714285D01*
X28535714Y-40785714D01*
X28607142Y-40857142D01*
X28678571Y-41000000D01*
X28678571Y-41428571D01*
X28607142Y-41571428D01*
X28535714Y-41642857D01*
X28678571Y-38928571D02*
X27178571Y-38928571D01*
X27892857Y-38928571D02*
X27892857Y-38071428D01*
X28678571Y-38071428D02*
X27178571Y-38071428D01*
X28607142Y-36785714D02*
X28678571Y-36928571D01*
X28678571Y-37214285D01*
X28607142Y-37357142D01*
X28464285Y-37428571D01*
X27892857Y-37428571D01*
X27750000Y-37357142D01*
X27678571Y-37214285D01*
X27678571Y-36928571D01*
X27750000Y-36785714D01*
X27892857Y-36714285D01*
X28035714Y-36714285D01*
X28178571Y-37428571D01*
X28678571Y-35428571D02*
X27892857Y-35428571D01*
X27750000Y-35500000D01*
X27678571Y-35642857D01*
X27678571Y-35928571D01*
X27750000Y-36071428D01*
X28607142Y-35428571D02*
X28678571Y-35571428D01*
X28678571Y-35928571D01*
X28607142Y-36071428D01*
X28464285Y-36142857D01*
X28321428Y-36142857D01*
X28178571Y-36071428D01*
X28107142Y-35928571D01*
X28107142Y-35571428D01*
X28035714Y-35428571D01*
X28678571Y-34071428D02*
X27178571Y-34071428D01*
X28607142Y-34071428D02*
X28678571Y-34214285D01*
X28678571Y-34500000D01*
X28607142Y-34642857D01*
X28535714Y-34714285D01*
X28392857Y-34785714D01*
X27964285Y-34785714D01*
X27821428Y-34714285D01*
X27750000Y-34642857D01*
X27678571Y-34500000D01*
X27678571Y-34214285D01*
X27750000Y-34071428D01*
X27178571Y-32428571D02*
X27178571Y-31571428D01*
X28678571Y-32000000D02*
X27178571Y-32000000D01*
X28678571Y-31071428D02*
X27178571Y-31071428D01*
X28678571Y-30428571D02*
X27892857Y-30428571D01*
X27750000Y-30500000D01*
X27678571Y-30642857D01*
X27678571Y-30857142D01*
X27750000Y-31000000D01*
X27821428Y-31071428D01*
X28607142Y-29142857D02*
X28678571Y-29285714D01*
X28678571Y-29571428D01*
X28607142Y-29714285D01*
X28464285Y-29785714D01*
X27892857Y-29785714D01*
X27750000Y-29714285D01*
X27678571Y-29571428D01*
X27678571Y-29285714D01*
X27750000Y-29142857D01*
X27892857Y-29071428D01*
X28035714Y-29071428D01*
X28178571Y-29785714D01*
X28678571Y-28428571D02*
X27678571Y-28428571D01*
X27964285Y-28428571D02*
X27821428Y-28357142D01*
X27750000Y-28285714D01*
X27678571Y-28142857D01*
X27678571Y-28000000D01*
X28678571Y-27500000D02*
X27678571Y-27500000D01*
X27821428Y-27500000D02*
X27750000Y-27428571D01*
X27678571Y-27285714D01*
X27678571Y-27071428D01*
X27750000Y-26928571D01*
X27892857Y-26857142D01*
X28678571Y-26857142D01*
X27892857Y-26857142D02*
X27750000Y-26785714D01*
X27678571Y-26642857D01*
X27678571Y-26428571D01*
X27750000Y-26285714D01*
X27892857Y-26214285D01*
X28678571Y-26214285D01*
X28678571Y-25285714D02*
X28607142Y-25428571D01*
X28535714Y-25500000D01*
X28392857Y-25571428D01*
X27964285Y-25571428D01*
X27821428Y-25500000D01*
X27750000Y-25428571D01*
X27678571Y-25285714D01*
X27678571Y-25071428D01*
X27750000Y-24928571D01*
X27821428Y-24857142D01*
X27964285Y-24785714D01*
X28392857Y-24785714D01*
X28535714Y-24857142D01*
X28607142Y-24928571D01*
X28678571Y-25071428D01*
X28678571Y-25285714D01*
X28678571Y-24142857D02*
X27678571Y-24142857D01*
X27821428Y-24142857D02*
X27750000Y-24071428D01*
X27678571Y-23928571D01*
X27678571Y-23714285D01*
X27750000Y-23571428D01*
X27892857Y-23500000D01*
X28678571Y-23500000D01*
X27892857Y-23500000D02*
X27750000Y-23428571D01*
X27678571Y-23285714D01*
X27678571Y-23071428D01*
X27750000Y-22928571D01*
X27892857Y-22857142D01*
X28678571Y-22857142D01*
X28607142Y-21571428D02*
X28678571Y-21714285D01*
X28678571Y-22000000D01*
X28607142Y-22142857D01*
X28464285Y-22214285D01*
X27892857Y-22214285D01*
X27750000Y-22142857D01*
X27678571Y-22000000D01*
X27678571Y-21714285D01*
X27750000Y-21571428D01*
X27892857Y-21500000D01*
X28035714Y-21500000D01*
X28178571Y-22214285D01*
X27678571Y-21071428D02*
X27678571Y-20500000D01*
X27178571Y-20857142D02*
X28464285Y-20857142D01*
X28607142Y-20785714D01*
X28678571Y-20642857D01*
X28678571Y-20500000D01*
X28607142Y-19428571D02*
X28678571Y-19571428D01*
X28678571Y-19857142D01*
X28607142Y-20000000D01*
X28464285Y-20071428D01*
X27892857Y-20071428D01*
X27750000Y-20000000D01*
X27678571Y-19857142D01*
X27678571Y-19571428D01*
X27750000Y-19428571D01*
X27892857Y-19357142D01*
X28035714Y-19357142D01*
X28178571Y-20071428D01*
X28678571Y-18714285D02*
X27678571Y-18714285D01*
X27964285Y-18714285D02*
X27821428Y-18642857D01*
X27750000Y-18571428D01*
X27678571Y-18428571D01*
X27678571Y-18285714D01*
D11*
X31852620Y-193392812D02*
G75*
G03*
X31091000Y-194410000I258380J-987188D01*
G01*
X31091269Y-205585328D02*
G75*
G03*
X31853000Y-206602000I1019731J-29672D01*
G01*
X37694498Y-207617283D02*
G75*
G03*
X38711000Y-206602000I-235498J1252283D01*
G01*
X38710438Y-193139819D02*
G75*
G03*
X37695000Y-192378000I-986438J-257181D01*
G01*
D12*
X37900000Y-215400000D02*
X28297000Y-215400000D01*
X28297000Y-215400000D02*
X28297000Y-184600000D01*
X28297000Y-184600000D02*
X41505000Y-184600000D01*
X41505000Y-184600000D02*
X41505000Y-215400000D01*
X41505000Y-215400000D02*
X37900000Y-215400000D01*
D11*
X38711000Y-193140000D02*
X38711000Y-206602000D01*
X31853000Y-206602000D02*
X37695000Y-207617000D01*
X31091000Y-194410000D02*
X31091000Y-205586000D01*
X37695000Y-192377000D02*
X31853000Y-193394000D01*
X51852620Y-163392812D02*
G75*
G03*
X51091000Y-164410000I258380J-987188D01*
G01*
X51091269Y-175585328D02*
G75*
G03*
X51853000Y-176602000I1019731J-29672D01*
G01*
X57694498Y-177617283D02*
G75*
G03*
X58711000Y-176602000I-235498J1252283D01*
G01*
X58710438Y-163139819D02*
G75*
G03*
X57695000Y-162378000I-986438J-257181D01*
G01*
D12*
X57900000Y-185400000D02*
X48297000Y-185400000D01*
X48297000Y-185400000D02*
X48297000Y-154600000D01*
X48297000Y-154600000D02*
X61505000Y-154600000D01*
X61505000Y-154600000D02*
X61505000Y-185400000D01*
X61505000Y-185400000D02*
X57900000Y-185400000D01*
D11*
X58711000Y-163140000D02*
X58711000Y-176602000D01*
X51853000Y-176602000D02*
X57695000Y-177617000D01*
X51091000Y-164410000D02*
X51091000Y-175586000D01*
X57695000Y-162377000D02*
X51853000Y-163394000D01*
X5207000Y-205461000D02*
G75*
G03*
X5207000Y-205461000I-254000J0D01*
G01*
X-7450000Y-207500000D02*
X-7450000Y-192500000D01*
X-7450000Y-192500000D02*
X-4809000Y-192500000D01*
X-1911000Y-192500000D02*
X651000Y-192500000D01*
X-7450000Y-207500000D02*
X-4809000Y-207500000D01*
X-1911000Y-207500000D02*
X651000Y-207500000D01*
X4318000Y-206583000D02*
X4318000Y-204871000D01*
X4318000Y-195129000D02*
X4318000Y-193417000D01*
X5207000Y-180461000D02*
G75*
G03*
X5207000Y-180461000I-254000J0D01*
G01*
X-7450000Y-182500000D02*
X-7450000Y-167500000D01*
X-7450000Y-167500000D02*
X-4809000Y-167500000D01*
X-1911000Y-167500000D02*
X651000Y-167500000D01*
X-7450000Y-182500000D02*
X-4809000Y-182500000D01*
X-1911000Y-182500000D02*
X651000Y-182500000D01*
X4318000Y-181583000D02*
X4318000Y-179871000D01*
X4318000Y-170129000D02*
X4318000Y-168417000D01*
X5207000Y-155461000D02*
G75*
G03*
X5207000Y-155461000I-254000J0D01*
G01*
X-7450000Y-157500000D02*
X-7450000Y-142500000D01*
X-7450000Y-142500000D02*
X-4809000Y-142500000D01*
X-1911000Y-142500000D02*
X651000Y-142500000D01*
X-7450000Y-157500000D02*
X-4809000Y-157500000D01*
X-1911000Y-157500000D02*
X651000Y-157500000D01*
X4318000Y-156583000D02*
X4318000Y-154871000D01*
X4318000Y-145129000D02*
X4318000Y-143417000D01*
X5207000Y-130461000D02*
G75*
G03*
X5207000Y-130461000I-254000J0D01*
G01*
X-7450000Y-132500000D02*
X-7450000Y-117500000D01*
X-7450000Y-117500000D02*
X-4809000Y-117500000D01*
X-1911000Y-117500000D02*
X651000Y-117500000D01*
X-7450000Y-132500000D02*
X-4809000Y-132500000D01*
X-1911000Y-132500000D02*
X651000Y-132500000D01*
X4318000Y-131583000D02*
X4318000Y-129871000D01*
X4318000Y-120129000D02*
X4318000Y-118417000D01*
X5207000Y-105461000D02*
G75*
G03*
X5207000Y-105461000I-254000J0D01*
G01*
X-7450000Y-107500000D02*
X-7450000Y-92500000D01*
X-7450000Y-92500000D02*
X-4809000Y-92500000D01*
X-1911000Y-92500000D02*
X651000Y-92500000D01*
X-7450000Y-107500000D02*
X-4809000Y-107500000D01*
X-1911000Y-107500000D02*
X651000Y-107500000D01*
X4318000Y-106583000D02*
X4318000Y-104871000D01*
X4318000Y-95129000D02*
X4318000Y-93417000D01*
X5207000Y-80461000D02*
G75*
G03*
X5207000Y-80461000I-254000J0D01*
G01*
X-7450000Y-82500000D02*
X-7450000Y-67500000D01*
X-7450000Y-67500000D02*
X-4809000Y-67500000D01*
X-1911000Y-67500000D02*
X651000Y-67500000D01*
X-7450000Y-82500000D02*
X-4809000Y-82500000D01*
X-1911000Y-82500000D02*
X651000Y-82500000D01*
X4318000Y-81583000D02*
X4318000Y-79871000D01*
X4318000Y-70129000D02*
X4318000Y-68417000D01*
X5207000Y-55461000D02*
G75*
G03*
X5207000Y-55461000I-254000J0D01*
G01*
X-7450000Y-57500000D02*
X-7450000Y-42500000D01*
X-7450000Y-42500000D02*
X-4809000Y-42500000D01*
X-1911000Y-42500000D02*
X651000Y-42500000D01*
X-7450000Y-57500000D02*
X-4809000Y-57500000D01*
X-1911000Y-57500000D02*
X651000Y-57500000D01*
X4318000Y-56583000D02*
X4318000Y-54871000D01*
X4318000Y-45129000D02*
X4318000Y-43417000D01*
X5207000Y-30461000D02*
G75*
G03*
X5207000Y-30461000I-254000J0D01*
G01*
X-7450000Y-32500000D02*
X-7450000Y-17500000D01*
X-7450000Y-17500000D02*
X-4809000Y-17500000D01*
X-1911000Y-17500000D02*
X651000Y-17500000D01*
X-7450000Y-32500000D02*
X-4809000Y-32500000D01*
X-1911000Y-32500000D02*
X651000Y-32500000D01*
X4318000Y-31583000D02*
X4318000Y-29871000D01*
X4318000Y-20129000D02*
X4318000Y-18417000D01*
X5207000Y-5461000D02*
G75*
G03*
X5207000Y-5461000I-254000J0D01*
G01*
X-7450000Y-7500000D02*
X-7450000Y7500000D01*
X-7450000Y7500000D02*
X-4809000Y7500000D01*
X-1911000Y7500000D02*
X651000Y7500000D01*
X-7450000Y-7500000D02*
X-4809000Y-7500000D01*
X-1911000Y-7500000D02*
X651000Y-7500000D01*
X4318000Y-6583000D02*
X4318000Y-4871000D01*
X4318000Y4871000D02*
X4318000Y6583000D01*
X75195000Y-192377000D02*
X69353000Y-193394000D01*
X68591000Y-194410000D02*
X68591000Y-205586000D01*
X69353000Y-206602000D02*
X75195000Y-207617000D01*
X76211000Y-193140000D02*
X76211000Y-206602000D01*
D12*
X79005000Y-215400000D02*
X75400000Y-215400000D01*
X79005000Y-184600000D02*
X79005000Y-215400000D01*
X65797000Y-184600000D02*
X79005000Y-184600000D01*
X65797000Y-215400000D02*
X65797000Y-184600000D01*
X75400000Y-215400000D02*
X65797000Y-215400000D01*
D11*
X69352620Y-193392812D02*
G75*
G03*
X68591000Y-194410000I258380J-987188D01*
G01*
X68591269Y-205585328D02*
G75*
G03*
X69353000Y-206602000I1019731J-29672D01*
G01*
X75194498Y-207617283D02*
G75*
G03*
X76211000Y-206602000I-235498J1252283D01*
G01*
X76210438Y-193139819D02*
G75*
G03*
X75195000Y-192378000I-986438J-257181D01*
G01*
X92695000Y-162377000D02*
X86853000Y-163394000D01*
X86091000Y-164410000D02*
X86091000Y-175586000D01*
X86853000Y-176602000D02*
X92695000Y-177617000D01*
X93711000Y-163140000D02*
X93711000Y-176602000D01*
D12*
X96505000Y-185400000D02*
X92900000Y-185400000D01*
X96505000Y-154600000D02*
X96505000Y-185400000D01*
X83297000Y-154600000D02*
X96505000Y-154600000D01*
X83297000Y-185400000D02*
X83297000Y-154600000D01*
X92900000Y-185400000D02*
X83297000Y-185400000D01*
D11*
X86852620Y-163392812D02*
G75*
G03*
X86091000Y-164410000I258380J-987188D01*
G01*
X86091269Y-175585328D02*
G75*
G03*
X86853000Y-176602000I1019731J-29672D01*
G01*
X92694498Y-177617283D02*
G75*
G03*
X93711000Y-176602000I-235498J1252283D01*
G01*
X93710438Y-163139819D02*
G75*
G03*
X92695000Y-162378000I-986438J-257181D01*
G01*
X22695000Y-162377000D02*
X16853000Y-163394000D01*
X16091000Y-164410000D02*
X16091000Y-175586000D01*
X16853000Y-176602000D02*
X22695000Y-177617000D01*
X23711000Y-163140000D02*
X23711000Y-176602000D01*
D12*
X26505000Y-185400000D02*
X22900000Y-185400000D01*
X26505000Y-154600000D02*
X26505000Y-185400000D01*
X13297000Y-154600000D02*
X26505000Y-154600000D01*
X13297000Y-185400000D02*
X13297000Y-154600000D01*
X22900000Y-185400000D02*
X13297000Y-185400000D01*
D11*
X16852620Y-163392812D02*
G75*
G03*
X16091000Y-164410000I258380J-987188D01*
G01*
X16091269Y-175585328D02*
G75*
G03*
X16853000Y-176602000I1019731J-29672D01*
G01*
X22694498Y-177617283D02*
G75*
G03*
X23711000Y-176602000I-235498J1252283D01*
G01*
X23710438Y-163139819D02*
G75*
G03*
X22695000Y-162378000I-986438J-257181D01*
G01*
X92695000Y-127377000D02*
X86853000Y-128394000D01*
X86091000Y-129410000D02*
X86091000Y-140586000D01*
X86853000Y-141602000D02*
X92695000Y-142617000D01*
X93711000Y-128140000D02*
X93711000Y-141602000D01*
D12*
X96505000Y-150400000D02*
X92900000Y-150400000D01*
X96505000Y-119600000D02*
X96505000Y-150400000D01*
X83297000Y-119600000D02*
X96505000Y-119600000D01*
X83297000Y-150400000D02*
X83297000Y-119600000D01*
X92900000Y-150400000D02*
X83297000Y-150400000D01*
D11*
X86852620Y-128392812D02*
G75*
G03*
X86091000Y-129410000I258380J-987188D01*
G01*
X86091269Y-140585328D02*
G75*
G03*
X86853000Y-141602000I1019731J-29672D01*
G01*
X92694498Y-142617283D02*
G75*
G03*
X93711000Y-141602000I-235498J1252283D01*
G01*
X93710438Y-128139819D02*
G75*
G03*
X92695000Y-127378000I-986438J-257181D01*
G01*
X57695000Y-127377000D02*
X51853000Y-128394000D01*
X51091000Y-129410000D02*
X51091000Y-140586000D01*
X51853000Y-141602000D02*
X57695000Y-142617000D01*
X58711000Y-128140000D02*
X58711000Y-141602000D01*
D12*
X61505000Y-150400000D02*
X57900000Y-150400000D01*
X61505000Y-119600000D02*
X61505000Y-150400000D01*
X48297000Y-119600000D02*
X61505000Y-119600000D01*
X48297000Y-150400000D02*
X48297000Y-119600000D01*
X57900000Y-150400000D02*
X48297000Y-150400000D01*
D11*
X51852620Y-128392812D02*
G75*
G03*
X51091000Y-129410000I258380J-987188D01*
G01*
X51091269Y-140585328D02*
G75*
G03*
X51853000Y-141602000I1019731J-29672D01*
G01*
X57694498Y-142617283D02*
G75*
G03*
X58711000Y-141602000I-235498J1252283D01*
G01*
X58710438Y-128139819D02*
G75*
G03*
X57695000Y-127378000I-986438J-257181D01*
G01*
X22695000Y-127377000D02*
X16853000Y-128394000D01*
X16091000Y-129410000D02*
X16091000Y-140586000D01*
X16853000Y-141602000D02*
X22695000Y-142617000D01*
X23711000Y-128140000D02*
X23711000Y-141602000D01*
D12*
X26505000Y-150400000D02*
X22900000Y-150400000D01*
X26505000Y-119600000D02*
X26505000Y-150400000D01*
X13297000Y-119600000D02*
X26505000Y-119600000D01*
X13297000Y-150400000D02*
X13297000Y-119600000D01*
X22900000Y-150400000D02*
X13297000Y-150400000D01*
D11*
X16852620Y-128392812D02*
G75*
G03*
X16091000Y-129410000I258380J-987188D01*
G01*
X16091269Y-140585328D02*
G75*
G03*
X16853000Y-141602000I1019731J-29672D01*
G01*
X22694498Y-142617283D02*
G75*
G03*
X23711000Y-141602000I-235498J1252283D01*
G01*
X23710438Y-128139819D02*
G75*
G03*
X22695000Y-127378000I-986438J-257181D01*
G01*
X92695000Y-92377000D02*
X86853000Y-93394000D01*
X86091000Y-94410000D02*
X86091000Y-105586000D01*
X86853000Y-106602000D02*
X92695000Y-107617000D01*
X93711000Y-93140000D02*
X93711000Y-106602000D01*
D12*
X96505000Y-115400000D02*
X92900000Y-115400000D01*
X96505000Y-84600000D02*
X96505000Y-115400000D01*
X83297000Y-84600000D02*
X96505000Y-84600000D01*
X83297000Y-115400000D02*
X83297000Y-84600000D01*
X92900000Y-115400000D02*
X83297000Y-115400000D01*
D11*
X86852620Y-93392812D02*
G75*
G03*
X86091000Y-94410000I258380J-987188D01*
G01*
X86091269Y-105585328D02*
G75*
G03*
X86853000Y-106602000I1019731J-29672D01*
G01*
X92694498Y-107617283D02*
G75*
G03*
X93711000Y-106602000I-235498J1252283D01*
G01*
X93710438Y-93139819D02*
G75*
G03*
X92695000Y-92378000I-986438J-257181D01*
G01*
X57695000Y-92377000D02*
X51853000Y-93394000D01*
X51091000Y-94410000D02*
X51091000Y-105586000D01*
X51853000Y-106602000D02*
X57695000Y-107617000D01*
X58711000Y-93140000D02*
X58711000Y-106602000D01*
D12*
X61505000Y-115400000D02*
X57900000Y-115400000D01*
X61505000Y-84600000D02*
X61505000Y-115400000D01*
X48297000Y-84600000D02*
X61505000Y-84600000D01*
X48297000Y-115400000D02*
X48297000Y-84600000D01*
X57900000Y-115400000D02*
X48297000Y-115400000D01*
D11*
X51852620Y-93392812D02*
G75*
G03*
X51091000Y-94410000I258380J-987188D01*
G01*
X51091269Y-105585328D02*
G75*
G03*
X51853000Y-106602000I1019731J-29672D01*
G01*
X57694498Y-107617283D02*
G75*
G03*
X58711000Y-106602000I-235498J1252283D01*
G01*
X58710438Y-93139819D02*
G75*
G03*
X57695000Y-92378000I-986438J-257181D01*
G01*
X22695000Y-92377000D02*
X16853000Y-93394000D01*
X16091000Y-94410000D02*
X16091000Y-105586000D01*
X16853000Y-106602000D02*
X22695000Y-107617000D01*
X23711000Y-93140000D02*
X23711000Y-106602000D01*
D12*
X26505000Y-115400000D02*
X22900000Y-115400000D01*
X26505000Y-84600000D02*
X26505000Y-115400000D01*
X13297000Y-84600000D02*
X26505000Y-84600000D01*
X13297000Y-115400000D02*
X13297000Y-84600000D01*
X22900000Y-115400000D02*
X13297000Y-115400000D01*
D11*
X16852620Y-93392812D02*
G75*
G03*
X16091000Y-94410000I258380J-987188D01*
G01*
X16091269Y-105585328D02*
G75*
G03*
X16853000Y-106602000I1019731J-29672D01*
G01*
X22694498Y-107617283D02*
G75*
G03*
X23711000Y-106602000I-235498J1252283D01*
G01*
X23710438Y-93139819D02*
G75*
G03*
X22695000Y-92378000I-986438J-257181D01*
G01*
X92695000Y-57377000D02*
X86853000Y-58394000D01*
X86091000Y-59410000D02*
X86091000Y-70586000D01*
X86853000Y-71602000D02*
X92695000Y-72617000D01*
X93711000Y-58140000D02*
X93711000Y-71602000D01*
D12*
X96505000Y-80400000D02*
X92900000Y-80400000D01*
X96505000Y-49600000D02*
X96505000Y-80400000D01*
X83297000Y-49600000D02*
X96505000Y-49600000D01*
X83297000Y-80400000D02*
X83297000Y-49600000D01*
X92900000Y-80400000D02*
X83297000Y-80400000D01*
D11*
X86852620Y-58392812D02*
G75*
G03*
X86091000Y-59410000I258380J-987188D01*
G01*
X86091269Y-70585328D02*
G75*
G03*
X86853000Y-71602000I1019731J-29672D01*
G01*
X92694498Y-72617283D02*
G75*
G03*
X93711000Y-71602000I-235498J1252283D01*
G01*
X93710438Y-58139819D02*
G75*
G03*
X92695000Y-57378000I-986438J-257181D01*
G01*
X57695000Y-57377000D02*
X51853000Y-58394000D01*
X51091000Y-59410000D02*
X51091000Y-70586000D01*
X51853000Y-71602000D02*
X57695000Y-72617000D01*
X58711000Y-58140000D02*
X58711000Y-71602000D01*
D12*
X61505000Y-80400000D02*
X57900000Y-80400000D01*
X61505000Y-49600000D02*
X61505000Y-80400000D01*
X48297000Y-49600000D02*
X61505000Y-49600000D01*
X48297000Y-80400000D02*
X48297000Y-49600000D01*
X57900000Y-80400000D02*
X48297000Y-80400000D01*
D11*
X51852620Y-58392812D02*
G75*
G03*
X51091000Y-59410000I258380J-987188D01*
G01*
X51091269Y-70585328D02*
G75*
G03*
X51853000Y-71602000I1019731J-29672D01*
G01*
X57694498Y-72617283D02*
G75*
G03*
X58711000Y-71602000I-235498J1252283D01*
G01*
X58710438Y-58139819D02*
G75*
G03*
X57695000Y-57378000I-986438J-257181D01*
G01*
X22695000Y-57377000D02*
X16853000Y-58394000D01*
X16091000Y-59410000D02*
X16091000Y-70586000D01*
X16853000Y-71602000D02*
X22695000Y-72617000D01*
X23711000Y-58140000D02*
X23711000Y-71602000D01*
D12*
X26505000Y-80400000D02*
X22900000Y-80400000D01*
X26505000Y-49600000D02*
X26505000Y-80400000D01*
X13297000Y-49600000D02*
X26505000Y-49600000D01*
X13297000Y-80400000D02*
X13297000Y-49600000D01*
X22900000Y-80400000D02*
X13297000Y-80400000D01*
D11*
X16852620Y-58392812D02*
G75*
G03*
X16091000Y-59410000I258380J-987188D01*
G01*
X16091269Y-70585328D02*
G75*
G03*
X16853000Y-71602000I1019731J-29672D01*
G01*
X22694498Y-72617283D02*
G75*
G03*
X23711000Y-71602000I-235498J1252283D01*
G01*
X23710438Y-58139819D02*
G75*
G03*
X22695000Y-57378000I-986438J-257181D01*
G01*
X92695000Y-22377000D02*
X86853000Y-23394000D01*
X86091000Y-24410000D02*
X86091000Y-35586000D01*
X86853000Y-36602000D02*
X92695000Y-37617000D01*
X93711000Y-23140000D02*
X93711000Y-36602000D01*
D12*
X96505000Y-45400000D02*
X92900000Y-45400000D01*
X96505000Y-14600000D02*
X96505000Y-45400000D01*
X83297000Y-14600000D02*
X96505000Y-14600000D01*
X83297000Y-45400000D02*
X83297000Y-14600000D01*
X92900000Y-45400000D02*
X83297000Y-45400000D01*
D11*
X86852620Y-23392812D02*
G75*
G03*
X86091000Y-24410000I258380J-987188D01*
G01*
X86091269Y-35585328D02*
G75*
G03*
X86853000Y-36602000I1019731J-29672D01*
G01*
X92694498Y-37617283D02*
G75*
G03*
X93711000Y-36602000I-235498J1252283D01*
G01*
X93710438Y-23139819D02*
G75*
G03*
X92695000Y-22378000I-986438J-257181D01*
G01*
X57695000Y-22377000D02*
X51853000Y-23394000D01*
X51091000Y-24410000D02*
X51091000Y-35586000D01*
X51853000Y-36602000D02*
X57695000Y-37617000D01*
X58711000Y-23140000D02*
X58711000Y-36602000D01*
D12*
X61505000Y-45400000D02*
X57900000Y-45400000D01*
X61505000Y-14600000D02*
X61505000Y-45400000D01*
X48297000Y-14600000D02*
X61505000Y-14600000D01*
X48297000Y-45400000D02*
X48297000Y-14600000D01*
X57900000Y-45400000D02*
X48297000Y-45400000D01*
D11*
X51852620Y-23392812D02*
G75*
G03*
X51091000Y-24410000I258380J-987188D01*
G01*
X51091269Y-35585328D02*
G75*
G03*
X51853000Y-36602000I1019731J-29672D01*
G01*
X57694498Y-37617283D02*
G75*
G03*
X58711000Y-36602000I-235498J1252283D01*
G01*
X58710438Y-23139819D02*
G75*
G03*
X57695000Y-22378000I-986438J-257181D01*
G01*
X22695000Y-22377000D02*
X16853000Y-23394000D01*
X16091000Y-24410000D02*
X16091000Y-35586000D01*
X16853000Y-36602000D02*
X22695000Y-37617000D01*
X23711000Y-23140000D02*
X23711000Y-36602000D01*
D12*
X26505000Y-45400000D02*
X22900000Y-45400000D01*
X26505000Y-14600000D02*
X26505000Y-45400000D01*
X13297000Y-14600000D02*
X26505000Y-14600000D01*
X13297000Y-45400000D02*
X13297000Y-14600000D01*
X22900000Y-45400000D02*
X13297000Y-45400000D01*
D11*
X16852620Y-23392812D02*
G75*
G03*
X16091000Y-24410000I258380J-987188D01*
G01*
X16091269Y-35585328D02*
G75*
G03*
X16853000Y-36602000I1019731J-29672D01*
G01*
X22694498Y-37617283D02*
G75*
G03*
X23711000Y-36602000I-235498J1252283D01*
G01*
X23710438Y-23139819D02*
G75*
G03*
X22695000Y-22378000I-986438J-257181D01*
G01*
D13*
X38659380Y-202764166D02*
X37659380Y-202764166D01*
X37659380Y-202526071D01*
X37707000Y-202383214D01*
X37802238Y-202287976D01*
X37897476Y-202240357D01*
X38087952Y-202192738D01*
X38230809Y-202192738D01*
X38421285Y-202240357D01*
X38516523Y-202287976D01*
X38611761Y-202383214D01*
X38659380Y-202526071D01*
X38659380Y-202764166D01*
X38659380Y-201240357D02*
X38659380Y-201811785D01*
X38659380Y-201526071D02*
X37659380Y-201526071D01*
X37802238Y-201621309D01*
X37897476Y-201716547D01*
X37945095Y-201811785D01*
X37659380Y-200383214D02*
X37659380Y-200573690D01*
X37707000Y-200668928D01*
X37754619Y-200716547D01*
X37897476Y-200811785D01*
X38087952Y-200859404D01*
X38468904Y-200859404D01*
X38564142Y-200811785D01*
X38611761Y-200764166D01*
X38659380Y-200668928D01*
X38659380Y-200478452D01*
X38611761Y-200383214D01*
X38564142Y-200335595D01*
X38468904Y-200287976D01*
X38230809Y-200287976D01*
X38135571Y-200335595D01*
X38087952Y-200383214D01*
X38040333Y-200478452D01*
X38040333Y-200668928D01*
X38087952Y-200764166D01*
X38135571Y-200811785D01*
X38230809Y-200859404D01*
D14*
X37306119Y-208185473D02*
X37306119Y-208730045D01*
X37306119Y-208457759D02*
X36353119Y-208457759D01*
X36489261Y-208548521D01*
X36580023Y-208639283D01*
X36625404Y-208730045D01*
X33490119Y-207768235D02*
X33490119Y-207949759D01*
X33535500Y-208040521D01*
X33580880Y-208085902D01*
X33717023Y-208176664D01*
X33898547Y-208222045D01*
X34261595Y-208222045D01*
X34352357Y-208176664D01*
X34397738Y-208131283D01*
X34443119Y-208040521D01*
X34443119Y-207858997D01*
X34397738Y-207768235D01*
X34352357Y-207722854D01*
X34261595Y-207677473D01*
X34034690Y-207677473D01*
X33943928Y-207722854D01*
X33898547Y-207768235D01*
X33853166Y-207858997D01*
X33853166Y-208040521D01*
X33898547Y-208131283D01*
X33943928Y-208176664D01*
X34034690Y-208222045D01*
X34513119Y-192383283D02*
X34513119Y-192201759D01*
X34467738Y-192110997D01*
X34422357Y-192065616D01*
X34286214Y-191974854D01*
X34104690Y-191929473D01*
X33741642Y-191929473D01*
X33650880Y-191974854D01*
X33605500Y-192020235D01*
X33560119Y-192110997D01*
X33560119Y-192292521D01*
X33605500Y-192383283D01*
X33650880Y-192428664D01*
X33741642Y-192474045D01*
X33968547Y-192474045D01*
X34059309Y-192428664D01*
X34104690Y-192383283D01*
X34150071Y-192292521D01*
X34150071Y-192110997D01*
X34104690Y-192020235D01*
X34059309Y-191974854D01*
X33968547Y-191929473D01*
X36353119Y-191466854D02*
X36353119Y-191920664D01*
X36806928Y-191966045D01*
X36761547Y-191920664D01*
X36716166Y-191829902D01*
X36716166Y-191602997D01*
X36761547Y-191512235D01*
X36806928Y-191466854D01*
X36897690Y-191421473D01*
X37124595Y-191421473D01*
X37215357Y-191466854D01*
X37260738Y-191512235D01*
X37306119Y-191602997D01*
X37306119Y-191829902D01*
X37260738Y-191920664D01*
X37215357Y-191966045D01*
D13*
X58659380Y-172764166D02*
X57659380Y-172764166D01*
X57659380Y-172526071D01*
X57707000Y-172383214D01*
X57802238Y-172287976D01*
X57897476Y-172240357D01*
X58087952Y-172192738D01*
X58230809Y-172192738D01*
X58421285Y-172240357D01*
X58516523Y-172287976D01*
X58611761Y-172383214D01*
X58659380Y-172526071D01*
X58659380Y-172764166D01*
X58659380Y-171240357D02*
X58659380Y-171811785D01*
X58659380Y-171526071D02*
X57659380Y-171526071D01*
X57802238Y-171621309D01*
X57897476Y-171716547D01*
X57945095Y-171811785D01*
X57992714Y-170383214D02*
X58659380Y-170383214D01*
X57611761Y-170621309D02*
X58326047Y-170859404D01*
X58326047Y-170240357D01*
D14*
X57306119Y-178185473D02*
X57306119Y-178730045D01*
X57306119Y-178457759D02*
X56353119Y-178457759D01*
X56489261Y-178548521D01*
X56580023Y-178639283D01*
X56625404Y-178730045D01*
X53490119Y-177768235D02*
X53490119Y-177949759D01*
X53535500Y-178040521D01*
X53580880Y-178085902D01*
X53717023Y-178176664D01*
X53898547Y-178222045D01*
X54261595Y-178222045D01*
X54352357Y-178176664D01*
X54397738Y-178131283D01*
X54443119Y-178040521D01*
X54443119Y-177858997D01*
X54397738Y-177768235D01*
X54352357Y-177722854D01*
X54261595Y-177677473D01*
X54034690Y-177677473D01*
X53943928Y-177722854D01*
X53898547Y-177768235D01*
X53853166Y-177858997D01*
X53853166Y-178040521D01*
X53898547Y-178131283D01*
X53943928Y-178176664D01*
X54034690Y-178222045D01*
X54513119Y-162383283D02*
X54513119Y-162201759D01*
X54467738Y-162110997D01*
X54422357Y-162065616D01*
X54286214Y-161974854D01*
X54104690Y-161929473D01*
X53741642Y-161929473D01*
X53650880Y-161974854D01*
X53605500Y-162020235D01*
X53560119Y-162110997D01*
X53560119Y-162292521D01*
X53605500Y-162383283D01*
X53650880Y-162428664D01*
X53741642Y-162474045D01*
X53968547Y-162474045D01*
X54059309Y-162428664D01*
X54104690Y-162383283D01*
X54150071Y-162292521D01*
X54150071Y-162110997D01*
X54104690Y-162020235D01*
X54059309Y-161974854D01*
X53968547Y-161929473D01*
X56353119Y-161466854D02*
X56353119Y-161920664D01*
X56806928Y-161966045D01*
X56761547Y-161920664D01*
X56716166Y-161829902D01*
X56716166Y-161602997D01*
X56761547Y-161512235D01*
X56806928Y-161466854D01*
X56897690Y-161421473D01*
X57124595Y-161421473D01*
X57215357Y-161466854D01*
X57260738Y-161512235D01*
X57306119Y-161602997D01*
X57306119Y-161829902D01*
X57260738Y-161920664D01*
X57215357Y-161966045D01*
D13*
X2659380Y-201287976D02*
X3373666Y-201287976D01*
X3516523Y-201335595D01*
X3611761Y-201430833D01*
X3659380Y-201573690D01*
X3659380Y-201668928D01*
X3659380Y-200764166D02*
X3659380Y-200573690D01*
X3611761Y-200478452D01*
X3564142Y-200430833D01*
X3421285Y-200335595D01*
X3230809Y-200287976D01*
X2849857Y-200287976D01*
X2754619Y-200335595D01*
X2707000Y-200383214D01*
X2659380Y-200478452D01*
X2659380Y-200668928D01*
X2707000Y-200764166D01*
X2754619Y-200811785D01*
X2849857Y-200859404D01*
X3087952Y-200859404D01*
X3183190Y-200811785D01*
X3230809Y-200764166D01*
X3278428Y-200668928D01*
X3278428Y-200478452D01*
X3230809Y-200383214D01*
X3183190Y-200335595D01*
X3087952Y-200287976D01*
X2659380Y-176287976D02*
X3373666Y-176287976D01*
X3516523Y-176335595D01*
X3611761Y-176430833D01*
X3659380Y-176573690D01*
X3659380Y-176668928D01*
X3087952Y-175668928D02*
X3040333Y-175764166D01*
X2992714Y-175811785D01*
X2897476Y-175859404D01*
X2849857Y-175859404D01*
X2754619Y-175811785D01*
X2707000Y-175764166D01*
X2659380Y-175668928D01*
X2659380Y-175478452D01*
X2707000Y-175383214D01*
X2754619Y-175335595D01*
X2849857Y-175287976D01*
X2897476Y-175287976D01*
X2992714Y-175335595D01*
X3040333Y-175383214D01*
X3087952Y-175478452D01*
X3087952Y-175668928D01*
X3135571Y-175764166D01*
X3183190Y-175811785D01*
X3278428Y-175859404D01*
X3468904Y-175859404D01*
X3564142Y-175811785D01*
X3611761Y-175764166D01*
X3659380Y-175668928D01*
X3659380Y-175478452D01*
X3611761Y-175383214D01*
X3564142Y-175335595D01*
X3468904Y-175287976D01*
X3278428Y-175287976D01*
X3183190Y-175335595D01*
X3135571Y-175383214D01*
X3087952Y-175478452D01*
X2659380Y-151287976D02*
X3373666Y-151287976D01*
X3516523Y-151335595D01*
X3611761Y-151430833D01*
X3659380Y-151573690D01*
X3659380Y-151668928D01*
X2659380Y-150907023D02*
X2659380Y-150240357D01*
X3659380Y-150668928D01*
X2659380Y-126287976D02*
X3373666Y-126287976D01*
X3516523Y-126335595D01*
X3611761Y-126430833D01*
X3659380Y-126573690D01*
X3659380Y-126668928D01*
X2659380Y-125383214D02*
X2659380Y-125573690D01*
X2707000Y-125668928D01*
X2754619Y-125716547D01*
X2897476Y-125811785D01*
X3087952Y-125859404D01*
X3468904Y-125859404D01*
X3564142Y-125811785D01*
X3611761Y-125764166D01*
X3659380Y-125668928D01*
X3659380Y-125478452D01*
X3611761Y-125383214D01*
X3564142Y-125335595D01*
X3468904Y-125287976D01*
X3230809Y-125287976D01*
X3135571Y-125335595D01*
X3087952Y-125383214D01*
X3040333Y-125478452D01*
X3040333Y-125668928D01*
X3087952Y-125764166D01*
X3135571Y-125811785D01*
X3230809Y-125859404D01*
X2659380Y-101287976D02*
X3373666Y-101287976D01*
X3516523Y-101335595D01*
X3611761Y-101430833D01*
X3659380Y-101573690D01*
X3659380Y-101668928D01*
X2659380Y-100335595D02*
X2659380Y-100811785D01*
X3135571Y-100859404D01*
X3087952Y-100811785D01*
X3040333Y-100716547D01*
X3040333Y-100478452D01*
X3087952Y-100383214D01*
X3135571Y-100335595D01*
X3230809Y-100287976D01*
X3468904Y-100287976D01*
X3564142Y-100335595D01*
X3611761Y-100383214D01*
X3659380Y-100478452D01*
X3659380Y-100716547D01*
X3611761Y-100811785D01*
X3564142Y-100859404D01*
X2659380Y-76287976D02*
X3373666Y-76287976D01*
X3516523Y-76335595D01*
X3611761Y-76430833D01*
X3659380Y-76573690D01*
X3659380Y-76668928D01*
X2992714Y-75383214D02*
X3659380Y-75383214D01*
X2611761Y-75621309D02*
X3326047Y-75859404D01*
X3326047Y-75240357D01*
X2659380Y-51287976D02*
X3373666Y-51287976D01*
X3516523Y-51335595D01*
X3611761Y-51430833D01*
X3659380Y-51573690D01*
X3659380Y-51668928D01*
X2659380Y-50907023D02*
X2659380Y-50287976D01*
X3040333Y-50621309D01*
X3040333Y-50478452D01*
X3087952Y-50383214D01*
X3135571Y-50335595D01*
X3230809Y-50287976D01*
X3468904Y-50287976D01*
X3564142Y-50335595D01*
X3611761Y-50383214D01*
X3659380Y-50478452D01*
X3659380Y-50764166D01*
X3611761Y-50859404D01*
X3564142Y-50907023D01*
X2659380Y-26287976D02*
X3373666Y-26287976D01*
X3516523Y-26335595D01*
X3611761Y-26430833D01*
X3659380Y-26573690D01*
X3659380Y-26668928D01*
X2754619Y-25859404D02*
X2707000Y-25811785D01*
X2659380Y-25716547D01*
X2659380Y-25478452D01*
X2707000Y-25383214D01*
X2754619Y-25335595D01*
X2849857Y-25287976D01*
X2945095Y-25287976D01*
X3087952Y-25335595D01*
X3659380Y-25907023D01*
X3659380Y-25287976D01*
X2659380Y-1287976D02*
X3373666Y-1287976D01*
X3516523Y-1335595D01*
X3611761Y-1430833D01*
X3659380Y-1573690D01*
X3659380Y-1668928D01*
X3659380Y-287976D02*
X3659380Y-859404D01*
X3659380Y-573690D02*
X2659380Y-573690D01*
X2802238Y-668928D01*
X2897476Y-764166D01*
X2945095Y-859404D01*
X76159380Y-202764166D02*
X75159380Y-202764166D01*
X75159380Y-202526071D01*
X75207000Y-202383214D01*
X75302238Y-202287976D01*
X75397476Y-202240357D01*
X75587952Y-202192738D01*
X75730809Y-202192738D01*
X75921285Y-202240357D01*
X76016523Y-202287976D01*
X76111761Y-202383214D01*
X76159380Y-202526071D01*
X76159380Y-202764166D01*
X76159380Y-201240357D02*
X76159380Y-201811785D01*
X76159380Y-201526071D02*
X75159380Y-201526071D01*
X75302238Y-201621309D01*
X75397476Y-201716547D01*
X75445095Y-201811785D01*
X75159380Y-200907023D02*
X75159380Y-200240357D01*
X76159380Y-200668928D01*
D14*
X74806119Y-208185473D02*
X74806119Y-208730045D01*
X74806119Y-208457759D02*
X73853119Y-208457759D01*
X73989261Y-208548521D01*
X74080023Y-208639283D01*
X74125404Y-208730045D01*
X70990119Y-207768235D02*
X70990119Y-207949759D01*
X71035500Y-208040521D01*
X71080880Y-208085902D01*
X71217023Y-208176664D01*
X71398547Y-208222045D01*
X71761595Y-208222045D01*
X71852357Y-208176664D01*
X71897738Y-208131283D01*
X71943119Y-208040521D01*
X71943119Y-207858997D01*
X71897738Y-207768235D01*
X71852357Y-207722854D01*
X71761595Y-207677473D01*
X71534690Y-207677473D01*
X71443928Y-207722854D01*
X71398547Y-207768235D01*
X71353166Y-207858997D01*
X71353166Y-208040521D01*
X71398547Y-208131283D01*
X71443928Y-208176664D01*
X71534690Y-208222045D01*
X72013119Y-192383283D02*
X72013119Y-192201759D01*
X71967738Y-192110997D01*
X71922357Y-192065616D01*
X71786214Y-191974854D01*
X71604690Y-191929473D01*
X71241642Y-191929473D01*
X71150880Y-191974854D01*
X71105500Y-192020235D01*
X71060119Y-192110997D01*
X71060119Y-192292521D01*
X71105500Y-192383283D01*
X71150880Y-192428664D01*
X71241642Y-192474045D01*
X71468547Y-192474045D01*
X71559309Y-192428664D01*
X71604690Y-192383283D01*
X71650071Y-192292521D01*
X71650071Y-192110997D01*
X71604690Y-192020235D01*
X71559309Y-191974854D01*
X71468547Y-191929473D01*
X73853119Y-191466854D02*
X73853119Y-191920664D01*
X74306928Y-191966045D01*
X74261547Y-191920664D01*
X74216166Y-191829902D01*
X74216166Y-191602997D01*
X74261547Y-191512235D01*
X74306928Y-191466854D01*
X74397690Y-191421473D01*
X74624595Y-191421473D01*
X74715357Y-191466854D01*
X74760738Y-191512235D01*
X74806119Y-191602997D01*
X74806119Y-191829902D01*
X74760738Y-191920664D01*
X74715357Y-191966045D01*
D13*
X93659380Y-172764166D02*
X92659380Y-172764166D01*
X92659380Y-172526071D01*
X92707000Y-172383214D01*
X92802238Y-172287976D01*
X92897476Y-172240357D01*
X93087952Y-172192738D01*
X93230809Y-172192738D01*
X93421285Y-172240357D01*
X93516523Y-172287976D01*
X93611761Y-172383214D01*
X93659380Y-172526071D01*
X93659380Y-172764166D01*
X93659380Y-171240357D02*
X93659380Y-171811785D01*
X93659380Y-171526071D02*
X92659380Y-171526071D01*
X92802238Y-171621309D01*
X92897476Y-171716547D01*
X92945095Y-171811785D01*
X92659380Y-170335595D02*
X92659380Y-170811785D01*
X93135571Y-170859404D01*
X93087952Y-170811785D01*
X93040333Y-170716547D01*
X93040333Y-170478452D01*
X93087952Y-170383214D01*
X93135571Y-170335595D01*
X93230809Y-170287976D01*
X93468904Y-170287976D01*
X93564142Y-170335595D01*
X93611761Y-170383214D01*
X93659380Y-170478452D01*
X93659380Y-170716547D01*
X93611761Y-170811785D01*
X93564142Y-170859404D01*
D14*
X92306119Y-178185473D02*
X92306119Y-178730045D01*
X92306119Y-178457759D02*
X91353119Y-178457759D01*
X91489261Y-178548521D01*
X91580023Y-178639283D01*
X91625404Y-178730045D01*
X88490119Y-177768235D02*
X88490119Y-177949759D01*
X88535500Y-178040521D01*
X88580880Y-178085902D01*
X88717023Y-178176664D01*
X88898547Y-178222045D01*
X89261595Y-178222045D01*
X89352357Y-178176664D01*
X89397738Y-178131283D01*
X89443119Y-178040521D01*
X89443119Y-177858997D01*
X89397738Y-177768235D01*
X89352357Y-177722854D01*
X89261595Y-177677473D01*
X89034690Y-177677473D01*
X88943928Y-177722854D01*
X88898547Y-177768235D01*
X88853166Y-177858997D01*
X88853166Y-178040521D01*
X88898547Y-178131283D01*
X88943928Y-178176664D01*
X89034690Y-178222045D01*
X89513119Y-162383283D02*
X89513119Y-162201759D01*
X89467738Y-162110997D01*
X89422357Y-162065616D01*
X89286214Y-161974854D01*
X89104690Y-161929473D01*
X88741642Y-161929473D01*
X88650880Y-161974854D01*
X88605500Y-162020235D01*
X88560119Y-162110997D01*
X88560119Y-162292521D01*
X88605500Y-162383283D01*
X88650880Y-162428664D01*
X88741642Y-162474045D01*
X88968547Y-162474045D01*
X89059309Y-162428664D01*
X89104690Y-162383283D01*
X89150071Y-162292521D01*
X89150071Y-162110997D01*
X89104690Y-162020235D01*
X89059309Y-161974854D01*
X88968547Y-161929473D01*
X91353119Y-161466854D02*
X91353119Y-161920664D01*
X91806928Y-161966045D01*
X91761547Y-161920664D01*
X91716166Y-161829902D01*
X91716166Y-161602997D01*
X91761547Y-161512235D01*
X91806928Y-161466854D01*
X91897690Y-161421473D01*
X92124595Y-161421473D01*
X92215357Y-161466854D01*
X92260738Y-161512235D01*
X92306119Y-161602997D01*
X92306119Y-161829902D01*
X92260738Y-161920664D01*
X92215357Y-161966045D01*
D13*
X23659380Y-172764166D02*
X22659380Y-172764166D01*
X22659380Y-172526071D01*
X22707000Y-172383214D01*
X22802238Y-172287976D01*
X22897476Y-172240357D01*
X23087952Y-172192738D01*
X23230809Y-172192738D01*
X23421285Y-172240357D01*
X23516523Y-172287976D01*
X23611761Y-172383214D01*
X23659380Y-172526071D01*
X23659380Y-172764166D01*
X23659380Y-171240357D02*
X23659380Y-171811785D01*
X23659380Y-171526071D02*
X22659380Y-171526071D01*
X22802238Y-171621309D01*
X22897476Y-171716547D01*
X22945095Y-171811785D01*
X22659380Y-170907023D02*
X22659380Y-170287976D01*
X23040333Y-170621309D01*
X23040333Y-170478452D01*
X23087952Y-170383214D01*
X23135571Y-170335595D01*
X23230809Y-170287976D01*
X23468904Y-170287976D01*
X23564142Y-170335595D01*
X23611761Y-170383214D01*
X23659380Y-170478452D01*
X23659380Y-170764166D01*
X23611761Y-170859404D01*
X23564142Y-170907023D01*
D14*
X22306119Y-178185473D02*
X22306119Y-178730045D01*
X22306119Y-178457759D02*
X21353119Y-178457759D01*
X21489261Y-178548521D01*
X21580023Y-178639283D01*
X21625404Y-178730045D01*
X18490119Y-177768235D02*
X18490119Y-177949759D01*
X18535500Y-178040521D01*
X18580880Y-178085902D01*
X18717023Y-178176664D01*
X18898547Y-178222045D01*
X19261595Y-178222045D01*
X19352357Y-178176664D01*
X19397738Y-178131283D01*
X19443119Y-178040521D01*
X19443119Y-177858997D01*
X19397738Y-177768235D01*
X19352357Y-177722854D01*
X19261595Y-177677473D01*
X19034690Y-177677473D01*
X18943928Y-177722854D01*
X18898547Y-177768235D01*
X18853166Y-177858997D01*
X18853166Y-178040521D01*
X18898547Y-178131283D01*
X18943928Y-178176664D01*
X19034690Y-178222045D01*
X19513119Y-162383283D02*
X19513119Y-162201759D01*
X19467738Y-162110997D01*
X19422357Y-162065616D01*
X19286214Y-161974854D01*
X19104690Y-161929473D01*
X18741642Y-161929473D01*
X18650880Y-161974854D01*
X18605500Y-162020235D01*
X18560119Y-162110997D01*
X18560119Y-162292521D01*
X18605500Y-162383283D01*
X18650880Y-162428664D01*
X18741642Y-162474045D01*
X18968547Y-162474045D01*
X19059309Y-162428664D01*
X19104690Y-162383283D01*
X19150071Y-162292521D01*
X19150071Y-162110997D01*
X19104690Y-162020235D01*
X19059309Y-161974854D01*
X18968547Y-161929473D01*
X21353119Y-161466854D02*
X21353119Y-161920664D01*
X21806928Y-161966045D01*
X21761547Y-161920664D01*
X21716166Y-161829902D01*
X21716166Y-161602997D01*
X21761547Y-161512235D01*
X21806928Y-161466854D01*
X21897690Y-161421473D01*
X22124595Y-161421473D01*
X22215357Y-161466854D01*
X22260738Y-161512235D01*
X22306119Y-161602997D01*
X22306119Y-161829902D01*
X22260738Y-161920664D01*
X22215357Y-161966045D01*
D13*
X93659380Y-137764166D02*
X92659380Y-137764166D01*
X92659380Y-137526071D01*
X92707000Y-137383214D01*
X92802238Y-137287976D01*
X92897476Y-137240357D01*
X93087952Y-137192738D01*
X93230809Y-137192738D01*
X93421285Y-137240357D01*
X93516523Y-137287976D01*
X93611761Y-137383214D01*
X93659380Y-137526071D01*
X93659380Y-137764166D01*
X93659380Y-136240357D02*
X93659380Y-136811785D01*
X93659380Y-136526071D02*
X92659380Y-136526071D01*
X92802238Y-136621309D01*
X92897476Y-136716547D01*
X92945095Y-136811785D01*
X92754619Y-135859404D02*
X92707000Y-135811785D01*
X92659380Y-135716547D01*
X92659380Y-135478452D01*
X92707000Y-135383214D01*
X92754619Y-135335595D01*
X92849857Y-135287976D01*
X92945095Y-135287976D01*
X93087952Y-135335595D01*
X93659380Y-135907023D01*
X93659380Y-135287976D01*
D14*
X92306119Y-143185473D02*
X92306119Y-143730045D01*
X92306119Y-143457759D02*
X91353119Y-143457759D01*
X91489261Y-143548521D01*
X91580023Y-143639283D01*
X91625404Y-143730045D01*
X88490119Y-142768235D02*
X88490119Y-142949759D01*
X88535500Y-143040521D01*
X88580880Y-143085902D01*
X88717023Y-143176664D01*
X88898547Y-143222045D01*
X89261595Y-143222045D01*
X89352357Y-143176664D01*
X89397738Y-143131283D01*
X89443119Y-143040521D01*
X89443119Y-142858997D01*
X89397738Y-142768235D01*
X89352357Y-142722854D01*
X89261595Y-142677473D01*
X89034690Y-142677473D01*
X88943928Y-142722854D01*
X88898547Y-142768235D01*
X88853166Y-142858997D01*
X88853166Y-143040521D01*
X88898547Y-143131283D01*
X88943928Y-143176664D01*
X89034690Y-143222045D01*
X89513119Y-127383283D02*
X89513119Y-127201759D01*
X89467738Y-127110997D01*
X89422357Y-127065616D01*
X89286214Y-126974854D01*
X89104690Y-126929473D01*
X88741642Y-126929473D01*
X88650880Y-126974854D01*
X88605500Y-127020235D01*
X88560119Y-127110997D01*
X88560119Y-127292521D01*
X88605500Y-127383283D01*
X88650880Y-127428664D01*
X88741642Y-127474045D01*
X88968547Y-127474045D01*
X89059309Y-127428664D01*
X89104690Y-127383283D01*
X89150071Y-127292521D01*
X89150071Y-127110997D01*
X89104690Y-127020235D01*
X89059309Y-126974854D01*
X88968547Y-126929473D01*
X91353119Y-126466854D02*
X91353119Y-126920664D01*
X91806928Y-126966045D01*
X91761547Y-126920664D01*
X91716166Y-126829902D01*
X91716166Y-126602997D01*
X91761547Y-126512235D01*
X91806928Y-126466854D01*
X91897690Y-126421473D01*
X92124595Y-126421473D01*
X92215357Y-126466854D01*
X92260738Y-126512235D01*
X92306119Y-126602997D01*
X92306119Y-126829902D01*
X92260738Y-126920664D01*
X92215357Y-126966045D01*
D13*
X58659380Y-137764166D02*
X57659380Y-137764166D01*
X57659380Y-137526071D01*
X57707000Y-137383214D01*
X57802238Y-137287976D01*
X57897476Y-137240357D01*
X58087952Y-137192738D01*
X58230809Y-137192738D01*
X58421285Y-137240357D01*
X58516523Y-137287976D01*
X58611761Y-137383214D01*
X58659380Y-137526071D01*
X58659380Y-137764166D01*
X58659380Y-136240357D02*
X58659380Y-136811785D01*
X58659380Y-136526071D02*
X57659380Y-136526071D01*
X57802238Y-136621309D01*
X57897476Y-136716547D01*
X57945095Y-136811785D01*
X58659380Y-135287976D02*
X58659380Y-135859404D01*
X58659380Y-135573690D02*
X57659380Y-135573690D01*
X57802238Y-135668928D01*
X57897476Y-135764166D01*
X57945095Y-135859404D01*
D14*
X57306119Y-143185473D02*
X57306119Y-143730045D01*
X57306119Y-143457759D02*
X56353119Y-143457759D01*
X56489261Y-143548521D01*
X56580023Y-143639283D01*
X56625404Y-143730045D01*
X53490119Y-142768235D02*
X53490119Y-142949759D01*
X53535500Y-143040521D01*
X53580880Y-143085902D01*
X53717023Y-143176664D01*
X53898547Y-143222045D01*
X54261595Y-143222045D01*
X54352357Y-143176664D01*
X54397738Y-143131283D01*
X54443119Y-143040521D01*
X54443119Y-142858997D01*
X54397738Y-142768235D01*
X54352357Y-142722854D01*
X54261595Y-142677473D01*
X54034690Y-142677473D01*
X53943928Y-142722854D01*
X53898547Y-142768235D01*
X53853166Y-142858997D01*
X53853166Y-143040521D01*
X53898547Y-143131283D01*
X53943928Y-143176664D01*
X54034690Y-143222045D01*
X54513119Y-127383283D02*
X54513119Y-127201759D01*
X54467738Y-127110997D01*
X54422357Y-127065616D01*
X54286214Y-126974854D01*
X54104690Y-126929473D01*
X53741642Y-126929473D01*
X53650880Y-126974854D01*
X53605500Y-127020235D01*
X53560119Y-127110997D01*
X53560119Y-127292521D01*
X53605500Y-127383283D01*
X53650880Y-127428664D01*
X53741642Y-127474045D01*
X53968547Y-127474045D01*
X54059309Y-127428664D01*
X54104690Y-127383283D01*
X54150071Y-127292521D01*
X54150071Y-127110997D01*
X54104690Y-127020235D01*
X54059309Y-126974854D01*
X53968547Y-126929473D01*
X56353119Y-126466854D02*
X56353119Y-126920664D01*
X56806928Y-126966045D01*
X56761547Y-126920664D01*
X56716166Y-126829902D01*
X56716166Y-126602997D01*
X56761547Y-126512235D01*
X56806928Y-126466854D01*
X56897690Y-126421473D01*
X57124595Y-126421473D01*
X57215357Y-126466854D01*
X57260738Y-126512235D01*
X57306119Y-126602997D01*
X57306119Y-126829902D01*
X57260738Y-126920664D01*
X57215357Y-126966045D01*
D13*
X23659380Y-137764166D02*
X22659380Y-137764166D01*
X22659380Y-137526071D01*
X22707000Y-137383214D01*
X22802238Y-137287976D01*
X22897476Y-137240357D01*
X23087952Y-137192738D01*
X23230809Y-137192738D01*
X23421285Y-137240357D01*
X23516523Y-137287976D01*
X23611761Y-137383214D01*
X23659380Y-137526071D01*
X23659380Y-137764166D01*
X23659380Y-136240357D02*
X23659380Y-136811785D01*
X23659380Y-136526071D02*
X22659380Y-136526071D01*
X22802238Y-136621309D01*
X22897476Y-136716547D01*
X22945095Y-136811785D01*
X22659380Y-135621309D02*
X22659380Y-135526071D01*
X22707000Y-135430833D01*
X22754619Y-135383214D01*
X22849857Y-135335595D01*
X23040333Y-135287976D01*
X23278428Y-135287976D01*
X23468904Y-135335595D01*
X23564142Y-135383214D01*
X23611761Y-135430833D01*
X23659380Y-135526071D01*
X23659380Y-135621309D01*
X23611761Y-135716547D01*
X23564142Y-135764166D01*
X23468904Y-135811785D01*
X23278428Y-135859404D01*
X23040333Y-135859404D01*
X22849857Y-135811785D01*
X22754619Y-135764166D01*
X22707000Y-135716547D01*
X22659380Y-135621309D01*
D14*
X22306119Y-143185473D02*
X22306119Y-143730045D01*
X22306119Y-143457759D02*
X21353119Y-143457759D01*
X21489261Y-143548521D01*
X21580023Y-143639283D01*
X21625404Y-143730045D01*
X18490119Y-142768235D02*
X18490119Y-142949759D01*
X18535500Y-143040521D01*
X18580880Y-143085902D01*
X18717023Y-143176664D01*
X18898547Y-143222045D01*
X19261595Y-143222045D01*
X19352357Y-143176664D01*
X19397738Y-143131283D01*
X19443119Y-143040521D01*
X19443119Y-142858997D01*
X19397738Y-142768235D01*
X19352357Y-142722854D01*
X19261595Y-142677473D01*
X19034690Y-142677473D01*
X18943928Y-142722854D01*
X18898547Y-142768235D01*
X18853166Y-142858997D01*
X18853166Y-143040521D01*
X18898547Y-143131283D01*
X18943928Y-143176664D01*
X19034690Y-143222045D01*
X19513119Y-127383283D02*
X19513119Y-127201759D01*
X19467738Y-127110997D01*
X19422357Y-127065616D01*
X19286214Y-126974854D01*
X19104690Y-126929473D01*
X18741642Y-126929473D01*
X18650880Y-126974854D01*
X18605500Y-127020235D01*
X18560119Y-127110997D01*
X18560119Y-127292521D01*
X18605500Y-127383283D01*
X18650880Y-127428664D01*
X18741642Y-127474045D01*
X18968547Y-127474045D01*
X19059309Y-127428664D01*
X19104690Y-127383283D01*
X19150071Y-127292521D01*
X19150071Y-127110997D01*
X19104690Y-127020235D01*
X19059309Y-126974854D01*
X18968547Y-126929473D01*
X21353119Y-126466854D02*
X21353119Y-126920664D01*
X21806928Y-126966045D01*
X21761547Y-126920664D01*
X21716166Y-126829902D01*
X21716166Y-126602997D01*
X21761547Y-126512235D01*
X21806928Y-126466854D01*
X21897690Y-126421473D01*
X22124595Y-126421473D01*
X22215357Y-126466854D01*
X22260738Y-126512235D01*
X22306119Y-126602997D01*
X22306119Y-126829902D01*
X22260738Y-126920664D01*
X22215357Y-126966045D01*
D13*
X93659380Y-101811785D02*
X92659380Y-101811785D01*
X92659380Y-101573690D01*
X92707000Y-101430833D01*
X92802238Y-101335595D01*
X92897476Y-101287976D01*
X93087952Y-101240357D01*
X93230809Y-101240357D01*
X93421285Y-101287976D01*
X93516523Y-101335595D01*
X93611761Y-101430833D01*
X93659380Y-101573690D01*
X93659380Y-101811785D01*
X93659380Y-100764166D02*
X93659380Y-100573690D01*
X93611761Y-100478452D01*
X93564142Y-100430833D01*
X93421285Y-100335595D01*
X93230809Y-100287976D01*
X92849857Y-100287976D01*
X92754619Y-100335595D01*
X92707000Y-100383214D01*
X92659380Y-100478452D01*
X92659380Y-100668928D01*
X92707000Y-100764166D01*
X92754619Y-100811785D01*
X92849857Y-100859404D01*
X93087952Y-100859404D01*
X93183190Y-100811785D01*
X93230809Y-100764166D01*
X93278428Y-100668928D01*
X93278428Y-100478452D01*
X93230809Y-100383214D01*
X93183190Y-100335595D01*
X93087952Y-100287976D01*
D14*
X92306119Y-108185473D02*
X92306119Y-108730045D01*
X92306119Y-108457759D02*
X91353119Y-108457759D01*
X91489261Y-108548521D01*
X91580023Y-108639283D01*
X91625404Y-108730045D01*
X88490119Y-107768235D02*
X88490119Y-107949759D01*
X88535500Y-108040521D01*
X88580880Y-108085902D01*
X88717023Y-108176664D01*
X88898547Y-108222045D01*
X89261595Y-108222045D01*
X89352357Y-108176664D01*
X89397738Y-108131283D01*
X89443119Y-108040521D01*
X89443119Y-107858997D01*
X89397738Y-107768235D01*
X89352357Y-107722854D01*
X89261595Y-107677473D01*
X89034690Y-107677473D01*
X88943928Y-107722854D01*
X88898547Y-107768235D01*
X88853166Y-107858997D01*
X88853166Y-108040521D01*
X88898547Y-108131283D01*
X88943928Y-108176664D01*
X89034690Y-108222045D01*
X89513119Y-92383283D02*
X89513119Y-92201759D01*
X89467738Y-92110997D01*
X89422357Y-92065616D01*
X89286214Y-91974854D01*
X89104690Y-91929473D01*
X88741642Y-91929473D01*
X88650880Y-91974854D01*
X88605500Y-92020235D01*
X88560119Y-92110997D01*
X88560119Y-92292521D01*
X88605500Y-92383283D01*
X88650880Y-92428664D01*
X88741642Y-92474045D01*
X88968547Y-92474045D01*
X89059309Y-92428664D01*
X89104690Y-92383283D01*
X89150071Y-92292521D01*
X89150071Y-92110997D01*
X89104690Y-92020235D01*
X89059309Y-91974854D01*
X88968547Y-91929473D01*
X91353119Y-91466854D02*
X91353119Y-91920664D01*
X91806928Y-91966045D01*
X91761547Y-91920664D01*
X91716166Y-91829902D01*
X91716166Y-91602997D01*
X91761547Y-91512235D01*
X91806928Y-91466854D01*
X91897690Y-91421473D01*
X92124595Y-91421473D01*
X92215357Y-91466854D01*
X92260738Y-91512235D01*
X92306119Y-91602997D01*
X92306119Y-91829902D01*
X92260738Y-91920664D01*
X92215357Y-91966045D01*
D13*
X58659380Y-101811785D02*
X57659380Y-101811785D01*
X57659380Y-101573690D01*
X57707000Y-101430833D01*
X57802238Y-101335595D01*
X57897476Y-101287976D01*
X58087952Y-101240357D01*
X58230809Y-101240357D01*
X58421285Y-101287976D01*
X58516523Y-101335595D01*
X58611761Y-101430833D01*
X58659380Y-101573690D01*
X58659380Y-101811785D01*
X58087952Y-100668928D02*
X58040333Y-100764166D01*
X57992714Y-100811785D01*
X57897476Y-100859404D01*
X57849857Y-100859404D01*
X57754619Y-100811785D01*
X57707000Y-100764166D01*
X57659380Y-100668928D01*
X57659380Y-100478452D01*
X57707000Y-100383214D01*
X57754619Y-100335595D01*
X57849857Y-100287976D01*
X57897476Y-100287976D01*
X57992714Y-100335595D01*
X58040333Y-100383214D01*
X58087952Y-100478452D01*
X58087952Y-100668928D01*
X58135571Y-100764166D01*
X58183190Y-100811785D01*
X58278428Y-100859404D01*
X58468904Y-100859404D01*
X58564142Y-100811785D01*
X58611761Y-100764166D01*
X58659380Y-100668928D01*
X58659380Y-100478452D01*
X58611761Y-100383214D01*
X58564142Y-100335595D01*
X58468904Y-100287976D01*
X58278428Y-100287976D01*
X58183190Y-100335595D01*
X58135571Y-100383214D01*
X58087952Y-100478452D01*
D14*
X57306119Y-108185473D02*
X57306119Y-108730045D01*
X57306119Y-108457759D02*
X56353119Y-108457759D01*
X56489261Y-108548521D01*
X56580023Y-108639283D01*
X56625404Y-108730045D01*
X53490119Y-107768235D02*
X53490119Y-107949759D01*
X53535500Y-108040521D01*
X53580880Y-108085902D01*
X53717023Y-108176664D01*
X53898547Y-108222045D01*
X54261595Y-108222045D01*
X54352357Y-108176664D01*
X54397738Y-108131283D01*
X54443119Y-108040521D01*
X54443119Y-107858997D01*
X54397738Y-107768235D01*
X54352357Y-107722854D01*
X54261595Y-107677473D01*
X54034690Y-107677473D01*
X53943928Y-107722854D01*
X53898547Y-107768235D01*
X53853166Y-107858997D01*
X53853166Y-108040521D01*
X53898547Y-108131283D01*
X53943928Y-108176664D01*
X54034690Y-108222045D01*
X54513119Y-92383283D02*
X54513119Y-92201759D01*
X54467738Y-92110997D01*
X54422357Y-92065616D01*
X54286214Y-91974854D01*
X54104690Y-91929473D01*
X53741642Y-91929473D01*
X53650880Y-91974854D01*
X53605500Y-92020235D01*
X53560119Y-92110997D01*
X53560119Y-92292521D01*
X53605500Y-92383283D01*
X53650880Y-92428664D01*
X53741642Y-92474045D01*
X53968547Y-92474045D01*
X54059309Y-92428664D01*
X54104690Y-92383283D01*
X54150071Y-92292521D01*
X54150071Y-92110997D01*
X54104690Y-92020235D01*
X54059309Y-91974854D01*
X53968547Y-91929473D01*
X56353119Y-91466854D02*
X56353119Y-91920664D01*
X56806928Y-91966045D01*
X56761547Y-91920664D01*
X56716166Y-91829902D01*
X56716166Y-91602997D01*
X56761547Y-91512235D01*
X56806928Y-91466854D01*
X56897690Y-91421473D01*
X57124595Y-91421473D01*
X57215357Y-91466854D01*
X57260738Y-91512235D01*
X57306119Y-91602997D01*
X57306119Y-91829902D01*
X57260738Y-91920664D01*
X57215357Y-91966045D01*
D13*
X23659380Y-101811785D02*
X22659380Y-101811785D01*
X22659380Y-101573690D01*
X22707000Y-101430833D01*
X22802238Y-101335595D01*
X22897476Y-101287976D01*
X23087952Y-101240357D01*
X23230809Y-101240357D01*
X23421285Y-101287976D01*
X23516523Y-101335595D01*
X23611761Y-101430833D01*
X23659380Y-101573690D01*
X23659380Y-101811785D01*
X22659380Y-100907023D02*
X22659380Y-100240357D01*
X23659380Y-100668928D01*
D14*
X22306119Y-108185473D02*
X22306119Y-108730045D01*
X22306119Y-108457759D02*
X21353119Y-108457759D01*
X21489261Y-108548521D01*
X21580023Y-108639283D01*
X21625404Y-108730045D01*
X18490119Y-107768235D02*
X18490119Y-107949759D01*
X18535500Y-108040521D01*
X18580880Y-108085902D01*
X18717023Y-108176664D01*
X18898547Y-108222045D01*
X19261595Y-108222045D01*
X19352357Y-108176664D01*
X19397738Y-108131283D01*
X19443119Y-108040521D01*
X19443119Y-107858997D01*
X19397738Y-107768235D01*
X19352357Y-107722854D01*
X19261595Y-107677473D01*
X19034690Y-107677473D01*
X18943928Y-107722854D01*
X18898547Y-107768235D01*
X18853166Y-107858997D01*
X18853166Y-108040521D01*
X18898547Y-108131283D01*
X18943928Y-108176664D01*
X19034690Y-108222045D01*
X19513119Y-92383283D02*
X19513119Y-92201759D01*
X19467738Y-92110997D01*
X19422357Y-92065616D01*
X19286214Y-91974854D01*
X19104690Y-91929473D01*
X18741642Y-91929473D01*
X18650880Y-91974854D01*
X18605500Y-92020235D01*
X18560119Y-92110997D01*
X18560119Y-92292521D01*
X18605500Y-92383283D01*
X18650880Y-92428664D01*
X18741642Y-92474045D01*
X18968547Y-92474045D01*
X19059309Y-92428664D01*
X19104690Y-92383283D01*
X19150071Y-92292521D01*
X19150071Y-92110997D01*
X19104690Y-92020235D01*
X19059309Y-91974854D01*
X18968547Y-91929473D01*
X21353119Y-91466854D02*
X21353119Y-91920664D01*
X21806928Y-91966045D01*
X21761547Y-91920664D01*
X21716166Y-91829902D01*
X21716166Y-91602997D01*
X21761547Y-91512235D01*
X21806928Y-91466854D01*
X21897690Y-91421473D01*
X22124595Y-91421473D01*
X22215357Y-91466854D01*
X22260738Y-91512235D01*
X22306119Y-91602997D01*
X22306119Y-91829902D01*
X22260738Y-91920664D01*
X22215357Y-91966045D01*
D13*
X93659380Y-66811785D02*
X92659380Y-66811785D01*
X92659380Y-66573690D01*
X92707000Y-66430833D01*
X92802238Y-66335595D01*
X92897476Y-66287976D01*
X93087952Y-66240357D01*
X93230809Y-66240357D01*
X93421285Y-66287976D01*
X93516523Y-66335595D01*
X93611761Y-66430833D01*
X93659380Y-66573690D01*
X93659380Y-66811785D01*
X92659380Y-65383214D02*
X92659380Y-65573690D01*
X92707000Y-65668928D01*
X92754619Y-65716547D01*
X92897476Y-65811785D01*
X93087952Y-65859404D01*
X93468904Y-65859404D01*
X93564142Y-65811785D01*
X93611761Y-65764166D01*
X93659380Y-65668928D01*
X93659380Y-65478452D01*
X93611761Y-65383214D01*
X93564142Y-65335595D01*
X93468904Y-65287976D01*
X93230809Y-65287976D01*
X93135571Y-65335595D01*
X93087952Y-65383214D01*
X93040333Y-65478452D01*
X93040333Y-65668928D01*
X93087952Y-65764166D01*
X93135571Y-65811785D01*
X93230809Y-65859404D01*
D14*
X92306119Y-73185473D02*
X92306119Y-73730045D01*
X92306119Y-73457759D02*
X91353119Y-73457759D01*
X91489261Y-73548521D01*
X91580023Y-73639283D01*
X91625404Y-73730045D01*
X88490119Y-72768235D02*
X88490119Y-72949759D01*
X88535500Y-73040521D01*
X88580880Y-73085902D01*
X88717023Y-73176664D01*
X88898547Y-73222045D01*
X89261595Y-73222045D01*
X89352357Y-73176664D01*
X89397738Y-73131283D01*
X89443119Y-73040521D01*
X89443119Y-72858997D01*
X89397738Y-72768235D01*
X89352357Y-72722854D01*
X89261595Y-72677473D01*
X89034690Y-72677473D01*
X88943928Y-72722854D01*
X88898547Y-72768235D01*
X88853166Y-72858997D01*
X88853166Y-73040521D01*
X88898547Y-73131283D01*
X88943928Y-73176664D01*
X89034690Y-73222045D01*
X89513119Y-57383283D02*
X89513119Y-57201759D01*
X89467738Y-57110997D01*
X89422357Y-57065616D01*
X89286214Y-56974854D01*
X89104690Y-56929473D01*
X88741642Y-56929473D01*
X88650880Y-56974854D01*
X88605500Y-57020235D01*
X88560119Y-57110997D01*
X88560119Y-57292521D01*
X88605500Y-57383283D01*
X88650880Y-57428664D01*
X88741642Y-57474045D01*
X88968547Y-57474045D01*
X89059309Y-57428664D01*
X89104690Y-57383283D01*
X89150071Y-57292521D01*
X89150071Y-57110997D01*
X89104690Y-57020235D01*
X89059309Y-56974854D01*
X88968547Y-56929473D01*
X91353119Y-56466854D02*
X91353119Y-56920664D01*
X91806928Y-56966045D01*
X91761547Y-56920664D01*
X91716166Y-56829902D01*
X91716166Y-56602997D01*
X91761547Y-56512235D01*
X91806928Y-56466854D01*
X91897690Y-56421473D01*
X92124595Y-56421473D01*
X92215357Y-56466854D01*
X92260738Y-56512235D01*
X92306119Y-56602997D01*
X92306119Y-56829902D01*
X92260738Y-56920664D01*
X92215357Y-56966045D01*
D13*
X58659380Y-66811785D02*
X57659380Y-66811785D01*
X57659380Y-66573690D01*
X57707000Y-66430833D01*
X57802238Y-66335595D01*
X57897476Y-66287976D01*
X58087952Y-66240357D01*
X58230809Y-66240357D01*
X58421285Y-66287976D01*
X58516523Y-66335595D01*
X58611761Y-66430833D01*
X58659380Y-66573690D01*
X58659380Y-66811785D01*
X57659380Y-65335595D02*
X57659380Y-65811785D01*
X58135571Y-65859404D01*
X58087952Y-65811785D01*
X58040333Y-65716547D01*
X58040333Y-65478452D01*
X58087952Y-65383214D01*
X58135571Y-65335595D01*
X58230809Y-65287976D01*
X58468904Y-65287976D01*
X58564142Y-65335595D01*
X58611761Y-65383214D01*
X58659380Y-65478452D01*
X58659380Y-65716547D01*
X58611761Y-65811785D01*
X58564142Y-65859404D01*
D14*
X57306119Y-73185473D02*
X57306119Y-73730045D01*
X57306119Y-73457759D02*
X56353119Y-73457759D01*
X56489261Y-73548521D01*
X56580023Y-73639283D01*
X56625404Y-73730045D01*
X53490119Y-72768235D02*
X53490119Y-72949759D01*
X53535500Y-73040521D01*
X53580880Y-73085902D01*
X53717023Y-73176664D01*
X53898547Y-73222045D01*
X54261595Y-73222045D01*
X54352357Y-73176664D01*
X54397738Y-73131283D01*
X54443119Y-73040521D01*
X54443119Y-72858997D01*
X54397738Y-72768235D01*
X54352357Y-72722854D01*
X54261595Y-72677473D01*
X54034690Y-72677473D01*
X53943928Y-72722854D01*
X53898547Y-72768235D01*
X53853166Y-72858997D01*
X53853166Y-73040521D01*
X53898547Y-73131283D01*
X53943928Y-73176664D01*
X54034690Y-73222045D01*
X54513119Y-57383283D02*
X54513119Y-57201759D01*
X54467738Y-57110997D01*
X54422357Y-57065616D01*
X54286214Y-56974854D01*
X54104690Y-56929473D01*
X53741642Y-56929473D01*
X53650880Y-56974854D01*
X53605500Y-57020235D01*
X53560119Y-57110997D01*
X53560119Y-57292521D01*
X53605500Y-57383283D01*
X53650880Y-57428664D01*
X53741642Y-57474045D01*
X53968547Y-57474045D01*
X54059309Y-57428664D01*
X54104690Y-57383283D01*
X54150071Y-57292521D01*
X54150071Y-57110997D01*
X54104690Y-57020235D01*
X54059309Y-56974854D01*
X53968547Y-56929473D01*
X56353119Y-56466854D02*
X56353119Y-56920664D01*
X56806928Y-56966045D01*
X56761547Y-56920664D01*
X56716166Y-56829902D01*
X56716166Y-56602997D01*
X56761547Y-56512235D01*
X56806928Y-56466854D01*
X56897690Y-56421473D01*
X57124595Y-56421473D01*
X57215357Y-56466854D01*
X57260738Y-56512235D01*
X57306119Y-56602997D01*
X57306119Y-56829902D01*
X57260738Y-56920664D01*
X57215357Y-56966045D01*
D13*
X23659380Y-66811785D02*
X22659380Y-66811785D01*
X22659380Y-66573690D01*
X22707000Y-66430833D01*
X22802238Y-66335595D01*
X22897476Y-66287976D01*
X23087952Y-66240357D01*
X23230809Y-66240357D01*
X23421285Y-66287976D01*
X23516523Y-66335595D01*
X23611761Y-66430833D01*
X23659380Y-66573690D01*
X23659380Y-66811785D01*
X22992714Y-65383214D02*
X23659380Y-65383214D01*
X22611761Y-65621309D02*
X23326047Y-65859404D01*
X23326047Y-65240357D01*
D14*
X22306119Y-73185473D02*
X22306119Y-73730045D01*
X22306119Y-73457759D02*
X21353119Y-73457759D01*
X21489261Y-73548521D01*
X21580023Y-73639283D01*
X21625404Y-73730045D01*
X18490119Y-72768235D02*
X18490119Y-72949759D01*
X18535500Y-73040521D01*
X18580880Y-73085902D01*
X18717023Y-73176664D01*
X18898547Y-73222045D01*
X19261595Y-73222045D01*
X19352357Y-73176664D01*
X19397738Y-73131283D01*
X19443119Y-73040521D01*
X19443119Y-72858997D01*
X19397738Y-72768235D01*
X19352357Y-72722854D01*
X19261595Y-72677473D01*
X19034690Y-72677473D01*
X18943928Y-72722854D01*
X18898547Y-72768235D01*
X18853166Y-72858997D01*
X18853166Y-73040521D01*
X18898547Y-73131283D01*
X18943928Y-73176664D01*
X19034690Y-73222045D01*
X19513119Y-57383283D02*
X19513119Y-57201759D01*
X19467738Y-57110997D01*
X19422357Y-57065616D01*
X19286214Y-56974854D01*
X19104690Y-56929473D01*
X18741642Y-56929473D01*
X18650880Y-56974854D01*
X18605500Y-57020235D01*
X18560119Y-57110997D01*
X18560119Y-57292521D01*
X18605500Y-57383283D01*
X18650880Y-57428664D01*
X18741642Y-57474045D01*
X18968547Y-57474045D01*
X19059309Y-57428664D01*
X19104690Y-57383283D01*
X19150071Y-57292521D01*
X19150071Y-57110997D01*
X19104690Y-57020235D01*
X19059309Y-56974854D01*
X18968547Y-56929473D01*
X21353119Y-56466854D02*
X21353119Y-56920664D01*
X21806928Y-56966045D01*
X21761547Y-56920664D01*
X21716166Y-56829902D01*
X21716166Y-56602997D01*
X21761547Y-56512235D01*
X21806928Y-56466854D01*
X21897690Y-56421473D01*
X22124595Y-56421473D01*
X22215357Y-56466854D01*
X22260738Y-56512235D01*
X22306119Y-56602997D01*
X22306119Y-56829902D01*
X22260738Y-56920664D01*
X22215357Y-56966045D01*
D13*
X93659380Y-31811785D02*
X92659380Y-31811785D01*
X92659380Y-31573690D01*
X92707000Y-31430833D01*
X92802238Y-31335595D01*
X92897476Y-31287976D01*
X93087952Y-31240357D01*
X93230809Y-31240357D01*
X93421285Y-31287976D01*
X93516523Y-31335595D01*
X93611761Y-31430833D01*
X93659380Y-31573690D01*
X93659380Y-31811785D01*
X92659380Y-30907023D02*
X92659380Y-30287976D01*
X93040333Y-30621309D01*
X93040333Y-30478452D01*
X93087952Y-30383214D01*
X93135571Y-30335595D01*
X93230809Y-30287976D01*
X93468904Y-30287976D01*
X93564142Y-30335595D01*
X93611761Y-30383214D01*
X93659380Y-30478452D01*
X93659380Y-30764166D01*
X93611761Y-30859404D01*
X93564142Y-30907023D01*
D14*
X92306119Y-38185473D02*
X92306119Y-38730045D01*
X92306119Y-38457759D02*
X91353119Y-38457759D01*
X91489261Y-38548521D01*
X91580023Y-38639283D01*
X91625404Y-38730045D01*
X88490119Y-37768235D02*
X88490119Y-37949759D01*
X88535500Y-38040521D01*
X88580880Y-38085902D01*
X88717023Y-38176664D01*
X88898547Y-38222045D01*
X89261595Y-38222045D01*
X89352357Y-38176664D01*
X89397738Y-38131283D01*
X89443119Y-38040521D01*
X89443119Y-37858997D01*
X89397738Y-37768235D01*
X89352357Y-37722854D01*
X89261595Y-37677473D01*
X89034690Y-37677473D01*
X88943928Y-37722854D01*
X88898547Y-37768235D01*
X88853166Y-37858997D01*
X88853166Y-38040521D01*
X88898547Y-38131283D01*
X88943928Y-38176664D01*
X89034690Y-38222045D01*
X89513119Y-22383283D02*
X89513119Y-22201759D01*
X89467738Y-22110997D01*
X89422357Y-22065616D01*
X89286214Y-21974854D01*
X89104690Y-21929473D01*
X88741642Y-21929473D01*
X88650880Y-21974854D01*
X88605500Y-22020235D01*
X88560119Y-22110997D01*
X88560119Y-22292521D01*
X88605500Y-22383283D01*
X88650880Y-22428664D01*
X88741642Y-22474045D01*
X88968547Y-22474045D01*
X89059309Y-22428664D01*
X89104690Y-22383283D01*
X89150071Y-22292521D01*
X89150071Y-22110997D01*
X89104690Y-22020235D01*
X89059309Y-21974854D01*
X88968547Y-21929473D01*
X91353119Y-21466854D02*
X91353119Y-21920664D01*
X91806928Y-21966045D01*
X91761547Y-21920664D01*
X91716166Y-21829902D01*
X91716166Y-21602997D01*
X91761547Y-21512235D01*
X91806928Y-21466854D01*
X91897690Y-21421473D01*
X92124595Y-21421473D01*
X92215357Y-21466854D01*
X92260738Y-21512235D01*
X92306119Y-21602997D01*
X92306119Y-21829902D01*
X92260738Y-21920664D01*
X92215357Y-21966045D01*
D13*
X58659380Y-31811785D02*
X57659380Y-31811785D01*
X57659380Y-31573690D01*
X57707000Y-31430833D01*
X57802238Y-31335595D01*
X57897476Y-31287976D01*
X58087952Y-31240357D01*
X58230809Y-31240357D01*
X58421285Y-31287976D01*
X58516523Y-31335595D01*
X58611761Y-31430833D01*
X58659380Y-31573690D01*
X58659380Y-31811785D01*
X57754619Y-30859404D02*
X57707000Y-30811785D01*
X57659380Y-30716547D01*
X57659380Y-30478452D01*
X57707000Y-30383214D01*
X57754619Y-30335595D01*
X57849857Y-30287976D01*
X57945095Y-30287976D01*
X58087952Y-30335595D01*
X58659380Y-30907023D01*
X58659380Y-30287976D01*
D14*
X57306119Y-38185473D02*
X57306119Y-38730045D01*
X57306119Y-38457759D02*
X56353119Y-38457759D01*
X56489261Y-38548521D01*
X56580023Y-38639283D01*
X56625404Y-38730045D01*
X53490119Y-37768235D02*
X53490119Y-37949759D01*
X53535500Y-38040521D01*
X53580880Y-38085902D01*
X53717023Y-38176664D01*
X53898547Y-38222045D01*
X54261595Y-38222045D01*
X54352357Y-38176664D01*
X54397738Y-38131283D01*
X54443119Y-38040521D01*
X54443119Y-37858997D01*
X54397738Y-37768235D01*
X54352357Y-37722854D01*
X54261595Y-37677473D01*
X54034690Y-37677473D01*
X53943928Y-37722854D01*
X53898547Y-37768235D01*
X53853166Y-37858997D01*
X53853166Y-38040521D01*
X53898547Y-38131283D01*
X53943928Y-38176664D01*
X54034690Y-38222045D01*
X54513119Y-22383283D02*
X54513119Y-22201759D01*
X54467738Y-22110997D01*
X54422357Y-22065616D01*
X54286214Y-21974854D01*
X54104690Y-21929473D01*
X53741642Y-21929473D01*
X53650880Y-21974854D01*
X53605500Y-22020235D01*
X53560119Y-22110997D01*
X53560119Y-22292521D01*
X53605500Y-22383283D01*
X53650880Y-22428664D01*
X53741642Y-22474045D01*
X53968547Y-22474045D01*
X54059309Y-22428664D01*
X54104690Y-22383283D01*
X54150071Y-22292521D01*
X54150071Y-22110997D01*
X54104690Y-22020235D01*
X54059309Y-21974854D01*
X53968547Y-21929473D01*
X56353119Y-21466854D02*
X56353119Y-21920664D01*
X56806928Y-21966045D01*
X56761547Y-21920664D01*
X56716166Y-21829902D01*
X56716166Y-21602997D01*
X56761547Y-21512235D01*
X56806928Y-21466854D01*
X56897690Y-21421473D01*
X57124595Y-21421473D01*
X57215357Y-21466854D01*
X57260738Y-21512235D01*
X57306119Y-21602997D01*
X57306119Y-21829902D01*
X57260738Y-21920664D01*
X57215357Y-21966045D01*
D13*
X23659380Y-31811785D02*
X22659380Y-31811785D01*
X22659380Y-31573690D01*
X22707000Y-31430833D01*
X22802238Y-31335595D01*
X22897476Y-31287976D01*
X23087952Y-31240357D01*
X23230809Y-31240357D01*
X23421285Y-31287976D01*
X23516523Y-31335595D01*
X23611761Y-31430833D01*
X23659380Y-31573690D01*
X23659380Y-31811785D01*
X23659380Y-30287976D02*
X23659380Y-30859404D01*
X23659380Y-30573690D02*
X22659380Y-30573690D01*
X22802238Y-30668928D01*
X22897476Y-30764166D01*
X22945095Y-30859404D01*
D14*
X22306119Y-38185473D02*
X22306119Y-38730045D01*
X22306119Y-38457759D02*
X21353119Y-38457759D01*
X21489261Y-38548521D01*
X21580023Y-38639283D01*
X21625404Y-38730045D01*
X18490119Y-37768235D02*
X18490119Y-37949759D01*
X18535500Y-38040521D01*
X18580880Y-38085902D01*
X18717023Y-38176664D01*
X18898547Y-38222045D01*
X19261595Y-38222045D01*
X19352357Y-38176664D01*
X19397738Y-38131283D01*
X19443119Y-38040521D01*
X19443119Y-37858997D01*
X19397738Y-37768235D01*
X19352357Y-37722854D01*
X19261595Y-37677473D01*
X19034690Y-37677473D01*
X18943928Y-37722854D01*
X18898547Y-37768235D01*
X18853166Y-37858997D01*
X18853166Y-38040521D01*
X18898547Y-38131283D01*
X18943928Y-38176664D01*
X19034690Y-38222045D01*
X19513119Y-22383283D02*
X19513119Y-22201759D01*
X19467738Y-22110997D01*
X19422357Y-22065616D01*
X19286214Y-21974854D01*
X19104690Y-21929473D01*
X18741642Y-21929473D01*
X18650880Y-21974854D01*
X18605500Y-22020235D01*
X18560119Y-22110997D01*
X18560119Y-22292521D01*
X18605500Y-22383283D01*
X18650880Y-22428664D01*
X18741642Y-22474045D01*
X18968547Y-22474045D01*
X19059309Y-22428664D01*
X19104690Y-22383283D01*
X19150071Y-22292521D01*
X19150071Y-22110997D01*
X19104690Y-22020235D01*
X19059309Y-21974854D01*
X18968547Y-21929473D01*
X21353119Y-21466854D02*
X21353119Y-21920664D01*
X21806928Y-21966045D01*
X21761547Y-21920664D01*
X21716166Y-21829902D01*
X21716166Y-21602997D01*
X21761547Y-21512235D01*
X21806928Y-21466854D01*
X21897690Y-21421473D01*
X22124595Y-21421473D01*
X22215357Y-21466854D01*
X22260738Y-21512235D01*
X22306119Y-21602997D01*
X22306119Y-21829902D01*
X22260738Y-21920664D01*
X22215357Y-21966045D01*
D13*
X94666666Y-205952380D02*
X94666666Y-204952380D01*
X95000000Y-205666666D01*
X95333333Y-204952380D01*
X95333333Y-205952380D01*
X95809523Y-205952380D02*
X95809523Y-204952380D01*
X95809523Y-205428571D02*
X96380952Y-205428571D01*
X96380952Y-205952380D02*
X96380952Y-204952380D01*
X97285714Y-205285714D02*
X97285714Y-205952380D01*
X97047619Y-204904761D02*
X96809523Y-205619047D01*
X97428571Y-205619047D01*
X8666666Y-205952380D02*
X8666666Y-204952380D01*
X9000000Y-205666666D01*
X9333333Y-204952380D01*
X9333333Y-205952380D01*
X9809523Y-205952380D02*
X9809523Y-204952380D01*
X9809523Y-205428571D02*
X10380952Y-205428571D01*
X10380952Y-205952380D02*
X10380952Y-204952380D01*
X10761904Y-204952380D02*
X11380952Y-204952380D01*
X11047619Y-205333333D01*
X11190476Y-205333333D01*
X11285714Y-205380952D01*
X11333333Y-205428571D01*
X11380952Y-205523809D01*
X11380952Y-205761904D01*
X11333333Y-205857142D01*
X11285714Y-205904761D01*
X11190476Y-205952380D01*
X10904761Y-205952380D01*
X10809523Y-205904761D01*
X10761904Y-205857142D01*
X8666666Y13047619D02*
X8666666Y14047619D01*
X9000000Y13333333D01*
X9333333Y14047619D01*
X9333333Y13047619D01*
X9809523Y13047619D02*
X9809523Y14047619D01*
X9809523Y13571428D02*
X10380952Y13571428D01*
X10380952Y13047619D02*
X10380952Y14047619D01*
X10809523Y13952380D02*
X10857142Y14000000D01*
X10952380Y14047619D01*
X11190476Y14047619D01*
X11285714Y14000000D01*
X11333333Y13952380D01*
X11380952Y13857142D01*
X11380952Y13761904D01*
X11333333Y13619047D01*
X10761904Y13047619D01*
X11380952Y13047619D01*
X94666666Y13047619D02*
X94666666Y14047619D01*
X95000000Y13333333D01*
X95333333Y14047619D01*
X95333333Y13047619D01*
X95809523Y13047619D02*
X95809523Y14047619D01*
X95809523Y13571428D02*
X96380952Y13571428D01*
X96380952Y13047619D02*
X96380952Y14047619D01*
X97380952Y13047619D02*
X96809523Y13047619D01*
X97095238Y13047619D02*
X97095238Y14047619D01*
X97000000Y13904761D01*
X96904761Y13809523D01*
X96809523Y13761904D01*
M02*
