G04 #@! TF.GenerationSoftware,KiCad,Pcbnew,(5.1.9)-1*
G04 #@! TF.CreationDate,2022-02-09T13:04:00-07:00*
G04 #@! TF.ProjectId,HDMI_to_DB9,48444d49-5f74-46f5-9f44-42392e6b6963,rev?*
G04 #@! TF.SameCoordinates,Original*
G04 #@! TF.FileFunction,Soldermask,Top*
G04 #@! TF.FilePolarity,Negative*
%FSLAX46Y46*%
G04 Gerber Fmt 4.6, Leading zero omitted, Abs format (unit mm)*
G04 Created by KiCad (PCBNEW (5.1.9)-1) date 2022-02-09 13:04:00*
%MOMM*%
%LPD*%
G01*
G04 APERTURE LIST*
%ADD10C,1.690000*%
%ADD11R,1.690000X1.690000*%
%ADD12C,4.826000*%
%ADD13R,2.600000X0.280000*%
%ADD14O,3.500000X1.500000*%
%ADD15O,2.500000X1.500000*%
%ADD16C,7.000000*%
G04 APERTURE END LIST*
D10*
X36420000Y-194460000D03*
X33580000Y-195845000D03*
X36420000Y-197230000D03*
X33580000Y-198615000D03*
X36420000Y-200000000D03*
X33580000Y-201385000D03*
X36420000Y-202770000D03*
X33580000Y-204155000D03*
D11*
X36420000Y-205540000D03*
D12*
X35000000Y-212495000D03*
X35000000Y-187505000D03*
D10*
X56420000Y-164460000D03*
X53580000Y-165845000D03*
X56420000Y-167230000D03*
X53580000Y-168615000D03*
X56420000Y-170000000D03*
X53580000Y-171385000D03*
X56420000Y-172770000D03*
X53580000Y-174155000D03*
D11*
X56420000Y-175540000D03*
D12*
X55000000Y-182495000D03*
X55000000Y-157505000D03*
D13*
X3360000Y-204500000D03*
X3360000Y-204000000D03*
X3360000Y-203500000D03*
X3360000Y-203000000D03*
X3360000Y-202500000D03*
X3360000Y-202000000D03*
X3360000Y-201500000D03*
X3360000Y-201000000D03*
X3360000Y-200500000D03*
X3360000Y-200000000D03*
X3360000Y-199500000D03*
X3360000Y-199000000D03*
X3360000Y-198500000D03*
X3360000Y-198000000D03*
X3360000Y-197500000D03*
X3360000Y-197000000D03*
X3360000Y-196500000D03*
X3360000Y-196000000D03*
X3360000Y-195500000D03*
D14*
X2600000Y-192750000D03*
X2600000Y-207250000D03*
D15*
X-3360000Y-192750000D03*
X-3360000Y-207250000D03*
D13*
X3360000Y-179500000D03*
X3360000Y-179000000D03*
X3360000Y-178500000D03*
X3360000Y-178000000D03*
X3360000Y-177500000D03*
X3360000Y-177000000D03*
X3360000Y-176500000D03*
X3360000Y-176000000D03*
X3360000Y-175500000D03*
X3360000Y-175000000D03*
X3360000Y-174500000D03*
X3360000Y-174000000D03*
X3360000Y-173500000D03*
X3360000Y-173000000D03*
X3360000Y-172500000D03*
X3360000Y-172000000D03*
X3360000Y-171500000D03*
X3360000Y-171000000D03*
X3360000Y-170500000D03*
D14*
X2600000Y-167750000D03*
X2600000Y-182250000D03*
D15*
X-3360000Y-167750000D03*
X-3360000Y-182250000D03*
D13*
X3360000Y-154500000D03*
X3360000Y-154000000D03*
X3360000Y-153500000D03*
X3360000Y-153000000D03*
X3360000Y-152500000D03*
X3360000Y-152000000D03*
X3360000Y-151500000D03*
X3360000Y-151000000D03*
X3360000Y-150500000D03*
X3360000Y-150000000D03*
X3360000Y-149500000D03*
X3360000Y-149000000D03*
X3360000Y-148500000D03*
X3360000Y-148000000D03*
X3360000Y-147500000D03*
X3360000Y-147000000D03*
X3360000Y-146500000D03*
X3360000Y-146000000D03*
X3360000Y-145500000D03*
D14*
X2600000Y-142750000D03*
X2600000Y-157250000D03*
D15*
X-3360000Y-142750000D03*
X-3360000Y-157250000D03*
D13*
X3360000Y-129500000D03*
X3360000Y-129000000D03*
X3360000Y-128500000D03*
X3360000Y-128000000D03*
X3360000Y-127500000D03*
X3360000Y-127000000D03*
X3360000Y-126500000D03*
X3360000Y-126000000D03*
X3360000Y-125500000D03*
X3360000Y-125000000D03*
X3360000Y-124500000D03*
X3360000Y-124000000D03*
X3360000Y-123500000D03*
X3360000Y-123000000D03*
X3360000Y-122500000D03*
X3360000Y-122000000D03*
X3360000Y-121500000D03*
X3360000Y-121000000D03*
X3360000Y-120500000D03*
D14*
X2600000Y-117750000D03*
X2600000Y-132250000D03*
D15*
X-3360000Y-117750000D03*
X-3360000Y-132250000D03*
D13*
X3360000Y-104500000D03*
X3360000Y-104000000D03*
X3360000Y-103500000D03*
X3360000Y-103000000D03*
X3360000Y-102500000D03*
X3360000Y-102000000D03*
X3360000Y-101500000D03*
X3360000Y-101000000D03*
X3360000Y-100500000D03*
X3360000Y-100000000D03*
X3360000Y-99500000D03*
X3360000Y-99000000D03*
X3360000Y-98500000D03*
X3360000Y-98000000D03*
X3360000Y-97500000D03*
X3360000Y-97000000D03*
X3360000Y-96500000D03*
X3360000Y-96000000D03*
X3360000Y-95500000D03*
D14*
X2600000Y-92750000D03*
X2600000Y-107250000D03*
D15*
X-3360000Y-92750000D03*
X-3360000Y-107250000D03*
D13*
X3360000Y-79500000D03*
X3360000Y-79000000D03*
X3360000Y-78500000D03*
X3360000Y-78000000D03*
X3360000Y-77500000D03*
X3360000Y-77000000D03*
X3360000Y-76500000D03*
X3360000Y-76000000D03*
X3360000Y-75500000D03*
X3360000Y-75000000D03*
X3360000Y-74500000D03*
X3360000Y-74000000D03*
X3360000Y-73500000D03*
X3360000Y-73000000D03*
X3360000Y-72500000D03*
X3360000Y-72000000D03*
X3360000Y-71500000D03*
X3360000Y-71000000D03*
X3360000Y-70500000D03*
D14*
X2600000Y-67750000D03*
X2600000Y-82250000D03*
D15*
X-3360000Y-67750000D03*
X-3360000Y-82250000D03*
D13*
X3360000Y-54500000D03*
X3360000Y-54000000D03*
X3360000Y-53500000D03*
X3360000Y-53000000D03*
X3360000Y-52500000D03*
X3360000Y-52000000D03*
X3360000Y-51500000D03*
X3360000Y-51000000D03*
X3360000Y-50500000D03*
X3360000Y-50000000D03*
X3360000Y-49500000D03*
X3360000Y-49000000D03*
X3360000Y-48500000D03*
X3360000Y-48000000D03*
X3360000Y-47500000D03*
X3360000Y-47000000D03*
X3360000Y-46500000D03*
X3360000Y-46000000D03*
X3360000Y-45500000D03*
D14*
X2600000Y-42750000D03*
X2600000Y-57250000D03*
D15*
X-3360000Y-42750000D03*
X-3360000Y-57250000D03*
D13*
X3360000Y-29500000D03*
X3360000Y-29000000D03*
X3360000Y-28500000D03*
X3360000Y-28000000D03*
X3360000Y-27500000D03*
X3360000Y-27000000D03*
X3360000Y-26500000D03*
X3360000Y-26000000D03*
X3360000Y-25500000D03*
X3360000Y-25000000D03*
X3360000Y-24500000D03*
X3360000Y-24000000D03*
X3360000Y-23500000D03*
X3360000Y-23000000D03*
X3360000Y-22500000D03*
X3360000Y-22000000D03*
X3360000Y-21500000D03*
X3360000Y-21000000D03*
X3360000Y-20500000D03*
D14*
X2600000Y-17750000D03*
X2600000Y-32250000D03*
D15*
X-3360000Y-17750000D03*
X-3360000Y-32250000D03*
D13*
X3360000Y-4500000D03*
X3360000Y-4000000D03*
X3360000Y-3500000D03*
X3360000Y-3000000D03*
X3360000Y-2500000D03*
X3360000Y-2000000D03*
X3360000Y-1500000D03*
X3360000Y-1000000D03*
X3360000Y-500000D03*
X3360000Y0D03*
X3360000Y500000D03*
X3360000Y1000000D03*
X3360000Y1500000D03*
X3360000Y2000000D03*
X3360000Y2500000D03*
X3360000Y3000000D03*
X3360000Y3500000D03*
X3360000Y4000000D03*
X3360000Y4500000D03*
D14*
X2600000Y7250000D03*
X2600000Y-7250000D03*
D15*
X-3360000Y7250000D03*
X-3360000Y-7250000D03*
D10*
X73920000Y-194460000D03*
X71080000Y-195845000D03*
X73920000Y-197230000D03*
X71080000Y-198615000D03*
X73920000Y-200000000D03*
X71080000Y-201385000D03*
X73920000Y-202770000D03*
X71080000Y-204155000D03*
D11*
X73920000Y-205540000D03*
D12*
X72500000Y-212495000D03*
X72500000Y-187505000D03*
D10*
X91420000Y-164460000D03*
X88580000Y-165845000D03*
X91420000Y-167230000D03*
X88580000Y-168615000D03*
X91420000Y-170000000D03*
X88580000Y-171385000D03*
X91420000Y-172770000D03*
X88580000Y-174155000D03*
D11*
X91420000Y-175540000D03*
D12*
X90000000Y-182495000D03*
X90000000Y-157505000D03*
D10*
X21420000Y-164460000D03*
X18580000Y-165845000D03*
X21420000Y-167230000D03*
X18580000Y-168615000D03*
X21420000Y-170000000D03*
X18580000Y-171385000D03*
X21420000Y-172770000D03*
X18580000Y-174155000D03*
D11*
X21420000Y-175540000D03*
D12*
X20000000Y-182495000D03*
X20000000Y-157505000D03*
D10*
X91420000Y-129460000D03*
X88580000Y-130845000D03*
X91420000Y-132230000D03*
X88580000Y-133615000D03*
X91420000Y-135000000D03*
X88580000Y-136385000D03*
X91420000Y-137770000D03*
X88580000Y-139155000D03*
D11*
X91420000Y-140540000D03*
D12*
X90000000Y-147495000D03*
X90000000Y-122505000D03*
D10*
X56420000Y-129460000D03*
X53580000Y-130845000D03*
X56420000Y-132230000D03*
X53580000Y-133615000D03*
X56420000Y-135000000D03*
X53580000Y-136385000D03*
X56420000Y-137770000D03*
X53580000Y-139155000D03*
D11*
X56420000Y-140540000D03*
D12*
X55000000Y-147495000D03*
X55000000Y-122505000D03*
D10*
X21420000Y-129460000D03*
X18580000Y-130845000D03*
X21420000Y-132230000D03*
X18580000Y-133615000D03*
X21420000Y-135000000D03*
X18580000Y-136385000D03*
X21420000Y-137770000D03*
X18580000Y-139155000D03*
D11*
X21420000Y-140540000D03*
D12*
X20000000Y-147495000D03*
X20000000Y-122505000D03*
D10*
X91420000Y-94460000D03*
X88580000Y-95845000D03*
X91420000Y-97230000D03*
X88580000Y-98615000D03*
X91420000Y-100000000D03*
X88580000Y-101385000D03*
X91420000Y-102770000D03*
X88580000Y-104155000D03*
D11*
X91420000Y-105540000D03*
D12*
X90000000Y-112495000D03*
X90000000Y-87505000D03*
D10*
X56420000Y-94460000D03*
X53580000Y-95845000D03*
X56420000Y-97230000D03*
X53580000Y-98615000D03*
X56420000Y-100000000D03*
X53580000Y-101385000D03*
X56420000Y-102770000D03*
X53580000Y-104155000D03*
D11*
X56420000Y-105540000D03*
D12*
X55000000Y-112495000D03*
X55000000Y-87505000D03*
D10*
X21420000Y-94460000D03*
X18580000Y-95845000D03*
X21420000Y-97230000D03*
X18580000Y-98615000D03*
X21420000Y-100000000D03*
X18580000Y-101385000D03*
X21420000Y-102770000D03*
X18580000Y-104155000D03*
D11*
X21420000Y-105540000D03*
D12*
X20000000Y-112495000D03*
X20000000Y-87505000D03*
D10*
X91420000Y-59460000D03*
X88580000Y-60845000D03*
X91420000Y-62230000D03*
X88580000Y-63615000D03*
X91420000Y-65000000D03*
X88580000Y-66385000D03*
X91420000Y-67770000D03*
X88580000Y-69155000D03*
D11*
X91420000Y-70540000D03*
D12*
X90000000Y-77495000D03*
X90000000Y-52505000D03*
D10*
X56420000Y-59460000D03*
X53580000Y-60845000D03*
X56420000Y-62230000D03*
X53580000Y-63615000D03*
X56420000Y-65000000D03*
X53580000Y-66385000D03*
X56420000Y-67770000D03*
X53580000Y-69155000D03*
D11*
X56420000Y-70540000D03*
D12*
X55000000Y-77495000D03*
X55000000Y-52505000D03*
D10*
X21420000Y-59460000D03*
X18580000Y-60845000D03*
X21420000Y-62230000D03*
X18580000Y-63615000D03*
X21420000Y-65000000D03*
X18580000Y-66385000D03*
X21420000Y-67770000D03*
X18580000Y-69155000D03*
D11*
X21420000Y-70540000D03*
D12*
X20000000Y-77495000D03*
X20000000Y-52505000D03*
D10*
X91420000Y-24460000D03*
X88580000Y-25845000D03*
X91420000Y-27230000D03*
X88580000Y-28615000D03*
X91420000Y-30000000D03*
X88580000Y-31385000D03*
X91420000Y-32770000D03*
X88580000Y-34155000D03*
D11*
X91420000Y-35540000D03*
D12*
X90000000Y-42495000D03*
X90000000Y-17505000D03*
D10*
X56420000Y-24460000D03*
X53580000Y-25845000D03*
X56420000Y-27230000D03*
X53580000Y-28615000D03*
X56420000Y-30000000D03*
X53580000Y-31385000D03*
X56420000Y-32770000D03*
X53580000Y-34155000D03*
D11*
X56420000Y-35540000D03*
D12*
X55000000Y-42495000D03*
X55000000Y-17505000D03*
D10*
X21420000Y-24460000D03*
X18580000Y-25845000D03*
X21420000Y-27230000D03*
X18580000Y-28615000D03*
X21420000Y-30000000D03*
X18580000Y-31385000D03*
X21420000Y-32770000D03*
X18580000Y-34155000D03*
D11*
X21420000Y-35540000D03*
D12*
X20000000Y-42495000D03*
X20000000Y-17505000D03*
D16*
X96000000Y-210000000D03*
X10000000Y-210000000D03*
X10000000Y9000000D03*
X96000000Y9000000D03*
M02*
