M48
; DRILL file {KiCad (5.1.9)-1} date 02/09/22 21:41:24
; FORMAT={-:-/ absolute / metric / decimal}
; #@! TF.CreationDate,2022-02-09T21:41:24-07:00
; #@! TF.GenerationSoftware,Kicad,Pcbnew,(5.1.9)-1
; #@! TF.FileFunction,Plated,1,2,PTH
FMAT,2
METRIC
T1C0.400
T2C0.900
T3C1.090
T4C3.302
T5C3.500
%
G90
G05
T1
X5.7Y-25.725
X5.8Y-127.225
X6.0Y-125.6
X6.02Y-129.118
X6.5Y-173.275
X6.5Y-174.275
X6.5Y-175.275
X6.5Y-176.275
X6.7Y-128.0
X7.5Y-53.0
X7.6Y-126.275
X8.0Y-100.775
X8.0Y-176.125
X8.4Y-122.5
X8.5Y-124.3
X8.6Y-57.6
X9.047Y-56.706
X9.2Y-176.2
X9.7Y-52.0
X10.0Y-46.9
X10.0Y-48.1
X10.0Y-49.2
X10.0Y-50.4
X16.55Y-46.175
X18.3Y-200.725
X20.6Y-200.725
X21.4Y-197.2
X21.9Y-198.275
X22.035Y-117.565
X22.969Y-206.431
X25.369Y-208.831
X31.8Y-55.6
X40.201Y-133.599
X44.4Y-65.535
X61.6Y-208.0
X62.6Y-208.582
X66.9Y-202.7
X81.5Y-66.1
T3
X18.58Y-25.845
X18.58Y-28.615
X18.58Y-31.385
X18.58Y-34.155
X18.58Y-60.845
X18.58Y-63.615
X18.58Y-66.385
X18.58Y-69.155
X18.58Y-95.845
X18.58Y-98.615
X18.58Y-101.385
X18.58Y-104.155
X18.58Y-130.845
X18.58Y-133.615
X18.58Y-136.385
X18.58Y-139.155
X18.58Y-165.845
X18.58Y-168.615
X18.58Y-171.385
X18.58Y-174.155
X21.42Y-24.46
X21.42Y-27.23
X21.42Y-30.0
X21.42Y-32.77
X21.42Y-35.54
X21.42Y-59.46
X21.42Y-62.23
X21.42Y-65.0
X21.42Y-67.77
X21.42Y-70.54
X21.42Y-94.46
X21.42Y-97.23
X21.42Y-100.0
X21.42Y-102.77
X21.42Y-105.54
X21.42Y-129.46
X21.42Y-132.23
X21.42Y-135.0
X21.42Y-137.77
X21.42Y-140.54
X21.42Y-164.46
X21.42Y-167.23
X21.42Y-170.0
X21.42Y-172.77
X21.42Y-175.54
X33.58Y-195.845
X33.58Y-198.615
X33.58Y-201.385
X33.58Y-204.155
X36.42Y-194.46
X36.42Y-197.23
X36.42Y-200.0
X36.42Y-202.77
X36.42Y-205.54
X53.58Y-25.845
X53.58Y-28.615
X53.58Y-31.385
X53.58Y-34.155
X53.58Y-60.845
X53.58Y-63.615
X53.58Y-66.385
X53.58Y-69.155
X53.58Y-95.845
X53.58Y-98.615
X53.58Y-101.385
X53.58Y-104.155
X53.58Y-130.845
X53.58Y-133.615
X53.58Y-136.385
X53.58Y-139.155
X53.58Y-165.845
X53.58Y-168.615
X53.58Y-171.385
X53.58Y-174.155
X56.42Y-24.46
X56.42Y-27.23
X56.42Y-30.0
X56.42Y-32.77
X56.42Y-35.54
X56.42Y-59.46
X56.42Y-62.23
X56.42Y-65.0
X56.42Y-67.77
X56.42Y-70.54
X56.42Y-94.46
X56.42Y-97.23
X56.42Y-100.0
X56.42Y-102.77
X56.42Y-105.54
X56.42Y-129.46
X56.42Y-132.23
X56.42Y-135.0
X56.42Y-137.77
X56.42Y-140.54
X56.42Y-164.46
X56.42Y-167.23
X56.42Y-170.0
X56.42Y-172.77
X56.42Y-175.54
X71.08Y-195.845
X71.08Y-198.615
X71.08Y-201.385
X71.08Y-204.155
X73.92Y-194.46
X73.92Y-197.23
X73.92Y-200.0
X73.92Y-202.77
X73.92Y-205.54
X88.58Y-25.845
X88.58Y-28.615
X88.58Y-31.385
X88.58Y-34.155
X88.58Y-60.845
X88.58Y-63.615
X88.58Y-66.385
X88.58Y-69.155
X88.58Y-95.845
X88.58Y-98.615
X88.58Y-101.385
X88.58Y-104.155
X88.58Y-130.845
X88.58Y-133.615
X88.58Y-136.385
X88.58Y-139.155
X88.58Y-165.845
X88.58Y-168.615
X88.58Y-171.385
X88.58Y-174.155
X91.42Y-24.46
X91.42Y-27.23
X91.42Y-30.0
X91.42Y-32.77
X91.42Y-35.54
X91.42Y-59.46
X91.42Y-62.23
X91.42Y-65.0
X91.42Y-67.77
X91.42Y-70.54
X91.42Y-94.46
X91.42Y-97.23
X91.42Y-100.0
X91.42Y-102.77
X91.42Y-105.54
X91.42Y-129.46
X91.42Y-132.23
X91.42Y-135.0
X91.42Y-137.77
X91.42Y-140.54
X91.42Y-164.46
X91.42Y-167.23
X91.42Y-170.0
X91.42Y-172.77
X91.42Y-175.54
T4
X20.0Y-17.505
X20.0Y-42.495
X20.0Y-52.505
X20.0Y-77.495
X20.0Y-87.505
X20.0Y-112.495
X20.0Y-122.505
X20.0Y-147.495
X20.0Y-157.505
X20.0Y-182.495
X35.0Y-187.505
X35.0Y-212.495
X55.0Y-17.505
X55.0Y-42.495
X55.0Y-52.505
X55.0Y-77.495
X55.0Y-87.505
X55.0Y-112.495
X55.0Y-122.505
X55.0Y-147.495
X55.0Y-157.505
X55.0Y-182.495
X72.5Y-187.505
X72.5Y-212.495
X90.0Y-17.505
X90.0Y-42.495
X90.0Y-52.505
X90.0Y-77.495
X90.0Y-87.505
X90.0Y-112.495
X90.0Y-122.505
X90.0Y-147.495
X90.0Y-157.505
X90.0Y-182.495
T5
X10.0Y9.0
X10.0Y-210.0
X96.0Y9.0
X96.0Y-210.0
T2
X-2.91Y7.25G85X-3.81Y7.25
G05
X-2.91Y-7.25G85X-3.81Y-7.25
G05
X-2.91Y-17.75G85X-3.81Y-17.75
G05
X-2.91Y-32.25G85X-3.81Y-32.25
G05
X-2.91Y-42.75G85X-3.81Y-42.75
G05
X-2.91Y-57.25G85X-3.81Y-57.25
G05
X-2.91Y-67.75G85X-3.81Y-67.75
G05
X-2.91Y-82.25G85X-3.81Y-82.25
G05
X-2.91Y-92.75G85X-3.81Y-92.75
G05
X-2.91Y-107.25G85X-3.81Y-107.25
G05
X-2.91Y-117.75G85X-3.81Y-117.75
G05
X-2.91Y-132.25G85X-3.81Y-132.25
G05
X-2.91Y-142.75G85X-3.81Y-142.75
G05
X-2.91Y-157.25G85X-3.81Y-157.25
G05
X-2.91Y-167.75G85X-3.81Y-167.75
G05
X-2.91Y-182.25G85X-3.81Y-182.25
G05
X-2.91Y-192.75G85X-3.81Y-192.75
G05
X-2.91Y-207.25G85X-3.81Y-207.25
G05
X3.55Y7.25G85X1.65Y7.25
G05
X3.55Y-7.25G85X1.65Y-7.25
G05
X3.55Y-17.75G85X1.65Y-17.75
G05
X3.55Y-32.25G85X1.65Y-32.25
G05
X3.55Y-42.75G85X1.65Y-42.75
G05
X3.55Y-57.25G85X1.65Y-57.25
G05
X3.55Y-67.75G85X1.65Y-67.75
G05
X3.55Y-82.25G85X1.65Y-82.25
G05
X3.55Y-92.75G85X1.65Y-92.75
G05
X3.55Y-107.25G85X1.65Y-107.25
G05
X3.55Y-117.75G85X1.65Y-117.75
G05
X3.55Y-132.25G85X1.65Y-132.25
G05
X3.55Y-142.75G85X1.65Y-142.75
G05
X3.55Y-157.25G85X1.65Y-157.25
G05
X3.55Y-167.75G85X1.65Y-167.75
G05
X3.55Y-182.25G85X1.65Y-182.25
G05
X3.55Y-192.75G85X1.65Y-192.75
G05
X3.55Y-207.25G85X1.65Y-207.25
G05
T0
M30
