G04 #@! TF.GenerationSoftware,KiCad,Pcbnew,(5.1.5)-3*
G04 #@! TF.CreationDate,2021-05-20T13:29:37-06:00*
G04 #@! TF.ProjectId,LoomConnector06,4c6f6f6d-436f-46e6-9e65-63746f723036,rev?*
G04 #@! TF.SameCoordinates,Original*
G04 #@! TF.FileFunction,Copper,L1,Top*
G04 #@! TF.FilePolarity,Positive*
%FSLAX46Y46*%
G04 Gerber Fmt 4.6, Leading zero omitted, Abs format (unit mm)*
G04 Created by KiCad (PCBNEW (5.1.5)-3) date 2021-05-20 13:29:37*
%MOMM*%
%LPD*%
G04 APERTURE LIST*
%ADD10C,0.100000*%
%ADD11C,1.200000*%
%ADD12C,1.800000*%
%ADD13R,0.300000X1.800000*%
%ADD14C,1.000000*%
%ADD15C,0.150000*%
G04 APERTURE END LIST*
D10*
G36*
X143300000Y-82150000D02*
G01*
X142500000Y-82150000D01*
X142500000Y-80350000D01*
X143300000Y-80350000D01*
X143300000Y-82150000D01*
G37*
G36*
X141700000Y-82150000D02*
G01*
X140900000Y-82150000D01*
X140900000Y-80350000D01*
X141700000Y-80350000D01*
X141700000Y-82150000D01*
G37*
G36*
X140100000Y-82150000D02*
G01*
X139300000Y-82150000D01*
X139300000Y-80350000D01*
X140100000Y-80350000D01*
X140100000Y-82150000D01*
G37*
G36*
X138500000Y-82150000D02*
G01*
X137700000Y-82150000D01*
X137700000Y-80350000D01*
X138500000Y-80350000D01*
X138500000Y-82150000D01*
G37*
G36*
X136900000Y-82150000D02*
G01*
X136100000Y-82150000D01*
X136100000Y-80350000D01*
X136900000Y-80350000D01*
X136900000Y-82150000D01*
G37*
G36*
X135300000Y-82150000D02*
G01*
X134500000Y-82150000D01*
X134500000Y-80350000D01*
X135300000Y-80350000D01*
X135300000Y-82150000D01*
G37*
G36*
X133700000Y-82150000D02*
G01*
X132900000Y-82150000D01*
X132900000Y-80350000D01*
X133700000Y-80350000D01*
X133700000Y-82150000D01*
G37*
G36*
X132100000Y-82150000D02*
G01*
X131300000Y-82150000D01*
X131300000Y-80350000D01*
X132100000Y-80350000D01*
X132100000Y-82150000D01*
G37*
G36*
X130500000Y-82150000D02*
G01*
X129700000Y-82150000D01*
X129700000Y-80350000D01*
X130500000Y-80350000D01*
X130500000Y-82150000D01*
G37*
G36*
X128900000Y-81650000D02*
G01*
X128100000Y-81650000D01*
X128100000Y-79850000D01*
X128900000Y-79850000D01*
X128900000Y-81650000D01*
G37*
G36*
X144100000Y-78900000D02*
G01*
X143300000Y-78900000D01*
X143300000Y-77100000D01*
X144100000Y-77100000D01*
X144100000Y-78900000D01*
G37*
G36*
X142500000Y-78900000D02*
G01*
X141700000Y-78900000D01*
X141700000Y-77100000D01*
X142500000Y-77100000D01*
X142500000Y-78900000D01*
G37*
G36*
X140900000Y-78900000D02*
G01*
X140100000Y-78900000D01*
X140100000Y-77100000D01*
X140900000Y-77100000D01*
X140900000Y-78900000D01*
G37*
G36*
X139300000Y-78900000D02*
G01*
X138500000Y-78900000D01*
X138500000Y-77100000D01*
X139300000Y-77100000D01*
X139300000Y-78900000D01*
G37*
G36*
X137700000Y-78900000D02*
G01*
X136900000Y-78900000D01*
X136900000Y-77100000D01*
X137700000Y-77100000D01*
X137700000Y-78900000D01*
G37*
G36*
X136100000Y-78900000D02*
G01*
X135300000Y-78900000D01*
X135300000Y-77100000D01*
X136100000Y-77100000D01*
X136100000Y-78900000D01*
G37*
G36*
X134500000Y-78900000D02*
G01*
X133700000Y-78900000D01*
X133700000Y-77100000D01*
X134500000Y-77100000D01*
X134500000Y-78900000D01*
G37*
G36*
X132900000Y-78900000D02*
G01*
X132100000Y-78900000D01*
X132100000Y-77100000D01*
X132900000Y-77100000D01*
X132900000Y-78900000D01*
G37*
G36*
X131300000Y-78900000D02*
G01*
X130500000Y-78900000D01*
X130500000Y-77100000D01*
X131300000Y-77100000D01*
X131300000Y-78900000D01*
G37*
G36*
X129700000Y-78900000D02*
G01*
X128900000Y-78900000D01*
X128900000Y-77100000D01*
X129700000Y-77100000D01*
X129700000Y-78900000D01*
G37*
D11*
X128800000Y-65250000D03*
X143700000Y-65250000D03*
D12*
X130750000Y-67700000D03*
X141750000Y-67700000D03*
D13*
X131500000Y-69750000D03*
X132000000Y-69750000D03*
X132500000Y-69750000D03*
X133000000Y-69750000D03*
X133500000Y-69750000D03*
X134000000Y-69750000D03*
X134500000Y-69750000D03*
X135000000Y-69750000D03*
X135500000Y-69750000D03*
X136000000Y-69750000D03*
X136500000Y-69750000D03*
X137000000Y-69750000D03*
X137500000Y-69750000D03*
X138000000Y-69750000D03*
X138500000Y-69750000D03*
X139000000Y-69750000D03*
X139500000Y-69750000D03*
X140000000Y-69750000D03*
X140500000Y-69750000D03*
X141000000Y-69750000D03*
X131500000Y-72500000D03*
X132000000Y-72500000D03*
X132500000Y-72500000D03*
X133000000Y-72500000D03*
X133500000Y-72500000D03*
X134000000Y-72500000D03*
X134500000Y-72500000D03*
X135000000Y-72500000D03*
X135500000Y-72500000D03*
X136000000Y-72500000D03*
X136500000Y-72500000D03*
X137000000Y-72500000D03*
X137500000Y-72500000D03*
X138000000Y-72500000D03*
X138500000Y-72500000D03*
X139000000Y-72500000D03*
X139500000Y-72500000D03*
X140000000Y-72500000D03*
X140500000Y-72500000D03*
X141000000Y-72500000D03*
D14*
X128500000Y-80250000D03*
X129300000Y-77000000D03*
X130100000Y-80250000D03*
X130900000Y-77000000D03*
X131700004Y-80250000D03*
X132500000Y-77000000D03*
X133300000Y-80250000D03*
X134100000Y-77000000D03*
X134899988Y-80250000D03*
X135656320Y-77000000D03*
X136500000Y-80250000D03*
X137275010Y-76996621D03*
X138100000Y-80250000D03*
X138900000Y-77000000D03*
X139700000Y-80250000D03*
X140500000Y-77000000D03*
X141300000Y-80250000D03*
X142100000Y-77000000D03*
X142900000Y-80250000D03*
X143700000Y-77000000D03*
D15*
X128500000Y-79472183D02*
X128500000Y-80250000D01*
X131500000Y-73550000D02*
X128500000Y-76550000D01*
X131500000Y-72500000D02*
X131500000Y-73550000D01*
X128500000Y-76550000D02*
X128500000Y-79472183D01*
X129326640Y-76973360D02*
X129300000Y-77000000D01*
X129326640Y-76332080D02*
X129326640Y-76973360D01*
X132000000Y-72500000D02*
X132000000Y-73658720D01*
X132000000Y-73658720D02*
X129326640Y-76332080D01*
X130100000Y-79472183D02*
X130100000Y-80250000D01*
X132500000Y-74252998D02*
X130100000Y-76652998D01*
X132500000Y-72500000D02*
X132500000Y-74252998D01*
X130100000Y-76652998D02*
X130100000Y-79472183D01*
X130900000Y-76323360D02*
X130900000Y-77000000D01*
X133000000Y-72500000D02*
X133000000Y-74223360D01*
X133000000Y-74223360D02*
X130900000Y-76323360D01*
X133500000Y-72500000D02*
X133500000Y-74852998D01*
X133500000Y-74852998D02*
X131700004Y-76652994D01*
X131700004Y-79472183D02*
X131700004Y-80250000D01*
X131700004Y-76652994D02*
X131700004Y-79472183D01*
X132500000Y-76313400D02*
X132500000Y-77000000D01*
X134000000Y-72500000D02*
X134000000Y-74813400D01*
X134000000Y-74813400D02*
X132500000Y-76313400D01*
X133300000Y-79472183D02*
X133300000Y-80250000D01*
X133300000Y-76652998D02*
X133300000Y-79472183D01*
X134500000Y-72500000D02*
X134500000Y-75452998D01*
X134500000Y-75452998D02*
X133300000Y-76652998D01*
X134100000Y-76278040D02*
X134100000Y-77000000D01*
X135000000Y-72500000D02*
X135000000Y-75378040D01*
X135000000Y-75378040D02*
X134100000Y-76278040D01*
X135500000Y-72500000D02*
X135500000Y-76009318D01*
X135500000Y-76009318D02*
X134881319Y-76627999D01*
X134899988Y-76646668D02*
X134899988Y-80250000D01*
X134881319Y-76627999D02*
X134899988Y-76646668D01*
X135763000Y-76836977D02*
X135599977Y-77000000D01*
X136000000Y-73973200D02*
X136017000Y-73990200D01*
X136000000Y-72500000D02*
X136000000Y-73973200D01*
X136017000Y-73990200D02*
X135800010Y-74207190D01*
X135800010Y-74207190D02*
X135800010Y-76133586D01*
X135800010Y-76133586D02*
X135763000Y-76170596D01*
X135763000Y-76170596D02*
X135763000Y-76836977D01*
X136500000Y-79542894D02*
X136500000Y-72500000D01*
X136500000Y-80250000D02*
X136500000Y-79542894D01*
X137000000Y-72500000D02*
X137000000Y-76721611D01*
X137000000Y-76721611D02*
X137275010Y-76996621D01*
X137500000Y-75894840D02*
X137500000Y-72500000D01*
X138100000Y-80250000D02*
X138100000Y-76494840D01*
X138100000Y-76494840D02*
X137500000Y-75894840D01*
X138000000Y-73550000D02*
X138000000Y-72500000D01*
X138000000Y-75932560D02*
X138000000Y-73550000D01*
X138900000Y-77000000D02*
X138900000Y-76832560D01*
X138900000Y-76832560D02*
X138000000Y-75932560D01*
X138500000Y-75397905D02*
X138500000Y-72500000D01*
X139700000Y-80250000D02*
X139700000Y-76597905D01*
X139700000Y-76597905D02*
X138500000Y-75397905D01*
X140500000Y-76973627D02*
X140500000Y-77000000D01*
X139000000Y-75473627D02*
X140500000Y-76973627D01*
X139000000Y-72500000D02*
X139000000Y-75473627D01*
X139500000Y-74852998D02*
X139500000Y-72500000D01*
X141300000Y-80250000D02*
X141300000Y-76652998D01*
X141300000Y-76652998D02*
X139500000Y-74852998D01*
X140000000Y-74900000D02*
X142100000Y-77000000D01*
X140000000Y-72500000D02*
X140000000Y-74900000D01*
X140500000Y-74252998D02*
X140500000Y-72500000D01*
X142900000Y-80250000D02*
X142900000Y-76652998D01*
X142900000Y-76652998D02*
X140500000Y-74252998D01*
X141000000Y-74300000D02*
X143700000Y-77000000D01*
X141000000Y-72500000D02*
X141000000Y-74300000D01*
M02*
