M48
; DRILL file {KiCad (5.1.5)-3} date 5/20/2021 1:29:39 PM
; FORMAT={-:-/ absolute / inch / decimal}
; #@! TF.CreationDate,2021-05-20T13:29:39-06:00
; #@! TF.GenerationSoftware,Kicad,Pcbnew,(5.1.5)-3
; #@! TF.FileFunction,Plated,1,2,PTH
FMAT,2
INCH
T1C0.0256
T2C0.0394
T3C0.0591
%
G90
G05
T1
X5.0591Y-3.1594
X5.0906Y-3.0315
X5.122Y-3.1594
X5.1535Y-3.0315
X5.185Y-3.1594
X5.2165Y-3.0315
X5.248Y-3.1594
X5.2795Y-3.0315
X5.311Y-3.1594
X5.3408Y-3.0315
X5.374Y-3.1594
X5.4045Y-3.0314
X5.437Y-3.1594
X5.4685Y-3.0315
X5.5Y-3.1594
X5.5315Y-3.0315
X5.563Y-3.1594
X5.5945Y-3.0315
X5.626Y-3.1594
X5.6575Y-3.0315
T2
X5.0709Y-2.5689
X5.6575Y-2.5689
T3
X5.1476Y-2.6654
X5.5807Y-2.6654
T0
M30
