G04 #@! TF.GenerationSoftware,KiCad,Pcbnew,(5.1.5)-3*
G04 #@! TF.CreationDate,2021-05-20T13:29:37-06:00*
G04 #@! TF.ProjectId,LoomConnector06,4c6f6f6d-436f-46e6-9e65-63746f723036,rev?*
G04 #@! TF.SameCoordinates,Original*
G04 #@! TF.FileFunction,Soldermask,Top*
G04 #@! TF.FilePolarity,Negative*
%FSLAX46Y46*%
G04 Gerber Fmt 4.6, Leading zero omitted, Abs format (unit mm)*
G04 Created by KiCad (PCBNEW (5.1.5)-3) date 2021-05-20 13:29:37*
%MOMM*%
%LPD*%
G04 APERTURE LIST*
%ADD10C,0.600000*%
%ADD11C,0.100000*%
G04 APERTURE END LIST*
D10*
X141600000Y-80250000D02*
G75*
G03X141600000Y-80250000I-300000J0D01*
G01*
X143200000Y-80250000D02*
G75*
G03X143200000Y-80250000I-300000J0D01*
G01*
X140000000Y-80250000D02*
G75*
G03X140000000Y-80250000I-300000J0D01*
G01*
X128800000Y-80250000D02*
G75*
G03X128800000Y-80250000I-300000J0D01*
G01*
X138400000Y-80250000D02*
G75*
G03X138400000Y-80250000I-300000J0D01*
G01*
X136800000Y-80250000D02*
G75*
G03X136800000Y-80250000I-300000J0D01*
G01*
X135200000Y-80250000D02*
G75*
G03X135200000Y-80250000I-300000J0D01*
G01*
X133600000Y-80250000D02*
G75*
G03X133600000Y-80250000I-300000J0D01*
G01*
X132000000Y-80250000D02*
G75*
G03X132000000Y-80250000I-300000J0D01*
G01*
X130400000Y-80250000D02*
G75*
G03X130400000Y-80250000I-300000J0D01*
G01*
X129600000Y-77000000D02*
G75*
G03X129600000Y-77000000I-300000J0D01*
G01*
X144000000Y-77000000D02*
G75*
G03X144000000Y-77000000I-300000J0D01*
G01*
X142400000Y-77000000D02*
G75*
G03X142400000Y-77000000I-300000J0D01*
G01*
X140800000Y-77000000D02*
G75*
G03X140800000Y-77000000I-300000J0D01*
G01*
X139200000Y-77000000D02*
G75*
G03X139200000Y-77000000I-300000J0D01*
G01*
X137600000Y-77000000D02*
G75*
G03X137600000Y-77000000I-300000J0D01*
G01*
X136000000Y-77000000D02*
G75*
G03X136000000Y-77000000I-300000J0D01*
G01*
X134400000Y-77000000D02*
G75*
G03X134400000Y-77000000I-300000J0D01*
G01*
X132800000Y-77000000D02*
G75*
G03X132800000Y-77000000I-300000J0D01*
G01*
X131200000Y-77000000D02*
G75*
G03X131200000Y-77000000I-300000J0D01*
G01*
D11*
G36*
X143300000Y-82150000D02*
G01*
X142500000Y-82150000D01*
X142500000Y-80350000D01*
X143300000Y-80350000D01*
X143300000Y-82150000D01*
G37*
G36*
X141700000Y-82150000D02*
G01*
X140900000Y-82150000D01*
X140900000Y-80350000D01*
X141700000Y-80350000D01*
X141700000Y-82150000D01*
G37*
G36*
X140100000Y-82150000D02*
G01*
X139300000Y-82150000D01*
X139300000Y-80350000D01*
X140100000Y-80350000D01*
X140100000Y-82150000D01*
G37*
G36*
X138500000Y-82150000D02*
G01*
X137700000Y-82150000D01*
X137700000Y-80350000D01*
X138500000Y-80350000D01*
X138500000Y-82150000D01*
G37*
G36*
X136900000Y-82150000D02*
G01*
X136100000Y-82150000D01*
X136100000Y-80350000D01*
X136900000Y-80350000D01*
X136900000Y-82150000D01*
G37*
G36*
X135300000Y-82150000D02*
G01*
X134500000Y-82150000D01*
X134500000Y-80350000D01*
X135300000Y-80350000D01*
X135300000Y-82150000D01*
G37*
G36*
X133700000Y-82150000D02*
G01*
X132900000Y-82150000D01*
X132900000Y-80350000D01*
X133700000Y-80350000D01*
X133700000Y-82150000D01*
G37*
G36*
X132100000Y-82150000D02*
G01*
X131300000Y-82150000D01*
X131300000Y-80350000D01*
X132100000Y-80350000D01*
X132100000Y-82150000D01*
G37*
G36*
X130500000Y-82150000D02*
G01*
X129700000Y-82150000D01*
X129700000Y-80350000D01*
X130500000Y-80350000D01*
X130500000Y-82150000D01*
G37*
G36*
X144100000Y-78900000D02*
G01*
X143300000Y-78900000D01*
X143300000Y-77100000D01*
X144100000Y-77100000D01*
X144100000Y-78900000D01*
G37*
G36*
X142500000Y-78900000D02*
G01*
X141700000Y-78900000D01*
X141700000Y-77100000D01*
X142500000Y-77100000D01*
X142500000Y-78900000D01*
G37*
G36*
X140900000Y-78900000D02*
G01*
X140100000Y-78900000D01*
X140100000Y-77100000D01*
X140900000Y-77100000D01*
X140900000Y-78900000D01*
G37*
G36*
X139300000Y-78900000D02*
G01*
X138500000Y-78900000D01*
X138500000Y-77100000D01*
X139300000Y-77100000D01*
X139300000Y-78900000D01*
G37*
G36*
X137700000Y-78900000D02*
G01*
X136900000Y-78900000D01*
X136900000Y-77100000D01*
X137700000Y-77100000D01*
X137700000Y-78900000D01*
G37*
G36*
X136100000Y-78900000D02*
G01*
X135300000Y-78900000D01*
X135300000Y-77100000D01*
X136100000Y-77100000D01*
X136100000Y-78900000D01*
G37*
G36*
X134500000Y-78900000D02*
G01*
X133700000Y-78900000D01*
X133700000Y-77100000D01*
X134500000Y-77100000D01*
X134500000Y-78900000D01*
G37*
G36*
X132900000Y-78900000D02*
G01*
X132100000Y-78900000D01*
X132100000Y-77100000D01*
X132900000Y-77100000D01*
X132900000Y-78900000D01*
G37*
G36*
X131300000Y-78900000D02*
G01*
X130500000Y-78900000D01*
X130500000Y-77100000D01*
X131300000Y-77100000D01*
X131300000Y-78900000D01*
G37*
G36*
X128900000Y-81650000D02*
G01*
X128100000Y-81650000D01*
X128100000Y-79850000D01*
X128900000Y-79850000D01*
X128900000Y-81650000D01*
G37*
G36*
X129700000Y-78900000D02*
G01*
X128900000Y-78900000D01*
X128900000Y-77100000D01*
X129700000Y-77100000D01*
X129700000Y-78900000D01*
G37*
G36*
X141150000Y-73400000D02*
G01*
X131350000Y-73400000D01*
X131350000Y-71600000D01*
X141150000Y-71600000D01*
X141150000Y-73400000D01*
G37*
G36*
X141150000Y-70650000D02*
G01*
X131350000Y-70650000D01*
X131350000Y-68850000D01*
X141150000Y-68850000D01*
X141150000Y-70650000D01*
G37*
G36*
X142012520Y-66834586D02*
G01*
X142176310Y-66902430D01*
X142323717Y-67000924D01*
X142449076Y-67126283D01*
X142547570Y-67273690D01*
X142615414Y-67437480D01*
X142650000Y-67611358D01*
X142650000Y-67788642D01*
X142615414Y-67962520D01*
X142547570Y-68126310D01*
X142449076Y-68273717D01*
X142323717Y-68399076D01*
X142176310Y-68497570D01*
X142176309Y-68497571D01*
X142176308Y-68497571D01*
X142012520Y-68565414D01*
X141838644Y-68600000D01*
X141661356Y-68600000D01*
X141487480Y-68565414D01*
X141323692Y-68497571D01*
X141323691Y-68497571D01*
X141323690Y-68497570D01*
X141176283Y-68399076D01*
X141050924Y-68273717D01*
X140952430Y-68126310D01*
X140884586Y-67962520D01*
X140850000Y-67788642D01*
X140850000Y-67611358D01*
X140884586Y-67437480D01*
X140952430Y-67273690D01*
X141050924Y-67126283D01*
X141176283Y-67000924D01*
X141323690Y-66902430D01*
X141487480Y-66834586D01*
X141661356Y-66800000D01*
X141838644Y-66800000D01*
X142012520Y-66834586D01*
G37*
G36*
X131012520Y-66834586D02*
G01*
X131176310Y-66902430D01*
X131323717Y-67000924D01*
X131449076Y-67126283D01*
X131547570Y-67273690D01*
X131615414Y-67437480D01*
X131650000Y-67611358D01*
X131650000Y-67788642D01*
X131615414Y-67962520D01*
X131547570Y-68126310D01*
X131449076Y-68273717D01*
X131323717Y-68399076D01*
X131176310Y-68497570D01*
X131176309Y-68497571D01*
X131176308Y-68497571D01*
X131012520Y-68565414D01*
X130838644Y-68600000D01*
X130661356Y-68600000D01*
X130487480Y-68565414D01*
X130323692Y-68497571D01*
X130323691Y-68497571D01*
X130323690Y-68497570D01*
X130176283Y-68399076D01*
X130050924Y-68273717D01*
X129952430Y-68126310D01*
X129884586Y-67962520D01*
X129850000Y-67788642D01*
X129850000Y-67611358D01*
X129884586Y-67437480D01*
X129952430Y-67273690D01*
X130050924Y-67126283D01*
X130176283Y-67000924D01*
X130323690Y-66902430D01*
X130487480Y-66834586D01*
X130661356Y-66800000D01*
X130838644Y-66800000D01*
X131012520Y-66834586D01*
G37*
G36*
X143875013Y-64673057D02*
G01*
X143984206Y-64718286D01*
X144082477Y-64783949D01*
X144166051Y-64867523D01*
X144231714Y-64965794D01*
X144276943Y-65074987D01*
X144300000Y-65190904D01*
X144300000Y-65309096D01*
X144276943Y-65425013D01*
X144231714Y-65534206D01*
X144166051Y-65632477D01*
X144082477Y-65716051D01*
X143984206Y-65781714D01*
X143875013Y-65826943D01*
X143759096Y-65850000D01*
X143640904Y-65850000D01*
X143524987Y-65826943D01*
X143415794Y-65781714D01*
X143317523Y-65716051D01*
X143233949Y-65632477D01*
X143168286Y-65534206D01*
X143123057Y-65425013D01*
X143100000Y-65309096D01*
X143100000Y-65190904D01*
X143123057Y-65074987D01*
X143168286Y-64965794D01*
X143233949Y-64867523D01*
X143317523Y-64783949D01*
X143415794Y-64718286D01*
X143524987Y-64673057D01*
X143640904Y-64650000D01*
X143759096Y-64650000D01*
X143875013Y-64673057D01*
G37*
G36*
X128975013Y-64673057D02*
G01*
X129084206Y-64718286D01*
X129182477Y-64783949D01*
X129266051Y-64867523D01*
X129331714Y-64965794D01*
X129376943Y-65074987D01*
X129400000Y-65190904D01*
X129400000Y-65309096D01*
X129376943Y-65425013D01*
X129331714Y-65534206D01*
X129266051Y-65632477D01*
X129182477Y-65716051D01*
X129084206Y-65781714D01*
X128975013Y-65826943D01*
X128859096Y-65850000D01*
X128740904Y-65850000D01*
X128624987Y-65826943D01*
X128515794Y-65781714D01*
X128417523Y-65716051D01*
X128333949Y-65632477D01*
X128268286Y-65534206D01*
X128223057Y-65425013D01*
X128200000Y-65309096D01*
X128200000Y-65190904D01*
X128223057Y-65074987D01*
X128268286Y-64965794D01*
X128333949Y-64867523D01*
X128417523Y-64783949D01*
X128515794Y-64718286D01*
X128624987Y-64673057D01*
X128740904Y-64650000D01*
X128859096Y-64650000D01*
X128975013Y-64673057D01*
G37*
M02*
