G04 #@! TF.GenerationSoftware,KiCad,Pcbnew,(5.1.5)-3*
G04 #@! TF.CreationDate,2021-05-20T13:29:37-06:00*
G04 #@! TF.ProjectId,LoomConnector06,4c6f6f6d-436f-46e6-9e65-63746f723036,rev?*
G04 #@! TF.SameCoordinates,Original*
G04 #@! TF.FileFunction,Legend,Bot*
G04 #@! TF.FilePolarity,Positive*
%FSLAX46Y46*%
G04 Gerber Fmt 4.6, Leading zero omitted, Abs format (unit mm)*
G04 Created by KiCad (PCBNEW (5.1.5)-3) date 2021-05-20 13:29:37*
%MOMM*%
%LPD*%
G04 APERTURE LIST*
%ADD10C,0.150000*%
G04 APERTURE END LIST*
D10*
X142226190Y-84302380D02*
X142702380Y-84302380D01*
X142702380Y-83302380D01*
X141750000Y-84302380D02*
X141845238Y-84254761D01*
X141892857Y-84207142D01*
X141940476Y-84111904D01*
X141940476Y-83826190D01*
X141892857Y-83730952D01*
X141845238Y-83683333D01*
X141750000Y-83635714D01*
X141607142Y-83635714D01*
X141511904Y-83683333D01*
X141464285Y-83730952D01*
X141416666Y-83826190D01*
X141416666Y-84111904D01*
X141464285Y-84207142D01*
X141511904Y-84254761D01*
X141607142Y-84302380D01*
X141750000Y-84302380D01*
X140845238Y-84302380D02*
X140940476Y-84254761D01*
X140988095Y-84207142D01*
X141035714Y-84111904D01*
X141035714Y-83826190D01*
X140988095Y-83730952D01*
X140940476Y-83683333D01*
X140845238Y-83635714D01*
X140702380Y-83635714D01*
X140607142Y-83683333D01*
X140559523Y-83730952D01*
X140511904Y-83826190D01*
X140511904Y-84111904D01*
X140559523Y-84207142D01*
X140607142Y-84254761D01*
X140702380Y-84302380D01*
X140845238Y-84302380D01*
X140083333Y-84302380D02*
X140083333Y-83635714D01*
X140083333Y-83730952D02*
X140035714Y-83683333D01*
X139940476Y-83635714D01*
X139797619Y-83635714D01*
X139702380Y-83683333D01*
X139654761Y-83778571D01*
X139654761Y-84302380D01*
X139654761Y-83778571D02*
X139607142Y-83683333D01*
X139511904Y-83635714D01*
X139369047Y-83635714D01*
X139273809Y-83683333D01*
X139226190Y-83778571D01*
X139226190Y-84302380D01*
X138178571Y-84207142D02*
X138226190Y-84254761D01*
X138369047Y-84302380D01*
X138464285Y-84302380D01*
X138607142Y-84254761D01*
X138702380Y-84159523D01*
X138750000Y-84064285D01*
X138797619Y-83873809D01*
X138797619Y-83730952D01*
X138750000Y-83540476D01*
X138702380Y-83445238D01*
X138607142Y-83350000D01*
X138464285Y-83302380D01*
X138369047Y-83302380D01*
X138226190Y-83350000D01*
X138178571Y-83397619D01*
X137607142Y-84302380D02*
X137702380Y-84254761D01*
X137750000Y-84207142D01*
X137797619Y-84111904D01*
X137797619Y-83826190D01*
X137750000Y-83730952D01*
X137702380Y-83683333D01*
X137607142Y-83635714D01*
X137464285Y-83635714D01*
X137369047Y-83683333D01*
X137321428Y-83730952D01*
X137273809Y-83826190D01*
X137273809Y-84111904D01*
X137321428Y-84207142D01*
X137369047Y-84254761D01*
X137464285Y-84302380D01*
X137607142Y-84302380D01*
X136845238Y-83635714D02*
X136845238Y-84302380D01*
X136845238Y-83730952D02*
X136797619Y-83683333D01*
X136702380Y-83635714D01*
X136559523Y-83635714D01*
X136464285Y-83683333D01*
X136416666Y-83778571D01*
X136416666Y-84302380D01*
X135940476Y-83635714D02*
X135940476Y-84302380D01*
X135940476Y-83730952D02*
X135892857Y-83683333D01*
X135797619Y-83635714D01*
X135654761Y-83635714D01*
X135559523Y-83683333D01*
X135511904Y-83778571D01*
X135511904Y-84302380D01*
X134654761Y-84254761D02*
X134750000Y-84302380D01*
X134940476Y-84302380D01*
X135035714Y-84254761D01*
X135083333Y-84159523D01*
X135083333Y-83778571D01*
X135035714Y-83683333D01*
X134940476Y-83635714D01*
X134750000Y-83635714D01*
X134654761Y-83683333D01*
X134607142Y-83778571D01*
X134607142Y-83873809D01*
X135083333Y-83969047D01*
X133750000Y-84254761D02*
X133845238Y-84302380D01*
X134035714Y-84302380D01*
X134130952Y-84254761D01*
X134178571Y-84207142D01*
X134226190Y-84111904D01*
X134226190Y-83826190D01*
X134178571Y-83730952D01*
X134130952Y-83683333D01*
X134035714Y-83635714D01*
X133845238Y-83635714D01*
X133750000Y-83683333D01*
X133464285Y-83635714D02*
X133083333Y-83635714D01*
X133321428Y-83302380D02*
X133321428Y-84159523D01*
X133273809Y-84254761D01*
X133178571Y-84302380D01*
X133083333Y-84302380D01*
X132607142Y-84302380D02*
X132702380Y-84254761D01*
X132750000Y-84207142D01*
X132797619Y-84111904D01*
X132797619Y-83826190D01*
X132750000Y-83730952D01*
X132702380Y-83683333D01*
X132607142Y-83635714D01*
X132464285Y-83635714D01*
X132369047Y-83683333D01*
X132321428Y-83730952D01*
X132273809Y-83826190D01*
X132273809Y-84111904D01*
X132321428Y-84207142D01*
X132369047Y-84254761D01*
X132464285Y-84302380D01*
X132607142Y-84302380D01*
X131845238Y-84302380D02*
X131845238Y-83635714D01*
X131845238Y-83826190D02*
X131797619Y-83730952D01*
X131750000Y-83683333D01*
X131654761Y-83635714D01*
X131559523Y-83635714D01*
X131035714Y-83302380D02*
X130940476Y-83302380D01*
X130845238Y-83350000D01*
X130797619Y-83397619D01*
X130750000Y-83492857D01*
X130702380Y-83683333D01*
X130702380Y-83921428D01*
X130750000Y-84111904D01*
X130797619Y-84207142D01*
X130845238Y-84254761D01*
X130940476Y-84302380D01*
X131035714Y-84302380D01*
X131130952Y-84254761D01*
X131178571Y-84207142D01*
X131226190Y-84111904D01*
X131273809Y-83921428D01*
X131273809Y-83683333D01*
X131226190Y-83492857D01*
X131178571Y-83397619D01*
X131130952Y-83350000D01*
X131035714Y-83302380D01*
X129845238Y-83302380D02*
X130035714Y-83302380D01*
X130130952Y-83350000D01*
X130178571Y-83397619D01*
X130273809Y-83540476D01*
X130321428Y-83730952D01*
X130321428Y-84111904D01*
X130273809Y-84207142D01*
X130226190Y-84254761D01*
X130130952Y-84302380D01*
X129940476Y-84302380D01*
X129845238Y-84254761D01*
X129797619Y-84207142D01*
X129750000Y-84111904D01*
X129750000Y-83873809D01*
X129797619Y-83778571D01*
X129845238Y-83730952D01*
X129940476Y-83683333D01*
X130130952Y-83683333D01*
X130226190Y-83730952D01*
X130273809Y-83778571D01*
X130321428Y-83873809D01*
X142654761Y-85666666D02*
X142178571Y-85666666D01*
X142750000Y-85952380D02*
X142416666Y-84952380D01*
X142083333Y-85952380D01*
X141321428Y-85952380D02*
X141321428Y-84952380D01*
X141321428Y-85904761D02*
X141416666Y-85952380D01*
X141607142Y-85952380D01*
X141702380Y-85904761D01*
X141750000Y-85857142D01*
X141797619Y-85761904D01*
X141797619Y-85476190D01*
X141750000Y-85380952D01*
X141702380Y-85333333D01*
X141607142Y-85285714D01*
X141416666Y-85285714D01*
X141321428Y-85333333D01*
X140416666Y-85952380D02*
X140416666Y-85428571D01*
X140464285Y-85333333D01*
X140559523Y-85285714D01*
X140750000Y-85285714D01*
X140845238Y-85333333D01*
X140416666Y-85904761D02*
X140511904Y-85952380D01*
X140750000Y-85952380D01*
X140845238Y-85904761D01*
X140892857Y-85809523D01*
X140892857Y-85714285D01*
X140845238Y-85619047D01*
X140750000Y-85571428D01*
X140511904Y-85571428D01*
X140416666Y-85523809D01*
X139940476Y-85952380D02*
X139940476Y-85285714D01*
X139940476Y-85380952D02*
X139892857Y-85333333D01*
X139797619Y-85285714D01*
X139654761Y-85285714D01*
X139559523Y-85333333D01*
X139511904Y-85428571D01*
X139511904Y-85952380D01*
X139511904Y-85428571D02*
X139464285Y-85333333D01*
X139369047Y-85285714D01*
X139226190Y-85285714D01*
X139130952Y-85333333D01*
X139083333Y-85428571D01*
X139083333Y-85952380D01*
X137845238Y-85952380D02*
X137845238Y-84952380D01*
X137511904Y-85666666D01*
X137178571Y-84952380D01*
X137178571Y-85952380D01*
X136273809Y-85904761D02*
X136369047Y-85952380D01*
X136559523Y-85952380D01*
X136654761Y-85904761D01*
X136702380Y-85857142D01*
X136750000Y-85761904D01*
X136750000Y-85476190D01*
X136702380Y-85380952D01*
X136654761Y-85333333D01*
X136559523Y-85285714D01*
X136369047Y-85285714D01*
X136273809Y-85333333D01*
X135273809Y-85857142D02*
X135321428Y-85904761D01*
X135464285Y-85952380D01*
X135559523Y-85952380D01*
X135702380Y-85904761D01*
X135797619Y-85809523D01*
X135845238Y-85714285D01*
X135892857Y-85523809D01*
X135892857Y-85380952D01*
X135845238Y-85190476D01*
X135797619Y-85095238D01*
X135702380Y-85000000D01*
X135559523Y-84952380D01*
X135464285Y-84952380D01*
X135321428Y-85000000D01*
X135273809Y-85047619D01*
X134416666Y-85952380D02*
X134416666Y-85428571D01*
X134464285Y-85333333D01*
X134559523Y-85285714D01*
X134750000Y-85285714D01*
X134845238Y-85333333D01*
X134416666Y-85904761D02*
X134511904Y-85952380D01*
X134750000Y-85952380D01*
X134845238Y-85904761D01*
X134892857Y-85809523D01*
X134892857Y-85714285D01*
X134845238Y-85619047D01*
X134750000Y-85571428D01*
X134511904Y-85571428D01*
X134416666Y-85523809D01*
X133511904Y-85285714D02*
X133511904Y-85952380D01*
X133940476Y-85285714D02*
X133940476Y-85809523D01*
X133892857Y-85904761D01*
X133797619Y-85952380D01*
X133654761Y-85952380D01*
X133559523Y-85904761D01*
X133511904Y-85857142D01*
X132607142Y-85285714D02*
X132607142Y-86095238D01*
X132654761Y-86190476D01*
X132702380Y-86238095D01*
X132797619Y-86285714D01*
X132940476Y-86285714D01*
X133035714Y-86238095D01*
X132607142Y-85904761D02*
X132702380Y-85952380D01*
X132892857Y-85952380D01*
X132988095Y-85904761D01*
X133035714Y-85857142D01*
X133083333Y-85761904D01*
X133083333Y-85476190D01*
X133035714Y-85380952D01*
X132988095Y-85333333D01*
X132892857Y-85285714D01*
X132702380Y-85285714D01*
X132607142Y-85333333D01*
X132130952Y-85952380D02*
X132130952Y-84952380D01*
X131702380Y-85952380D02*
X131702380Y-85428571D01*
X131750000Y-85333333D01*
X131845238Y-85285714D01*
X131988095Y-85285714D01*
X132083333Y-85333333D01*
X132130952Y-85380952D01*
X130797619Y-85952380D02*
X130797619Y-85428571D01*
X130845238Y-85333333D01*
X130940476Y-85285714D01*
X131130952Y-85285714D01*
X131226190Y-85333333D01*
X130797619Y-85904761D02*
X130892857Y-85952380D01*
X131130952Y-85952380D01*
X131226190Y-85904761D01*
X131273809Y-85809523D01*
X131273809Y-85714285D01*
X131226190Y-85619047D01*
X131130952Y-85571428D01*
X130892857Y-85571428D01*
X130797619Y-85523809D01*
X130321428Y-85285714D02*
X130321428Y-85952380D01*
X130321428Y-85380952D02*
X130273809Y-85333333D01*
X130178571Y-85285714D01*
X130035714Y-85285714D01*
X129940476Y-85333333D01*
X129892857Y-85428571D01*
X129892857Y-85952380D01*
X139702380Y-87602380D02*
X139702380Y-86602380D01*
X139369047Y-87316666D01*
X139035714Y-86602380D01*
X139035714Y-87602380D01*
X138130952Y-87602380D02*
X138130952Y-87078571D01*
X138178571Y-86983333D01*
X138273809Y-86935714D01*
X138464285Y-86935714D01*
X138559523Y-86983333D01*
X138130952Y-87554761D02*
X138226190Y-87602380D01*
X138464285Y-87602380D01*
X138559523Y-87554761D01*
X138607142Y-87459523D01*
X138607142Y-87364285D01*
X138559523Y-87269047D01*
X138464285Y-87221428D01*
X138226190Y-87221428D01*
X138130952Y-87173809D01*
X137750000Y-86935714D02*
X137511904Y-87602380D01*
X137273809Y-86935714D02*
X137511904Y-87602380D01*
X137607142Y-87840476D01*
X137654761Y-87888095D01*
X137750000Y-87935714D01*
X136178571Y-86697619D02*
X136130952Y-86650000D01*
X136035714Y-86602380D01*
X135797619Y-86602380D01*
X135702380Y-86650000D01*
X135654761Y-86697619D01*
X135607142Y-86792857D01*
X135607142Y-86888095D01*
X135654761Y-87030952D01*
X136226190Y-87602380D01*
X135607142Y-87602380D01*
X134988095Y-86602380D02*
X134892857Y-86602380D01*
X134797619Y-86650000D01*
X134750000Y-86697619D01*
X134702380Y-86792857D01*
X134654761Y-86983333D01*
X134654761Y-87221428D01*
X134702380Y-87411904D01*
X134750000Y-87507142D01*
X134797619Y-87554761D01*
X134892857Y-87602380D01*
X134988095Y-87602380D01*
X135083333Y-87554761D01*
X135130952Y-87507142D01*
X135178571Y-87411904D01*
X135226190Y-87221428D01*
X135226190Y-86983333D01*
X135178571Y-86792857D01*
X135130952Y-86697619D01*
X135083333Y-86650000D01*
X134988095Y-86602380D01*
X134273809Y-86697619D02*
X134226190Y-86650000D01*
X134130952Y-86602380D01*
X133892857Y-86602380D01*
X133797619Y-86650000D01*
X133750000Y-86697619D01*
X133702380Y-86792857D01*
X133702380Y-86888095D01*
X133750000Y-87030952D01*
X134321428Y-87602380D01*
X133702380Y-87602380D01*
X132750000Y-87602380D02*
X133321428Y-87602380D01*
X133035714Y-87602380D02*
X133035714Y-86602380D01*
X133130952Y-86745238D01*
X133226190Y-86840476D01*
X133321428Y-86888095D01*
M02*
