%TF.GenerationSoftware,KiCad,Pcbnew,(5.1.9)-1*%
%TF.CreationDate,2021-08-06T16:06:23-06:00*%
%TF.ProjectId,VacuumFeedThruHDMI,56616375-756d-4466-9565-645468727548,rev?*%
%TF.SameCoordinates,Original*%
%TF.FileFunction,Legend,Bot*%
%TF.FilePolarity,Positive*%
%FSLAX46Y46*%
G04 Gerber Fmt 4.6, Leading zero omitted, Abs format (unit mm)*
G04 Created by KiCad (PCBNEW (5.1.9)-1) date 2021-08-06 16:06:23*
%MOMM*%
%LPD*%
G01*
G04 APERTURE LIST*
%ADD10C,0.150000*%
G04 APERTURE END LIST*
D10*
%TO.C,J1*%
X-8080000Y11040000D02*
X-9080000Y12040000D01*
X-9080000Y12040000D02*
X-9080000Y14060000D01*
X-9080000Y14060000D02*
X9080000Y14060000D01*
X9080000Y14060000D02*
X9080000Y11040000D01*
X9080000Y11040000D02*
X-8080000Y11040000D01*
%TO.C,J2*%
X-8080000Y-2060000D02*
X-9080000Y-1060000D01*
X-9080000Y-1060000D02*
X-9080000Y960000D01*
X-9080000Y960000D02*
X9080000Y960000D01*
X9080000Y960000D02*
X9080000Y-2060000D01*
X9080000Y-2060000D02*
X-8080000Y-2060000D01*
%TO.C,J3*%
X-8080000Y-15060000D02*
X-9080000Y-14060000D01*
X-9080000Y-14060000D02*
X-9080000Y-12040000D01*
X-9080000Y-12040000D02*
X9080000Y-12040000D01*
X9080000Y-12040000D02*
X9080000Y-15060000D01*
X9080000Y-15060000D02*
X-8080000Y-15060000D01*
%TO.C,J1*%
X400000Y15917142D02*
X400000Y15060000D01*
X457142Y14888571D01*
X571428Y14774285D01*
X742857Y14717142D01*
X857142Y14717142D01*
X-799999Y14717142D02*
X-114285Y14717142D01*
X-457142Y14717142D02*
X-457142Y15917142D01*
X-342857Y15745714D01*
X-228571Y15631428D01*
X-114285Y15574285D01*
X-7905714Y9557619D02*
X-7334285Y9557619D01*
X-7619999Y9557619D02*
X-7619999Y10557619D01*
X-7524761Y10414761D01*
X-7429523Y10319523D01*
X-7334285Y10271904D01*
%TO.C,J2*%
X400000Y2817142D02*
X400000Y1960000D01*
X457142Y1788571D01*
X571428Y1674285D01*
X742857Y1617142D01*
X857142Y1617142D01*
X-114285Y2702857D02*
X-171428Y2760000D01*
X-285714Y2817142D01*
X-571428Y2817142D01*
X-685714Y2760000D01*
X-742857Y2702857D01*
X-799999Y2588571D01*
X-799999Y2474285D01*
X-742857Y2302857D01*
X-57142Y1617142D01*
X-799999Y1617142D01*
%TO.C,J3*%
X400000Y-10182857D02*
X400000Y-11040000D01*
X457142Y-11211428D01*
X571428Y-11325714D01*
X742857Y-11382857D01*
X857142Y-11382857D01*
X-57142Y-10182857D02*
X-799999Y-10182857D01*
X-399999Y-10640000D01*
X-571428Y-10640000D01*
X-685714Y-10697142D01*
X-742857Y-10754285D01*
X-799999Y-10868571D01*
X-799999Y-11154285D01*
X-742857Y-11268571D01*
X-685714Y-11325714D01*
X-571428Y-11382857D01*
X-228571Y-11382857D01*
X-114285Y-11325714D01*
X-57142Y-11268571D01*
X-7905714Y-16542380D02*
X-7334285Y-16542380D01*
X-7619999Y-16542380D02*
X-7619999Y-15542380D01*
X-7524761Y-15685238D01*
X-7429523Y-15780476D01*
X-7334285Y-15828095D01*
%TD*%
M02*
