%TF.GenerationSoftware,KiCad,Pcbnew,(5.1.9)-1*%
%TF.CreationDate,2021-08-11T17:59:35-06:00*%
%TF.ProjectId,VacuumFeedThruHDMI,56616375-756d-4466-9565-645468727548,rev?*%
%TF.SameCoordinates,Original*%
%TF.FileFunction,Legend,Top*%
%TF.FilePolarity,Positive*%
%FSLAX46Y46*%
G04 Gerber Fmt 4.6, Leading zero omitted, Abs format (unit mm)*
G04 Created by KiCad (PCBNEW (5.1.9)-1) date 2021-08-11 17:59:35*
%MOMM*%
%LPD*%
G01*
G04 APERTURE LIST*
%ADD10C,0.300000*%
%ADD11C,0.120000*%
%ADD12C,0.254000*%
%ADD13C,0.500000*%
%ADD14C,0.152000*%
%ADD15C,0.150000*%
%ADD16O,4.500000X1.500000*%
%ADD17C,0.800000*%
%ADD18O,2.810000X2.810000*%
%ADD19O,0.920000X0.920000*%
%ADD20O,1.500000X4.500000*%
%ADD21C,10.000000*%
%ADD22C,0.100000*%
G04 APERTURE END LIST*
D10*
X-53242857Y48046428D02*
X-52742857Y46546428D01*
X-52242857Y48046428D01*
X-51100000Y46546428D02*
X-51100000Y47332142D01*
X-51171428Y47475000D01*
X-51314285Y47546428D01*
X-51600000Y47546428D01*
X-51742857Y47475000D01*
X-51100000Y46617857D02*
X-51242857Y46546428D01*
X-51600000Y46546428D01*
X-51742857Y46617857D01*
X-51814285Y46760714D01*
X-51814285Y46903571D01*
X-51742857Y47046428D01*
X-51600000Y47117857D01*
X-51242857Y47117857D01*
X-51100000Y47189285D01*
X-49742857Y46617857D02*
X-49885714Y46546428D01*
X-50171428Y46546428D01*
X-50314285Y46617857D01*
X-50385714Y46689285D01*
X-50457142Y46832142D01*
X-50457142Y47260714D01*
X-50385714Y47403571D01*
X-50314285Y47475000D01*
X-50171428Y47546428D01*
X-49885714Y47546428D01*
X-49742857Y47475000D01*
X-48457142Y47546428D02*
X-48457142Y46546428D01*
X-49100000Y47546428D02*
X-49100000Y46760714D01*
X-49028571Y46617857D01*
X-48885714Y46546428D01*
X-48671428Y46546428D01*
X-48528571Y46617857D01*
X-48457142Y46689285D01*
X-47100000Y47546428D02*
X-47100000Y46546428D01*
X-47742857Y47546428D02*
X-47742857Y46760714D01*
X-47671428Y46617857D01*
X-47528571Y46546428D01*
X-47314285Y46546428D01*
X-47171428Y46617857D01*
X-47100000Y46689285D01*
X-46385714Y46546428D02*
X-46385714Y47546428D01*
X-46385714Y47403571D02*
X-46314285Y47475000D01*
X-46171428Y47546428D01*
X-45957142Y47546428D01*
X-45814285Y47475000D01*
X-45742857Y47332142D01*
X-45742857Y46546428D01*
X-45742857Y47332142D02*
X-45671428Y47475000D01*
X-45528571Y47546428D01*
X-45314285Y47546428D01*
X-45171428Y47475000D01*
X-45100000Y47332142D01*
X-45100000Y46546428D01*
X-43885714Y47332142D02*
X-44385714Y47332142D01*
X-44385714Y46546428D02*
X-44385714Y48046428D01*
X-43671428Y48046428D01*
X-43314285Y48046428D02*
X-42457142Y48046428D01*
X-42885714Y46546428D02*
X-42885714Y48046428D01*
X-42314285Y46403571D02*
X-41171428Y46403571D01*
X-40814285Y46546428D02*
X-40814285Y48046428D01*
X-40814285Y47332142D02*
X-39957142Y47332142D01*
X-39957142Y46546428D02*
X-39957142Y48046428D01*
X-39242857Y46546428D02*
X-39242857Y48046428D01*
X-38885714Y48046428D01*
X-38671428Y47975000D01*
X-38528571Y47832142D01*
X-38457142Y47689285D01*
X-38385714Y47403571D01*
X-38385714Y47189285D01*
X-38457142Y46903571D01*
X-38528571Y46760714D01*
X-38671428Y46617857D01*
X-38885714Y46546428D01*
X-39242857Y46546428D01*
X-37742857Y46546428D02*
X-37742857Y48046428D01*
X-37242857Y46975000D01*
X-36742857Y48046428D01*
X-36742857Y46546428D01*
X-36028571Y46546428D02*
X-36028571Y48046428D01*
X-35671428Y46403571D02*
X-34528571Y46403571D01*
X-34385714Y48046428D02*
X-33885714Y46546428D01*
X-33385714Y48046428D01*
X-32100000Y46546428D02*
X-32957142Y46546428D01*
X-32528571Y46546428D02*
X-32528571Y48046428D01*
X-32671428Y47832142D01*
X-32814285Y47689285D01*
X-32957142Y47617857D01*
X-49457142Y44425000D02*
X-48742857Y44425000D01*
X-49600000Y43996428D02*
X-49100000Y45496428D01*
X-48600000Y43996428D01*
X-47457142Y44996428D02*
X-47457142Y43996428D01*
X-48100000Y44996428D02*
X-48100000Y44210714D01*
X-48028571Y44067857D01*
X-47885714Y43996428D01*
X-47671428Y43996428D01*
X-47528571Y44067857D01*
X-47457142Y44139285D01*
X-46100000Y44996428D02*
X-46100000Y43782142D01*
X-46171428Y43639285D01*
X-46242857Y43567857D01*
X-46385714Y43496428D01*
X-46600000Y43496428D01*
X-46742857Y43567857D01*
X-46100000Y44067857D02*
X-46242857Y43996428D01*
X-46528571Y43996428D01*
X-46671428Y44067857D01*
X-46742857Y44139285D01*
X-46814285Y44282142D01*
X-46814285Y44710714D01*
X-46742857Y44853571D01*
X-46671428Y44925000D01*
X-46528571Y44996428D01*
X-46242857Y44996428D01*
X-46100000Y44925000D01*
X-44742857Y44996428D02*
X-44742857Y43996428D01*
X-45385714Y44996428D02*
X-45385714Y44210714D01*
X-45314285Y44067857D01*
X-45171428Y43996428D01*
X-44957142Y43996428D01*
X-44814285Y44067857D01*
X-44742857Y44139285D01*
X-44100000Y44067857D02*
X-43957142Y43996428D01*
X-43671428Y43996428D01*
X-43528571Y44067857D01*
X-43457142Y44210714D01*
X-43457142Y44282142D01*
X-43528571Y44425000D01*
X-43671428Y44496428D01*
X-43885714Y44496428D01*
X-44028571Y44567857D01*
X-44100000Y44710714D01*
X-44100000Y44782142D01*
X-44028571Y44925000D01*
X-43885714Y44996428D01*
X-43671428Y44996428D01*
X-43528571Y44925000D01*
X-43028571Y44996428D02*
X-42457142Y44996428D01*
X-42814285Y45496428D02*
X-42814285Y44210714D01*
X-42742857Y44067857D01*
X-42600000Y43996428D01*
X-42457142Y43996428D01*
X-40885714Y45353571D02*
X-40814285Y45425000D01*
X-40671428Y45496428D01*
X-40314285Y45496428D01*
X-40171428Y45425000D01*
X-40100000Y45353571D01*
X-40028571Y45210714D01*
X-40028571Y45067857D01*
X-40100000Y44853571D01*
X-40957142Y43996428D01*
X-40028571Y43996428D01*
X-39100000Y45496428D02*
X-38957142Y45496428D01*
X-38814285Y45425000D01*
X-38742857Y45353571D01*
X-38671428Y45210714D01*
X-38600000Y44925000D01*
X-38600000Y44567857D01*
X-38671428Y44282142D01*
X-38742857Y44139285D01*
X-38814285Y44067857D01*
X-38957142Y43996428D01*
X-39100000Y43996428D01*
X-39242857Y44067857D01*
X-39314285Y44139285D01*
X-39385714Y44282142D01*
X-39457142Y44567857D01*
X-39457142Y44925000D01*
X-39385714Y45210714D01*
X-39314285Y45353571D01*
X-39242857Y45425000D01*
X-39100000Y45496428D01*
X-38028571Y45353571D02*
X-37957142Y45425000D01*
X-37814285Y45496428D01*
X-37457142Y45496428D01*
X-37314285Y45425000D01*
X-37242857Y45353571D01*
X-37171428Y45210714D01*
X-37171428Y45067857D01*
X-37242857Y44853571D01*
X-38100000Y43996428D01*
X-37171428Y43996428D01*
X-35742857Y43996428D02*
X-36600000Y43996428D01*
X-36171428Y43996428D02*
X-36171428Y45496428D01*
X-36314285Y45282142D01*
X-36457142Y45139285D01*
X-36600000Y45067857D01*
X-51457142Y41446428D02*
X-51957142Y42160714D01*
X-52314285Y41446428D02*
X-52314285Y42946428D01*
X-51742857Y42946428D01*
X-51600000Y42875000D01*
X-51528571Y42803571D01*
X-51457142Y42660714D01*
X-51457142Y42446428D01*
X-51528571Y42303571D01*
X-51600000Y42232142D01*
X-51742857Y42160714D01*
X-52314285Y42160714D01*
X-50957142Y42446428D02*
X-50600000Y41446428D01*
X-50242857Y42446428D02*
X-50600000Y41446428D01*
X-50742857Y41089285D01*
X-50814285Y41017857D01*
X-50957142Y40946428D01*
X-49028571Y41446428D02*
X-49028571Y42232142D01*
X-49100000Y42375000D01*
X-49242857Y42446428D01*
X-49528571Y42446428D01*
X-49671428Y42375000D01*
X-49028571Y41517857D02*
X-49171428Y41446428D01*
X-49528571Y41446428D01*
X-49671428Y41517857D01*
X-49742857Y41660714D01*
X-49742857Y41803571D01*
X-49671428Y41946428D01*
X-49528571Y42017857D01*
X-49171428Y42017857D01*
X-49028571Y42089285D01*
X-48314285Y42446428D02*
X-48314285Y41446428D01*
X-48314285Y42303571D02*
X-48242857Y42375000D01*
X-48100000Y42446428D01*
X-47885714Y42446428D01*
X-47742857Y42375000D01*
X-47671428Y42232142D01*
X-47671428Y41446428D01*
X-45814285Y41446428D02*
X-45814285Y42946428D01*
X-45314285Y41875000D01*
X-44814285Y42946428D01*
X-44814285Y41446428D01*
X-43885714Y41446428D02*
X-44028571Y41517857D01*
X-44100000Y41589285D01*
X-44171428Y41732142D01*
X-44171428Y42160714D01*
X-44100000Y42303571D01*
X-44028571Y42375000D01*
X-43885714Y42446428D01*
X-43671428Y42446428D01*
X-43528571Y42375000D01*
X-43457142Y42303571D01*
X-43385714Y42160714D01*
X-43385714Y41732142D01*
X-43457142Y41589285D01*
X-43528571Y41517857D01*
X-43671428Y41446428D01*
X-43885714Y41446428D01*
X-42742857Y41446428D02*
X-42742857Y42446428D01*
X-42742857Y42160714D02*
X-42671428Y42303571D01*
X-42600000Y42375000D01*
X-42457142Y42446428D01*
X-42314285Y42446428D01*
X-41171428Y42446428D02*
X-41171428Y41232142D01*
X-41242857Y41089285D01*
X-41314285Y41017857D01*
X-41457142Y40946428D01*
X-41671428Y40946428D01*
X-41814285Y41017857D01*
X-41171428Y41517857D02*
X-41314285Y41446428D01*
X-41600000Y41446428D01*
X-41742857Y41517857D01*
X-41814285Y41589285D01*
X-41885714Y41732142D01*
X-41885714Y42160714D01*
X-41814285Y42303571D01*
X-41742857Y42375000D01*
X-41600000Y42446428D01*
X-41314285Y42446428D01*
X-41171428Y42375000D01*
X-39885714Y41517857D02*
X-40028571Y41446428D01*
X-40314285Y41446428D01*
X-40457142Y41517857D01*
X-40528571Y41660714D01*
X-40528571Y42232142D01*
X-40457142Y42375000D01*
X-40314285Y42446428D01*
X-40028571Y42446428D01*
X-39885714Y42375000D01*
X-39814285Y42232142D01*
X-39814285Y42089285D01*
X-40528571Y41946428D01*
X-39171428Y42446428D02*
X-39171428Y41446428D01*
X-39171428Y42303571D02*
X-39100000Y42375000D01*
X-38957142Y42446428D01*
X-38742857Y42446428D01*
X-38600000Y42375000D01*
X-38528571Y42232142D01*
X-38528571Y41446428D01*
X-37885714Y41517857D02*
X-37742857Y41446428D01*
X-37457142Y41446428D01*
X-37314285Y41517857D01*
X-37242857Y41660714D01*
X-37242857Y41732142D01*
X-37314285Y41875000D01*
X-37457142Y41946428D01*
X-37671428Y41946428D01*
X-37814285Y42017857D01*
X-37885714Y42160714D01*
X-37885714Y42232142D01*
X-37814285Y42375000D01*
X-37671428Y42446428D01*
X-37457142Y42446428D01*
X-37314285Y42375000D01*
X-36814285Y42446428D02*
X-36242857Y42446428D01*
X-36600000Y42946428D02*
X-36600000Y41660714D01*
X-36528571Y41517857D01*
X-36385714Y41446428D01*
X-36242857Y41446428D01*
X-35171428Y41517857D02*
X-35314285Y41446428D01*
X-35600000Y41446428D01*
X-35742857Y41517857D01*
X-35814285Y41660714D01*
X-35814285Y42232142D01*
X-35742857Y42375000D01*
X-35600000Y42446428D01*
X-35314285Y42446428D01*
X-35171428Y42375000D01*
X-35100000Y42232142D01*
X-35100000Y42089285D01*
X-35814285Y41946428D01*
X-34457142Y41446428D02*
X-34457142Y42446428D01*
X-34457142Y42160714D02*
X-34385714Y42303571D01*
X-34314285Y42375000D01*
X-34171428Y42446428D01*
X-34028571Y42446428D01*
X-33528571Y42446428D02*
X-33528571Y41446428D01*
X-33528571Y42303571D02*
X-33457142Y42375000D01*
X-33314285Y42446428D01*
X-33100000Y42446428D01*
X-32957142Y42375000D01*
X-32885714Y42232142D01*
X-32885714Y41446428D01*
X-55135714Y39325000D02*
X-54421428Y39325000D01*
X-55278571Y38896428D02*
X-54778571Y40396428D01*
X-54278571Y38896428D01*
X-53778571Y38896428D02*
X-53778571Y39896428D01*
X-53778571Y39753571D02*
X-53707142Y39825000D01*
X-53564285Y39896428D01*
X-53349999Y39896428D01*
X-53207142Y39825000D01*
X-53135714Y39682142D01*
X-53135714Y38896428D01*
X-53135714Y39682142D02*
X-53064285Y39825000D01*
X-52921428Y39896428D01*
X-52707142Y39896428D01*
X-52564285Y39825000D01*
X-52492857Y39682142D01*
X-52492857Y38896428D01*
X-51778571Y38896428D02*
X-51778571Y40396428D01*
X-51778571Y39825000D02*
X-51635714Y39896428D01*
X-51350000Y39896428D01*
X-51207142Y39825000D01*
X-51135714Y39753571D01*
X-51064285Y39610714D01*
X-51064285Y39182142D01*
X-51135714Y39039285D01*
X-51207142Y38967857D01*
X-51350000Y38896428D01*
X-51635714Y38896428D01*
X-51778571Y38967857D01*
X-50421428Y38896428D02*
X-50421428Y39896428D01*
X-50421428Y40396428D02*
X-50492857Y40325000D01*
X-50421428Y40253571D01*
X-50350000Y40325000D01*
X-50421428Y40396428D01*
X-50421428Y40253571D01*
X-49135714Y38967857D02*
X-49278571Y38896428D01*
X-49564285Y38896428D01*
X-49707142Y38967857D01*
X-49778571Y39110714D01*
X-49778571Y39682142D01*
X-49707142Y39825000D01*
X-49564285Y39896428D01*
X-49278571Y39896428D01*
X-49135714Y39825000D01*
X-49064285Y39682142D01*
X-49064285Y39539285D01*
X-49778571Y39396428D01*
X-48421428Y39896428D02*
X-48421428Y38896428D01*
X-48421428Y39753571D02*
X-48350000Y39825000D01*
X-48207142Y39896428D01*
X-47992857Y39896428D01*
X-47850000Y39825000D01*
X-47778571Y39682142D01*
X-47778571Y38896428D01*
X-47278571Y39896428D02*
X-46707142Y39896428D01*
X-47064285Y40396428D02*
X-47064285Y39110714D01*
X-46992857Y38967857D01*
X-46850000Y38896428D01*
X-46707142Y38896428D01*
X-45064285Y38896428D02*
X-45064285Y40396428D01*
X-44492857Y40396428D01*
X-44350000Y40325000D01*
X-44278571Y40253571D01*
X-44207142Y40110714D01*
X-44207142Y39896428D01*
X-44278571Y39753571D01*
X-44350000Y39682142D01*
X-44492857Y39610714D01*
X-45064285Y39610714D01*
X-43564285Y38896428D02*
X-43564285Y39896428D01*
X-43564285Y39610714D02*
X-43492857Y39753571D01*
X-43421428Y39825000D01*
X-43278571Y39896428D01*
X-43135714Y39896428D01*
X-42064285Y38967857D02*
X-42207142Y38896428D01*
X-42492857Y38896428D01*
X-42635714Y38967857D01*
X-42707142Y39110714D01*
X-42707142Y39682142D01*
X-42635714Y39825000D01*
X-42492857Y39896428D01*
X-42207142Y39896428D01*
X-42064285Y39825000D01*
X-41992857Y39682142D01*
X-41992857Y39539285D01*
X-42707142Y39396428D01*
X-41421428Y38967857D02*
X-41278571Y38896428D01*
X-40992857Y38896428D01*
X-40850000Y38967857D01*
X-40778571Y39110714D01*
X-40778571Y39182142D01*
X-40850000Y39325000D01*
X-40992857Y39396428D01*
X-41207142Y39396428D01*
X-41350000Y39467857D01*
X-41421428Y39610714D01*
X-41421428Y39682142D01*
X-41350000Y39825000D01*
X-41207142Y39896428D01*
X-40992857Y39896428D01*
X-40850000Y39825000D01*
X-40207142Y38967857D02*
X-40064285Y38896428D01*
X-39778571Y38896428D01*
X-39635714Y38967857D01*
X-39564285Y39110714D01*
X-39564285Y39182142D01*
X-39635714Y39325000D01*
X-39778571Y39396428D01*
X-39992857Y39396428D01*
X-40135714Y39467857D01*
X-40207142Y39610714D01*
X-40207142Y39682142D01*
X-40135714Y39825000D01*
X-39992857Y39896428D01*
X-39778571Y39896428D01*
X-39635714Y39825000D01*
X-38278571Y39896428D02*
X-38278571Y38896428D01*
X-38921428Y39896428D02*
X-38921428Y39110714D01*
X-38849999Y38967857D01*
X-38707142Y38896428D01*
X-38492857Y38896428D01*
X-38350000Y38967857D01*
X-38278571Y39039285D01*
X-37564285Y38896428D02*
X-37564285Y39896428D01*
X-37564285Y39610714D02*
X-37492857Y39753571D01*
X-37421428Y39825000D01*
X-37278571Y39896428D01*
X-37135714Y39896428D01*
X-36064285Y38967857D02*
X-36207142Y38896428D01*
X-36492857Y38896428D01*
X-36635714Y38967857D01*
X-36707142Y39110714D01*
X-36707142Y39682142D01*
X-36635714Y39825000D01*
X-36492857Y39896428D01*
X-36207142Y39896428D01*
X-36064285Y39825000D01*
X-35992857Y39682142D01*
X-35992857Y39539285D01*
X-36707142Y39396428D01*
X-34278571Y38967857D02*
X-34064285Y38896428D01*
X-33707142Y38896428D01*
X-33564285Y38967857D01*
X-33492857Y39039285D01*
X-33421428Y39182142D01*
X-33421428Y39325000D01*
X-33492857Y39467857D01*
X-33564285Y39539285D01*
X-33707142Y39610714D01*
X-33992857Y39682142D01*
X-34135714Y39753571D01*
X-34207142Y39825000D01*
X-34278571Y39967857D01*
X-34278571Y40110714D01*
X-34207142Y40253571D01*
X-34135714Y40325000D01*
X-33992857Y40396428D01*
X-33635714Y40396428D01*
X-33421428Y40325000D01*
X-32778571Y38896428D02*
X-32778571Y39896428D01*
X-32778571Y40396428D02*
X-32849999Y40325000D01*
X-32778571Y40253571D01*
X-32707142Y40325000D01*
X-32778571Y40396428D01*
X-32778571Y40253571D01*
X-31421428Y38896428D02*
X-31421428Y40396428D01*
X-31421428Y38967857D02*
X-31564285Y38896428D01*
X-31849999Y38896428D01*
X-31992857Y38967857D01*
X-32064285Y39039285D01*
X-32135714Y39182142D01*
X-32135714Y39610714D01*
X-32064285Y39753571D01*
X-31992857Y39825000D01*
X-31849999Y39896428D01*
X-31564285Y39896428D01*
X-31421428Y39825000D01*
X-30135714Y38967857D02*
X-30278571Y38896428D01*
X-30564285Y38896428D01*
X-30707142Y38967857D01*
X-30778571Y39110714D01*
X-30778571Y39682142D01*
X-30707142Y39825000D01*
X-30564285Y39896428D01*
X-30278571Y39896428D01*
X-30135714Y39825000D01*
X-30064285Y39682142D01*
X-30064285Y39539285D01*
X-30778571Y39396428D01*
D11*
X14750000Y16250000D02*
X14750000Y8990000D01*
X-14860000Y16250000D02*
X14750000Y16250000D01*
X-14860000Y9000000D02*
X-14860000Y16250000D01*
X14800000Y-7750000D02*
X14800000Y-15250000D01*
X-14840000Y-15250000D02*
X14800000Y-15250000D01*
X-14840000Y-7750000D02*
X-14840000Y-15250000D01*
X14900000Y-3000000D02*
X-14840000Y-3110000D01*
X14900000Y4250000D02*
X14900000Y-3000000D01*
X-14800000Y4200000D02*
X14900000Y4250000D01*
X14800000Y-7750000D02*
X-14840000Y-7750000D01*
X21900000Y-50300000D02*
X14800000Y-7750000D01*
X-19000000Y-75700000D02*
X19000000Y-75700000D01*
X-14840000Y-7750000D02*
X-21900000Y-50300000D01*
X-14860000Y9000000D02*
X14840000Y8990000D01*
X-14800000Y4200000D02*
X-14840000Y-3110000D01*
X-55300000Y-22000000D02*
X-14840000Y-3110000D01*
X-80700000Y19000000D02*
X-80700000Y-19000000D01*
X-14800000Y4200000D02*
X-55300000Y22000000D01*
X-19000000Y75700000D02*
X19000000Y75700000D01*
X-14860000Y9000000D02*
X-21900000Y50300000D01*
X14840000Y8990000D02*
X21900000Y50300000D01*
%TO.C,J9*%
X22000000Y-50300000D02*
X22000000Y-75700000D01*
D12*
X14300000Y-71000000D02*
X17700000Y-71000000D01*
X17700000Y-55000000D02*
X14300000Y-55000000D01*
X13500000Y-70200000D02*
X13500000Y-55800000D01*
X18500000Y-55800000D02*
X18500000Y-70200000D01*
D11*
X22000000Y-75700000D02*
X10000000Y-75700000D01*
X22000000Y-50300000D02*
X10000000Y-50300000D01*
X10000000Y-50300000D02*
X10000000Y-75700000D01*
D12*
X17699391Y-70999077D02*
G75*
G03*
X18500000Y-70200000I-39391J840077D01*
G01*
X14300579Y-55000924D02*
G75*
G03*
X13500000Y-55800000I39421J-840076D01*
G01*
X13499923Y-70200391D02*
G75*
G03*
X14299000Y-71001000I840077J39391D01*
G01*
X18500076Y-55799579D02*
G75*
G03*
X17701000Y-54999000I-840076J-39421D01*
G01*
D11*
%TO.C,J7*%
X-10000000Y-50300000D02*
X-10000000Y-75700000D01*
D12*
X-17700000Y-71000000D02*
X-14300000Y-71000000D01*
X-14300000Y-55000000D02*
X-17700000Y-55000000D01*
X-18500000Y-70200000D02*
X-18500000Y-55800000D01*
X-13500000Y-55800000D02*
X-13500000Y-70200000D01*
D11*
X-10000000Y-75700000D02*
X-22000000Y-75700000D01*
X-10000000Y-50300000D02*
X-22000000Y-50300000D01*
X-22000000Y-50300000D02*
X-22000000Y-75700000D01*
D12*
X-14300609Y-70999077D02*
G75*
G03*
X-13500000Y-70200000I-39391J840077D01*
G01*
X-17699421Y-55000924D02*
G75*
G03*
X-18500000Y-55800000I39421J-840076D01*
G01*
X-18500077Y-70200391D02*
G75*
G03*
X-17701000Y-71001000I840077J39391D01*
G01*
X-13499924Y-55799579D02*
G75*
G03*
X-14299000Y-54999000I-840076J-39421D01*
G01*
D11*
%TO.C,J8*%
X6000000Y-50300000D02*
X6000000Y-75700000D01*
D12*
X-1700000Y-71000000D02*
X1700000Y-71000000D01*
X1700000Y-55000000D02*
X-1700000Y-55000000D01*
X-2500000Y-70200000D02*
X-2500000Y-55800000D01*
X2500000Y-55800000D02*
X2500000Y-70200000D01*
D11*
X6000000Y-75700000D02*
X-6000000Y-75700000D01*
X6000000Y-50300000D02*
X-6000000Y-50300000D01*
X-6000000Y-50300000D02*
X-6000000Y-75700000D01*
D12*
X1699391Y-70999077D02*
G75*
G03*
X2500000Y-70200000I-39391J840077D01*
G01*
X-1699421Y-55000924D02*
G75*
G03*
X-2500000Y-55800000I39421J-840076D01*
G01*
X-2500077Y-70200391D02*
G75*
G03*
X-1701000Y-71001000I840077J39391D01*
G01*
X2500076Y-55799579D02*
G75*
G03*
X1701000Y-54999000I-840076J-39421D01*
G01*
D11*
%TO.C,J3*%
X10000000Y50300000D02*
X10000000Y75700000D01*
D12*
X17700000Y71000000D02*
X14300000Y71000000D01*
X14300000Y55000000D02*
X17700000Y55000000D01*
X18500000Y70200000D02*
X18500000Y55800000D01*
X13500000Y55800000D02*
X13500000Y70200000D01*
D11*
X10000000Y75700000D02*
X22000000Y75700000D01*
X10000000Y50300000D02*
X22000000Y50300000D01*
X22000000Y50300000D02*
X22000000Y75700000D01*
D12*
X14300609Y70999077D02*
G75*
G03*
X13500000Y70200000I39391J-840077D01*
G01*
X17699421Y55000924D02*
G75*
G03*
X18500000Y55800000I-39421J840076D01*
G01*
X18500077Y70200391D02*
G75*
G03*
X17701000Y71001000I-840077J-39391D01*
G01*
X13499924Y55799579D02*
G75*
G03*
X14299000Y54999000I840076J39421D01*
G01*
D11*
%TO.C,J1*%
X-22000000Y50300000D02*
X-22000000Y75700000D01*
D12*
X-14300000Y71000000D02*
X-17700000Y71000000D01*
X-17700000Y55000000D02*
X-14300000Y55000000D01*
X-13500000Y70200000D02*
X-13500000Y55800000D01*
X-18500000Y55800000D02*
X-18500000Y70200000D01*
D11*
X-22000000Y75700000D02*
X-10000000Y75700000D01*
X-22000000Y50300000D02*
X-10000000Y50300000D01*
X-10000000Y50300000D02*
X-10000000Y75700000D01*
D12*
X-17699391Y70999077D02*
G75*
G03*
X-18500000Y70200000I39391J-840077D01*
G01*
X-14300579Y55000924D02*
G75*
G03*
X-13500000Y55800000I-39421J840076D01*
G01*
X-13499923Y70200391D02*
G75*
G03*
X-14299000Y71001000I-840077J-39391D01*
G01*
X-18500076Y55799579D02*
G75*
G03*
X-17701000Y54999000I840076J39421D01*
G01*
D11*
%TO.C,J2*%
X-6000000Y50300000D02*
X-6000000Y75700000D01*
D12*
X1700000Y71000000D02*
X-1700000Y71000000D01*
X-1700000Y55000000D02*
X1700000Y55000000D01*
X2500000Y70200000D02*
X2500000Y55800000D01*
X-2500000Y55800000D02*
X-2500000Y70200000D01*
D11*
X-6000000Y75700000D02*
X6000000Y75700000D01*
X-6000000Y50300000D02*
X6000000Y50300000D01*
X6000000Y50300000D02*
X6000000Y75700000D01*
D12*
X-1699391Y70999077D02*
G75*
G03*
X-2500000Y70200000I39391J-840077D01*
G01*
X1699421Y55000924D02*
G75*
G03*
X2500000Y55800000I-39421J840076D01*
G01*
X2500077Y70200391D02*
G75*
G03*
X1701000Y71001000I-840077J-39391D01*
G01*
X-2500076Y55799579D02*
G75*
G03*
X-1701000Y54999000I840076J39421D01*
G01*
D11*
%TO.C,J6*%
X-80700000Y22000000D02*
X-55300000Y22000000D01*
D12*
X-60000000Y14300000D02*
X-60000000Y17700000D01*
X-76000000Y17700000D02*
X-76000000Y14300000D01*
X-60800000Y13500000D02*
X-75200000Y13500000D01*
X-75200000Y18500000D02*
X-60800000Y18500000D01*
D11*
X-55300000Y22000000D02*
X-55300000Y10000000D01*
X-80700000Y22000000D02*
X-80700000Y10000000D01*
X-80700000Y10000000D02*
X-55300000Y10000000D01*
D12*
X-60000923Y17699391D02*
G75*
G03*
X-60800000Y18500000I-840077J-39391D01*
G01*
X-75999076Y14300579D02*
G75*
G03*
X-75200000Y13500000I840076J39421D01*
G01*
X-60799609Y13499923D02*
G75*
G03*
X-59999000Y14299000I-39391J840077D01*
G01*
X-75200421Y18500076D02*
G75*
G03*
X-76001000Y17701000I39421J-840076D01*
G01*
D11*
%TO.C,J4*%
X-80700000Y-10000000D02*
X-55300000Y-10000000D01*
D12*
X-60000000Y-17700000D02*
X-60000000Y-14300000D01*
X-76000000Y-14300000D02*
X-76000000Y-17700000D01*
X-60800000Y-18500000D02*
X-75200000Y-18500000D01*
X-75200000Y-13500000D02*
X-60800000Y-13500000D01*
D11*
X-55300000Y-10000000D02*
X-55300000Y-22000000D01*
X-80700000Y-10000000D02*
X-80700000Y-22000000D01*
X-80700000Y-22000000D02*
X-55300000Y-22000000D01*
D12*
X-60000923Y-14300609D02*
G75*
G03*
X-60800000Y-13500000I-840077J-39391D01*
G01*
X-75999076Y-17699421D02*
G75*
G03*
X-75200000Y-18500000I840076J39421D01*
G01*
X-60799609Y-18500077D02*
G75*
G03*
X-59999000Y-17701000I-39391J840077D01*
G01*
X-75200421Y-13499924D02*
G75*
G03*
X-76001000Y-14299000I39421J-840076D01*
G01*
D11*
%TO.C,J5*%
X-80700000Y6000000D02*
X-55300000Y6000000D01*
D12*
X-60000000Y-1700000D02*
X-60000000Y1700000D01*
X-76000000Y1700000D02*
X-76000000Y-1700000D01*
X-60800000Y-2500000D02*
X-75200000Y-2500000D01*
X-75200000Y2500000D02*
X-60800000Y2500000D01*
D11*
X-55300000Y6000000D02*
X-55300000Y-6000000D01*
X-80700000Y6000000D02*
X-80700000Y-6000000D01*
X-80700000Y-6000000D02*
X-55300000Y-6000000D01*
D12*
X-60000923Y1699391D02*
G75*
G03*
X-60800000Y2500000I-840077J-39391D01*
G01*
X-75999076Y-1699421D02*
G75*
G03*
X-75200000Y-2500000I840076J39421D01*
G01*
X-60799609Y-2500077D02*
G75*
G03*
X-59999000Y-1701000I-39391J840077D01*
G01*
X-75200421Y2500076D02*
G75*
G03*
X-76001000Y1701000I39421J-840076D01*
G01*
D13*
%TO.C,M2*%
X25000000Y0D02*
G75*
G03*
X25000000Y0I-25000000J0D01*
G01*
X37500000Y0D02*
G75*
G03*
X37500000Y0I-37500000J0D01*
G01*
X47500000Y0D02*
G75*
G03*
X47500000Y0I-47500000J0D01*
G01*
X29500000Y0D02*
G75*
G03*
X29500000Y0I-29500000J0D01*
G01*
%TO.C,J9*%
D14*
X22374071Y-63459514D02*
X23190500Y-63459514D01*
X23353785Y-63513942D01*
X23462642Y-63622800D01*
X23517071Y-63786085D01*
X23517071Y-63894942D01*
X23517071Y-62860800D02*
X23517071Y-62643085D01*
X23462642Y-62534228D01*
X23408214Y-62479800D01*
X23244928Y-62370942D01*
X23027214Y-62316514D01*
X22591785Y-62316514D01*
X22482928Y-62370942D01*
X22428500Y-62425371D01*
X22374071Y-62534228D01*
X22374071Y-62751942D01*
X22428500Y-62860800D01*
X22482928Y-62915228D01*
X22591785Y-62969657D01*
X22863928Y-62969657D01*
X22972785Y-62915228D01*
X23027214Y-62860800D01*
X23081642Y-62751942D01*
X23081642Y-62534228D01*
X23027214Y-62425371D01*
X22972785Y-62370942D01*
X22863928Y-62316514D01*
%TO.C,*%
D15*
X-761428Y-9272857D02*
X-761428Y-8072857D01*
X-361428Y-8930000D01*
X38571Y-8072857D01*
X38571Y-9272857D01*
X495714Y-8072857D02*
X1238571Y-8072857D01*
X838571Y-8530000D01*
X1010000Y-8530000D01*
X1124285Y-8587142D01*
X1181428Y-8644285D01*
X1238571Y-8758571D01*
X1238571Y-9044285D01*
X1181428Y-9158571D01*
X1124285Y-9215714D01*
X1010000Y-9272857D01*
X667142Y-9272857D01*
X552857Y-9215714D01*
X495714Y-9158571D01*
X-1031428Y14717142D02*
X-1031428Y15917142D01*
X-631428Y15060000D01*
X-231428Y15917142D01*
X-231428Y14717142D01*
X968571Y14717142D02*
X282857Y14717142D01*
X625714Y14717142D02*
X625714Y15917142D01*
X511428Y15745714D01*
X397142Y15631428D01*
X282857Y15574285D01*
%TO.C,J7*%
D14*
X-9625928Y-63459514D02*
X-8809500Y-63459514D01*
X-8646214Y-63513942D01*
X-8537357Y-63622800D01*
X-8482928Y-63786085D01*
X-8482928Y-63894942D01*
X-9625928Y-63024085D02*
X-9625928Y-62262085D01*
X-8482928Y-62751942D01*
%TO.C,J8*%
X6374071Y-63459514D02*
X7190500Y-63459514D01*
X7353785Y-63513942D01*
X7462642Y-63622800D01*
X7517071Y-63786085D01*
X7517071Y-63894942D01*
X6863928Y-62751942D02*
X6809500Y-62860800D01*
X6755071Y-62915228D01*
X6646214Y-62969657D01*
X6591785Y-62969657D01*
X6482928Y-62915228D01*
X6428500Y-62860800D01*
X6374071Y-62751942D01*
X6374071Y-62534228D01*
X6428500Y-62425371D01*
X6482928Y-62370942D01*
X6591785Y-62316514D01*
X6646214Y-62316514D01*
X6755071Y-62370942D01*
X6809500Y-62425371D01*
X6863928Y-62534228D01*
X6863928Y-62751942D01*
X6918357Y-62860800D01*
X6972785Y-62915228D01*
X7081642Y-62969657D01*
X7299357Y-62969657D01*
X7408214Y-62915228D01*
X7462642Y-62860800D01*
X7517071Y-62751942D01*
X7517071Y-62534228D01*
X7462642Y-62425371D01*
X7408214Y-62370942D01*
X7299357Y-62316514D01*
X7081642Y-62316514D01*
X6972785Y-62370942D01*
X6918357Y-62425371D01*
X6863928Y-62534228D01*
%TO.C,J3*%
X8374071Y60697514D02*
X9190500Y60697514D01*
X9353785Y60643085D01*
X9462642Y60534228D01*
X9517071Y60370942D01*
X9517071Y60262085D01*
X8374071Y61132942D02*
X8374071Y61840514D01*
X8809500Y61459514D01*
X8809500Y61622800D01*
X8863928Y61731657D01*
X8918357Y61786085D01*
X9027214Y61840514D01*
X9299357Y61840514D01*
X9408214Y61786085D01*
X9462642Y61731657D01*
X9517071Y61622800D01*
X9517071Y61296228D01*
X9462642Y61187371D01*
X9408214Y61132942D01*
%TO.C,J1*%
X-23625928Y59697514D02*
X-22809500Y59697514D01*
X-22646214Y59643085D01*
X-22537357Y59534228D01*
X-22482928Y59370942D01*
X-22482928Y59262085D01*
X-22482928Y60840514D02*
X-22482928Y60187371D01*
X-22482928Y60513942D02*
X-23625928Y60513942D01*
X-23462642Y60405085D01*
X-23353785Y60296228D01*
X-23299357Y60187371D01*
%TO.C,J2*%
X-7625928Y60697514D02*
X-6809500Y60697514D01*
X-6646214Y60643085D01*
X-6537357Y60534228D01*
X-6482928Y60370942D01*
X-6482928Y60262085D01*
X-7517071Y61187371D02*
X-7571500Y61241800D01*
X-7625928Y61350657D01*
X-7625928Y61622800D01*
X-7571500Y61731657D01*
X-7517071Y61786085D01*
X-7408214Y61840514D01*
X-7299357Y61840514D01*
X-7136071Y61786085D01*
X-6482928Y61132942D01*
X-6482928Y61840514D01*
%TO.C,J6*%
X-69302485Y23625928D02*
X-69302485Y22809500D01*
X-69356914Y22646214D01*
X-69465771Y22537357D01*
X-69629057Y22482928D01*
X-69737914Y22482928D01*
X-68268342Y23625928D02*
X-68486057Y23625928D01*
X-68594914Y23571500D01*
X-68649342Y23517071D01*
X-68758200Y23353785D01*
X-68812628Y23136071D01*
X-68812628Y22700642D01*
X-68758200Y22591785D01*
X-68703771Y22537357D01*
X-68594914Y22482928D01*
X-68377200Y22482928D01*
X-68268342Y22537357D01*
X-68213914Y22591785D01*
X-68159485Y22700642D01*
X-68159485Y22972785D01*
X-68213914Y23081642D01*
X-68268342Y23136071D01*
X-68377200Y23190500D01*
X-68594914Y23190500D01*
X-68703771Y23136071D01*
X-68758200Y23081642D01*
X-68812628Y22972785D01*
%TO.C,J4*%
X-69302485Y-8374071D02*
X-69302485Y-9190500D01*
X-69356914Y-9353785D01*
X-69465771Y-9462642D01*
X-69629057Y-9517071D01*
X-69737914Y-9517071D01*
X-68268342Y-8755071D02*
X-68268342Y-9517071D01*
X-68540485Y-8319642D02*
X-68812628Y-9136071D01*
X-68105057Y-9136071D01*
%TO.C,J5*%
X-69302485Y7625928D02*
X-69302485Y6809500D01*
X-69356914Y6646214D01*
X-69465771Y6537357D01*
X-69629057Y6482928D01*
X-69737914Y6482928D01*
X-68213914Y7625928D02*
X-68758200Y7625928D01*
X-68812628Y7081642D01*
X-68758200Y7136071D01*
X-68649342Y7190500D01*
X-68377200Y7190500D01*
X-68268342Y7136071D01*
X-68213914Y7081642D01*
X-68159485Y6972785D01*
X-68159485Y6700642D01*
X-68213914Y6591785D01*
X-68268342Y6537357D01*
X-68377200Y6482928D01*
X-68649342Y6482928D01*
X-68758200Y6537357D01*
X-68812628Y6591785D01*
%TO.C,M2*%
D15*
X-921428Y2717142D02*
X-921428Y3917142D01*
X-521428Y3060000D01*
X-121428Y3917142D01*
X-121428Y2717142D01*
X392857Y3802857D02*
X450000Y3860000D01*
X564285Y3917142D01*
X850000Y3917142D01*
X964285Y3860000D01*
X1021428Y3802857D01*
X1078571Y3688571D01*
X1078571Y3574285D01*
X1021428Y3402857D01*
X335714Y2717142D01*
X1078571Y2717142D01*
X27452380Y-5380952D02*
X26452380Y-5380952D01*
X26785714Y-4904761D02*
X27452380Y-4904761D01*
X26880952Y-4904761D02*
X26833333Y-4857142D01*
X26785714Y-4761904D01*
X26785714Y-4619047D01*
X26833333Y-4523809D01*
X26928571Y-4476190D01*
X27452380Y-4476190D01*
X27404761Y-4047619D02*
X27452380Y-3952380D01*
X27452380Y-3761904D01*
X27404761Y-3666666D01*
X27309523Y-3619047D01*
X27261904Y-3619047D01*
X27166666Y-3666666D01*
X27119047Y-3761904D01*
X27119047Y-3904761D01*
X27071428Y-4000000D01*
X26976190Y-4047619D01*
X26928571Y-4047619D01*
X26833333Y-4000000D01*
X26785714Y-3904761D01*
X26785714Y-3761904D01*
X26833333Y-3666666D01*
X27452380Y-3190476D02*
X26785714Y-3190476D01*
X26452380Y-3190476D02*
X26500000Y-3238095D01*
X26547619Y-3190476D01*
X26500000Y-3142857D01*
X26452380Y-3190476D01*
X26547619Y-3190476D01*
X27452380Y-2285714D02*
X26452380Y-2285714D01*
X27404761Y-2285714D02*
X27452380Y-2380952D01*
X27452380Y-2571428D01*
X27404761Y-2666666D01*
X27357142Y-2714285D01*
X27261904Y-2761904D01*
X26976190Y-2761904D01*
X26880952Y-2714285D01*
X26833333Y-2666666D01*
X26785714Y-2571428D01*
X26785714Y-2380952D01*
X26833333Y-2285714D01*
X27404761Y-1428571D02*
X27452380Y-1523809D01*
X27452380Y-1714285D01*
X27404761Y-1809523D01*
X27309523Y-1857142D01*
X26928571Y-1857142D01*
X26833333Y-1809523D01*
X26785714Y-1714285D01*
X26785714Y-1523809D01*
X26833333Y-1428571D01*
X26928571Y-1380952D01*
X27023809Y-1380952D01*
X27119047Y-1857142D01*
X27452380Y-190476D02*
X26452380Y-190476D01*
X27166666Y142857D01*
X26452380Y476190D01*
X27452380Y476190D01*
X27404761Y1333333D02*
X27452380Y1238095D01*
X27452380Y1047619D01*
X27404761Y952380D01*
X27309523Y904761D01*
X26928571Y904761D01*
X26833333Y952380D01*
X26785714Y1047619D01*
X26785714Y1238095D01*
X26833333Y1333333D01*
X26928571Y1380952D01*
X27023809Y1380952D01*
X27119047Y904761D01*
X26785714Y1666666D02*
X26785714Y2047619D01*
X26452380Y1809523D02*
X27309523Y1809523D01*
X27404761Y1857142D01*
X27452380Y1952380D01*
X27452380Y2047619D01*
X27452380Y2809523D02*
X26928571Y2809523D01*
X26833333Y2761904D01*
X26785714Y2666666D01*
X26785714Y2476190D01*
X26833333Y2380952D01*
X27404761Y2809523D02*
X27452380Y2714285D01*
X27452380Y2476190D01*
X27404761Y2380952D01*
X27309523Y2333333D01*
X27214285Y2333333D01*
X27119047Y2380952D01*
X27071428Y2476190D01*
X27071428Y2714285D01*
X27023809Y2809523D01*
X27452380Y3428571D02*
X27404761Y3333333D01*
X27309523Y3285714D01*
X26452380Y3285714D01*
X27452380Y5142857D02*
X26976190Y4809523D01*
X27452380Y4571428D02*
X26452380Y4571428D01*
X26452380Y4952380D01*
X26500000Y5047619D01*
X26547619Y5095238D01*
X26642857Y5142857D01*
X26785714Y5142857D01*
X26880952Y5095238D01*
X26928571Y5047619D01*
X26976190Y4952380D01*
X26976190Y4571428D01*
X27452380Y5571428D02*
X26785714Y5571428D01*
X26452380Y5571428D02*
X26500000Y5523809D01*
X26547619Y5571428D01*
X26500000Y5619047D01*
X26452380Y5571428D01*
X26547619Y5571428D01*
X26785714Y6047619D02*
X27452380Y6047619D01*
X26880952Y6047619D02*
X26833333Y6095238D01*
X26785714Y6190476D01*
X26785714Y6333333D01*
X26833333Y6428571D01*
X26928571Y6476190D01*
X27452380Y6476190D01*
X26785714Y7380952D02*
X27595238Y7380952D01*
X27690476Y7333333D01*
X27738095Y7285714D01*
X27785714Y7190476D01*
X27785714Y7047619D01*
X27738095Y6952380D01*
X27404761Y7380952D02*
X27452380Y7285714D01*
X27452380Y7095238D01*
X27404761Y7000000D01*
X27357142Y6952380D01*
X27261904Y6904761D01*
X26976190Y6904761D01*
X26880952Y6952380D01*
X26833333Y7000000D01*
X26785714Y7095238D01*
X26785714Y7285714D01*
X26833333Y7380952D01*
X39452380Y-6047619D02*
X39452380Y-5857142D01*
X39500000Y-5761904D01*
X39595238Y-5666666D01*
X39785714Y-5619047D01*
X40119047Y-5619047D01*
X40309523Y-5666666D01*
X40404761Y-5761904D01*
X40452380Y-5857142D01*
X40452380Y-6047619D01*
X40404761Y-6142857D01*
X40309523Y-6238095D01*
X40119047Y-6285714D01*
X39785714Y-6285714D01*
X39595238Y-6238095D01*
X39500000Y-6142857D01*
X39452380Y-6047619D01*
X39785714Y-4761904D02*
X40452380Y-4761904D01*
X39785714Y-5190476D02*
X40309523Y-5190476D01*
X40404761Y-5142857D01*
X40452380Y-5047619D01*
X40452380Y-4904761D01*
X40404761Y-4809523D01*
X40357142Y-4761904D01*
X39785714Y-4428571D02*
X39785714Y-4047619D01*
X39452380Y-4285714D02*
X40309523Y-4285714D01*
X40404761Y-4238095D01*
X40452380Y-4142857D01*
X40452380Y-4047619D01*
X40404761Y-3761904D02*
X40452380Y-3666666D01*
X40452380Y-3476190D01*
X40404761Y-3380952D01*
X40309523Y-3333333D01*
X40261904Y-3333333D01*
X40166666Y-3380952D01*
X40119047Y-3476190D01*
X40119047Y-3619047D01*
X40071428Y-3714285D01*
X39976190Y-3761904D01*
X39928571Y-3761904D01*
X39833333Y-3714285D01*
X39785714Y-3619047D01*
X39785714Y-3476190D01*
X39833333Y-3380952D01*
X40452380Y-2904761D02*
X39785714Y-2904761D01*
X39452380Y-2904761D02*
X39500000Y-2952380D01*
X39547619Y-2904761D01*
X39500000Y-2857142D01*
X39452380Y-2904761D01*
X39547619Y-2904761D01*
X40452380Y-2000000D02*
X39452380Y-2000000D01*
X40404761Y-2000000D02*
X40452380Y-2095238D01*
X40452380Y-2285714D01*
X40404761Y-2380952D01*
X40357142Y-2428571D01*
X40261904Y-2476190D01*
X39976190Y-2476190D01*
X39880952Y-2428571D01*
X39833333Y-2380952D01*
X39785714Y-2285714D01*
X39785714Y-2095238D01*
X39833333Y-2000000D01*
X40404761Y-1142857D02*
X40452380Y-1238095D01*
X40452380Y-1428571D01*
X40404761Y-1523809D01*
X40309523Y-1571428D01*
X39928571Y-1571428D01*
X39833333Y-1523809D01*
X39785714Y-1428571D01*
X39785714Y-1238095D01*
X39833333Y-1142857D01*
X39928571Y-1095238D01*
X40023809Y-1095238D01*
X40119047Y-1571428D01*
X40452380Y95238D02*
X39452380Y95238D01*
X39452380Y333333D01*
X39500000Y476190D01*
X39595238Y571428D01*
X39690476Y619047D01*
X39880952Y666666D01*
X40023809Y666666D01*
X40214285Y619047D01*
X40309523Y571428D01*
X40404761Y476190D01*
X40452380Y333333D01*
X40452380Y95238D01*
X40452380Y1095238D02*
X39785714Y1095238D01*
X39452380Y1095238D02*
X39500000Y1047619D01*
X39547619Y1095238D01*
X39500000Y1142857D01*
X39452380Y1095238D01*
X39547619Y1095238D01*
X40452380Y2000000D02*
X39928571Y2000000D01*
X39833333Y1952380D01*
X39785714Y1857142D01*
X39785714Y1666666D01*
X39833333Y1571428D01*
X40404761Y2000000D02*
X40452380Y1904761D01*
X40452380Y1666666D01*
X40404761Y1571428D01*
X40309523Y1523809D01*
X40214285Y1523809D01*
X40119047Y1571428D01*
X40071428Y1666666D01*
X40071428Y1904761D01*
X40023809Y2000000D01*
X40452380Y2476190D02*
X39785714Y2476190D01*
X39880952Y2476190D02*
X39833333Y2523809D01*
X39785714Y2619047D01*
X39785714Y2761904D01*
X39833333Y2857142D01*
X39928571Y2904761D01*
X40452380Y2904761D01*
X39928571Y2904761D02*
X39833333Y2952380D01*
X39785714Y3047619D01*
X39785714Y3190476D01*
X39833333Y3285714D01*
X39928571Y3333333D01*
X40452380Y3333333D01*
X40404761Y4190476D02*
X40452380Y4095238D01*
X40452380Y3904761D01*
X40404761Y3809523D01*
X40309523Y3761904D01*
X39928571Y3761904D01*
X39833333Y3809523D01*
X39785714Y3904761D01*
X39785714Y4095238D01*
X39833333Y4190476D01*
X39928571Y4238095D01*
X40023809Y4238095D01*
X40119047Y3761904D01*
X39785714Y4523809D02*
X39785714Y4904761D01*
X39452380Y4666666D02*
X40309523Y4666666D01*
X40404761Y4714285D01*
X40452380Y4809523D01*
X40452380Y4904761D01*
X40404761Y5619047D02*
X40452380Y5523809D01*
X40452380Y5333333D01*
X40404761Y5238095D01*
X40309523Y5190476D01*
X39928571Y5190476D01*
X39833333Y5238095D01*
X39785714Y5333333D01*
X39785714Y5523809D01*
X39833333Y5619047D01*
X39928571Y5666666D01*
X40023809Y5666666D01*
X40119047Y5190476D01*
X40452380Y6095238D02*
X39785714Y6095238D01*
X39976190Y6095238D02*
X39880952Y6142857D01*
X39833333Y6190476D01*
X39785714Y6285714D01*
X39785714Y6380952D01*
X32452380Y-4809523D02*
X31452380Y-4809523D01*
X31785714Y-4333333D02*
X32452380Y-4333333D01*
X31880952Y-4333333D02*
X31833333Y-4285714D01*
X31785714Y-4190476D01*
X31785714Y-4047619D01*
X31833333Y-3952380D01*
X31928571Y-3904761D01*
X32452380Y-3904761D01*
X32404761Y-3476190D02*
X32452380Y-3380952D01*
X32452380Y-3190476D01*
X32404761Y-3095238D01*
X32309523Y-3047619D01*
X32261904Y-3047619D01*
X32166666Y-3095238D01*
X32119047Y-3190476D01*
X32119047Y-3333333D01*
X32071428Y-3428571D01*
X31976190Y-3476190D01*
X31928571Y-3476190D01*
X31833333Y-3428571D01*
X31785714Y-3333333D01*
X31785714Y-3190476D01*
X31833333Y-3095238D01*
X32452380Y-2619047D02*
X31785714Y-2619047D01*
X31452380Y-2619047D02*
X31500000Y-2666666D01*
X31547619Y-2619047D01*
X31500000Y-2571428D01*
X31452380Y-2619047D01*
X31547619Y-2619047D01*
X32452380Y-1714285D02*
X31452380Y-1714285D01*
X32404761Y-1714285D02*
X32452380Y-1809523D01*
X32452380Y-2000000D01*
X32404761Y-2095238D01*
X32357142Y-2142857D01*
X32261904Y-2190476D01*
X31976190Y-2190476D01*
X31880952Y-2142857D01*
X31833333Y-2095238D01*
X31785714Y-2000000D01*
X31785714Y-1809523D01*
X31833333Y-1714285D01*
X32404761Y-857142D02*
X32452380Y-952380D01*
X32452380Y-1142857D01*
X32404761Y-1238095D01*
X32309523Y-1285714D01*
X31928571Y-1285714D01*
X31833333Y-1238095D01*
X31785714Y-1142857D01*
X31785714Y-952380D01*
X31833333Y-857142D01*
X31928571Y-809523D01*
X32023809Y-809523D01*
X32119047Y-1285714D01*
X32452380Y523809D02*
X32404761Y428571D01*
X32357142Y380952D01*
X32261904Y333333D01*
X31976190Y333333D01*
X31880952Y380952D01*
X31833333Y428571D01*
X31785714Y523809D01*
X31785714Y666666D01*
X31833333Y761904D01*
X31880952Y809523D01*
X31976190Y857142D01*
X32261904Y857142D01*
X32357142Y809523D01*
X32404761Y761904D01*
X32452380Y666666D01*
X32452380Y523809D01*
X31785714Y1142857D02*
X31785714Y1523809D01*
X32452380Y1285714D02*
X31595238Y1285714D01*
X31500000Y1333333D01*
X31452380Y1428571D01*
X31452380Y1523809D01*
X32357142Y3190476D02*
X32404761Y3142857D01*
X32452380Y3000000D01*
X32452380Y2904761D01*
X32404761Y2761904D01*
X32309523Y2666666D01*
X32214285Y2619047D01*
X32023809Y2571428D01*
X31880952Y2571428D01*
X31690476Y2619047D01*
X31595238Y2666666D01*
X31500000Y2761904D01*
X31452380Y2904761D01*
X31452380Y3000000D01*
X31500000Y3142857D01*
X31547619Y3190476D01*
X32452380Y3761904D02*
X32404761Y3666666D01*
X32309523Y3619047D01*
X31452380Y3619047D01*
X32452380Y4571428D02*
X31928571Y4571428D01*
X31833333Y4523809D01*
X31785714Y4428571D01*
X31785714Y4238095D01*
X31833333Y4142857D01*
X32404761Y4571428D02*
X32452380Y4476190D01*
X32452380Y4238095D01*
X32404761Y4142857D01*
X32309523Y4095238D01*
X32214285Y4095238D01*
X32119047Y4142857D01*
X32071428Y4238095D01*
X32071428Y4476190D01*
X32023809Y4571428D01*
X32452380Y5047619D02*
X31785714Y5047619D01*
X31880952Y5047619D02*
X31833333Y5095238D01*
X31785714Y5190476D01*
X31785714Y5333333D01*
X31833333Y5428571D01*
X31928571Y5476190D01*
X32452380Y5476190D01*
X31928571Y5476190D02*
X31833333Y5523809D01*
X31785714Y5619047D01*
X31785714Y5761904D01*
X31833333Y5857142D01*
X31928571Y5904761D01*
X32452380Y5904761D01*
X31785714Y6380952D02*
X32785714Y6380952D01*
X31833333Y6380952D02*
X31785714Y6476190D01*
X31785714Y6666666D01*
X31833333Y6761904D01*
X31880952Y6809523D01*
X31976190Y6857142D01*
X32261904Y6857142D01*
X32357142Y6809523D01*
X32404761Y6761904D01*
X32452380Y6666666D01*
X32452380Y6476190D01*
X32404761Y6380952D01*
X48452380Y-6047619D02*
X48452380Y-5857142D01*
X48500000Y-5761904D01*
X48595238Y-5666666D01*
X48785714Y-5619047D01*
X49119047Y-5619047D01*
X49309523Y-5666666D01*
X49404761Y-5761904D01*
X49452380Y-5857142D01*
X49452380Y-6047619D01*
X49404761Y-6142857D01*
X49309523Y-6238095D01*
X49119047Y-6285714D01*
X48785714Y-6285714D01*
X48595238Y-6238095D01*
X48500000Y-6142857D01*
X48452380Y-6047619D01*
X48785714Y-4761904D02*
X49452380Y-4761904D01*
X48785714Y-5190476D02*
X49309523Y-5190476D01*
X49404761Y-5142857D01*
X49452380Y-5047619D01*
X49452380Y-4904761D01*
X49404761Y-4809523D01*
X49357142Y-4761904D01*
X48785714Y-4428571D02*
X48785714Y-4047619D01*
X48452380Y-4285714D02*
X49309523Y-4285714D01*
X49404761Y-4238095D01*
X49452380Y-4142857D01*
X49452380Y-4047619D01*
X49452380Y-3571428D02*
X49404761Y-3666666D01*
X49309523Y-3714285D01*
X48452380Y-3714285D01*
X49452380Y-3190476D02*
X48785714Y-3190476D01*
X48452380Y-3190476D02*
X48500000Y-3238095D01*
X48547619Y-3190476D01*
X48500000Y-3142857D01*
X48452380Y-3190476D01*
X48547619Y-3190476D01*
X48785714Y-2714285D02*
X49452380Y-2714285D01*
X48880952Y-2714285D02*
X48833333Y-2666666D01*
X48785714Y-2571428D01*
X48785714Y-2428571D01*
X48833333Y-2333333D01*
X48928571Y-2285714D01*
X49452380Y-2285714D01*
X49404761Y-1428571D02*
X49452380Y-1523809D01*
X49452380Y-1714285D01*
X49404761Y-1809523D01*
X49309523Y-1857142D01*
X48928571Y-1857142D01*
X48833333Y-1809523D01*
X48785714Y-1714285D01*
X48785714Y-1523809D01*
X48833333Y-1428571D01*
X48928571Y-1380952D01*
X49023809Y-1380952D01*
X49119047Y-1857142D01*
X49452380Y-47619D02*
X49404761Y-142857D01*
X49357142Y-190476D01*
X49261904Y-238095D01*
X48976190Y-238095D01*
X48880952Y-190476D01*
X48833333Y-142857D01*
X48785714Y-47619D01*
X48785714Y95238D01*
X48833333Y190476D01*
X48880952Y238095D01*
X48976190Y285714D01*
X49261904Y285714D01*
X49357142Y238095D01*
X49404761Y190476D01*
X49452380Y95238D01*
X49452380Y-47619D01*
X48785714Y571428D02*
X48785714Y952380D01*
X49452380Y714285D02*
X48595238Y714285D01*
X48500000Y761904D01*
X48452380Y857142D01*
X48452380Y952380D01*
X49357142Y2619047D02*
X49404761Y2571428D01*
X49452380Y2428571D01*
X49452380Y2333333D01*
X49404761Y2190476D01*
X49309523Y2095238D01*
X49214285Y2047619D01*
X49023809Y2000000D01*
X48880952Y2000000D01*
X48690476Y2047619D01*
X48595238Y2095238D01*
X48500000Y2190476D01*
X48452380Y2333333D01*
X48452380Y2428571D01*
X48500000Y2571428D01*
X48547619Y2619047D01*
X49452380Y3190476D02*
X49404761Y3095238D01*
X49309523Y3047619D01*
X48452380Y3047619D01*
X49452380Y4000000D02*
X48928571Y4000000D01*
X48833333Y3952380D01*
X48785714Y3857142D01*
X48785714Y3666666D01*
X48833333Y3571428D01*
X49404761Y4000000D02*
X49452380Y3904761D01*
X49452380Y3666666D01*
X49404761Y3571428D01*
X49309523Y3523809D01*
X49214285Y3523809D01*
X49119047Y3571428D01*
X49071428Y3666666D01*
X49071428Y3904761D01*
X49023809Y4000000D01*
X49452380Y4476190D02*
X48785714Y4476190D01*
X48880952Y4476190D02*
X48833333Y4523809D01*
X48785714Y4619047D01*
X48785714Y4761904D01*
X48833333Y4857142D01*
X48928571Y4904761D01*
X49452380Y4904761D01*
X48928571Y4904761D02*
X48833333Y4952380D01*
X48785714Y5047619D01*
X48785714Y5190476D01*
X48833333Y5285714D01*
X48928571Y5333333D01*
X49452380Y5333333D01*
X48785714Y5809523D02*
X49785714Y5809523D01*
X48833333Y5809523D02*
X48785714Y5904761D01*
X48785714Y6095238D01*
X48833333Y6190476D01*
X48880952Y6238095D01*
X48976190Y6285714D01*
X49261904Y6285714D01*
X49357142Y6238095D01*
X49404761Y6190476D01*
X49452380Y6095238D01*
X49452380Y5904761D01*
X49404761Y5809523D01*
%TD*%
%LPC*%
X70000000Y-88000000D02*
X70000000Y90000000D01*
X-90000000Y-88000000D02*
X70000000Y-88000000D01*
X-90000000Y90000000D02*
X-90000000Y-88000000D01*
X70000000Y90000000D02*
X-90000000Y90000000D01*
D13*
X47500000Y0D02*
G75*
G03*
X47500000Y0I-47500000J0D01*
G01*
D16*
%TO.C,J9*%
X16000000Y-56250000D03*
X16000000Y-69750000D03*
D17*
X15100000Y-58500000D03*
X16900000Y-59000000D03*
X15100000Y-59500000D03*
X16900000Y-60000000D03*
X15100000Y-60500000D03*
X16900000Y-61000000D03*
X15100000Y-61500000D03*
X16900000Y-62000000D03*
X15100000Y-62500000D03*
X16900000Y-63000000D03*
X15100000Y-63500000D03*
X16900000Y-64000000D03*
X15100000Y-64500000D03*
X16900000Y-65000000D03*
X15100000Y-65500000D03*
X16900000Y-66000000D03*
X15100000Y-66500000D03*
X16900000Y-67000000D03*
X15100000Y-67500000D03*
%TD*%
D18*
%TO.C,M3*%
X-12275000Y-11450000D03*
X12275000Y-11450000D03*
D19*
X7620000Y-12000000D03*
X6985000Y-10900000D03*
X6350000Y-12000000D03*
X5715000Y-10900000D03*
X5080000Y-12000000D03*
X4445000Y-10900000D03*
X3810000Y-12000000D03*
X3175000Y-10900000D03*
X2540000Y-12000000D03*
X1905000Y-10900000D03*
X1270000Y-12000000D03*
X635000Y-10900000D03*
X0Y-12000000D03*
X-635000Y-10900000D03*
X-1270000Y-12000000D03*
X-1905000Y-10900000D03*
X-2540000Y-12000000D03*
X-3175000Y-10900000D03*
X-3810000Y-12000000D03*
X-4445000Y-10900000D03*
X-5080000Y-12000000D03*
X-5715000Y-10900000D03*
X-6350000Y-12000000D03*
X-6985000Y-10900000D03*
X-7620000Y-12000000D03*
%TD*%
D16*
%TO.C,J7*%
X-16000000Y-56250000D03*
X-16000000Y-69750000D03*
D17*
X-16900000Y-58500000D03*
X-15100000Y-59000000D03*
X-16900000Y-59500000D03*
X-15100000Y-60000000D03*
X-16900000Y-60500000D03*
X-15100000Y-61000000D03*
X-16900000Y-61500000D03*
X-15100000Y-62000000D03*
X-16900000Y-62500000D03*
X-15100000Y-63000000D03*
X-16900000Y-63500000D03*
X-15100000Y-64000000D03*
X-16900000Y-64500000D03*
X-15100000Y-65000000D03*
X-16900000Y-65500000D03*
X-15100000Y-66000000D03*
X-16900000Y-66500000D03*
X-15100000Y-67000000D03*
X-16900000Y-67500000D03*
%TD*%
D16*
%TO.C,J8*%
X0Y-56250000D03*
X0Y-69750000D03*
D17*
X-900000Y-58500000D03*
X900000Y-59000000D03*
X-900000Y-59500000D03*
X900000Y-60000000D03*
X-900000Y-60500000D03*
X900000Y-61000000D03*
X-900000Y-61500000D03*
X900000Y-62000000D03*
X-900000Y-62500000D03*
X900000Y-63000000D03*
X-900000Y-63500000D03*
X900000Y-64000000D03*
X-900000Y-64500000D03*
X900000Y-65000000D03*
X-900000Y-65500000D03*
X900000Y-66000000D03*
X-900000Y-66500000D03*
X900000Y-67000000D03*
X-900000Y-67500000D03*
%TD*%
D18*
%TO.C,M1*%
X-12275000Y12550000D03*
X12275000Y12550000D03*
D19*
X7620000Y12000000D03*
X6985000Y13100000D03*
X6350000Y12000000D03*
X5715000Y13100000D03*
X5080000Y12000000D03*
X4445000Y13100000D03*
X3810000Y12000000D03*
X3175000Y13100000D03*
X2540000Y12000000D03*
X1905000Y13100000D03*
X1270000Y12000000D03*
X635000Y13100000D03*
X0Y12000000D03*
X-635000Y13100000D03*
X-1270000Y12000000D03*
X-1905000Y13100000D03*
X-2540000Y12000000D03*
X-3175000Y13100000D03*
X-3810000Y12000000D03*
X-4445000Y13100000D03*
X-5080000Y12000000D03*
X-5715000Y13100000D03*
X-6350000Y12000000D03*
X-6985000Y13100000D03*
X-7620000Y12000000D03*
%TD*%
D16*
%TO.C,J3*%
X16000000Y56250000D03*
X16000000Y69750000D03*
D17*
X16900000Y58500000D03*
X15100000Y59000000D03*
X16900000Y59500000D03*
X15100000Y60000000D03*
X16900000Y60500000D03*
X15100000Y61000000D03*
X16900000Y61500000D03*
X15100000Y62000000D03*
X16900000Y62500000D03*
X15100000Y63000000D03*
X16900000Y63500000D03*
X15100000Y64000000D03*
X16900000Y64500000D03*
X15100000Y65000000D03*
X16900000Y65500000D03*
X15100000Y66000000D03*
X16900000Y66500000D03*
X15100000Y67000000D03*
X16900000Y67500000D03*
%TD*%
D16*
%TO.C,J1*%
X-16000000Y56250000D03*
X-16000000Y69750000D03*
D17*
X-15100000Y58500000D03*
X-16900000Y59000000D03*
X-15100000Y59500000D03*
X-16900000Y60000000D03*
X-15100000Y60500000D03*
X-16900000Y61000000D03*
X-15100000Y61500000D03*
X-16900000Y62000000D03*
X-15100000Y62500000D03*
X-16900000Y63000000D03*
X-15100000Y63500000D03*
X-16900000Y64000000D03*
X-15100000Y64500000D03*
X-16900000Y65000000D03*
X-15100000Y65500000D03*
X-16900000Y66000000D03*
X-15100000Y66500000D03*
X-16900000Y67000000D03*
X-15100000Y67500000D03*
%TD*%
D16*
%TO.C,J2*%
X0Y56250000D03*
X0Y69750000D03*
D17*
X900000Y58500000D03*
X-900000Y59000000D03*
X900000Y59500000D03*
X-900000Y60000000D03*
X900000Y60500000D03*
X-900000Y61000000D03*
X900000Y61500000D03*
X-900000Y62000000D03*
X900000Y62500000D03*
X-900000Y63000000D03*
X900000Y63500000D03*
X-900000Y64000000D03*
X900000Y64500000D03*
X-900000Y65000000D03*
X900000Y65500000D03*
X-900000Y66000000D03*
X900000Y66500000D03*
X-900000Y67000000D03*
X900000Y67500000D03*
%TD*%
D18*
%TO.C,M2*%
X-12275000Y550000D03*
X12275000Y550000D03*
D19*
X7620000Y0D03*
X6985000Y1100000D03*
X6350000Y0D03*
X5715000Y1100000D03*
X5080000Y0D03*
X4445000Y1100000D03*
X3810000Y0D03*
X3175000Y1100000D03*
X2540000Y0D03*
X1905000Y1100000D03*
X1270000Y0D03*
X635000Y1100000D03*
X0Y0D03*
X-635000Y1100000D03*
X-1270000Y0D03*
X-1905000Y1100000D03*
X-2540000Y0D03*
X-3175000Y1100000D03*
X-3810000Y0D03*
X-4445000Y1100000D03*
X-5080000Y0D03*
X-5715000Y1100000D03*
X-6350000Y0D03*
X-6985000Y1100000D03*
X-7620000Y0D03*
%TD*%
D20*
%TO.C,J6*%
X-74750000Y16000000D03*
X-61250000Y16000000D03*
D17*
X-72500000Y15100000D03*
X-72000000Y16900000D03*
X-71500000Y15100000D03*
X-71000000Y16900000D03*
X-70500000Y15100000D03*
X-70000000Y16900000D03*
X-69500000Y15100000D03*
X-69000000Y16900000D03*
X-68500000Y15100000D03*
X-68000000Y16900000D03*
X-67500000Y15100000D03*
X-67000000Y16900000D03*
X-66500000Y15100000D03*
X-66000000Y16900000D03*
X-65500000Y15100000D03*
X-65000000Y16900000D03*
X-64500000Y15100000D03*
X-64000000Y16900000D03*
X-63500000Y15100000D03*
%TD*%
D20*
%TO.C,J4*%
X-74750000Y-16000000D03*
X-61250000Y-16000000D03*
D17*
X-72500000Y-16900000D03*
X-72000000Y-15100000D03*
X-71500000Y-16900000D03*
X-71000000Y-15100000D03*
X-70500000Y-16900000D03*
X-70000000Y-15100000D03*
X-69500000Y-16900000D03*
X-69000000Y-15100000D03*
X-68500000Y-16900000D03*
X-68000000Y-15100000D03*
X-67500000Y-16900000D03*
X-67000000Y-15100000D03*
X-66500000Y-16900000D03*
X-66000000Y-15100000D03*
X-65500000Y-16900000D03*
X-65000000Y-15100000D03*
X-64500000Y-16900000D03*
X-64000000Y-15100000D03*
X-63500000Y-16900000D03*
%TD*%
D20*
%TO.C,J5*%
X-74750000Y0D03*
X-61250000Y0D03*
D17*
X-72500000Y-900000D03*
X-72000000Y900000D03*
X-71500000Y-900000D03*
X-71000000Y900000D03*
X-70500000Y-900000D03*
X-70000000Y900000D03*
X-69500000Y-900000D03*
X-69000000Y900000D03*
X-68500000Y-900000D03*
X-68000000Y900000D03*
X-67500000Y-900000D03*
X-67000000Y900000D03*
X-66500000Y-900000D03*
X-66000000Y900000D03*
X-65500000Y-900000D03*
X-65000000Y900000D03*
X-64500000Y-900000D03*
X-64000000Y900000D03*
X-63500000Y-900000D03*
%TD*%
D21*
%TO.C,M2*%
X15795259Y-38133128D03*
X38133128Y-15795259D03*
X38133128Y15795259D03*
X15795259Y38133128D03*
X-15795259Y38133128D03*
X-38133128Y15795259D03*
X-38133128Y-15795259D03*
X-15795259Y-38133128D03*
%TD*%
D12*
X4256011Y47403063D02*
X7632536Y46666005D01*
X14810188Y45058770D01*
X22930075Y41487615D01*
X28793086Y37768393D01*
X32921526Y34068752D01*
X36801353Y29999422D01*
X40390425Y24845116D01*
X44262111Y17051851D01*
X45846734Y12178388D01*
X46904028Y6612632D01*
X47522531Y-540064D01*
X47064062Y-5902160D01*
X46136648Y-10569147D01*
X44260524Y-16766343D01*
X42187070Y-21581144D01*
X37957724Y-28413931D01*
X33020816Y-33989147D01*
X28684051Y-37687858D01*
X22028161Y-41978762D01*
X17543862Y-44101330D01*
X11018970Y-46116664D01*
X5365810Y-47223367D01*
X-1315762Y-47422817D01*
X-7090357Y-46864307D01*
X-14172160Y-45328254D01*
X-21323618Y-42395857D01*
X-25782228Y-39792508D01*
X-28453897Y-37978165D01*
X-31226039Y-35704611D01*
X-33908713Y-33171528D01*
X-36880798Y-29820452D01*
X-40371829Y-24992855D01*
X-42704477Y-20566805D01*
X-45418393Y-13732125D01*
X-46494828Y-9047641D01*
X-47203255Y-3529893D01*
X-47342867Y917749D01*
X-46934082Y7039553D01*
X-44509963Y16327022D01*
X-40810742Y24343664D01*
X-34576337Y32393527D01*
X-28643096Y37798261D01*
X-21877916Y41999058D01*
X-18202382Y43841806D01*
X-11588501Y45896797D01*
X-5713401Y47083787D01*
X-905423Y47383039D01*
X2120323Y47412997D01*
X4256011Y47403063D01*
D22*
G36*
X4256011Y47403063D02*
G01*
X7632536Y46666005D01*
X14810188Y45058770D01*
X22930075Y41487615D01*
X28793086Y37768393D01*
X32921526Y34068752D01*
X36801353Y29999422D01*
X40390425Y24845116D01*
X44262111Y17051851D01*
X45846734Y12178388D01*
X46904028Y6612632D01*
X47522531Y-540064D01*
X47064062Y-5902160D01*
X46136648Y-10569147D01*
X44260524Y-16766343D01*
X42187070Y-21581144D01*
X37957724Y-28413931D01*
X33020816Y-33989147D01*
X28684051Y-37687858D01*
X22028161Y-41978762D01*
X17543862Y-44101330D01*
X11018970Y-46116664D01*
X5365810Y-47223367D01*
X-1315762Y-47422817D01*
X-7090357Y-46864307D01*
X-14172160Y-45328254D01*
X-21323618Y-42395857D01*
X-25782228Y-39792508D01*
X-28453897Y-37978165D01*
X-31226039Y-35704611D01*
X-33908713Y-33171528D01*
X-36880798Y-29820452D01*
X-40371829Y-24992855D01*
X-42704477Y-20566805D01*
X-45418393Y-13732125D01*
X-46494828Y-9047641D01*
X-47203255Y-3529893D01*
X-47342867Y917749D01*
X-46934082Y7039553D01*
X-44509963Y16327022D01*
X-40810742Y24343664D01*
X-34576337Y32393527D01*
X-28643096Y37798261D01*
X-21877916Y41999058D01*
X-18202382Y43841806D01*
X-11588501Y45896797D01*
X-5713401Y47083787D01*
X-905423Y47383039D01*
X2120323Y47412997D01*
X4256011Y47403063D01*
G37*
M02*
