%TF.GenerationSoftware,KiCad,Pcbnew,(5.1.9)-1*%
%TF.CreationDate,2021-08-06T16:06:23-06:00*%
%TF.ProjectId,VacuumFeedThruHDMI,56616375-756d-4466-9565-645468727548,rev?*%
%TF.SameCoordinates,Original*%
%TF.FileFunction,Soldermask,Top*%
%TF.FilePolarity,Negative*%
%FSLAX46Y46*%
G04 Gerber Fmt 4.6, Leading zero omitted, Abs format (unit mm)*
G04 Created by KiCad (PCBNEW (5.1.9)-1) date 2021-08-06 16:06:23*
%MOMM*%
%LPD*%
G01*
G04 APERTURE LIST*
%ADD10C,0.150000*%
%ADD11C,0.500000*%
%ADD12C,10.000000*%
%ADD13O,4.500000X1.500000*%
%ADD14C,0.800000*%
%ADD15O,2.810000X2.810000*%
%ADD16O,0.920000X0.920000*%
%ADD17O,1.500000X4.500000*%
%ADD18C,0.254000*%
%ADD19C,0.100000*%
G04 APERTURE END LIST*
D10*
X70000000Y-88000000D02*
X70000000Y90000000D01*
X-90000000Y-88000000D02*
X70000000Y-88000000D01*
X-90000000Y90000000D02*
X-90000000Y-88000000D01*
X70000000Y90000000D02*
X-90000000Y90000000D01*
D11*
X47500000Y0D02*
G75*
G03*
X47500000Y0I-47500000J0D01*
G01*
D12*
%TO.C,J2*%
X15795259Y-38133128D03*
X38133128Y-15795259D03*
X38133128Y15795259D03*
X15795259Y38133128D03*
X-15795259Y38133128D03*
X-38133128Y15795259D03*
X-38133128Y-15795259D03*
X-15795259Y-38133128D03*
%TD*%
D13*
%TO.C,J1_(6:10)*%
X0Y69750000D03*
X0Y56250000D03*
D14*
X-900000Y67500000D03*
X900000Y67000000D03*
X-900000Y66500000D03*
X900000Y66000000D03*
X-900000Y65500000D03*
X900000Y65000000D03*
X-900000Y64500000D03*
X900000Y64000000D03*
X-900000Y63500000D03*
X900000Y63000000D03*
X-900000Y62500000D03*
X900000Y62000000D03*
X-900000Y61500000D03*
X900000Y61000000D03*
X-900000Y60500000D03*
X900000Y60000000D03*
X-900000Y59500000D03*
X900000Y59000000D03*
X-900000Y58500000D03*
%TD*%
D15*
%TO.C,J1*%
X-12275000Y12550000D03*
X12275000Y12550000D03*
D16*
X7620000Y12000000D03*
X6985000Y13100000D03*
X6350000Y12000000D03*
X5715000Y13100000D03*
X5080000Y12000000D03*
X4445000Y13100000D03*
X3810000Y12000000D03*
X3175000Y13100000D03*
X2540000Y12000000D03*
X1905000Y13100000D03*
X1270000Y12000000D03*
X635000Y13100000D03*
X0Y12000000D03*
X-635000Y13100000D03*
X-1270000Y12000000D03*
X-1905000Y13100000D03*
X-2540000Y12000000D03*
X-3175000Y13100000D03*
X-3810000Y12000000D03*
X-4445000Y13100000D03*
X-5080000Y12000000D03*
X-5715000Y13100000D03*
X-6350000Y12000000D03*
X-6985000Y13100000D03*
X-7620000Y12000000D03*
%TD*%
D13*
%TO.C,J3_(6:10)*%
X0Y-56250000D03*
X0Y-69750000D03*
D14*
X-900000Y-58500000D03*
X900000Y-59000000D03*
X-900000Y-59500000D03*
X900000Y-60000000D03*
X-900000Y-60500000D03*
X900000Y-61000000D03*
X-900000Y-61500000D03*
X900000Y-62000000D03*
X-900000Y-62500000D03*
X900000Y-63000000D03*
X-900000Y-63500000D03*
X900000Y-64000000D03*
X-900000Y-64500000D03*
X900000Y-65000000D03*
X-900000Y-65500000D03*
X900000Y-66000000D03*
X-900000Y-66500000D03*
X900000Y-67000000D03*
X-900000Y-67500000D03*
%TD*%
D13*
%TO.C,J3_(11:12)*%
X15900000Y-56250000D03*
X15900000Y-69750000D03*
D14*
X15000000Y-58500000D03*
X16800000Y-59000000D03*
X15000000Y-59500000D03*
X16800000Y-60000000D03*
X15000000Y-60500000D03*
X16800000Y-61000000D03*
X15000000Y-61500000D03*
X16800000Y-62000000D03*
X15000000Y-62500000D03*
X16800000Y-63000000D03*
X15000000Y-63500000D03*
X16800000Y-64000000D03*
X15000000Y-64500000D03*
X16800000Y-65000000D03*
X15000000Y-65500000D03*
X16800000Y-66000000D03*
X15000000Y-66500000D03*
X16800000Y-67000000D03*
X15000000Y-67500000D03*
%TD*%
D13*
%TO.C,J1_(1:5)*%
X-15900000Y69750000D03*
X-15900000Y56250000D03*
D14*
X-16800000Y67500000D03*
X-15000000Y67000000D03*
X-16800000Y66500000D03*
X-15000000Y66000000D03*
X-16800000Y65500000D03*
X-15000000Y65000000D03*
X-16800000Y64500000D03*
X-15000000Y64000000D03*
X-16800000Y63500000D03*
X-15000000Y63000000D03*
X-16800000Y62500000D03*
X-15000000Y62000000D03*
X-16800000Y61500000D03*
X-15000000Y61000000D03*
X-16800000Y60500000D03*
X-15000000Y60000000D03*
X-16800000Y59500000D03*
X-15000000Y59000000D03*
X-16800000Y58500000D03*
%TD*%
D13*
%TO.C,J1_(11:12)*%
X15900000Y69750000D03*
X15900000Y56250000D03*
D14*
X15000000Y67500000D03*
X16800000Y67000000D03*
X15000000Y66500000D03*
X16800000Y66000000D03*
X15000000Y65500000D03*
X16800000Y65000000D03*
X15000000Y64500000D03*
X16800000Y64000000D03*
X15000000Y63500000D03*
X16800000Y63000000D03*
X15000000Y62500000D03*
X16800000Y62000000D03*
X15000000Y61500000D03*
X16800000Y61000000D03*
X15000000Y60500000D03*
X16800000Y60000000D03*
X15000000Y59500000D03*
X16800000Y59000000D03*
X15000000Y58500000D03*
%TD*%
D17*
%TO.C,J2_(6:10)*%
X-61250000Y0D03*
X-74750000Y0D03*
D14*
X-63500000Y900000D03*
X-64000000Y-900000D03*
X-64500000Y900000D03*
X-65000000Y-900000D03*
X-65500000Y900000D03*
X-66000000Y-900000D03*
X-66500000Y900000D03*
X-67000000Y-900000D03*
X-67500000Y900000D03*
X-68000000Y-900000D03*
X-68500000Y900000D03*
X-69000000Y-900000D03*
X-69500000Y900000D03*
X-70000000Y-900000D03*
X-70500000Y900000D03*
X-71000000Y-900000D03*
X-71500000Y900000D03*
X-72000000Y-900000D03*
X-72500000Y900000D03*
%TD*%
D17*
%TO.C,J2_(1:5)*%
X-61250000Y-16000000D03*
X-74750000Y-16000000D03*
D14*
X-63500000Y-15100000D03*
X-64000000Y-16900000D03*
X-64500000Y-15100000D03*
X-65000000Y-16900000D03*
X-65500000Y-15100000D03*
X-66000000Y-16900000D03*
X-66500000Y-15100000D03*
X-67000000Y-16900000D03*
X-67500000Y-15100000D03*
X-68000000Y-16900000D03*
X-68500000Y-15100000D03*
X-69000000Y-16900000D03*
X-69500000Y-15100000D03*
X-70000000Y-16900000D03*
X-70500000Y-15100000D03*
X-71000000Y-16900000D03*
X-71500000Y-15100000D03*
X-72000000Y-16900000D03*
X-72500000Y-15100000D03*
%TD*%
D17*
%TO.C,J2_(11:12)*%
X-61250000Y15900000D03*
X-74750000Y15900000D03*
D14*
X-63500000Y16800000D03*
X-64000000Y15000000D03*
X-64500000Y16800000D03*
X-65000000Y15000000D03*
X-65500000Y16800000D03*
X-66000000Y15000000D03*
X-66500000Y16800000D03*
X-67000000Y15000000D03*
X-67500000Y16800000D03*
X-68000000Y15000000D03*
X-68500000Y16800000D03*
X-69000000Y15000000D03*
X-69500000Y16800000D03*
X-70000000Y15000000D03*
X-70500000Y16800000D03*
X-71000000Y15000000D03*
X-71500000Y16800000D03*
X-72000000Y15000000D03*
X-72500000Y16800000D03*
%TD*%
D15*
%TO.C,J2*%
X-12275000Y-550000D03*
X12275000Y-550000D03*
D16*
X7620000Y-1100000D03*
X6985000Y0D03*
X6350000Y-1100000D03*
X5715000Y0D03*
X5080000Y-1100000D03*
X4445000Y0D03*
X3810000Y-1100000D03*
X3175000Y0D03*
X2540000Y-1100000D03*
X1905000Y0D03*
X1270000Y-1100000D03*
X635000Y0D03*
X0Y-1100000D03*
X-635000Y0D03*
X-1270000Y-1100000D03*
X-1905000Y0D03*
X-2540000Y-1100000D03*
X-3175000Y0D03*
X-3810000Y-1100000D03*
X-4445000Y0D03*
X-5080000Y-1100000D03*
X-5715000Y0D03*
X-6350000Y-1100000D03*
X-6985000Y0D03*
X-7620000Y-1100000D03*
%TD*%
D13*
%TO.C,J3_(1:5)*%
X-15900000Y-56250000D03*
X-15900000Y-69750000D03*
D14*
X-16800000Y-58500000D03*
X-15000000Y-59000000D03*
X-16800000Y-59500000D03*
X-15000000Y-60000000D03*
X-16800000Y-60500000D03*
X-15000000Y-61000000D03*
X-16800000Y-61500000D03*
X-15000000Y-62000000D03*
X-16800000Y-62500000D03*
X-15000000Y-63000000D03*
X-16800000Y-63500000D03*
X-15000000Y-64000000D03*
X-16800000Y-64500000D03*
X-15000000Y-65000000D03*
X-16800000Y-65500000D03*
X-15000000Y-66000000D03*
X-16800000Y-66500000D03*
X-15000000Y-67000000D03*
X-16800000Y-67500000D03*
%TD*%
D15*
%TO.C,J3*%
X-12275000Y-13550000D03*
X12275000Y-13550000D03*
D16*
X7620000Y-14100000D03*
X6985000Y-13000000D03*
X6350000Y-14100000D03*
X5715000Y-13000000D03*
X5080000Y-14100000D03*
X4445000Y-13000000D03*
X3810000Y-14100000D03*
X3175000Y-13000000D03*
X2540000Y-14100000D03*
X1905000Y-13000000D03*
X1270000Y-14100000D03*
X635000Y-13000000D03*
X0Y-14100000D03*
X-635000Y-13000000D03*
X-1270000Y-14100000D03*
X-1905000Y-13000000D03*
X-2540000Y-14100000D03*
X-3175000Y-13000000D03*
X-3810000Y-14100000D03*
X-4445000Y-13000000D03*
X-5080000Y-14100000D03*
X-5715000Y-13000000D03*
X-6350000Y-14100000D03*
X-6985000Y-13000000D03*
X-7620000Y-14100000D03*
%TD*%
D18*
X4256011Y47403063D02*
X7632536Y46666005D01*
X14810188Y45058770D01*
X22930075Y41487615D01*
X28793086Y37768393D01*
X32921526Y34068752D01*
X36801353Y29999422D01*
X40390425Y24845116D01*
X44262111Y17051851D01*
X45846734Y12178388D01*
X46904028Y6612632D01*
X47522531Y-540064D01*
X47064062Y-5902160D01*
X46136648Y-10569147D01*
X44260524Y-16766343D01*
X42187070Y-21581144D01*
X37957724Y-28413931D01*
X33020816Y-33989147D01*
X28684051Y-37687858D01*
X22028161Y-41978762D01*
X17543862Y-44101330D01*
X11018970Y-46116664D01*
X5365810Y-47223367D01*
X-1315762Y-47422817D01*
X-7090357Y-46864307D01*
X-14172160Y-45328254D01*
X-21323618Y-42395857D01*
X-25782228Y-39792508D01*
X-28453897Y-37978165D01*
X-31226039Y-35704611D01*
X-33908713Y-33171528D01*
X-36880798Y-29820452D01*
X-40371829Y-24992855D01*
X-42704477Y-20566805D01*
X-45418393Y-13732125D01*
X-46494828Y-9047641D01*
X-47203255Y-3529893D01*
X-47342867Y917749D01*
X-46934082Y7039553D01*
X-44509963Y16327022D01*
X-40810742Y24343664D01*
X-34576337Y32393527D01*
X-28643096Y37798261D01*
X-21877916Y41999058D01*
X-18202382Y43841806D01*
X-11588501Y45896797D01*
X-5713401Y47083787D01*
X-905423Y47383039D01*
X2120323Y47412997D01*
X4256011Y47403063D01*
D19*
G36*
X4256011Y47403063D02*
G01*
X7632536Y46666005D01*
X14810188Y45058770D01*
X22930075Y41487615D01*
X28793086Y37768393D01*
X32921526Y34068752D01*
X36801353Y29999422D01*
X40390425Y24845116D01*
X44262111Y17051851D01*
X45846734Y12178388D01*
X46904028Y6612632D01*
X47522531Y-540064D01*
X47064062Y-5902160D01*
X46136648Y-10569147D01*
X44260524Y-16766343D01*
X42187070Y-21581144D01*
X37957724Y-28413931D01*
X33020816Y-33989147D01*
X28684051Y-37687858D01*
X22028161Y-41978762D01*
X17543862Y-44101330D01*
X11018970Y-46116664D01*
X5365810Y-47223367D01*
X-1315762Y-47422817D01*
X-7090357Y-46864307D01*
X-14172160Y-45328254D01*
X-21323618Y-42395857D01*
X-25782228Y-39792508D01*
X-28453897Y-37978165D01*
X-31226039Y-35704611D01*
X-33908713Y-33171528D01*
X-36880798Y-29820452D01*
X-40371829Y-24992855D01*
X-42704477Y-20566805D01*
X-45418393Y-13732125D01*
X-46494828Y-9047641D01*
X-47203255Y-3529893D01*
X-47342867Y917749D01*
X-46934082Y7039553D01*
X-44509963Y16327022D01*
X-40810742Y24343664D01*
X-34576337Y32393527D01*
X-28643096Y37798261D01*
X-21877916Y41999058D01*
X-18202382Y43841806D01*
X-11588501Y45896797D01*
X-5713401Y47083787D01*
X-905423Y47383039D01*
X2120323Y47412997D01*
X4256011Y47403063D01*
G37*
M02*
