%TF.GenerationSoftware,KiCad,Pcbnew,(5.1.9)-1*%
%TF.CreationDate,2021-08-06T17:39:50-06:00*%
%TF.ProjectId,VacuumFeedThruHDMI,56616375-756d-4466-9565-645468727548,rev?*%
%TF.SameCoordinates,Original*%
%TF.FileFunction,Paste,Bot*%
%TF.FilePolarity,Positive*%
%FSLAX46Y46*%
G04 Gerber Fmt 4.6, Leading zero omitted, Abs format (unit mm)*
G04 Created by KiCad (PCBNEW (5.1.9)-1) date 2021-08-06 17:39:50*
%MOMM*%
%LPD*%
G01*
G04 APERTURE LIST*
%ADD10O,4.500000X1.500000*%
%ADD11C,0.800000*%
%ADD12O,1.500000X4.500000*%
G04 APERTURE END LIST*
D10*
%TO.C,J1_(1:5)*%
X-15900000Y69750000D03*
X-15900000Y56250000D03*
D11*
X-16800000Y67500000D03*
X-15000000Y67000000D03*
X-16800000Y66500000D03*
X-15000000Y66000000D03*
X-16800000Y65500000D03*
X-15000000Y65000000D03*
X-16800000Y64500000D03*
X-15000000Y64000000D03*
X-16800000Y63500000D03*
X-15000000Y63000000D03*
X-16800000Y62500000D03*
X-15000000Y62000000D03*
X-16800000Y61500000D03*
X-15000000Y61000000D03*
X-16800000Y60500000D03*
X-15000000Y60000000D03*
X-16800000Y59500000D03*
X-15000000Y59000000D03*
X-16800000Y58500000D03*
%TD*%
D10*
%TO.C,J3_(1:5)*%
X-15900000Y-56250000D03*
X-15900000Y-69750000D03*
D11*
X-16800000Y-58500000D03*
X-15000000Y-59000000D03*
X-16800000Y-59500000D03*
X-15000000Y-60000000D03*
X-16800000Y-60500000D03*
X-15000000Y-61000000D03*
X-16800000Y-61500000D03*
X-15000000Y-62000000D03*
X-16800000Y-62500000D03*
X-15000000Y-63000000D03*
X-16800000Y-63500000D03*
X-15000000Y-64000000D03*
X-16800000Y-64500000D03*
X-15000000Y-65000000D03*
X-16800000Y-65500000D03*
X-15000000Y-66000000D03*
X-16800000Y-66500000D03*
X-15000000Y-67000000D03*
X-16800000Y-67500000D03*
%TD*%
D12*
%TO.C,J2_(11:12)*%
X-61250000Y15900000D03*
X-74750000Y15900000D03*
D11*
X-63500000Y16800000D03*
X-64000000Y15000000D03*
X-64500000Y16800000D03*
X-65000000Y15000000D03*
X-65500000Y16800000D03*
X-66000000Y15000000D03*
X-66500000Y16800000D03*
X-67000000Y15000000D03*
X-67500000Y16800000D03*
X-68000000Y15000000D03*
X-68500000Y16800000D03*
X-69000000Y15000000D03*
X-69500000Y16800000D03*
X-70000000Y15000000D03*
X-70500000Y16800000D03*
X-71000000Y15000000D03*
X-71500000Y16800000D03*
X-72000000Y15000000D03*
X-72500000Y16800000D03*
%TD*%
D12*
%TO.C,J2_(1:5)*%
X-61250000Y-16000000D03*
X-74750000Y-16000000D03*
D11*
X-63500000Y-15100000D03*
X-64000000Y-16900000D03*
X-64500000Y-15100000D03*
X-65000000Y-16900000D03*
X-65500000Y-15100000D03*
X-66000000Y-16900000D03*
X-66500000Y-15100000D03*
X-67000000Y-16900000D03*
X-67500000Y-15100000D03*
X-68000000Y-16900000D03*
X-68500000Y-15100000D03*
X-69000000Y-16900000D03*
X-69500000Y-15100000D03*
X-70000000Y-16900000D03*
X-70500000Y-15100000D03*
X-71000000Y-16900000D03*
X-71500000Y-15100000D03*
X-72000000Y-16900000D03*
X-72500000Y-15100000D03*
%TD*%
D12*
%TO.C,J2_(6:10)*%
X-61250000Y0D03*
X-74750000Y0D03*
D11*
X-63500000Y900000D03*
X-64000000Y-900000D03*
X-64500000Y900000D03*
X-65000000Y-900000D03*
X-65500000Y900000D03*
X-66000000Y-900000D03*
X-66500000Y900000D03*
X-67000000Y-900000D03*
X-67500000Y900000D03*
X-68000000Y-900000D03*
X-68500000Y900000D03*
X-69000000Y-900000D03*
X-69500000Y900000D03*
X-70000000Y-900000D03*
X-70500000Y900000D03*
X-71000000Y-900000D03*
X-71500000Y900000D03*
X-72000000Y-900000D03*
X-72500000Y900000D03*
%TD*%
D10*
%TO.C,J1_(11:12)*%
X15900000Y69750000D03*
X15900000Y56250000D03*
D11*
X15000000Y67500000D03*
X16800000Y67000000D03*
X15000000Y66500000D03*
X16800000Y66000000D03*
X15000000Y65500000D03*
X16800000Y65000000D03*
X15000000Y64500000D03*
X16800000Y64000000D03*
X15000000Y63500000D03*
X16800000Y63000000D03*
X15000000Y62500000D03*
X16800000Y62000000D03*
X15000000Y61500000D03*
X16800000Y61000000D03*
X15000000Y60500000D03*
X16800000Y60000000D03*
X15000000Y59500000D03*
X16800000Y59000000D03*
X15000000Y58500000D03*
%TD*%
D10*
%TO.C,J3_(11:12)*%
X15900000Y-56250000D03*
X15900000Y-69750000D03*
D11*
X15000000Y-58500000D03*
X16800000Y-59000000D03*
X15000000Y-59500000D03*
X16800000Y-60000000D03*
X15000000Y-60500000D03*
X16800000Y-61000000D03*
X15000000Y-61500000D03*
X16800000Y-62000000D03*
X15000000Y-62500000D03*
X16800000Y-63000000D03*
X15000000Y-63500000D03*
X16800000Y-64000000D03*
X15000000Y-64500000D03*
X16800000Y-65000000D03*
X15000000Y-65500000D03*
X16800000Y-66000000D03*
X15000000Y-66500000D03*
X16800000Y-67000000D03*
X15000000Y-67500000D03*
%TD*%
D10*
%TO.C,J3_(6:10)*%
X0Y-56250000D03*
X0Y-69750000D03*
D11*
X-900000Y-58500000D03*
X900000Y-59000000D03*
X-900000Y-59500000D03*
X900000Y-60000000D03*
X-900000Y-60500000D03*
X900000Y-61000000D03*
X-900000Y-61500000D03*
X900000Y-62000000D03*
X-900000Y-62500000D03*
X900000Y-63000000D03*
X-900000Y-63500000D03*
X900000Y-64000000D03*
X-900000Y-64500000D03*
X900000Y-65000000D03*
X-900000Y-65500000D03*
X900000Y-66000000D03*
X-900000Y-66500000D03*
X900000Y-67000000D03*
X-900000Y-67500000D03*
%TD*%
D10*
%TO.C,J1_(6:10)*%
X0Y69750000D03*
X0Y56250000D03*
D11*
X-900000Y67500000D03*
X900000Y67000000D03*
X-900000Y66500000D03*
X900000Y66000000D03*
X-900000Y65500000D03*
X900000Y65000000D03*
X-900000Y64500000D03*
X900000Y64000000D03*
X-900000Y63500000D03*
X900000Y63000000D03*
X-900000Y62500000D03*
X900000Y62000000D03*
X-900000Y61500000D03*
X900000Y61000000D03*
X-900000Y60500000D03*
X900000Y60000000D03*
X-900000Y59500000D03*
X900000Y59000000D03*
X-900000Y58500000D03*
%TD*%
M02*
