%TF.GenerationSoftware,KiCad,Pcbnew,(5.1.9)-1*%
%TF.CreationDate,2021-08-10T11:53:15-06:00*%
%TF.ProjectId,VacuumFeedThruHDMI,56616375-756d-4466-9565-645468727548,rev?*%
%TF.SameCoordinates,Original*%
%TF.FileFunction,Legend,Bot*%
%TF.FilePolarity,Positive*%
%FSLAX46Y46*%
G04 Gerber Fmt 4.6, Leading zero omitted, Abs format (unit mm)*
G04 Created by KiCad (PCBNEW (5.1.9)-1) date 2021-08-10 11:53:15*
%MOMM*%
%LPD*%
G01*
G04 APERTURE LIST*
%ADD10C,0.300000*%
%ADD11C,0.150000*%
G04 APERTURE END LIST*
D10*
X-53192857Y48046428D02*
X-52692857Y46546428D01*
X-52192857Y48046428D01*
X-51050000Y46546428D02*
X-51050000Y47332142D01*
X-51121428Y47475000D01*
X-51264285Y47546428D01*
X-51550000Y47546428D01*
X-51692857Y47475000D01*
X-51050000Y46617857D02*
X-51192857Y46546428D01*
X-51550000Y46546428D01*
X-51692857Y46617857D01*
X-51764285Y46760714D01*
X-51764285Y46903571D01*
X-51692857Y47046428D01*
X-51550000Y47117857D01*
X-51192857Y47117857D01*
X-51050000Y47189285D01*
X-49692857Y46617857D02*
X-49835714Y46546428D01*
X-50121428Y46546428D01*
X-50264285Y46617857D01*
X-50335714Y46689285D01*
X-50407142Y46832142D01*
X-50407142Y47260714D01*
X-50335714Y47403571D01*
X-50264285Y47475000D01*
X-50121428Y47546428D01*
X-49835714Y47546428D01*
X-49692857Y47475000D01*
X-48407142Y47546428D02*
X-48407142Y46546428D01*
X-49050000Y47546428D02*
X-49050000Y46760714D01*
X-48978571Y46617857D01*
X-48835714Y46546428D01*
X-48621428Y46546428D01*
X-48478571Y46617857D01*
X-48407142Y46689285D01*
X-47050000Y47546428D02*
X-47050000Y46546428D01*
X-47692857Y47546428D02*
X-47692857Y46760714D01*
X-47621428Y46617857D01*
X-47478571Y46546428D01*
X-47264285Y46546428D01*
X-47121428Y46617857D01*
X-47050000Y46689285D01*
X-46335714Y46546428D02*
X-46335714Y47546428D01*
X-46335714Y47403571D02*
X-46264285Y47475000D01*
X-46121428Y47546428D01*
X-45907142Y47546428D01*
X-45764285Y47475000D01*
X-45692857Y47332142D01*
X-45692857Y46546428D01*
X-45692857Y47332142D02*
X-45621428Y47475000D01*
X-45478571Y47546428D01*
X-45264285Y47546428D01*
X-45121428Y47475000D01*
X-45050000Y47332142D01*
X-45050000Y46546428D01*
X-43835714Y47332142D02*
X-44335714Y47332142D01*
X-44335714Y46546428D02*
X-44335714Y48046428D01*
X-43621428Y48046428D01*
X-43264285Y48046428D02*
X-42407142Y48046428D01*
X-42835714Y46546428D02*
X-42835714Y48046428D01*
X-42264285Y46403571D02*
X-41121428Y46403571D01*
X-40764285Y46546428D02*
X-40764285Y48046428D01*
X-40764285Y47332142D02*
X-39907142Y47332142D01*
X-39907142Y46546428D02*
X-39907142Y48046428D01*
X-39192857Y46546428D02*
X-39192857Y48046428D01*
X-38835714Y48046428D01*
X-38621428Y47975000D01*
X-38478571Y47832142D01*
X-38407142Y47689285D01*
X-38335714Y47403571D01*
X-38335714Y47189285D01*
X-38407142Y46903571D01*
X-38478571Y46760714D01*
X-38621428Y46617857D01*
X-38835714Y46546428D01*
X-39192857Y46546428D01*
X-37692857Y46546428D02*
X-37692857Y48046428D01*
X-37192857Y46975000D01*
X-36692857Y48046428D01*
X-36692857Y46546428D01*
X-35978571Y46546428D02*
X-35978571Y48046428D01*
X-35621428Y46403571D02*
X-34478571Y46403571D01*
X-34335714Y48046428D02*
X-33835714Y46546428D01*
X-33335714Y48046428D01*
X-32050000Y46546428D02*
X-32907142Y46546428D01*
X-32478571Y46546428D02*
X-32478571Y48046428D01*
X-32621428Y47832142D01*
X-32764285Y47689285D01*
X-32907142Y47617857D01*
X-49407142Y44425000D02*
X-48692857Y44425000D01*
X-49550000Y43996428D02*
X-49050000Y45496428D01*
X-48550000Y43996428D01*
X-47407142Y44996428D02*
X-47407142Y43996428D01*
X-48050000Y44996428D02*
X-48050000Y44210714D01*
X-47978571Y44067857D01*
X-47835714Y43996428D01*
X-47621428Y43996428D01*
X-47478571Y44067857D01*
X-47407142Y44139285D01*
X-46050000Y44996428D02*
X-46050000Y43782142D01*
X-46121428Y43639285D01*
X-46192857Y43567857D01*
X-46335714Y43496428D01*
X-46550000Y43496428D01*
X-46692857Y43567857D01*
X-46050000Y44067857D02*
X-46192857Y43996428D01*
X-46478571Y43996428D01*
X-46621428Y44067857D01*
X-46692857Y44139285D01*
X-46764285Y44282142D01*
X-46764285Y44710714D01*
X-46692857Y44853571D01*
X-46621428Y44925000D01*
X-46478571Y44996428D01*
X-46192857Y44996428D01*
X-46050000Y44925000D01*
X-44692857Y44996428D02*
X-44692857Y43996428D01*
X-45335714Y44996428D02*
X-45335714Y44210714D01*
X-45264285Y44067857D01*
X-45121428Y43996428D01*
X-44907142Y43996428D01*
X-44764285Y44067857D01*
X-44692857Y44139285D01*
X-44050000Y44067857D02*
X-43907142Y43996428D01*
X-43621428Y43996428D01*
X-43478571Y44067857D01*
X-43407142Y44210714D01*
X-43407142Y44282142D01*
X-43478571Y44425000D01*
X-43621428Y44496428D01*
X-43835714Y44496428D01*
X-43978571Y44567857D01*
X-44050000Y44710714D01*
X-44050000Y44782142D01*
X-43978571Y44925000D01*
X-43835714Y44996428D01*
X-43621428Y44996428D01*
X-43478571Y44925000D01*
X-42978571Y44996428D02*
X-42407142Y44996428D01*
X-42764285Y45496428D02*
X-42764285Y44210714D01*
X-42692857Y44067857D01*
X-42550000Y43996428D01*
X-42407142Y43996428D01*
X-40835714Y45353571D02*
X-40764285Y45425000D01*
X-40621428Y45496428D01*
X-40264285Y45496428D01*
X-40121428Y45425000D01*
X-40050000Y45353571D01*
X-39978571Y45210714D01*
X-39978571Y45067857D01*
X-40050000Y44853571D01*
X-40907142Y43996428D01*
X-39978571Y43996428D01*
X-39050000Y45496428D02*
X-38907142Y45496428D01*
X-38764285Y45425000D01*
X-38692857Y45353571D01*
X-38621428Y45210714D01*
X-38550000Y44925000D01*
X-38550000Y44567857D01*
X-38621428Y44282142D01*
X-38692857Y44139285D01*
X-38764285Y44067857D01*
X-38907142Y43996428D01*
X-39050000Y43996428D01*
X-39192857Y44067857D01*
X-39264285Y44139285D01*
X-39335714Y44282142D01*
X-39407142Y44567857D01*
X-39407142Y44925000D01*
X-39335714Y45210714D01*
X-39264285Y45353571D01*
X-39192857Y45425000D01*
X-39050000Y45496428D01*
X-37978571Y45353571D02*
X-37907142Y45425000D01*
X-37764285Y45496428D01*
X-37407142Y45496428D01*
X-37264285Y45425000D01*
X-37192857Y45353571D01*
X-37121428Y45210714D01*
X-37121428Y45067857D01*
X-37192857Y44853571D01*
X-38050000Y43996428D01*
X-37121428Y43996428D01*
X-35692857Y43996428D02*
X-36550000Y43996428D01*
X-36121428Y43996428D02*
X-36121428Y45496428D01*
X-36264285Y45282142D01*
X-36407142Y45139285D01*
X-36550000Y45067857D01*
X-51407142Y41446428D02*
X-51907142Y42160714D01*
X-52264285Y41446428D02*
X-52264285Y42946428D01*
X-51692857Y42946428D01*
X-51550000Y42875000D01*
X-51478571Y42803571D01*
X-51407142Y42660714D01*
X-51407142Y42446428D01*
X-51478571Y42303571D01*
X-51550000Y42232142D01*
X-51692857Y42160714D01*
X-52264285Y42160714D01*
X-50907142Y42446428D02*
X-50550000Y41446428D01*
X-50192857Y42446428D02*
X-50550000Y41446428D01*
X-50692857Y41089285D01*
X-50764285Y41017857D01*
X-50907142Y40946428D01*
X-48978571Y41446428D02*
X-48978571Y42232142D01*
X-49050000Y42375000D01*
X-49192857Y42446428D01*
X-49478571Y42446428D01*
X-49621428Y42375000D01*
X-48978571Y41517857D02*
X-49121428Y41446428D01*
X-49478571Y41446428D01*
X-49621428Y41517857D01*
X-49692857Y41660714D01*
X-49692857Y41803571D01*
X-49621428Y41946428D01*
X-49478571Y42017857D01*
X-49121428Y42017857D01*
X-48978571Y42089285D01*
X-48264285Y42446428D02*
X-48264285Y41446428D01*
X-48264285Y42303571D02*
X-48192857Y42375000D01*
X-48050000Y42446428D01*
X-47835714Y42446428D01*
X-47692857Y42375000D01*
X-47621428Y42232142D01*
X-47621428Y41446428D01*
X-45764285Y41446428D02*
X-45764285Y42946428D01*
X-45264285Y41875000D01*
X-44764285Y42946428D01*
X-44764285Y41446428D01*
X-43835714Y41446428D02*
X-43978571Y41517857D01*
X-44050000Y41589285D01*
X-44121428Y41732142D01*
X-44121428Y42160714D01*
X-44050000Y42303571D01*
X-43978571Y42375000D01*
X-43835714Y42446428D01*
X-43621428Y42446428D01*
X-43478571Y42375000D01*
X-43407142Y42303571D01*
X-43335714Y42160714D01*
X-43335714Y41732142D01*
X-43407142Y41589285D01*
X-43478571Y41517857D01*
X-43621428Y41446428D01*
X-43835714Y41446428D01*
X-42692857Y41446428D02*
X-42692857Y42446428D01*
X-42692857Y42160714D02*
X-42621428Y42303571D01*
X-42550000Y42375000D01*
X-42407142Y42446428D01*
X-42264285Y42446428D01*
X-41121428Y42446428D02*
X-41121428Y41232142D01*
X-41192857Y41089285D01*
X-41264285Y41017857D01*
X-41407142Y40946428D01*
X-41621428Y40946428D01*
X-41764285Y41017857D01*
X-41121428Y41517857D02*
X-41264285Y41446428D01*
X-41550000Y41446428D01*
X-41692857Y41517857D01*
X-41764285Y41589285D01*
X-41835714Y41732142D01*
X-41835714Y42160714D01*
X-41764285Y42303571D01*
X-41692857Y42375000D01*
X-41550000Y42446428D01*
X-41264285Y42446428D01*
X-41121428Y42375000D01*
X-39835714Y41517857D02*
X-39978571Y41446428D01*
X-40264285Y41446428D01*
X-40407142Y41517857D01*
X-40478571Y41660714D01*
X-40478571Y42232142D01*
X-40407142Y42375000D01*
X-40264285Y42446428D01*
X-39978571Y42446428D01*
X-39835714Y42375000D01*
X-39764285Y42232142D01*
X-39764285Y42089285D01*
X-40478571Y41946428D01*
X-39121428Y42446428D02*
X-39121428Y41446428D01*
X-39121428Y42303571D02*
X-39050000Y42375000D01*
X-38907142Y42446428D01*
X-38692857Y42446428D01*
X-38550000Y42375000D01*
X-38478571Y42232142D01*
X-38478571Y41446428D01*
X-37835714Y41517857D02*
X-37692857Y41446428D01*
X-37407142Y41446428D01*
X-37264285Y41517857D01*
X-37192857Y41660714D01*
X-37192857Y41732142D01*
X-37264285Y41875000D01*
X-37407142Y41946428D01*
X-37621428Y41946428D01*
X-37764285Y42017857D01*
X-37835714Y42160714D01*
X-37835714Y42232142D01*
X-37764285Y42375000D01*
X-37621428Y42446428D01*
X-37407142Y42446428D01*
X-37264285Y42375000D01*
X-36764285Y42446428D02*
X-36192857Y42446428D01*
X-36550000Y42946428D02*
X-36550000Y41660714D01*
X-36478571Y41517857D01*
X-36335714Y41446428D01*
X-36192857Y41446428D01*
X-35121428Y41517857D02*
X-35264285Y41446428D01*
X-35550000Y41446428D01*
X-35692857Y41517857D01*
X-35764285Y41660714D01*
X-35764285Y42232142D01*
X-35692857Y42375000D01*
X-35550000Y42446428D01*
X-35264285Y42446428D01*
X-35121428Y42375000D01*
X-35050000Y42232142D01*
X-35050000Y42089285D01*
X-35764285Y41946428D01*
X-34407142Y41446428D02*
X-34407142Y42446428D01*
X-34407142Y42160714D02*
X-34335714Y42303571D01*
X-34264285Y42375000D01*
X-34121428Y42446428D01*
X-33978571Y42446428D01*
X-33478571Y42446428D02*
X-33478571Y41446428D01*
X-33478571Y42303571D02*
X-33407142Y42375000D01*
X-33264285Y42446428D01*
X-33050000Y42446428D01*
X-32907142Y42375000D01*
X-32835714Y42232142D01*
X-32835714Y41446428D01*
X-49692857Y40396428D02*
X-49192857Y38896428D01*
X-48692857Y40396428D01*
X-47550000Y38896428D02*
X-47550000Y39682142D01*
X-47621428Y39825000D01*
X-47764285Y39896428D01*
X-48050000Y39896428D01*
X-48192857Y39825000D01*
X-47550000Y38967857D02*
X-47692857Y38896428D01*
X-48050000Y38896428D01*
X-48192857Y38967857D01*
X-48264285Y39110714D01*
X-48264285Y39253571D01*
X-48192857Y39396428D01*
X-48050000Y39467857D01*
X-47692857Y39467857D01*
X-47550000Y39539285D01*
X-46192857Y38967857D02*
X-46335714Y38896428D01*
X-46621428Y38896428D01*
X-46764285Y38967857D01*
X-46835714Y39039285D01*
X-46907142Y39182142D01*
X-46907142Y39610714D01*
X-46835714Y39753571D01*
X-46764285Y39825000D01*
X-46621428Y39896428D01*
X-46335714Y39896428D01*
X-46192857Y39825000D01*
X-44907142Y39896428D02*
X-44907142Y38896428D01*
X-45550000Y39896428D02*
X-45550000Y39110714D01*
X-45478571Y38967857D01*
X-45335714Y38896428D01*
X-45121428Y38896428D01*
X-44978571Y38967857D01*
X-44907142Y39039285D01*
X-43550000Y39896428D02*
X-43550000Y38896428D01*
X-44192857Y39896428D02*
X-44192857Y39110714D01*
X-44121428Y38967857D01*
X-43978571Y38896428D01*
X-43764285Y38896428D01*
X-43621428Y38967857D01*
X-43550000Y39039285D01*
X-42835714Y38896428D02*
X-42835714Y39896428D01*
X-42835714Y39753571D02*
X-42764285Y39825000D01*
X-42621428Y39896428D01*
X-42407142Y39896428D01*
X-42264285Y39825000D01*
X-42192857Y39682142D01*
X-42192857Y38896428D01*
X-42192857Y39682142D02*
X-42121428Y39825000D01*
X-41978571Y39896428D01*
X-41764285Y39896428D01*
X-41621428Y39825000D01*
X-41550000Y39682142D01*
X-41550000Y38896428D01*
X-39764285Y38967857D02*
X-39550000Y38896428D01*
X-39192857Y38896428D01*
X-39050000Y38967857D01*
X-38978571Y39039285D01*
X-38907142Y39182142D01*
X-38907142Y39325000D01*
X-38978571Y39467857D01*
X-39050000Y39539285D01*
X-39192857Y39610714D01*
X-39478571Y39682142D01*
X-39621428Y39753571D01*
X-39692857Y39825000D01*
X-39764285Y39967857D01*
X-39764285Y40110714D01*
X-39692857Y40253571D01*
X-39621428Y40325000D01*
X-39478571Y40396428D01*
X-39121428Y40396428D01*
X-38907142Y40325000D01*
X-38264285Y38896428D02*
X-38264285Y39896428D01*
X-38264285Y40396428D02*
X-38335714Y40325000D01*
X-38264285Y40253571D01*
X-38192857Y40325000D01*
X-38264285Y40396428D01*
X-38264285Y40253571D01*
X-36907142Y38896428D02*
X-36907142Y40396428D01*
X-36907142Y38967857D02*
X-37050000Y38896428D01*
X-37335714Y38896428D01*
X-37478571Y38967857D01*
X-37550000Y39039285D01*
X-37621428Y39182142D01*
X-37621428Y39610714D01*
X-37550000Y39753571D01*
X-37478571Y39825000D01*
X-37335714Y39896428D01*
X-37050000Y39896428D01*
X-36907142Y39825000D01*
X-35621428Y38967857D02*
X-35764285Y38896428D01*
X-36050000Y38896428D01*
X-36192857Y38967857D01*
X-36264285Y39110714D01*
X-36264285Y39682142D01*
X-36192857Y39825000D01*
X-36050000Y39896428D01*
X-35764285Y39896428D01*
X-35621428Y39825000D01*
X-35550000Y39682142D01*
X-35550000Y39539285D01*
X-36264285Y39396428D01*
D11*
%TO.C,J3*%
X9080000Y-12960000D02*
X-8080000Y-12960000D01*
X9080000Y-9940000D02*
X9080000Y-12960000D01*
X-9080000Y-9940000D02*
X9080000Y-9940000D01*
X-9080000Y-11960000D02*
X-9080000Y-9940000D01*
X-8080000Y-12960000D02*
X-9080000Y-11960000D01*
%TO.C,J1*%
X9080000Y11040000D02*
X-8080000Y11040000D01*
X9080000Y14060000D02*
X9080000Y11040000D01*
X-9080000Y14060000D02*
X9080000Y14060000D01*
X-9080000Y12040000D02*
X-9080000Y14060000D01*
X-8080000Y11040000D02*
X-9080000Y12040000D01*
%TO.C,J2*%
X9080000Y-960000D02*
X-8080000Y-960000D01*
X9080000Y2060000D02*
X9080000Y-960000D01*
X-9080000Y2060000D02*
X9080000Y2060000D01*
X-9080000Y40000D02*
X-9080000Y2060000D01*
X-8080000Y-960000D02*
X-9080000Y40000D01*
%TO.C,J3*%
X400000Y-8082857D02*
X400000Y-8940000D01*
X457142Y-9111428D01*
X571428Y-9225714D01*
X742857Y-9282857D01*
X857142Y-9282857D01*
X-57142Y-8082857D02*
X-799999Y-8082857D01*
X-399999Y-8540000D01*
X-571428Y-8540000D01*
X-685714Y-8597142D01*
X-742857Y-8654285D01*
X-799999Y-8768571D01*
X-799999Y-9054285D01*
X-742857Y-9168571D01*
X-685714Y-9225714D01*
X-571428Y-9282857D01*
X-228571Y-9282857D01*
X-114285Y-9225714D01*
X-57142Y-9168571D01*
X-7905714Y-14442380D02*
X-7334285Y-14442380D01*
X-7619999Y-14442380D02*
X-7619999Y-13442380D01*
X-7524761Y-13585238D01*
X-7429523Y-13680476D01*
X-7334285Y-13728095D01*
%TO.C,J1*%
X400000Y15917142D02*
X400000Y15060000D01*
X457142Y14888571D01*
X571428Y14774285D01*
X742857Y14717142D01*
X857142Y14717142D01*
X-799999Y14717142D02*
X-114285Y14717142D01*
X-457142Y14717142D02*
X-457142Y15917142D01*
X-342857Y15745714D01*
X-228571Y15631428D01*
X-114285Y15574285D01*
X-7905714Y9557619D02*
X-7334285Y9557619D01*
X-7619999Y9557619D02*
X-7619999Y10557619D01*
X-7524761Y10414761D01*
X-7429523Y10319523D01*
X-7334285Y10271904D01*
%TO.C,J2*%
X400000Y3917142D02*
X400000Y3060000D01*
X457142Y2888571D01*
X571428Y2774285D01*
X742857Y2717142D01*
X857142Y2717142D01*
X-114285Y3802857D02*
X-171428Y3860000D01*
X-285714Y3917142D01*
X-571428Y3917142D01*
X-685714Y3860000D01*
X-742857Y3802857D01*
X-799999Y3688571D01*
X-799999Y3574285D01*
X-742857Y3402857D01*
X-57142Y2717142D01*
X-799999Y2717142D01*
X-7905714Y-2442380D02*
X-7334285Y-2442380D01*
X-7619999Y-2442380D02*
X-7619999Y-1442380D01*
X-7524761Y-1585238D01*
X-7429523Y-1680476D01*
X-7334285Y-1728095D01*
%TD*%
M02*
