%TF.GenerationSoftware,KiCad,Pcbnew,(5.1.9)-1*%
%TF.CreationDate,2021-08-09T14:44:20-06:00*%
%TF.ProjectId,VacuumFeedThruHDMI,56616375-756d-4466-9565-645468727548,rev?*%
%TF.SameCoordinates,Original*%
%TF.FileFunction,Other,Comment*%
%FSLAX46Y46*%
G04 Gerber Fmt 4.6, Leading zero omitted, Abs format (unit mm)*
G04 Created by KiCad (PCBNEW (5.1.9)-1) date 2021-08-09 14:44:20*
%MOMM*%
%LPD*%
G01*
G04 APERTURE LIST*
%ADD10C,0.150000*%
G04 APERTURE END LIST*
%TO.C,J3 - (9:12)*%
D10*
X15785714Y-65095238D02*
X16595238Y-65095238D01*
X16690476Y-65142857D01*
X16738095Y-65190476D01*
X16785714Y-65285714D01*
X16785714Y-65428571D01*
X16738095Y-65523809D01*
X16404761Y-65095238D02*
X16452380Y-65190476D01*
X16452380Y-65380952D01*
X16404761Y-65476190D01*
X16357142Y-65523809D01*
X16261904Y-65571428D01*
X15976190Y-65571428D01*
X15880952Y-65523809D01*
X15833333Y-65476190D01*
X15785714Y-65380952D01*
X15785714Y-65190476D01*
X15833333Y-65095238D01*
X15785714Y-64190476D02*
X16595238Y-64190476D01*
X16690476Y-64238095D01*
X16738095Y-64285714D01*
X16785714Y-64380952D01*
X16785714Y-64523809D01*
X16738095Y-64619047D01*
X16404761Y-64190476D02*
X16452380Y-64285714D01*
X16452380Y-64476190D01*
X16404761Y-64571428D01*
X16357142Y-64619047D01*
X16261904Y-64666666D01*
X15976190Y-64666666D01*
X15880952Y-64619047D01*
X15833333Y-64571428D01*
X15785714Y-64476190D01*
X15785714Y-64285714D01*
X15833333Y-64190476D01*
X16404761Y-63333333D02*
X16452380Y-63428571D01*
X16452380Y-63619047D01*
X16404761Y-63714285D01*
X16309523Y-63761904D01*
X15928571Y-63761904D01*
X15833333Y-63714285D01*
X15785714Y-63619047D01*
X15785714Y-63428571D01*
X15833333Y-63333333D01*
X15928571Y-63285714D01*
X16023809Y-63285714D01*
X16119047Y-63761904D01*
X16452380Y-62333333D02*
X16452380Y-62904761D01*
X16452380Y-62619047D02*
X15452380Y-62619047D01*
X15595238Y-62714285D01*
X15690476Y-62809523D01*
X15738095Y-62904761D01*
X15452380Y-61476190D02*
X15452380Y-61666666D01*
X15500000Y-61761904D01*
X15547619Y-61809523D01*
X15690476Y-61904761D01*
X15880952Y-61952380D01*
X16261904Y-61952380D01*
X16357142Y-61904761D01*
X16404761Y-61857142D01*
X16452380Y-61761904D01*
X16452380Y-61571428D01*
X16404761Y-61476190D01*
X16357142Y-61428571D01*
X16261904Y-61380952D01*
X16023809Y-61380952D01*
X15928571Y-61428571D01*
X15880952Y-61476190D01*
X15833333Y-61571428D01*
X15833333Y-61761904D01*
X15880952Y-61857142D01*
X15928571Y-61904761D01*
X16023809Y-61952380D01*
X15880952Y-60809523D02*
X15833333Y-60904761D01*
X15785714Y-60952380D01*
X15690476Y-61000000D01*
X15642857Y-61000000D01*
X15547619Y-60952380D01*
X15500000Y-60904761D01*
X15452380Y-60809523D01*
X15452380Y-60619047D01*
X15500000Y-60523809D01*
X15547619Y-60476190D01*
X15642857Y-60428571D01*
X15690476Y-60428571D01*
X15785714Y-60476190D01*
X15833333Y-60523809D01*
X15880952Y-60619047D01*
X15880952Y-60809523D01*
X15928571Y-60904761D01*
X15976190Y-60952380D01*
X16071428Y-61000000D01*
X16261904Y-61000000D01*
X16357142Y-60952380D01*
X16404761Y-60904761D01*
X16452380Y-60809523D01*
X16452380Y-60619047D01*
X16404761Y-60523809D01*
X16357142Y-60476190D01*
X16261904Y-60428571D01*
X16071428Y-60428571D01*
X15976190Y-60476190D01*
X15928571Y-60523809D01*
X15880952Y-60619047D01*
%TO.C,J3 - (1:4)*%
X-16214285Y-65095238D02*
X-15404761Y-65095238D01*
X-15309523Y-65142857D01*
X-15261904Y-65190476D01*
X-15214285Y-65285714D01*
X-15214285Y-65428571D01*
X-15261904Y-65523809D01*
X-15595238Y-65095238D02*
X-15547619Y-65190476D01*
X-15547619Y-65380952D01*
X-15595238Y-65476190D01*
X-15642857Y-65523809D01*
X-15738095Y-65571428D01*
X-16023809Y-65571428D01*
X-16119047Y-65523809D01*
X-16166666Y-65476190D01*
X-16214285Y-65380952D01*
X-16214285Y-65190476D01*
X-16166666Y-65095238D01*
X-16214285Y-64190476D02*
X-15404761Y-64190476D01*
X-15309523Y-64238095D01*
X-15261904Y-64285714D01*
X-15214285Y-64380952D01*
X-15214285Y-64523809D01*
X-15261904Y-64619047D01*
X-15595238Y-64190476D02*
X-15547619Y-64285714D01*
X-15547619Y-64476190D01*
X-15595238Y-64571428D01*
X-15642857Y-64619047D01*
X-15738095Y-64666666D01*
X-16023809Y-64666666D01*
X-16119047Y-64619047D01*
X-16166666Y-64571428D01*
X-16214285Y-64476190D01*
X-16214285Y-64285714D01*
X-16166666Y-64190476D01*
X-15595238Y-63333333D02*
X-15547619Y-63428571D01*
X-15547619Y-63619047D01*
X-15595238Y-63714285D01*
X-15690476Y-63761904D01*
X-16071428Y-63761904D01*
X-16166666Y-63714285D01*
X-16214285Y-63619047D01*
X-16214285Y-63428571D01*
X-16166666Y-63333333D01*
X-16071428Y-63285714D01*
X-15976190Y-63285714D01*
X-15880952Y-63761904D01*
X-15547619Y-62333333D02*
X-15547619Y-62904761D01*
X-15547619Y-62619047D02*
X-16547619Y-62619047D01*
X-16404761Y-62714285D01*
X-16309523Y-62809523D01*
X-16261904Y-62904761D01*
X-16547619Y-61476190D02*
X-16547619Y-61666666D01*
X-16500000Y-61761904D01*
X-16452380Y-61809523D01*
X-16309523Y-61904761D01*
X-16119047Y-61952380D01*
X-15738095Y-61952380D01*
X-15642857Y-61904761D01*
X-15595238Y-61857142D01*
X-15547619Y-61761904D01*
X-15547619Y-61571428D01*
X-15595238Y-61476190D01*
X-15642857Y-61428571D01*
X-15738095Y-61380952D01*
X-15976190Y-61380952D01*
X-16071428Y-61428571D01*
X-16119047Y-61476190D01*
X-16166666Y-61571428D01*
X-16166666Y-61761904D01*
X-16119047Y-61857142D01*
X-16071428Y-61904761D01*
X-15976190Y-61952380D01*
X-16119047Y-60809523D02*
X-16166666Y-60904761D01*
X-16214285Y-60952380D01*
X-16309523Y-61000000D01*
X-16357142Y-61000000D01*
X-16452380Y-60952380D01*
X-16500000Y-60904761D01*
X-16547619Y-60809523D01*
X-16547619Y-60619047D01*
X-16500000Y-60523809D01*
X-16452380Y-60476190D01*
X-16357142Y-60428571D01*
X-16309523Y-60428571D01*
X-16214285Y-60476190D01*
X-16166666Y-60523809D01*
X-16119047Y-60619047D01*
X-16119047Y-60809523D01*
X-16071428Y-60904761D01*
X-16023809Y-60952380D01*
X-15928571Y-61000000D01*
X-15738095Y-61000000D01*
X-15642857Y-60952380D01*
X-15595238Y-60904761D01*
X-15547619Y-60809523D01*
X-15547619Y-60619047D01*
X-15595238Y-60523809D01*
X-15642857Y-60476190D01*
X-15738095Y-60428571D01*
X-15928571Y-60428571D01*
X-16023809Y-60476190D01*
X-16071428Y-60523809D01*
X-16119047Y-60619047D01*
%TO.C,J3 - (5:8)*%
X-214285Y-65095238D02*
X595238Y-65095238D01*
X690476Y-65142857D01*
X738095Y-65190476D01*
X785714Y-65285714D01*
X785714Y-65428571D01*
X738095Y-65523809D01*
X404761Y-65095238D02*
X452380Y-65190476D01*
X452380Y-65380952D01*
X404761Y-65476190D01*
X357142Y-65523809D01*
X261904Y-65571428D01*
X-23809Y-65571428D01*
X-119047Y-65523809D01*
X-166666Y-65476190D01*
X-214285Y-65380952D01*
X-214285Y-65190476D01*
X-166666Y-65095238D01*
X-214285Y-64190476D02*
X595238Y-64190476D01*
X690476Y-64238095D01*
X738095Y-64285714D01*
X785714Y-64380952D01*
X785714Y-64523809D01*
X738095Y-64619047D01*
X404761Y-64190476D02*
X452380Y-64285714D01*
X452380Y-64476190D01*
X404761Y-64571428D01*
X357142Y-64619047D01*
X261904Y-64666666D01*
X-23809Y-64666666D01*
X-119047Y-64619047D01*
X-166666Y-64571428D01*
X-214285Y-64476190D01*
X-214285Y-64285714D01*
X-166666Y-64190476D01*
X404761Y-63333333D02*
X452380Y-63428571D01*
X452380Y-63619047D01*
X404761Y-63714285D01*
X309523Y-63761904D01*
X-71428Y-63761904D01*
X-166666Y-63714285D01*
X-214285Y-63619047D01*
X-214285Y-63428571D01*
X-166666Y-63333333D01*
X-71428Y-63285714D01*
X23809Y-63285714D01*
X119047Y-63761904D01*
X452380Y-62333333D02*
X452380Y-62904761D01*
X452380Y-62619047D02*
X-547619Y-62619047D01*
X-404761Y-62714285D01*
X-309523Y-62809523D01*
X-261904Y-62904761D01*
X-547619Y-61476190D02*
X-547619Y-61666666D01*
X-499999Y-61761904D01*
X-452380Y-61809523D01*
X-309523Y-61904761D01*
X-119047Y-61952380D01*
X261904Y-61952380D01*
X357142Y-61904761D01*
X404761Y-61857142D01*
X452380Y-61761904D01*
X452380Y-61571428D01*
X404761Y-61476190D01*
X357142Y-61428571D01*
X261904Y-61380952D01*
X23809Y-61380952D01*
X-71428Y-61428571D01*
X-119047Y-61476190D01*
X-166666Y-61571428D01*
X-166666Y-61761904D01*
X-119047Y-61857142D01*
X-71428Y-61904761D01*
X23809Y-61952380D01*
X-119047Y-60809523D02*
X-166666Y-60904761D01*
X-214285Y-60952380D01*
X-309523Y-61000000D01*
X-357142Y-61000000D01*
X-452380Y-60952380D01*
X-499999Y-60904761D01*
X-547619Y-60809523D01*
X-547619Y-60619047D01*
X-499999Y-60523809D01*
X-452380Y-60476190D01*
X-357142Y-60428571D01*
X-309523Y-60428571D01*
X-214285Y-60476190D01*
X-166666Y-60523809D01*
X-119047Y-60619047D01*
X-119047Y-60809523D01*
X-71428Y-60904761D01*
X-23809Y-60952380D01*
X71428Y-61000000D01*
X261904Y-61000000D01*
X357142Y-60952380D01*
X404761Y-60904761D01*
X452380Y-60809523D01*
X452380Y-60619047D01*
X404761Y-60523809D01*
X357142Y-60476190D01*
X261904Y-60428571D01*
X71428Y-60428571D01*
X-23809Y-60476190D01*
X-71428Y-60523809D01*
X-119047Y-60619047D01*
%TO.C,J1 - (9:12)*%
X15785714Y60904761D02*
X16595238Y60904761D01*
X16690476Y60857142D01*
X16738095Y60809523D01*
X16785714Y60714285D01*
X16785714Y60571428D01*
X16738095Y60476190D01*
X16404761Y60904761D02*
X16452380Y60809523D01*
X16452380Y60619047D01*
X16404761Y60523809D01*
X16357142Y60476190D01*
X16261904Y60428571D01*
X15976190Y60428571D01*
X15880952Y60476190D01*
X15833333Y60523809D01*
X15785714Y60619047D01*
X15785714Y60809523D01*
X15833333Y60904761D01*
X15785714Y61809523D02*
X16595238Y61809523D01*
X16690476Y61761904D01*
X16738095Y61714285D01*
X16785714Y61619047D01*
X16785714Y61476190D01*
X16738095Y61380952D01*
X16404761Y61809523D02*
X16452380Y61714285D01*
X16452380Y61523809D01*
X16404761Y61428571D01*
X16357142Y61380952D01*
X16261904Y61333333D01*
X15976190Y61333333D01*
X15880952Y61380952D01*
X15833333Y61428571D01*
X15785714Y61523809D01*
X15785714Y61714285D01*
X15833333Y61809523D01*
X16404761Y62666666D02*
X16452380Y62571428D01*
X16452380Y62380952D01*
X16404761Y62285714D01*
X16309523Y62238095D01*
X15928571Y62238095D01*
X15833333Y62285714D01*
X15785714Y62380952D01*
X15785714Y62571428D01*
X15833333Y62666666D01*
X15928571Y62714285D01*
X16023809Y62714285D01*
X16119047Y62238095D01*
X16452380Y63666666D02*
X16452380Y63095238D01*
X16452380Y63380952D02*
X15452380Y63380952D01*
X15595238Y63285714D01*
X15690476Y63190476D01*
X15738095Y63095238D01*
X15452380Y64523809D02*
X15452380Y64333333D01*
X15500000Y64238095D01*
X15547619Y64190476D01*
X15690476Y64095238D01*
X15880952Y64047619D01*
X16261904Y64047619D01*
X16357142Y64095238D01*
X16404761Y64142857D01*
X16452380Y64238095D01*
X16452380Y64428571D01*
X16404761Y64523809D01*
X16357142Y64571428D01*
X16261904Y64619047D01*
X16023809Y64619047D01*
X15928571Y64571428D01*
X15880952Y64523809D01*
X15833333Y64428571D01*
X15833333Y64238095D01*
X15880952Y64142857D01*
X15928571Y64095238D01*
X16023809Y64047619D01*
X15880952Y65190476D02*
X15833333Y65095238D01*
X15785714Y65047619D01*
X15690476Y65000000D01*
X15642857Y65000000D01*
X15547619Y65047619D01*
X15500000Y65095238D01*
X15452380Y65190476D01*
X15452380Y65380952D01*
X15500000Y65476190D01*
X15547619Y65523809D01*
X15642857Y65571428D01*
X15690476Y65571428D01*
X15785714Y65523809D01*
X15833333Y65476190D01*
X15880952Y65380952D01*
X15880952Y65190476D01*
X15928571Y65095238D01*
X15976190Y65047619D01*
X16071428Y65000000D01*
X16261904Y65000000D01*
X16357142Y65047619D01*
X16404761Y65095238D01*
X16452380Y65190476D01*
X16452380Y65380952D01*
X16404761Y65476190D01*
X16357142Y65523809D01*
X16261904Y65571428D01*
X16071428Y65571428D01*
X15976190Y65523809D01*
X15928571Y65476190D01*
X15880952Y65380952D01*
%TO.C,J1- (1:4)*%
X-16214285Y60904761D02*
X-15404761Y60904761D01*
X-15309523Y60857142D01*
X-15261904Y60809523D01*
X-15214285Y60714285D01*
X-15214285Y60571428D01*
X-15261904Y60476190D01*
X-15595238Y60904761D02*
X-15547619Y60809523D01*
X-15547619Y60619047D01*
X-15595238Y60523809D01*
X-15642857Y60476190D01*
X-15738095Y60428571D01*
X-16023809Y60428571D01*
X-16119047Y60476190D01*
X-16166666Y60523809D01*
X-16214285Y60619047D01*
X-16214285Y60809523D01*
X-16166666Y60904761D01*
X-16214285Y61809523D02*
X-15404761Y61809523D01*
X-15309523Y61761904D01*
X-15261904Y61714285D01*
X-15214285Y61619047D01*
X-15214285Y61476190D01*
X-15261904Y61380952D01*
X-15595238Y61809523D02*
X-15547619Y61714285D01*
X-15547619Y61523809D01*
X-15595238Y61428571D01*
X-15642857Y61380952D01*
X-15738095Y61333333D01*
X-16023809Y61333333D01*
X-16119047Y61380952D01*
X-16166666Y61428571D01*
X-16214285Y61523809D01*
X-16214285Y61714285D01*
X-16166666Y61809523D01*
X-15595238Y62666666D02*
X-15547619Y62571428D01*
X-15547619Y62380952D01*
X-15595238Y62285714D01*
X-15690476Y62238095D01*
X-16071428Y62238095D01*
X-16166666Y62285714D01*
X-16214285Y62380952D01*
X-16214285Y62571428D01*
X-16166666Y62666666D01*
X-16071428Y62714285D01*
X-15976190Y62714285D01*
X-15880952Y62238095D01*
X-15547619Y63666666D02*
X-15547619Y63095238D01*
X-15547619Y63380952D02*
X-16547619Y63380952D01*
X-16404761Y63285714D01*
X-16309523Y63190476D01*
X-16261904Y63095238D01*
X-16547619Y64523809D02*
X-16547619Y64333333D01*
X-16500000Y64238095D01*
X-16452380Y64190476D01*
X-16309523Y64095238D01*
X-16119047Y64047619D01*
X-15738095Y64047619D01*
X-15642857Y64095238D01*
X-15595238Y64142857D01*
X-15547619Y64238095D01*
X-15547619Y64428571D01*
X-15595238Y64523809D01*
X-15642857Y64571428D01*
X-15738095Y64619047D01*
X-15976190Y64619047D01*
X-16071428Y64571428D01*
X-16119047Y64523809D01*
X-16166666Y64428571D01*
X-16166666Y64238095D01*
X-16119047Y64142857D01*
X-16071428Y64095238D01*
X-15976190Y64047619D01*
X-16119047Y65190476D02*
X-16166666Y65095238D01*
X-16214285Y65047619D01*
X-16309523Y65000000D01*
X-16357142Y65000000D01*
X-16452380Y65047619D01*
X-16500000Y65095238D01*
X-16547619Y65190476D01*
X-16547619Y65380952D01*
X-16500000Y65476190D01*
X-16452380Y65523809D01*
X-16357142Y65571428D01*
X-16309523Y65571428D01*
X-16214285Y65523809D01*
X-16166666Y65476190D01*
X-16119047Y65380952D01*
X-16119047Y65190476D01*
X-16071428Y65095238D01*
X-16023809Y65047619D01*
X-15928571Y65000000D01*
X-15738095Y65000000D01*
X-15642857Y65047619D01*
X-15595238Y65095238D01*
X-15547619Y65190476D01*
X-15547619Y65380952D01*
X-15595238Y65476190D01*
X-15642857Y65523809D01*
X-15738095Y65571428D01*
X-15928571Y65571428D01*
X-16023809Y65523809D01*
X-16071428Y65476190D01*
X-16119047Y65380952D01*
%TO.C,J1 - (5:8)*%
X-214285Y60904761D02*
X595238Y60904761D01*
X690476Y60857142D01*
X738095Y60809523D01*
X785714Y60714285D01*
X785714Y60571428D01*
X738095Y60476190D01*
X404761Y60904761D02*
X452380Y60809523D01*
X452380Y60619047D01*
X404761Y60523809D01*
X357142Y60476190D01*
X261904Y60428571D01*
X-23809Y60428571D01*
X-119047Y60476190D01*
X-166666Y60523809D01*
X-214285Y60619047D01*
X-214285Y60809523D01*
X-166666Y60904761D01*
X-214285Y61809523D02*
X595238Y61809523D01*
X690476Y61761904D01*
X738095Y61714285D01*
X785714Y61619047D01*
X785714Y61476190D01*
X738095Y61380952D01*
X404761Y61809523D02*
X452380Y61714285D01*
X452380Y61523809D01*
X404761Y61428571D01*
X357142Y61380952D01*
X261904Y61333333D01*
X-23809Y61333333D01*
X-119047Y61380952D01*
X-166666Y61428571D01*
X-214285Y61523809D01*
X-214285Y61714285D01*
X-166666Y61809523D01*
X404761Y62666666D02*
X452380Y62571428D01*
X452380Y62380952D01*
X404761Y62285714D01*
X309523Y62238095D01*
X-71428Y62238095D01*
X-166666Y62285714D01*
X-214285Y62380952D01*
X-214285Y62571428D01*
X-166666Y62666666D01*
X-71428Y62714285D01*
X23809Y62714285D01*
X119047Y62238095D01*
X452380Y63666666D02*
X452380Y63095238D01*
X452380Y63380952D02*
X-547619Y63380952D01*
X-404761Y63285714D01*
X-309523Y63190476D01*
X-261904Y63095238D01*
X-547619Y64523809D02*
X-547619Y64333333D01*
X-499999Y64238095D01*
X-452380Y64190476D01*
X-309523Y64095238D01*
X-119047Y64047619D01*
X261904Y64047619D01*
X357142Y64095238D01*
X404761Y64142857D01*
X452380Y64238095D01*
X452380Y64428571D01*
X404761Y64523809D01*
X357142Y64571428D01*
X261904Y64619047D01*
X23809Y64619047D01*
X-71428Y64571428D01*
X-119047Y64523809D01*
X-166666Y64428571D01*
X-166666Y64238095D01*
X-119047Y64142857D01*
X-71428Y64095238D01*
X23809Y64047619D01*
X-119047Y65190476D02*
X-166666Y65095238D01*
X-214285Y65047619D01*
X-309523Y65000000D01*
X-357142Y65000000D01*
X-452380Y65047619D01*
X-499999Y65095238D01*
X-547619Y65190476D01*
X-547619Y65380952D01*
X-499999Y65476190D01*
X-452380Y65523809D01*
X-357142Y65571428D01*
X-309523Y65571428D01*
X-214285Y65523809D01*
X-166666Y65476190D01*
X-119047Y65380952D01*
X-119047Y65190476D01*
X-71428Y65095238D01*
X-23809Y65047619D01*
X71428Y65000000D01*
X261904Y65000000D01*
X357142Y65047619D01*
X404761Y65095238D01*
X452380Y65190476D01*
X452380Y65380952D01*
X404761Y65476190D01*
X357142Y65523809D01*
X261904Y65571428D01*
X71428Y65571428D01*
X-23809Y65523809D01*
X-71428Y65476190D01*
X-119047Y65380952D01*
%TO.C,J2 - (9:12)*%
X-70095238Y16214285D02*
X-70095238Y15404761D01*
X-70142857Y15309523D01*
X-70190476Y15261904D01*
X-70285714Y15214285D01*
X-70428571Y15214285D01*
X-70523809Y15261904D01*
X-70095238Y15595238D02*
X-70190476Y15547619D01*
X-70380952Y15547619D01*
X-70476190Y15595238D01*
X-70523809Y15642857D01*
X-70571428Y15738095D01*
X-70571428Y16023809D01*
X-70523809Y16119047D01*
X-70476190Y16166666D01*
X-70380952Y16214285D01*
X-70190476Y16214285D01*
X-70095238Y16166666D01*
X-69190476Y16214285D02*
X-69190476Y15404761D01*
X-69238095Y15309523D01*
X-69285714Y15261904D01*
X-69380952Y15214285D01*
X-69523809Y15214285D01*
X-69619047Y15261904D01*
X-69190476Y15595238D02*
X-69285714Y15547619D01*
X-69476190Y15547619D01*
X-69571428Y15595238D01*
X-69619047Y15642857D01*
X-69666666Y15738095D01*
X-69666666Y16023809D01*
X-69619047Y16119047D01*
X-69571428Y16166666D01*
X-69476190Y16214285D01*
X-69285714Y16214285D01*
X-69190476Y16166666D01*
X-68333333Y15595238D02*
X-68428571Y15547619D01*
X-68619047Y15547619D01*
X-68714285Y15595238D01*
X-68761904Y15690476D01*
X-68761904Y16071428D01*
X-68714285Y16166666D01*
X-68619047Y16214285D01*
X-68428571Y16214285D01*
X-68333333Y16166666D01*
X-68285714Y16071428D01*
X-68285714Y15976190D01*
X-68761904Y15880952D01*
X-67333333Y15547619D02*
X-67904761Y15547619D01*
X-67619047Y15547619D02*
X-67619047Y16547619D01*
X-67714285Y16404761D01*
X-67809523Y16309523D01*
X-67904761Y16261904D01*
X-66476190Y16547619D02*
X-66666666Y16547619D01*
X-66761904Y16500000D01*
X-66809523Y16452380D01*
X-66904761Y16309523D01*
X-66952380Y16119047D01*
X-66952380Y15738095D01*
X-66904761Y15642857D01*
X-66857142Y15595238D01*
X-66761904Y15547619D01*
X-66571428Y15547619D01*
X-66476190Y15595238D01*
X-66428571Y15642857D01*
X-66380952Y15738095D01*
X-66380952Y15976190D01*
X-66428571Y16071428D01*
X-66476190Y16119047D01*
X-66571428Y16166666D01*
X-66761904Y16166666D01*
X-66857142Y16119047D01*
X-66904761Y16071428D01*
X-66952380Y15976190D01*
X-65809523Y16119047D02*
X-65904761Y16166666D01*
X-65952380Y16214285D01*
X-66000000Y16309523D01*
X-66000000Y16357142D01*
X-65952380Y16452380D01*
X-65904761Y16500000D01*
X-65809523Y16547619D01*
X-65619047Y16547619D01*
X-65523809Y16500000D01*
X-65476190Y16452380D01*
X-65428571Y16357142D01*
X-65428571Y16309523D01*
X-65476190Y16214285D01*
X-65523809Y16166666D01*
X-65619047Y16119047D01*
X-65809523Y16119047D01*
X-65904761Y16071428D01*
X-65952380Y16023809D01*
X-66000000Y15928571D01*
X-66000000Y15738095D01*
X-65952380Y15642857D01*
X-65904761Y15595238D01*
X-65809523Y15547619D01*
X-65619047Y15547619D01*
X-65523809Y15595238D01*
X-65476190Y15642857D01*
X-65428571Y15738095D01*
X-65428571Y15928571D01*
X-65476190Y16023809D01*
X-65523809Y16071428D01*
X-65619047Y16119047D01*
%TO.C,J2 - (1:4)*%
X-70095238Y-15785714D02*
X-70095238Y-16595238D01*
X-70142857Y-16690476D01*
X-70190476Y-16738095D01*
X-70285714Y-16785714D01*
X-70428571Y-16785714D01*
X-70523809Y-16738095D01*
X-70095238Y-16404761D02*
X-70190476Y-16452380D01*
X-70380952Y-16452380D01*
X-70476190Y-16404761D01*
X-70523809Y-16357142D01*
X-70571428Y-16261904D01*
X-70571428Y-15976190D01*
X-70523809Y-15880952D01*
X-70476190Y-15833333D01*
X-70380952Y-15785714D01*
X-70190476Y-15785714D01*
X-70095238Y-15833333D01*
X-69190476Y-15785714D02*
X-69190476Y-16595238D01*
X-69238095Y-16690476D01*
X-69285714Y-16738095D01*
X-69380952Y-16785714D01*
X-69523809Y-16785714D01*
X-69619047Y-16738095D01*
X-69190476Y-16404761D02*
X-69285714Y-16452380D01*
X-69476190Y-16452380D01*
X-69571428Y-16404761D01*
X-69619047Y-16357142D01*
X-69666666Y-16261904D01*
X-69666666Y-15976190D01*
X-69619047Y-15880952D01*
X-69571428Y-15833333D01*
X-69476190Y-15785714D01*
X-69285714Y-15785714D01*
X-69190476Y-15833333D01*
X-68333333Y-16404761D02*
X-68428571Y-16452380D01*
X-68619047Y-16452380D01*
X-68714285Y-16404761D01*
X-68761904Y-16309523D01*
X-68761904Y-15928571D01*
X-68714285Y-15833333D01*
X-68619047Y-15785714D01*
X-68428571Y-15785714D01*
X-68333333Y-15833333D01*
X-68285714Y-15928571D01*
X-68285714Y-16023809D01*
X-68761904Y-16119047D01*
X-67333333Y-16452380D02*
X-67904761Y-16452380D01*
X-67619047Y-16452380D02*
X-67619047Y-15452380D01*
X-67714285Y-15595238D01*
X-67809523Y-15690476D01*
X-67904761Y-15738095D01*
X-66476190Y-15452380D02*
X-66666666Y-15452380D01*
X-66761904Y-15500000D01*
X-66809523Y-15547619D01*
X-66904761Y-15690476D01*
X-66952380Y-15880952D01*
X-66952380Y-16261904D01*
X-66904761Y-16357142D01*
X-66857142Y-16404761D01*
X-66761904Y-16452380D01*
X-66571428Y-16452380D01*
X-66476190Y-16404761D01*
X-66428571Y-16357142D01*
X-66380952Y-16261904D01*
X-66380952Y-16023809D01*
X-66428571Y-15928571D01*
X-66476190Y-15880952D01*
X-66571428Y-15833333D01*
X-66761904Y-15833333D01*
X-66857142Y-15880952D01*
X-66904761Y-15928571D01*
X-66952380Y-16023809D01*
X-65809523Y-15880952D02*
X-65904761Y-15833333D01*
X-65952380Y-15785714D01*
X-66000000Y-15690476D01*
X-66000000Y-15642857D01*
X-65952380Y-15547619D01*
X-65904761Y-15500000D01*
X-65809523Y-15452380D01*
X-65619047Y-15452380D01*
X-65523809Y-15500000D01*
X-65476190Y-15547619D01*
X-65428571Y-15642857D01*
X-65428571Y-15690476D01*
X-65476190Y-15785714D01*
X-65523809Y-15833333D01*
X-65619047Y-15880952D01*
X-65809523Y-15880952D01*
X-65904761Y-15928571D01*
X-65952380Y-15976190D01*
X-66000000Y-16071428D01*
X-66000000Y-16261904D01*
X-65952380Y-16357142D01*
X-65904761Y-16404761D01*
X-65809523Y-16452380D01*
X-65619047Y-16452380D01*
X-65523809Y-16404761D01*
X-65476190Y-16357142D01*
X-65428571Y-16261904D01*
X-65428571Y-16071428D01*
X-65476190Y-15976190D01*
X-65523809Y-15928571D01*
X-65619047Y-15880952D01*
%TO.C,J2 - (5:8)*%
X-70095238Y214285D02*
X-70095238Y-595238D01*
X-70142857Y-690476D01*
X-70190476Y-738095D01*
X-70285714Y-785714D01*
X-70428571Y-785714D01*
X-70523809Y-738095D01*
X-70095238Y-404761D02*
X-70190476Y-452380D01*
X-70380952Y-452380D01*
X-70476190Y-404761D01*
X-70523809Y-357142D01*
X-70571428Y-261904D01*
X-70571428Y23809D01*
X-70523809Y119047D01*
X-70476190Y166666D01*
X-70380952Y214285D01*
X-70190476Y214285D01*
X-70095238Y166666D01*
X-69190476Y214285D02*
X-69190476Y-595238D01*
X-69238095Y-690476D01*
X-69285714Y-738095D01*
X-69380952Y-785714D01*
X-69523809Y-785714D01*
X-69619047Y-738095D01*
X-69190476Y-404761D02*
X-69285714Y-452380D01*
X-69476190Y-452380D01*
X-69571428Y-404761D01*
X-69619047Y-357142D01*
X-69666666Y-261904D01*
X-69666666Y23809D01*
X-69619047Y119047D01*
X-69571428Y166666D01*
X-69476190Y214285D01*
X-69285714Y214285D01*
X-69190476Y166666D01*
X-68333333Y-404761D02*
X-68428571Y-452380D01*
X-68619047Y-452380D01*
X-68714285Y-404761D01*
X-68761904Y-309523D01*
X-68761904Y71428D01*
X-68714285Y166666D01*
X-68619047Y214285D01*
X-68428571Y214285D01*
X-68333333Y166666D01*
X-68285714Y71428D01*
X-68285714Y-23809D01*
X-68761904Y-119047D01*
X-67333333Y-452380D02*
X-67904761Y-452380D01*
X-67619047Y-452380D02*
X-67619047Y547619D01*
X-67714285Y404761D01*
X-67809523Y309523D01*
X-67904761Y261904D01*
X-66476190Y547619D02*
X-66666666Y547619D01*
X-66761904Y500000D01*
X-66809523Y452380D01*
X-66904761Y309523D01*
X-66952380Y119047D01*
X-66952380Y-261904D01*
X-66904761Y-357142D01*
X-66857142Y-404761D01*
X-66761904Y-452380D01*
X-66571428Y-452380D01*
X-66476190Y-404761D01*
X-66428571Y-357142D01*
X-66380952Y-261904D01*
X-66380952Y-23809D01*
X-66428571Y71428D01*
X-66476190Y119047D01*
X-66571428Y166666D01*
X-66761904Y166666D01*
X-66857142Y119047D01*
X-66904761Y71428D01*
X-66952380Y-23809D01*
X-65809523Y119047D02*
X-65904761Y166666D01*
X-65952380Y214285D01*
X-66000000Y309523D01*
X-66000000Y357142D01*
X-65952380Y452380D01*
X-65904761Y500000D01*
X-65809523Y547619D01*
X-65619047Y547619D01*
X-65523809Y500000D01*
X-65476190Y452380D01*
X-65428571Y357142D01*
X-65428571Y309523D01*
X-65476190Y214285D01*
X-65523809Y166666D01*
X-65619047Y119047D01*
X-65809523Y119047D01*
X-65904761Y71428D01*
X-65952380Y23809D01*
X-66000000Y-71428D01*
X-66000000Y-261904D01*
X-65952380Y-357142D01*
X-65904761Y-404761D01*
X-65809523Y-452380D01*
X-65619047Y-452380D01*
X-65523809Y-404761D01*
X-65476190Y-357142D01*
X-65428571Y-261904D01*
X-65428571Y-71428D01*
X-65476190Y23809D01*
X-65523809Y71428D01*
X-65619047Y119047D01*
%TD*%
M02*
