%TF.GenerationSoftware,KiCad,Pcbnew,(5.1.9)-1*%
%TF.CreationDate,2021-08-06T17:39:50-06:00*%
%TF.ProjectId,VacuumFeedThruHDMI,56616375-756d-4466-9565-645468727548,rev?*%
%TF.SameCoordinates,Original*%
%TF.FileFunction,Other,Fab,Top*%
%FSLAX46Y46*%
G04 Gerber Fmt 4.6, Leading zero omitted, Abs format (unit mm)*
G04 Created by KiCad (PCBNEW (5.1.9)-1) date 2021-08-06 17:39:50*
%MOMM*%
%LPD*%
G01*
G04 APERTURE LIST*
%ADD10C,0.150000*%
G04 APERTURE END LIST*
%TO.C,J3*%
D10*
X-4206428Y-8092857D02*
X-4206428Y-6892857D01*
X-3920714Y-6892857D01*
X-3749285Y-6950000D01*
X-3635000Y-7064285D01*
X-3577857Y-7178571D01*
X-3520714Y-7407142D01*
X-3520714Y-7578571D01*
X-3577857Y-7807142D01*
X-3635000Y-7921428D01*
X-3749285Y-8035714D01*
X-3920714Y-8092857D01*
X-4206428Y-8092857D01*
X-2606428Y-7464285D02*
X-2435000Y-7521428D01*
X-2377857Y-7578571D01*
X-2320714Y-7692857D01*
X-2320714Y-7864285D01*
X-2377857Y-7978571D01*
X-2435000Y-8035714D01*
X-2549285Y-8092857D01*
X-3006428Y-8092857D01*
X-3006428Y-6892857D01*
X-2606428Y-6892857D01*
X-2492142Y-6950000D01*
X-2435000Y-7007142D01*
X-2377857Y-7121428D01*
X-2377857Y-7235714D01*
X-2435000Y-7350000D01*
X-2492142Y-7407142D01*
X-2606428Y-7464285D01*
X-3006428Y-7464285D01*
X-1863571Y-7007142D02*
X-1806428Y-6950000D01*
X-1692142Y-6892857D01*
X-1406428Y-6892857D01*
X-1292142Y-6950000D01*
X-1235000Y-7007142D01*
X-1177857Y-7121428D01*
X-1177857Y-7235714D01*
X-1235000Y-7407142D01*
X-1920714Y-8092857D01*
X-1177857Y-8092857D01*
X-92142Y-6892857D02*
X-663571Y-6892857D01*
X-720714Y-7464285D01*
X-663571Y-7407142D01*
X-549285Y-7350000D01*
X-263571Y-7350000D01*
X-149285Y-7407142D01*
X-92142Y-7464285D01*
X-35000Y-7578571D01*
X-35000Y-7864285D01*
X-92142Y-7978571D01*
X-149285Y-8035714D01*
X-263571Y-8092857D01*
X-549285Y-8092857D01*
X-663571Y-8035714D01*
X-720714Y-7978571D01*
X193571Y-8207142D02*
X1107857Y-8207142D01*
X1393571Y-8092857D02*
X1393571Y-6892857D01*
X1793571Y-7750000D01*
X2193571Y-6892857D01*
X2193571Y-8092857D01*
X3279285Y-8092857D02*
X3279285Y-7464285D01*
X3222142Y-7350000D01*
X3107857Y-7292857D01*
X2879285Y-7292857D01*
X2764999Y-7350000D01*
X3279285Y-8035714D02*
X3164999Y-8092857D01*
X2879285Y-8092857D01*
X2764999Y-8035714D01*
X2707857Y-7921428D01*
X2707857Y-7807142D01*
X2764999Y-7692857D01*
X2879285Y-7635714D01*
X3164999Y-7635714D01*
X3279285Y-7578571D01*
X4022142Y-8092857D02*
X3907857Y-8035714D01*
X3850714Y-7921428D01*
X3850714Y-6892857D01*
X4936428Y-8035714D02*
X4822142Y-8092857D01*
X4593571Y-8092857D01*
X4479285Y-8035714D01*
X4422142Y-7921428D01*
X4422142Y-7464285D01*
X4479285Y-7350000D01*
X4593571Y-7292857D01*
X4822142Y-7292857D01*
X4936428Y-7350000D01*
X4993571Y-7464285D01*
X4993571Y-7578571D01*
X4422142Y-7692857D01*
%TO.C,J2*%
X-4206428Y4907142D02*
X-4206428Y6107142D01*
X-3920714Y6107142D01*
X-3749285Y6050000D01*
X-3635000Y5935714D01*
X-3577857Y5821428D01*
X-3520714Y5592857D01*
X-3520714Y5421428D01*
X-3577857Y5192857D01*
X-3635000Y5078571D01*
X-3749285Y4964285D01*
X-3920714Y4907142D01*
X-4206428Y4907142D01*
X-2606428Y5535714D02*
X-2435000Y5478571D01*
X-2377857Y5421428D01*
X-2320714Y5307142D01*
X-2320714Y5135714D01*
X-2377857Y5021428D01*
X-2435000Y4964285D01*
X-2549285Y4907142D01*
X-3006428Y4907142D01*
X-3006428Y6107142D01*
X-2606428Y6107142D01*
X-2492142Y6050000D01*
X-2435000Y5992857D01*
X-2377857Y5878571D01*
X-2377857Y5764285D01*
X-2435000Y5650000D01*
X-2492142Y5592857D01*
X-2606428Y5535714D01*
X-3006428Y5535714D01*
X-1863571Y5992857D02*
X-1806428Y6050000D01*
X-1692142Y6107142D01*
X-1406428Y6107142D01*
X-1292142Y6050000D01*
X-1235000Y5992857D01*
X-1177857Y5878571D01*
X-1177857Y5764285D01*
X-1235000Y5592857D01*
X-1920714Y4907142D01*
X-1177857Y4907142D01*
X-92142Y6107142D02*
X-663571Y6107142D01*
X-720714Y5535714D01*
X-663571Y5592857D01*
X-549285Y5650000D01*
X-263571Y5650000D01*
X-149285Y5592857D01*
X-92142Y5535714D01*
X-35000Y5421428D01*
X-35000Y5135714D01*
X-92142Y5021428D01*
X-149285Y4964285D01*
X-263571Y4907142D01*
X-549285Y4907142D01*
X-663571Y4964285D01*
X-720714Y5021428D01*
X193571Y4792857D02*
X1107857Y4792857D01*
X1393571Y4907142D02*
X1393571Y6107142D01*
X1793571Y5250000D01*
X2193571Y6107142D01*
X2193571Y4907142D01*
X3279285Y4907142D02*
X3279285Y5535714D01*
X3222142Y5650000D01*
X3107857Y5707142D01*
X2879285Y5707142D01*
X2764999Y5650000D01*
X3279285Y4964285D02*
X3164999Y4907142D01*
X2879285Y4907142D01*
X2764999Y4964285D01*
X2707857Y5078571D01*
X2707857Y5192857D01*
X2764999Y5307142D01*
X2879285Y5364285D01*
X3164999Y5364285D01*
X3279285Y5421428D01*
X4022142Y4907142D02*
X3907857Y4964285D01*
X3850714Y5078571D01*
X3850714Y6107142D01*
X4936428Y4964285D02*
X4822142Y4907142D01*
X4593571Y4907142D01*
X4479285Y4964285D01*
X4422142Y5078571D01*
X4422142Y5535714D01*
X4479285Y5650000D01*
X4593571Y5707142D01*
X4822142Y5707142D01*
X4936428Y5650000D01*
X4993571Y5535714D01*
X4993571Y5421428D01*
X4422142Y5307142D01*
%TO.C,J1*%
X-4206428Y18007142D02*
X-4206428Y19207142D01*
X-3920714Y19207142D01*
X-3749285Y19150000D01*
X-3635000Y19035714D01*
X-3577857Y18921428D01*
X-3520714Y18692857D01*
X-3520714Y18521428D01*
X-3577857Y18292857D01*
X-3635000Y18178571D01*
X-3749285Y18064285D01*
X-3920714Y18007142D01*
X-4206428Y18007142D01*
X-2606428Y18635714D02*
X-2435000Y18578571D01*
X-2377857Y18521428D01*
X-2320714Y18407142D01*
X-2320714Y18235714D01*
X-2377857Y18121428D01*
X-2435000Y18064285D01*
X-2549285Y18007142D01*
X-3006428Y18007142D01*
X-3006428Y19207142D01*
X-2606428Y19207142D01*
X-2492142Y19150000D01*
X-2435000Y19092857D01*
X-2377857Y18978571D01*
X-2377857Y18864285D01*
X-2435000Y18750000D01*
X-2492142Y18692857D01*
X-2606428Y18635714D01*
X-3006428Y18635714D01*
X-1863571Y19092857D02*
X-1806428Y19150000D01*
X-1692142Y19207142D01*
X-1406428Y19207142D01*
X-1292142Y19150000D01*
X-1235000Y19092857D01*
X-1177857Y18978571D01*
X-1177857Y18864285D01*
X-1235000Y18692857D01*
X-1920714Y18007142D01*
X-1177857Y18007142D01*
X-92142Y19207142D02*
X-663571Y19207142D01*
X-720714Y18635714D01*
X-663571Y18692857D01*
X-549285Y18750000D01*
X-263571Y18750000D01*
X-149285Y18692857D01*
X-92142Y18635714D01*
X-35000Y18521428D01*
X-35000Y18235714D01*
X-92142Y18121428D01*
X-149285Y18064285D01*
X-263571Y18007142D01*
X-549285Y18007142D01*
X-663571Y18064285D01*
X-720714Y18121428D01*
X193571Y17892857D02*
X1107857Y17892857D01*
X1393571Y18007142D02*
X1393571Y19207142D01*
X1793571Y18350000D01*
X2193571Y19207142D01*
X2193571Y18007142D01*
X3279285Y18007142D02*
X3279285Y18635714D01*
X3222142Y18750000D01*
X3107857Y18807142D01*
X2879285Y18807142D01*
X2764999Y18750000D01*
X3279285Y18064285D02*
X3164999Y18007142D01*
X2879285Y18007142D01*
X2764999Y18064285D01*
X2707857Y18178571D01*
X2707857Y18292857D01*
X2764999Y18407142D01*
X2879285Y18464285D01*
X3164999Y18464285D01*
X3279285Y18521428D01*
X4022142Y18007142D02*
X3907857Y18064285D01*
X3850714Y18178571D01*
X3850714Y19207142D01*
X4936428Y18064285D02*
X4822142Y18007142D01*
X4593571Y18007142D01*
X4479285Y18064285D01*
X4422142Y18178571D01*
X4422142Y18635714D01*
X4479285Y18750000D01*
X4593571Y18807142D01*
X4822142Y18807142D01*
X4936428Y18750000D01*
X4993571Y18635714D01*
X4993571Y18521428D01*
X4422142Y18407142D01*
%TO.C,J2*%
X-3758095Y4572857D02*
X-3805714Y4525238D01*
X-3948571Y4477619D01*
X-4043809Y4477619D01*
X-4186666Y4525238D01*
X-4281904Y4620476D01*
X-4329523Y4715714D01*
X-4377142Y4906190D01*
X-4377142Y5049047D01*
X-4329523Y5239523D01*
X-4281904Y5334761D01*
X-4186666Y5430000D01*
X-4043809Y5477619D01*
X-3948571Y5477619D01*
X-3805714Y5430000D01*
X-3758095Y5382380D01*
X-3186666Y4477619D02*
X-3281904Y4525238D01*
X-3329523Y4572857D01*
X-3377142Y4668095D01*
X-3377142Y4953809D01*
X-3329523Y5049047D01*
X-3281904Y5096666D01*
X-3186666Y5144285D01*
X-3043809Y5144285D01*
X-2948571Y5096666D01*
X-2900952Y5049047D01*
X-2853333Y4953809D01*
X-2853333Y4668095D01*
X-2900952Y4572857D01*
X-2948571Y4525238D01*
X-3043809Y4477619D01*
X-3186666Y4477619D01*
X-2424761Y5144285D02*
X-2424761Y4477619D01*
X-2424761Y5049047D02*
X-2377142Y5096666D01*
X-2281904Y5144285D01*
X-2139047Y5144285D01*
X-2043809Y5096666D01*
X-1996190Y5001428D01*
X-1996190Y4477619D01*
X-1520000Y5144285D02*
X-1520000Y4477619D01*
X-1520000Y5049047D02*
X-1472380Y5096666D01*
X-1377142Y5144285D01*
X-1234285Y5144285D01*
X-1139047Y5096666D01*
X-1091428Y5001428D01*
X-1091428Y4477619D01*
X-853333Y4382380D02*
X-91428Y4382380D01*
X337142Y5477619D02*
X432380Y5477619D01*
X527619Y5430000D01*
X575238Y5382380D01*
X622857Y5287142D01*
X670476Y5096666D01*
X670476Y4858571D01*
X622857Y4668095D01*
X575238Y4572857D01*
X527619Y4525238D01*
X432380Y4477619D01*
X337142Y4477619D01*
X241904Y4525238D01*
X194285Y4572857D01*
X146666Y4668095D01*
X99047Y4858571D01*
X99047Y5096666D01*
X146666Y5287142D01*
X194285Y5382380D01*
X241904Y5430000D01*
X337142Y5477619D01*
X1622857Y4477619D02*
X1051428Y4477619D01*
X1337142Y4477619D02*
X1337142Y5477619D01*
X1241904Y5334761D01*
X1146666Y5239523D01*
X1051428Y5191904D01*
X1956190Y4477619D02*
X2480000Y5144285D01*
X1956190Y5144285D02*
X2480000Y4477619D01*
X3051428Y5477619D02*
X3146666Y5477619D01*
X3241904Y5430000D01*
X3289523Y5382380D01*
X3337142Y5287142D01*
X3384761Y5096666D01*
X3384761Y4858571D01*
X3337142Y4668095D01*
X3289523Y4572857D01*
X3241904Y4525238D01*
X3146666Y4477619D01*
X3051428Y4477619D01*
X2956190Y4525238D01*
X2908571Y4572857D01*
X2860952Y4668095D01*
X2813333Y4858571D01*
X2813333Y5096666D01*
X2860952Y5287142D01*
X2908571Y5382380D01*
X2956190Y5430000D01*
X3051428Y5477619D01*
X3956190Y5049047D02*
X3860952Y5096666D01*
X3813333Y5144285D01*
X3765714Y5239523D01*
X3765714Y5287142D01*
X3813333Y5382380D01*
X3860952Y5430000D01*
X3956190Y5477619D01*
X4146666Y5477619D01*
X4241904Y5430000D01*
X4289523Y5382380D01*
X4337142Y5287142D01*
X4337142Y5239523D01*
X4289523Y5144285D01*
X4241904Y5096666D01*
X4146666Y5049047D01*
X3956190Y5049047D01*
X3860952Y5001428D01*
X3813333Y4953809D01*
X3765714Y4858571D01*
X3765714Y4668095D01*
X3813333Y4572857D01*
X3860952Y4525238D01*
X3956190Y4477619D01*
X4146666Y4477619D01*
X4241904Y4525238D01*
X4289523Y4572857D01*
X4337142Y4668095D01*
X4337142Y4858571D01*
X4289523Y4953809D01*
X4241904Y5001428D01*
X4146666Y5049047D01*
%TD*%
M02*
