%TF.GenerationSoftware,KiCad,Pcbnew,(5.1.9)-1*%
%TF.CreationDate,2021-08-06T17:39:50-06:00*%
%TF.ProjectId,VacuumFeedThruHDMI,56616375-756d-4466-9565-645468727548,rev?*%
%TF.SameCoordinates,Original*%
%TF.FileFunction,Legend,Top*%
%TF.FilePolarity,Positive*%
%FSLAX46Y46*%
G04 Gerber Fmt 4.6, Leading zero omitted, Abs format (unit mm)*
G04 Created by KiCad (PCBNEW (5.1.9)-1) date 2021-08-06 17:39:50*
%MOMM*%
%LPD*%
G01*
G04 APERTURE LIST*
%ADD10C,0.300000*%
%ADD11C,0.120000*%
%ADD12C,0.254000*%
%ADD13C,0.500000*%
%ADD14C,0.152000*%
%ADD15C,0.150000*%
G04 APERTURE END LIST*
D10*
X-53242857Y48046428D02*
X-52742857Y46546428D01*
X-52242857Y48046428D01*
X-51100000Y46546428D02*
X-51100000Y47332142D01*
X-51171428Y47475000D01*
X-51314285Y47546428D01*
X-51600000Y47546428D01*
X-51742857Y47475000D01*
X-51100000Y46617857D02*
X-51242857Y46546428D01*
X-51600000Y46546428D01*
X-51742857Y46617857D01*
X-51814285Y46760714D01*
X-51814285Y46903571D01*
X-51742857Y47046428D01*
X-51600000Y47117857D01*
X-51242857Y47117857D01*
X-51100000Y47189285D01*
X-49742857Y46617857D02*
X-49885714Y46546428D01*
X-50171428Y46546428D01*
X-50314285Y46617857D01*
X-50385714Y46689285D01*
X-50457142Y46832142D01*
X-50457142Y47260714D01*
X-50385714Y47403571D01*
X-50314285Y47475000D01*
X-50171428Y47546428D01*
X-49885714Y47546428D01*
X-49742857Y47475000D01*
X-48457142Y47546428D02*
X-48457142Y46546428D01*
X-49100000Y47546428D02*
X-49100000Y46760714D01*
X-49028571Y46617857D01*
X-48885714Y46546428D01*
X-48671428Y46546428D01*
X-48528571Y46617857D01*
X-48457142Y46689285D01*
X-47100000Y47546428D02*
X-47100000Y46546428D01*
X-47742857Y47546428D02*
X-47742857Y46760714D01*
X-47671428Y46617857D01*
X-47528571Y46546428D01*
X-47314285Y46546428D01*
X-47171428Y46617857D01*
X-47100000Y46689285D01*
X-46385714Y46546428D02*
X-46385714Y47546428D01*
X-46385714Y47403571D02*
X-46314285Y47475000D01*
X-46171428Y47546428D01*
X-45957142Y47546428D01*
X-45814285Y47475000D01*
X-45742857Y47332142D01*
X-45742857Y46546428D01*
X-45742857Y47332142D02*
X-45671428Y47475000D01*
X-45528571Y47546428D01*
X-45314285Y47546428D01*
X-45171428Y47475000D01*
X-45100000Y47332142D01*
X-45100000Y46546428D01*
X-43885714Y47332142D02*
X-44385714Y47332142D01*
X-44385714Y46546428D02*
X-44385714Y48046428D01*
X-43671428Y48046428D01*
X-43314285Y48046428D02*
X-42457142Y48046428D01*
X-42885714Y46546428D02*
X-42885714Y48046428D01*
X-42314285Y46403571D02*
X-41171428Y46403571D01*
X-40814285Y46546428D02*
X-40814285Y48046428D01*
X-40814285Y47332142D02*
X-39957142Y47332142D01*
X-39957142Y46546428D02*
X-39957142Y48046428D01*
X-39242857Y46546428D02*
X-39242857Y48046428D01*
X-38885714Y48046428D01*
X-38671428Y47975000D01*
X-38528571Y47832142D01*
X-38457142Y47689285D01*
X-38385714Y47403571D01*
X-38385714Y47189285D01*
X-38457142Y46903571D01*
X-38528571Y46760714D01*
X-38671428Y46617857D01*
X-38885714Y46546428D01*
X-39242857Y46546428D01*
X-37742857Y46546428D02*
X-37742857Y48046428D01*
X-37242857Y46975000D01*
X-36742857Y48046428D01*
X-36742857Y46546428D01*
X-36028571Y46546428D02*
X-36028571Y48046428D01*
X-35671428Y46403571D02*
X-34528571Y46403571D01*
X-34385714Y48046428D02*
X-33885714Y46546428D01*
X-33385714Y48046428D01*
X-32100000Y46546428D02*
X-32957142Y46546428D01*
X-32528571Y46546428D02*
X-32528571Y48046428D01*
X-32671428Y47832142D01*
X-32814285Y47689285D01*
X-32957142Y47617857D01*
X-49457142Y44425000D02*
X-48742857Y44425000D01*
X-49600000Y43996428D02*
X-49100000Y45496428D01*
X-48600000Y43996428D01*
X-47457142Y44996428D02*
X-47457142Y43996428D01*
X-48100000Y44996428D02*
X-48100000Y44210714D01*
X-48028571Y44067857D01*
X-47885714Y43996428D01*
X-47671428Y43996428D01*
X-47528571Y44067857D01*
X-47457142Y44139285D01*
X-46100000Y44996428D02*
X-46100000Y43782142D01*
X-46171428Y43639285D01*
X-46242857Y43567857D01*
X-46385714Y43496428D01*
X-46600000Y43496428D01*
X-46742857Y43567857D01*
X-46100000Y44067857D02*
X-46242857Y43996428D01*
X-46528571Y43996428D01*
X-46671428Y44067857D01*
X-46742857Y44139285D01*
X-46814285Y44282142D01*
X-46814285Y44710714D01*
X-46742857Y44853571D01*
X-46671428Y44925000D01*
X-46528571Y44996428D01*
X-46242857Y44996428D01*
X-46100000Y44925000D01*
X-44742857Y44996428D02*
X-44742857Y43996428D01*
X-45385714Y44996428D02*
X-45385714Y44210714D01*
X-45314285Y44067857D01*
X-45171428Y43996428D01*
X-44957142Y43996428D01*
X-44814285Y44067857D01*
X-44742857Y44139285D01*
X-44100000Y44067857D02*
X-43957142Y43996428D01*
X-43671428Y43996428D01*
X-43528571Y44067857D01*
X-43457142Y44210714D01*
X-43457142Y44282142D01*
X-43528571Y44425000D01*
X-43671428Y44496428D01*
X-43885714Y44496428D01*
X-44028571Y44567857D01*
X-44100000Y44710714D01*
X-44100000Y44782142D01*
X-44028571Y44925000D01*
X-43885714Y44996428D01*
X-43671428Y44996428D01*
X-43528571Y44925000D01*
X-43028571Y44996428D02*
X-42457142Y44996428D01*
X-42814285Y45496428D02*
X-42814285Y44210714D01*
X-42742857Y44067857D01*
X-42600000Y43996428D01*
X-42457142Y43996428D01*
X-40885714Y45353571D02*
X-40814285Y45425000D01*
X-40671428Y45496428D01*
X-40314285Y45496428D01*
X-40171428Y45425000D01*
X-40100000Y45353571D01*
X-40028571Y45210714D01*
X-40028571Y45067857D01*
X-40100000Y44853571D01*
X-40957142Y43996428D01*
X-40028571Y43996428D01*
X-39100000Y45496428D02*
X-38957142Y45496428D01*
X-38814285Y45425000D01*
X-38742857Y45353571D01*
X-38671428Y45210714D01*
X-38600000Y44925000D01*
X-38600000Y44567857D01*
X-38671428Y44282142D01*
X-38742857Y44139285D01*
X-38814285Y44067857D01*
X-38957142Y43996428D01*
X-39100000Y43996428D01*
X-39242857Y44067857D01*
X-39314285Y44139285D01*
X-39385714Y44282142D01*
X-39457142Y44567857D01*
X-39457142Y44925000D01*
X-39385714Y45210714D01*
X-39314285Y45353571D01*
X-39242857Y45425000D01*
X-39100000Y45496428D01*
X-38028571Y45353571D02*
X-37957142Y45425000D01*
X-37814285Y45496428D01*
X-37457142Y45496428D01*
X-37314285Y45425000D01*
X-37242857Y45353571D01*
X-37171428Y45210714D01*
X-37171428Y45067857D01*
X-37242857Y44853571D01*
X-38100000Y43996428D01*
X-37171428Y43996428D01*
X-35742857Y43996428D02*
X-36600000Y43996428D01*
X-36171428Y43996428D02*
X-36171428Y45496428D01*
X-36314285Y45282142D01*
X-36457142Y45139285D01*
X-36600000Y45067857D01*
X-51457142Y41446428D02*
X-51957142Y42160714D01*
X-52314285Y41446428D02*
X-52314285Y42946428D01*
X-51742857Y42946428D01*
X-51600000Y42875000D01*
X-51528571Y42803571D01*
X-51457142Y42660714D01*
X-51457142Y42446428D01*
X-51528571Y42303571D01*
X-51600000Y42232142D01*
X-51742857Y42160714D01*
X-52314285Y42160714D01*
X-50957142Y42446428D02*
X-50600000Y41446428D01*
X-50242857Y42446428D02*
X-50600000Y41446428D01*
X-50742857Y41089285D01*
X-50814285Y41017857D01*
X-50957142Y40946428D01*
X-49028571Y41446428D02*
X-49028571Y42232142D01*
X-49100000Y42375000D01*
X-49242857Y42446428D01*
X-49528571Y42446428D01*
X-49671428Y42375000D01*
X-49028571Y41517857D02*
X-49171428Y41446428D01*
X-49528571Y41446428D01*
X-49671428Y41517857D01*
X-49742857Y41660714D01*
X-49742857Y41803571D01*
X-49671428Y41946428D01*
X-49528571Y42017857D01*
X-49171428Y42017857D01*
X-49028571Y42089285D01*
X-48314285Y42446428D02*
X-48314285Y41446428D01*
X-48314285Y42303571D02*
X-48242857Y42375000D01*
X-48100000Y42446428D01*
X-47885714Y42446428D01*
X-47742857Y42375000D01*
X-47671428Y42232142D01*
X-47671428Y41446428D01*
X-45814285Y41446428D02*
X-45814285Y42946428D01*
X-45314285Y41875000D01*
X-44814285Y42946428D01*
X-44814285Y41446428D01*
X-43885714Y41446428D02*
X-44028571Y41517857D01*
X-44100000Y41589285D01*
X-44171428Y41732142D01*
X-44171428Y42160714D01*
X-44100000Y42303571D01*
X-44028571Y42375000D01*
X-43885714Y42446428D01*
X-43671428Y42446428D01*
X-43528571Y42375000D01*
X-43457142Y42303571D01*
X-43385714Y42160714D01*
X-43385714Y41732142D01*
X-43457142Y41589285D01*
X-43528571Y41517857D01*
X-43671428Y41446428D01*
X-43885714Y41446428D01*
X-42742857Y41446428D02*
X-42742857Y42446428D01*
X-42742857Y42160714D02*
X-42671428Y42303571D01*
X-42600000Y42375000D01*
X-42457142Y42446428D01*
X-42314285Y42446428D01*
X-41171428Y42446428D02*
X-41171428Y41232142D01*
X-41242857Y41089285D01*
X-41314285Y41017857D01*
X-41457142Y40946428D01*
X-41671428Y40946428D01*
X-41814285Y41017857D01*
X-41171428Y41517857D02*
X-41314285Y41446428D01*
X-41600000Y41446428D01*
X-41742857Y41517857D01*
X-41814285Y41589285D01*
X-41885714Y41732142D01*
X-41885714Y42160714D01*
X-41814285Y42303571D01*
X-41742857Y42375000D01*
X-41600000Y42446428D01*
X-41314285Y42446428D01*
X-41171428Y42375000D01*
X-39885714Y41517857D02*
X-40028571Y41446428D01*
X-40314285Y41446428D01*
X-40457142Y41517857D01*
X-40528571Y41660714D01*
X-40528571Y42232142D01*
X-40457142Y42375000D01*
X-40314285Y42446428D01*
X-40028571Y42446428D01*
X-39885714Y42375000D01*
X-39814285Y42232142D01*
X-39814285Y42089285D01*
X-40528571Y41946428D01*
X-39171428Y42446428D02*
X-39171428Y41446428D01*
X-39171428Y42303571D02*
X-39100000Y42375000D01*
X-38957142Y42446428D01*
X-38742857Y42446428D01*
X-38600000Y42375000D01*
X-38528571Y42232142D01*
X-38528571Y41446428D01*
X-37885714Y41517857D02*
X-37742857Y41446428D01*
X-37457142Y41446428D01*
X-37314285Y41517857D01*
X-37242857Y41660714D01*
X-37242857Y41732142D01*
X-37314285Y41875000D01*
X-37457142Y41946428D01*
X-37671428Y41946428D01*
X-37814285Y42017857D01*
X-37885714Y42160714D01*
X-37885714Y42232142D01*
X-37814285Y42375000D01*
X-37671428Y42446428D01*
X-37457142Y42446428D01*
X-37314285Y42375000D01*
X-36814285Y42446428D02*
X-36242857Y42446428D01*
X-36600000Y42946428D02*
X-36600000Y41660714D01*
X-36528571Y41517857D01*
X-36385714Y41446428D01*
X-36242857Y41446428D01*
X-35171428Y41517857D02*
X-35314285Y41446428D01*
X-35600000Y41446428D01*
X-35742857Y41517857D01*
X-35814285Y41660714D01*
X-35814285Y42232142D01*
X-35742857Y42375000D01*
X-35600000Y42446428D01*
X-35314285Y42446428D01*
X-35171428Y42375000D01*
X-35100000Y42232142D01*
X-35100000Y42089285D01*
X-35814285Y41946428D01*
X-34457142Y41446428D02*
X-34457142Y42446428D01*
X-34457142Y42160714D02*
X-34385714Y42303571D01*
X-34314285Y42375000D01*
X-34171428Y42446428D01*
X-34028571Y42446428D01*
X-33528571Y42446428D02*
X-33528571Y41446428D01*
X-33528571Y42303571D02*
X-33457142Y42375000D01*
X-33314285Y42446428D01*
X-33100000Y42446428D01*
X-32957142Y42375000D01*
X-32885714Y42232142D01*
X-32885714Y41446428D01*
X-55135714Y39325000D02*
X-54421428Y39325000D01*
X-55278571Y38896428D02*
X-54778571Y40396428D01*
X-54278571Y38896428D01*
X-53778571Y38896428D02*
X-53778571Y39896428D01*
X-53778571Y39753571D02*
X-53707142Y39825000D01*
X-53564285Y39896428D01*
X-53349999Y39896428D01*
X-53207142Y39825000D01*
X-53135714Y39682142D01*
X-53135714Y38896428D01*
X-53135714Y39682142D02*
X-53064285Y39825000D01*
X-52921428Y39896428D01*
X-52707142Y39896428D01*
X-52564285Y39825000D01*
X-52492857Y39682142D01*
X-52492857Y38896428D01*
X-51778571Y38896428D02*
X-51778571Y40396428D01*
X-51778571Y39825000D02*
X-51635714Y39896428D01*
X-51350000Y39896428D01*
X-51207142Y39825000D01*
X-51135714Y39753571D01*
X-51064285Y39610714D01*
X-51064285Y39182142D01*
X-51135714Y39039285D01*
X-51207142Y38967857D01*
X-51350000Y38896428D01*
X-51635714Y38896428D01*
X-51778571Y38967857D01*
X-50421428Y38896428D02*
X-50421428Y39896428D01*
X-50421428Y40396428D02*
X-50492857Y40325000D01*
X-50421428Y40253571D01*
X-50350000Y40325000D01*
X-50421428Y40396428D01*
X-50421428Y40253571D01*
X-49135714Y38967857D02*
X-49278571Y38896428D01*
X-49564285Y38896428D01*
X-49707142Y38967857D01*
X-49778571Y39110714D01*
X-49778571Y39682142D01*
X-49707142Y39825000D01*
X-49564285Y39896428D01*
X-49278571Y39896428D01*
X-49135714Y39825000D01*
X-49064285Y39682142D01*
X-49064285Y39539285D01*
X-49778571Y39396428D01*
X-48421428Y39896428D02*
X-48421428Y38896428D01*
X-48421428Y39753571D02*
X-48350000Y39825000D01*
X-48207142Y39896428D01*
X-47992857Y39896428D01*
X-47850000Y39825000D01*
X-47778571Y39682142D01*
X-47778571Y38896428D01*
X-47278571Y39896428D02*
X-46707142Y39896428D01*
X-47064285Y40396428D02*
X-47064285Y39110714D01*
X-46992857Y38967857D01*
X-46850000Y38896428D01*
X-46707142Y38896428D01*
X-45064285Y38896428D02*
X-45064285Y40396428D01*
X-44492857Y40396428D01*
X-44350000Y40325000D01*
X-44278571Y40253571D01*
X-44207142Y40110714D01*
X-44207142Y39896428D01*
X-44278571Y39753571D01*
X-44350000Y39682142D01*
X-44492857Y39610714D01*
X-45064285Y39610714D01*
X-43564285Y38896428D02*
X-43564285Y39896428D01*
X-43564285Y39610714D02*
X-43492857Y39753571D01*
X-43421428Y39825000D01*
X-43278571Y39896428D01*
X-43135714Y39896428D01*
X-42064285Y38967857D02*
X-42207142Y38896428D01*
X-42492857Y38896428D01*
X-42635714Y38967857D01*
X-42707142Y39110714D01*
X-42707142Y39682142D01*
X-42635714Y39825000D01*
X-42492857Y39896428D01*
X-42207142Y39896428D01*
X-42064285Y39825000D01*
X-41992857Y39682142D01*
X-41992857Y39539285D01*
X-42707142Y39396428D01*
X-41421428Y38967857D02*
X-41278571Y38896428D01*
X-40992857Y38896428D01*
X-40850000Y38967857D01*
X-40778571Y39110714D01*
X-40778571Y39182142D01*
X-40850000Y39325000D01*
X-40992857Y39396428D01*
X-41207142Y39396428D01*
X-41350000Y39467857D01*
X-41421428Y39610714D01*
X-41421428Y39682142D01*
X-41350000Y39825000D01*
X-41207142Y39896428D01*
X-40992857Y39896428D01*
X-40850000Y39825000D01*
X-40207142Y38967857D02*
X-40064285Y38896428D01*
X-39778571Y38896428D01*
X-39635714Y38967857D01*
X-39564285Y39110714D01*
X-39564285Y39182142D01*
X-39635714Y39325000D01*
X-39778571Y39396428D01*
X-39992857Y39396428D01*
X-40135714Y39467857D01*
X-40207142Y39610714D01*
X-40207142Y39682142D01*
X-40135714Y39825000D01*
X-39992857Y39896428D01*
X-39778571Y39896428D01*
X-39635714Y39825000D01*
X-38278571Y39896428D02*
X-38278571Y38896428D01*
X-38921428Y39896428D02*
X-38921428Y39110714D01*
X-38849999Y38967857D01*
X-38707142Y38896428D01*
X-38492857Y38896428D01*
X-38350000Y38967857D01*
X-38278571Y39039285D01*
X-37564285Y38896428D02*
X-37564285Y39896428D01*
X-37564285Y39610714D02*
X-37492857Y39753571D01*
X-37421428Y39825000D01*
X-37278571Y39896428D01*
X-37135714Y39896428D01*
X-36064285Y38967857D02*
X-36207142Y38896428D01*
X-36492857Y38896428D01*
X-36635714Y38967857D01*
X-36707142Y39110714D01*
X-36707142Y39682142D01*
X-36635714Y39825000D01*
X-36492857Y39896428D01*
X-36207142Y39896428D01*
X-36064285Y39825000D01*
X-35992857Y39682142D01*
X-35992857Y39539285D01*
X-36707142Y39396428D01*
X-34278571Y38967857D02*
X-34064285Y38896428D01*
X-33707142Y38896428D01*
X-33564285Y38967857D01*
X-33492857Y39039285D01*
X-33421428Y39182142D01*
X-33421428Y39325000D01*
X-33492857Y39467857D01*
X-33564285Y39539285D01*
X-33707142Y39610714D01*
X-33992857Y39682142D01*
X-34135714Y39753571D01*
X-34207142Y39825000D01*
X-34278571Y39967857D01*
X-34278571Y40110714D01*
X-34207142Y40253571D01*
X-34135714Y40325000D01*
X-33992857Y40396428D01*
X-33635714Y40396428D01*
X-33421428Y40325000D01*
X-32778571Y38896428D02*
X-32778571Y39896428D01*
X-32778571Y40396428D02*
X-32849999Y40325000D01*
X-32778571Y40253571D01*
X-32707142Y40325000D01*
X-32778571Y40396428D01*
X-32778571Y40253571D01*
X-31421428Y38896428D02*
X-31421428Y40396428D01*
X-31421428Y38967857D02*
X-31564285Y38896428D01*
X-31849999Y38896428D01*
X-31992857Y38967857D01*
X-32064285Y39039285D01*
X-32135714Y39182142D01*
X-32135714Y39610714D01*
X-32064285Y39753571D01*
X-31992857Y39825000D01*
X-31849999Y39896428D01*
X-31564285Y39896428D01*
X-31421428Y39825000D01*
X-30135714Y38967857D02*
X-30278571Y38896428D01*
X-30564285Y38896428D01*
X-30707142Y38967857D01*
X-30778571Y39110714D01*
X-30778571Y39682142D01*
X-30707142Y39825000D01*
X-30564285Y39896428D01*
X-30278571Y39896428D01*
X-30135714Y39825000D01*
X-30064285Y39682142D01*
X-30064285Y39539285D01*
X-30778571Y39396428D01*
D11*
X14750000Y16250000D02*
X14750000Y8990000D01*
X-14860000Y16250000D02*
X14750000Y16250000D01*
X-14860000Y9000000D02*
X-14860000Y16250000D01*
X14800000Y-10000000D02*
X14800000Y-17300000D01*
X-14840000Y-17270000D02*
X14760000Y-17270000D01*
X-14840000Y-9970000D02*
X-14840000Y-17270000D01*
X14900000Y-4200000D02*
X-14810000Y-4200000D01*
X14900000Y3100000D02*
X14900000Y-4200000D01*
X-14800000Y3100000D02*
X14900000Y3100000D01*
X14800000Y-10000000D02*
X-14840000Y-9970000D01*
X21900000Y-50300000D02*
X14800000Y-10000000D01*
X-19000000Y-75700000D02*
X19000000Y-75700000D01*
X-14840000Y-9970000D02*
X-21900000Y-50300000D01*
X-14860000Y9000000D02*
X14840000Y8990000D01*
X-14800000Y3100000D02*
X-14810000Y-4200000D01*
X-55300000Y-22000000D02*
X-14810000Y-4200000D01*
X-80700000Y19000000D02*
X-80700000Y-19000000D01*
X-14800000Y3100000D02*
X-55300000Y21900000D01*
X-19000000Y75700000D02*
X19000000Y75700000D01*
X-14860000Y9000000D02*
X-21900000Y50300000D01*
X14840000Y8990000D02*
X21900000Y50300000D01*
D12*
%TO.C,J1_(1:5)*%
X-14200609Y55000923D02*
G75*
G03*
X-13400000Y55800000I-39391J840077D01*
G01*
X-17599421Y70999076D02*
G75*
G03*
X-18400000Y70200000I39421J-840076D01*
G01*
X-18400077Y55799609D02*
G75*
G03*
X-17601000Y54999000I840077J39391D01*
G01*
X-13399924Y70200421D02*
G75*
G03*
X-14199000Y71001000I-840076J-39421D01*
G01*
D11*
X-9900000Y75700000D02*
X-9900000Y50300000D01*
D12*
X-17600000Y55000000D02*
X-14200000Y55000000D01*
X-14200000Y71000000D02*
X-17600000Y71000000D01*
X-18400000Y55800000D02*
X-18400000Y70200000D01*
X-13400000Y70200000D02*
X-13400000Y55800000D01*
D11*
X-9900000Y50300000D02*
X-21900000Y50300000D01*
X-9900000Y75700000D02*
X-21900000Y75700000D01*
X-21900000Y75700000D02*
X-21900000Y50300000D01*
D12*
%TO.C,J3_(1:5)*%
X-14200609Y-70999077D02*
G75*
G03*
X-13400000Y-70200000I-39391J840077D01*
G01*
X-17599421Y-55000924D02*
G75*
G03*
X-18400000Y-55800000I39421J-840076D01*
G01*
X-18400077Y-70200391D02*
G75*
G03*
X-17601000Y-71001000I840077J39391D01*
G01*
X-13399924Y-55799579D02*
G75*
G03*
X-14199000Y-54999000I-840076J-39421D01*
G01*
D11*
X-9900000Y-50300000D02*
X-9900000Y-75700000D01*
D12*
X-17600000Y-71000000D02*
X-14200000Y-71000000D01*
X-14200000Y-55000000D02*
X-17600000Y-55000000D01*
X-18400000Y-70200000D02*
X-18400000Y-55800000D01*
X-13400000Y-55800000D02*
X-13400000Y-70200000D01*
D11*
X-9900000Y-75700000D02*
X-21900000Y-75700000D01*
X-9900000Y-50300000D02*
X-21900000Y-50300000D01*
X-21900000Y-50300000D02*
X-21900000Y-75700000D01*
D12*
%TO.C,J2_(11:12)*%
X-75999077Y14200609D02*
G75*
G03*
X-75200000Y13400000I840077J39391D01*
G01*
X-60000924Y17599421D02*
G75*
G03*
X-60800000Y18400000I-840076J-39421D01*
G01*
X-75200391Y18400077D02*
G75*
G03*
X-76001000Y17601000I39391J-840077D01*
G01*
X-60799579Y13399924D02*
G75*
G03*
X-59999000Y14199000I-39421J840076D01*
G01*
D11*
X-55300000Y9900000D02*
X-80700000Y9900000D01*
D12*
X-76000000Y17600000D02*
X-76000000Y14200000D01*
X-60000000Y14200000D02*
X-60000000Y17600000D01*
X-75200000Y18400000D02*
X-60800000Y18400000D01*
X-60800000Y13400000D02*
X-75200000Y13400000D01*
D11*
X-80700000Y9900000D02*
X-80700000Y21900000D01*
X-55300000Y9900000D02*
X-55300000Y21900000D01*
X-55300000Y21900000D02*
X-80700000Y21900000D01*
D12*
%TO.C,J2_(1:5)*%
X-75999077Y-17699391D02*
G75*
G03*
X-75200000Y-18500000I840077J39391D01*
G01*
X-60000924Y-14300579D02*
G75*
G03*
X-60800000Y-13500000I-840076J-39421D01*
G01*
X-75200391Y-13499923D02*
G75*
G03*
X-76001000Y-14299000I39391J-840077D01*
G01*
X-60799579Y-18500076D02*
G75*
G03*
X-59999000Y-17701000I-39421J840076D01*
G01*
D11*
X-55300000Y-22000000D02*
X-80700000Y-22000000D01*
D12*
X-76000000Y-14300000D02*
X-76000000Y-17700000D01*
X-60000000Y-17700000D02*
X-60000000Y-14300000D01*
X-75200000Y-13500000D02*
X-60800000Y-13500000D01*
X-60800000Y-18500000D02*
X-75200000Y-18500000D01*
D11*
X-80700000Y-22000000D02*
X-80700000Y-10000000D01*
X-55300000Y-22000000D02*
X-55300000Y-10000000D01*
X-55300000Y-10000000D02*
X-80700000Y-10000000D01*
D12*
%TO.C,J2_(6:10)*%
X-75999077Y-1699391D02*
G75*
G03*
X-75200000Y-2500000I840077J39391D01*
G01*
X-60000924Y1699421D02*
G75*
G03*
X-60800000Y2500000I-840076J-39421D01*
G01*
X-75200391Y2500077D02*
G75*
G03*
X-76001000Y1701000I39391J-840077D01*
G01*
X-60799579Y-2500076D02*
G75*
G03*
X-59999000Y-1701000I-39421J840076D01*
G01*
D11*
X-55300000Y-6000000D02*
X-80700000Y-6000000D01*
D12*
X-76000000Y1700000D02*
X-76000000Y-1700000D01*
X-60000000Y-1700000D02*
X-60000000Y1700000D01*
X-75200000Y2500000D02*
X-60800000Y2500000D01*
X-60800000Y-2500000D02*
X-75200000Y-2500000D01*
D11*
X-80700000Y-6000000D02*
X-80700000Y6000000D01*
X-55300000Y-6000000D02*
X-55300000Y6000000D01*
X-55300000Y6000000D02*
X-80700000Y6000000D01*
D12*
%TO.C,J1_(11:12)*%
X17599391Y55000923D02*
G75*
G03*
X18400000Y55800000I-39391J840077D01*
G01*
X14200579Y70999076D02*
G75*
G03*
X13400000Y70200000I39421J-840076D01*
G01*
X13399923Y55799609D02*
G75*
G03*
X14199000Y54999000I840077J39391D01*
G01*
X18400076Y70200421D02*
G75*
G03*
X17601000Y71001000I-840076J-39421D01*
G01*
D11*
X21900000Y75700000D02*
X21900000Y50300000D01*
D12*
X14200000Y55000000D02*
X17600000Y55000000D01*
X17600000Y71000000D02*
X14200000Y71000000D01*
X13400000Y55800000D02*
X13400000Y70200000D01*
X18400000Y70200000D02*
X18400000Y55800000D01*
D11*
X21900000Y50300000D02*
X9900000Y50300000D01*
X21900000Y75700000D02*
X9900000Y75700000D01*
X9900000Y75700000D02*
X9900000Y50300000D01*
D12*
%TO.C,J3_(11:12)*%
X17599391Y-70999077D02*
G75*
G03*
X18400000Y-70200000I-39391J840077D01*
G01*
X14200579Y-55000924D02*
G75*
G03*
X13400000Y-55800000I39421J-840076D01*
G01*
X13399923Y-70200391D02*
G75*
G03*
X14199000Y-71001000I840077J39391D01*
G01*
X18400076Y-55799579D02*
G75*
G03*
X17601000Y-54999000I-840076J-39421D01*
G01*
D11*
X21900000Y-50300000D02*
X21900000Y-75700000D01*
D12*
X14200000Y-71000000D02*
X17600000Y-71000000D01*
X17600000Y-55000000D02*
X14200000Y-55000000D01*
X13400000Y-70200000D02*
X13400000Y-55800000D01*
X18400000Y-55800000D02*
X18400000Y-70200000D01*
D11*
X21900000Y-75700000D02*
X9900000Y-75700000D01*
X21900000Y-50300000D02*
X9900000Y-50300000D01*
X9900000Y-50300000D02*
X9900000Y-75700000D01*
D12*
%TO.C,J3_(6:10)*%
X1699391Y-70999077D02*
G75*
G03*
X2500000Y-70200000I-39391J840077D01*
G01*
X-1699421Y-55000924D02*
G75*
G03*
X-2500000Y-55800000I39421J-840076D01*
G01*
X-2500077Y-70200391D02*
G75*
G03*
X-1701000Y-71001000I840077J39391D01*
G01*
X2500076Y-55799579D02*
G75*
G03*
X1701000Y-54999000I-840076J-39421D01*
G01*
D11*
X6000000Y-50300000D02*
X6000000Y-75700000D01*
D12*
X-1700000Y-71000000D02*
X1700000Y-71000000D01*
X1700000Y-55000000D02*
X-1700000Y-55000000D01*
X-2500000Y-70200000D02*
X-2500000Y-55800000D01*
X2500000Y-55800000D02*
X2500000Y-70200000D01*
D11*
X6000000Y-75700000D02*
X-6000000Y-75700000D01*
X6000000Y-50300000D02*
X-6000000Y-50300000D01*
X-6000000Y-50300000D02*
X-6000000Y-75700000D01*
D12*
%TO.C,J1_(6:10)*%
X1699391Y55000923D02*
G75*
G03*
X2500000Y55800000I-39391J840077D01*
G01*
X-1699421Y70999076D02*
G75*
G03*
X-2500000Y70200000I39421J-840076D01*
G01*
X-2500077Y55799609D02*
G75*
G03*
X-1701000Y54999000I840077J39391D01*
G01*
X2500076Y70200421D02*
G75*
G03*
X1701000Y71001000I-840076J-39421D01*
G01*
D11*
X6000000Y75700000D02*
X6000000Y50300000D01*
D12*
X-1700000Y55000000D02*
X1700000Y55000000D01*
X1700000Y71000000D02*
X-1700000Y71000000D01*
X-2500000Y55800000D02*
X-2500000Y70200000D01*
X2500000Y70200000D02*
X2500000Y55800000D01*
D11*
X6000000Y50300000D02*
X-6000000Y50300000D01*
X6000000Y75700000D02*
X-6000000Y75700000D01*
X-6000000Y75700000D02*
X-6000000Y50300000D01*
D13*
%TO.C,J2*%
X29500000Y0D02*
G75*
G03*
X29500000Y0I-29500000J0D01*
G01*
X47500000Y0D02*
G75*
G03*
X47500000Y0I-47500000J0D01*
G01*
X37500000Y0D02*
G75*
G03*
X37500000Y0I-37500000J0D01*
G01*
X25000000Y0D02*
G75*
G03*
X25000000Y0I-25000000J0D01*
G01*
%TO.C,J1_(1:5)*%
D14*
X-24625928Y59697514D02*
X-23809500Y59697514D01*
X-23646214Y59643085D01*
X-23537357Y59534228D01*
X-23482928Y59370942D01*
X-23482928Y59262085D01*
X-23482928Y60840514D02*
X-23482928Y60187371D01*
X-23482928Y60513942D02*
X-24625928Y60513942D01*
X-24462642Y60405085D01*
X-24353785Y60296228D01*
X-24299357Y60187371D01*
X-23374071Y61058228D02*
X-23374071Y61929085D01*
X-23047500Y62527800D02*
X-23101928Y62473371D01*
X-23265214Y62364514D01*
X-23374071Y62310085D01*
X-23537357Y62255657D01*
X-23809500Y62201228D01*
X-24027214Y62201228D01*
X-24299357Y62255657D01*
X-24462642Y62310085D01*
X-24571500Y62364514D01*
X-24734785Y62473371D01*
X-24789214Y62527800D01*
X-23482928Y63561942D02*
X-23482928Y62908800D01*
X-23482928Y63235371D02*
X-24625928Y63235371D01*
X-24462642Y63126514D01*
X-24353785Y63017657D01*
X-24299357Y62908800D01*
X-23591785Y64051800D02*
X-23537357Y64106228D01*
X-23482928Y64051800D01*
X-23537357Y63997371D01*
X-23591785Y64051800D01*
X-23482928Y64051800D01*
X-24190500Y64051800D02*
X-24136071Y64106228D01*
X-24081642Y64051800D01*
X-24136071Y63997371D01*
X-24190500Y64051800D01*
X-24081642Y64051800D01*
X-24625928Y65140371D02*
X-24625928Y64596085D01*
X-24081642Y64541657D01*
X-24136071Y64596085D01*
X-24190500Y64704942D01*
X-24190500Y64977085D01*
X-24136071Y65085942D01*
X-24081642Y65140371D01*
X-23972785Y65194800D01*
X-23700642Y65194800D01*
X-23591785Y65140371D01*
X-23537357Y65085942D01*
X-23482928Y64977085D01*
X-23482928Y64704942D01*
X-23537357Y64596085D01*
X-23591785Y64541657D01*
X-23047500Y65575800D02*
X-23101928Y65630228D01*
X-23265214Y65739085D01*
X-23374071Y65793514D01*
X-23537357Y65847942D01*
X-23809500Y65902371D01*
X-24027214Y65902371D01*
X-24299357Y65847942D01*
X-24462642Y65793514D01*
X-24571500Y65739085D01*
X-24734785Y65630228D01*
X-24789214Y65575800D01*
%TO.C,J3_(1:5)*%
X-24625928Y-67575800D02*
X-23809500Y-67575800D01*
X-23646214Y-67630228D01*
X-23537357Y-67739085D01*
X-23482928Y-67902371D01*
X-23482928Y-68011228D01*
X-24625928Y-67140371D02*
X-24625928Y-66432800D01*
X-24190500Y-66813800D01*
X-24190500Y-66650514D01*
X-24136071Y-66541657D01*
X-24081642Y-66487228D01*
X-23972785Y-66432800D01*
X-23700642Y-66432800D01*
X-23591785Y-66487228D01*
X-23537357Y-66541657D01*
X-23482928Y-66650514D01*
X-23482928Y-66977085D01*
X-23537357Y-67085942D01*
X-23591785Y-67140371D01*
X-23374071Y-66215085D02*
X-23374071Y-65344228D01*
X-23047500Y-64745514D02*
X-23101928Y-64799942D01*
X-23265214Y-64908800D01*
X-23374071Y-64963228D01*
X-23537357Y-65017657D01*
X-23809500Y-65072085D01*
X-24027214Y-65072085D01*
X-24299357Y-65017657D01*
X-24462642Y-64963228D01*
X-24571500Y-64908800D01*
X-24734785Y-64799942D01*
X-24789214Y-64745514D01*
X-23482928Y-63711371D02*
X-23482928Y-64364514D01*
X-23482928Y-64037942D02*
X-24625928Y-64037942D01*
X-24462642Y-64146800D01*
X-24353785Y-64255657D01*
X-24299357Y-64364514D01*
X-23591785Y-63221514D02*
X-23537357Y-63167085D01*
X-23482928Y-63221514D01*
X-23537357Y-63275942D01*
X-23591785Y-63221514D01*
X-23482928Y-63221514D01*
X-24190500Y-63221514D02*
X-24136071Y-63167085D01*
X-24081642Y-63221514D01*
X-24136071Y-63275942D01*
X-24190500Y-63221514D01*
X-24081642Y-63221514D01*
X-24625928Y-62132942D02*
X-24625928Y-62677228D01*
X-24081642Y-62731657D01*
X-24136071Y-62677228D01*
X-24190500Y-62568371D01*
X-24190500Y-62296228D01*
X-24136071Y-62187371D01*
X-24081642Y-62132942D01*
X-23972785Y-62078514D01*
X-23700642Y-62078514D01*
X-23591785Y-62132942D01*
X-23537357Y-62187371D01*
X-23482928Y-62296228D01*
X-23482928Y-62568371D01*
X-23537357Y-62677228D01*
X-23591785Y-62731657D01*
X-23047500Y-61697514D02*
X-23101928Y-61643085D01*
X-23265214Y-61534228D01*
X-23374071Y-61479800D01*
X-23537357Y-61425371D01*
X-23809500Y-61370942D01*
X-24027214Y-61370942D01*
X-24299357Y-61425371D01*
X-24462642Y-61479800D01*
X-24571500Y-61534228D01*
X-24734785Y-61643085D01*
X-24789214Y-61697514D01*
%TO.C,J2_(11:12)*%
X-72752942Y8625928D02*
X-72752942Y7809500D01*
X-72807371Y7646214D01*
X-72916228Y7537357D01*
X-73079514Y7482928D01*
X-73188371Y7482928D01*
X-72263085Y8517071D02*
X-72208657Y8571500D01*
X-72099799Y8625928D01*
X-71827657Y8625928D01*
X-71718799Y8571500D01*
X-71664371Y8517071D01*
X-71609942Y8408214D01*
X-71609942Y8299357D01*
X-71664371Y8136071D01*
X-72317514Y7482928D01*
X-71609942Y7482928D01*
X-71392228Y7374071D02*
X-70521371Y7374071D01*
X-69922657Y7047500D02*
X-69977085Y7101928D01*
X-70085942Y7265214D01*
X-70140371Y7374071D01*
X-70194799Y7537357D01*
X-70249228Y7809500D01*
X-70249228Y8027214D01*
X-70194799Y8299357D01*
X-70140371Y8462642D01*
X-70085942Y8571500D01*
X-69977085Y8734785D01*
X-69922657Y8789214D01*
X-68888514Y7482928D02*
X-69541657Y7482928D01*
X-69215085Y7482928D02*
X-69215085Y8625928D01*
X-69323942Y8462642D01*
X-69432799Y8353785D01*
X-69541657Y8299357D01*
X-67799942Y7482928D02*
X-68453085Y7482928D01*
X-68126514Y7482928D02*
X-68126514Y8625928D01*
X-68235371Y8462642D01*
X-68344228Y8353785D01*
X-68453085Y8299357D01*
X-67310085Y7591785D02*
X-67255657Y7537357D01*
X-67310085Y7482928D01*
X-67364514Y7537357D01*
X-67310085Y7591785D01*
X-67310085Y7482928D01*
X-67310085Y8190500D02*
X-67255657Y8136071D01*
X-67310085Y8081642D01*
X-67364514Y8136071D01*
X-67310085Y8190500D01*
X-67310085Y8081642D01*
X-66167085Y7482928D02*
X-66820228Y7482928D01*
X-66493657Y7482928D02*
X-66493657Y8625928D01*
X-66602514Y8462642D01*
X-66711371Y8353785D01*
X-66820228Y8299357D01*
X-65731657Y8517071D02*
X-65677228Y8571500D01*
X-65568371Y8625928D01*
X-65296228Y8625928D01*
X-65187371Y8571500D01*
X-65132942Y8517071D01*
X-65078514Y8408214D01*
X-65078514Y8299357D01*
X-65132942Y8136071D01*
X-65786085Y7482928D01*
X-65078514Y7482928D01*
X-64697514Y7047500D02*
X-64643085Y7101928D01*
X-64534228Y7265214D01*
X-64479799Y7374071D01*
X-64425371Y7537357D01*
X-64370942Y7809500D01*
X-64370942Y8027214D01*
X-64425371Y8299357D01*
X-64479799Y8462642D01*
X-64534228Y8571500D01*
X-64643085Y8734785D01*
X-64697514Y8789214D01*
%TO.C,J2_(1:5)*%
X-70575800Y-23374071D02*
X-70575800Y-24190500D01*
X-70630228Y-24353785D01*
X-70739085Y-24462642D01*
X-70902371Y-24517071D01*
X-71011228Y-24517071D01*
X-70085942Y-23482928D02*
X-70031514Y-23428500D01*
X-69922657Y-23374071D01*
X-69650514Y-23374071D01*
X-69541657Y-23428500D01*
X-69487228Y-23482928D01*
X-69432800Y-23591785D01*
X-69432800Y-23700642D01*
X-69487228Y-23863928D01*
X-70140371Y-24517071D01*
X-69432800Y-24517071D01*
X-69215085Y-24625928D02*
X-68344228Y-24625928D01*
X-67745514Y-24952500D02*
X-67799942Y-24898071D01*
X-67908800Y-24734785D01*
X-67963228Y-24625928D01*
X-68017657Y-24462642D01*
X-68072085Y-24190500D01*
X-68072085Y-23972785D01*
X-68017657Y-23700642D01*
X-67963228Y-23537357D01*
X-67908800Y-23428500D01*
X-67799942Y-23265214D01*
X-67745514Y-23210785D01*
X-66711371Y-24517071D02*
X-67364514Y-24517071D01*
X-67037942Y-24517071D02*
X-67037942Y-23374071D01*
X-67146800Y-23537357D01*
X-67255657Y-23646214D01*
X-67364514Y-23700642D01*
X-66221514Y-24408214D02*
X-66167085Y-24462642D01*
X-66221514Y-24517071D01*
X-66275942Y-24462642D01*
X-66221514Y-24408214D01*
X-66221514Y-24517071D01*
X-66221514Y-23809500D02*
X-66167085Y-23863928D01*
X-66221514Y-23918357D01*
X-66275942Y-23863928D01*
X-66221514Y-23809500D01*
X-66221514Y-23918357D01*
X-65132942Y-23374071D02*
X-65677228Y-23374071D01*
X-65731657Y-23918357D01*
X-65677228Y-23863928D01*
X-65568371Y-23809500D01*
X-65296228Y-23809500D01*
X-65187371Y-23863928D01*
X-65132942Y-23918357D01*
X-65078514Y-24027214D01*
X-65078514Y-24299357D01*
X-65132942Y-24408214D01*
X-65187371Y-24462642D01*
X-65296228Y-24517071D01*
X-65568371Y-24517071D01*
X-65677228Y-24462642D01*
X-65731657Y-24408214D01*
X-64697514Y-24952500D02*
X-64643085Y-24898071D01*
X-64534228Y-24734785D01*
X-64479800Y-24625928D01*
X-64425371Y-24462642D01*
X-64370942Y-24190500D01*
X-64370942Y-23972785D01*
X-64425371Y-23700642D01*
X-64479800Y-23537357D01*
X-64534228Y-23428500D01*
X-64643085Y-23265214D01*
X-64697514Y-23210785D01*
%TO.C,J2_(6:10)*%
X-71664371Y-7374071D02*
X-71664371Y-8190500D01*
X-71718800Y-8353785D01*
X-71827657Y-8462642D01*
X-71990942Y-8517071D01*
X-72099800Y-8517071D01*
X-71174514Y-7482928D02*
X-71120085Y-7428500D01*
X-71011228Y-7374071D01*
X-70739085Y-7374071D01*
X-70630228Y-7428500D01*
X-70575800Y-7482928D01*
X-70521371Y-7591785D01*
X-70521371Y-7700642D01*
X-70575800Y-7863928D01*
X-71228942Y-8517071D01*
X-70521371Y-8517071D01*
X-70303657Y-8625928D02*
X-69432800Y-8625928D01*
X-68834085Y-8952500D02*
X-68888514Y-8898071D01*
X-68997371Y-8734785D01*
X-69051800Y-8625928D01*
X-69106228Y-8462642D01*
X-69160657Y-8190500D01*
X-69160657Y-7972785D01*
X-69106228Y-7700642D01*
X-69051800Y-7537357D01*
X-68997371Y-7428500D01*
X-68888514Y-7265214D01*
X-68834085Y-7210785D01*
X-67908800Y-7374071D02*
X-68126514Y-7374071D01*
X-68235371Y-7428500D01*
X-68289800Y-7482928D01*
X-68398657Y-7646214D01*
X-68453085Y-7863928D01*
X-68453085Y-8299357D01*
X-68398657Y-8408214D01*
X-68344228Y-8462642D01*
X-68235371Y-8517071D01*
X-68017657Y-8517071D01*
X-67908800Y-8462642D01*
X-67854371Y-8408214D01*
X-67799942Y-8299357D01*
X-67799942Y-8027214D01*
X-67854371Y-7918357D01*
X-67908800Y-7863928D01*
X-68017657Y-7809500D01*
X-68235371Y-7809500D01*
X-68344228Y-7863928D01*
X-68398657Y-7918357D01*
X-68453085Y-8027214D01*
X-67310085Y-8408214D02*
X-67255657Y-8462642D01*
X-67310085Y-8517071D01*
X-67364514Y-8462642D01*
X-67310085Y-8408214D01*
X-67310085Y-8517071D01*
X-67310085Y-7809500D02*
X-67255657Y-7863928D01*
X-67310085Y-7918357D01*
X-67364514Y-7863928D01*
X-67310085Y-7809500D01*
X-67310085Y-7918357D01*
X-66167085Y-8517071D02*
X-66820228Y-8517071D01*
X-66493657Y-8517071D02*
X-66493657Y-7374071D01*
X-66602514Y-7537357D01*
X-66711371Y-7646214D01*
X-66820228Y-7700642D01*
X-65459514Y-7374071D02*
X-65350657Y-7374071D01*
X-65241800Y-7428500D01*
X-65187371Y-7482928D01*
X-65132942Y-7591785D01*
X-65078514Y-7809500D01*
X-65078514Y-8081642D01*
X-65132942Y-8299357D01*
X-65187371Y-8408214D01*
X-65241800Y-8462642D01*
X-65350657Y-8517071D01*
X-65459514Y-8517071D01*
X-65568371Y-8462642D01*
X-65622800Y-8408214D01*
X-65677228Y-8299357D01*
X-65731657Y-8081642D01*
X-65731657Y-7809500D01*
X-65677228Y-7591785D01*
X-65622800Y-7482928D01*
X-65568371Y-7428500D01*
X-65459514Y-7374071D01*
X-64697514Y-8952500D02*
X-64643085Y-8898071D01*
X-64534228Y-8734785D01*
X-64479800Y-8625928D01*
X-64425371Y-8462642D01*
X-64370942Y-8190500D01*
X-64370942Y-7972785D01*
X-64425371Y-7700642D01*
X-64479800Y-7537357D01*
X-64534228Y-7428500D01*
X-64643085Y-7265214D01*
X-64697514Y-7210785D01*
%TO.C,J1_(11:12)*%
X7374071Y58247057D02*
X8190499Y58247057D01*
X8353785Y58192628D01*
X8462642Y58083771D01*
X8517071Y57920485D01*
X8517071Y57811628D01*
X8517071Y59390057D02*
X8517071Y58736914D01*
X8517071Y59063485D02*
X7374071Y59063485D01*
X7537357Y58954628D01*
X7646214Y58845771D01*
X7700642Y58736914D01*
X8625928Y59607771D02*
X8625928Y60478628D01*
X8952500Y61077342D02*
X8898071Y61022914D01*
X8734785Y60914057D01*
X8625928Y60859628D01*
X8462642Y60805200D01*
X8190500Y60750771D01*
X7972785Y60750771D01*
X7700642Y60805200D01*
X7537357Y60859628D01*
X7428500Y60914057D01*
X7265214Y61022914D01*
X7210785Y61077342D01*
X8517071Y62111485D02*
X8517071Y61458342D01*
X8517071Y61784914D02*
X7374071Y61784914D01*
X7537357Y61676057D01*
X7646214Y61567200D01*
X7700642Y61458342D01*
X8517071Y63200057D02*
X8517071Y62546914D01*
X8517071Y62873485D02*
X7374071Y62873485D01*
X7537357Y62764628D01*
X7646214Y62655771D01*
X7700642Y62546914D01*
X8408214Y63689914D02*
X8462642Y63744342D01*
X8517071Y63689914D01*
X8462642Y63635485D01*
X8408214Y63689914D01*
X8517071Y63689914D01*
X7809500Y63689914D02*
X7863928Y63744342D01*
X7918357Y63689914D01*
X7863928Y63635485D01*
X7809500Y63689914D01*
X7918357Y63689914D01*
X8517071Y64832914D02*
X8517071Y64179771D01*
X8517071Y64506342D02*
X7374071Y64506342D01*
X7537357Y64397485D01*
X7646214Y64288628D01*
X7700642Y64179771D01*
X7482928Y65268342D02*
X7428500Y65322771D01*
X7374071Y65431628D01*
X7374071Y65703771D01*
X7428500Y65812628D01*
X7482928Y65867057D01*
X7591785Y65921485D01*
X7700642Y65921485D01*
X7863928Y65867057D01*
X8517071Y65213914D01*
X8517071Y65921485D01*
X8952500Y66302485D02*
X8898071Y66356914D01*
X8734785Y66465771D01*
X8625928Y66520200D01*
X8462642Y66574628D01*
X8190500Y66629057D01*
X7972785Y66629057D01*
X7700642Y66574628D01*
X7537357Y66520200D01*
X7428500Y66465771D01*
X7265214Y66356914D01*
X7210785Y66302485D01*
%TO.C,J3_(11:12)*%
X7374071Y-69752942D02*
X8190499Y-69752942D01*
X8353785Y-69807371D01*
X8462642Y-69916228D01*
X8517071Y-70079514D01*
X8517071Y-70188371D01*
X7374071Y-69317514D02*
X7374071Y-68609942D01*
X7809499Y-68990942D01*
X7809500Y-68827657D01*
X7863928Y-68718800D01*
X7918357Y-68664371D01*
X8027214Y-68609942D01*
X8299357Y-68609942D01*
X8408214Y-68664371D01*
X8462642Y-68718800D01*
X8517071Y-68827657D01*
X8517071Y-69154228D01*
X8462642Y-69263085D01*
X8408214Y-69317514D01*
X8625928Y-68392228D02*
X8625928Y-67521371D01*
X8952500Y-66922657D02*
X8898071Y-66977085D01*
X8734785Y-67085942D01*
X8625928Y-67140371D01*
X8462642Y-67194800D01*
X8190500Y-67249228D01*
X7972785Y-67249228D01*
X7700642Y-67194800D01*
X7537357Y-67140371D01*
X7428500Y-67085942D01*
X7265214Y-66977085D01*
X7210785Y-66922657D01*
X8517071Y-65888514D02*
X8517071Y-66541657D01*
X8517071Y-66215085D02*
X7374071Y-66215085D01*
X7537357Y-66323942D01*
X7646214Y-66432800D01*
X7700642Y-66541657D01*
X8517071Y-64799942D02*
X8517071Y-65453085D01*
X8517071Y-65126514D02*
X7374071Y-65126514D01*
X7537357Y-65235371D01*
X7646214Y-65344228D01*
X7700642Y-65453085D01*
X8408214Y-64310085D02*
X8462642Y-64255657D01*
X8517071Y-64310085D01*
X8462642Y-64364514D01*
X8408214Y-64310085D01*
X8517071Y-64310085D01*
X7809500Y-64310085D02*
X7863928Y-64255657D01*
X7918357Y-64310085D01*
X7863928Y-64364514D01*
X7809500Y-64310085D01*
X7918357Y-64310085D01*
X8517071Y-63167085D02*
X8517071Y-63820228D01*
X8517071Y-63493657D02*
X7374071Y-63493657D01*
X7537357Y-63602514D01*
X7646214Y-63711371D01*
X7700642Y-63820228D01*
X7482928Y-62731657D02*
X7428500Y-62677228D01*
X7374071Y-62568371D01*
X7374071Y-62296228D01*
X7428500Y-62187371D01*
X7482928Y-62132942D01*
X7591785Y-62078514D01*
X7700642Y-62078514D01*
X7863928Y-62132942D01*
X8517071Y-62786085D01*
X8517071Y-62078514D01*
X8952500Y-61697514D02*
X8898071Y-61643085D01*
X8734785Y-61534228D01*
X8625928Y-61479800D01*
X8462642Y-61425371D01*
X8190500Y-61370942D01*
X7972785Y-61370942D01*
X7700642Y-61425371D01*
X7537357Y-61479800D01*
X7428500Y-61534228D01*
X7265214Y-61643085D01*
X7210785Y-61697514D01*
%TO.C,J3_(6:10)*%
X-7625928Y-68664371D02*
X-6809500Y-68664371D01*
X-6646214Y-68718800D01*
X-6537357Y-68827657D01*
X-6482928Y-68990942D01*
X-6482928Y-69099800D01*
X-7625928Y-68228942D02*
X-7625928Y-67521371D01*
X-7190500Y-67902371D01*
X-7190500Y-67739085D01*
X-7136071Y-67630228D01*
X-7081642Y-67575800D01*
X-6972785Y-67521371D01*
X-6700642Y-67521371D01*
X-6591785Y-67575800D01*
X-6537357Y-67630228D01*
X-6482928Y-67739085D01*
X-6482928Y-68065657D01*
X-6537357Y-68174514D01*
X-6591785Y-68228942D01*
X-6374071Y-67303657D02*
X-6374071Y-66432800D01*
X-6047500Y-65834085D02*
X-6101928Y-65888514D01*
X-6265214Y-65997371D01*
X-6374071Y-66051800D01*
X-6537357Y-66106228D01*
X-6809500Y-66160657D01*
X-7027214Y-66160657D01*
X-7299357Y-66106228D01*
X-7462642Y-66051800D01*
X-7571500Y-65997371D01*
X-7734785Y-65888514D01*
X-7789214Y-65834085D01*
X-7625928Y-64908800D02*
X-7625928Y-65126514D01*
X-7571500Y-65235371D01*
X-7517071Y-65289800D01*
X-7353785Y-65398657D01*
X-7136071Y-65453085D01*
X-6700642Y-65453085D01*
X-6591785Y-65398657D01*
X-6537357Y-65344228D01*
X-6482928Y-65235371D01*
X-6482928Y-65017657D01*
X-6537357Y-64908800D01*
X-6591785Y-64854371D01*
X-6700642Y-64799942D01*
X-6972785Y-64799942D01*
X-7081642Y-64854371D01*
X-7136071Y-64908800D01*
X-7190500Y-65017657D01*
X-7190500Y-65235371D01*
X-7136071Y-65344228D01*
X-7081642Y-65398657D01*
X-6972785Y-65453085D01*
X-6591785Y-64310085D02*
X-6537357Y-64255657D01*
X-6482928Y-64310085D01*
X-6537357Y-64364514D01*
X-6591785Y-64310085D01*
X-6482928Y-64310085D01*
X-7190500Y-64310085D02*
X-7136071Y-64255657D01*
X-7081642Y-64310085D01*
X-7136071Y-64364514D01*
X-7190500Y-64310085D01*
X-7081642Y-64310085D01*
X-6482928Y-63167085D02*
X-6482928Y-63820228D01*
X-6482928Y-63493657D02*
X-7625928Y-63493657D01*
X-7462642Y-63602514D01*
X-7353785Y-63711371D01*
X-7299357Y-63820228D01*
X-7625928Y-62459514D02*
X-7625928Y-62350657D01*
X-7571500Y-62241800D01*
X-7517071Y-62187371D01*
X-7408214Y-62132942D01*
X-7190500Y-62078514D01*
X-6918357Y-62078514D01*
X-6700642Y-62132942D01*
X-6591785Y-62187371D01*
X-6537357Y-62241800D01*
X-6482928Y-62350657D01*
X-6482928Y-62459514D01*
X-6537357Y-62568371D01*
X-6591785Y-62622800D01*
X-6700642Y-62677228D01*
X-6918357Y-62731657D01*
X-7190500Y-62731657D01*
X-7408214Y-62677228D01*
X-7517071Y-62622800D01*
X-7571500Y-62568371D01*
X-7625928Y-62459514D01*
X-6047500Y-61697514D02*
X-6101928Y-61643085D01*
X-6265214Y-61534228D01*
X-6374071Y-61479800D01*
X-6537357Y-61425371D01*
X-6809500Y-61370942D01*
X-7027214Y-61370942D01*
X-7299357Y-61425371D01*
X-7462642Y-61479800D01*
X-7571500Y-61534228D01*
X-7734785Y-61643085D01*
X-7789214Y-61697514D01*
%TO.C,J1_(6:10)*%
X-8625928Y59697514D02*
X-7809500Y59697514D01*
X-7646214Y59643085D01*
X-7537357Y59534228D01*
X-7482928Y59370942D01*
X-7482928Y59262085D01*
X-7482928Y60840514D02*
X-7482928Y60187371D01*
X-7482928Y60513942D02*
X-8625928Y60513942D01*
X-8462642Y60405085D01*
X-8353785Y60296228D01*
X-8299357Y60187371D01*
X-7374071Y61058228D02*
X-7374071Y61929085D01*
X-7047500Y62527800D02*
X-7101928Y62473371D01*
X-7265214Y62364514D01*
X-7374071Y62310085D01*
X-7537357Y62255657D01*
X-7809500Y62201228D01*
X-8027214Y62201228D01*
X-8299357Y62255657D01*
X-8462642Y62310085D01*
X-8571500Y62364514D01*
X-8734785Y62473371D01*
X-8789214Y62527800D01*
X-8625928Y63453085D02*
X-8625928Y63235371D01*
X-8571500Y63126514D01*
X-8517071Y63072085D01*
X-8353785Y62963228D01*
X-8136071Y62908800D01*
X-7700642Y62908800D01*
X-7591785Y62963228D01*
X-7537357Y63017657D01*
X-7482928Y63126514D01*
X-7482928Y63344228D01*
X-7537357Y63453085D01*
X-7591785Y63507514D01*
X-7700642Y63561942D01*
X-7972785Y63561942D01*
X-8081642Y63507514D01*
X-8136071Y63453085D01*
X-8190500Y63344228D01*
X-8190500Y63126514D01*
X-8136071Y63017657D01*
X-8081642Y62963228D01*
X-7972785Y62908800D01*
X-7591785Y64051800D02*
X-7537357Y64106228D01*
X-7482928Y64051800D01*
X-7537357Y63997371D01*
X-7591785Y64051800D01*
X-7482928Y64051800D01*
X-8190500Y64051800D02*
X-8136071Y64106228D01*
X-8081642Y64051800D01*
X-8136071Y63997371D01*
X-8190500Y64051800D01*
X-8081642Y64051800D01*
X-7482928Y65194800D02*
X-7482928Y64541657D01*
X-7482928Y64868228D02*
X-8625928Y64868228D01*
X-8462642Y64759371D01*
X-8353785Y64650514D01*
X-8299357Y64541657D01*
X-8625928Y65902371D02*
X-8625928Y66011228D01*
X-8571500Y66120085D01*
X-8517071Y66174514D01*
X-8408214Y66228942D01*
X-8190500Y66283371D01*
X-7918357Y66283371D01*
X-7700642Y66228942D01*
X-7591785Y66174514D01*
X-7537357Y66120085D01*
X-7482928Y66011228D01*
X-7482928Y65902371D01*
X-7537357Y65793514D01*
X-7591785Y65739085D01*
X-7700642Y65684657D01*
X-7918357Y65630228D01*
X-8190500Y65630228D01*
X-8408214Y65684657D01*
X-8517071Y65739085D01*
X-8571500Y65793514D01*
X-8625928Y65902371D01*
X-7047500Y66664371D02*
X-7101928Y66718800D01*
X-7265214Y66827657D01*
X-7374071Y66882085D01*
X-7537357Y66936514D01*
X-7809499Y66990942D01*
X-8027214Y66990942D01*
X-8299357Y66936514D01*
X-8462642Y66882085D01*
X-8571500Y66827657D01*
X-8734785Y66718800D01*
X-8789214Y66664371D01*
%TO.C,J3*%
D15*
X-333333Y-10452380D02*
X-333333Y-11166666D01*
X-380952Y-11309523D01*
X-476190Y-11404761D01*
X-619047Y-11452380D01*
X-714285Y-11452380D01*
X47619Y-10452380D02*
X666666Y-10452380D01*
X333333Y-10833333D01*
X476190Y-10833333D01*
X571428Y-10880952D01*
X619047Y-10928571D01*
X666666Y-11023809D01*
X666666Y-11261904D01*
X619047Y-11357142D01*
X571428Y-11404761D01*
X476190Y-11452380D01*
X190476Y-11452380D01*
X95238Y-11404761D01*
X47619Y-11357142D01*
%TO.C,J1*%
X-333333Y15647619D02*
X-333333Y14933333D01*
X-380952Y14790476D01*
X-476190Y14695238D01*
X-619047Y14647619D01*
X-714285Y14647619D01*
X666666Y14647619D02*
X95238Y14647619D01*
X380952Y14647619D02*
X380952Y15647619D01*
X285714Y15504761D01*
X190476Y15409523D01*
X95238Y15361904D01*
%TO.C,J2*%
X-333333Y2547619D02*
X-333333Y1833333D01*
X-380952Y1690476D01*
X-476190Y1595238D01*
X-619047Y1547619D01*
X-714285Y1547619D01*
X95238Y2452380D02*
X142857Y2500000D01*
X238095Y2547619D01*
X476190Y2547619D01*
X571428Y2500000D01*
X619047Y2452380D01*
X666666Y2357142D01*
X666666Y2261904D01*
X619047Y2119047D01*
X47619Y1547619D01*
X666666Y1547619D01*
X27452380Y-5380952D02*
X26452380Y-5380952D01*
X26785714Y-4904761D02*
X27452380Y-4904761D01*
X26880952Y-4904761D02*
X26833333Y-4857142D01*
X26785714Y-4761904D01*
X26785714Y-4619047D01*
X26833333Y-4523809D01*
X26928571Y-4476190D01*
X27452380Y-4476190D01*
X27404761Y-4047619D02*
X27452380Y-3952380D01*
X27452380Y-3761904D01*
X27404761Y-3666666D01*
X27309523Y-3619047D01*
X27261904Y-3619047D01*
X27166666Y-3666666D01*
X27119047Y-3761904D01*
X27119047Y-3904761D01*
X27071428Y-4000000D01*
X26976190Y-4047619D01*
X26928571Y-4047619D01*
X26833333Y-4000000D01*
X26785714Y-3904761D01*
X26785714Y-3761904D01*
X26833333Y-3666666D01*
X27452380Y-3190476D02*
X26785714Y-3190476D01*
X26452380Y-3190476D02*
X26500000Y-3238095D01*
X26547619Y-3190476D01*
X26500000Y-3142857D01*
X26452380Y-3190476D01*
X26547619Y-3190476D01*
X27452380Y-2285714D02*
X26452380Y-2285714D01*
X27404761Y-2285714D02*
X27452380Y-2380952D01*
X27452380Y-2571428D01*
X27404761Y-2666666D01*
X27357142Y-2714285D01*
X27261904Y-2761904D01*
X26976190Y-2761904D01*
X26880952Y-2714285D01*
X26833333Y-2666666D01*
X26785714Y-2571428D01*
X26785714Y-2380952D01*
X26833333Y-2285714D01*
X27404761Y-1428571D02*
X27452380Y-1523809D01*
X27452380Y-1714285D01*
X27404761Y-1809523D01*
X27309523Y-1857142D01*
X26928571Y-1857142D01*
X26833333Y-1809523D01*
X26785714Y-1714285D01*
X26785714Y-1523809D01*
X26833333Y-1428571D01*
X26928571Y-1380952D01*
X27023809Y-1380952D01*
X27119047Y-1857142D01*
X27452380Y-190476D02*
X26452380Y-190476D01*
X27166666Y142857D01*
X26452380Y476190D01*
X27452380Y476190D01*
X27404761Y1333333D02*
X27452380Y1238095D01*
X27452380Y1047619D01*
X27404761Y952380D01*
X27309523Y904761D01*
X26928571Y904761D01*
X26833333Y952380D01*
X26785714Y1047619D01*
X26785714Y1238095D01*
X26833333Y1333333D01*
X26928571Y1380952D01*
X27023809Y1380952D01*
X27119047Y904761D01*
X26785714Y1666666D02*
X26785714Y2047619D01*
X26452380Y1809523D02*
X27309523Y1809523D01*
X27404761Y1857142D01*
X27452380Y1952380D01*
X27452380Y2047619D01*
X27452380Y2809523D02*
X26928571Y2809523D01*
X26833333Y2761904D01*
X26785714Y2666666D01*
X26785714Y2476190D01*
X26833333Y2380952D01*
X27404761Y2809523D02*
X27452380Y2714285D01*
X27452380Y2476190D01*
X27404761Y2380952D01*
X27309523Y2333333D01*
X27214285Y2333333D01*
X27119047Y2380952D01*
X27071428Y2476190D01*
X27071428Y2714285D01*
X27023809Y2809523D01*
X27452380Y3428571D02*
X27404761Y3333333D01*
X27309523Y3285714D01*
X26452380Y3285714D01*
X27452380Y5142857D02*
X26976190Y4809523D01*
X27452380Y4571428D02*
X26452380Y4571428D01*
X26452380Y4952380D01*
X26500000Y5047619D01*
X26547619Y5095238D01*
X26642857Y5142857D01*
X26785714Y5142857D01*
X26880952Y5095238D01*
X26928571Y5047619D01*
X26976190Y4952380D01*
X26976190Y4571428D01*
X27452380Y5571428D02*
X26785714Y5571428D01*
X26452380Y5571428D02*
X26500000Y5523809D01*
X26547619Y5571428D01*
X26500000Y5619047D01*
X26452380Y5571428D01*
X26547619Y5571428D01*
X26785714Y6047619D02*
X27452380Y6047619D01*
X26880952Y6047619D02*
X26833333Y6095238D01*
X26785714Y6190476D01*
X26785714Y6333333D01*
X26833333Y6428571D01*
X26928571Y6476190D01*
X27452380Y6476190D01*
X26785714Y7380952D02*
X27595238Y7380952D01*
X27690476Y7333333D01*
X27738095Y7285714D01*
X27785714Y7190476D01*
X27785714Y7047619D01*
X27738095Y6952380D01*
X27404761Y7380952D02*
X27452380Y7285714D01*
X27452380Y7095238D01*
X27404761Y7000000D01*
X27357142Y6952380D01*
X27261904Y6904761D01*
X26976190Y6904761D01*
X26880952Y6952380D01*
X26833333Y7000000D01*
X26785714Y7095238D01*
X26785714Y7285714D01*
X26833333Y7380952D01*
X39452380Y-6047619D02*
X39452380Y-5857142D01*
X39500000Y-5761904D01*
X39595238Y-5666666D01*
X39785714Y-5619047D01*
X40119047Y-5619047D01*
X40309523Y-5666666D01*
X40404761Y-5761904D01*
X40452380Y-5857142D01*
X40452380Y-6047619D01*
X40404761Y-6142857D01*
X40309523Y-6238095D01*
X40119047Y-6285714D01*
X39785714Y-6285714D01*
X39595238Y-6238095D01*
X39500000Y-6142857D01*
X39452380Y-6047619D01*
X39785714Y-4761904D02*
X40452380Y-4761904D01*
X39785714Y-5190476D02*
X40309523Y-5190476D01*
X40404761Y-5142857D01*
X40452380Y-5047619D01*
X40452380Y-4904761D01*
X40404761Y-4809523D01*
X40357142Y-4761904D01*
X39785714Y-4428571D02*
X39785714Y-4047619D01*
X39452380Y-4285714D02*
X40309523Y-4285714D01*
X40404761Y-4238095D01*
X40452380Y-4142857D01*
X40452380Y-4047619D01*
X40404761Y-3761904D02*
X40452380Y-3666666D01*
X40452380Y-3476190D01*
X40404761Y-3380952D01*
X40309523Y-3333333D01*
X40261904Y-3333333D01*
X40166666Y-3380952D01*
X40119047Y-3476190D01*
X40119047Y-3619047D01*
X40071428Y-3714285D01*
X39976190Y-3761904D01*
X39928571Y-3761904D01*
X39833333Y-3714285D01*
X39785714Y-3619047D01*
X39785714Y-3476190D01*
X39833333Y-3380952D01*
X40452380Y-2904761D02*
X39785714Y-2904761D01*
X39452380Y-2904761D02*
X39500000Y-2952380D01*
X39547619Y-2904761D01*
X39500000Y-2857142D01*
X39452380Y-2904761D01*
X39547619Y-2904761D01*
X40452380Y-2000000D02*
X39452380Y-2000000D01*
X40404761Y-2000000D02*
X40452380Y-2095238D01*
X40452380Y-2285714D01*
X40404761Y-2380952D01*
X40357142Y-2428571D01*
X40261904Y-2476190D01*
X39976190Y-2476190D01*
X39880952Y-2428571D01*
X39833333Y-2380952D01*
X39785714Y-2285714D01*
X39785714Y-2095238D01*
X39833333Y-2000000D01*
X40404761Y-1142857D02*
X40452380Y-1238095D01*
X40452380Y-1428571D01*
X40404761Y-1523809D01*
X40309523Y-1571428D01*
X39928571Y-1571428D01*
X39833333Y-1523809D01*
X39785714Y-1428571D01*
X39785714Y-1238095D01*
X39833333Y-1142857D01*
X39928571Y-1095238D01*
X40023809Y-1095238D01*
X40119047Y-1571428D01*
X40452380Y95238D02*
X39452380Y95238D01*
X39452380Y333333D01*
X39500000Y476190D01*
X39595238Y571428D01*
X39690476Y619047D01*
X39880952Y666666D01*
X40023809Y666666D01*
X40214285Y619047D01*
X40309523Y571428D01*
X40404761Y476190D01*
X40452380Y333333D01*
X40452380Y95238D01*
X40452380Y1095238D02*
X39785714Y1095238D01*
X39452380Y1095238D02*
X39500000Y1047619D01*
X39547619Y1095238D01*
X39500000Y1142857D01*
X39452380Y1095238D01*
X39547619Y1095238D01*
X40452380Y2000000D02*
X39928571Y2000000D01*
X39833333Y1952380D01*
X39785714Y1857142D01*
X39785714Y1666666D01*
X39833333Y1571428D01*
X40404761Y2000000D02*
X40452380Y1904761D01*
X40452380Y1666666D01*
X40404761Y1571428D01*
X40309523Y1523809D01*
X40214285Y1523809D01*
X40119047Y1571428D01*
X40071428Y1666666D01*
X40071428Y1904761D01*
X40023809Y2000000D01*
X40452380Y2476190D02*
X39785714Y2476190D01*
X39880952Y2476190D02*
X39833333Y2523809D01*
X39785714Y2619047D01*
X39785714Y2761904D01*
X39833333Y2857142D01*
X39928571Y2904761D01*
X40452380Y2904761D01*
X39928571Y2904761D02*
X39833333Y2952380D01*
X39785714Y3047619D01*
X39785714Y3190476D01*
X39833333Y3285714D01*
X39928571Y3333333D01*
X40452380Y3333333D01*
X40404761Y4190476D02*
X40452380Y4095238D01*
X40452380Y3904761D01*
X40404761Y3809523D01*
X40309523Y3761904D01*
X39928571Y3761904D01*
X39833333Y3809523D01*
X39785714Y3904761D01*
X39785714Y4095238D01*
X39833333Y4190476D01*
X39928571Y4238095D01*
X40023809Y4238095D01*
X40119047Y3761904D01*
X39785714Y4523809D02*
X39785714Y4904761D01*
X39452380Y4666666D02*
X40309523Y4666666D01*
X40404761Y4714285D01*
X40452380Y4809523D01*
X40452380Y4904761D01*
X40404761Y5619047D02*
X40452380Y5523809D01*
X40452380Y5333333D01*
X40404761Y5238095D01*
X40309523Y5190476D01*
X39928571Y5190476D01*
X39833333Y5238095D01*
X39785714Y5333333D01*
X39785714Y5523809D01*
X39833333Y5619047D01*
X39928571Y5666666D01*
X40023809Y5666666D01*
X40119047Y5190476D01*
X40452380Y6095238D02*
X39785714Y6095238D01*
X39976190Y6095238D02*
X39880952Y6142857D01*
X39833333Y6190476D01*
X39785714Y6285714D01*
X39785714Y6380952D01*
X32452380Y-4809523D02*
X31452380Y-4809523D01*
X31785714Y-4333333D02*
X32452380Y-4333333D01*
X31880952Y-4333333D02*
X31833333Y-4285714D01*
X31785714Y-4190476D01*
X31785714Y-4047619D01*
X31833333Y-3952380D01*
X31928571Y-3904761D01*
X32452380Y-3904761D01*
X32404761Y-3476190D02*
X32452380Y-3380952D01*
X32452380Y-3190476D01*
X32404761Y-3095238D01*
X32309523Y-3047619D01*
X32261904Y-3047619D01*
X32166666Y-3095238D01*
X32119047Y-3190476D01*
X32119047Y-3333333D01*
X32071428Y-3428571D01*
X31976190Y-3476190D01*
X31928571Y-3476190D01*
X31833333Y-3428571D01*
X31785714Y-3333333D01*
X31785714Y-3190476D01*
X31833333Y-3095238D01*
X32452380Y-2619047D02*
X31785714Y-2619047D01*
X31452380Y-2619047D02*
X31500000Y-2666666D01*
X31547619Y-2619047D01*
X31500000Y-2571428D01*
X31452380Y-2619047D01*
X31547619Y-2619047D01*
X32452380Y-1714285D02*
X31452380Y-1714285D01*
X32404761Y-1714285D02*
X32452380Y-1809523D01*
X32452380Y-2000000D01*
X32404761Y-2095238D01*
X32357142Y-2142857D01*
X32261904Y-2190476D01*
X31976190Y-2190476D01*
X31880952Y-2142857D01*
X31833333Y-2095238D01*
X31785714Y-2000000D01*
X31785714Y-1809523D01*
X31833333Y-1714285D01*
X32404761Y-857142D02*
X32452380Y-952380D01*
X32452380Y-1142857D01*
X32404761Y-1238095D01*
X32309523Y-1285714D01*
X31928571Y-1285714D01*
X31833333Y-1238095D01*
X31785714Y-1142857D01*
X31785714Y-952380D01*
X31833333Y-857142D01*
X31928571Y-809523D01*
X32023809Y-809523D01*
X32119047Y-1285714D01*
X32452380Y523809D02*
X32404761Y428571D01*
X32357142Y380952D01*
X32261904Y333333D01*
X31976190Y333333D01*
X31880952Y380952D01*
X31833333Y428571D01*
X31785714Y523809D01*
X31785714Y666666D01*
X31833333Y761904D01*
X31880952Y809523D01*
X31976190Y857142D01*
X32261904Y857142D01*
X32357142Y809523D01*
X32404761Y761904D01*
X32452380Y666666D01*
X32452380Y523809D01*
X31785714Y1142857D02*
X31785714Y1523809D01*
X32452380Y1285714D02*
X31595238Y1285714D01*
X31500000Y1333333D01*
X31452380Y1428571D01*
X31452380Y1523809D01*
X32357142Y3190476D02*
X32404761Y3142857D01*
X32452380Y3000000D01*
X32452380Y2904761D01*
X32404761Y2761904D01*
X32309523Y2666666D01*
X32214285Y2619047D01*
X32023809Y2571428D01*
X31880952Y2571428D01*
X31690476Y2619047D01*
X31595238Y2666666D01*
X31500000Y2761904D01*
X31452380Y2904761D01*
X31452380Y3000000D01*
X31500000Y3142857D01*
X31547619Y3190476D01*
X32452380Y3761904D02*
X32404761Y3666666D01*
X32309523Y3619047D01*
X31452380Y3619047D01*
X32452380Y4571428D02*
X31928571Y4571428D01*
X31833333Y4523809D01*
X31785714Y4428571D01*
X31785714Y4238095D01*
X31833333Y4142857D01*
X32404761Y4571428D02*
X32452380Y4476190D01*
X32452380Y4238095D01*
X32404761Y4142857D01*
X32309523Y4095238D01*
X32214285Y4095238D01*
X32119047Y4142857D01*
X32071428Y4238095D01*
X32071428Y4476190D01*
X32023809Y4571428D01*
X32452380Y5047619D02*
X31785714Y5047619D01*
X31880952Y5047619D02*
X31833333Y5095238D01*
X31785714Y5190476D01*
X31785714Y5333333D01*
X31833333Y5428571D01*
X31928571Y5476190D01*
X32452380Y5476190D01*
X31928571Y5476190D02*
X31833333Y5523809D01*
X31785714Y5619047D01*
X31785714Y5761904D01*
X31833333Y5857142D01*
X31928571Y5904761D01*
X32452380Y5904761D01*
X31785714Y6380952D02*
X32785714Y6380952D01*
X31833333Y6380952D02*
X31785714Y6476190D01*
X31785714Y6666666D01*
X31833333Y6761904D01*
X31880952Y6809523D01*
X31976190Y6857142D01*
X32261904Y6857142D01*
X32357142Y6809523D01*
X32404761Y6761904D01*
X32452380Y6666666D01*
X32452380Y6476190D01*
X32404761Y6380952D01*
X48452380Y-6047619D02*
X48452380Y-5857142D01*
X48500000Y-5761904D01*
X48595238Y-5666666D01*
X48785714Y-5619047D01*
X49119047Y-5619047D01*
X49309523Y-5666666D01*
X49404761Y-5761904D01*
X49452380Y-5857142D01*
X49452380Y-6047619D01*
X49404761Y-6142857D01*
X49309523Y-6238095D01*
X49119047Y-6285714D01*
X48785714Y-6285714D01*
X48595238Y-6238095D01*
X48500000Y-6142857D01*
X48452380Y-6047619D01*
X48785714Y-4761904D02*
X49452380Y-4761904D01*
X48785714Y-5190476D02*
X49309523Y-5190476D01*
X49404761Y-5142857D01*
X49452380Y-5047619D01*
X49452380Y-4904761D01*
X49404761Y-4809523D01*
X49357142Y-4761904D01*
X48785714Y-4428571D02*
X48785714Y-4047619D01*
X48452380Y-4285714D02*
X49309523Y-4285714D01*
X49404761Y-4238095D01*
X49452380Y-4142857D01*
X49452380Y-4047619D01*
X49452380Y-3571428D02*
X49404761Y-3666666D01*
X49309523Y-3714285D01*
X48452380Y-3714285D01*
X49452380Y-3190476D02*
X48785714Y-3190476D01*
X48452380Y-3190476D02*
X48500000Y-3238095D01*
X48547619Y-3190476D01*
X48500000Y-3142857D01*
X48452380Y-3190476D01*
X48547619Y-3190476D01*
X48785714Y-2714285D02*
X49452380Y-2714285D01*
X48880952Y-2714285D02*
X48833333Y-2666666D01*
X48785714Y-2571428D01*
X48785714Y-2428571D01*
X48833333Y-2333333D01*
X48928571Y-2285714D01*
X49452380Y-2285714D01*
X49404761Y-1428571D02*
X49452380Y-1523809D01*
X49452380Y-1714285D01*
X49404761Y-1809523D01*
X49309523Y-1857142D01*
X48928571Y-1857142D01*
X48833333Y-1809523D01*
X48785714Y-1714285D01*
X48785714Y-1523809D01*
X48833333Y-1428571D01*
X48928571Y-1380952D01*
X49023809Y-1380952D01*
X49119047Y-1857142D01*
X49452380Y-47619D02*
X49404761Y-142857D01*
X49357142Y-190476D01*
X49261904Y-238095D01*
X48976190Y-238095D01*
X48880952Y-190476D01*
X48833333Y-142857D01*
X48785714Y-47619D01*
X48785714Y95238D01*
X48833333Y190476D01*
X48880952Y238095D01*
X48976190Y285714D01*
X49261904Y285714D01*
X49357142Y238095D01*
X49404761Y190476D01*
X49452380Y95238D01*
X49452380Y-47619D01*
X48785714Y571428D02*
X48785714Y952380D01*
X49452380Y714285D02*
X48595238Y714285D01*
X48500000Y761904D01*
X48452380Y857142D01*
X48452380Y952380D01*
X49357142Y2619047D02*
X49404761Y2571428D01*
X49452380Y2428571D01*
X49452380Y2333333D01*
X49404761Y2190476D01*
X49309523Y2095238D01*
X49214285Y2047619D01*
X49023809Y2000000D01*
X48880952Y2000000D01*
X48690476Y2047619D01*
X48595238Y2095238D01*
X48500000Y2190476D01*
X48452380Y2333333D01*
X48452380Y2428571D01*
X48500000Y2571428D01*
X48547619Y2619047D01*
X49452380Y3190476D02*
X49404761Y3095238D01*
X49309523Y3047619D01*
X48452380Y3047619D01*
X49452380Y4000000D02*
X48928571Y4000000D01*
X48833333Y3952380D01*
X48785714Y3857142D01*
X48785714Y3666666D01*
X48833333Y3571428D01*
X49404761Y4000000D02*
X49452380Y3904761D01*
X49452380Y3666666D01*
X49404761Y3571428D01*
X49309523Y3523809D01*
X49214285Y3523809D01*
X49119047Y3571428D01*
X49071428Y3666666D01*
X49071428Y3904761D01*
X49023809Y4000000D01*
X49452380Y4476190D02*
X48785714Y4476190D01*
X48880952Y4476190D02*
X48833333Y4523809D01*
X48785714Y4619047D01*
X48785714Y4761904D01*
X48833333Y4857142D01*
X48928571Y4904761D01*
X49452380Y4904761D01*
X48928571Y4904761D02*
X48833333Y4952380D01*
X48785714Y5047619D01*
X48785714Y5190476D01*
X48833333Y5285714D01*
X48928571Y5333333D01*
X49452380Y5333333D01*
X48785714Y5809523D02*
X49785714Y5809523D01*
X48833333Y5809523D02*
X48785714Y5904761D01*
X48785714Y6095238D01*
X48833333Y6190476D01*
X48880952Y6238095D01*
X48976190Y6285714D01*
X49261904Y6285714D01*
X49357142Y6238095D01*
X49404761Y6190476D01*
X49452380Y6095238D01*
X49452380Y5904761D01*
X49404761Y5809523D01*
%TD*%
M02*
