%TF.GenerationSoftware,KiCad,Pcbnew,(5.1.9)-1*%
%TF.CreationDate,2021-08-10T11:53:15-06:00*%
%TF.ProjectId,VacuumFeedThruHDMI,56616375-756d-4466-9565-645468727548,rev?*%
%TF.SameCoordinates,Original*%
%TF.FileFunction,Copper,L4,Bot*%
%TF.FilePolarity,Positive*%
%FSLAX46Y46*%
G04 Gerber Fmt 4.6, Leading zero omitted, Abs format (unit mm)*
G04 Created by KiCad (PCBNEW (5.1.9)-1) date 2021-08-10 11:53:15*
%MOMM*%
%LPD*%
G01*
G04 APERTURE LIST*
%TA.AperFunction,ComponentPad*%
%ADD10O,4.500000X1.500000*%
%TD*%
%TA.AperFunction,ComponentPad*%
%ADD11C,0.800000*%
%TD*%
%TA.AperFunction,ComponentPad*%
%ADD12O,2.810000X2.810000*%
%TD*%
%TA.AperFunction,ComponentPad*%
%ADD13O,0.920000X0.920000*%
%TD*%
%TA.AperFunction,ComponentPad*%
%ADD14O,1.500000X4.500000*%
%TD*%
%TA.AperFunction,ComponentPad*%
%ADD15C,10.000000*%
%TD*%
%TA.AperFunction,Conductor*%
%ADD16C,0.254000*%
%TD*%
%TA.AperFunction,Conductor*%
%ADD17C,0.100000*%
%TD*%
G04 APERTURE END LIST*
D10*
%TO.P,J3_(9:12),0*%
%TO.N,N/C*%
X16000000Y-56250000D03*
X16000000Y-69750000D03*
D11*
%TO.P,J3_(9:12),19*%
%TO.N,Net-(J11-Pad19)*%
X15100000Y-58500000D03*
%TO.P,J3_(9:12),18*%
%TO.N,Net-(J11-Pad18)*%
X16900000Y-59000000D03*
%TO.P,J3_(9:12),17*%
%TO.N,GND*%
X15100000Y-59500000D03*
%TO.P,J3_(9:12),16*%
%TO.N,Net-(J11-Pad16)*%
X16900000Y-60000000D03*
%TO.P,J3_(9:12),15*%
%TO.N,Net-(J11-Pad15)*%
X15100000Y-60500000D03*
%TO.P,J3_(9:12),14*%
%TO.N,Net-(J11-Pad14)*%
X16900000Y-61000000D03*
%TO.P,J3_(9:12),13*%
%TO.N,Net-(J11-Pad13)*%
X15100000Y-61500000D03*
%TO.P,J3_(9:12),12*%
%TO.N,Net-(J11-Pad12)*%
X16900000Y-62000000D03*
%TO.P,J3_(9:12),11*%
%TO.N,GND*%
X15100000Y-62500000D03*
%TO.P,J3_(9:12),10*%
%TO.N,Net-(J11-Pad10)*%
X16900000Y-63000000D03*
%TO.P,J3_(9:12),9*%
%TO.N,Net-(J11-Pad9)*%
X15100000Y-63500000D03*
%TO.P,J3_(9:12),8*%
%TO.N,GND*%
X16900000Y-64000000D03*
%TO.P,J3_(9:12),7*%
%TO.N,Net-(J11-Pad7)*%
X15100000Y-64500000D03*
%TO.P,J3_(9:12),6*%
%TO.N,Net-(J11-Pad6)*%
X16900000Y-65000000D03*
%TO.P,J3_(9:12),5*%
%TO.N,GND*%
X15100000Y-65500000D03*
%TO.P,J3_(9:12),4*%
%TO.N,Net-(J11-Pad4)*%
X16900000Y-66000000D03*
%TO.P,J3_(9:12),3*%
%TO.N,Net-(J11-Pad3)*%
X15100000Y-66500000D03*
%TO.P,J3_(9:12),2*%
%TO.N,GND*%
X16900000Y-67000000D03*
%TO.P,J3_(9:12),1*%
%TO.N,Net-(J11-Pad1)*%
X15100000Y-67500000D03*
%TD*%
D12*
%TO.P,J3,27*%
%TO.N,N/C*%
X-12275000Y-11450000D03*
%TO.P,J3,26*%
X12275000Y-11450000D03*
D13*
%TO.P,J3,13*%
%TO.N,Net-(J12-Pad13)*%
X7620000Y-12000000D03*
%TO.P,J3,25*%
%TO.N,Net-(J11-Pad12)*%
X6985000Y-10900000D03*
%TO.P,J3,12*%
%TO.N,Net-(J11-Pad10)*%
X6350000Y-12000000D03*
%TO.P,J3,24*%
%TO.N,Net-(J11-Pad9)*%
X5715000Y-10900000D03*
%TO.P,J3,11*%
%TO.N,Net-(J11-Pad7)*%
X5080000Y-12000000D03*
%TO.P,J3,23*%
%TO.N,Net-(J11-Pad6)*%
X4445000Y-10900000D03*
%TO.P,J3,10*%
%TO.N,Net-(J11-Pad4)*%
X3810000Y-12000000D03*
%TO.P,J3,22*%
%TO.N,Net-(J11-Pad3)*%
X3175000Y-10900000D03*
%TO.P,J3,9*%
%TO.N,Net-(J11-Pad1)*%
X2540000Y-12000000D03*
%TO.P,J3,21*%
%TO.N,Net-(J12-Pad21)*%
X1905000Y-10900000D03*
%TO.P,J3,8*%
%TO.N,Net-(J12-Pad8)*%
X1270000Y-12000000D03*
%TO.P,J3,20*%
%TO.N,Net-(J12-Pad20)*%
X635000Y-10900000D03*
%TO.P,J3,7*%
%TO.N,Net-(J12-Pad7)*%
X0Y-12000000D03*
%TO.P,J3,19*%
%TO.N,Net-(J12-Pad19)*%
X-635000Y-10900000D03*
%TO.P,J3,6*%
%TO.N,Net-(J12-Pad6)*%
X-1270000Y-12000000D03*
%TO.P,J3,18*%
%TO.N,Net-(J12-Pad18)*%
X-1905000Y-10900000D03*
%TO.P,J3,5*%
%TO.N,Net-(J12-Pad5)*%
X-2540000Y-12000000D03*
%TO.P,J3,17*%
%TO.N,Net-(J10-Pad12)*%
X-3175000Y-10900000D03*
%TO.P,J3,4*%
%TO.N,Net-(J10-Pad10)*%
X-3810000Y-12000000D03*
%TO.P,J3,16*%
%TO.N,Net-(J10-Pad9)*%
X-4445000Y-10900000D03*
%TO.P,J3,3*%
%TO.N,Net-(J10-Pad7)*%
X-5080000Y-12000000D03*
%TO.P,J3,15*%
%TO.N,Net-(J10-Pad6)*%
X-5715000Y-10900000D03*
%TO.P,J3,2*%
%TO.N,Net-(J10-Pad4)*%
X-6350000Y-12000000D03*
%TO.P,J3,14*%
%TO.N,Net-(J10-Pad3)*%
X-6985000Y-10900000D03*
%TO.P,J3,1*%
%TO.N,Net-(J10-Pad1)*%
X-7620000Y-12000000D03*
%TD*%
D10*
%TO.P,J3_(1:4),0*%
%TO.N,N/C*%
X-16000000Y-56250000D03*
X-16000000Y-69750000D03*
D11*
%TO.P,J3_(1:4),19*%
%TO.N,Net-(J10-Pad19)*%
X-16900000Y-58500000D03*
%TO.P,J3_(1:4),18*%
%TO.N,Net-(J10-Pad18)*%
X-15100000Y-59000000D03*
%TO.P,J3_(1:4),17*%
%TO.N,GND*%
X-16900000Y-59500000D03*
%TO.P,J3_(1:4),16*%
%TO.N,Net-(J10-Pad16)*%
X-15100000Y-60000000D03*
%TO.P,J3_(1:4),15*%
%TO.N,Net-(J10-Pad15)*%
X-16900000Y-60500000D03*
%TO.P,J3_(1:4),14*%
%TO.N,Net-(J10-Pad14)*%
X-15100000Y-61000000D03*
%TO.P,J3_(1:4),13*%
%TO.N,Net-(J10-Pad13)*%
X-16900000Y-61500000D03*
%TO.P,J3_(1:4),12*%
%TO.N,Net-(J10-Pad12)*%
X-15100000Y-62000000D03*
%TO.P,J3_(1:4),11*%
%TO.N,GND*%
X-16900000Y-62500000D03*
%TO.P,J3_(1:4),10*%
%TO.N,Net-(J10-Pad10)*%
X-15100000Y-63000000D03*
%TO.P,J3_(1:4),9*%
%TO.N,Net-(J10-Pad9)*%
X-16900000Y-63500000D03*
%TO.P,J3_(1:4),8*%
%TO.N,GND*%
X-15100000Y-64000000D03*
%TO.P,J3_(1:4),7*%
%TO.N,Net-(J10-Pad7)*%
X-16900000Y-64500000D03*
%TO.P,J3_(1:4),6*%
%TO.N,Net-(J10-Pad6)*%
X-15100000Y-65000000D03*
%TO.P,J3_(1:4),5*%
%TO.N,GND*%
X-16900000Y-65500000D03*
%TO.P,J3_(1:4),4*%
%TO.N,Net-(J10-Pad4)*%
X-15100000Y-66000000D03*
%TO.P,J3_(1:4),3*%
%TO.N,Net-(J10-Pad3)*%
X-16900000Y-66500000D03*
%TO.P,J3_(1:4),2*%
%TO.N,GND*%
X-15100000Y-67000000D03*
%TO.P,J3_(1:4),1*%
%TO.N,Net-(J10-Pad1)*%
X-16900000Y-67500000D03*
%TD*%
D10*
%TO.P,J3_(5:8),0*%
%TO.N,N/C*%
X0Y-56250000D03*
X0Y-69750000D03*
D11*
%TO.P,J3_(5:8),19*%
%TO.N,Net-(J9-Pad19)*%
X-900000Y-58500000D03*
%TO.P,J3_(5:8),18*%
%TO.N,Net-(J9-Pad18)*%
X900000Y-59000000D03*
%TO.P,J3_(5:8),17*%
%TO.N,GND*%
X-900000Y-59500000D03*
%TO.P,J3_(5:8),16*%
%TO.N,Net-(J9-Pad16)*%
X900000Y-60000000D03*
%TO.P,J3_(5:8),15*%
%TO.N,Net-(J9-Pad15)*%
X-900000Y-60500000D03*
%TO.P,J3_(5:8),14*%
%TO.N,Net-(J9-Pad14)*%
X900000Y-61000000D03*
%TO.P,J3_(5:8),13*%
%TO.N,Net-(J9-Pad13)*%
X-900000Y-61500000D03*
%TO.P,J3_(5:8),12*%
%TO.N,Net-(J12-Pad21)*%
X900000Y-62000000D03*
%TO.P,J3_(5:8),11*%
%TO.N,GND*%
X-900000Y-62500000D03*
%TO.P,J3_(5:8),10*%
%TO.N,Net-(J12-Pad8)*%
X900000Y-63000000D03*
%TO.P,J3_(5:8),9*%
%TO.N,Net-(J12-Pad20)*%
X-900000Y-63500000D03*
%TO.P,J3_(5:8),8*%
%TO.N,GND*%
X900000Y-64000000D03*
%TO.P,J3_(5:8),7*%
%TO.N,Net-(J12-Pad7)*%
X-900000Y-64500000D03*
%TO.P,J3_(5:8),6*%
%TO.N,Net-(J12-Pad19)*%
X900000Y-65000000D03*
%TO.P,J3_(5:8),5*%
%TO.N,GND*%
X-900000Y-65500000D03*
%TO.P,J3_(5:8),4*%
%TO.N,Net-(J12-Pad6)*%
X900000Y-66000000D03*
%TO.P,J3_(5:8),3*%
%TO.N,Net-(J12-Pad18)*%
X-900000Y-66500000D03*
%TO.P,J3_(5:8),2*%
%TO.N,GND*%
X900000Y-67000000D03*
%TO.P,J3_(5:8),1*%
%TO.N,Net-(J12-Pad5)*%
X-900000Y-67500000D03*
%TD*%
D12*
%TO.P,J1,27*%
%TO.N,N/C*%
X-12275000Y12550000D03*
%TO.P,J1,26*%
X12275000Y12550000D03*
D13*
%TO.P,J1,13*%
%TO.N,Net-(J8-Pad13)*%
X7620000Y12000000D03*
%TO.P,J1,25*%
%TO.N,Net-(J7-Pad12)*%
X6985000Y13100000D03*
%TO.P,J1,12*%
%TO.N,Net-(J7-Pad10)*%
X6350000Y12000000D03*
%TO.P,J1,24*%
%TO.N,Net-(J7-Pad9)*%
X5715000Y13100000D03*
%TO.P,J1,11*%
%TO.N,Net-(J7-Pad7)*%
X5080000Y12000000D03*
%TO.P,J1,23*%
%TO.N,Net-(J7-Pad6)*%
X4445000Y13100000D03*
%TO.P,J1,10*%
%TO.N,Net-(J7-Pad4)*%
X3810000Y12000000D03*
%TO.P,J1,22*%
%TO.N,Net-(J7-Pad3)*%
X3175000Y13100000D03*
%TO.P,J1,9*%
%TO.N,Net-(J7-Pad1)*%
X2540000Y12000000D03*
%TO.P,J1,21*%
%TO.N,Net-(J5-Pad12)*%
X1905000Y13100000D03*
%TO.P,J1,8*%
%TO.N,Net-(J5-Pad10)*%
X1270000Y12000000D03*
%TO.P,J1,20*%
%TO.N,Net-(J5-Pad9)*%
X635000Y13100000D03*
%TO.P,J1,7*%
%TO.N,Net-(J5-Pad7)*%
X0Y12000000D03*
%TO.P,J1,19*%
%TO.N,Net-(J5-Pad6)*%
X-635000Y13100000D03*
%TO.P,J1,6*%
%TO.N,Net-(J5-Pad4)*%
X-1270000Y12000000D03*
%TO.P,J1,18*%
%TO.N,Net-(J5-Pad3)*%
X-1905000Y13100000D03*
%TO.P,J1,5*%
%TO.N,Net-(J5-Pad1)*%
X-2540000Y12000000D03*
%TO.P,J1,17*%
%TO.N,Net-(J6-Pad12)*%
X-3175000Y13100000D03*
%TO.P,J1,4*%
%TO.N,Net-(J6-Pad10)*%
X-3810000Y12000000D03*
%TO.P,J1,16*%
%TO.N,Net-(J6-Pad9)*%
X-4445000Y13100000D03*
%TO.P,J1,3*%
%TO.N,Net-(J6-Pad7)*%
X-5080000Y12000000D03*
%TO.P,J1,15*%
%TO.N,Net-(J6-Pad6)*%
X-5715000Y13100000D03*
%TO.P,J1,2*%
%TO.N,Net-(J6-Pad4)*%
X-6350000Y12000000D03*
%TO.P,J1,14*%
%TO.N,Net-(J6-Pad3)*%
X-6985000Y13100000D03*
%TO.P,J1,1*%
%TO.N,Net-(J6-Pad1)*%
X-7620000Y12000000D03*
%TD*%
D10*
%TO.P,J1_(9:12),0*%
%TO.N,N/C*%
X16000000Y56250000D03*
X16000000Y69750000D03*
D11*
%TO.P,J1_(9:12),19*%
%TO.N,Net-(J7-Pad19)*%
X16900000Y58500000D03*
%TO.P,J1_(9:12),18*%
%TO.N,Net-(J7-Pad18)*%
X15100000Y59000000D03*
%TO.P,J1_(9:12),17*%
%TO.N,GND*%
X16900000Y59500000D03*
%TO.P,J1_(9:12),16*%
%TO.N,Net-(J7-Pad16)*%
X15100000Y60000000D03*
%TO.P,J1_(9:12),15*%
%TO.N,Net-(J7-Pad15)*%
X16900000Y60500000D03*
%TO.P,J1_(9:12),14*%
%TO.N,Net-(J7-Pad14)*%
X15100000Y61000000D03*
%TO.P,J1_(9:12),13*%
%TO.N,Net-(J7-Pad13)*%
X16900000Y61500000D03*
%TO.P,J1_(9:12),12*%
%TO.N,Net-(J7-Pad12)*%
X15100000Y62000000D03*
%TO.P,J1_(9:12),11*%
%TO.N,GND*%
X16900000Y62500000D03*
%TO.P,J1_(9:12),10*%
%TO.N,Net-(J7-Pad10)*%
X15100000Y63000000D03*
%TO.P,J1_(9:12),9*%
%TO.N,Net-(J7-Pad9)*%
X16900000Y63500000D03*
%TO.P,J1_(9:12),8*%
%TO.N,GND*%
X15100000Y64000000D03*
%TO.P,J1_(9:12),7*%
%TO.N,Net-(J7-Pad7)*%
X16900000Y64500000D03*
%TO.P,J1_(9:12),6*%
%TO.N,Net-(J7-Pad6)*%
X15100000Y65000000D03*
%TO.P,J1_(9:12),5*%
%TO.N,GND*%
X16900000Y65500000D03*
%TO.P,J1_(9:12),4*%
%TO.N,Net-(J7-Pad4)*%
X15100000Y66000000D03*
%TO.P,J1_(9:12),3*%
%TO.N,Net-(J7-Pad3)*%
X16900000Y66500000D03*
%TO.P,J1_(9:12),2*%
%TO.N,GND*%
X15100000Y67000000D03*
%TO.P,J1_(9:12),1*%
%TO.N,Net-(J7-Pad1)*%
X16900000Y67500000D03*
%TD*%
D10*
%TO.P,J1_(1:4),0*%
%TO.N,N/C*%
X-16000000Y56250000D03*
X-16000000Y69750000D03*
D11*
%TO.P,J1_(1:4),19*%
%TO.N,Net-(J6-Pad19)*%
X-15100000Y58500000D03*
%TO.P,J1_(1:4),18*%
%TO.N,Net-(J6-Pad18)*%
X-16900000Y59000000D03*
%TO.P,J1_(1:4),17*%
%TO.N,GND*%
X-15100000Y59500000D03*
%TO.P,J1_(1:4),16*%
%TO.N,Net-(J6-Pad16)*%
X-16900000Y60000000D03*
%TO.P,J1_(1:4),15*%
%TO.N,Net-(J6-Pad15)*%
X-15100000Y60500000D03*
%TO.P,J1_(1:4),14*%
%TO.N,Net-(J6-Pad14)*%
X-16900000Y61000000D03*
%TO.P,J1_(1:4),13*%
%TO.N,Net-(J6-Pad13)*%
X-15100000Y61500000D03*
%TO.P,J1_(1:4),12*%
%TO.N,Net-(J6-Pad12)*%
X-16900000Y62000000D03*
%TO.P,J1_(1:4),11*%
%TO.N,GND*%
X-15100000Y62500000D03*
%TO.P,J1_(1:4),10*%
%TO.N,Net-(J6-Pad10)*%
X-16900000Y63000000D03*
%TO.P,J1_(1:4),9*%
%TO.N,Net-(J6-Pad9)*%
X-15100000Y63500000D03*
%TO.P,J1_(1:4),8*%
%TO.N,GND*%
X-16900000Y64000000D03*
%TO.P,J1_(1:4),7*%
%TO.N,Net-(J6-Pad7)*%
X-15100000Y64500000D03*
%TO.P,J1_(1:4),6*%
%TO.N,Net-(J6-Pad6)*%
X-16900000Y65000000D03*
%TO.P,J1_(1:4),5*%
%TO.N,GND*%
X-15100000Y65500000D03*
%TO.P,J1_(1:4),4*%
%TO.N,Net-(J6-Pad4)*%
X-16900000Y66000000D03*
%TO.P,J1_(1:4),3*%
%TO.N,Net-(J6-Pad3)*%
X-15100000Y66500000D03*
%TO.P,J1_(1:4),2*%
%TO.N,GND*%
X-16900000Y67000000D03*
%TO.P,J1_(1:4),1*%
%TO.N,Net-(J6-Pad1)*%
X-15100000Y67500000D03*
%TD*%
D10*
%TO.P,J1_(5:8),0*%
%TO.N,N/C*%
X0Y56250000D03*
X0Y69750000D03*
D11*
%TO.P,J1_(5:8),19*%
%TO.N,Net-(J5-Pad19)*%
X900000Y58500000D03*
%TO.P,J1_(5:8),18*%
%TO.N,Net-(J5-Pad18)*%
X-900000Y59000000D03*
%TO.P,J1_(5:8),17*%
%TO.N,GND*%
X900000Y59500000D03*
%TO.P,J1_(5:8),16*%
%TO.N,Net-(J5-Pad16)*%
X-900000Y60000000D03*
%TO.P,J1_(5:8),15*%
%TO.N,Net-(J5-Pad15)*%
X900000Y60500000D03*
%TO.P,J1_(5:8),14*%
%TO.N,Net-(J5-Pad14)*%
X-900000Y61000000D03*
%TO.P,J1_(5:8),13*%
%TO.N,Net-(J5-Pad13)*%
X900000Y61500000D03*
%TO.P,J1_(5:8),12*%
%TO.N,Net-(J5-Pad12)*%
X-900000Y62000000D03*
%TO.P,J1_(5:8),11*%
%TO.N,GND*%
X900000Y62500000D03*
%TO.P,J1_(5:8),10*%
%TO.N,Net-(J5-Pad10)*%
X-900000Y63000000D03*
%TO.P,J1_(5:8),9*%
%TO.N,Net-(J5-Pad9)*%
X900000Y63500000D03*
%TO.P,J1_(5:8),8*%
%TO.N,GND*%
X-900000Y64000000D03*
%TO.P,J1_(5:8),7*%
%TO.N,Net-(J5-Pad7)*%
X900000Y64500000D03*
%TO.P,J1_(5:8),6*%
%TO.N,Net-(J5-Pad6)*%
X-900000Y65000000D03*
%TO.P,J1_(5:8),5*%
%TO.N,GND*%
X900000Y65500000D03*
%TO.P,J1_(5:8),4*%
%TO.N,Net-(J5-Pad4)*%
X-900000Y66000000D03*
%TO.P,J1_(5:8),3*%
%TO.N,Net-(J5-Pad3)*%
X900000Y66500000D03*
%TO.P,J1_(5:8),2*%
%TO.N,GND*%
X-900000Y67000000D03*
%TO.P,J1_(5:8),1*%
%TO.N,Net-(J5-Pad1)*%
X900000Y67500000D03*
%TD*%
D12*
%TO.P,J2,27*%
%TO.N,N/C*%
X-12275000Y550000D03*
%TO.P,J2,26*%
X12275000Y550000D03*
D13*
%TO.P,J2,13*%
%TO.N,Net-(J4-Pad13)*%
X7620000Y0D03*
%TO.P,J2,25*%
%TO.N,Net-(J3-Pad12)*%
X6985000Y1100000D03*
%TO.P,J2,12*%
%TO.N,Net-(J3-Pad10)*%
X6350000Y0D03*
%TO.P,J2,24*%
%TO.N,Net-(J3-Pad9)*%
X5715000Y1100000D03*
%TO.P,J2,11*%
%TO.N,Net-(J3-Pad7)*%
X5080000Y0D03*
%TO.P,J2,23*%
%TO.N,Net-(J3-Pad6)*%
X4445000Y1100000D03*
%TO.P,J2,10*%
%TO.N,Net-(J3-Pad4)*%
X3810000Y0D03*
%TO.P,J2,22*%
%TO.N,Net-(J3-Pad3)*%
X3175000Y1100000D03*
%TO.P,J2,9*%
%TO.N,Net-(J3-Pad1)*%
X2540000Y0D03*
%TO.P,J2,21*%
%TO.N,Net-(J1-Pad12)*%
X1905000Y1100000D03*
%TO.P,J2,8*%
%TO.N,Net-(J1-Pad10)*%
X1270000Y0D03*
%TO.P,J2,20*%
%TO.N,Net-(J1-Pad9)*%
X635000Y1100000D03*
%TO.P,J2,7*%
%TO.N,Net-(J1-Pad7)*%
X0Y0D03*
%TO.P,J2,19*%
%TO.N,Net-(J1-Pad6)*%
X-635000Y1100000D03*
%TO.P,J2,6*%
%TO.N,Net-(J1-Pad4)*%
X-1270000Y0D03*
%TO.P,J2,18*%
%TO.N,Net-(J1-Pad3)*%
X-1905000Y1100000D03*
%TO.P,J2,5*%
%TO.N,Net-(J1-Pad1)*%
X-2540000Y0D03*
%TO.P,J2,17*%
%TO.N,Net-(J2-Pad12)*%
X-3175000Y1100000D03*
%TO.P,J2,4*%
%TO.N,Net-(J2-Pad10)*%
X-3810000Y0D03*
%TO.P,J2,16*%
%TO.N,Net-(J2-Pad9)*%
X-4445000Y1100000D03*
%TO.P,J2,3*%
%TO.N,Net-(J2-Pad7)*%
X-5080000Y0D03*
%TO.P,J2,15*%
%TO.N,Net-(J2-Pad6)*%
X-5715000Y1100000D03*
%TO.P,J2,2*%
%TO.N,Net-(J2-Pad4)*%
X-6350000Y0D03*
%TO.P,J2,14*%
%TO.N,Net-(J2-Pad3)*%
X-6985000Y1100000D03*
%TO.P,J2,1*%
%TO.N,Net-(J2-Pad1)*%
X-7620000Y0D03*
%TD*%
D14*
%TO.P,J2_(9:12),0*%
%TO.N,N/C*%
X-74750000Y16000000D03*
X-61250000Y16000000D03*
D11*
%TO.P,J2_(9:12),19*%
%TO.N,Net-(J3-Pad19)*%
X-72500000Y15100000D03*
%TO.P,J2_(9:12),18*%
%TO.N,Net-(J3-Pad18)*%
X-72000000Y16900000D03*
%TO.P,J2_(9:12),17*%
%TO.N,GND*%
X-71500000Y15100000D03*
%TO.P,J2_(9:12),16*%
%TO.N,Net-(J3-Pad16)*%
X-71000000Y16900000D03*
%TO.P,J2_(9:12),15*%
%TO.N,Net-(J3-Pad15)*%
X-70500000Y15100000D03*
%TO.P,J2_(9:12),14*%
%TO.N,Net-(J3-Pad14)*%
X-70000000Y16900000D03*
%TO.P,J2_(9:12),13*%
%TO.N,Net-(J3-Pad13)*%
X-69500000Y15100000D03*
%TO.P,J2_(9:12),12*%
%TO.N,Net-(J3-Pad12)*%
X-69000000Y16900000D03*
%TO.P,J2_(9:12),11*%
%TO.N,GND*%
X-68500000Y15100000D03*
%TO.P,J2_(9:12),10*%
%TO.N,Net-(J3-Pad10)*%
X-68000000Y16900000D03*
%TO.P,J2_(9:12),9*%
%TO.N,Net-(J3-Pad9)*%
X-67500000Y15100000D03*
%TO.P,J2_(9:12),8*%
%TO.N,GND*%
X-67000000Y16900000D03*
%TO.P,J2_(9:12),7*%
%TO.N,Net-(J3-Pad7)*%
X-66500000Y15100000D03*
%TO.P,J2_(9:12),6*%
%TO.N,Net-(J3-Pad6)*%
X-66000000Y16900000D03*
%TO.P,J2_(9:12),5*%
%TO.N,GND*%
X-65500000Y15100000D03*
%TO.P,J2_(9:12),4*%
%TO.N,Net-(J3-Pad4)*%
X-65000000Y16900000D03*
%TO.P,J2_(9:12),3*%
%TO.N,Net-(J3-Pad3)*%
X-64500000Y15100000D03*
%TO.P,J2_(9:12),2*%
%TO.N,GND*%
X-64000000Y16900000D03*
%TO.P,J2_(9:12),1*%
%TO.N,Net-(J3-Pad1)*%
X-63500000Y15100000D03*
%TD*%
D14*
%TO.P,J2_(1:4),0*%
%TO.N,N/C*%
X-74750000Y-16000000D03*
X-61250000Y-16000000D03*
D11*
%TO.P,J2_(1:4),19*%
%TO.N,Net-(J2-Pad19)*%
X-72500000Y-16900000D03*
%TO.P,J2_(1:4),18*%
%TO.N,Net-(J2-Pad18)*%
X-72000000Y-15100000D03*
%TO.P,J2_(1:4),17*%
%TO.N,GND*%
X-71500000Y-16900000D03*
%TO.P,J2_(1:4),16*%
%TO.N,Net-(J2-Pad16)*%
X-71000000Y-15100000D03*
%TO.P,J2_(1:4),15*%
%TO.N,Net-(J2-Pad15)*%
X-70500000Y-16900000D03*
%TO.P,J2_(1:4),14*%
%TO.N,Net-(J2-Pad14)*%
X-70000000Y-15100000D03*
%TO.P,J2_(1:4),13*%
%TO.N,Net-(J2-Pad13)*%
X-69500000Y-16900000D03*
%TO.P,J2_(1:4),12*%
%TO.N,Net-(J2-Pad12)*%
X-69000000Y-15100000D03*
%TO.P,J2_(1:4),11*%
%TO.N,GND*%
X-68500000Y-16900000D03*
%TO.P,J2_(1:4),10*%
%TO.N,Net-(J2-Pad10)*%
X-68000000Y-15100000D03*
%TO.P,J2_(1:4),9*%
%TO.N,Net-(J2-Pad9)*%
X-67500000Y-16900000D03*
%TO.P,J2_(1:4),8*%
%TO.N,GND*%
X-67000000Y-15100000D03*
%TO.P,J2_(1:4),7*%
%TO.N,Net-(J2-Pad7)*%
X-66500000Y-16900000D03*
%TO.P,J2_(1:4),6*%
%TO.N,Net-(J2-Pad6)*%
X-66000000Y-15100000D03*
%TO.P,J2_(1:4),5*%
%TO.N,GND*%
X-65500000Y-16900000D03*
%TO.P,J2_(1:4),4*%
%TO.N,Net-(J2-Pad4)*%
X-65000000Y-15100000D03*
%TO.P,J2_(1:4),3*%
%TO.N,Net-(J2-Pad3)*%
X-64500000Y-16900000D03*
%TO.P,J2_(1:4),2*%
%TO.N,GND*%
X-64000000Y-15100000D03*
%TO.P,J2_(1:4),1*%
%TO.N,Net-(J2-Pad1)*%
X-63500000Y-16900000D03*
%TD*%
D14*
%TO.P,J2_(5:8),0*%
%TO.N,N/C*%
X-74750000Y0D03*
X-61250000Y0D03*
D11*
%TO.P,J2_(5:8),19*%
%TO.N,Net-(J1-Pad19)*%
X-72500000Y-900000D03*
%TO.P,J2_(5:8),18*%
%TO.N,Net-(J1-Pad18)*%
X-72000000Y900000D03*
%TO.P,J2_(5:8),17*%
%TO.N,GND*%
X-71500000Y-900000D03*
%TO.P,J2_(5:8),16*%
%TO.N,Net-(J1-Pad16)*%
X-71000000Y900000D03*
%TO.P,J2_(5:8),15*%
%TO.N,Net-(J1-Pad15)*%
X-70500000Y-900000D03*
%TO.P,J2_(5:8),14*%
%TO.N,Net-(J1-Pad14)*%
X-70000000Y900000D03*
%TO.P,J2_(5:8),13*%
%TO.N,Net-(J1-Pad13)*%
X-69500000Y-900000D03*
%TO.P,J2_(5:8),12*%
%TO.N,Net-(J1-Pad12)*%
X-69000000Y900000D03*
%TO.P,J2_(5:8),11*%
%TO.N,GND*%
X-68500000Y-900000D03*
%TO.P,J2_(5:8),10*%
%TO.N,Net-(J1-Pad10)*%
X-68000000Y900000D03*
%TO.P,J2_(5:8),9*%
%TO.N,Net-(J1-Pad9)*%
X-67500000Y-900000D03*
%TO.P,J2_(5:8),8*%
%TO.N,GND*%
X-67000000Y900000D03*
%TO.P,J2_(5:8),7*%
%TO.N,Net-(J1-Pad7)*%
X-66500000Y-900000D03*
%TO.P,J2_(5:8),6*%
%TO.N,Net-(J1-Pad6)*%
X-66000000Y900000D03*
%TO.P,J2_(5:8),5*%
%TO.N,GND*%
X-65500000Y-900000D03*
%TO.P,J2_(5:8),4*%
%TO.N,Net-(J1-Pad4)*%
X-65000000Y900000D03*
%TO.P,J2_(5:8),3*%
%TO.N,Net-(J1-Pad3)*%
X-64500000Y-900000D03*
%TO.P,J2_(5:8),2*%
%TO.N,GND*%
X-64000000Y900000D03*
%TO.P,J2_(5:8),1*%
%TO.N,Net-(J1-Pad1)*%
X-63500000Y-900000D03*
%TD*%
D15*
%TO.P,J2,1*%
%TO.N,GND*%
X15795259Y-38133128D03*
%TO.P,J2,2*%
X38133128Y-15795259D03*
%TO.P,J2,3*%
X38133128Y15795259D03*
%TO.P,J2,4*%
X15795259Y38133128D03*
%TO.P,J2,5*%
X-15795259Y38133128D03*
%TO.P,J2,6*%
X-38133128Y15795259D03*
%TO.P,J2,7*%
X-38133128Y-15795259D03*
%TO.P,J2,8*%
X-15795259Y-38133128D03*
%TD*%
D16*
%TO.N,GND*%
X59340001Y39726618D02*
X59340000Y-39726619D01*
X22726620Y-76340000D01*
X-22743562Y-76340000D01*
X-44693747Y-56250000D01*
X-18891701Y-56250000D01*
X-18864960Y-56521507D01*
X-18785764Y-56782581D01*
X-18657157Y-57023188D01*
X-18484081Y-57234081D01*
X-18273188Y-57407157D01*
X-18032581Y-57535764D01*
X-17771507Y-57614960D01*
X-17568037Y-57635000D01*
X-17468387Y-57635000D01*
X-17559774Y-57696063D01*
X-17703937Y-57840226D01*
X-17817205Y-58009744D01*
X-17895226Y-58198102D01*
X-17935000Y-58398061D01*
X-17935000Y-58601939D01*
X-17895226Y-58801898D01*
X-17817205Y-58990256D01*
X-17811157Y-58999308D01*
X-17890577Y-59183184D01*
X-17933351Y-59382523D01*
X-17936413Y-59586377D01*
X-17899647Y-59786912D01*
X-17824466Y-59976420D01*
X-17811344Y-60000972D01*
X-17817205Y-60009744D01*
X-17895226Y-60198102D01*
X-17935000Y-60398061D01*
X-17935000Y-60601939D01*
X-17895226Y-60801898D01*
X-17817205Y-60990256D01*
X-17810694Y-61000000D01*
X-17817205Y-61009744D01*
X-17895226Y-61198102D01*
X-17935000Y-61398061D01*
X-17935000Y-61601939D01*
X-17895226Y-61801898D01*
X-17817205Y-61990256D01*
X-17811157Y-61999308D01*
X-17890577Y-62183184D01*
X-17933351Y-62382523D01*
X-17936413Y-62586377D01*
X-17899647Y-62786912D01*
X-17824466Y-62976420D01*
X-17811344Y-63000972D01*
X-17817205Y-63009744D01*
X-17895226Y-63198102D01*
X-17935000Y-63398061D01*
X-17935000Y-63601939D01*
X-17895226Y-63801898D01*
X-17817205Y-63990256D01*
X-17810694Y-64000000D01*
X-17817205Y-64009744D01*
X-17895226Y-64198102D01*
X-17935000Y-64398061D01*
X-17935000Y-64601939D01*
X-17895226Y-64801898D01*
X-17817205Y-64990256D01*
X-17811157Y-64999308D01*
X-17890577Y-65183184D01*
X-17933351Y-65382523D01*
X-17936413Y-65586377D01*
X-17899647Y-65786912D01*
X-17824466Y-65976420D01*
X-17811344Y-66000972D01*
X-17817205Y-66009744D01*
X-17895226Y-66198102D01*
X-17935000Y-66398061D01*
X-17935000Y-66601939D01*
X-17895226Y-66801898D01*
X-17817205Y-66990256D01*
X-17810694Y-67000000D01*
X-17817205Y-67009744D01*
X-17895226Y-67198102D01*
X-17935000Y-67398061D01*
X-17935000Y-67601939D01*
X-17895226Y-67801898D01*
X-17817205Y-67990256D01*
X-17703937Y-68159774D01*
X-17559774Y-68303937D01*
X-17468387Y-68365000D01*
X-17568037Y-68365000D01*
X-17771507Y-68385040D01*
X-18032581Y-68464236D01*
X-18273188Y-68592843D01*
X-18484081Y-68765919D01*
X-18657157Y-68976812D01*
X-18785764Y-69217419D01*
X-18864960Y-69478493D01*
X-18891701Y-69750000D01*
X-18864960Y-70021507D01*
X-18785764Y-70282581D01*
X-18657157Y-70523188D01*
X-18484081Y-70734081D01*
X-18273188Y-70907157D01*
X-18032581Y-71035764D01*
X-17771507Y-71114960D01*
X-17568037Y-71135000D01*
X-14431963Y-71135000D01*
X-14228493Y-71114960D01*
X-13967419Y-71035764D01*
X-13726812Y-70907157D01*
X-13515919Y-70734081D01*
X-13342843Y-70523188D01*
X-13214236Y-70282581D01*
X-13135040Y-70021507D01*
X-13108299Y-69750000D01*
X-13135040Y-69478493D01*
X-13214236Y-69217419D01*
X-13342843Y-68976812D01*
X-13515919Y-68765919D01*
X-13726812Y-68592843D01*
X-13967419Y-68464236D01*
X-14228493Y-68385040D01*
X-14431963Y-68365000D01*
X-16331613Y-68365000D01*
X-16240226Y-68303937D01*
X-16096063Y-68159774D01*
X-15982795Y-67990256D01*
X-15904774Y-67801898D01*
X-15885787Y-67706441D01*
X-15626836Y-67706441D01*
X-15603981Y-67909736D01*
X-15416816Y-67990577D01*
X-15217477Y-68033351D01*
X-15013623Y-68036413D01*
X-14813088Y-67999647D01*
X-14623580Y-67924466D01*
X-14596019Y-67909736D01*
X-14573164Y-67706441D01*
X-15100000Y-67179605D01*
X-15626836Y-67706441D01*
X-15885787Y-67706441D01*
X-15865000Y-67601939D01*
X-15865000Y-67520253D01*
X-15806441Y-67526836D01*
X-15295913Y-67016308D01*
X-15201939Y-67035000D01*
X-14998061Y-67035000D01*
X-14904087Y-67016308D01*
X-14393559Y-67526836D01*
X-14190264Y-67503981D01*
X-14109423Y-67316816D01*
X-14066649Y-67117477D01*
X-14063587Y-66913623D01*
X-14100353Y-66713088D01*
X-14175534Y-66523580D01*
X-14188656Y-66499028D01*
X-14182795Y-66490256D01*
X-14104774Y-66301898D01*
X-14065000Y-66101939D01*
X-14065000Y-65898061D01*
X-14104774Y-65698102D01*
X-14182795Y-65509744D01*
X-14189306Y-65500000D01*
X-14182795Y-65490256D01*
X-14104774Y-65301898D01*
X-14065000Y-65101939D01*
X-14065000Y-64898061D01*
X-14104774Y-64698102D01*
X-14182795Y-64509744D01*
X-14188843Y-64500692D01*
X-14109423Y-64316816D01*
X-14066649Y-64117477D01*
X-14063587Y-63913623D01*
X-14100353Y-63713088D01*
X-14175534Y-63523580D01*
X-14188656Y-63499028D01*
X-14182795Y-63490256D01*
X-14104774Y-63301898D01*
X-14065000Y-63101939D01*
X-14065000Y-62898061D01*
X-14104774Y-62698102D01*
X-14182795Y-62509744D01*
X-14189306Y-62500000D01*
X-14182795Y-62490256D01*
X-14104774Y-62301898D01*
X-14065000Y-62101939D01*
X-14065000Y-61898061D01*
X-14104774Y-61698102D01*
X-14182795Y-61509744D01*
X-14189306Y-61500000D01*
X-14182795Y-61490256D01*
X-14104774Y-61301898D01*
X-14065000Y-61101939D01*
X-14065000Y-60898061D01*
X-14104774Y-60698102D01*
X-14182795Y-60509744D01*
X-14189306Y-60500000D01*
X-14182795Y-60490256D01*
X-14104774Y-60301898D01*
X-14065000Y-60101939D01*
X-14065000Y-59898061D01*
X-14104774Y-59698102D01*
X-14182795Y-59509744D01*
X-14189306Y-59500000D01*
X-14182795Y-59490256D01*
X-14104774Y-59301898D01*
X-14065000Y-59101939D01*
X-14065000Y-58898061D01*
X-14104774Y-58698102D01*
X-14182795Y-58509744D01*
X-14296063Y-58340226D01*
X-14440226Y-58196063D01*
X-14609744Y-58082795D01*
X-14798102Y-58004774D01*
X-14998061Y-57965000D01*
X-15201939Y-57965000D01*
X-15401898Y-58004774D01*
X-15590256Y-58082795D01*
X-15759774Y-58196063D01*
X-15881055Y-58317344D01*
X-15904774Y-58198102D01*
X-15982795Y-58009744D01*
X-16096063Y-57840226D01*
X-16240226Y-57696063D01*
X-16331613Y-57635000D01*
X-14431963Y-57635000D01*
X-14228493Y-57614960D01*
X-13967419Y-57535764D01*
X-13726812Y-57407157D01*
X-13515919Y-57234081D01*
X-13342843Y-57023188D01*
X-13214236Y-56782581D01*
X-13135040Y-56521507D01*
X-13108299Y-56250000D01*
X-2891701Y-56250000D01*
X-2864960Y-56521507D01*
X-2785764Y-56782581D01*
X-2657157Y-57023188D01*
X-2484081Y-57234081D01*
X-2273188Y-57407157D01*
X-2032581Y-57535764D01*
X-1771507Y-57614960D01*
X-1568037Y-57635000D01*
X-1468387Y-57635000D01*
X-1559774Y-57696063D01*
X-1703937Y-57840226D01*
X-1817205Y-58009744D01*
X-1895226Y-58198102D01*
X-1935000Y-58398061D01*
X-1935000Y-58601939D01*
X-1895226Y-58801898D01*
X-1817205Y-58990256D01*
X-1811157Y-58999308D01*
X-1890577Y-59183184D01*
X-1933351Y-59382523D01*
X-1936413Y-59586377D01*
X-1899647Y-59786912D01*
X-1824466Y-59976420D01*
X-1811344Y-60000972D01*
X-1817205Y-60009744D01*
X-1895226Y-60198102D01*
X-1935000Y-60398061D01*
X-1935000Y-60601939D01*
X-1895226Y-60801898D01*
X-1817205Y-60990256D01*
X-1810694Y-61000000D01*
X-1817205Y-61009744D01*
X-1895226Y-61198102D01*
X-1935000Y-61398061D01*
X-1935000Y-61601939D01*
X-1895226Y-61801898D01*
X-1817205Y-61990256D01*
X-1811157Y-61999308D01*
X-1890577Y-62183184D01*
X-1933351Y-62382523D01*
X-1936413Y-62586377D01*
X-1899647Y-62786912D01*
X-1824466Y-62976420D01*
X-1811344Y-63000972D01*
X-1817205Y-63009744D01*
X-1895226Y-63198102D01*
X-1935000Y-63398061D01*
X-1935000Y-63601939D01*
X-1895226Y-63801898D01*
X-1817205Y-63990256D01*
X-1810694Y-64000000D01*
X-1817205Y-64009744D01*
X-1895226Y-64198102D01*
X-1935000Y-64398061D01*
X-1935000Y-64601939D01*
X-1895226Y-64801898D01*
X-1817205Y-64990256D01*
X-1811157Y-64999308D01*
X-1890577Y-65183184D01*
X-1933351Y-65382523D01*
X-1936413Y-65586377D01*
X-1899647Y-65786912D01*
X-1824466Y-65976420D01*
X-1811344Y-66000972D01*
X-1817205Y-66009744D01*
X-1895226Y-66198102D01*
X-1935000Y-66398061D01*
X-1935000Y-66601939D01*
X-1895226Y-66801898D01*
X-1817205Y-66990256D01*
X-1810694Y-67000000D01*
X-1817205Y-67009744D01*
X-1895226Y-67198102D01*
X-1935000Y-67398061D01*
X-1935000Y-67601939D01*
X-1895226Y-67801898D01*
X-1817205Y-67990256D01*
X-1703937Y-68159774D01*
X-1559774Y-68303937D01*
X-1468387Y-68365000D01*
X-1568037Y-68365000D01*
X-1771507Y-68385040D01*
X-2032581Y-68464236D01*
X-2273188Y-68592843D01*
X-2484081Y-68765919D01*
X-2657157Y-68976812D01*
X-2785764Y-69217419D01*
X-2864960Y-69478493D01*
X-2891701Y-69750000D01*
X-2864960Y-70021507D01*
X-2785764Y-70282581D01*
X-2657157Y-70523188D01*
X-2484081Y-70734081D01*
X-2273188Y-70907157D01*
X-2032581Y-71035764D01*
X-1771507Y-71114960D01*
X-1568037Y-71135000D01*
X1568037Y-71135000D01*
X1771507Y-71114960D01*
X2032581Y-71035764D01*
X2273188Y-70907157D01*
X2484081Y-70734081D01*
X2657157Y-70523188D01*
X2785764Y-70282581D01*
X2864960Y-70021507D01*
X2891701Y-69750000D01*
X2864960Y-69478493D01*
X2785764Y-69217419D01*
X2657157Y-68976812D01*
X2484081Y-68765919D01*
X2273188Y-68592843D01*
X2032581Y-68464236D01*
X1771507Y-68385040D01*
X1568037Y-68365000D01*
X-331613Y-68365000D01*
X-240226Y-68303937D01*
X-96063Y-68159774D01*
X17205Y-67990256D01*
X95226Y-67801898D01*
X114213Y-67706441D01*
X373164Y-67706441D01*
X396019Y-67909736D01*
X583184Y-67990577D01*
X782523Y-68033351D01*
X986377Y-68036413D01*
X1186912Y-67999647D01*
X1376420Y-67924466D01*
X1403981Y-67909736D01*
X1426836Y-67706441D01*
X900000Y-67179605D01*
X373164Y-67706441D01*
X114213Y-67706441D01*
X135000Y-67601939D01*
X135000Y-67520253D01*
X193559Y-67526836D01*
X704087Y-67016308D01*
X798061Y-67035000D01*
X1001939Y-67035000D01*
X1095913Y-67016308D01*
X1606441Y-67526836D01*
X1809736Y-67503981D01*
X1890577Y-67316816D01*
X1933351Y-67117477D01*
X1936413Y-66913623D01*
X1899647Y-66713088D01*
X1824466Y-66523580D01*
X1811344Y-66499028D01*
X1817205Y-66490256D01*
X1895226Y-66301898D01*
X1935000Y-66101939D01*
X1935000Y-65898061D01*
X1895226Y-65698102D01*
X1817205Y-65509744D01*
X1810694Y-65500000D01*
X1817205Y-65490256D01*
X1895226Y-65301898D01*
X1935000Y-65101939D01*
X1935000Y-64898061D01*
X1895226Y-64698102D01*
X1817205Y-64509744D01*
X1811157Y-64500692D01*
X1890577Y-64316816D01*
X1933351Y-64117477D01*
X1936413Y-63913623D01*
X1899647Y-63713088D01*
X1824466Y-63523580D01*
X1811344Y-63499028D01*
X1817205Y-63490256D01*
X1895226Y-63301898D01*
X1935000Y-63101939D01*
X1935000Y-62898061D01*
X1895226Y-62698102D01*
X1817205Y-62509744D01*
X1810694Y-62500000D01*
X1817205Y-62490256D01*
X1895226Y-62301898D01*
X1935000Y-62101939D01*
X1935000Y-61898061D01*
X1895226Y-61698102D01*
X1817205Y-61509744D01*
X1810694Y-61500000D01*
X1817205Y-61490256D01*
X1895226Y-61301898D01*
X1935000Y-61101939D01*
X1935000Y-60898061D01*
X1895226Y-60698102D01*
X1817205Y-60509744D01*
X1810694Y-60500000D01*
X1817205Y-60490256D01*
X1895226Y-60301898D01*
X1935000Y-60101939D01*
X1935000Y-59898061D01*
X1895226Y-59698102D01*
X1817205Y-59509744D01*
X1810694Y-59500000D01*
X1817205Y-59490256D01*
X1895226Y-59301898D01*
X1935000Y-59101939D01*
X1935000Y-58898061D01*
X1895226Y-58698102D01*
X1817205Y-58509744D01*
X1703937Y-58340226D01*
X1559774Y-58196063D01*
X1390256Y-58082795D01*
X1201898Y-58004774D01*
X1001939Y-57965000D01*
X798061Y-57965000D01*
X598102Y-58004774D01*
X409744Y-58082795D01*
X240226Y-58196063D01*
X118945Y-58317344D01*
X95226Y-58198102D01*
X17205Y-58009744D01*
X-96063Y-57840226D01*
X-240226Y-57696063D01*
X-331613Y-57635000D01*
X1568037Y-57635000D01*
X1771507Y-57614960D01*
X2032581Y-57535764D01*
X2273188Y-57407157D01*
X2484081Y-57234081D01*
X2657157Y-57023188D01*
X2785764Y-56782581D01*
X2864960Y-56521507D01*
X2891701Y-56250000D01*
X13108299Y-56250000D01*
X13135040Y-56521507D01*
X13214236Y-56782581D01*
X13342843Y-57023188D01*
X13515919Y-57234081D01*
X13726812Y-57407157D01*
X13967419Y-57535764D01*
X14228493Y-57614960D01*
X14431963Y-57635000D01*
X14531613Y-57635000D01*
X14440226Y-57696063D01*
X14296063Y-57840226D01*
X14182795Y-58009744D01*
X14104774Y-58198102D01*
X14065000Y-58398061D01*
X14065000Y-58601939D01*
X14104774Y-58801898D01*
X14182795Y-58990256D01*
X14188843Y-58999308D01*
X14109423Y-59183184D01*
X14066649Y-59382523D01*
X14063587Y-59586377D01*
X14100353Y-59786912D01*
X14175534Y-59976420D01*
X14188656Y-60000972D01*
X14182795Y-60009744D01*
X14104774Y-60198102D01*
X14065000Y-60398061D01*
X14065000Y-60601939D01*
X14104774Y-60801898D01*
X14182795Y-60990256D01*
X14189306Y-61000000D01*
X14182795Y-61009744D01*
X14104774Y-61198102D01*
X14065000Y-61398061D01*
X14065000Y-61601939D01*
X14104774Y-61801898D01*
X14182795Y-61990256D01*
X14188843Y-61999308D01*
X14109423Y-62183184D01*
X14066649Y-62382523D01*
X14063587Y-62586377D01*
X14100353Y-62786912D01*
X14175534Y-62976420D01*
X14188656Y-63000972D01*
X14182795Y-63009744D01*
X14104774Y-63198102D01*
X14065000Y-63398061D01*
X14065000Y-63601939D01*
X14104774Y-63801898D01*
X14182795Y-63990256D01*
X14189306Y-64000000D01*
X14182795Y-64009744D01*
X14104774Y-64198102D01*
X14065000Y-64398061D01*
X14065000Y-64601939D01*
X14104774Y-64801898D01*
X14182795Y-64990256D01*
X14188843Y-64999308D01*
X14109423Y-65183184D01*
X14066649Y-65382523D01*
X14063587Y-65586377D01*
X14100353Y-65786912D01*
X14175534Y-65976420D01*
X14188656Y-66000972D01*
X14182795Y-66009744D01*
X14104774Y-66198102D01*
X14065000Y-66398061D01*
X14065000Y-66601939D01*
X14104774Y-66801898D01*
X14182795Y-66990256D01*
X14189306Y-67000000D01*
X14182795Y-67009744D01*
X14104774Y-67198102D01*
X14065000Y-67398061D01*
X14065000Y-67601939D01*
X14104774Y-67801898D01*
X14182795Y-67990256D01*
X14296063Y-68159774D01*
X14440226Y-68303937D01*
X14531613Y-68365000D01*
X14431963Y-68365000D01*
X14228493Y-68385040D01*
X13967419Y-68464236D01*
X13726812Y-68592843D01*
X13515919Y-68765919D01*
X13342843Y-68976812D01*
X13214236Y-69217419D01*
X13135040Y-69478493D01*
X13108299Y-69750000D01*
X13135040Y-70021507D01*
X13214236Y-70282581D01*
X13342843Y-70523188D01*
X13515919Y-70734081D01*
X13726812Y-70907157D01*
X13967419Y-71035764D01*
X14228493Y-71114960D01*
X14431963Y-71135000D01*
X17568037Y-71135000D01*
X17771507Y-71114960D01*
X18032581Y-71035764D01*
X18273188Y-70907157D01*
X18484081Y-70734081D01*
X18657157Y-70523188D01*
X18785764Y-70282581D01*
X18864960Y-70021507D01*
X18891701Y-69750000D01*
X18864960Y-69478493D01*
X18785764Y-69217419D01*
X18657157Y-68976812D01*
X18484081Y-68765919D01*
X18273188Y-68592843D01*
X18032581Y-68464236D01*
X17771507Y-68385040D01*
X17568037Y-68365000D01*
X15668387Y-68365000D01*
X15759774Y-68303937D01*
X15903937Y-68159774D01*
X16017205Y-67990256D01*
X16095226Y-67801898D01*
X16114213Y-67706441D01*
X16373164Y-67706441D01*
X16396019Y-67909736D01*
X16583184Y-67990577D01*
X16782523Y-68033351D01*
X16986377Y-68036413D01*
X17186912Y-67999647D01*
X17376420Y-67924466D01*
X17403981Y-67909736D01*
X17426836Y-67706441D01*
X16900000Y-67179605D01*
X16373164Y-67706441D01*
X16114213Y-67706441D01*
X16135000Y-67601939D01*
X16135000Y-67520253D01*
X16193559Y-67526836D01*
X16704087Y-67016308D01*
X16798061Y-67035000D01*
X17001939Y-67035000D01*
X17095913Y-67016308D01*
X17606441Y-67526836D01*
X17809736Y-67503981D01*
X17890577Y-67316816D01*
X17933351Y-67117477D01*
X17936413Y-66913623D01*
X17899647Y-66713088D01*
X17824466Y-66523580D01*
X17811344Y-66499028D01*
X17817205Y-66490256D01*
X17895226Y-66301898D01*
X17935000Y-66101939D01*
X17935000Y-65898061D01*
X17895226Y-65698102D01*
X17817205Y-65509744D01*
X17810694Y-65500000D01*
X17817205Y-65490256D01*
X17895226Y-65301898D01*
X17935000Y-65101939D01*
X17935000Y-64898061D01*
X17895226Y-64698102D01*
X17817205Y-64509744D01*
X17811157Y-64500692D01*
X17890577Y-64316816D01*
X17933351Y-64117477D01*
X17936413Y-63913623D01*
X17899647Y-63713088D01*
X17824466Y-63523580D01*
X17811344Y-63499028D01*
X17817205Y-63490256D01*
X17895226Y-63301898D01*
X17935000Y-63101939D01*
X17935000Y-62898061D01*
X17895226Y-62698102D01*
X17817205Y-62509744D01*
X17810694Y-62500000D01*
X17817205Y-62490256D01*
X17895226Y-62301898D01*
X17935000Y-62101939D01*
X17935000Y-61898061D01*
X17895226Y-61698102D01*
X17817205Y-61509744D01*
X17810694Y-61500000D01*
X17817205Y-61490256D01*
X17895226Y-61301898D01*
X17935000Y-61101939D01*
X17935000Y-60898061D01*
X17895226Y-60698102D01*
X17817205Y-60509744D01*
X17810694Y-60500000D01*
X17817205Y-60490256D01*
X17895226Y-60301898D01*
X17935000Y-60101939D01*
X17935000Y-59898061D01*
X17895226Y-59698102D01*
X17817205Y-59509744D01*
X17810694Y-59500000D01*
X17817205Y-59490256D01*
X17895226Y-59301898D01*
X17935000Y-59101939D01*
X17935000Y-58898061D01*
X17895226Y-58698102D01*
X17817205Y-58509744D01*
X17703937Y-58340226D01*
X17559774Y-58196063D01*
X17390256Y-58082795D01*
X17201898Y-58004774D01*
X17001939Y-57965000D01*
X16798061Y-57965000D01*
X16598102Y-58004774D01*
X16409744Y-58082795D01*
X16240226Y-58196063D01*
X16118945Y-58317344D01*
X16095226Y-58198102D01*
X16017205Y-58009744D01*
X15903937Y-57840226D01*
X15759774Y-57696063D01*
X15668387Y-57635000D01*
X17568037Y-57635000D01*
X17771507Y-57614960D01*
X18032581Y-57535764D01*
X18273188Y-57407157D01*
X18484081Y-57234081D01*
X18657157Y-57023188D01*
X18785764Y-56782581D01*
X18864960Y-56521507D01*
X18891701Y-56250000D01*
X18864960Y-55978493D01*
X18785764Y-55717419D01*
X18657157Y-55476812D01*
X18484081Y-55265919D01*
X18273188Y-55092843D01*
X18032581Y-54964236D01*
X17771507Y-54885040D01*
X17568037Y-54865000D01*
X14431963Y-54865000D01*
X14228493Y-54885040D01*
X13967419Y-54964236D01*
X13726812Y-55092843D01*
X13515919Y-55265919D01*
X13342843Y-55476812D01*
X13214236Y-55717419D01*
X13135040Y-55978493D01*
X13108299Y-56250000D01*
X2891701Y-56250000D01*
X2864960Y-55978493D01*
X2785764Y-55717419D01*
X2657157Y-55476812D01*
X2484081Y-55265919D01*
X2273188Y-55092843D01*
X2032581Y-54964236D01*
X1771507Y-54885040D01*
X1568037Y-54865000D01*
X-1568037Y-54865000D01*
X-1771507Y-54885040D01*
X-2032581Y-54964236D01*
X-2273188Y-55092843D01*
X-2484081Y-55265919D01*
X-2657157Y-55476812D01*
X-2785764Y-55717419D01*
X-2864960Y-55978493D01*
X-2891701Y-56250000D01*
X-13108299Y-56250000D01*
X-13135040Y-55978493D01*
X-13214236Y-55717419D01*
X-13342843Y-55476812D01*
X-13515919Y-55265919D01*
X-13726812Y-55092843D01*
X-13967419Y-54964236D01*
X-14228493Y-54885040D01*
X-14431963Y-54865000D01*
X-17568037Y-54865000D01*
X-17771507Y-54885040D01*
X-18032581Y-54964236D01*
X-18273188Y-55092843D01*
X-18484081Y-55265919D01*
X-18657157Y-55476812D01*
X-18785764Y-55717419D01*
X-18864960Y-55978493D01*
X-18891701Y-56250000D01*
X-44693747Y-56250000D01*
X-63383511Y-39144115D01*
X-21366538Y-39144115D01*
X-21062254Y-40211592D01*
X-20555562Y-41199195D01*
X-19865934Y-42068970D01*
X-19019872Y-42787493D01*
X-18049890Y-43327151D01*
X-16993264Y-43667206D01*
X-16806246Y-43704407D01*
X-15922259Y-43635177D01*
X-15922259Y-38260128D01*
X-15668259Y-38260128D01*
X-15668259Y-43635177D01*
X-14784272Y-43704407D01*
X-13716795Y-43400123D01*
X-12729192Y-42893431D01*
X-11859417Y-42203803D01*
X-11140894Y-41357741D01*
X-10601236Y-40387759D01*
X-10261181Y-39331133D01*
X-10223980Y-39144115D01*
X10223980Y-39144115D01*
X10528264Y-40211592D01*
X11034956Y-41199195D01*
X11724584Y-42068970D01*
X12570646Y-42787493D01*
X13540628Y-43327151D01*
X14597254Y-43667206D01*
X14784272Y-43704407D01*
X15668259Y-43635177D01*
X15668259Y-38260128D01*
X15922259Y-38260128D01*
X15922259Y-43635177D01*
X16806246Y-43704407D01*
X17873723Y-43400123D01*
X18861326Y-42893431D01*
X19731101Y-42203803D01*
X20449624Y-41357741D01*
X20989282Y-40387759D01*
X21329337Y-39331133D01*
X21366538Y-39144115D01*
X21297308Y-38260128D01*
X15922259Y-38260128D01*
X15668259Y-38260128D01*
X10293210Y-38260128D01*
X10223980Y-39144115D01*
X-10223980Y-39144115D01*
X-10293210Y-38260128D01*
X-15668259Y-38260128D01*
X-15922259Y-38260128D01*
X-21297308Y-38260128D01*
X-21366538Y-39144115D01*
X-63383511Y-39144115D01*
X-65592704Y-37122141D01*
X-21366538Y-37122141D01*
X-21297308Y-38006128D01*
X-15922259Y-38006128D01*
X-15922259Y-32631079D01*
X-15668259Y-32631079D01*
X-15668259Y-38006128D01*
X-10293210Y-38006128D01*
X-10223980Y-37122141D01*
X10223980Y-37122141D01*
X10293210Y-38006128D01*
X15668259Y-38006128D01*
X15668259Y-32631079D01*
X15922259Y-32631079D01*
X15922259Y-38006128D01*
X21297308Y-38006128D01*
X21366538Y-37122141D01*
X21062254Y-36054664D01*
X20555562Y-35067061D01*
X19865934Y-34197286D01*
X19019872Y-33478763D01*
X18049890Y-32939105D01*
X16993264Y-32599050D01*
X16806246Y-32561849D01*
X15922259Y-32631079D01*
X15668259Y-32631079D01*
X14784272Y-32561849D01*
X13716795Y-32866133D01*
X12729192Y-33372825D01*
X11859417Y-34062453D01*
X11140894Y-34908515D01*
X10601236Y-35878497D01*
X10261181Y-36935123D01*
X10223980Y-37122141D01*
X-10223980Y-37122141D01*
X-10528264Y-36054664D01*
X-11034956Y-35067061D01*
X-11724584Y-34197286D01*
X-12570646Y-33478763D01*
X-13540628Y-32939105D01*
X-14597254Y-32599050D01*
X-14784272Y-32561849D01*
X-15668259Y-32631079D01*
X-15922259Y-32631079D01*
X-16806246Y-32561849D01*
X-17873723Y-32866133D01*
X-18861326Y-33372825D01*
X-19731101Y-34062453D01*
X-20449624Y-34908515D01*
X-20989282Y-35878497D01*
X-21329337Y-36935123D01*
X-21366538Y-37122141D01*
X-65592704Y-37122141D01*
X-81340000Y-22709363D01*
X-81340000Y-14431964D01*
X-76135000Y-14431964D01*
X-76134999Y-17568037D01*
X-76114959Y-17771507D01*
X-76035763Y-18032581D01*
X-75907156Y-18273188D01*
X-75734080Y-18484081D01*
X-75523187Y-18657157D01*
X-75282580Y-18785764D01*
X-75021506Y-18864960D01*
X-74750000Y-18891701D01*
X-74478493Y-18864960D01*
X-74217419Y-18785764D01*
X-73976812Y-18657157D01*
X-73765919Y-18484081D01*
X-73592843Y-18273188D01*
X-73464236Y-18032581D01*
X-73385040Y-17771507D01*
X-73365000Y-17568037D01*
X-73365000Y-17468387D01*
X-73303937Y-17559774D01*
X-73159774Y-17703937D01*
X-72990256Y-17817205D01*
X-72801898Y-17895226D01*
X-72601939Y-17935000D01*
X-72398061Y-17935000D01*
X-72198102Y-17895226D01*
X-72009744Y-17817205D01*
X-72000692Y-17811157D01*
X-71816816Y-17890577D01*
X-71617477Y-17933351D01*
X-71413623Y-17936413D01*
X-71213088Y-17899647D01*
X-71023580Y-17824466D01*
X-70999028Y-17811344D01*
X-70990256Y-17817205D01*
X-70801898Y-17895226D01*
X-70601939Y-17935000D01*
X-70398061Y-17935000D01*
X-70198102Y-17895226D01*
X-70009744Y-17817205D01*
X-70000000Y-17810694D01*
X-69990256Y-17817205D01*
X-69801898Y-17895226D01*
X-69601939Y-17935000D01*
X-69398061Y-17935000D01*
X-69198102Y-17895226D01*
X-69009744Y-17817205D01*
X-69000692Y-17811157D01*
X-68816816Y-17890577D01*
X-68617477Y-17933351D01*
X-68413623Y-17936413D01*
X-68213088Y-17899647D01*
X-68023580Y-17824466D01*
X-67999028Y-17811344D01*
X-67990256Y-17817205D01*
X-67801898Y-17895226D01*
X-67601939Y-17935000D01*
X-67398061Y-17935000D01*
X-67198102Y-17895226D01*
X-67009744Y-17817205D01*
X-67000000Y-17810694D01*
X-66990256Y-17817205D01*
X-66801898Y-17895226D01*
X-66601939Y-17935000D01*
X-66398061Y-17935000D01*
X-66198102Y-17895226D01*
X-66009744Y-17817205D01*
X-66000692Y-17811157D01*
X-65816816Y-17890577D01*
X-65617477Y-17933351D01*
X-65413623Y-17936413D01*
X-65213088Y-17899647D01*
X-65023580Y-17824466D01*
X-64999028Y-17811344D01*
X-64990256Y-17817205D01*
X-64801898Y-17895226D01*
X-64601939Y-17935000D01*
X-64398061Y-17935000D01*
X-64198102Y-17895226D01*
X-64009744Y-17817205D01*
X-64000000Y-17810694D01*
X-63990256Y-17817205D01*
X-63801898Y-17895226D01*
X-63601939Y-17935000D01*
X-63398061Y-17935000D01*
X-63198102Y-17895226D01*
X-63009744Y-17817205D01*
X-62840226Y-17703937D01*
X-62696063Y-17559774D01*
X-62634999Y-17468385D01*
X-62634999Y-17568037D01*
X-62614959Y-17771507D01*
X-62535763Y-18032581D01*
X-62407156Y-18273188D01*
X-62234080Y-18484081D01*
X-62023187Y-18657157D01*
X-61782580Y-18785764D01*
X-61521506Y-18864960D01*
X-61250000Y-18891701D01*
X-60978493Y-18864960D01*
X-60717419Y-18785764D01*
X-60476812Y-18657157D01*
X-60265919Y-18484081D01*
X-60092843Y-18273188D01*
X-59964236Y-18032581D01*
X-59885040Y-17771507D01*
X-59865000Y-17568037D01*
X-59865000Y-16806246D01*
X-43704407Y-16806246D01*
X-43400123Y-17873723D01*
X-42893431Y-18861326D01*
X-42203803Y-19731101D01*
X-41357741Y-20449624D01*
X-40387759Y-20989282D01*
X-39331133Y-21329337D01*
X-39144115Y-21366538D01*
X-38260128Y-21297308D01*
X-38260128Y-15922259D01*
X-38006128Y-15922259D01*
X-38006128Y-21297308D01*
X-37122141Y-21366538D01*
X-36054664Y-21062254D01*
X-35067061Y-20555562D01*
X-34197286Y-19865934D01*
X-33478763Y-19019872D01*
X-32939105Y-18049890D01*
X-32599050Y-16993264D01*
X-32561849Y-16806246D01*
X32561849Y-16806246D01*
X32866133Y-17873723D01*
X33372825Y-18861326D01*
X34062453Y-19731101D01*
X34908515Y-20449624D01*
X35878497Y-20989282D01*
X36935123Y-21329337D01*
X37122141Y-21366538D01*
X38006128Y-21297308D01*
X38006128Y-15922259D01*
X38260128Y-15922259D01*
X38260128Y-21297308D01*
X39144115Y-21366538D01*
X40211592Y-21062254D01*
X41199195Y-20555562D01*
X42068970Y-19865934D01*
X42787493Y-19019872D01*
X43327151Y-18049890D01*
X43667206Y-16993264D01*
X43704407Y-16806246D01*
X43635177Y-15922259D01*
X38260128Y-15922259D01*
X38006128Y-15922259D01*
X32631079Y-15922259D01*
X32561849Y-16806246D01*
X-32561849Y-16806246D01*
X-32631079Y-15922259D01*
X-38006128Y-15922259D01*
X-38260128Y-15922259D01*
X-43635177Y-15922259D01*
X-43704407Y-16806246D01*
X-59865000Y-16806246D01*
X-59865000Y-14784272D01*
X-43704407Y-14784272D01*
X-43635177Y-15668259D01*
X-38260128Y-15668259D01*
X-38260128Y-10293210D01*
X-38006128Y-10293210D01*
X-38006128Y-15668259D01*
X-32631079Y-15668259D01*
X-32561849Y-14784272D01*
X32561849Y-14784272D01*
X32631079Y-15668259D01*
X38006128Y-15668259D01*
X38006128Y-10293210D01*
X38260128Y-10293210D01*
X38260128Y-15668259D01*
X43635177Y-15668259D01*
X43704407Y-14784272D01*
X43400123Y-13716795D01*
X42893431Y-12729192D01*
X42203803Y-11859417D01*
X41357741Y-11140894D01*
X40387759Y-10601236D01*
X39331133Y-10261181D01*
X39144115Y-10223980D01*
X38260128Y-10293210D01*
X38006128Y-10293210D01*
X37122141Y-10223980D01*
X36054664Y-10528264D01*
X35067061Y-11034956D01*
X34197286Y-11724584D01*
X33478763Y-12570646D01*
X32939105Y-13540628D01*
X32599050Y-14597254D01*
X32561849Y-14784272D01*
X-32561849Y-14784272D01*
X-32866133Y-13716795D01*
X-33372825Y-12729192D01*
X-34062453Y-11859417D01*
X-34781128Y-11249078D01*
X-14315000Y-11249078D01*
X-14315000Y-11650922D01*
X-14236604Y-12045046D01*
X-14082825Y-12416303D01*
X-13859572Y-12750424D01*
X-13575424Y-13034572D01*
X-13241303Y-13257825D01*
X-12870046Y-13411604D01*
X-12475922Y-13490000D01*
X-12074078Y-13490000D01*
X-11679954Y-13411604D01*
X-11308697Y-13257825D01*
X-10974576Y-13034572D01*
X-10690428Y-12750424D01*
X-10467175Y-12416303D01*
X-10313396Y-12045046D01*
X-10282984Y-11892152D01*
X-8715000Y-11892152D01*
X-8715000Y-12107848D01*
X-8672920Y-12319400D01*
X-8590376Y-12518677D01*
X-8470542Y-12698022D01*
X-8318022Y-12850542D01*
X-8138677Y-12970376D01*
X-7939400Y-13052920D01*
X-7727848Y-13095000D01*
X-7512152Y-13095000D01*
X-7300600Y-13052920D01*
X-7101323Y-12970376D01*
X-6985000Y-12892652D01*
X-6868677Y-12970376D01*
X-6669400Y-13052920D01*
X-6457848Y-13095000D01*
X-6242152Y-13095000D01*
X-6030600Y-13052920D01*
X-5831323Y-12970376D01*
X-5715000Y-12892652D01*
X-5598677Y-12970376D01*
X-5399400Y-13052920D01*
X-5187848Y-13095000D01*
X-4972152Y-13095000D01*
X-4760600Y-13052920D01*
X-4561323Y-12970376D01*
X-4445000Y-12892652D01*
X-4328677Y-12970376D01*
X-4129400Y-13052920D01*
X-3917848Y-13095000D01*
X-3702152Y-13095000D01*
X-3490600Y-13052920D01*
X-3291323Y-12970376D01*
X-3175000Y-12892652D01*
X-3058677Y-12970376D01*
X-2859400Y-13052920D01*
X-2647848Y-13095000D01*
X-2432152Y-13095000D01*
X-2220600Y-13052920D01*
X-2021323Y-12970376D01*
X-1905000Y-12892652D01*
X-1788677Y-12970376D01*
X-1589400Y-13052920D01*
X-1377848Y-13095000D01*
X-1162152Y-13095000D01*
X-950600Y-13052920D01*
X-751323Y-12970376D01*
X-635000Y-12892652D01*
X-518677Y-12970376D01*
X-319400Y-13052920D01*
X-107848Y-13095000D01*
X107848Y-13095000D01*
X319400Y-13052920D01*
X518677Y-12970376D01*
X635000Y-12892652D01*
X751323Y-12970376D01*
X950600Y-13052920D01*
X1162152Y-13095000D01*
X1377848Y-13095000D01*
X1589400Y-13052920D01*
X1788677Y-12970376D01*
X1905000Y-12892652D01*
X2021323Y-12970376D01*
X2220600Y-13052920D01*
X2432152Y-13095000D01*
X2647848Y-13095000D01*
X2859400Y-13052920D01*
X3058677Y-12970376D01*
X3175000Y-12892652D01*
X3291323Y-12970376D01*
X3490600Y-13052920D01*
X3702152Y-13095000D01*
X3917848Y-13095000D01*
X4129400Y-13052920D01*
X4328677Y-12970376D01*
X4445000Y-12892652D01*
X4561323Y-12970376D01*
X4760600Y-13052920D01*
X4972152Y-13095000D01*
X5187848Y-13095000D01*
X5399400Y-13052920D01*
X5598677Y-12970376D01*
X5715000Y-12892652D01*
X5831323Y-12970376D01*
X6030600Y-13052920D01*
X6242152Y-13095000D01*
X6457848Y-13095000D01*
X6669400Y-13052920D01*
X6868677Y-12970376D01*
X6985000Y-12892652D01*
X7101323Y-12970376D01*
X7300600Y-13052920D01*
X7512152Y-13095000D01*
X7727848Y-13095000D01*
X7939400Y-13052920D01*
X8138677Y-12970376D01*
X8318022Y-12850542D01*
X8470542Y-12698022D01*
X8590376Y-12518677D01*
X8672920Y-12319400D01*
X8715000Y-12107848D01*
X8715000Y-11892152D01*
X8672920Y-11680600D01*
X8590376Y-11481323D01*
X8470542Y-11301978D01*
X8417642Y-11249078D01*
X10235000Y-11249078D01*
X10235000Y-11650922D01*
X10313396Y-12045046D01*
X10467175Y-12416303D01*
X10690428Y-12750424D01*
X10974576Y-13034572D01*
X11308697Y-13257825D01*
X11679954Y-13411604D01*
X12074078Y-13490000D01*
X12475922Y-13490000D01*
X12870046Y-13411604D01*
X13241303Y-13257825D01*
X13575424Y-13034572D01*
X13859572Y-12750424D01*
X14082825Y-12416303D01*
X14236604Y-12045046D01*
X14315000Y-11650922D01*
X14315000Y-11249078D01*
X14236604Y-10854954D01*
X14082825Y-10483697D01*
X13859572Y-10149576D01*
X13575424Y-9865428D01*
X13241303Y-9642175D01*
X12870046Y-9488396D01*
X12475922Y-9410000D01*
X12074078Y-9410000D01*
X11679954Y-9488396D01*
X11308697Y-9642175D01*
X10974576Y-9865428D01*
X10690428Y-10149576D01*
X10467175Y-10483697D01*
X10313396Y-10854954D01*
X10235000Y-11249078D01*
X8417642Y-11249078D01*
X8318022Y-11149458D01*
X8138677Y-11029624D01*
X8080000Y-11005319D01*
X8080000Y-10792152D01*
X8037920Y-10580600D01*
X7955376Y-10381323D01*
X7835542Y-10201978D01*
X7683022Y-10049458D01*
X7503677Y-9929624D01*
X7304400Y-9847080D01*
X7092848Y-9805000D01*
X6877152Y-9805000D01*
X6665600Y-9847080D01*
X6466323Y-9929624D01*
X6350000Y-10007348D01*
X6233677Y-9929624D01*
X6034400Y-9847080D01*
X5822848Y-9805000D01*
X5607152Y-9805000D01*
X5395600Y-9847080D01*
X5196323Y-9929624D01*
X5080000Y-10007348D01*
X4963677Y-9929624D01*
X4764400Y-9847080D01*
X4552848Y-9805000D01*
X4337152Y-9805000D01*
X4125600Y-9847080D01*
X3926323Y-9929624D01*
X3810000Y-10007348D01*
X3693677Y-9929624D01*
X3494400Y-9847080D01*
X3282848Y-9805000D01*
X3067152Y-9805000D01*
X2855600Y-9847080D01*
X2656323Y-9929624D01*
X2540000Y-10007348D01*
X2423677Y-9929624D01*
X2224400Y-9847080D01*
X2012848Y-9805000D01*
X1797152Y-9805000D01*
X1585600Y-9847080D01*
X1386323Y-9929624D01*
X1270000Y-10007348D01*
X1153677Y-9929624D01*
X954400Y-9847080D01*
X742848Y-9805000D01*
X527152Y-9805000D01*
X315600Y-9847080D01*
X116323Y-9929624D01*
X0Y-10007348D01*
X-116323Y-9929624D01*
X-315600Y-9847080D01*
X-527152Y-9805000D01*
X-742848Y-9805000D01*
X-954400Y-9847080D01*
X-1153677Y-9929624D01*
X-1270000Y-10007348D01*
X-1386323Y-9929624D01*
X-1585600Y-9847080D01*
X-1797152Y-9805000D01*
X-2012848Y-9805000D01*
X-2224400Y-9847080D01*
X-2423677Y-9929624D01*
X-2540000Y-10007348D01*
X-2656323Y-9929624D01*
X-2855600Y-9847080D01*
X-3067152Y-9805000D01*
X-3282848Y-9805000D01*
X-3494400Y-9847080D01*
X-3693677Y-9929624D01*
X-3810000Y-10007348D01*
X-3926323Y-9929624D01*
X-4125600Y-9847080D01*
X-4337152Y-9805000D01*
X-4552848Y-9805000D01*
X-4764400Y-9847080D01*
X-4963677Y-9929624D01*
X-5080000Y-10007348D01*
X-5196323Y-9929624D01*
X-5395600Y-9847080D01*
X-5607152Y-9805000D01*
X-5822848Y-9805000D01*
X-6034400Y-9847080D01*
X-6233677Y-9929624D01*
X-6350000Y-10007348D01*
X-6466323Y-9929624D01*
X-6665600Y-9847080D01*
X-6877152Y-9805000D01*
X-7092848Y-9805000D01*
X-7304400Y-9847080D01*
X-7503677Y-9929624D01*
X-7683022Y-10049458D01*
X-7835542Y-10201978D01*
X-7955376Y-10381323D01*
X-8037920Y-10580600D01*
X-8080000Y-10792152D01*
X-8080000Y-11005319D01*
X-8138677Y-11029624D01*
X-8318022Y-11149458D01*
X-8470542Y-11301978D01*
X-8590376Y-11481323D01*
X-8672920Y-11680600D01*
X-8715000Y-11892152D01*
X-10282984Y-11892152D01*
X-10235000Y-11650922D01*
X-10235000Y-11249078D01*
X-10313396Y-10854954D01*
X-10467175Y-10483697D01*
X-10690428Y-10149576D01*
X-10974576Y-9865428D01*
X-11308697Y-9642175D01*
X-11679954Y-9488396D01*
X-12074078Y-9410000D01*
X-12475922Y-9410000D01*
X-12870046Y-9488396D01*
X-13241303Y-9642175D01*
X-13575424Y-9865428D01*
X-13859572Y-10149576D01*
X-14082825Y-10483697D01*
X-14236604Y-10854954D01*
X-14315000Y-11249078D01*
X-34781128Y-11249078D01*
X-34908515Y-11140894D01*
X-35878497Y-10601236D01*
X-36935123Y-10261181D01*
X-37122141Y-10223980D01*
X-38006128Y-10293210D01*
X-38260128Y-10293210D01*
X-39144115Y-10223980D01*
X-40211592Y-10528264D01*
X-41199195Y-11034956D01*
X-42068970Y-11724584D01*
X-42787493Y-12570646D01*
X-43327151Y-13540628D01*
X-43667206Y-14597254D01*
X-43704407Y-14784272D01*
X-59865000Y-14784272D01*
X-59865000Y-14431963D01*
X-59885040Y-14228493D01*
X-59964236Y-13967419D01*
X-60092843Y-13726812D01*
X-60265920Y-13515919D01*
X-60476813Y-13342843D01*
X-60717420Y-13214236D01*
X-60978494Y-13135040D01*
X-61250000Y-13108299D01*
X-61521507Y-13135040D01*
X-61782581Y-13214236D01*
X-62023188Y-13342843D01*
X-62234081Y-13515920D01*
X-62407157Y-13726813D01*
X-62535764Y-13967420D01*
X-62614960Y-14228494D01*
X-62635000Y-14431964D01*
X-62634999Y-16331614D01*
X-62696063Y-16240226D01*
X-62840226Y-16096063D01*
X-63009744Y-15982795D01*
X-63198102Y-15904774D01*
X-63398061Y-15865000D01*
X-63479747Y-15865000D01*
X-63473164Y-15806441D01*
X-63983692Y-15295913D01*
X-63965000Y-15201939D01*
X-63965000Y-15100000D01*
X-63820395Y-15100000D01*
X-63293559Y-15626836D01*
X-63090264Y-15603981D01*
X-63009423Y-15416816D01*
X-62966649Y-15217477D01*
X-62963587Y-15013623D01*
X-63000353Y-14813088D01*
X-63075534Y-14623580D01*
X-63090264Y-14596019D01*
X-63293559Y-14573164D01*
X-63820395Y-15100000D01*
X-63965000Y-15100000D01*
X-63965000Y-14998061D01*
X-63983692Y-14904087D01*
X-63473164Y-14393559D01*
X-63496019Y-14190264D01*
X-63683184Y-14109423D01*
X-63882523Y-14066649D01*
X-64086377Y-14063587D01*
X-64286912Y-14100353D01*
X-64476420Y-14175534D01*
X-64500972Y-14188656D01*
X-64509744Y-14182795D01*
X-64698102Y-14104774D01*
X-64898061Y-14065000D01*
X-65101939Y-14065000D01*
X-65301898Y-14104774D01*
X-65490256Y-14182795D01*
X-65500000Y-14189306D01*
X-65509744Y-14182795D01*
X-65698102Y-14104774D01*
X-65898061Y-14065000D01*
X-66101939Y-14065000D01*
X-66301898Y-14104774D01*
X-66490256Y-14182795D01*
X-66499308Y-14188843D01*
X-66683184Y-14109423D01*
X-66882523Y-14066649D01*
X-67086377Y-14063587D01*
X-67286912Y-14100353D01*
X-67476420Y-14175534D01*
X-67500972Y-14188656D01*
X-67509744Y-14182795D01*
X-67698102Y-14104774D01*
X-67898061Y-14065000D01*
X-68101939Y-14065000D01*
X-68301898Y-14104774D01*
X-68490256Y-14182795D01*
X-68500000Y-14189306D01*
X-68509744Y-14182795D01*
X-68698102Y-14104774D01*
X-68898061Y-14065000D01*
X-69101939Y-14065000D01*
X-69301898Y-14104774D01*
X-69490256Y-14182795D01*
X-69500000Y-14189306D01*
X-69509744Y-14182795D01*
X-69698102Y-14104774D01*
X-69898061Y-14065000D01*
X-70101939Y-14065000D01*
X-70301898Y-14104774D01*
X-70490256Y-14182795D01*
X-70500000Y-14189306D01*
X-70509744Y-14182795D01*
X-70698102Y-14104774D01*
X-70898061Y-14065000D01*
X-71101939Y-14065000D01*
X-71301898Y-14104774D01*
X-71490256Y-14182795D01*
X-71500000Y-14189306D01*
X-71509744Y-14182795D01*
X-71698102Y-14104774D01*
X-71898061Y-14065000D01*
X-72101939Y-14065000D01*
X-72301898Y-14104774D01*
X-72490256Y-14182795D01*
X-72659774Y-14296063D01*
X-72803937Y-14440226D01*
X-72917205Y-14609744D01*
X-72995226Y-14798102D01*
X-73035000Y-14998061D01*
X-73035000Y-15201939D01*
X-72995226Y-15401898D01*
X-72917205Y-15590256D01*
X-72803937Y-15759774D01*
X-72682656Y-15881055D01*
X-72801898Y-15904774D01*
X-72990256Y-15982795D01*
X-73159774Y-16096063D01*
X-73303937Y-16240226D01*
X-73365000Y-16331613D01*
X-73365000Y-14431963D01*
X-73385040Y-14228493D01*
X-73464236Y-13967419D01*
X-73592843Y-13726812D01*
X-73765920Y-13515919D01*
X-73976813Y-13342843D01*
X-74217420Y-13214236D01*
X-74478494Y-13135040D01*
X-74750000Y-13108299D01*
X-75021507Y-13135040D01*
X-75282581Y-13214236D01*
X-75523188Y-13342843D01*
X-75734081Y-13515920D01*
X-75907157Y-13726813D01*
X-76035764Y-13967420D01*
X-76114960Y-14228494D01*
X-76135000Y-14431964D01*
X-81340000Y-14431964D01*
X-81340000Y1568036D01*
X-76135000Y1568036D01*
X-76134999Y-1568037D01*
X-76114959Y-1771507D01*
X-76035763Y-2032581D01*
X-75907156Y-2273188D01*
X-75734080Y-2484081D01*
X-75523187Y-2657157D01*
X-75282580Y-2785764D01*
X-75021506Y-2864960D01*
X-74750000Y-2891701D01*
X-74478493Y-2864960D01*
X-74217419Y-2785764D01*
X-73976812Y-2657157D01*
X-73765919Y-2484081D01*
X-73592843Y-2273188D01*
X-73464236Y-2032581D01*
X-73385040Y-1771507D01*
X-73365000Y-1568037D01*
X-73365000Y-1468387D01*
X-73303937Y-1559774D01*
X-73159774Y-1703937D01*
X-72990256Y-1817205D01*
X-72801898Y-1895226D01*
X-72601939Y-1935000D01*
X-72398061Y-1935000D01*
X-72198102Y-1895226D01*
X-72009744Y-1817205D01*
X-72000692Y-1811157D01*
X-71816816Y-1890577D01*
X-71617477Y-1933351D01*
X-71413623Y-1936413D01*
X-71213088Y-1899647D01*
X-71023580Y-1824466D01*
X-70999028Y-1811344D01*
X-70990256Y-1817205D01*
X-70801898Y-1895226D01*
X-70601939Y-1935000D01*
X-70398061Y-1935000D01*
X-70198102Y-1895226D01*
X-70009744Y-1817205D01*
X-70000000Y-1810694D01*
X-69990256Y-1817205D01*
X-69801898Y-1895226D01*
X-69601939Y-1935000D01*
X-69398061Y-1935000D01*
X-69198102Y-1895226D01*
X-69009744Y-1817205D01*
X-69000692Y-1811157D01*
X-68816816Y-1890577D01*
X-68617477Y-1933351D01*
X-68413623Y-1936413D01*
X-68213088Y-1899647D01*
X-68023580Y-1824466D01*
X-67999028Y-1811344D01*
X-67990256Y-1817205D01*
X-67801898Y-1895226D01*
X-67601939Y-1935000D01*
X-67398061Y-1935000D01*
X-67198102Y-1895226D01*
X-67009744Y-1817205D01*
X-67000000Y-1810694D01*
X-66990256Y-1817205D01*
X-66801898Y-1895226D01*
X-66601939Y-1935000D01*
X-66398061Y-1935000D01*
X-66198102Y-1895226D01*
X-66009744Y-1817205D01*
X-66000692Y-1811157D01*
X-65816816Y-1890577D01*
X-65617477Y-1933351D01*
X-65413623Y-1936413D01*
X-65213088Y-1899647D01*
X-65023580Y-1824466D01*
X-64999028Y-1811344D01*
X-64990256Y-1817205D01*
X-64801898Y-1895226D01*
X-64601939Y-1935000D01*
X-64398061Y-1935000D01*
X-64198102Y-1895226D01*
X-64009744Y-1817205D01*
X-64000000Y-1810694D01*
X-63990256Y-1817205D01*
X-63801898Y-1895226D01*
X-63601939Y-1935000D01*
X-63398061Y-1935000D01*
X-63198102Y-1895226D01*
X-63009744Y-1817205D01*
X-62840226Y-1703937D01*
X-62696063Y-1559774D01*
X-62634999Y-1468385D01*
X-62634999Y-1568037D01*
X-62614959Y-1771507D01*
X-62535763Y-2032581D01*
X-62407156Y-2273188D01*
X-62234080Y-2484081D01*
X-62023187Y-2657157D01*
X-61782580Y-2785764D01*
X-61521506Y-2864960D01*
X-61250000Y-2891701D01*
X-60978493Y-2864960D01*
X-60717419Y-2785764D01*
X-60476812Y-2657157D01*
X-60265919Y-2484081D01*
X-60092843Y-2273188D01*
X-59964236Y-2032581D01*
X-59885040Y-1771507D01*
X-59865000Y-1568037D01*
X-59865000Y750922D01*
X-14315000Y750922D01*
X-14315000Y349078D01*
X-14236604Y-45046D01*
X-14082825Y-416303D01*
X-13859572Y-750424D01*
X-13575424Y-1034572D01*
X-13241303Y-1257825D01*
X-12870046Y-1411604D01*
X-12475922Y-1490000D01*
X-12074078Y-1490000D01*
X-11679954Y-1411604D01*
X-11308697Y-1257825D01*
X-10974576Y-1034572D01*
X-10690428Y-750424D01*
X-10467175Y-416303D01*
X-10313396Y-45046D01*
X-10282984Y107848D01*
X-8715000Y107848D01*
X-8715000Y-107848D01*
X-8672920Y-319400D01*
X-8590376Y-518677D01*
X-8470542Y-698022D01*
X-8318022Y-850542D01*
X-8138677Y-970376D01*
X-7939400Y-1052920D01*
X-7727848Y-1095000D01*
X-7512152Y-1095000D01*
X-7300600Y-1052920D01*
X-7101323Y-970376D01*
X-6985000Y-892652D01*
X-6868677Y-970376D01*
X-6669400Y-1052920D01*
X-6457848Y-1095000D01*
X-6242152Y-1095000D01*
X-6030600Y-1052920D01*
X-5831323Y-970376D01*
X-5715000Y-892652D01*
X-5598677Y-970376D01*
X-5399400Y-1052920D01*
X-5187848Y-1095000D01*
X-4972152Y-1095000D01*
X-4760600Y-1052920D01*
X-4561323Y-970376D01*
X-4445000Y-892652D01*
X-4328677Y-970376D01*
X-4129400Y-1052920D01*
X-3917848Y-1095000D01*
X-3702152Y-1095000D01*
X-3490600Y-1052920D01*
X-3291323Y-970376D01*
X-3175000Y-892652D01*
X-3058677Y-970376D01*
X-2859400Y-1052920D01*
X-2647848Y-1095000D01*
X-2432152Y-1095000D01*
X-2220600Y-1052920D01*
X-2021323Y-970376D01*
X-1905000Y-892652D01*
X-1788677Y-970376D01*
X-1589400Y-1052920D01*
X-1377848Y-1095000D01*
X-1162152Y-1095000D01*
X-950600Y-1052920D01*
X-751323Y-970376D01*
X-635000Y-892652D01*
X-518677Y-970376D01*
X-319400Y-1052920D01*
X-107848Y-1095000D01*
X107848Y-1095000D01*
X319400Y-1052920D01*
X518677Y-970376D01*
X635000Y-892652D01*
X751323Y-970376D01*
X950600Y-1052920D01*
X1162152Y-1095000D01*
X1377848Y-1095000D01*
X1589400Y-1052920D01*
X1788677Y-970376D01*
X1905000Y-892652D01*
X2021323Y-970376D01*
X2220600Y-1052920D01*
X2432152Y-1095000D01*
X2647848Y-1095000D01*
X2859400Y-1052920D01*
X3058677Y-970376D01*
X3175000Y-892652D01*
X3291323Y-970376D01*
X3490600Y-1052920D01*
X3702152Y-1095000D01*
X3917848Y-1095000D01*
X4129400Y-1052920D01*
X4328677Y-970376D01*
X4445000Y-892652D01*
X4561323Y-970376D01*
X4760600Y-1052920D01*
X4972152Y-1095000D01*
X5187848Y-1095000D01*
X5399400Y-1052920D01*
X5598677Y-970376D01*
X5715000Y-892652D01*
X5831323Y-970376D01*
X6030600Y-1052920D01*
X6242152Y-1095000D01*
X6457848Y-1095000D01*
X6669400Y-1052920D01*
X6868677Y-970376D01*
X6985000Y-892652D01*
X7101323Y-970376D01*
X7300600Y-1052920D01*
X7512152Y-1095000D01*
X7727848Y-1095000D01*
X7939400Y-1052920D01*
X8138677Y-970376D01*
X8318022Y-850542D01*
X8470542Y-698022D01*
X8590376Y-518677D01*
X8672920Y-319400D01*
X8715000Y-107848D01*
X8715000Y107848D01*
X8672920Y319400D01*
X8590376Y518677D01*
X8470542Y698022D01*
X8417642Y750922D01*
X10235000Y750922D01*
X10235000Y349078D01*
X10313396Y-45046D01*
X10467175Y-416303D01*
X10690428Y-750424D01*
X10974576Y-1034572D01*
X11308697Y-1257825D01*
X11679954Y-1411604D01*
X12074078Y-1490000D01*
X12475922Y-1490000D01*
X12870046Y-1411604D01*
X13241303Y-1257825D01*
X13575424Y-1034572D01*
X13859572Y-750424D01*
X14082825Y-416303D01*
X14236604Y-45046D01*
X14315000Y349078D01*
X14315000Y750922D01*
X14236604Y1145046D01*
X14082825Y1516303D01*
X13859572Y1850424D01*
X13575424Y2134572D01*
X13241303Y2357825D01*
X12870046Y2511604D01*
X12475922Y2590000D01*
X12074078Y2590000D01*
X11679954Y2511604D01*
X11308697Y2357825D01*
X10974576Y2134572D01*
X10690428Y1850424D01*
X10467175Y1516303D01*
X10313396Y1145046D01*
X10235000Y750922D01*
X8417642Y750922D01*
X8318022Y850542D01*
X8138677Y970376D01*
X8080000Y994681D01*
X8080000Y1207848D01*
X8037920Y1419400D01*
X7955376Y1618677D01*
X7835542Y1798022D01*
X7683022Y1950542D01*
X7503677Y2070376D01*
X7304400Y2152920D01*
X7092848Y2195000D01*
X6877152Y2195000D01*
X6665600Y2152920D01*
X6466323Y2070376D01*
X6350000Y1992652D01*
X6233677Y2070376D01*
X6034400Y2152920D01*
X5822848Y2195000D01*
X5607152Y2195000D01*
X5395600Y2152920D01*
X5196323Y2070376D01*
X5080000Y1992652D01*
X4963677Y2070376D01*
X4764400Y2152920D01*
X4552848Y2195000D01*
X4337152Y2195000D01*
X4125600Y2152920D01*
X3926323Y2070376D01*
X3810000Y1992652D01*
X3693677Y2070376D01*
X3494400Y2152920D01*
X3282848Y2195000D01*
X3067152Y2195000D01*
X2855600Y2152920D01*
X2656323Y2070376D01*
X2540000Y1992652D01*
X2423677Y2070376D01*
X2224400Y2152920D01*
X2012848Y2195000D01*
X1797152Y2195000D01*
X1585600Y2152920D01*
X1386323Y2070376D01*
X1270000Y1992652D01*
X1153677Y2070376D01*
X954400Y2152920D01*
X742848Y2195000D01*
X527152Y2195000D01*
X315600Y2152920D01*
X116323Y2070376D01*
X0Y1992652D01*
X-116323Y2070376D01*
X-315600Y2152920D01*
X-527152Y2195000D01*
X-742848Y2195000D01*
X-954400Y2152920D01*
X-1153677Y2070376D01*
X-1270000Y1992652D01*
X-1386323Y2070376D01*
X-1585600Y2152920D01*
X-1797152Y2195000D01*
X-2012848Y2195000D01*
X-2224400Y2152920D01*
X-2423677Y2070376D01*
X-2540000Y1992652D01*
X-2656323Y2070376D01*
X-2855600Y2152920D01*
X-3067152Y2195000D01*
X-3282848Y2195000D01*
X-3494400Y2152920D01*
X-3693677Y2070376D01*
X-3810000Y1992652D01*
X-3926323Y2070376D01*
X-4125600Y2152920D01*
X-4337152Y2195000D01*
X-4552848Y2195000D01*
X-4764400Y2152920D01*
X-4963677Y2070376D01*
X-5080000Y1992652D01*
X-5196323Y2070376D01*
X-5395600Y2152920D01*
X-5607152Y2195000D01*
X-5822848Y2195000D01*
X-6034400Y2152920D01*
X-6233677Y2070376D01*
X-6350000Y1992652D01*
X-6466323Y2070376D01*
X-6665600Y2152920D01*
X-6877152Y2195000D01*
X-7092848Y2195000D01*
X-7304400Y2152920D01*
X-7503677Y2070376D01*
X-7683022Y1950542D01*
X-7835542Y1798022D01*
X-7955376Y1618677D01*
X-8037920Y1419400D01*
X-8080000Y1207848D01*
X-8080000Y994681D01*
X-8138677Y970376D01*
X-8318022Y850542D01*
X-8470542Y698022D01*
X-8590376Y518677D01*
X-8672920Y319400D01*
X-8715000Y107848D01*
X-10282984Y107848D01*
X-10235000Y349078D01*
X-10235000Y750922D01*
X-10313396Y1145046D01*
X-10467175Y1516303D01*
X-10690428Y1850424D01*
X-10974576Y2134572D01*
X-11308697Y2357825D01*
X-11679954Y2511604D01*
X-12074078Y2590000D01*
X-12475922Y2590000D01*
X-12870046Y2511604D01*
X-13241303Y2357825D01*
X-13575424Y2134572D01*
X-13859572Y1850424D01*
X-14082825Y1516303D01*
X-14236604Y1145046D01*
X-14315000Y750922D01*
X-59865000Y750922D01*
X-59865000Y1568037D01*
X-59885040Y1771507D01*
X-59964236Y2032581D01*
X-60092843Y2273188D01*
X-60265920Y2484081D01*
X-60476813Y2657157D01*
X-60717420Y2785764D01*
X-60978494Y2864960D01*
X-61250000Y2891701D01*
X-61521507Y2864960D01*
X-61782581Y2785764D01*
X-62023188Y2657157D01*
X-62234081Y2484080D01*
X-62407157Y2273187D01*
X-62535764Y2032580D01*
X-62614960Y1771506D01*
X-62635000Y1568036D01*
X-62634999Y-331614D01*
X-62696063Y-240226D01*
X-62840226Y-96063D01*
X-63009744Y17205D01*
X-63198102Y95226D01*
X-63398061Y135000D01*
X-63479747Y135000D01*
X-63473164Y193559D01*
X-63983692Y704087D01*
X-63965000Y798061D01*
X-63965000Y900000D01*
X-63820395Y900000D01*
X-63293559Y373164D01*
X-63090264Y396019D01*
X-63009423Y583184D01*
X-62966649Y782523D01*
X-62963587Y986377D01*
X-63000353Y1186912D01*
X-63075534Y1376420D01*
X-63090264Y1403981D01*
X-63293559Y1426836D01*
X-63820395Y900000D01*
X-63965000Y900000D01*
X-63965000Y1001939D01*
X-63983692Y1095913D01*
X-63473164Y1606441D01*
X-63496019Y1809736D01*
X-63683184Y1890577D01*
X-63882523Y1933351D01*
X-64086377Y1936413D01*
X-64286912Y1899647D01*
X-64476420Y1824466D01*
X-64500972Y1811344D01*
X-64509744Y1817205D01*
X-64698102Y1895226D01*
X-64898061Y1935000D01*
X-65101939Y1935000D01*
X-65301898Y1895226D01*
X-65490256Y1817205D01*
X-65500000Y1810694D01*
X-65509744Y1817205D01*
X-65698102Y1895226D01*
X-65898061Y1935000D01*
X-66101939Y1935000D01*
X-66301898Y1895226D01*
X-66490256Y1817205D01*
X-66499308Y1811157D01*
X-66683184Y1890577D01*
X-66882523Y1933351D01*
X-67086377Y1936413D01*
X-67286912Y1899647D01*
X-67476420Y1824466D01*
X-67500972Y1811344D01*
X-67509744Y1817205D01*
X-67698102Y1895226D01*
X-67898061Y1935000D01*
X-68101939Y1935000D01*
X-68301898Y1895226D01*
X-68490256Y1817205D01*
X-68500000Y1810694D01*
X-68509744Y1817205D01*
X-68698102Y1895226D01*
X-68898061Y1935000D01*
X-69101939Y1935000D01*
X-69301898Y1895226D01*
X-69490256Y1817205D01*
X-69500000Y1810694D01*
X-69509744Y1817205D01*
X-69698102Y1895226D01*
X-69898061Y1935000D01*
X-70101939Y1935000D01*
X-70301898Y1895226D01*
X-70490256Y1817205D01*
X-70500000Y1810694D01*
X-70509744Y1817205D01*
X-70698102Y1895226D01*
X-70898061Y1935000D01*
X-71101939Y1935000D01*
X-71301898Y1895226D01*
X-71490256Y1817205D01*
X-71500000Y1810694D01*
X-71509744Y1817205D01*
X-71698102Y1895226D01*
X-71898061Y1935000D01*
X-72101939Y1935000D01*
X-72301898Y1895226D01*
X-72490256Y1817205D01*
X-72659774Y1703937D01*
X-72803937Y1559774D01*
X-72917205Y1390256D01*
X-72995226Y1201898D01*
X-73035000Y1001939D01*
X-73035000Y798061D01*
X-72995226Y598102D01*
X-72917205Y409744D01*
X-72803937Y240226D01*
X-72682656Y118945D01*
X-72801898Y95226D01*
X-72990256Y17205D01*
X-73159774Y-96063D01*
X-73303937Y-240226D01*
X-73365000Y-331613D01*
X-73365000Y1568037D01*
X-73385040Y1771507D01*
X-73464236Y2032581D01*
X-73592843Y2273188D01*
X-73765920Y2484081D01*
X-73976813Y2657157D01*
X-74217420Y2785764D01*
X-74478494Y2864960D01*
X-74750000Y2891701D01*
X-75021507Y2864960D01*
X-75282581Y2785764D01*
X-75523188Y2657157D01*
X-75734081Y2484080D01*
X-75907157Y2273187D01*
X-76035764Y2032580D01*
X-76114960Y1771506D01*
X-76135000Y1568036D01*
X-81340000Y1568036D01*
X-81340000Y17568036D01*
X-76135000Y17568036D01*
X-76134999Y14431963D01*
X-76114959Y14228493D01*
X-76035763Y13967419D01*
X-75907156Y13726812D01*
X-75734080Y13515919D01*
X-75523187Y13342843D01*
X-75282580Y13214236D01*
X-75021506Y13135040D01*
X-74750000Y13108299D01*
X-74478493Y13135040D01*
X-74217419Y13214236D01*
X-73976812Y13342843D01*
X-73765919Y13515919D01*
X-73592843Y13726812D01*
X-73464236Y13967419D01*
X-73385040Y14228493D01*
X-73365000Y14431963D01*
X-73365000Y14531613D01*
X-73303937Y14440226D01*
X-73159774Y14296063D01*
X-72990256Y14182795D01*
X-72801898Y14104774D01*
X-72601939Y14065000D01*
X-72398061Y14065000D01*
X-72198102Y14104774D01*
X-72009744Y14182795D01*
X-72000692Y14188843D01*
X-71816816Y14109423D01*
X-71617477Y14066649D01*
X-71413623Y14063587D01*
X-71213088Y14100353D01*
X-71023580Y14175534D01*
X-70999028Y14188656D01*
X-70990256Y14182795D01*
X-70801898Y14104774D01*
X-70601939Y14065000D01*
X-70398061Y14065000D01*
X-70198102Y14104774D01*
X-70009744Y14182795D01*
X-70000000Y14189306D01*
X-69990256Y14182795D01*
X-69801898Y14104774D01*
X-69601939Y14065000D01*
X-69398061Y14065000D01*
X-69198102Y14104774D01*
X-69009744Y14182795D01*
X-69000692Y14188843D01*
X-68816816Y14109423D01*
X-68617477Y14066649D01*
X-68413623Y14063587D01*
X-68213088Y14100353D01*
X-68023580Y14175534D01*
X-67999028Y14188656D01*
X-67990256Y14182795D01*
X-67801898Y14104774D01*
X-67601939Y14065000D01*
X-67398061Y14065000D01*
X-67198102Y14104774D01*
X-67009744Y14182795D01*
X-67000000Y14189306D01*
X-66990256Y14182795D01*
X-66801898Y14104774D01*
X-66601939Y14065000D01*
X-66398061Y14065000D01*
X-66198102Y14104774D01*
X-66009744Y14182795D01*
X-66000692Y14188843D01*
X-65816816Y14109423D01*
X-65617477Y14066649D01*
X-65413623Y14063587D01*
X-65213088Y14100353D01*
X-65023580Y14175534D01*
X-64999028Y14188656D01*
X-64990256Y14182795D01*
X-64801898Y14104774D01*
X-64601939Y14065000D01*
X-64398061Y14065000D01*
X-64198102Y14104774D01*
X-64009744Y14182795D01*
X-64000000Y14189306D01*
X-63990256Y14182795D01*
X-63801898Y14104774D01*
X-63601939Y14065000D01*
X-63398061Y14065000D01*
X-63198102Y14104774D01*
X-63009744Y14182795D01*
X-62840226Y14296063D01*
X-62696063Y14440226D01*
X-62634999Y14531615D01*
X-62634999Y14431963D01*
X-62614959Y14228493D01*
X-62535763Y13967419D01*
X-62407156Y13726812D01*
X-62234080Y13515919D01*
X-62023187Y13342843D01*
X-61782580Y13214236D01*
X-61521506Y13135040D01*
X-61250000Y13108299D01*
X-60978493Y13135040D01*
X-60717419Y13214236D01*
X-60476812Y13342843D01*
X-60265919Y13515919D01*
X-60092843Y13726812D01*
X-59964236Y13967419D01*
X-59885040Y14228493D01*
X-59865000Y14431963D01*
X-59865000Y14784272D01*
X-43704407Y14784272D01*
X-43400123Y13716795D01*
X-42893431Y12729192D01*
X-42203803Y11859417D01*
X-41357741Y11140894D01*
X-40387759Y10601236D01*
X-39331133Y10261181D01*
X-39144115Y10223980D01*
X-38260128Y10293210D01*
X-38260128Y15668259D01*
X-38006128Y15668259D01*
X-38006128Y10293210D01*
X-37122141Y10223980D01*
X-36054664Y10528264D01*
X-35067061Y11034956D01*
X-34197286Y11724584D01*
X-33478763Y12570646D01*
X-33378465Y12750922D01*
X-14315000Y12750922D01*
X-14315000Y12349078D01*
X-14236604Y11954954D01*
X-14082825Y11583697D01*
X-13859572Y11249576D01*
X-13575424Y10965428D01*
X-13241303Y10742175D01*
X-12870046Y10588396D01*
X-12475922Y10510000D01*
X-12074078Y10510000D01*
X-11679954Y10588396D01*
X-11308697Y10742175D01*
X-10974576Y10965428D01*
X-10690428Y11249576D01*
X-10467175Y11583697D01*
X-10313396Y11954954D01*
X-10282984Y12107848D01*
X-8715000Y12107848D01*
X-8715000Y11892152D01*
X-8672920Y11680600D01*
X-8590376Y11481323D01*
X-8470542Y11301978D01*
X-8318022Y11149458D01*
X-8138677Y11029624D01*
X-7939400Y10947080D01*
X-7727848Y10905000D01*
X-7512152Y10905000D01*
X-7300600Y10947080D01*
X-7101323Y11029624D01*
X-6985000Y11107348D01*
X-6868677Y11029624D01*
X-6669400Y10947080D01*
X-6457848Y10905000D01*
X-6242152Y10905000D01*
X-6030600Y10947080D01*
X-5831323Y11029624D01*
X-5715000Y11107348D01*
X-5598677Y11029624D01*
X-5399400Y10947080D01*
X-5187848Y10905000D01*
X-4972152Y10905000D01*
X-4760600Y10947080D01*
X-4561323Y11029624D01*
X-4445000Y11107348D01*
X-4328677Y11029624D01*
X-4129400Y10947080D01*
X-3917848Y10905000D01*
X-3702152Y10905000D01*
X-3490600Y10947080D01*
X-3291323Y11029624D01*
X-3175000Y11107348D01*
X-3058677Y11029624D01*
X-2859400Y10947080D01*
X-2647848Y10905000D01*
X-2432152Y10905000D01*
X-2220600Y10947080D01*
X-2021323Y11029624D01*
X-1905000Y11107348D01*
X-1788677Y11029624D01*
X-1589400Y10947080D01*
X-1377848Y10905000D01*
X-1162152Y10905000D01*
X-950600Y10947080D01*
X-751323Y11029624D01*
X-635000Y11107348D01*
X-518677Y11029624D01*
X-319400Y10947080D01*
X-107848Y10905000D01*
X107848Y10905000D01*
X319400Y10947080D01*
X518677Y11029624D01*
X635000Y11107348D01*
X751323Y11029624D01*
X950600Y10947080D01*
X1162152Y10905000D01*
X1377848Y10905000D01*
X1589400Y10947080D01*
X1788677Y11029624D01*
X1905000Y11107348D01*
X2021323Y11029624D01*
X2220600Y10947080D01*
X2432152Y10905000D01*
X2647848Y10905000D01*
X2859400Y10947080D01*
X3058677Y11029624D01*
X3175000Y11107348D01*
X3291323Y11029624D01*
X3490600Y10947080D01*
X3702152Y10905000D01*
X3917848Y10905000D01*
X4129400Y10947080D01*
X4328677Y11029624D01*
X4445000Y11107348D01*
X4561323Y11029624D01*
X4760600Y10947080D01*
X4972152Y10905000D01*
X5187848Y10905000D01*
X5399400Y10947080D01*
X5598677Y11029624D01*
X5715000Y11107348D01*
X5831323Y11029624D01*
X6030600Y10947080D01*
X6242152Y10905000D01*
X6457848Y10905000D01*
X6669400Y10947080D01*
X6868677Y11029624D01*
X6985000Y11107348D01*
X7101323Y11029624D01*
X7300600Y10947080D01*
X7512152Y10905000D01*
X7727848Y10905000D01*
X7939400Y10947080D01*
X8138677Y11029624D01*
X8318022Y11149458D01*
X8470542Y11301978D01*
X8590376Y11481323D01*
X8672920Y11680600D01*
X8715000Y11892152D01*
X8715000Y12107848D01*
X8672920Y12319400D01*
X8590376Y12518677D01*
X8470542Y12698022D01*
X8417642Y12750922D01*
X10235000Y12750922D01*
X10235000Y12349078D01*
X10313396Y11954954D01*
X10467175Y11583697D01*
X10690428Y11249576D01*
X10974576Y10965428D01*
X11308697Y10742175D01*
X11679954Y10588396D01*
X12074078Y10510000D01*
X12475922Y10510000D01*
X12870046Y10588396D01*
X13241303Y10742175D01*
X13575424Y10965428D01*
X13859572Y11249576D01*
X14082825Y11583697D01*
X14236604Y11954954D01*
X14315000Y12349078D01*
X14315000Y12750922D01*
X14236604Y13145046D01*
X14082825Y13516303D01*
X13859572Y13850424D01*
X13575424Y14134572D01*
X13241303Y14357825D01*
X12870046Y14511604D01*
X12475922Y14590000D01*
X12074078Y14590000D01*
X11679954Y14511604D01*
X11308697Y14357825D01*
X10974576Y14134572D01*
X10690428Y13850424D01*
X10467175Y13516303D01*
X10313396Y13145046D01*
X10235000Y12750922D01*
X8417642Y12750922D01*
X8318022Y12850542D01*
X8138677Y12970376D01*
X8080000Y12994681D01*
X8080000Y13207848D01*
X8037920Y13419400D01*
X7955376Y13618677D01*
X7835542Y13798022D01*
X7683022Y13950542D01*
X7503677Y14070376D01*
X7304400Y14152920D01*
X7092848Y14195000D01*
X6877152Y14195000D01*
X6665600Y14152920D01*
X6466323Y14070376D01*
X6350000Y13992652D01*
X6233677Y14070376D01*
X6034400Y14152920D01*
X5822848Y14195000D01*
X5607152Y14195000D01*
X5395600Y14152920D01*
X5196323Y14070376D01*
X5080000Y13992652D01*
X4963677Y14070376D01*
X4764400Y14152920D01*
X4552848Y14195000D01*
X4337152Y14195000D01*
X4125600Y14152920D01*
X3926323Y14070376D01*
X3810000Y13992652D01*
X3693677Y14070376D01*
X3494400Y14152920D01*
X3282848Y14195000D01*
X3067152Y14195000D01*
X2855600Y14152920D01*
X2656323Y14070376D01*
X2540000Y13992652D01*
X2423677Y14070376D01*
X2224400Y14152920D01*
X2012848Y14195000D01*
X1797152Y14195000D01*
X1585600Y14152920D01*
X1386323Y14070376D01*
X1270000Y13992652D01*
X1153677Y14070376D01*
X954400Y14152920D01*
X742848Y14195000D01*
X527152Y14195000D01*
X315600Y14152920D01*
X116323Y14070376D01*
X0Y13992652D01*
X-116323Y14070376D01*
X-315600Y14152920D01*
X-527152Y14195000D01*
X-742848Y14195000D01*
X-954400Y14152920D01*
X-1153677Y14070376D01*
X-1270000Y13992652D01*
X-1386323Y14070376D01*
X-1585600Y14152920D01*
X-1797152Y14195000D01*
X-2012848Y14195000D01*
X-2224400Y14152920D01*
X-2423677Y14070376D01*
X-2540000Y13992652D01*
X-2656323Y14070376D01*
X-2855600Y14152920D01*
X-3067152Y14195000D01*
X-3282848Y14195000D01*
X-3494400Y14152920D01*
X-3693677Y14070376D01*
X-3810000Y13992652D01*
X-3926323Y14070376D01*
X-4125600Y14152920D01*
X-4337152Y14195000D01*
X-4552848Y14195000D01*
X-4764400Y14152920D01*
X-4963677Y14070376D01*
X-5080000Y13992652D01*
X-5196323Y14070376D01*
X-5395600Y14152920D01*
X-5607152Y14195000D01*
X-5822848Y14195000D01*
X-6034400Y14152920D01*
X-6233677Y14070376D01*
X-6350000Y13992652D01*
X-6466323Y14070376D01*
X-6665600Y14152920D01*
X-6877152Y14195000D01*
X-7092848Y14195000D01*
X-7304400Y14152920D01*
X-7503677Y14070376D01*
X-7683022Y13950542D01*
X-7835542Y13798022D01*
X-7955376Y13618677D01*
X-8037920Y13419400D01*
X-8080000Y13207848D01*
X-8080000Y12994681D01*
X-8138677Y12970376D01*
X-8318022Y12850542D01*
X-8470542Y12698022D01*
X-8590376Y12518677D01*
X-8672920Y12319400D01*
X-8715000Y12107848D01*
X-10282984Y12107848D01*
X-10235000Y12349078D01*
X-10235000Y12750922D01*
X-10313396Y13145046D01*
X-10467175Y13516303D01*
X-10690428Y13850424D01*
X-10974576Y14134572D01*
X-11308697Y14357825D01*
X-11679954Y14511604D01*
X-12074078Y14590000D01*
X-12475922Y14590000D01*
X-12870046Y14511604D01*
X-13241303Y14357825D01*
X-13575424Y14134572D01*
X-13859572Y13850424D01*
X-14082825Y13516303D01*
X-14236604Y13145046D01*
X-14315000Y12750922D01*
X-33378465Y12750922D01*
X-32939105Y13540628D01*
X-32599050Y14597254D01*
X-32561849Y14784272D01*
X32561849Y14784272D01*
X32866133Y13716795D01*
X33372825Y12729192D01*
X34062453Y11859417D01*
X34908515Y11140894D01*
X35878497Y10601236D01*
X36935123Y10261181D01*
X37122141Y10223980D01*
X38006128Y10293210D01*
X38006128Y15668259D01*
X38260128Y15668259D01*
X38260128Y10293210D01*
X39144115Y10223980D01*
X40211592Y10528264D01*
X41199195Y11034956D01*
X42068970Y11724584D01*
X42787493Y12570646D01*
X43327151Y13540628D01*
X43667206Y14597254D01*
X43704407Y14784272D01*
X43635177Y15668259D01*
X38260128Y15668259D01*
X38006128Y15668259D01*
X32631079Y15668259D01*
X32561849Y14784272D01*
X-32561849Y14784272D01*
X-32631079Y15668259D01*
X-38006128Y15668259D01*
X-38260128Y15668259D01*
X-43635177Y15668259D01*
X-43704407Y14784272D01*
X-59865000Y14784272D01*
X-59865000Y16806246D01*
X-43704407Y16806246D01*
X-43635177Y15922259D01*
X-38260128Y15922259D01*
X-38260128Y21297308D01*
X-38006128Y21297308D01*
X-38006128Y15922259D01*
X-32631079Y15922259D01*
X-32561849Y16806246D01*
X32561849Y16806246D01*
X32631079Y15922259D01*
X38006128Y15922259D01*
X38006128Y21297308D01*
X38260128Y21297308D01*
X38260128Y15922259D01*
X43635177Y15922259D01*
X43704407Y16806246D01*
X43400123Y17873723D01*
X42893431Y18861326D01*
X42203803Y19731101D01*
X41357741Y20449624D01*
X40387759Y20989282D01*
X39331133Y21329337D01*
X39144115Y21366538D01*
X38260128Y21297308D01*
X38006128Y21297308D01*
X37122141Y21366538D01*
X36054664Y21062254D01*
X35067061Y20555562D01*
X34197286Y19865934D01*
X33478763Y19019872D01*
X32939105Y18049890D01*
X32599050Y16993264D01*
X32561849Y16806246D01*
X-32561849Y16806246D01*
X-32866133Y17873723D01*
X-33372825Y18861326D01*
X-34062453Y19731101D01*
X-34908515Y20449624D01*
X-35878497Y20989282D01*
X-36935123Y21329337D01*
X-37122141Y21366538D01*
X-38006128Y21297308D01*
X-38260128Y21297308D01*
X-39144115Y21366538D01*
X-40211592Y21062254D01*
X-41199195Y20555562D01*
X-42068970Y19865934D01*
X-42787493Y19019872D01*
X-43327151Y18049890D01*
X-43667206Y16993264D01*
X-43704407Y16806246D01*
X-59865000Y16806246D01*
X-59865000Y17568037D01*
X-59885040Y17771507D01*
X-59964236Y18032581D01*
X-60092843Y18273188D01*
X-60265920Y18484081D01*
X-60476813Y18657157D01*
X-60717420Y18785764D01*
X-60978494Y18864960D01*
X-61250000Y18891701D01*
X-61521507Y18864960D01*
X-61782581Y18785764D01*
X-62023188Y18657157D01*
X-62234081Y18484080D01*
X-62407157Y18273187D01*
X-62535764Y18032580D01*
X-62614960Y17771506D01*
X-62635000Y17568036D01*
X-62634999Y15668386D01*
X-62696063Y15759774D01*
X-62840226Y15903937D01*
X-63009744Y16017205D01*
X-63198102Y16095226D01*
X-63398061Y16135000D01*
X-63479747Y16135000D01*
X-63473164Y16193559D01*
X-63983692Y16704087D01*
X-63965000Y16798061D01*
X-63965000Y16900000D01*
X-63820395Y16900000D01*
X-63293559Y16373164D01*
X-63090264Y16396019D01*
X-63009423Y16583184D01*
X-62966649Y16782523D01*
X-62963587Y16986377D01*
X-63000353Y17186912D01*
X-63075534Y17376420D01*
X-63090264Y17403981D01*
X-63293559Y17426836D01*
X-63820395Y16900000D01*
X-63965000Y16900000D01*
X-63965000Y17001939D01*
X-63983692Y17095913D01*
X-63473164Y17606441D01*
X-63496019Y17809736D01*
X-63683184Y17890577D01*
X-63882523Y17933351D01*
X-64086377Y17936413D01*
X-64286912Y17899647D01*
X-64476420Y17824466D01*
X-64500972Y17811344D01*
X-64509744Y17817205D01*
X-64698102Y17895226D01*
X-64898061Y17935000D01*
X-65101939Y17935000D01*
X-65301898Y17895226D01*
X-65490256Y17817205D01*
X-65500000Y17810694D01*
X-65509744Y17817205D01*
X-65698102Y17895226D01*
X-65898061Y17935000D01*
X-66101939Y17935000D01*
X-66301898Y17895226D01*
X-66490256Y17817205D01*
X-66499308Y17811157D01*
X-66683184Y17890577D01*
X-66882523Y17933351D01*
X-67086377Y17936413D01*
X-67286912Y17899647D01*
X-67476420Y17824466D01*
X-67500972Y17811344D01*
X-67509744Y17817205D01*
X-67698102Y17895226D01*
X-67898061Y17935000D01*
X-68101939Y17935000D01*
X-68301898Y17895226D01*
X-68490256Y17817205D01*
X-68500000Y17810694D01*
X-68509744Y17817205D01*
X-68698102Y17895226D01*
X-68898061Y17935000D01*
X-69101939Y17935000D01*
X-69301898Y17895226D01*
X-69490256Y17817205D01*
X-69500000Y17810694D01*
X-69509744Y17817205D01*
X-69698102Y17895226D01*
X-69898061Y17935000D01*
X-70101939Y17935000D01*
X-70301898Y17895226D01*
X-70490256Y17817205D01*
X-70500000Y17810694D01*
X-70509744Y17817205D01*
X-70698102Y17895226D01*
X-70898061Y17935000D01*
X-71101939Y17935000D01*
X-71301898Y17895226D01*
X-71490256Y17817205D01*
X-71500000Y17810694D01*
X-71509744Y17817205D01*
X-71698102Y17895226D01*
X-71898061Y17935000D01*
X-72101939Y17935000D01*
X-72301898Y17895226D01*
X-72490256Y17817205D01*
X-72659774Y17703937D01*
X-72803937Y17559774D01*
X-72917205Y17390256D01*
X-72995226Y17201898D01*
X-73035000Y17001939D01*
X-73035000Y16798061D01*
X-72995226Y16598102D01*
X-72917205Y16409744D01*
X-72803937Y16240226D01*
X-72682656Y16118945D01*
X-72801898Y16095226D01*
X-72990256Y16017205D01*
X-73159774Y15903937D01*
X-73303937Y15759774D01*
X-73365000Y15668387D01*
X-73365000Y17568037D01*
X-73385040Y17771507D01*
X-73464236Y18032581D01*
X-73592843Y18273188D01*
X-73765920Y18484081D01*
X-73976813Y18657157D01*
X-74217420Y18785764D01*
X-74478494Y18864960D01*
X-74750000Y18891701D01*
X-75021507Y18864960D01*
X-75282581Y18785764D01*
X-75523188Y18657157D01*
X-75734081Y18484080D01*
X-75907157Y18273187D01*
X-76035764Y18032580D01*
X-76114960Y17771506D01*
X-76135000Y17568036D01*
X-81340000Y17568036D01*
X-81340000Y22709363D01*
X-65592706Y37122141D01*
X-21366538Y37122141D01*
X-21062254Y36054664D01*
X-20555562Y35067061D01*
X-19865934Y34197286D01*
X-19019872Y33478763D01*
X-18049890Y32939105D01*
X-16993264Y32599050D01*
X-16806246Y32561849D01*
X-15922259Y32631079D01*
X-15922259Y38006128D01*
X-15668259Y38006128D01*
X-15668259Y32631079D01*
X-14784272Y32561849D01*
X-13716795Y32866133D01*
X-12729192Y33372825D01*
X-11859417Y34062453D01*
X-11140894Y34908515D01*
X-10601236Y35878497D01*
X-10261181Y36935123D01*
X-10223980Y37122141D01*
X10223980Y37122141D01*
X10528264Y36054664D01*
X11034956Y35067061D01*
X11724584Y34197286D01*
X12570646Y33478763D01*
X13540628Y32939105D01*
X14597254Y32599050D01*
X14784272Y32561849D01*
X15668259Y32631079D01*
X15668259Y38006128D01*
X15922259Y38006128D01*
X15922259Y32631079D01*
X16806246Y32561849D01*
X17873723Y32866133D01*
X18861326Y33372825D01*
X19731101Y34062453D01*
X20449624Y34908515D01*
X20989282Y35878497D01*
X21329337Y36935123D01*
X21366538Y37122141D01*
X21297308Y38006128D01*
X15922259Y38006128D01*
X15668259Y38006128D01*
X10293210Y38006128D01*
X10223980Y37122141D01*
X-10223980Y37122141D01*
X-10293210Y38006128D01*
X-15668259Y38006128D01*
X-15922259Y38006128D01*
X-21297308Y38006128D01*
X-21366538Y37122141D01*
X-65592706Y37122141D01*
X-63383513Y39144115D01*
X-21366538Y39144115D01*
X-21297308Y38260128D01*
X-15922259Y38260128D01*
X-15922259Y43635177D01*
X-15668259Y43635177D01*
X-15668259Y38260128D01*
X-10293210Y38260128D01*
X-10223980Y39144115D01*
X10223980Y39144115D01*
X10293210Y38260128D01*
X15668259Y38260128D01*
X15668259Y43635177D01*
X15922259Y43635177D01*
X15922259Y38260128D01*
X21297308Y38260128D01*
X21366538Y39144115D01*
X21062254Y40211592D01*
X20555562Y41199195D01*
X19865934Y42068970D01*
X19019872Y42787493D01*
X18049890Y43327151D01*
X16993264Y43667206D01*
X16806246Y43704407D01*
X15922259Y43635177D01*
X15668259Y43635177D01*
X14784272Y43704407D01*
X13716795Y43400123D01*
X12729192Y42893431D01*
X11859417Y42203803D01*
X11140894Y41357741D01*
X10601236Y40387759D01*
X10261181Y39331133D01*
X10223980Y39144115D01*
X-10223980Y39144115D01*
X-10528264Y40211592D01*
X-11034956Y41199195D01*
X-11724584Y42068970D01*
X-12570646Y42787493D01*
X-13540628Y43327151D01*
X-14597254Y43667206D01*
X-14784272Y43704407D01*
X-15668259Y43635177D01*
X-15922259Y43635177D01*
X-16806246Y43704407D01*
X-17873723Y43400123D01*
X-18861326Y42893431D01*
X-19731101Y42203803D01*
X-20449624Y41357741D01*
X-20989282Y40387759D01*
X-21329337Y39331133D01*
X-21366538Y39144115D01*
X-63383513Y39144115D01*
X-32176526Y67706441D01*
X-17426836Y67706441D01*
X-16900000Y67179605D01*
X-16373164Y67706441D01*
X-16396019Y67909736D01*
X-16583184Y67990577D01*
X-16782523Y68033351D01*
X-16986377Y68036413D01*
X-17186912Y67999647D01*
X-17376420Y67924466D01*
X-17403981Y67909736D01*
X-17426836Y67706441D01*
X-32176526Y67706441D01*
X-29943748Y69750000D01*
X-18891701Y69750000D01*
X-18864960Y69478493D01*
X-18785764Y69217419D01*
X-18657157Y68976812D01*
X-18484081Y68765919D01*
X-18273188Y68592843D01*
X-18032581Y68464236D01*
X-17771507Y68385040D01*
X-17568037Y68365000D01*
X-15668387Y68365000D01*
X-15759774Y68303937D01*
X-15903937Y68159774D01*
X-16017205Y67990256D01*
X-16095226Y67801898D01*
X-16135000Y67601939D01*
X-16135000Y67520253D01*
X-16193559Y67526836D01*
X-16704087Y67016308D01*
X-16798061Y67035000D01*
X-17001939Y67035000D01*
X-17095913Y67016308D01*
X-17606441Y67526836D01*
X-17809736Y67503981D01*
X-17890577Y67316816D01*
X-17933351Y67117477D01*
X-17936413Y66913623D01*
X-17899647Y66713088D01*
X-17824466Y66523580D01*
X-17811344Y66499028D01*
X-17817205Y66490256D01*
X-17895226Y66301898D01*
X-17935000Y66101939D01*
X-17935000Y65898061D01*
X-17895226Y65698102D01*
X-17817205Y65509744D01*
X-17810694Y65500000D01*
X-17817205Y65490256D01*
X-17895226Y65301898D01*
X-17935000Y65101939D01*
X-17935000Y64898061D01*
X-17895226Y64698102D01*
X-17817205Y64509744D01*
X-17811157Y64500692D01*
X-17890577Y64316816D01*
X-17933351Y64117477D01*
X-17936413Y63913623D01*
X-17899647Y63713088D01*
X-17824466Y63523580D01*
X-17811344Y63499028D01*
X-17817205Y63490256D01*
X-17895226Y63301898D01*
X-17935000Y63101939D01*
X-17935000Y62898061D01*
X-17895226Y62698102D01*
X-17817205Y62509744D01*
X-17810694Y62500000D01*
X-17817205Y62490256D01*
X-17895226Y62301898D01*
X-17935000Y62101939D01*
X-17935000Y61898061D01*
X-17895226Y61698102D01*
X-17817205Y61509744D01*
X-17810694Y61500000D01*
X-17817205Y61490256D01*
X-17895226Y61301898D01*
X-17935000Y61101939D01*
X-17935000Y60898061D01*
X-17895226Y60698102D01*
X-17817205Y60509744D01*
X-17810694Y60500000D01*
X-17817205Y60490256D01*
X-17895226Y60301898D01*
X-17935000Y60101939D01*
X-17935000Y59898061D01*
X-17895226Y59698102D01*
X-17817205Y59509744D01*
X-17810694Y59500000D01*
X-17817205Y59490256D01*
X-17895226Y59301898D01*
X-17935000Y59101939D01*
X-17935000Y58898061D01*
X-17895226Y58698102D01*
X-17817205Y58509744D01*
X-17703937Y58340226D01*
X-17559774Y58196063D01*
X-17390256Y58082795D01*
X-17201898Y58004774D01*
X-17001939Y57965000D01*
X-16798061Y57965000D01*
X-16598102Y58004774D01*
X-16409744Y58082795D01*
X-16240226Y58196063D01*
X-16118945Y58317344D01*
X-16095226Y58198102D01*
X-16017205Y58009744D01*
X-15903937Y57840226D01*
X-15759774Y57696063D01*
X-15668387Y57635000D01*
X-17568037Y57635000D01*
X-17771507Y57614960D01*
X-18032581Y57535764D01*
X-18273188Y57407157D01*
X-18484081Y57234081D01*
X-18657157Y57023188D01*
X-18785764Y56782581D01*
X-18864960Y56521507D01*
X-18891701Y56250000D01*
X-18864960Y55978493D01*
X-18785764Y55717419D01*
X-18657157Y55476812D01*
X-18484081Y55265919D01*
X-18273188Y55092843D01*
X-18032581Y54964236D01*
X-17771507Y54885040D01*
X-17568037Y54865000D01*
X-14431963Y54865000D01*
X-14228493Y54885040D01*
X-13967419Y54964236D01*
X-13726812Y55092843D01*
X-13515919Y55265919D01*
X-13342843Y55476812D01*
X-13214236Y55717419D01*
X-13135040Y55978493D01*
X-13108299Y56250000D01*
X-13135040Y56521507D01*
X-13214236Y56782581D01*
X-13342843Y57023188D01*
X-13515919Y57234081D01*
X-13726812Y57407157D01*
X-13967419Y57535764D01*
X-14228493Y57614960D01*
X-14431963Y57635000D01*
X-14531613Y57635000D01*
X-14440226Y57696063D01*
X-14296063Y57840226D01*
X-14182795Y58009744D01*
X-14104774Y58198102D01*
X-14065000Y58398061D01*
X-14065000Y58601939D01*
X-14104774Y58801898D01*
X-14182795Y58990256D01*
X-14188843Y58999308D01*
X-14109423Y59183184D01*
X-14066649Y59382523D01*
X-14063587Y59586377D01*
X-14100353Y59786912D01*
X-14175534Y59976420D01*
X-14188656Y60000972D01*
X-14182795Y60009744D01*
X-14104774Y60198102D01*
X-14065000Y60398061D01*
X-14065000Y60601939D01*
X-14104774Y60801898D01*
X-14182795Y60990256D01*
X-14189306Y61000000D01*
X-14182795Y61009744D01*
X-14104774Y61198102D01*
X-14065000Y61398061D01*
X-14065000Y61601939D01*
X-14104774Y61801898D01*
X-14182795Y61990256D01*
X-14188843Y61999308D01*
X-14109423Y62183184D01*
X-14066649Y62382523D01*
X-14063587Y62586377D01*
X-14100353Y62786912D01*
X-14175534Y62976420D01*
X-14188656Y63000972D01*
X-14182795Y63009744D01*
X-14104774Y63198102D01*
X-14065000Y63398061D01*
X-14065000Y63601939D01*
X-14104774Y63801898D01*
X-14182795Y63990256D01*
X-14189306Y64000000D01*
X-14182795Y64009744D01*
X-14104774Y64198102D01*
X-14065000Y64398061D01*
X-14065000Y64601939D01*
X-14104774Y64801898D01*
X-14182795Y64990256D01*
X-14188843Y64999308D01*
X-14109423Y65183184D01*
X-14066649Y65382523D01*
X-14063587Y65586377D01*
X-14100353Y65786912D01*
X-14175534Y65976420D01*
X-14188656Y66000972D01*
X-14182795Y66009744D01*
X-14104774Y66198102D01*
X-14065000Y66398061D01*
X-14065000Y66601939D01*
X-14104774Y66801898D01*
X-14182795Y66990256D01*
X-14189306Y67000000D01*
X-14182795Y67009744D01*
X-14104774Y67198102D01*
X-14065000Y67398061D01*
X-14065000Y67601939D01*
X-14085786Y67706441D01*
X-1426836Y67706441D01*
X-900000Y67179605D01*
X-373164Y67706441D01*
X-396019Y67909736D01*
X-583184Y67990577D01*
X-782523Y68033351D01*
X-986377Y68036413D01*
X-1186912Y67999647D01*
X-1376420Y67924466D01*
X-1403981Y67909736D01*
X-1426836Y67706441D01*
X-14085786Y67706441D01*
X-14104774Y67801898D01*
X-14182795Y67990256D01*
X-14296063Y68159774D01*
X-14440226Y68303937D01*
X-14531613Y68365000D01*
X-14431963Y68365000D01*
X-14228493Y68385040D01*
X-13967419Y68464236D01*
X-13726812Y68592843D01*
X-13515919Y68765919D01*
X-13342843Y68976812D01*
X-13214236Y69217419D01*
X-13135040Y69478493D01*
X-13108299Y69750000D01*
X-2891701Y69750000D01*
X-2864960Y69478493D01*
X-2785764Y69217419D01*
X-2657157Y68976812D01*
X-2484081Y68765919D01*
X-2273188Y68592843D01*
X-2032581Y68464236D01*
X-1771507Y68385040D01*
X-1568037Y68365000D01*
X331613Y68365000D01*
X240226Y68303937D01*
X96063Y68159774D01*
X-17205Y67990256D01*
X-95226Y67801898D01*
X-135000Y67601939D01*
X-135000Y67520253D01*
X-193559Y67526836D01*
X-704087Y67016308D01*
X-798061Y67035000D01*
X-1001939Y67035000D01*
X-1095913Y67016308D01*
X-1606441Y67526836D01*
X-1809736Y67503981D01*
X-1890577Y67316816D01*
X-1933351Y67117477D01*
X-1936413Y66913623D01*
X-1899647Y66713088D01*
X-1824466Y66523580D01*
X-1811344Y66499028D01*
X-1817205Y66490256D01*
X-1895226Y66301898D01*
X-1935000Y66101939D01*
X-1935000Y65898061D01*
X-1895226Y65698102D01*
X-1817205Y65509744D01*
X-1810694Y65500000D01*
X-1817205Y65490256D01*
X-1895226Y65301898D01*
X-1935000Y65101939D01*
X-1935000Y64898061D01*
X-1895226Y64698102D01*
X-1817205Y64509744D01*
X-1811157Y64500692D01*
X-1890577Y64316816D01*
X-1933351Y64117477D01*
X-1936413Y63913623D01*
X-1899647Y63713088D01*
X-1824466Y63523580D01*
X-1811344Y63499028D01*
X-1817205Y63490256D01*
X-1895226Y63301898D01*
X-1935000Y63101939D01*
X-1935000Y62898061D01*
X-1895226Y62698102D01*
X-1817205Y62509744D01*
X-1810694Y62500000D01*
X-1817205Y62490256D01*
X-1895226Y62301898D01*
X-1935000Y62101939D01*
X-1935000Y61898061D01*
X-1895226Y61698102D01*
X-1817205Y61509744D01*
X-1810694Y61500000D01*
X-1817205Y61490256D01*
X-1895226Y61301898D01*
X-1935000Y61101939D01*
X-1935000Y60898061D01*
X-1895226Y60698102D01*
X-1817205Y60509744D01*
X-1810694Y60500000D01*
X-1817205Y60490256D01*
X-1895226Y60301898D01*
X-1935000Y60101939D01*
X-1935000Y59898061D01*
X-1895226Y59698102D01*
X-1817205Y59509744D01*
X-1810694Y59500000D01*
X-1817205Y59490256D01*
X-1895226Y59301898D01*
X-1935000Y59101939D01*
X-1935000Y58898061D01*
X-1895226Y58698102D01*
X-1817205Y58509744D01*
X-1703937Y58340226D01*
X-1559774Y58196063D01*
X-1390256Y58082795D01*
X-1201898Y58004774D01*
X-1001939Y57965000D01*
X-798061Y57965000D01*
X-598102Y58004774D01*
X-409744Y58082795D01*
X-240226Y58196063D01*
X-118945Y58317344D01*
X-95226Y58198102D01*
X-17205Y58009744D01*
X96063Y57840226D01*
X240226Y57696063D01*
X331613Y57635000D01*
X-1568037Y57635000D01*
X-1771507Y57614960D01*
X-2032581Y57535764D01*
X-2273188Y57407157D01*
X-2484081Y57234081D01*
X-2657157Y57023188D01*
X-2785764Y56782581D01*
X-2864960Y56521507D01*
X-2891701Y56250000D01*
X-2864960Y55978493D01*
X-2785764Y55717419D01*
X-2657157Y55476812D01*
X-2484081Y55265919D01*
X-2273188Y55092843D01*
X-2032581Y54964236D01*
X-1771507Y54885040D01*
X-1568037Y54865000D01*
X1568037Y54865000D01*
X1771507Y54885040D01*
X2032581Y54964236D01*
X2273188Y55092843D01*
X2484081Y55265919D01*
X2657157Y55476812D01*
X2785764Y55717419D01*
X2864960Y55978493D01*
X2891701Y56250000D01*
X2864960Y56521507D01*
X2785764Y56782581D01*
X2657157Y57023188D01*
X2484081Y57234081D01*
X2273188Y57407157D01*
X2032581Y57535764D01*
X1771507Y57614960D01*
X1568037Y57635000D01*
X1468387Y57635000D01*
X1559774Y57696063D01*
X1703937Y57840226D01*
X1817205Y58009744D01*
X1895226Y58198102D01*
X1935000Y58398061D01*
X1935000Y58601939D01*
X1895226Y58801898D01*
X1817205Y58990256D01*
X1811157Y58999308D01*
X1890577Y59183184D01*
X1933351Y59382523D01*
X1936413Y59586377D01*
X1899647Y59786912D01*
X1824466Y59976420D01*
X1811344Y60000972D01*
X1817205Y60009744D01*
X1895226Y60198102D01*
X1935000Y60398061D01*
X1935000Y60601939D01*
X1895226Y60801898D01*
X1817205Y60990256D01*
X1810694Y61000000D01*
X1817205Y61009744D01*
X1895226Y61198102D01*
X1935000Y61398061D01*
X1935000Y61601939D01*
X1895226Y61801898D01*
X1817205Y61990256D01*
X1811157Y61999308D01*
X1890577Y62183184D01*
X1933351Y62382523D01*
X1936413Y62586377D01*
X1899647Y62786912D01*
X1824466Y62976420D01*
X1811344Y63000972D01*
X1817205Y63009744D01*
X1895226Y63198102D01*
X1935000Y63398061D01*
X1935000Y63601939D01*
X1895226Y63801898D01*
X1817205Y63990256D01*
X1810694Y64000000D01*
X1817205Y64009744D01*
X1895226Y64198102D01*
X1935000Y64398061D01*
X1935000Y64601939D01*
X1895226Y64801898D01*
X1817205Y64990256D01*
X1811157Y64999308D01*
X1890577Y65183184D01*
X1933351Y65382523D01*
X1936413Y65586377D01*
X1899647Y65786912D01*
X1824466Y65976420D01*
X1811344Y66000972D01*
X1817205Y66009744D01*
X1895226Y66198102D01*
X1935000Y66398061D01*
X1935000Y66601939D01*
X1895226Y66801898D01*
X1817205Y66990256D01*
X1810694Y67000000D01*
X1817205Y67009744D01*
X1895226Y67198102D01*
X1935000Y67398061D01*
X1935000Y67601939D01*
X1914214Y67706441D01*
X14573164Y67706441D01*
X15100000Y67179605D01*
X15626836Y67706441D01*
X15603981Y67909736D01*
X15416816Y67990577D01*
X15217477Y68033351D01*
X15013623Y68036413D01*
X14813088Y67999647D01*
X14623580Y67924466D01*
X14596019Y67909736D01*
X14573164Y67706441D01*
X1914214Y67706441D01*
X1895226Y67801898D01*
X1817205Y67990256D01*
X1703937Y68159774D01*
X1559774Y68303937D01*
X1468387Y68365000D01*
X1568037Y68365000D01*
X1771507Y68385040D01*
X2032581Y68464236D01*
X2273188Y68592843D01*
X2484081Y68765919D01*
X2657157Y68976812D01*
X2785764Y69217419D01*
X2864960Y69478493D01*
X2891701Y69750000D01*
X13108299Y69750000D01*
X13135040Y69478493D01*
X13214236Y69217419D01*
X13342843Y68976812D01*
X13515919Y68765919D01*
X13726812Y68592843D01*
X13967419Y68464236D01*
X14228493Y68385040D01*
X14431963Y68365000D01*
X16331613Y68365000D01*
X16240226Y68303937D01*
X16096063Y68159774D01*
X15982795Y67990256D01*
X15904774Y67801898D01*
X15865000Y67601939D01*
X15865000Y67520253D01*
X15806441Y67526836D01*
X15295913Y67016308D01*
X15201939Y67035000D01*
X14998061Y67035000D01*
X14904087Y67016308D01*
X14393559Y67526836D01*
X14190264Y67503981D01*
X14109423Y67316816D01*
X14066649Y67117477D01*
X14063587Y66913623D01*
X14100353Y66713088D01*
X14175534Y66523580D01*
X14188656Y66499028D01*
X14182795Y66490256D01*
X14104774Y66301898D01*
X14065000Y66101939D01*
X14065000Y65898061D01*
X14104774Y65698102D01*
X14182795Y65509744D01*
X14189306Y65500000D01*
X14182795Y65490256D01*
X14104774Y65301898D01*
X14065000Y65101939D01*
X14065000Y64898061D01*
X14104774Y64698102D01*
X14182795Y64509744D01*
X14188843Y64500692D01*
X14109423Y64316816D01*
X14066649Y64117477D01*
X14063587Y63913623D01*
X14100353Y63713088D01*
X14175534Y63523580D01*
X14188656Y63499028D01*
X14182795Y63490256D01*
X14104774Y63301898D01*
X14065000Y63101939D01*
X14065000Y62898061D01*
X14104774Y62698102D01*
X14182795Y62509744D01*
X14189306Y62500000D01*
X14182795Y62490256D01*
X14104774Y62301898D01*
X14065000Y62101939D01*
X14065000Y61898061D01*
X14104774Y61698102D01*
X14182795Y61509744D01*
X14189306Y61500000D01*
X14182795Y61490256D01*
X14104774Y61301898D01*
X14065000Y61101939D01*
X14065000Y60898061D01*
X14104774Y60698102D01*
X14182795Y60509744D01*
X14189306Y60500000D01*
X14182795Y60490256D01*
X14104774Y60301898D01*
X14065000Y60101939D01*
X14065000Y59898061D01*
X14104774Y59698102D01*
X14182795Y59509744D01*
X14189306Y59500000D01*
X14182795Y59490256D01*
X14104774Y59301898D01*
X14065000Y59101939D01*
X14065000Y58898061D01*
X14104774Y58698102D01*
X14182795Y58509744D01*
X14296063Y58340226D01*
X14440226Y58196063D01*
X14609744Y58082795D01*
X14798102Y58004774D01*
X14998061Y57965000D01*
X15201939Y57965000D01*
X15401898Y58004774D01*
X15590256Y58082795D01*
X15759774Y58196063D01*
X15881055Y58317344D01*
X15904774Y58198102D01*
X15982795Y58009744D01*
X16096063Y57840226D01*
X16240226Y57696063D01*
X16331613Y57635000D01*
X14431963Y57635000D01*
X14228493Y57614960D01*
X13967419Y57535764D01*
X13726812Y57407157D01*
X13515919Y57234081D01*
X13342843Y57023188D01*
X13214236Y56782581D01*
X13135040Y56521507D01*
X13108299Y56250000D01*
X13135040Y55978493D01*
X13214236Y55717419D01*
X13342843Y55476812D01*
X13515919Y55265919D01*
X13726812Y55092843D01*
X13967419Y54964236D01*
X14228493Y54885040D01*
X14431963Y54865000D01*
X17568037Y54865000D01*
X17771507Y54885040D01*
X18032581Y54964236D01*
X18273188Y55092843D01*
X18484081Y55265919D01*
X18657157Y55476812D01*
X18785764Y55717419D01*
X18864960Y55978493D01*
X18891701Y56250000D01*
X18864960Y56521507D01*
X18785764Y56782581D01*
X18657157Y57023188D01*
X18484081Y57234081D01*
X18273188Y57407157D01*
X18032581Y57535764D01*
X17771507Y57614960D01*
X17568037Y57635000D01*
X17468387Y57635000D01*
X17559774Y57696063D01*
X17703937Y57840226D01*
X17817205Y58009744D01*
X17895226Y58198102D01*
X17935000Y58398061D01*
X17935000Y58601939D01*
X17895226Y58801898D01*
X17817205Y58990256D01*
X17811157Y58999308D01*
X17890577Y59183184D01*
X17933351Y59382523D01*
X17936413Y59586377D01*
X17899647Y59786912D01*
X17824466Y59976420D01*
X17811344Y60000972D01*
X17817205Y60009744D01*
X17895226Y60198102D01*
X17935000Y60398061D01*
X17935000Y60601939D01*
X17895226Y60801898D01*
X17817205Y60990256D01*
X17810694Y61000000D01*
X17817205Y61009744D01*
X17895226Y61198102D01*
X17935000Y61398061D01*
X17935000Y61601939D01*
X17895226Y61801898D01*
X17817205Y61990256D01*
X17811157Y61999308D01*
X17890577Y62183184D01*
X17933351Y62382523D01*
X17936413Y62586377D01*
X17899647Y62786912D01*
X17824466Y62976420D01*
X17811344Y63000972D01*
X17817205Y63009744D01*
X17895226Y63198102D01*
X17935000Y63398061D01*
X17935000Y63601939D01*
X17895226Y63801898D01*
X17817205Y63990256D01*
X17810694Y64000000D01*
X17817205Y64009744D01*
X17895226Y64198102D01*
X17935000Y64398061D01*
X17935000Y64601939D01*
X17895226Y64801898D01*
X17817205Y64990256D01*
X17811157Y64999308D01*
X17890577Y65183184D01*
X17933351Y65382523D01*
X17936413Y65586377D01*
X17899647Y65786912D01*
X17824466Y65976420D01*
X17811344Y66000972D01*
X17817205Y66009744D01*
X17895226Y66198102D01*
X17935000Y66398061D01*
X17935000Y66601939D01*
X17895226Y66801898D01*
X17817205Y66990256D01*
X17810694Y67000000D01*
X17817205Y67009744D01*
X17895226Y67198102D01*
X17935000Y67398061D01*
X17935000Y67601939D01*
X17895226Y67801898D01*
X17817205Y67990256D01*
X17703937Y68159774D01*
X17559774Y68303937D01*
X17468387Y68365000D01*
X17568037Y68365000D01*
X17771507Y68385040D01*
X18032581Y68464236D01*
X18273188Y68592843D01*
X18484081Y68765919D01*
X18657157Y68976812D01*
X18785764Y69217419D01*
X18864960Y69478493D01*
X18891701Y69750000D01*
X18864960Y70021507D01*
X18785764Y70282581D01*
X18657157Y70523188D01*
X18484081Y70734081D01*
X18273188Y70907157D01*
X18032581Y71035764D01*
X17771507Y71114960D01*
X17568037Y71135000D01*
X14431963Y71135000D01*
X14228493Y71114960D01*
X13967419Y71035764D01*
X13726812Y70907157D01*
X13515919Y70734081D01*
X13342843Y70523188D01*
X13214236Y70282581D01*
X13135040Y70021507D01*
X13108299Y69750000D01*
X2891701Y69750000D01*
X2864960Y70021507D01*
X2785764Y70282581D01*
X2657157Y70523188D01*
X2484081Y70734081D01*
X2273188Y70907157D01*
X2032581Y71035764D01*
X1771507Y71114960D01*
X1568037Y71135000D01*
X-1568037Y71135000D01*
X-1771507Y71114960D01*
X-2032581Y71035764D01*
X-2273188Y70907157D01*
X-2484081Y70734081D01*
X-2657157Y70523188D01*
X-2785764Y70282581D01*
X-2864960Y70021507D01*
X-2891701Y69750000D01*
X-13108299Y69750000D01*
X-13135040Y70021507D01*
X-13214236Y70282581D01*
X-13342843Y70523188D01*
X-13515919Y70734081D01*
X-13726812Y70907157D01*
X-13967419Y71035764D01*
X-14228493Y71114960D01*
X-14431963Y71135000D01*
X-17568037Y71135000D01*
X-17771507Y71114960D01*
X-18032581Y71035764D01*
X-18273188Y70907157D01*
X-18484081Y70734081D01*
X-18657157Y70523188D01*
X-18785764Y70282581D01*
X-18864960Y70021507D01*
X-18891701Y69750000D01*
X-29943748Y69750000D01*
X-22743562Y76340000D01*
X22726620Y76340000D01*
X59340001Y39726618D01*
%TA.AperFunction,Conductor*%
D17*
G36*
X59340001Y39726618D02*
G01*
X59340000Y-39726619D01*
X22726620Y-76340000D01*
X-22743562Y-76340000D01*
X-44693747Y-56250000D01*
X-18891701Y-56250000D01*
X-18864960Y-56521507D01*
X-18785764Y-56782581D01*
X-18657157Y-57023188D01*
X-18484081Y-57234081D01*
X-18273188Y-57407157D01*
X-18032581Y-57535764D01*
X-17771507Y-57614960D01*
X-17568037Y-57635000D01*
X-17468387Y-57635000D01*
X-17559774Y-57696063D01*
X-17703937Y-57840226D01*
X-17817205Y-58009744D01*
X-17895226Y-58198102D01*
X-17935000Y-58398061D01*
X-17935000Y-58601939D01*
X-17895226Y-58801898D01*
X-17817205Y-58990256D01*
X-17811157Y-58999308D01*
X-17890577Y-59183184D01*
X-17933351Y-59382523D01*
X-17936413Y-59586377D01*
X-17899647Y-59786912D01*
X-17824466Y-59976420D01*
X-17811344Y-60000972D01*
X-17817205Y-60009744D01*
X-17895226Y-60198102D01*
X-17935000Y-60398061D01*
X-17935000Y-60601939D01*
X-17895226Y-60801898D01*
X-17817205Y-60990256D01*
X-17810694Y-61000000D01*
X-17817205Y-61009744D01*
X-17895226Y-61198102D01*
X-17935000Y-61398061D01*
X-17935000Y-61601939D01*
X-17895226Y-61801898D01*
X-17817205Y-61990256D01*
X-17811157Y-61999308D01*
X-17890577Y-62183184D01*
X-17933351Y-62382523D01*
X-17936413Y-62586377D01*
X-17899647Y-62786912D01*
X-17824466Y-62976420D01*
X-17811344Y-63000972D01*
X-17817205Y-63009744D01*
X-17895226Y-63198102D01*
X-17935000Y-63398061D01*
X-17935000Y-63601939D01*
X-17895226Y-63801898D01*
X-17817205Y-63990256D01*
X-17810694Y-64000000D01*
X-17817205Y-64009744D01*
X-17895226Y-64198102D01*
X-17935000Y-64398061D01*
X-17935000Y-64601939D01*
X-17895226Y-64801898D01*
X-17817205Y-64990256D01*
X-17811157Y-64999308D01*
X-17890577Y-65183184D01*
X-17933351Y-65382523D01*
X-17936413Y-65586377D01*
X-17899647Y-65786912D01*
X-17824466Y-65976420D01*
X-17811344Y-66000972D01*
X-17817205Y-66009744D01*
X-17895226Y-66198102D01*
X-17935000Y-66398061D01*
X-17935000Y-66601939D01*
X-17895226Y-66801898D01*
X-17817205Y-66990256D01*
X-17810694Y-67000000D01*
X-17817205Y-67009744D01*
X-17895226Y-67198102D01*
X-17935000Y-67398061D01*
X-17935000Y-67601939D01*
X-17895226Y-67801898D01*
X-17817205Y-67990256D01*
X-17703937Y-68159774D01*
X-17559774Y-68303937D01*
X-17468387Y-68365000D01*
X-17568037Y-68365000D01*
X-17771507Y-68385040D01*
X-18032581Y-68464236D01*
X-18273188Y-68592843D01*
X-18484081Y-68765919D01*
X-18657157Y-68976812D01*
X-18785764Y-69217419D01*
X-18864960Y-69478493D01*
X-18891701Y-69750000D01*
X-18864960Y-70021507D01*
X-18785764Y-70282581D01*
X-18657157Y-70523188D01*
X-18484081Y-70734081D01*
X-18273188Y-70907157D01*
X-18032581Y-71035764D01*
X-17771507Y-71114960D01*
X-17568037Y-71135000D01*
X-14431963Y-71135000D01*
X-14228493Y-71114960D01*
X-13967419Y-71035764D01*
X-13726812Y-70907157D01*
X-13515919Y-70734081D01*
X-13342843Y-70523188D01*
X-13214236Y-70282581D01*
X-13135040Y-70021507D01*
X-13108299Y-69750000D01*
X-13135040Y-69478493D01*
X-13214236Y-69217419D01*
X-13342843Y-68976812D01*
X-13515919Y-68765919D01*
X-13726812Y-68592843D01*
X-13967419Y-68464236D01*
X-14228493Y-68385040D01*
X-14431963Y-68365000D01*
X-16331613Y-68365000D01*
X-16240226Y-68303937D01*
X-16096063Y-68159774D01*
X-15982795Y-67990256D01*
X-15904774Y-67801898D01*
X-15885787Y-67706441D01*
X-15626836Y-67706441D01*
X-15603981Y-67909736D01*
X-15416816Y-67990577D01*
X-15217477Y-68033351D01*
X-15013623Y-68036413D01*
X-14813088Y-67999647D01*
X-14623580Y-67924466D01*
X-14596019Y-67909736D01*
X-14573164Y-67706441D01*
X-15100000Y-67179605D01*
X-15626836Y-67706441D01*
X-15885787Y-67706441D01*
X-15865000Y-67601939D01*
X-15865000Y-67520253D01*
X-15806441Y-67526836D01*
X-15295913Y-67016308D01*
X-15201939Y-67035000D01*
X-14998061Y-67035000D01*
X-14904087Y-67016308D01*
X-14393559Y-67526836D01*
X-14190264Y-67503981D01*
X-14109423Y-67316816D01*
X-14066649Y-67117477D01*
X-14063587Y-66913623D01*
X-14100353Y-66713088D01*
X-14175534Y-66523580D01*
X-14188656Y-66499028D01*
X-14182795Y-66490256D01*
X-14104774Y-66301898D01*
X-14065000Y-66101939D01*
X-14065000Y-65898061D01*
X-14104774Y-65698102D01*
X-14182795Y-65509744D01*
X-14189306Y-65500000D01*
X-14182795Y-65490256D01*
X-14104774Y-65301898D01*
X-14065000Y-65101939D01*
X-14065000Y-64898061D01*
X-14104774Y-64698102D01*
X-14182795Y-64509744D01*
X-14188843Y-64500692D01*
X-14109423Y-64316816D01*
X-14066649Y-64117477D01*
X-14063587Y-63913623D01*
X-14100353Y-63713088D01*
X-14175534Y-63523580D01*
X-14188656Y-63499028D01*
X-14182795Y-63490256D01*
X-14104774Y-63301898D01*
X-14065000Y-63101939D01*
X-14065000Y-62898061D01*
X-14104774Y-62698102D01*
X-14182795Y-62509744D01*
X-14189306Y-62500000D01*
X-14182795Y-62490256D01*
X-14104774Y-62301898D01*
X-14065000Y-62101939D01*
X-14065000Y-61898061D01*
X-14104774Y-61698102D01*
X-14182795Y-61509744D01*
X-14189306Y-61500000D01*
X-14182795Y-61490256D01*
X-14104774Y-61301898D01*
X-14065000Y-61101939D01*
X-14065000Y-60898061D01*
X-14104774Y-60698102D01*
X-14182795Y-60509744D01*
X-14189306Y-60500000D01*
X-14182795Y-60490256D01*
X-14104774Y-60301898D01*
X-14065000Y-60101939D01*
X-14065000Y-59898061D01*
X-14104774Y-59698102D01*
X-14182795Y-59509744D01*
X-14189306Y-59500000D01*
X-14182795Y-59490256D01*
X-14104774Y-59301898D01*
X-14065000Y-59101939D01*
X-14065000Y-58898061D01*
X-14104774Y-58698102D01*
X-14182795Y-58509744D01*
X-14296063Y-58340226D01*
X-14440226Y-58196063D01*
X-14609744Y-58082795D01*
X-14798102Y-58004774D01*
X-14998061Y-57965000D01*
X-15201939Y-57965000D01*
X-15401898Y-58004774D01*
X-15590256Y-58082795D01*
X-15759774Y-58196063D01*
X-15881055Y-58317344D01*
X-15904774Y-58198102D01*
X-15982795Y-58009744D01*
X-16096063Y-57840226D01*
X-16240226Y-57696063D01*
X-16331613Y-57635000D01*
X-14431963Y-57635000D01*
X-14228493Y-57614960D01*
X-13967419Y-57535764D01*
X-13726812Y-57407157D01*
X-13515919Y-57234081D01*
X-13342843Y-57023188D01*
X-13214236Y-56782581D01*
X-13135040Y-56521507D01*
X-13108299Y-56250000D01*
X-2891701Y-56250000D01*
X-2864960Y-56521507D01*
X-2785764Y-56782581D01*
X-2657157Y-57023188D01*
X-2484081Y-57234081D01*
X-2273188Y-57407157D01*
X-2032581Y-57535764D01*
X-1771507Y-57614960D01*
X-1568037Y-57635000D01*
X-1468387Y-57635000D01*
X-1559774Y-57696063D01*
X-1703937Y-57840226D01*
X-1817205Y-58009744D01*
X-1895226Y-58198102D01*
X-1935000Y-58398061D01*
X-1935000Y-58601939D01*
X-1895226Y-58801898D01*
X-1817205Y-58990256D01*
X-1811157Y-58999308D01*
X-1890577Y-59183184D01*
X-1933351Y-59382523D01*
X-1936413Y-59586377D01*
X-1899647Y-59786912D01*
X-1824466Y-59976420D01*
X-1811344Y-60000972D01*
X-1817205Y-60009744D01*
X-1895226Y-60198102D01*
X-1935000Y-60398061D01*
X-1935000Y-60601939D01*
X-1895226Y-60801898D01*
X-1817205Y-60990256D01*
X-1810694Y-61000000D01*
X-1817205Y-61009744D01*
X-1895226Y-61198102D01*
X-1935000Y-61398061D01*
X-1935000Y-61601939D01*
X-1895226Y-61801898D01*
X-1817205Y-61990256D01*
X-1811157Y-61999308D01*
X-1890577Y-62183184D01*
X-1933351Y-62382523D01*
X-1936413Y-62586377D01*
X-1899647Y-62786912D01*
X-1824466Y-62976420D01*
X-1811344Y-63000972D01*
X-1817205Y-63009744D01*
X-1895226Y-63198102D01*
X-1935000Y-63398061D01*
X-1935000Y-63601939D01*
X-1895226Y-63801898D01*
X-1817205Y-63990256D01*
X-1810694Y-64000000D01*
X-1817205Y-64009744D01*
X-1895226Y-64198102D01*
X-1935000Y-64398061D01*
X-1935000Y-64601939D01*
X-1895226Y-64801898D01*
X-1817205Y-64990256D01*
X-1811157Y-64999308D01*
X-1890577Y-65183184D01*
X-1933351Y-65382523D01*
X-1936413Y-65586377D01*
X-1899647Y-65786912D01*
X-1824466Y-65976420D01*
X-1811344Y-66000972D01*
X-1817205Y-66009744D01*
X-1895226Y-66198102D01*
X-1935000Y-66398061D01*
X-1935000Y-66601939D01*
X-1895226Y-66801898D01*
X-1817205Y-66990256D01*
X-1810694Y-67000000D01*
X-1817205Y-67009744D01*
X-1895226Y-67198102D01*
X-1935000Y-67398061D01*
X-1935000Y-67601939D01*
X-1895226Y-67801898D01*
X-1817205Y-67990256D01*
X-1703937Y-68159774D01*
X-1559774Y-68303937D01*
X-1468387Y-68365000D01*
X-1568037Y-68365000D01*
X-1771507Y-68385040D01*
X-2032581Y-68464236D01*
X-2273188Y-68592843D01*
X-2484081Y-68765919D01*
X-2657157Y-68976812D01*
X-2785764Y-69217419D01*
X-2864960Y-69478493D01*
X-2891701Y-69750000D01*
X-2864960Y-70021507D01*
X-2785764Y-70282581D01*
X-2657157Y-70523188D01*
X-2484081Y-70734081D01*
X-2273188Y-70907157D01*
X-2032581Y-71035764D01*
X-1771507Y-71114960D01*
X-1568037Y-71135000D01*
X1568037Y-71135000D01*
X1771507Y-71114960D01*
X2032581Y-71035764D01*
X2273188Y-70907157D01*
X2484081Y-70734081D01*
X2657157Y-70523188D01*
X2785764Y-70282581D01*
X2864960Y-70021507D01*
X2891701Y-69750000D01*
X2864960Y-69478493D01*
X2785764Y-69217419D01*
X2657157Y-68976812D01*
X2484081Y-68765919D01*
X2273188Y-68592843D01*
X2032581Y-68464236D01*
X1771507Y-68385040D01*
X1568037Y-68365000D01*
X-331613Y-68365000D01*
X-240226Y-68303937D01*
X-96063Y-68159774D01*
X17205Y-67990256D01*
X95226Y-67801898D01*
X114213Y-67706441D01*
X373164Y-67706441D01*
X396019Y-67909736D01*
X583184Y-67990577D01*
X782523Y-68033351D01*
X986377Y-68036413D01*
X1186912Y-67999647D01*
X1376420Y-67924466D01*
X1403981Y-67909736D01*
X1426836Y-67706441D01*
X900000Y-67179605D01*
X373164Y-67706441D01*
X114213Y-67706441D01*
X135000Y-67601939D01*
X135000Y-67520253D01*
X193559Y-67526836D01*
X704087Y-67016308D01*
X798061Y-67035000D01*
X1001939Y-67035000D01*
X1095913Y-67016308D01*
X1606441Y-67526836D01*
X1809736Y-67503981D01*
X1890577Y-67316816D01*
X1933351Y-67117477D01*
X1936413Y-66913623D01*
X1899647Y-66713088D01*
X1824466Y-66523580D01*
X1811344Y-66499028D01*
X1817205Y-66490256D01*
X1895226Y-66301898D01*
X1935000Y-66101939D01*
X1935000Y-65898061D01*
X1895226Y-65698102D01*
X1817205Y-65509744D01*
X1810694Y-65500000D01*
X1817205Y-65490256D01*
X1895226Y-65301898D01*
X1935000Y-65101939D01*
X1935000Y-64898061D01*
X1895226Y-64698102D01*
X1817205Y-64509744D01*
X1811157Y-64500692D01*
X1890577Y-64316816D01*
X1933351Y-64117477D01*
X1936413Y-63913623D01*
X1899647Y-63713088D01*
X1824466Y-63523580D01*
X1811344Y-63499028D01*
X1817205Y-63490256D01*
X1895226Y-63301898D01*
X1935000Y-63101939D01*
X1935000Y-62898061D01*
X1895226Y-62698102D01*
X1817205Y-62509744D01*
X1810694Y-62500000D01*
X1817205Y-62490256D01*
X1895226Y-62301898D01*
X1935000Y-62101939D01*
X1935000Y-61898061D01*
X1895226Y-61698102D01*
X1817205Y-61509744D01*
X1810694Y-61500000D01*
X1817205Y-61490256D01*
X1895226Y-61301898D01*
X1935000Y-61101939D01*
X1935000Y-60898061D01*
X1895226Y-60698102D01*
X1817205Y-60509744D01*
X1810694Y-60500000D01*
X1817205Y-60490256D01*
X1895226Y-60301898D01*
X1935000Y-60101939D01*
X1935000Y-59898061D01*
X1895226Y-59698102D01*
X1817205Y-59509744D01*
X1810694Y-59500000D01*
X1817205Y-59490256D01*
X1895226Y-59301898D01*
X1935000Y-59101939D01*
X1935000Y-58898061D01*
X1895226Y-58698102D01*
X1817205Y-58509744D01*
X1703937Y-58340226D01*
X1559774Y-58196063D01*
X1390256Y-58082795D01*
X1201898Y-58004774D01*
X1001939Y-57965000D01*
X798061Y-57965000D01*
X598102Y-58004774D01*
X409744Y-58082795D01*
X240226Y-58196063D01*
X118945Y-58317344D01*
X95226Y-58198102D01*
X17205Y-58009744D01*
X-96063Y-57840226D01*
X-240226Y-57696063D01*
X-331613Y-57635000D01*
X1568037Y-57635000D01*
X1771507Y-57614960D01*
X2032581Y-57535764D01*
X2273188Y-57407157D01*
X2484081Y-57234081D01*
X2657157Y-57023188D01*
X2785764Y-56782581D01*
X2864960Y-56521507D01*
X2891701Y-56250000D01*
X13108299Y-56250000D01*
X13135040Y-56521507D01*
X13214236Y-56782581D01*
X13342843Y-57023188D01*
X13515919Y-57234081D01*
X13726812Y-57407157D01*
X13967419Y-57535764D01*
X14228493Y-57614960D01*
X14431963Y-57635000D01*
X14531613Y-57635000D01*
X14440226Y-57696063D01*
X14296063Y-57840226D01*
X14182795Y-58009744D01*
X14104774Y-58198102D01*
X14065000Y-58398061D01*
X14065000Y-58601939D01*
X14104774Y-58801898D01*
X14182795Y-58990256D01*
X14188843Y-58999308D01*
X14109423Y-59183184D01*
X14066649Y-59382523D01*
X14063587Y-59586377D01*
X14100353Y-59786912D01*
X14175534Y-59976420D01*
X14188656Y-60000972D01*
X14182795Y-60009744D01*
X14104774Y-60198102D01*
X14065000Y-60398061D01*
X14065000Y-60601939D01*
X14104774Y-60801898D01*
X14182795Y-60990256D01*
X14189306Y-61000000D01*
X14182795Y-61009744D01*
X14104774Y-61198102D01*
X14065000Y-61398061D01*
X14065000Y-61601939D01*
X14104774Y-61801898D01*
X14182795Y-61990256D01*
X14188843Y-61999308D01*
X14109423Y-62183184D01*
X14066649Y-62382523D01*
X14063587Y-62586377D01*
X14100353Y-62786912D01*
X14175534Y-62976420D01*
X14188656Y-63000972D01*
X14182795Y-63009744D01*
X14104774Y-63198102D01*
X14065000Y-63398061D01*
X14065000Y-63601939D01*
X14104774Y-63801898D01*
X14182795Y-63990256D01*
X14189306Y-64000000D01*
X14182795Y-64009744D01*
X14104774Y-64198102D01*
X14065000Y-64398061D01*
X14065000Y-64601939D01*
X14104774Y-64801898D01*
X14182795Y-64990256D01*
X14188843Y-64999308D01*
X14109423Y-65183184D01*
X14066649Y-65382523D01*
X14063587Y-65586377D01*
X14100353Y-65786912D01*
X14175534Y-65976420D01*
X14188656Y-66000972D01*
X14182795Y-66009744D01*
X14104774Y-66198102D01*
X14065000Y-66398061D01*
X14065000Y-66601939D01*
X14104774Y-66801898D01*
X14182795Y-66990256D01*
X14189306Y-67000000D01*
X14182795Y-67009744D01*
X14104774Y-67198102D01*
X14065000Y-67398061D01*
X14065000Y-67601939D01*
X14104774Y-67801898D01*
X14182795Y-67990256D01*
X14296063Y-68159774D01*
X14440226Y-68303937D01*
X14531613Y-68365000D01*
X14431963Y-68365000D01*
X14228493Y-68385040D01*
X13967419Y-68464236D01*
X13726812Y-68592843D01*
X13515919Y-68765919D01*
X13342843Y-68976812D01*
X13214236Y-69217419D01*
X13135040Y-69478493D01*
X13108299Y-69750000D01*
X13135040Y-70021507D01*
X13214236Y-70282581D01*
X13342843Y-70523188D01*
X13515919Y-70734081D01*
X13726812Y-70907157D01*
X13967419Y-71035764D01*
X14228493Y-71114960D01*
X14431963Y-71135000D01*
X17568037Y-71135000D01*
X17771507Y-71114960D01*
X18032581Y-71035764D01*
X18273188Y-70907157D01*
X18484081Y-70734081D01*
X18657157Y-70523188D01*
X18785764Y-70282581D01*
X18864960Y-70021507D01*
X18891701Y-69750000D01*
X18864960Y-69478493D01*
X18785764Y-69217419D01*
X18657157Y-68976812D01*
X18484081Y-68765919D01*
X18273188Y-68592843D01*
X18032581Y-68464236D01*
X17771507Y-68385040D01*
X17568037Y-68365000D01*
X15668387Y-68365000D01*
X15759774Y-68303937D01*
X15903937Y-68159774D01*
X16017205Y-67990256D01*
X16095226Y-67801898D01*
X16114213Y-67706441D01*
X16373164Y-67706441D01*
X16396019Y-67909736D01*
X16583184Y-67990577D01*
X16782523Y-68033351D01*
X16986377Y-68036413D01*
X17186912Y-67999647D01*
X17376420Y-67924466D01*
X17403981Y-67909736D01*
X17426836Y-67706441D01*
X16900000Y-67179605D01*
X16373164Y-67706441D01*
X16114213Y-67706441D01*
X16135000Y-67601939D01*
X16135000Y-67520253D01*
X16193559Y-67526836D01*
X16704087Y-67016308D01*
X16798061Y-67035000D01*
X17001939Y-67035000D01*
X17095913Y-67016308D01*
X17606441Y-67526836D01*
X17809736Y-67503981D01*
X17890577Y-67316816D01*
X17933351Y-67117477D01*
X17936413Y-66913623D01*
X17899647Y-66713088D01*
X17824466Y-66523580D01*
X17811344Y-66499028D01*
X17817205Y-66490256D01*
X17895226Y-66301898D01*
X17935000Y-66101939D01*
X17935000Y-65898061D01*
X17895226Y-65698102D01*
X17817205Y-65509744D01*
X17810694Y-65500000D01*
X17817205Y-65490256D01*
X17895226Y-65301898D01*
X17935000Y-65101939D01*
X17935000Y-64898061D01*
X17895226Y-64698102D01*
X17817205Y-64509744D01*
X17811157Y-64500692D01*
X17890577Y-64316816D01*
X17933351Y-64117477D01*
X17936413Y-63913623D01*
X17899647Y-63713088D01*
X17824466Y-63523580D01*
X17811344Y-63499028D01*
X17817205Y-63490256D01*
X17895226Y-63301898D01*
X17935000Y-63101939D01*
X17935000Y-62898061D01*
X17895226Y-62698102D01*
X17817205Y-62509744D01*
X17810694Y-62500000D01*
X17817205Y-62490256D01*
X17895226Y-62301898D01*
X17935000Y-62101939D01*
X17935000Y-61898061D01*
X17895226Y-61698102D01*
X17817205Y-61509744D01*
X17810694Y-61500000D01*
X17817205Y-61490256D01*
X17895226Y-61301898D01*
X17935000Y-61101939D01*
X17935000Y-60898061D01*
X17895226Y-60698102D01*
X17817205Y-60509744D01*
X17810694Y-60500000D01*
X17817205Y-60490256D01*
X17895226Y-60301898D01*
X17935000Y-60101939D01*
X17935000Y-59898061D01*
X17895226Y-59698102D01*
X17817205Y-59509744D01*
X17810694Y-59500000D01*
X17817205Y-59490256D01*
X17895226Y-59301898D01*
X17935000Y-59101939D01*
X17935000Y-58898061D01*
X17895226Y-58698102D01*
X17817205Y-58509744D01*
X17703937Y-58340226D01*
X17559774Y-58196063D01*
X17390256Y-58082795D01*
X17201898Y-58004774D01*
X17001939Y-57965000D01*
X16798061Y-57965000D01*
X16598102Y-58004774D01*
X16409744Y-58082795D01*
X16240226Y-58196063D01*
X16118945Y-58317344D01*
X16095226Y-58198102D01*
X16017205Y-58009744D01*
X15903937Y-57840226D01*
X15759774Y-57696063D01*
X15668387Y-57635000D01*
X17568037Y-57635000D01*
X17771507Y-57614960D01*
X18032581Y-57535764D01*
X18273188Y-57407157D01*
X18484081Y-57234081D01*
X18657157Y-57023188D01*
X18785764Y-56782581D01*
X18864960Y-56521507D01*
X18891701Y-56250000D01*
X18864960Y-55978493D01*
X18785764Y-55717419D01*
X18657157Y-55476812D01*
X18484081Y-55265919D01*
X18273188Y-55092843D01*
X18032581Y-54964236D01*
X17771507Y-54885040D01*
X17568037Y-54865000D01*
X14431963Y-54865000D01*
X14228493Y-54885040D01*
X13967419Y-54964236D01*
X13726812Y-55092843D01*
X13515919Y-55265919D01*
X13342843Y-55476812D01*
X13214236Y-55717419D01*
X13135040Y-55978493D01*
X13108299Y-56250000D01*
X2891701Y-56250000D01*
X2864960Y-55978493D01*
X2785764Y-55717419D01*
X2657157Y-55476812D01*
X2484081Y-55265919D01*
X2273188Y-55092843D01*
X2032581Y-54964236D01*
X1771507Y-54885040D01*
X1568037Y-54865000D01*
X-1568037Y-54865000D01*
X-1771507Y-54885040D01*
X-2032581Y-54964236D01*
X-2273188Y-55092843D01*
X-2484081Y-55265919D01*
X-2657157Y-55476812D01*
X-2785764Y-55717419D01*
X-2864960Y-55978493D01*
X-2891701Y-56250000D01*
X-13108299Y-56250000D01*
X-13135040Y-55978493D01*
X-13214236Y-55717419D01*
X-13342843Y-55476812D01*
X-13515919Y-55265919D01*
X-13726812Y-55092843D01*
X-13967419Y-54964236D01*
X-14228493Y-54885040D01*
X-14431963Y-54865000D01*
X-17568037Y-54865000D01*
X-17771507Y-54885040D01*
X-18032581Y-54964236D01*
X-18273188Y-55092843D01*
X-18484081Y-55265919D01*
X-18657157Y-55476812D01*
X-18785764Y-55717419D01*
X-18864960Y-55978493D01*
X-18891701Y-56250000D01*
X-44693747Y-56250000D01*
X-63383511Y-39144115D01*
X-21366538Y-39144115D01*
X-21062254Y-40211592D01*
X-20555562Y-41199195D01*
X-19865934Y-42068970D01*
X-19019872Y-42787493D01*
X-18049890Y-43327151D01*
X-16993264Y-43667206D01*
X-16806246Y-43704407D01*
X-15922259Y-43635177D01*
X-15922259Y-38260128D01*
X-15668259Y-38260128D01*
X-15668259Y-43635177D01*
X-14784272Y-43704407D01*
X-13716795Y-43400123D01*
X-12729192Y-42893431D01*
X-11859417Y-42203803D01*
X-11140894Y-41357741D01*
X-10601236Y-40387759D01*
X-10261181Y-39331133D01*
X-10223980Y-39144115D01*
X10223980Y-39144115D01*
X10528264Y-40211592D01*
X11034956Y-41199195D01*
X11724584Y-42068970D01*
X12570646Y-42787493D01*
X13540628Y-43327151D01*
X14597254Y-43667206D01*
X14784272Y-43704407D01*
X15668259Y-43635177D01*
X15668259Y-38260128D01*
X15922259Y-38260128D01*
X15922259Y-43635177D01*
X16806246Y-43704407D01*
X17873723Y-43400123D01*
X18861326Y-42893431D01*
X19731101Y-42203803D01*
X20449624Y-41357741D01*
X20989282Y-40387759D01*
X21329337Y-39331133D01*
X21366538Y-39144115D01*
X21297308Y-38260128D01*
X15922259Y-38260128D01*
X15668259Y-38260128D01*
X10293210Y-38260128D01*
X10223980Y-39144115D01*
X-10223980Y-39144115D01*
X-10293210Y-38260128D01*
X-15668259Y-38260128D01*
X-15922259Y-38260128D01*
X-21297308Y-38260128D01*
X-21366538Y-39144115D01*
X-63383511Y-39144115D01*
X-65592704Y-37122141D01*
X-21366538Y-37122141D01*
X-21297308Y-38006128D01*
X-15922259Y-38006128D01*
X-15922259Y-32631079D01*
X-15668259Y-32631079D01*
X-15668259Y-38006128D01*
X-10293210Y-38006128D01*
X-10223980Y-37122141D01*
X10223980Y-37122141D01*
X10293210Y-38006128D01*
X15668259Y-38006128D01*
X15668259Y-32631079D01*
X15922259Y-32631079D01*
X15922259Y-38006128D01*
X21297308Y-38006128D01*
X21366538Y-37122141D01*
X21062254Y-36054664D01*
X20555562Y-35067061D01*
X19865934Y-34197286D01*
X19019872Y-33478763D01*
X18049890Y-32939105D01*
X16993264Y-32599050D01*
X16806246Y-32561849D01*
X15922259Y-32631079D01*
X15668259Y-32631079D01*
X14784272Y-32561849D01*
X13716795Y-32866133D01*
X12729192Y-33372825D01*
X11859417Y-34062453D01*
X11140894Y-34908515D01*
X10601236Y-35878497D01*
X10261181Y-36935123D01*
X10223980Y-37122141D01*
X-10223980Y-37122141D01*
X-10528264Y-36054664D01*
X-11034956Y-35067061D01*
X-11724584Y-34197286D01*
X-12570646Y-33478763D01*
X-13540628Y-32939105D01*
X-14597254Y-32599050D01*
X-14784272Y-32561849D01*
X-15668259Y-32631079D01*
X-15922259Y-32631079D01*
X-16806246Y-32561849D01*
X-17873723Y-32866133D01*
X-18861326Y-33372825D01*
X-19731101Y-34062453D01*
X-20449624Y-34908515D01*
X-20989282Y-35878497D01*
X-21329337Y-36935123D01*
X-21366538Y-37122141D01*
X-65592704Y-37122141D01*
X-81340000Y-22709363D01*
X-81340000Y-14431964D01*
X-76135000Y-14431964D01*
X-76134999Y-17568037D01*
X-76114959Y-17771507D01*
X-76035763Y-18032581D01*
X-75907156Y-18273188D01*
X-75734080Y-18484081D01*
X-75523187Y-18657157D01*
X-75282580Y-18785764D01*
X-75021506Y-18864960D01*
X-74750000Y-18891701D01*
X-74478493Y-18864960D01*
X-74217419Y-18785764D01*
X-73976812Y-18657157D01*
X-73765919Y-18484081D01*
X-73592843Y-18273188D01*
X-73464236Y-18032581D01*
X-73385040Y-17771507D01*
X-73365000Y-17568037D01*
X-73365000Y-17468387D01*
X-73303937Y-17559774D01*
X-73159774Y-17703937D01*
X-72990256Y-17817205D01*
X-72801898Y-17895226D01*
X-72601939Y-17935000D01*
X-72398061Y-17935000D01*
X-72198102Y-17895226D01*
X-72009744Y-17817205D01*
X-72000692Y-17811157D01*
X-71816816Y-17890577D01*
X-71617477Y-17933351D01*
X-71413623Y-17936413D01*
X-71213088Y-17899647D01*
X-71023580Y-17824466D01*
X-70999028Y-17811344D01*
X-70990256Y-17817205D01*
X-70801898Y-17895226D01*
X-70601939Y-17935000D01*
X-70398061Y-17935000D01*
X-70198102Y-17895226D01*
X-70009744Y-17817205D01*
X-70000000Y-17810694D01*
X-69990256Y-17817205D01*
X-69801898Y-17895226D01*
X-69601939Y-17935000D01*
X-69398061Y-17935000D01*
X-69198102Y-17895226D01*
X-69009744Y-17817205D01*
X-69000692Y-17811157D01*
X-68816816Y-17890577D01*
X-68617477Y-17933351D01*
X-68413623Y-17936413D01*
X-68213088Y-17899647D01*
X-68023580Y-17824466D01*
X-67999028Y-17811344D01*
X-67990256Y-17817205D01*
X-67801898Y-17895226D01*
X-67601939Y-17935000D01*
X-67398061Y-17935000D01*
X-67198102Y-17895226D01*
X-67009744Y-17817205D01*
X-67000000Y-17810694D01*
X-66990256Y-17817205D01*
X-66801898Y-17895226D01*
X-66601939Y-17935000D01*
X-66398061Y-17935000D01*
X-66198102Y-17895226D01*
X-66009744Y-17817205D01*
X-66000692Y-17811157D01*
X-65816816Y-17890577D01*
X-65617477Y-17933351D01*
X-65413623Y-17936413D01*
X-65213088Y-17899647D01*
X-65023580Y-17824466D01*
X-64999028Y-17811344D01*
X-64990256Y-17817205D01*
X-64801898Y-17895226D01*
X-64601939Y-17935000D01*
X-64398061Y-17935000D01*
X-64198102Y-17895226D01*
X-64009744Y-17817205D01*
X-64000000Y-17810694D01*
X-63990256Y-17817205D01*
X-63801898Y-17895226D01*
X-63601939Y-17935000D01*
X-63398061Y-17935000D01*
X-63198102Y-17895226D01*
X-63009744Y-17817205D01*
X-62840226Y-17703937D01*
X-62696063Y-17559774D01*
X-62634999Y-17468385D01*
X-62634999Y-17568037D01*
X-62614959Y-17771507D01*
X-62535763Y-18032581D01*
X-62407156Y-18273188D01*
X-62234080Y-18484081D01*
X-62023187Y-18657157D01*
X-61782580Y-18785764D01*
X-61521506Y-18864960D01*
X-61250000Y-18891701D01*
X-60978493Y-18864960D01*
X-60717419Y-18785764D01*
X-60476812Y-18657157D01*
X-60265919Y-18484081D01*
X-60092843Y-18273188D01*
X-59964236Y-18032581D01*
X-59885040Y-17771507D01*
X-59865000Y-17568037D01*
X-59865000Y-16806246D01*
X-43704407Y-16806246D01*
X-43400123Y-17873723D01*
X-42893431Y-18861326D01*
X-42203803Y-19731101D01*
X-41357741Y-20449624D01*
X-40387759Y-20989282D01*
X-39331133Y-21329337D01*
X-39144115Y-21366538D01*
X-38260128Y-21297308D01*
X-38260128Y-15922259D01*
X-38006128Y-15922259D01*
X-38006128Y-21297308D01*
X-37122141Y-21366538D01*
X-36054664Y-21062254D01*
X-35067061Y-20555562D01*
X-34197286Y-19865934D01*
X-33478763Y-19019872D01*
X-32939105Y-18049890D01*
X-32599050Y-16993264D01*
X-32561849Y-16806246D01*
X32561849Y-16806246D01*
X32866133Y-17873723D01*
X33372825Y-18861326D01*
X34062453Y-19731101D01*
X34908515Y-20449624D01*
X35878497Y-20989282D01*
X36935123Y-21329337D01*
X37122141Y-21366538D01*
X38006128Y-21297308D01*
X38006128Y-15922259D01*
X38260128Y-15922259D01*
X38260128Y-21297308D01*
X39144115Y-21366538D01*
X40211592Y-21062254D01*
X41199195Y-20555562D01*
X42068970Y-19865934D01*
X42787493Y-19019872D01*
X43327151Y-18049890D01*
X43667206Y-16993264D01*
X43704407Y-16806246D01*
X43635177Y-15922259D01*
X38260128Y-15922259D01*
X38006128Y-15922259D01*
X32631079Y-15922259D01*
X32561849Y-16806246D01*
X-32561849Y-16806246D01*
X-32631079Y-15922259D01*
X-38006128Y-15922259D01*
X-38260128Y-15922259D01*
X-43635177Y-15922259D01*
X-43704407Y-16806246D01*
X-59865000Y-16806246D01*
X-59865000Y-14784272D01*
X-43704407Y-14784272D01*
X-43635177Y-15668259D01*
X-38260128Y-15668259D01*
X-38260128Y-10293210D01*
X-38006128Y-10293210D01*
X-38006128Y-15668259D01*
X-32631079Y-15668259D01*
X-32561849Y-14784272D01*
X32561849Y-14784272D01*
X32631079Y-15668259D01*
X38006128Y-15668259D01*
X38006128Y-10293210D01*
X38260128Y-10293210D01*
X38260128Y-15668259D01*
X43635177Y-15668259D01*
X43704407Y-14784272D01*
X43400123Y-13716795D01*
X42893431Y-12729192D01*
X42203803Y-11859417D01*
X41357741Y-11140894D01*
X40387759Y-10601236D01*
X39331133Y-10261181D01*
X39144115Y-10223980D01*
X38260128Y-10293210D01*
X38006128Y-10293210D01*
X37122141Y-10223980D01*
X36054664Y-10528264D01*
X35067061Y-11034956D01*
X34197286Y-11724584D01*
X33478763Y-12570646D01*
X32939105Y-13540628D01*
X32599050Y-14597254D01*
X32561849Y-14784272D01*
X-32561849Y-14784272D01*
X-32866133Y-13716795D01*
X-33372825Y-12729192D01*
X-34062453Y-11859417D01*
X-34781128Y-11249078D01*
X-14315000Y-11249078D01*
X-14315000Y-11650922D01*
X-14236604Y-12045046D01*
X-14082825Y-12416303D01*
X-13859572Y-12750424D01*
X-13575424Y-13034572D01*
X-13241303Y-13257825D01*
X-12870046Y-13411604D01*
X-12475922Y-13490000D01*
X-12074078Y-13490000D01*
X-11679954Y-13411604D01*
X-11308697Y-13257825D01*
X-10974576Y-13034572D01*
X-10690428Y-12750424D01*
X-10467175Y-12416303D01*
X-10313396Y-12045046D01*
X-10282984Y-11892152D01*
X-8715000Y-11892152D01*
X-8715000Y-12107848D01*
X-8672920Y-12319400D01*
X-8590376Y-12518677D01*
X-8470542Y-12698022D01*
X-8318022Y-12850542D01*
X-8138677Y-12970376D01*
X-7939400Y-13052920D01*
X-7727848Y-13095000D01*
X-7512152Y-13095000D01*
X-7300600Y-13052920D01*
X-7101323Y-12970376D01*
X-6985000Y-12892652D01*
X-6868677Y-12970376D01*
X-6669400Y-13052920D01*
X-6457848Y-13095000D01*
X-6242152Y-13095000D01*
X-6030600Y-13052920D01*
X-5831323Y-12970376D01*
X-5715000Y-12892652D01*
X-5598677Y-12970376D01*
X-5399400Y-13052920D01*
X-5187848Y-13095000D01*
X-4972152Y-13095000D01*
X-4760600Y-13052920D01*
X-4561323Y-12970376D01*
X-4445000Y-12892652D01*
X-4328677Y-12970376D01*
X-4129400Y-13052920D01*
X-3917848Y-13095000D01*
X-3702152Y-13095000D01*
X-3490600Y-13052920D01*
X-3291323Y-12970376D01*
X-3175000Y-12892652D01*
X-3058677Y-12970376D01*
X-2859400Y-13052920D01*
X-2647848Y-13095000D01*
X-2432152Y-13095000D01*
X-2220600Y-13052920D01*
X-2021323Y-12970376D01*
X-1905000Y-12892652D01*
X-1788677Y-12970376D01*
X-1589400Y-13052920D01*
X-1377848Y-13095000D01*
X-1162152Y-13095000D01*
X-950600Y-13052920D01*
X-751323Y-12970376D01*
X-635000Y-12892652D01*
X-518677Y-12970376D01*
X-319400Y-13052920D01*
X-107848Y-13095000D01*
X107848Y-13095000D01*
X319400Y-13052920D01*
X518677Y-12970376D01*
X635000Y-12892652D01*
X751323Y-12970376D01*
X950600Y-13052920D01*
X1162152Y-13095000D01*
X1377848Y-13095000D01*
X1589400Y-13052920D01*
X1788677Y-12970376D01*
X1905000Y-12892652D01*
X2021323Y-12970376D01*
X2220600Y-13052920D01*
X2432152Y-13095000D01*
X2647848Y-13095000D01*
X2859400Y-13052920D01*
X3058677Y-12970376D01*
X3175000Y-12892652D01*
X3291323Y-12970376D01*
X3490600Y-13052920D01*
X3702152Y-13095000D01*
X3917848Y-13095000D01*
X4129400Y-13052920D01*
X4328677Y-12970376D01*
X4445000Y-12892652D01*
X4561323Y-12970376D01*
X4760600Y-13052920D01*
X4972152Y-13095000D01*
X5187848Y-13095000D01*
X5399400Y-13052920D01*
X5598677Y-12970376D01*
X5715000Y-12892652D01*
X5831323Y-12970376D01*
X6030600Y-13052920D01*
X6242152Y-13095000D01*
X6457848Y-13095000D01*
X6669400Y-13052920D01*
X6868677Y-12970376D01*
X6985000Y-12892652D01*
X7101323Y-12970376D01*
X7300600Y-13052920D01*
X7512152Y-13095000D01*
X7727848Y-13095000D01*
X7939400Y-13052920D01*
X8138677Y-12970376D01*
X8318022Y-12850542D01*
X8470542Y-12698022D01*
X8590376Y-12518677D01*
X8672920Y-12319400D01*
X8715000Y-12107848D01*
X8715000Y-11892152D01*
X8672920Y-11680600D01*
X8590376Y-11481323D01*
X8470542Y-11301978D01*
X8417642Y-11249078D01*
X10235000Y-11249078D01*
X10235000Y-11650922D01*
X10313396Y-12045046D01*
X10467175Y-12416303D01*
X10690428Y-12750424D01*
X10974576Y-13034572D01*
X11308697Y-13257825D01*
X11679954Y-13411604D01*
X12074078Y-13490000D01*
X12475922Y-13490000D01*
X12870046Y-13411604D01*
X13241303Y-13257825D01*
X13575424Y-13034572D01*
X13859572Y-12750424D01*
X14082825Y-12416303D01*
X14236604Y-12045046D01*
X14315000Y-11650922D01*
X14315000Y-11249078D01*
X14236604Y-10854954D01*
X14082825Y-10483697D01*
X13859572Y-10149576D01*
X13575424Y-9865428D01*
X13241303Y-9642175D01*
X12870046Y-9488396D01*
X12475922Y-9410000D01*
X12074078Y-9410000D01*
X11679954Y-9488396D01*
X11308697Y-9642175D01*
X10974576Y-9865428D01*
X10690428Y-10149576D01*
X10467175Y-10483697D01*
X10313396Y-10854954D01*
X10235000Y-11249078D01*
X8417642Y-11249078D01*
X8318022Y-11149458D01*
X8138677Y-11029624D01*
X8080000Y-11005319D01*
X8080000Y-10792152D01*
X8037920Y-10580600D01*
X7955376Y-10381323D01*
X7835542Y-10201978D01*
X7683022Y-10049458D01*
X7503677Y-9929624D01*
X7304400Y-9847080D01*
X7092848Y-9805000D01*
X6877152Y-9805000D01*
X6665600Y-9847080D01*
X6466323Y-9929624D01*
X6350000Y-10007348D01*
X6233677Y-9929624D01*
X6034400Y-9847080D01*
X5822848Y-9805000D01*
X5607152Y-9805000D01*
X5395600Y-9847080D01*
X5196323Y-9929624D01*
X5080000Y-10007348D01*
X4963677Y-9929624D01*
X4764400Y-9847080D01*
X4552848Y-9805000D01*
X4337152Y-9805000D01*
X4125600Y-9847080D01*
X3926323Y-9929624D01*
X3810000Y-10007348D01*
X3693677Y-9929624D01*
X3494400Y-9847080D01*
X3282848Y-9805000D01*
X3067152Y-9805000D01*
X2855600Y-9847080D01*
X2656323Y-9929624D01*
X2540000Y-10007348D01*
X2423677Y-9929624D01*
X2224400Y-9847080D01*
X2012848Y-9805000D01*
X1797152Y-9805000D01*
X1585600Y-9847080D01*
X1386323Y-9929624D01*
X1270000Y-10007348D01*
X1153677Y-9929624D01*
X954400Y-9847080D01*
X742848Y-9805000D01*
X527152Y-9805000D01*
X315600Y-9847080D01*
X116323Y-9929624D01*
X0Y-10007348D01*
X-116323Y-9929624D01*
X-315600Y-9847080D01*
X-527152Y-9805000D01*
X-742848Y-9805000D01*
X-954400Y-9847080D01*
X-1153677Y-9929624D01*
X-1270000Y-10007348D01*
X-1386323Y-9929624D01*
X-1585600Y-9847080D01*
X-1797152Y-9805000D01*
X-2012848Y-9805000D01*
X-2224400Y-9847080D01*
X-2423677Y-9929624D01*
X-2540000Y-10007348D01*
X-2656323Y-9929624D01*
X-2855600Y-9847080D01*
X-3067152Y-9805000D01*
X-3282848Y-9805000D01*
X-3494400Y-9847080D01*
X-3693677Y-9929624D01*
X-3810000Y-10007348D01*
X-3926323Y-9929624D01*
X-4125600Y-9847080D01*
X-4337152Y-9805000D01*
X-4552848Y-9805000D01*
X-4764400Y-9847080D01*
X-4963677Y-9929624D01*
X-5080000Y-10007348D01*
X-5196323Y-9929624D01*
X-5395600Y-9847080D01*
X-5607152Y-9805000D01*
X-5822848Y-9805000D01*
X-6034400Y-9847080D01*
X-6233677Y-9929624D01*
X-6350000Y-10007348D01*
X-6466323Y-9929624D01*
X-6665600Y-9847080D01*
X-6877152Y-9805000D01*
X-7092848Y-9805000D01*
X-7304400Y-9847080D01*
X-7503677Y-9929624D01*
X-7683022Y-10049458D01*
X-7835542Y-10201978D01*
X-7955376Y-10381323D01*
X-8037920Y-10580600D01*
X-8080000Y-10792152D01*
X-8080000Y-11005319D01*
X-8138677Y-11029624D01*
X-8318022Y-11149458D01*
X-8470542Y-11301978D01*
X-8590376Y-11481323D01*
X-8672920Y-11680600D01*
X-8715000Y-11892152D01*
X-10282984Y-11892152D01*
X-10235000Y-11650922D01*
X-10235000Y-11249078D01*
X-10313396Y-10854954D01*
X-10467175Y-10483697D01*
X-10690428Y-10149576D01*
X-10974576Y-9865428D01*
X-11308697Y-9642175D01*
X-11679954Y-9488396D01*
X-12074078Y-9410000D01*
X-12475922Y-9410000D01*
X-12870046Y-9488396D01*
X-13241303Y-9642175D01*
X-13575424Y-9865428D01*
X-13859572Y-10149576D01*
X-14082825Y-10483697D01*
X-14236604Y-10854954D01*
X-14315000Y-11249078D01*
X-34781128Y-11249078D01*
X-34908515Y-11140894D01*
X-35878497Y-10601236D01*
X-36935123Y-10261181D01*
X-37122141Y-10223980D01*
X-38006128Y-10293210D01*
X-38260128Y-10293210D01*
X-39144115Y-10223980D01*
X-40211592Y-10528264D01*
X-41199195Y-11034956D01*
X-42068970Y-11724584D01*
X-42787493Y-12570646D01*
X-43327151Y-13540628D01*
X-43667206Y-14597254D01*
X-43704407Y-14784272D01*
X-59865000Y-14784272D01*
X-59865000Y-14431963D01*
X-59885040Y-14228493D01*
X-59964236Y-13967419D01*
X-60092843Y-13726812D01*
X-60265920Y-13515919D01*
X-60476813Y-13342843D01*
X-60717420Y-13214236D01*
X-60978494Y-13135040D01*
X-61250000Y-13108299D01*
X-61521507Y-13135040D01*
X-61782581Y-13214236D01*
X-62023188Y-13342843D01*
X-62234081Y-13515920D01*
X-62407157Y-13726813D01*
X-62535764Y-13967420D01*
X-62614960Y-14228494D01*
X-62635000Y-14431964D01*
X-62634999Y-16331614D01*
X-62696063Y-16240226D01*
X-62840226Y-16096063D01*
X-63009744Y-15982795D01*
X-63198102Y-15904774D01*
X-63398061Y-15865000D01*
X-63479747Y-15865000D01*
X-63473164Y-15806441D01*
X-63983692Y-15295913D01*
X-63965000Y-15201939D01*
X-63965000Y-15100000D01*
X-63820395Y-15100000D01*
X-63293559Y-15626836D01*
X-63090264Y-15603981D01*
X-63009423Y-15416816D01*
X-62966649Y-15217477D01*
X-62963587Y-15013623D01*
X-63000353Y-14813088D01*
X-63075534Y-14623580D01*
X-63090264Y-14596019D01*
X-63293559Y-14573164D01*
X-63820395Y-15100000D01*
X-63965000Y-15100000D01*
X-63965000Y-14998061D01*
X-63983692Y-14904087D01*
X-63473164Y-14393559D01*
X-63496019Y-14190264D01*
X-63683184Y-14109423D01*
X-63882523Y-14066649D01*
X-64086377Y-14063587D01*
X-64286912Y-14100353D01*
X-64476420Y-14175534D01*
X-64500972Y-14188656D01*
X-64509744Y-14182795D01*
X-64698102Y-14104774D01*
X-64898061Y-14065000D01*
X-65101939Y-14065000D01*
X-65301898Y-14104774D01*
X-65490256Y-14182795D01*
X-65500000Y-14189306D01*
X-65509744Y-14182795D01*
X-65698102Y-14104774D01*
X-65898061Y-14065000D01*
X-66101939Y-14065000D01*
X-66301898Y-14104774D01*
X-66490256Y-14182795D01*
X-66499308Y-14188843D01*
X-66683184Y-14109423D01*
X-66882523Y-14066649D01*
X-67086377Y-14063587D01*
X-67286912Y-14100353D01*
X-67476420Y-14175534D01*
X-67500972Y-14188656D01*
X-67509744Y-14182795D01*
X-67698102Y-14104774D01*
X-67898061Y-14065000D01*
X-68101939Y-14065000D01*
X-68301898Y-14104774D01*
X-68490256Y-14182795D01*
X-68500000Y-14189306D01*
X-68509744Y-14182795D01*
X-68698102Y-14104774D01*
X-68898061Y-14065000D01*
X-69101939Y-14065000D01*
X-69301898Y-14104774D01*
X-69490256Y-14182795D01*
X-69500000Y-14189306D01*
X-69509744Y-14182795D01*
X-69698102Y-14104774D01*
X-69898061Y-14065000D01*
X-70101939Y-14065000D01*
X-70301898Y-14104774D01*
X-70490256Y-14182795D01*
X-70500000Y-14189306D01*
X-70509744Y-14182795D01*
X-70698102Y-14104774D01*
X-70898061Y-14065000D01*
X-71101939Y-14065000D01*
X-71301898Y-14104774D01*
X-71490256Y-14182795D01*
X-71500000Y-14189306D01*
X-71509744Y-14182795D01*
X-71698102Y-14104774D01*
X-71898061Y-14065000D01*
X-72101939Y-14065000D01*
X-72301898Y-14104774D01*
X-72490256Y-14182795D01*
X-72659774Y-14296063D01*
X-72803937Y-14440226D01*
X-72917205Y-14609744D01*
X-72995226Y-14798102D01*
X-73035000Y-14998061D01*
X-73035000Y-15201939D01*
X-72995226Y-15401898D01*
X-72917205Y-15590256D01*
X-72803937Y-15759774D01*
X-72682656Y-15881055D01*
X-72801898Y-15904774D01*
X-72990256Y-15982795D01*
X-73159774Y-16096063D01*
X-73303937Y-16240226D01*
X-73365000Y-16331613D01*
X-73365000Y-14431963D01*
X-73385040Y-14228493D01*
X-73464236Y-13967419D01*
X-73592843Y-13726812D01*
X-73765920Y-13515919D01*
X-73976813Y-13342843D01*
X-74217420Y-13214236D01*
X-74478494Y-13135040D01*
X-74750000Y-13108299D01*
X-75021507Y-13135040D01*
X-75282581Y-13214236D01*
X-75523188Y-13342843D01*
X-75734081Y-13515920D01*
X-75907157Y-13726813D01*
X-76035764Y-13967420D01*
X-76114960Y-14228494D01*
X-76135000Y-14431964D01*
X-81340000Y-14431964D01*
X-81340000Y1568036D01*
X-76135000Y1568036D01*
X-76134999Y-1568037D01*
X-76114959Y-1771507D01*
X-76035763Y-2032581D01*
X-75907156Y-2273188D01*
X-75734080Y-2484081D01*
X-75523187Y-2657157D01*
X-75282580Y-2785764D01*
X-75021506Y-2864960D01*
X-74750000Y-2891701D01*
X-74478493Y-2864960D01*
X-74217419Y-2785764D01*
X-73976812Y-2657157D01*
X-73765919Y-2484081D01*
X-73592843Y-2273188D01*
X-73464236Y-2032581D01*
X-73385040Y-1771507D01*
X-73365000Y-1568037D01*
X-73365000Y-1468387D01*
X-73303937Y-1559774D01*
X-73159774Y-1703937D01*
X-72990256Y-1817205D01*
X-72801898Y-1895226D01*
X-72601939Y-1935000D01*
X-72398061Y-1935000D01*
X-72198102Y-1895226D01*
X-72009744Y-1817205D01*
X-72000692Y-1811157D01*
X-71816816Y-1890577D01*
X-71617477Y-1933351D01*
X-71413623Y-1936413D01*
X-71213088Y-1899647D01*
X-71023580Y-1824466D01*
X-70999028Y-1811344D01*
X-70990256Y-1817205D01*
X-70801898Y-1895226D01*
X-70601939Y-1935000D01*
X-70398061Y-1935000D01*
X-70198102Y-1895226D01*
X-70009744Y-1817205D01*
X-70000000Y-1810694D01*
X-69990256Y-1817205D01*
X-69801898Y-1895226D01*
X-69601939Y-1935000D01*
X-69398061Y-1935000D01*
X-69198102Y-1895226D01*
X-69009744Y-1817205D01*
X-69000692Y-1811157D01*
X-68816816Y-1890577D01*
X-68617477Y-1933351D01*
X-68413623Y-1936413D01*
X-68213088Y-1899647D01*
X-68023580Y-1824466D01*
X-67999028Y-1811344D01*
X-67990256Y-1817205D01*
X-67801898Y-1895226D01*
X-67601939Y-1935000D01*
X-67398061Y-1935000D01*
X-67198102Y-1895226D01*
X-67009744Y-1817205D01*
X-67000000Y-1810694D01*
X-66990256Y-1817205D01*
X-66801898Y-1895226D01*
X-66601939Y-1935000D01*
X-66398061Y-1935000D01*
X-66198102Y-1895226D01*
X-66009744Y-1817205D01*
X-66000692Y-1811157D01*
X-65816816Y-1890577D01*
X-65617477Y-1933351D01*
X-65413623Y-1936413D01*
X-65213088Y-1899647D01*
X-65023580Y-1824466D01*
X-64999028Y-1811344D01*
X-64990256Y-1817205D01*
X-64801898Y-1895226D01*
X-64601939Y-1935000D01*
X-64398061Y-1935000D01*
X-64198102Y-1895226D01*
X-64009744Y-1817205D01*
X-64000000Y-1810694D01*
X-63990256Y-1817205D01*
X-63801898Y-1895226D01*
X-63601939Y-1935000D01*
X-63398061Y-1935000D01*
X-63198102Y-1895226D01*
X-63009744Y-1817205D01*
X-62840226Y-1703937D01*
X-62696063Y-1559774D01*
X-62634999Y-1468385D01*
X-62634999Y-1568037D01*
X-62614959Y-1771507D01*
X-62535763Y-2032581D01*
X-62407156Y-2273188D01*
X-62234080Y-2484081D01*
X-62023187Y-2657157D01*
X-61782580Y-2785764D01*
X-61521506Y-2864960D01*
X-61250000Y-2891701D01*
X-60978493Y-2864960D01*
X-60717419Y-2785764D01*
X-60476812Y-2657157D01*
X-60265919Y-2484081D01*
X-60092843Y-2273188D01*
X-59964236Y-2032581D01*
X-59885040Y-1771507D01*
X-59865000Y-1568037D01*
X-59865000Y750922D01*
X-14315000Y750922D01*
X-14315000Y349078D01*
X-14236604Y-45046D01*
X-14082825Y-416303D01*
X-13859572Y-750424D01*
X-13575424Y-1034572D01*
X-13241303Y-1257825D01*
X-12870046Y-1411604D01*
X-12475922Y-1490000D01*
X-12074078Y-1490000D01*
X-11679954Y-1411604D01*
X-11308697Y-1257825D01*
X-10974576Y-1034572D01*
X-10690428Y-750424D01*
X-10467175Y-416303D01*
X-10313396Y-45046D01*
X-10282984Y107848D01*
X-8715000Y107848D01*
X-8715000Y-107848D01*
X-8672920Y-319400D01*
X-8590376Y-518677D01*
X-8470542Y-698022D01*
X-8318022Y-850542D01*
X-8138677Y-970376D01*
X-7939400Y-1052920D01*
X-7727848Y-1095000D01*
X-7512152Y-1095000D01*
X-7300600Y-1052920D01*
X-7101323Y-970376D01*
X-6985000Y-892652D01*
X-6868677Y-970376D01*
X-6669400Y-1052920D01*
X-6457848Y-1095000D01*
X-6242152Y-1095000D01*
X-6030600Y-1052920D01*
X-5831323Y-970376D01*
X-5715000Y-892652D01*
X-5598677Y-970376D01*
X-5399400Y-1052920D01*
X-5187848Y-1095000D01*
X-4972152Y-1095000D01*
X-4760600Y-1052920D01*
X-4561323Y-970376D01*
X-4445000Y-892652D01*
X-4328677Y-970376D01*
X-4129400Y-1052920D01*
X-3917848Y-1095000D01*
X-3702152Y-1095000D01*
X-3490600Y-1052920D01*
X-3291323Y-970376D01*
X-3175000Y-892652D01*
X-3058677Y-970376D01*
X-2859400Y-1052920D01*
X-2647848Y-1095000D01*
X-2432152Y-1095000D01*
X-2220600Y-1052920D01*
X-2021323Y-970376D01*
X-1905000Y-892652D01*
X-1788677Y-970376D01*
X-1589400Y-1052920D01*
X-1377848Y-1095000D01*
X-1162152Y-1095000D01*
X-950600Y-1052920D01*
X-751323Y-970376D01*
X-635000Y-892652D01*
X-518677Y-970376D01*
X-319400Y-1052920D01*
X-107848Y-1095000D01*
X107848Y-1095000D01*
X319400Y-1052920D01*
X518677Y-970376D01*
X635000Y-892652D01*
X751323Y-970376D01*
X950600Y-1052920D01*
X1162152Y-1095000D01*
X1377848Y-1095000D01*
X1589400Y-1052920D01*
X1788677Y-970376D01*
X1905000Y-892652D01*
X2021323Y-970376D01*
X2220600Y-1052920D01*
X2432152Y-1095000D01*
X2647848Y-1095000D01*
X2859400Y-1052920D01*
X3058677Y-970376D01*
X3175000Y-892652D01*
X3291323Y-970376D01*
X3490600Y-1052920D01*
X3702152Y-1095000D01*
X3917848Y-1095000D01*
X4129400Y-1052920D01*
X4328677Y-970376D01*
X4445000Y-892652D01*
X4561323Y-970376D01*
X4760600Y-1052920D01*
X4972152Y-1095000D01*
X5187848Y-1095000D01*
X5399400Y-1052920D01*
X5598677Y-970376D01*
X5715000Y-892652D01*
X5831323Y-970376D01*
X6030600Y-1052920D01*
X6242152Y-1095000D01*
X6457848Y-1095000D01*
X6669400Y-1052920D01*
X6868677Y-970376D01*
X6985000Y-892652D01*
X7101323Y-970376D01*
X7300600Y-1052920D01*
X7512152Y-1095000D01*
X7727848Y-1095000D01*
X7939400Y-1052920D01*
X8138677Y-970376D01*
X8318022Y-850542D01*
X8470542Y-698022D01*
X8590376Y-518677D01*
X8672920Y-319400D01*
X8715000Y-107848D01*
X8715000Y107848D01*
X8672920Y319400D01*
X8590376Y518677D01*
X8470542Y698022D01*
X8417642Y750922D01*
X10235000Y750922D01*
X10235000Y349078D01*
X10313396Y-45046D01*
X10467175Y-416303D01*
X10690428Y-750424D01*
X10974576Y-1034572D01*
X11308697Y-1257825D01*
X11679954Y-1411604D01*
X12074078Y-1490000D01*
X12475922Y-1490000D01*
X12870046Y-1411604D01*
X13241303Y-1257825D01*
X13575424Y-1034572D01*
X13859572Y-750424D01*
X14082825Y-416303D01*
X14236604Y-45046D01*
X14315000Y349078D01*
X14315000Y750922D01*
X14236604Y1145046D01*
X14082825Y1516303D01*
X13859572Y1850424D01*
X13575424Y2134572D01*
X13241303Y2357825D01*
X12870046Y2511604D01*
X12475922Y2590000D01*
X12074078Y2590000D01*
X11679954Y2511604D01*
X11308697Y2357825D01*
X10974576Y2134572D01*
X10690428Y1850424D01*
X10467175Y1516303D01*
X10313396Y1145046D01*
X10235000Y750922D01*
X8417642Y750922D01*
X8318022Y850542D01*
X8138677Y970376D01*
X8080000Y994681D01*
X8080000Y1207848D01*
X8037920Y1419400D01*
X7955376Y1618677D01*
X7835542Y1798022D01*
X7683022Y1950542D01*
X7503677Y2070376D01*
X7304400Y2152920D01*
X7092848Y2195000D01*
X6877152Y2195000D01*
X6665600Y2152920D01*
X6466323Y2070376D01*
X6350000Y1992652D01*
X6233677Y2070376D01*
X6034400Y2152920D01*
X5822848Y2195000D01*
X5607152Y2195000D01*
X5395600Y2152920D01*
X5196323Y2070376D01*
X5080000Y1992652D01*
X4963677Y2070376D01*
X4764400Y2152920D01*
X4552848Y2195000D01*
X4337152Y2195000D01*
X4125600Y2152920D01*
X3926323Y2070376D01*
X3810000Y1992652D01*
X3693677Y2070376D01*
X3494400Y2152920D01*
X3282848Y2195000D01*
X3067152Y2195000D01*
X2855600Y2152920D01*
X2656323Y2070376D01*
X2540000Y1992652D01*
X2423677Y2070376D01*
X2224400Y2152920D01*
X2012848Y2195000D01*
X1797152Y2195000D01*
X1585600Y2152920D01*
X1386323Y2070376D01*
X1270000Y1992652D01*
X1153677Y2070376D01*
X954400Y2152920D01*
X742848Y2195000D01*
X527152Y2195000D01*
X315600Y2152920D01*
X116323Y2070376D01*
X0Y1992652D01*
X-116323Y2070376D01*
X-315600Y2152920D01*
X-527152Y2195000D01*
X-742848Y2195000D01*
X-954400Y2152920D01*
X-1153677Y2070376D01*
X-1270000Y1992652D01*
X-1386323Y2070376D01*
X-1585600Y2152920D01*
X-1797152Y2195000D01*
X-2012848Y2195000D01*
X-2224400Y2152920D01*
X-2423677Y2070376D01*
X-2540000Y1992652D01*
X-2656323Y2070376D01*
X-2855600Y2152920D01*
X-3067152Y2195000D01*
X-3282848Y2195000D01*
X-3494400Y2152920D01*
X-3693677Y2070376D01*
X-3810000Y1992652D01*
X-3926323Y2070376D01*
X-4125600Y2152920D01*
X-4337152Y2195000D01*
X-4552848Y2195000D01*
X-4764400Y2152920D01*
X-4963677Y2070376D01*
X-5080000Y1992652D01*
X-5196323Y2070376D01*
X-5395600Y2152920D01*
X-5607152Y2195000D01*
X-5822848Y2195000D01*
X-6034400Y2152920D01*
X-6233677Y2070376D01*
X-6350000Y1992652D01*
X-6466323Y2070376D01*
X-6665600Y2152920D01*
X-6877152Y2195000D01*
X-7092848Y2195000D01*
X-7304400Y2152920D01*
X-7503677Y2070376D01*
X-7683022Y1950542D01*
X-7835542Y1798022D01*
X-7955376Y1618677D01*
X-8037920Y1419400D01*
X-8080000Y1207848D01*
X-8080000Y994681D01*
X-8138677Y970376D01*
X-8318022Y850542D01*
X-8470542Y698022D01*
X-8590376Y518677D01*
X-8672920Y319400D01*
X-8715000Y107848D01*
X-10282984Y107848D01*
X-10235000Y349078D01*
X-10235000Y750922D01*
X-10313396Y1145046D01*
X-10467175Y1516303D01*
X-10690428Y1850424D01*
X-10974576Y2134572D01*
X-11308697Y2357825D01*
X-11679954Y2511604D01*
X-12074078Y2590000D01*
X-12475922Y2590000D01*
X-12870046Y2511604D01*
X-13241303Y2357825D01*
X-13575424Y2134572D01*
X-13859572Y1850424D01*
X-14082825Y1516303D01*
X-14236604Y1145046D01*
X-14315000Y750922D01*
X-59865000Y750922D01*
X-59865000Y1568037D01*
X-59885040Y1771507D01*
X-59964236Y2032581D01*
X-60092843Y2273188D01*
X-60265920Y2484081D01*
X-60476813Y2657157D01*
X-60717420Y2785764D01*
X-60978494Y2864960D01*
X-61250000Y2891701D01*
X-61521507Y2864960D01*
X-61782581Y2785764D01*
X-62023188Y2657157D01*
X-62234081Y2484080D01*
X-62407157Y2273187D01*
X-62535764Y2032580D01*
X-62614960Y1771506D01*
X-62635000Y1568036D01*
X-62634999Y-331614D01*
X-62696063Y-240226D01*
X-62840226Y-96063D01*
X-63009744Y17205D01*
X-63198102Y95226D01*
X-63398061Y135000D01*
X-63479747Y135000D01*
X-63473164Y193559D01*
X-63983692Y704087D01*
X-63965000Y798061D01*
X-63965000Y900000D01*
X-63820395Y900000D01*
X-63293559Y373164D01*
X-63090264Y396019D01*
X-63009423Y583184D01*
X-62966649Y782523D01*
X-62963587Y986377D01*
X-63000353Y1186912D01*
X-63075534Y1376420D01*
X-63090264Y1403981D01*
X-63293559Y1426836D01*
X-63820395Y900000D01*
X-63965000Y900000D01*
X-63965000Y1001939D01*
X-63983692Y1095913D01*
X-63473164Y1606441D01*
X-63496019Y1809736D01*
X-63683184Y1890577D01*
X-63882523Y1933351D01*
X-64086377Y1936413D01*
X-64286912Y1899647D01*
X-64476420Y1824466D01*
X-64500972Y1811344D01*
X-64509744Y1817205D01*
X-64698102Y1895226D01*
X-64898061Y1935000D01*
X-65101939Y1935000D01*
X-65301898Y1895226D01*
X-65490256Y1817205D01*
X-65500000Y1810694D01*
X-65509744Y1817205D01*
X-65698102Y1895226D01*
X-65898061Y1935000D01*
X-66101939Y1935000D01*
X-66301898Y1895226D01*
X-66490256Y1817205D01*
X-66499308Y1811157D01*
X-66683184Y1890577D01*
X-66882523Y1933351D01*
X-67086377Y1936413D01*
X-67286912Y1899647D01*
X-67476420Y1824466D01*
X-67500972Y1811344D01*
X-67509744Y1817205D01*
X-67698102Y1895226D01*
X-67898061Y1935000D01*
X-68101939Y1935000D01*
X-68301898Y1895226D01*
X-68490256Y1817205D01*
X-68500000Y1810694D01*
X-68509744Y1817205D01*
X-68698102Y1895226D01*
X-68898061Y1935000D01*
X-69101939Y1935000D01*
X-69301898Y1895226D01*
X-69490256Y1817205D01*
X-69500000Y1810694D01*
X-69509744Y1817205D01*
X-69698102Y1895226D01*
X-69898061Y1935000D01*
X-70101939Y1935000D01*
X-70301898Y1895226D01*
X-70490256Y1817205D01*
X-70500000Y1810694D01*
X-70509744Y1817205D01*
X-70698102Y1895226D01*
X-70898061Y1935000D01*
X-71101939Y1935000D01*
X-71301898Y1895226D01*
X-71490256Y1817205D01*
X-71500000Y1810694D01*
X-71509744Y1817205D01*
X-71698102Y1895226D01*
X-71898061Y1935000D01*
X-72101939Y1935000D01*
X-72301898Y1895226D01*
X-72490256Y1817205D01*
X-72659774Y1703937D01*
X-72803937Y1559774D01*
X-72917205Y1390256D01*
X-72995226Y1201898D01*
X-73035000Y1001939D01*
X-73035000Y798061D01*
X-72995226Y598102D01*
X-72917205Y409744D01*
X-72803937Y240226D01*
X-72682656Y118945D01*
X-72801898Y95226D01*
X-72990256Y17205D01*
X-73159774Y-96063D01*
X-73303937Y-240226D01*
X-73365000Y-331613D01*
X-73365000Y1568037D01*
X-73385040Y1771507D01*
X-73464236Y2032581D01*
X-73592843Y2273188D01*
X-73765920Y2484081D01*
X-73976813Y2657157D01*
X-74217420Y2785764D01*
X-74478494Y2864960D01*
X-74750000Y2891701D01*
X-75021507Y2864960D01*
X-75282581Y2785764D01*
X-75523188Y2657157D01*
X-75734081Y2484080D01*
X-75907157Y2273187D01*
X-76035764Y2032580D01*
X-76114960Y1771506D01*
X-76135000Y1568036D01*
X-81340000Y1568036D01*
X-81340000Y17568036D01*
X-76135000Y17568036D01*
X-76134999Y14431963D01*
X-76114959Y14228493D01*
X-76035763Y13967419D01*
X-75907156Y13726812D01*
X-75734080Y13515919D01*
X-75523187Y13342843D01*
X-75282580Y13214236D01*
X-75021506Y13135040D01*
X-74750000Y13108299D01*
X-74478493Y13135040D01*
X-74217419Y13214236D01*
X-73976812Y13342843D01*
X-73765919Y13515919D01*
X-73592843Y13726812D01*
X-73464236Y13967419D01*
X-73385040Y14228493D01*
X-73365000Y14431963D01*
X-73365000Y14531613D01*
X-73303937Y14440226D01*
X-73159774Y14296063D01*
X-72990256Y14182795D01*
X-72801898Y14104774D01*
X-72601939Y14065000D01*
X-72398061Y14065000D01*
X-72198102Y14104774D01*
X-72009744Y14182795D01*
X-72000692Y14188843D01*
X-71816816Y14109423D01*
X-71617477Y14066649D01*
X-71413623Y14063587D01*
X-71213088Y14100353D01*
X-71023580Y14175534D01*
X-70999028Y14188656D01*
X-70990256Y14182795D01*
X-70801898Y14104774D01*
X-70601939Y14065000D01*
X-70398061Y14065000D01*
X-70198102Y14104774D01*
X-70009744Y14182795D01*
X-70000000Y14189306D01*
X-69990256Y14182795D01*
X-69801898Y14104774D01*
X-69601939Y14065000D01*
X-69398061Y14065000D01*
X-69198102Y14104774D01*
X-69009744Y14182795D01*
X-69000692Y14188843D01*
X-68816816Y14109423D01*
X-68617477Y14066649D01*
X-68413623Y14063587D01*
X-68213088Y14100353D01*
X-68023580Y14175534D01*
X-67999028Y14188656D01*
X-67990256Y14182795D01*
X-67801898Y14104774D01*
X-67601939Y14065000D01*
X-67398061Y14065000D01*
X-67198102Y14104774D01*
X-67009744Y14182795D01*
X-67000000Y14189306D01*
X-66990256Y14182795D01*
X-66801898Y14104774D01*
X-66601939Y14065000D01*
X-66398061Y14065000D01*
X-66198102Y14104774D01*
X-66009744Y14182795D01*
X-66000692Y14188843D01*
X-65816816Y14109423D01*
X-65617477Y14066649D01*
X-65413623Y14063587D01*
X-65213088Y14100353D01*
X-65023580Y14175534D01*
X-64999028Y14188656D01*
X-64990256Y14182795D01*
X-64801898Y14104774D01*
X-64601939Y14065000D01*
X-64398061Y14065000D01*
X-64198102Y14104774D01*
X-64009744Y14182795D01*
X-64000000Y14189306D01*
X-63990256Y14182795D01*
X-63801898Y14104774D01*
X-63601939Y14065000D01*
X-63398061Y14065000D01*
X-63198102Y14104774D01*
X-63009744Y14182795D01*
X-62840226Y14296063D01*
X-62696063Y14440226D01*
X-62634999Y14531615D01*
X-62634999Y14431963D01*
X-62614959Y14228493D01*
X-62535763Y13967419D01*
X-62407156Y13726812D01*
X-62234080Y13515919D01*
X-62023187Y13342843D01*
X-61782580Y13214236D01*
X-61521506Y13135040D01*
X-61250000Y13108299D01*
X-60978493Y13135040D01*
X-60717419Y13214236D01*
X-60476812Y13342843D01*
X-60265919Y13515919D01*
X-60092843Y13726812D01*
X-59964236Y13967419D01*
X-59885040Y14228493D01*
X-59865000Y14431963D01*
X-59865000Y14784272D01*
X-43704407Y14784272D01*
X-43400123Y13716795D01*
X-42893431Y12729192D01*
X-42203803Y11859417D01*
X-41357741Y11140894D01*
X-40387759Y10601236D01*
X-39331133Y10261181D01*
X-39144115Y10223980D01*
X-38260128Y10293210D01*
X-38260128Y15668259D01*
X-38006128Y15668259D01*
X-38006128Y10293210D01*
X-37122141Y10223980D01*
X-36054664Y10528264D01*
X-35067061Y11034956D01*
X-34197286Y11724584D01*
X-33478763Y12570646D01*
X-33378465Y12750922D01*
X-14315000Y12750922D01*
X-14315000Y12349078D01*
X-14236604Y11954954D01*
X-14082825Y11583697D01*
X-13859572Y11249576D01*
X-13575424Y10965428D01*
X-13241303Y10742175D01*
X-12870046Y10588396D01*
X-12475922Y10510000D01*
X-12074078Y10510000D01*
X-11679954Y10588396D01*
X-11308697Y10742175D01*
X-10974576Y10965428D01*
X-10690428Y11249576D01*
X-10467175Y11583697D01*
X-10313396Y11954954D01*
X-10282984Y12107848D01*
X-8715000Y12107848D01*
X-8715000Y11892152D01*
X-8672920Y11680600D01*
X-8590376Y11481323D01*
X-8470542Y11301978D01*
X-8318022Y11149458D01*
X-8138677Y11029624D01*
X-7939400Y10947080D01*
X-7727848Y10905000D01*
X-7512152Y10905000D01*
X-7300600Y10947080D01*
X-7101323Y11029624D01*
X-6985000Y11107348D01*
X-6868677Y11029624D01*
X-6669400Y10947080D01*
X-6457848Y10905000D01*
X-6242152Y10905000D01*
X-6030600Y10947080D01*
X-5831323Y11029624D01*
X-5715000Y11107348D01*
X-5598677Y11029624D01*
X-5399400Y10947080D01*
X-5187848Y10905000D01*
X-4972152Y10905000D01*
X-4760600Y10947080D01*
X-4561323Y11029624D01*
X-4445000Y11107348D01*
X-4328677Y11029624D01*
X-4129400Y10947080D01*
X-3917848Y10905000D01*
X-3702152Y10905000D01*
X-3490600Y10947080D01*
X-3291323Y11029624D01*
X-3175000Y11107348D01*
X-3058677Y11029624D01*
X-2859400Y10947080D01*
X-2647848Y10905000D01*
X-2432152Y10905000D01*
X-2220600Y10947080D01*
X-2021323Y11029624D01*
X-1905000Y11107348D01*
X-1788677Y11029624D01*
X-1589400Y10947080D01*
X-1377848Y10905000D01*
X-1162152Y10905000D01*
X-950600Y10947080D01*
X-751323Y11029624D01*
X-635000Y11107348D01*
X-518677Y11029624D01*
X-319400Y10947080D01*
X-107848Y10905000D01*
X107848Y10905000D01*
X319400Y10947080D01*
X518677Y11029624D01*
X635000Y11107348D01*
X751323Y11029624D01*
X950600Y10947080D01*
X1162152Y10905000D01*
X1377848Y10905000D01*
X1589400Y10947080D01*
X1788677Y11029624D01*
X1905000Y11107348D01*
X2021323Y11029624D01*
X2220600Y10947080D01*
X2432152Y10905000D01*
X2647848Y10905000D01*
X2859400Y10947080D01*
X3058677Y11029624D01*
X3175000Y11107348D01*
X3291323Y11029624D01*
X3490600Y10947080D01*
X3702152Y10905000D01*
X3917848Y10905000D01*
X4129400Y10947080D01*
X4328677Y11029624D01*
X4445000Y11107348D01*
X4561323Y11029624D01*
X4760600Y10947080D01*
X4972152Y10905000D01*
X5187848Y10905000D01*
X5399400Y10947080D01*
X5598677Y11029624D01*
X5715000Y11107348D01*
X5831323Y11029624D01*
X6030600Y10947080D01*
X6242152Y10905000D01*
X6457848Y10905000D01*
X6669400Y10947080D01*
X6868677Y11029624D01*
X6985000Y11107348D01*
X7101323Y11029624D01*
X7300600Y10947080D01*
X7512152Y10905000D01*
X7727848Y10905000D01*
X7939400Y10947080D01*
X8138677Y11029624D01*
X8318022Y11149458D01*
X8470542Y11301978D01*
X8590376Y11481323D01*
X8672920Y11680600D01*
X8715000Y11892152D01*
X8715000Y12107848D01*
X8672920Y12319400D01*
X8590376Y12518677D01*
X8470542Y12698022D01*
X8417642Y12750922D01*
X10235000Y12750922D01*
X10235000Y12349078D01*
X10313396Y11954954D01*
X10467175Y11583697D01*
X10690428Y11249576D01*
X10974576Y10965428D01*
X11308697Y10742175D01*
X11679954Y10588396D01*
X12074078Y10510000D01*
X12475922Y10510000D01*
X12870046Y10588396D01*
X13241303Y10742175D01*
X13575424Y10965428D01*
X13859572Y11249576D01*
X14082825Y11583697D01*
X14236604Y11954954D01*
X14315000Y12349078D01*
X14315000Y12750922D01*
X14236604Y13145046D01*
X14082825Y13516303D01*
X13859572Y13850424D01*
X13575424Y14134572D01*
X13241303Y14357825D01*
X12870046Y14511604D01*
X12475922Y14590000D01*
X12074078Y14590000D01*
X11679954Y14511604D01*
X11308697Y14357825D01*
X10974576Y14134572D01*
X10690428Y13850424D01*
X10467175Y13516303D01*
X10313396Y13145046D01*
X10235000Y12750922D01*
X8417642Y12750922D01*
X8318022Y12850542D01*
X8138677Y12970376D01*
X8080000Y12994681D01*
X8080000Y13207848D01*
X8037920Y13419400D01*
X7955376Y13618677D01*
X7835542Y13798022D01*
X7683022Y13950542D01*
X7503677Y14070376D01*
X7304400Y14152920D01*
X7092848Y14195000D01*
X6877152Y14195000D01*
X6665600Y14152920D01*
X6466323Y14070376D01*
X6350000Y13992652D01*
X6233677Y14070376D01*
X6034400Y14152920D01*
X5822848Y14195000D01*
X5607152Y14195000D01*
X5395600Y14152920D01*
X5196323Y14070376D01*
X5080000Y13992652D01*
X4963677Y14070376D01*
X4764400Y14152920D01*
X4552848Y14195000D01*
X4337152Y14195000D01*
X4125600Y14152920D01*
X3926323Y14070376D01*
X3810000Y13992652D01*
X3693677Y14070376D01*
X3494400Y14152920D01*
X3282848Y14195000D01*
X3067152Y14195000D01*
X2855600Y14152920D01*
X2656323Y14070376D01*
X2540000Y13992652D01*
X2423677Y14070376D01*
X2224400Y14152920D01*
X2012848Y14195000D01*
X1797152Y14195000D01*
X1585600Y14152920D01*
X1386323Y14070376D01*
X1270000Y13992652D01*
X1153677Y14070376D01*
X954400Y14152920D01*
X742848Y14195000D01*
X527152Y14195000D01*
X315600Y14152920D01*
X116323Y14070376D01*
X0Y13992652D01*
X-116323Y14070376D01*
X-315600Y14152920D01*
X-527152Y14195000D01*
X-742848Y14195000D01*
X-954400Y14152920D01*
X-1153677Y14070376D01*
X-1270000Y13992652D01*
X-1386323Y14070376D01*
X-1585600Y14152920D01*
X-1797152Y14195000D01*
X-2012848Y14195000D01*
X-2224400Y14152920D01*
X-2423677Y14070376D01*
X-2540000Y13992652D01*
X-2656323Y14070376D01*
X-2855600Y14152920D01*
X-3067152Y14195000D01*
X-3282848Y14195000D01*
X-3494400Y14152920D01*
X-3693677Y14070376D01*
X-3810000Y13992652D01*
X-3926323Y14070376D01*
X-4125600Y14152920D01*
X-4337152Y14195000D01*
X-4552848Y14195000D01*
X-4764400Y14152920D01*
X-4963677Y14070376D01*
X-5080000Y13992652D01*
X-5196323Y14070376D01*
X-5395600Y14152920D01*
X-5607152Y14195000D01*
X-5822848Y14195000D01*
X-6034400Y14152920D01*
X-6233677Y14070376D01*
X-6350000Y13992652D01*
X-6466323Y14070376D01*
X-6665600Y14152920D01*
X-6877152Y14195000D01*
X-7092848Y14195000D01*
X-7304400Y14152920D01*
X-7503677Y14070376D01*
X-7683022Y13950542D01*
X-7835542Y13798022D01*
X-7955376Y13618677D01*
X-8037920Y13419400D01*
X-8080000Y13207848D01*
X-8080000Y12994681D01*
X-8138677Y12970376D01*
X-8318022Y12850542D01*
X-8470542Y12698022D01*
X-8590376Y12518677D01*
X-8672920Y12319400D01*
X-8715000Y12107848D01*
X-10282984Y12107848D01*
X-10235000Y12349078D01*
X-10235000Y12750922D01*
X-10313396Y13145046D01*
X-10467175Y13516303D01*
X-10690428Y13850424D01*
X-10974576Y14134572D01*
X-11308697Y14357825D01*
X-11679954Y14511604D01*
X-12074078Y14590000D01*
X-12475922Y14590000D01*
X-12870046Y14511604D01*
X-13241303Y14357825D01*
X-13575424Y14134572D01*
X-13859572Y13850424D01*
X-14082825Y13516303D01*
X-14236604Y13145046D01*
X-14315000Y12750922D01*
X-33378465Y12750922D01*
X-32939105Y13540628D01*
X-32599050Y14597254D01*
X-32561849Y14784272D01*
X32561849Y14784272D01*
X32866133Y13716795D01*
X33372825Y12729192D01*
X34062453Y11859417D01*
X34908515Y11140894D01*
X35878497Y10601236D01*
X36935123Y10261181D01*
X37122141Y10223980D01*
X38006128Y10293210D01*
X38006128Y15668259D01*
X38260128Y15668259D01*
X38260128Y10293210D01*
X39144115Y10223980D01*
X40211592Y10528264D01*
X41199195Y11034956D01*
X42068970Y11724584D01*
X42787493Y12570646D01*
X43327151Y13540628D01*
X43667206Y14597254D01*
X43704407Y14784272D01*
X43635177Y15668259D01*
X38260128Y15668259D01*
X38006128Y15668259D01*
X32631079Y15668259D01*
X32561849Y14784272D01*
X-32561849Y14784272D01*
X-32631079Y15668259D01*
X-38006128Y15668259D01*
X-38260128Y15668259D01*
X-43635177Y15668259D01*
X-43704407Y14784272D01*
X-59865000Y14784272D01*
X-59865000Y16806246D01*
X-43704407Y16806246D01*
X-43635177Y15922259D01*
X-38260128Y15922259D01*
X-38260128Y21297308D01*
X-38006128Y21297308D01*
X-38006128Y15922259D01*
X-32631079Y15922259D01*
X-32561849Y16806246D01*
X32561849Y16806246D01*
X32631079Y15922259D01*
X38006128Y15922259D01*
X38006128Y21297308D01*
X38260128Y21297308D01*
X38260128Y15922259D01*
X43635177Y15922259D01*
X43704407Y16806246D01*
X43400123Y17873723D01*
X42893431Y18861326D01*
X42203803Y19731101D01*
X41357741Y20449624D01*
X40387759Y20989282D01*
X39331133Y21329337D01*
X39144115Y21366538D01*
X38260128Y21297308D01*
X38006128Y21297308D01*
X37122141Y21366538D01*
X36054664Y21062254D01*
X35067061Y20555562D01*
X34197286Y19865934D01*
X33478763Y19019872D01*
X32939105Y18049890D01*
X32599050Y16993264D01*
X32561849Y16806246D01*
X-32561849Y16806246D01*
X-32866133Y17873723D01*
X-33372825Y18861326D01*
X-34062453Y19731101D01*
X-34908515Y20449624D01*
X-35878497Y20989282D01*
X-36935123Y21329337D01*
X-37122141Y21366538D01*
X-38006128Y21297308D01*
X-38260128Y21297308D01*
X-39144115Y21366538D01*
X-40211592Y21062254D01*
X-41199195Y20555562D01*
X-42068970Y19865934D01*
X-42787493Y19019872D01*
X-43327151Y18049890D01*
X-43667206Y16993264D01*
X-43704407Y16806246D01*
X-59865000Y16806246D01*
X-59865000Y17568037D01*
X-59885040Y17771507D01*
X-59964236Y18032581D01*
X-60092843Y18273188D01*
X-60265920Y18484081D01*
X-60476813Y18657157D01*
X-60717420Y18785764D01*
X-60978494Y18864960D01*
X-61250000Y18891701D01*
X-61521507Y18864960D01*
X-61782581Y18785764D01*
X-62023188Y18657157D01*
X-62234081Y18484080D01*
X-62407157Y18273187D01*
X-62535764Y18032580D01*
X-62614960Y17771506D01*
X-62635000Y17568036D01*
X-62634999Y15668386D01*
X-62696063Y15759774D01*
X-62840226Y15903937D01*
X-63009744Y16017205D01*
X-63198102Y16095226D01*
X-63398061Y16135000D01*
X-63479747Y16135000D01*
X-63473164Y16193559D01*
X-63983692Y16704087D01*
X-63965000Y16798061D01*
X-63965000Y16900000D01*
X-63820395Y16900000D01*
X-63293559Y16373164D01*
X-63090264Y16396019D01*
X-63009423Y16583184D01*
X-62966649Y16782523D01*
X-62963587Y16986377D01*
X-63000353Y17186912D01*
X-63075534Y17376420D01*
X-63090264Y17403981D01*
X-63293559Y17426836D01*
X-63820395Y16900000D01*
X-63965000Y16900000D01*
X-63965000Y17001939D01*
X-63983692Y17095913D01*
X-63473164Y17606441D01*
X-63496019Y17809736D01*
X-63683184Y17890577D01*
X-63882523Y17933351D01*
X-64086377Y17936413D01*
X-64286912Y17899647D01*
X-64476420Y17824466D01*
X-64500972Y17811344D01*
X-64509744Y17817205D01*
X-64698102Y17895226D01*
X-64898061Y17935000D01*
X-65101939Y17935000D01*
X-65301898Y17895226D01*
X-65490256Y17817205D01*
X-65500000Y17810694D01*
X-65509744Y17817205D01*
X-65698102Y17895226D01*
X-65898061Y17935000D01*
X-66101939Y17935000D01*
X-66301898Y17895226D01*
X-66490256Y17817205D01*
X-66499308Y17811157D01*
X-66683184Y17890577D01*
X-66882523Y17933351D01*
X-67086377Y17936413D01*
X-67286912Y17899647D01*
X-67476420Y17824466D01*
X-67500972Y17811344D01*
X-67509744Y17817205D01*
X-67698102Y17895226D01*
X-67898061Y17935000D01*
X-68101939Y17935000D01*
X-68301898Y17895226D01*
X-68490256Y17817205D01*
X-68500000Y17810694D01*
X-68509744Y17817205D01*
X-68698102Y17895226D01*
X-68898061Y17935000D01*
X-69101939Y17935000D01*
X-69301898Y17895226D01*
X-69490256Y17817205D01*
X-69500000Y17810694D01*
X-69509744Y17817205D01*
X-69698102Y17895226D01*
X-69898061Y17935000D01*
X-70101939Y17935000D01*
X-70301898Y17895226D01*
X-70490256Y17817205D01*
X-70500000Y17810694D01*
X-70509744Y17817205D01*
X-70698102Y17895226D01*
X-70898061Y17935000D01*
X-71101939Y17935000D01*
X-71301898Y17895226D01*
X-71490256Y17817205D01*
X-71500000Y17810694D01*
X-71509744Y17817205D01*
X-71698102Y17895226D01*
X-71898061Y17935000D01*
X-72101939Y17935000D01*
X-72301898Y17895226D01*
X-72490256Y17817205D01*
X-72659774Y17703937D01*
X-72803937Y17559774D01*
X-72917205Y17390256D01*
X-72995226Y17201898D01*
X-73035000Y17001939D01*
X-73035000Y16798061D01*
X-72995226Y16598102D01*
X-72917205Y16409744D01*
X-72803937Y16240226D01*
X-72682656Y16118945D01*
X-72801898Y16095226D01*
X-72990256Y16017205D01*
X-73159774Y15903937D01*
X-73303937Y15759774D01*
X-73365000Y15668387D01*
X-73365000Y17568037D01*
X-73385040Y17771507D01*
X-73464236Y18032581D01*
X-73592843Y18273188D01*
X-73765920Y18484081D01*
X-73976813Y18657157D01*
X-74217420Y18785764D01*
X-74478494Y18864960D01*
X-74750000Y18891701D01*
X-75021507Y18864960D01*
X-75282581Y18785764D01*
X-75523188Y18657157D01*
X-75734081Y18484080D01*
X-75907157Y18273187D01*
X-76035764Y18032580D01*
X-76114960Y17771506D01*
X-76135000Y17568036D01*
X-81340000Y17568036D01*
X-81340000Y22709363D01*
X-65592706Y37122141D01*
X-21366538Y37122141D01*
X-21062254Y36054664D01*
X-20555562Y35067061D01*
X-19865934Y34197286D01*
X-19019872Y33478763D01*
X-18049890Y32939105D01*
X-16993264Y32599050D01*
X-16806246Y32561849D01*
X-15922259Y32631079D01*
X-15922259Y38006128D01*
X-15668259Y38006128D01*
X-15668259Y32631079D01*
X-14784272Y32561849D01*
X-13716795Y32866133D01*
X-12729192Y33372825D01*
X-11859417Y34062453D01*
X-11140894Y34908515D01*
X-10601236Y35878497D01*
X-10261181Y36935123D01*
X-10223980Y37122141D01*
X10223980Y37122141D01*
X10528264Y36054664D01*
X11034956Y35067061D01*
X11724584Y34197286D01*
X12570646Y33478763D01*
X13540628Y32939105D01*
X14597254Y32599050D01*
X14784272Y32561849D01*
X15668259Y32631079D01*
X15668259Y38006128D01*
X15922259Y38006128D01*
X15922259Y32631079D01*
X16806246Y32561849D01*
X17873723Y32866133D01*
X18861326Y33372825D01*
X19731101Y34062453D01*
X20449624Y34908515D01*
X20989282Y35878497D01*
X21329337Y36935123D01*
X21366538Y37122141D01*
X21297308Y38006128D01*
X15922259Y38006128D01*
X15668259Y38006128D01*
X10293210Y38006128D01*
X10223980Y37122141D01*
X-10223980Y37122141D01*
X-10293210Y38006128D01*
X-15668259Y38006128D01*
X-15922259Y38006128D01*
X-21297308Y38006128D01*
X-21366538Y37122141D01*
X-65592706Y37122141D01*
X-63383513Y39144115D01*
X-21366538Y39144115D01*
X-21297308Y38260128D01*
X-15922259Y38260128D01*
X-15922259Y43635177D01*
X-15668259Y43635177D01*
X-15668259Y38260128D01*
X-10293210Y38260128D01*
X-10223980Y39144115D01*
X10223980Y39144115D01*
X10293210Y38260128D01*
X15668259Y38260128D01*
X15668259Y43635177D01*
X15922259Y43635177D01*
X15922259Y38260128D01*
X21297308Y38260128D01*
X21366538Y39144115D01*
X21062254Y40211592D01*
X20555562Y41199195D01*
X19865934Y42068970D01*
X19019872Y42787493D01*
X18049890Y43327151D01*
X16993264Y43667206D01*
X16806246Y43704407D01*
X15922259Y43635177D01*
X15668259Y43635177D01*
X14784272Y43704407D01*
X13716795Y43400123D01*
X12729192Y42893431D01*
X11859417Y42203803D01*
X11140894Y41357741D01*
X10601236Y40387759D01*
X10261181Y39331133D01*
X10223980Y39144115D01*
X-10223980Y39144115D01*
X-10528264Y40211592D01*
X-11034956Y41199195D01*
X-11724584Y42068970D01*
X-12570646Y42787493D01*
X-13540628Y43327151D01*
X-14597254Y43667206D01*
X-14784272Y43704407D01*
X-15668259Y43635177D01*
X-15922259Y43635177D01*
X-16806246Y43704407D01*
X-17873723Y43400123D01*
X-18861326Y42893431D01*
X-19731101Y42203803D01*
X-20449624Y41357741D01*
X-20989282Y40387759D01*
X-21329337Y39331133D01*
X-21366538Y39144115D01*
X-63383513Y39144115D01*
X-32176526Y67706441D01*
X-17426836Y67706441D01*
X-16900000Y67179605D01*
X-16373164Y67706441D01*
X-16396019Y67909736D01*
X-16583184Y67990577D01*
X-16782523Y68033351D01*
X-16986377Y68036413D01*
X-17186912Y67999647D01*
X-17376420Y67924466D01*
X-17403981Y67909736D01*
X-17426836Y67706441D01*
X-32176526Y67706441D01*
X-29943748Y69750000D01*
X-18891701Y69750000D01*
X-18864960Y69478493D01*
X-18785764Y69217419D01*
X-18657157Y68976812D01*
X-18484081Y68765919D01*
X-18273188Y68592843D01*
X-18032581Y68464236D01*
X-17771507Y68385040D01*
X-17568037Y68365000D01*
X-15668387Y68365000D01*
X-15759774Y68303937D01*
X-15903937Y68159774D01*
X-16017205Y67990256D01*
X-16095226Y67801898D01*
X-16135000Y67601939D01*
X-16135000Y67520253D01*
X-16193559Y67526836D01*
X-16704087Y67016308D01*
X-16798061Y67035000D01*
X-17001939Y67035000D01*
X-17095913Y67016308D01*
X-17606441Y67526836D01*
X-17809736Y67503981D01*
X-17890577Y67316816D01*
X-17933351Y67117477D01*
X-17936413Y66913623D01*
X-17899647Y66713088D01*
X-17824466Y66523580D01*
X-17811344Y66499028D01*
X-17817205Y66490256D01*
X-17895226Y66301898D01*
X-17935000Y66101939D01*
X-17935000Y65898061D01*
X-17895226Y65698102D01*
X-17817205Y65509744D01*
X-17810694Y65500000D01*
X-17817205Y65490256D01*
X-17895226Y65301898D01*
X-17935000Y65101939D01*
X-17935000Y64898061D01*
X-17895226Y64698102D01*
X-17817205Y64509744D01*
X-17811157Y64500692D01*
X-17890577Y64316816D01*
X-17933351Y64117477D01*
X-17936413Y63913623D01*
X-17899647Y63713088D01*
X-17824466Y63523580D01*
X-17811344Y63499028D01*
X-17817205Y63490256D01*
X-17895226Y63301898D01*
X-17935000Y63101939D01*
X-17935000Y62898061D01*
X-17895226Y62698102D01*
X-17817205Y62509744D01*
X-17810694Y62500000D01*
X-17817205Y62490256D01*
X-17895226Y62301898D01*
X-17935000Y62101939D01*
X-17935000Y61898061D01*
X-17895226Y61698102D01*
X-17817205Y61509744D01*
X-17810694Y61500000D01*
X-17817205Y61490256D01*
X-17895226Y61301898D01*
X-17935000Y61101939D01*
X-17935000Y60898061D01*
X-17895226Y60698102D01*
X-17817205Y60509744D01*
X-17810694Y60500000D01*
X-17817205Y60490256D01*
X-17895226Y60301898D01*
X-17935000Y60101939D01*
X-17935000Y59898061D01*
X-17895226Y59698102D01*
X-17817205Y59509744D01*
X-17810694Y59500000D01*
X-17817205Y59490256D01*
X-17895226Y59301898D01*
X-17935000Y59101939D01*
X-17935000Y58898061D01*
X-17895226Y58698102D01*
X-17817205Y58509744D01*
X-17703937Y58340226D01*
X-17559774Y58196063D01*
X-17390256Y58082795D01*
X-17201898Y58004774D01*
X-17001939Y57965000D01*
X-16798061Y57965000D01*
X-16598102Y58004774D01*
X-16409744Y58082795D01*
X-16240226Y58196063D01*
X-16118945Y58317344D01*
X-16095226Y58198102D01*
X-16017205Y58009744D01*
X-15903937Y57840226D01*
X-15759774Y57696063D01*
X-15668387Y57635000D01*
X-17568037Y57635000D01*
X-17771507Y57614960D01*
X-18032581Y57535764D01*
X-18273188Y57407157D01*
X-18484081Y57234081D01*
X-18657157Y57023188D01*
X-18785764Y56782581D01*
X-18864960Y56521507D01*
X-18891701Y56250000D01*
X-18864960Y55978493D01*
X-18785764Y55717419D01*
X-18657157Y55476812D01*
X-18484081Y55265919D01*
X-18273188Y55092843D01*
X-18032581Y54964236D01*
X-17771507Y54885040D01*
X-17568037Y54865000D01*
X-14431963Y54865000D01*
X-14228493Y54885040D01*
X-13967419Y54964236D01*
X-13726812Y55092843D01*
X-13515919Y55265919D01*
X-13342843Y55476812D01*
X-13214236Y55717419D01*
X-13135040Y55978493D01*
X-13108299Y56250000D01*
X-13135040Y56521507D01*
X-13214236Y56782581D01*
X-13342843Y57023188D01*
X-13515919Y57234081D01*
X-13726812Y57407157D01*
X-13967419Y57535764D01*
X-14228493Y57614960D01*
X-14431963Y57635000D01*
X-14531613Y57635000D01*
X-14440226Y57696063D01*
X-14296063Y57840226D01*
X-14182795Y58009744D01*
X-14104774Y58198102D01*
X-14065000Y58398061D01*
X-14065000Y58601939D01*
X-14104774Y58801898D01*
X-14182795Y58990256D01*
X-14188843Y58999308D01*
X-14109423Y59183184D01*
X-14066649Y59382523D01*
X-14063587Y59586377D01*
X-14100353Y59786912D01*
X-14175534Y59976420D01*
X-14188656Y60000972D01*
X-14182795Y60009744D01*
X-14104774Y60198102D01*
X-14065000Y60398061D01*
X-14065000Y60601939D01*
X-14104774Y60801898D01*
X-14182795Y60990256D01*
X-14189306Y61000000D01*
X-14182795Y61009744D01*
X-14104774Y61198102D01*
X-14065000Y61398061D01*
X-14065000Y61601939D01*
X-14104774Y61801898D01*
X-14182795Y61990256D01*
X-14188843Y61999308D01*
X-14109423Y62183184D01*
X-14066649Y62382523D01*
X-14063587Y62586377D01*
X-14100353Y62786912D01*
X-14175534Y62976420D01*
X-14188656Y63000972D01*
X-14182795Y63009744D01*
X-14104774Y63198102D01*
X-14065000Y63398061D01*
X-14065000Y63601939D01*
X-14104774Y63801898D01*
X-14182795Y63990256D01*
X-14189306Y64000000D01*
X-14182795Y64009744D01*
X-14104774Y64198102D01*
X-14065000Y64398061D01*
X-14065000Y64601939D01*
X-14104774Y64801898D01*
X-14182795Y64990256D01*
X-14188843Y64999308D01*
X-14109423Y65183184D01*
X-14066649Y65382523D01*
X-14063587Y65586377D01*
X-14100353Y65786912D01*
X-14175534Y65976420D01*
X-14188656Y66000972D01*
X-14182795Y66009744D01*
X-14104774Y66198102D01*
X-14065000Y66398061D01*
X-14065000Y66601939D01*
X-14104774Y66801898D01*
X-14182795Y66990256D01*
X-14189306Y67000000D01*
X-14182795Y67009744D01*
X-14104774Y67198102D01*
X-14065000Y67398061D01*
X-14065000Y67601939D01*
X-14085786Y67706441D01*
X-1426836Y67706441D01*
X-900000Y67179605D01*
X-373164Y67706441D01*
X-396019Y67909736D01*
X-583184Y67990577D01*
X-782523Y68033351D01*
X-986377Y68036413D01*
X-1186912Y67999647D01*
X-1376420Y67924466D01*
X-1403981Y67909736D01*
X-1426836Y67706441D01*
X-14085786Y67706441D01*
X-14104774Y67801898D01*
X-14182795Y67990256D01*
X-14296063Y68159774D01*
X-14440226Y68303937D01*
X-14531613Y68365000D01*
X-14431963Y68365000D01*
X-14228493Y68385040D01*
X-13967419Y68464236D01*
X-13726812Y68592843D01*
X-13515919Y68765919D01*
X-13342843Y68976812D01*
X-13214236Y69217419D01*
X-13135040Y69478493D01*
X-13108299Y69750000D01*
X-2891701Y69750000D01*
X-2864960Y69478493D01*
X-2785764Y69217419D01*
X-2657157Y68976812D01*
X-2484081Y68765919D01*
X-2273188Y68592843D01*
X-2032581Y68464236D01*
X-1771507Y68385040D01*
X-1568037Y68365000D01*
X331613Y68365000D01*
X240226Y68303937D01*
X96063Y68159774D01*
X-17205Y67990256D01*
X-95226Y67801898D01*
X-135000Y67601939D01*
X-135000Y67520253D01*
X-193559Y67526836D01*
X-704087Y67016308D01*
X-798061Y67035000D01*
X-1001939Y67035000D01*
X-1095913Y67016308D01*
X-1606441Y67526836D01*
X-1809736Y67503981D01*
X-1890577Y67316816D01*
X-1933351Y67117477D01*
X-1936413Y66913623D01*
X-1899647Y66713088D01*
X-1824466Y66523580D01*
X-1811344Y66499028D01*
X-1817205Y66490256D01*
X-1895226Y66301898D01*
X-1935000Y66101939D01*
X-1935000Y65898061D01*
X-1895226Y65698102D01*
X-1817205Y65509744D01*
X-1810694Y65500000D01*
X-1817205Y65490256D01*
X-1895226Y65301898D01*
X-1935000Y65101939D01*
X-1935000Y64898061D01*
X-1895226Y64698102D01*
X-1817205Y64509744D01*
X-1811157Y64500692D01*
X-1890577Y64316816D01*
X-1933351Y64117477D01*
X-1936413Y63913623D01*
X-1899647Y63713088D01*
X-1824466Y63523580D01*
X-1811344Y63499028D01*
X-1817205Y63490256D01*
X-1895226Y63301898D01*
X-1935000Y63101939D01*
X-1935000Y62898061D01*
X-1895226Y62698102D01*
X-1817205Y62509744D01*
X-1810694Y62500000D01*
X-1817205Y62490256D01*
X-1895226Y62301898D01*
X-1935000Y62101939D01*
X-1935000Y61898061D01*
X-1895226Y61698102D01*
X-1817205Y61509744D01*
X-1810694Y61500000D01*
X-1817205Y61490256D01*
X-1895226Y61301898D01*
X-1935000Y61101939D01*
X-1935000Y60898061D01*
X-1895226Y60698102D01*
X-1817205Y60509744D01*
X-1810694Y60500000D01*
X-1817205Y60490256D01*
X-1895226Y60301898D01*
X-1935000Y60101939D01*
X-1935000Y59898061D01*
X-1895226Y59698102D01*
X-1817205Y59509744D01*
X-1810694Y59500000D01*
X-1817205Y59490256D01*
X-1895226Y59301898D01*
X-1935000Y59101939D01*
X-1935000Y58898061D01*
X-1895226Y58698102D01*
X-1817205Y58509744D01*
X-1703937Y58340226D01*
X-1559774Y58196063D01*
X-1390256Y58082795D01*
X-1201898Y58004774D01*
X-1001939Y57965000D01*
X-798061Y57965000D01*
X-598102Y58004774D01*
X-409744Y58082795D01*
X-240226Y58196063D01*
X-118945Y58317344D01*
X-95226Y58198102D01*
X-17205Y58009744D01*
X96063Y57840226D01*
X240226Y57696063D01*
X331613Y57635000D01*
X-1568037Y57635000D01*
X-1771507Y57614960D01*
X-2032581Y57535764D01*
X-2273188Y57407157D01*
X-2484081Y57234081D01*
X-2657157Y57023188D01*
X-2785764Y56782581D01*
X-2864960Y56521507D01*
X-2891701Y56250000D01*
X-2864960Y55978493D01*
X-2785764Y55717419D01*
X-2657157Y55476812D01*
X-2484081Y55265919D01*
X-2273188Y55092843D01*
X-2032581Y54964236D01*
X-1771507Y54885040D01*
X-1568037Y54865000D01*
X1568037Y54865000D01*
X1771507Y54885040D01*
X2032581Y54964236D01*
X2273188Y55092843D01*
X2484081Y55265919D01*
X2657157Y55476812D01*
X2785764Y55717419D01*
X2864960Y55978493D01*
X2891701Y56250000D01*
X2864960Y56521507D01*
X2785764Y56782581D01*
X2657157Y57023188D01*
X2484081Y57234081D01*
X2273188Y57407157D01*
X2032581Y57535764D01*
X1771507Y57614960D01*
X1568037Y57635000D01*
X1468387Y57635000D01*
X1559774Y57696063D01*
X1703937Y57840226D01*
X1817205Y58009744D01*
X1895226Y58198102D01*
X1935000Y58398061D01*
X1935000Y58601939D01*
X1895226Y58801898D01*
X1817205Y58990256D01*
X1811157Y58999308D01*
X1890577Y59183184D01*
X1933351Y59382523D01*
X1936413Y59586377D01*
X1899647Y59786912D01*
X1824466Y59976420D01*
X1811344Y60000972D01*
X1817205Y60009744D01*
X1895226Y60198102D01*
X1935000Y60398061D01*
X1935000Y60601939D01*
X1895226Y60801898D01*
X1817205Y60990256D01*
X1810694Y61000000D01*
X1817205Y61009744D01*
X1895226Y61198102D01*
X1935000Y61398061D01*
X1935000Y61601939D01*
X1895226Y61801898D01*
X1817205Y61990256D01*
X1811157Y61999308D01*
X1890577Y62183184D01*
X1933351Y62382523D01*
X1936413Y62586377D01*
X1899647Y62786912D01*
X1824466Y62976420D01*
X1811344Y63000972D01*
X1817205Y63009744D01*
X1895226Y63198102D01*
X1935000Y63398061D01*
X1935000Y63601939D01*
X1895226Y63801898D01*
X1817205Y63990256D01*
X1810694Y64000000D01*
X1817205Y64009744D01*
X1895226Y64198102D01*
X1935000Y64398061D01*
X1935000Y64601939D01*
X1895226Y64801898D01*
X1817205Y64990256D01*
X1811157Y64999308D01*
X1890577Y65183184D01*
X1933351Y65382523D01*
X1936413Y65586377D01*
X1899647Y65786912D01*
X1824466Y65976420D01*
X1811344Y66000972D01*
X1817205Y66009744D01*
X1895226Y66198102D01*
X1935000Y66398061D01*
X1935000Y66601939D01*
X1895226Y66801898D01*
X1817205Y66990256D01*
X1810694Y67000000D01*
X1817205Y67009744D01*
X1895226Y67198102D01*
X1935000Y67398061D01*
X1935000Y67601939D01*
X1914214Y67706441D01*
X14573164Y67706441D01*
X15100000Y67179605D01*
X15626836Y67706441D01*
X15603981Y67909736D01*
X15416816Y67990577D01*
X15217477Y68033351D01*
X15013623Y68036413D01*
X14813088Y67999647D01*
X14623580Y67924466D01*
X14596019Y67909736D01*
X14573164Y67706441D01*
X1914214Y67706441D01*
X1895226Y67801898D01*
X1817205Y67990256D01*
X1703937Y68159774D01*
X1559774Y68303937D01*
X1468387Y68365000D01*
X1568037Y68365000D01*
X1771507Y68385040D01*
X2032581Y68464236D01*
X2273188Y68592843D01*
X2484081Y68765919D01*
X2657157Y68976812D01*
X2785764Y69217419D01*
X2864960Y69478493D01*
X2891701Y69750000D01*
X13108299Y69750000D01*
X13135040Y69478493D01*
X13214236Y69217419D01*
X13342843Y68976812D01*
X13515919Y68765919D01*
X13726812Y68592843D01*
X13967419Y68464236D01*
X14228493Y68385040D01*
X14431963Y68365000D01*
X16331613Y68365000D01*
X16240226Y68303937D01*
X16096063Y68159774D01*
X15982795Y67990256D01*
X15904774Y67801898D01*
X15865000Y67601939D01*
X15865000Y67520253D01*
X15806441Y67526836D01*
X15295913Y67016308D01*
X15201939Y67035000D01*
X14998061Y67035000D01*
X14904087Y67016308D01*
X14393559Y67526836D01*
X14190264Y67503981D01*
X14109423Y67316816D01*
X14066649Y67117477D01*
X14063587Y66913623D01*
X14100353Y66713088D01*
X14175534Y66523580D01*
X14188656Y66499028D01*
X14182795Y66490256D01*
X14104774Y66301898D01*
X14065000Y66101939D01*
X14065000Y65898061D01*
X14104774Y65698102D01*
X14182795Y65509744D01*
X14189306Y65500000D01*
X14182795Y65490256D01*
X14104774Y65301898D01*
X14065000Y65101939D01*
X14065000Y64898061D01*
X14104774Y64698102D01*
X14182795Y64509744D01*
X14188843Y64500692D01*
X14109423Y64316816D01*
X14066649Y64117477D01*
X14063587Y63913623D01*
X14100353Y63713088D01*
X14175534Y63523580D01*
X14188656Y63499028D01*
X14182795Y63490256D01*
X14104774Y63301898D01*
X14065000Y63101939D01*
X14065000Y62898061D01*
X14104774Y62698102D01*
X14182795Y62509744D01*
X14189306Y62500000D01*
X14182795Y62490256D01*
X14104774Y62301898D01*
X14065000Y62101939D01*
X14065000Y61898061D01*
X14104774Y61698102D01*
X14182795Y61509744D01*
X14189306Y61500000D01*
X14182795Y61490256D01*
X14104774Y61301898D01*
X14065000Y61101939D01*
X14065000Y60898061D01*
X14104774Y60698102D01*
X14182795Y60509744D01*
X14189306Y60500000D01*
X14182795Y60490256D01*
X14104774Y60301898D01*
X14065000Y60101939D01*
X14065000Y59898061D01*
X14104774Y59698102D01*
X14182795Y59509744D01*
X14189306Y59500000D01*
X14182795Y59490256D01*
X14104774Y59301898D01*
X14065000Y59101939D01*
X14065000Y58898061D01*
X14104774Y58698102D01*
X14182795Y58509744D01*
X14296063Y58340226D01*
X14440226Y58196063D01*
X14609744Y58082795D01*
X14798102Y58004774D01*
X14998061Y57965000D01*
X15201939Y57965000D01*
X15401898Y58004774D01*
X15590256Y58082795D01*
X15759774Y58196063D01*
X15881055Y58317344D01*
X15904774Y58198102D01*
X15982795Y58009744D01*
X16096063Y57840226D01*
X16240226Y57696063D01*
X16331613Y57635000D01*
X14431963Y57635000D01*
X14228493Y57614960D01*
X13967419Y57535764D01*
X13726812Y57407157D01*
X13515919Y57234081D01*
X13342843Y57023188D01*
X13214236Y56782581D01*
X13135040Y56521507D01*
X13108299Y56250000D01*
X13135040Y55978493D01*
X13214236Y55717419D01*
X13342843Y55476812D01*
X13515919Y55265919D01*
X13726812Y55092843D01*
X13967419Y54964236D01*
X14228493Y54885040D01*
X14431963Y54865000D01*
X17568037Y54865000D01*
X17771507Y54885040D01*
X18032581Y54964236D01*
X18273188Y55092843D01*
X18484081Y55265919D01*
X18657157Y55476812D01*
X18785764Y55717419D01*
X18864960Y55978493D01*
X18891701Y56250000D01*
X18864960Y56521507D01*
X18785764Y56782581D01*
X18657157Y57023188D01*
X18484081Y57234081D01*
X18273188Y57407157D01*
X18032581Y57535764D01*
X17771507Y57614960D01*
X17568037Y57635000D01*
X17468387Y57635000D01*
X17559774Y57696063D01*
X17703937Y57840226D01*
X17817205Y58009744D01*
X17895226Y58198102D01*
X17935000Y58398061D01*
X17935000Y58601939D01*
X17895226Y58801898D01*
X17817205Y58990256D01*
X17811157Y58999308D01*
X17890577Y59183184D01*
X17933351Y59382523D01*
X17936413Y59586377D01*
X17899647Y59786912D01*
X17824466Y59976420D01*
X17811344Y60000972D01*
X17817205Y60009744D01*
X17895226Y60198102D01*
X17935000Y60398061D01*
X17935000Y60601939D01*
X17895226Y60801898D01*
X17817205Y60990256D01*
X17810694Y61000000D01*
X17817205Y61009744D01*
X17895226Y61198102D01*
X17935000Y61398061D01*
X17935000Y61601939D01*
X17895226Y61801898D01*
X17817205Y61990256D01*
X17811157Y61999308D01*
X17890577Y62183184D01*
X17933351Y62382523D01*
X17936413Y62586377D01*
X17899647Y62786912D01*
X17824466Y62976420D01*
X17811344Y63000972D01*
X17817205Y63009744D01*
X17895226Y63198102D01*
X17935000Y63398061D01*
X17935000Y63601939D01*
X17895226Y63801898D01*
X17817205Y63990256D01*
X17810694Y64000000D01*
X17817205Y64009744D01*
X17895226Y64198102D01*
X17935000Y64398061D01*
X17935000Y64601939D01*
X17895226Y64801898D01*
X17817205Y64990256D01*
X17811157Y64999308D01*
X17890577Y65183184D01*
X17933351Y65382523D01*
X17936413Y65586377D01*
X17899647Y65786912D01*
X17824466Y65976420D01*
X17811344Y66000972D01*
X17817205Y66009744D01*
X17895226Y66198102D01*
X17935000Y66398061D01*
X17935000Y66601939D01*
X17895226Y66801898D01*
X17817205Y66990256D01*
X17810694Y67000000D01*
X17817205Y67009744D01*
X17895226Y67198102D01*
X17935000Y67398061D01*
X17935000Y67601939D01*
X17895226Y67801898D01*
X17817205Y67990256D01*
X17703937Y68159774D01*
X17559774Y68303937D01*
X17468387Y68365000D01*
X17568037Y68365000D01*
X17771507Y68385040D01*
X18032581Y68464236D01*
X18273188Y68592843D01*
X18484081Y68765919D01*
X18657157Y68976812D01*
X18785764Y69217419D01*
X18864960Y69478493D01*
X18891701Y69750000D01*
X18864960Y70021507D01*
X18785764Y70282581D01*
X18657157Y70523188D01*
X18484081Y70734081D01*
X18273188Y70907157D01*
X18032581Y71035764D01*
X17771507Y71114960D01*
X17568037Y71135000D01*
X14431963Y71135000D01*
X14228493Y71114960D01*
X13967419Y71035764D01*
X13726812Y70907157D01*
X13515919Y70734081D01*
X13342843Y70523188D01*
X13214236Y70282581D01*
X13135040Y70021507D01*
X13108299Y69750000D01*
X2891701Y69750000D01*
X2864960Y70021507D01*
X2785764Y70282581D01*
X2657157Y70523188D01*
X2484081Y70734081D01*
X2273188Y70907157D01*
X2032581Y71035764D01*
X1771507Y71114960D01*
X1568037Y71135000D01*
X-1568037Y71135000D01*
X-1771507Y71114960D01*
X-2032581Y71035764D01*
X-2273188Y70907157D01*
X-2484081Y70734081D01*
X-2657157Y70523188D01*
X-2785764Y70282581D01*
X-2864960Y70021507D01*
X-2891701Y69750000D01*
X-13108299Y69750000D01*
X-13135040Y70021507D01*
X-13214236Y70282581D01*
X-13342843Y70523188D01*
X-13515919Y70734081D01*
X-13726812Y70907157D01*
X-13967419Y71035764D01*
X-14228493Y71114960D01*
X-14431963Y71135000D01*
X-17568037Y71135000D01*
X-17771507Y71114960D01*
X-18032581Y71035764D01*
X-18273188Y70907157D01*
X-18484081Y70734081D01*
X-18657157Y70523188D01*
X-18785764Y70282581D01*
X-18864960Y70021507D01*
X-18891701Y69750000D01*
X-29943748Y69750000D01*
X-22743562Y76340000D01*
X22726620Y76340000D01*
X59340001Y39726618D01*
G37*
%TD.AperFunction*%
%TD*%
M02*
