M48
; DRILL file {KiCad (5.1.9)-1} date 08/11/21 17:59:36
; FORMAT={-:-/ absolute / metric / decimal}
; #@! TF.CreationDate,2021-08-11T17:59:36-06:00
; #@! TF.GenerationSoftware,Kicad,Pcbnew,(5.1.9)-1
; #@! TF.FileFunction,Plated,1,4,PTH
FMAT,2
METRIC
T1C0.550
T2C0.610
T3C1.000
T4C2.810
T5C5.170
%
G90
G05
T1
X-72.5Y15.1
X-72.5Y-0.9
X-72.5Y-16.9
X-72.0Y16.9
X-72.0Y0.9
X-72.0Y-15.1
X-71.5Y15.1
X-71.5Y-0.9
X-71.5Y-16.9
X-71.0Y16.9
X-71.0Y0.9
X-71.0Y-15.1
X-70.5Y15.1
X-70.5Y-0.9
X-70.5Y-16.9
X-70.0Y16.9
X-70.0Y0.9
X-70.0Y-15.1
X-69.5Y15.1
X-69.5Y-0.9
X-69.5Y-16.9
X-69.0Y16.9
X-69.0Y0.9
X-69.0Y-15.1
X-68.5Y15.1
X-68.5Y-0.9
X-68.5Y-16.9
X-68.0Y16.9
X-68.0Y0.9
X-68.0Y-15.1
X-67.5Y15.1
X-67.5Y-0.9
X-67.5Y-16.9
X-67.0Y16.9
X-67.0Y0.9
X-67.0Y-15.1
X-66.5Y15.1
X-66.5Y-0.9
X-66.5Y-16.9
X-66.0Y16.9
X-66.0Y0.9
X-66.0Y-15.1
X-65.5Y15.1
X-65.5Y-0.9
X-65.5Y-16.9
X-65.0Y16.9
X-65.0Y0.9
X-65.0Y-15.1
X-64.5Y15.1
X-64.5Y-0.9
X-64.5Y-16.9
X-64.0Y16.9
X-64.0Y0.9
X-64.0Y-15.1
X-63.5Y15.1
X-63.5Y-0.9
X-63.5Y-16.9
X-16.9Y67.0
X-16.9Y66.0
X-16.9Y65.0
X-16.9Y64.0
X-16.9Y63.0
X-16.9Y62.0
X-16.9Y61.0
X-16.9Y60.0
X-16.9Y59.0
X-16.9Y-58.5
X-16.9Y-59.5
X-16.9Y-60.5
X-16.9Y-61.5
X-16.9Y-62.5
X-16.9Y-63.5
X-16.9Y-64.5
X-16.9Y-65.5
X-16.9Y-66.5
X-16.9Y-67.5
X-15.1Y67.5
X-15.1Y66.5
X-15.1Y65.5
X-15.1Y64.5
X-15.1Y63.5
X-15.1Y62.5
X-15.1Y61.5
X-15.1Y60.5
X-15.1Y59.5
X-15.1Y58.5
X-15.1Y-59.0
X-15.1Y-60.0
X-15.1Y-61.0
X-15.1Y-62.0
X-15.1Y-63.0
X-15.1Y-64.0
X-15.1Y-65.0
X-15.1Y-66.0
X-15.1Y-67.0
X-0.9Y67.0
X-0.9Y66.0
X-0.9Y65.0
X-0.9Y64.0
X-0.9Y63.0
X-0.9Y62.0
X-0.9Y61.0
X-0.9Y60.0
X-0.9Y59.0
X-0.9Y-58.5
X-0.9Y-59.5
X-0.9Y-60.5
X-0.9Y-61.5
X-0.9Y-62.5
X-0.9Y-63.5
X-0.9Y-64.5
X-0.9Y-65.5
X-0.9Y-66.5
X-0.9Y-67.5
X0.9Y67.5
X0.9Y66.5
X0.9Y65.5
X0.9Y64.5
X0.9Y63.5
X0.9Y62.5
X0.9Y61.5
X0.9Y60.5
X0.9Y59.5
X0.9Y58.5
X0.9Y-59.0
X0.9Y-60.0
X0.9Y-61.0
X0.9Y-62.0
X0.9Y-63.0
X0.9Y-64.0
X0.9Y-65.0
X0.9Y-66.0
X0.9Y-67.0
X15.1Y67.0
X15.1Y66.0
X15.1Y65.0
X15.1Y64.0
X15.1Y63.0
X15.1Y62.0
X15.1Y61.0
X15.1Y60.0
X15.1Y59.0
X15.1Y-58.5
X15.1Y-59.5
X15.1Y-60.5
X15.1Y-61.5
X15.1Y-62.5
X15.1Y-63.5
X15.1Y-64.5
X15.1Y-65.5
X15.1Y-66.5
X15.1Y-67.5
X16.9Y67.5
X16.9Y66.5
X16.9Y65.5
X16.9Y64.5
X16.9Y63.5
X16.9Y62.5
X16.9Y61.5
X16.9Y60.5
X16.9Y59.5
X16.9Y58.5
X16.9Y-59.0
X16.9Y-60.0
X16.9Y-61.0
X16.9Y-62.0
X16.9Y-63.0
X16.9Y-64.0
X16.9Y-65.0
X16.9Y-66.0
X16.9Y-67.0
T2
X-7.62Y12.0
X-7.62Y0.0
X-7.62Y-12.0
X-6.985Y13.1
X-6.985Y1.1
X-6.985Y-10.9
X-6.35Y12.0
X-6.35Y0.0
X-6.35Y-12.0
X-5.715Y13.1
X-5.715Y1.1
X-5.715Y-10.9
X-5.08Y12.0
X-5.08Y0.0
X-5.08Y-12.0
X-4.445Y13.1
X-4.445Y1.1
X-4.445Y-10.9
X-3.81Y12.0
X-3.81Y0.0
X-3.81Y-12.0
X-3.175Y13.1
X-3.175Y1.1
X-3.175Y-10.9
X-2.54Y12.0
X-2.54Y0.0
X-2.54Y-12.0
X-1.905Y13.1
X-1.905Y1.1
X-1.905Y-10.9
X-1.27Y12.0
X-1.27Y0.0
X-1.27Y-12.0
X-0.635Y13.1
X-0.635Y1.1
X-0.635Y-10.9
X0.0Y12.0
X0.0Y0.0
X0.0Y-12.0
X0.635Y13.1
X0.635Y1.1
X0.635Y-10.9
X1.27Y12.0
X1.27Y0.0
X1.27Y-12.0
X1.905Y13.1
X1.905Y1.1
X1.905Y-10.9
X2.54Y12.0
X2.54Y0.0
X2.54Y-12.0
X3.175Y13.1
X3.175Y1.1
X3.175Y-10.9
X3.81Y12.0
X3.81Y0.0
X3.81Y-12.0
X4.445Y13.1
X4.445Y1.1
X4.445Y-10.9
X5.08Y12.0
X5.08Y0.0
X5.08Y-12.0
X5.715Y13.1
X5.715Y1.1
X5.715Y-10.9
X6.35Y12.0
X6.35Y0.0
X6.35Y-12.0
X6.985Y13.1
X6.985Y1.1
X6.985Y-10.9
X7.62Y12.0
X7.62Y0.0
X7.62Y-12.0
T4
X-12.275Y12.55
X-12.275Y0.55
X-12.275Y-11.45
X12.275Y12.55
X12.275Y0.55
X12.275Y-11.45
T5
X-38.133Y15.795
X-38.133Y-15.795
X-15.795Y38.133
X-15.795Y-38.133
X15.795Y38.133
X15.795Y-38.133
X38.133Y15.795
X38.133Y-15.795
T3
X-74.75Y17.45G85X-74.75Y14.55
G05
X-74.75Y1.45G85X-74.75Y-1.45
G05
X-74.75Y-14.55G85X-74.75Y-17.45
G05
X-61.25Y17.45G85X-61.25Y14.55
G05
X-61.25Y1.45G85X-61.25Y-1.45
G05
X-61.25Y-14.55G85X-61.25Y-17.45
G05
X-17.45Y69.75G85X-14.55Y69.75
G05
X-17.45Y56.25G85X-14.55Y56.25
G05
X-14.55Y-56.25G85X-17.45Y-56.25
G05
X-14.55Y-69.75G85X-17.45Y-69.75
G05
X-1.45Y69.75G85X1.45Y69.75
G05
X-1.45Y56.25G85X1.45Y56.25
G05
X1.45Y-56.25G85X-1.45Y-56.25
G05
X1.45Y-69.75G85X-1.45Y-69.75
G05
X14.55Y69.75G85X17.45Y69.75
G05
X14.55Y56.25G85X17.45Y56.25
G05
X17.45Y-56.25G85X14.55Y-56.25
G05
X17.45Y-69.75G85X14.55Y-69.75
G05
T0
M30
