%TF.GenerationSoftware,KiCad,Pcbnew,(5.1.9)-1*%
%TF.CreationDate,2021-08-06T17:39:50-06:00*%
%TF.ProjectId,VacuumFeedThruHDMI,56616375-756d-4466-9565-645468727548,rev?*%
%TF.SameCoordinates,Original*%
%TF.FileFunction,Other,Fab,Bot*%
%FSLAX46Y46*%
G04 Gerber Fmt 4.6, Leading zero omitted, Abs format (unit mm)*
G04 Created by KiCad (PCBNEW (5.1.9)-1) date 2021-08-06 17:39:50*
%MOMM*%
%LPD*%
G01*
G04 APERTURE LIST*
%ADD10C,0.150000*%
G04 APERTURE END LIST*
%TO.C,J3*%
D10*
X5314285Y-16632857D02*
X5314285Y-15432857D01*
X4914285Y-16290000D01*
X4514285Y-15432857D01*
X4514285Y-16632857D01*
X3428571Y-16632857D02*
X3428571Y-16004285D01*
X3485714Y-15890000D01*
X3599999Y-15832857D01*
X3828571Y-15832857D01*
X3942857Y-15890000D01*
X3428571Y-16575714D02*
X3542857Y-16632857D01*
X3828571Y-16632857D01*
X3942857Y-16575714D01*
X3999999Y-16461428D01*
X3999999Y-16347142D01*
X3942857Y-16232857D01*
X3828571Y-16175714D01*
X3542857Y-16175714D01*
X3428571Y-16118571D01*
X2685714Y-16632857D02*
X2799999Y-16575714D01*
X2857142Y-16461428D01*
X2857142Y-15432857D01*
X1771428Y-16575714D02*
X1885714Y-16632857D01*
X2114285Y-16632857D01*
X2228571Y-16575714D01*
X2285714Y-16461428D01*
X2285714Y-16004285D01*
X2228571Y-15890000D01*
X2114285Y-15832857D01*
X1885714Y-15832857D01*
X1771428Y-15890000D01*
X1714285Y-16004285D01*
X1714285Y-16118571D01*
X2285714Y-16232857D01*
X-571428Y-15375714D02*
X457142Y-16918571D01*
X-1885714Y-16632857D02*
X-1885714Y-15432857D01*
X-2342857Y-15432857D01*
X-2457142Y-15490000D01*
X-2514285Y-15547142D01*
X-2571428Y-15661428D01*
X-2571428Y-15832857D01*
X-2514285Y-15947142D01*
X-2457142Y-16004285D01*
X-2342857Y-16061428D01*
X-1885714Y-16061428D01*
X-3257142Y-16632857D02*
X-3142857Y-16575714D01*
X-3085714Y-16461428D01*
X-3085714Y-15432857D01*
X-4228571Y-15832857D02*
X-4228571Y-16632857D01*
X-3714285Y-15832857D02*
X-3714285Y-16461428D01*
X-3771428Y-16575714D01*
X-3885714Y-16632857D01*
X-4057142Y-16632857D01*
X-4171428Y-16575714D01*
X-4228571Y-16518571D01*
X-5314285Y-15832857D02*
X-5314285Y-16804285D01*
X-5257142Y-16918571D01*
X-5199999Y-16975714D01*
X-5085714Y-17032857D01*
X-4914285Y-17032857D01*
X-4799999Y-16975714D01*
X-5314285Y-16575714D02*
X-5199999Y-16632857D01*
X-4971428Y-16632857D01*
X-4857142Y-16575714D01*
X-4799999Y-16518571D01*
X-4742857Y-16404285D01*
X-4742857Y-16061428D01*
X-4799999Y-15947142D01*
X-4857142Y-15890000D01*
X-4971428Y-15832857D01*
X-5199999Y-15832857D01*
X-5314285Y-15890000D01*
%TO.C,J2*%
X5314285Y-3632857D02*
X5314285Y-2432857D01*
X4914285Y-3290000D01*
X4514285Y-2432857D01*
X4514285Y-3632857D01*
X3428571Y-3632857D02*
X3428571Y-3004285D01*
X3485714Y-2890000D01*
X3599999Y-2832857D01*
X3828571Y-2832857D01*
X3942857Y-2890000D01*
X3428571Y-3575714D02*
X3542857Y-3632857D01*
X3828571Y-3632857D01*
X3942857Y-3575714D01*
X3999999Y-3461428D01*
X3999999Y-3347142D01*
X3942857Y-3232857D01*
X3828571Y-3175714D01*
X3542857Y-3175714D01*
X3428571Y-3118571D01*
X2685714Y-3632857D02*
X2799999Y-3575714D01*
X2857142Y-3461428D01*
X2857142Y-2432857D01*
X1771428Y-3575714D02*
X1885714Y-3632857D01*
X2114285Y-3632857D01*
X2228571Y-3575714D01*
X2285714Y-3461428D01*
X2285714Y-3004285D01*
X2228571Y-2890000D01*
X2114285Y-2832857D01*
X1885714Y-2832857D01*
X1771428Y-2890000D01*
X1714285Y-3004285D01*
X1714285Y-3118571D01*
X2285714Y-3232857D01*
X-571428Y-2375714D02*
X457142Y-3918571D01*
X-1885714Y-3632857D02*
X-1885714Y-2432857D01*
X-2342857Y-2432857D01*
X-2457142Y-2490000D01*
X-2514285Y-2547142D01*
X-2571428Y-2661428D01*
X-2571428Y-2832857D01*
X-2514285Y-2947142D01*
X-2457142Y-3004285D01*
X-2342857Y-3061428D01*
X-1885714Y-3061428D01*
X-3257142Y-3632857D02*
X-3142857Y-3575714D01*
X-3085714Y-3461428D01*
X-3085714Y-2432857D01*
X-4228571Y-2832857D02*
X-4228571Y-3632857D01*
X-3714285Y-2832857D02*
X-3714285Y-3461428D01*
X-3771428Y-3575714D01*
X-3885714Y-3632857D01*
X-4057142Y-3632857D01*
X-4171428Y-3575714D01*
X-4228571Y-3518571D01*
X-5314285Y-2832857D02*
X-5314285Y-3804285D01*
X-5257142Y-3918571D01*
X-5199999Y-3975714D01*
X-5085714Y-4032857D01*
X-4914285Y-4032857D01*
X-4799999Y-3975714D01*
X-5314285Y-3575714D02*
X-5199999Y-3632857D01*
X-4971428Y-3632857D01*
X-4857142Y-3575714D01*
X-4799999Y-3518571D01*
X-4742857Y-3404285D01*
X-4742857Y-3061428D01*
X-4799999Y-2947142D01*
X-4857142Y-2890000D01*
X-4971428Y-2832857D01*
X-5199999Y-2832857D01*
X-5314285Y-2890000D01*
%TO.C,J1*%
X5314285Y9467142D02*
X5314285Y10667142D01*
X4914285Y9810000D01*
X4514285Y10667142D01*
X4514285Y9467142D01*
X3428571Y9467142D02*
X3428571Y10095714D01*
X3485714Y10210000D01*
X3599999Y10267142D01*
X3828571Y10267142D01*
X3942857Y10210000D01*
X3428571Y9524285D02*
X3542857Y9467142D01*
X3828571Y9467142D01*
X3942857Y9524285D01*
X3999999Y9638571D01*
X3999999Y9752857D01*
X3942857Y9867142D01*
X3828571Y9924285D01*
X3542857Y9924285D01*
X3428571Y9981428D01*
X2685714Y9467142D02*
X2799999Y9524285D01*
X2857142Y9638571D01*
X2857142Y10667142D01*
X1771428Y9524285D02*
X1885714Y9467142D01*
X2114285Y9467142D01*
X2228571Y9524285D01*
X2285714Y9638571D01*
X2285714Y10095714D01*
X2228571Y10210000D01*
X2114285Y10267142D01*
X1885714Y10267142D01*
X1771428Y10210000D01*
X1714285Y10095714D01*
X1714285Y9981428D01*
X2285714Y9867142D01*
X-571428Y10724285D02*
X457142Y9181428D01*
X-1885714Y9467142D02*
X-1885714Y10667142D01*
X-2342857Y10667142D01*
X-2457142Y10610000D01*
X-2514285Y10552857D01*
X-2571428Y10438571D01*
X-2571428Y10267142D01*
X-2514285Y10152857D01*
X-2457142Y10095714D01*
X-2342857Y10038571D01*
X-1885714Y10038571D01*
X-3257142Y9467142D02*
X-3142857Y9524285D01*
X-3085714Y9638571D01*
X-3085714Y10667142D01*
X-4228571Y10267142D02*
X-4228571Y9467142D01*
X-3714285Y10267142D02*
X-3714285Y9638571D01*
X-3771428Y9524285D01*
X-3885714Y9467142D01*
X-4057142Y9467142D01*
X-4171428Y9524285D01*
X-4228571Y9581428D01*
X-5314285Y10267142D02*
X-5314285Y9295714D01*
X-5257142Y9181428D01*
X-5199999Y9124285D01*
X-5085714Y9067142D01*
X-4914285Y9067142D01*
X-4799999Y9124285D01*
X-5314285Y9524285D02*
X-5199999Y9467142D01*
X-4971428Y9467142D01*
X-4857142Y9524285D01*
X-4799999Y9581428D01*
X-4742857Y9695714D01*
X-4742857Y10038571D01*
X-4799999Y10152857D01*
X-4857142Y10210000D01*
X-4971428Y10267142D01*
X-5199999Y10267142D01*
X-5314285Y10210000D01*
%TD*%
M02*
