M48
METRIC
T1C0.550
T2C0.610
T3C1.000
T4C2.810
T5C5.170
%
G90
G05
T1
X-72.5Y16.8
X-72.5Y0.9
X-72.5Y-15.1
X-72.0Y15.0
X-72.0Y-0.9
X-72.0Y-16.9
X-71.5Y16.8
X-71.5Y0.9
X-71.5Y-15.1
X-71.0Y15.0
X-71.0Y-0.9
X-71.0Y-16.9
X-70.5Y16.8
X-70.5Y0.9
X-70.5Y-15.1
X-70.0Y15.0
X-70.0Y-0.9
X-70.0Y-16.9
X-69.5Y16.8
X-69.5Y0.9
X-69.5Y-15.1
X-69.0Y15.0
X-69.0Y-0.9
X-69.0Y-16.9
X-68.5Y16.8
X-68.5Y0.9
X-68.5Y-15.1
X-68.0Y15.0
X-68.0Y-0.9
X-68.0Y-16.9
X-67.5Y16.8
X-67.5Y0.9
X-67.5Y-15.1
X-67.0Y15.0
X-67.0Y-0.9
X-67.0Y-16.9
X-66.5Y16.8
X-66.5Y0.9
X-66.5Y-15.1
X-66.0Y15.0
X-66.0Y-0.9
X-66.0Y-16.9
X-65.5Y16.8
X-65.5Y0.9
X-65.5Y-15.1
X-65.0Y15.0
X-65.0Y-0.9
X-65.0Y-16.9
X-64.5Y16.8
X-64.5Y0.9
X-64.5Y-15.1
X-64.0Y15.0
X-64.0Y-0.9
X-64.0Y-16.9
X-63.5Y16.8
X-63.5Y0.9
X-63.5Y-15.1
X-16.8Y67.5
X-16.8Y66.5
X-16.8Y65.5
X-16.8Y64.5
X-16.8Y63.5
X-16.8Y62.5
X-16.8Y61.5
X-16.8Y60.5
X-16.8Y59.5
X-16.8Y58.5
X-16.8Y-58.5
X-16.8Y-59.5
X-16.8Y-60.5
X-16.8Y-61.5
X-16.8Y-62.5
X-16.8Y-63.5
X-16.8Y-64.5
X-16.8Y-65.5
X-16.8Y-66.5
X-16.8Y-67.5
X-15.0Y67.0
X-15.0Y66.0
X-15.0Y65.0
X-15.0Y64.0
X-15.0Y63.0
X-15.0Y62.0
X-15.0Y61.0
X-15.0Y60.0
X-15.0Y59.0
X-15.0Y-59.0
X-15.0Y-60.0
X-15.0Y-61.0
X-15.0Y-62.0
X-15.0Y-63.0
X-15.0Y-64.0
X-15.0Y-65.0
X-15.0Y-66.0
X-15.0Y-67.0
X-0.9Y67.5
X-0.9Y66.5
X-0.9Y65.5
X-0.9Y64.5
X-0.9Y63.5
X-0.9Y62.5
X-0.9Y61.5
X-0.9Y60.5
X-0.9Y59.5
X-0.9Y58.5
X-0.9Y-58.5
X-0.9Y-59.5
X-0.9Y-60.5
X-0.9Y-61.5
X-0.9Y-62.5
X-0.9Y-63.5
X-0.9Y-64.5
X-0.9Y-65.5
X-0.9Y-66.5
X-0.9Y-67.5
X0.9Y67.0
X0.9Y66.0
X0.9Y65.0
X0.9Y64.0
X0.9Y63.0
X0.9Y62.0
X0.9Y61.0
X0.9Y60.0
X0.9Y59.0
X0.9Y-59.0
X0.9Y-60.0
X0.9Y-61.0
X0.9Y-62.0
X0.9Y-63.0
X0.9Y-64.0
X0.9Y-65.0
X0.9Y-66.0
X0.9Y-67.0
X15.0Y67.5
X15.0Y66.5
X15.0Y65.5
X15.0Y64.5
X15.0Y63.5
X15.0Y62.5
X15.0Y61.5
X15.0Y60.5
X15.0Y59.5
X15.0Y58.5
X15.0Y-58.5
X15.0Y-59.5
X15.0Y-60.5
X15.0Y-61.5
X15.0Y-62.5
X15.0Y-63.5
X15.0Y-64.5
X15.0Y-65.5
X15.0Y-66.5
X15.0Y-67.5
X16.8Y67.0
X16.8Y66.0
X16.8Y65.0
X16.8Y64.0
X16.8Y63.0
X16.8Y62.0
X16.8Y61.0
X16.8Y60.0
X16.8Y59.0
X16.8Y-59.0
X16.8Y-60.0
X16.8Y-61.0
X16.8Y-62.0
X16.8Y-63.0
X16.8Y-64.0
X16.8Y-65.0
X16.8Y-66.0
X16.8Y-67.0
T2
X-7.62Y12.0
X-7.62Y-1.1
X-7.62Y-14.1
X-6.985Y13.1
X-6.985Y0.0
X-6.985Y-13.0
X-6.35Y12.0
X-6.35Y-1.1
X-6.35Y-14.1
X-5.715Y13.1
X-5.715Y0.0
X-5.715Y-13.0
X-5.08Y12.0
X-5.08Y-1.1
X-5.08Y-14.1
X-4.445Y13.1
X-4.445Y0.0
X-4.445Y-13.0
X-3.81Y12.0
X-3.81Y-1.1
X-3.81Y-14.1
X-3.175Y13.1
X-3.175Y0.0
X-3.175Y-13.0
X-2.54Y12.0
X-2.54Y-1.1
X-2.54Y-14.1
X-1.905Y13.1
X-1.905Y0.0
X-1.905Y-13.0
X-1.27Y12.0
X-1.27Y-1.1
X-1.27Y-14.1
X-0.635Y13.1
X-0.635Y0.0
X-0.635Y-13.0
X0.0Y12.0
X0.0Y-1.1
X0.0Y-14.1
X0.635Y13.1
X0.635Y0.0
X0.635Y-13.0
X1.27Y12.0
X1.27Y-1.1
X1.27Y-14.1
X1.905Y13.1
X1.905Y0.0
X1.905Y-13.0
X2.54Y12.0
X2.54Y-1.1
X2.54Y-14.1
X3.175Y13.1
X3.175Y0.0
X3.175Y-13.0
X3.81Y12.0
X3.81Y-1.1
X3.81Y-14.1
X4.445Y13.1
X4.445Y0.0
X4.445Y-13.0
X5.08Y12.0
X5.08Y-1.1
X5.08Y-14.1
X5.715Y13.1
X5.715Y0.0
X5.715Y-13.0
X6.35Y12.0
X6.35Y-1.1
X6.35Y-14.1
X6.985Y13.1
X6.985Y0.0
X6.985Y-13.0
X7.62Y12.0
X7.62Y-1.1
X7.62Y-14.1
T4
X-12.275Y12.55
X-12.275Y-0.55
X-12.275Y-13.55
X12.275Y12.55
X12.275Y-0.55
X12.275Y-13.55
T5
X-38.133Y15.795
X-38.133Y-15.795
X-15.795Y38.133
X-15.795Y-38.133
X15.795Y38.133
X15.795Y-38.133
X38.133Y15.795
X38.133Y-15.795
T3
G00X-74.75Y14.45
M15
G01X-74.75Y17.35
M16
G05
G00X-74.75Y-1.45
M15
G01X-74.75Y1.45
M16
G05
G00X-74.75Y-17.45
M15
G01X-74.75Y-14.55
M16
G05
G00X-61.25Y14.45
M15
G01X-61.25Y17.35
M16
G05
G00X-61.25Y-1.45
M15
G01X-61.25Y1.45
M16
G05
G00X-61.25Y-17.45
M15
G01X-61.25Y-14.55
M16
G05
G00X-14.45Y69.75
M15
G01X-17.35Y69.75
M16
G05
G00X-14.45Y56.25
M15
G01X-17.35Y56.25
M16
G05
G00X-14.45Y-56.25
M15
G01X-17.35Y-56.25
M16
G05
G00X-14.45Y-69.75
M15
G01X-17.35Y-69.75
M16
G05
G00X1.45Y69.75
M15
G01X-1.45Y69.75
M16
G05
G00X1.45Y56.25
M15
G01X-1.45Y56.25
M16
G05
G00X1.45Y-56.25
M15
G01X-1.45Y-56.25
M16
G05
G00X1.45Y-69.75
M15
G01X-1.45Y-69.75
M16
G05
G00X17.35Y69.75
M15
G01X14.45Y69.75
M16
G05
G00X17.35Y56.25
M15
G01X14.45Y56.25
M16
G05
G00X17.35Y-56.25
M15
G01X14.45Y-56.25
M16
G05
G00X17.35Y-69.75
M15
G01X14.45Y-69.75
M16
G05
T0
M30
