%TF.GenerationSoftware,KiCad,Pcbnew,(5.1.9)-1*%
%TF.CreationDate,2021-08-09T14:44:20-06:00*%
%TF.ProjectId,VacuumFeedThruHDMI,56616375-756d-4466-9565-645468727548,rev?*%
%TF.SameCoordinates,Original*%
%TF.FileFunction,Other,Fab,Top*%
%FSLAX46Y46*%
G04 Gerber Fmt 4.6, Leading zero omitted, Abs format (unit mm)*
G04 Created by KiCad (PCBNEW (5.1.9)-1) date 2021-08-09 14:44:20*
%MOMM*%
%LPD*%
G01*
G04 APERTURE LIST*
%ADD10C,0.150000*%
G04 APERTURE END LIST*
%TO.C,J3*%
D10*
X-4206428Y-5992857D02*
X-4206428Y-4792857D01*
X-3920714Y-4792857D01*
X-3749285Y-4850000D01*
X-3635000Y-4964285D01*
X-3577857Y-5078571D01*
X-3520714Y-5307142D01*
X-3520714Y-5478571D01*
X-3577857Y-5707142D01*
X-3635000Y-5821428D01*
X-3749285Y-5935714D01*
X-3920714Y-5992857D01*
X-4206428Y-5992857D01*
X-2606428Y-5364285D02*
X-2435000Y-5421428D01*
X-2377857Y-5478571D01*
X-2320714Y-5592857D01*
X-2320714Y-5764285D01*
X-2377857Y-5878571D01*
X-2435000Y-5935714D01*
X-2549285Y-5992857D01*
X-3006428Y-5992857D01*
X-3006428Y-4792857D01*
X-2606428Y-4792857D01*
X-2492142Y-4850000D01*
X-2435000Y-4907142D01*
X-2377857Y-5021428D01*
X-2377857Y-5135714D01*
X-2435000Y-5250000D01*
X-2492142Y-5307142D01*
X-2606428Y-5364285D01*
X-3006428Y-5364285D01*
X-1863571Y-4907142D02*
X-1806428Y-4850000D01*
X-1692142Y-4792857D01*
X-1406428Y-4792857D01*
X-1292142Y-4850000D01*
X-1235000Y-4907142D01*
X-1177857Y-5021428D01*
X-1177857Y-5135714D01*
X-1235000Y-5307142D01*
X-1920714Y-5992857D01*
X-1177857Y-5992857D01*
X-92142Y-4792857D02*
X-663571Y-4792857D01*
X-720714Y-5364285D01*
X-663571Y-5307142D01*
X-549285Y-5250000D01*
X-263571Y-5250000D01*
X-149285Y-5307142D01*
X-92142Y-5364285D01*
X-35000Y-5478571D01*
X-35000Y-5764285D01*
X-92142Y-5878571D01*
X-149285Y-5935714D01*
X-263571Y-5992857D01*
X-549285Y-5992857D01*
X-663571Y-5935714D01*
X-720714Y-5878571D01*
X193571Y-6107142D02*
X1107857Y-6107142D01*
X1393571Y-5992857D02*
X1393571Y-4792857D01*
X1793571Y-5650000D01*
X2193571Y-4792857D01*
X2193571Y-5992857D01*
X3279285Y-5992857D02*
X3279285Y-5364285D01*
X3222142Y-5250000D01*
X3107857Y-5192857D01*
X2879285Y-5192857D01*
X2764999Y-5250000D01*
X3279285Y-5935714D02*
X3164999Y-5992857D01*
X2879285Y-5992857D01*
X2764999Y-5935714D01*
X2707857Y-5821428D01*
X2707857Y-5707142D01*
X2764999Y-5592857D01*
X2879285Y-5535714D01*
X3164999Y-5535714D01*
X3279285Y-5478571D01*
X4022142Y-5992857D02*
X3907857Y-5935714D01*
X3850714Y-5821428D01*
X3850714Y-4792857D01*
X4936428Y-5935714D02*
X4822142Y-5992857D01*
X4593571Y-5992857D01*
X4479285Y-5935714D01*
X4422142Y-5821428D01*
X4422142Y-5364285D01*
X4479285Y-5250000D01*
X4593571Y-5192857D01*
X4822142Y-5192857D01*
X4936428Y-5250000D01*
X4993571Y-5364285D01*
X4993571Y-5478571D01*
X4422142Y-5592857D01*
%TO.C,J1*%
X-4206428Y18007142D02*
X-4206428Y19207142D01*
X-3920714Y19207142D01*
X-3749285Y19150000D01*
X-3635000Y19035714D01*
X-3577857Y18921428D01*
X-3520714Y18692857D01*
X-3520714Y18521428D01*
X-3577857Y18292857D01*
X-3635000Y18178571D01*
X-3749285Y18064285D01*
X-3920714Y18007142D01*
X-4206428Y18007142D01*
X-2606428Y18635714D02*
X-2435000Y18578571D01*
X-2377857Y18521428D01*
X-2320714Y18407142D01*
X-2320714Y18235714D01*
X-2377857Y18121428D01*
X-2435000Y18064285D01*
X-2549285Y18007142D01*
X-3006428Y18007142D01*
X-3006428Y19207142D01*
X-2606428Y19207142D01*
X-2492142Y19150000D01*
X-2435000Y19092857D01*
X-2377857Y18978571D01*
X-2377857Y18864285D01*
X-2435000Y18750000D01*
X-2492142Y18692857D01*
X-2606428Y18635714D01*
X-3006428Y18635714D01*
X-1863571Y19092857D02*
X-1806428Y19150000D01*
X-1692142Y19207142D01*
X-1406428Y19207142D01*
X-1292142Y19150000D01*
X-1235000Y19092857D01*
X-1177857Y18978571D01*
X-1177857Y18864285D01*
X-1235000Y18692857D01*
X-1920714Y18007142D01*
X-1177857Y18007142D01*
X-92142Y19207142D02*
X-663571Y19207142D01*
X-720714Y18635714D01*
X-663571Y18692857D01*
X-549285Y18750000D01*
X-263571Y18750000D01*
X-149285Y18692857D01*
X-92142Y18635714D01*
X-35000Y18521428D01*
X-35000Y18235714D01*
X-92142Y18121428D01*
X-149285Y18064285D01*
X-263571Y18007142D01*
X-549285Y18007142D01*
X-663571Y18064285D01*
X-720714Y18121428D01*
X193571Y17892857D02*
X1107857Y17892857D01*
X1393571Y18007142D02*
X1393571Y19207142D01*
X1793571Y18350000D01*
X2193571Y19207142D01*
X2193571Y18007142D01*
X3279285Y18007142D02*
X3279285Y18635714D01*
X3222142Y18750000D01*
X3107857Y18807142D01*
X2879285Y18807142D01*
X2764999Y18750000D01*
X3279285Y18064285D02*
X3164999Y18007142D01*
X2879285Y18007142D01*
X2764999Y18064285D01*
X2707857Y18178571D01*
X2707857Y18292857D01*
X2764999Y18407142D01*
X2879285Y18464285D01*
X3164999Y18464285D01*
X3279285Y18521428D01*
X4022142Y18007142D02*
X3907857Y18064285D01*
X3850714Y18178571D01*
X3850714Y19207142D01*
X4936428Y18064285D02*
X4822142Y18007142D01*
X4593571Y18007142D01*
X4479285Y18064285D01*
X4422142Y18178571D01*
X4422142Y18635714D01*
X4479285Y18750000D01*
X4593571Y18807142D01*
X4822142Y18807142D01*
X4936428Y18750000D01*
X4993571Y18635714D01*
X4993571Y18521428D01*
X4422142Y18407142D01*
%TO.C,J2*%
X-4206428Y6007142D02*
X-4206428Y7207142D01*
X-3920714Y7207142D01*
X-3749285Y7150000D01*
X-3635000Y7035714D01*
X-3577857Y6921428D01*
X-3520714Y6692857D01*
X-3520714Y6521428D01*
X-3577857Y6292857D01*
X-3635000Y6178571D01*
X-3749285Y6064285D01*
X-3920714Y6007142D01*
X-4206428Y6007142D01*
X-2606428Y6635714D02*
X-2435000Y6578571D01*
X-2377857Y6521428D01*
X-2320714Y6407142D01*
X-2320714Y6235714D01*
X-2377857Y6121428D01*
X-2435000Y6064285D01*
X-2549285Y6007142D01*
X-3006428Y6007142D01*
X-3006428Y7207142D01*
X-2606428Y7207142D01*
X-2492142Y7150000D01*
X-2435000Y7092857D01*
X-2377857Y6978571D01*
X-2377857Y6864285D01*
X-2435000Y6750000D01*
X-2492142Y6692857D01*
X-2606428Y6635714D01*
X-3006428Y6635714D01*
X-1863571Y7092857D02*
X-1806428Y7150000D01*
X-1692142Y7207142D01*
X-1406428Y7207142D01*
X-1292142Y7150000D01*
X-1235000Y7092857D01*
X-1177857Y6978571D01*
X-1177857Y6864285D01*
X-1235000Y6692857D01*
X-1920714Y6007142D01*
X-1177857Y6007142D01*
X-92142Y7207142D02*
X-663571Y7207142D01*
X-720714Y6635714D01*
X-663571Y6692857D01*
X-549285Y6750000D01*
X-263571Y6750000D01*
X-149285Y6692857D01*
X-92142Y6635714D01*
X-35000Y6521428D01*
X-35000Y6235714D01*
X-92142Y6121428D01*
X-149285Y6064285D01*
X-263571Y6007142D01*
X-549285Y6007142D01*
X-663571Y6064285D01*
X-720714Y6121428D01*
X193571Y5892857D02*
X1107857Y5892857D01*
X1393571Y6007142D02*
X1393571Y7207142D01*
X1793571Y6350000D01*
X2193571Y7207142D01*
X2193571Y6007142D01*
X3279285Y6007142D02*
X3279285Y6635714D01*
X3222142Y6750000D01*
X3107857Y6807142D01*
X2879285Y6807142D01*
X2764999Y6750000D01*
X3279285Y6064285D02*
X3164999Y6007142D01*
X2879285Y6007142D01*
X2764999Y6064285D01*
X2707857Y6178571D01*
X2707857Y6292857D01*
X2764999Y6407142D01*
X2879285Y6464285D01*
X3164999Y6464285D01*
X3279285Y6521428D01*
X4022142Y6007142D02*
X3907857Y6064285D01*
X3850714Y6178571D01*
X3850714Y7207142D01*
X4936428Y6064285D02*
X4822142Y6007142D01*
X4593571Y6007142D01*
X4479285Y6064285D01*
X4422142Y6178571D01*
X4422142Y6635714D01*
X4479285Y6750000D01*
X4593571Y6807142D01*
X4822142Y6807142D01*
X4936428Y6750000D01*
X4993571Y6635714D01*
X4993571Y6521428D01*
X4422142Y6407142D01*
X-3758095Y4572857D02*
X-3805714Y4525238D01*
X-3948571Y4477619D01*
X-4043809Y4477619D01*
X-4186666Y4525238D01*
X-4281904Y4620476D01*
X-4329523Y4715714D01*
X-4377142Y4906190D01*
X-4377142Y5049047D01*
X-4329523Y5239523D01*
X-4281904Y5334761D01*
X-4186666Y5430000D01*
X-4043809Y5477619D01*
X-3948571Y5477619D01*
X-3805714Y5430000D01*
X-3758095Y5382380D01*
X-3186666Y4477619D02*
X-3281904Y4525238D01*
X-3329523Y4572857D01*
X-3377142Y4668095D01*
X-3377142Y4953809D01*
X-3329523Y5049047D01*
X-3281904Y5096666D01*
X-3186666Y5144285D01*
X-3043809Y5144285D01*
X-2948571Y5096666D01*
X-2900952Y5049047D01*
X-2853333Y4953809D01*
X-2853333Y4668095D01*
X-2900952Y4572857D01*
X-2948571Y4525238D01*
X-3043809Y4477619D01*
X-3186666Y4477619D01*
X-2424761Y5144285D02*
X-2424761Y4477619D01*
X-2424761Y5049047D02*
X-2377142Y5096666D01*
X-2281904Y5144285D01*
X-2139047Y5144285D01*
X-2043809Y5096666D01*
X-1996190Y5001428D01*
X-1996190Y4477619D01*
X-1520000Y5144285D02*
X-1520000Y4477619D01*
X-1520000Y5049047D02*
X-1472380Y5096666D01*
X-1377142Y5144285D01*
X-1234285Y5144285D01*
X-1139047Y5096666D01*
X-1091428Y5001428D01*
X-1091428Y4477619D01*
X-853333Y4382380D02*
X-91428Y4382380D01*
X337142Y5477619D02*
X432380Y5477619D01*
X527619Y5430000D01*
X575238Y5382380D01*
X622857Y5287142D01*
X670476Y5096666D01*
X670476Y4858571D01*
X622857Y4668095D01*
X575238Y4572857D01*
X527619Y4525238D01*
X432380Y4477619D01*
X337142Y4477619D01*
X241904Y4525238D01*
X194285Y4572857D01*
X146666Y4668095D01*
X99047Y4858571D01*
X99047Y5096666D01*
X146666Y5287142D01*
X194285Y5382380D01*
X241904Y5430000D01*
X337142Y5477619D01*
X1622857Y4477619D02*
X1051428Y4477619D01*
X1337142Y4477619D02*
X1337142Y5477619D01*
X1241904Y5334761D01*
X1146666Y5239523D01*
X1051428Y5191904D01*
X1956190Y4477619D02*
X2480000Y5144285D01*
X1956190Y5144285D02*
X2480000Y4477619D01*
X3051428Y5477619D02*
X3146666Y5477619D01*
X3241904Y5430000D01*
X3289523Y5382380D01*
X3337142Y5287142D01*
X3384761Y5096666D01*
X3384761Y4858571D01*
X3337142Y4668095D01*
X3289523Y4572857D01*
X3241904Y4525238D01*
X3146666Y4477619D01*
X3051428Y4477619D01*
X2956190Y4525238D01*
X2908571Y4572857D01*
X2860952Y4668095D01*
X2813333Y4858571D01*
X2813333Y5096666D01*
X2860952Y5287142D01*
X2908571Y5382380D01*
X2956190Y5430000D01*
X3051428Y5477619D01*
X3956190Y5049047D02*
X3860952Y5096666D01*
X3813333Y5144285D01*
X3765714Y5239523D01*
X3765714Y5287142D01*
X3813333Y5382380D01*
X3860952Y5430000D01*
X3956190Y5477619D01*
X4146666Y5477619D01*
X4241904Y5430000D01*
X4289523Y5382380D01*
X4337142Y5287142D01*
X4337142Y5239523D01*
X4289523Y5144285D01*
X4241904Y5096666D01*
X4146666Y5049047D01*
X3956190Y5049047D01*
X3860952Y5001428D01*
X3813333Y4953809D01*
X3765714Y4858571D01*
X3765714Y4668095D01*
X3813333Y4572857D01*
X3860952Y4525238D01*
X3956190Y4477619D01*
X4146666Y4477619D01*
X4241904Y4525238D01*
X4289523Y4572857D01*
X4337142Y4668095D01*
X4337142Y4858571D01*
X4289523Y4953809D01*
X4241904Y5001428D01*
X4146666Y5049047D01*
%TD*%
M02*
