%TF.GenerationSoftware,KiCad,Pcbnew,(6.0.5)*%
%TF.CreationDate,2022-07-15T13:09:05-06:00*%
%TF.ProjectId,25to25,3235746f-3235-42e6-9b69-6361645f7063,rev?*%
%TF.SameCoordinates,Original*%
%TF.FileFunction,Copper,L2,Bot*%
%TF.FilePolarity,Positive*%
%FSLAX46Y46*%
G04 Gerber Fmt 4.6, Leading zero omitted, Abs format (unit mm)*
G04 Created by KiCad (PCBNEW (6.0.5)) date 2022-07-15 13:09:05*
%MOMM*%
%LPD*%
G01*
G04 APERTURE LIST*
%TA.AperFunction,ComponentPad*%
%ADD10R,1.700000X1.700000*%
%TD*%
%TA.AperFunction,ComponentPad*%
%ADD11O,1.700000X1.700000*%
%TD*%
%TA.AperFunction,ComponentPad*%
%ADD12C,4.200000*%
%TD*%
%TA.AperFunction,ComponentPad*%
%ADD13C,0.910000*%
%TD*%
G04 APERTURE END LIST*
D10*
%TO.P,J2,1,Pin_1*%
%TO.N,Net-(J2-Pad1)*%
X126700000Y-62800000D03*
D11*
%TO.P,J2,2,Pin_2*%
%TO.N,Net-(J2-Pad2)*%
X129240000Y-62800000D03*
%TD*%
D12*
%TO.P,J4,0,PAD*%
%TO.N,GND*%
X137125000Y-83260000D03*
X161635000Y-83260000D03*
D13*
%TO.P,J4,1,1*%
%TO.N,Net-(J3-Pad1)*%
X157000000Y-79450000D03*
%TO.P,J4,2,2*%
%TO.N,Net-(J3-Pad2)*%
X155730000Y-79450000D03*
%TO.P,J4,3,3*%
%TO.N,Net-(J3-Pad3)*%
X154460000Y-79450000D03*
%TO.P,J4,4,4*%
%TO.N,Net-(J3-Pad4)*%
X153190000Y-79450000D03*
%TO.P,J4,5,5*%
%TO.N,Net-(J3-Pad5)*%
X151920000Y-79450000D03*
%TO.P,J4,6,6*%
%TO.N,Net-(J3-Pad6)*%
X150650000Y-79450000D03*
%TO.P,J4,7,7*%
%TO.N,Net-(J3-Pad7)*%
X149380000Y-79450000D03*
%TO.P,J4,8,8*%
%TO.N,Net-(J3-Pad8)*%
X148110000Y-79450000D03*
%TO.P,J4,9,9*%
%TO.N,Net-(J1-Pad1)*%
X146840000Y-79450000D03*
%TO.P,J4,10,10*%
%TO.N,Net-(J2-Pad1)*%
X145570000Y-79450000D03*
%TO.P,J4,11,11*%
%TO.N,Net-(J3-Pad11)*%
X144300000Y-79450000D03*
%TO.P,J4,12,12*%
%TO.N,Net-(J3-Pad12)*%
X143030000Y-79450000D03*
%TO.P,J4,13,13*%
%TO.N,Net-(J3-Pad13)*%
X141760000Y-79450000D03*
%TO.P,J4,14,P14*%
%TO.N,Net-(J3-Pad14)*%
X156365000Y-81990000D03*
%TO.P,J4,15,P15*%
%TO.N,Net-(J3-Pad15)*%
X155095000Y-81990000D03*
%TO.P,J4,16,P16*%
%TO.N,Net-(J3-Pad16)*%
X153825000Y-81990000D03*
%TO.P,J4,17,P17*%
%TO.N,Net-(J3-Pad17)*%
X152555000Y-81990000D03*
%TO.P,J4,18,P18*%
%TO.N,Net-(J3-Pad18)*%
X151285000Y-81990000D03*
%TO.P,J4,19,P19*%
%TO.N,Net-(J3-Pad19)*%
X150015000Y-81990000D03*
%TO.P,J4,20,P20*%
%TO.N,Net-(J3-Pad20)*%
X148745000Y-81990000D03*
%TO.P,J4,21,P21*%
%TO.N,Net-(J3-Pad21)*%
X147475000Y-81990000D03*
%TO.P,J4,22,P22*%
%TO.N,Net-(J1-Pad2)*%
X146205000Y-81990000D03*
%TO.P,J4,23,P23*%
%TO.N,Net-(J2-Pad2)*%
X144935000Y-81990000D03*
%TO.P,J4,24,P24*%
%TO.N,Net-(J3-Pad24)*%
X143665000Y-81990000D03*
%TO.P,J4,25,P25*%
%TO.N,Net-(J3-Pad25)*%
X142395000Y-81990000D03*
%TD*%
D12*
%TO.P,J3,0,PAD*%
%TO.N,GND*%
X137125000Y-63790000D03*
X161635000Y-63790000D03*
D13*
%TO.P,J3,1,1*%
%TO.N,Net-(J3-Pad1)*%
X157000000Y-67600000D03*
%TO.P,J3,2,2*%
%TO.N,Net-(J3-Pad2)*%
X155730000Y-67600000D03*
%TO.P,J3,3,3*%
%TO.N,Net-(J3-Pad3)*%
X154460000Y-67600000D03*
%TO.P,J3,4,4*%
%TO.N,Net-(J3-Pad4)*%
X153190000Y-67600000D03*
%TO.P,J3,5,5*%
%TO.N,Net-(J3-Pad5)*%
X151920000Y-67600000D03*
%TO.P,J3,6,6*%
%TO.N,Net-(J3-Pad6)*%
X150650000Y-67600000D03*
%TO.P,J3,7,7*%
%TO.N,Net-(J3-Pad7)*%
X149380000Y-67600000D03*
%TO.P,J3,8,8*%
%TO.N,Net-(J3-Pad8)*%
X148110000Y-67600000D03*
%TO.P,J3,9,9*%
%TO.N,Net-(J1-Pad1)*%
X146840000Y-67600000D03*
%TO.P,J3,10,10*%
%TO.N,Net-(J2-Pad1)*%
X145570000Y-67600000D03*
%TO.P,J3,11,11*%
%TO.N,Net-(J3-Pad11)*%
X144300000Y-67600000D03*
%TO.P,J3,12,12*%
%TO.N,Net-(J3-Pad12)*%
X143030000Y-67600000D03*
%TO.P,J3,13,13*%
%TO.N,Net-(J3-Pad13)*%
X141760000Y-67600000D03*
%TO.P,J3,14,P14*%
%TO.N,Net-(J3-Pad14)*%
X156365000Y-65060000D03*
%TO.P,J3,15,P15*%
%TO.N,Net-(J3-Pad15)*%
X155095000Y-65060000D03*
%TO.P,J3,16,P16*%
%TO.N,Net-(J3-Pad16)*%
X153825000Y-65060000D03*
%TO.P,J3,17,P17*%
%TO.N,Net-(J3-Pad17)*%
X152555000Y-65060000D03*
%TO.P,J3,18,P18*%
%TO.N,Net-(J3-Pad18)*%
X151285000Y-65060000D03*
%TO.P,J3,19,P19*%
%TO.N,Net-(J3-Pad19)*%
X150015000Y-65060000D03*
%TO.P,J3,20,P20*%
%TO.N,Net-(J3-Pad20)*%
X148745000Y-65060000D03*
%TO.P,J3,21,P21*%
%TO.N,Net-(J3-Pad21)*%
X147475000Y-65060000D03*
%TO.P,J3,22,P22*%
%TO.N,Net-(J1-Pad2)*%
X146205000Y-65060000D03*
%TO.P,J3,23,P23*%
%TO.N,Net-(J2-Pad2)*%
X144935000Y-65060000D03*
%TO.P,J3,24,P24*%
%TO.N,Net-(J3-Pad24)*%
X143665000Y-65060000D03*
%TO.P,J3,25,P25*%
%TO.N,Net-(J3-Pad25)*%
X142395000Y-65060000D03*
%TD*%
D10*
%TO.P,J1,1,Pin_1*%
%TO.N,Net-(J1-Pad1)*%
X119300000Y-62800000D03*
D11*
%TO.P,J1,2,Pin_2*%
%TO.N,Net-(J1-Pad2)*%
X121840000Y-62800000D03*
%TD*%
%TA.AperFunction,Conductor*%
%TO.N,GND*%
G36*
X164933621Y-59028502D02*
G01*
X164980114Y-59082158D01*
X164991500Y-59134500D01*
X164991500Y-88465500D01*
X164971498Y-88533621D01*
X164917842Y-88580114D01*
X164865500Y-88591500D01*
X133834500Y-88591500D01*
X133766379Y-88571498D01*
X133719886Y-88517842D01*
X133708500Y-88465500D01*
X133708500Y-85275301D01*
X135474823Y-85275301D01*
X135482348Y-85285734D01*
X135608517Y-85387358D01*
X135614701Y-85391752D01*
X135875067Y-85554131D01*
X135881738Y-85557753D01*
X136159732Y-85687679D01*
X136166785Y-85690472D01*
X136458393Y-85786066D01*
X136465705Y-85787984D01*
X136766689Y-85847853D01*
X136774187Y-85848881D01*
X137080183Y-85872158D01*
X137087746Y-85872276D01*
X137394314Y-85858623D01*
X137401855Y-85857831D01*
X137704558Y-85807447D01*
X137711946Y-85805755D01*
X138006401Y-85719371D01*
X138013525Y-85716806D01*
X138295482Y-85595668D01*
X138302249Y-85592264D01*
X138567603Y-85438134D01*
X138573910Y-85433944D01*
X138767908Y-85287491D01*
X138776364Y-85276100D01*
X138775926Y-85275301D01*
X159984823Y-85275301D01*
X159992348Y-85285734D01*
X160118517Y-85387358D01*
X160124701Y-85391752D01*
X160385067Y-85554131D01*
X160391738Y-85557753D01*
X160669732Y-85687679D01*
X160676785Y-85690472D01*
X160968393Y-85786066D01*
X160975705Y-85787984D01*
X161276689Y-85847853D01*
X161284187Y-85848881D01*
X161590183Y-85872158D01*
X161597746Y-85872276D01*
X161904314Y-85858623D01*
X161911855Y-85857831D01*
X162214558Y-85807447D01*
X162221946Y-85805755D01*
X162516401Y-85719371D01*
X162523525Y-85716806D01*
X162805482Y-85595668D01*
X162812249Y-85592264D01*
X163077603Y-85438134D01*
X163083910Y-85433944D01*
X163277908Y-85287491D01*
X163286364Y-85276100D01*
X163279646Y-85263856D01*
X161647812Y-83632022D01*
X161633868Y-83624408D01*
X161632035Y-83624539D01*
X161625420Y-83628790D01*
X159991938Y-85262272D01*
X159984823Y-85275301D01*
X138775926Y-85275301D01*
X138769646Y-85263856D01*
X137137812Y-83632022D01*
X137123868Y-83624408D01*
X137122035Y-83624539D01*
X137115420Y-83628790D01*
X135481938Y-85262272D01*
X135474823Y-85275301D01*
X133708500Y-85275301D01*
X133708500Y-83236432D01*
X134512565Y-83236432D01*
X134527823Y-83542920D01*
X134528654Y-83550449D01*
X134580621Y-83852883D01*
X134582354Y-83860270D01*
X134670278Y-84154266D01*
X134672881Y-84161379D01*
X134795491Y-84442690D01*
X134798933Y-84449446D01*
X134954449Y-84713988D01*
X134958672Y-84720273D01*
X135097810Y-84902588D01*
X135109336Y-84911050D01*
X135121401Y-84904389D01*
X136752978Y-83272812D01*
X136759356Y-83261132D01*
X137489408Y-83261132D01*
X137489539Y-83262965D01*
X137493790Y-83269580D01*
X139127202Y-84902992D01*
X139140325Y-84910158D01*
X139150627Y-84902768D01*
X139244388Y-84787601D01*
X139248810Y-84781447D01*
X139412562Y-84521917D01*
X139416209Y-84515282D01*
X139547595Y-84237960D01*
X139550420Y-84230933D01*
X139647542Y-83939821D01*
X139649496Y-83932530D01*
X139710941Y-83631859D01*
X139712009Y-83624355D01*
X139737012Y-83316953D01*
X139737217Y-83312478D01*
X139737744Y-83262221D01*
X139737634Y-83257789D01*
X139736346Y-83236432D01*
X159022565Y-83236432D01*
X159037823Y-83542920D01*
X159038654Y-83550449D01*
X159090621Y-83852883D01*
X159092354Y-83860270D01*
X159180278Y-84154266D01*
X159182881Y-84161379D01*
X159305491Y-84442690D01*
X159308933Y-84449446D01*
X159464449Y-84713988D01*
X159468672Y-84720273D01*
X159607810Y-84902588D01*
X159619336Y-84911050D01*
X159631401Y-84904389D01*
X161262978Y-83272812D01*
X161269356Y-83261132D01*
X161999408Y-83261132D01*
X161999539Y-83262965D01*
X162003790Y-83269580D01*
X163637202Y-84902992D01*
X163650325Y-84910158D01*
X163660627Y-84902768D01*
X163754388Y-84787601D01*
X163758810Y-84781447D01*
X163922562Y-84521917D01*
X163926209Y-84515282D01*
X164057595Y-84237960D01*
X164060420Y-84230933D01*
X164157542Y-83939821D01*
X164159496Y-83932530D01*
X164220941Y-83631859D01*
X164222009Y-83624355D01*
X164247012Y-83316953D01*
X164247217Y-83312478D01*
X164247744Y-83262221D01*
X164247634Y-83257789D01*
X164229072Y-82949888D01*
X164228164Y-82942386D01*
X164173031Y-82640510D01*
X164171218Y-82633130D01*
X164080225Y-82340084D01*
X164077543Y-82332987D01*
X163951993Y-82052971D01*
X163948492Y-82046274D01*
X163790199Y-81783349D01*
X163785925Y-81777130D01*
X163661739Y-81617895D01*
X163649949Y-81609427D01*
X163638235Y-81615975D01*
X162007022Y-83247188D01*
X161999408Y-83261132D01*
X161269356Y-83261132D01*
X161270592Y-83258868D01*
X161270461Y-83257035D01*
X161266210Y-83250420D01*
X159632607Y-81616817D01*
X159619672Y-81609754D01*
X159609110Y-81617414D01*
X159499730Y-81754677D01*
X159495374Y-81760875D01*
X159334350Y-82022106D01*
X159330770Y-82028782D01*
X159202296Y-82307465D01*
X159199546Y-82314516D01*
X159105480Y-82606622D01*
X159103597Y-82613955D01*
X159045305Y-82915246D01*
X159044318Y-82922746D01*
X159022644Y-83228851D01*
X159022565Y-83236432D01*
X139736346Y-83236432D01*
X139719072Y-82949888D01*
X139718164Y-82942386D01*
X139663031Y-82640510D01*
X139661218Y-82633130D01*
X139570225Y-82340084D01*
X139567543Y-82332987D01*
X139441993Y-82052971D01*
X139438492Y-82046274D01*
X139396474Y-81976482D01*
X141426932Y-81976482D01*
X141427448Y-81982625D01*
X141432793Y-82046274D01*
X141442743Y-82164772D01*
X141444441Y-82170692D01*
X141493014Y-82340084D01*
X141494826Y-82346404D01*
X141581195Y-82514461D01*
X141585018Y-82519285D01*
X141585021Y-82519289D01*
X141603592Y-82542719D01*
X141698563Y-82662542D01*
X141703256Y-82666536D01*
X141703257Y-82666537D01*
X141804687Y-82752860D01*
X141842457Y-82785005D01*
X141847834Y-82788010D01*
X142002019Y-82874183D01*
X142002025Y-82874186D01*
X142007397Y-82877188D01*
X142187101Y-82935577D01*
X142374724Y-82957950D01*
X142380859Y-82957478D01*
X142380861Y-82957478D01*
X142556978Y-82943926D01*
X142556982Y-82943925D01*
X142563120Y-82943453D01*
X142745111Y-82892640D01*
X142750615Y-82889860D01*
X142750617Y-82889859D01*
X142908264Y-82810226D01*
X142908266Y-82810225D01*
X142913767Y-82807446D01*
X142918621Y-82803654D01*
X142918630Y-82803648D01*
X142950129Y-82779038D01*
X143016123Y-82752860D01*
X143085794Y-82766518D01*
X143102516Y-82777767D01*
X143102705Y-82777495D01*
X143107765Y-82781012D01*
X143112457Y-82785005D01*
X143117834Y-82788010D01*
X143272019Y-82874183D01*
X143272025Y-82874186D01*
X143277397Y-82877188D01*
X143457101Y-82935577D01*
X143644724Y-82957950D01*
X143650859Y-82957478D01*
X143650861Y-82957478D01*
X143826978Y-82943926D01*
X143826982Y-82943925D01*
X143833120Y-82943453D01*
X144015111Y-82892640D01*
X144020615Y-82889860D01*
X144020617Y-82889859D01*
X144178264Y-82810226D01*
X144178266Y-82810225D01*
X144183767Y-82807446D01*
X144188621Y-82803654D01*
X144188630Y-82803648D01*
X144220129Y-82779038D01*
X144286123Y-82752860D01*
X144355794Y-82766518D01*
X144372516Y-82777767D01*
X144372705Y-82777495D01*
X144377765Y-82781012D01*
X144382457Y-82785005D01*
X144387834Y-82788010D01*
X144542019Y-82874183D01*
X144542025Y-82874186D01*
X144547397Y-82877188D01*
X144727101Y-82935577D01*
X144914724Y-82957950D01*
X144920859Y-82957478D01*
X144920861Y-82957478D01*
X145096978Y-82943926D01*
X145096982Y-82943925D01*
X145103120Y-82943453D01*
X145285111Y-82892640D01*
X145290615Y-82889860D01*
X145290617Y-82889859D01*
X145448264Y-82810226D01*
X145448266Y-82810225D01*
X145453767Y-82807446D01*
X145458621Y-82803654D01*
X145458630Y-82803648D01*
X145490129Y-82779038D01*
X145556123Y-82752860D01*
X145625794Y-82766518D01*
X145642516Y-82777767D01*
X145642705Y-82777495D01*
X145647765Y-82781012D01*
X145652457Y-82785005D01*
X145657834Y-82788010D01*
X145812019Y-82874183D01*
X145812025Y-82874186D01*
X145817397Y-82877188D01*
X145997101Y-82935577D01*
X146184724Y-82957950D01*
X146190859Y-82957478D01*
X146190861Y-82957478D01*
X146366978Y-82943926D01*
X146366982Y-82943925D01*
X146373120Y-82943453D01*
X146555111Y-82892640D01*
X146560615Y-82889860D01*
X146560617Y-82889859D01*
X146718264Y-82810226D01*
X146718266Y-82810225D01*
X146723767Y-82807446D01*
X146728621Y-82803654D01*
X146728630Y-82803648D01*
X146760129Y-82779038D01*
X146826123Y-82752860D01*
X146895794Y-82766518D01*
X146912516Y-82777767D01*
X146912705Y-82777495D01*
X146917765Y-82781012D01*
X146922457Y-82785005D01*
X146927834Y-82788010D01*
X147082019Y-82874183D01*
X147082025Y-82874186D01*
X147087397Y-82877188D01*
X147267101Y-82935577D01*
X147454724Y-82957950D01*
X147460859Y-82957478D01*
X147460861Y-82957478D01*
X147636978Y-82943926D01*
X147636982Y-82943925D01*
X147643120Y-82943453D01*
X147825111Y-82892640D01*
X147830615Y-82889860D01*
X147830617Y-82889859D01*
X147988264Y-82810226D01*
X147988266Y-82810225D01*
X147993767Y-82807446D01*
X147998621Y-82803654D01*
X147998630Y-82803648D01*
X148030129Y-82779038D01*
X148096123Y-82752860D01*
X148165794Y-82766518D01*
X148182516Y-82777767D01*
X148182705Y-82777495D01*
X148187765Y-82781012D01*
X148192457Y-82785005D01*
X148197834Y-82788010D01*
X148352019Y-82874183D01*
X148352025Y-82874186D01*
X148357397Y-82877188D01*
X148537101Y-82935577D01*
X148724724Y-82957950D01*
X148730859Y-82957478D01*
X148730861Y-82957478D01*
X148906978Y-82943926D01*
X148906982Y-82943925D01*
X148913120Y-82943453D01*
X149095111Y-82892640D01*
X149100615Y-82889860D01*
X149100617Y-82889859D01*
X149258264Y-82810226D01*
X149258266Y-82810225D01*
X149263767Y-82807446D01*
X149268621Y-82803654D01*
X149268630Y-82803648D01*
X149300129Y-82779038D01*
X149366123Y-82752860D01*
X149435794Y-82766518D01*
X149452516Y-82777767D01*
X149452705Y-82777495D01*
X149457765Y-82781012D01*
X149462457Y-82785005D01*
X149467834Y-82788010D01*
X149622019Y-82874183D01*
X149622025Y-82874186D01*
X149627397Y-82877188D01*
X149807101Y-82935577D01*
X149994724Y-82957950D01*
X150000859Y-82957478D01*
X150000861Y-82957478D01*
X150176978Y-82943926D01*
X150176982Y-82943925D01*
X150183120Y-82943453D01*
X150365111Y-82892640D01*
X150370615Y-82889860D01*
X150370617Y-82889859D01*
X150528264Y-82810226D01*
X150528266Y-82810225D01*
X150533767Y-82807446D01*
X150538621Y-82803654D01*
X150538630Y-82803648D01*
X150570129Y-82779038D01*
X150636123Y-82752860D01*
X150705794Y-82766518D01*
X150722516Y-82777767D01*
X150722705Y-82777495D01*
X150727765Y-82781012D01*
X150732457Y-82785005D01*
X150737834Y-82788010D01*
X150892019Y-82874183D01*
X150892025Y-82874186D01*
X150897397Y-82877188D01*
X151077101Y-82935577D01*
X151264724Y-82957950D01*
X151270859Y-82957478D01*
X151270861Y-82957478D01*
X151446978Y-82943926D01*
X151446982Y-82943925D01*
X151453120Y-82943453D01*
X151635111Y-82892640D01*
X151640615Y-82889860D01*
X151640617Y-82889859D01*
X151798264Y-82810226D01*
X151798266Y-82810225D01*
X151803767Y-82807446D01*
X151808621Y-82803654D01*
X151808630Y-82803648D01*
X151840129Y-82779038D01*
X151906123Y-82752860D01*
X151975794Y-82766518D01*
X151992516Y-82777767D01*
X151992705Y-82777495D01*
X151997765Y-82781012D01*
X152002457Y-82785005D01*
X152007834Y-82788010D01*
X152162019Y-82874183D01*
X152162025Y-82874186D01*
X152167397Y-82877188D01*
X152347101Y-82935577D01*
X152534724Y-82957950D01*
X152540859Y-82957478D01*
X152540861Y-82957478D01*
X152716978Y-82943926D01*
X152716982Y-82943925D01*
X152723120Y-82943453D01*
X152905111Y-82892640D01*
X152910615Y-82889860D01*
X152910617Y-82889859D01*
X153068264Y-82810226D01*
X153068266Y-82810225D01*
X153073767Y-82807446D01*
X153078621Y-82803654D01*
X153078630Y-82803648D01*
X153110129Y-82779038D01*
X153176123Y-82752860D01*
X153245794Y-82766518D01*
X153262516Y-82777767D01*
X153262705Y-82777495D01*
X153267765Y-82781012D01*
X153272457Y-82785005D01*
X153277834Y-82788010D01*
X153432019Y-82874183D01*
X153432025Y-82874186D01*
X153437397Y-82877188D01*
X153617101Y-82935577D01*
X153804724Y-82957950D01*
X153810859Y-82957478D01*
X153810861Y-82957478D01*
X153986978Y-82943926D01*
X153986982Y-82943925D01*
X153993120Y-82943453D01*
X154175111Y-82892640D01*
X154180615Y-82889860D01*
X154180617Y-82889859D01*
X154338264Y-82810226D01*
X154338266Y-82810225D01*
X154343767Y-82807446D01*
X154348621Y-82803654D01*
X154348630Y-82803648D01*
X154380129Y-82779038D01*
X154446123Y-82752860D01*
X154515794Y-82766518D01*
X154532516Y-82777767D01*
X154532705Y-82777495D01*
X154537765Y-82781012D01*
X154542457Y-82785005D01*
X154547834Y-82788010D01*
X154702019Y-82874183D01*
X154702025Y-82874186D01*
X154707397Y-82877188D01*
X154887101Y-82935577D01*
X155074724Y-82957950D01*
X155080859Y-82957478D01*
X155080861Y-82957478D01*
X155256978Y-82943926D01*
X155256982Y-82943925D01*
X155263120Y-82943453D01*
X155445111Y-82892640D01*
X155450615Y-82889860D01*
X155450617Y-82889859D01*
X155608264Y-82810226D01*
X155608266Y-82810225D01*
X155613767Y-82807446D01*
X155618621Y-82803654D01*
X155618630Y-82803648D01*
X155650129Y-82779038D01*
X155716123Y-82752860D01*
X155785794Y-82766518D01*
X155802516Y-82777767D01*
X155802705Y-82777495D01*
X155807765Y-82781012D01*
X155812457Y-82785005D01*
X155817834Y-82788010D01*
X155972019Y-82874183D01*
X155972025Y-82874186D01*
X155977397Y-82877188D01*
X156157101Y-82935577D01*
X156344724Y-82957950D01*
X156350859Y-82957478D01*
X156350861Y-82957478D01*
X156526978Y-82943926D01*
X156526982Y-82943925D01*
X156533120Y-82943453D01*
X156715111Y-82892640D01*
X156720615Y-82889860D01*
X156720617Y-82889859D01*
X156878266Y-82810225D01*
X156878268Y-82810224D01*
X156883767Y-82807446D01*
X157032663Y-82691116D01*
X157156129Y-82548080D01*
X157159172Y-82542723D01*
X157159175Y-82542719D01*
X157202794Y-82465934D01*
X157249460Y-82383787D01*
X157309103Y-82204495D01*
X157331301Y-82028782D01*
X157332343Y-82020535D01*
X157332344Y-82020528D01*
X157332785Y-82017033D01*
X157333162Y-81990000D01*
X157314724Y-81801950D01*
X157260110Y-81621062D01*
X157171403Y-81454227D01*
X157051979Y-81307800D01*
X156975727Y-81244719D01*
X159984213Y-81244719D01*
X159990817Y-81256607D01*
X161622188Y-82887978D01*
X161636132Y-82895592D01*
X161637965Y-82895461D01*
X161644580Y-82891210D01*
X163278355Y-81257435D01*
X163285367Y-81244594D01*
X163277572Y-81233905D01*
X163129123Y-81116878D01*
X163122900Y-81112553D01*
X162860824Y-80952895D01*
X162854148Y-80949360D01*
X162574784Y-80822342D01*
X162567714Y-80819628D01*
X162275131Y-80727096D01*
X162267780Y-80725249D01*
X161966191Y-80668535D01*
X161958681Y-80667587D01*
X161652464Y-80647517D01*
X161644899Y-80647477D01*
X161338478Y-80664340D01*
X161330967Y-80665209D01*
X161028793Y-80718763D01*
X161021432Y-80720530D01*
X160727898Y-80809993D01*
X160720791Y-80812635D01*
X160440122Y-80936718D01*
X160433396Y-80940189D01*
X160169662Y-81097094D01*
X160163411Y-81101342D01*
X159992679Y-81233061D01*
X159984213Y-81244719D01*
X156975727Y-81244719D01*
X156906389Y-81187357D01*
X156740178Y-81097487D01*
X156559676Y-81041612D01*
X156553554Y-81040969D01*
X156553551Y-81040968D01*
X156377888Y-81022506D01*
X156377886Y-81022506D01*
X156371759Y-81021862D01*
X156292634Y-81029063D01*
X156189724Y-81038428D01*
X156189721Y-81038429D01*
X156183585Y-81038987D01*
X156177679Y-81040725D01*
X156177675Y-81040726D01*
X156043909Y-81080096D01*
X156002320Y-81092336D01*
X155834870Y-81179877D01*
X155830072Y-81183735D01*
X155830070Y-81183736D01*
X155825567Y-81187357D01*
X155811099Y-81198990D01*
X155809718Y-81200100D01*
X155744095Y-81227197D01*
X155674241Y-81214514D01*
X155650451Y-81198990D01*
X155641137Y-81191285D01*
X155641133Y-81191282D01*
X155636389Y-81187357D01*
X155470178Y-81097487D01*
X155289676Y-81041612D01*
X155283554Y-81040969D01*
X155283551Y-81040968D01*
X155107888Y-81022506D01*
X155107886Y-81022506D01*
X155101759Y-81021862D01*
X155022634Y-81029063D01*
X154919724Y-81038428D01*
X154919721Y-81038429D01*
X154913585Y-81038987D01*
X154907679Y-81040725D01*
X154907675Y-81040726D01*
X154773909Y-81080096D01*
X154732320Y-81092336D01*
X154564870Y-81179877D01*
X154560072Y-81183735D01*
X154560070Y-81183736D01*
X154555567Y-81187357D01*
X154541099Y-81198990D01*
X154539718Y-81200100D01*
X154474095Y-81227197D01*
X154404241Y-81214514D01*
X154380451Y-81198990D01*
X154371137Y-81191285D01*
X154371133Y-81191282D01*
X154366389Y-81187357D01*
X154200178Y-81097487D01*
X154019676Y-81041612D01*
X154013554Y-81040969D01*
X154013551Y-81040968D01*
X153837888Y-81022506D01*
X153837886Y-81022506D01*
X153831759Y-81021862D01*
X153752634Y-81029063D01*
X153649724Y-81038428D01*
X153649721Y-81038429D01*
X153643585Y-81038987D01*
X153637679Y-81040725D01*
X153637675Y-81040726D01*
X153503909Y-81080096D01*
X153462320Y-81092336D01*
X153294870Y-81179877D01*
X153290072Y-81183735D01*
X153290070Y-81183736D01*
X153285567Y-81187357D01*
X153271099Y-81198990D01*
X153269718Y-81200100D01*
X153204095Y-81227197D01*
X153134241Y-81214514D01*
X153110451Y-81198990D01*
X153101137Y-81191285D01*
X153101133Y-81191282D01*
X153096389Y-81187357D01*
X152930178Y-81097487D01*
X152749676Y-81041612D01*
X152743554Y-81040969D01*
X152743551Y-81040968D01*
X152567888Y-81022506D01*
X152567886Y-81022506D01*
X152561759Y-81021862D01*
X152482634Y-81029063D01*
X152379724Y-81038428D01*
X152379721Y-81038429D01*
X152373585Y-81038987D01*
X152367679Y-81040725D01*
X152367675Y-81040726D01*
X152233909Y-81080096D01*
X152192320Y-81092336D01*
X152024870Y-81179877D01*
X152020072Y-81183735D01*
X152020070Y-81183736D01*
X152015567Y-81187357D01*
X152001099Y-81198990D01*
X151999718Y-81200100D01*
X151934095Y-81227197D01*
X151864241Y-81214514D01*
X151840451Y-81198990D01*
X151831137Y-81191285D01*
X151831133Y-81191282D01*
X151826389Y-81187357D01*
X151660178Y-81097487D01*
X151479676Y-81041612D01*
X151473554Y-81040969D01*
X151473551Y-81040968D01*
X151297888Y-81022506D01*
X151297886Y-81022506D01*
X151291759Y-81021862D01*
X151212634Y-81029063D01*
X151109724Y-81038428D01*
X151109721Y-81038429D01*
X151103585Y-81038987D01*
X151097679Y-81040725D01*
X151097675Y-81040726D01*
X150963909Y-81080096D01*
X150922320Y-81092336D01*
X150754870Y-81179877D01*
X150750072Y-81183735D01*
X150750070Y-81183736D01*
X150745567Y-81187357D01*
X150731099Y-81198990D01*
X150729718Y-81200100D01*
X150664095Y-81227197D01*
X150594241Y-81214514D01*
X150570451Y-81198990D01*
X150561137Y-81191285D01*
X150561133Y-81191282D01*
X150556389Y-81187357D01*
X150390178Y-81097487D01*
X150209676Y-81041612D01*
X150203554Y-81040969D01*
X150203551Y-81040968D01*
X150027888Y-81022506D01*
X150027886Y-81022506D01*
X150021759Y-81021862D01*
X149942634Y-81029063D01*
X149839724Y-81038428D01*
X149839721Y-81038429D01*
X149833585Y-81038987D01*
X149827679Y-81040725D01*
X149827675Y-81040726D01*
X149693909Y-81080096D01*
X149652320Y-81092336D01*
X149484870Y-81179877D01*
X149480072Y-81183735D01*
X149480070Y-81183736D01*
X149475567Y-81187357D01*
X149461099Y-81198990D01*
X149459718Y-81200100D01*
X149394095Y-81227197D01*
X149324241Y-81214514D01*
X149300451Y-81198990D01*
X149291137Y-81191285D01*
X149291133Y-81191282D01*
X149286389Y-81187357D01*
X149120178Y-81097487D01*
X148939676Y-81041612D01*
X148933554Y-81040969D01*
X148933551Y-81040968D01*
X148757888Y-81022506D01*
X148757886Y-81022506D01*
X148751759Y-81021862D01*
X148672634Y-81029063D01*
X148569724Y-81038428D01*
X148569721Y-81038429D01*
X148563585Y-81038987D01*
X148557679Y-81040725D01*
X148557675Y-81040726D01*
X148423909Y-81080096D01*
X148382320Y-81092336D01*
X148214870Y-81179877D01*
X148210072Y-81183735D01*
X148210070Y-81183736D01*
X148205567Y-81187357D01*
X148191099Y-81198990D01*
X148189718Y-81200100D01*
X148124095Y-81227197D01*
X148054241Y-81214514D01*
X148030451Y-81198990D01*
X148021137Y-81191285D01*
X148021133Y-81191282D01*
X148016389Y-81187357D01*
X147850178Y-81097487D01*
X147669676Y-81041612D01*
X147663554Y-81040969D01*
X147663551Y-81040968D01*
X147487888Y-81022506D01*
X147487886Y-81022506D01*
X147481759Y-81021862D01*
X147402634Y-81029063D01*
X147299724Y-81038428D01*
X147299721Y-81038429D01*
X147293585Y-81038987D01*
X147287679Y-81040725D01*
X147287675Y-81040726D01*
X147153909Y-81080096D01*
X147112320Y-81092336D01*
X146944870Y-81179877D01*
X146940072Y-81183735D01*
X146940070Y-81183736D01*
X146935567Y-81187357D01*
X146921099Y-81198990D01*
X146919718Y-81200100D01*
X146854095Y-81227197D01*
X146784241Y-81214514D01*
X146760451Y-81198990D01*
X146751137Y-81191285D01*
X146751133Y-81191282D01*
X146746389Y-81187357D01*
X146580178Y-81097487D01*
X146399676Y-81041612D01*
X146393554Y-81040969D01*
X146393551Y-81040968D01*
X146217888Y-81022506D01*
X146217886Y-81022506D01*
X146211759Y-81021862D01*
X146132634Y-81029063D01*
X146029724Y-81038428D01*
X146029721Y-81038429D01*
X146023585Y-81038987D01*
X146017679Y-81040725D01*
X146017675Y-81040726D01*
X145883909Y-81080096D01*
X145842320Y-81092336D01*
X145674870Y-81179877D01*
X145670072Y-81183735D01*
X145670070Y-81183736D01*
X145665567Y-81187357D01*
X145651099Y-81198990D01*
X145649718Y-81200100D01*
X145584095Y-81227197D01*
X145514241Y-81214514D01*
X145490451Y-81198990D01*
X145481137Y-81191285D01*
X145481133Y-81191282D01*
X145476389Y-81187357D01*
X145310178Y-81097487D01*
X145129676Y-81041612D01*
X145123554Y-81040969D01*
X145123551Y-81040968D01*
X144947888Y-81022506D01*
X144947886Y-81022506D01*
X144941759Y-81021862D01*
X144862634Y-81029063D01*
X144759724Y-81038428D01*
X144759721Y-81038429D01*
X144753585Y-81038987D01*
X144747679Y-81040725D01*
X144747675Y-81040726D01*
X144613909Y-81080096D01*
X144572320Y-81092336D01*
X144404870Y-81179877D01*
X144400072Y-81183735D01*
X144400070Y-81183736D01*
X144395567Y-81187357D01*
X144381099Y-81198990D01*
X144379718Y-81200100D01*
X144314095Y-81227197D01*
X144244241Y-81214514D01*
X144220451Y-81198990D01*
X144211137Y-81191285D01*
X144211133Y-81191282D01*
X144206389Y-81187357D01*
X144040178Y-81097487D01*
X143859676Y-81041612D01*
X143853554Y-81040969D01*
X143853551Y-81040968D01*
X143677888Y-81022506D01*
X143677886Y-81022506D01*
X143671759Y-81021862D01*
X143592634Y-81029063D01*
X143489724Y-81038428D01*
X143489721Y-81038429D01*
X143483585Y-81038987D01*
X143477679Y-81040725D01*
X143477675Y-81040726D01*
X143343909Y-81080096D01*
X143302320Y-81092336D01*
X143134870Y-81179877D01*
X143130072Y-81183735D01*
X143130070Y-81183736D01*
X143125567Y-81187357D01*
X143111099Y-81198990D01*
X143109718Y-81200100D01*
X143044095Y-81227197D01*
X142974241Y-81214514D01*
X142950451Y-81198990D01*
X142941137Y-81191285D01*
X142941133Y-81191282D01*
X142936389Y-81187357D01*
X142770178Y-81097487D01*
X142589676Y-81041612D01*
X142583554Y-81040969D01*
X142583551Y-81040968D01*
X142407888Y-81022506D01*
X142407886Y-81022506D01*
X142401759Y-81021862D01*
X142322634Y-81029063D01*
X142219724Y-81038428D01*
X142219721Y-81038429D01*
X142213585Y-81038987D01*
X142207679Y-81040725D01*
X142207675Y-81040726D01*
X142073909Y-81080096D01*
X142032320Y-81092336D01*
X141864870Y-81179877D01*
X141717613Y-81298275D01*
X141596156Y-81443020D01*
X141593193Y-81448409D01*
X141593190Y-81448414D01*
X141508095Y-81603203D01*
X141505128Y-81608600D01*
X141447995Y-81788708D01*
X141447309Y-81794827D01*
X141447308Y-81794830D01*
X141427619Y-81970357D01*
X141426932Y-81976482D01*
X139396474Y-81976482D01*
X139280199Y-81783349D01*
X139275925Y-81777130D01*
X139151739Y-81617895D01*
X139139949Y-81609427D01*
X139128235Y-81615975D01*
X137497022Y-83247188D01*
X137489408Y-83261132D01*
X136759356Y-83261132D01*
X136760592Y-83258868D01*
X136760461Y-83257035D01*
X136756210Y-83250420D01*
X135122607Y-81616817D01*
X135109672Y-81609754D01*
X135099110Y-81617414D01*
X134989730Y-81754677D01*
X134985374Y-81760875D01*
X134824350Y-82022106D01*
X134820770Y-82028782D01*
X134692296Y-82307465D01*
X134689546Y-82314516D01*
X134595480Y-82606622D01*
X134593597Y-82613955D01*
X134535305Y-82915246D01*
X134534318Y-82922746D01*
X134512644Y-83228851D01*
X134512565Y-83236432D01*
X133708500Y-83236432D01*
X133708500Y-81244719D01*
X135474213Y-81244719D01*
X135480817Y-81256607D01*
X137112188Y-82887978D01*
X137126132Y-82895592D01*
X137127965Y-82895461D01*
X137134580Y-82891210D01*
X138768355Y-81257435D01*
X138775367Y-81244594D01*
X138767572Y-81233905D01*
X138619123Y-81116878D01*
X138612900Y-81112553D01*
X138350824Y-80952895D01*
X138344148Y-80949360D01*
X138064784Y-80822342D01*
X138057714Y-80819628D01*
X137765131Y-80727096D01*
X137757780Y-80725249D01*
X137456191Y-80668535D01*
X137448681Y-80667587D01*
X137142464Y-80647517D01*
X137134899Y-80647477D01*
X136828478Y-80664340D01*
X136820967Y-80665209D01*
X136518793Y-80718763D01*
X136511432Y-80720530D01*
X136217898Y-80809993D01*
X136210791Y-80812635D01*
X135930122Y-80936718D01*
X135923396Y-80940189D01*
X135659662Y-81097094D01*
X135653411Y-81101342D01*
X135482679Y-81233061D01*
X135474213Y-81244719D01*
X133708500Y-81244719D01*
X133708500Y-79436482D01*
X140791932Y-79436482D01*
X140807743Y-79624772D01*
X140859826Y-79806404D01*
X140946195Y-79974461D01*
X140950018Y-79979285D01*
X140950021Y-79979289D01*
X140968592Y-80002719D01*
X141063563Y-80122542D01*
X141068256Y-80126536D01*
X141068257Y-80126537D01*
X141169687Y-80212860D01*
X141207457Y-80245005D01*
X141212834Y-80248010D01*
X141367019Y-80334183D01*
X141367025Y-80334186D01*
X141372397Y-80337188D01*
X141552101Y-80395577D01*
X141739724Y-80417950D01*
X141745859Y-80417478D01*
X141745861Y-80417478D01*
X141921978Y-80403926D01*
X141921982Y-80403925D01*
X141928120Y-80403453D01*
X142110111Y-80352640D01*
X142115615Y-80349860D01*
X142115617Y-80349859D01*
X142273264Y-80270226D01*
X142273266Y-80270225D01*
X142278767Y-80267446D01*
X142283621Y-80263654D01*
X142283630Y-80263648D01*
X142315129Y-80239038D01*
X142381123Y-80212860D01*
X142450794Y-80226518D01*
X142467516Y-80237767D01*
X142467705Y-80237495D01*
X142472765Y-80241012D01*
X142477457Y-80245005D01*
X142482834Y-80248010D01*
X142637019Y-80334183D01*
X142637025Y-80334186D01*
X142642397Y-80337188D01*
X142822101Y-80395577D01*
X143009724Y-80417950D01*
X143015859Y-80417478D01*
X143015861Y-80417478D01*
X143191978Y-80403926D01*
X143191982Y-80403925D01*
X143198120Y-80403453D01*
X143380111Y-80352640D01*
X143385615Y-80349860D01*
X143385617Y-80349859D01*
X143543264Y-80270226D01*
X143543266Y-80270225D01*
X143548767Y-80267446D01*
X143553621Y-80263654D01*
X143553630Y-80263648D01*
X143585129Y-80239038D01*
X143651123Y-80212860D01*
X143720794Y-80226518D01*
X143737516Y-80237767D01*
X143737705Y-80237495D01*
X143742765Y-80241012D01*
X143747457Y-80245005D01*
X143752834Y-80248010D01*
X143907019Y-80334183D01*
X143907025Y-80334186D01*
X143912397Y-80337188D01*
X144092101Y-80395577D01*
X144279724Y-80417950D01*
X144285859Y-80417478D01*
X144285861Y-80417478D01*
X144461978Y-80403926D01*
X144461982Y-80403925D01*
X144468120Y-80403453D01*
X144650111Y-80352640D01*
X144655615Y-80349860D01*
X144655617Y-80349859D01*
X144813264Y-80270226D01*
X144813266Y-80270225D01*
X144818767Y-80267446D01*
X144823621Y-80263654D01*
X144823630Y-80263648D01*
X144855129Y-80239038D01*
X144921123Y-80212860D01*
X144990794Y-80226518D01*
X145007516Y-80237767D01*
X145007705Y-80237495D01*
X145012765Y-80241012D01*
X145017457Y-80245005D01*
X145022834Y-80248010D01*
X145177019Y-80334183D01*
X145177025Y-80334186D01*
X145182397Y-80337188D01*
X145362101Y-80395577D01*
X145549724Y-80417950D01*
X145555859Y-80417478D01*
X145555861Y-80417478D01*
X145731978Y-80403926D01*
X145731982Y-80403925D01*
X145738120Y-80403453D01*
X145920111Y-80352640D01*
X145925615Y-80349860D01*
X145925617Y-80349859D01*
X146083264Y-80270226D01*
X146083266Y-80270225D01*
X146088767Y-80267446D01*
X146093621Y-80263654D01*
X146093630Y-80263648D01*
X146125129Y-80239038D01*
X146191123Y-80212860D01*
X146260794Y-80226518D01*
X146277516Y-80237767D01*
X146277705Y-80237495D01*
X146282765Y-80241012D01*
X146287457Y-80245005D01*
X146292834Y-80248010D01*
X146447019Y-80334183D01*
X146447025Y-80334186D01*
X146452397Y-80337188D01*
X146632101Y-80395577D01*
X146819724Y-80417950D01*
X146825859Y-80417478D01*
X146825861Y-80417478D01*
X147001978Y-80403926D01*
X147001982Y-80403925D01*
X147008120Y-80403453D01*
X147190111Y-80352640D01*
X147195615Y-80349860D01*
X147195617Y-80349859D01*
X147353264Y-80270226D01*
X147353266Y-80270225D01*
X147358767Y-80267446D01*
X147363621Y-80263654D01*
X147363630Y-80263648D01*
X147395129Y-80239038D01*
X147461123Y-80212860D01*
X147530794Y-80226518D01*
X147547516Y-80237767D01*
X147547705Y-80237495D01*
X147552765Y-80241012D01*
X147557457Y-80245005D01*
X147562834Y-80248010D01*
X147717019Y-80334183D01*
X147717025Y-80334186D01*
X147722397Y-80337188D01*
X147902101Y-80395577D01*
X148089724Y-80417950D01*
X148095859Y-80417478D01*
X148095861Y-80417478D01*
X148271978Y-80403926D01*
X148271982Y-80403925D01*
X148278120Y-80403453D01*
X148460111Y-80352640D01*
X148465615Y-80349860D01*
X148465617Y-80349859D01*
X148623264Y-80270226D01*
X148623266Y-80270225D01*
X148628767Y-80267446D01*
X148633621Y-80263654D01*
X148633630Y-80263648D01*
X148665129Y-80239038D01*
X148731123Y-80212860D01*
X148800794Y-80226518D01*
X148817516Y-80237767D01*
X148817705Y-80237495D01*
X148822765Y-80241012D01*
X148827457Y-80245005D01*
X148832834Y-80248010D01*
X148987019Y-80334183D01*
X148987025Y-80334186D01*
X148992397Y-80337188D01*
X149172101Y-80395577D01*
X149359724Y-80417950D01*
X149365859Y-80417478D01*
X149365861Y-80417478D01*
X149541978Y-80403926D01*
X149541982Y-80403925D01*
X149548120Y-80403453D01*
X149730111Y-80352640D01*
X149735615Y-80349860D01*
X149735617Y-80349859D01*
X149893264Y-80270226D01*
X149893266Y-80270225D01*
X149898767Y-80267446D01*
X149903621Y-80263654D01*
X149903630Y-80263648D01*
X149935129Y-80239038D01*
X150001123Y-80212860D01*
X150070794Y-80226518D01*
X150087516Y-80237767D01*
X150087705Y-80237495D01*
X150092765Y-80241012D01*
X150097457Y-80245005D01*
X150102834Y-80248010D01*
X150257019Y-80334183D01*
X150257025Y-80334186D01*
X150262397Y-80337188D01*
X150442101Y-80395577D01*
X150629724Y-80417950D01*
X150635859Y-80417478D01*
X150635861Y-80417478D01*
X150811978Y-80403926D01*
X150811982Y-80403925D01*
X150818120Y-80403453D01*
X151000111Y-80352640D01*
X151005615Y-80349860D01*
X151005617Y-80349859D01*
X151163264Y-80270226D01*
X151163266Y-80270225D01*
X151168767Y-80267446D01*
X151173621Y-80263654D01*
X151173630Y-80263648D01*
X151205129Y-80239038D01*
X151271123Y-80212860D01*
X151340794Y-80226518D01*
X151357516Y-80237767D01*
X151357705Y-80237495D01*
X151362765Y-80241012D01*
X151367457Y-80245005D01*
X151372834Y-80248010D01*
X151527019Y-80334183D01*
X151527025Y-80334186D01*
X151532397Y-80337188D01*
X151712101Y-80395577D01*
X151899724Y-80417950D01*
X151905859Y-80417478D01*
X151905861Y-80417478D01*
X152081978Y-80403926D01*
X152081982Y-80403925D01*
X152088120Y-80403453D01*
X152270111Y-80352640D01*
X152275615Y-80349860D01*
X152275617Y-80349859D01*
X152433264Y-80270226D01*
X152433266Y-80270225D01*
X152438767Y-80267446D01*
X152443621Y-80263654D01*
X152443630Y-80263648D01*
X152475129Y-80239038D01*
X152541123Y-80212860D01*
X152610794Y-80226518D01*
X152627516Y-80237767D01*
X152627705Y-80237495D01*
X152632765Y-80241012D01*
X152637457Y-80245005D01*
X152642834Y-80248010D01*
X152797019Y-80334183D01*
X152797025Y-80334186D01*
X152802397Y-80337188D01*
X152982101Y-80395577D01*
X153169724Y-80417950D01*
X153175859Y-80417478D01*
X153175861Y-80417478D01*
X153351978Y-80403926D01*
X153351982Y-80403925D01*
X153358120Y-80403453D01*
X153540111Y-80352640D01*
X153545615Y-80349860D01*
X153545617Y-80349859D01*
X153703264Y-80270226D01*
X153703266Y-80270225D01*
X153708767Y-80267446D01*
X153713621Y-80263654D01*
X153713630Y-80263648D01*
X153745129Y-80239038D01*
X153811123Y-80212860D01*
X153880794Y-80226518D01*
X153897516Y-80237767D01*
X153897705Y-80237495D01*
X153902765Y-80241012D01*
X153907457Y-80245005D01*
X153912834Y-80248010D01*
X154067019Y-80334183D01*
X154067025Y-80334186D01*
X154072397Y-80337188D01*
X154252101Y-80395577D01*
X154439724Y-80417950D01*
X154445859Y-80417478D01*
X154445861Y-80417478D01*
X154621978Y-80403926D01*
X154621982Y-80403925D01*
X154628120Y-80403453D01*
X154810111Y-80352640D01*
X154815615Y-80349860D01*
X154815617Y-80349859D01*
X154973264Y-80270226D01*
X154973266Y-80270225D01*
X154978767Y-80267446D01*
X154983621Y-80263654D01*
X154983630Y-80263648D01*
X155015129Y-80239038D01*
X155081123Y-80212860D01*
X155150794Y-80226518D01*
X155167516Y-80237767D01*
X155167705Y-80237495D01*
X155172765Y-80241012D01*
X155177457Y-80245005D01*
X155182834Y-80248010D01*
X155337019Y-80334183D01*
X155337025Y-80334186D01*
X155342397Y-80337188D01*
X155522101Y-80395577D01*
X155709724Y-80417950D01*
X155715859Y-80417478D01*
X155715861Y-80417478D01*
X155891978Y-80403926D01*
X155891982Y-80403925D01*
X155898120Y-80403453D01*
X156080111Y-80352640D01*
X156085615Y-80349860D01*
X156085617Y-80349859D01*
X156243264Y-80270226D01*
X156243266Y-80270225D01*
X156248767Y-80267446D01*
X156253621Y-80263654D01*
X156253630Y-80263648D01*
X156285129Y-80239038D01*
X156351123Y-80212860D01*
X156420794Y-80226518D01*
X156437516Y-80237767D01*
X156437705Y-80237495D01*
X156442765Y-80241012D01*
X156447457Y-80245005D01*
X156452834Y-80248010D01*
X156607019Y-80334183D01*
X156607025Y-80334186D01*
X156612397Y-80337188D01*
X156792101Y-80395577D01*
X156979724Y-80417950D01*
X156985859Y-80417478D01*
X156985861Y-80417478D01*
X157161978Y-80403926D01*
X157161982Y-80403925D01*
X157168120Y-80403453D01*
X157350111Y-80352640D01*
X157355615Y-80349860D01*
X157355617Y-80349859D01*
X157513266Y-80270225D01*
X157513268Y-80270224D01*
X157518767Y-80267446D01*
X157667663Y-80151116D01*
X157791129Y-80008080D01*
X157794172Y-80002723D01*
X157794175Y-80002719D01*
X157837794Y-79925934D01*
X157884460Y-79843787D01*
X157944103Y-79664495D01*
X157967785Y-79477033D01*
X157968162Y-79450000D01*
X157949724Y-79261950D01*
X157895110Y-79081062D01*
X157806403Y-78914227D01*
X157686979Y-78767800D01*
X157541389Y-78647357D01*
X157375178Y-78557487D01*
X157194676Y-78501612D01*
X157188554Y-78500969D01*
X157188551Y-78500968D01*
X157012888Y-78482506D01*
X157012886Y-78482506D01*
X157006759Y-78481862D01*
X156927634Y-78489063D01*
X156824724Y-78498428D01*
X156824721Y-78498429D01*
X156818585Y-78498987D01*
X156812679Y-78500725D01*
X156812675Y-78500726D01*
X156678909Y-78540096D01*
X156637320Y-78552336D01*
X156469870Y-78639877D01*
X156465072Y-78643735D01*
X156465070Y-78643736D01*
X156460567Y-78647357D01*
X156446099Y-78658990D01*
X156444718Y-78660100D01*
X156379095Y-78687197D01*
X156309241Y-78674514D01*
X156285451Y-78658990D01*
X156276137Y-78651285D01*
X156276133Y-78651282D01*
X156271389Y-78647357D01*
X156105178Y-78557487D01*
X155924676Y-78501612D01*
X155918554Y-78500969D01*
X155918551Y-78500968D01*
X155742888Y-78482506D01*
X155742886Y-78482506D01*
X155736759Y-78481862D01*
X155657634Y-78489063D01*
X155554724Y-78498428D01*
X155554721Y-78498429D01*
X155548585Y-78498987D01*
X155542679Y-78500725D01*
X155542675Y-78500726D01*
X155408909Y-78540096D01*
X155367320Y-78552336D01*
X155199870Y-78639877D01*
X155195072Y-78643735D01*
X155195070Y-78643736D01*
X155190567Y-78647357D01*
X155176099Y-78658990D01*
X155174718Y-78660100D01*
X155109095Y-78687197D01*
X155039241Y-78674514D01*
X155015451Y-78658990D01*
X155006137Y-78651285D01*
X155006133Y-78651282D01*
X155001389Y-78647357D01*
X154835178Y-78557487D01*
X154654676Y-78501612D01*
X154648554Y-78500969D01*
X154648551Y-78500968D01*
X154472888Y-78482506D01*
X154472886Y-78482506D01*
X154466759Y-78481862D01*
X154387634Y-78489063D01*
X154284724Y-78498428D01*
X154284721Y-78498429D01*
X154278585Y-78498987D01*
X154272679Y-78500725D01*
X154272675Y-78500726D01*
X154138909Y-78540096D01*
X154097320Y-78552336D01*
X153929870Y-78639877D01*
X153925072Y-78643735D01*
X153925070Y-78643736D01*
X153920567Y-78647357D01*
X153906099Y-78658990D01*
X153904718Y-78660100D01*
X153839095Y-78687197D01*
X153769241Y-78674514D01*
X153745451Y-78658990D01*
X153736137Y-78651285D01*
X153736133Y-78651282D01*
X153731389Y-78647357D01*
X153565178Y-78557487D01*
X153384676Y-78501612D01*
X153378554Y-78500969D01*
X153378551Y-78500968D01*
X153202888Y-78482506D01*
X153202886Y-78482506D01*
X153196759Y-78481862D01*
X153117634Y-78489063D01*
X153014724Y-78498428D01*
X153014721Y-78498429D01*
X153008585Y-78498987D01*
X153002679Y-78500725D01*
X153002675Y-78500726D01*
X152868909Y-78540096D01*
X152827320Y-78552336D01*
X152659870Y-78639877D01*
X152655072Y-78643735D01*
X152655070Y-78643736D01*
X152650567Y-78647357D01*
X152636099Y-78658990D01*
X152634718Y-78660100D01*
X152569095Y-78687197D01*
X152499241Y-78674514D01*
X152475451Y-78658990D01*
X152466137Y-78651285D01*
X152466133Y-78651282D01*
X152461389Y-78647357D01*
X152295178Y-78557487D01*
X152114676Y-78501612D01*
X152108554Y-78500969D01*
X152108551Y-78500968D01*
X151932888Y-78482506D01*
X151932886Y-78482506D01*
X151926759Y-78481862D01*
X151847634Y-78489063D01*
X151744724Y-78498428D01*
X151744721Y-78498429D01*
X151738585Y-78498987D01*
X151732679Y-78500725D01*
X151732675Y-78500726D01*
X151598909Y-78540096D01*
X151557320Y-78552336D01*
X151389870Y-78639877D01*
X151385072Y-78643735D01*
X151385070Y-78643736D01*
X151380567Y-78647357D01*
X151366099Y-78658990D01*
X151364718Y-78660100D01*
X151299095Y-78687197D01*
X151229241Y-78674514D01*
X151205451Y-78658990D01*
X151196137Y-78651285D01*
X151196133Y-78651282D01*
X151191389Y-78647357D01*
X151025178Y-78557487D01*
X150844676Y-78501612D01*
X150838554Y-78500969D01*
X150838551Y-78500968D01*
X150662888Y-78482506D01*
X150662886Y-78482506D01*
X150656759Y-78481862D01*
X150577634Y-78489063D01*
X150474724Y-78498428D01*
X150474721Y-78498429D01*
X150468585Y-78498987D01*
X150462679Y-78500725D01*
X150462675Y-78500726D01*
X150328909Y-78540096D01*
X150287320Y-78552336D01*
X150119870Y-78639877D01*
X150115072Y-78643735D01*
X150115070Y-78643736D01*
X150110567Y-78647357D01*
X150096099Y-78658990D01*
X150094718Y-78660100D01*
X150029095Y-78687197D01*
X149959241Y-78674514D01*
X149935451Y-78658990D01*
X149926137Y-78651285D01*
X149926133Y-78651282D01*
X149921389Y-78647357D01*
X149755178Y-78557487D01*
X149574676Y-78501612D01*
X149568554Y-78500969D01*
X149568551Y-78500968D01*
X149392888Y-78482506D01*
X149392886Y-78482506D01*
X149386759Y-78481862D01*
X149307634Y-78489063D01*
X149204724Y-78498428D01*
X149204721Y-78498429D01*
X149198585Y-78498987D01*
X149192679Y-78500725D01*
X149192675Y-78500726D01*
X149058909Y-78540096D01*
X149017320Y-78552336D01*
X148849870Y-78639877D01*
X148845072Y-78643735D01*
X148845070Y-78643736D01*
X148840567Y-78647357D01*
X148826099Y-78658990D01*
X148824718Y-78660100D01*
X148759095Y-78687197D01*
X148689241Y-78674514D01*
X148665451Y-78658990D01*
X148656137Y-78651285D01*
X148656133Y-78651282D01*
X148651389Y-78647357D01*
X148485178Y-78557487D01*
X148304676Y-78501612D01*
X148298554Y-78500969D01*
X148298551Y-78500968D01*
X148122888Y-78482506D01*
X148122886Y-78482506D01*
X148116759Y-78481862D01*
X148037634Y-78489063D01*
X147934724Y-78498428D01*
X147934721Y-78498429D01*
X147928585Y-78498987D01*
X147922679Y-78500725D01*
X147922675Y-78500726D01*
X147788909Y-78540096D01*
X147747320Y-78552336D01*
X147579870Y-78639877D01*
X147575072Y-78643735D01*
X147575070Y-78643736D01*
X147570567Y-78647357D01*
X147556099Y-78658990D01*
X147554718Y-78660100D01*
X147489095Y-78687197D01*
X147419241Y-78674514D01*
X147395451Y-78658990D01*
X147386137Y-78651285D01*
X147386133Y-78651282D01*
X147381389Y-78647357D01*
X147215178Y-78557487D01*
X147034676Y-78501612D01*
X147028554Y-78500969D01*
X147028551Y-78500968D01*
X146852888Y-78482506D01*
X146852886Y-78482506D01*
X146846759Y-78481862D01*
X146767634Y-78489063D01*
X146664724Y-78498428D01*
X146664721Y-78498429D01*
X146658585Y-78498987D01*
X146652679Y-78500725D01*
X146652675Y-78500726D01*
X146518909Y-78540096D01*
X146477320Y-78552336D01*
X146309870Y-78639877D01*
X146305072Y-78643735D01*
X146305070Y-78643736D01*
X146300567Y-78647357D01*
X146286099Y-78658990D01*
X146284718Y-78660100D01*
X146219095Y-78687197D01*
X146149241Y-78674514D01*
X146125451Y-78658990D01*
X146116137Y-78651285D01*
X146116133Y-78651282D01*
X146111389Y-78647357D01*
X145945178Y-78557487D01*
X145764676Y-78501612D01*
X145758554Y-78500969D01*
X145758551Y-78500968D01*
X145582888Y-78482506D01*
X145582886Y-78482506D01*
X145576759Y-78481862D01*
X145497634Y-78489063D01*
X145394724Y-78498428D01*
X145394721Y-78498429D01*
X145388585Y-78498987D01*
X145382679Y-78500725D01*
X145382675Y-78500726D01*
X145248909Y-78540096D01*
X145207320Y-78552336D01*
X145039870Y-78639877D01*
X145035072Y-78643735D01*
X145035070Y-78643736D01*
X145030567Y-78647357D01*
X145016099Y-78658990D01*
X145014718Y-78660100D01*
X144949095Y-78687197D01*
X144879241Y-78674514D01*
X144855451Y-78658990D01*
X144846137Y-78651285D01*
X144846133Y-78651282D01*
X144841389Y-78647357D01*
X144675178Y-78557487D01*
X144494676Y-78501612D01*
X144488554Y-78500969D01*
X144488551Y-78500968D01*
X144312888Y-78482506D01*
X144312886Y-78482506D01*
X144306759Y-78481862D01*
X144227634Y-78489063D01*
X144124724Y-78498428D01*
X144124721Y-78498429D01*
X144118585Y-78498987D01*
X144112679Y-78500725D01*
X144112675Y-78500726D01*
X143978909Y-78540096D01*
X143937320Y-78552336D01*
X143769870Y-78639877D01*
X143765072Y-78643735D01*
X143765070Y-78643736D01*
X143760567Y-78647357D01*
X143746099Y-78658990D01*
X143744718Y-78660100D01*
X143679095Y-78687197D01*
X143609241Y-78674514D01*
X143585451Y-78658990D01*
X143576137Y-78651285D01*
X143576133Y-78651282D01*
X143571389Y-78647357D01*
X143405178Y-78557487D01*
X143224676Y-78501612D01*
X143218554Y-78500969D01*
X143218551Y-78500968D01*
X143042888Y-78482506D01*
X143042886Y-78482506D01*
X143036759Y-78481862D01*
X142957634Y-78489063D01*
X142854724Y-78498428D01*
X142854721Y-78498429D01*
X142848585Y-78498987D01*
X142842679Y-78500725D01*
X142842675Y-78500726D01*
X142708909Y-78540096D01*
X142667320Y-78552336D01*
X142499870Y-78639877D01*
X142495072Y-78643735D01*
X142495070Y-78643736D01*
X142490567Y-78647357D01*
X142476099Y-78658990D01*
X142474718Y-78660100D01*
X142409095Y-78687197D01*
X142339241Y-78674514D01*
X142315451Y-78658990D01*
X142306137Y-78651285D01*
X142306133Y-78651282D01*
X142301389Y-78647357D01*
X142135178Y-78557487D01*
X141954676Y-78501612D01*
X141948554Y-78500969D01*
X141948551Y-78500968D01*
X141772888Y-78482506D01*
X141772886Y-78482506D01*
X141766759Y-78481862D01*
X141687634Y-78489063D01*
X141584724Y-78498428D01*
X141584721Y-78498429D01*
X141578585Y-78498987D01*
X141572679Y-78500725D01*
X141572675Y-78500726D01*
X141438909Y-78540096D01*
X141397320Y-78552336D01*
X141229870Y-78639877D01*
X141082613Y-78758275D01*
X140961156Y-78903020D01*
X140958193Y-78908409D01*
X140958190Y-78908414D01*
X140873095Y-79063203D01*
X140870128Y-79068600D01*
X140812995Y-79248708D01*
X140812309Y-79254827D01*
X140812308Y-79254830D01*
X140792619Y-79430357D01*
X140791932Y-79436482D01*
X133708500Y-79436482D01*
X133708500Y-67586482D01*
X140791932Y-67586482D01*
X140807743Y-67774772D01*
X140859826Y-67956404D01*
X140946195Y-68124461D01*
X140950018Y-68129285D01*
X140950021Y-68129289D01*
X140968592Y-68152719D01*
X141063563Y-68272542D01*
X141068256Y-68276536D01*
X141068257Y-68276537D01*
X141169687Y-68362860D01*
X141207457Y-68395005D01*
X141212834Y-68398010D01*
X141367019Y-68484183D01*
X141367025Y-68484186D01*
X141372397Y-68487188D01*
X141552101Y-68545577D01*
X141739724Y-68567950D01*
X141745859Y-68567478D01*
X141745861Y-68567478D01*
X141921978Y-68553926D01*
X141921982Y-68553925D01*
X141928120Y-68553453D01*
X142110111Y-68502640D01*
X142115615Y-68499860D01*
X142115617Y-68499859D01*
X142273264Y-68420226D01*
X142273266Y-68420225D01*
X142278767Y-68417446D01*
X142283621Y-68413654D01*
X142283630Y-68413648D01*
X142315129Y-68389038D01*
X142381123Y-68362860D01*
X142450794Y-68376518D01*
X142467516Y-68387767D01*
X142467705Y-68387495D01*
X142472765Y-68391012D01*
X142477457Y-68395005D01*
X142482834Y-68398010D01*
X142637019Y-68484183D01*
X142637025Y-68484186D01*
X142642397Y-68487188D01*
X142822101Y-68545577D01*
X143009724Y-68567950D01*
X143015859Y-68567478D01*
X143015861Y-68567478D01*
X143191978Y-68553926D01*
X143191982Y-68553925D01*
X143198120Y-68553453D01*
X143380111Y-68502640D01*
X143385615Y-68499860D01*
X143385617Y-68499859D01*
X143543264Y-68420226D01*
X143543266Y-68420225D01*
X143548767Y-68417446D01*
X143553621Y-68413654D01*
X143553630Y-68413648D01*
X143585129Y-68389038D01*
X143651123Y-68362860D01*
X143720794Y-68376518D01*
X143737516Y-68387767D01*
X143737705Y-68387495D01*
X143742765Y-68391012D01*
X143747457Y-68395005D01*
X143752834Y-68398010D01*
X143907019Y-68484183D01*
X143907025Y-68484186D01*
X143912397Y-68487188D01*
X144092101Y-68545577D01*
X144279724Y-68567950D01*
X144285859Y-68567478D01*
X144285861Y-68567478D01*
X144461978Y-68553926D01*
X144461982Y-68553925D01*
X144468120Y-68553453D01*
X144650111Y-68502640D01*
X144655615Y-68499860D01*
X144655617Y-68499859D01*
X144813264Y-68420226D01*
X144813266Y-68420225D01*
X144818767Y-68417446D01*
X144823621Y-68413654D01*
X144823630Y-68413648D01*
X144855129Y-68389038D01*
X144921123Y-68362860D01*
X144990794Y-68376518D01*
X145007516Y-68387767D01*
X145007705Y-68387495D01*
X145012765Y-68391012D01*
X145017457Y-68395005D01*
X145022834Y-68398010D01*
X145177019Y-68484183D01*
X145177025Y-68484186D01*
X145182397Y-68487188D01*
X145362101Y-68545577D01*
X145549724Y-68567950D01*
X145555859Y-68567478D01*
X145555861Y-68567478D01*
X145731978Y-68553926D01*
X145731982Y-68553925D01*
X145738120Y-68553453D01*
X145920111Y-68502640D01*
X145925615Y-68499860D01*
X145925617Y-68499859D01*
X146083264Y-68420226D01*
X146083266Y-68420225D01*
X146088767Y-68417446D01*
X146093621Y-68413654D01*
X146093630Y-68413648D01*
X146125129Y-68389038D01*
X146191123Y-68362860D01*
X146260794Y-68376518D01*
X146277516Y-68387767D01*
X146277705Y-68387495D01*
X146282765Y-68391012D01*
X146287457Y-68395005D01*
X146292834Y-68398010D01*
X146447019Y-68484183D01*
X146447025Y-68484186D01*
X146452397Y-68487188D01*
X146632101Y-68545577D01*
X146819724Y-68567950D01*
X146825859Y-68567478D01*
X146825861Y-68567478D01*
X147001978Y-68553926D01*
X147001982Y-68553925D01*
X147008120Y-68553453D01*
X147190111Y-68502640D01*
X147195615Y-68499860D01*
X147195617Y-68499859D01*
X147353264Y-68420226D01*
X147353266Y-68420225D01*
X147358767Y-68417446D01*
X147363621Y-68413654D01*
X147363630Y-68413648D01*
X147395129Y-68389038D01*
X147461123Y-68362860D01*
X147530794Y-68376518D01*
X147547516Y-68387767D01*
X147547705Y-68387495D01*
X147552765Y-68391012D01*
X147557457Y-68395005D01*
X147562834Y-68398010D01*
X147717019Y-68484183D01*
X147717025Y-68484186D01*
X147722397Y-68487188D01*
X147902101Y-68545577D01*
X148089724Y-68567950D01*
X148095859Y-68567478D01*
X148095861Y-68567478D01*
X148271978Y-68553926D01*
X148271982Y-68553925D01*
X148278120Y-68553453D01*
X148460111Y-68502640D01*
X148465615Y-68499860D01*
X148465617Y-68499859D01*
X148623264Y-68420226D01*
X148623266Y-68420225D01*
X148628767Y-68417446D01*
X148633621Y-68413654D01*
X148633630Y-68413648D01*
X148665129Y-68389038D01*
X148731123Y-68362860D01*
X148800794Y-68376518D01*
X148817516Y-68387767D01*
X148817705Y-68387495D01*
X148822765Y-68391012D01*
X148827457Y-68395005D01*
X148832834Y-68398010D01*
X148987019Y-68484183D01*
X148987025Y-68484186D01*
X148992397Y-68487188D01*
X149172101Y-68545577D01*
X149359724Y-68567950D01*
X149365859Y-68567478D01*
X149365861Y-68567478D01*
X149541978Y-68553926D01*
X149541982Y-68553925D01*
X149548120Y-68553453D01*
X149730111Y-68502640D01*
X149735615Y-68499860D01*
X149735617Y-68499859D01*
X149893264Y-68420226D01*
X149893266Y-68420225D01*
X149898767Y-68417446D01*
X149903621Y-68413654D01*
X149903630Y-68413648D01*
X149935129Y-68389038D01*
X150001123Y-68362860D01*
X150070794Y-68376518D01*
X150087516Y-68387767D01*
X150087705Y-68387495D01*
X150092765Y-68391012D01*
X150097457Y-68395005D01*
X150102834Y-68398010D01*
X150257019Y-68484183D01*
X150257025Y-68484186D01*
X150262397Y-68487188D01*
X150442101Y-68545577D01*
X150629724Y-68567950D01*
X150635859Y-68567478D01*
X150635861Y-68567478D01*
X150811978Y-68553926D01*
X150811982Y-68553925D01*
X150818120Y-68553453D01*
X151000111Y-68502640D01*
X151005615Y-68499860D01*
X151005617Y-68499859D01*
X151163264Y-68420226D01*
X151163266Y-68420225D01*
X151168767Y-68417446D01*
X151173621Y-68413654D01*
X151173630Y-68413648D01*
X151205129Y-68389038D01*
X151271123Y-68362860D01*
X151340794Y-68376518D01*
X151357516Y-68387767D01*
X151357705Y-68387495D01*
X151362765Y-68391012D01*
X151367457Y-68395005D01*
X151372834Y-68398010D01*
X151527019Y-68484183D01*
X151527025Y-68484186D01*
X151532397Y-68487188D01*
X151712101Y-68545577D01*
X151899724Y-68567950D01*
X151905859Y-68567478D01*
X151905861Y-68567478D01*
X152081978Y-68553926D01*
X152081982Y-68553925D01*
X152088120Y-68553453D01*
X152270111Y-68502640D01*
X152275615Y-68499860D01*
X152275617Y-68499859D01*
X152433264Y-68420226D01*
X152433266Y-68420225D01*
X152438767Y-68417446D01*
X152443621Y-68413654D01*
X152443630Y-68413648D01*
X152475129Y-68389038D01*
X152541123Y-68362860D01*
X152610794Y-68376518D01*
X152627516Y-68387767D01*
X152627705Y-68387495D01*
X152632765Y-68391012D01*
X152637457Y-68395005D01*
X152642834Y-68398010D01*
X152797019Y-68484183D01*
X152797025Y-68484186D01*
X152802397Y-68487188D01*
X152982101Y-68545577D01*
X153169724Y-68567950D01*
X153175859Y-68567478D01*
X153175861Y-68567478D01*
X153351978Y-68553926D01*
X153351982Y-68553925D01*
X153358120Y-68553453D01*
X153540111Y-68502640D01*
X153545615Y-68499860D01*
X153545617Y-68499859D01*
X153703264Y-68420226D01*
X153703266Y-68420225D01*
X153708767Y-68417446D01*
X153713621Y-68413654D01*
X153713630Y-68413648D01*
X153745129Y-68389038D01*
X153811123Y-68362860D01*
X153880794Y-68376518D01*
X153897516Y-68387767D01*
X153897705Y-68387495D01*
X153902765Y-68391012D01*
X153907457Y-68395005D01*
X153912834Y-68398010D01*
X154067019Y-68484183D01*
X154067025Y-68484186D01*
X154072397Y-68487188D01*
X154252101Y-68545577D01*
X154439724Y-68567950D01*
X154445859Y-68567478D01*
X154445861Y-68567478D01*
X154621978Y-68553926D01*
X154621982Y-68553925D01*
X154628120Y-68553453D01*
X154810111Y-68502640D01*
X154815615Y-68499860D01*
X154815617Y-68499859D01*
X154973264Y-68420226D01*
X154973266Y-68420225D01*
X154978767Y-68417446D01*
X154983621Y-68413654D01*
X154983630Y-68413648D01*
X155015129Y-68389038D01*
X155081123Y-68362860D01*
X155150794Y-68376518D01*
X155167516Y-68387767D01*
X155167705Y-68387495D01*
X155172765Y-68391012D01*
X155177457Y-68395005D01*
X155182834Y-68398010D01*
X155337019Y-68484183D01*
X155337025Y-68484186D01*
X155342397Y-68487188D01*
X155522101Y-68545577D01*
X155709724Y-68567950D01*
X155715859Y-68567478D01*
X155715861Y-68567478D01*
X155891978Y-68553926D01*
X155891982Y-68553925D01*
X155898120Y-68553453D01*
X156080111Y-68502640D01*
X156085615Y-68499860D01*
X156085617Y-68499859D01*
X156243264Y-68420226D01*
X156243266Y-68420225D01*
X156248767Y-68417446D01*
X156253621Y-68413654D01*
X156253630Y-68413648D01*
X156285129Y-68389038D01*
X156351123Y-68362860D01*
X156420794Y-68376518D01*
X156437516Y-68387767D01*
X156437705Y-68387495D01*
X156442765Y-68391012D01*
X156447457Y-68395005D01*
X156452834Y-68398010D01*
X156607019Y-68484183D01*
X156607025Y-68484186D01*
X156612397Y-68487188D01*
X156792101Y-68545577D01*
X156979724Y-68567950D01*
X156985859Y-68567478D01*
X156985861Y-68567478D01*
X157161978Y-68553926D01*
X157161982Y-68553925D01*
X157168120Y-68553453D01*
X157350111Y-68502640D01*
X157355615Y-68499860D01*
X157355617Y-68499859D01*
X157513266Y-68420225D01*
X157513268Y-68420224D01*
X157518767Y-68417446D01*
X157667663Y-68301116D01*
X157791129Y-68158080D01*
X157794172Y-68152723D01*
X157794175Y-68152719D01*
X157837794Y-68075934D01*
X157884460Y-67993787D01*
X157944103Y-67814495D01*
X157967785Y-67627033D01*
X157968162Y-67600000D01*
X157949724Y-67411950D01*
X157895110Y-67231062D01*
X157806403Y-67064227D01*
X157686979Y-66917800D01*
X157541389Y-66797357D01*
X157375178Y-66707487D01*
X157194676Y-66651612D01*
X157188554Y-66650969D01*
X157188551Y-66650968D01*
X157012888Y-66632506D01*
X157012886Y-66632506D01*
X157006759Y-66631862D01*
X156927634Y-66639063D01*
X156824724Y-66648428D01*
X156824721Y-66648429D01*
X156818585Y-66648987D01*
X156812679Y-66650725D01*
X156812675Y-66650726D01*
X156678909Y-66690096D01*
X156637320Y-66702336D01*
X156469870Y-66789877D01*
X156465072Y-66793735D01*
X156465070Y-66793736D01*
X156460567Y-66797357D01*
X156446099Y-66808990D01*
X156444718Y-66810100D01*
X156379095Y-66837197D01*
X156309241Y-66824514D01*
X156285451Y-66808990D01*
X156276137Y-66801285D01*
X156276133Y-66801282D01*
X156271389Y-66797357D01*
X156105178Y-66707487D01*
X155924676Y-66651612D01*
X155918554Y-66650969D01*
X155918551Y-66650968D01*
X155742888Y-66632506D01*
X155742886Y-66632506D01*
X155736759Y-66631862D01*
X155657634Y-66639063D01*
X155554724Y-66648428D01*
X155554721Y-66648429D01*
X155548585Y-66648987D01*
X155542679Y-66650725D01*
X155542675Y-66650726D01*
X155408909Y-66690096D01*
X155367320Y-66702336D01*
X155199870Y-66789877D01*
X155195072Y-66793735D01*
X155195070Y-66793736D01*
X155190567Y-66797357D01*
X155176099Y-66808990D01*
X155174718Y-66810100D01*
X155109095Y-66837197D01*
X155039241Y-66824514D01*
X155015451Y-66808990D01*
X155006137Y-66801285D01*
X155006133Y-66801282D01*
X155001389Y-66797357D01*
X154835178Y-66707487D01*
X154654676Y-66651612D01*
X154648554Y-66650969D01*
X154648551Y-66650968D01*
X154472888Y-66632506D01*
X154472886Y-66632506D01*
X154466759Y-66631862D01*
X154387634Y-66639063D01*
X154284724Y-66648428D01*
X154284721Y-66648429D01*
X154278585Y-66648987D01*
X154272679Y-66650725D01*
X154272675Y-66650726D01*
X154138909Y-66690096D01*
X154097320Y-66702336D01*
X153929870Y-66789877D01*
X153925072Y-66793735D01*
X153925070Y-66793736D01*
X153920567Y-66797357D01*
X153906099Y-66808990D01*
X153904718Y-66810100D01*
X153839095Y-66837197D01*
X153769241Y-66824514D01*
X153745451Y-66808990D01*
X153736137Y-66801285D01*
X153736133Y-66801282D01*
X153731389Y-66797357D01*
X153565178Y-66707487D01*
X153384676Y-66651612D01*
X153378554Y-66650969D01*
X153378551Y-66650968D01*
X153202888Y-66632506D01*
X153202886Y-66632506D01*
X153196759Y-66631862D01*
X153117634Y-66639063D01*
X153014724Y-66648428D01*
X153014721Y-66648429D01*
X153008585Y-66648987D01*
X153002679Y-66650725D01*
X153002675Y-66650726D01*
X152868909Y-66690096D01*
X152827320Y-66702336D01*
X152659870Y-66789877D01*
X152655072Y-66793735D01*
X152655070Y-66793736D01*
X152650567Y-66797357D01*
X152636099Y-66808990D01*
X152634718Y-66810100D01*
X152569095Y-66837197D01*
X152499241Y-66824514D01*
X152475451Y-66808990D01*
X152466137Y-66801285D01*
X152466133Y-66801282D01*
X152461389Y-66797357D01*
X152295178Y-66707487D01*
X152114676Y-66651612D01*
X152108554Y-66650969D01*
X152108551Y-66650968D01*
X151932888Y-66632506D01*
X151932886Y-66632506D01*
X151926759Y-66631862D01*
X151847634Y-66639063D01*
X151744724Y-66648428D01*
X151744721Y-66648429D01*
X151738585Y-66648987D01*
X151732679Y-66650725D01*
X151732675Y-66650726D01*
X151598909Y-66690096D01*
X151557320Y-66702336D01*
X151389870Y-66789877D01*
X151385072Y-66793735D01*
X151385070Y-66793736D01*
X151380567Y-66797357D01*
X151366099Y-66808990D01*
X151364718Y-66810100D01*
X151299095Y-66837197D01*
X151229241Y-66824514D01*
X151205451Y-66808990D01*
X151196137Y-66801285D01*
X151196133Y-66801282D01*
X151191389Y-66797357D01*
X151025178Y-66707487D01*
X150844676Y-66651612D01*
X150838554Y-66650969D01*
X150838551Y-66650968D01*
X150662888Y-66632506D01*
X150662886Y-66632506D01*
X150656759Y-66631862D01*
X150577634Y-66639063D01*
X150474724Y-66648428D01*
X150474721Y-66648429D01*
X150468585Y-66648987D01*
X150462679Y-66650725D01*
X150462675Y-66650726D01*
X150328909Y-66690096D01*
X150287320Y-66702336D01*
X150119870Y-66789877D01*
X150115072Y-66793735D01*
X150115070Y-66793736D01*
X150110567Y-66797357D01*
X150096099Y-66808990D01*
X150094718Y-66810100D01*
X150029095Y-66837197D01*
X149959241Y-66824514D01*
X149935451Y-66808990D01*
X149926137Y-66801285D01*
X149926133Y-66801282D01*
X149921389Y-66797357D01*
X149755178Y-66707487D01*
X149574676Y-66651612D01*
X149568554Y-66650969D01*
X149568551Y-66650968D01*
X149392888Y-66632506D01*
X149392886Y-66632506D01*
X149386759Y-66631862D01*
X149307634Y-66639063D01*
X149204724Y-66648428D01*
X149204721Y-66648429D01*
X149198585Y-66648987D01*
X149192679Y-66650725D01*
X149192675Y-66650726D01*
X149058909Y-66690096D01*
X149017320Y-66702336D01*
X148849870Y-66789877D01*
X148845072Y-66793735D01*
X148845070Y-66793736D01*
X148840567Y-66797357D01*
X148826099Y-66808990D01*
X148824718Y-66810100D01*
X148759095Y-66837197D01*
X148689241Y-66824514D01*
X148665451Y-66808990D01*
X148656137Y-66801285D01*
X148656133Y-66801282D01*
X148651389Y-66797357D01*
X148485178Y-66707487D01*
X148304676Y-66651612D01*
X148298554Y-66650969D01*
X148298551Y-66650968D01*
X148122888Y-66632506D01*
X148122886Y-66632506D01*
X148116759Y-66631862D01*
X148037634Y-66639063D01*
X147934724Y-66648428D01*
X147934721Y-66648429D01*
X147928585Y-66648987D01*
X147922679Y-66650725D01*
X147922675Y-66650726D01*
X147788909Y-66690096D01*
X147747320Y-66702336D01*
X147579870Y-66789877D01*
X147575072Y-66793735D01*
X147575070Y-66793736D01*
X147570567Y-66797357D01*
X147556099Y-66808990D01*
X147554718Y-66810100D01*
X147489095Y-66837197D01*
X147419241Y-66824514D01*
X147395451Y-66808990D01*
X147386137Y-66801285D01*
X147386133Y-66801282D01*
X147381389Y-66797357D01*
X147215178Y-66707487D01*
X147034676Y-66651612D01*
X147028554Y-66650969D01*
X147028551Y-66650968D01*
X146852888Y-66632506D01*
X146852886Y-66632506D01*
X146846759Y-66631862D01*
X146767634Y-66639063D01*
X146664724Y-66648428D01*
X146664721Y-66648429D01*
X146658585Y-66648987D01*
X146652679Y-66650725D01*
X146652675Y-66650726D01*
X146518909Y-66690096D01*
X146477320Y-66702336D01*
X146309870Y-66789877D01*
X146305072Y-66793735D01*
X146305070Y-66793736D01*
X146300567Y-66797357D01*
X146286099Y-66808990D01*
X146284718Y-66810100D01*
X146219095Y-66837197D01*
X146149241Y-66824514D01*
X146125451Y-66808990D01*
X146116137Y-66801285D01*
X146116133Y-66801282D01*
X146111389Y-66797357D01*
X145945178Y-66707487D01*
X145764676Y-66651612D01*
X145758554Y-66650969D01*
X145758551Y-66650968D01*
X145582888Y-66632506D01*
X145582886Y-66632506D01*
X145576759Y-66631862D01*
X145497634Y-66639063D01*
X145394724Y-66648428D01*
X145394721Y-66648429D01*
X145388585Y-66648987D01*
X145382679Y-66650725D01*
X145382675Y-66650726D01*
X145248909Y-66690096D01*
X145207320Y-66702336D01*
X145039870Y-66789877D01*
X145035072Y-66793735D01*
X145035070Y-66793736D01*
X145030567Y-66797357D01*
X145016099Y-66808990D01*
X145014718Y-66810100D01*
X144949095Y-66837197D01*
X144879241Y-66824514D01*
X144855451Y-66808990D01*
X144846137Y-66801285D01*
X144846133Y-66801282D01*
X144841389Y-66797357D01*
X144675178Y-66707487D01*
X144494676Y-66651612D01*
X144488554Y-66650969D01*
X144488551Y-66650968D01*
X144312888Y-66632506D01*
X144312886Y-66632506D01*
X144306759Y-66631862D01*
X144227634Y-66639063D01*
X144124724Y-66648428D01*
X144124721Y-66648429D01*
X144118585Y-66648987D01*
X144112679Y-66650725D01*
X144112675Y-66650726D01*
X143978909Y-66690096D01*
X143937320Y-66702336D01*
X143769870Y-66789877D01*
X143765072Y-66793735D01*
X143765070Y-66793736D01*
X143760567Y-66797357D01*
X143746099Y-66808990D01*
X143744718Y-66810100D01*
X143679095Y-66837197D01*
X143609241Y-66824514D01*
X143585451Y-66808990D01*
X143576137Y-66801285D01*
X143576133Y-66801282D01*
X143571389Y-66797357D01*
X143405178Y-66707487D01*
X143224676Y-66651612D01*
X143218554Y-66650969D01*
X143218551Y-66650968D01*
X143042888Y-66632506D01*
X143042886Y-66632506D01*
X143036759Y-66631862D01*
X142957634Y-66639063D01*
X142854724Y-66648428D01*
X142854721Y-66648429D01*
X142848585Y-66648987D01*
X142842679Y-66650725D01*
X142842675Y-66650726D01*
X142708909Y-66690096D01*
X142667320Y-66702336D01*
X142499870Y-66789877D01*
X142495072Y-66793735D01*
X142495070Y-66793736D01*
X142490567Y-66797357D01*
X142476099Y-66808990D01*
X142474718Y-66810100D01*
X142409095Y-66837197D01*
X142339241Y-66824514D01*
X142315451Y-66808990D01*
X142306137Y-66801285D01*
X142306133Y-66801282D01*
X142301389Y-66797357D01*
X142135178Y-66707487D01*
X141954676Y-66651612D01*
X141948554Y-66650969D01*
X141948551Y-66650968D01*
X141772888Y-66632506D01*
X141772886Y-66632506D01*
X141766759Y-66631862D01*
X141687634Y-66639063D01*
X141584724Y-66648428D01*
X141584721Y-66648429D01*
X141578585Y-66648987D01*
X141572679Y-66650725D01*
X141572675Y-66650726D01*
X141438909Y-66690096D01*
X141397320Y-66702336D01*
X141229870Y-66789877D01*
X141082613Y-66908275D01*
X140961156Y-67053020D01*
X140958193Y-67058409D01*
X140958190Y-67058414D01*
X140873095Y-67213203D01*
X140870128Y-67218600D01*
X140812995Y-67398708D01*
X140812309Y-67404827D01*
X140812308Y-67404830D01*
X140792619Y-67580357D01*
X140791932Y-67586482D01*
X133708500Y-67586482D01*
X133708500Y-65805301D01*
X135474823Y-65805301D01*
X135482348Y-65815734D01*
X135608517Y-65917358D01*
X135614701Y-65921752D01*
X135875067Y-66084131D01*
X135881738Y-66087753D01*
X136159732Y-66217679D01*
X136166785Y-66220472D01*
X136458393Y-66316066D01*
X136465705Y-66317984D01*
X136766689Y-66377853D01*
X136774187Y-66378881D01*
X137080183Y-66402158D01*
X137087746Y-66402276D01*
X137394314Y-66388623D01*
X137401855Y-66387831D01*
X137704558Y-66337447D01*
X137711946Y-66335755D01*
X138006401Y-66249371D01*
X138013525Y-66246806D01*
X138295482Y-66125668D01*
X138302249Y-66122264D01*
X138567603Y-65968134D01*
X138573910Y-65963944D01*
X138767908Y-65817491D01*
X138776364Y-65806100D01*
X138769646Y-65793856D01*
X137137812Y-64162022D01*
X137123868Y-64154408D01*
X137122035Y-64154539D01*
X137115420Y-64158790D01*
X135481938Y-65792272D01*
X135474823Y-65805301D01*
X133708500Y-65805301D01*
X133708500Y-65708623D01*
X133708502Y-65707853D01*
X133708921Y-65639254D01*
X133708976Y-65630279D01*
X133700850Y-65601847D01*
X133697272Y-65585085D01*
X133694352Y-65564698D01*
X133693080Y-65555813D01*
X133682451Y-65532436D01*
X133676004Y-65514913D01*
X133671416Y-65498862D01*
X133668949Y-65490229D01*
X133664156Y-65482632D01*
X133653170Y-65465220D01*
X133645030Y-65450135D01*
X133644031Y-65447938D01*
X133632792Y-65423218D01*
X133616030Y-65403765D01*
X133604927Y-65388761D01*
X133591224Y-65367042D01*
X133584499Y-65361103D01*
X133584496Y-65361099D01*
X133569062Y-65347468D01*
X133557018Y-65335276D01*
X133543573Y-65319673D01*
X133543570Y-65319671D01*
X133537713Y-65312873D01*
X133516165Y-65298906D01*
X133501291Y-65287615D01*
X133488783Y-65276569D01*
X133488782Y-65276568D01*
X133482049Y-65270622D01*
X133455287Y-65258057D01*
X133440309Y-65249737D01*
X133423017Y-65238529D01*
X133423012Y-65238527D01*
X133415485Y-65233648D01*
X133406892Y-65231078D01*
X133406887Y-65231076D01*
X133390880Y-65226289D01*
X133373436Y-65219628D01*
X133358324Y-65212533D01*
X133358322Y-65212532D01*
X133350200Y-65208719D01*
X133341333Y-65207338D01*
X133341332Y-65207338D01*
X133331690Y-65205837D01*
X133320983Y-65204170D01*
X133304268Y-65200387D01*
X133284534Y-65194485D01*
X133284528Y-65194484D01*
X133275934Y-65191914D01*
X133266963Y-65191859D01*
X133266962Y-65191859D01*
X133256903Y-65191798D01*
X133241494Y-65191704D01*
X133240711Y-65191671D01*
X133239614Y-65191500D01*
X133208623Y-65191500D01*
X133207853Y-65191498D01*
X133134215Y-65191048D01*
X133134214Y-65191048D01*
X133130279Y-65191024D01*
X133128935Y-65191408D01*
X133127590Y-65191500D01*
X117234500Y-65191500D01*
X117166379Y-65171498D01*
X117119886Y-65117842D01*
X117108500Y-65065500D01*
X117108500Y-63698134D01*
X117941500Y-63698134D01*
X117948255Y-63760316D01*
X117999385Y-63896705D01*
X118086739Y-64013261D01*
X118203295Y-64100615D01*
X118339684Y-64151745D01*
X118401866Y-64158500D01*
X120198134Y-64158500D01*
X120260316Y-64151745D01*
X120396705Y-64100615D01*
X120513261Y-64013261D01*
X120600615Y-63896705D01*
X120637026Y-63799580D01*
X120644598Y-63779382D01*
X120687240Y-63722618D01*
X120753802Y-63697918D01*
X120823150Y-63713126D01*
X120857817Y-63741114D01*
X120886250Y-63773938D01*
X121058126Y-63916632D01*
X121251000Y-64029338D01*
X121459692Y-64109030D01*
X121464760Y-64110061D01*
X121464763Y-64110062D01*
X121572017Y-64131883D01*
X121678597Y-64153567D01*
X121683772Y-64153757D01*
X121683774Y-64153757D01*
X121896673Y-64161564D01*
X121896677Y-64161564D01*
X121901837Y-64161753D01*
X121906957Y-64161097D01*
X121906959Y-64161097D01*
X122118288Y-64134025D01*
X122118289Y-64134025D01*
X122123416Y-64133368D01*
X122128366Y-64131883D01*
X122332429Y-64070661D01*
X122332434Y-64070659D01*
X122337384Y-64069174D01*
X122537994Y-63970896D01*
X122719860Y-63841173D01*
X122863400Y-63698134D01*
X125341500Y-63698134D01*
X125348255Y-63760316D01*
X125399385Y-63896705D01*
X125486739Y-64013261D01*
X125603295Y-64100615D01*
X125739684Y-64151745D01*
X125801866Y-64158500D01*
X127598134Y-64158500D01*
X127660316Y-64151745D01*
X127796705Y-64100615D01*
X127913261Y-64013261D01*
X128000615Y-63896705D01*
X128037026Y-63799580D01*
X128044598Y-63779382D01*
X128087240Y-63722618D01*
X128153802Y-63697918D01*
X128223150Y-63713126D01*
X128257817Y-63741114D01*
X128286250Y-63773938D01*
X128458126Y-63916632D01*
X128651000Y-64029338D01*
X128859692Y-64109030D01*
X128864760Y-64110061D01*
X128864763Y-64110062D01*
X128972017Y-64131883D01*
X129078597Y-64153567D01*
X129083772Y-64153757D01*
X129083774Y-64153757D01*
X129296673Y-64161564D01*
X129296677Y-64161564D01*
X129301837Y-64161753D01*
X129306957Y-64161097D01*
X129306959Y-64161097D01*
X129518288Y-64134025D01*
X129518289Y-64134025D01*
X129523416Y-64133368D01*
X129528366Y-64131883D01*
X129732429Y-64070661D01*
X129732434Y-64070659D01*
X129737384Y-64069174D01*
X129937994Y-63970896D01*
X130119860Y-63841173D01*
X130194863Y-63766432D01*
X134512565Y-63766432D01*
X134527823Y-64072920D01*
X134528654Y-64080449D01*
X134580621Y-64382883D01*
X134582354Y-64390270D01*
X134670278Y-64684266D01*
X134672881Y-64691379D01*
X134795491Y-64972690D01*
X134798933Y-64979446D01*
X134954449Y-65243988D01*
X134958672Y-65250273D01*
X135097810Y-65432588D01*
X135109336Y-65441050D01*
X135121401Y-65434389D01*
X136752978Y-63802812D01*
X136759356Y-63791132D01*
X137489408Y-63791132D01*
X137489539Y-63792965D01*
X137493790Y-63799580D01*
X139127202Y-65432992D01*
X139140325Y-65440158D01*
X139150627Y-65432768D01*
X139244388Y-65317601D01*
X139248810Y-65311447D01*
X139412562Y-65051917D01*
X139415549Y-65046482D01*
X141426932Y-65046482D01*
X141427448Y-65052625D01*
X141442031Y-65226289D01*
X141442743Y-65234772D01*
X141466494Y-65317601D01*
X141491202Y-65403765D01*
X141494826Y-65416404D01*
X141581195Y-65584461D01*
X141585018Y-65589285D01*
X141585021Y-65589289D01*
X141666287Y-65691820D01*
X141698563Y-65732542D01*
X141703256Y-65736536D01*
X141703257Y-65736537D01*
X141804687Y-65822860D01*
X141842457Y-65855005D01*
X141847834Y-65858010D01*
X142002019Y-65944183D01*
X142002025Y-65944186D01*
X142007397Y-65947188D01*
X142187101Y-66005577D01*
X142374724Y-66027950D01*
X142380859Y-66027478D01*
X142380861Y-66027478D01*
X142556978Y-66013926D01*
X142556982Y-66013925D01*
X142563120Y-66013453D01*
X142745111Y-65962640D01*
X142750615Y-65959860D01*
X142750617Y-65959859D01*
X142908264Y-65880226D01*
X142908266Y-65880225D01*
X142913767Y-65877446D01*
X142918621Y-65873654D01*
X142918630Y-65873648D01*
X142950129Y-65849038D01*
X143016123Y-65822860D01*
X143085794Y-65836518D01*
X143102516Y-65847767D01*
X143102705Y-65847495D01*
X143107765Y-65851012D01*
X143112457Y-65855005D01*
X143117834Y-65858010D01*
X143272019Y-65944183D01*
X143272025Y-65944186D01*
X143277397Y-65947188D01*
X143457101Y-66005577D01*
X143644724Y-66027950D01*
X143650859Y-66027478D01*
X143650861Y-66027478D01*
X143826978Y-66013926D01*
X143826982Y-66013925D01*
X143833120Y-66013453D01*
X144015111Y-65962640D01*
X144020615Y-65959860D01*
X144020617Y-65959859D01*
X144178264Y-65880226D01*
X144178266Y-65880225D01*
X144183767Y-65877446D01*
X144188621Y-65873654D01*
X144188630Y-65873648D01*
X144220129Y-65849038D01*
X144286123Y-65822860D01*
X144355794Y-65836518D01*
X144372516Y-65847767D01*
X144372705Y-65847495D01*
X144377765Y-65851012D01*
X144382457Y-65855005D01*
X144387834Y-65858010D01*
X144542019Y-65944183D01*
X144542025Y-65944186D01*
X144547397Y-65947188D01*
X144727101Y-66005577D01*
X144914724Y-66027950D01*
X144920859Y-66027478D01*
X144920861Y-66027478D01*
X145096978Y-66013926D01*
X145096982Y-66013925D01*
X145103120Y-66013453D01*
X145285111Y-65962640D01*
X145290615Y-65959860D01*
X145290617Y-65959859D01*
X145448264Y-65880226D01*
X145448266Y-65880225D01*
X145453767Y-65877446D01*
X145458621Y-65873654D01*
X145458630Y-65873648D01*
X145490129Y-65849038D01*
X145556123Y-65822860D01*
X145625794Y-65836518D01*
X145642516Y-65847767D01*
X145642705Y-65847495D01*
X145647765Y-65851012D01*
X145652457Y-65855005D01*
X145657834Y-65858010D01*
X145812019Y-65944183D01*
X145812025Y-65944186D01*
X145817397Y-65947188D01*
X145997101Y-66005577D01*
X146184724Y-66027950D01*
X146190859Y-66027478D01*
X146190861Y-66027478D01*
X146366978Y-66013926D01*
X146366982Y-66013925D01*
X146373120Y-66013453D01*
X146555111Y-65962640D01*
X146560615Y-65959860D01*
X146560617Y-65959859D01*
X146718264Y-65880226D01*
X146718266Y-65880225D01*
X146723767Y-65877446D01*
X146728621Y-65873654D01*
X146728630Y-65873648D01*
X146760129Y-65849038D01*
X146826123Y-65822860D01*
X146895794Y-65836518D01*
X146912516Y-65847767D01*
X146912705Y-65847495D01*
X146917765Y-65851012D01*
X146922457Y-65855005D01*
X146927834Y-65858010D01*
X147082019Y-65944183D01*
X147082025Y-65944186D01*
X147087397Y-65947188D01*
X147267101Y-66005577D01*
X147454724Y-66027950D01*
X147460859Y-66027478D01*
X147460861Y-66027478D01*
X147636978Y-66013926D01*
X147636982Y-66013925D01*
X147643120Y-66013453D01*
X147825111Y-65962640D01*
X147830615Y-65959860D01*
X147830617Y-65959859D01*
X147988264Y-65880226D01*
X147988266Y-65880225D01*
X147993767Y-65877446D01*
X147998621Y-65873654D01*
X147998630Y-65873648D01*
X148030129Y-65849038D01*
X148096123Y-65822860D01*
X148165794Y-65836518D01*
X148182516Y-65847767D01*
X148182705Y-65847495D01*
X148187765Y-65851012D01*
X148192457Y-65855005D01*
X148197834Y-65858010D01*
X148352019Y-65944183D01*
X148352025Y-65944186D01*
X148357397Y-65947188D01*
X148537101Y-66005577D01*
X148724724Y-66027950D01*
X148730859Y-66027478D01*
X148730861Y-66027478D01*
X148906978Y-66013926D01*
X148906982Y-66013925D01*
X148913120Y-66013453D01*
X149095111Y-65962640D01*
X149100615Y-65959860D01*
X149100617Y-65959859D01*
X149258264Y-65880226D01*
X149258266Y-65880225D01*
X149263767Y-65877446D01*
X149268621Y-65873654D01*
X149268630Y-65873648D01*
X149300129Y-65849038D01*
X149366123Y-65822860D01*
X149435794Y-65836518D01*
X149452516Y-65847767D01*
X149452705Y-65847495D01*
X149457765Y-65851012D01*
X149462457Y-65855005D01*
X149467834Y-65858010D01*
X149622019Y-65944183D01*
X149622025Y-65944186D01*
X149627397Y-65947188D01*
X149807101Y-66005577D01*
X149994724Y-66027950D01*
X150000859Y-66027478D01*
X150000861Y-66027478D01*
X150176978Y-66013926D01*
X150176982Y-66013925D01*
X150183120Y-66013453D01*
X150365111Y-65962640D01*
X150370615Y-65959860D01*
X150370617Y-65959859D01*
X150528264Y-65880226D01*
X150528266Y-65880225D01*
X150533767Y-65877446D01*
X150538621Y-65873654D01*
X150538630Y-65873648D01*
X150570129Y-65849038D01*
X150636123Y-65822860D01*
X150705794Y-65836518D01*
X150722516Y-65847767D01*
X150722705Y-65847495D01*
X150727765Y-65851012D01*
X150732457Y-65855005D01*
X150737834Y-65858010D01*
X150892019Y-65944183D01*
X150892025Y-65944186D01*
X150897397Y-65947188D01*
X151077101Y-66005577D01*
X151264724Y-66027950D01*
X151270859Y-66027478D01*
X151270861Y-66027478D01*
X151446978Y-66013926D01*
X151446982Y-66013925D01*
X151453120Y-66013453D01*
X151635111Y-65962640D01*
X151640615Y-65959860D01*
X151640617Y-65959859D01*
X151798264Y-65880226D01*
X151798266Y-65880225D01*
X151803767Y-65877446D01*
X151808621Y-65873654D01*
X151808630Y-65873648D01*
X151840129Y-65849038D01*
X151906123Y-65822860D01*
X151975794Y-65836518D01*
X151992516Y-65847767D01*
X151992705Y-65847495D01*
X151997765Y-65851012D01*
X152002457Y-65855005D01*
X152007834Y-65858010D01*
X152162019Y-65944183D01*
X152162025Y-65944186D01*
X152167397Y-65947188D01*
X152347101Y-66005577D01*
X152534724Y-66027950D01*
X152540859Y-66027478D01*
X152540861Y-66027478D01*
X152716978Y-66013926D01*
X152716982Y-66013925D01*
X152723120Y-66013453D01*
X152905111Y-65962640D01*
X152910615Y-65959860D01*
X152910617Y-65959859D01*
X153068264Y-65880226D01*
X153068266Y-65880225D01*
X153073767Y-65877446D01*
X153078621Y-65873654D01*
X153078630Y-65873648D01*
X153110129Y-65849038D01*
X153176123Y-65822860D01*
X153245794Y-65836518D01*
X153262516Y-65847767D01*
X153262705Y-65847495D01*
X153267765Y-65851012D01*
X153272457Y-65855005D01*
X153277834Y-65858010D01*
X153432019Y-65944183D01*
X153432025Y-65944186D01*
X153437397Y-65947188D01*
X153617101Y-66005577D01*
X153804724Y-66027950D01*
X153810859Y-66027478D01*
X153810861Y-66027478D01*
X153986978Y-66013926D01*
X153986982Y-66013925D01*
X153993120Y-66013453D01*
X154175111Y-65962640D01*
X154180615Y-65959860D01*
X154180617Y-65959859D01*
X154338264Y-65880226D01*
X154338266Y-65880225D01*
X154343767Y-65877446D01*
X154348621Y-65873654D01*
X154348630Y-65873648D01*
X154380129Y-65849038D01*
X154446123Y-65822860D01*
X154515794Y-65836518D01*
X154532516Y-65847767D01*
X154532705Y-65847495D01*
X154537765Y-65851012D01*
X154542457Y-65855005D01*
X154547834Y-65858010D01*
X154702019Y-65944183D01*
X154702025Y-65944186D01*
X154707397Y-65947188D01*
X154887101Y-66005577D01*
X155074724Y-66027950D01*
X155080859Y-66027478D01*
X155080861Y-66027478D01*
X155256978Y-66013926D01*
X155256982Y-66013925D01*
X155263120Y-66013453D01*
X155445111Y-65962640D01*
X155450615Y-65959860D01*
X155450617Y-65959859D01*
X155608264Y-65880226D01*
X155608266Y-65880225D01*
X155613767Y-65877446D01*
X155618621Y-65873654D01*
X155618630Y-65873648D01*
X155650129Y-65849038D01*
X155716123Y-65822860D01*
X155785794Y-65836518D01*
X155802516Y-65847767D01*
X155802705Y-65847495D01*
X155807765Y-65851012D01*
X155812457Y-65855005D01*
X155817834Y-65858010D01*
X155972019Y-65944183D01*
X155972025Y-65944186D01*
X155977397Y-65947188D01*
X156157101Y-66005577D01*
X156344724Y-66027950D01*
X156350859Y-66027478D01*
X156350861Y-66027478D01*
X156526978Y-66013926D01*
X156526982Y-66013925D01*
X156533120Y-66013453D01*
X156715111Y-65962640D01*
X156720615Y-65959860D01*
X156720617Y-65959859D01*
X156878266Y-65880225D01*
X156878268Y-65880224D01*
X156883767Y-65877446D01*
X156976109Y-65805301D01*
X159984823Y-65805301D01*
X159992348Y-65815734D01*
X160118517Y-65917358D01*
X160124701Y-65921752D01*
X160385067Y-66084131D01*
X160391738Y-66087753D01*
X160669732Y-66217679D01*
X160676785Y-66220472D01*
X160968393Y-66316066D01*
X160975705Y-66317984D01*
X161276689Y-66377853D01*
X161284187Y-66378881D01*
X161590183Y-66402158D01*
X161597746Y-66402276D01*
X161904314Y-66388623D01*
X161911855Y-66387831D01*
X162214558Y-66337447D01*
X162221946Y-66335755D01*
X162516401Y-66249371D01*
X162523525Y-66246806D01*
X162805482Y-66125668D01*
X162812249Y-66122264D01*
X163077603Y-65968134D01*
X163083910Y-65963944D01*
X163277908Y-65817491D01*
X163286364Y-65806100D01*
X163279646Y-65793856D01*
X161647812Y-64162022D01*
X161633868Y-64154408D01*
X161632035Y-64154539D01*
X161625420Y-64158790D01*
X159991938Y-65792272D01*
X159984823Y-65805301D01*
X156976109Y-65805301D01*
X157032663Y-65761116D01*
X157156129Y-65618080D01*
X157159172Y-65612723D01*
X157159175Y-65612719D01*
X157228758Y-65490229D01*
X157249460Y-65453787D01*
X157309103Y-65274495D01*
X157316931Y-65212533D01*
X157332343Y-65090535D01*
X157332344Y-65090528D01*
X157332785Y-65087033D01*
X157333162Y-65060000D01*
X157332370Y-65051917D01*
X157315325Y-64878083D01*
X157314724Y-64871950D01*
X157260110Y-64691062D01*
X157171403Y-64524227D01*
X157051979Y-64377800D01*
X156906389Y-64257357D01*
X156740178Y-64167487D01*
X156559676Y-64111612D01*
X156553554Y-64110969D01*
X156553551Y-64110968D01*
X156377888Y-64092506D01*
X156377886Y-64092506D01*
X156371759Y-64091862D01*
X156292634Y-64099063D01*
X156189724Y-64108428D01*
X156189721Y-64108429D01*
X156183585Y-64108987D01*
X156177679Y-64110725D01*
X156177675Y-64110726D01*
X156043909Y-64150096D01*
X156002320Y-64162336D01*
X155834870Y-64249877D01*
X155830072Y-64253735D01*
X155830070Y-64253736D01*
X155825567Y-64257357D01*
X155811099Y-64268990D01*
X155809718Y-64270100D01*
X155744095Y-64297197D01*
X155674241Y-64284514D01*
X155650451Y-64268990D01*
X155641137Y-64261285D01*
X155641133Y-64261282D01*
X155636389Y-64257357D01*
X155470178Y-64167487D01*
X155289676Y-64111612D01*
X155283554Y-64110969D01*
X155283551Y-64110968D01*
X155107888Y-64092506D01*
X155107886Y-64092506D01*
X155101759Y-64091862D01*
X155022634Y-64099063D01*
X154919724Y-64108428D01*
X154919721Y-64108429D01*
X154913585Y-64108987D01*
X154907679Y-64110725D01*
X154907675Y-64110726D01*
X154773909Y-64150096D01*
X154732320Y-64162336D01*
X154564870Y-64249877D01*
X154560072Y-64253735D01*
X154560070Y-64253736D01*
X154555567Y-64257357D01*
X154541099Y-64268990D01*
X154539718Y-64270100D01*
X154474095Y-64297197D01*
X154404241Y-64284514D01*
X154380451Y-64268990D01*
X154371137Y-64261285D01*
X154371133Y-64261282D01*
X154366389Y-64257357D01*
X154200178Y-64167487D01*
X154019676Y-64111612D01*
X154013554Y-64110969D01*
X154013551Y-64110968D01*
X153837888Y-64092506D01*
X153837886Y-64092506D01*
X153831759Y-64091862D01*
X153752634Y-64099063D01*
X153649724Y-64108428D01*
X153649721Y-64108429D01*
X153643585Y-64108987D01*
X153637679Y-64110725D01*
X153637675Y-64110726D01*
X153503909Y-64150096D01*
X153462320Y-64162336D01*
X153294870Y-64249877D01*
X153290072Y-64253735D01*
X153290070Y-64253736D01*
X153285567Y-64257357D01*
X153271099Y-64268990D01*
X153269718Y-64270100D01*
X153204095Y-64297197D01*
X153134241Y-64284514D01*
X153110451Y-64268990D01*
X153101137Y-64261285D01*
X153101133Y-64261282D01*
X153096389Y-64257357D01*
X152930178Y-64167487D01*
X152749676Y-64111612D01*
X152743554Y-64110969D01*
X152743551Y-64110968D01*
X152567888Y-64092506D01*
X152567886Y-64092506D01*
X152561759Y-64091862D01*
X152482634Y-64099063D01*
X152379724Y-64108428D01*
X152379721Y-64108429D01*
X152373585Y-64108987D01*
X152367679Y-64110725D01*
X152367675Y-64110726D01*
X152233909Y-64150096D01*
X152192320Y-64162336D01*
X152024870Y-64249877D01*
X152020072Y-64253735D01*
X152020070Y-64253736D01*
X152015567Y-64257357D01*
X152001099Y-64268990D01*
X151999718Y-64270100D01*
X151934095Y-64297197D01*
X151864241Y-64284514D01*
X151840451Y-64268990D01*
X151831137Y-64261285D01*
X151831133Y-64261282D01*
X151826389Y-64257357D01*
X151660178Y-64167487D01*
X151479676Y-64111612D01*
X151473554Y-64110969D01*
X151473551Y-64110968D01*
X151297888Y-64092506D01*
X151297886Y-64092506D01*
X151291759Y-64091862D01*
X151212634Y-64099063D01*
X151109724Y-64108428D01*
X151109721Y-64108429D01*
X151103585Y-64108987D01*
X151097679Y-64110725D01*
X151097675Y-64110726D01*
X150963909Y-64150096D01*
X150922320Y-64162336D01*
X150754870Y-64249877D01*
X150750072Y-64253735D01*
X150750070Y-64253736D01*
X150745567Y-64257357D01*
X150731099Y-64268990D01*
X150729718Y-64270100D01*
X150664095Y-64297197D01*
X150594241Y-64284514D01*
X150570451Y-64268990D01*
X150561137Y-64261285D01*
X150561133Y-64261282D01*
X150556389Y-64257357D01*
X150390178Y-64167487D01*
X150209676Y-64111612D01*
X150203554Y-64110969D01*
X150203551Y-64110968D01*
X150027888Y-64092506D01*
X150027886Y-64092506D01*
X150021759Y-64091862D01*
X149942634Y-64099063D01*
X149839724Y-64108428D01*
X149839721Y-64108429D01*
X149833585Y-64108987D01*
X149827679Y-64110725D01*
X149827675Y-64110726D01*
X149693909Y-64150096D01*
X149652320Y-64162336D01*
X149484870Y-64249877D01*
X149480072Y-64253735D01*
X149480070Y-64253736D01*
X149475567Y-64257357D01*
X149461099Y-64268990D01*
X149459718Y-64270100D01*
X149394095Y-64297197D01*
X149324241Y-64284514D01*
X149300451Y-64268990D01*
X149291137Y-64261285D01*
X149291133Y-64261282D01*
X149286389Y-64257357D01*
X149120178Y-64167487D01*
X148939676Y-64111612D01*
X148933554Y-64110969D01*
X148933551Y-64110968D01*
X148757888Y-64092506D01*
X148757886Y-64092506D01*
X148751759Y-64091862D01*
X148672634Y-64099063D01*
X148569724Y-64108428D01*
X148569721Y-64108429D01*
X148563585Y-64108987D01*
X148557679Y-64110725D01*
X148557675Y-64110726D01*
X148423909Y-64150096D01*
X148382320Y-64162336D01*
X148214870Y-64249877D01*
X148210072Y-64253735D01*
X148210070Y-64253736D01*
X148205567Y-64257357D01*
X148191099Y-64268990D01*
X148189718Y-64270100D01*
X148124095Y-64297197D01*
X148054241Y-64284514D01*
X148030451Y-64268990D01*
X148021137Y-64261285D01*
X148021133Y-64261282D01*
X148016389Y-64257357D01*
X147850178Y-64167487D01*
X147669676Y-64111612D01*
X147663554Y-64110969D01*
X147663551Y-64110968D01*
X147487888Y-64092506D01*
X147487886Y-64092506D01*
X147481759Y-64091862D01*
X147402634Y-64099063D01*
X147299724Y-64108428D01*
X147299721Y-64108429D01*
X147293585Y-64108987D01*
X147287679Y-64110725D01*
X147287675Y-64110726D01*
X147153909Y-64150096D01*
X147112320Y-64162336D01*
X146944870Y-64249877D01*
X146940072Y-64253735D01*
X146940070Y-64253736D01*
X146935567Y-64257357D01*
X146921099Y-64268990D01*
X146919718Y-64270100D01*
X146854095Y-64297197D01*
X146784241Y-64284514D01*
X146760451Y-64268990D01*
X146751137Y-64261285D01*
X146751133Y-64261282D01*
X146746389Y-64257357D01*
X146580178Y-64167487D01*
X146399676Y-64111612D01*
X146393554Y-64110969D01*
X146393551Y-64110968D01*
X146217888Y-64092506D01*
X146217886Y-64092506D01*
X146211759Y-64091862D01*
X146132634Y-64099063D01*
X146029724Y-64108428D01*
X146029721Y-64108429D01*
X146023585Y-64108987D01*
X146017679Y-64110725D01*
X146017675Y-64110726D01*
X145883909Y-64150096D01*
X145842320Y-64162336D01*
X145674870Y-64249877D01*
X145670072Y-64253735D01*
X145670070Y-64253736D01*
X145665567Y-64257357D01*
X145651099Y-64268990D01*
X145649718Y-64270100D01*
X145584095Y-64297197D01*
X145514241Y-64284514D01*
X145490451Y-64268990D01*
X145481137Y-64261285D01*
X145481133Y-64261282D01*
X145476389Y-64257357D01*
X145310178Y-64167487D01*
X145129676Y-64111612D01*
X145123554Y-64110969D01*
X145123551Y-64110968D01*
X144947888Y-64092506D01*
X144947886Y-64092506D01*
X144941759Y-64091862D01*
X144862634Y-64099063D01*
X144759724Y-64108428D01*
X144759721Y-64108429D01*
X144753585Y-64108987D01*
X144747679Y-64110725D01*
X144747675Y-64110726D01*
X144613909Y-64150096D01*
X144572320Y-64162336D01*
X144404870Y-64249877D01*
X144400072Y-64253735D01*
X144400070Y-64253736D01*
X144395567Y-64257357D01*
X144381099Y-64268990D01*
X144379718Y-64270100D01*
X144314095Y-64297197D01*
X144244241Y-64284514D01*
X144220451Y-64268990D01*
X144211137Y-64261285D01*
X144211133Y-64261282D01*
X144206389Y-64257357D01*
X144040178Y-64167487D01*
X143859676Y-64111612D01*
X143853554Y-64110969D01*
X143853551Y-64110968D01*
X143677888Y-64092506D01*
X143677886Y-64092506D01*
X143671759Y-64091862D01*
X143592634Y-64099063D01*
X143489724Y-64108428D01*
X143489721Y-64108429D01*
X143483585Y-64108987D01*
X143477679Y-64110725D01*
X143477675Y-64110726D01*
X143343909Y-64150096D01*
X143302320Y-64162336D01*
X143134870Y-64249877D01*
X143130072Y-64253735D01*
X143130070Y-64253736D01*
X143125567Y-64257357D01*
X143111099Y-64268990D01*
X143109718Y-64270100D01*
X143044095Y-64297197D01*
X142974241Y-64284514D01*
X142950451Y-64268990D01*
X142941137Y-64261285D01*
X142941133Y-64261282D01*
X142936389Y-64257357D01*
X142770178Y-64167487D01*
X142589676Y-64111612D01*
X142583554Y-64110969D01*
X142583551Y-64110968D01*
X142407888Y-64092506D01*
X142407886Y-64092506D01*
X142401759Y-64091862D01*
X142322634Y-64099063D01*
X142219724Y-64108428D01*
X142219721Y-64108429D01*
X142213585Y-64108987D01*
X142207679Y-64110725D01*
X142207675Y-64110726D01*
X142073909Y-64150096D01*
X142032320Y-64162336D01*
X141864870Y-64249877D01*
X141717613Y-64368275D01*
X141596156Y-64513020D01*
X141593193Y-64518409D01*
X141593190Y-64518414D01*
X141508095Y-64673203D01*
X141505128Y-64678600D01*
X141447995Y-64858708D01*
X141447309Y-64864827D01*
X141447308Y-64864830D01*
X141427619Y-65040357D01*
X141426932Y-65046482D01*
X139415549Y-65046482D01*
X139416209Y-65045282D01*
X139547595Y-64767960D01*
X139550420Y-64760933D01*
X139647542Y-64469821D01*
X139649496Y-64462530D01*
X139710941Y-64161859D01*
X139712009Y-64154355D01*
X139737012Y-63846953D01*
X139737217Y-63842478D01*
X139737744Y-63792221D01*
X139737634Y-63787789D01*
X139736346Y-63766432D01*
X159022565Y-63766432D01*
X159037823Y-64072920D01*
X159038654Y-64080449D01*
X159090621Y-64382883D01*
X159092354Y-64390270D01*
X159180278Y-64684266D01*
X159182881Y-64691379D01*
X159305491Y-64972690D01*
X159308933Y-64979446D01*
X159464449Y-65243988D01*
X159468672Y-65250273D01*
X159607810Y-65432588D01*
X159619336Y-65441050D01*
X159631401Y-65434389D01*
X161262978Y-63802812D01*
X161269356Y-63791132D01*
X161999408Y-63791132D01*
X161999539Y-63792965D01*
X162003790Y-63799580D01*
X163637202Y-65432992D01*
X163650325Y-65440158D01*
X163660627Y-65432768D01*
X163754388Y-65317601D01*
X163758810Y-65311447D01*
X163922562Y-65051917D01*
X163926209Y-65045282D01*
X164057595Y-64767960D01*
X164060420Y-64760933D01*
X164157542Y-64469821D01*
X164159496Y-64462530D01*
X164220941Y-64161859D01*
X164222009Y-64154355D01*
X164247012Y-63846953D01*
X164247217Y-63842478D01*
X164247744Y-63792221D01*
X164247634Y-63787789D01*
X164229072Y-63479888D01*
X164228164Y-63472386D01*
X164173031Y-63170510D01*
X164171218Y-63163130D01*
X164080225Y-62870084D01*
X164077543Y-62862987D01*
X163951993Y-62582971D01*
X163948492Y-62576274D01*
X163790199Y-62313349D01*
X163785925Y-62307130D01*
X163661739Y-62147895D01*
X163649949Y-62139427D01*
X163638235Y-62145975D01*
X162007022Y-63777188D01*
X161999408Y-63791132D01*
X161269356Y-63791132D01*
X161270592Y-63788868D01*
X161270461Y-63787035D01*
X161266210Y-63780420D01*
X159632607Y-62146817D01*
X159619672Y-62139754D01*
X159609110Y-62147414D01*
X159499730Y-62284677D01*
X159495374Y-62290875D01*
X159334350Y-62552106D01*
X159330770Y-62558782D01*
X159202296Y-62837465D01*
X159199546Y-62844516D01*
X159105480Y-63136622D01*
X159103597Y-63143955D01*
X159045305Y-63445246D01*
X159044318Y-63452746D01*
X159022644Y-63758851D01*
X159022565Y-63766432D01*
X139736346Y-63766432D01*
X139719072Y-63479888D01*
X139718164Y-63472386D01*
X139663031Y-63170510D01*
X139661218Y-63163130D01*
X139570225Y-62870084D01*
X139567543Y-62862987D01*
X139441993Y-62582971D01*
X139438492Y-62576274D01*
X139280199Y-62313349D01*
X139275925Y-62307130D01*
X139151739Y-62147895D01*
X139139949Y-62139427D01*
X139128235Y-62145975D01*
X137497022Y-63777188D01*
X137489408Y-63791132D01*
X136759356Y-63791132D01*
X136760592Y-63788868D01*
X136760461Y-63787035D01*
X136756210Y-63780420D01*
X135122607Y-62146817D01*
X135109672Y-62139754D01*
X135099110Y-62147414D01*
X134989730Y-62284677D01*
X134985374Y-62290875D01*
X134824350Y-62552106D01*
X134820770Y-62558782D01*
X134692296Y-62837465D01*
X134689546Y-62844516D01*
X134595480Y-63136622D01*
X134593597Y-63143955D01*
X134535305Y-63445246D01*
X134534318Y-63452746D01*
X134512644Y-63758851D01*
X134512565Y-63766432D01*
X130194863Y-63766432D01*
X130278096Y-63683489D01*
X130408453Y-63502077D01*
X130419420Y-63479888D01*
X130505136Y-63306453D01*
X130505137Y-63306451D01*
X130507430Y-63301811D01*
X130549565Y-63163130D01*
X130570865Y-63093023D01*
X130570865Y-63093021D01*
X130572370Y-63088069D01*
X130601529Y-62866590D01*
X130601617Y-62862987D01*
X130603074Y-62803365D01*
X130603074Y-62803361D01*
X130603156Y-62800000D01*
X130584852Y-62577361D01*
X130530431Y-62360702D01*
X130441354Y-62155840D01*
X130320014Y-61968277D01*
X130169670Y-61803051D01*
X130165619Y-61799852D01*
X130165615Y-61799848D01*
X130133796Y-61774719D01*
X135474213Y-61774719D01*
X135480817Y-61786607D01*
X137112188Y-63417978D01*
X137126132Y-63425592D01*
X137127965Y-63425461D01*
X137134580Y-63421210D01*
X138768355Y-61787435D01*
X138775299Y-61774719D01*
X159984213Y-61774719D01*
X159990817Y-61786607D01*
X161622188Y-63417978D01*
X161636132Y-63425592D01*
X161637965Y-63425461D01*
X161644580Y-63421210D01*
X163278355Y-61787435D01*
X163285367Y-61774594D01*
X163277572Y-61763905D01*
X163129123Y-61646878D01*
X163122900Y-61642553D01*
X162860824Y-61482895D01*
X162854148Y-61479360D01*
X162574784Y-61352342D01*
X162567714Y-61349628D01*
X162275131Y-61257096D01*
X162267780Y-61255249D01*
X161966191Y-61198535D01*
X161958681Y-61197587D01*
X161652464Y-61177517D01*
X161644899Y-61177477D01*
X161338478Y-61194340D01*
X161330967Y-61195209D01*
X161028793Y-61248763D01*
X161021432Y-61250530D01*
X160727898Y-61339993D01*
X160720791Y-61342635D01*
X160440122Y-61466718D01*
X160433396Y-61470189D01*
X160169662Y-61627094D01*
X160163411Y-61631342D01*
X159992679Y-61763061D01*
X159984213Y-61774719D01*
X138775299Y-61774719D01*
X138775367Y-61774594D01*
X138767572Y-61763905D01*
X138619123Y-61646878D01*
X138612900Y-61642553D01*
X138350824Y-61482895D01*
X138344148Y-61479360D01*
X138064784Y-61352342D01*
X138057714Y-61349628D01*
X137765131Y-61257096D01*
X137757780Y-61255249D01*
X137456191Y-61198535D01*
X137448681Y-61197587D01*
X137142464Y-61177517D01*
X137134899Y-61177477D01*
X136828478Y-61194340D01*
X136820967Y-61195209D01*
X136518793Y-61248763D01*
X136511432Y-61250530D01*
X136217898Y-61339993D01*
X136210791Y-61342635D01*
X135930122Y-61466718D01*
X135923396Y-61470189D01*
X135659662Y-61627094D01*
X135653411Y-61631342D01*
X135482679Y-61763061D01*
X135474213Y-61774719D01*
X130133796Y-61774719D01*
X129998414Y-61667800D01*
X129998410Y-61667798D01*
X129994359Y-61664598D01*
X129798789Y-61556638D01*
X129793920Y-61554914D01*
X129793916Y-61554912D01*
X129593087Y-61483795D01*
X129593083Y-61483794D01*
X129588212Y-61482069D01*
X129583119Y-61481162D01*
X129583116Y-61481161D01*
X129373373Y-61443800D01*
X129373367Y-61443799D01*
X129368284Y-61442894D01*
X129294452Y-61441992D01*
X129150081Y-61440228D01*
X129150079Y-61440228D01*
X129144911Y-61440165D01*
X128924091Y-61473955D01*
X128711756Y-61543357D01*
X128681443Y-61559137D01*
X128521203Y-61642553D01*
X128513607Y-61646507D01*
X128509474Y-61649610D01*
X128509471Y-61649612D01*
X128342844Y-61774719D01*
X128334965Y-61780635D01*
X128278537Y-61839684D01*
X128254283Y-61865064D01*
X128192759Y-61900494D01*
X128121846Y-61897037D01*
X128064060Y-61855791D01*
X128045207Y-61822243D01*
X128003767Y-61711703D01*
X128000615Y-61703295D01*
X127913261Y-61586739D01*
X127796705Y-61499385D01*
X127660316Y-61448255D01*
X127598134Y-61441500D01*
X125801866Y-61441500D01*
X125739684Y-61448255D01*
X125603295Y-61499385D01*
X125486739Y-61586739D01*
X125399385Y-61703295D01*
X125348255Y-61839684D01*
X125341500Y-61901866D01*
X125341500Y-63698134D01*
X122863400Y-63698134D01*
X122878096Y-63683489D01*
X123008453Y-63502077D01*
X123019420Y-63479888D01*
X123105136Y-63306453D01*
X123105137Y-63306451D01*
X123107430Y-63301811D01*
X123149565Y-63163130D01*
X123170865Y-63093023D01*
X123170865Y-63093021D01*
X123172370Y-63088069D01*
X123201529Y-62866590D01*
X123201617Y-62862987D01*
X123203074Y-62803365D01*
X123203074Y-62803361D01*
X123203156Y-62800000D01*
X123184852Y-62577361D01*
X123130431Y-62360702D01*
X123041354Y-62155840D01*
X122920014Y-61968277D01*
X122769670Y-61803051D01*
X122765619Y-61799852D01*
X122765615Y-61799848D01*
X122598414Y-61667800D01*
X122598410Y-61667798D01*
X122594359Y-61664598D01*
X122398789Y-61556638D01*
X122393920Y-61554914D01*
X122393916Y-61554912D01*
X122193087Y-61483795D01*
X122193083Y-61483794D01*
X122188212Y-61482069D01*
X122183119Y-61481162D01*
X122183116Y-61481161D01*
X121973373Y-61443800D01*
X121973367Y-61443799D01*
X121968284Y-61442894D01*
X121894452Y-61441992D01*
X121750081Y-61440228D01*
X121750079Y-61440228D01*
X121744911Y-61440165D01*
X121524091Y-61473955D01*
X121311756Y-61543357D01*
X121281443Y-61559137D01*
X121121203Y-61642553D01*
X121113607Y-61646507D01*
X121109474Y-61649610D01*
X121109471Y-61649612D01*
X120942844Y-61774719D01*
X120934965Y-61780635D01*
X120878537Y-61839684D01*
X120854283Y-61865064D01*
X120792759Y-61900494D01*
X120721846Y-61897037D01*
X120664060Y-61855791D01*
X120645207Y-61822243D01*
X120603767Y-61711703D01*
X120600615Y-61703295D01*
X120513261Y-61586739D01*
X120396705Y-61499385D01*
X120260316Y-61448255D01*
X120198134Y-61441500D01*
X118401866Y-61441500D01*
X118339684Y-61448255D01*
X118203295Y-61499385D01*
X118086739Y-61586739D01*
X117999385Y-61703295D01*
X117948255Y-61839684D01*
X117941500Y-61901866D01*
X117941500Y-63698134D01*
X117108500Y-63698134D01*
X117108500Y-59134500D01*
X117128502Y-59066379D01*
X117182158Y-59019886D01*
X117234500Y-59008500D01*
X164865500Y-59008500D01*
X164933621Y-59028502D01*
G37*
%TD.AperFunction*%
%TD*%
M02*
