%TF.GenerationSoftware,KiCad,Pcbnew,(6.0.5)*%
%TF.CreationDate,2022-07-15T13:09:05-06:00*%
%TF.ProjectId,25to25,3235746f-3235-42e6-9b69-6361645f7063,rev?*%
%TF.SameCoordinates,Original*%
%TF.FileFunction,Soldermask,Top*%
%TF.FilePolarity,Negative*%
%FSLAX46Y46*%
G04 Gerber Fmt 4.6, Leading zero omitted, Abs format (unit mm)*
G04 Created by KiCad (PCBNEW (6.0.5)) date 2022-07-15 13:09:05*
%MOMM*%
%LPD*%
G01*
G04 APERTURE LIST*
%ADD10R,1.700000X1.700000*%
%ADD11O,1.700000X1.700000*%
%ADD12C,4.200000*%
%ADD13C,0.910000*%
G04 APERTURE END LIST*
D10*
%TO.C,J2*%
X126700000Y-62800000D03*
D11*
X129240000Y-62800000D03*
%TD*%
D12*
%TO.C,J4*%
X137125000Y-83260000D03*
X161635000Y-83260000D03*
D13*
X157000000Y-79450000D03*
X155730000Y-79450000D03*
X154460000Y-79450000D03*
X153190000Y-79450000D03*
X151920000Y-79450000D03*
X150650000Y-79450000D03*
X149380000Y-79450000D03*
X148110000Y-79450000D03*
X146840000Y-79450000D03*
X145570000Y-79450000D03*
X144300000Y-79450000D03*
X143030000Y-79450000D03*
X141760000Y-79450000D03*
X156365000Y-81990000D03*
X155095000Y-81990000D03*
X153825000Y-81990000D03*
X152555000Y-81990000D03*
X151285000Y-81990000D03*
X150015000Y-81990000D03*
X148745000Y-81990000D03*
X147475000Y-81990000D03*
X146205000Y-81990000D03*
X144935000Y-81990000D03*
X143665000Y-81990000D03*
X142395000Y-81990000D03*
%TD*%
D12*
%TO.C,J3*%
X137125000Y-63790000D03*
X161635000Y-63790000D03*
D13*
X157000000Y-67600000D03*
X155730000Y-67600000D03*
X154460000Y-67600000D03*
X153190000Y-67600000D03*
X151920000Y-67600000D03*
X150650000Y-67600000D03*
X149380000Y-67600000D03*
X148110000Y-67600000D03*
X146840000Y-67600000D03*
X145570000Y-67600000D03*
X144300000Y-67600000D03*
X143030000Y-67600000D03*
X141760000Y-67600000D03*
X156365000Y-65060000D03*
X155095000Y-65060000D03*
X153825000Y-65060000D03*
X152555000Y-65060000D03*
X151285000Y-65060000D03*
X150015000Y-65060000D03*
X148745000Y-65060000D03*
X147475000Y-65060000D03*
X146205000Y-65060000D03*
X144935000Y-65060000D03*
X143665000Y-65060000D03*
X142395000Y-65060000D03*
%TD*%
D10*
%TO.C,J1*%
X119300000Y-62800000D03*
D11*
X121840000Y-62800000D03*
%TD*%
M02*
