M48
; DRILL file {KiCad (6.0.5)} date Fri Jul 15 13:09:07 2022
; FORMAT={-:-/ absolute / inch / decimal}
; #@! TF.CreationDate,2022-07-15T13:09:07-06:00
; #@! TF.GenerationSoftware,Kicad,Pcbnew,(6.0.5)
; #@! TF.FileFunction,Plated,1,2,PTH
FMAT,2
INCH
; #@! TA.AperFunction,Plated,PTH,ComponentDrill
T1C0.0276
; #@! TA.AperFunction,Plated,PTH,ComponentDrill
T2C0.0280
; #@! TA.AperFunction,Plated,PTH,ComponentDrill
T3C0.0394
; #@! TA.AperFunction,Plated,PTH,ComponentDrill
T4C0.1102
%
G90
G05
T1
X5.5811Y-2.6614
X5.6061Y-2.5614
X5.6311Y-2.6614
X5.6561Y-2.5614
X5.6811Y-2.6614
X5.7061Y-2.5614
X5.7311Y-2.6614
X5.7561Y-2.5614
X5.7811Y-2.6614
X5.8061Y-2.5614
X5.8311Y-2.6614
X5.8561Y-2.5614
X5.8811Y-2.6614
X5.9061Y-2.5614
X5.9311Y-2.6614
X5.9561Y-2.5614
X5.9811Y-2.6614
X6.0061Y-2.5614
X6.0311Y-2.6614
X6.0561Y-2.5614
X6.0811Y-2.6614
X6.1061Y-2.5614
X6.1311Y-2.6614
X6.1561Y-2.5614
X6.1811Y-2.6614
T2
X5.5811Y-3.128
X5.6061Y-3.228
X5.6311Y-3.128
X5.6561Y-3.228
X5.6811Y-3.128
X5.7061Y-3.228
X5.7311Y-3.128
X5.7561Y-3.228
X5.7811Y-3.128
X5.8061Y-3.228
X5.8311Y-3.128
X5.8561Y-3.228
X5.8811Y-3.128
X5.9061Y-3.228
X5.9311Y-3.128
X5.9561Y-3.228
X5.9811Y-3.128
X6.0061Y-3.228
X6.0311Y-3.128
X6.0561Y-3.228
X6.0811Y-3.128
X6.1061Y-3.228
X6.1311Y-3.128
X6.1561Y-3.228
X6.1811Y-3.128
T3
X4.6969Y-2.4724
X4.7969Y-2.4724
X4.9882Y-2.4724
X5.0882Y-2.4724
T4
X5.3986Y-2.5114
X5.3986Y-3.278
X6.3636Y-2.5114
X6.3636Y-3.278
T0
M30
