%TF.GenerationSoftware,KiCad,Pcbnew,(5.1.10)-1*%
%TF.CreationDate,2022-04-08T13:19:25-06:00*%
%TF.ProjectId,VacuumFeedThruHDMI,56616375-756d-4466-9565-645468727548,rev?*%
%TF.SameCoordinates,Original*%
%TF.FileFunction,Legend,Bot*%
%TF.FilePolarity,Positive*%
%FSLAX46Y46*%
G04 Gerber Fmt 4.6, Leading zero omitted, Abs format (unit mm)*
G04 Created by KiCad (PCBNEW (5.1.10)-1) date 2022-04-08 13:19:25*
%MOMM*%
%LPD*%
G01*
G04 APERTURE LIST*
%ADD10C,0.300000*%
%ADD11C,0.150000*%
G04 APERTURE END LIST*
D10*
X-53946428Y41142857D02*
X-52446428Y40642857D01*
X-53946428Y40142857D01*
X-52446428Y39000000D02*
X-53232142Y39000000D01*
X-53375000Y39071428D01*
X-53446428Y39214285D01*
X-53446428Y39500000D01*
X-53375000Y39642857D01*
X-52517857Y39000000D02*
X-52446428Y39142857D01*
X-52446428Y39500000D01*
X-52517857Y39642857D01*
X-52660714Y39714285D01*
X-52803571Y39714285D01*
X-52946428Y39642857D01*
X-53017857Y39500000D01*
X-53017857Y39142857D01*
X-53089285Y39000000D01*
X-52517857Y37642857D02*
X-52446428Y37785714D01*
X-52446428Y38071428D01*
X-52517857Y38214285D01*
X-52589285Y38285714D01*
X-52732142Y38357142D01*
X-53160714Y38357142D01*
X-53303571Y38285714D01*
X-53375000Y38214285D01*
X-53446428Y38071428D01*
X-53446428Y37785714D01*
X-53375000Y37642857D01*
X-53446428Y36357142D02*
X-52446428Y36357142D01*
X-53446428Y37000000D02*
X-52660714Y37000000D01*
X-52517857Y36928571D01*
X-52446428Y36785714D01*
X-52446428Y36571428D01*
X-52517857Y36428571D01*
X-52589285Y36357142D01*
X-53446428Y35000000D02*
X-52446428Y35000000D01*
X-53446428Y35642857D02*
X-52660714Y35642857D01*
X-52517857Y35571428D01*
X-52446428Y35428571D01*
X-52446428Y35214285D01*
X-52517857Y35071428D01*
X-52589285Y35000000D01*
X-52446428Y34285714D02*
X-53446428Y34285714D01*
X-53303571Y34285714D02*
X-53375000Y34214285D01*
X-53446428Y34071428D01*
X-53446428Y33857142D01*
X-53375000Y33714285D01*
X-53232142Y33642857D01*
X-52446428Y33642857D01*
X-53232142Y33642857D02*
X-53375000Y33571428D01*
X-53446428Y33428571D01*
X-53446428Y33214285D01*
X-53375000Y33071428D01*
X-53232142Y33000000D01*
X-52446428Y33000000D01*
X-53232142Y31785714D02*
X-53232142Y32285714D01*
X-52446428Y32285714D02*
X-53946428Y32285714D01*
X-53946428Y31571428D01*
X-53946428Y31214285D02*
X-53946428Y30357142D01*
X-52446428Y30785714D02*
X-53946428Y30785714D01*
X-52303571Y30214285D02*
X-52303571Y29071428D01*
X-52446428Y28714285D02*
X-53946428Y28714285D01*
X-53232142Y28714285D02*
X-53232142Y27857142D01*
X-52446428Y27857142D02*
X-53946428Y27857142D01*
X-52446428Y27142857D02*
X-53946428Y27142857D01*
X-53946428Y26785714D01*
X-53875000Y26571428D01*
X-53732142Y26428571D01*
X-53589285Y26357142D01*
X-53303571Y26285714D01*
X-53089285Y26285714D01*
X-52803571Y26357142D01*
X-52660714Y26428571D01*
X-52517857Y26571428D01*
X-52446428Y26785714D01*
X-52446428Y27142857D01*
X-52446428Y25642857D02*
X-53946428Y25642857D01*
X-52875000Y25142857D01*
X-53946428Y24642857D01*
X-52446428Y24642857D01*
X-52446428Y23928571D02*
X-53946428Y23928571D01*
X-52303571Y23571428D02*
X-52303571Y22428571D01*
X-53946428Y22285714D02*
X-52446428Y21785714D01*
X-53946428Y21285714D01*
X-52446428Y20000000D02*
X-52446428Y20857142D01*
X-52446428Y20428571D02*
X-53946428Y20428571D01*
X-53732142Y20571428D01*
X-53589285Y20714285D01*
X-53517857Y20857142D01*
X-50325000Y37357142D02*
X-50325000Y36642857D01*
X-49896428Y37500000D02*
X-51396428Y37000000D01*
X-49896428Y36500000D01*
X-50896428Y35357142D02*
X-49896428Y35357142D01*
X-50896428Y36000000D02*
X-50110714Y36000000D01*
X-49967857Y35928571D01*
X-49896428Y35785714D01*
X-49896428Y35571428D01*
X-49967857Y35428571D01*
X-50039285Y35357142D01*
X-50896428Y34000000D02*
X-49682142Y34000000D01*
X-49539285Y34071428D01*
X-49467857Y34142857D01*
X-49396428Y34285714D01*
X-49396428Y34500000D01*
X-49467857Y34642857D01*
X-49967857Y34000000D02*
X-49896428Y34142857D01*
X-49896428Y34428571D01*
X-49967857Y34571428D01*
X-50039285Y34642857D01*
X-50182142Y34714285D01*
X-50610714Y34714285D01*
X-50753571Y34642857D01*
X-50825000Y34571428D01*
X-50896428Y34428571D01*
X-50896428Y34142857D01*
X-50825000Y34000000D01*
X-50896428Y32642857D02*
X-49896428Y32642857D01*
X-50896428Y33285714D02*
X-50110714Y33285714D01*
X-49967857Y33214285D01*
X-49896428Y33071428D01*
X-49896428Y32857142D01*
X-49967857Y32714285D01*
X-50039285Y32642857D01*
X-49967857Y32000000D02*
X-49896428Y31857142D01*
X-49896428Y31571428D01*
X-49967857Y31428571D01*
X-50110714Y31357142D01*
X-50182142Y31357142D01*
X-50325000Y31428571D01*
X-50396428Y31571428D01*
X-50396428Y31785714D01*
X-50467857Y31928571D01*
X-50610714Y32000000D01*
X-50682142Y32000000D01*
X-50825000Y31928571D01*
X-50896428Y31785714D01*
X-50896428Y31571428D01*
X-50825000Y31428571D01*
X-50896428Y30928571D02*
X-50896428Y30357142D01*
X-51396428Y30714285D02*
X-50110714Y30714285D01*
X-49967857Y30642857D01*
X-49896428Y30500000D01*
X-49896428Y30357142D01*
X-51253571Y28785714D02*
X-51325000Y28714285D01*
X-51396428Y28571428D01*
X-51396428Y28214285D01*
X-51325000Y28071428D01*
X-51253571Y28000000D01*
X-51110714Y27928571D01*
X-50967857Y27928571D01*
X-50753571Y28000000D01*
X-49896428Y28857142D01*
X-49896428Y27928571D01*
X-51396428Y27000000D02*
X-51396428Y26857142D01*
X-51325000Y26714285D01*
X-51253571Y26642857D01*
X-51110714Y26571428D01*
X-50825000Y26500000D01*
X-50467857Y26500000D01*
X-50182142Y26571428D01*
X-50039285Y26642857D01*
X-49967857Y26714285D01*
X-49896428Y26857142D01*
X-49896428Y27000000D01*
X-49967857Y27142857D01*
X-50039285Y27214285D01*
X-50182142Y27285714D01*
X-50467857Y27357142D01*
X-50825000Y27357142D01*
X-51110714Y27285714D01*
X-51253571Y27214285D01*
X-51325000Y27142857D01*
X-51396428Y27000000D01*
X-51253571Y25928571D02*
X-51325000Y25857142D01*
X-51396428Y25714285D01*
X-51396428Y25357142D01*
X-51325000Y25214285D01*
X-51253571Y25142857D01*
X-51110714Y25071428D01*
X-50967857Y25071428D01*
X-50753571Y25142857D01*
X-49896428Y26000000D01*
X-49896428Y25071428D01*
X-49896428Y23642857D02*
X-49896428Y24500000D01*
X-49896428Y24071428D02*
X-51396428Y24071428D01*
X-51182142Y24214285D01*
X-51039285Y24357142D01*
X-50967857Y24500000D01*
X-47346428Y39357142D02*
X-48060714Y39857142D01*
X-47346428Y40214285D02*
X-48846428Y40214285D01*
X-48846428Y39642857D01*
X-48775000Y39500000D01*
X-48703571Y39428571D01*
X-48560714Y39357142D01*
X-48346428Y39357142D01*
X-48203571Y39428571D01*
X-48132142Y39500000D01*
X-48060714Y39642857D01*
X-48060714Y40214285D01*
X-48346428Y38857142D02*
X-47346428Y38500000D01*
X-48346428Y38142857D02*
X-47346428Y38500000D01*
X-46989285Y38642857D01*
X-46917857Y38714285D01*
X-46846428Y38857142D01*
X-47346428Y36928571D02*
X-48132142Y36928571D01*
X-48275000Y37000000D01*
X-48346428Y37142857D01*
X-48346428Y37428571D01*
X-48275000Y37571428D01*
X-47417857Y36928571D02*
X-47346428Y37071428D01*
X-47346428Y37428571D01*
X-47417857Y37571428D01*
X-47560714Y37642857D01*
X-47703571Y37642857D01*
X-47846428Y37571428D01*
X-47917857Y37428571D01*
X-47917857Y37071428D01*
X-47989285Y36928571D01*
X-48346428Y36214285D02*
X-47346428Y36214285D01*
X-48203571Y36214285D02*
X-48275000Y36142857D01*
X-48346428Y36000000D01*
X-48346428Y35785714D01*
X-48275000Y35642857D01*
X-48132142Y35571428D01*
X-47346428Y35571428D01*
X-47346428Y33714285D02*
X-48846428Y33714285D01*
X-47775000Y33214285D01*
X-48846428Y32714285D01*
X-47346428Y32714285D01*
X-47346428Y31785714D02*
X-47417857Y31928571D01*
X-47489285Y32000000D01*
X-47632142Y32071428D01*
X-48060714Y32071428D01*
X-48203571Y32000000D01*
X-48275000Y31928571D01*
X-48346428Y31785714D01*
X-48346428Y31571428D01*
X-48275000Y31428571D01*
X-48203571Y31357142D01*
X-48060714Y31285714D01*
X-47632142Y31285714D01*
X-47489285Y31357142D01*
X-47417857Y31428571D01*
X-47346428Y31571428D01*
X-47346428Y31785714D01*
X-47346428Y30642857D02*
X-48346428Y30642857D01*
X-48060714Y30642857D02*
X-48203571Y30571428D01*
X-48275000Y30500000D01*
X-48346428Y30357142D01*
X-48346428Y30214285D01*
X-48346428Y29071428D02*
X-47132142Y29071428D01*
X-46989285Y29142857D01*
X-46917857Y29214285D01*
X-46846428Y29357142D01*
X-46846428Y29571428D01*
X-46917857Y29714285D01*
X-47417857Y29071428D02*
X-47346428Y29214285D01*
X-47346428Y29500000D01*
X-47417857Y29642857D01*
X-47489285Y29714285D01*
X-47632142Y29785714D01*
X-48060714Y29785714D01*
X-48203571Y29714285D01*
X-48275000Y29642857D01*
X-48346428Y29500000D01*
X-48346428Y29214285D01*
X-48275000Y29071428D01*
X-47417857Y27785714D02*
X-47346428Y27928571D01*
X-47346428Y28214285D01*
X-47417857Y28357142D01*
X-47560714Y28428571D01*
X-48132142Y28428571D01*
X-48275000Y28357142D01*
X-48346428Y28214285D01*
X-48346428Y27928571D01*
X-48275000Y27785714D01*
X-48132142Y27714285D01*
X-47989285Y27714285D01*
X-47846428Y28428571D01*
X-48346428Y27071428D02*
X-47346428Y27071428D01*
X-48203571Y27071428D02*
X-48275000Y27000000D01*
X-48346428Y26857142D01*
X-48346428Y26642857D01*
X-48275000Y26500000D01*
X-48132142Y26428571D01*
X-47346428Y26428571D01*
X-47417857Y25785714D02*
X-47346428Y25642857D01*
X-47346428Y25357142D01*
X-47417857Y25214285D01*
X-47560714Y25142857D01*
X-47632142Y25142857D01*
X-47775000Y25214285D01*
X-47846428Y25357142D01*
X-47846428Y25571428D01*
X-47917857Y25714285D01*
X-48060714Y25785714D01*
X-48132142Y25785714D01*
X-48275000Y25714285D01*
X-48346428Y25571428D01*
X-48346428Y25357142D01*
X-48275000Y25214285D01*
X-48346428Y24714285D02*
X-48346428Y24142857D01*
X-48846428Y24500000D02*
X-47560714Y24500000D01*
X-47417857Y24428571D01*
X-47346428Y24285714D01*
X-47346428Y24142857D01*
X-47417857Y23071428D02*
X-47346428Y23214285D01*
X-47346428Y23500000D01*
X-47417857Y23642857D01*
X-47560714Y23714285D01*
X-48132142Y23714285D01*
X-48275000Y23642857D01*
X-48346428Y23500000D01*
X-48346428Y23214285D01*
X-48275000Y23071428D01*
X-48132142Y23000000D01*
X-47989285Y23000000D01*
X-47846428Y23714285D01*
X-47346428Y22357142D02*
X-48346428Y22357142D01*
X-48060714Y22357142D02*
X-48203571Y22285714D01*
X-48275000Y22214285D01*
X-48346428Y22071428D01*
X-48346428Y21928571D01*
X-48346428Y21428571D02*
X-47346428Y21428571D01*
X-48203571Y21428571D02*
X-48275000Y21357142D01*
X-48346428Y21214285D01*
X-48346428Y21000000D01*
X-48275000Y20857142D01*
X-48132142Y20785714D01*
X-47346428Y20785714D01*
X-46296428Y37642857D02*
X-44796428Y37142857D01*
X-46296428Y36642857D01*
X-44796428Y35500000D02*
X-45582142Y35500000D01*
X-45725000Y35571428D01*
X-45796428Y35714285D01*
X-45796428Y36000000D01*
X-45725000Y36142857D01*
X-44867857Y35500000D02*
X-44796428Y35642857D01*
X-44796428Y36000000D01*
X-44867857Y36142857D01*
X-45010714Y36214285D01*
X-45153571Y36214285D01*
X-45296428Y36142857D01*
X-45367857Y36000000D01*
X-45367857Y35642857D01*
X-45439285Y35500000D01*
X-44867857Y34142857D02*
X-44796428Y34285714D01*
X-44796428Y34571428D01*
X-44867857Y34714285D01*
X-44939285Y34785714D01*
X-45082142Y34857142D01*
X-45510714Y34857142D01*
X-45653571Y34785714D01*
X-45725000Y34714285D01*
X-45796428Y34571428D01*
X-45796428Y34285714D01*
X-45725000Y34142857D01*
X-45796428Y32857142D02*
X-44796428Y32857142D01*
X-45796428Y33500000D02*
X-45010714Y33500000D01*
X-44867857Y33428571D01*
X-44796428Y33285714D01*
X-44796428Y33071428D01*
X-44867857Y32928571D01*
X-44939285Y32857142D01*
X-45796428Y31500000D02*
X-44796428Y31500000D01*
X-45796428Y32142857D02*
X-45010714Y32142857D01*
X-44867857Y32071428D01*
X-44796428Y31928571D01*
X-44796428Y31714285D01*
X-44867857Y31571428D01*
X-44939285Y31500000D01*
X-44796428Y30785714D02*
X-45796428Y30785714D01*
X-45653571Y30785714D02*
X-45725000Y30714285D01*
X-45796428Y30571428D01*
X-45796428Y30357142D01*
X-45725000Y30214285D01*
X-45582142Y30142857D01*
X-44796428Y30142857D01*
X-45582142Y30142857D02*
X-45725000Y30071428D01*
X-45796428Y29928571D01*
X-45796428Y29714285D01*
X-45725000Y29571428D01*
X-45582142Y29500000D01*
X-44796428Y29500000D01*
X-44867857Y27714285D02*
X-44796428Y27500000D01*
X-44796428Y27142857D01*
X-44867857Y27000000D01*
X-44939285Y26928571D01*
X-45082142Y26857142D01*
X-45225000Y26857142D01*
X-45367857Y26928571D01*
X-45439285Y27000000D01*
X-45510714Y27142857D01*
X-45582142Y27428571D01*
X-45653571Y27571428D01*
X-45725000Y27642857D01*
X-45867857Y27714285D01*
X-46010714Y27714285D01*
X-46153571Y27642857D01*
X-46225000Y27571428D01*
X-46296428Y27428571D01*
X-46296428Y27071428D01*
X-46225000Y26857142D01*
X-44796428Y26214285D02*
X-45796428Y26214285D01*
X-46296428Y26214285D02*
X-46225000Y26285714D01*
X-46153571Y26214285D01*
X-46225000Y26142857D01*
X-46296428Y26214285D01*
X-46153571Y26214285D01*
X-44796428Y24857142D02*
X-46296428Y24857142D01*
X-44867857Y24857142D02*
X-44796428Y25000000D01*
X-44796428Y25285714D01*
X-44867857Y25428571D01*
X-44939285Y25500000D01*
X-45082142Y25571428D01*
X-45510714Y25571428D01*
X-45653571Y25500000D01*
X-45725000Y25428571D01*
X-45796428Y25285714D01*
X-45796428Y25000000D01*
X-45725000Y24857142D01*
X-44867857Y23571428D02*
X-44796428Y23714285D01*
X-44796428Y24000000D01*
X-44867857Y24142857D01*
X-45010714Y24214285D01*
X-45582142Y24214285D01*
X-45725000Y24142857D01*
X-45796428Y24000000D01*
X-45796428Y23714285D01*
X-45725000Y23571428D01*
X-45582142Y23500000D01*
X-45439285Y23500000D01*
X-45296428Y24214285D01*
D11*
%TO.C,M3*%
X9080000Y-12960000D02*
X-8080000Y-12960000D01*
X9080000Y-9940000D02*
X9080000Y-12960000D01*
X-9080000Y-9940000D02*
X9080000Y-9940000D01*
X-9080000Y-11960000D02*
X-9080000Y-9940000D01*
X-8080000Y-12960000D02*
X-9080000Y-11960000D01*
%TO.C,M2*%
X9080000Y-960000D02*
X-8080000Y-960000D01*
X9080000Y2060000D02*
X9080000Y-960000D01*
X-9080000Y2060000D02*
X9080000Y2060000D01*
X-9080000Y40000D02*
X-9080000Y2060000D01*
X-8080000Y-960000D02*
X-9080000Y40000D01*
%TO.C,M1*%
X9080000Y11040000D02*
X-8080000Y11040000D01*
X9080000Y14060000D02*
X9080000Y11040000D01*
X-9080000Y14060000D02*
X9080000Y14060000D01*
X-9080000Y12040000D02*
X-9080000Y14060000D01*
X-8080000Y11040000D02*
X-9080000Y12040000D01*
%TO.C,M3*%
X971428Y-9282857D02*
X971428Y-8082857D01*
X571428Y-8940000D01*
X171428Y-8082857D01*
X171428Y-9282857D01*
X-285714Y-8082857D02*
X-1028571Y-8082857D01*
X-628571Y-8540000D01*
X-800000Y-8540000D01*
X-914285Y-8597142D01*
X-971428Y-8654285D01*
X-1028571Y-8768571D01*
X-1028571Y-9054285D01*
X-971428Y-9168571D01*
X-914285Y-9225714D01*
X-800000Y-9282857D01*
X-457142Y-9282857D01*
X-342857Y-9225714D01*
X-285714Y-9168571D01*
X-7905714Y-14442380D02*
X-7334285Y-14442380D01*
X-7619999Y-14442380D02*
X-7619999Y-13442380D01*
X-7524761Y-13585238D01*
X-7429523Y-13680476D01*
X-7334285Y-13728095D01*
%TO.C,M2*%
X971428Y2717142D02*
X971428Y3917142D01*
X571428Y3060000D01*
X171428Y3917142D01*
X171428Y2717142D01*
X-342857Y3802857D02*
X-400000Y3860000D01*
X-514285Y3917142D01*
X-800000Y3917142D01*
X-914285Y3860000D01*
X-971428Y3802857D01*
X-1028571Y3688571D01*
X-1028571Y3574285D01*
X-971428Y3402857D01*
X-285714Y2717142D01*
X-1028571Y2717142D01*
X-7905714Y-2442380D02*
X-7334285Y-2442380D01*
X-7619999Y-2442380D02*
X-7619999Y-1442380D01*
X-7524761Y-1585238D01*
X-7429523Y-1680476D01*
X-7334285Y-1728095D01*
%TO.C,M1*%
X971428Y14717142D02*
X971428Y15917142D01*
X571428Y15060000D01*
X171428Y15917142D01*
X171428Y14717142D01*
X-1028571Y14717142D02*
X-342857Y14717142D01*
X-685714Y14717142D02*
X-685714Y15917142D01*
X-571428Y15745714D01*
X-457142Y15631428D01*
X-342857Y15574285D01*
X-7905714Y9557619D02*
X-7334285Y9557619D01*
X-7619999Y9557619D02*
X-7619999Y10557619D01*
X-7524761Y10414761D01*
X-7429523Y10319523D01*
X-7334285Y10271904D01*
%TD*%
M02*
