%TF.GenerationSoftware,KiCad,Pcbnew,(5.1.10)-1*%
%TF.CreationDate,2022-04-08T13:19:25-06:00*%
%TF.ProjectId,VacuumFeedThruHDMI,56616375-756d-4466-9565-645468727548,rev?*%
%TF.SameCoordinates,Original*%
%TF.FileFunction,Copper,L1,Top*%
%TF.FilePolarity,Positive*%
%FSLAX46Y46*%
G04 Gerber Fmt 4.6, Leading zero omitted, Abs format (unit mm)*
G04 Created by KiCad (PCBNEW (5.1.10)-1) date 2022-04-08 13:19:25*
%MOMM*%
%LPD*%
G01*
G04 APERTURE LIST*
%TA.AperFunction,ComponentPad*%
%ADD10O,4.500000X1.500000*%
%TD*%
%TA.AperFunction,ComponentPad*%
%ADD11C,0.800000*%
%TD*%
%TA.AperFunction,ComponentPad*%
%ADD12O,0.920000X0.920000*%
%TD*%
%TA.AperFunction,ComponentPad*%
%ADD13C,10.000000*%
%TD*%
%TA.AperFunction,Conductor*%
%ADD14C,0.500000*%
%TD*%
%TA.AperFunction,Conductor*%
%ADD15C,0.090000*%
%TD*%
%TA.AperFunction,Conductor*%
%ADD16C,0.254000*%
%TD*%
%TA.AperFunction,Conductor*%
%ADD17C,0.100000*%
%TD*%
G04 APERTURE END LIST*
D10*
%TO.P,J2,0*%
%TO.N,N/C*%
X30000000Y67550000D03*
X30000000Y54050000D03*
D11*
%TO.P,J2,19*%
%TO.N,Net-(J2-Pad19)*%
X29100000Y65300000D03*
%TO.P,J2,18*%
%TO.N,Net-(J2-Pad18)*%
X30900000Y64800000D03*
%TO.P,J2,17*%
%TO.N,GND*%
X29100000Y64300000D03*
%TO.P,J2,16*%
%TO.N,Net-(J2-Pad16)*%
X30900000Y63800000D03*
%TO.P,J2,15*%
%TO.N,Net-(J2-Pad15)*%
X29100000Y63300000D03*
%TO.P,J2,14*%
%TO.N,Net-(J2-Pad14)*%
X30900000Y62800000D03*
%TO.P,J2,13*%
%TO.N,Net-(J2-Pad13)*%
X29100000Y62300000D03*
%TO.P,J2,12*%
%TO.N,Net-(J2-Pad12)*%
X30900000Y61800000D03*
%TO.P,J2,11*%
%TO.N,GND*%
X29100000Y61300000D03*
%TO.P,J2,10*%
%TO.N,Net-(J2-Pad10)*%
X30900000Y60800000D03*
%TO.P,J2,9*%
%TO.N,Net-(J2-Pad9)*%
X29100000Y60300000D03*
%TO.P,J2,8*%
%TO.N,GND*%
X30900000Y59800000D03*
%TO.P,J2,7*%
%TO.N,Net-(J2-Pad7)*%
X29100000Y59300000D03*
%TO.P,J2,6*%
%TO.N,Net-(J2-Pad6)*%
X30900000Y58800000D03*
%TO.P,J2,5*%
%TO.N,GND*%
X29100000Y58300000D03*
%TO.P,J2,4*%
%TO.N,Net-(J2-Pad4)*%
X30900000Y57800000D03*
%TO.P,J2,3*%
%TO.N,Net-(J2-Pad3)*%
X29100000Y57300000D03*
%TO.P,J2,2*%
%TO.N,GND*%
X30900000Y56800000D03*
%TO.P,J2,1*%
%TO.N,Net-(J2-Pad1)*%
X29100000Y56300000D03*
%TD*%
D10*
%TO.P,J3,0*%
%TO.N,N/C*%
X49000000Y67550000D03*
X49000000Y54050000D03*
D11*
%TO.P,J3,19*%
%TO.N,Net-(J3-Pad19)*%
X48100000Y65300000D03*
%TO.P,J3,18*%
%TO.N,Net-(J3-Pad18)*%
X49900000Y64800000D03*
%TO.P,J3,17*%
%TO.N,GND*%
X48100000Y64300000D03*
%TO.P,J3,16*%
%TO.N,Net-(J3-Pad16)*%
X49900000Y63800000D03*
%TO.P,J3,15*%
%TO.N,Net-(J3-Pad15)*%
X48100000Y63300000D03*
%TO.P,J3,14*%
%TO.N,Net-(J3-Pad14)*%
X49900000Y62800000D03*
%TO.P,J3,13*%
%TO.N,Net-(J3-Pad13)*%
X48100000Y62300000D03*
%TO.P,J3,12*%
%TO.N,Net-(J3-Pad12)*%
X49900000Y61800000D03*
%TO.P,J3,11*%
%TO.N,GND*%
X48100000Y61300000D03*
%TO.P,J3,10*%
%TO.N,Net-(J3-Pad10)*%
X49900000Y60800000D03*
%TO.P,J3,9*%
%TO.N,Net-(J3-Pad9)*%
X48100000Y60300000D03*
%TO.P,J3,8*%
%TO.N,GND*%
X49900000Y59800000D03*
%TO.P,J3,7*%
%TO.N,Net-(J3-Pad7)*%
X48100000Y59300000D03*
%TO.P,J3,6*%
%TO.N,Net-(J3-Pad6)*%
X49900000Y58800000D03*
%TO.P,J3,5*%
%TO.N,GND*%
X48100000Y58300000D03*
%TO.P,J3,4*%
%TO.N,Net-(J3-Pad4)*%
X49900000Y57800000D03*
%TO.P,J3,3*%
%TO.N,Net-(J3-Pad3)*%
X48100000Y57300000D03*
%TO.P,J3,2*%
%TO.N,GND*%
X49900000Y56800000D03*
%TO.P,J3,1*%
%TO.N,Net-(J3-Pad1)*%
X48100000Y56300000D03*
%TD*%
D12*
%TO.P,M3,13*%
%TO.N,Net-(M3-Pad13)*%
X7620000Y-12000000D03*
%TO.P,M3,25*%
%TO.N,Net-(J9-Pad12)*%
X6985000Y-10900000D03*
%TO.P,M3,12*%
%TO.N,Net-(J9-Pad10)*%
X6350000Y-12000000D03*
%TO.P,M3,24*%
%TO.N,Net-(J9-Pad9)*%
X5715000Y-10900000D03*
%TO.P,M3,11*%
%TO.N,Net-(J9-Pad7)*%
X5080000Y-12000000D03*
%TO.P,M3,23*%
%TO.N,Net-(J9-Pad6)*%
X4445000Y-10900000D03*
%TO.P,M3,10*%
%TO.N,Net-(J9-Pad4)*%
X3810000Y-12000000D03*
%TO.P,M3,22*%
%TO.N,Net-(J9-Pad3)*%
X3175000Y-10900000D03*
%TO.P,M3,9*%
%TO.N,Net-(J9-Pad1)*%
X2540000Y-12000000D03*
%TO.P,M3,21*%
%TO.N,Net-(J8-Pad12)*%
X1905000Y-10900000D03*
%TO.P,M3,8*%
%TO.N,Net-(J8-Pad10)*%
X1270000Y-12000000D03*
%TO.P,M3,20*%
%TO.N,Net-(J8-Pad9)*%
X635000Y-10900000D03*
%TO.P,M3,7*%
%TO.N,Net-(J8-Pad7)*%
X0Y-12000000D03*
%TO.P,M3,19*%
%TO.N,Net-(J8-Pad6)*%
X-635000Y-10900000D03*
%TO.P,M3,6*%
%TO.N,Net-(J8-Pad4)*%
X-1270000Y-12000000D03*
%TO.P,M3,18*%
%TO.N,Net-(J8-Pad3)*%
X-1905000Y-10900000D03*
%TO.P,M3,5*%
%TO.N,Net-(J8-Pad1)*%
X-2540000Y-12000000D03*
%TO.P,M3,17*%
%TO.N,Net-(J7-Pad12)*%
X-3175000Y-10900000D03*
%TO.P,M3,4*%
%TO.N,Net-(J7-Pad10)*%
X-3810000Y-12000000D03*
%TO.P,M3,16*%
%TO.N,Net-(J7-Pad9)*%
X-4445000Y-10900000D03*
%TO.P,M3,3*%
%TO.N,Net-(J7-Pad7)*%
X-5080000Y-12000000D03*
%TO.P,M3,15*%
%TO.N,Net-(J7-Pad6)*%
X-5715000Y-10900000D03*
%TO.P,M3,2*%
%TO.N,Net-(J7-Pad4)*%
X-6350000Y-12000000D03*
%TO.P,M3,14*%
%TO.N,Net-(J7-Pad3)*%
X-6985000Y-10900000D03*
%TO.P,M3,1*%
%TO.N,Net-(J7-Pad1)*%
X-7620000Y-12000000D03*
%TD*%
%TO.P,M2,13*%
%TO.N,Net-(M2-Pad13)*%
X7620000Y0D03*
%TO.P,M2,25*%
%TO.N,Net-(J6-Pad12)*%
X6985000Y1100000D03*
%TO.P,M2,12*%
%TO.N,Net-(J6-Pad10)*%
X6350000Y0D03*
%TO.P,M2,24*%
%TO.N,Net-(J6-Pad9)*%
X5715000Y1100000D03*
%TO.P,M2,11*%
%TO.N,Net-(J6-Pad7)*%
X5080000Y0D03*
%TO.P,M2,23*%
%TO.N,Net-(J6-Pad6)*%
X4445000Y1100000D03*
%TO.P,M2,10*%
%TO.N,Net-(J6-Pad4)*%
X3810000Y0D03*
%TO.P,M2,22*%
%TO.N,Net-(J6-Pad3)*%
X3175000Y1100000D03*
%TO.P,M2,9*%
%TO.N,Net-(J6-Pad1)*%
X2540000Y0D03*
%TO.P,M2,21*%
%TO.N,Net-(J5-Pad12)*%
X1905000Y1100000D03*
%TO.P,M2,8*%
%TO.N,Net-(J5-Pad10)*%
X1270000Y0D03*
%TO.P,M2,20*%
%TO.N,Net-(J5-Pad9)*%
X635000Y1100000D03*
%TO.P,M2,7*%
%TO.N,Net-(J5-Pad7)*%
X0Y0D03*
%TO.P,M2,19*%
%TO.N,Net-(J5-Pad6)*%
X-635000Y1100000D03*
%TO.P,M2,6*%
%TO.N,Net-(J5-Pad4)*%
X-1270000Y0D03*
%TO.P,M2,18*%
%TO.N,Net-(J5-Pad3)*%
X-1905000Y1100000D03*
%TO.P,M2,5*%
%TO.N,Net-(J5-Pad1)*%
X-2540000Y0D03*
%TO.P,M2,17*%
%TO.N,Net-(J4-Pad12)*%
X-3175000Y1100000D03*
%TO.P,M2,4*%
%TO.N,Net-(J4-Pad10)*%
X-3810000Y0D03*
%TO.P,M2,16*%
%TO.N,Net-(J4-Pad9)*%
X-4445000Y1100000D03*
%TO.P,M2,3*%
%TO.N,Net-(J4-Pad7)*%
X-5080000Y0D03*
%TO.P,M2,15*%
%TO.N,Net-(J4-Pad6)*%
X-5715000Y1100000D03*
%TO.P,M2,2*%
%TO.N,Net-(J4-Pad4)*%
X-6350000Y0D03*
%TO.P,M2,14*%
%TO.N,Net-(J4-Pad3)*%
X-6985000Y1100000D03*
%TO.P,M2,1*%
%TO.N,Net-(J4-Pad1)*%
X-7620000Y0D03*
%TD*%
%TO.P,M1,13*%
%TO.N,Net-(M1-Pad13)*%
X7620000Y12000000D03*
%TO.P,M1,25*%
%TO.N,Net-(J3-Pad12)*%
X6985000Y13100000D03*
%TO.P,M1,12*%
%TO.N,Net-(J3-Pad10)*%
X6350000Y12000000D03*
%TO.P,M1,24*%
%TO.N,Net-(J3-Pad9)*%
X5715000Y13100000D03*
%TO.P,M1,11*%
%TO.N,Net-(J3-Pad7)*%
X5080000Y12000000D03*
%TO.P,M1,23*%
%TO.N,Net-(J3-Pad6)*%
X4445000Y13100000D03*
%TO.P,M1,10*%
%TO.N,Net-(J3-Pad4)*%
X3810000Y12000000D03*
%TO.P,M1,22*%
%TO.N,Net-(J3-Pad3)*%
X3175000Y13100000D03*
%TO.P,M1,9*%
%TO.N,Net-(J3-Pad1)*%
X2540000Y12000000D03*
%TO.P,M1,21*%
%TO.N,Net-(J2-Pad12)*%
X1905000Y13100000D03*
%TO.P,M1,8*%
%TO.N,Net-(J2-Pad10)*%
X1270000Y12000000D03*
%TO.P,M1,20*%
%TO.N,Net-(J2-Pad9)*%
X635000Y13100000D03*
%TO.P,M1,7*%
%TO.N,Net-(J2-Pad7)*%
X0Y12000000D03*
%TO.P,M1,19*%
%TO.N,Net-(J2-Pad6)*%
X-635000Y13100000D03*
%TO.P,M1,6*%
%TO.N,Net-(J2-Pad4)*%
X-1270000Y12000000D03*
%TO.P,M1,18*%
%TO.N,Net-(J2-Pad3)*%
X-1905000Y13100000D03*
%TO.P,M1,5*%
%TO.N,Net-(J2-Pad1)*%
X-2540000Y12000000D03*
%TO.P,M1,17*%
%TO.N,Net-(J1-Pad12)*%
X-3175000Y13100000D03*
%TO.P,M1,4*%
%TO.N,Net-(J1-Pad10)*%
X-3810000Y12000000D03*
%TO.P,M1,16*%
%TO.N,Net-(J1-Pad9)*%
X-4445000Y13100000D03*
%TO.P,M1,3*%
%TO.N,Net-(J1-Pad7)*%
X-5080000Y12000000D03*
%TO.P,M1,15*%
%TO.N,Net-(J1-Pad6)*%
X-5715000Y13100000D03*
%TO.P,M1,2*%
%TO.N,Net-(J1-Pad4)*%
X-6350000Y12000000D03*
%TO.P,M1,14*%
%TO.N,Net-(J1-Pad3)*%
X-6985000Y13100000D03*
%TO.P,M1,1*%
%TO.N,Net-(J1-Pad1)*%
X-7620000Y12000000D03*
%TD*%
D13*
%TO.P,J13,1*%
%TO.N,GND*%
X15795259Y-38133128D03*
%TO.P,J13,2*%
X38133128Y-15795259D03*
%TO.P,J13,3*%
X38133128Y15795259D03*
%TO.P,J13,4*%
X15795259Y38133128D03*
%TO.P,J13,5*%
X-15795259Y38133128D03*
%TO.P,J13,6*%
X-38133128Y15795259D03*
%TO.P,J13,7*%
X-38133128Y-15795259D03*
%TO.P,J13,8*%
X-15795259Y-38133128D03*
%TD*%
D10*
%TO.P,J4,0*%
%TO.N,N/C*%
X-49000000Y67550000D03*
X-49000000Y54050000D03*
D11*
%TO.P,J4,19*%
%TO.N,Net-(J4-Pad19)*%
X-49900000Y65300000D03*
%TO.P,J4,18*%
%TO.N,Net-(J4-Pad18)*%
X-48100000Y64800000D03*
%TO.P,J4,17*%
%TO.N,GND*%
X-49900000Y64300000D03*
%TO.P,J4,16*%
%TO.N,Net-(J4-Pad16)*%
X-48100000Y63800000D03*
%TO.P,J4,15*%
%TO.N,Net-(J4-Pad15)*%
X-49900000Y63300000D03*
%TO.P,J4,14*%
%TO.N,Net-(J4-Pad14)*%
X-48100000Y62800000D03*
%TO.P,J4,13*%
%TO.N,Net-(J4-Pad13)*%
X-49900000Y62300000D03*
%TO.P,J4,12*%
%TO.N,Net-(J4-Pad12)*%
X-48100000Y61800000D03*
%TO.P,J4,11*%
%TO.N,GND*%
X-49900000Y61300000D03*
%TO.P,J4,10*%
%TO.N,Net-(J4-Pad10)*%
X-48100000Y60800000D03*
%TO.P,J4,9*%
%TO.N,Net-(J4-Pad9)*%
X-49900000Y60300000D03*
%TO.P,J4,8*%
%TO.N,GND*%
X-48100000Y59800000D03*
%TO.P,J4,7*%
%TO.N,Net-(J4-Pad7)*%
X-49900000Y59300000D03*
%TO.P,J4,6*%
%TO.N,Net-(J4-Pad6)*%
X-48100000Y58800000D03*
%TO.P,J4,5*%
%TO.N,GND*%
X-49900000Y58300000D03*
%TO.P,J4,4*%
%TO.N,Net-(J4-Pad4)*%
X-48100000Y57800000D03*
%TO.P,J4,3*%
%TO.N,Net-(J4-Pad3)*%
X-49900000Y57300000D03*
%TO.P,J4,2*%
%TO.N,GND*%
X-48100000Y56800000D03*
%TO.P,J4,1*%
%TO.N,Net-(J4-Pad1)*%
X-49900000Y56300000D03*
%TD*%
D10*
%TO.P,J9,0*%
%TO.N,N/C*%
X16000000Y-56250000D03*
X16000000Y-69750000D03*
D11*
%TO.P,J9,19*%
%TO.N,Net-(J9-Pad19)*%
X15100000Y-58500000D03*
%TO.P,J9,18*%
%TO.N,Net-(J9-Pad18)*%
X16900000Y-59000000D03*
%TO.P,J9,17*%
%TO.N,GND*%
X15100000Y-59500000D03*
%TO.P,J9,16*%
%TO.N,Net-(J9-Pad16)*%
X16900000Y-60000000D03*
%TO.P,J9,15*%
%TO.N,Net-(J9-Pad15)*%
X15100000Y-60500000D03*
%TO.P,J9,14*%
%TO.N,Net-(J9-Pad14)*%
X16900000Y-61000000D03*
%TO.P,J9,13*%
%TO.N,Net-(J9-Pad13)*%
X15100000Y-61500000D03*
%TO.P,J9,12*%
%TO.N,Net-(J9-Pad12)*%
X16900000Y-62000000D03*
%TO.P,J9,11*%
%TO.N,GND*%
X15100000Y-62500000D03*
%TO.P,J9,10*%
%TO.N,Net-(J9-Pad10)*%
X16900000Y-63000000D03*
%TO.P,J9,9*%
%TO.N,Net-(J9-Pad9)*%
X15100000Y-63500000D03*
%TO.P,J9,8*%
%TO.N,GND*%
X16900000Y-64000000D03*
%TO.P,J9,7*%
%TO.N,Net-(J9-Pad7)*%
X15100000Y-64500000D03*
%TO.P,J9,6*%
%TO.N,Net-(J9-Pad6)*%
X16900000Y-65000000D03*
%TO.P,J9,5*%
%TO.N,GND*%
X15100000Y-65500000D03*
%TO.P,J9,4*%
%TO.N,Net-(J9-Pad4)*%
X16900000Y-66000000D03*
%TO.P,J9,3*%
%TO.N,Net-(J9-Pad3)*%
X15100000Y-66500000D03*
%TO.P,J9,2*%
%TO.N,GND*%
X16900000Y-67000000D03*
%TO.P,J9,1*%
%TO.N,Net-(J9-Pad1)*%
X15100000Y-67500000D03*
%TD*%
D10*
%TO.P,J7,0*%
%TO.N,N/C*%
X-16000000Y-56250000D03*
X-16000000Y-69750000D03*
D11*
%TO.P,J7,19*%
%TO.N,Net-(J7-Pad19)*%
X-16900000Y-58500000D03*
%TO.P,J7,18*%
%TO.N,Net-(J7-Pad18)*%
X-15100000Y-59000000D03*
%TO.P,J7,17*%
%TO.N,GND*%
X-16900000Y-59500000D03*
%TO.P,J7,16*%
%TO.N,Net-(J7-Pad16)*%
X-15100000Y-60000000D03*
%TO.P,J7,15*%
%TO.N,Net-(J7-Pad15)*%
X-16900000Y-60500000D03*
%TO.P,J7,14*%
%TO.N,Net-(J7-Pad14)*%
X-15100000Y-61000000D03*
%TO.P,J7,13*%
%TO.N,Net-(J7-Pad13)*%
X-16900000Y-61500000D03*
%TO.P,J7,12*%
%TO.N,Net-(J7-Pad12)*%
X-15100000Y-62000000D03*
%TO.P,J7,11*%
%TO.N,GND*%
X-16900000Y-62500000D03*
%TO.P,J7,10*%
%TO.N,Net-(J7-Pad10)*%
X-15100000Y-63000000D03*
%TO.P,J7,9*%
%TO.N,Net-(J7-Pad9)*%
X-16900000Y-63500000D03*
%TO.P,J7,8*%
%TO.N,GND*%
X-15100000Y-64000000D03*
%TO.P,J7,7*%
%TO.N,Net-(J7-Pad7)*%
X-16900000Y-64500000D03*
%TO.P,J7,6*%
%TO.N,Net-(J7-Pad6)*%
X-15100000Y-65000000D03*
%TO.P,J7,5*%
%TO.N,GND*%
X-16900000Y-65500000D03*
%TO.P,J7,4*%
%TO.N,Net-(J7-Pad4)*%
X-15100000Y-66000000D03*
%TO.P,J7,3*%
%TO.N,Net-(J7-Pad3)*%
X-16900000Y-66500000D03*
%TO.P,J7,2*%
%TO.N,GND*%
X-15100000Y-67000000D03*
%TO.P,J7,1*%
%TO.N,Net-(J7-Pad1)*%
X-16900000Y-67500000D03*
%TD*%
D10*
%TO.P,J8,0*%
%TO.N,N/C*%
X0Y-56250000D03*
X0Y-69750000D03*
D11*
%TO.P,J8,19*%
%TO.N,Net-(J8-Pad19)*%
X-900000Y-58500000D03*
%TO.P,J8,18*%
%TO.N,Net-(J8-Pad18)*%
X900000Y-59000000D03*
%TO.P,J8,17*%
%TO.N,GND*%
X-900000Y-59500000D03*
%TO.P,J8,16*%
%TO.N,Net-(J8-Pad16)*%
X900000Y-60000000D03*
%TO.P,J8,15*%
%TO.N,Net-(J8-Pad15)*%
X-900000Y-60500000D03*
%TO.P,J8,14*%
%TO.N,Net-(J8-Pad14)*%
X900000Y-61000000D03*
%TO.P,J8,13*%
%TO.N,Net-(J8-Pad13)*%
X-900000Y-61500000D03*
%TO.P,J8,12*%
%TO.N,Net-(J8-Pad12)*%
X900000Y-62000000D03*
%TO.P,J8,11*%
%TO.N,GND*%
X-900000Y-62500000D03*
%TO.P,J8,10*%
%TO.N,Net-(J8-Pad10)*%
X900000Y-63000000D03*
%TO.P,J8,9*%
%TO.N,Net-(J8-Pad9)*%
X-900000Y-63500000D03*
%TO.P,J8,8*%
%TO.N,GND*%
X900000Y-64000000D03*
%TO.P,J8,7*%
%TO.N,Net-(J8-Pad7)*%
X-900000Y-64500000D03*
%TO.P,J8,6*%
%TO.N,Net-(J8-Pad6)*%
X900000Y-65000000D03*
%TO.P,J8,5*%
%TO.N,GND*%
X-900000Y-65500000D03*
%TO.P,J8,4*%
%TO.N,Net-(J8-Pad4)*%
X900000Y-66000000D03*
%TO.P,J8,3*%
%TO.N,Net-(J8-Pad3)*%
X-900000Y-66500000D03*
%TO.P,J8,2*%
%TO.N,GND*%
X900000Y-67000000D03*
%TO.P,J8,1*%
%TO.N,Net-(J8-Pad1)*%
X-900000Y-67500000D03*
%TD*%
D10*
%TO.P,J1,0*%
%TO.N,N/C*%
X11000000Y67550000D03*
X11000000Y54050000D03*
D11*
%TO.P,J1,19*%
%TO.N,Net-(J1-Pad19)*%
X10100000Y65300000D03*
%TO.P,J1,18*%
%TO.N,Net-(J1-Pad18)*%
X11900000Y64800000D03*
%TO.P,J1,17*%
%TO.N,GND*%
X10100000Y64300000D03*
%TO.P,J1,16*%
%TO.N,Net-(J1-Pad16)*%
X11900000Y63800000D03*
%TO.P,J1,15*%
%TO.N,Net-(J1-Pad15)*%
X10100000Y63300000D03*
%TO.P,J1,14*%
%TO.N,Net-(J1-Pad14)*%
X11900000Y62800000D03*
%TO.P,J1,13*%
%TO.N,Net-(J1-Pad13)*%
X10100000Y62300000D03*
%TO.P,J1,12*%
%TO.N,Net-(J1-Pad12)*%
X11900000Y61800000D03*
%TO.P,J1,11*%
%TO.N,GND*%
X10100000Y61300000D03*
%TO.P,J1,10*%
%TO.N,Net-(J1-Pad10)*%
X11900000Y60800000D03*
%TO.P,J1,9*%
%TO.N,Net-(J1-Pad9)*%
X10100000Y60300000D03*
%TO.P,J1,8*%
%TO.N,GND*%
X11900000Y59800000D03*
%TO.P,J1,7*%
%TO.N,Net-(J1-Pad7)*%
X10100000Y59300000D03*
%TO.P,J1,6*%
%TO.N,Net-(J1-Pad6)*%
X11900000Y58800000D03*
%TO.P,J1,5*%
%TO.N,GND*%
X10100000Y58300000D03*
%TO.P,J1,4*%
%TO.N,Net-(J1-Pad4)*%
X11900000Y57800000D03*
%TO.P,J1,3*%
%TO.N,Net-(J1-Pad3)*%
X10100000Y57300000D03*
%TO.P,J1,2*%
%TO.N,GND*%
X11900000Y56800000D03*
%TO.P,J1,1*%
%TO.N,Net-(J1-Pad1)*%
X10100000Y56300000D03*
%TD*%
D10*
%TO.P,J6,0*%
%TO.N,N/C*%
X-11000000Y67550000D03*
X-11000000Y54050000D03*
D11*
%TO.P,J6,19*%
%TO.N,Net-(J6-Pad19)*%
X-11900000Y65300000D03*
%TO.P,J6,18*%
%TO.N,Net-(J6-Pad18)*%
X-10100000Y64800000D03*
%TO.P,J6,17*%
%TO.N,GND*%
X-11900000Y64300000D03*
%TO.P,J6,16*%
%TO.N,Net-(J6-Pad16)*%
X-10100000Y63800000D03*
%TO.P,J6,15*%
%TO.N,Net-(J6-Pad15)*%
X-11900000Y63300000D03*
%TO.P,J6,14*%
%TO.N,Net-(J6-Pad14)*%
X-10100000Y62800000D03*
%TO.P,J6,13*%
%TO.N,Net-(J6-Pad13)*%
X-11900000Y62300000D03*
%TO.P,J6,12*%
%TO.N,Net-(J6-Pad12)*%
X-10100000Y61800000D03*
%TO.P,J6,11*%
%TO.N,GND*%
X-11900000Y61300000D03*
%TO.P,J6,10*%
%TO.N,Net-(J6-Pad10)*%
X-10100000Y60800000D03*
%TO.P,J6,9*%
%TO.N,Net-(J6-Pad9)*%
X-11900000Y60300000D03*
%TO.P,J6,8*%
%TO.N,GND*%
X-10100000Y59800000D03*
%TO.P,J6,7*%
%TO.N,Net-(J6-Pad7)*%
X-11900000Y59300000D03*
%TO.P,J6,6*%
%TO.N,Net-(J6-Pad6)*%
X-10100000Y58800000D03*
%TO.P,J6,5*%
%TO.N,GND*%
X-11900000Y58300000D03*
%TO.P,J6,4*%
%TO.N,Net-(J6-Pad4)*%
X-10100000Y57800000D03*
%TO.P,J6,3*%
%TO.N,Net-(J6-Pad3)*%
X-11900000Y57300000D03*
%TO.P,J6,2*%
%TO.N,GND*%
X-10100000Y56800000D03*
%TO.P,J6,1*%
%TO.N,Net-(J6-Pad1)*%
X-11900000Y56300000D03*
%TD*%
D10*
%TO.P,J5,0*%
%TO.N,N/C*%
X-30000000Y67550000D03*
X-30000000Y54050000D03*
D11*
%TO.P,J5,19*%
%TO.N,Net-(J5-Pad19)*%
X-30900000Y65300000D03*
%TO.P,J5,18*%
%TO.N,Net-(J5-Pad18)*%
X-29100000Y64800000D03*
%TO.P,J5,17*%
%TO.N,GND*%
X-30900000Y64300000D03*
%TO.P,J5,16*%
%TO.N,Net-(J5-Pad16)*%
X-29100000Y63800000D03*
%TO.P,J5,15*%
%TO.N,Net-(J5-Pad15)*%
X-30900000Y63300000D03*
%TO.P,J5,14*%
%TO.N,Net-(J5-Pad14)*%
X-29100000Y62800000D03*
%TO.P,J5,13*%
%TO.N,Net-(J5-Pad13)*%
X-30900000Y62300000D03*
%TO.P,J5,12*%
%TO.N,Net-(J5-Pad12)*%
X-29100000Y61800000D03*
%TO.P,J5,11*%
%TO.N,GND*%
X-30900000Y61300000D03*
%TO.P,J5,10*%
%TO.N,Net-(J5-Pad10)*%
X-29100000Y60800000D03*
%TO.P,J5,9*%
%TO.N,Net-(J5-Pad9)*%
X-30900000Y60300000D03*
%TO.P,J5,8*%
%TO.N,GND*%
X-29100000Y59800000D03*
%TO.P,J5,7*%
%TO.N,Net-(J5-Pad7)*%
X-30900000Y59300000D03*
%TO.P,J5,6*%
%TO.N,Net-(J5-Pad6)*%
X-29100000Y58800000D03*
%TO.P,J5,5*%
%TO.N,GND*%
X-30900000Y58300000D03*
%TO.P,J5,4*%
%TO.N,Net-(J5-Pad4)*%
X-29100000Y57800000D03*
%TO.P,J5,3*%
%TO.N,Net-(J5-Pad3)*%
X-30900000Y57300000D03*
%TO.P,J5,2*%
%TO.N,GND*%
X-29100000Y56800000D03*
%TO.P,J5,1*%
%TO.N,Net-(J5-Pad1)*%
X-30900000Y56300000D03*
%TD*%
D14*
%TO.N,GND*%
X15795259Y-38133128D02*
X-15795259Y-38133128D01*
X-15795259Y-38133128D02*
X-38133128Y-15795259D01*
X-38133128Y-15795259D02*
X-38133128Y15795259D01*
X-15795259Y38133128D02*
X-38133128Y15795259D01*
X-15795259Y38133128D02*
X15795259Y38133128D01*
X15795259Y38133128D02*
X38133128Y15795259D01*
X38133128Y-15795259D02*
X38133128Y15795259D01*
X38133128Y-15795259D02*
X15795259Y-38133128D01*
X16900000Y-64000000D02*
X16804798Y-64000000D01*
X16804798Y-67000000D02*
X16900000Y-67000000D01*
X-804798Y-62500000D02*
X-900000Y-62500000D01*
X804798Y-64000000D02*
X900000Y-64000000D01*
X-900000Y-65500000D02*
X-804798Y-65500000D01*
X804798Y-67000000D02*
X900000Y-67000000D01*
X-16804798Y-62500000D02*
X-16900000Y-62500000D01*
X-15195202Y-64000000D02*
X-15100000Y-64000000D01*
X-16804798Y-65500000D02*
X-16900000Y-65500000D01*
D15*
X48635001Y61835001D02*
X48100000Y61300000D01*
X48635001Y63764999D02*
X48635001Y61835001D01*
X48100000Y64300000D02*
X48635001Y63764999D01*
X49600000Y59800000D02*
X49900000Y59800000D01*
X48100000Y61300000D02*
X49600000Y59800000D01*
X48400000Y58300000D02*
X48100000Y58300000D01*
X49900000Y59800000D02*
X48400000Y58300000D01*
X49600000Y56800000D02*
X49900000Y56800000D01*
X48100000Y58300000D02*
X49600000Y56800000D01*
X29635001Y61835001D02*
X29100000Y61300000D01*
X29100000Y64300000D02*
X29635001Y63764999D01*
X30600000Y59800000D02*
X30900000Y59800000D01*
X29100000Y61300000D02*
X30600000Y59800000D01*
X29400000Y58300000D02*
X29100000Y58300000D01*
X30900000Y59800000D02*
X29400000Y58300000D01*
X30600000Y56800000D02*
X30900000Y56800000D01*
X29100000Y58300000D02*
X30600000Y56800000D01*
X10635001Y61835001D02*
X10100000Y61300000D01*
X10100000Y64300000D02*
X10635001Y63764999D01*
X11600000Y59800000D02*
X11900000Y59800000D01*
X10100000Y61300000D02*
X11600000Y59800000D01*
X10400000Y58300000D02*
X10100000Y58300000D01*
X11900000Y59800000D02*
X10400000Y58300000D01*
X11600000Y56800000D02*
X11900000Y56800000D01*
X10100000Y58300000D02*
X11600000Y56800000D01*
X-11900000Y64300000D02*
X-11364999Y63764999D01*
X-10400000Y59800000D02*
X-10100000Y59800000D01*
X-11900000Y61300000D02*
X-10400000Y59800000D01*
X-11600000Y58300000D02*
X-11900000Y58300000D01*
X-10100000Y59800000D02*
X-11600000Y58300000D01*
X-10400000Y56800000D02*
X-10100000Y56800000D01*
X-11900000Y58300000D02*
X-10400000Y56800000D01*
X-30900000Y64300000D02*
X-30900000Y64091802D01*
X-29400000Y59800000D02*
X-29100000Y59800000D01*
X-30900000Y61300000D02*
X-29400000Y59800000D01*
X-30600000Y58300000D02*
X-30900000Y58300000D01*
X-29100000Y59800000D02*
X-30600000Y58300000D01*
X-30900000Y58300000D02*
X-30900000Y58091802D01*
X-48400000Y59800000D02*
X-48100000Y59800000D01*
X-49900000Y61300000D02*
X-48400000Y59800000D01*
X-49600000Y58300000D02*
X-49900000Y58300000D01*
X-48100000Y59800000D02*
X-49600000Y58300000D01*
X-48400000Y56800000D02*
X-48100000Y56800000D01*
X-49900000Y58300000D02*
X-48400000Y56800000D01*
X-30060000Y63460000D02*
X-30900000Y64300000D01*
X-30060000Y62160000D02*
X-30060000Y63460000D01*
X-30050000Y62150000D02*
X-30060000Y62160000D01*
X-30900000Y61300000D02*
X-30050000Y62150000D01*
X-11364999Y63764999D02*
X-11354999Y63764999D01*
X-11354999Y63764999D02*
X-11140000Y63550000D01*
X-11140000Y62060000D02*
X-11405000Y61795000D01*
X-11140000Y63550000D02*
X-11140000Y62060000D01*
X-11405000Y61795000D02*
X-11900000Y61300000D01*
X-11364999Y61835001D02*
X-11405000Y61795000D01*
X10970000Y62170000D02*
X10635001Y61835001D01*
X10970000Y63420000D02*
X10970000Y62170000D01*
X10635001Y63754999D02*
X10970000Y63420000D01*
X10635001Y63764999D02*
X10635001Y63754999D01*
X29635001Y63764999D02*
X30030000Y63370000D01*
X29635001Y61835001D02*
X29645001Y61835001D01*
X30030000Y62220000D02*
X30030000Y63370000D01*
X29645001Y61835001D02*
X30030000Y62220000D01*
X-30900000Y58280000D02*
X-30900000Y58300000D01*
X-29420000Y56800000D02*
X-30900000Y58280000D01*
X-29100000Y56800000D02*
X-29420000Y56800000D01*
X-49000000Y62200000D02*
X-49455000Y61745000D01*
X-49000000Y63400000D02*
X-49000000Y62200000D01*
X-49900000Y64300000D02*
X-49000000Y63400000D01*
X-49455000Y61745000D02*
X-49900000Y61300000D01*
X-49364999Y61835001D02*
X-49455000Y61745000D01*
X15100000Y-59500000D02*
X16010000Y-59500000D01*
X16010000Y-59500000D02*
X15980000Y-59530000D01*
X15980000Y-61620000D02*
X15100000Y-62500000D01*
X15980000Y-59530000D02*
X15980000Y-61620000D01*
X16600000Y-64000000D02*
X16900000Y-64000000D01*
X15100000Y-62500000D02*
X16600000Y-64000000D01*
X15400000Y-65500000D02*
X15100000Y-65500000D01*
X16900000Y-64000000D02*
X15400000Y-65500000D01*
X16600000Y-67000000D02*
X16900000Y-67000000D01*
X15100000Y-65500000D02*
X16600000Y-67000000D01*
X-900000Y-59500000D02*
X50000Y-59500000D01*
X50000Y-59500000D02*
X90000Y-59540000D01*
X90000Y-61510000D02*
X-900000Y-62500000D01*
X90000Y-59540000D02*
X90000Y-61510000D01*
X600000Y-64000000D02*
X900000Y-64000000D01*
X-900000Y-62500000D02*
X600000Y-64000000D01*
X-600000Y-65500000D02*
X-900000Y-65500000D01*
X900000Y-64000000D02*
X-600000Y-65500000D01*
X600000Y-67000000D02*
X900000Y-67000000D01*
X-900000Y-65500000D02*
X600000Y-67000000D01*
X-16900000Y-59500000D02*
X-16130000Y-59500000D01*
X-16130000Y-59500000D02*
X-16110000Y-59520000D01*
X-16110000Y-61710000D02*
X-16900000Y-62500000D01*
X-16110000Y-59520000D02*
X-16110000Y-61710000D01*
X-15400000Y-64000000D02*
X-15100000Y-64000000D01*
X-16900000Y-62500000D02*
X-15400000Y-64000000D01*
X-16600000Y-65500000D02*
X-16900000Y-65500000D01*
X-15100000Y-64000000D02*
X-16600000Y-65500000D01*
X-15400000Y-67000000D02*
X-15100000Y-67000000D01*
X-16900000Y-65500000D02*
X-15400000Y-67000000D01*
%TD*%
D16*
%TO.N,GND*%
X55348001Y-43729932D02*
X22729934Y-76348000D01*
X-22729933Y-76348000D01*
X-42827933Y-56250000D01*
X-18883662Y-56250000D01*
X-18857075Y-56519939D01*
X-18778337Y-56779505D01*
X-18650473Y-57018721D01*
X-18478397Y-57228397D01*
X-18268721Y-57400473D01*
X-18029505Y-57528337D01*
X-17769939Y-57607075D01*
X-17567640Y-57627000D01*
X-17442014Y-57627000D01*
X-17554674Y-57702277D01*
X-17697723Y-57845326D01*
X-17810115Y-58013533D01*
X-17887533Y-58200435D01*
X-17927000Y-58398849D01*
X-17927000Y-58601151D01*
X-17887533Y-58799565D01*
X-17810115Y-58986467D01*
X-17804152Y-58995391D01*
X-17809736Y-58996019D01*
X-17890577Y-59183184D01*
X-17933351Y-59382523D01*
X-17936413Y-59586377D01*
X-17899647Y-59786912D01*
X-17824466Y-59976420D01*
X-17809736Y-60003981D01*
X-17804152Y-60004609D01*
X-17810115Y-60013533D01*
X-17887533Y-60200435D01*
X-17927000Y-60398849D01*
X-17927000Y-60601151D01*
X-17887533Y-60799565D01*
X-17810115Y-60986467D01*
X-17801073Y-61000000D01*
X-17810115Y-61013533D01*
X-17887533Y-61200435D01*
X-17927000Y-61398849D01*
X-17927000Y-61601151D01*
X-17887533Y-61799565D01*
X-17810115Y-61986467D01*
X-17804152Y-61995391D01*
X-17809736Y-61996019D01*
X-17890577Y-62183184D01*
X-17933351Y-62382523D01*
X-17936413Y-62586377D01*
X-17899647Y-62786912D01*
X-17824466Y-62976420D01*
X-17809736Y-63003981D01*
X-17804152Y-63004609D01*
X-17810115Y-63013533D01*
X-17887533Y-63200435D01*
X-17927000Y-63398849D01*
X-17927000Y-63601151D01*
X-17887533Y-63799565D01*
X-17810115Y-63986467D01*
X-17801073Y-64000000D01*
X-17810115Y-64013533D01*
X-17887533Y-64200435D01*
X-17927000Y-64398849D01*
X-17927000Y-64601151D01*
X-17887533Y-64799565D01*
X-17810115Y-64986467D01*
X-17804152Y-64995391D01*
X-17809736Y-64996019D01*
X-17890577Y-65183184D01*
X-17933351Y-65382523D01*
X-17936413Y-65586377D01*
X-17899647Y-65786912D01*
X-17824466Y-65976420D01*
X-17809736Y-66003981D01*
X-17804152Y-66004609D01*
X-17810115Y-66013533D01*
X-17887533Y-66200435D01*
X-17927000Y-66398849D01*
X-17927000Y-66601151D01*
X-17887533Y-66799565D01*
X-17810115Y-66986467D01*
X-17801073Y-67000000D01*
X-17810115Y-67013533D01*
X-17887533Y-67200435D01*
X-17927000Y-67398849D01*
X-17927000Y-67601151D01*
X-17887533Y-67799565D01*
X-17810115Y-67986467D01*
X-17697723Y-68154674D01*
X-17554674Y-68297723D01*
X-17442014Y-68373000D01*
X-17567640Y-68373000D01*
X-17769939Y-68392925D01*
X-18029505Y-68471663D01*
X-18268721Y-68599527D01*
X-18478397Y-68771603D01*
X-18650473Y-68981279D01*
X-18778337Y-69220495D01*
X-18857075Y-69480061D01*
X-18883662Y-69750000D01*
X-18857075Y-70019939D01*
X-18778337Y-70279505D01*
X-18650473Y-70518721D01*
X-18478397Y-70728397D01*
X-18268721Y-70900473D01*
X-18029505Y-71028337D01*
X-17769939Y-71107075D01*
X-17567640Y-71127000D01*
X-14432360Y-71127000D01*
X-14230061Y-71107075D01*
X-13970495Y-71028337D01*
X-13731279Y-70900473D01*
X-13521603Y-70728397D01*
X-13349527Y-70518721D01*
X-13221663Y-70279505D01*
X-13142925Y-70019939D01*
X-13116338Y-69750000D01*
X-13142925Y-69480061D01*
X-13221663Y-69220495D01*
X-13349527Y-68981279D01*
X-13521603Y-68771603D01*
X-13731279Y-68599527D01*
X-13970495Y-68471663D01*
X-14230061Y-68392925D01*
X-14432360Y-68373000D01*
X-16357986Y-68373000D01*
X-16245326Y-68297723D01*
X-16102277Y-68154674D01*
X-15989885Y-67986467D01*
X-15912467Y-67799565D01*
X-15893944Y-67706441D01*
X-15626836Y-67706441D01*
X-15603981Y-67909736D01*
X-15416816Y-67990577D01*
X-15217477Y-68033351D01*
X-15013623Y-68036413D01*
X-14813088Y-67999647D01*
X-14623580Y-67924466D01*
X-14596019Y-67909736D01*
X-14573164Y-67706441D01*
X-15100000Y-67179605D01*
X-15626836Y-67706441D01*
X-15893944Y-67706441D01*
X-15873000Y-67601151D01*
X-15873000Y-67519353D01*
X-15806441Y-67526836D01*
X-15289109Y-67009504D01*
X-15201151Y-67027000D01*
X-14998849Y-67027000D01*
X-14910891Y-67009504D01*
X-14393559Y-67526836D01*
X-14190264Y-67503981D01*
X-14109423Y-67316816D01*
X-14066649Y-67117477D01*
X-14063587Y-66913623D01*
X-14100353Y-66713088D01*
X-14175534Y-66523580D01*
X-14190264Y-66496019D01*
X-14195848Y-66495391D01*
X-14189885Y-66486467D01*
X-14112467Y-66299565D01*
X-14073000Y-66101151D01*
X-14073000Y-65898849D01*
X-14112467Y-65700435D01*
X-14189885Y-65513533D01*
X-14198927Y-65500000D01*
X-14189885Y-65486467D01*
X-14112467Y-65299565D01*
X-14073000Y-65101151D01*
X-14073000Y-64898849D01*
X-14112467Y-64700435D01*
X-14189885Y-64513533D01*
X-14195848Y-64504609D01*
X-14190264Y-64503981D01*
X-14109423Y-64316816D01*
X-14066649Y-64117477D01*
X-14063587Y-63913623D01*
X-14100353Y-63713088D01*
X-14175534Y-63523580D01*
X-14190264Y-63496019D01*
X-14195848Y-63495391D01*
X-14189885Y-63486467D01*
X-14112467Y-63299565D01*
X-14073000Y-63101151D01*
X-14073000Y-62898849D01*
X-14112467Y-62700435D01*
X-14189885Y-62513533D01*
X-14198927Y-62500000D01*
X-14189885Y-62486467D01*
X-14112467Y-62299565D01*
X-14073000Y-62101151D01*
X-14073000Y-61898849D01*
X-14112467Y-61700435D01*
X-14189885Y-61513533D01*
X-14198927Y-61500000D01*
X-14189885Y-61486467D01*
X-14112467Y-61299565D01*
X-14073000Y-61101151D01*
X-14073000Y-60898849D01*
X-14112467Y-60700435D01*
X-14189885Y-60513533D01*
X-14198927Y-60500000D01*
X-14189885Y-60486467D01*
X-14112467Y-60299565D01*
X-14073000Y-60101151D01*
X-14073000Y-59898849D01*
X-14112467Y-59700435D01*
X-14189885Y-59513533D01*
X-14198927Y-59500000D01*
X-14189885Y-59486467D01*
X-14112467Y-59299565D01*
X-14073000Y-59101151D01*
X-14073000Y-58898849D01*
X-14112467Y-58700435D01*
X-14189885Y-58513533D01*
X-14302277Y-58345326D01*
X-14445326Y-58202277D01*
X-14613533Y-58089885D01*
X-14800435Y-58012467D01*
X-14998849Y-57973000D01*
X-15201151Y-57973000D01*
X-15399565Y-58012467D01*
X-15586467Y-58089885D01*
X-15754674Y-58202277D01*
X-15885982Y-58333585D01*
X-15912467Y-58200435D01*
X-15989885Y-58013533D01*
X-16102277Y-57845326D01*
X-16245326Y-57702277D01*
X-16357986Y-57627000D01*
X-14432360Y-57627000D01*
X-14230061Y-57607075D01*
X-13970495Y-57528337D01*
X-13731279Y-57400473D01*
X-13521603Y-57228397D01*
X-13349527Y-57018721D01*
X-13221663Y-56779505D01*
X-13142925Y-56519939D01*
X-13116338Y-56250000D01*
X-2883662Y-56250000D01*
X-2857075Y-56519939D01*
X-2778337Y-56779505D01*
X-2650473Y-57018721D01*
X-2478397Y-57228397D01*
X-2268721Y-57400473D01*
X-2029505Y-57528337D01*
X-1769939Y-57607075D01*
X-1567640Y-57627000D01*
X-1442014Y-57627000D01*
X-1554674Y-57702277D01*
X-1697723Y-57845326D01*
X-1810115Y-58013533D01*
X-1887533Y-58200435D01*
X-1927000Y-58398849D01*
X-1927000Y-58601151D01*
X-1887533Y-58799565D01*
X-1810115Y-58986467D01*
X-1804152Y-58995391D01*
X-1809736Y-58996019D01*
X-1890577Y-59183184D01*
X-1933351Y-59382523D01*
X-1936413Y-59586377D01*
X-1899647Y-59786912D01*
X-1824466Y-59976420D01*
X-1809736Y-60003981D01*
X-1804152Y-60004609D01*
X-1810115Y-60013533D01*
X-1887533Y-60200435D01*
X-1927000Y-60398849D01*
X-1927000Y-60601151D01*
X-1887533Y-60799565D01*
X-1810115Y-60986467D01*
X-1801073Y-61000000D01*
X-1810115Y-61013533D01*
X-1887533Y-61200435D01*
X-1927000Y-61398849D01*
X-1927000Y-61601151D01*
X-1887533Y-61799565D01*
X-1810115Y-61986467D01*
X-1804152Y-61995391D01*
X-1809736Y-61996019D01*
X-1890577Y-62183184D01*
X-1933351Y-62382523D01*
X-1936413Y-62586377D01*
X-1899647Y-62786912D01*
X-1824466Y-62976420D01*
X-1809736Y-63003981D01*
X-1804152Y-63004609D01*
X-1810115Y-63013533D01*
X-1887533Y-63200435D01*
X-1927000Y-63398849D01*
X-1927000Y-63601151D01*
X-1887533Y-63799565D01*
X-1810115Y-63986467D01*
X-1801073Y-64000000D01*
X-1810115Y-64013533D01*
X-1887533Y-64200435D01*
X-1927000Y-64398849D01*
X-1927000Y-64601151D01*
X-1887533Y-64799565D01*
X-1810115Y-64986467D01*
X-1804152Y-64995391D01*
X-1809736Y-64996019D01*
X-1890577Y-65183184D01*
X-1933351Y-65382523D01*
X-1936413Y-65586377D01*
X-1899647Y-65786912D01*
X-1824466Y-65976420D01*
X-1809736Y-66003981D01*
X-1804152Y-66004609D01*
X-1810115Y-66013533D01*
X-1887533Y-66200435D01*
X-1927000Y-66398849D01*
X-1927000Y-66601151D01*
X-1887533Y-66799565D01*
X-1810115Y-66986467D01*
X-1801073Y-67000000D01*
X-1810115Y-67013533D01*
X-1887533Y-67200435D01*
X-1927000Y-67398849D01*
X-1927000Y-67601151D01*
X-1887533Y-67799565D01*
X-1810115Y-67986467D01*
X-1697723Y-68154674D01*
X-1554674Y-68297723D01*
X-1442014Y-68373000D01*
X-1567640Y-68373000D01*
X-1769939Y-68392925D01*
X-2029505Y-68471663D01*
X-2268721Y-68599527D01*
X-2478397Y-68771603D01*
X-2650473Y-68981279D01*
X-2778337Y-69220495D01*
X-2857075Y-69480061D01*
X-2883662Y-69750000D01*
X-2857075Y-70019939D01*
X-2778337Y-70279505D01*
X-2650473Y-70518721D01*
X-2478397Y-70728397D01*
X-2268721Y-70900473D01*
X-2029505Y-71028337D01*
X-1769939Y-71107075D01*
X-1567640Y-71127000D01*
X1567640Y-71127000D01*
X1769939Y-71107075D01*
X2029505Y-71028337D01*
X2268721Y-70900473D01*
X2478397Y-70728397D01*
X2650473Y-70518721D01*
X2778337Y-70279505D01*
X2857075Y-70019939D01*
X2883662Y-69750000D01*
X2857075Y-69480061D01*
X2778337Y-69220495D01*
X2650473Y-68981279D01*
X2478397Y-68771603D01*
X2268721Y-68599527D01*
X2029505Y-68471663D01*
X1769939Y-68392925D01*
X1567640Y-68373000D01*
X-357986Y-68373000D01*
X-245326Y-68297723D01*
X-102277Y-68154674D01*
X10115Y-67986467D01*
X87533Y-67799565D01*
X106056Y-67706441D01*
X373164Y-67706441D01*
X396019Y-67909736D01*
X583184Y-67990577D01*
X782523Y-68033351D01*
X986377Y-68036413D01*
X1186912Y-67999647D01*
X1376420Y-67924466D01*
X1403981Y-67909736D01*
X1426836Y-67706441D01*
X900000Y-67179605D01*
X373164Y-67706441D01*
X106056Y-67706441D01*
X127000Y-67601151D01*
X127000Y-67519353D01*
X193559Y-67526836D01*
X710891Y-67009504D01*
X798849Y-67027000D01*
X1001151Y-67027000D01*
X1089109Y-67009504D01*
X1606441Y-67526836D01*
X1809736Y-67503981D01*
X1890577Y-67316816D01*
X1933351Y-67117477D01*
X1936413Y-66913623D01*
X1899647Y-66713088D01*
X1824466Y-66523580D01*
X1809736Y-66496019D01*
X1804152Y-66495391D01*
X1810115Y-66486467D01*
X1887533Y-66299565D01*
X1927000Y-66101151D01*
X1927000Y-65898849D01*
X1887533Y-65700435D01*
X1810115Y-65513533D01*
X1801073Y-65500000D01*
X1810115Y-65486467D01*
X1887533Y-65299565D01*
X1927000Y-65101151D01*
X1927000Y-64898849D01*
X1887533Y-64700435D01*
X1810115Y-64513533D01*
X1804152Y-64504609D01*
X1809736Y-64503981D01*
X1890577Y-64316816D01*
X1933351Y-64117477D01*
X1936413Y-63913623D01*
X1899647Y-63713088D01*
X1824466Y-63523580D01*
X1809736Y-63496019D01*
X1804152Y-63495391D01*
X1810115Y-63486467D01*
X1887533Y-63299565D01*
X1927000Y-63101151D01*
X1927000Y-62898849D01*
X1887533Y-62700435D01*
X1810115Y-62513533D01*
X1801073Y-62500000D01*
X1810115Y-62486467D01*
X1887533Y-62299565D01*
X1927000Y-62101151D01*
X1927000Y-61898849D01*
X1887533Y-61700435D01*
X1810115Y-61513533D01*
X1801073Y-61500000D01*
X1810115Y-61486467D01*
X1887533Y-61299565D01*
X1927000Y-61101151D01*
X1927000Y-60898849D01*
X1887533Y-60700435D01*
X1810115Y-60513533D01*
X1801073Y-60500000D01*
X1810115Y-60486467D01*
X1887533Y-60299565D01*
X1927000Y-60101151D01*
X1927000Y-59898849D01*
X1887533Y-59700435D01*
X1810115Y-59513533D01*
X1801073Y-59500000D01*
X1810115Y-59486467D01*
X1887533Y-59299565D01*
X1927000Y-59101151D01*
X1927000Y-58898849D01*
X1887533Y-58700435D01*
X1810115Y-58513533D01*
X1697723Y-58345326D01*
X1554674Y-58202277D01*
X1386467Y-58089885D01*
X1199565Y-58012467D01*
X1001151Y-57973000D01*
X798849Y-57973000D01*
X600435Y-58012467D01*
X413533Y-58089885D01*
X245326Y-58202277D01*
X114018Y-58333585D01*
X87533Y-58200435D01*
X10115Y-58013533D01*
X-102277Y-57845326D01*
X-245326Y-57702277D01*
X-357986Y-57627000D01*
X1567640Y-57627000D01*
X1769939Y-57607075D01*
X2029505Y-57528337D01*
X2268721Y-57400473D01*
X2478397Y-57228397D01*
X2650473Y-57018721D01*
X2778337Y-56779505D01*
X2857075Y-56519939D01*
X2883662Y-56250000D01*
X13116338Y-56250000D01*
X13142925Y-56519939D01*
X13221663Y-56779505D01*
X13349527Y-57018721D01*
X13521603Y-57228397D01*
X13731279Y-57400473D01*
X13970495Y-57528337D01*
X14230061Y-57607075D01*
X14432360Y-57627000D01*
X14557986Y-57627000D01*
X14445326Y-57702277D01*
X14302277Y-57845326D01*
X14189885Y-58013533D01*
X14112467Y-58200435D01*
X14073000Y-58398849D01*
X14073000Y-58601151D01*
X14112467Y-58799565D01*
X14189885Y-58986467D01*
X14195848Y-58995391D01*
X14190264Y-58996019D01*
X14109423Y-59183184D01*
X14066649Y-59382523D01*
X14063587Y-59586377D01*
X14100353Y-59786912D01*
X14175534Y-59976420D01*
X14190264Y-60003981D01*
X14195848Y-60004609D01*
X14189885Y-60013533D01*
X14112467Y-60200435D01*
X14073000Y-60398849D01*
X14073000Y-60601151D01*
X14112467Y-60799565D01*
X14189885Y-60986467D01*
X14198927Y-61000000D01*
X14189885Y-61013533D01*
X14112467Y-61200435D01*
X14073000Y-61398849D01*
X14073000Y-61601151D01*
X14112467Y-61799565D01*
X14189885Y-61986467D01*
X14195848Y-61995391D01*
X14190264Y-61996019D01*
X14109423Y-62183184D01*
X14066649Y-62382523D01*
X14063587Y-62586377D01*
X14100353Y-62786912D01*
X14175534Y-62976420D01*
X14190264Y-63003981D01*
X14195848Y-63004609D01*
X14189885Y-63013533D01*
X14112467Y-63200435D01*
X14073000Y-63398849D01*
X14073000Y-63601151D01*
X14112467Y-63799565D01*
X14189885Y-63986467D01*
X14198927Y-64000000D01*
X14189885Y-64013533D01*
X14112467Y-64200435D01*
X14073000Y-64398849D01*
X14073000Y-64601151D01*
X14112467Y-64799565D01*
X14189885Y-64986467D01*
X14195848Y-64995391D01*
X14190264Y-64996019D01*
X14109423Y-65183184D01*
X14066649Y-65382523D01*
X14063587Y-65586377D01*
X14100353Y-65786912D01*
X14175534Y-65976420D01*
X14190264Y-66003981D01*
X14195848Y-66004609D01*
X14189885Y-66013533D01*
X14112467Y-66200435D01*
X14073000Y-66398849D01*
X14073000Y-66601151D01*
X14112467Y-66799565D01*
X14189885Y-66986467D01*
X14198927Y-67000000D01*
X14189885Y-67013533D01*
X14112467Y-67200435D01*
X14073000Y-67398849D01*
X14073000Y-67601151D01*
X14112467Y-67799565D01*
X14189885Y-67986467D01*
X14302277Y-68154674D01*
X14445326Y-68297723D01*
X14557986Y-68373000D01*
X14432360Y-68373000D01*
X14230061Y-68392925D01*
X13970495Y-68471663D01*
X13731279Y-68599527D01*
X13521603Y-68771603D01*
X13349527Y-68981279D01*
X13221663Y-69220495D01*
X13142925Y-69480061D01*
X13116338Y-69750000D01*
X13142925Y-70019939D01*
X13221663Y-70279505D01*
X13349527Y-70518721D01*
X13521603Y-70728397D01*
X13731279Y-70900473D01*
X13970495Y-71028337D01*
X14230061Y-71107075D01*
X14432360Y-71127000D01*
X17567640Y-71127000D01*
X17769939Y-71107075D01*
X18029505Y-71028337D01*
X18268721Y-70900473D01*
X18478397Y-70728397D01*
X18650473Y-70518721D01*
X18778337Y-70279505D01*
X18857075Y-70019939D01*
X18883662Y-69750000D01*
X18857075Y-69480061D01*
X18778337Y-69220495D01*
X18650473Y-68981279D01*
X18478397Y-68771603D01*
X18268721Y-68599527D01*
X18029505Y-68471663D01*
X17769939Y-68392925D01*
X17567640Y-68373000D01*
X15642014Y-68373000D01*
X15754674Y-68297723D01*
X15897723Y-68154674D01*
X16010115Y-67986467D01*
X16087533Y-67799565D01*
X16106056Y-67706441D01*
X16373164Y-67706441D01*
X16396019Y-67909736D01*
X16583184Y-67990577D01*
X16782523Y-68033351D01*
X16986377Y-68036413D01*
X17186912Y-67999647D01*
X17376420Y-67924466D01*
X17403981Y-67909736D01*
X17426836Y-67706441D01*
X16900000Y-67179605D01*
X16373164Y-67706441D01*
X16106056Y-67706441D01*
X16127000Y-67601151D01*
X16127000Y-67519353D01*
X16193559Y-67526836D01*
X16710891Y-67009504D01*
X16798849Y-67027000D01*
X17001151Y-67027000D01*
X17089109Y-67009504D01*
X17606441Y-67526836D01*
X17809736Y-67503981D01*
X17890577Y-67316816D01*
X17933351Y-67117477D01*
X17936413Y-66913623D01*
X17899647Y-66713088D01*
X17824466Y-66523580D01*
X17809736Y-66496019D01*
X17804152Y-66495391D01*
X17810115Y-66486467D01*
X17887533Y-66299565D01*
X17927000Y-66101151D01*
X17927000Y-65898849D01*
X17887533Y-65700435D01*
X17810115Y-65513533D01*
X17801073Y-65500000D01*
X17810115Y-65486467D01*
X17887533Y-65299565D01*
X17927000Y-65101151D01*
X17927000Y-64898849D01*
X17887533Y-64700435D01*
X17810115Y-64513533D01*
X17804152Y-64504609D01*
X17809736Y-64503981D01*
X17890577Y-64316816D01*
X17933351Y-64117477D01*
X17936413Y-63913623D01*
X17899647Y-63713088D01*
X17824466Y-63523580D01*
X17809736Y-63496019D01*
X17804152Y-63495391D01*
X17810115Y-63486467D01*
X17887533Y-63299565D01*
X17927000Y-63101151D01*
X17927000Y-62898849D01*
X17887533Y-62700435D01*
X17810115Y-62513533D01*
X17801073Y-62500000D01*
X17810115Y-62486467D01*
X17887533Y-62299565D01*
X17927000Y-62101151D01*
X17927000Y-61898849D01*
X17887533Y-61700435D01*
X17810115Y-61513533D01*
X17801073Y-61500000D01*
X17810115Y-61486467D01*
X17887533Y-61299565D01*
X17927000Y-61101151D01*
X17927000Y-60898849D01*
X17887533Y-60700435D01*
X17810115Y-60513533D01*
X17801073Y-60500000D01*
X17810115Y-60486467D01*
X17887533Y-60299565D01*
X17927000Y-60101151D01*
X17927000Y-59898849D01*
X17887533Y-59700435D01*
X17810115Y-59513533D01*
X17801073Y-59500000D01*
X17810115Y-59486467D01*
X17887533Y-59299565D01*
X17927000Y-59101151D01*
X17927000Y-58898849D01*
X17887533Y-58700435D01*
X17810115Y-58513533D01*
X17697723Y-58345326D01*
X17554674Y-58202277D01*
X17386467Y-58089885D01*
X17199565Y-58012467D01*
X17001151Y-57973000D01*
X16798849Y-57973000D01*
X16600435Y-58012467D01*
X16413533Y-58089885D01*
X16245326Y-58202277D01*
X16114018Y-58333585D01*
X16087533Y-58200435D01*
X16010115Y-58013533D01*
X15897723Y-57845326D01*
X15754674Y-57702277D01*
X15642014Y-57627000D01*
X17567640Y-57627000D01*
X17769939Y-57607075D01*
X18029505Y-57528337D01*
X18268721Y-57400473D01*
X18478397Y-57228397D01*
X18650473Y-57018721D01*
X18778337Y-56779505D01*
X18857075Y-56519939D01*
X18883662Y-56250000D01*
X18857075Y-55980061D01*
X18778337Y-55720495D01*
X18650473Y-55481279D01*
X18478397Y-55271603D01*
X18268721Y-55099527D01*
X18029505Y-54971663D01*
X17769939Y-54892925D01*
X17567640Y-54873000D01*
X14432360Y-54873000D01*
X14230061Y-54892925D01*
X13970495Y-54971663D01*
X13731279Y-55099527D01*
X13521603Y-55271603D01*
X13349527Y-55481279D01*
X13221663Y-55720495D01*
X13142925Y-55980061D01*
X13116338Y-56250000D01*
X2883662Y-56250000D01*
X2857075Y-55980061D01*
X2778337Y-55720495D01*
X2650473Y-55481279D01*
X2478397Y-55271603D01*
X2268721Y-55099527D01*
X2029505Y-54971663D01*
X1769939Y-54892925D01*
X1567640Y-54873000D01*
X-1567640Y-54873000D01*
X-1769939Y-54892925D01*
X-2029505Y-54971663D01*
X-2268721Y-55099527D01*
X-2478397Y-55271603D01*
X-2650473Y-55481279D01*
X-2778337Y-55720495D01*
X-2857075Y-55980061D01*
X-2883662Y-56250000D01*
X-13116338Y-56250000D01*
X-13142925Y-55980061D01*
X-13221663Y-55720495D01*
X-13349527Y-55481279D01*
X-13521603Y-55271603D01*
X-13731279Y-55099527D01*
X-13970495Y-54971663D01*
X-14230061Y-54892925D01*
X-14432360Y-54873000D01*
X-17567640Y-54873000D01*
X-17769939Y-54892925D01*
X-18029505Y-54971663D01*
X-18268721Y-55099527D01*
X-18478397Y-55271603D01*
X-18650473Y-55481279D01*
X-18778337Y-55720495D01*
X-18857075Y-55980061D01*
X-18883662Y-56250000D01*
X-42827933Y-56250000D01*
X-55348000Y-43729934D01*
X-55348000Y-39144115D01*
X-21366538Y-39144115D01*
X-21062254Y-40211592D01*
X-20555562Y-41199195D01*
X-19865934Y-42068970D01*
X-19019872Y-42787493D01*
X-18049890Y-43327151D01*
X-16993264Y-43667206D01*
X-16806246Y-43704407D01*
X-15922259Y-43635177D01*
X-15922259Y-38260128D01*
X-15668259Y-38260128D01*
X-15668259Y-43635177D01*
X-14784272Y-43704407D01*
X-13716795Y-43400123D01*
X-12729192Y-42893431D01*
X-11859417Y-42203803D01*
X-11140894Y-41357741D01*
X-10601236Y-40387759D01*
X-10261181Y-39331133D01*
X-10223980Y-39144115D01*
X10223980Y-39144115D01*
X10528264Y-40211592D01*
X11034956Y-41199195D01*
X11724584Y-42068970D01*
X12570646Y-42787493D01*
X13540628Y-43327151D01*
X14597254Y-43667206D01*
X14784272Y-43704407D01*
X15668259Y-43635177D01*
X15668259Y-38260128D01*
X15922259Y-38260128D01*
X15922259Y-43635177D01*
X16806246Y-43704407D01*
X17873723Y-43400123D01*
X18861326Y-42893431D01*
X19731101Y-42203803D01*
X20449624Y-41357741D01*
X20989282Y-40387759D01*
X21329337Y-39331133D01*
X21366538Y-39144115D01*
X21297308Y-38260128D01*
X15922259Y-38260128D01*
X15668259Y-38260128D01*
X10293210Y-38260128D01*
X10223980Y-39144115D01*
X-10223980Y-39144115D01*
X-10293210Y-38260128D01*
X-15668259Y-38260128D01*
X-15922259Y-38260128D01*
X-21297308Y-38260128D01*
X-21366538Y-39144115D01*
X-55348000Y-39144115D01*
X-55348000Y-37122141D01*
X-21366538Y-37122141D01*
X-21297308Y-38006128D01*
X-15922259Y-38006128D01*
X-15922259Y-32631079D01*
X-15668259Y-32631079D01*
X-15668259Y-38006128D01*
X-10293210Y-38006128D01*
X-10223980Y-37122141D01*
X10223980Y-37122141D01*
X10293210Y-38006128D01*
X15668259Y-38006128D01*
X15668259Y-32631079D01*
X15922259Y-32631079D01*
X15922259Y-38006128D01*
X21297308Y-38006128D01*
X21366538Y-37122141D01*
X21062254Y-36054664D01*
X20555562Y-35067061D01*
X19865934Y-34197286D01*
X19019872Y-33478763D01*
X18049890Y-32939105D01*
X16993264Y-32599050D01*
X16806246Y-32561849D01*
X15922259Y-32631079D01*
X15668259Y-32631079D01*
X14784272Y-32561849D01*
X13716795Y-32866133D01*
X12729192Y-33372825D01*
X11859417Y-34062453D01*
X11140894Y-34908515D01*
X10601236Y-35878497D01*
X10261181Y-36935123D01*
X10223980Y-37122141D01*
X-10223980Y-37122141D01*
X-10528264Y-36054664D01*
X-11034956Y-35067061D01*
X-11724584Y-34197286D01*
X-12570646Y-33478763D01*
X-13540628Y-32939105D01*
X-14597254Y-32599050D01*
X-14784272Y-32561849D01*
X-15668259Y-32631079D01*
X-15922259Y-32631079D01*
X-16806246Y-32561849D01*
X-17873723Y-32866133D01*
X-18861326Y-33372825D01*
X-19731101Y-34062453D01*
X-20449624Y-34908515D01*
X-20989282Y-35878497D01*
X-21329337Y-36935123D01*
X-21366538Y-37122141D01*
X-55348000Y-37122141D01*
X-55348000Y-16806246D01*
X-43704407Y-16806246D01*
X-43400123Y-17873723D01*
X-42893431Y-18861326D01*
X-42203803Y-19731101D01*
X-41357741Y-20449624D01*
X-40387759Y-20989282D01*
X-39331133Y-21329337D01*
X-39144115Y-21366538D01*
X-38260128Y-21297308D01*
X-38260128Y-15922259D01*
X-38006128Y-15922259D01*
X-38006128Y-21297308D01*
X-37122141Y-21366538D01*
X-36054664Y-21062254D01*
X-35067061Y-20555562D01*
X-34197286Y-19865934D01*
X-33478763Y-19019872D01*
X-32939105Y-18049890D01*
X-32599050Y-16993264D01*
X-32561849Y-16806246D01*
X32561849Y-16806246D01*
X32866133Y-17873723D01*
X33372825Y-18861326D01*
X34062453Y-19731101D01*
X34908515Y-20449624D01*
X35878497Y-20989282D01*
X36935123Y-21329337D01*
X37122141Y-21366538D01*
X38006128Y-21297308D01*
X38006128Y-15922259D01*
X38260128Y-15922259D01*
X38260128Y-21297308D01*
X39144115Y-21366538D01*
X40211592Y-21062254D01*
X41199195Y-20555562D01*
X42068970Y-19865934D01*
X42787493Y-19019872D01*
X43327151Y-18049890D01*
X43667206Y-16993264D01*
X43704407Y-16806246D01*
X43635177Y-15922259D01*
X38260128Y-15922259D01*
X38006128Y-15922259D01*
X32631079Y-15922259D01*
X32561849Y-16806246D01*
X-32561849Y-16806246D01*
X-32631079Y-15922259D01*
X-38006128Y-15922259D01*
X-38260128Y-15922259D01*
X-43635177Y-15922259D01*
X-43704407Y-16806246D01*
X-55348000Y-16806246D01*
X-55348000Y-14784272D01*
X-43704407Y-14784272D01*
X-43635177Y-15668259D01*
X-38260128Y-15668259D01*
X-38260128Y-10293210D01*
X-38006128Y-10293210D01*
X-38006128Y-15668259D01*
X-32631079Y-15668259D01*
X-32561849Y-14784272D01*
X32561849Y-14784272D01*
X32631079Y-15668259D01*
X38006128Y-15668259D01*
X38006128Y-10293210D01*
X38260128Y-10293210D01*
X38260128Y-15668259D01*
X43635177Y-15668259D01*
X43704407Y-14784272D01*
X43400123Y-13716795D01*
X42893431Y-12729192D01*
X42203803Y-11859417D01*
X41357741Y-11140894D01*
X40387759Y-10601236D01*
X39331133Y-10261181D01*
X39144115Y-10223980D01*
X38260128Y-10293210D01*
X38006128Y-10293210D01*
X37122141Y-10223980D01*
X36054664Y-10528264D01*
X35067061Y-11034956D01*
X34197286Y-11724584D01*
X33478763Y-12570646D01*
X32939105Y-13540628D01*
X32599050Y-14597254D01*
X32561849Y-14784272D01*
X-32561849Y-14784272D01*
X-32866133Y-13716795D01*
X-33372825Y-12729192D01*
X-34035873Y-11892940D01*
X-8707000Y-11892940D01*
X-8707000Y-12107060D01*
X-8665228Y-12317066D01*
X-8583287Y-12514888D01*
X-8464328Y-12692922D01*
X-8312922Y-12844328D01*
X-8134888Y-12963287D01*
X-7937066Y-13045228D01*
X-7727060Y-13087000D01*
X-7512940Y-13087000D01*
X-7302934Y-13045228D01*
X-7105112Y-12963287D01*
X-6985000Y-12883030D01*
X-6864888Y-12963287D01*
X-6667066Y-13045228D01*
X-6457060Y-13087000D01*
X-6242940Y-13087000D01*
X-6032934Y-13045228D01*
X-5835112Y-12963287D01*
X-5715000Y-12883030D01*
X-5594888Y-12963287D01*
X-5397066Y-13045228D01*
X-5187060Y-13087000D01*
X-4972940Y-13087000D01*
X-4762934Y-13045228D01*
X-4565112Y-12963287D01*
X-4445000Y-12883030D01*
X-4324888Y-12963287D01*
X-4127066Y-13045228D01*
X-3917060Y-13087000D01*
X-3702940Y-13087000D01*
X-3492934Y-13045228D01*
X-3295112Y-12963287D01*
X-3175000Y-12883030D01*
X-3054888Y-12963287D01*
X-2857066Y-13045228D01*
X-2647060Y-13087000D01*
X-2432940Y-13087000D01*
X-2222934Y-13045228D01*
X-2025112Y-12963287D01*
X-1905000Y-12883030D01*
X-1784888Y-12963287D01*
X-1587066Y-13045228D01*
X-1377060Y-13087000D01*
X-1162940Y-13087000D01*
X-952934Y-13045228D01*
X-755112Y-12963287D01*
X-635000Y-12883030D01*
X-514888Y-12963287D01*
X-317066Y-13045228D01*
X-107060Y-13087000D01*
X107060Y-13087000D01*
X317066Y-13045228D01*
X514888Y-12963287D01*
X635000Y-12883030D01*
X755112Y-12963287D01*
X952934Y-13045228D01*
X1162940Y-13087000D01*
X1377060Y-13087000D01*
X1587066Y-13045228D01*
X1784888Y-12963287D01*
X1905000Y-12883030D01*
X2025112Y-12963287D01*
X2222934Y-13045228D01*
X2432940Y-13087000D01*
X2647060Y-13087000D01*
X2857066Y-13045228D01*
X3054888Y-12963287D01*
X3175000Y-12883030D01*
X3295112Y-12963287D01*
X3492934Y-13045228D01*
X3702940Y-13087000D01*
X3917060Y-13087000D01*
X4127066Y-13045228D01*
X4324888Y-12963287D01*
X4445000Y-12883030D01*
X4565112Y-12963287D01*
X4762934Y-13045228D01*
X4972940Y-13087000D01*
X5187060Y-13087000D01*
X5397066Y-13045228D01*
X5594888Y-12963287D01*
X5715000Y-12883030D01*
X5835112Y-12963287D01*
X6032934Y-13045228D01*
X6242940Y-13087000D01*
X6457060Y-13087000D01*
X6667066Y-13045228D01*
X6864888Y-12963287D01*
X6985000Y-12883030D01*
X7105112Y-12963287D01*
X7302934Y-13045228D01*
X7512940Y-13087000D01*
X7727060Y-13087000D01*
X7937066Y-13045228D01*
X8134888Y-12963287D01*
X8312922Y-12844328D01*
X8464328Y-12692922D01*
X8583287Y-12514888D01*
X8665228Y-12317066D01*
X8707000Y-12107060D01*
X8707000Y-11892940D01*
X8665228Y-11682934D01*
X8583287Y-11485112D01*
X8464328Y-11307078D01*
X8312922Y-11155672D01*
X8134888Y-11036713D01*
X8071338Y-11010389D01*
X8072000Y-11007060D01*
X8072000Y-10792940D01*
X8030228Y-10582934D01*
X7948287Y-10385112D01*
X7829328Y-10207078D01*
X7677922Y-10055672D01*
X7499888Y-9936713D01*
X7302066Y-9854772D01*
X7092060Y-9813000D01*
X6877940Y-9813000D01*
X6667934Y-9854772D01*
X6470112Y-9936713D01*
X6350000Y-10016970D01*
X6229888Y-9936713D01*
X6032066Y-9854772D01*
X5822060Y-9813000D01*
X5607940Y-9813000D01*
X5397934Y-9854772D01*
X5200112Y-9936713D01*
X5080000Y-10016970D01*
X4959888Y-9936713D01*
X4762066Y-9854772D01*
X4552060Y-9813000D01*
X4337940Y-9813000D01*
X4127934Y-9854772D01*
X3930112Y-9936713D01*
X3810000Y-10016970D01*
X3689888Y-9936713D01*
X3492066Y-9854772D01*
X3282060Y-9813000D01*
X3067940Y-9813000D01*
X2857934Y-9854772D01*
X2660112Y-9936713D01*
X2540000Y-10016970D01*
X2419888Y-9936713D01*
X2222066Y-9854772D01*
X2012060Y-9813000D01*
X1797940Y-9813000D01*
X1587934Y-9854772D01*
X1390112Y-9936713D01*
X1270000Y-10016970D01*
X1149888Y-9936713D01*
X952066Y-9854772D01*
X742060Y-9813000D01*
X527940Y-9813000D01*
X317934Y-9854772D01*
X120112Y-9936713D01*
X0Y-10016970D01*
X-120112Y-9936713D01*
X-317934Y-9854772D01*
X-527940Y-9813000D01*
X-742060Y-9813000D01*
X-952066Y-9854772D01*
X-1149888Y-9936713D01*
X-1270000Y-10016970D01*
X-1390112Y-9936713D01*
X-1587934Y-9854772D01*
X-1797940Y-9813000D01*
X-2012060Y-9813000D01*
X-2222066Y-9854772D01*
X-2419888Y-9936713D01*
X-2540000Y-10016970D01*
X-2660112Y-9936713D01*
X-2857934Y-9854772D01*
X-3067940Y-9813000D01*
X-3282060Y-9813000D01*
X-3492066Y-9854772D01*
X-3689888Y-9936713D01*
X-3810000Y-10016970D01*
X-3930112Y-9936713D01*
X-4127934Y-9854772D01*
X-4337940Y-9813000D01*
X-4552060Y-9813000D01*
X-4762066Y-9854772D01*
X-4959888Y-9936713D01*
X-5080000Y-10016970D01*
X-5200112Y-9936713D01*
X-5397934Y-9854772D01*
X-5607940Y-9813000D01*
X-5822060Y-9813000D01*
X-6032066Y-9854772D01*
X-6229888Y-9936713D01*
X-6350000Y-10016970D01*
X-6470112Y-9936713D01*
X-6667934Y-9854772D01*
X-6877940Y-9813000D01*
X-7092060Y-9813000D01*
X-7302066Y-9854772D01*
X-7499888Y-9936713D01*
X-7677922Y-10055672D01*
X-7829328Y-10207078D01*
X-7948287Y-10385112D01*
X-8030228Y-10582934D01*
X-8072000Y-10792940D01*
X-8072000Y-11007060D01*
X-8071338Y-11010389D01*
X-8134888Y-11036713D01*
X-8312922Y-11155672D01*
X-8464328Y-11307078D01*
X-8583287Y-11485112D01*
X-8665228Y-11682934D01*
X-8707000Y-11892940D01*
X-34035873Y-11892940D01*
X-34062453Y-11859417D01*
X-34908515Y-11140894D01*
X-35878497Y-10601236D01*
X-36935123Y-10261181D01*
X-37122141Y-10223980D01*
X-38006128Y-10293210D01*
X-38260128Y-10293210D01*
X-39144115Y-10223980D01*
X-40211592Y-10528264D01*
X-41199195Y-11034956D01*
X-42068970Y-11724584D01*
X-42787493Y-12570646D01*
X-43327151Y-13540628D01*
X-43667206Y-14597254D01*
X-43704407Y-14784272D01*
X-55348000Y-14784272D01*
X-55348000Y107060D01*
X-8707000Y107060D01*
X-8707000Y-107060D01*
X-8665228Y-317066D01*
X-8583287Y-514888D01*
X-8464328Y-692922D01*
X-8312922Y-844328D01*
X-8134888Y-963287D01*
X-7937066Y-1045228D01*
X-7727060Y-1087000D01*
X-7512940Y-1087000D01*
X-7302934Y-1045228D01*
X-7105112Y-963287D01*
X-6985000Y-883030D01*
X-6864888Y-963287D01*
X-6667066Y-1045228D01*
X-6457060Y-1087000D01*
X-6242940Y-1087000D01*
X-6032934Y-1045228D01*
X-5835112Y-963287D01*
X-5715000Y-883030D01*
X-5594888Y-963287D01*
X-5397066Y-1045228D01*
X-5187060Y-1087000D01*
X-4972940Y-1087000D01*
X-4762934Y-1045228D01*
X-4565112Y-963287D01*
X-4445000Y-883030D01*
X-4324888Y-963287D01*
X-4127066Y-1045228D01*
X-3917060Y-1087000D01*
X-3702940Y-1087000D01*
X-3492934Y-1045228D01*
X-3295112Y-963287D01*
X-3175000Y-883030D01*
X-3054888Y-963287D01*
X-2857066Y-1045228D01*
X-2647060Y-1087000D01*
X-2432940Y-1087000D01*
X-2222934Y-1045228D01*
X-2025112Y-963287D01*
X-1905000Y-883030D01*
X-1784888Y-963287D01*
X-1587066Y-1045228D01*
X-1377060Y-1087000D01*
X-1162940Y-1087000D01*
X-952934Y-1045228D01*
X-755112Y-963287D01*
X-635000Y-883030D01*
X-514888Y-963287D01*
X-317066Y-1045228D01*
X-107060Y-1087000D01*
X107060Y-1087000D01*
X317066Y-1045228D01*
X514888Y-963287D01*
X635000Y-883030D01*
X755112Y-963287D01*
X952934Y-1045228D01*
X1162940Y-1087000D01*
X1377060Y-1087000D01*
X1587066Y-1045228D01*
X1784888Y-963287D01*
X1905000Y-883030D01*
X2025112Y-963287D01*
X2222934Y-1045228D01*
X2432940Y-1087000D01*
X2647060Y-1087000D01*
X2857066Y-1045228D01*
X3054888Y-963287D01*
X3175000Y-883030D01*
X3295112Y-963287D01*
X3492934Y-1045228D01*
X3702940Y-1087000D01*
X3917060Y-1087000D01*
X4127066Y-1045228D01*
X4324888Y-963287D01*
X4445000Y-883030D01*
X4565112Y-963287D01*
X4762934Y-1045228D01*
X4972940Y-1087000D01*
X5187060Y-1087000D01*
X5397066Y-1045228D01*
X5594888Y-963287D01*
X5715000Y-883030D01*
X5835112Y-963287D01*
X6032934Y-1045228D01*
X6242940Y-1087000D01*
X6457060Y-1087000D01*
X6667066Y-1045228D01*
X6864888Y-963287D01*
X6985000Y-883030D01*
X7105112Y-963287D01*
X7302934Y-1045228D01*
X7512940Y-1087000D01*
X7727060Y-1087000D01*
X7937066Y-1045228D01*
X8134888Y-963287D01*
X8312922Y-844328D01*
X8464328Y-692922D01*
X8583287Y-514888D01*
X8665228Y-317066D01*
X8707000Y-107060D01*
X8707000Y107060D01*
X8665228Y317066D01*
X8583287Y514888D01*
X8464328Y692922D01*
X8312922Y844328D01*
X8134888Y963287D01*
X8071338Y989611D01*
X8072000Y992940D01*
X8072000Y1207060D01*
X8030228Y1417066D01*
X7948287Y1614888D01*
X7829328Y1792922D01*
X7677922Y1944328D01*
X7499888Y2063287D01*
X7302066Y2145228D01*
X7092060Y2187000D01*
X6877940Y2187000D01*
X6667934Y2145228D01*
X6470112Y2063287D01*
X6350000Y1983030D01*
X6229888Y2063287D01*
X6032066Y2145228D01*
X5822060Y2187000D01*
X5607940Y2187000D01*
X5397934Y2145228D01*
X5200112Y2063287D01*
X5080000Y1983030D01*
X4959888Y2063287D01*
X4762066Y2145228D01*
X4552060Y2187000D01*
X4337940Y2187000D01*
X4127934Y2145228D01*
X3930112Y2063287D01*
X3810000Y1983030D01*
X3689888Y2063287D01*
X3492066Y2145228D01*
X3282060Y2187000D01*
X3067940Y2187000D01*
X2857934Y2145228D01*
X2660112Y2063287D01*
X2540000Y1983030D01*
X2419888Y2063287D01*
X2222066Y2145228D01*
X2012060Y2187000D01*
X1797940Y2187000D01*
X1587934Y2145228D01*
X1390112Y2063287D01*
X1270000Y1983030D01*
X1149888Y2063287D01*
X952066Y2145228D01*
X742060Y2187000D01*
X527940Y2187000D01*
X317934Y2145228D01*
X120112Y2063287D01*
X0Y1983030D01*
X-120112Y2063287D01*
X-317934Y2145228D01*
X-527940Y2187000D01*
X-742060Y2187000D01*
X-952066Y2145228D01*
X-1149888Y2063287D01*
X-1270000Y1983030D01*
X-1390112Y2063287D01*
X-1587934Y2145228D01*
X-1797940Y2187000D01*
X-2012060Y2187000D01*
X-2222066Y2145228D01*
X-2419888Y2063287D01*
X-2540000Y1983030D01*
X-2660112Y2063287D01*
X-2857934Y2145228D01*
X-3067940Y2187000D01*
X-3282060Y2187000D01*
X-3492066Y2145228D01*
X-3689888Y2063287D01*
X-3810000Y1983030D01*
X-3930112Y2063287D01*
X-4127934Y2145228D01*
X-4337940Y2187000D01*
X-4552060Y2187000D01*
X-4762066Y2145228D01*
X-4959888Y2063287D01*
X-5080000Y1983030D01*
X-5200112Y2063287D01*
X-5397934Y2145228D01*
X-5607940Y2187000D01*
X-5822060Y2187000D01*
X-6032066Y2145228D01*
X-6229888Y2063287D01*
X-6350000Y1983030D01*
X-6470112Y2063287D01*
X-6667934Y2145228D01*
X-6877940Y2187000D01*
X-7092060Y2187000D01*
X-7302066Y2145228D01*
X-7499888Y2063287D01*
X-7677922Y1944328D01*
X-7829328Y1792922D01*
X-7948287Y1614888D01*
X-8030228Y1417066D01*
X-8072000Y1207060D01*
X-8072000Y992940D01*
X-8071338Y989611D01*
X-8134888Y963287D01*
X-8312922Y844328D01*
X-8464328Y692922D01*
X-8583287Y514888D01*
X-8665228Y317066D01*
X-8707000Y107060D01*
X-55348000Y107060D01*
X-55348000Y14784272D01*
X-43704407Y14784272D01*
X-43400123Y13716795D01*
X-42893431Y12729192D01*
X-42203803Y11859417D01*
X-41357741Y11140894D01*
X-40387759Y10601236D01*
X-39331133Y10261181D01*
X-39144115Y10223980D01*
X-38260128Y10293210D01*
X-38260128Y15668259D01*
X-38006128Y15668259D01*
X-38006128Y10293210D01*
X-37122141Y10223980D01*
X-36054664Y10528264D01*
X-35067061Y11034956D01*
X-34197286Y11724584D01*
X-33872467Y12107060D01*
X-8707000Y12107060D01*
X-8707000Y11892940D01*
X-8665228Y11682934D01*
X-8583287Y11485112D01*
X-8464328Y11307078D01*
X-8312922Y11155672D01*
X-8134888Y11036713D01*
X-7937066Y10954772D01*
X-7727060Y10913000D01*
X-7512940Y10913000D01*
X-7302934Y10954772D01*
X-7105112Y11036713D01*
X-6985000Y11116970D01*
X-6864888Y11036713D01*
X-6667066Y10954772D01*
X-6457060Y10913000D01*
X-6242940Y10913000D01*
X-6032934Y10954772D01*
X-5835112Y11036713D01*
X-5715000Y11116970D01*
X-5594888Y11036713D01*
X-5397066Y10954772D01*
X-5187060Y10913000D01*
X-4972940Y10913000D01*
X-4762934Y10954772D01*
X-4565112Y11036713D01*
X-4445000Y11116970D01*
X-4324888Y11036713D01*
X-4127066Y10954772D01*
X-3917060Y10913000D01*
X-3702940Y10913000D01*
X-3492934Y10954772D01*
X-3295112Y11036713D01*
X-3175000Y11116970D01*
X-3054888Y11036713D01*
X-2857066Y10954772D01*
X-2647060Y10913000D01*
X-2432940Y10913000D01*
X-2222934Y10954772D01*
X-2025112Y11036713D01*
X-1905000Y11116970D01*
X-1784888Y11036713D01*
X-1587066Y10954772D01*
X-1377060Y10913000D01*
X-1162940Y10913000D01*
X-952934Y10954772D01*
X-755112Y11036713D01*
X-635000Y11116970D01*
X-514888Y11036713D01*
X-317066Y10954772D01*
X-107060Y10913000D01*
X107060Y10913000D01*
X317066Y10954772D01*
X514888Y11036713D01*
X635000Y11116970D01*
X755112Y11036713D01*
X952934Y10954772D01*
X1162940Y10913000D01*
X1377060Y10913000D01*
X1587066Y10954772D01*
X1784888Y11036713D01*
X1905000Y11116970D01*
X2025112Y11036713D01*
X2222934Y10954772D01*
X2432940Y10913000D01*
X2647060Y10913000D01*
X2857066Y10954772D01*
X3054888Y11036713D01*
X3175000Y11116970D01*
X3295112Y11036713D01*
X3492934Y10954772D01*
X3702940Y10913000D01*
X3917060Y10913000D01*
X4127066Y10954772D01*
X4324888Y11036713D01*
X4445000Y11116970D01*
X4565112Y11036713D01*
X4762934Y10954772D01*
X4972940Y10913000D01*
X5187060Y10913000D01*
X5397066Y10954772D01*
X5594888Y11036713D01*
X5715000Y11116970D01*
X5835112Y11036713D01*
X6032934Y10954772D01*
X6242940Y10913000D01*
X6457060Y10913000D01*
X6667066Y10954772D01*
X6864888Y11036713D01*
X6985000Y11116970D01*
X7105112Y11036713D01*
X7302934Y10954772D01*
X7512940Y10913000D01*
X7727060Y10913000D01*
X7937066Y10954772D01*
X8134888Y11036713D01*
X8312922Y11155672D01*
X8464328Y11307078D01*
X8583287Y11485112D01*
X8665228Y11682934D01*
X8707000Y11892940D01*
X8707000Y12107060D01*
X8665228Y12317066D01*
X8583287Y12514888D01*
X8464328Y12692922D01*
X8312922Y12844328D01*
X8134888Y12963287D01*
X8071338Y12989611D01*
X8072000Y12992940D01*
X8072000Y13207060D01*
X8030228Y13417066D01*
X7948287Y13614888D01*
X7829328Y13792922D01*
X7677922Y13944328D01*
X7499888Y14063287D01*
X7302066Y14145228D01*
X7092060Y14187000D01*
X6877940Y14187000D01*
X6667934Y14145228D01*
X6470112Y14063287D01*
X6350000Y13983030D01*
X6229888Y14063287D01*
X6032066Y14145228D01*
X5822060Y14187000D01*
X5607940Y14187000D01*
X5397934Y14145228D01*
X5200112Y14063287D01*
X5080000Y13983030D01*
X4959888Y14063287D01*
X4762066Y14145228D01*
X4552060Y14187000D01*
X4337940Y14187000D01*
X4127934Y14145228D01*
X3930112Y14063287D01*
X3810000Y13983030D01*
X3689888Y14063287D01*
X3492066Y14145228D01*
X3282060Y14187000D01*
X3067940Y14187000D01*
X2857934Y14145228D01*
X2660112Y14063287D01*
X2540000Y13983030D01*
X2419888Y14063287D01*
X2222066Y14145228D01*
X2012060Y14187000D01*
X1797940Y14187000D01*
X1587934Y14145228D01*
X1390112Y14063287D01*
X1270000Y13983030D01*
X1149888Y14063287D01*
X952066Y14145228D01*
X742060Y14187000D01*
X527940Y14187000D01*
X317934Y14145228D01*
X120112Y14063287D01*
X0Y13983030D01*
X-120112Y14063287D01*
X-317934Y14145228D01*
X-527940Y14187000D01*
X-742060Y14187000D01*
X-952066Y14145228D01*
X-1149888Y14063287D01*
X-1270000Y13983030D01*
X-1390112Y14063287D01*
X-1587934Y14145228D01*
X-1797940Y14187000D01*
X-2012060Y14187000D01*
X-2222066Y14145228D01*
X-2419888Y14063287D01*
X-2540000Y13983030D01*
X-2660112Y14063287D01*
X-2857934Y14145228D01*
X-3067940Y14187000D01*
X-3282060Y14187000D01*
X-3492066Y14145228D01*
X-3689888Y14063287D01*
X-3810000Y13983030D01*
X-3930112Y14063287D01*
X-4127934Y14145228D01*
X-4337940Y14187000D01*
X-4552060Y14187000D01*
X-4762066Y14145228D01*
X-4959888Y14063287D01*
X-5080000Y13983030D01*
X-5200112Y14063287D01*
X-5397934Y14145228D01*
X-5607940Y14187000D01*
X-5822060Y14187000D01*
X-6032066Y14145228D01*
X-6229888Y14063287D01*
X-6350000Y13983030D01*
X-6470112Y14063287D01*
X-6667934Y14145228D01*
X-6877940Y14187000D01*
X-7092060Y14187000D01*
X-7302066Y14145228D01*
X-7499888Y14063287D01*
X-7677922Y13944328D01*
X-7829328Y13792922D01*
X-7948287Y13614888D01*
X-8030228Y13417066D01*
X-8072000Y13207060D01*
X-8072000Y12992940D01*
X-8071338Y12989611D01*
X-8134888Y12963287D01*
X-8312922Y12844328D01*
X-8464328Y12692922D01*
X-8583287Y12514888D01*
X-8665228Y12317066D01*
X-8707000Y12107060D01*
X-33872467Y12107060D01*
X-33478763Y12570646D01*
X-32939105Y13540628D01*
X-32599050Y14597254D01*
X-32561849Y14784272D01*
X32561849Y14784272D01*
X32866133Y13716795D01*
X33372825Y12729192D01*
X34062453Y11859417D01*
X34908515Y11140894D01*
X35878497Y10601236D01*
X36935123Y10261181D01*
X37122141Y10223980D01*
X38006128Y10293210D01*
X38006128Y15668259D01*
X38260128Y15668259D01*
X38260128Y10293210D01*
X39144115Y10223980D01*
X40211592Y10528264D01*
X41199195Y11034956D01*
X42068970Y11724584D01*
X42787493Y12570646D01*
X43327151Y13540628D01*
X43667206Y14597254D01*
X43704407Y14784272D01*
X43635177Y15668259D01*
X38260128Y15668259D01*
X38006128Y15668259D01*
X32631079Y15668259D01*
X32561849Y14784272D01*
X-32561849Y14784272D01*
X-32631079Y15668259D01*
X-38006128Y15668259D01*
X-38260128Y15668259D01*
X-43635177Y15668259D01*
X-43704407Y14784272D01*
X-55348000Y14784272D01*
X-55348000Y16806246D01*
X-43704407Y16806246D01*
X-43635177Y15922259D01*
X-38260128Y15922259D01*
X-38260128Y21297308D01*
X-38006128Y21297308D01*
X-38006128Y15922259D01*
X-32631079Y15922259D01*
X-32561849Y16806246D01*
X32561849Y16806246D01*
X32631079Y15922259D01*
X38006128Y15922259D01*
X38006128Y21297308D01*
X38260128Y21297308D01*
X38260128Y15922259D01*
X43635177Y15922259D01*
X43704407Y16806246D01*
X43400123Y17873723D01*
X42893431Y18861326D01*
X42203803Y19731101D01*
X41357741Y20449624D01*
X40387759Y20989282D01*
X39331133Y21329337D01*
X39144115Y21366538D01*
X38260128Y21297308D01*
X38006128Y21297308D01*
X37122141Y21366538D01*
X36054664Y21062254D01*
X35067061Y20555562D01*
X34197286Y19865934D01*
X33478763Y19019872D01*
X32939105Y18049890D01*
X32599050Y16993264D01*
X32561849Y16806246D01*
X-32561849Y16806246D01*
X-32866133Y17873723D01*
X-33372825Y18861326D01*
X-34062453Y19731101D01*
X-34908515Y20449624D01*
X-35878497Y20989282D01*
X-36935123Y21329337D01*
X-37122141Y21366538D01*
X-38006128Y21297308D01*
X-38260128Y21297308D01*
X-39144115Y21366538D01*
X-40211592Y21062254D01*
X-41199195Y20555562D01*
X-42068970Y19865934D01*
X-42787493Y19019872D01*
X-43327151Y18049890D01*
X-43667206Y16993264D01*
X-43704407Y16806246D01*
X-55348000Y16806246D01*
X-55348000Y37122141D01*
X-21366538Y37122141D01*
X-21062254Y36054664D01*
X-20555562Y35067061D01*
X-19865934Y34197286D01*
X-19019872Y33478763D01*
X-18049890Y32939105D01*
X-16993264Y32599050D01*
X-16806246Y32561849D01*
X-15922259Y32631079D01*
X-15922259Y38006128D01*
X-15668259Y38006128D01*
X-15668259Y32631079D01*
X-14784272Y32561849D01*
X-13716795Y32866133D01*
X-12729192Y33372825D01*
X-11859417Y34062453D01*
X-11140894Y34908515D01*
X-10601236Y35878497D01*
X-10261181Y36935123D01*
X-10223980Y37122141D01*
X10223980Y37122141D01*
X10528264Y36054664D01*
X11034956Y35067061D01*
X11724584Y34197286D01*
X12570646Y33478763D01*
X13540628Y32939105D01*
X14597254Y32599050D01*
X14784272Y32561849D01*
X15668259Y32631079D01*
X15668259Y38006128D01*
X15922259Y38006128D01*
X15922259Y32631079D01*
X16806246Y32561849D01*
X17873723Y32866133D01*
X18861326Y33372825D01*
X19731101Y34062453D01*
X20449624Y34908515D01*
X20989282Y35878497D01*
X21329337Y36935123D01*
X21366538Y37122141D01*
X21297308Y38006128D01*
X15922259Y38006128D01*
X15668259Y38006128D01*
X10293210Y38006128D01*
X10223980Y37122141D01*
X-10223980Y37122141D01*
X-10293210Y38006128D01*
X-15668259Y38006128D01*
X-15922259Y38006128D01*
X-21297308Y38006128D01*
X-21366538Y37122141D01*
X-55348000Y37122141D01*
X-55348000Y39144115D01*
X-21366538Y39144115D01*
X-21297308Y38260128D01*
X-15922259Y38260128D01*
X-15922259Y43635177D01*
X-15668259Y43635177D01*
X-15668259Y38260128D01*
X-10293210Y38260128D01*
X-10223980Y39144115D01*
X10223980Y39144115D01*
X10293210Y38260128D01*
X15668259Y38260128D01*
X15668259Y43635177D01*
X15922259Y43635177D01*
X15922259Y38260128D01*
X21297308Y38260128D01*
X21366538Y39144115D01*
X21062254Y40211592D01*
X20555562Y41199195D01*
X19865934Y42068970D01*
X19019872Y42787493D01*
X18049890Y43327151D01*
X16993264Y43667206D01*
X16806246Y43704407D01*
X15922259Y43635177D01*
X15668259Y43635177D01*
X14784272Y43704407D01*
X13716795Y43400123D01*
X12729192Y42893431D01*
X11859417Y42203803D01*
X11140894Y41357741D01*
X10601236Y40387759D01*
X10261181Y39331133D01*
X10223980Y39144115D01*
X-10223980Y39144115D01*
X-10528264Y40211592D01*
X-11034956Y41199195D01*
X-11724584Y42068970D01*
X-12570646Y42787493D01*
X-13540628Y43327151D01*
X-14597254Y43667206D01*
X-14784272Y43704407D01*
X-15668259Y43635177D01*
X-15922259Y43635177D01*
X-16806246Y43704407D01*
X-17873723Y43400123D01*
X-18861326Y42893431D01*
X-19731101Y42203803D01*
X-20449624Y41357741D01*
X-20989282Y40387759D01*
X-21329337Y39331133D01*
X-21366538Y39144115D01*
X-55348000Y39144115D01*
X-55348000Y67550000D01*
X-51883662Y67550000D01*
X-51857075Y67280061D01*
X-51778337Y67020495D01*
X-51650473Y66781279D01*
X-51478397Y66571603D01*
X-51268721Y66399527D01*
X-51029505Y66271663D01*
X-50769939Y66192925D01*
X-50567640Y66173000D01*
X-50442014Y66173000D01*
X-50554674Y66097723D01*
X-50697723Y65954674D01*
X-50810115Y65786467D01*
X-50887533Y65599565D01*
X-50927000Y65401151D01*
X-50927000Y65198849D01*
X-50887533Y65000435D01*
X-50810115Y64813533D01*
X-50804152Y64804609D01*
X-50809736Y64803981D01*
X-50890577Y64616816D01*
X-50933351Y64417477D01*
X-50936413Y64213623D01*
X-50899647Y64013088D01*
X-50824466Y63823580D01*
X-50809736Y63796019D01*
X-50804152Y63795391D01*
X-50810115Y63786467D01*
X-50887533Y63599565D01*
X-50927000Y63401151D01*
X-50927000Y63198849D01*
X-50887533Y63000435D01*
X-50810115Y62813533D01*
X-50801073Y62800000D01*
X-50810115Y62786467D01*
X-50887533Y62599565D01*
X-50927000Y62401151D01*
X-50927000Y62198849D01*
X-50887533Y62000435D01*
X-50810115Y61813533D01*
X-50804152Y61804609D01*
X-50809736Y61803981D01*
X-50890577Y61616816D01*
X-50933351Y61417477D01*
X-50936413Y61213623D01*
X-50899647Y61013088D01*
X-50824466Y60823580D01*
X-50809736Y60796019D01*
X-50804152Y60795391D01*
X-50810115Y60786467D01*
X-50887533Y60599565D01*
X-50927000Y60401151D01*
X-50927000Y60198849D01*
X-50887533Y60000435D01*
X-50810115Y59813533D01*
X-50801073Y59800000D01*
X-50810115Y59786467D01*
X-50887533Y59599565D01*
X-50927000Y59401151D01*
X-50927000Y59198849D01*
X-50887533Y59000435D01*
X-50810115Y58813533D01*
X-50804152Y58804609D01*
X-50809736Y58803981D01*
X-50890577Y58616816D01*
X-50933351Y58417477D01*
X-50936413Y58213623D01*
X-50899647Y58013088D01*
X-50824466Y57823580D01*
X-50809736Y57796019D01*
X-50804152Y57795391D01*
X-50810115Y57786467D01*
X-50887533Y57599565D01*
X-50927000Y57401151D01*
X-50927000Y57198849D01*
X-50887533Y57000435D01*
X-50810115Y56813533D01*
X-50801073Y56800000D01*
X-50810115Y56786467D01*
X-50887533Y56599565D01*
X-50927000Y56401151D01*
X-50927000Y56198849D01*
X-50887533Y56000435D01*
X-50810115Y55813533D01*
X-50697723Y55645326D01*
X-50554674Y55502277D01*
X-50442014Y55427000D01*
X-50567640Y55427000D01*
X-50769939Y55407075D01*
X-51029505Y55328337D01*
X-51268721Y55200473D01*
X-51478397Y55028397D01*
X-51650473Y54818721D01*
X-51778337Y54579505D01*
X-51857075Y54319939D01*
X-51883662Y54050000D01*
X-51857075Y53780061D01*
X-51778337Y53520495D01*
X-51650473Y53281279D01*
X-51478397Y53071603D01*
X-51268721Y52899527D01*
X-51029505Y52771663D01*
X-50769939Y52692925D01*
X-50567640Y52673000D01*
X-47432360Y52673000D01*
X-47230061Y52692925D01*
X-46970495Y52771663D01*
X-46731279Y52899527D01*
X-46521603Y53071603D01*
X-46349527Y53281279D01*
X-46221663Y53520495D01*
X-46142925Y53780061D01*
X-46116338Y54050000D01*
X-46142925Y54319939D01*
X-46221663Y54579505D01*
X-46349527Y54818721D01*
X-46521603Y55028397D01*
X-46731279Y55200473D01*
X-46970495Y55328337D01*
X-47230061Y55407075D01*
X-47432360Y55427000D01*
X-49357986Y55427000D01*
X-49245326Y55502277D01*
X-49102277Y55645326D01*
X-48989885Y55813533D01*
X-48912467Y56000435D01*
X-48893944Y56093559D01*
X-48626836Y56093559D01*
X-48603981Y55890264D01*
X-48416816Y55809423D01*
X-48217477Y55766649D01*
X-48013623Y55763587D01*
X-47813088Y55800353D01*
X-47623580Y55875534D01*
X-47596019Y55890264D01*
X-47573164Y56093559D01*
X-48100000Y56620395D01*
X-48626836Y56093559D01*
X-48893944Y56093559D01*
X-48873000Y56198849D01*
X-48873000Y56280647D01*
X-48806441Y56273164D01*
X-48289109Y56790496D01*
X-48201151Y56773000D01*
X-47998849Y56773000D01*
X-47910891Y56790496D01*
X-47393559Y56273164D01*
X-47190264Y56296019D01*
X-47109423Y56483184D01*
X-47066649Y56682523D01*
X-47063587Y56886377D01*
X-47100353Y57086912D01*
X-47175534Y57276420D01*
X-47190264Y57303981D01*
X-47195848Y57304609D01*
X-47189885Y57313533D01*
X-47112467Y57500435D01*
X-47073000Y57698849D01*
X-47073000Y57901151D01*
X-47112467Y58099565D01*
X-47189885Y58286467D01*
X-47198927Y58300000D01*
X-47189885Y58313533D01*
X-47112467Y58500435D01*
X-47073000Y58698849D01*
X-47073000Y58901151D01*
X-47112467Y59099565D01*
X-47189885Y59286467D01*
X-47195848Y59295391D01*
X-47190264Y59296019D01*
X-47109423Y59483184D01*
X-47066649Y59682523D01*
X-47063587Y59886377D01*
X-47100353Y60086912D01*
X-47175534Y60276420D01*
X-47190264Y60303981D01*
X-47195848Y60304609D01*
X-47189885Y60313533D01*
X-47112467Y60500435D01*
X-47073000Y60698849D01*
X-47073000Y60901151D01*
X-47112467Y61099565D01*
X-47189885Y61286467D01*
X-47198927Y61300000D01*
X-47189885Y61313533D01*
X-47112467Y61500435D01*
X-47073000Y61698849D01*
X-47073000Y61901151D01*
X-47112467Y62099565D01*
X-47189885Y62286467D01*
X-47198927Y62300000D01*
X-47189885Y62313533D01*
X-47112467Y62500435D01*
X-47073000Y62698849D01*
X-47073000Y62901151D01*
X-47112467Y63099565D01*
X-47189885Y63286467D01*
X-47198927Y63300000D01*
X-47189885Y63313533D01*
X-47112467Y63500435D01*
X-47073000Y63698849D01*
X-47073000Y63901151D01*
X-47112467Y64099565D01*
X-47189885Y64286467D01*
X-47198927Y64300000D01*
X-47189885Y64313533D01*
X-47112467Y64500435D01*
X-47073000Y64698849D01*
X-47073000Y64901151D01*
X-47112467Y65099565D01*
X-47189885Y65286467D01*
X-47302277Y65454674D01*
X-47445326Y65597723D01*
X-47613533Y65710115D01*
X-47800435Y65787533D01*
X-47998849Y65827000D01*
X-48201151Y65827000D01*
X-48399565Y65787533D01*
X-48586467Y65710115D01*
X-48754674Y65597723D01*
X-48885982Y65466415D01*
X-48912467Y65599565D01*
X-48989885Y65786467D01*
X-49102277Y65954674D01*
X-49245326Y66097723D01*
X-49357986Y66173000D01*
X-47432360Y66173000D01*
X-47230061Y66192925D01*
X-46970495Y66271663D01*
X-46731279Y66399527D01*
X-46521603Y66571603D01*
X-46349527Y66781279D01*
X-46221663Y67020495D01*
X-46142925Y67280061D01*
X-46116338Y67550000D01*
X-32883662Y67550000D01*
X-32857075Y67280061D01*
X-32778337Y67020495D01*
X-32650473Y66781279D01*
X-32478397Y66571603D01*
X-32268721Y66399527D01*
X-32029505Y66271663D01*
X-31769939Y66192925D01*
X-31567640Y66173000D01*
X-31442014Y66173000D01*
X-31554674Y66097723D01*
X-31697723Y65954674D01*
X-31810115Y65786467D01*
X-31887533Y65599565D01*
X-31927000Y65401151D01*
X-31927000Y65198849D01*
X-31887533Y65000435D01*
X-31810115Y64813533D01*
X-31804152Y64804609D01*
X-31809736Y64803981D01*
X-31890577Y64616816D01*
X-31933351Y64417477D01*
X-31936413Y64213623D01*
X-31899647Y64013088D01*
X-31824466Y63823580D01*
X-31809736Y63796019D01*
X-31804152Y63795391D01*
X-31810115Y63786467D01*
X-31887533Y63599565D01*
X-31927000Y63401151D01*
X-31927000Y63198849D01*
X-31887533Y63000435D01*
X-31810115Y62813533D01*
X-31801073Y62800000D01*
X-31810115Y62786467D01*
X-31887533Y62599565D01*
X-31927000Y62401151D01*
X-31927000Y62198849D01*
X-31887533Y62000435D01*
X-31810115Y61813533D01*
X-31804152Y61804609D01*
X-31809736Y61803981D01*
X-31890577Y61616816D01*
X-31933351Y61417477D01*
X-31936413Y61213623D01*
X-31899647Y61013088D01*
X-31824466Y60823580D01*
X-31809736Y60796019D01*
X-31804152Y60795391D01*
X-31810115Y60786467D01*
X-31887533Y60599565D01*
X-31927000Y60401151D01*
X-31927000Y60198849D01*
X-31887533Y60000435D01*
X-31810115Y59813533D01*
X-31801073Y59800000D01*
X-31810115Y59786467D01*
X-31887533Y59599565D01*
X-31927000Y59401151D01*
X-31927000Y59198849D01*
X-31887533Y59000435D01*
X-31810115Y58813533D01*
X-31804152Y58804609D01*
X-31809736Y58803981D01*
X-31890577Y58616816D01*
X-31933351Y58417477D01*
X-31936413Y58213623D01*
X-31899647Y58013088D01*
X-31824466Y57823580D01*
X-31809736Y57796019D01*
X-31804152Y57795391D01*
X-31810115Y57786467D01*
X-31887533Y57599565D01*
X-31927000Y57401151D01*
X-31927000Y57198849D01*
X-31887533Y57000435D01*
X-31810115Y56813533D01*
X-31801073Y56800000D01*
X-31810115Y56786467D01*
X-31887533Y56599565D01*
X-31927000Y56401151D01*
X-31927000Y56198849D01*
X-31887533Y56000435D01*
X-31810115Y55813533D01*
X-31697723Y55645326D01*
X-31554674Y55502277D01*
X-31442014Y55427000D01*
X-31567640Y55427000D01*
X-31769939Y55407075D01*
X-32029505Y55328337D01*
X-32268721Y55200473D01*
X-32478397Y55028397D01*
X-32650473Y54818721D01*
X-32778337Y54579505D01*
X-32857075Y54319939D01*
X-32883662Y54050000D01*
X-32857075Y53780061D01*
X-32778337Y53520495D01*
X-32650473Y53281279D01*
X-32478397Y53071603D01*
X-32268721Y52899527D01*
X-32029505Y52771663D01*
X-31769939Y52692925D01*
X-31567640Y52673000D01*
X-28432360Y52673000D01*
X-28230061Y52692925D01*
X-27970495Y52771663D01*
X-27731279Y52899527D01*
X-27521603Y53071603D01*
X-27349527Y53281279D01*
X-27221663Y53520495D01*
X-27142925Y53780061D01*
X-27116338Y54050000D01*
X-27142925Y54319939D01*
X-27221663Y54579505D01*
X-27349527Y54818721D01*
X-27521603Y55028397D01*
X-27731279Y55200473D01*
X-27970495Y55328337D01*
X-28230061Y55407075D01*
X-28432360Y55427000D01*
X-30357986Y55427000D01*
X-30245326Y55502277D01*
X-30102277Y55645326D01*
X-29989885Y55813533D01*
X-29912467Y56000435D01*
X-29893944Y56093559D01*
X-29626836Y56093559D01*
X-29603981Y55890264D01*
X-29416816Y55809423D01*
X-29217477Y55766649D01*
X-29013623Y55763587D01*
X-28813088Y55800353D01*
X-28623580Y55875534D01*
X-28596019Y55890264D01*
X-28573164Y56093559D01*
X-29100000Y56620395D01*
X-29626836Y56093559D01*
X-29893944Y56093559D01*
X-29873000Y56198849D01*
X-29873000Y56280647D01*
X-29806441Y56273164D01*
X-29289109Y56790496D01*
X-29201151Y56773000D01*
X-28998849Y56773000D01*
X-28910891Y56790496D01*
X-28393559Y56273164D01*
X-28190264Y56296019D01*
X-28109423Y56483184D01*
X-28066649Y56682523D01*
X-28063587Y56886377D01*
X-28100353Y57086912D01*
X-28175534Y57276420D01*
X-28190264Y57303981D01*
X-28195848Y57304609D01*
X-28189885Y57313533D01*
X-28112467Y57500435D01*
X-28073000Y57698849D01*
X-28073000Y57901151D01*
X-28112467Y58099565D01*
X-28189885Y58286467D01*
X-28198927Y58300000D01*
X-28189885Y58313533D01*
X-28112467Y58500435D01*
X-28073000Y58698849D01*
X-28073000Y58901151D01*
X-28112467Y59099565D01*
X-28189885Y59286467D01*
X-28195848Y59295391D01*
X-28190264Y59296019D01*
X-28109423Y59483184D01*
X-28066649Y59682523D01*
X-28063587Y59886377D01*
X-28100353Y60086912D01*
X-28175534Y60276420D01*
X-28190264Y60303981D01*
X-28195848Y60304609D01*
X-28189885Y60313533D01*
X-28112467Y60500435D01*
X-28073000Y60698849D01*
X-28073000Y60901151D01*
X-28112467Y61099565D01*
X-28189885Y61286467D01*
X-28198927Y61300000D01*
X-28189885Y61313533D01*
X-28112467Y61500435D01*
X-28073000Y61698849D01*
X-28073000Y61901151D01*
X-28112467Y62099565D01*
X-28189885Y62286467D01*
X-28198927Y62300000D01*
X-28189885Y62313533D01*
X-28112467Y62500435D01*
X-28073000Y62698849D01*
X-28073000Y62901151D01*
X-28112467Y63099565D01*
X-28189885Y63286467D01*
X-28198927Y63300000D01*
X-28189885Y63313533D01*
X-28112467Y63500435D01*
X-28073000Y63698849D01*
X-28073000Y63901151D01*
X-28112467Y64099565D01*
X-28189885Y64286467D01*
X-28198927Y64300000D01*
X-28189885Y64313533D01*
X-28112467Y64500435D01*
X-28073000Y64698849D01*
X-28073000Y64901151D01*
X-28112467Y65099565D01*
X-28189885Y65286467D01*
X-28302277Y65454674D01*
X-28445326Y65597723D01*
X-28613533Y65710115D01*
X-28800435Y65787533D01*
X-28998849Y65827000D01*
X-29201151Y65827000D01*
X-29399565Y65787533D01*
X-29586467Y65710115D01*
X-29754674Y65597723D01*
X-29885982Y65466415D01*
X-29912467Y65599565D01*
X-29989885Y65786467D01*
X-30102277Y65954674D01*
X-30245326Y66097723D01*
X-30357986Y66173000D01*
X-28432360Y66173000D01*
X-28230061Y66192925D01*
X-27970495Y66271663D01*
X-27731279Y66399527D01*
X-27521603Y66571603D01*
X-27349527Y66781279D01*
X-27221663Y67020495D01*
X-27142925Y67280061D01*
X-27116338Y67550000D01*
X-13883662Y67550000D01*
X-13857075Y67280061D01*
X-13778337Y67020495D01*
X-13650473Y66781279D01*
X-13478397Y66571603D01*
X-13268721Y66399527D01*
X-13029505Y66271663D01*
X-12769939Y66192925D01*
X-12567640Y66173000D01*
X-12442014Y66173000D01*
X-12554674Y66097723D01*
X-12697723Y65954674D01*
X-12810115Y65786467D01*
X-12887533Y65599565D01*
X-12927000Y65401151D01*
X-12927000Y65198849D01*
X-12887533Y65000435D01*
X-12810115Y64813533D01*
X-12804152Y64804609D01*
X-12809736Y64803981D01*
X-12890577Y64616816D01*
X-12933351Y64417477D01*
X-12936413Y64213623D01*
X-12899647Y64013088D01*
X-12824466Y63823580D01*
X-12809736Y63796019D01*
X-12804152Y63795391D01*
X-12810115Y63786467D01*
X-12887533Y63599565D01*
X-12927000Y63401151D01*
X-12927000Y63198849D01*
X-12887533Y63000435D01*
X-12810115Y62813533D01*
X-12801073Y62800000D01*
X-12810115Y62786467D01*
X-12887533Y62599565D01*
X-12927000Y62401151D01*
X-12927000Y62198849D01*
X-12887533Y62000435D01*
X-12810115Y61813533D01*
X-12804152Y61804609D01*
X-12809736Y61803981D01*
X-12890577Y61616816D01*
X-12933351Y61417477D01*
X-12936413Y61213623D01*
X-12899647Y61013088D01*
X-12824466Y60823580D01*
X-12809736Y60796019D01*
X-12804152Y60795391D01*
X-12810115Y60786467D01*
X-12887533Y60599565D01*
X-12927000Y60401151D01*
X-12927000Y60198849D01*
X-12887533Y60000435D01*
X-12810115Y59813533D01*
X-12801073Y59800000D01*
X-12810115Y59786467D01*
X-12887533Y59599565D01*
X-12927000Y59401151D01*
X-12927000Y59198849D01*
X-12887533Y59000435D01*
X-12810115Y58813533D01*
X-12804152Y58804609D01*
X-12809736Y58803981D01*
X-12890577Y58616816D01*
X-12933351Y58417477D01*
X-12936413Y58213623D01*
X-12899647Y58013088D01*
X-12824466Y57823580D01*
X-12809736Y57796019D01*
X-12804152Y57795391D01*
X-12810115Y57786467D01*
X-12887533Y57599565D01*
X-12927000Y57401151D01*
X-12927000Y57198849D01*
X-12887533Y57000435D01*
X-12810115Y56813533D01*
X-12801073Y56800000D01*
X-12810115Y56786467D01*
X-12887533Y56599565D01*
X-12927000Y56401151D01*
X-12927000Y56198849D01*
X-12887533Y56000435D01*
X-12810115Y55813533D01*
X-12697723Y55645326D01*
X-12554674Y55502277D01*
X-12442014Y55427000D01*
X-12567640Y55427000D01*
X-12769939Y55407075D01*
X-13029505Y55328337D01*
X-13268721Y55200473D01*
X-13478397Y55028397D01*
X-13650473Y54818721D01*
X-13778337Y54579505D01*
X-13857075Y54319939D01*
X-13883662Y54050000D01*
X-13857075Y53780061D01*
X-13778337Y53520495D01*
X-13650473Y53281279D01*
X-13478397Y53071603D01*
X-13268721Y52899527D01*
X-13029505Y52771663D01*
X-12769939Y52692925D01*
X-12567640Y52673000D01*
X-9432360Y52673000D01*
X-9230061Y52692925D01*
X-8970495Y52771663D01*
X-8731279Y52899527D01*
X-8521603Y53071603D01*
X-8349527Y53281279D01*
X-8221663Y53520495D01*
X-8142925Y53780061D01*
X-8116338Y54050000D01*
X-8142925Y54319939D01*
X-8221663Y54579505D01*
X-8349527Y54818721D01*
X-8521603Y55028397D01*
X-8731279Y55200473D01*
X-8970495Y55328337D01*
X-9230061Y55407075D01*
X-9432360Y55427000D01*
X-11357986Y55427000D01*
X-11245326Y55502277D01*
X-11102277Y55645326D01*
X-10989885Y55813533D01*
X-10912467Y56000435D01*
X-10893944Y56093559D01*
X-10626836Y56093559D01*
X-10603981Y55890264D01*
X-10416816Y55809423D01*
X-10217477Y55766649D01*
X-10013623Y55763587D01*
X-9813088Y55800353D01*
X-9623580Y55875534D01*
X-9596019Y55890264D01*
X-9573164Y56093559D01*
X-10100000Y56620395D01*
X-10626836Y56093559D01*
X-10893944Y56093559D01*
X-10873000Y56198849D01*
X-10873000Y56280647D01*
X-10806441Y56273164D01*
X-10289109Y56790496D01*
X-10201151Y56773000D01*
X-9998849Y56773000D01*
X-9910891Y56790496D01*
X-9393559Y56273164D01*
X-9190264Y56296019D01*
X-9109423Y56483184D01*
X-9066649Y56682523D01*
X-9063587Y56886377D01*
X-9100353Y57086912D01*
X-9175534Y57276420D01*
X-9190264Y57303981D01*
X-9195848Y57304609D01*
X-9189885Y57313533D01*
X-9112467Y57500435D01*
X-9073000Y57698849D01*
X-9073000Y57901151D01*
X-9112467Y58099565D01*
X-9189885Y58286467D01*
X-9198927Y58300000D01*
X-9189885Y58313533D01*
X-9112467Y58500435D01*
X-9073000Y58698849D01*
X-9073000Y58901151D01*
X-9112467Y59099565D01*
X-9189885Y59286467D01*
X-9195848Y59295391D01*
X-9190264Y59296019D01*
X-9109423Y59483184D01*
X-9066649Y59682523D01*
X-9063587Y59886377D01*
X-9100353Y60086912D01*
X-9175534Y60276420D01*
X-9190264Y60303981D01*
X-9195848Y60304609D01*
X-9189885Y60313533D01*
X-9112467Y60500435D01*
X-9073000Y60698849D01*
X-9073000Y60901151D01*
X-9112467Y61099565D01*
X-9189885Y61286467D01*
X-9198927Y61300000D01*
X-9189885Y61313533D01*
X-9112467Y61500435D01*
X-9073000Y61698849D01*
X-9073000Y61901151D01*
X-9112467Y62099565D01*
X-9189885Y62286467D01*
X-9198927Y62300000D01*
X-9189885Y62313533D01*
X-9112467Y62500435D01*
X-9073000Y62698849D01*
X-9073000Y62901151D01*
X-9112467Y63099565D01*
X-9189885Y63286467D01*
X-9198927Y63300000D01*
X-9189885Y63313533D01*
X-9112467Y63500435D01*
X-9073000Y63698849D01*
X-9073000Y63901151D01*
X-9112467Y64099565D01*
X-9189885Y64286467D01*
X-9198927Y64300000D01*
X-9189885Y64313533D01*
X-9112467Y64500435D01*
X-9073000Y64698849D01*
X-9073000Y64901151D01*
X-9112467Y65099565D01*
X-9189885Y65286467D01*
X-9302277Y65454674D01*
X-9445326Y65597723D01*
X-9613533Y65710115D01*
X-9800435Y65787533D01*
X-9998849Y65827000D01*
X-10201151Y65827000D01*
X-10399565Y65787533D01*
X-10586467Y65710115D01*
X-10754674Y65597723D01*
X-10885982Y65466415D01*
X-10912467Y65599565D01*
X-10989885Y65786467D01*
X-11102277Y65954674D01*
X-11245326Y66097723D01*
X-11357986Y66173000D01*
X-9432360Y66173000D01*
X-9230061Y66192925D01*
X-8970495Y66271663D01*
X-8731279Y66399527D01*
X-8521603Y66571603D01*
X-8349527Y66781279D01*
X-8221663Y67020495D01*
X-8142925Y67280061D01*
X-8116338Y67550000D01*
X8116338Y67550000D01*
X8142925Y67280061D01*
X8221663Y67020495D01*
X8349527Y66781279D01*
X8521603Y66571603D01*
X8731279Y66399527D01*
X8970495Y66271663D01*
X9230061Y66192925D01*
X9432360Y66173000D01*
X9557986Y66173000D01*
X9445326Y66097723D01*
X9302277Y65954674D01*
X9189885Y65786467D01*
X9112467Y65599565D01*
X9073000Y65401151D01*
X9073000Y65198849D01*
X9112467Y65000435D01*
X9189885Y64813533D01*
X9195848Y64804609D01*
X9190264Y64803981D01*
X9109423Y64616816D01*
X9066649Y64417477D01*
X9063587Y64213623D01*
X9100353Y64013088D01*
X9175534Y63823580D01*
X9190264Y63796019D01*
X9195848Y63795391D01*
X9189885Y63786467D01*
X9112467Y63599565D01*
X9073000Y63401151D01*
X9073000Y63198849D01*
X9112467Y63000435D01*
X9189885Y62813533D01*
X9198927Y62800000D01*
X9189885Y62786467D01*
X9112467Y62599565D01*
X9073000Y62401151D01*
X9073000Y62198849D01*
X9112467Y62000435D01*
X9189885Y61813533D01*
X9195848Y61804609D01*
X9190264Y61803981D01*
X9109423Y61616816D01*
X9066649Y61417477D01*
X9063587Y61213623D01*
X9100353Y61013088D01*
X9175534Y60823580D01*
X9190264Y60796019D01*
X9195848Y60795391D01*
X9189885Y60786467D01*
X9112467Y60599565D01*
X9073000Y60401151D01*
X9073000Y60198849D01*
X9112467Y60000435D01*
X9189885Y59813533D01*
X9198927Y59800000D01*
X9189885Y59786467D01*
X9112467Y59599565D01*
X9073000Y59401151D01*
X9073000Y59198849D01*
X9112467Y59000435D01*
X9189885Y58813533D01*
X9195848Y58804609D01*
X9190264Y58803981D01*
X9109423Y58616816D01*
X9066649Y58417477D01*
X9063587Y58213623D01*
X9100353Y58013088D01*
X9175534Y57823580D01*
X9190264Y57796019D01*
X9195848Y57795391D01*
X9189885Y57786467D01*
X9112467Y57599565D01*
X9073000Y57401151D01*
X9073000Y57198849D01*
X9112467Y57000435D01*
X9189885Y56813533D01*
X9198927Y56800000D01*
X9189885Y56786467D01*
X9112467Y56599565D01*
X9073000Y56401151D01*
X9073000Y56198849D01*
X9112467Y56000435D01*
X9189885Y55813533D01*
X9302277Y55645326D01*
X9445326Y55502277D01*
X9557986Y55427000D01*
X9432360Y55427000D01*
X9230061Y55407075D01*
X8970495Y55328337D01*
X8731279Y55200473D01*
X8521603Y55028397D01*
X8349527Y54818721D01*
X8221663Y54579505D01*
X8142925Y54319939D01*
X8116338Y54050000D01*
X8142925Y53780061D01*
X8221663Y53520495D01*
X8349527Y53281279D01*
X8521603Y53071603D01*
X8731279Y52899527D01*
X8970495Y52771663D01*
X9230061Y52692925D01*
X9432360Y52673000D01*
X12567640Y52673000D01*
X12769939Y52692925D01*
X13029505Y52771663D01*
X13268721Y52899527D01*
X13478397Y53071603D01*
X13650473Y53281279D01*
X13778337Y53520495D01*
X13857075Y53780061D01*
X13883662Y54050000D01*
X13857075Y54319939D01*
X13778337Y54579505D01*
X13650473Y54818721D01*
X13478397Y55028397D01*
X13268721Y55200473D01*
X13029505Y55328337D01*
X12769939Y55407075D01*
X12567640Y55427000D01*
X10642014Y55427000D01*
X10754674Y55502277D01*
X10897723Y55645326D01*
X11010115Y55813533D01*
X11087533Y56000435D01*
X11106056Y56093559D01*
X11373164Y56093559D01*
X11396019Y55890264D01*
X11583184Y55809423D01*
X11782523Y55766649D01*
X11986377Y55763587D01*
X12186912Y55800353D01*
X12376420Y55875534D01*
X12403981Y55890264D01*
X12426836Y56093559D01*
X11900000Y56620395D01*
X11373164Y56093559D01*
X11106056Y56093559D01*
X11127000Y56198849D01*
X11127000Y56280647D01*
X11193559Y56273164D01*
X11710891Y56790496D01*
X11798849Y56773000D01*
X12001151Y56773000D01*
X12089109Y56790496D01*
X12606441Y56273164D01*
X12809736Y56296019D01*
X12890577Y56483184D01*
X12933351Y56682523D01*
X12936413Y56886377D01*
X12899647Y57086912D01*
X12824466Y57276420D01*
X12809736Y57303981D01*
X12804152Y57304609D01*
X12810115Y57313533D01*
X12887533Y57500435D01*
X12927000Y57698849D01*
X12927000Y57901151D01*
X12887533Y58099565D01*
X12810115Y58286467D01*
X12801073Y58300000D01*
X12810115Y58313533D01*
X12887533Y58500435D01*
X12927000Y58698849D01*
X12927000Y58901151D01*
X12887533Y59099565D01*
X12810115Y59286467D01*
X12804152Y59295391D01*
X12809736Y59296019D01*
X12890577Y59483184D01*
X12933351Y59682523D01*
X12936413Y59886377D01*
X12899647Y60086912D01*
X12824466Y60276420D01*
X12809736Y60303981D01*
X12804152Y60304609D01*
X12810115Y60313533D01*
X12887533Y60500435D01*
X12927000Y60698849D01*
X12927000Y60901151D01*
X12887533Y61099565D01*
X12810115Y61286467D01*
X12801073Y61300000D01*
X12810115Y61313533D01*
X12887533Y61500435D01*
X12927000Y61698849D01*
X12927000Y61901151D01*
X12887533Y62099565D01*
X12810115Y62286467D01*
X12801073Y62300000D01*
X12810115Y62313533D01*
X12887533Y62500435D01*
X12927000Y62698849D01*
X12927000Y62901151D01*
X12887533Y63099565D01*
X12810115Y63286467D01*
X12801073Y63300000D01*
X12810115Y63313533D01*
X12887533Y63500435D01*
X12927000Y63698849D01*
X12927000Y63901151D01*
X12887533Y64099565D01*
X12810115Y64286467D01*
X12801073Y64300000D01*
X12810115Y64313533D01*
X12887533Y64500435D01*
X12927000Y64698849D01*
X12927000Y64901151D01*
X12887533Y65099565D01*
X12810115Y65286467D01*
X12697723Y65454674D01*
X12554674Y65597723D01*
X12386467Y65710115D01*
X12199565Y65787533D01*
X12001151Y65827000D01*
X11798849Y65827000D01*
X11600435Y65787533D01*
X11413533Y65710115D01*
X11245326Y65597723D01*
X11114018Y65466415D01*
X11087533Y65599565D01*
X11010115Y65786467D01*
X10897723Y65954674D01*
X10754674Y66097723D01*
X10642014Y66173000D01*
X12567640Y66173000D01*
X12769939Y66192925D01*
X13029505Y66271663D01*
X13268721Y66399527D01*
X13478397Y66571603D01*
X13650473Y66781279D01*
X13778337Y67020495D01*
X13857075Y67280061D01*
X13883662Y67550000D01*
X27116338Y67550000D01*
X27142925Y67280061D01*
X27221663Y67020495D01*
X27349527Y66781279D01*
X27521603Y66571603D01*
X27731279Y66399527D01*
X27970495Y66271663D01*
X28230061Y66192925D01*
X28432360Y66173000D01*
X28557986Y66173000D01*
X28445326Y66097723D01*
X28302277Y65954674D01*
X28189885Y65786467D01*
X28112467Y65599565D01*
X28073000Y65401151D01*
X28073000Y65198849D01*
X28112467Y65000435D01*
X28189885Y64813533D01*
X28195848Y64804609D01*
X28190264Y64803981D01*
X28109423Y64616816D01*
X28066649Y64417477D01*
X28063587Y64213623D01*
X28100353Y64013088D01*
X28175534Y63823580D01*
X28190264Y63796019D01*
X28195848Y63795391D01*
X28189885Y63786467D01*
X28112467Y63599565D01*
X28073000Y63401151D01*
X28073000Y63198849D01*
X28112467Y63000435D01*
X28189885Y62813533D01*
X28198927Y62800000D01*
X28189885Y62786467D01*
X28112467Y62599565D01*
X28073000Y62401151D01*
X28073000Y62198849D01*
X28112467Y62000435D01*
X28189885Y61813533D01*
X28195848Y61804609D01*
X28190264Y61803981D01*
X28109423Y61616816D01*
X28066649Y61417477D01*
X28063587Y61213623D01*
X28100353Y61013088D01*
X28175534Y60823580D01*
X28190264Y60796019D01*
X28195848Y60795391D01*
X28189885Y60786467D01*
X28112467Y60599565D01*
X28073000Y60401151D01*
X28073000Y60198849D01*
X28112467Y60000435D01*
X28189885Y59813533D01*
X28198927Y59800000D01*
X28189885Y59786467D01*
X28112467Y59599565D01*
X28073000Y59401151D01*
X28073000Y59198849D01*
X28112467Y59000435D01*
X28189885Y58813533D01*
X28195848Y58804609D01*
X28190264Y58803981D01*
X28109423Y58616816D01*
X28066649Y58417477D01*
X28063587Y58213623D01*
X28100353Y58013088D01*
X28175534Y57823580D01*
X28190264Y57796019D01*
X28195848Y57795391D01*
X28189885Y57786467D01*
X28112467Y57599565D01*
X28073000Y57401151D01*
X28073000Y57198849D01*
X28112467Y57000435D01*
X28189885Y56813533D01*
X28198927Y56800000D01*
X28189885Y56786467D01*
X28112467Y56599565D01*
X28073000Y56401151D01*
X28073000Y56198849D01*
X28112467Y56000435D01*
X28189885Y55813533D01*
X28302277Y55645326D01*
X28445326Y55502277D01*
X28557986Y55427000D01*
X28432360Y55427000D01*
X28230061Y55407075D01*
X27970495Y55328337D01*
X27731279Y55200473D01*
X27521603Y55028397D01*
X27349527Y54818721D01*
X27221663Y54579505D01*
X27142925Y54319939D01*
X27116338Y54050000D01*
X27142925Y53780061D01*
X27221663Y53520495D01*
X27349527Y53281279D01*
X27521603Y53071603D01*
X27731279Y52899527D01*
X27970495Y52771663D01*
X28230061Y52692925D01*
X28432360Y52673000D01*
X31567640Y52673000D01*
X31769939Y52692925D01*
X32029505Y52771663D01*
X32268721Y52899527D01*
X32478397Y53071603D01*
X32650473Y53281279D01*
X32778337Y53520495D01*
X32857075Y53780061D01*
X32883662Y54050000D01*
X32857075Y54319939D01*
X32778337Y54579505D01*
X32650473Y54818721D01*
X32478397Y55028397D01*
X32268721Y55200473D01*
X32029505Y55328337D01*
X31769939Y55407075D01*
X31567640Y55427000D01*
X29642014Y55427000D01*
X29754674Y55502277D01*
X29897723Y55645326D01*
X30010115Y55813533D01*
X30087533Y56000435D01*
X30106056Y56093559D01*
X30373164Y56093559D01*
X30396019Y55890264D01*
X30583184Y55809423D01*
X30782523Y55766649D01*
X30986377Y55763587D01*
X31186912Y55800353D01*
X31376420Y55875534D01*
X31403981Y55890264D01*
X31426836Y56093559D01*
X30900000Y56620395D01*
X30373164Y56093559D01*
X30106056Y56093559D01*
X30127000Y56198849D01*
X30127000Y56280647D01*
X30193559Y56273164D01*
X30710891Y56790496D01*
X30798849Y56773000D01*
X31001151Y56773000D01*
X31089109Y56790496D01*
X31606441Y56273164D01*
X31809736Y56296019D01*
X31890577Y56483184D01*
X31933351Y56682523D01*
X31936413Y56886377D01*
X31899647Y57086912D01*
X31824466Y57276420D01*
X31809736Y57303981D01*
X31804152Y57304609D01*
X31810115Y57313533D01*
X31887533Y57500435D01*
X31927000Y57698849D01*
X31927000Y57901151D01*
X31887533Y58099565D01*
X31810115Y58286467D01*
X31801073Y58300000D01*
X31810115Y58313533D01*
X31887533Y58500435D01*
X31927000Y58698849D01*
X31927000Y58901151D01*
X31887533Y59099565D01*
X31810115Y59286467D01*
X31804152Y59295391D01*
X31809736Y59296019D01*
X31890577Y59483184D01*
X31933351Y59682523D01*
X31936413Y59886377D01*
X31899647Y60086912D01*
X31824466Y60276420D01*
X31809736Y60303981D01*
X31804152Y60304609D01*
X31810115Y60313533D01*
X31887533Y60500435D01*
X31927000Y60698849D01*
X31927000Y60901151D01*
X31887533Y61099565D01*
X31810115Y61286467D01*
X31801073Y61300000D01*
X31810115Y61313533D01*
X31887533Y61500435D01*
X31927000Y61698849D01*
X31927000Y61901151D01*
X31887533Y62099565D01*
X31810115Y62286467D01*
X31801073Y62300000D01*
X31810115Y62313533D01*
X31887533Y62500435D01*
X31927000Y62698849D01*
X31927000Y62901151D01*
X31887533Y63099565D01*
X31810115Y63286467D01*
X31801073Y63300000D01*
X31810115Y63313533D01*
X31887533Y63500435D01*
X31927000Y63698849D01*
X31927000Y63901151D01*
X31887533Y64099565D01*
X31810115Y64286467D01*
X31801073Y64300000D01*
X31810115Y64313533D01*
X31887533Y64500435D01*
X31927000Y64698849D01*
X31927000Y64901151D01*
X31887533Y65099565D01*
X31810115Y65286467D01*
X31697723Y65454674D01*
X31554674Y65597723D01*
X31386467Y65710115D01*
X31199565Y65787533D01*
X31001151Y65827000D01*
X30798849Y65827000D01*
X30600435Y65787533D01*
X30413533Y65710115D01*
X30245326Y65597723D01*
X30114018Y65466415D01*
X30087533Y65599565D01*
X30010115Y65786467D01*
X29897723Y65954674D01*
X29754674Y66097723D01*
X29642014Y66173000D01*
X31567640Y66173000D01*
X31769939Y66192925D01*
X32029505Y66271663D01*
X32268721Y66399527D01*
X32478397Y66571603D01*
X32650473Y66781279D01*
X32778337Y67020495D01*
X32857075Y67280061D01*
X32883662Y67550000D01*
X46116338Y67550000D01*
X46142925Y67280061D01*
X46221663Y67020495D01*
X46349527Y66781279D01*
X46521603Y66571603D01*
X46731279Y66399527D01*
X46970495Y66271663D01*
X47230061Y66192925D01*
X47432360Y66173000D01*
X47557986Y66173000D01*
X47445326Y66097723D01*
X47302277Y65954674D01*
X47189885Y65786467D01*
X47112467Y65599565D01*
X47073000Y65401151D01*
X47073000Y65198849D01*
X47112467Y65000435D01*
X47189885Y64813533D01*
X47195848Y64804609D01*
X47190264Y64803981D01*
X47109423Y64616816D01*
X47066649Y64417477D01*
X47063587Y64213623D01*
X47100353Y64013088D01*
X47175534Y63823580D01*
X47190264Y63796019D01*
X47195848Y63795391D01*
X47189885Y63786467D01*
X47112467Y63599565D01*
X47073000Y63401151D01*
X47073000Y63198849D01*
X47112467Y63000435D01*
X47189885Y62813533D01*
X47198927Y62800000D01*
X47189885Y62786467D01*
X47112467Y62599565D01*
X47073000Y62401151D01*
X47073000Y62198849D01*
X47112467Y62000435D01*
X47189885Y61813533D01*
X47195848Y61804609D01*
X47190264Y61803981D01*
X47109423Y61616816D01*
X47066649Y61417477D01*
X47063587Y61213623D01*
X47100353Y61013088D01*
X47175534Y60823580D01*
X47190264Y60796019D01*
X47195848Y60795391D01*
X47189885Y60786467D01*
X47112467Y60599565D01*
X47073000Y60401151D01*
X47073000Y60198849D01*
X47112467Y60000435D01*
X47189885Y59813533D01*
X47198927Y59800000D01*
X47189885Y59786467D01*
X47112467Y59599565D01*
X47073000Y59401151D01*
X47073000Y59198849D01*
X47112467Y59000435D01*
X47189885Y58813533D01*
X47195848Y58804609D01*
X47190264Y58803981D01*
X47109423Y58616816D01*
X47066649Y58417477D01*
X47063587Y58213623D01*
X47100353Y58013088D01*
X47175534Y57823580D01*
X47190264Y57796019D01*
X47195848Y57795391D01*
X47189885Y57786467D01*
X47112467Y57599565D01*
X47073000Y57401151D01*
X47073000Y57198849D01*
X47112467Y57000435D01*
X47189885Y56813533D01*
X47198927Y56800000D01*
X47189885Y56786467D01*
X47112467Y56599565D01*
X47073000Y56401151D01*
X47073000Y56198849D01*
X47112467Y56000435D01*
X47189885Y55813533D01*
X47302277Y55645326D01*
X47445326Y55502277D01*
X47557986Y55427000D01*
X47432360Y55427000D01*
X47230061Y55407075D01*
X46970495Y55328337D01*
X46731279Y55200473D01*
X46521603Y55028397D01*
X46349527Y54818721D01*
X46221663Y54579505D01*
X46142925Y54319939D01*
X46116338Y54050000D01*
X46142925Y53780061D01*
X46221663Y53520495D01*
X46349527Y53281279D01*
X46521603Y53071603D01*
X46731279Y52899527D01*
X46970495Y52771663D01*
X47230061Y52692925D01*
X47432360Y52673000D01*
X50567640Y52673000D01*
X50769939Y52692925D01*
X51029505Y52771663D01*
X51268721Y52899527D01*
X51478397Y53071603D01*
X51650473Y53281279D01*
X51778337Y53520495D01*
X51857075Y53780061D01*
X51883662Y54050000D01*
X51857075Y54319939D01*
X51778337Y54579505D01*
X51650473Y54818721D01*
X51478397Y55028397D01*
X51268721Y55200473D01*
X51029505Y55328337D01*
X50769939Y55407075D01*
X50567640Y55427000D01*
X48642014Y55427000D01*
X48754674Y55502277D01*
X48897723Y55645326D01*
X49010115Y55813533D01*
X49087533Y56000435D01*
X49106056Y56093559D01*
X49373164Y56093559D01*
X49396019Y55890264D01*
X49583184Y55809423D01*
X49782523Y55766649D01*
X49986377Y55763587D01*
X50186912Y55800353D01*
X50376420Y55875534D01*
X50403981Y55890264D01*
X50426836Y56093559D01*
X49900000Y56620395D01*
X49373164Y56093559D01*
X49106056Y56093559D01*
X49127000Y56198849D01*
X49127000Y56280647D01*
X49193559Y56273164D01*
X49710891Y56790496D01*
X49798849Y56773000D01*
X50001151Y56773000D01*
X50089109Y56790496D01*
X50606441Y56273164D01*
X50809736Y56296019D01*
X50890577Y56483184D01*
X50933351Y56682523D01*
X50936413Y56886377D01*
X50899647Y57086912D01*
X50824466Y57276420D01*
X50809736Y57303981D01*
X50804152Y57304609D01*
X50810115Y57313533D01*
X50887533Y57500435D01*
X50927000Y57698849D01*
X50927000Y57901151D01*
X50887533Y58099565D01*
X50810115Y58286467D01*
X50801073Y58300000D01*
X50810115Y58313533D01*
X50887533Y58500435D01*
X50927000Y58698849D01*
X50927000Y58901151D01*
X50887533Y59099565D01*
X50810115Y59286467D01*
X50804152Y59295391D01*
X50809736Y59296019D01*
X50890577Y59483184D01*
X50933351Y59682523D01*
X50936413Y59886377D01*
X50899647Y60086912D01*
X50824466Y60276420D01*
X50809736Y60303981D01*
X50804152Y60304609D01*
X50810115Y60313533D01*
X50887533Y60500435D01*
X50927000Y60698849D01*
X50927000Y60901151D01*
X50887533Y61099565D01*
X50810115Y61286467D01*
X50801073Y61300000D01*
X50810115Y61313533D01*
X50887533Y61500435D01*
X50927000Y61698849D01*
X50927000Y61901151D01*
X50887533Y62099565D01*
X50810115Y62286467D01*
X50801073Y62300000D01*
X50810115Y62313533D01*
X50887533Y62500435D01*
X50927000Y62698849D01*
X50927000Y62901151D01*
X50887533Y63099565D01*
X50810115Y63286467D01*
X50801073Y63300000D01*
X50810115Y63313533D01*
X50887533Y63500435D01*
X50927000Y63698849D01*
X50927000Y63901151D01*
X50887533Y64099565D01*
X50810115Y64286467D01*
X50801073Y64300000D01*
X50810115Y64313533D01*
X50887533Y64500435D01*
X50927000Y64698849D01*
X50927000Y64901151D01*
X50887533Y65099565D01*
X50810115Y65286467D01*
X50697723Y65454674D01*
X50554674Y65597723D01*
X50386467Y65710115D01*
X50199565Y65787533D01*
X50001151Y65827000D01*
X49798849Y65827000D01*
X49600435Y65787533D01*
X49413533Y65710115D01*
X49245326Y65597723D01*
X49114018Y65466415D01*
X49087533Y65599565D01*
X49010115Y65786467D01*
X48897723Y65954674D01*
X48754674Y66097723D01*
X48642014Y66173000D01*
X50567640Y66173000D01*
X50769939Y66192925D01*
X51029505Y66271663D01*
X51268721Y66399527D01*
X51478397Y66571603D01*
X51650473Y66781279D01*
X51778337Y67020495D01*
X51857075Y67280061D01*
X51883662Y67550000D01*
X51857075Y67819939D01*
X51778337Y68079505D01*
X51650473Y68318721D01*
X51478397Y68528397D01*
X51268721Y68700473D01*
X51029505Y68828337D01*
X50769939Y68907075D01*
X50567640Y68927000D01*
X47432360Y68927000D01*
X47230061Y68907075D01*
X46970495Y68828337D01*
X46731279Y68700473D01*
X46521603Y68528397D01*
X46349527Y68318721D01*
X46221663Y68079505D01*
X46142925Y67819939D01*
X46116338Y67550000D01*
X32883662Y67550000D01*
X32857075Y67819939D01*
X32778337Y68079505D01*
X32650473Y68318721D01*
X32478397Y68528397D01*
X32268721Y68700473D01*
X32029505Y68828337D01*
X31769939Y68907075D01*
X31567640Y68927000D01*
X28432360Y68927000D01*
X28230061Y68907075D01*
X27970495Y68828337D01*
X27731279Y68700473D01*
X27521603Y68528397D01*
X27349527Y68318721D01*
X27221663Y68079505D01*
X27142925Y67819939D01*
X27116338Y67550000D01*
X13883662Y67550000D01*
X13857075Y67819939D01*
X13778337Y68079505D01*
X13650473Y68318721D01*
X13478397Y68528397D01*
X13268721Y68700473D01*
X13029505Y68828337D01*
X12769939Y68907075D01*
X12567640Y68927000D01*
X9432360Y68927000D01*
X9230061Y68907075D01*
X8970495Y68828337D01*
X8731279Y68700473D01*
X8521603Y68528397D01*
X8349527Y68318721D01*
X8221663Y68079505D01*
X8142925Y67819939D01*
X8116338Y67550000D01*
X-8116338Y67550000D01*
X-8142925Y67819939D01*
X-8221663Y68079505D01*
X-8349527Y68318721D01*
X-8521603Y68528397D01*
X-8731279Y68700473D01*
X-8970495Y68828337D01*
X-9230061Y68907075D01*
X-9432360Y68927000D01*
X-12567640Y68927000D01*
X-12769939Y68907075D01*
X-13029505Y68828337D01*
X-13268721Y68700473D01*
X-13478397Y68528397D01*
X-13650473Y68318721D01*
X-13778337Y68079505D01*
X-13857075Y67819939D01*
X-13883662Y67550000D01*
X-27116338Y67550000D01*
X-27142925Y67819939D01*
X-27221663Y68079505D01*
X-27349527Y68318721D01*
X-27521603Y68528397D01*
X-27731279Y68700473D01*
X-27970495Y68828337D01*
X-28230061Y68907075D01*
X-28432360Y68927000D01*
X-31567640Y68927000D01*
X-31769939Y68907075D01*
X-32029505Y68828337D01*
X-32268721Y68700473D01*
X-32478397Y68528397D01*
X-32650473Y68318721D01*
X-32778337Y68079505D01*
X-32857075Y67819939D01*
X-32883662Y67550000D01*
X-46116338Y67550000D01*
X-46142925Y67819939D01*
X-46221663Y68079505D01*
X-46349527Y68318721D01*
X-46521603Y68528397D01*
X-46731279Y68700473D01*
X-46970495Y68828337D01*
X-47230061Y68907075D01*
X-47432360Y68927000D01*
X-50567640Y68927000D01*
X-50769939Y68907075D01*
X-51029505Y68828337D01*
X-51268721Y68700473D01*
X-51478397Y68528397D01*
X-51650473Y68318721D01*
X-51778337Y68079505D01*
X-51857075Y67819939D01*
X-51883662Y67550000D01*
X-55348000Y67550000D01*
X-55348000Y73848000D01*
X55348000Y73848000D01*
X55348001Y-43729932D01*
%TA.AperFunction,Conductor*%
D17*
G36*
X55348001Y-43729932D02*
G01*
X22729934Y-76348000D01*
X-22729933Y-76348000D01*
X-42827933Y-56250000D01*
X-18883662Y-56250000D01*
X-18857075Y-56519939D01*
X-18778337Y-56779505D01*
X-18650473Y-57018721D01*
X-18478397Y-57228397D01*
X-18268721Y-57400473D01*
X-18029505Y-57528337D01*
X-17769939Y-57607075D01*
X-17567640Y-57627000D01*
X-17442014Y-57627000D01*
X-17554674Y-57702277D01*
X-17697723Y-57845326D01*
X-17810115Y-58013533D01*
X-17887533Y-58200435D01*
X-17927000Y-58398849D01*
X-17927000Y-58601151D01*
X-17887533Y-58799565D01*
X-17810115Y-58986467D01*
X-17804152Y-58995391D01*
X-17809736Y-58996019D01*
X-17890577Y-59183184D01*
X-17933351Y-59382523D01*
X-17936413Y-59586377D01*
X-17899647Y-59786912D01*
X-17824466Y-59976420D01*
X-17809736Y-60003981D01*
X-17804152Y-60004609D01*
X-17810115Y-60013533D01*
X-17887533Y-60200435D01*
X-17927000Y-60398849D01*
X-17927000Y-60601151D01*
X-17887533Y-60799565D01*
X-17810115Y-60986467D01*
X-17801073Y-61000000D01*
X-17810115Y-61013533D01*
X-17887533Y-61200435D01*
X-17927000Y-61398849D01*
X-17927000Y-61601151D01*
X-17887533Y-61799565D01*
X-17810115Y-61986467D01*
X-17804152Y-61995391D01*
X-17809736Y-61996019D01*
X-17890577Y-62183184D01*
X-17933351Y-62382523D01*
X-17936413Y-62586377D01*
X-17899647Y-62786912D01*
X-17824466Y-62976420D01*
X-17809736Y-63003981D01*
X-17804152Y-63004609D01*
X-17810115Y-63013533D01*
X-17887533Y-63200435D01*
X-17927000Y-63398849D01*
X-17927000Y-63601151D01*
X-17887533Y-63799565D01*
X-17810115Y-63986467D01*
X-17801073Y-64000000D01*
X-17810115Y-64013533D01*
X-17887533Y-64200435D01*
X-17927000Y-64398849D01*
X-17927000Y-64601151D01*
X-17887533Y-64799565D01*
X-17810115Y-64986467D01*
X-17804152Y-64995391D01*
X-17809736Y-64996019D01*
X-17890577Y-65183184D01*
X-17933351Y-65382523D01*
X-17936413Y-65586377D01*
X-17899647Y-65786912D01*
X-17824466Y-65976420D01*
X-17809736Y-66003981D01*
X-17804152Y-66004609D01*
X-17810115Y-66013533D01*
X-17887533Y-66200435D01*
X-17927000Y-66398849D01*
X-17927000Y-66601151D01*
X-17887533Y-66799565D01*
X-17810115Y-66986467D01*
X-17801073Y-67000000D01*
X-17810115Y-67013533D01*
X-17887533Y-67200435D01*
X-17927000Y-67398849D01*
X-17927000Y-67601151D01*
X-17887533Y-67799565D01*
X-17810115Y-67986467D01*
X-17697723Y-68154674D01*
X-17554674Y-68297723D01*
X-17442014Y-68373000D01*
X-17567640Y-68373000D01*
X-17769939Y-68392925D01*
X-18029505Y-68471663D01*
X-18268721Y-68599527D01*
X-18478397Y-68771603D01*
X-18650473Y-68981279D01*
X-18778337Y-69220495D01*
X-18857075Y-69480061D01*
X-18883662Y-69750000D01*
X-18857075Y-70019939D01*
X-18778337Y-70279505D01*
X-18650473Y-70518721D01*
X-18478397Y-70728397D01*
X-18268721Y-70900473D01*
X-18029505Y-71028337D01*
X-17769939Y-71107075D01*
X-17567640Y-71127000D01*
X-14432360Y-71127000D01*
X-14230061Y-71107075D01*
X-13970495Y-71028337D01*
X-13731279Y-70900473D01*
X-13521603Y-70728397D01*
X-13349527Y-70518721D01*
X-13221663Y-70279505D01*
X-13142925Y-70019939D01*
X-13116338Y-69750000D01*
X-13142925Y-69480061D01*
X-13221663Y-69220495D01*
X-13349527Y-68981279D01*
X-13521603Y-68771603D01*
X-13731279Y-68599527D01*
X-13970495Y-68471663D01*
X-14230061Y-68392925D01*
X-14432360Y-68373000D01*
X-16357986Y-68373000D01*
X-16245326Y-68297723D01*
X-16102277Y-68154674D01*
X-15989885Y-67986467D01*
X-15912467Y-67799565D01*
X-15893944Y-67706441D01*
X-15626836Y-67706441D01*
X-15603981Y-67909736D01*
X-15416816Y-67990577D01*
X-15217477Y-68033351D01*
X-15013623Y-68036413D01*
X-14813088Y-67999647D01*
X-14623580Y-67924466D01*
X-14596019Y-67909736D01*
X-14573164Y-67706441D01*
X-15100000Y-67179605D01*
X-15626836Y-67706441D01*
X-15893944Y-67706441D01*
X-15873000Y-67601151D01*
X-15873000Y-67519353D01*
X-15806441Y-67526836D01*
X-15289109Y-67009504D01*
X-15201151Y-67027000D01*
X-14998849Y-67027000D01*
X-14910891Y-67009504D01*
X-14393559Y-67526836D01*
X-14190264Y-67503981D01*
X-14109423Y-67316816D01*
X-14066649Y-67117477D01*
X-14063587Y-66913623D01*
X-14100353Y-66713088D01*
X-14175534Y-66523580D01*
X-14190264Y-66496019D01*
X-14195848Y-66495391D01*
X-14189885Y-66486467D01*
X-14112467Y-66299565D01*
X-14073000Y-66101151D01*
X-14073000Y-65898849D01*
X-14112467Y-65700435D01*
X-14189885Y-65513533D01*
X-14198927Y-65500000D01*
X-14189885Y-65486467D01*
X-14112467Y-65299565D01*
X-14073000Y-65101151D01*
X-14073000Y-64898849D01*
X-14112467Y-64700435D01*
X-14189885Y-64513533D01*
X-14195848Y-64504609D01*
X-14190264Y-64503981D01*
X-14109423Y-64316816D01*
X-14066649Y-64117477D01*
X-14063587Y-63913623D01*
X-14100353Y-63713088D01*
X-14175534Y-63523580D01*
X-14190264Y-63496019D01*
X-14195848Y-63495391D01*
X-14189885Y-63486467D01*
X-14112467Y-63299565D01*
X-14073000Y-63101151D01*
X-14073000Y-62898849D01*
X-14112467Y-62700435D01*
X-14189885Y-62513533D01*
X-14198927Y-62500000D01*
X-14189885Y-62486467D01*
X-14112467Y-62299565D01*
X-14073000Y-62101151D01*
X-14073000Y-61898849D01*
X-14112467Y-61700435D01*
X-14189885Y-61513533D01*
X-14198927Y-61500000D01*
X-14189885Y-61486467D01*
X-14112467Y-61299565D01*
X-14073000Y-61101151D01*
X-14073000Y-60898849D01*
X-14112467Y-60700435D01*
X-14189885Y-60513533D01*
X-14198927Y-60500000D01*
X-14189885Y-60486467D01*
X-14112467Y-60299565D01*
X-14073000Y-60101151D01*
X-14073000Y-59898849D01*
X-14112467Y-59700435D01*
X-14189885Y-59513533D01*
X-14198927Y-59500000D01*
X-14189885Y-59486467D01*
X-14112467Y-59299565D01*
X-14073000Y-59101151D01*
X-14073000Y-58898849D01*
X-14112467Y-58700435D01*
X-14189885Y-58513533D01*
X-14302277Y-58345326D01*
X-14445326Y-58202277D01*
X-14613533Y-58089885D01*
X-14800435Y-58012467D01*
X-14998849Y-57973000D01*
X-15201151Y-57973000D01*
X-15399565Y-58012467D01*
X-15586467Y-58089885D01*
X-15754674Y-58202277D01*
X-15885982Y-58333585D01*
X-15912467Y-58200435D01*
X-15989885Y-58013533D01*
X-16102277Y-57845326D01*
X-16245326Y-57702277D01*
X-16357986Y-57627000D01*
X-14432360Y-57627000D01*
X-14230061Y-57607075D01*
X-13970495Y-57528337D01*
X-13731279Y-57400473D01*
X-13521603Y-57228397D01*
X-13349527Y-57018721D01*
X-13221663Y-56779505D01*
X-13142925Y-56519939D01*
X-13116338Y-56250000D01*
X-2883662Y-56250000D01*
X-2857075Y-56519939D01*
X-2778337Y-56779505D01*
X-2650473Y-57018721D01*
X-2478397Y-57228397D01*
X-2268721Y-57400473D01*
X-2029505Y-57528337D01*
X-1769939Y-57607075D01*
X-1567640Y-57627000D01*
X-1442014Y-57627000D01*
X-1554674Y-57702277D01*
X-1697723Y-57845326D01*
X-1810115Y-58013533D01*
X-1887533Y-58200435D01*
X-1927000Y-58398849D01*
X-1927000Y-58601151D01*
X-1887533Y-58799565D01*
X-1810115Y-58986467D01*
X-1804152Y-58995391D01*
X-1809736Y-58996019D01*
X-1890577Y-59183184D01*
X-1933351Y-59382523D01*
X-1936413Y-59586377D01*
X-1899647Y-59786912D01*
X-1824466Y-59976420D01*
X-1809736Y-60003981D01*
X-1804152Y-60004609D01*
X-1810115Y-60013533D01*
X-1887533Y-60200435D01*
X-1927000Y-60398849D01*
X-1927000Y-60601151D01*
X-1887533Y-60799565D01*
X-1810115Y-60986467D01*
X-1801073Y-61000000D01*
X-1810115Y-61013533D01*
X-1887533Y-61200435D01*
X-1927000Y-61398849D01*
X-1927000Y-61601151D01*
X-1887533Y-61799565D01*
X-1810115Y-61986467D01*
X-1804152Y-61995391D01*
X-1809736Y-61996019D01*
X-1890577Y-62183184D01*
X-1933351Y-62382523D01*
X-1936413Y-62586377D01*
X-1899647Y-62786912D01*
X-1824466Y-62976420D01*
X-1809736Y-63003981D01*
X-1804152Y-63004609D01*
X-1810115Y-63013533D01*
X-1887533Y-63200435D01*
X-1927000Y-63398849D01*
X-1927000Y-63601151D01*
X-1887533Y-63799565D01*
X-1810115Y-63986467D01*
X-1801073Y-64000000D01*
X-1810115Y-64013533D01*
X-1887533Y-64200435D01*
X-1927000Y-64398849D01*
X-1927000Y-64601151D01*
X-1887533Y-64799565D01*
X-1810115Y-64986467D01*
X-1804152Y-64995391D01*
X-1809736Y-64996019D01*
X-1890577Y-65183184D01*
X-1933351Y-65382523D01*
X-1936413Y-65586377D01*
X-1899647Y-65786912D01*
X-1824466Y-65976420D01*
X-1809736Y-66003981D01*
X-1804152Y-66004609D01*
X-1810115Y-66013533D01*
X-1887533Y-66200435D01*
X-1927000Y-66398849D01*
X-1927000Y-66601151D01*
X-1887533Y-66799565D01*
X-1810115Y-66986467D01*
X-1801073Y-67000000D01*
X-1810115Y-67013533D01*
X-1887533Y-67200435D01*
X-1927000Y-67398849D01*
X-1927000Y-67601151D01*
X-1887533Y-67799565D01*
X-1810115Y-67986467D01*
X-1697723Y-68154674D01*
X-1554674Y-68297723D01*
X-1442014Y-68373000D01*
X-1567640Y-68373000D01*
X-1769939Y-68392925D01*
X-2029505Y-68471663D01*
X-2268721Y-68599527D01*
X-2478397Y-68771603D01*
X-2650473Y-68981279D01*
X-2778337Y-69220495D01*
X-2857075Y-69480061D01*
X-2883662Y-69750000D01*
X-2857075Y-70019939D01*
X-2778337Y-70279505D01*
X-2650473Y-70518721D01*
X-2478397Y-70728397D01*
X-2268721Y-70900473D01*
X-2029505Y-71028337D01*
X-1769939Y-71107075D01*
X-1567640Y-71127000D01*
X1567640Y-71127000D01*
X1769939Y-71107075D01*
X2029505Y-71028337D01*
X2268721Y-70900473D01*
X2478397Y-70728397D01*
X2650473Y-70518721D01*
X2778337Y-70279505D01*
X2857075Y-70019939D01*
X2883662Y-69750000D01*
X2857075Y-69480061D01*
X2778337Y-69220495D01*
X2650473Y-68981279D01*
X2478397Y-68771603D01*
X2268721Y-68599527D01*
X2029505Y-68471663D01*
X1769939Y-68392925D01*
X1567640Y-68373000D01*
X-357986Y-68373000D01*
X-245326Y-68297723D01*
X-102277Y-68154674D01*
X10115Y-67986467D01*
X87533Y-67799565D01*
X106056Y-67706441D01*
X373164Y-67706441D01*
X396019Y-67909736D01*
X583184Y-67990577D01*
X782523Y-68033351D01*
X986377Y-68036413D01*
X1186912Y-67999647D01*
X1376420Y-67924466D01*
X1403981Y-67909736D01*
X1426836Y-67706441D01*
X900000Y-67179605D01*
X373164Y-67706441D01*
X106056Y-67706441D01*
X127000Y-67601151D01*
X127000Y-67519353D01*
X193559Y-67526836D01*
X710891Y-67009504D01*
X798849Y-67027000D01*
X1001151Y-67027000D01*
X1089109Y-67009504D01*
X1606441Y-67526836D01*
X1809736Y-67503981D01*
X1890577Y-67316816D01*
X1933351Y-67117477D01*
X1936413Y-66913623D01*
X1899647Y-66713088D01*
X1824466Y-66523580D01*
X1809736Y-66496019D01*
X1804152Y-66495391D01*
X1810115Y-66486467D01*
X1887533Y-66299565D01*
X1927000Y-66101151D01*
X1927000Y-65898849D01*
X1887533Y-65700435D01*
X1810115Y-65513533D01*
X1801073Y-65500000D01*
X1810115Y-65486467D01*
X1887533Y-65299565D01*
X1927000Y-65101151D01*
X1927000Y-64898849D01*
X1887533Y-64700435D01*
X1810115Y-64513533D01*
X1804152Y-64504609D01*
X1809736Y-64503981D01*
X1890577Y-64316816D01*
X1933351Y-64117477D01*
X1936413Y-63913623D01*
X1899647Y-63713088D01*
X1824466Y-63523580D01*
X1809736Y-63496019D01*
X1804152Y-63495391D01*
X1810115Y-63486467D01*
X1887533Y-63299565D01*
X1927000Y-63101151D01*
X1927000Y-62898849D01*
X1887533Y-62700435D01*
X1810115Y-62513533D01*
X1801073Y-62500000D01*
X1810115Y-62486467D01*
X1887533Y-62299565D01*
X1927000Y-62101151D01*
X1927000Y-61898849D01*
X1887533Y-61700435D01*
X1810115Y-61513533D01*
X1801073Y-61500000D01*
X1810115Y-61486467D01*
X1887533Y-61299565D01*
X1927000Y-61101151D01*
X1927000Y-60898849D01*
X1887533Y-60700435D01*
X1810115Y-60513533D01*
X1801073Y-60500000D01*
X1810115Y-60486467D01*
X1887533Y-60299565D01*
X1927000Y-60101151D01*
X1927000Y-59898849D01*
X1887533Y-59700435D01*
X1810115Y-59513533D01*
X1801073Y-59500000D01*
X1810115Y-59486467D01*
X1887533Y-59299565D01*
X1927000Y-59101151D01*
X1927000Y-58898849D01*
X1887533Y-58700435D01*
X1810115Y-58513533D01*
X1697723Y-58345326D01*
X1554674Y-58202277D01*
X1386467Y-58089885D01*
X1199565Y-58012467D01*
X1001151Y-57973000D01*
X798849Y-57973000D01*
X600435Y-58012467D01*
X413533Y-58089885D01*
X245326Y-58202277D01*
X114018Y-58333585D01*
X87533Y-58200435D01*
X10115Y-58013533D01*
X-102277Y-57845326D01*
X-245326Y-57702277D01*
X-357986Y-57627000D01*
X1567640Y-57627000D01*
X1769939Y-57607075D01*
X2029505Y-57528337D01*
X2268721Y-57400473D01*
X2478397Y-57228397D01*
X2650473Y-57018721D01*
X2778337Y-56779505D01*
X2857075Y-56519939D01*
X2883662Y-56250000D01*
X13116338Y-56250000D01*
X13142925Y-56519939D01*
X13221663Y-56779505D01*
X13349527Y-57018721D01*
X13521603Y-57228397D01*
X13731279Y-57400473D01*
X13970495Y-57528337D01*
X14230061Y-57607075D01*
X14432360Y-57627000D01*
X14557986Y-57627000D01*
X14445326Y-57702277D01*
X14302277Y-57845326D01*
X14189885Y-58013533D01*
X14112467Y-58200435D01*
X14073000Y-58398849D01*
X14073000Y-58601151D01*
X14112467Y-58799565D01*
X14189885Y-58986467D01*
X14195848Y-58995391D01*
X14190264Y-58996019D01*
X14109423Y-59183184D01*
X14066649Y-59382523D01*
X14063587Y-59586377D01*
X14100353Y-59786912D01*
X14175534Y-59976420D01*
X14190264Y-60003981D01*
X14195848Y-60004609D01*
X14189885Y-60013533D01*
X14112467Y-60200435D01*
X14073000Y-60398849D01*
X14073000Y-60601151D01*
X14112467Y-60799565D01*
X14189885Y-60986467D01*
X14198927Y-61000000D01*
X14189885Y-61013533D01*
X14112467Y-61200435D01*
X14073000Y-61398849D01*
X14073000Y-61601151D01*
X14112467Y-61799565D01*
X14189885Y-61986467D01*
X14195848Y-61995391D01*
X14190264Y-61996019D01*
X14109423Y-62183184D01*
X14066649Y-62382523D01*
X14063587Y-62586377D01*
X14100353Y-62786912D01*
X14175534Y-62976420D01*
X14190264Y-63003981D01*
X14195848Y-63004609D01*
X14189885Y-63013533D01*
X14112467Y-63200435D01*
X14073000Y-63398849D01*
X14073000Y-63601151D01*
X14112467Y-63799565D01*
X14189885Y-63986467D01*
X14198927Y-64000000D01*
X14189885Y-64013533D01*
X14112467Y-64200435D01*
X14073000Y-64398849D01*
X14073000Y-64601151D01*
X14112467Y-64799565D01*
X14189885Y-64986467D01*
X14195848Y-64995391D01*
X14190264Y-64996019D01*
X14109423Y-65183184D01*
X14066649Y-65382523D01*
X14063587Y-65586377D01*
X14100353Y-65786912D01*
X14175534Y-65976420D01*
X14190264Y-66003981D01*
X14195848Y-66004609D01*
X14189885Y-66013533D01*
X14112467Y-66200435D01*
X14073000Y-66398849D01*
X14073000Y-66601151D01*
X14112467Y-66799565D01*
X14189885Y-66986467D01*
X14198927Y-67000000D01*
X14189885Y-67013533D01*
X14112467Y-67200435D01*
X14073000Y-67398849D01*
X14073000Y-67601151D01*
X14112467Y-67799565D01*
X14189885Y-67986467D01*
X14302277Y-68154674D01*
X14445326Y-68297723D01*
X14557986Y-68373000D01*
X14432360Y-68373000D01*
X14230061Y-68392925D01*
X13970495Y-68471663D01*
X13731279Y-68599527D01*
X13521603Y-68771603D01*
X13349527Y-68981279D01*
X13221663Y-69220495D01*
X13142925Y-69480061D01*
X13116338Y-69750000D01*
X13142925Y-70019939D01*
X13221663Y-70279505D01*
X13349527Y-70518721D01*
X13521603Y-70728397D01*
X13731279Y-70900473D01*
X13970495Y-71028337D01*
X14230061Y-71107075D01*
X14432360Y-71127000D01*
X17567640Y-71127000D01*
X17769939Y-71107075D01*
X18029505Y-71028337D01*
X18268721Y-70900473D01*
X18478397Y-70728397D01*
X18650473Y-70518721D01*
X18778337Y-70279505D01*
X18857075Y-70019939D01*
X18883662Y-69750000D01*
X18857075Y-69480061D01*
X18778337Y-69220495D01*
X18650473Y-68981279D01*
X18478397Y-68771603D01*
X18268721Y-68599527D01*
X18029505Y-68471663D01*
X17769939Y-68392925D01*
X17567640Y-68373000D01*
X15642014Y-68373000D01*
X15754674Y-68297723D01*
X15897723Y-68154674D01*
X16010115Y-67986467D01*
X16087533Y-67799565D01*
X16106056Y-67706441D01*
X16373164Y-67706441D01*
X16396019Y-67909736D01*
X16583184Y-67990577D01*
X16782523Y-68033351D01*
X16986377Y-68036413D01*
X17186912Y-67999647D01*
X17376420Y-67924466D01*
X17403981Y-67909736D01*
X17426836Y-67706441D01*
X16900000Y-67179605D01*
X16373164Y-67706441D01*
X16106056Y-67706441D01*
X16127000Y-67601151D01*
X16127000Y-67519353D01*
X16193559Y-67526836D01*
X16710891Y-67009504D01*
X16798849Y-67027000D01*
X17001151Y-67027000D01*
X17089109Y-67009504D01*
X17606441Y-67526836D01*
X17809736Y-67503981D01*
X17890577Y-67316816D01*
X17933351Y-67117477D01*
X17936413Y-66913623D01*
X17899647Y-66713088D01*
X17824466Y-66523580D01*
X17809736Y-66496019D01*
X17804152Y-66495391D01*
X17810115Y-66486467D01*
X17887533Y-66299565D01*
X17927000Y-66101151D01*
X17927000Y-65898849D01*
X17887533Y-65700435D01*
X17810115Y-65513533D01*
X17801073Y-65500000D01*
X17810115Y-65486467D01*
X17887533Y-65299565D01*
X17927000Y-65101151D01*
X17927000Y-64898849D01*
X17887533Y-64700435D01*
X17810115Y-64513533D01*
X17804152Y-64504609D01*
X17809736Y-64503981D01*
X17890577Y-64316816D01*
X17933351Y-64117477D01*
X17936413Y-63913623D01*
X17899647Y-63713088D01*
X17824466Y-63523580D01*
X17809736Y-63496019D01*
X17804152Y-63495391D01*
X17810115Y-63486467D01*
X17887533Y-63299565D01*
X17927000Y-63101151D01*
X17927000Y-62898849D01*
X17887533Y-62700435D01*
X17810115Y-62513533D01*
X17801073Y-62500000D01*
X17810115Y-62486467D01*
X17887533Y-62299565D01*
X17927000Y-62101151D01*
X17927000Y-61898849D01*
X17887533Y-61700435D01*
X17810115Y-61513533D01*
X17801073Y-61500000D01*
X17810115Y-61486467D01*
X17887533Y-61299565D01*
X17927000Y-61101151D01*
X17927000Y-60898849D01*
X17887533Y-60700435D01*
X17810115Y-60513533D01*
X17801073Y-60500000D01*
X17810115Y-60486467D01*
X17887533Y-60299565D01*
X17927000Y-60101151D01*
X17927000Y-59898849D01*
X17887533Y-59700435D01*
X17810115Y-59513533D01*
X17801073Y-59500000D01*
X17810115Y-59486467D01*
X17887533Y-59299565D01*
X17927000Y-59101151D01*
X17927000Y-58898849D01*
X17887533Y-58700435D01*
X17810115Y-58513533D01*
X17697723Y-58345326D01*
X17554674Y-58202277D01*
X17386467Y-58089885D01*
X17199565Y-58012467D01*
X17001151Y-57973000D01*
X16798849Y-57973000D01*
X16600435Y-58012467D01*
X16413533Y-58089885D01*
X16245326Y-58202277D01*
X16114018Y-58333585D01*
X16087533Y-58200435D01*
X16010115Y-58013533D01*
X15897723Y-57845326D01*
X15754674Y-57702277D01*
X15642014Y-57627000D01*
X17567640Y-57627000D01*
X17769939Y-57607075D01*
X18029505Y-57528337D01*
X18268721Y-57400473D01*
X18478397Y-57228397D01*
X18650473Y-57018721D01*
X18778337Y-56779505D01*
X18857075Y-56519939D01*
X18883662Y-56250000D01*
X18857075Y-55980061D01*
X18778337Y-55720495D01*
X18650473Y-55481279D01*
X18478397Y-55271603D01*
X18268721Y-55099527D01*
X18029505Y-54971663D01*
X17769939Y-54892925D01*
X17567640Y-54873000D01*
X14432360Y-54873000D01*
X14230061Y-54892925D01*
X13970495Y-54971663D01*
X13731279Y-55099527D01*
X13521603Y-55271603D01*
X13349527Y-55481279D01*
X13221663Y-55720495D01*
X13142925Y-55980061D01*
X13116338Y-56250000D01*
X2883662Y-56250000D01*
X2857075Y-55980061D01*
X2778337Y-55720495D01*
X2650473Y-55481279D01*
X2478397Y-55271603D01*
X2268721Y-55099527D01*
X2029505Y-54971663D01*
X1769939Y-54892925D01*
X1567640Y-54873000D01*
X-1567640Y-54873000D01*
X-1769939Y-54892925D01*
X-2029505Y-54971663D01*
X-2268721Y-55099527D01*
X-2478397Y-55271603D01*
X-2650473Y-55481279D01*
X-2778337Y-55720495D01*
X-2857075Y-55980061D01*
X-2883662Y-56250000D01*
X-13116338Y-56250000D01*
X-13142925Y-55980061D01*
X-13221663Y-55720495D01*
X-13349527Y-55481279D01*
X-13521603Y-55271603D01*
X-13731279Y-55099527D01*
X-13970495Y-54971663D01*
X-14230061Y-54892925D01*
X-14432360Y-54873000D01*
X-17567640Y-54873000D01*
X-17769939Y-54892925D01*
X-18029505Y-54971663D01*
X-18268721Y-55099527D01*
X-18478397Y-55271603D01*
X-18650473Y-55481279D01*
X-18778337Y-55720495D01*
X-18857075Y-55980061D01*
X-18883662Y-56250000D01*
X-42827933Y-56250000D01*
X-55348000Y-43729934D01*
X-55348000Y-39144115D01*
X-21366538Y-39144115D01*
X-21062254Y-40211592D01*
X-20555562Y-41199195D01*
X-19865934Y-42068970D01*
X-19019872Y-42787493D01*
X-18049890Y-43327151D01*
X-16993264Y-43667206D01*
X-16806246Y-43704407D01*
X-15922259Y-43635177D01*
X-15922259Y-38260128D01*
X-15668259Y-38260128D01*
X-15668259Y-43635177D01*
X-14784272Y-43704407D01*
X-13716795Y-43400123D01*
X-12729192Y-42893431D01*
X-11859417Y-42203803D01*
X-11140894Y-41357741D01*
X-10601236Y-40387759D01*
X-10261181Y-39331133D01*
X-10223980Y-39144115D01*
X10223980Y-39144115D01*
X10528264Y-40211592D01*
X11034956Y-41199195D01*
X11724584Y-42068970D01*
X12570646Y-42787493D01*
X13540628Y-43327151D01*
X14597254Y-43667206D01*
X14784272Y-43704407D01*
X15668259Y-43635177D01*
X15668259Y-38260128D01*
X15922259Y-38260128D01*
X15922259Y-43635177D01*
X16806246Y-43704407D01*
X17873723Y-43400123D01*
X18861326Y-42893431D01*
X19731101Y-42203803D01*
X20449624Y-41357741D01*
X20989282Y-40387759D01*
X21329337Y-39331133D01*
X21366538Y-39144115D01*
X21297308Y-38260128D01*
X15922259Y-38260128D01*
X15668259Y-38260128D01*
X10293210Y-38260128D01*
X10223980Y-39144115D01*
X-10223980Y-39144115D01*
X-10293210Y-38260128D01*
X-15668259Y-38260128D01*
X-15922259Y-38260128D01*
X-21297308Y-38260128D01*
X-21366538Y-39144115D01*
X-55348000Y-39144115D01*
X-55348000Y-37122141D01*
X-21366538Y-37122141D01*
X-21297308Y-38006128D01*
X-15922259Y-38006128D01*
X-15922259Y-32631079D01*
X-15668259Y-32631079D01*
X-15668259Y-38006128D01*
X-10293210Y-38006128D01*
X-10223980Y-37122141D01*
X10223980Y-37122141D01*
X10293210Y-38006128D01*
X15668259Y-38006128D01*
X15668259Y-32631079D01*
X15922259Y-32631079D01*
X15922259Y-38006128D01*
X21297308Y-38006128D01*
X21366538Y-37122141D01*
X21062254Y-36054664D01*
X20555562Y-35067061D01*
X19865934Y-34197286D01*
X19019872Y-33478763D01*
X18049890Y-32939105D01*
X16993264Y-32599050D01*
X16806246Y-32561849D01*
X15922259Y-32631079D01*
X15668259Y-32631079D01*
X14784272Y-32561849D01*
X13716795Y-32866133D01*
X12729192Y-33372825D01*
X11859417Y-34062453D01*
X11140894Y-34908515D01*
X10601236Y-35878497D01*
X10261181Y-36935123D01*
X10223980Y-37122141D01*
X-10223980Y-37122141D01*
X-10528264Y-36054664D01*
X-11034956Y-35067061D01*
X-11724584Y-34197286D01*
X-12570646Y-33478763D01*
X-13540628Y-32939105D01*
X-14597254Y-32599050D01*
X-14784272Y-32561849D01*
X-15668259Y-32631079D01*
X-15922259Y-32631079D01*
X-16806246Y-32561849D01*
X-17873723Y-32866133D01*
X-18861326Y-33372825D01*
X-19731101Y-34062453D01*
X-20449624Y-34908515D01*
X-20989282Y-35878497D01*
X-21329337Y-36935123D01*
X-21366538Y-37122141D01*
X-55348000Y-37122141D01*
X-55348000Y-16806246D01*
X-43704407Y-16806246D01*
X-43400123Y-17873723D01*
X-42893431Y-18861326D01*
X-42203803Y-19731101D01*
X-41357741Y-20449624D01*
X-40387759Y-20989282D01*
X-39331133Y-21329337D01*
X-39144115Y-21366538D01*
X-38260128Y-21297308D01*
X-38260128Y-15922259D01*
X-38006128Y-15922259D01*
X-38006128Y-21297308D01*
X-37122141Y-21366538D01*
X-36054664Y-21062254D01*
X-35067061Y-20555562D01*
X-34197286Y-19865934D01*
X-33478763Y-19019872D01*
X-32939105Y-18049890D01*
X-32599050Y-16993264D01*
X-32561849Y-16806246D01*
X32561849Y-16806246D01*
X32866133Y-17873723D01*
X33372825Y-18861326D01*
X34062453Y-19731101D01*
X34908515Y-20449624D01*
X35878497Y-20989282D01*
X36935123Y-21329337D01*
X37122141Y-21366538D01*
X38006128Y-21297308D01*
X38006128Y-15922259D01*
X38260128Y-15922259D01*
X38260128Y-21297308D01*
X39144115Y-21366538D01*
X40211592Y-21062254D01*
X41199195Y-20555562D01*
X42068970Y-19865934D01*
X42787493Y-19019872D01*
X43327151Y-18049890D01*
X43667206Y-16993264D01*
X43704407Y-16806246D01*
X43635177Y-15922259D01*
X38260128Y-15922259D01*
X38006128Y-15922259D01*
X32631079Y-15922259D01*
X32561849Y-16806246D01*
X-32561849Y-16806246D01*
X-32631079Y-15922259D01*
X-38006128Y-15922259D01*
X-38260128Y-15922259D01*
X-43635177Y-15922259D01*
X-43704407Y-16806246D01*
X-55348000Y-16806246D01*
X-55348000Y-14784272D01*
X-43704407Y-14784272D01*
X-43635177Y-15668259D01*
X-38260128Y-15668259D01*
X-38260128Y-10293210D01*
X-38006128Y-10293210D01*
X-38006128Y-15668259D01*
X-32631079Y-15668259D01*
X-32561849Y-14784272D01*
X32561849Y-14784272D01*
X32631079Y-15668259D01*
X38006128Y-15668259D01*
X38006128Y-10293210D01*
X38260128Y-10293210D01*
X38260128Y-15668259D01*
X43635177Y-15668259D01*
X43704407Y-14784272D01*
X43400123Y-13716795D01*
X42893431Y-12729192D01*
X42203803Y-11859417D01*
X41357741Y-11140894D01*
X40387759Y-10601236D01*
X39331133Y-10261181D01*
X39144115Y-10223980D01*
X38260128Y-10293210D01*
X38006128Y-10293210D01*
X37122141Y-10223980D01*
X36054664Y-10528264D01*
X35067061Y-11034956D01*
X34197286Y-11724584D01*
X33478763Y-12570646D01*
X32939105Y-13540628D01*
X32599050Y-14597254D01*
X32561849Y-14784272D01*
X-32561849Y-14784272D01*
X-32866133Y-13716795D01*
X-33372825Y-12729192D01*
X-34035873Y-11892940D01*
X-8707000Y-11892940D01*
X-8707000Y-12107060D01*
X-8665228Y-12317066D01*
X-8583287Y-12514888D01*
X-8464328Y-12692922D01*
X-8312922Y-12844328D01*
X-8134888Y-12963287D01*
X-7937066Y-13045228D01*
X-7727060Y-13087000D01*
X-7512940Y-13087000D01*
X-7302934Y-13045228D01*
X-7105112Y-12963287D01*
X-6985000Y-12883030D01*
X-6864888Y-12963287D01*
X-6667066Y-13045228D01*
X-6457060Y-13087000D01*
X-6242940Y-13087000D01*
X-6032934Y-13045228D01*
X-5835112Y-12963287D01*
X-5715000Y-12883030D01*
X-5594888Y-12963287D01*
X-5397066Y-13045228D01*
X-5187060Y-13087000D01*
X-4972940Y-13087000D01*
X-4762934Y-13045228D01*
X-4565112Y-12963287D01*
X-4445000Y-12883030D01*
X-4324888Y-12963287D01*
X-4127066Y-13045228D01*
X-3917060Y-13087000D01*
X-3702940Y-13087000D01*
X-3492934Y-13045228D01*
X-3295112Y-12963287D01*
X-3175000Y-12883030D01*
X-3054888Y-12963287D01*
X-2857066Y-13045228D01*
X-2647060Y-13087000D01*
X-2432940Y-13087000D01*
X-2222934Y-13045228D01*
X-2025112Y-12963287D01*
X-1905000Y-12883030D01*
X-1784888Y-12963287D01*
X-1587066Y-13045228D01*
X-1377060Y-13087000D01*
X-1162940Y-13087000D01*
X-952934Y-13045228D01*
X-755112Y-12963287D01*
X-635000Y-12883030D01*
X-514888Y-12963287D01*
X-317066Y-13045228D01*
X-107060Y-13087000D01*
X107060Y-13087000D01*
X317066Y-13045228D01*
X514888Y-12963287D01*
X635000Y-12883030D01*
X755112Y-12963287D01*
X952934Y-13045228D01*
X1162940Y-13087000D01*
X1377060Y-13087000D01*
X1587066Y-13045228D01*
X1784888Y-12963287D01*
X1905000Y-12883030D01*
X2025112Y-12963287D01*
X2222934Y-13045228D01*
X2432940Y-13087000D01*
X2647060Y-13087000D01*
X2857066Y-13045228D01*
X3054888Y-12963287D01*
X3175000Y-12883030D01*
X3295112Y-12963287D01*
X3492934Y-13045228D01*
X3702940Y-13087000D01*
X3917060Y-13087000D01*
X4127066Y-13045228D01*
X4324888Y-12963287D01*
X4445000Y-12883030D01*
X4565112Y-12963287D01*
X4762934Y-13045228D01*
X4972940Y-13087000D01*
X5187060Y-13087000D01*
X5397066Y-13045228D01*
X5594888Y-12963287D01*
X5715000Y-12883030D01*
X5835112Y-12963287D01*
X6032934Y-13045228D01*
X6242940Y-13087000D01*
X6457060Y-13087000D01*
X6667066Y-13045228D01*
X6864888Y-12963287D01*
X6985000Y-12883030D01*
X7105112Y-12963287D01*
X7302934Y-13045228D01*
X7512940Y-13087000D01*
X7727060Y-13087000D01*
X7937066Y-13045228D01*
X8134888Y-12963287D01*
X8312922Y-12844328D01*
X8464328Y-12692922D01*
X8583287Y-12514888D01*
X8665228Y-12317066D01*
X8707000Y-12107060D01*
X8707000Y-11892940D01*
X8665228Y-11682934D01*
X8583287Y-11485112D01*
X8464328Y-11307078D01*
X8312922Y-11155672D01*
X8134888Y-11036713D01*
X8071338Y-11010389D01*
X8072000Y-11007060D01*
X8072000Y-10792940D01*
X8030228Y-10582934D01*
X7948287Y-10385112D01*
X7829328Y-10207078D01*
X7677922Y-10055672D01*
X7499888Y-9936713D01*
X7302066Y-9854772D01*
X7092060Y-9813000D01*
X6877940Y-9813000D01*
X6667934Y-9854772D01*
X6470112Y-9936713D01*
X6350000Y-10016970D01*
X6229888Y-9936713D01*
X6032066Y-9854772D01*
X5822060Y-9813000D01*
X5607940Y-9813000D01*
X5397934Y-9854772D01*
X5200112Y-9936713D01*
X5080000Y-10016970D01*
X4959888Y-9936713D01*
X4762066Y-9854772D01*
X4552060Y-9813000D01*
X4337940Y-9813000D01*
X4127934Y-9854772D01*
X3930112Y-9936713D01*
X3810000Y-10016970D01*
X3689888Y-9936713D01*
X3492066Y-9854772D01*
X3282060Y-9813000D01*
X3067940Y-9813000D01*
X2857934Y-9854772D01*
X2660112Y-9936713D01*
X2540000Y-10016970D01*
X2419888Y-9936713D01*
X2222066Y-9854772D01*
X2012060Y-9813000D01*
X1797940Y-9813000D01*
X1587934Y-9854772D01*
X1390112Y-9936713D01*
X1270000Y-10016970D01*
X1149888Y-9936713D01*
X952066Y-9854772D01*
X742060Y-9813000D01*
X527940Y-9813000D01*
X317934Y-9854772D01*
X120112Y-9936713D01*
X0Y-10016970D01*
X-120112Y-9936713D01*
X-317934Y-9854772D01*
X-527940Y-9813000D01*
X-742060Y-9813000D01*
X-952066Y-9854772D01*
X-1149888Y-9936713D01*
X-1270000Y-10016970D01*
X-1390112Y-9936713D01*
X-1587934Y-9854772D01*
X-1797940Y-9813000D01*
X-2012060Y-9813000D01*
X-2222066Y-9854772D01*
X-2419888Y-9936713D01*
X-2540000Y-10016970D01*
X-2660112Y-9936713D01*
X-2857934Y-9854772D01*
X-3067940Y-9813000D01*
X-3282060Y-9813000D01*
X-3492066Y-9854772D01*
X-3689888Y-9936713D01*
X-3810000Y-10016970D01*
X-3930112Y-9936713D01*
X-4127934Y-9854772D01*
X-4337940Y-9813000D01*
X-4552060Y-9813000D01*
X-4762066Y-9854772D01*
X-4959888Y-9936713D01*
X-5080000Y-10016970D01*
X-5200112Y-9936713D01*
X-5397934Y-9854772D01*
X-5607940Y-9813000D01*
X-5822060Y-9813000D01*
X-6032066Y-9854772D01*
X-6229888Y-9936713D01*
X-6350000Y-10016970D01*
X-6470112Y-9936713D01*
X-6667934Y-9854772D01*
X-6877940Y-9813000D01*
X-7092060Y-9813000D01*
X-7302066Y-9854772D01*
X-7499888Y-9936713D01*
X-7677922Y-10055672D01*
X-7829328Y-10207078D01*
X-7948287Y-10385112D01*
X-8030228Y-10582934D01*
X-8072000Y-10792940D01*
X-8072000Y-11007060D01*
X-8071338Y-11010389D01*
X-8134888Y-11036713D01*
X-8312922Y-11155672D01*
X-8464328Y-11307078D01*
X-8583287Y-11485112D01*
X-8665228Y-11682934D01*
X-8707000Y-11892940D01*
X-34035873Y-11892940D01*
X-34062453Y-11859417D01*
X-34908515Y-11140894D01*
X-35878497Y-10601236D01*
X-36935123Y-10261181D01*
X-37122141Y-10223980D01*
X-38006128Y-10293210D01*
X-38260128Y-10293210D01*
X-39144115Y-10223980D01*
X-40211592Y-10528264D01*
X-41199195Y-11034956D01*
X-42068970Y-11724584D01*
X-42787493Y-12570646D01*
X-43327151Y-13540628D01*
X-43667206Y-14597254D01*
X-43704407Y-14784272D01*
X-55348000Y-14784272D01*
X-55348000Y107060D01*
X-8707000Y107060D01*
X-8707000Y-107060D01*
X-8665228Y-317066D01*
X-8583287Y-514888D01*
X-8464328Y-692922D01*
X-8312922Y-844328D01*
X-8134888Y-963287D01*
X-7937066Y-1045228D01*
X-7727060Y-1087000D01*
X-7512940Y-1087000D01*
X-7302934Y-1045228D01*
X-7105112Y-963287D01*
X-6985000Y-883030D01*
X-6864888Y-963287D01*
X-6667066Y-1045228D01*
X-6457060Y-1087000D01*
X-6242940Y-1087000D01*
X-6032934Y-1045228D01*
X-5835112Y-963287D01*
X-5715000Y-883030D01*
X-5594888Y-963287D01*
X-5397066Y-1045228D01*
X-5187060Y-1087000D01*
X-4972940Y-1087000D01*
X-4762934Y-1045228D01*
X-4565112Y-963287D01*
X-4445000Y-883030D01*
X-4324888Y-963287D01*
X-4127066Y-1045228D01*
X-3917060Y-1087000D01*
X-3702940Y-1087000D01*
X-3492934Y-1045228D01*
X-3295112Y-963287D01*
X-3175000Y-883030D01*
X-3054888Y-963287D01*
X-2857066Y-1045228D01*
X-2647060Y-1087000D01*
X-2432940Y-1087000D01*
X-2222934Y-1045228D01*
X-2025112Y-963287D01*
X-1905000Y-883030D01*
X-1784888Y-963287D01*
X-1587066Y-1045228D01*
X-1377060Y-1087000D01*
X-1162940Y-1087000D01*
X-952934Y-1045228D01*
X-755112Y-963287D01*
X-635000Y-883030D01*
X-514888Y-963287D01*
X-317066Y-1045228D01*
X-107060Y-1087000D01*
X107060Y-1087000D01*
X317066Y-1045228D01*
X514888Y-963287D01*
X635000Y-883030D01*
X755112Y-963287D01*
X952934Y-1045228D01*
X1162940Y-1087000D01*
X1377060Y-1087000D01*
X1587066Y-1045228D01*
X1784888Y-963287D01*
X1905000Y-883030D01*
X2025112Y-963287D01*
X2222934Y-1045228D01*
X2432940Y-1087000D01*
X2647060Y-1087000D01*
X2857066Y-1045228D01*
X3054888Y-963287D01*
X3175000Y-883030D01*
X3295112Y-963287D01*
X3492934Y-1045228D01*
X3702940Y-1087000D01*
X3917060Y-1087000D01*
X4127066Y-1045228D01*
X4324888Y-963287D01*
X4445000Y-883030D01*
X4565112Y-963287D01*
X4762934Y-1045228D01*
X4972940Y-1087000D01*
X5187060Y-1087000D01*
X5397066Y-1045228D01*
X5594888Y-963287D01*
X5715000Y-883030D01*
X5835112Y-963287D01*
X6032934Y-1045228D01*
X6242940Y-1087000D01*
X6457060Y-1087000D01*
X6667066Y-1045228D01*
X6864888Y-963287D01*
X6985000Y-883030D01*
X7105112Y-963287D01*
X7302934Y-1045228D01*
X7512940Y-1087000D01*
X7727060Y-1087000D01*
X7937066Y-1045228D01*
X8134888Y-963287D01*
X8312922Y-844328D01*
X8464328Y-692922D01*
X8583287Y-514888D01*
X8665228Y-317066D01*
X8707000Y-107060D01*
X8707000Y107060D01*
X8665228Y317066D01*
X8583287Y514888D01*
X8464328Y692922D01*
X8312922Y844328D01*
X8134888Y963287D01*
X8071338Y989611D01*
X8072000Y992940D01*
X8072000Y1207060D01*
X8030228Y1417066D01*
X7948287Y1614888D01*
X7829328Y1792922D01*
X7677922Y1944328D01*
X7499888Y2063287D01*
X7302066Y2145228D01*
X7092060Y2187000D01*
X6877940Y2187000D01*
X6667934Y2145228D01*
X6470112Y2063287D01*
X6350000Y1983030D01*
X6229888Y2063287D01*
X6032066Y2145228D01*
X5822060Y2187000D01*
X5607940Y2187000D01*
X5397934Y2145228D01*
X5200112Y2063287D01*
X5080000Y1983030D01*
X4959888Y2063287D01*
X4762066Y2145228D01*
X4552060Y2187000D01*
X4337940Y2187000D01*
X4127934Y2145228D01*
X3930112Y2063287D01*
X3810000Y1983030D01*
X3689888Y2063287D01*
X3492066Y2145228D01*
X3282060Y2187000D01*
X3067940Y2187000D01*
X2857934Y2145228D01*
X2660112Y2063287D01*
X2540000Y1983030D01*
X2419888Y2063287D01*
X2222066Y2145228D01*
X2012060Y2187000D01*
X1797940Y2187000D01*
X1587934Y2145228D01*
X1390112Y2063287D01*
X1270000Y1983030D01*
X1149888Y2063287D01*
X952066Y2145228D01*
X742060Y2187000D01*
X527940Y2187000D01*
X317934Y2145228D01*
X120112Y2063287D01*
X0Y1983030D01*
X-120112Y2063287D01*
X-317934Y2145228D01*
X-527940Y2187000D01*
X-742060Y2187000D01*
X-952066Y2145228D01*
X-1149888Y2063287D01*
X-1270000Y1983030D01*
X-1390112Y2063287D01*
X-1587934Y2145228D01*
X-1797940Y2187000D01*
X-2012060Y2187000D01*
X-2222066Y2145228D01*
X-2419888Y2063287D01*
X-2540000Y1983030D01*
X-2660112Y2063287D01*
X-2857934Y2145228D01*
X-3067940Y2187000D01*
X-3282060Y2187000D01*
X-3492066Y2145228D01*
X-3689888Y2063287D01*
X-3810000Y1983030D01*
X-3930112Y2063287D01*
X-4127934Y2145228D01*
X-4337940Y2187000D01*
X-4552060Y2187000D01*
X-4762066Y2145228D01*
X-4959888Y2063287D01*
X-5080000Y1983030D01*
X-5200112Y2063287D01*
X-5397934Y2145228D01*
X-5607940Y2187000D01*
X-5822060Y2187000D01*
X-6032066Y2145228D01*
X-6229888Y2063287D01*
X-6350000Y1983030D01*
X-6470112Y2063287D01*
X-6667934Y2145228D01*
X-6877940Y2187000D01*
X-7092060Y2187000D01*
X-7302066Y2145228D01*
X-7499888Y2063287D01*
X-7677922Y1944328D01*
X-7829328Y1792922D01*
X-7948287Y1614888D01*
X-8030228Y1417066D01*
X-8072000Y1207060D01*
X-8072000Y992940D01*
X-8071338Y989611D01*
X-8134888Y963287D01*
X-8312922Y844328D01*
X-8464328Y692922D01*
X-8583287Y514888D01*
X-8665228Y317066D01*
X-8707000Y107060D01*
X-55348000Y107060D01*
X-55348000Y14784272D01*
X-43704407Y14784272D01*
X-43400123Y13716795D01*
X-42893431Y12729192D01*
X-42203803Y11859417D01*
X-41357741Y11140894D01*
X-40387759Y10601236D01*
X-39331133Y10261181D01*
X-39144115Y10223980D01*
X-38260128Y10293210D01*
X-38260128Y15668259D01*
X-38006128Y15668259D01*
X-38006128Y10293210D01*
X-37122141Y10223980D01*
X-36054664Y10528264D01*
X-35067061Y11034956D01*
X-34197286Y11724584D01*
X-33872467Y12107060D01*
X-8707000Y12107060D01*
X-8707000Y11892940D01*
X-8665228Y11682934D01*
X-8583287Y11485112D01*
X-8464328Y11307078D01*
X-8312922Y11155672D01*
X-8134888Y11036713D01*
X-7937066Y10954772D01*
X-7727060Y10913000D01*
X-7512940Y10913000D01*
X-7302934Y10954772D01*
X-7105112Y11036713D01*
X-6985000Y11116970D01*
X-6864888Y11036713D01*
X-6667066Y10954772D01*
X-6457060Y10913000D01*
X-6242940Y10913000D01*
X-6032934Y10954772D01*
X-5835112Y11036713D01*
X-5715000Y11116970D01*
X-5594888Y11036713D01*
X-5397066Y10954772D01*
X-5187060Y10913000D01*
X-4972940Y10913000D01*
X-4762934Y10954772D01*
X-4565112Y11036713D01*
X-4445000Y11116970D01*
X-4324888Y11036713D01*
X-4127066Y10954772D01*
X-3917060Y10913000D01*
X-3702940Y10913000D01*
X-3492934Y10954772D01*
X-3295112Y11036713D01*
X-3175000Y11116970D01*
X-3054888Y11036713D01*
X-2857066Y10954772D01*
X-2647060Y10913000D01*
X-2432940Y10913000D01*
X-2222934Y10954772D01*
X-2025112Y11036713D01*
X-1905000Y11116970D01*
X-1784888Y11036713D01*
X-1587066Y10954772D01*
X-1377060Y10913000D01*
X-1162940Y10913000D01*
X-952934Y10954772D01*
X-755112Y11036713D01*
X-635000Y11116970D01*
X-514888Y11036713D01*
X-317066Y10954772D01*
X-107060Y10913000D01*
X107060Y10913000D01*
X317066Y10954772D01*
X514888Y11036713D01*
X635000Y11116970D01*
X755112Y11036713D01*
X952934Y10954772D01*
X1162940Y10913000D01*
X1377060Y10913000D01*
X1587066Y10954772D01*
X1784888Y11036713D01*
X1905000Y11116970D01*
X2025112Y11036713D01*
X2222934Y10954772D01*
X2432940Y10913000D01*
X2647060Y10913000D01*
X2857066Y10954772D01*
X3054888Y11036713D01*
X3175000Y11116970D01*
X3295112Y11036713D01*
X3492934Y10954772D01*
X3702940Y10913000D01*
X3917060Y10913000D01*
X4127066Y10954772D01*
X4324888Y11036713D01*
X4445000Y11116970D01*
X4565112Y11036713D01*
X4762934Y10954772D01*
X4972940Y10913000D01*
X5187060Y10913000D01*
X5397066Y10954772D01*
X5594888Y11036713D01*
X5715000Y11116970D01*
X5835112Y11036713D01*
X6032934Y10954772D01*
X6242940Y10913000D01*
X6457060Y10913000D01*
X6667066Y10954772D01*
X6864888Y11036713D01*
X6985000Y11116970D01*
X7105112Y11036713D01*
X7302934Y10954772D01*
X7512940Y10913000D01*
X7727060Y10913000D01*
X7937066Y10954772D01*
X8134888Y11036713D01*
X8312922Y11155672D01*
X8464328Y11307078D01*
X8583287Y11485112D01*
X8665228Y11682934D01*
X8707000Y11892940D01*
X8707000Y12107060D01*
X8665228Y12317066D01*
X8583287Y12514888D01*
X8464328Y12692922D01*
X8312922Y12844328D01*
X8134888Y12963287D01*
X8071338Y12989611D01*
X8072000Y12992940D01*
X8072000Y13207060D01*
X8030228Y13417066D01*
X7948287Y13614888D01*
X7829328Y13792922D01*
X7677922Y13944328D01*
X7499888Y14063287D01*
X7302066Y14145228D01*
X7092060Y14187000D01*
X6877940Y14187000D01*
X6667934Y14145228D01*
X6470112Y14063287D01*
X6350000Y13983030D01*
X6229888Y14063287D01*
X6032066Y14145228D01*
X5822060Y14187000D01*
X5607940Y14187000D01*
X5397934Y14145228D01*
X5200112Y14063287D01*
X5080000Y13983030D01*
X4959888Y14063287D01*
X4762066Y14145228D01*
X4552060Y14187000D01*
X4337940Y14187000D01*
X4127934Y14145228D01*
X3930112Y14063287D01*
X3810000Y13983030D01*
X3689888Y14063287D01*
X3492066Y14145228D01*
X3282060Y14187000D01*
X3067940Y14187000D01*
X2857934Y14145228D01*
X2660112Y14063287D01*
X2540000Y13983030D01*
X2419888Y14063287D01*
X2222066Y14145228D01*
X2012060Y14187000D01*
X1797940Y14187000D01*
X1587934Y14145228D01*
X1390112Y14063287D01*
X1270000Y13983030D01*
X1149888Y14063287D01*
X952066Y14145228D01*
X742060Y14187000D01*
X527940Y14187000D01*
X317934Y14145228D01*
X120112Y14063287D01*
X0Y13983030D01*
X-120112Y14063287D01*
X-317934Y14145228D01*
X-527940Y14187000D01*
X-742060Y14187000D01*
X-952066Y14145228D01*
X-1149888Y14063287D01*
X-1270000Y13983030D01*
X-1390112Y14063287D01*
X-1587934Y14145228D01*
X-1797940Y14187000D01*
X-2012060Y14187000D01*
X-2222066Y14145228D01*
X-2419888Y14063287D01*
X-2540000Y13983030D01*
X-2660112Y14063287D01*
X-2857934Y14145228D01*
X-3067940Y14187000D01*
X-3282060Y14187000D01*
X-3492066Y14145228D01*
X-3689888Y14063287D01*
X-3810000Y13983030D01*
X-3930112Y14063287D01*
X-4127934Y14145228D01*
X-4337940Y14187000D01*
X-4552060Y14187000D01*
X-4762066Y14145228D01*
X-4959888Y14063287D01*
X-5080000Y13983030D01*
X-5200112Y14063287D01*
X-5397934Y14145228D01*
X-5607940Y14187000D01*
X-5822060Y14187000D01*
X-6032066Y14145228D01*
X-6229888Y14063287D01*
X-6350000Y13983030D01*
X-6470112Y14063287D01*
X-6667934Y14145228D01*
X-6877940Y14187000D01*
X-7092060Y14187000D01*
X-7302066Y14145228D01*
X-7499888Y14063287D01*
X-7677922Y13944328D01*
X-7829328Y13792922D01*
X-7948287Y13614888D01*
X-8030228Y13417066D01*
X-8072000Y13207060D01*
X-8072000Y12992940D01*
X-8071338Y12989611D01*
X-8134888Y12963287D01*
X-8312922Y12844328D01*
X-8464328Y12692922D01*
X-8583287Y12514888D01*
X-8665228Y12317066D01*
X-8707000Y12107060D01*
X-33872467Y12107060D01*
X-33478763Y12570646D01*
X-32939105Y13540628D01*
X-32599050Y14597254D01*
X-32561849Y14784272D01*
X32561849Y14784272D01*
X32866133Y13716795D01*
X33372825Y12729192D01*
X34062453Y11859417D01*
X34908515Y11140894D01*
X35878497Y10601236D01*
X36935123Y10261181D01*
X37122141Y10223980D01*
X38006128Y10293210D01*
X38006128Y15668259D01*
X38260128Y15668259D01*
X38260128Y10293210D01*
X39144115Y10223980D01*
X40211592Y10528264D01*
X41199195Y11034956D01*
X42068970Y11724584D01*
X42787493Y12570646D01*
X43327151Y13540628D01*
X43667206Y14597254D01*
X43704407Y14784272D01*
X43635177Y15668259D01*
X38260128Y15668259D01*
X38006128Y15668259D01*
X32631079Y15668259D01*
X32561849Y14784272D01*
X-32561849Y14784272D01*
X-32631079Y15668259D01*
X-38006128Y15668259D01*
X-38260128Y15668259D01*
X-43635177Y15668259D01*
X-43704407Y14784272D01*
X-55348000Y14784272D01*
X-55348000Y16806246D01*
X-43704407Y16806246D01*
X-43635177Y15922259D01*
X-38260128Y15922259D01*
X-38260128Y21297308D01*
X-38006128Y21297308D01*
X-38006128Y15922259D01*
X-32631079Y15922259D01*
X-32561849Y16806246D01*
X32561849Y16806246D01*
X32631079Y15922259D01*
X38006128Y15922259D01*
X38006128Y21297308D01*
X38260128Y21297308D01*
X38260128Y15922259D01*
X43635177Y15922259D01*
X43704407Y16806246D01*
X43400123Y17873723D01*
X42893431Y18861326D01*
X42203803Y19731101D01*
X41357741Y20449624D01*
X40387759Y20989282D01*
X39331133Y21329337D01*
X39144115Y21366538D01*
X38260128Y21297308D01*
X38006128Y21297308D01*
X37122141Y21366538D01*
X36054664Y21062254D01*
X35067061Y20555562D01*
X34197286Y19865934D01*
X33478763Y19019872D01*
X32939105Y18049890D01*
X32599050Y16993264D01*
X32561849Y16806246D01*
X-32561849Y16806246D01*
X-32866133Y17873723D01*
X-33372825Y18861326D01*
X-34062453Y19731101D01*
X-34908515Y20449624D01*
X-35878497Y20989282D01*
X-36935123Y21329337D01*
X-37122141Y21366538D01*
X-38006128Y21297308D01*
X-38260128Y21297308D01*
X-39144115Y21366538D01*
X-40211592Y21062254D01*
X-41199195Y20555562D01*
X-42068970Y19865934D01*
X-42787493Y19019872D01*
X-43327151Y18049890D01*
X-43667206Y16993264D01*
X-43704407Y16806246D01*
X-55348000Y16806246D01*
X-55348000Y37122141D01*
X-21366538Y37122141D01*
X-21062254Y36054664D01*
X-20555562Y35067061D01*
X-19865934Y34197286D01*
X-19019872Y33478763D01*
X-18049890Y32939105D01*
X-16993264Y32599050D01*
X-16806246Y32561849D01*
X-15922259Y32631079D01*
X-15922259Y38006128D01*
X-15668259Y38006128D01*
X-15668259Y32631079D01*
X-14784272Y32561849D01*
X-13716795Y32866133D01*
X-12729192Y33372825D01*
X-11859417Y34062453D01*
X-11140894Y34908515D01*
X-10601236Y35878497D01*
X-10261181Y36935123D01*
X-10223980Y37122141D01*
X10223980Y37122141D01*
X10528264Y36054664D01*
X11034956Y35067061D01*
X11724584Y34197286D01*
X12570646Y33478763D01*
X13540628Y32939105D01*
X14597254Y32599050D01*
X14784272Y32561849D01*
X15668259Y32631079D01*
X15668259Y38006128D01*
X15922259Y38006128D01*
X15922259Y32631079D01*
X16806246Y32561849D01*
X17873723Y32866133D01*
X18861326Y33372825D01*
X19731101Y34062453D01*
X20449624Y34908515D01*
X20989282Y35878497D01*
X21329337Y36935123D01*
X21366538Y37122141D01*
X21297308Y38006128D01*
X15922259Y38006128D01*
X15668259Y38006128D01*
X10293210Y38006128D01*
X10223980Y37122141D01*
X-10223980Y37122141D01*
X-10293210Y38006128D01*
X-15668259Y38006128D01*
X-15922259Y38006128D01*
X-21297308Y38006128D01*
X-21366538Y37122141D01*
X-55348000Y37122141D01*
X-55348000Y39144115D01*
X-21366538Y39144115D01*
X-21297308Y38260128D01*
X-15922259Y38260128D01*
X-15922259Y43635177D01*
X-15668259Y43635177D01*
X-15668259Y38260128D01*
X-10293210Y38260128D01*
X-10223980Y39144115D01*
X10223980Y39144115D01*
X10293210Y38260128D01*
X15668259Y38260128D01*
X15668259Y43635177D01*
X15922259Y43635177D01*
X15922259Y38260128D01*
X21297308Y38260128D01*
X21366538Y39144115D01*
X21062254Y40211592D01*
X20555562Y41199195D01*
X19865934Y42068970D01*
X19019872Y42787493D01*
X18049890Y43327151D01*
X16993264Y43667206D01*
X16806246Y43704407D01*
X15922259Y43635177D01*
X15668259Y43635177D01*
X14784272Y43704407D01*
X13716795Y43400123D01*
X12729192Y42893431D01*
X11859417Y42203803D01*
X11140894Y41357741D01*
X10601236Y40387759D01*
X10261181Y39331133D01*
X10223980Y39144115D01*
X-10223980Y39144115D01*
X-10528264Y40211592D01*
X-11034956Y41199195D01*
X-11724584Y42068970D01*
X-12570646Y42787493D01*
X-13540628Y43327151D01*
X-14597254Y43667206D01*
X-14784272Y43704407D01*
X-15668259Y43635177D01*
X-15922259Y43635177D01*
X-16806246Y43704407D01*
X-17873723Y43400123D01*
X-18861326Y42893431D01*
X-19731101Y42203803D01*
X-20449624Y41357741D01*
X-20989282Y40387759D01*
X-21329337Y39331133D01*
X-21366538Y39144115D01*
X-55348000Y39144115D01*
X-55348000Y67550000D01*
X-51883662Y67550000D01*
X-51857075Y67280061D01*
X-51778337Y67020495D01*
X-51650473Y66781279D01*
X-51478397Y66571603D01*
X-51268721Y66399527D01*
X-51029505Y66271663D01*
X-50769939Y66192925D01*
X-50567640Y66173000D01*
X-50442014Y66173000D01*
X-50554674Y66097723D01*
X-50697723Y65954674D01*
X-50810115Y65786467D01*
X-50887533Y65599565D01*
X-50927000Y65401151D01*
X-50927000Y65198849D01*
X-50887533Y65000435D01*
X-50810115Y64813533D01*
X-50804152Y64804609D01*
X-50809736Y64803981D01*
X-50890577Y64616816D01*
X-50933351Y64417477D01*
X-50936413Y64213623D01*
X-50899647Y64013088D01*
X-50824466Y63823580D01*
X-50809736Y63796019D01*
X-50804152Y63795391D01*
X-50810115Y63786467D01*
X-50887533Y63599565D01*
X-50927000Y63401151D01*
X-50927000Y63198849D01*
X-50887533Y63000435D01*
X-50810115Y62813533D01*
X-50801073Y62800000D01*
X-50810115Y62786467D01*
X-50887533Y62599565D01*
X-50927000Y62401151D01*
X-50927000Y62198849D01*
X-50887533Y62000435D01*
X-50810115Y61813533D01*
X-50804152Y61804609D01*
X-50809736Y61803981D01*
X-50890577Y61616816D01*
X-50933351Y61417477D01*
X-50936413Y61213623D01*
X-50899647Y61013088D01*
X-50824466Y60823580D01*
X-50809736Y60796019D01*
X-50804152Y60795391D01*
X-50810115Y60786467D01*
X-50887533Y60599565D01*
X-50927000Y60401151D01*
X-50927000Y60198849D01*
X-50887533Y60000435D01*
X-50810115Y59813533D01*
X-50801073Y59800000D01*
X-50810115Y59786467D01*
X-50887533Y59599565D01*
X-50927000Y59401151D01*
X-50927000Y59198849D01*
X-50887533Y59000435D01*
X-50810115Y58813533D01*
X-50804152Y58804609D01*
X-50809736Y58803981D01*
X-50890577Y58616816D01*
X-50933351Y58417477D01*
X-50936413Y58213623D01*
X-50899647Y58013088D01*
X-50824466Y57823580D01*
X-50809736Y57796019D01*
X-50804152Y57795391D01*
X-50810115Y57786467D01*
X-50887533Y57599565D01*
X-50927000Y57401151D01*
X-50927000Y57198849D01*
X-50887533Y57000435D01*
X-50810115Y56813533D01*
X-50801073Y56800000D01*
X-50810115Y56786467D01*
X-50887533Y56599565D01*
X-50927000Y56401151D01*
X-50927000Y56198849D01*
X-50887533Y56000435D01*
X-50810115Y55813533D01*
X-50697723Y55645326D01*
X-50554674Y55502277D01*
X-50442014Y55427000D01*
X-50567640Y55427000D01*
X-50769939Y55407075D01*
X-51029505Y55328337D01*
X-51268721Y55200473D01*
X-51478397Y55028397D01*
X-51650473Y54818721D01*
X-51778337Y54579505D01*
X-51857075Y54319939D01*
X-51883662Y54050000D01*
X-51857075Y53780061D01*
X-51778337Y53520495D01*
X-51650473Y53281279D01*
X-51478397Y53071603D01*
X-51268721Y52899527D01*
X-51029505Y52771663D01*
X-50769939Y52692925D01*
X-50567640Y52673000D01*
X-47432360Y52673000D01*
X-47230061Y52692925D01*
X-46970495Y52771663D01*
X-46731279Y52899527D01*
X-46521603Y53071603D01*
X-46349527Y53281279D01*
X-46221663Y53520495D01*
X-46142925Y53780061D01*
X-46116338Y54050000D01*
X-46142925Y54319939D01*
X-46221663Y54579505D01*
X-46349527Y54818721D01*
X-46521603Y55028397D01*
X-46731279Y55200473D01*
X-46970495Y55328337D01*
X-47230061Y55407075D01*
X-47432360Y55427000D01*
X-49357986Y55427000D01*
X-49245326Y55502277D01*
X-49102277Y55645326D01*
X-48989885Y55813533D01*
X-48912467Y56000435D01*
X-48893944Y56093559D01*
X-48626836Y56093559D01*
X-48603981Y55890264D01*
X-48416816Y55809423D01*
X-48217477Y55766649D01*
X-48013623Y55763587D01*
X-47813088Y55800353D01*
X-47623580Y55875534D01*
X-47596019Y55890264D01*
X-47573164Y56093559D01*
X-48100000Y56620395D01*
X-48626836Y56093559D01*
X-48893944Y56093559D01*
X-48873000Y56198849D01*
X-48873000Y56280647D01*
X-48806441Y56273164D01*
X-48289109Y56790496D01*
X-48201151Y56773000D01*
X-47998849Y56773000D01*
X-47910891Y56790496D01*
X-47393559Y56273164D01*
X-47190264Y56296019D01*
X-47109423Y56483184D01*
X-47066649Y56682523D01*
X-47063587Y56886377D01*
X-47100353Y57086912D01*
X-47175534Y57276420D01*
X-47190264Y57303981D01*
X-47195848Y57304609D01*
X-47189885Y57313533D01*
X-47112467Y57500435D01*
X-47073000Y57698849D01*
X-47073000Y57901151D01*
X-47112467Y58099565D01*
X-47189885Y58286467D01*
X-47198927Y58300000D01*
X-47189885Y58313533D01*
X-47112467Y58500435D01*
X-47073000Y58698849D01*
X-47073000Y58901151D01*
X-47112467Y59099565D01*
X-47189885Y59286467D01*
X-47195848Y59295391D01*
X-47190264Y59296019D01*
X-47109423Y59483184D01*
X-47066649Y59682523D01*
X-47063587Y59886377D01*
X-47100353Y60086912D01*
X-47175534Y60276420D01*
X-47190264Y60303981D01*
X-47195848Y60304609D01*
X-47189885Y60313533D01*
X-47112467Y60500435D01*
X-47073000Y60698849D01*
X-47073000Y60901151D01*
X-47112467Y61099565D01*
X-47189885Y61286467D01*
X-47198927Y61300000D01*
X-47189885Y61313533D01*
X-47112467Y61500435D01*
X-47073000Y61698849D01*
X-47073000Y61901151D01*
X-47112467Y62099565D01*
X-47189885Y62286467D01*
X-47198927Y62300000D01*
X-47189885Y62313533D01*
X-47112467Y62500435D01*
X-47073000Y62698849D01*
X-47073000Y62901151D01*
X-47112467Y63099565D01*
X-47189885Y63286467D01*
X-47198927Y63300000D01*
X-47189885Y63313533D01*
X-47112467Y63500435D01*
X-47073000Y63698849D01*
X-47073000Y63901151D01*
X-47112467Y64099565D01*
X-47189885Y64286467D01*
X-47198927Y64300000D01*
X-47189885Y64313533D01*
X-47112467Y64500435D01*
X-47073000Y64698849D01*
X-47073000Y64901151D01*
X-47112467Y65099565D01*
X-47189885Y65286467D01*
X-47302277Y65454674D01*
X-47445326Y65597723D01*
X-47613533Y65710115D01*
X-47800435Y65787533D01*
X-47998849Y65827000D01*
X-48201151Y65827000D01*
X-48399565Y65787533D01*
X-48586467Y65710115D01*
X-48754674Y65597723D01*
X-48885982Y65466415D01*
X-48912467Y65599565D01*
X-48989885Y65786467D01*
X-49102277Y65954674D01*
X-49245326Y66097723D01*
X-49357986Y66173000D01*
X-47432360Y66173000D01*
X-47230061Y66192925D01*
X-46970495Y66271663D01*
X-46731279Y66399527D01*
X-46521603Y66571603D01*
X-46349527Y66781279D01*
X-46221663Y67020495D01*
X-46142925Y67280061D01*
X-46116338Y67550000D01*
X-32883662Y67550000D01*
X-32857075Y67280061D01*
X-32778337Y67020495D01*
X-32650473Y66781279D01*
X-32478397Y66571603D01*
X-32268721Y66399527D01*
X-32029505Y66271663D01*
X-31769939Y66192925D01*
X-31567640Y66173000D01*
X-31442014Y66173000D01*
X-31554674Y66097723D01*
X-31697723Y65954674D01*
X-31810115Y65786467D01*
X-31887533Y65599565D01*
X-31927000Y65401151D01*
X-31927000Y65198849D01*
X-31887533Y65000435D01*
X-31810115Y64813533D01*
X-31804152Y64804609D01*
X-31809736Y64803981D01*
X-31890577Y64616816D01*
X-31933351Y64417477D01*
X-31936413Y64213623D01*
X-31899647Y64013088D01*
X-31824466Y63823580D01*
X-31809736Y63796019D01*
X-31804152Y63795391D01*
X-31810115Y63786467D01*
X-31887533Y63599565D01*
X-31927000Y63401151D01*
X-31927000Y63198849D01*
X-31887533Y63000435D01*
X-31810115Y62813533D01*
X-31801073Y62800000D01*
X-31810115Y62786467D01*
X-31887533Y62599565D01*
X-31927000Y62401151D01*
X-31927000Y62198849D01*
X-31887533Y62000435D01*
X-31810115Y61813533D01*
X-31804152Y61804609D01*
X-31809736Y61803981D01*
X-31890577Y61616816D01*
X-31933351Y61417477D01*
X-31936413Y61213623D01*
X-31899647Y61013088D01*
X-31824466Y60823580D01*
X-31809736Y60796019D01*
X-31804152Y60795391D01*
X-31810115Y60786467D01*
X-31887533Y60599565D01*
X-31927000Y60401151D01*
X-31927000Y60198849D01*
X-31887533Y60000435D01*
X-31810115Y59813533D01*
X-31801073Y59800000D01*
X-31810115Y59786467D01*
X-31887533Y59599565D01*
X-31927000Y59401151D01*
X-31927000Y59198849D01*
X-31887533Y59000435D01*
X-31810115Y58813533D01*
X-31804152Y58804609D01*
X-31809736Y58803981D01*
X-31890577Y58616816D01*
X-31933351Y58417477D01*
X-31936413Y58213623D01*
X-31899647Y58013088D01*
X-31824466Y57823580D01*
X-31809736Y57796019D01*
X-31804152Y57795391D01*
X-31810115Y57786467D01*
X-31887533Y57599565D01*
X-31927000Y57401151D01*
X-31927000Y57198849D01*
X-31887533Y57000435D01*
X-31810115Y56813533D01*
X-31801073Y56800000D01*
X-31810115Y56786467D01*
X-31887533Y56599565D01*
X-31927000Y56401151D01*
X-31927000Y56198849D01*
X-31887533Y56000435D01*
X-31810115Y55813533D01*
X-31697723Y55645326D01*
X-31554674Y55502277D01*
X-31442014Y55427000D01*
X-31567640Y55427000D01*
X-31769939Y55407075D01*
X-32029505Y55328337D01*
X-32268721Y55200473D01*
X-32478397Y55028397D01*
X-32650473Y54818721D01*
X-32778337Y54579505D01*
X-32857075Y54319939D01*
X-32883662Y54050000D01*
X-32857075Y53780061D01*
X-32778337Y53520495D01*
X-32650473Y53281279D01*
X-32478397Y53071603D01*
X-32268721Y52899527D01*
X-32029505Y52771663D01*
X-31769939Y52692925D01*
X-31567640Y52673000D01*
X-28432360Y52673000D01*
X-28230061Y52692925D01*
X-27970495Y52771663D01*
X-27731279Y52899527D01*
X-27521603Y53071603D01*
X-27349527Y53281279D01*
X-27221663Y53520495D01*
X-27142925Y53780061D01*
X-27116338Y54050000D01*
X-27142925Y54319939D01*
X-27221663Y54579505D01*
X-27349527Y54818721D01*
X-27521603Y55028397D01*
X-27731279Y55200473D01*
X-27970495Y55328337D01*
X-28230061Y55407075D01*
X-28432360Y55427000D01*
X-30357986Y55427000D01*
X-30245326Y55502277D01*
X-30102277Y55645326D01*
X-29989885Y55813533D01*
X-29912467Y56000435D01*
X-29893944Y56093559D01*
X-29626836Y56093559D01*
X-29603981Y55890264D01*
X-29416816Y55809423D01*
X-29217477Y55766649D01*
X-29013623Y55763587D01*
X-28813088Y55800353D01*
X-28623580Y55875534D01*
X-28596019Y55890264D01*
X-28573164Y56093559D01*
X-29100000Y56620395D01*
X-29626836Y56093559D01*
X-29893944Y56093559D01*
X-29873000Y56198849D01*
X-29873000Y56280647D01*
X-29806441Y56273164D01*
X-29289109Y56790496D01*
X-29201151Y56773000D01*
X-28998849Y56773000D01*
X-28910891Y56790496D01*
X-28393559Y56273164D01*
X-28190264Y56296019D01*
X-28109423Y56483184D01*
X-28066649Y56682523D01*
X-28063587Y56886377D01*
X-28100353Y57086912D01*
X-28175534Y57276420D01*
X-28190264Y57303981D01*
X-28195848Y57304609D01*
X-28189885Y57313533D01*
X-28112467Y57500435D01*
X-28073000Y57698849D01*
X-28073000Y57901151D01*
X-28112467Y58099565D01*
X-28189885Y58286467D01*
X-28198927Y58300000D01*
X-28189885Y58313533D01*
X-28112467Y58500435D01*
X-28073000Y58698849D01*
X-28073000Y58901151D01*
X-28112467Y59099565D01*
X-28189885Y59286467D01*
X-28195848Y59295391D01*
X-28190264Y59296019D01*
X-28109423Y59483184D01*
X-28066649Y59682523D01*
X-28063587Y59886377D01*
X-28100353Y60086912D01*
X-28175534Y60276420D01*
X-28190264Y60303981D01*
X-28195848Y60304609D01*
X-28189885Y60313533D01*
X-28112467Y60500435D01*
X-28073000Y60698849D01*
X-28073000Y60901151D01*
X-28112467Y61099565D01*
X-28189885Y61286467D01*
X-28198927Y61300000D01*
X-28189885Y61313533D01*
X-28112467Y61500435D01*
X-28073000Y61698849D01*
X-28073000Y61901151D01*
X-28112467Y62099565D01*
X-28189885Y62286467D01*
X-28198927Y62300000D01*
X-28189885Y62313533D01*
X-28112467Y62500435D01*
X-28073000Y62698849D01*
X-28073000Y62901151D01*
X-28112467Y63099565D01*
X-28189885Y63286467D01*
X-28198927Y63300000D01*
X-28189885Y63313533D01*
X-28112467Y63500435D01*
X-28073000Y63698849D01*
X-28073000Y63901151D01*
X-28112467Y64099565D01*
X-28189885Y64286467D01*
X-28198927Y64300000D01*
X-28189885Y64313533D01*
X-28112467Y64500435D01*
X-28073000Y64698849D01*
X-28073000Y64901151D01*
X-28112467Y65099565D01*
X-28189885Y65286467D01*
X-28302277Y65454674D01*
X-28445326Y65597723D01*
X-28613533Y65710115D01*
X-28800435Y65787533D01*
X-28998849Y65827000D01*
X-29201151Y65827000D01*
X-29399565Y65787533D01*
X-29586467Y65710115D01*
X-29754674Y65597723D01*
X-29885982Y65466415D01*
X-29912467Y65599565D01*
X-29989885Y65786467D01*
X-30102277Y65954674D01*
X-30245326Y66097723D01*
X-30357986Y66173000D01*
X-28432360Y66173000D01*
X-28230061Y66192925D01*
X-27970495Y66271663D01*
X-27731279Y66399527D01*
X-27521603Y66571603D01*
X-27349527Y66781279D01*
X-27221663Y67020495D01*
X-27142925Y67280061D01*
X-27116338Y67550000D01*
X-13883662Y67550000D01*
X-13857075Y67280061D01*
X-13778337Y67020495D01*
X-13650473Y66781279D01*
X-13478397Y66571603D01*
X-13268721Y66399527D01*
X-13029505Y66271663D01*
X-12769939Y66192925D01*
X-12567640Y66173000D01*
X-12442014Y66173000D01*
X-12554674Y66097723D01*
X-12697723Y65954674D01*
X-12810115Y65786467D01*
X-12887533Y65599565D01*
X-12927000Y65401151D01*
X-12927000Y65198849D01*
X-12887533Y65000435D01*
X-12810115Y64813533D01*
X-12804152Y64804609D01*
X-12809736Y64803981D01*
X-12890577Y64616816D01*
X-12933351Y64417477D01*
X-12936413Y64213623D01*
X-12899647Y64013088D01*
X-12824466Y63823580D01*
X-12809736Y63796019D01*
X-12804152Y63795391D01*
X-12810115Y63786467D01*
X-12887533Y63599565D01*
X-12927000Y63401151D01*
X-12927000Y63198849D01*
X-12887533Y63000435D01*
X-12810115Y62813533D01*
X-12801073Y62800000D01*
X-12810115Y62786467D01*
X-12887533Y62599565D01*
X-12927000Y62401151D01*
X-12927000Y62198849D01*
X-12887533Y62000435D01*
X-12810115Y61813533D01*
X-12804152Y61804609D01*
X-12809736Y61803981D01*
X-12890577Y61616816D01*
X-12933351Y61417477D01*
X-12936413Y61213623D01*
X-12899647Y61013088D01*
X-12824466Y60823580D01*
X-12809736Y60796019D01*
X-12804152Y60795391D01*
X-12810115Y60786467D01*
X-12887533Y60599565D01*
X-12927000Y60401151D01*
X-12927000Y60198849D01*
X-12887533Y60000435D01*
X-12810115Y59813533D01*
X-12801073Y59800000D01*
X-12810115Y59786467D01*
X-12887533Y59599565D01*
X-12927000Y59401151D01*
X-12927000Y59198849D01*
X-12887533Y59000435D01*
X-12810115Y58813533D01*
X-12804152Y58804609D01*
X-12809736Y58803981D01*
X-12890577Y58616816D01*
X-12933351Y58417477D01*
X-12936413Y58213623D01*
X-12899647Y58013088D01*
X-12824466Y57823580D01*
X-12809736Y57796019D01*
X-12804152Y57795391D01*
X-12810115Y57786467D01*
X-12887533Y57599565D01*
X-12927000Y57401151D01*
X-12927000Y57198849D01*
X-12887533Y57000435D01*
X-12810115Y56813533D01*
X-12801073Y56800000D01*
X-12810115Y56786467D01*
X-12887533Y56599565D01*
X-12927000Y56401151D01*
X-12927000Y56198849D01*
X-12887533Y56000435D01*
X-12810115Y55813533D01*
X-12697723Y55645326D01*
X-12554674Y55502277D01*
X-12442014Y55427000D01*
X-12567640Y55427000D01*
X-12769939Y55407075D01*
X-13029505Y55328337D01*
X-13268721Y55200473D01*
X-13478397Y55028397D01*
X-13650473Y54818721D01*
X-13778337Y54579505D01*
X-13857075Y54319939D01*
X-13883662Y54050000D01*
X-13857075Y53780061D01*
X-13778337Y53520495D01*
X-13650473Y53281279D01*
X-13478397Y53071603D01*
X-13268721Y52899527D01*
X-13029505Y52771663D01*
X-12769939Y52692925D01*
X-12567640Y52673000D01*
X-9432360Y52673000D01*
X-9230061Y52692925D01*
X-8970495Y52771663D01*
X-8731279Y52899527D01*
X-8521603Y53071603D01*
X-8349527Y53281279D01*
X-8221663Y53520495D01*
X-8142925Y53780061D01*
X-8116338Y54050000D01*
X-8142925Y54319939D01*
X-8221663Y54579505D01*
X-8349527Y54818721D01*
X-8521603Y55028397D01*
X-8731279Y55200473D01*
X-8970495Y55328337D01*
X-9230061Y55407075D01*
X-9432360Y55427000D01*
X-11357986Y55427000D01*
X-11245326Y55502277D01*
X-11102277Y55645326D01*
X-10989885Y55813533D01*
X-10912467Y56000435D01*
X-10893944Y56093559D01*
X-10626836Y56093559D01*
X-10603981Y55890264D01*
X-10416816Y55809423D01*
X-10217477Y55766649D01*
X-10013623Y55763587D01*
X-9813088Y55800353D01*
X-9623580Y55875534D01*
X-9596019Y55890264D01*
X-9573164Y56093559D01*
X-10100000Y56620395D01*
X-10626836Y56093559D01*
X-10893944Y56093559D01*
X-10873000Y56198849D01*
X-10873000Y56280647D01*
X-10806441Y56273164D01*
X-10289109Y56790496D01*
X-10201151Y56773000D01*
X-9998849Y56773000D01*
X-9910891Y56790496D01*
X-9393559Y56273164D01*
X-9190264Y56296019D01*
X-9109423Y56483184D01*
X-9066649Y56682523D01*
X-9063587Y56886377D01*
X-9100353Y57086912D01*
X-9175534Y57276420D01*
X-9190264Y57303981D01*
X-9195848Y57304609D01*
X-9189885Y57313533D01*
X-9112467Y57500435D01*
X-9073000Y57698849D01*
X-9073000Y57901151D01*
X-9112467Y58099565D01*
X-9189885Y58286467D01*
X-9198927Y58300000D01*
X-9189885Y58313533D01*
X-9112467Y58500435D01*
X-9073000Y58698849D01*
X-9073000Y58901151D01*
X-9112467Y59099565D01*
X-9189885Y59286467D01*
X-9195848Y59295391D01*
X-9190264Y59296019D01*
X-9109423Y59483184D01*
X-9066649Y59682523D01*
X-9063587Y59886377D01*
X-9100353Y60086912D01*
X-9175534Y60276420D01*
X-9190264Y60303981D01*
X-9195848Y60304609D01*
X-9189885Y60313533D01*
X-9112467Y60500435D01*
X-9073000Y60698849D01*
X-9073000Y60901151D01*
X-9112467Y61099565D01*
X-9189885Y61286467D01*
X-9198927Y61300000D01*
X-9189885Y61313533D01*
X-9112467Y61500435D01*
X-9073000Y61698849D01*
X-9073000Y61901151D01*
X-9112467Y62099565D01*
X-9189885Y62286467D01*
X-9198927Y62300000D01*
X-9189885Y62313533D01*
X-9112467Y62500435D01*
X-9073000Y62698849D01*
X-9073000Y62901151D01*
X-9112467Y63099565D01*
X-9189885Y63286467D01*
X-9198927Y63300000D01*
X-9189885Y63313533D01*
X-9112467Y63500435D01*
X-9073000Y63698849D01*
X-9073000Y63901151D01*
X-9112467Y64099565D01*
X-9189885Y64286467D01*
X-9198927Y64300000D01*
X-9189885Y64313533D01*
X-9112467Y64500435D01*
X-9073000Y64698849D01*
X-9073000Y64901151D01*
X-9112467Y65099565D01*
X-9189885Y65286467D01*
X-9302277Y65454674D01*
X-9445326Y65597723D01*
X-9613533Y65710115D01*
X-9800435Y65787533D01*
X-9998849Y65827000D01*
X-10201151Y65827000D01*
X-10399565Y65787533D01*
X-10586467Y65710115D01*
X-10754674Y65597723D01*
X-10885982Y65466415D01*
X-10912467Y65599565D01*
X-10989885Y65786467D01*
X-11102277Y65954674D01*
X-11245326Y66097723D01*
X-11357986Y66173000D01*
X-9432360Y66173000D01*
X-9230061Y66192925D01*
X-8970495Y66271663D01*
X-8731279Y66399527D01*
X-8521603Y66571603D01*
X-8349527Y66781279D01*
X-8221663Y67020495D01*
X-8142925Y67280061D01*
X-8116338Y67550000D01*
X8116338Y67550000D01*
X8142925Y67280061D01*
X8221663Y67020495D01*
X8349527Y66781279D01*
X8521603Y66571603D01*
X8731279Y66399527D01*
X8970495Y66271663D01*
X9230061Y66192925D01*
X9432360Y66173000D01*
X9557986Y66173000D01*
X9445326Y66097723D01*
X9302277Y65954674D01*
X9189885Y65786467D01*
X9112467Y65599565D01*
X9073000Y65401151D01*
X9073000Y65198849D01*
X9112467Y65000435D01*
X9189885Y64813533D01*
X9195848Y64804609D01*
X9190264Y64803981D01*
X9109423Y64616816D01*
X9066649Y64417477D01*
X9063587Y64213623D01*
X9100353Y64013088D01*
X9175534Y63823580D01*
X9190264Y63796019D01*
X9195848Y63795391D01*
X9189885Y63786467D01*
X9112467Y63599565D01*
X9073000Y63401151D01*
X9073000Y63198849D01*
X9112467Y63000435D01*
X9189885Y62813533D01*
X9198927Y62800000D01*
X9189885Y62786467D01*
X9112467Y62599565D01*
X9073000Y62401151D01*
X9073000Y62198849D01*
X9112467Y62000435D01*
X9189885Y61813533D01*
X9195848Y61804609D01*
X9190264Y61803981D01*
X9109423Y61616816D01*
X9066649Y61417477D01*
X9063587Y61213623D01*
X9100353Y61013088D01*
X9175534Y60823580D01*
X9190264Y60796019D01*
X9195848Y60795391D01*
X9189885Y60786467D01*
X9112467Y60599565D01*
X9073000Y60401151D01*
X9073000Y60198849D01*
X9112467Y60000435D01*
X9189885Y59813533D01*
X9198927Y59800000D01*
X9189885Y59786467D01*
X9112467Y59599565D01*
X9073000Y59401151D01*
X9073000Y59198849D01*
X9112467Y59000435D01*
X9189885Y58813533D01*
X9195848Y58804609D01*
X9190264Y58803981D01*
X9109423Y58616816D01*
X9066649Y58417477D01*
X9063587Y58213623D01*
X9100353Y58013088D01*
X9175534Y57823580D01*
X9190264Y57796019D01*
X9195848Y57795391D01*
X9189885Y57786467D01*
X9112467Y57599565D01*
X9073000Y57401151D01*
X9073000Y57198849D01*
X9112467Y57000435D01*
X9189885Y56813533D01*
X9198927Y56800000D01*
X9189885Y56786467D01*
X9112467Y56599565D01*
X9073000Y56401151D01*
X9073000Y56198849D01*
X9112467Y56000435D01*
X9189885Y55813533D01*
X9302277Y55645326D01*
X9445326Y55502277D01*
X9557986Y55427000D01*
X9432360Y55427000D01*
X9230061Y55407075D01*
X8970495Y55328337D01*
X8731279Y55200473D01*
X8521603Y55028397D01*
X8349527Y54818721D01*
X8221663Y54579505D01*
X8142925Y54319939D01*
X8116338Y54050000D01*
X8142925Y53780061D01*
X8221663Y53520495D01*
X8349527Y53281279D01*
X8521603Y53071603D01*
X8731279Y52899527D01*
X8970495Y52771663D01*
X9230061Y52692925D01*
X9432360Y52673000D01*
X12567640Y52673000D01*
X12769939Y52692925D01*
X13029505Y52771663D01*
X13268721Y52899527D01*
X13478397Y53071603D01*
X13650473Y53281279D01*
X13778337Y53520495D01*
X13857075Y53780061D01*
X13883662Y54050000D01*
X13857075Y54319939D01*
X13778337Y54579505D01*
X13650473Y54818721D01*
X13478397Y55028397D01*
X13268721Y55200473D01*
X13029505Y55328337D01*
X12769939Y55407075D01*
X12567640Y55427000D01*
X10642014Y55427000D01*
X10754674Y55502277D01*
X10897723Y55645326D01*
X11010115Y55813533D01*
X11087533Y56000435D01*
X11106056Y56093559D01*
X11373164Y56093559D01*
X11396019Y55890264D01*
X11583184Y55809423D01*
X11782523Y55766649D01*
X11986377Y55763587D01*
X12186912Y55800353D01*
X12376420Y55875534D01*
X12403981Y55890264D01*
X12426836Y56093559D01*
X11900000Y56620395D01*
X11373164Y56093559D01*
X11106056Y56093559D01*
X11127000Y56198849D01*
X11127000Y56280647D01*
X11193559Y56273164D01*
X11710891Y56790496D01*
X11798849Y56773000D01*
X12001151Y56773000D01*
X12089109Y56790496D01*
X12606441Y56273164D01*
X12809736Y56296019D01*
X12890577Y56483184D01*
X12933351Y56682523D01*
X12936413Y56886377D01*
X12899647Y57086912D01*
X12824466Y57276420D01*
X12809736Y57303981D01*
X12804152Y57304609D01*
X12810115Y57313533D01*
X12887533Y57500435D01*
X12927000Y57698849D01*
X12927000Y57901151D01*
X12887533Y58099565D01*
X12810115Y58286467D01*
X12801073Y58300000D01*
X12810115Y58313533D01*
X12887533Y58500435D01*
X12927000Y58698849D01*
X12927000Y58901151D01*
X12887533Y59099565D01*
X12810115Y59286467D01*
X12804152Y59295391D01*
X12809736Y59296019D01*
X12890577Y59483184D01*
X12933351Y59682523D01*
X12936413Y59886377D01*
X12899647Y60086912D01*
X12824466Y60276420D01*
X12809736Y60303981D01*
X12804152Y60304609D01*
X12810115Y60313533D01*
X12887533Y60500435D01*
X12927000Y60698849D01*
X12927000Y60901151D01*
X12887533Y61099565D01*
X12810115Y61286467D01*
X12801073Y61300000D01*
X12810115Y61313533D01*
X12887533Y61500435D01*
X12927000Y61698849D01*
X12927000Y61901151D01*
X12887533Y62099565D01*
X12810115Y62286467D01*
X12801073Y62300000D01*
X12810115Y62313533D01*
X12887533Y62500435D01*
X12927000Y62698849D01*
X12927000Y62901151D01*
X12887533Y63099565D01*
X12810115Y63286467D01*
X12801073Y63300000D01*
X12810115Y63313533D01*
X12887533Y63500435D01*
X12927000Y63698849D01*
X12927000Y63901151D01*
X12887533Y64099565D01*
X12810115Y64286467D01*
X12801073Y64300000D01*
X12810115Y64313533D01*
X12887533Y64500435D01*
X12927000Y64698849D01*
X12927000Y64901151D01*
X12887533Y65099565D01*
X12810115Y65286467D01*
X12697723Y65454674D01*
X12554674Y65597723D01*
X12386467Y65710115D01*
X12199565Y65787533D01*
X12001151Y65827000D01*
X11798849Y65827000D01*
X11600435Y65787533D01*
X11413533Y65710115D01*
X11245326Y65597723D01*
X11114018Y65466415D01*
X11087533Y65599565D01*
X11010115Y65786467D01*
X10897723Y65954674D01*
X10754674Y66097723D01*
X10642014Y66173000D01*
X12567640Y66173000D01*
X12769939Y66192925D01*
X13029505Y66271663D01*
X13268721Y66399527D01*
X13478397Y66571603D01*
X13650473Y66781279D01*
X13778337Y67020495D01*
X13857075Y67280061D01*
X13883662Y67550000D01*
X27116338Y67550000D01*
X27142925Y67280061D01*
X27221663Y67020495D01*
X27349527Y66781279D01*
X27521603Y66571603D01*
X27731279Y66399527D01*
X27970495Y66271663D01*
X28230061Y66192925D01*
X28432360Y66173000D01*
X28557986Y66173000D01*
X28445326Y66097723D01*
X28302277Y65954674D01*
X28189885Y65786467D01*
X28112467Y65599565D01*
X28073000Y65401151D01*
X28073000Y65198849D01*
X28112467Y65000435D01*
X28189885Y64813533D01*
X28195848Y64804609D01*
X28190264Y64803981D01*
X28109423Y64616816D01*
X28066649Y64417477D01*
X28063587Y64213623D01*
X28100353Y64013088D01*
X28175534Y63823580D01*
X28190264Y63796019D01*
X28195848Y63795391D01*
X28189885Y63786467D01*
X28112467Y63599565D01*
X28073000Y63401151D01*
X28073000Y63198849D01*
X28112467Y63000435D01*
X28189885Y62813533D01*
X28198927Y62800000D01*
X28189885Y62786467D01*
X28112467Y62599565D01*
X28073000Y62401151D01*
X28073000Y62198849D01*
X28112467Y62000435D01*
X28189885Y61813533D01*
X28195848Y61804609D01*
X28190264Y61803981D01*
X28109423Y61616816D01*
X28066649Y61417477D01*
X28063587Y61213623D01*
X28100353Y61013088D01*
X28175534Y60823580D01*
X28190264Y60796019D01*
X28195848Y60795391D01*
X28189885Y60786467D01*
X28112467Y60599565D01*
X28073000Y60401151D01*
X28073000Y60198849D01*
X28112467Y60000435D01*
X28189885Y59813533D01*
X28198927Y59800000D01*
X28189885Y59786467D01*
X28112467Y59599565D01*
X28073000Y59401151D01*
X28073000Y59198849D01*
X28112467Y59000435D01*
X28189885Y58813533D01*
X28195848Y58804609D01*
X28190264Y58803981D01*
X28109423Y58616816D01*
X28066649Y58417477D01*
X28063587Y58213623D01*
X28100353Y58013088D01*
X28175534Y57823580D01*
X28190264Y57796019D01*
X28195848Y57795391D01*
X28189885Y57786467D01*
X28112467Y57599565D01*
X28073000Y57401151D01*
X28073000Y57198849D01*
X28112467Y57000435D01*
X28189885Y56813533D01*
X28198927Y56800000D01*
X28189885Y56786467D01*
X28112467Y56599565D01*
X28073000Y56401151D01*
X28073000Y56198849D01*
X28112467Y56000435D01*
X28189885Y55813533D01*
X28302277Y55645326D01*
X28445326Y55502277D01*
X28557986Y55427000D01*
X28432360Y55427000D01*
X28230061Y55407075D01*
X27970495Y55328337D01*
X27731279Y55200473D01*
X27521603Y55028397D01*
X27349527Y54818721D01*
X27221663Y54579505D01*
X27142925Y54319939D01*
X27116338Y54050000D01*
X27142925Y53780061D01*
X27221663Y53520495D01*
X27349527Y53281279D01*
X27521603Y53071603D01*
X27731279Y52899527D01*
X27970495Y52771663D01*
X28230061Y52692925D01*
X28432360Y52673000D01*
X31567640Y52673000D01*
X31769939Y52692925D01*
X32029505Y52771663D01*
X32268721Y52899527D01*
X32478397Y53071603D01*
X32650473Y53281279D01*
X32778337Y53520495D01*
X32857075Y53780061D01*
X32883662Y54050000D01*
X32857075Y54319939D01*
X32778337Y54579505D01*
X32650473Y54818721D01*
X32478397Y55028397D01*
X32268721Y55200473D01*
X32029505Y55328337D01*
X31769939Y55407075D01*
X31567640Y55427000D01*
X29642014Y55427000D01*
X29754674Y55502277D01*
X29897723Y55645326D01*
X30010115Y55813533D01*
X30087533Y56000435D01*
X30106056Y56093559D01*
X30373164Y56093559D01*
X30396019Y55890264D01*
X30583184Y55809423D01*
X30782523Y55766649D01*
X30986377Y55763587D01*
X31186912Y55800353D01*
X31376420Y55875534D01*
X31403981Y55890264D01*
X31426836Y56093559D01*
X30900000Y56620395D01*
X30373164Y56093559D01*
X30106056Y56093559D01*
X30127000Y56198849D01*
X30127000Y56280647D01*
X30193559Y56273164D01*
X30710891Y56790496D01*
X30798849Y56773000D01*
X31001151Y56773000D01*
X31089109Y56790496D01*
X31606441Y56273164D01*
X31809736Y56296019D01*
X31890577Y56483184D01*
X31933351Y56682523D01*
X31936413Y56886377D01*
X31899647Y57086912D01*
X31824466Y57276420D01*
X31809736Y57303981D01*
X31804152Y57304609D01*
X31810115Y57313533D01*
X31887533Y57500435D01*
X31927000Y57698849D01*
X31927000Y57901151D01*
X31887533Y58099565D01*
X31810115Y58286467D01*
X31801073Y58300000D01*
X31810115Y58313533D01*
X31887533Y58500435D01*
X31927000Y58698849D01*
X31927000Y58901151D01*
X31887533Y59099565D01*
X31810115Y59286467D01*
X31804152Y59295391D01*
X31809736Y59296019D01*
X31890577Y59483184D01*
X31933351Y59682523D01*
X31936413Y59886377D01*
X31899647Y60086912D01*
X31824466Y60276420D01*
X31809736Y60303981D01*
X31804152Y60304609D01*
X31810115Y60313533D01*
X31887533Y60500435D01*
X31927000Y60698849D01*
X31927000Y60901151D01*
X31887533Y61099565D01*
X31810115Y61286467D01*
X31801073Y61300000D01*
X31810115Y61313533D01*
X31887533Y61500435D01*
X31927000Y61698849D01*
X31927000Y61901151D01*
X31887533Y62099565D01*
X31810115Y62286467D01*
X31801073Y62300000D01*
X31810115Y62313533D01*
X31887533Y62500435D01*
X31927000Y62698849D01*
X31927000Y62901151D01*
X31887533Y63099565D01*
X31810115Y63286467D01*
X31801073Y63300000D01*
X31810115Y63313533D01*
X31887533Y63500435D01*
X31927000Y63698849D01*
X31927000Y63901151D01*
X31887533Y64099565D01*
X31810115Y64286467D01*
X31801073Y64300000D01*
X31810115Y64313533D01*
X31887533Y64500435D01*
X31927000Y64698849D01*
X31927000Y64901151D01*
X31887533Y65099565D01*
X31810115Y65286467D01*
X31697723Y65454674D01*
X31554674Y65597723D01*
X31386467Y65710115D01*
X31199565Y65787533D01*
X31001151Y65827000D01*
X30798849Y65827000D01*
X30600435Y65787533D01*
X30413533Y65710115D01*
X30245326Y65597723D01*
X30114018Y65466415D01*
X30087533Y65599565D01*
X30010115Y65786467D01*
X29897723Y65954674D01*
X29754674Y66097723D01*
X29642014Y66173000D01*
X31567640Y66173000D01*
X31769939Y66192925D01*
X32029505Y66271663D01*
X32268721Y66399527D01*
X32478397Y66571603D01*
X32650473Y66781279D01*
X32778337Y67020495D01*
X32857075Y67280061D01*
X32883662Y67550000D01*
X46116338Y67550000D01*
X46142925Y67280061D01*
X46221663Y67020495D01*
X46349527Y66781279D01*
X46521603Y66571603D01*
X46731279Y66399527D01*
X46970495Y66271663D01*
X47230061Y66192925D01*
X47432360Y66173000D01*
X47557986Y66173000D01*
X47445326Y66097723D01*
X47302277Y65954674D01*
X47189885Y65786467D01*
X47112467Y65599565D01*
X47073000Y65401151D01*
X47073000Y65198849D01*
X47112467Y65000435D01*
X47189885Y64813533D01*
X47195848Y64804609D01*
X47190264Y64803981D01*
X47109423Y64616816D01*
X47066649Y64417477D01*
X47063587Y64213623D01*
X47100353Y64013088D01*
X47175534Y63823580D01*
X47190264Y63796019D01*
X47195848Y63795391D01*
X47189885Y63786467D01*
X47112467Y63599565D01*
X47073000Y63401151D01*
X47073000Y63198849D01*
X47112467Y63000435D01*
X47189885Y62813533D01*
X47198927Y62800000D01*
X47189885Y62786467D01*
X47112467Y62599565D01*
X47073000Y62401151D01*
X47073000Y62198849D01*
X47112467Y62000435D01*
X47189885Y61813533D01*
X47195848Y61804609D01*
X47190264Y61803981D01*
X47109423Y61616816D01*
X47066649Y61417477D01*
X47063587Y61213623D01*
X47100353Y61013088D01*
X47175534Y60823580D01*
X47190264Y60796019D01*
X47195848Y60795391D01*
X47189885Y60786467D01*
X47112467Y60599565D01*
X47073000Y60401151D01*
X47073000Y60198849D01*
X47112467Y60000435D01*
X47189885Y59813533D01*
X47198927Y59800000D01*
X47189885Y59786467D01*
X47112467Y59599565D01*
X47073000Y59401151D01*
X47073000Y59198849D01*
X47112467Y59000435D01*
X47189885Y58813533D01*
X47195848Y58804609D01*
X47190264Y58803981D01*
X47109423Y58616816D01*
X47066649Y58417477D01*
X47063587Y58213623D01*
X47100353Y58013088D01*
X47175534Y57823580D01*
X47190264Y57796019D01*
X47195848Y57795391D01*
X47189885Y57786467D01*
X47112467Y57599565D01*
X47073000Y57401151D01*
X47073000Y57198849D01*
X47112467Y57000435D01*
X47189885Y56813533D01*
X47198927Y56800000D01*
X47189885Y56786467D01*
X47112467Y56599565D01*
X47073000Y56401151D01*
X47073000Y56198849D01*
X47112467Y56000435D01*
X47189885Y55813533D01*
X47302277Y55645326D01*
X47445326Y55502277D01*
X47557986Y55427000D01*
X47432360Y55427000D01*
X47230061Y55407075D01*
X46970495Y55328337D01*
X46731279Y55200473D01*
X46521603Y55028397D01*
X46349527Y54818721D01*
X46221663Y54579505D01*
X46142925Y54319939D01*
X46116338Y54050000D01*
X46142925Y53780061D01*
X46221663Y53520495D01*
X46349527Y53281279D01*
X46521603Y53071603D01*
X46731279Y52899527D01*
X46970495Y52771663D01*
X47230061Y52692925D01*
X47432360Y52673000D01*
X50567640Y52673000D01*
X50769939Y52692925D01*
X51029505Y52771663D01*
X51268721Y52899527D01*
X51478397Y53071603D01*
X51650473Y53281279D01*
X51778337Y53520495D01*
X51857075Y53780061D01*
X51883662Y54050000D01*
X51857075Y54319939D01*
X51778337Y54579505D01*
X51650473Y54818721D01*
X51478397Y55028397D01*
X51268721Y55200473D01*
X51029505Y55328337D01*
X50769939Y55407075D01*
X50567640Y55427000D01*
X48642014Y55427000D01*
X48754674Y55502277D01*
X48897723Y55645326D01*
X49010115Y55813533D01*
X49087533Y56000435D01*
X49106056Y56093559D01*
X49373164Y56093559D01*
X49396019Y55890264D01*
X49583184Y55809423D01*
X49782523Y55766649D01*
X49986377Y55763587D01*
X50186912Y55800353D01*
X50376420Y55875534D01*
X50403981Y55890264D01*
X50426836Y56093559D01*
X49900000Y56620395D01*
X49373164Y56093559D01*
X49106056Y56093559D01*
X49127000Y56198849D01*
X49127000Y56280647D01*
X49193559Y56273164D01*
X49710891Y56790496D01*
X49798849Y56773000D01*
X50001151Y56773000D01*
X50089109Y56790496D01*
X50606441Y56273164D01*
X50809736Y56296019D01*
X50890577Y56483184D01*
X50933351Y56682523D01*
X50936413Y56886377D01*
X50899647Y57086912D01*
X50824466Y57276420D01*
X50809736Y57303981D01*
X50804152Y57304609D01*
X50810115Y57313533D01*
X50887533Y57500435D01*
X50927000Y57698849D01*
X50927000Y57901151D01*
X50887533Y58099565D01*
X50810115Y58286467D01*
X50801073Y58300000D01*
X50810115Y58313533D01*
X50887533Y58500435D01*
X50927000Y58698849D01*
X50927000Y58901151D01*
X50887533Y59099565D01*
X50810115Y59286467D01*
X50804152Y59295391D01*
X50809736Y59296019D01*
X50890577Y59483184D01*
X50933351Y59682523D01*
X50936413Y59886377D01*
X50899647Y60086912D01*
X50824466Y60276420D01*
X50809736Y60303981D01*
X50804152Y60304609D01*
X50810115Y60313533D01*
X50887533Y60500435D01*
X50927000Y60698849D01*
X50927000Y60901151D01*
X50887533Y61099565D01*
X50810115Y61286467D01*
X50801073Y61300000D01*
X50810115Y61313533D01*
X50887533Y61500435D01*
X50927000Y61698849D01*
X50927000Y61901151D01*
X50887533Y62099565D01*
X50810115Y62286467D01*
X50801073Y62300000D01*
X50810115Y62313533D01*
X50887533Y62500435D01*
X50927000Y62698849D01*
X50927000Y62901151D01*
X50887533Y63099565D01*
X50810115Y63286467D01*
X50801073Y63300000D01*
X50810115Y63313533D01*
X50887533Y63500435D01*
X50927000Y63698849D01*
X50927000Y63901151D01*
X50887533Y64099565D01*
X50810115Y64286467D01*
X50801073Y64300000D01*
X50810115Y64313533D01*
X50887533Y64500435D01*
X50927000Y64698849D01*
X50927000Y64901151D01*
X50887533Y65099565D01*
X50810115Y65286467D01*
X50697723Y65454674D01*
X50554674Y65597723D01*
X50386467Y65710115D01*
X50199565Y65787533D01*
X50001151Y65827000D01*
X49798849Y65827000D01*
X49600435Y65787533D01*
X49413533Y65710115D01*
X49245326Y65597723D01*
X49114018Y65466415D01*
X49087533Y65599565D01*
X49010115Y65786467D01*
X48897723Y65954674D01*
X48754674Y66097723D01*
X48642014Y66173000D01*
X50567640Y66173000D01*
X50769939Y66192925D01*
X51029505Y66271663D01*
X51268721Y66399527D01*
X51478397Y66571603D01*
X51650473Y66781279D01*
X51778337Y67020495D01*
X51857075Y67280061D01*
X51883662Y67550000D01*
X51857075Y67819939D01*
X51778337Y68079505D01*
X51650473Y68318721D01*
X51478397Y68528397D01*
X51268721Y68700473D01*
X51029505Y68828337D01*
X50769939Y68907075D01*
X50567640Y68927000D01*
X47432360Y68927000D01*
X47230061Y68907075D01*
X46970495Y68828337D01*
X46731279Y68700473D01*
X46521603Y68528397D01*
X46349527Y68318721D01*
X46221663Y68079505D01*
X46142925Y67819939D01*
X46116338Y67550000D01*
X32883662Y67550000D01*
X32857075Y67819939D01*
X32778337Y68079505D01*
X32650473Y68318721D01*
X32478397Y68528397D01*
X32268721Y68700473D01*
X32029505Y68828337D01*
X31769939Y68907075D01*
X31567640Y68927000D01*
X28432360Y68927000D01*
X28230061Y68907075D01*
X27970495Y68828337D01*
X27731279Y68700473D01*
X27521603Y68528397D01*
X27349527Y68318721D01*
X27221663Y68079505D01*
X27142925Y67819939D01*
X27116338Y67550000D01*
X13883662Y67550000D01*
X13857075Y67819939D01*
X13778337Y68079505D01*
X13650473Y68318721D01*
X13478397Y68528397D01*
X13268721Y68700473D01*
X13029505Y68828337D01*
X12769939Y68907075D01*
X12567640Y68927000D01*
X9432360Y68927000D01*
X9230061Y68907075D01*
X8970495Y68828337D01*
X8731279Y68700473D01*
X8521603Y68528397D01*
X8349527Y68318721D01*
X8221663Y68079505D01*
X8142925Y67819939D01*
X8116338Y67550000D01*
X-8116338Y67550000D01*
X-8142925Y67819939D01*
X-8221663Y68079505D01*
X-8349527Y68318721D01*
X-8521603Y68528397D01*
X-8731279Y68700473D01*
X-8970495Y68828337D01*
X-9230061Y68907075D01*
X-9432360Y68927000D01*
X-12567640Y68927000D01*
X-12769939Y68907075D01*
X-13029505Y68828337D01*
X-13268721Y68700473D01*
X-13478397Y68528397D01*
X-13650473Y68318721D01*
X-13778337Y68079505D01*
X-13857075Y67819939D01*
X-13883662Y67550000D01*
X-27116338Y67550000D01*
X-27142925Y67819939D01*
X-27221663Y68079505D01*
X-27349527Y68318721D01*
X-27521603Y68528397D01*
X-27731279Y68700473D01*
X-27970495Y68828337D01*
X-28230061Y68907075D01*
X-28432360Y68927000D01*
X-31567640Y68927000D01*
X-31769939Y68907075D01*
X-32029505Y68828337D01*
X-32268721Y68700473D01*
X-32478397Y68528397D01*
X-32650473Y68318721D01*
X-32778337Y68079505D01*
X-32857075Y67819939D01*
X-32883662Y67550000D01*
X-46116338Y67550000D01*
X-46142925Y67819939D01*
X-46221663Y68079505D01*
X-46349527Y68318721D01*
X-46521603Y68528397D01*
X-46731279Y68700473D01*
X-46970495Y68828337D01*
X-47230061Y68907075D01*
X-47432360Y68927000D01*
X-50567640Y68927000D01*
X-50769939Y68907075D01*
X-51029505Y68828337D01*
X-51268721Y68700473D01*
X-51478397Y68528397D01*
X-51650473Y68318721D01*
X-51778337Y68079505D01*
X-51857075Y67819939D01*
X-51883662Y67550000D01*
X-55348000Y67550000D01*
X-55348000Y73848000D01*
X55348000Y73848000D01*
X55348001Y-43729932D01*
G37*
%TD.AperFunction*%
%TD*%
M02*
