%TF.GenerationSoftware,KiCad,Pcbnew,(5.1.10)-1*%
%TF.CreationDate,2022-04-08T13:19:25-06:00*%
%TF.ProjectId,VacuumFeedThruHDMI,56616375-756d-4466-9565-645468727548,rev?*%
%TF.SameCoordinates,Original*%
%TF.FileFunction,Legend,Top*%
%TF.FilePolarity,Positive*%
%FSLAX46Y46*%
G04 Gerber Fmt 4.6, Leading zero omitted, Abs format (unit mm)*
G04 Created by KiCad (PCBNEW (5.1.10)-1) date 2022-04-08 13:19:25*
%MOMM*%
%LPD*%
G01*
G04 APERTURE LIST*
%ADD10C,0.150000*%
%ADD11C,0.120000*%
%ADD12C,0.300000*%
%ADD13C,0.254000*%
%ADD14C,0.500000*%
%ADD15C,0.152000*%
G04 APERTURE END LIST*
D10*
X-2428571Y-49452380D02*
X-2428571Y-48452380D01*
X-2190476Y-48452380D01*
X-2047619Y-48500000D01*
X-1952380Y-48595238D01*
X-1904761Y-48690476D01*
X-1857142Y-48880952D01*
X-1857142Y-49023809D01*
X-1904761Y-49214285D01*
X-1952380Y-49309523D01*
X-2047619Y-49404761D01*
X-2190476Y-49452380D01*
X-2428571Y-49452380D01*
X-1095238Y-48928571D02*
X-952380Y-48976190D01*
X-904761Y-49023809D01*
X-857142Y-49119047D01*
X-857142Y-49261904D01*
X-904761Y-49357142D01*
X-952380Y-49404761D01*
X-1047619Y-49452380D01*
X-1428571Y-49452380D01*
X-1428571Y-48452380D01*
X-1095238Y-48452380D01*
X-1000000Y-48500000D01*
X-952380Y-48547619D01*
X-904761Y-48642857D01*
X-904761Y-48738095D01*
X-952380Y-48833333D01*
X-1000000Y-48880952D01*
X-1095238Y-48928571D01*
X-1428571Y-48928571D01*
X-428571Y-49071428D02*
X333333Y-49071428D01*
X809523Y-49452380D02*
X809523Y-48452380D01*
X1142857Y-49166666D01*
X1476190Y-48452380D01*
X1476190Y-49452380D01*
X1857142Y-48452380D02*
X2476190Y-48452380D01*
X2142857Y-48833333D01*
X2285714Y-48833333D01*
X2380952Y-48880952D01*
X2428571Y-48928571D01*
X2476190Y-49023809D01*
X2476190Y-49261904D01*
X2428571Y-49357142D01*
X2380952Y-49404761D01*
X2285714Y-49452380D01*
X1999999Y-49452380D01*
X1904761Y-49404761D01*
X1857142Y-49357142D01*
X-32428571Y45547619D02*
X-32428571Y46547619D01*
X-32190476Y46547619D01*
X-32047619Y46500000D01*
X-31952380Y46404761D01*
X-31904761Y46309523D01*
X-31857142Y46119047D01*
X-31857142Y45976190D01*
X-31904761Y45785714D01*
X-31952380Y45690476D01*
X-32047619Y45595238D01*
X-32190476Y45547619D01*
X-32428571Y45547619D01*
X-31095238Y46071428D02*
X-30952380Y46023809D01*
X-30904761Y45976190D01*
X-30857142Y45880952D01*
X-30857142Y45738095D01*
X-30904761Y45642857D01*
X-30952380Y45595238D01*
X-31047619Y45547619D01*
X-31428571Y45547619D01*
X-31428571Y46547619D01*
X-31095238Y46547619D01*
X-31000000Y46500000D01*
X-30952380Y46452380D01*
X-30904761Y46357142D01*
X-30904761Y46261904D01*
X-30952380Y46166666D01*
X-31000000Y46119047D01*
X-31095238Y46071428D01*
X-31428571Y46071428D01*
X-30428571Y45928571D02*
X-29666666Y45928571D01*
X-29190476Y45547619D02*
X-29190476Y46547619D01*
X-28857142Y45833333D01*
X-28523809Y46547619D01*
X-28523809Y45547619D01*
X-28095238Y46452380D02*
X-28047619Y46500000D01*
X-27952380Y46547619D01*
X-27714285Y46547619D01*
X-27619047Y46500000D01*
X-27571428Y46452380D01*
X-27523809Y46357142D01*
X-27523809Y46261904D01*
X-27571428Y46119047D01*
X-28142857Y45547619D01*
X-27523809Y45547619D01*
X27571428Y45547619D02*
X27571428Y46547619D01*
X27809523Y46547619D01*
X27952380Y46500000D01*
X28047619Y46404761D01*
X28095238Y46309523D01*
X28142857Y46119047D01*
X28142857Y45976190D01*
X28095238Y45785714D01*
X28047619Y45690476D01*
X27952380Y45595238D01*
X27809523Y45547619D01*
X27571428Y45547619D01*
X28904761Y46071428D02*
X29047619Y46023809D01*
X29095238Y45976190D01*
X29142857Y45880952D01*
X29142857Y45738095D01*
X29095238Y45642857D01*
X29047619Y45595238D01*
X28952380Y45547619D01*
X28571428Y45547619D01*
X28571428Y46547619D01*
X28904761Y46547619D01*
X29000000Y46500000D01*
X29047619Y46452380D01*
X29095238Y46357142D01*
X29095238Y46261904D01*
X29047619Y46166666D01*
X29000000Y46119047D01*
X28904761Y46071428D01*
X28571428Y46071428D01*
X29571428Y45928571D02*
X30333333Y45928571D01*
X30809523Y45547619D02*
X30809523Y46547619D01*
X31142857Y45833333D01*
X31476190Y46547619D01*
X31476190Y45547619D01*
X32476190Y45547619D02*
X31904761Y45547619D01*
X32190476Y45547619D02*
X32190476Y46547619D01*
X32095238Y46404761D01*
X32000000Y46309523D01*
X31904761Y46261904D01*
D11*
X-17000000Y73500000D02*
X-43000000Y73500000D01*
X14900000Y4250000D02*
X-5000000Y73500000D01*
X-55000000Y48100000D02*
X-14840000Y-3110000D01*
X17000000Y73500000D02*
X43000000Y73500000D01*
X14750000Y8990000D02*
X55000000Y48100000D01*
X-14860000Y16250000D02*
X5000000Y73500000D01*
D12*
X-53746428Y20457142D02*
X-52246428Y20957142D01*
X-53746428Y21457142D01*
X-52246428Y22600000D02*
X-53032142Y22600000D01*
X-53175000Y22528571D01*
X-53246428Y22385714D01*
X-53246428Y22100000D01*
X-53175000Y21957142D01*
X-52317857Y22600000D02*
X-52246428Y22457142D01*
X-52246428Y22100000D01*
X-52317857Y21957142D01*
X-52460714Y21885714D01*
X-52603571Y21885714D01*
X-52746428Y21957142D01*
X-52817857Y22100000D01*
X-52817857Y22457142D01*
X-52889285Y22600000D01*
X-52317857Y23957142D02*
X-52246428Y23814285D01*
X-52246428Y23528571D01*
X-52317857Y23385714D01*
X-52389285Y23314285D01*
X-52532142Y23242857D01*
X-52960714Y23242857D01*
X-53103571Y23314285D01*
X-53175000Y23385714D01*
X-53246428Y23528571D01*
X-53246428Y23814285D01*
X-53175000Y23957142D01*
X-53246428Y25242857D02*
X-52246428Y25242857D01*
X-53246428Y24600000D02*
X-52460714Y24600000D01*
X-52317857Y24671428D01*
X-52246428Y24814285D01*
X-52246428Y25028571D01*
X-52317857Y25171428D01*
X-52389285Y25242857D01*
X-53246428Y26600000D02*
X-52246428Y26600000D01*
X-53246428Y25957142D02*
X-52460714Y25957142D01*
X-52317857Y26028571D01*
X-52246428Y26171428D01*
X-52246428Y26385714D01*
X-52317857Y26528571D01*
X-52389285Y26600000D01*
X-52246428Y27314285D02*
X-53246428Y27314285D01*
X-53103571Y27314285D02*
X-53175000Y27385714D01*
X-53246428Y27528571D01*
X-53246428Y27742857D01*
X-53175000Y27885714D01*
X-53032142Y27957142D01*
X-52246428Y27957142D01*
X-53032142Y27957142D02*
X-53175000Y28028571D01*
X-53246428Y28171428D01*
X-53246428Y28385714D01*
X-53175000Y28528571D01*
X-53032142Y28600000D01*
X-52246428Y28600000D01*
X-53032142Y29814285D02*
X-53032142Y29314285D01*
X-52246428Y29314285D02*
X-53746428Y29314285D01*
X-53746428Y30028571D01*
X-53746428Y30385714D02*
X-53746428Y31242857D01*
X-52246428Y30814285D02*
X-53746428Y30814285D01*
X-52103571Y31385714D02*
X-52103571Y32528571D01*
X-52246428Y32885714D02*
X-53746428Y32885714D01*
X-53032142Y32885714D02*
X-53032142Y33742857D01*
X-52246428Y33742857D02*
X-53746428Y33742857D01*
X-52246428Y34457142D02*
X-53746428Y34457142D01*
X-53746428Y34814285D01*
X-53675000Y35028571D01*
X-53532142Y35171428D01*
X-53389285Y35242857D01*
X-53103571Y35314285D01*
X-52889285Y35314285D01*
X-52603571Y35242857D01*
X-52460714Y35171428D01*
X-52317857Y35028571D01*
X-52246428Y34814285D01*
X-52246428Y34457142D01*
X-52246428Y35957142D02*
X-53746428Y35957142D01*
X-52675000Y36457142D01*
X-53746428Y36957142D01*
X-52246428Y36957142D01*
X-52246428Y37671428D02*
X-53746428Y37671428D01*
X-52103571Y38028571D02*
X-52103571Y39171428D01*
X-53746428Y39314285D02*
X-52246428Y39814285D01*
X-53746428Y40314285D01*
X-52246428Y41600000D02*
X-52246428Y40742857D01*
X-52246428Y41171428D02*
X-53746428Y41171428D01*
X-53532142Y41028571D01*
X-53389285Y40885714D01*
X-53317857Y40742857D01*
X-50125000Y24242857D02*
X-50125000Y24957142D01*
X-49696428Y24100000D02*
X-51196428Y24600000D01*
X-49696428Y25100000D01*
X-50696428Y26242857D02*
X-49696428Y26242857D01*
X-50696428Y25600000D02*
X-49910714Y25600000D01*
X-49767857Y25671428D01*
X-49696428Y25814285D01*
X-49696428Y26028571D01*
X-49767857Y26171428D01*
X-49839285Y26242857D01*
X-50696428Y27600000D02*
X-49482142Y27600000D01*
X-49339285Y27528571D01*
X-49267857Y27457142D01*
X-49196428Y27314285D01*
X-49196428Y27100000D01*
X-49267857Y26957142D01*
X-49767857Y27600000D02*
X-49696428Y27457142D01*
X-49696428Y27171428D01*
X-49767857Y27028571D01*
X-49839285Y26957142D01*
X-49982142Y26885714D01*
X-50410714Y26885714D01*
X-50553571Y26957142D01*
X-50625000Y27028571D01*
X-50696428Y27171428D01*
X-50696428Y27457142D01*
X-50625000Y27600000D01*
X-50696428Y28957142D02*
X-49696428Y28957142D01*
X-50696428Y28314285D02*
X-49910714Y28314285D01*
X-49767857Y28385714D01*
X-49696428Y28528571D01*
X-49696428Y28742857D01*
X-49767857Y28885714D01*
X-49839285Y28957142D01*
X-49767857Y29600000D02*
X-49696428Y29742857D01*
X-49696428Y30028571D01*
X-49767857Y30171428D01*
X-49910714Y30242857D01*
X-49982142Y30242857D01*
X-50125000Y30171428D01*
X-50196428Y30028571D01*
X-50196428Y29814285D01*
X-50267857Y29671428D01*
X-50410714Y29600000D01*
X-50482142Y29600000D01*
X-50625000Y29671428D01*
X-50696428Y29814285D01*
X-50696428Y30028571D01*
X-50625000Y30171428D01*
X-50696428Y30671428D02*
X-50696428Y31242857D01*
X-51196428Y30885714D02*
X-49910714Y30885714D01*
X-49767857Y30957142D01*
X-49696428Y31100000D01*
X-49696428Y31242857D01*
X-51053571Y32814285D02*
X-51125000Y32885714D01*
X-51196428Y33028571D01*
X-51196428Y33385714D01*
X-51125000Y33528571D01*
X-51053571Y33600000D01*
X-50910714Y33671428D01*
X-50767857Y33671428D01*
X-50553571Y33600000D01*
X-49696428Y32742857D01*
X-49696428Y33671428D01*
X-51196428Y34600000D02*
X-51196428Y34742857D01*
X-51125000Y34885714D01*
X-51053571Y34957142D01*
X-50910714Y35028571D01*
X-50625000Y35100000D01*
X-50267857Y35100000D01*
X-49982142Y35028571D01*
X-49839285Y34957142D01*
X-49767857Y34885714D01*
X-49696428Y34742857D01*
X-49696428Y34600000D01*
X-49767857Y34457142D01*
X-49839285Y34385714D01*
X-49982142Y34314285D01*
X-50267857Y34242857D01*
X-50625000Y34242857D01*
X-50910714Y34314285D01*
X-51053571Y34385714D01*
X-51125000Y34457142D01*
X-51196428Y34600000D01*
X-51053571Y35671428D02*
X-51125000Y35742857D01*
X-51196428Y35885714D01*
X-51196428Y36242857D01*
X-51125000Y36385714D01*
X-51053571Y36457142D01*
X-50910714Y36528571D01*
X-50767857Y36528571D01*
X-50553571Y36457142D01*
X-49696428Y35600000D01*
X-49696428Y36528571D01*
X-49696428Y37957142D02*
X-49696428Y37100000D01*
X-49696428Y37528571D02*
X-51196428Y37528571D01*
X-50982142Y37385714D01*
X-50839285Y37242857D01*
X-50767857Y37100000D01*
X-47146428Y22242857D02*
X-47860714Y21742857D01*
X-47146428Y21385714D02*
X-48646428Y21385714D01*
X-48646428Y21957142D01*
X-48575000Y22100000D01*
X-48503571Y22171428D01*
X-48360714Y22242857D01*
X-48146428Y22242857D01*
X-48003571Y22171428D01*
X-47932142Y22100000D01*
X-47860714Y21957142D01*
X-47860714Y21385714D01*
X-48146428Y22742857D02*
X-47146428Y23100000D01*
X-48146428Y23457142D02*
X-47146428Y23100000D01*
X-46789285Y22957142D01*
X-46717857Y22885714D01*
X-46646428Y22742857D01*
X-47146428Y24671428D02*
X-47932142Y24671428D01*
X-48075000Y24600000D01*
X-48146428Y24457142D01*
X-48146428Y24171428D01*
X-48075000Y24028571D01*
X-47217857Y24671428D02*
X-47146428Y24528571D01*
X-47146428Y24171428D01*
X-47217857Y24028571D01*
X-47360714Y23957142D01*
X-47503571Y23957142D01*
X-47646428Y24028571D01*
X-47717857Y24171428D01*
X-47717857Y24528571D01*
X-47789285Y24671428D01*
X-48146428Y25385714D02*
X-47146428Y25385714D01*
X-48003571Y25385714D02*
X-48075000Y25457142D01*
X-48146428Y25600000D01*
X-48146428Y25814285D01*
X-48075000Y25957142D01*
X-47932142Y26028571D01*
X-47146428Y26028571D01*
X-47146428Y27885714D02*
X-48646428Y27885714D01*
X-47575000Y28385714D01*
X-48646428Y28885714D01*
X-47146428Y28885714D01*
X-47146428Y29814285D02*
X-47217857Y29671428D01*
X-47289285Y29600000D01*
X-47432142Y29528571D01*
X-47860714Y29528571D01*
X-48003571Y29600000D01*
X-48075000Y29671428D01*
X-48146428Y29814285D01*
X-48146428Y30028571D01*
X-48075000Y30171428D01*
X-48003571Y30242857D01*
X-47860714Y30314285D01*
X-47432142Y30314285D01*
X-47289285Y30242857D01*
X-47217857Y30171428D01*
X-47146428Y30028571D01*
X-47146428Y29814285D01*
X-47146428Y30957142D02*
X-48146428Y30957142D01*
X-47860714Y30957142D02*
X-48003571Y31028571D01*
X-48075000Y31100000D01*
X-48146428Y31242857D01*
X-48146428Y31385714D01*
X-48146428Y32528571D02*
X-46932142Y32528571D01*
X-46789285Y32457142D01*
X-46717857Y32385714D01*
X-46646428Y32242857D01*
X-46646428Y32028571D01*
X-46717857Y31885714D01*
X-47217857Y32528571D02*
X-47146428Y32385714D01*
X-47146428Y32100000D01*
X-47217857Y31957142D01*
X-47289285Y31885714D01*
X-47432142Y31814285D01*
X-47860714Y31814285D01*
X-48003571Y31885714D01*
X-48075000Y31957142D01*
X-48146428Y32100000D01*
X-48146428Y32385714D01*
X-48075000Y32528571D01*
X-47217857Y33814285D02*
X-47146428Y33671428D01*
X-47146428Y33385714D01*
X-47217857Y33242857D01*
X-47360714Y33171428D01*
X-47932142Y33171428D01*
X-48075000Y33242857D01*
X-48146428Y33385714D01*
X-48146428Y33671428D01*
X-48075000Y33814285D01*
X-47932142Y33885714D01*
X-47789285Y33885714D01*
X-47646428Y33171428D01*
X-48146428Y34528571D02*
X-47146428Y34528571D01*
X-48003571Y34528571D02*
X-48075000Y34600000D01*
X-48146428Y34742857D01*
X-48146428Y34957142D01*
X-48075000Y35100000D01*
X-47932142Y35171428D01*
X-47146428Y35171428D01*
X-47217857Y35814285D02*
X-47146428Y35957142D01*
X-47146428Y36242857D01*
X-47217857Y36385714D01*
X-47360714Y36457142D01*
X-47432142Y36457142D01*
X-47575000Y36385714D01*
X-47646428Y36242857D01*
X-47646428Y36028571D01*
X-47717857Y35885714D01*
X-47860714Y35814285D01*
X-47932142Y35814285D01*
X-48075000Y35885714D01*
X-48146428Y36028571D01*
X-48146428Y36242857D01*
X-48075000Y36385714D01*
X-48146428Y36885714D02*
X-48146428Y37457142D01*
X-48646428Y37099999D02*
X-47360714Y37099999D01*
X-47217857Y37171428D01*
X-47146428Y37314285D01*
X-47146428Y37457142D01*
X-47217857Y38528571D02*
X-47146428Y38385714D01*
X-47146428Y38099999D01*
X-47217857Y37957142D01*
X-47360714Y37885714D01*
X-47932142Y37885714D01*
X-48075000Y37957142D01*
X-48146428Y38099999D01*
X-48146428Y38385714D01*
X-48075000Y38528571D01*
X-47932142Y38599999D01*
X-47789285Y38599999D01*
X-47646428Y37885714D01*
X-47146428Y39242857D02*
X-48146428Y39242857D01*
X-47860714Y39242857D02*
X-48003571Y39314285D01*
X-48075000Y39385714D01*
X-48146428Y39528571D01*
X-48146428Y39671428D01*
X-48146428Y40171428D02*
X-47146428Y40171428D01*
X-48003571Y40171428D02*
X-48075000Y40242857D01*
X-48146428Y40385714D01*
X-48146428Y40600000D01*
X-48075000Y40742857D01*
X-47932142Y40814285D01*
X-47146428Y40814285D01*
X-45025000Y18564285D02*
X-45025000Y19278571D01*
X-44596428Y18421428D02*
X-46096428Y18921428D01*
X-44596428Y19421428D01*
X-44596428Y19921428D02*
X-45596428Y19921428D01*
X-45453571Y19921428D02*
X-45525000Y19992857D01*
X-45596428Y20135714D01*
X-45596428Y20350000D01*
X-45525000Y20492857D01*
X-45382142Y20564285D01*
X-44596428Y20564285D01*
X-45382142Y20564285D02*
X-45525000Y20635714D01*
X-45596428Y20778571D01*
X-45596428Y20992857D01*
X-45525000Y21135714D01*
X-45382142Y21207142D01*
X-44596428Y21207142D01*
X-44596428Y21921428D02*
X-46096428Y21921428D01*
X-45525000Y21921428D02*
X-45596428Y22064285D01*
X-45596428Y22350000D01*
X-45525000Y22492857D01*
X-45453571Y22564285D01*
X-45310714Y22635714D01*
X-44882142Y22635714D01*
X-44739285Y22564285D01*
X-44667857Y22492857D01*
X-44596428Y22350000D01*
X-44596428Y22064285D01*
X-44667857Y21921428D01*
X-44596428Y23278571D02*
X-45596428Y23278571D01*
X-46096428Y23278571D02*
X-46025000Y23207142D01*
X-45953571Y23278571D01*
X-46025000Y23350000D01*
X-46096428Y23278571D01*
X-45953571Y23278571D01*
X-44667857Y24564285D02*
X-44596428Y24421428D01*
X-44596428Y24135714D01*
X-44667857Y23992857D01*
X-44810714Y23921428D01*
X-45382142Y23921428D01*
X-45525000Y23992857D01*
X-45596428Y24135714D01*
X-45596428Y24421428D01*
X-45525000Y24564285D01*
X-45382142Y24635714D01*
X-45239285Y24635714D01*
X-45096428Y23921428D01*
X-45596428Y25278571D02*
X-44596428Y25278571D01*
X-45453571Y25278571D02*
X-45525000Y25350000D01*
X-45596428Y25492857D01*
X-45596428Y25707142D01*
X-45525000Y25850000D01*
X-45382142Y25921428D01*
X-44596428Y25921428D01*
X-45596428Y26421428D02*
X-45596428Y26992857D01*
X-46096428Y26635714D02*
X-44810714Y26635714D01*
X-44667857Y26707142D01*
X-44596428Y26850000D01*
X-44596428Y26992857D01*
X-44596428Y28635714D02*
X-46096428Y28635714D01*
X-46096428Y29207142D01*
X-46025000Y29350000D01*
X-45953571Y29421428D01*
X-45810714Y29492857D01*
X-45596428Y29492857D01*
X-45453571Y29421428D01*
X-45382142Y29350000D01*
X-45310714Y29207142D01*
X-45310714Y28635714D01*
X-44596428Y30135714D02*
X-45596428Y30135714D01*
X-45310714Y30135714D02*
X-45453571Y30207142D01*
X-45525000Y30278571D01*
X-45596428Y30421428D01*
X-45596428Y30564285D01*
X-44667857Y31635714D02*
X-44596428Y31492857D01*
X-44596428Y31207142D01*
X-44667857Y31064285D01*
X-44810714Y30992857D01*
X-45382142Y30992857D01*
X-45525000Y31064285D01*
X-45596428Y31207142D01*
X-45596428Y31492857D01*
X-45525000Y31635714D01*
X-45382142Y31707142D01*
X-45239285Y31707142D01*
X-45096428Y30992857D01*
X-44667857Y32278571D02*
X-44596428Y32421428D01*
X-44596428Y32707142D01*
X-44667857Y32850000D01*
X-44810714Y32921428D01*
X-44882142Y32921428D01*
X-45025000Y32850000D01*
X-45096428Y32707142D01*
X-45096428Y32492857D01*
X-45167857Y32350000D01*
X-45310714Y32278571D01*
X-45382142Y32278571D01*
X-45525000Y32350000D01*
X-45596428Y32492857D01*
X-45596428Y32707142D01*
X-45525000Y32850000D01*
X-44667857Y33492857D02*
X-44596428Y33635714D01*
X-44596428Y33921428D01*
X-44667857Y34064285D01*
X-44810714Y34135714D01*
X-44882142Y34135714D01*
X-45025000Y34064285D01*
X-45096428Y33921428D01*
X-45096428Y33707142D01*
X-45167857Y33564285D01*
X-45310714Y33492857D01*
X-45382142Y33492857D01*
X-45525000Y33564285D01*
X-45596428Y33707142D01*
X-45596428Y33921428D01*
X-45525000Y34064285D01*
X-45596428Y35421428D02*
X-44596428Y35421428D01*
X-45596428Y34778571D02*
X-44810714Y34778571D01*
X-44667857Y34850000D01*
X-44596428Y34992857D01*
X-44596428Y35207142D01*
X-44667857Y35350000D01*
X-44739285Y35421428D01*
X-44596428Y36135714D02*
X-45596428Y36135714D01*
X-45310714Y36135714D02*
X-45453571Y36207142D01*
X-45525000Y36278571D01*
X-45596428Y36421428D01*
X-45596428Y36564285D01*
X-44667857Y37635714D02*
X-44596428Y37492857D01*
X-44596428Y37207142D01*
X-44667857Y37064285D01*
X-44810714Y36992857D01*
X-45382142Y36992857D01*
X-45525000Y37064285D01*
X-45596428Y37207142D01*
X-45596428Y37492857D01*
X-45525000Y37635714D01*
X-45382142Y37707142D01*
X-45239285Y37707142D01*
X-45096428Y36992857D01*
X-44667857Y39421428D02*
X-44596428Y39635714D01*
X-44596428Y39992857D01*
X-44667857Y40135714D01*
X-44739285Y40207142D01*
X-44882142Y40278571D01*
X-45025000Y40278571D01*
X-45167857Y40207142D01*
X-45239285Y40135714D01*
X-45310714Y39992857D01*
X-45382142Y39707142D01*
X-45453571Y39564285D01*
X-45525000Y39492857D01*
X-45667857Y39421428D01*
X-45810714Y39421428D01*
X-45953571Y39492857D01*
X-46025000Y39564285D01*
X-46096428Y39707142D01*
X-46096428Y40064285D01*
X-46025000Y40278571D01*
X-44596428Y40921428D02*
X-45596428Y40921428D01*
X-46096428Y40921428D02*
X-46025000Y40850000D01*
X-45953571Y40921428D01*
X-46025000Y40992857D01*
X-46096428Y40921428D01*
X-45953571Y40921428D01*
X-44596428Y42278571D02*
X-46096428Y42278571D01*
X-44667857Y42278571D02*
X-44596428Y42135714D01*
X-44596428Y41850000D01*
X-44667857Y41707142D01*
X-44739285Y41635714D01*
X-44882142Y41564285D01*
X-45310714Y41564285D01*
X-45453571Y41635714D01*
X-45525000Y41707142D01*
X-45596428Y41850000D01*
X-45596428Y42135714D01*
X-45525000Y42278571D01*
X-44667857Y43564285D02*
X-44596428Y43421428D01*
X-44596428Y43135714D01*
X-44667857Y42992857D01*
X-44810714Y42921428D01*
X-45382142Y42921428D01*
X-45525000Y42992857D01*
X-45596428Y43135714D01*
X-45596428Y43421428D01*
X-45525000Y43564285D01*
X-45382142Y43635714D01*
X-45239285Y43635714D01*
X-45096428Y42921428D01*
D11*
X14750000Y16250000D02*
X14750000Y8990000D01*
X-14860000Y16250000D02*
X14750000Y16250000D01*
X-14860000Y9000000D02*
X-14860000Y16250000D01*
X14800000Y-7750000D02*
X14800000Y-15250000D01*
X-14840000Y-15250000D02*
X14800000Y-15250000D01*
X-14840000Y-7750000D02*
X-14840000Y-15250000D01*
X14900000Y-3000000D02*
X-14840000Y-3110000D01*
X14900000Y4250000D02*
X14900000Y-3000000D01*
X-14800000Y4200000D02*
X14900000Y4250000D01*
X14800000Y-7750000D02*
X-14840000Y-7750000D01*
X21900000Y-50300000D02*
X14800000Y-7750000D01*
X-19000000Y-75700000D02*
X19000000Y-75700000D01*
X-14840000Y-7750000D02*
X-21900000Y-50300000D01*
X-14860000Y9000000D02*
X14750000Y8990000D01*
X-14800000Y4200000D02*
X-14840000Y-3110000D01*
%TO.C,J2*%
X36000000Y73500000D02*
X36000000Y48100000D01*
D13*
X28300000Y52800000D02*
X31700000Y52800000D01*
X31700000Y68800000D02*
X28300000Y68800000D01*
X27500000Y53600000D02*
X27500000Y68000000D01*
X32500000Y68000000D02*
X32500000Y53600000D01*
D11*
X36000000Y48100000D02*
X24000000Y48100000D01*
X36000000Y73500000D02*
X24000000Y73500000D01*
X24000000Y73500000D02*
X24000000Y48100000D01*
D13*
X31699391Y52800923D02*
G75*
G03*
X32500000Y53600000I-39391J840077D01*
G01*
X28300579Y68799076D02*
G75*
G03*
X27500000Y68000000I39421J-840076D01*
G01*
X27499923Y53599609D02*
G75*
G03*
X28299000Y52799000I840077J39391D01*
G01*
X32500076Y68000421D02*
G75*
G03*
X31701000Y68801000I-840076J-39421D01*
G01*
D11*
%TO.C,J3*%
X55000000Y73500000D02*
X55000000Y48100000D01*
D13*
X47300000Y52800000D02*
X50700000Y52800000D01*
X50700000Y68800000D02*
X47300000Y68800000D01*
X46500000Y53600000D02*
X46500000Y68000000D01*
X51500000Y68000000D02*
X51500000Y53600000D01*
D11*
X55000000Y48100000D02*
X43000000Y48100000D01*
X55000000Y73500000D02*
X43000000Y73500000D01*
X43000000Y73500000D02*
X43000000Y48100000D01*
D13*
X50699391Y52800923D02*
G75*
G03*
X51500000Y53600000I-39391J840077D01*
G01*
X47300579Y68799076D02*
G75*
G03*
X46500000Y68000000I39421J-840076D01*
G01*
X46499923Y53599609D02*
G75*
G03*
X47299000Y52799000I840077J39391D01*
G01*
X51500076Y68000421D02*
G75*
G03*
X50701000Y68801000I-840076J-39421D01*
G01*
D14*
%TO.C,J13*%
X25000000Y0D02*
G75*
G03*
X25000000Y0I-25000000J0D01*
G01*
X37500000Y0D02*
G75*
G03*
X37500000Y0I-37500000J0D01*
G01*
X47500000Y0D02*
G75*
G03*
X47500000Y0I-47500000J0D01*
G01*
X29500000Y0D02*
G75*
G03*
X29500000Y0I-29500000J0D01*
G01*
D11*
X-55000000Y-48000000D02*
X55000000Y-48000000D01*
X-55000000Y48000000D02*
X55000000Y48000000D01*
X55000000Y48000000D02*
X55000000Y-48000000D01*
X-55000000Y-48000000D02*
X-55000000Y48000000D01*
%TO.C,J4*%
X-43000000Y73500000D02*
X-43000000Y48100000D01*
D13*
X-50700000Y52800000D02*
X-47300000Y52800000D01*
X-47300000Y68800000D02*
X-50700000Y68800000D01*
X-51500000Y53600000D02*
X-51500000Y68000000D01*
X-46500000Y68000000D02*
X-46500000Y53600000D01*
D11*
X-43000000Y48100000D02*
X-55000000Y48100000D01*
X-43000000Y73500000D02*
X-55000000Y73500000D01*
X-55000000Y73500000D02*
X-55000000Y48100000D01*
D13*
X-47300609Y52800923D02*
G75*
G03*
X-46500000Y53600000I-39391J840077D01*
G01*
X-50699421Y68799076D02*
G75*
G03*
X-51500000Y68000000I39421J-840076D01*
G01*
X-51500077Y53599609D02*
G75*
G03*
X-50701000Y52799000I840077J39391D01*
G01*
X-46499924Y68000421D02*
G75*
G03*
X-47299000Y68801000I-840076J-39421D01*
G01*
D11*
%TO.C,J9*%
X22000000Y-50300000D02*
X22000000Y-75700000D01*
D13*
X14300000Y-71000000D02*
X17700000Y-71000000D01*
X17700000Y-55000000D02*
X14300000Y-55000000D01*
X13500000Y-70200000D02*
X13500000Y-55800000D01*
X18500000Y-55800000D02*
X18500000Y-70200000D01*
D11*
X22000000Y-75700000D02*
X10000000Y-75700000D01*
X22000000Y-50300000D02*
X10000000Y-50300000D01*
X10000000Y-50300000D02*
X10000000Y-75700000D01*
D13*
X17699391Y-70999077D02*
G75*
G03*
X18500000Y-70200000I-39391J840077D01*
G01*
X14300579Y-55000924D02*
G75*
G03*
X13500000Y-55800000I39421J-840076D01*
G01*
X13499923Y-70200391D02*
G75*
G03*
X14299000Y-71001000I840077J39391D01*
G01*
X18500076Y-55799579D02*
G75*
G03*
X17701000Y-54999000I-840076J-39421D01*
G01*
D11*
%TO.C,J7*%
X-10000000Y-50300000D02*
X-10000000Y-75700000D01*
D13*
X-17700000Y-71000000D02*
X-14300000Y-71000000D01*
X-14300000Y-55000000D02*
X-17700000Y-55000000D01*
X-18500000Y-70200000D02*
X-18500000Y-55800000D01*
X-13500000Y-55800000D02*
X-13500000Y-70200000D01*
D11*
X-10000000Y-75700000D02*
X-22000000Y-75700000D01*
X-10000000Y-50300000D02*
X-22000000Y-50300000D01*
X-22000000Y-50300000D02*
X-22000000Y-75700000D01*
D13*
X-14300609Y-70999077D02*
G75*
G03*
X-13500000Y-70200000I-39391J840077D01*
G01*
X-17699421Y-55000924D02*
G75*
G03*
X-18500000Y-55800000I39421J-840076D01*
G01*
X-18500077Y-70200391D02*
G75*
G03*
X-17701000Y-71001000I840077J39391D01*
G01*
X-13499924Y-55799579D02*
G75*
G03*
X-14299000Y-54999000I-840076J-39421D01*
G01*
D11*
%TO.C,J8*%
X6000000Y-50300000D02*
X6000000Y-75700000D01*
D13*
X-1700000Y-71000000D02*
X1700000Y-71000000D01*
X1700000Y-55000000D02*
X-1700000Y-55000000D01*
X-2500000Y-70200000D02*
X-2500000Y-55800000D01*
X2500000Y-55800000D02*
X2500000Y-70200000D01*
D11*
X6000000Y-75700000D02*
X-6000000Y-75700000D01*
X6000000Y-50300000D02*
X-6000000Y-50300000D01*
X-6000000Y-50300000D02*
X-6000000Y-75700000D01*
D13*
X1699391Y-70999077D02*
G75*
G03*
X2500000Y-70200000I-39391J840077D01*
G01*
X-1699421Y-55000924D02*
G75*
G03*
X-2500000Y-55800000I39421J-840076D01*
G01*
X-2500077Y-70200391D02*
G75*
G03*
X-1701000Y-71001000I840077J39391D01*
G01*
X2500076Y-55799579D02*
G75*
G03*
X1701000Y-54999000I-840076J-39421D01*
G01*
D11*
%TO.C,J1*%
X17000000Y73500000D02*
X17000000Y48100000D01*
D13*
X9300000Y52800000D02*
X12700000Y52800000D01*
X12700000Y68800000D02*
X9300000Y68800000D01*
X8500000Y53600000D02*
X8500000Y68000000D01*
X13500000Y68000000D02*
X13500000Y53600000D01*
D11*
X17000000Y48100000D02*
X5000000Y48100000D01*
X17000000Y73500000D02*
X5000000Y73500000D01*
X5000000Y73500000D02*
X5000000Y48100000D01*
D13*
X12699391Y52800923D02*
G75*
G03*
X13500000Y53600000I-39391J840077D01*
G01*
X9300579Y68799076D02*
G75*
G03*
X8500000Y68000000I39421J-840076D01*
G01*
X8499923Y53599609D02*
G75*
G03*
X9299000Y52799000I840077J39391D01*
G01*
X13500076Y68000421D02*
G75*
G03*
X12701000Y68801000I-840076J-39421D01*
G01*
D11*
%TO.C,J6*%
X-5000000Y73500000D02*
X-5000000Y48100000D01*
D13*
X-12700000Y52800000D02*
X-9300000Y52800000D01*
X-9300000Y68800000D02*
X-12700000Y68800000D01*
X-13500000Y53600000D02*
X-13500000Y68000000D01*
X-8500000Y68000000D02*
X-8500000Y53600000D01*
D11*
X-5000000Y48100000D02*
X-17000000Y48100000D01*
X-5000000Y73500000D02*
X-17000000Y73500000D01*
X-17000000Y73500000D02*
X-17000000Y48100000D01*
D13*
X-9300609Y52800923D02*
G75*
G03*
X-8500000Y53600000I-39391J840077D01*
G01*
X-12699421Y68799076D02*
G75*
G03*
X-13500000Y68000000I39421J-840076D01*
G01*
X-13500077Y53599609D02*
G75*
G03*
X-12701000Y52799000I840077J39391D01*
G01*
X-8499924Y68000421D02*
G75*
G03*
X-9299000Y68801000I-840076J-39421D01*
G01*
D11*
%TO.C,J5*%
X-24000000Y73500000D02*
X-24000000Y48100000D01*
D13*
X-31700000Y52800000D02*
X-28300000Y52800000D01*
X-28300000Y68800000D02*
X-31700000Y68800000D01*
X-32500000Y53600000D02*
X-32500000Y68000000D01*
X-27500000Y68000000D02*
X-27500000Y53600000D01*
D11*
X-24000000Y48100000D02*
X-36000000Y48100000D01*
X-24000000Y73500000D02*
X-36000000Y73500000D01*
X-36000000Y73500000D02*
X-36000000Y48100000D01*
D13*
X-28300609Y52800923D02*
G75*
G03*
X-27500000Y53600000I-39391J840077D01*
G01*
X-31699421Y68799076D02*
G75*
G03*
X-32500000Y68000000I39421J-840076D01*
G01*
X-32500077Y53599609D02*
G75*
G03*
X-31701000Y52799000I840077J39391D01*
G01*
X-27499924Y68000421D02*
G75*
G03*
X-28299000Y68801000I-840076J-39421D01*
G01*
%TO.C,J2*%
D15*
X36374071Y62340485D02*
X37190500Y62340485D01*
X37353785Y62286057D01*
X37462642Y62177200D01*
X37517071Y62013914D01*
X37517071Y61905057D01*
X36482928Y62830342D02*
X36428500Y62884771D01*
X36374071Y62993628D01*
X36374071Y63265771D01*
X36428500Y63374628D01*
X36482928Y63429057D01*
X36591785Y63483485D01*
X36700642Y63483485D01*
X36863928Y63429057D01*
X37517071Y62775914D01*
X37517071Y63483485D01*
%TO.C,J3*%
X55374071Y62340485D02*
X56190500Y62340485D01*
X56353785Y62286057D01*
X56462642Y62177200D01*
X56517071Y62013914D01*
X56517071Y61905057D01*
X55374071Y62775914D02*
X55374071Y63483485D01*
X55809500Y63102485D01*
X55809500Y63265771D01*
X55863928Y63374628D01*
X55918357Y63429057D01*
X56027214Y63483485D01*
X56299357Y63483485D01*
X56408214Y63429057D01*
X56462642Y63374628D01*
X56517071Y63265771D01*
X56517071Y62939200D01*
X56462642Y62830342D01*
X56408214Y62775914D01*
%TO.C,J13*%
D10*
X-921428Y3917142D02*
X-921428Y3060000D01*
X-978571Y2888571D01*
X-1092857Y2774285D01*
X-1264285Y2717142D01*
X-1378571Y2717142D01*
X278571Y2717142D02*
X-407142Y2717142D01*
X-64285Y2717142D02*
X-64285Y3917142D01*
X-178571Y3745714D01*
X-292857Y3631428D01*
X-407142Y3574285D01*
X678571Y3917142D02*
X1421428Y3917142D01*
X1021428Y3460000D01*
X1192857Y3460000D01*
X1307142Y3402857D01*
X1364285Y3345714D01*
X1421428Y3231428D01*
X1421428Y2945714D01*
X1364285Y2831428D01*
X1307142Y2774285D01*
X1192857Y2717142D01*
X849999Y2717142D01*
X735714Y2774285D01*
X678571Y2831428D01*
X27452380Y-5380952D02*
X26452380Y-5380952D01*
X26785714Y-4904761D02*
X27452380Y-4904761D01*
X26880952Y-4904761D02*
X26833333Y-4857142D01*
X26785714Y-4761904D01*
X26785714Y-4619047D01*
X26833333Y-4523809D01*
X26928571Y-4476190D01*
X27452380Y-4476190D01*
X27404761Y-4047619D02*
X27452380Y-3952380D01*
X27452380Y-3761904D01*
X27404761Y-3666666D01*
X27309523Y-3619047D01*
X27261904Y-3619047D01*
X27166666Y-3666666D01*
X27119047Y-3761904D01*
X27119047Y-3904761D01*
X27071428Y-4000000D01*
X26976190Y-4047619D01*
X26928571Y-4047619D01*
X26833333Y-4000000D01*
X26785714Y-3904761D01*
X26785714Y-3761904D01*
X26833333Y-3666666D01*
X27452380Y-3190476D02*
X26785714Y-3190476D01*
X26452380Y-3190476D02*
X26500000Y-3238095D01*
X26547619Y-3190476D01*
X26500000Y-3142857D01*
X26452380Y-3190476D01*
X26547619Y-3190476D01*
X27452380Y-2285714D02*
X26452380Y-2285714D01*
X27404761Y-2285714D02*
X27452380Y-2380952D01*
X27452380Y-2571428D01*
X27404761Y-2666666D01*
X27357142Y-2714285D01*
X27261904Y-2761904D01*
X26976190Y-2761904D01*
X26880952Y-2714285D01*
X26833333Y-2666666D01*
X26785714Y-2571428D01*
X26785714Y-2380952D01*
X26833333Y-2285714D01*
X27404761Y-1428571D02*
X27452380Y-1523809D01*
X27452380Y-1714285D01*
X27404761Y-1809523D01*
X27309523Y-1857142D01*
X26928571Y-1857142D01*
X26833333Y-1809523D01*
X26785714Y-1714285D01*
X26785714Y-1523809D01*
X26833333Y-1428571D01*
X26928571Y-1380952D01*
X27023809Y-1380952D01*
X27119047Y-1857142D01*
X27452380Y-190476D02*
X26452380Y-190476D01*
X27166666Y142857D01*
X26452380Y476190D01*
X27452380Y476190D01*
X27404761Y1333333D02*
X27452380Y1238095D01*
X27452380Y1047619D01*
X27404761Y952380D01*
X27309523Y904761D01*
X26928571Y904761D01*
X26833333Y952380D01*
X26785714Y1047619D01*
X26785714Y1238095D01*
X26833333Y1333333D01*
X26928571Y1380952D01*
X27023809Y1380952D01*
X27119047Y904761D01*
X26785714Y1666666D02*
X26785714Y2047619D01*
X26452380Y1809523D02*
X27309523Y1809523D01*
X27404761Y1857142D01*
X27452380Y1952380D01*
X27452380Y2047619D01*
X27452380Y2809523D02*
X26928571Y2809523D01*
X26833333Y2761904D01*
X26785714Y2666666D01*
X26785714Y2476190D01*
X26833333Y2380952D01*
X27404761Y2809523D02*
X27452380Y2714285D01*
X27452380Y2476190D01*
X27404761Y2380952D01*
X27309523Y2333333D01*
X27214285Y2333333D01*
X27119047Y2380952D01*
X27071428Y2476190D01*
X27071428Y2714285D01*
X27023809Y2809523D01*
X27452380Y3428571D02*
X27404761Y3333333D01*
X27309523Y3285714D01*
X26452380Y3285714D01*
X27452380Y5142857D02*
X26976190Y4809523D01*
X27452380Y4571428D02*
X26452380Y4571428D01*
X26452380Y4952380D01*
X26500000Y5047619D01*
X26547619Y5095238D01*
X26642857Y5142857D01*
X26785714Y5142857D01*
X26880952Y5095238D01*
X26928571Y5047619D01*
X26976190Y4952380D01*
X26976190Y4571428D01*
X27452380Y5571428D02*
X26785714Y5571428D01*
X26452380Y5571428D02*
X26500000Y5523809D01*
X26547619Y5571428D01*
X26500000Y5619047D01*
X26452380Y5571428D01*
X26547619Y5571428D01*
X26785714Y6047619D02*
X27452380Y6047619D01*
X26880952Y6047619D02*
X26833333Y6095238D01*
X26785714Y6190476D01*
X26785714Y6333333D01*
X26833333Y6428571D01*
X26928571Y6476190D01*
X27452380Y6476190D01*
X26785714Y7380952D02*
X27595238Y7380952D01*
X27690476Y7333333D01*
X27738095Y7285714D01*
X27785714Y7190476D01*
X27785714Y7047619D01*
X27738095Y6952380D01*
X27404761Y7380952D02*
X27452380Y7285714D01*
X27452380Y7095238D01*
X27404761Y7000000D01*
X27357142Y6952380D01*
X27261904Y6904761D01*
X26976190Y6904761D01*
X26880952Y6952380D01*
X26833333Y7000000D01*
X26785714Y7095238D01*
X26785714Y7285714D01*
X26833333Y7380952D01*
X39452380Y-6047619D02*
X39452380Y-5857142D01*
X39500000Y-5761904D01*
X39595238Y-5666666D01*
X39785714Y-5619047D01*
X40119047Y-5619047D01*
X40309523Y-5666666D01*
X40404761Y-5761904D01*
X40452380Y-5857142D01*
X40452380Y-6047619D01*
X40404761Y-6142857D01*
X40309523Y-6238095D01*
X40119047Y-6285714D01*
X39785714Y-6285714D01*
X39595238Y-6238095D01*
X39500000Y-6142857D01*
X39452380Y-6047619D01*
X39785714Y-4761904D02*
X40452380Y-4761904D01*
X39785714Y-5190476D02*
X40309523Y-5190476D01*
X40404761Y-5142857D01*
X40452380Y-5047619D01*
X40452380Y-4904761D01*
X40404761Y-4809523D01*
X40357142Y-4761904D01*
X39785714Y-4428571D02*
X39785714Y-4047619D01*
X39452380Y-4285714D02*
X40309523Y-4285714D01*
X40404761Y-4238095D01*
X40452380Y-4142857D01*
X40452380Y-4047619D01*
X40404761Y-3761904D02*
X40452380Y-3666666D01*
X40452380Y-3476190D01*
X40404761Y-3380952D01*
X40309523Y-3333333D01*
X40261904Y-3333333D01*
X40166666Y-3380952D01*
X40119047Y-3476190D01*
X40119047Y-3619047D01*
X40071428Y-3714285D01*
X39976190Y-3761904D01*
X39928571Y-3761904D01*
X39833333Y-3714285D01*
X39785714Y-3619047D01*
X39785714Y-3476190D01*
X39833333Y-3380952D01*
X40452380Y-2904761D02*
X39785714Y-2904761D01*
X39452380Y-2904761D02*
X39500000Y-2952380D01*
X39547619Y-2904761D01*
X39500000Y-2857142D01*
X39452380Y-2904761D01*
X39547619Y-2904761D01*
X40452380Y-2000000D02*
X39452380Y-2000000D01*
X40404761Y-2000000D02*
X40452380Y-2095238D01*
X40452380Y-2285714D01*
X40404761Y-2380952D01*
X40357142Y-2428571D01*
X40261904Y-2476190D01*
X39976190Y-2476190D01*
X39880952Y-2428571D01*
X39833333Y-2380952D01*
X39785714Y-2285714D01*
X39785714Y-2095238D01*
X39833333Y-2000000D01*
X40404761Y-1142857D02*
X40452380Y-1238095D01*
X40452380Y-1428571D01*
X40404761Y-1523809D01*
X40309523Y-1571428D01*
X39928571Y-1571428D01*
X39833333Y-1523809D01*
X39785714Y-1428571D01*
X39785714Y-1238095D01*
X39833333Y-1142857D01*
X39928571Y-1095238D01*
X40023809Y-1095238D01*
X40119047Y-1571428D01*
X40452380Y95238D02*
X39452380Y95238D01*
X39452380Y333333D01*
X39500000Y476190D01*
X39595238Y571428D01*
X39690476Y619047D01*
X39880952Y666666D01*
X40023809Y666666D01*
X40214285Y619047D01*
X40309523Y571428D01*
X40404761Y476190D01*
X40452380Y333333D01*
X40452380Y95238D01*
X40452380Y1095238D02*
X39785714Y1095238D01*
X39452380Y1095238D02*
X39500000Y1047619D01*
X39547619Y1095238D01*
X39500000Y1142857D01*
X39452380Y1095238D01*
X39547619Y1095238D01*
X40452380Y2000000D02*
X39928571Y2000000D01*
X39833333Y1952380D01*
X39785714Y1857142D01*
X39785714Y1666666D01*
X39833333Y1571428D01*
X40404761Y2000000D02*
X40452380Y1904761D01*
X40452380Y1666666D01*
X40404761Y1571428D01*
X40309523Y1523809D01*
X40214285Y1523809D01*
X40119047Y1571428D01*
X40071428Y1666666D01*
X40071428Y1904761D01*
X40023809Y2000000D01*
X40452380Y2476190D02*
X39785714Y2476190D01*
X39880952Y2476190D02*
X39833333Y2523809D01*
X39785714Y2619047D01*
X39785714Y2761904D01*
X39833333Y2857142D01*
X39928571Y2904761D01*
X40452380Y2904761D01*
X39928571Y2904761D02*
X39833333Y2952380D01*
X39785714Y3047619D01*
X39785714Y3190476D01*
X39833333Y3285714D01*
X39928571Y3333333D01*
X40452380Y3333333D01*
X40404761Y4190476D02*
X40452380Y4095238D01*
X40452380Y3904761D01*
X40404761Y3809523D01*
X40309523Y3761904D01*
X39928571Y3761904D01*
X39833333Y3809523D01*
X39785714Y3904761D01*
X39785714Y4095238D01*
X39833333Y4190476D01*
X39928571Y4238095D01*
X40023809Y4238095D01*
X40119047Y3761904D01*
X39785714Y4523809D02*
X39785714Y4904761D01*
X39452380Y4666666D02*
X40309523Y4666666D01*
X40404761Y4714285D01*
X40452380Y4809523D01*
X40452380Y4904761D01*
X40404761Y5619047D02*
X40452380Y5523809D01*
X40452380Y5333333D01*
X40404761Y5238095D01*
X40309523Y5190476D01*
X39928571Y5190476D01*
X39833333Y5238095D01*
X39785714Y5333333D01*
X39785714Y5523809D01*
X39833333Y5619047D01*
X39928571Y5666666D01*
X40023809Y5666666D01*
X40119047Y5190476D01*
X40452380Y6095238D02*
X39785714Y6095238D01*
X39976190Y6095238D02*
X39880952Y6142857D01*
X39833333Y6190476D01*
X39785714Y6285714D01*
X39785714Y6380952D01*
X32452380Y-4809523D02*
X31452380Y-4809523D01*
X31785714Y-4333333D02*
X32452380Y-4333333D01*
X31880952Y-4333333D02*
X31833333Y-4285714D01*
X31785714Y-4190476D01*
X31785714Y-4047619D01*
X31833333Y-3952380D01*
X31928571Y-3904761D01*
X32452380Y-3904761D01*
X32404761Y-3476190D02*
X32452380Y-3380952D01*
X32452380Y-3190476D01*
X32404761Y-3095238D01*
X32309523Y-3047619D01*
X32261904Y-3047619D01*
X32166666Y-3095238D01*
X32119047Y-3190476D01*
X32119047Y-3333333D01*
X32071428Y-3428571D01*
X31976190Y-3476190D01*
X31928571Y-3476190D01*
X31833333Y-3428571D01*
X31785714Y-3333333D01*
X31785714Y-3190476D01*
X31833333Y-3095238D01*
X32452380Y-2619047D02*
X31785714Y-2619047D01*
X31452380Y-2619047D02*
X31500000Y-2666666D01*
X31547619Y-2619047D01*
X31500000Y-2571428D01*
X31452380Y-2619047D01*
X31547619Y-2619047D01*
X32452380Y-1714285D02*
X31452380Y-1714285D01*
X32404761Y-1714285D02*
X32452380Y-1809523D01*
X32452380Y-2000000D01*
X32404761Y-2095238D01*
X32357142Y-2142857D01*
X32261904Y-2190476D01*
X31976190Y-2190476D01*
X31880952Y-2142857D01*
X31833333Y-2095238D01*
X31785714Y-2000000D01*
X31785714Y-1809523D01*
X31833333Y-1714285D01*
X32404761Y-857142D02*
X32452380Y-952380D01*
X32452380Y-1142857D01*
X32404761Y-1238095D01*
X32309523Y-1285714D01*
X31928571Y-1285714D01*
X31833333Y-1238095D01*
X31785714Y-1142857D01*
X31785714Y-952380D01*
X31833333Y-857142D01*
X31928571Y-809523D01*
X32023809Y-809523D01*
X32119047Y-1285714D01*
X32452380Y523809D02*
X32404761Y428571D01*
X32357142Y380952D01*
X32261904Y333333D01*
X31976190Y333333D01*
X31880952Y380952D01*
X31833333Y428571D01*
X31785714Y523809D01*
X31785714Y666666D01*
X31833333Y761904D01*
X31880952Y809523D01*
X31976190Y857142D01*
X32261904Y857142D01*
X32357142Y809523D01*
X32404761Y761904D01*
X32452380Y666666D01*
X32452380Y523809D01*
X31785714Y1142857D02*
X31785714Y1523809D01*
X32452380Y1285714D02*
X31595238Y1285714D01*
X31500000Y1333333D01*
X31452380Y1428571D01*
X31452380Y1523809D01*
X32357142Y3190476D02*
X32404761Y3142857D01*
X32452380Y3000000D01*
X32452380Y2904761D01*
X32404761Y2761904D01*
X32309523Y2666666D01*
X32214285Y2619047D01*
X32023809Y2571428D01*
X31880952Y2571428D01*
X31690476Y2619047D01*
X31595238Y2666666D01*
X31500000Y2761904D01*
X31452380Y2904761D01*
X31452380Y3000000D01*
X31500000Y3142857D01*
X31547619Y3190476D01*
X32452380Y3761904D02*
X32404761Y3666666D01*
X32309523Y3619047D01*
X31452380Y3619047D01*
X32452380Y4571428D02*
X31928571Y4571428D01*
X31833333Y4523809D01*
X31785714Y4428571D01*
X31785714Y4238095D01*
X31833333Y4142857D01*
X32404761Y4571428D02*
X32452380Y4476190D01*
X32452380Y4238095D01*
X32404761Y4142857D01*
X32309523Y4095238D01*
X32214285Y4095238D01*
X32119047Y4142857D01*
X32071428Y4238095D01*
X32071428Y4476190D01*
X32023809Y4571428D01*
X32452380Y5047619D02*
X31785714Y5047619D01*
X31880952Y5047619D02*
X31833333Y5095238D01*
X31785714Y5190476D01*
X31785714Y5333333D01*
X31833333Y5428571D01*
X31928571Y5476190D01*
X32452380Y5476190D01*
X31928571Y5476190D02*
X31833333Y5523809D01*
X31785714Y5619047D01*
X31785714Y5761904D01*
X31833333Y5857142D01*
X31928571Y5904761D01*
X32452380Y5904761D01*
X31785714Y6380952D02*
X32785714Y6380952D01*
X31833333Y6380952D02*
X31785714Y6476190D01*
X31785714Y6666666D01*
X31833333Y6761904D01*
X31880952Y6809523D01*
X31976190Y6857142D01*
X32261904Y6857142D01*
X32357142Y6809523D01*
X32404761Y6761904D01*
X32452380Y6666666D01*
X32452380Y6476190D01*
X32404761Y6380952D01*
X48452380Y-6047619D02*
X48452380Y-5857142D01*
X48500000Y-5761904D01*
X48595238Y-5666666D01*
X48785714Y-5619047D01*
X49119047Y-5619047D01*
X49309523Y-5666666D01*
X49404761Y-5761904D01*
X49452380Y-5857142D01*
X49452380Y-6047619D01*
X49404761Y-6142857D01*
X49309523Y-6238095D01*
X49119047Y-6285714D01*
X48785714Y-6285714D01*
X48595238Y-6238095D01*
X48500000Y-6142857D01*
X48452380Y-6047619D01*
X48785714Y-4761904D02*
X49452380Y-4761904D01*
X48785714Y-5190476D02*
X49309523Y-5190476D01*
X49404761Y-5142857D01*
X49452380Y-5047619D01*
X49452380Y-4904761D01*
X49404761Y-4809523D01*
X49357142Y-4761904D01*
X48785714Y-4428571D02*
X48785714Y-4047619D01*
X48452380Y-4285714D02*
X49309523Y-4285714D01*
X49404761Y-4238095D01*
X49452380Y-4142857D01*
X49452380Y-4047619D01*
X49452380Y-3571428D02*
X49404761Y-3666666D01*
X49309523Y-3714285D01*
X48452380Y-3714285D01*
X49452380Y-3190476D02*
X48785714Y-3190476D01*
X48452380Y-3190476D02*
X48500000Y-3238095D01*
X48547619Y-3190476D01*
X48500000Y-3142857D01*
X48452380Y-3190476D01*
X48547619Y-3190476D01*
X48785714Y-2714285D02*
X49452380Y-2714285D01*
X48880952Y-2714285D02*
X48833333Y-2666666D01*
X48785714Y-2571428D01*
X48785714Y-2428571D01*
X48833333Y-2333333D01*
X48928571Y-2285714D01*
X49452380Y-2285714D01*
X49404761Y-1428571D02*
X49452380Y-1523809D01*
X49452380Y-1714285D01*
X49404761Y-1809523D01*
X49309523Y-1857142D01*
X48928571Y-1857142D01*
X48833333Y-1809523D01*
X48785714Y-1714285D01*
X48785714Y-1523809D01*
X48833333Y-1428571D01*
X48928571Y-1380952D01*
X49023809Y-1380952D01*
X49119047Y-1857142D01*
X49452380Y-47619D02*
X49404761Y-142857D01*
X49357142Y-190476D01*
X49261904Y-238095D01*
X48976190Y-238095D01*
X48880952Y-190476D01*
X48833333Y-142857D01*
X48785714Y-47619D01*
X48785714Y95238D01*
X48833333Y190476D01*
X48880952Y238095D01*
X48976190Y285714D01*
X49261904Y285714D01*
X49357142Y238095D01*
X49404761Y190476D01*
X49452380Y95238D01*
X49452380Y-47619D01*
X48785714Y571428D02*
X48785714Y952380D01*
X49452380Y714285D02*
X48595238Y714285D01*
X48500000Y761904D01*
X48452380Y857142D01*
X48452380Y952380D01*
X49357142Y2619047D02*
X49404761Y2571428D01*
X49452380Y2428571D01*
X49452380Y2333333D01*
X49404761Y2190476D01*
X49309523Y2095238D01*
X49214285Y2047619D01*
X49023809Y2000000D01*
X48880952Y2000000D01*
X48690476Y2047619D01*
X48595238Y2095238D01*
X48500000Y2190476D01*
X48452380Y2333333D01*
X48452380Y2428571D01*
X48500000Y2571428D01*
X48547619Y2619047D01*
X49452380Y3190476D02*
X49404761Y3095238D01*
X49309523Y3047619D01*
X48452380Y3047619D01*
X49452380Y4000000D02*
X48928571Y4000000D01*
X48833333Y3952380D01*
X48785714Y3857142D01*
X48785714Y3666666D01*
X48833333Y3571428D01*
X49404761Y4000000D02*
X49452380Y3904761D01*
X49452380Y3666666D01*
X49404761Y3571428D01*
X49309523Y3523809D01*
X49214285Y3523809D01*
X49119047Y3571428D01*
X49071428Y3666666D01*
X49071428Y3904761D01*
X49023809Y4000000D01*
X49452380Y4476190D02*
X48785714Y4476190D01*
X48880952Y4476190D02*
X48833333Y4523809D01*
X48785714Y4619047D01*
X48785714Y4761904D01*
X48833333Y4857142D01*
X48928571Y4904761D01*
X49452380Y4904761D01*
X48928571Y4904761D02*
X48833333Y4952380D01*
X48785714Y5047619D01*
X48785714Y5190476D01*
X48833333Y5285714D01*
X48928571Y5333333D01*
X49452380Y5333333D01*
X48785714Y5809523D02*
X49785714Y5809523D01*
X48833333Y5809523D02*
X48785714Y5904761D01*
X48785714Y6095238D01*
X48833333Y6190476D01*
X48880952Y6238095D01*
X48976190Y6285714D01*
X49261904Y6285714D01*
X49357142Y6238095D01*
X49404761Y6190476D01*
X49452380Y6095238D01*
X49452380Y5904761D01*
X49404761Y5809523D01*
%TO.C,J4*%
D15*
X-42625928Y61340485D02*
X-41809500Y61340485D01*
X-41646214Y61286057D01*
X-41537357Y61177200D01*
X-41482928Y61013914D01*
X-41482928Y60905057D01*
X-42244928Y62374628D02*
X-41482928Y62374628D01*
X-42680357Y62102485D02*
X-41863928Y61830342D01*
X-41863928Y62537914D01*
%TO.C,J9*%
X22374071Y-63459514D02*
X23190500Y-63459514D01*
X23353785Y-63513942D01*
X23462642Y-63622800D01*
X23517071Y-63786085D01*
X23517071Y-63894942D01*
X23517071Y-62860800D02*
X23517071Y-62643085D01*
X23462642Y-62534228D01*
X23408214Y-62479800D01*
X23244928Y-62370942D01*
X23027214Y-62316514D01*
X22591785Y-62316514D01*
X22482928Y-62370942D01*
X22428500Y-62425371D01*
X22374071Y-62534228D01*
X22374071Y-62751942D01*
X22428500Y-62860800D01*
X22482928Y-62915228D01*
X22591785Y-62969657D01*
X22863928Y-62969657D01*
X22972785Y-62915228D01*
X23027214Y-62860800D01*
X23081642Y-62751942D01*
X23081642Y-62534228D01*
X23027214Y-62425371D01*
X22972785Y-62370942D01*
X22863928Y-62316514D01*
%TO.C,*%
D10*
X-761428Y-9272857D02*
X-761428Y-8072857D01*
X-361428Y-8930000D01*
X38571Y-8072857D01*
X38571Y-9272857D01*
X495714Y-8072857D02*
X1238571Y-8072857D01*
X838571Y-8530000D01*
X1010000Y-8530000D01*
X1124285Y-8587142D01*
X1181428Y-8644285D01*
X1238571Y-8758571D01*
X1238571Y-9044285D01*
X1181428Y-9158571D01*
X1124285Y-9215714D01*
X1010000Y-9272857D01*
X667142Y-9272857D01*
X552857Y-9215714D01*
X495714Y-9158571D01*
X-1031428Y14717142D02*
X-1031428Y15917142D01*
X-631428Y15060000D01*
X-231428Y15917142D01*
X-231428Y14717142D01*
X968571Y14717142D02*
X282857Y14717142D01*
X625714Y14717142D02*
X625714Y15917142D01*
X511428Y15745714D01*
X397142Y15631428D01*
X282857Y15574285D01*
%TO.C,J7*%
D15*
X-9625928Y-63459514D02*
X-8809500Y-63459514D01*
X-8646214Y-63513942D01*
X-8537357Y-63622800D01*
X-8482928Y-63786085D01*
X-8482928Y-63894942D01*
X-9625928Y-63024085D02*
X-9625928Y-62262085D01*
X-8482928Y-62751942D01*
%TO.C,J8*%
X6374071Y-63459514D02*
X7190500Y-63459514D01*
X7353785Y-63513942D01*
X7462642Y-63622800D01*
X7517071Y-63786085D01*
X7517071Y-63894942D01*
X6863928Y-62751942D02*
X6809500Y-62860800D01*
X6755071Y-62915228D01*
X6646214Y-62969657D01*
X6591785Y-62969657D01*
X6482928Y-62915228D01*
X6428500Y-62860800D01*
X6374071Y-62751942D01*
X6374071Y-62534228D01*
X6428500Y-62425371D01*
X6482928Y-62370942D01*
X6591785Y-62316514D01*
X6646214Y-62316514D01*
X6755071Y-62370942D01*
X6809500Y-62425371D01*
X6863928Y-62534228D01*
X6863928Y-62751942D01*
X6918357Y-62860800D01*
X6972785Y-62915228D01*
X7081642Y-62969657D01*
X7299357Y-62969657D01*
X7408214Y-62915228D01*
X7462642Y-62860800D01*
X7517071Y-62751942D01*
X7517071Y-62534228D01*
X7462642Y-62425371D01*
X7408214Y-62370942D01*
X7299357Y-62316514D01*
X7081642Y-62316514D01*
X6972785Y-62370942D01*
X6918357Y-62425371D01*
X6863928Y-62534228D01*
%TO.C,J1*%
X17374071Y63340485D02*
X18190500Y63340485D01*
X18353785Y63286057D01*
X18462642Y63177200D01*
X18517071Y63013914D01*
X18517071Y62905057D01*
X18517071Y64483485D02*
X18517071Y63830342D01*
X18517071Y64156914D02*
X17374071Y64156914D01*
X17537357Y64048057D01*
X17646214Y63939200D01*
X17700642Y63830342D01*
%TO.C,J6*%
X-4625928Y61340485D02*
X-3809500Y61340485D01*
X-3646214Y61286057D01*
X-3537357Y61177200D01*
X-3482928Y61013914D01*
X-3482928Y60905057D01*
X-4625928Y62374628D02*
X-4625928Y62156914D01*
X-4571500Y62048057D01*
X-4517071Y61993628D01*
X-4353785Y61884771D01*
X-4136071Y61830342D01*
X-3700642Y61830342D01*
X-3591785Y61884771D01*
X-3537357Y61939200D01*
X-3482928Y62048057D01*
X-3482928Y62265771D01*
X-3537357Y62374628D01*
X-3591785Y62429057D01*
X-3700642Y62483485D01*
X-3972785Y62483485D01*
X-4081642Y62429057D01*
X-4136071Y62374628D01*
X-4190500Y62265771D01*
X-4190500Y62048057D01*
X-4136071Y61939200D01*
X-4081642Y61884771D01*
X-3972785Y61830342D01*
%TO.C,J5*%
X-23625928Y61340485D02*
X-22809500Y61340485D01*
X-22646214Y61286057D01*
X-22537357Y61177200D01*
X-22482928Y61013914D01*
X-22482928Y60905057D01*
X-23625928Y62429057D02*
X-23625928Y61884771D01*
X-23081642Y61830342D01*
X-23136071Y61884771D01*
X-23190500Y61993628D01*
X-23190500Y62265771D01*
X-23136071Y62374628D01*
X-23081642Y62429057D01*
X-22972785Y62483485D01*
X-22700642Y62483485D01*
X-22591785Y62429057D01*
X-22537357Y62374628D01*
X-22482928Y62265771D01*
X-22482928Y61993628D01*
X-22537357Y61884771D01*
X-22591785Y61830342D01*
%TD*%
M02*
