%TF.GenerationSoftware,KiCad,Pcbnew,(5.1.10)-1*%
%TF.CreationDate,2022-04-08T13:19:25-06:00*%
%TF.ProjectId,VacuumFeedThruHDMI,56616375-756d-4466-9565-645468727548,rev?*%
%TF.SameCoordinates,Original*%
%TF.FileFunction,Copper,L2,Inr*%
%TF.FilePolarity,Positive*%
%FSLAX46Y46*%
G04 Gerber Fmt 4.6, Leading zero omitted, Abs format (unit mm)*
G04 Created by KiCad (PCBNEW (5.1.10)-1) date 2022-04-08 13:19:25*
%MOMM*%
%LPD*%
G01*
G04 APERTURE LIST*
%TA.AperFunction,ComponentPad*%
%ADD10O,4.500000X1.500000*%
%TD*%
%TA.AperFunction,ComponentPad*%
%ADD11C,0.800000*%
%TD*%
%TA.AperFunction,ComponentPad*%
%ADD12O,0.920000X0.920000*%
%TD*%
%TA.AperFunction,ComponentPad*%
%ADD13C,10.000000*%
%TD*%
%TA.AperFunction,Conductor*%
%ADD14C,0.090000*%
%TD*%
%TA.AperFunction,Conductor*%
%ADD15C,0.254000*%
%TD*%
%TA.AperFunction,Conductor*%
%ADD16C,0.100000*%
%TD*%
G04 APERTURE END LIST*
D10*
%TO.N,N/C*%
%TO.C,J2*%
X30000000Y67550000D03*
X30000000Y54050000D03*
D11*
%TO.N,Net-(J2-Pad19)*%
X29100000Y65300000D03*
%TO.N,Net-(J2-Pad18)*%
X30900000Y64800000D03*
%TO.N,GND*%
X29100000Y64300000D03*
%TO.N,Net-(J2-Pad16)*%
X30900000Y63800000D03*
%TO.N,Net-(J2-Pad15)*%
X29100000Y63300000D03*
%TO.N,Net-(J2-Pad14)*%
X30900000Y62800000D03*
%TO.N,Net-(J2-Pad13)*%
X29100000Y62300000D03*
%TO.N,Net-(J2-Pad12)*%
X30900000Y61800000D03*
%TO.N,GND*%
X29100000Y61300000D03*
%TO.N,Net-(J2-Pad10)*%
X30900000Y60800000D03*
%TO.N,Net-(J2-Pad9)*%
X29100000Y60300000D03*
%TO.N,GND*%
X30900000Y59800000D03*
%TO.N,Net-(J2-Pad7)*%
X29100000Y59300000D03*
%TO.N,Net-(J2-Pad6)*%
X30900000Y58800000D03*
%TO.N,GND*%
X29100000Y58300000D03*
%TO.N,Net-(J2-Pad4)*%
X30900000Y57800000D03*
%TO.N,Net-(J2-Pad3)*%
X29100000Y57300000D03*
%TO.N,GND*%
X30900000Y56800000D03*
%TO.N,Net-(J2-Pad1)*%
X29100000Y56300000D03*
%TD*%
D10*
%TO.N,N/C*%
%TO.C,J3*%
X49000000Y67550000D03*
X49000000Y54050000D03*
D11*
%TO.N,Net-(J3-Pad19)*%
X48100000Y65300000D03*
%TO.N,Net-(J3-Pad18)*%
X49900000Y64800000D03*
%TO.N,GND*%
X48100000Y64300000D03*
%TO.N,Net-(J3-Pad16)*%
X49900000Y63800000D03*
%TO.N,Net-(J3-Pad15)*%
X48100000Y63300000D03*
%TO.N,Net-(J3-Pad14)*%
X49900000Y62800000D03*
%TO.N,Net-(J3-Pad13)*%
X48100000Y62300000D03*
%TO.N,Net-(J3-Pad12)*%
X49900000Y61800000D03*
%TO.N,GND*%
X48100000Y61300000D03*
%TO.N,Net-(J3-Pad10)*%
X49900000Y60800000D03*
%TO.N,Net-(J3-Pad9)*%
X48100000Y60300000D03*
%TO.N,GND*%
X49900000Y59800000D03*
%TO.N,Net-(J3-Pad7)*%
X48100000Y59300000D03*
%TO.N,Net-(J3-Pad6)*%
X49900000Y58800000D03*
%TO.N,GND*%
X48100000Y58300000D03*
%TO.N,Net-(J3-Pad4)*%
X49900000Y57800000D03*
%TO.N,Net-(J3-Pad3)*%
X48100000Y57300000D03*
%TO.N,GND*%
X49900000Y56800000D03*
%TO.N,Net-(J3-Pad1)*%
X48100000Y56300000D03*
%TD*%
D12*
%TO.N,Net-(M3-Pad13)*%
%TO.C,M3*%
X7620000Y-12000000D03*
%TO.N,Net-(J9-Pad12)*%
X6985000Y-10900000D03*
%TO.N,Net-(J9-Pad10)*%
X6350000Y-12000000D03*
%TO.N,Net-(J9-Pad9)*%
X5715000Y-10900000D03*
%TO.N,Net-(J9-Pad7)*%
X5080000Y-12000000D03*
%TO.N,Net-(J9-Pad6)*%
X4445000Y-10900000D03*
%TO.N,Net-(J9-Pad4)*%
X3810000Y-12000000D03*
%TO.N,Net-(J9-Pad3)*%
X3175000Y-10900000D03*
%TO.N,Net-(J9-Pad1)*%
X2540000Y-12000000D03*
%TO.N,Net-(J8-Pad12)*%
X1905000Y-10900000D03*
%TO.N,Net-(J8-Pad10)*%
X1270000Y-12000000D03*
%TO.N,Net-(J8-Pad9)*%
X635000Y-10900000D03*
%TO.N,Net-(J8-Pad7)*%
X0Y-12000000D03*
%TO.N,Net-(J8-Pad6)*%
X-635000Y-10900000D03*
%TO.N,Net-(J8-Pad4)*%
X-1270000Y-12000000D03*
%TO.N,Net-(J8-Pad3)*%
X-1905000Y-10900000D03*
%TO.N,Net-(J8-Pad1)*%
X-2540000Y-12000000D03*
%TO.N,Net-(J7-Pad12)*%
X-3175000Y-10900000D03*
%TO.N,Net-(J7-Pad10)*%
X-3810000Y-12000000D03*
%TO.N,Net-(J7-Pad9)*%
X-4445000Y-10900000D03*
%TO.N,Net-(J7-Pad7)*%
X-5080000Y-12000000D03*
%TO.N,Net-(J7-Pad6)*%
X-5715000Y-10900000D03*
%TO.N,Net-(J7-Pad4)*%
X-6350000Y-12000000D03*
%TO.N,Net-(J7-Pad3)*%
X-6985000Y-10900000D03*
%TO.N,Net-(J7-Pad1)*%
X-7620000Y-12000000D03*
%TD*%
%TO.N,Net-(M2-Pad13)*%
%TO.C,M2*%
X7620000Y0D03*
%TO.N,Net-(J6-Pad12)*%
X6985000Y1100000D03*
%TO.N,Net-(J6-Pad10)*%
X6350000Y0D03*
%TO.N,Net-(J6-Pad9)*%
X5715000Y1100000D03*
%TO.N,Net-(J6-Pad7)*%
X5080000Y0D03*
%TO.N,Net-(J6-Pad6)*%
X4445000Y1100000D03*
%TO.N,Net-(J6-Pad4)*%
X3810000Y0D03*
%TO.N,Net-(J6-Pad3)*%
X3175000Y1100000D03*
%TO.N,Net-(J6-Pad1)*%
X2540000Y0D03*
%TO.N,Net-(J5-Pad12)*%
X1905000Y1100000D03*
%TO.N,Net-(J5-Pad10)*%
X1270000Y0D03*
%TO.N,Net-(J5-Pad9)*%
X635000Y1100000D03*
%TO.N,Net-(J5-Pad7)*%
X0Y0D03*
%TO.N,Net-(J5-Pad6)*%
X-635000Y1100000D03*
%TO.N,Net-(J5-Pad4)*%
X-1270000Y0D03*
%TO.N,Net-(J5-Pad3)*%
X-1905000Y1100000D03*
%TO.N,Net-(J5-Pad1)*%
X-2540000Y0D03*
%TO.N,Net-(J4-Pad12)*%
X-3175000Y1100000D03*
%TO.N,Net-(J4-Pad10)*%
X-3810000Y0D03*
%TO.N,Net-(J4-Pad9)*%
X-4445000Y1100000D03*
%TO.N,Net-(J4-Pad7)*%
X-5080000Y0D03*
%TO.N,Net-(J4-Pad6)*%
X-5715000Y1100000D03*
%TO.N,Net-(J4-Pad4)*%
X-6350000Y0D03*
%TO.N,Net-(J4-Pad3)*%
X-6985000Y1100000D03*
%TO.N,Net-(J4-Pad1)*%
X-7620000Y0D03*
%TD*%
%TO.N,Net-(M1-Pad13)*%
%TO.C,M1*%
X7620000Y12000000D03*
%TO.N,Net-(J3-Pad12)*%
X6985000Y13100000D03*
%TO.N,Net-(J3-Pad10)*%
X6350000Y12000000D03*
%TO.N,Net-(J3-Pad9)*%
X5715000Y13100000D03*
%TO.N,Net-(J3-Pad7)*%
X5080000Y12000000D03*
%TO.N,Net-(J3-Pad6)*%
X4445000Y13100000D03*
%TO.N,Net-(J3-Pad4)*%
X3810000Y12000000D03*
%TO.N,Net-(J3-Pad3)*%
X3175000Y13100000D03*
%TO.N,Net-(J3-Pad1)*%
X2540000Y12000000D03*
%TO.N,Net-(J2-Pad12)*%
X1905000Y13100000D03*
%TO.N,Net-(J2-Pad10)*%
X1270000Y12000000D03*
%TO.N,Net-(J2-Pad9)*%
X635000Y13100000D03*
%TO.N,Net-(J2-Pad7)*%
X0Y12000000D03*
%TO.N,Net-(J2-Pad6)*%
X-635000Y13100000D03*
%TO.N,Net-(J2-Pad4)*%
X-1270000Y12000000D03*
%TO.N,Net-(J2-Pad3)*%
X-1905000Y13100000D03*
%TO.N,Net-(J2-Pad1)*%
X-2540000Y12000000D03*
%TO.N,Net-(J1-Pad12)*%
X-3175000Y13100000D03*
%TO.N,Net-(J1-Pad10)*%
X-3810000Y12000000D03*
%TO.N,Net-(J1-Pad9)*%
X-4445000Y13100000D03*
%TO.N,Net-(J1-Pad7)*%
X-5080000Y12000000D03*
%TO.N,Net-(J1-Pad6)*%
X-5715000Y13100000D03*
%TO.N,Net-(J1-Pad4)*%
X-6350000Y12000000D03*
%TO.N,Net-(J1-Pad3)*%
X-6985000Y13100000D03*
%TO.N,Net-(J1-Pad1)*%
X-7620000Y12000000D03*
%TD*%
D13*
%TO.N,GND*%
%TO.C,J13*%
X15795259Y-38133128D03*
X38133128Y-15795259D03*
X38133128Y15795259D03*
X15795259Y38133128D03*
X-15795259Y38133128D03*
X-38133128Y15795259D03*
X-38133128Y-15795259D03*
X-15795259Y-38133128D03*
%TD*%
D10*
%TO.N,N/C*%
%TO.C,J4*%
X-49000000Y67550000D03*
X-49000000Y54050000D03*
D11*
%TO.N,Net-(J4-Pad19)*%
X-49900000Y65300000D03*
%TO.N,Net-(J4-Pad18)*%
X-48100000Y64800000D03*
%TO.N,GND*%
X-49900000Y64300000D03*
%TO.N,Net-(J4-Pad16)*%
X-48100000Y63800000D03*
%TO.N,Net-(J4-Pad15)*%
X-49900000Y63300000D03*
%TO.N,Net-(J4-Pad14)*%
X-48100000Y62800000D03*
%TO.N,Net-(J4-Pad13)*%
X-49900000Y62300000D03*
%TO.N,Net-(J4-Pad12)*%
X-48100000Y61800000D03*
%TO.N,GND*%
X-49900000Y61300000D03*
%TO.N,Net-(J4-Pad10)*%
X-48100000Y60800000D03*
%TO.N,Net-(J4-Pad9)*%
X-49900000Y60300000D03*
%TO.N,GND*%
X-48100000Y59800000D03*
%TO.N,Net-(J4-Pad7)*%
X-49900000Y59300000D03*
%TO.N,Net-(J4-Pad6)*%
X-48100000Y58800000D03*
%TO.N,GND*%
X-49900000Y58300000D03*
%TO.N,Net-(J4-Pad4)*%
X-48100000Y57800000D03*
%TO.N,Net-(J4-Pad3)*%
X-49900000Y57300000D03*
%TO.N,GND*%
X-48100000Y56800000D03*
%TO.N,Net-(J4-Pad1)*%
X-49900000Y56300000D03*
%TD*%
D10*
%TO.N,N/C*%
%TO.C,J9*%
X16000000Y-56250000D03*
X16000000Y-69750000D03*
D11*
%TO.N,Net-(J9-Pad19)*%
X15100000Y-58500000D03*
%TO.N,Net-(J9-Pad18)*%
X16900000Y-59000000D03*
%TO.N,GND*%
X15100000Y-59500000D03*
%TO.N,Net-(J9-Pad16)*%
X16900000Y-60000000D03*
%TO.N,Net-(J9-Pad15)*%
X15100000Y-60500000D03*
%TO.N,Net-(J9-Pad14)*%
X16900000Y-61000000D03*
%TO.N,Net-(J9-Pad13)*%
X15100000Y-61500000D03*
%TO.N,Net-(J9-Pad12)*%
X16900000Y-62000000D03*
%TO.N,GND*%
X15100000Y-62500000D03*
%TO.N,Net-(J9-Pad10)*%
X16900000Y-63000000D03*
%TO.N,Net-(J9-Pad9)*%
X15100000Y-63500000D03*
%TO.N,GND*%
X16900000Y-64000000D03*
%TO.N,Net-(J9-Pad7)*%
X15100000Y-64500000D03*
%TO.N,Net-(J9-Pad6)*%
X16900000Y-65000000D03*
%TO.N,GND*%
X15100000Y-65500000D03*
%TO.N,Net-(J9-Pad4)*%
X16900000Y-66000000D03*
%TO.N,Net-(J9-Pad3)*%
X15100000Y-66500000D03*
%TO.N,GND*%
X16900000Y-67000000D03*
%TO.N,Net-(J9-Pad1)*%
X15100000Y-67500000D03*
%TD*%
D10*
%TO.N,N/C*%
%TO.C,J7*%
X-16000000Y-56250000D03*
X-16000000Y-69750000D03*
D11*
%TO.N,Net-(J7-Pad19)*%
X-16900000Y-58500000D03*
%TO.N,Net-(J7-Pad18)*%
X-15100000Y-59000000D03*
%TO.N,GND*%
X-16900000Y-59500000D03*
%TO.N,Net-(J7-Pad16)*%
X-15100000Y-60000000D03*
%TO.N,Net-(J7-Pad15)*%
X-16900000Y-60500000D03*
%TO.N,Net-(J7-Pad14)*%
X-15100000Y-61000000D03*
%TO.N,Net-(J7-Pad13)*%
X-16900000Y-61500000D03*
%TO.N,Net-(J7-Pad12)*%
X-15100000Y-62000000D03*
%TO.N,GND*%
X-16900000Y-62500000D03*
%TO.N,Net-(J7-Pad10)*%
X-15100000Y-63000000D03*
%TO.N,Net-(J7-Pad9)*%
X-16900000Y-63500000D03*
%TO.N,GND*%
X-15100000Y-64000000D03*
%TO.N,Net-(J7-Pad7)*%
X-16900000Y-64500000D03*
%TO.N,Net-(J7-Pad6)*%
X-15100000Y-65000000D03*
%TO.N,GND*%
X-16900000Y-65500000D03*
%TO.N,Net-(J7-Pad4)*%
X-15100000Y-66000000D03*
%TO.N,Net-(J7-Pad3)*%
X-16900000Y-66500000D03*
%TO.N,GND*%
X-15100000Y-67000000D03*
%TO.N,Net-(J7-Pad1)*%
X-16900000Y-67500000D03*
%TD*%
D10*
%TO.N,N/C*%
%TO.C,J8*%
X0Y-56250000D03*
X0Y-69750000D03*
D11*
%TO.N,Net-(J8-Pad19)*%
X-900000Y-58500000D03*
%TO.N,Net-(J8-Pad18)*%
X900000Y-59000000D03*
%TO.N,GND*%
X-900000Y-59500000D03*
%TO.N,Net-(J8-Pad16)*%
X900000Y-60000000D03*
%TO.N,Net-(J8-Pad15)*%
X-900000Y-60500000D03*
%TO.N,Net-(J8-Pad14)*%
X900000Y-61000000D03*
%TO.N,Net-(J8-Pad13)*%
X-900000Y-61500000D03*
%TO.N,Net-(J8-Pad12)*%
X900000Y-62000000D03*
%TO.N,GND*%
X-900000Y-62500000D03*
%TO.N,Net-(J8-Pad10)*%
X900000Y-63000000D03*
%TO.N,Net-(J8-Pad9)*%
X-900000Y-63500000D03*
%TO.N,GND*%
X900000Y-64000000D03*
%TO.N,Net-(J8-Pad7)*%
X-900000Y-64500000D03*
%TO.N,Net-(J8-Pad6)*%
X900000Y-65000000D03*
%TO.N,GND*%
X-900000Y-65500000D03*
%TO.N,Net-(J8-Pad4)*%
X900000Y-66000000D03*
%TO.N,Net-(J8-Pad3)*%
X-900000Y-66500000D03*
%TO.N,GND*%
X900000Y-67000000D03*
%TO.N,Net-(J8-Pad1)*%
X-900000Y-67500000D03*
%TD*%
D10*
%TO.N,N/C*%
%TO.C,J1*%
X11000000Y67550000D03*
X11000000Y54050000D03*
D11*
%TO.N,Net-(J1-Pad19)*%
X10100000Y65300000D03*
%TO.N,Net-(J1-Pad18)*%
X11900000Y64800000D03*
%TO.N,GND*%
X10100000Y64300000D03*
%TO.N,Net-(J1-Pad16)*%
X11900000Y63800000D03*
%TO.N,Net-(J1-Pad15)*%
X10100000Y63300000D03*
%TO.N,Net-(J1-Pad14)*%
X11900000Y62800000D03*
%TO.N,Net-(J1-Pad13)*%
X10100000Y62300000D03*
%TO.N,Net-(J1-Pad12)*%
X11900000Y61800000D03*
%TO.N,GND*%
X10100000Y61300000D03*
%TO.N,Net-(J1-Pad10)*%
X11900000Y60800000D03*
%TO.N,Net-(J1-Pad9)*%
X10100000Y60300000D03*
%TO.N,GND*%
X11900000Y59800000D03*
%TO.N,Net-(J1-Pad7)*%
X10100000Y59300000D03*
%TO.N,Net-(J1-Pad6)*%
X11900000Y58800000D03*
%TO.N,GND*%
X10100000Y58300000D03*
%TO.N,Net-(J1-Pad4)*%
X11900000Y57800000D03*
%TO.N,Net-(J1-Pad3)*%
X10100000Y57300000D03*
%TO.N,GND*%
X11900000Y56800000D03*
%TO.N,Net-(J1-Pad1)*%
X10100000Y56300000D03*
%TD*%
D10*
%TO.N,N/C*%
%TO.C,J6*%
X-11000000Y67550000D03*
X-11000000Y54050000D03*
D11*
%TO.N,Net-(J6-Pad19)*%
X-11900000Y65300000D03*
%TO.N,Net-(J6-Pad18)*%
X-10100000Y64800000D03*
%TO.N,GND*%
X-11900000Y64300000D03*
%TO.N,Net-(J6-Pad16)*%
X-10100000Y63800000D03*
%TO.N,Net-(J6-Pad15)*%
X-11900000Y63300000D03*
%TO.N,Net-(J6-Pad14)*%
X-10100000Y62800000D03*
%TO.N,Net-(J6-Pad13)*%
X-11900000Y62300000D03*
%TO.N,Net-(J6-Pad12)*%
X-10100000Y61800000D03*
%TO.N,GND*%
X-11900000Y61300000D03*
%TO.N,Net-(J6-Pad10)*%
X-10100000Y60800000D03*
%TO.N,Net-(J6-Pad9)*%
X-11900000Y60300000D03*
%TO.N,GND*%
X-10100000Y59800000D03*
%TO.N,Net-(J6-Pad7)*%
X-11900000Y59300000D03*
%TO.N,Net-(J6-Pad6)*%
X-10100000Y58800000D03*
%TO.N,GND*%
X-11900000Y58300000D03*
%TO.N,Net-(J6-Pad4)*%
X-10100000Y57800000D03*
%TO.N,Net-(J6-Pad3)*%
X-11900000Y57300000D03*
%TO.N,GND*%
X-10100000Y56800000D03*
%TO.N,Net-(J6-Pad1)*%
X-11900000Y56300000D03*
%TD*%
D10*
%TO.N,N/C*%
%TO.C,J5*%
X-30000000Y67550000D03*
X-30000000Y54050000D03*
D11*
%TO.N,Net-(J5-Pad19)*%
X-30900000Y65300000D03*
%TO.N,Net-(J5-Pad18)*%
X-29100000Y64800000D03*
%TO.N,GND*%
X-30900000Y64300000D03*
%TO.N,Net-(J5-Pad16)*%
X-29100000Y63800000D03*
%TO.N,Net-(J5-Pad15)*%
X-30900000Y63300000D03*
%TO.N,Net-(J5-Pad14)*%
X-29100000Y62800000D03*
%TO.N,Net-(J5-Pad13)*%
X-30900000Y62300000D03*
%TO.N,Net-(J5-Pad12)*%
X-29100000Y61800000D03*
%TO.N,GND*%
X-30900000Y61300000D03*
%TO.N,Net-(J5-Pad10)*%
X-29100000Y60800000D03*
%TO.N,Net-(J5-Pad9)*%
X-30900000Y60300000D03*
%TO.N,GND*%
X-29100000Y59800000D03*
%TO.N,Net-(J5-Pad7)*%
X-30900000Y59300000D03*
%TO.N,Net-(J5-Pad6)*%
X-29100000Y58800000D03*
%TO.N,GND*%
X-30900000Y58300000D03*
%TO.N,Net-(J5-Pad4)*%
X-29100000Y57800000D03*
%TO.N,Net-(J5-Pad3)*%
X-30900000Y57300000D03*
%TO.N,GND*%
X-29100000Y56800000D03*
%TO.N,Net-(J5-Pad1)*%
X-30900000Y56300000D03*
%TD*%
D14*
%TO.N,Net-(J1-Pad12)*%
X-3175000Y50752140D02*
X-3175000Y13100000D01*
X1117821Y55044961D02*
X-3175000Y50752140D01*
X12990020Y60709980D02*
X11900000Y61800000D01*
X12990020Y56190876D02*
X12990020Y60709980D01*
X11779107Y54979963D02*
X12990020Y56190876D01*
X9261754Y54979962D02*
X11779107Y54979963D01*
X9196753Y55044961D02*
X9261754Y54979962D01*
X1117821Y55044961D02*
X9196753Y55044961D01*
%TO.N,Net-(J1-Pad10)*%
X-3849999Y12039999D02*
X-3810000Y12000000D01*
X-3849999Y50331713D02*
X-3849999Y12039999D01*
X1043259Y55224971D02*
X-3849999Y50331713D01*
X12810010Y59889990D02*
X11900000Y60800000D01*
X12810010Y56265438D02*
X12810010Y59889990D01*
X11704544Y55159972D02*
X12810010Y56265438D01*
X9336315Y55159971D02*
X11704544Y55159972D01*
X9271315Y55224971D02*
X9336315Y55159971D01*
X1043259Y55224971D02*
X9271315Y55224971D01*
%TO.N,Net-(J1-Pad7)*%
X-5080000Y12000000D02*
X-5675001Y11404999D01*
X-5080000Y12000000D02*
X-6050000Y11030000D01*
X-6050000Y11030000D02*
X-8140000Y11030000D01*
X-8140000Y11030000D02*
X-8215001Y11105001D01*
X-8215001Y11105001D02*
X-8215001Y11115001D01*
%TO.N,Net-(J1-Pad6)*%
X-5715000Y48721284D02*
X968697Y55404981D01*
X-5715000Y13100000D02*
X-5715000Y48721284D01*
X9410877Y55339981D02*
X11629981Y55339981D01*
X9345875Y55404981D02*
X9410877Y55339981D01*
X968697Y55404981D02*
X9345875Y55404981D01*
X11629981Y55339981D02*
X12630000Y56340000D01*
X12630000Y58070000D02*
X11900000Y58800000D01*
X12630000Y56340000D02*
X12630000Y58070000D01*
%TO.N,Net-(J1-Pad4)*%
X-6350000Y12000000D02*
X-6350000Y48340856D01*
X-6350000Y48340856D02*
X894133Y55584989D01*
X10990010Y55985438D02*
X10990010Y57799990D01*
X9485438Y55519990D02*
X10524563Y55519991D01*
X9420439Y55584989D02*
X9485438Y55519990D01*
X10524563Y55519991D02*
X10990010Y55985438D01*
X894133Y55584989D02*
X9420439Y55584989D01*
X10990020Y57800000D02*
X11900000Y57800000D01*
X10990010Y57799990D02*
X10990020Y57800000D01*
%TO.N,Net-(J1-Pad3)*%
X10810000Y56590000D02*
X10100000Y57300000D01*
X10810000Y56060000D02*
X10810000Y56590000D01*
X10450000Y55700000D02*
X10810000Y56060000D01*
X9560000Y55700000D02*
X10450000Y55700000D01*
X9495001Y55764999D02*
X9560000Y55700000D01*
X-6985000Y47960428D02*
X819571Y55764999D01*
X819571Y55764999D02*
X9495001Y55764999D01*
X-6985000Y13100000D02*
X-6985000Y47960428D01*
%TO.N,Net-(J1-Pad1)*%
X-7620000Y12000000D02*
X-7620000Y47580000D01*
X1100000Y56300000D02*
X10100000Y56300000D01*
X-7620000Y47580000D02*
X1100000Y56300000D01*
%TO.N,Net-(J2-Pad1)*%
X-2579999Y12039999D02*
X-2540000Y12000000D01*
X29100000Y56300000D02*
X17100000Y56300000D01*
X-2540000Y36660000D02*
X-2540000Y36460000D01*
X17100000Y56300000D02*
X-2540000Y36660000D01*
X-2540000Y36460000D02*
X-2540000Y47160000D01*
X-2540000Y12000000D02*
X-2540000Y36460000D01*
%TO.N,Net-(J2-Pad3)*%
X-1905000Y37040428D02*
X-1905000Y13100000D01*
X16819571Y55764999D02*
X-1905000Y37040428D01*
X29100000Y57300000D02*
X29800000Y57300000D01*
X29800000Y57300000D02*
X29850000Y57250000D01*
X29850000Y57250000D02*
X29850000Y56258198D01*
X29850000Y56258198D02*
X29850000Y55970000D01*
X16819571Y55764999D02*
X28525001Y55764999D01*
X28525001Y55764999D02*
X28650000Y55640000D01*
X29520000Y55640000D02*
X29680000Y55800000D01*
X28650000Y55640000D02*
X29520000Y55640000D01*
X29850000Y55970000D02*
X29680000Y55800000D01*
%TO.N,Net-(J2-Pad4)*%
X-1309999Y12039999D02*
X-1270000Y12000000D01*
X16894133Y55584989D02*
X-1309999Y37380857D01*
X-1309999Y37380857D02*
X-1309999Y12039999D01*
X30030010Y55895438D02*
X30030010Y57789990D01*
X29594563Y55459991D02*
X30030010Y55895438D01*
X28575438Y55459990D02*
X29594563Y55459991D01*
X28450439Y55584989D02*
X28575438Y55459990D01*
X16894133Y55584989D02*
X28450439Y55584989D01*
X30040020Y57800000D02*
X30900000Y57800000D01*
X30030010Y57789990D02*
X30040020Y57800000D01*
%TO.N,Net-(J2-Pad6)*%
X-635000Y37801284D02*
X-635000Y13100000D01*
X16968695Y55404979D02*
X-635000Y37801284D01*
X28375877Y55404979D02*
X28500877Y55279981D01*
X28500877Y55279981D02*
X30539981Y55279981D01*
X16968695Y55404979D02*
X28375877Y55404979D01*
X30539981Y55279981D02*
X31860000Y56600000D01*
X31860000Y57840000D02*
X30900000Y58800000D01*
X31860000Y56600000D02*
X31860000Y57840000D01*
%TO.N,Net-(J2-Pad10)*%
X1270000Y39370000D02*
X1270000Y12000000D01*
X17124969Y55224969D02*
X1270000Y39370000D01*
X30614544Y55099972D02*
X32090000Y56575428D01*
X28426315Y55099971D02*
X30614544Y55099972D01*
X28301316Y55224969D02*
X28426315Y55099971D01*
X17124969Y55224969D02*
X28301316Y55224969D01*
X32090000Y59610000D02*
X30900000Y60800000D01*
X32090000Y56575428D02*
X32090000Y59610000D01*
%TO.N,Net-(J2-Pad12)*%
X1905000Y39749959D02*
X17200000Y55044959D01*
X1905000Y13100000D02*
X1905000Y39749959D01*
X17200000Y55044959D02*
X25275041Y55044959D01*
X25275041Y55044959D02*
X27570000Y52750000D01*
X27570000Y52750000D02*
X32090000Y52750000D01*
X32090000Y52750000D02*
X32870000Y53530000D01*
X32870000Y59830000D02*
X30900000Y61800000D01*
X32870000Y53530000D02*
X32870000Y59830000D01*
%TO.N,Net-(J3-Pad1)*%
X39300000Y56300000D02*
X39340000Y56300000D01*
X38352773Y55352773D02*
X39300000Y56300000D01*
X38352772Y50237344D02*
X38352773Y55352773D01*
X39340000Y56300000D02*
X48100000Y56300000D01*
X37115428Y49000000D02*
X38352772Y50237344D01*
X11409613Y49000000D02*
X37115428Y49000000D01*
X2579999Y40170386D02*
X11409613Y49000000D01*
X2579999Y12039999D02*
X2579999Y40170386D01*
X2540000Y12000000D02*
X2579999Y12039999D01*
%TO.N,Net-(J3-Pad3)*%
X37189991Y48819991D02*
X38532781Y50162781D01*
X11719991Y48819991D02*
X37189991Y48819991D01*
X3175000Y40275000D02*
X11719991Y48819991D01*
X38532781Y50162781D02*
X38532782Y55278210D01*
X3175000Y13100000D02*
X3175000Y40275000D01*
X48100000Y57300000D02*
X48790000Y57300000D01*
X48790000Y57300000D02*
X48800000Y57290000D01*
X38787286Y55532714D02*
X38954572Y55700000D01*
X38532782Y55278210D02*
X38787286Y55532714D01*
X48970000Y57120000D02*
X48790000Y57300000D01*
X48970000Y55890000D02*
X48970000Y57120000D01*
X48700000Y55620000D02*
X48970000Y55890000D01*
X46330000Y55620000D02*
X48700000Y55620000D01*
X46200000Y55750000D02*
X46330000Y55620000D01*
X39004572Y55750000D02*
X46200000Y55750000D01*
X38787286Y55532714D02*
X39004572Y55750000D01*
%TO.N,Net-(J3-Pad4)*%
X48980010Y57799990D02*
X48980020Y57800000D01*
X3810000Y39310000D02*
X13139981Y48639981D01*
X39029134Y55519990D02*
X46175438Y55519990D01*
X46175438Y55519990D02*
X46255438Y55439990D01*
X38712791Y55203647D02*
X39029134Y55519990D01*
X13139981Y48639981D02*
X37269981Y48639981D01*
X49150010Y57194562D02*
X48980010Y57364562D01*
X37269981Y48639981D02*
X38712790Y50082790D01*
X38712790Y50082790D02*
X38712791Y55203647D01*
X46255438Y55439990D02*
X48774562Y55439990D01*
X48774562Y55439990D02*
X49150009Y55815437D01*
X48980020Y57800000D02*
X49900000Y57800000D01*
X49150009Y55815437D02*
X49150010Y57194562D01*
X3810000Y12000000D02*
X3810000Y39310000D01*
X48980010Y57364562D02*
X48980010Y57799990D01*
%TO.N,Net-(J3-Pad6)*%
X4445000Y13100000D02*
X4445000Y39690428D01*
X37360827Y48459971D02*
X38892800Y49991944D01*
X38892800Y55129084D02*
X39103696Y55339980D01*
X4445000Y39690428D02*
X13214543Y48459971D01*
X38892800Y49991944D02*
X38892800Y55129084D01*
X13214543Y48459971D02*
X37360827Y48459971D01*
X49900000Y58800000D02*
X50710000Y58800000D01*
X50710000Y58800000D02*
X50770000Y58740000D01*
X49689980Y55259980D02*
X50770000Y56340000D01*
X46180876Y55259980D02*
X49689980Y55259980D01*
X46100876Y55339980D02*
X46180876Y55259980D01*
X39103696Y55339980D02*
X46100876Y55339980D01*
X50770000Y58740000D02*
X50770000Y56340000D01*
%TO.N,Net-(J3-Pad10)*%
X6389999Y12039999D02*
X6350000Y12000000D01*
X6389999Y41380855D02*
X6389999Y12039999D01*
X13289105Y48279961D02*
X6389999Y41380855D01*
X32279961Y48279961D02*
X13289105Y48279961D01*
X32298249Y48279961D02*
X32279961Y48279961D01*
X39178258Y55159970D02*
X39072810Y55054522D01*
X39072810Y55054522D02*
X39072810Y49917382D01*
X39072810Y49917382D02*
X37435389Y48279961D01*
X37435389Y48279961D02*
X32279961Y48279961D01*
X50950010Y56265438D02*
X50950010Y59749990D01*
X49764543Y55079971D02*
X50950010Y56265438D01*
X46106314Y55079970D02*
X49764543Y55079971D01*
X46026314Y55159970D02*
X46106314Y55079970D01*
X50950010Y59749990D02*
X49900000Y60800000D01*
X39178258Y55159970D02*
X46026314Y55159970D01*
%TO.N,Net-(J3-Pad12)*%
X13399951Y48099951D02*
X6985000Y41685000D01*
X37509951Y48099951D02*
X13399951Y48099951D01*
X39252820Y49842820D02*
X37509951Y48099951D01*
X39520040Y54979960D02*
X39252820Y54979960D01*
X41340000Y53160000D02*
X39520040Y54979960D01*
X6985000Y41685000D02*
X6985000Y13100000D01*
X51870000Y53160000D02*
X41340000Y53160000D01*
X39252820Y54979960D02*
X39252820Y49842820D01*
X51870000Y53160000D02*
X51870000Y59830000D01*
X49900000Y61800000D02*
X51845000Y59855000D01*
%TO.N,Net-(J5-Pad1)*%
X-2540000Y1345602D02*
X-2540000Y0D01*
X-4166485Y2972087D02*
X-2540000Y1345602D01*
X-6823371Y2972087D02*
X-4166485Y2972087D01*
X-18672714Y5327286D02*
X-9178570Y5327286D01*
X-9178570Y5327286D02*
X-6823371Y2972087D01*
X-32580010Y54619990D02*
X-32580010Y19234582D01*
X-32580010Y19234582D02*
X-32172714Y18827286D01*
X-30900000Y56300000D02*
X-32580010Y54619990D01*
X-32172714Y18827286D02*
X-18672714Y5327286D01*
X-32385010Y19039582D02*
X-32172714Y18827286D01*
%TO.N,Net-(J5-Pad3)*%
X-3957097Y3152097D02*
X-1905000Y1100000D01*
X-6748809Y3152097D02*
X-3957097Y3152097D01*
X-9104007Y5507295D02*
X-6748809Y3152097D01*
X-18598152Y5507296D02*
X-9104007Y5507295D01*
X-32400000Y19309144D02*
X-18598152Y5507296D01*
X-32400000Y54401593D02*
X-32400000Y19309144D01*
X-31801593Y55000000D02*
X-32400000Y54401593D01*
X-30700000Y55000000D02*
X-31801593Y55000000D01*
X-30040000Y55660000D02*
X-30700000Y55000000D01*
X-30040000Y57170000D02*
X-30040000Y55660000D01*
X-30170000Y57300000D02*
X-30040000Y57170000D01*
X-30900000Y57300000D02*
X-30170000Y57300000D01*
%TO.N,Net-(J5-Pad4)*%
X-29100000Y57800000D02*
X-27614990Y56314990D01*
X-27614990Y56314990D02*
X-27614990Y14814990D01*
X-18487305Y5687305D02*
X-9029446Y5687304D01*
X-27614990Y14814990D02*
X-18487305Y5687305D01*
X-9029446Y5687304D02*
X-6674249Y3332107D01*
X-1270000Y1345602D02*
X-1270000Y0D01*
X-3256505Y3332107D02*
X-1270000Y1345602D01*
X-6674249Y3332107D02*
X-3256505Y3332107D01*
%TO.N,Net-(J5-Pad6)*%
X-29100000Y58800000D02*
X-27434980Y57134980D01*
X-27434980Y57134980D02*
X-27434980Y56389552D01*
X-27434980Y56389552D02*
X-27434980Y14889552D01*
X-18412742Y5867314D02*
X-8954885Y5867313D01*
X-27434980Y14889552D02*
X-18412742Y5867314D01*
X-8954885Y5867313D02*
X-8954883Y5867313D01*
X-8954883Y5867313D02*
X-6599687Y3512117D01*
X-3047117Y3512117D02*
X-3387883Y3512117D01*
X-635000Y1100000D02*
X-3047117Y3512117D01*
X-3387883Y3512117D02*
X-3181943Y3512117D01*
X-6599687Y3512117D02*
X-3387883Y3512117D01*
%TO.N,Net-(J5-Pad10)*%
X1270000Y1425600D02*
X1270000Y0D01*
X-996527Y3692127D02*
X1270000Y1425600D01*
X-6525125Y3692127D02*
X-996527Y3692127D01*
X-8880320Y6047322D02*
X-6525125Y3692127D01*
X-18338179Y6047323D02*
X-8880320Y6047322D01*
X-27254970Y14964114D02*
X-18338179Y6047323D01*
X-27254970Y58954970D02*
X-27254970Y14964114D01*
X-29100000Y60800000D02*
X-27254970Y58954970D01*
%TO.N,Net-(J5-Pad12)*%
X-895000Y3900000D02*
X1905000Y1100000D01*
X-6478428Y3900000D02*
X-895000Y3900000D01*
X-8805759Y6227331D02*
X-6478428Y3900000D01*
X-18263616Y6227332D02*
X-8805759Y6227331D01*
X-27074960Y15038676D02*
X-18263616Y6227332D01*
X-27074960Y59774960D02*
X-27074960Y15038676D01*
X-29100000Y61800000D02*
X-27074960Y59774960D01*
%TO.N,Net-(J6-Pad12)*%
X-10205846Y54935010D02*
X-8829981Y56310875D01*
X-25900000Y53600000D02*
X-24564990Y54935010D01*
X-24564990Y54935010D02*
X-10205846Y54935010D01*
X-25900000Y53211710D02*
X-25900000Y53600000D01*
X-25905855Y53205855D02*
X-25900000Y53211710D01*
X-25905855Y15397003D02*
X-25905855Y53205855D01*
X-8829981Y56310875D02*
X-8829981Y60529981D01*
X-17848879Y7340027D02*
X-25905855Y15397003D01*
X-8829981Y60529981D02*
X-10100000Y61800000D01*
X-8376313Y7340027D02*
X-17848879Y7340027D01*
X-6088157Y5051873D02*
X-8376313Y7340027D01*
X3033127Y5051873D02*
X-6088157Y5051873D01*
X6985000Y1100000D02*
X3033127Y5051873D01*
%TO.N,Net-(J6-Pad10)*%
X-9009991Y59709991D02*
X-10100000Y60800000D01*
X6350000Y0D02*
X6350000Y1345602D01*
X6350000Y1345602D02*
X2835583Y4860019D01*
X2835583Y4860019D02*
X-6150875Y4860019D01*
X-12713714Y55200000D02*
X-12633685Y55119971D01*
X-8450874Y7160018D02*
X-17923443Y7160019D01*
X-6150875Y4860019D02*
X-8450874Y7160018D01*
X-9009991Y56385437D02*
X-9009991Y59709991D01*
X-17923443Y7160019D02*
X-26100000Y15336576D01*
X-10275456Y55119972D02*
X-9009991Y56385437D01*
X-26100000Y15336576D02*
X-26100000Y53666282D01*
X-12633685Y55119971D02*
X-10275456Y55119972D01*
X-26100000Y53666282D02*
X-24566282Y55200000D01*
X-24566282Y55200000D02*
X-12713714Y55200000D01*
%TO.N,Net-(J6-Pad6)*%
X-6225438Y4680010D02*
X1474563Y4680009D01*
X-17998006Y6980010D02*
X-8525437Y6980009D01*
X-8525437Y6980009D02*
X-6225438Y4680010D01*
X-26300000Y15282004D02*
X-17998006Y6980010D01*
X1474563Y4680009D02*
X4445000Y1709572D01*
X-26300000Y53720854D02*
X-26300000Y15282004D01*
X4445000Y1709572D02*
X4445000Y1100000D01*
X-24615875Y55404979D02*
X-26300000Y53720854D01*
X-12664123Y55404979D02*
X-12559123Y55299981D01*
X-12559123Y55299981D02*
X-10350019Y55299981D01*
X-24615875Y55404979D02*
X-12664123Y55404979D01*
X-10350019Y55299981D02*
X-9190000Y56460000D01*
X-9190000Y57890000D02*
X-10100000Y58800000D01*
X-9190000Y56460000D02*
X-9190000Y57890000D01*
%TO.N,Net-(J6-Pad4)*%
X-26500000Y53775426D02*
X-26500000Y15227432D01*
X-24690437Y55584989D02*
X-26500000Y53775426D01*
X-26500000Y15227432D02*
X-18072568Y6800000D01*
X-8600000Y6800000D02*
X-6300000Y4500000D01*
X-18072568Y6800000D02*
X-8600000Y6800000D01*
X3810000Y2090000D02*
X3810000Y0D01*
X1400000Y4500000D02*
X3810000Y2090000D01*
X-6300000Y4500000D02*
X1400000Y4500000D01*
X-11039990Y55725438D02*
X-11039990Y57599990D01*
X-11285437Y55479991D02*
X-11039990Y55725438D01*
X-12484562Y55479990D02*
X-11285437Y55479991D01*
X-12589561Y55584989D02*
X-12484562Y55479990D01*
X-24690437Y55584989D02*
X-12589561Y55584989D01*
X-10839980Y57800000D02*
X-10100000Y57800000D01*
X-11039990Y57599990D02*
X-10839980Y57800000D01*
%TO.N,Net-(J6-Pad3)*%
X-5010Y4280010D02*
X3175000Y1100000D01*
X-8656633Y6587349D02*
X-6349294Y4280010D01*
X-26700000Y15172860D02*
X-18114490Y6587350D01*
X-26700000Y53829998D02*
X-26700000Y15172860D01*
X-18114490Y6587350D02*
X-8656633Y6587349D01*
X-24764999Y55764999D02*
X-26700000Y53829998D01*
X-6349294Y4280010D02*
X-5010Y4280010D01*
X-24764999Y55764999D02*
X-12514999Y55764999D01*
X-12514999Y55764999D02*
X-12410000Y55660000D01*
X-12410000Y55660000D02*
X-11360000Y55660000D01*
X-11360000Y55660000D02*
X-11220000Y55800000D01*
X-11220000Y56620000D02*
X-11900000Y57300000D01*
X-11220000Y55800000D02*
X-11220000Y56620000D01*
%TO.N,Net-(J6-Pad1)*%
X-214398Y4100000D02*
X2540000Y1345602D01*
X-8731196Y6407340D02*
X-6423856Y4100000D01*
X-18189053Y6407341D02*
X-8731196Y6407340D01*
X-26894950Y15113238D02*
X-18189053Y6407341D01*
X-26894950Y53905050D02*
X-26894950Y15113238D01*
X-6423856Y4100000D02*
X-214398Y4100000D01*
X-24500000Y56300000D02*
X-26894950Y53905050D01*
X2540000Y1345602D02*
X2540000Y0D01*
X-11900000Y56300000D02*
X-24500000Y56300000D01*
%TO.N,Net-(J7-Pad10)*%
X-3810000Y-15140010D02*
X-3810000Y-12000000D01*
X-6169990Y-17500000D02*
X-3810000Y-15140010D01*
X-6169990Y-60669990D02*
X-6169990Y-17500000D01*
X-13700000Y-68200000D02*
X-6169990Y-60669990D01*
X-15520000Y-68200000D02*
X-13700000Y-68200000D01*
X-15959990Y-67760010D02*
X-15520000Y-68200000D01*
X-15959990Y-63859990D02*
X-15959990Y-67760010D01*
X-15100000Y-63000000D02*
X-15959990Y-63859990D01*
%TO.N,Net-(J7-Pad7)*%
X-16364999Y-65035001D02*
X-16900000Y-64500000D01*
X-16140000Y-65260000D02*
X-16364999Y-65035001D01*
X-16140000Y-67850000D02*
X-16140000Y-65260000D01*
X-16500000Y-68210000D02*
X-16140000Y-67850000D01*
X-5080000Y-12000000D02*
X-5080000Y-10654398D01*
X-5080000Y-10654398D02*
X-5429399Y-10304999D01*
X-5429399Y-10304999D02*
X-7270601Y-10304999D01*
X-7270601Y-10304999D02*
X-8215001Y-11249399D01*
X-8215001Y-11249399D02*
X-8215001Y-13124999D01*
X-8215001Y-13124999D02*
X-6710020Y-14629980D01*
X-18970010Y-56213845D02*
X-18970010Y-66609990D01*
X-6710020Y-49045448D02*
X-12034562Y-54369990D01*
X-17126156Y-54369991D02*
X-18970010Y-56213845D01*
X-12034562Y-54369990D02*
X-17126156Y-54369991D01*
X-6710020Y-14629980D02*
X-6710020Y-49045448D01*
X-18970010Y-66609990D02*
X-17370000Y-68210000D01*
X-17370000Y-68210000D02*
X-16500000Y-68210000D01*
%TO.N,Net-(J7-Pad4)*%
X-6350000Y-57250000D02*
X-15100000Y-66000000D01*
X-6350000Y-12000000D02*
X-6350000Y-57250000D01*
%TO.N,Net-(J7-Pad1)*%
X-16900000Y-67291802D02*
X-16900000Y-67500000D01*
X-18790000Y-56288407D02*
X-18790000Y-65890000D01*
X-11960000Y-54550000D02*
X-17051593Y-54550000D01*
X-6530010Y-49120010D02*
X-11960000Y-54550000D01*
X-17180000Y-67500000D02*
X-16900000Y-67500000D01*
X-18790000Y-65890000D02*
X-17180000Y-67500000D01*
X-6530010Y-13089990D02*
X-6530010Y-49120010D01*
X-17051593Y-54550000D02*
X-18790000Y-56288407D01*
X-7620000Y-12000000D02*
X-6530010Y-13089990D01*
%TO.N,Net-(J4-Pad12)*%
X-46074960Y59774960D02*
X-47635001Y61335001D01*
X-46074960Y32474960D02*
X-46074960Y59774960D01*
X-18729690Y5129690D02*
X-46074960Y32474960D01*
X-6897933Y2792077D02*
X-9235546Y5129690D01*
X-9235546Y5129690D02*
X-18729690Y5129690D01*
X-4867077Y2792077D02*
X-6897933Y2792077D01*
X-3175000Y1100000D02*
X-4867077Y2792077D01*
X-47635001Y61335001D02*
X-48100000Y61800000D01*
%TO.N,Net-(J4-Pad10)*%
X-5074398Y2610000D02*
X-3810000Y1345602D01*
X-6970428Y2610000D02*
X-5074398Y2610000D01*
X-9310108Y4949680D02*
X-6970428Y2610000D01*
X-18849680Y4949680D02*
X-9310108Y4949680D01*
X-46254970Y32354970D02*
X-18849680Y4949680D01*
X-3810000Y1345602D02*
X-3810000Y0D01*
X-46254970Y58954970D02*
X-46254970Y32354970D01*
X-48100000Y60800000D02*
X-46254970Y58954970D01*
%TO.N,Net-(J4-Pad6)*%
X-5715000Y1100000D02*
X-9384670Y4769670D01*
X-9384670Y4769670D02*
X-18969670Y4769670D01*
X-46434980Y32234980D02*
X-46150000Y31950000D01*
X-46434980Y57134980D02*
X-46434980Y32234980D01*
X-48100000Y58800000D02*
X-46434980Y57134980D01*
X-46150000Y31950000D02*
X-46400000Y32200000D01*
X-18969670Y4769670D02*
X-46150000Y31950000D01*
%TO.N,Net-(J4-Pad4)*%
X-6350000Y0D02*
X-6739398Y0D01*
X-46614990Y32131495D02*
X-46614990Y56314990D01*
X-19071748Y4588253D02*
X-46614990Y32131495D01*
X-9592651Y4588253D02*
X-19071748Y4588253D01*
X-6350000Y1345602D02*
X-9592651Y4588253D01*
X-46614990Y56314990D02*
X-48100000Y57800000D01*
X-6350000Y0D02*
X-6350000Y1345602D01*
%TO.N,Net-(J4-Pad3)*%
X-49160000Y56560000D02*
X-49900000Y57300000D01*
X-49170000Y55640000D02*
X-49160000Y55650000D01*
X-50150000Y55640000D02*
X-49170000Y55640000D01*
X-49160000Y55650000D02*
X-49160000Y56560000D01*
X-50854990Y54935010D02*
X-50150000Y55640000D01*
X-50866583Y54935010D02*
X-50854990Y54935010D01*
X-10308243Y4408243D02*
X-19146311Y4408243D01*
X-51385010Y54416583D02*
X-50866583Y54935010D01*
X-19146311Y4408243D02*
X-51385010Y36646943D01*
X-7990001Y2090001D02*
X-10308243Y4408243D01*
X-7975001Y2090001D02*
X-7990001Y2090001D01*
X-51385010Y36646943D02*
X-51385010Y54416583D01*
X-6985000Y1100000D02*
X-7975001Y2090001D01*
%TO.N,Net-(J4-Pad1)*%
X-49900000Y56300000D02*
X-51590000Y54610000D01*
X-51590000Y54610000D02*
X-51590000Y43970000D01*
X-36192640Y21200000D02*
X-36200000Y21200000D01*
X-19220874Y4228234D02*
X-36192640Y21200000D01*
X-11848233Y4228233D02*
X-19220874Y4228234D01*
X-7620000Y0D02*
X-11848233Y4228233D01*
X-36200000Y21200000D02*
X-51590000Y36590000D01*
X-51590000Y43970000D02*
X-51590000Y36590000D01*
%TO.N,Net-(J8-Pad10)*%
X2385010Y-61514990D02*
X900000Y-63000000D01*
X2385010Y-13115010D02*
X2385010Y-61514990D01*
X1270000Y-12000000D02*
X2385010Y-13115010D01*
%TO.N,Net-(J8-Pad7)*%
X-364999Y-65035001D02*
X-900000Y-64500000D01*
X-30000Y-65370000D02*
X-364999Y-65035001D01*
X-30000Y-68000000D02*
X-30000Y-65370000D01*
X-420010Y-68390010D02*
X-30000Y-68000000D01*
X0Y-12000000D02*
X0Y-10654398D01*
X-744399Y-9909999D02*
X-7130173Y-9909999D01*
X-7130173Y-9909999D02*
X-8395011Y-11174837D01*
X-17200719Y-54189982D02*
X-19150019Y-56139282D01*
X0Y-10654398D02*
X-744399Y-9909999D01*
X-6890030Y-48970886D02*
X-12109126Y-54189982D01*
X-8395010Y-13204990D02*
X-6890030Y-14709970D01*
X-19150019Y-66684553D02*
X-17444562Y-68390010D01*
X-8395011Y-11174837D02*
X-8395010Y-13204990D01*
X-6890030Y-14709970D02*
X-6890030Y-48970886D01*
X-19150019Y-56139282D02*
X-19150019Y-66684553D01*
X-12109126Y-54189982D02*
X-17200719Y-54189982D01*
X-17444562Y-68390010D02*
X-420010Y-68390010D01*
%TO.N,Net-(J8-Pad4)*%
X-2070000Y-57520000D02*
X-640000Y-57520000D01*
X-2870000Y-56720000D02*
X-2070000Y-57520000D01*
X364999Y-65464999D02*
X900000Y-66000000D01*
X-2870000Y-55670000D02*
X-2870000Y-56720000D01*
X-1270000Y-54768407D02*
X-1968407Y-54768407D01*
X-1968407Y-54768407D02*
X-2870000Y-55670000D01*
X-1270000Y-12000000D02*
X-1270000Y-54768407D01*
X900000Y-66000000D02*
X110000Y-65210000D01*
X110000Y-58270000D02*
X-640000Y-57520000D01*
X110000Y-65210000D02*
X110000Y-58270000D01*
%TO.N,Net-(J8-Pad1)*%
X-5989980Y-62410020D02*
X-900000Y-67500000D01*
X-2540000Y-12000000D02*
X-2540000Y-14124582D01*
X-5989980Y-17574562D02*
X-5989980Y-27600020D01*
X-5989980Y-27600020D02*
X-5989980Y-62410020D01*
X-2540000Y-14124582D02*
X-5989980Y-17574562D01*
X-5989980Y-27080000D02*
X-5989980Y-27600020D01*
%TO.N,Net-(J9-Pad10)*%
X18385010Y-61514990D02*
X16900000Y-63000000D01*
X18385010Y-55883417D02*
X18385010Y-61514990D01*
X8330020Y-45828427D02*
X18385010Y-55883417D01*
X8330020Y-13980020D02*
X8330020Y-45828427D01*
X6350000Y-12000000D02*
X8330020Y-13980020D01*
%TO.N,Net-(J9-Pad7)*%
X8150010Y-15070010D02*
X8150010Y-57550010D01*
X8150010Y-57550010D02*
X15100000Y-64500000D01*
X5080000Y-12000000D02*
X8150010Y-15070010D01*
%TO.N,Net-(J9-Pad4)*%
X7270601Y-10304999D02*
X8520000Y-11554398D01*
X4159399Y-10304999D02*
X7270601Y-10304999D01*
X3810000Y-10654398D02*
X4159399Y-10304999D01*
X3810000Y-12000000D02*
X3810000Y-10654398D01*
X18565020Y-55808855D02*
X18565020Y-64334980D01*
X18565020Y-64334980D02*
X16900000Y-66000000D01*
X8520000Y-45763835D02*
X18565020Y-55808855D01*
X8520000Y-11554398D02*
X8520000Y-45763835D01*
%TO.N,Net-(J9-Pad1)*%
X2540000Y-12000000D02*
X7970000Y-17430000D01*
X7970000Y-60370000D02*
X15100000Y-67500000D01*
X7970000Y-17430000D02*
X7970000Y-60370000D01*
%TD*%
D15*
%TO.N,GND*%
X55348001Y-43729932D02*
X22729934Y-76348000D01*
X-22729933Y-76348000D01*
X-42938651Y-56139282D01*
X-19825270Y-56139282D01*
X-19822019Y-56172289D01*
X-19822018Y-66651536D01*
X-19825270Y-66684553D01*
X-19812295Y-66816288D01*
X-19782768Y-66913623D01*
X-19773869Y-66942960D01*
X-19711469Y-67059702D01*
X-19627493Y-67162028D01*
X-19601853Y-67183070D01*
X-18214420Y-68570503D01*
X-18268721Y-68599527D01*
X-18478397Y-68771603D01*
X-18650473Y-68981279D01*
X-18778337Y-69220495D01*
X-18857075Y-69480061D01*
X-18883662Y-69750000D01*
X-18857075Y-70019939D01*
X-18778337Y-70279505D01*
X-18650473Y-70518721D01*
X-18478397Y-70728397D01*
X-18268721Y-70900473D01*
X-18029505Y-71028337D01*
X-17769939Y-71107075D01*
X-17567640Y-71127000D01*
X-14432360Y-71127000D01*
X-14230061Y-71107075D01*
X-13970495Y-71028337D01*
X-13731279Y-70900473D01*
X-13521603Y-70728397D01*
X-13349527Y-70518721D01*
X-13221663Y-70279505D01*
X-13142925Y-70019939D01*
X-13116338Y-69750000D01*
X-13142925Y-69480061D01*
X-13221663Y-69220495D01*
X-13306375Y-69062010D01*
X-2693625Y-69062010D01*
X-2778337Y-69220495D01*
X-2857075Y-69480061D01*
X-2883662Y-69750000D01*
X-2857075Y-70019939D01*
X-2778337Y-70279505D01*
X-2650473Y-70518721D01*
X-2478397Y-70728397D01*
X-2268721Y-70900473D01*
X-2029505Y-71028337D01*
X-1769939Y-71107075D01*
X-1567640Y-71127000D01*
X1567640Y-71127000D01*
X1769939Y-71107075D01*
X2029505Y-71028337D01*
X2268721Y-70900473D01*
X2478397Y-70728397D01*
X2650473Y-70518721D01*
X2778337Y-70279505D01*
X2857075Y-70019939D01*
X2883662Y-69750000D01*
X2857075Y-69480061D01*
X2778337Y-69220495D01*
X2650473Y-68981279D01*
X2478397Y-68771603D01*
X2268721Y-68599527D01*
X2029505Y-68471663D01*
X1769939Y-68392925D01*
X1567640Y-68373000D01*
X532600Y-68373000D01*
X593851Y-68258407D01*
X632276Y-68131735D01*
X642000Y-68033007D01*
X642000Y-68033006D01*
X644875Y-68003815D01*
X782523Y-68033351D01*
X986377Y-68036413D01*
X1186912Y-67999647D01*
X1376420Y-67924466D01*
X1403981Y-67909736D01*
X1426836Y-67706441D01*
X900000Y-67179605D01*
X885858Y-67193748D01*
X706253Y-67014143D01*
X710891Y-67009504D01*
X798849Y-67027000D01*
X1001151Y-67027000D01*
X1089109Y-67009504D01*
X1606441Y-67526836D01*
X1809736Y-67503981D01*
X1890577Y-67316816D01*
X1933351Y-67117477D01*
X1936413Y-66913623D01*
X1899647Y-66713088D01*
X1824466Y-66523580D01*
X1809736Y-66496019D01*
X1804152Y-66495391D01*
X1810115Y-66486467D01*
X1887533Y-66299565D01*
X1927000Y-66101151D01*
X1927000Y-65898849D01*
X1887533Y-65700435D01*
X1810115Y-65513533D01*
X1801073Y-65500000D01*
X1810115Y-65486467D01*
X1887533Y-65299565D01*
X1927000Y-65101151D01*
X1927000Y-64898849D01*
X1887533Y-64700435D01*
X1810115Y-64513533D01*
X1804152Y-64504609D01*
X1809736Y-64503981D01*
X1890577Y-64316816D01*
X1933351Y-64117477D01*
X1936413Y-63913623D01*
X1899647Y-63713088D01*
X1824466Y-63523580D01*
X1809736Y-63496019D01*
X1804152Y-63495391D01*
X1810115Y-63486467D01*
X1887533Y-63299565D01*
X1927000Y-63101151D01*
X1927000Y-62923351D01*
X2836845Y-62013507D01*
X2862485Y-61992465D01*
X2946461Y-61890139D01*
X3008861Y-61773397D01*
X3047286Y-61646725D01*
X3057010Y-61547997D01*
X3060261Y-61514991D01*
X3057010Y-61481983D01*
X3057010Y-13467361D01*
X7298000Y-17708352D01*
X7298001Y-60336983D01*
X7294749Y-60370000D01*
X7307724Y-60501735D01*
X7337882Y-60601151D01*
X7346150Y-60628407D01*
X7408550Y-60745149D01*
X7492526Y-60847475D01*
X7518166Y-60868517D01*
X14073000Y-67423352D01*
X14073000Y-67601151D01*
X14112467Y-67799565D01*
X14189885Y-67986467D01*
X14302277Y-68154674D01*
X14445326Y-68297723D01*
X14557986Y-68373000D01*
X14432360Y-68373000D01*
X14230061Y-68392925D01*
X13970495Y-68471663D01*
X13731279Y-68599527D01*
X13521603Y-68771603D01*
X13349527Y-68981279D01*
X13221663Y-69220495D01*
X13142925Y-69480061D01*
X13116338Y-69750000D01*
X13142925Y-70019939D01*
X13221663Y-70279505D01*
X13349527Y-70518721D01*
X13521603Y-70728397D01*
X13731279Y-70900473D01*
X13970495Y-71028337D01*
X14230061Y-71107075D01*
X14432360Y-71127000D01*
X17567640Y-71127000D01*
X17769939Y-71107075D01*
X18029505Y-71028337D01*
X18268721Y-70900473D01*
X18478397Y-70728397D01*
X18650473Y-70518721D01*
X18778337Y-70279505D01*
X18857075Y-70019939D01*
X18883662Y-69750000D01*
X18857075Y-69480061D01*
X18778337Y-69220495D01*
X18650473Y-68981279D01*
X18478397Y-68771603D01*
X18268721Y-68599527D01*
X18029505Y-68471663D01*
X17769939Y-68392925D01*
X17567640Y-68373000D01*
X15642014Y-68373000D01*
X15754674Y-68297723D01*
X15897723Y-68154674D01*
X16010115Y-67986467D01*
X16087533Y-67799565D01*
X16106056Y-67706441D01*
X16373164Y-67706441D01*
X16396019Y-67909736D01*
X16583184Y-67990577D01*
X16782523Y-68033351D01*
X16986377Y-68036413D01*
X17186912Y-67999647D01*
X17376420Y-67924466D01*
X17403981Y-67909736D01*
X17426836Y-67706441D01*
X16900000Y-67179605D01*
X16373164Y-67706441D01*
X16106056Y-67706441D01*
X16127000Y-67601151D01*
X16127000Y-67519353D01*
X16193559Y-67526836D01*
X16710891Y-67009504D01*
X16798849Y-67027000D01*
X17001151Y-67027000D01*
X17089109Y-67009504D01*
X17606441Y-67526836D01*
X17809736Y-67503981D01*
X17890577Y-67316816D01*
X17933351Y-67117477D01*
X17936413Y-66913623D01*
X17899647Y-66713088D01*
X17824466Y-66523580D01*
X17809736Y-66496019D01*
X17804152Y-66495391D01*
X17810115Y-66486467D01*
X17887533Y-66299565D01*
X17927000Y-66101151D01*
X17927000Y-65923351D01*
X19016855Y-64833497D01*
X19042495Y-64812455D01*
X19126471Y-64710129D01*
X19188871Y-64593387D01*
X19224352Y-64476420D01*
X19227296Y-64466716D01*
X19240271Y-64334980D01*
X19237020Y-64301973D01*
X19237020Y-55841862D01*
X19240271Y-55808855D01*
X19227296Y-55677119D01*
X19197177Y-55577831D01*
X19188871Y-55550448D01*
X19126471Y-55433706D01*
X19042494Y-55331380D01*
X19016854Y-55310338D01*
X9192000Y-45485484D01*
X9192000Y-39144115D01*
X10223980Y-39144115D01*
X10528264Y-40211592D01*
X11034956Y-41199195D01*
X11724584Y-42068970D01*
X12570646Y-42787493D01*
X13540628Y-43327151D01*
X14597254Y-43667206D01*
X14784272Y-43704407D01*
X15668259Y-43635177D01*
X15668259Y-38260128D01*
X15922259Y-38260128D01*
X15922259Y-43635177D01*
X16806246Y-43704407D01*
X17873723Y-43400123D01*
X18861326Y-42893431D01*
X19731101Y-42203803D01*
X20449624Y-41357741D01*
X20989282Y-40387759D01*
X21329337Y-39331133D01*
X21366538Y-39144115D01*
X21297308Y-38260128D01*
X15922259Y-38260128D01*
X15668259Y-38260128D01*
X10293210Y-38260128D01*
X10223980Y-39144115D01*
X9192000Y-39144115D01*
X9192000Y-37122141D01*
X10223980Y-37122141D01*
X10293210Y-38006128D01*
X15668259Y-38006128D01*
X15668259Y-32631079D01*
X15922259Y-32631079D01*
X15922259Y-38006128D01*
X21297308Y-38006128D01*
X21366538Y-37122141D01*
X21062254Y-36054664D01*
X20555562Y-35067061D01*
X19865934Y-34197286D01*
X19019872Y-33478763D01*
X18049890Y-32939105D01*
X16993264Y-32599050D01*
X16806246Y-32561849D01*
X15922259Y-32631079D01*
X15668259Y-32631079D01*
X14784272Y-32561849D01*
X13716795Y-32866133D01*
X12729192Y-33372825D01*
X11859417Y-34062453D01*
X11140894Y-34908515D01*
X10601236Y-35878497D01*
X10261181Y-36935123D01*
X10223980Y-37122141D01*
X9192000Y-37122141D01*
X9192000Y-16806246D01*
X32561849Y-16806246D01*
X32866133Y-17873723D01*
X33372825Y-18861326D01*
X34062453Y-19731101D01*
X34908515Y-20449624D01*
X35878497Y-20989282D01*
X36935123Y-21329337D01*
X37122141Y-21366538D01*
X38006128Y-21297308D01*
X38006128Y-15922259D01*
X38260128Y-15922259D01*
X38260128Y-21297308D01*
X39144115Y-21366538D01*
X40211592Y-21062254D01*
X41199195Y-20555562D01*
X42068970Y-19865934D01*
X42787493Y-19019872D01*
X43327151Y-18049890D01*
X43667206Y-16993264D01*
X43704407Y-16806246D01*
X43635177Y-15922259D01*
X38260128Y-15922259D01*
X38006128Y-15922259D01*
X32631079Y-15922259D01*
X32561849Y-16806246D01*
X9192000Y-16806246D01*
X9192000Y-14784272D01*
X32561849Y-14784272D01*
X32631079Y-15668259D01*
X38006128Y-15668259D01*
X38006128Y-10293210D01*
X38260128Y-10293210D01*
X38260128Y-15668259D01*
X43635177Y-15668259D01*
X43704407Y-14784272D01*
X43400123Y-13716795D01*
X42893431Y-12729192D01*
X42203803Y-11859417D01*
X41357741Y-11140894D01*
X40387759Y-10601236D01*
X39331133Y-10261181D01*
X39144115Y-10223980D01*
X38260128Y-10293210D01*
X38006128Y-10293210D01*
X37122141Y-10223980D01*
X36054664Y-10528264D01*
X35067061Y-11034956D01*
X34197286Y-11724584D01*
X33478763Y-12570646D01*
X32939105Y-13540628D01*
X32599050Y-14597254D01*
X32561849Y-14784272D01*
X9192000Y-14784272D01*
X9192000Y-11587405D01*
X9195251Y-11554397D01*
X9182276Y-11422662D01*
X9156510Y-11337724D01*
X9143851Y-11295991D01*
X9081451Y-11179249D01*
X9030910Y-11117665D01*
X9018515Y-11102561D01*
X9018513Y-11102559D01*
X8997474Y-11076923D01*
X8971839Y-11055885D01*
X7769122Y-9853169D01*
X7748076Y-9827524D01*
X7645750Y-9743548D01*
X7529008Y-9681148D01*
X7402336Y-9642723D01*
X7303608Y-9632999D01*
X7270601Y-9629748D01*
X7237594Y-9632999D01*
X4192406Y-9632999D01*
X4159399Y-9629748D01*
X4027663Y-9642723D01*
X3998426Y-9651592D01*
X3900992Y-9681148D01*
X3784250Y-9743548D01*
X3681924Y-9827524D01*
X3660877Y-9853170D01*
X3610300Y-9903747D01*
X3492066Y-9854772D01*
X3282060Y-9813000D01*
X3067940Y-9813000D01*
X2857934Y-9854772D01*
X2660112Y-9936713D01*
X2540000Y-10016970D01*
X2419888Y-9936713D01*
X2222066Y-9854772D01*
X2012060Y-9813000D01*
X1797940Y-9813000D01*
X1587934Y-9854772D01*
X1390112Y-9936713D01*
X1270000Y-10016970D01*
X1149888Y-9936713D01*
X952066Y-9854772D01*
X742060Y-9813000D01*
X527940Y-9813000D01*
X317934Y-9854772D01*
X199700Y-9903746D01*
X-245878Y-9458169D01*
X-266924Y-9432524D01*
X-369250Y-9348548D01*
X-485992Y-9286148D01*
X-612664Y-9247723D01*
X-711392Y-9237999D01*
X-744399Y-9234748D01*
X-777406Y-9237999D01*
X-7097166Y-9237999D01*
X-7130174Y-9234748D01*
X-7261909Y-9247723D01*
X-7300334Y-9259379D01*
X-7388580Y-9286148D01*
X-7505322Y-9348548D01*
X-7607648Y-9432524D01*
X-7628690Y-9458164D01*
X-8846846Y-10676321D01*
X-8872486Y-10697363D01*
X-8956462Y-10799689D01*
X-9018862Y-10916431D01*
X-9045631Y-11004677D01*
X-9057287Y-11043102D01*
X-9070262Y-11174837D01*
X-9067011Y-11207845D01*
X-9067009Y-13171973D01*
X-9070261Y-13204990D01*
X-9057286Y-13336725D01*
X-9023127Y-13449331D01*
X-9018860Y-13463397D01*
X-8956460Y-13580139D01*
X-8872484Y-13682465D01*
X-8846844Y-13703507D01*
X-7562030Y-14988322D01*
X-7562029Y-48692534D01*
X-12387477Y-53517982D01*
X-17167715Y-53517982D01*
X-17200720Y-53514731D01*
X-17233725Y-53517982D01*
X-17233726Y-53517982D01*
X-17332454Y-53527706D01*
X-17459126Y-53566131D01*
X-17575868Y-53628531D01*
X-17678194Y-53712507D01*
X-17699241Y-53738153D01*
X-19601853Y-55640765D01*
X-19627494Y-55661808D01*
X-19711470Y-55764134D01*
X-19773870Y-55880876D01*
X-19783693Y-55913259D01*
X-19812295Y-56007547D01*
X-19825270Y-56139282D01*
X-42938651Y-56139282D01*
X-55348000Y-43729934D01*
X-55348000Y-39144115D01*
X-21366538Y-39144115D01*
X-21062254Y-40211592D01*
X-20555562Y-41199195D01*
X-19865934Y-42068970D01*
X-19019872Y-42787493D01*
X-18049890Y-43327151D01*
X-16993264Y-43667206D01*
X-16806246Y-43704407D01*
X-15922259Y-43635177D01*
X-15922259Y-38260128D01*
X-15668259Y-38260128D01*
X-15668259Y-43635177D01*
X-14784272Y-43704407D01*
X-13716795Y-43400123D01*
X-12729192Y-42893431D01*
X-11859417Y-42203803D01*
X-11140894Y-41357741D01*
X-10601236Y-40387759D01*
X-10261181Y-39331133D01*
X-10223980Y-39144115D01*
X-10293210Y-38260128D01*
X-15668259Y-38260128D01*
X-15922259Y-38260128D01*
X-21297308Y-38260128D01*
X-21366538Y-39144115D01*
X-55348000Y-39144115D01*
X-55348000Y-37122141D01*
X-21366538Y-37122141D01*
X-21297308Y-38006128D01*
X-15922259Y-38006128D01*
X-15922259Y-32631079D01*
X-15668259Y-32631079D01*
X-15668259Y-38006128D01*
X-10293210Y-38006128D01*
X-10223980Y-37122141D01*
X-10528264Y-36054664D01*
X-11034956Y-35067061D01*
X-11724584Y-34197286D01*
X-12570646Y-33478763D01*
X-13540628Y-32939105D01*
X-14597254Y-32599050D01*
X-14784272Y-32561849D01*
X-15668259Y-32631079D01*
X-15922259Y-32631079D01*
X-16806246Y-32561849D01*
X-17873723Y-32866133D01*
X-18861326Y-33372825D01*
X-19731101Y-34062453D01*
X-20449624Y-34908515D01*
X-20989282Y-35878497D01*
X-21329337Y-36935123D01*
X-21366538Y-37122141D01*
X-55348000Y-37122141D01*
X-55348000Y-16806246D01*
X-43704407Y-16806246D01*
X-43400123Y-17873723D01*
X-42893431Y-18861326D01*
X-42203803Y-19731101D01*
X-41357741Y-20449624D01*
X-40387759Y-20989282D01*
X-39331133Y-21329337D01*
X-39144115Y-21366538D01*
X-38260128Y-21297308D01*
X-38260128Y-15922259D01*
X-38006128Y-15922259D01*
X-38006128Y-21297308D01*
X-37122141Y-21366538D01*
X-36054664Y-21062254D01*
X-35067061Y-20555562D01*
X-34197286Y-19865934D01*
X-33478763Y-19019872D01*
X-32939105Y-18049890D01*
X-32599050Y-16993264D01*
X-32561849Y-16806246D01*
X-32631079Y-15922259D01*
X-38006128Y-15922259D01*
X-38260128Y-15922259D01*
X-43635177Y-15922259D01*
X-43704407Y-16806246D01*
X-55348000Y-16806246D01*
X-55348000Y-14784272D01*
X-43704407Y-14784272D01*
X-43635177Y-15668259D01*
X-38260128Y-15668259D01*
X-38260128Y-10293210D01*
X-38006128Y-10293210D01*
X-38006128Y-15668259D01*
X-32631079Y-15668259D01*
X-32561849Y-14784272D01*
X-32866133Y-13716795D01*
X-33372825Y-12729192D01*
X-34062453Y-11859417D01*
X-34908515Y-11140894D01*
X-35878497Y-10601236D01*
X-36935123Y-10261181D01*
X-37122141Y-10223980D01*
X-38006128Y-10293210D01*
X-38260128Y-10293210D01*
X-39144115Y-10223980D01*
X-40211592Y-10528264D01*
X-41199195Y-11034956D01*
X-42068970Y-11724584D01*
X-42787493Y-12570646D01*
X-43327151Y-13540628D01*
X-43667206Y-14597254D01*
X-43704407Y-14784272D01*
X-55348000Y-14784272D01*
X-55348000Y14784272D01*
X-43704407Y14784272D01*
X-43400123Y13716795D01*
X-42893431Y12729192D01*
X-42203803Y11859417D01*
X-41357741Y11140894D01*
X-40387759Y10601236D01*
X-39331133Y10261181D01*
X-39144115Y10223980D01*
X-38260128Y10293210D01*
X-38260128Y15668259D01*
X-38006128Y15668259D01*
X-38006128Y10293210D01*
X-37122141Y10223980D01*
X-36054664Y10528264D01*
X-35067061Y11034956D01*
X-34197286Y11724584D01*
X-33478763Y12570646D01*
X-32939105Y13540628D01*
X-32599050Y14597254D01*
X-32561849Y14784272D01*
X-32631079Y15668259D01*
X-38006128Y15668259D01*
X-38260128Y15668259D01*
X-43635177Y15668259D01*
X-43704407Y14784272D01*
X-55348000Y14784272D01*
X-55348000Y16806246D01*
X-43704407Y16806246D01*
X-43635177Y15922259D01*
X-38260128Y15922259D01*
X-38260128Y21297308D01*
X-39144115Y21366538D01*
X-40211592Y21062254D01*
X-41199195Y20555562D01*
X-42068970Y19865934D01*
X-42787493Y19019872D01*
X-43327151Y18049890D01*
X-43667206Y16993264D01*
X-43704407Y16806246D01*
X-55348000Y16806246D01*
X-55348000Y54610000D01*
X-52265251Y54610000D01*
X-52262000Y54576993D01*
X-52261999Y44003016D01*
X-52262000Y44003006D01*
X-52261999Y36623017D01*
X-52265251Y36590000D01*
X-52252276Y36458265D01*
X-52213850Y36331593D01*
X-52151450Y36214851D01*
X-52067474Y36112525D01*
X-52041834Y36091483D01*
X-37302746Y21352394D01*
X-38006128Y21297308D01*
X-38006128Y16101867D01*
X-38118987Y15989008D01*
X-37939379Y15809400D01*
X-37826520Y15922259D01*
X-32631079Y15922259D01*
X-32575459Y16632467D01*
X-19719389Y3776397D01*
X-19698349Y3750760D01*
X-19672715Y3729723D01*
X-19672711Y3729719D01*
X-19596023Y3666784D01*
X-19479282Y3604384D01*
X-19352610Y3565958D01*
X-19220874Y3552983D01*
X-19187857Y3556235D01*
X-12126584Y3556233D01*
X-8702091Y131740D01*
X-8707000Y107060D01*
X-8707000Y-107060D01*
X-8665228Y-317066D01*
X-8583287Y-514888D01*
X-8464328Y-692922D01*
X-8312922Y-844328D01*
X-8134888Y-963287D01*
X-7937066Y-1045228D01*
X-7727060Y-1087000D01*
X-7512940Y-1087000D01*
X-7302934Y-1045228D01*
X-7105112Y-963287D01*
X-6985000Y-883030D01*
X-6864888Y-963287D01*
X-6667066Y-1045228D01*
X-6457060Y-1087000D01*
X-6242940Y-1087000D01*
X-6032934Y-1045228D01*
X-5835112Y-963287D01*
X-5715000Y-883030D01*
X-5594888Y-963287D01*
X-5397066Y-1045228D01*
X-5187060Y-1087000D01*
X-4972940Y-1087000D01*
X-4762934Y-1045228D01*
X-4565112Y-963287D01*
X-4445000Y-883030D01*
X-4324888Y-963287D01*
X-4127066Y-1045228D01*
X-3917060Y-1087000D01*
X-3702940Y-1087000D01*
X-3492934Y-1045228D01*
X-3295112Y-963287D01*
X-3175000Y-883030D01*
X-3054888Y-963287D01*
X-2857066Y-1045228D01*
X-2647060Y-1087000D01*
X-2432940Y-1087000D01*
X-2222934Y-1045228D01*
X-2025112Y-963287D01*
X-1905000Y-883030D01*
X-1784888Y-963287D01*
X-1587066Y-1045228D01*
X-1377060Y-1087000D01*
X-1162940Y-1087000D01*
X-952934Y-1045228D01*
X-755112Y-963287D01*
X-635000Y-883030D01*
X-514888Y-963287D01*
X-317066Y-1045228D01*
X-107060Y-1087000D01*
X107060Y-1087000D01*
X317066Y-1045228D01*
X514888Y-963287D01*
X635000Y-883030D01*
X755112Y-963287D01*
X952934Y-1045228D01*
X1162940Y-1087000D01*
X1377060Y-1087000D01*
X1587066Y-1045228D01*
X1784888Y-963287D01*
X1905000Y-883030D01*
X2025112Y-963287D01*
X2222934Y-1045228D01*
X2432940Y-1087000D01*
X2647060Y-1087000D01*
X2857066Y-1045228D01*
X3054888Y-963287D01*
X3175000Y-883030D01*
X3295112Y-963287D01*
X3492934Y-1045228D01*
X3702940Y-1087000D01*
X3917060Y-1087000D01*
X4127066Y-1045228D01*
X4324888Y-963287D01*
X4445000Y-883030D01*
X4565112Y-963287D01*
X4762934Y-1045228D01*
X4972940Y-1087000D01*
X5187060Y-1087000D01*
X5397066Y-1045228D01*
X5594888Y-963287D01*
X5715000Y-883030D01*
X5835112Y-963287D01*
X6032934Y-1045228D01*
X6242940Y-1087000D01*
X6457060Y-1087000D01*
X6667066Y-1045228D01*
X6864888Y-963287D01*
X6985000Y-883030D01*
X7105112Y-963287D01*
X7302934Y-1045228D01*
X7512940Y-1087000D01*
X7727060Y-1087000D01*
X7937066Y-1045228D01*
X8134888Y-963287D01*
X8312922Y-844328D01*
X8464328Y-692922D01*
X8583287Y-514888D01*
X8665228Y-317066D01*
X8707000Y-107060D01*
X8707000Y107060D01*
X8665228Y317066D01*
X8583287Y514888D01*
X8464328Y692922D01*
X8312922Y844328D01*
X8134888Y963287D01*
X8071338Y989611D01*
X8072000Y992940D01*
X8072000Y1207060D01*
X8030228Y1417066D01*
X7948287Y1614888D01*
X7829328Y1792922D01*
X7677922Y1944328D01*
X7499888Y2063287D01*
X7302066Y2145228D01*
X7092060Y2187000D01*
X6877940Y2187000D01*
X6853260Y2182091D01*
X3531649Y5503702D01*
X3510602Y5529348D01*
X3408276Y5613324D01*
X3291534Y5675724D01*
X3164862Y5714149D01*
X3066134Y5723873D01*
X3033127Y5727124D01*
X3000120Y5723873D01*
X-5809805Y5723873D01*
X-7877792Y7791857D01*
X-7898838Y7817502D01*
X-8001164Y7901478D01*
X-8117906Y7963878D01*
X-8244578Y8002303D01*
X-8343306Y8012027D01*
X-8376313Y8015278D01*
X-8409320Y8012027D01*
X-17570527Y8012027D01*
X-20663501Y11105001D01*
X-8890252Y11105001D01*
X-8887001Y11071995D01*
X-8877277Y10973267D01*
X-8838852Y10846595D01*
X-8776452Y10729853D01*
X-8692476Y10627527D01*
X-8666832Y10606482D01*
X-8638524Y10578174D01*
X-8617475Y10552525D01*
X-8515149Y10468549D01*
X-8398407Y10406149D01*
X-8271735Y10367724D01*
X-8173007Y10358000D01*
X-8173006Y10358000D01*
X-8140001Y10354749D01*
X-8106996Y10358000D01*
X-6083007Y10358000D01*
X-6050000Y10354749D01*
X-6016993Y10358000D01*
X-5918265Y10367724D01*
X-5791593Y10406149D01*
X-5674851Y10468549D01*
X-5572525Y10552525D01*
X-5551479Y10578170D01*
X-5211740Y10917909D01*
X-5187060Y10913000D01*
X-4972940Y10913000D01*
X-4762934Y10954772D01*
X-4565112Y11036713D01*
X-4445000Y11116970D01*
X-4324888Y11036713D01*
X-4127066Y10954772D01*
X-3917060Y10913000D01*
X-3702940Y10913000D01*
X-3492934Y10954772D01*
X-3295112Y11036713D01*
X-3175000Y11116970D01*
X-3054888Y11036713D01*
X-2857066Y10954772D01*
X-2647060Y10913000D01*
X-2432940Y10913000D01*
X-2222934Y10954772D01*
X-2025112Y11036713D01*
X-1905000Y11116970D01*
X-1784888Y11036713D01*
X-1587066Y10954772D01*
X-1377060Y10913000D01*
X-1162940Y10913000D01*
X-952934Y10954772D01*
X-755112Y11036713D01*
X-635000Y11116970D01*
X-514888Y11036713D01*
X-317066Y10954772D01*
X-107060Y10913000D01*
X107060Y10913000D01*
X317066Y10954772D01*
X514888Y11036713D01*
X635000Y11116970D01*
X755112Y11036713D01*
X952934Y10954772D01*
X1162940Y10913000D01*
X1377060Y10913000D01*
X1587066Y10954772D01*
X1784888Y11036713D01*
X1905000Y11116970D01*
X2025112Y11036713D01*
X2222934Y10954772D01*
X2432940Y10913000D01*
X2647060Y10913000D01*
X2857066Y10954772D01*
X3054888Y11036713D01*
X3175000Y11116970D01*
X3295112Y11036713D01*
X3492934Y10954772D01*
X3702940Y10913000D01*
X3917060Y10913000D01*
X4127066Y10954772D01*
X4324888Y11036713D01*
X4445000Y11116970D01*
X4565112Y11036713D01*
X4762934Y10954772D01*
X4972940Y10913000D01*
X5187060Y10913000D01*
X5397066Y10954772D01*
X5594888Y11036713D01*
X5715000Y11116970D01*
X5835112Y11036713D01*
X6032934Y10954772D01*
X6242940Y10913000D01*
X6457060Y10913000D01*
X6667066Y10954772D01*
X6864888Y11036713D01*
X6985000Y11116970D01*
X7105112Y11036713D01*
X7302934Y10954772D01*
X7512940Y10913000D01*
X7727060Y10913000D01*
X7937066Y10954772D01*
X8134888Y11036713D01*
X8312922Y11155672D01*
X8464328Y11307078D01*
X8583287Y11485112D01*
X8665228Y11682934D01*
X8707000Y11892940D01*
X8707000Y12107060D01*
X8665228Y12317066D01*
X8583287Y12514888D01*
X8464328Y12692922D01*
X8312922Y12844328D01*
X8134888Y12963287D01*
X8071338Y12989611D01*
X8072000Y12992940D01*
X8072000Y13207060D01*
X8030228Y13417066D01*
X7948287Y13614888D01*
X7829328Y13792922D01*
X7677922Y13944328D01*
X7657000Y13958308D01*
X7657000Y14784272D01*
X32561849Y14784272D01*
X32866133Y13716795D01*
X33372825Y12729192D01*
X34062453Y11859417D01*
X34908515Y11140894D01*
X35878497Y10601236D01*
X36935123Y10261181D01*
X37122141Y10223980D01*
X38006128Y10293210D01*
X38006128Y15668259D01*
X38260128Y15668259D01*
X38260128Y10293210D01*
X39144115Y10223980D01*
X40211592Y10528264D01*
X41199195Y11034956D01*
X42068970Y11724584D01*
X42787493Y12570646D01*
X43327151Y13540628D01*
X43667206Y14597254D01*
X43704407Y14784272D01*
X43635177Y15668259D01*
X38260128Y15668259D01*
X38006128Y15668259D01*
X32631079Y15668259D01*
X32561849Y14784272D01*
X7657000Y14784272D01*
X7657000Y16806246D01*
X32561849Y16806246D01*
X32631079Y15922259D01*
X38006128Y15922259D01*
X38006128Y21297308D01*
X38260128Y21297308D01*
X38260128Y15922259D01*
X43635177Y15922259D01*
X43704407Y16806246D01*
X43400123Y17873723D01*
X42893431Y18861326D01*
X42203803Y19731101D01*
X41357741Y20449624D01*
X40387759Y20989282D01*
X39331133Y21329337D01*
X39144115Y21366538D01*
X38260128Y21297308D01*
X38006128Y21297308D01*
X37122141Y21366538D01*
X36054664Y21062254D01*
X35067061Y20555562D01*
X34197286Y19865934D01*
X33478763Y19019872D01*
X32939105Y18049890D01*
X32599050Y16993264D01*
X32561849Y16806246D01*
X7657000Y16806246D01*
X7657000Y37122141D01*
X10223980Y37122141D01*
X10528264Y36054664D01*
X11034956Y35067061D01*
X11724584Y34197286D01*
X12570646Y33478763D01*
X13540628Y32939105D01*
X14597254Y32599050D01*
X14784272Y32561849D01*
X15668259Y32631079D01*
X15668259Y38006128D01*
X15922259Y38006128D01*
X15922259Y32631079D01*
X16806246Y32561849D01*
X17873723Y32866133D01*
X18861326Y33372825D01*
X19731101Y34062453D01*
X20449624Y34908515D01*
X20989282Y35878497D01*
X21329337Y36935123D01*
X21366538Y37122141D01*
X21297308Y38006128D01*
X15922259Y38006128D01*
X15668259Y38006128D01*
X10293210Y38006128D01*
X10223980Y37122141D01*
X7657000Y37122141D01*
X7657000Y39144115D01*
X10223980Y39144115D01*
X10293210Y38260128D01*
X15668259Y38260128D01*
X15668259Y43635177D01*
X15922259Y43635177D01*
X15922259Y38260128D01*
X21297308Y38260128D01*
X21366538Y39144115D01*
X21062254Y40211592D01*
X20555562Y41199195D01*
X19865934Y42068970D01*
X19019872Y42787493D01*
X18049890Y43327151D01*
X16993264Y43667206D01*
X16806246Y43704407D01*
X15922259Y43635177D01*
X15668259Y43635177D01*
X14784272Y43704407D01*
X13716795Y43400123D01*
X12729192Y42893431D01*
X11859417Y42203803D01*
X11140894Y41357741D01*
X10601236Y40387759D01*
X10261181Y39331133D01*
X10223980Y39144115D01*
X7657000Y39144115D01*
X7657000Y41406649D01*
X13678303Y47427951D01*
X37476944Y47427951D01*
X37509951Y47424700D01*
X37542958Y47427951D01*
X37641686Y47437675D01*
X37768358Y47476100D01*
X37885100Y47538500D01*
X37987426Y47622476D01*
X38008473Y47648121D01*
X39704655Y49344303D01*
X39730295Y49365345D01*
X39814271Y49467671D01*
X39876671Y49584413D01*
X39907276Y49685306D01*
X39915096Y49711084D01*
X39928071Y49842820D01*
X39924820Y49875827D01*
X39924820Y53624829D01*
X40841483Y52708165D01*
X40862525Y52682525D01*
X40964851Y52598549D01*
X41081593Y52536149D01*
X41153107Y52514456D01*
X41208264Y52497724D01*
X41339999Y52484749D01*
X41373007Y52488000D01*
X51836993Y52488000D01*
X51870000Y52484749D01*
X51903007Y52488000D01*
X52001735Y52497724D01*
X52128407Y52536149D01*
X52245149Y52598549D01*
X52347475Y52682525D01*
X52431451Y52784851D01*
X52493851Y52901593D01*
X52532276Y53028265D01*
X52545251Y53160000D01*
X52542000Y53193007D01*
X52542000Y59863007D01*
X52532276Y59961735D01*
X52493851Y60088407D01*
X52431451Y60205149D01*
X52347475Y60307475D01*
X52321829Y60328522D01*
X50927000Y61723351D01*
X50927000Y61901151D01*
X50887533Y62099565D01*
X50810115Y62286467D01*
X50801073Y62300000D01*
X50810115Y62313533D01*
X50887533Y62500435D01*
X50927000Y62698849D01*
X50927000Y62901151D01*
X50887533Y63099565D01*
X50810115Y63286467D01*
X50801073Y63300000D01*
X50810115Y63313533D01*
X50887533Y63500435D01*
X50927000Y63698849D01*
X50927000Y63901151D01*
X50887533Y64099565D01*
X50810115Y64286467D01*
X50801073Y64300000D01*
X50810115Y64313533D01*
X50887533Y64500435D01*
X50927000Y64698849D01*
X50927000Y64901151D01*
X50887533Y65099565D01*
X50810115Y65286467D01*
X50697723Y65454674D01*
X50554674Y65597723D01*
X50386467Y65710115D01*
X50199565Y65787533D01*
X50001151Y65827000D01*
X49798849Y65827000D01*
X49600435Y65787533D01*
X49413533Y65710115D01*
X49245326Y65597723D01*
X49114018Y65466415D01*
X49087533Y65599565D01*
X49010115Y65786467D01*
X48897723Y65954674D01*
X48754674Y66097723D01*
X48642014Y66173000D01*
X50567640Y66173000D01*
X50769939Y66192925D01*
X51029505Y66271663D01*
X51268721Y66399527D01*
X51478397Y66571603D01*
X51650473Y66781279D01*
X51778337Y67020495D01*
X51857075Y67280061D01*
X51883662Y67550000D01*
X51857075Y67819939D01*
X51778337Y68079505D01*
X51650473Y68318721D01*
X51478397Y68528397D01*
X51268721Y68700473D01*
X51029505Y68828337D01*
X50769939Y68907075D01*
X50567640Y68927000D01*
X47432360Y68927000D01*
X47230061Y68907075D01*
X46970495Y68828337D01*
X46731279Y68700473D01*
X46521603Y68528397D01*
X46349527Y68318721D01*
X46221663Y68079505D01*
X46142925Y67819939D01*
X46116338Y67550000D01*
X46142925Y67280061D01*
X46221663Y67020495D01*
X46349527Y66781279D01*
X46521603Y66571603D01*
X46731279Y66399527D01*
X46970495Y66271663D01*
X47230061Y66192925D01*
X47432360Y66173000D01*
X47557986Y66173000D01*
X47445326Y66097723D01*
X47302277Y65954674D01*
X47189885Y65786467D01*
X47112467Y65599565D01*
X47073000Y65401151D01*
X47073000Y65198849D01*
X47112467Y65000435D01*
X47189885Y64813533D01*
X47195848Y64804609D01*
X47190264Y64803981D01*
X47109423Y64616816D01*
X47066649Y64417477D01*
X47063587Y64213623D01*
X47100353Y64013088D01*
X47175534Y63823580D01*
X47190264Y63796019D01*
X47195848Y63795391D01*
X47189885Y63786467D01*
X47112467Y63599565D01*
X47073000Y63401151D01*
X47073000Y63198849D01*
X47112467Y63000435D01*
X47189885Y62813533D01*
X47198927Y62800000D01*
X47189885Y62786467D01*
X47112467Y62599565D01*
X47073000Y62401151D01*
X47073000Y62198849D01*
X47112467Y62000435D01*
X47189885Y61813533D01*
X47195848Y61804609D01*
X47190264Y61803981D01*
X47109423Y61616816D01*
X47066649Y61417477D01*
X47063587Y61213623D01*
X47100353Y61013088D01*
X47175534Y60823580D01*
X47190264Y60796019D01*
X47195848Y60795391D01*
X47189885Y60786467D01*
X47112467Y60599565D01*
X47073000Y60401151D01*
X47073000Y60198849D01*
X47112467Y60000435D01*
X47189885Y59813533D01*
X47198927Y59800000D01*
X47189885Y59786467D01*
X47112467Y59599565D01*
X47073000Y59401151D01*
X47073000Y59198849D01*
X47112467Y59000435D01*
X47189885Y58813533D01*
X47195848Y58804609D01*
X47190264Y58803981D01*
X47109423Y58616816D01*
X47066649Y58417477D01*
X47063587Y58213623D01*
X47100353Y58013088D01*
X47175534Y57823580D01*
X47190264Y57796019D01*
X47195848Y57795391D01*
X47189885Y57786467D01*
X47112467Y57599565D01*
X47073000Y57401151D01*
X47073000Y57198849D01*
X47112467Y57000435D01*
X47124245Y56972000D01*
X39333007Y56972000D01*
X39299999Y56975251D01*
X39168264Y56962276D01*
X39113107Y56945544D01*
X39041593Y56923851D01*
X38924851Y56861451D01*
X38822525Y56777475D01*
X38801483Y56751835D01*
X37900939Y55851290D01*
X37875299Y55830248D01*
X37800447Y55739040D01*
X37791323Y55727922D01*
X37728923Y55611180D01*
X37690497Y55484508D01*
X37677522Y55352773D01*
X37680774Y55319756D01*
X37680772Y50515696D01*
X36837077Y49672000D01*
X12777392Y49672000D01*
X17478351Y54372959D01*
X24996690Y54372959D01*
X27071483Y52298165D01*
X27092525Y52272525D01*
X27194851Y52188549D01*
X27311593Y52126149D01*
X27383107Y52104456D01*
X27438264Y52087724D01*
X27569999Y52074749D01*
X27603007Y52078000D01*
X32056993Y52078000D01*
X32090000Y52074749D01*
X32123007Y52078000D01*
X32221735Y52087724D01*
X32348407Y52126149D01*
X32465149Y52188549D01*
X32567475Y52272525D01*
X32588522Y52298171D01*
X33321834Y53031483D01*
X33347474Y53052525D01*
X33431451Y53154851D01*
X33493851Y53271593D01*
X33532276Y53398265D01*
X33538598Y53462447D01*
X33545251Y53530000D01*
X33542000Y53563007D01*
X33542000Y59796993D01*
X33545251Y59830000D01*
X33532276Y59961736D01*
X33514078Y60021726D01*
X33493851Y60088407D01*
X33431451Y60205149D01*
X33347475Y60307475D01*
X33321835Y60328517D01*
X31927000Y61723351D01*
X31927000Y61901151D01*
X31887533Y62099565D01*
X31810115Y62286467D01*
X31801073Y62300000D01*
X31810115Y62313533D01*
X31887533Y62500435D01*
X31927000Y62698849D01*
X31927000Y62901151D01*
X31887533Y63099565D01*
X31810115Y63286467D01*
X31801073Y63300000D01*
X31810115Y63313533D01*
X31887533Y63500435D01*
X31927000Y63698849D01*
X31927000Y63901151D01*
X31887533Y64099565D01*
X31810115Y64286467D01*
X31801073Y64300000D01*
X31810115Y64313533D01*
X31887533Y64500435D01*
X31927000Y64698849D01*
X31927000Y64901151D01*
X31887533Y65099565D01*
X31810115Y65286467D01*
X31697723Y65454674D01*
X31554674Y65597723D01*
X31386467Y65710115D01*
X31199565Y65787533D01*
X31001151Y65827000D01*
X30798849Y65827000D01*
X30600435Y65787533D01*
X30413533Y65710115D01*
X30245326Y65597723D01*
X30114018Y65466415D01*
X30087533Y65599565D01*
X30010115Y65786467D01*
X29897723Y65954674D01*
X29754674Y66097723D01*
X29642014Y66173000D01*
X31567640Y66173000D01*
X31769939Y66192925D01*
X32029505Y66271663D01*
X32268721Y66399527D01*
X32478397Y66571603D01*
X32650473Y66781279D01*
X32778337Y67020495D01*
X32857075Y67280061D01*
X32883662Y67550000D01*
X32857075Y67819939D01*
X32778337Y68079505D01*
X32650473Y68318721D01*
X32478397Y68528397D01*
X32268721Y68700473D01*
X32029505Y68828337D01*
X31769939Y68907075D01*
X31567640Y68927000D01*
X28432360Y68927000D01*
X28230061Y68907075D01*
X27970495Y68828337D01*
X27731279Y68700473D01*
X27521603Y68528397D01*
X27349527Y68318721D01*
X27221663Y68079505D01*
X27142925Y67819939D01*
X27116338Y67550000D01*
X27142925Y67280061D01*
X27221663Y67020495D01*
X27349527Y66781279D01*
X27521603Y66571603D01*
X27731279Y66399527D01*
X27970495Y66271663D01*
X28230061Y66192925D01*
X28432360Y66173000D01*
X28557986Y66173000D01*
X28445326Y66097723D01*
X28302277Y65954674D01*
X28189885Y65786467D01*
X28112467Y65599565D01*
X28073000Y65401151D01*
X28073000Y65198849D01*
X28112467Y65000435D01*
X28189885Y64813533D01*
X28195848Y64804609D01*
X28190264Y64803981D01*
X28109423Y64616816D01*
X28066649Y64417477D01*
X28063587Y64213623D01*
X28100353Y64013088D01*
X28175534Y63823580D01*
X28190264Y63796019D01*
X28195848Y63795391D01*
X28189885Y63786467D01*
X28112467Y63599565D01*
X28073000Y63401151D01*
X28073000Y63198849D01*
X28112467Y63000435D01*
X28189885Y62813533D01*
X28198927Y62800000D01*
X28189885Y62786467D01*
X28112467Y62599565D01*
X28073000Y62401151D01*
X28073000Y62198849D01*
X28112467Y62000435D01*
X28189885Y61813533D01*
X28195848Y61804609D01*
X28190264Y61803981D01*
X28109423Y61616816D01*
X28066649Y61417477D01*
X28063587Y61213623D01*
X28100353Y61013088D01*
X28175534Y60823580D01*
X28190264Y60796019D01*
X28195848Y60795391D01*
X28189885Y60786467D01*
X28112467Y60599565D01*
X28073000Y60401151D01*
X28073000Y60198849D01*
X28112467Y60000435D01*
X28189885Y59813533D01*
X28198927Y59800000D01*
X28189885Y59786467D01*
X28112467Y59599565D01*
X28073000Y59401151D01*
X28073000Y59198849D01*
X28112467Y59000435D01*
X28189885Y58813533D01*
X28195848Y58804609D01*
X28190264Y58803981D01*
X28109423Y58616816D01*
X28066649Y58417477D01*
X28063587Y58213623D01*
X28100353Y58013088D01*
X28175534Y57823580D01*
X28190264Y57796019D01*
X28195848Y57795391D01*
X28189885Y57786467D01*
X28112467Y57599565D01*
X28073000Y57401151D01*
X28073000Y57198849D01*
X28112467Y57000435D01*
X28124245Y56972000D01*
X17133004Y56972000D01*
X17099999Y56975251D01*
X17066994Y56972000D01*
X17066993Y56972000D01*
X16968265Y56962276D01*
X16841593Y56923851D01*
X16724851Y56861451D01*
X16622525Y56777475D01*
X16601478Y56751829D01*
X13881915Y54032266D01*
X13883662Y54050000D01*
X13857075Y54319939D01*
X13778337Y54579505D01*
X13650473Y54818721D01*
X13478397Y55028397D01*
X13268721Y55200473D01*
X13060998Y55311503D01*
X13441854Y55692359D01*
X13467494Y55713401D01*
X13551471Y55815727D01*
X13613871Y55932469D01*
X13642857Y56028023D01*
X13652296Y56059140D01*
X13665271Y56190876D01*
X13662020Y56223883D01*
X13662020Y60676973D01*
X13665271Y60709981D01*
X13652296Y60841716D01*
X13637684Y60889885D01*
X13613871Y60968387D01*
X13551471Y61085129D01*
X13467495Y61187455D01*
X13441855Y61208497D01*
X12927000Y61723352D01*
X12927000Y61901151D01*
X12887533Y62099565D01*
X12810115Y62286467D01*
X12801073Y62300000D01*
X12810115Y62313533D01*
X12887533Y62500435D01*
X12927000Y62698849D01*
X12927000Y62901151D01*
X12887533Y63099565D01*
X12810115Y63286467D01*
X12801073Y63300000D01*
X12810115Y63313533D01*
X12887533Y63500435D01*
X12927000Y63698849D01*
X12927000Y63901151D01*
X12887533Y64099565D01*
X12810115Y64286467D01*
X12801073Y64300000D01*
X12810115Y64313533D01*
X12887533Y64500435D01*
X12927000Y64698849D01*
X12927000Y64901151D01*
X12887533Y65099565D01*
X12810115Y65286467D01*
X12697723Y65454674D01*
X12554674Y65597723D01*
X12386467Y65710115D01*
X12199565Y65787533D01*
X12001151Y65827000D01*
X11798849Y65827000D01*
X11600435Y65787533D01*
X11413533Y65710115D01*
X11245326Y65597723D01*
X11114018Y65466415D01*
X11087533Y65599565D01*
X11010115Y65786467D01*
X10897723Y65954674D01*
X10754674Y66097723D01*
X10642014Y66173000D01*
X12567640Y66173000D01*
X12769939Y66192925D01*
X13029505Y66271663D01*
X13268721Y66399527D01*
X13478397Y66571603D01*
X13650473Y66781279D01*
X13778337Y67020495D01*
X13857075Y67280061D01*
X13883662Y67550000D01*
X13857075Y67819939D01*
X13778337Y68079505D01*
X13650473Y68318721D01*
X13478397Y68528397D01*
X13268721Y68700473D01*
X13029505Y68828337D01*
X12769939Y68907075D01*
X12567640Y68927000D01*
X9432360Y68927000D01*
X9230061Y68907075D01*
X8970495Y68828337D01*
X8731279Y68700473D01*
X8521603Y68528397D01*
X8349527Y68318721D01*
X8221663Y68079505D01*
X8142925Y67819939D01*
X8116338Y67550000D01*
X8142925Y67280061D01*
X8221663Y67020495D01*
X8349527Y66781279D01*
X8521603Y66571603D01*
X8731279Y66399527D01*
X8970495Y66271663D01*
X9230061Y66192925D01*
X9432360Y66173000D01*
X9557986Y66173000D01*
X9445326Y66097723D01*
X9302277Y65954674D01*
X9189885Y65786467D01*
X9112467Y65599565D01*
X9073000Y65401151D01*
X9073000Y65198849D01*
X9112467Y65000435D01*
X9189885Y64813533D01*
X9195848Y64804609D01*
X9190264Y64803981D01*
X9109423Y64616816D01*
X9066649Y64417477D01*
X9063587Y64213623D01*
X9100353Y64013088D01*
X9175534Y63823580D01*
X9190264Y63796019D01*
X9195848Y63795391D01*
X9189885Y63786467D01*
X9112467Y63599565D01*
X9073000Y63401151D01*
X9073000Y63198849D01*
X9112467Y63000435D01*
X9189885Y62813533D01*
X9198927Y62800000D01*
X9189885Y62786467D01*
X9112467Y62599565D01*
X9073000Y62401151D01*
X9073000Y62198849D01*
X9112467Y62000435D01*
X9189885Y61813533D01*
X9195848Y61804609D01*
X9190264Y61803981D01*
X9109423Y61616816D01*
X9066649Y61417477D01*
X9063587Y61213623D01*
X9100353Y61013088D01*
X9175534Y60823580D01*
X9190264Y60796019D01*
X9195848Y60795391D01*
X9189885Y60786467D01*
X9112467Y60599565D01*
X9073000Y60401151D01*
X9073000Y60198849D01*
X9112467Y60000435D01*
X9189885Y59813533D01*
X9198927Y59800000D01*
X9189885Y59786467D01*
X9112467Y59599565D01*
X9073000Y59401151D01*
X9073000Y59198849D01*
X9112467Y59000435D01*
X9189885Y58813533D01*
X9195848Y58804609D01*
X9190264Y58803981D01*
X9109423Y58616816D01*
X9066649Y58417477D01*
X9063587Y58213623D01*
X9100353Y58013088D01*
X9175534Y57823580D01*
X9190264Y57796019D01*
X9195848Y57795391D01*
X9189885Y57786467D01*
X9112467Y57599565D01*
X9073000Y57401151D01*
X9073000Y57198849D01*
X9112467Y57000435D01*
X9124245Y56972000D01*
X1133007Y56972000D01*
X1099999Y56975251D01*
X968264Y56962276D01*
X913107Y56945544D01*
X841593Y56923851D01*
X724851Y56861451D01*
X622525Y56777475D01*
X601483Y56751835D01*
X-8071834Y48078517D01*
X-8097474Y48057475D01*
X-8118515Y48031836D01*
X-8181450Y47955149D01*
X-8243850Y47838407D01*
X-8282276Y47711735D01*
X-8295251Y47580000D01*
X-8291999Y47546983D01*
X-8292000Y12858308D01*
X-8312922Y12844328D01*
X-8464328Y12692922D01*
X-8583287Y12514888D01*
X-8665228Y12317066D01*
X-8707000Y12107060D01*
X-8707000Y11892940D01*
X-8665228Y11682934D01*
X-8644177Y11632113D01*
X-8692475Y11592476D01*
X-8776452Y11490150D01*
X-8838852Y11373408D01*
X-8877277Y11246736D01*
X-8887001Y11148008D01*
X-8887001Y11138008D01*
X-8890252Y11105001D01*
X-20663501Y11105001D01*
X-25233855Y15675354D01*
X-25233855Y37122141D01*
X-21366538Y37122141D01*
X-21062254Y36054664D01*
X-20555562Y35067061D01*
X-19865934Y34197286D01*
X-19019872Y33478763D01*
X-18049890Y32939105D01*
X-16993264Y32599050D01*
X-16806246Y32561849D01*
X-15922259Y32631079D01*
X-15922259Y38006128D01*
X-15668259Y38006128D01*
X-15668259Y32631079D01*
X-14784272Y32561849D01*
X-13716795Y32866133D01*
X-12729192Y33372825D01*
X-11859417Y34062453D01*
X-11140894Y34908515D01*
X-10601236Y35878497D01*
X-10261181Y36935123D01*
X-10223980Y37122141D01*
X-10293210Y38006128D01*
X-15668259Y38006128D01*
X-15922259Y38006128D01*
X-21297308Y38006128D01*
X-21366538Y37122141D01*
X-25233855Y37122141D01*
X-25233855Y39144115D01*
X-21366538Y39144115D01*
X-21297308Y38260128D01*
X-15922259Y38260128D01*
X-15922259Y43635177D01*
X-15668259Y43635177D01*
X-15668259Y38260128D01*
X-10293210Y38260128D01*
X-10223980Y39144115D01*
X-10528264Y40211592D01*
X-11034956Y41199195D01*
X-11724584Y42068970D01*
X-12570646Y42787493D01*
X-13540628Y43327151D01*
X-14597254Y43667206D01*
X-14784272Y43704407D01*
X-15668259Y43635177D01*
X-15922259Y43635177D01*
X-16806246Y43704407D01*
X-17873723Y43400123D01*
X-18861326Y42893431D01*
X-19731101Y42203803D01*
X-20449624Y41357741D01*
X-20989282Y40387759D01*
X-21329337Y39331133D01*
X-21366538Y39144115D01*
X-25233855Y39144115D01*
X-25233855Y53119257D01*
X-25224749Y53211709D01*
X-25228000Y53244717D01*
X-25228000Y53321649D01*
X-24286638Y54263010D01*
X-13862682Y54263010D01*
X-13883662Y54050000D01*
X-13857075Y53780061D01*
X-13778337Y53520495D01*
X-13650473Y53281279D01*
X-13478397Y53071603D01*
X-13268721Y52899527D01*
X-13029505Y52771663D01*
X-12769939Y52692925D01*
X-12567640Y52673000D01*
X-9432360Y52673000D01*
X-9230061Y52692925D01*
X-8970495Y52771663D01*
X-8731279Y52899527D01*
X-8521603Y53071603D01*
X-8349527Y53281279D01*
X-8221663Y53520495D01*
X-8142925Y53780061D01*
X-8116338Y54050000D01*
X-8142925Y54319939D01*
X-8221663Y54579505D01*
X-8349527Y54818721D01*
X-8521603Y55028397D01*
X-8731279Y55200473D01*
X-8899901Y55290604D01*
X-8378142Y55812362D01*
X-8352507Y55833400D01*
X-8329501Y55861432D01*
X-8285745Y55914749D01*
X-8268530Y55935726D01*
X-8206130Y56052468D01*
X-8171004Y56168265D01*
X-8167705Y56179139D01*
X-8154730Y56310875D01*
X-8157981Y56343882D01*
X-8157981Y60496974D01*
X-8154730Y60529982D01*
X-8167705Y60661717D01*
X-8192358Y60742987D01*
X-8206130Y60788388D01*
X-8268530Y60905130D01*
X-8352506Y61007456D01*
X-8378146Y61028498D01*
X-9073000Y61723351D01*
X-9073000Y61901151D01*
X-9112467Y62099565D01*
X-9189885Y62286467D01*
X-9198927Y62300000D01*
X-9189885Y62313533D01*
X-9112467Y62500435D01*
X-9073000Y62698849D01*
X-9073000Y62901151D01*
X-9112467Y63099565D01*
X-9189885Y63286467D01*
X-9198927Y63300000D01*
X-9189885Y63313533D01*
X-9112467Y63500435D01*
X-9073000Y63698849D01*
X-9073000Y63901151D01*
X-9112467Y64099565D01*
X-9189885Y64286467D01*
X-9198927Y64300000D01*
X-9189885Y64313533D01*
X-9112467Y64500435D01*
X-9073000Y64698849D01*
X-9073000Y64901151D01*
X-9112467Y65099565D01*
X-9189885Y65286467D01*
X-9302277Y65454674D01*
X-9445326Y65597723D01*
X-9613533Y65710115D01*
X-9800435Y65787533D01*
X-9998849Y65827000D01*
X-10201151Y65827000D01*
X-10399565Y65787533D01*
X-10586467Y65710115D01*
X-10754674Y65597723D01*
X-10885982Y65466415D01*
X-10912467Y65599565D01*
X-10989885Y65786467D01*
X-11102277Y65954674D01*
X-11245326Y66097723D01*
X-11357986Y66173000D01*
X-9432360Y66173000D01*
X-9230061Y66192925D01*
X-8970495Y66271663D01*
X-8731279Y66399527D01*
X-8521603Y66571603D01*
X-8349527Y66781279D01*
X-8221663Y67020495D01*
X-8142925Y67280061D01*
X-8116338Y67550000D01*
X-8142925Y67819939D01*
X-8221663Y68079505D01*
X-8349527Y68318721D01*
X-8521603Y68528397D01*
X-8731279Y68700473D01*
X-8970495Y68828337D01*
X-9230061Y68907075D01*
X-9432360Y68927000D01*
X-12567640Y68927000D01*
X-12769939Y68907075D01*
X-13029505Y68828337D01*
X-13268721Y68700473D01*
X-13478397Y68528397D01*
X-13650473Y68318721D01*
X-13778337Y68079505D01*
X-13857075Y67819939D01*
X-13883662Y67550000D01*
X-13857075Y67280061D01*
X-13778337Y67020495D01*
X-13650473Y66781279D01*
X-13478397Y66571603D01*
X-13268721Y66399527D01*
X-13029505Y66271663D01*
X-12769939Y66192925D01*
X-12567640Y66173000D01*
X-12442014Y66173000D01*
X-12554674Y66097723D01*
X-12697723Y65954674D01*
X-12810115Y65786467D01*
X-12887533Y65599565D01*
X-12927000Y65401151D01*
X-12927000Y65198849D01*
X-12887533Y65000435D01*
X-12810115Y64813533D01*
X-12804152Y64804609D01*
X-12809736Y64803981D01*
X-12890577Y64616816D01*
X-12933351Y64417477D01*
X-12936413Y64213623D01*
X-12899647Y64013088D01*
X-12824466Y63823580D01*
X-12809736Y63796019D01*
X-12804152Y63795391D01*
X-12810115Y63786467D01*
X-12887533Y63599565D01*
X-12927000Y63401151D01*
X-12927000Y63198849D01*
X-12887533Y63000435D01*
X-12810115Y62813533D01*
X-12801073Y62800000D01*
X-12810115Y62786467D01*
X-12887533Y62599565D01*
X-12927000Y62401151D01*
X-12927000Y62198849D01*
X-12887533Y62000435D01*
X-12810115Y61813533D01*
X-12804152Y61804609D01*
X-12809736Y61803981D01*
X-12890577Y61616816D01*
X-12933351Y61417477D01*
X-12936413Y61213623D01*
X-12899647Y61013088D01*
X-12824466Y60823580D01*
X-12809736Y60796019D01*
X-12804152Y60795391D01*
X-12810115Y60786467D01*
X-12887533Y60599565D01*
X-12927000Y60401151D01*
X-12927000Y60198849D01*
X-12887533Y60000435D01*
X-12810115Y59813533D01*
X-12801073Y59800000D01*
X-12810115Y59786467D01*
X-12887533Y59599565D01*
X-12927000Y59401151D01*
X-12927000Y59198849D01*
X-12887533Y59000435D01*
X-12810115Y58813533D01*
X-12804152Y58804609D01*
X-12809736Y58803981D01*
X-12890577Y58616816D01*
X-12933351Y58417477D01*
X-12936413Y58213623D01*
X-12899647Y58013088D01*
X-12824466Y57823580D01*
X-12809736Y57796019D01*
X-12804152Y57795391D01*
X-12810115Y57786467D01*
X-12887533Y57599565D01*
X-12927000Y57401151D01*
X-12927000Y57198849D01*
X-12887533Y57000435D01*
X-12875755Y56972000D01*
X-24466993Y56972000D01*
X-24500000Y56975251D01*
X-24631736Y56962276D01*
X-24644134Y56958515D01*
X-24758407Y56923851D01*
X-24875149Y56861451D01*
X-24977475Y56777475D01*
X-24998517Y56751835D01*
X-26402960Y55347391D01*
X-26402960Y59741953D01*
X-26399709Y59774961D01*
X-26412684Y59906696D01*
X-26431401Y59968398D01*
X-26451109Y60033367D01*
X-26513509Y60150109D01*
X-26562755Y60210115D01*
X-26576445Y60226797D01*
X-26576447Y60226799D01*
X-26597486Y60252435D01*
X-26623121Y60273473D01*
X-28073000Y61723351D01*
X-28073000Y61901151D01*
X-28112467Y62099565D01*
X-28189885Y62286467D01*
X-28198927Y62300000D01*
X-28189885Y62313533D01*
X-28112467Y62500435D01*
X-28073000Y62698849D01*
X-28073000Y62901151D01*
X-28112467Y63099565D01*
X-28189885Y63286467D01*
X-28198927Y63300000D01*
X-28189885Y63313533D01*
X-28112467Y63500435D01*
X-28073000Y63698849D01*
X-28073000Y63901151D01*
X-28112467Y64099565D01*
X-28189885Y64286467D01*
X-28198927Y64300000D01*
X-28189885Y64313533D01*
X-28112467Y64500435D01*
X-28073000Y64698849D01*
X-28073000Y64901151D01*
X-28112467Y65099565D01*
X-28189885Y65286467D01*
X-28302277Y65454674D01*
X-28445326Y65597723D01*
X-28613533Y65710115D01*
X-28800435Y65787533D01*
X-28998849Y65827000D01*
X-29201151Y65827000D01*
X-29399565Y65787533D01*
X-29586467Y65710115D01*
X-29754674Y65597723D01*
X-29885982Y65466415D01*
X-29912467Y65599565D01*
X-29989885Y65786467D01*
X-30102277Y65954674D01*
X-30245326Y66097723D01*
X-30357986Y66173000D01*
X-28432360Y66173000D01*
X-28230061Y66192925D01*
X-27970495Y66271663D01*
X-27731279Y66399527D01*
X-27521603Y66571603D01*
X-27349527Y66781279D01*
X-27221663Y67020495D01*
X-27142925Y67280061D01*
X-27116338Y67550000D01*
X-27142925Y67819939D01*
X-27221663Y68079505D01*
X-27349527Y68318721D01*
X-27521603Y68528397D01*
X-27731279Y68700473D01*
X-27970495Y68828337D01*
X-28230061Y68907075D01*
X-28432360Y68927000D01*
X-31567640Y68927000D01*
X-31769939Y68907075D01*
X-32029505Y68828337D01*
X-32268721Y68700473D01*
X-32478397Y68528397D01*
X-32650473Y68318721D01*
X-32778337Y68079505D01*
X-32857075Y67819939D01*
X-32883662Y67550000D01*
X-32857075Y67280061D01*
X-32778337Y67020495D01*
X-32650473Y66781279D01*
X-32478397Y66571603D01*
X-32268721Y66399527D01*
X-32029505Y66271663D01*
X-31769939Y66192925D01*
X-31567640Y66173000D01*
X-31442014Y66173000D01*
X-31554674Y66097723D01*
X-31697723Y65954674D01*
X-31810115Y65786467D01*
X-31887533Y65599565D01*
X-31927000Y65401151D01*
X-31927000Y65198849D01*
X-31887533Y65000435D01*
X-31810115Y64813533D01*
X-31804152Y64804609D01*
X-31809736Y64803981D01*
X-31890577Y64616816D01*
X-31933351Y64417477D01*
X-31936413Y64213623D01*
X-31899647Y64013088D01*
X-31824466Y63823580D01*
X-31809736Y63796019D01*
X-31804152Y63795391D01*
X-31810115Y63786467D01*
X-31887533Y63599565D01*
X-31927000Y63401151D01*
X-31927000Y63198849D01*
X-31887533Y63000435D01*
X-31810115Y62813533D01*
X-31801073Y62800000D01*
X-31810115Y62786467D01*
X-31887533Y62599565D01*
X-31927000Y62401151D01*
X-31927000Y62198849D01*
X-31887533Y62000435D01*
X-31810115Y61813533D01*
X-31804152Y61804609D01*
X-31809736Y61803981D01*
X-31890577Y61616816D01*
X-31933351Y61417477D01*
X-31936413Y61213623D01*
X-31899647Y61013088D01*
X-31824466Y60823580D01*
X-31809736Y60796019D01*
X-31804152Y60795391D01*
X-31810115Y60786467D01*
X-31887533Y60599565D01*
X-31927000Y60401151D01*
X-31927000Y60198849D01*
X-31887533Y60000435D01*
X-31810115Y59813533D01*
X-31801073Y59800000D01*
X-31810115Y59786467D01*
X-31887533Y59599565D01*
X-31927000Y59401151D01*
X-31927000Y59198849D01*
X-31887533Y59000435D01*
X-31810115Y58813533D01*
X-31804152Y58804609D01*
X-31809736Y58803981D01*
X-31890577Y58616816D01*
X-31933351Y58417477D01*
X-31936413Y58213623D01*
X-31899647Y58013088D01*
X-31824466Y57823580D01*
X-31809736Y57796019D01*
X-31804152Y57795391D01*
X-31810115Y57786467D01*
X-31887533Y57599565D01*
X-31927000Y57401151D01*
X-31927000Y57198849D01*
X-31887533Y57000435D01*
X-31810115Y56813533D01*
X-31801073Y56800000D01*
X-31810115Y56786467D01*
X-31887533Y56599565D01*
X-31927000Y56401151D01*
X-31927000Y56223352D01*
X-33031844Y55118507D01*
X-33057485Y55097464D01*
X-33141461Y54995138D01*
X-33203861Y54878396D01*
X-33228335Y54797716D01*
X-33242286Y54751725D01*
X-33255261Y54619990D01*
X-33252010Y54586983D01*
X-33252009Y20602360D01*
X-45402960Y32753311D01*
X-45402960Y59741953D01*
X-45399709Y59774961D01*
X-45412684Y59906696D01*
X-45431401Y59968399D01*
X-45451109Y60033367D01*
X-45513509Y60150109D01*
X-45597485Y60252435D01*
X-45623125Y60273477D01*
X-47073000Y61723351D01*
X-47073000Y61901151D01*
X-47112467Y62099565D01*
X-47189885Y62286467D01*
X-47198927Y62300000D01*
X-47189885Y62313533D01*
X-47112467Y62500435D01*
X-47073000Y62698849D01*
X-47073000Y62901151D01*
X-47112467Y63099565D01*
X-47189885Y63286467D01*
X-47198927Y63300000D01*
X-47189885Y63313533D01*
X-47112467Y63500435D01*
X-47073000Y63698849D01*
X-47073000Y63901151D01*
X-47112467Y64099565D01*
X-47189885Y64286467D01*
X-47198927Y64300000D01*
X-47189885Y64313533D01*
X-47112467Y64500435D01*
X-47073000Y64698849D01*
X-47073000Y64901151D01*
X-47112467Y65099565D01*
X-47189885Y65286467D01*
X-47302277Y65454674D01*
X-47445326Y65597723D01*
X-47613533Y65710115D01*
X-47800435Y65787533D01*
X-47998849Y65827000D01*
X-48201151Y65827000D01*
X-48399565Y65787533D01*
X-48586467Y65710115D01*
X-48754674Y65597723D01*
X-48885982Y65466415D01*
X-48912467Y65599565D01*
X-48989885Y65786467D01*
X-49102277Y65954674D01*
X-49245326Y66097723D01*
X-49357986Y66173000D01*
X-47432360Y66173000D01*
X-47230061Y66192925D01*
X-46970495Y66271663D01*
X-46731279Y66399527D01*
X-46521603Y66571603D01*
X-46349527Y66781279D01*
X-46221663Y67020495D01*
X-46142925Y67280061D01*
X-46116338Y67550000D01*
X-46142925Y67819939D01*
X-46221663Y68079505D01*
X-46349527Y68318721D01*
X-46521603Y68528397D01*
X-46731279Y68700473D01*
X-46970495Y68828337D01*
X-47230061Y68907075D01*
X-47432360Y68927000D01*
X-50567640Y68927000D01*
X-50769939Y68907075D01*
X-51029505Y68828337D01*
X-51268721Y68700473D01*
X-51478397Y68528397D01*
X-51650473Y68318721D01*
X-51778337Y68079505D01*
X-51857075Y67819939D01*
X-51883662Y67550000D01*
X-51857075Y67280061D01*
X-51778337Y67020495D01*
X-51650473Y66781279D01*
X-51478397Y66571603D01*
X-51268721Y66399527D01*
X-51029505Y66271663D01*
X-50769939Y66192925D01*
X-50567640Y66173000D01*
X-50442014Y66173000D01*
X-50554674Y66097723D01*
X-50697723Y65954674D01*
X-50810115Y65786467D01*
X-50887533Y65599565D01*
X-50927000Y65401151D01*
X-50927000Y65198849D01*
X-50887533Y65000435D01*
X-50810115Y64813533D01*
X-50804152Y64804609D01*
X-50809736Y64803981D01*
X-50890577Y64616816D01*
X-50933351Y64417477D01*
X-50936413Y64213623D01*
X-50899647Y64013088D01*
X-50824466Y63823580D01*
X-50809736Y63796019D01*
X-50804152Y63795391D01*
X-50810115Y63786467D01*
X-50887533Y63599565D01*
X-50927000Y63401151D01*
X-50927000Y63198849D01*
X-50887533Y63000435D01*
X-50810115Y62813533D01*
X-50801073Y62800000D01*
X-50810115Y62786467D01*
X-50887533Y62599565D01*
X-50927000Y62401151D01*
X-50927000Y62198849D01*
X-50887533Y62000435D01*
X-50810115Y61813533D01*
X-50804152Y61804609D01*
X-50809736Y61803981D01*
X-50890577Y61616816D01*
X-50933351Y61417477D01*
X-50936413Y61213623D01*
X-50899647Y61013088D01*
X-50824466Y60823580D01*
X-50809736Y60796019D01*
X-50804152Y60795391D01*
X-50810115Y60786467D01*
X-50887533Y60599565D01*
X-50927000Y60401151D01*
X-50927000Y60198849D01*
X-50887533Y60000435D01*
X-50810115Y59813533D01*
X-50801073Y59800000D01*
X-50810115Y59786467D01*
X-50887533Y59599565D01*
X-50927000Y59401151D01*
X-50927000Y59198849D01*
X-50887533Y59000435D01*
X-50810115Y58813533D01*
X-50804152Y58804609D01*
X-50809736Y58803981D01*
X-50890577Y58616816D01*
X-50933351Y58417477D01*
X-50936413Y58213623D01*
X-50899647Y58013088D01*
X-50824466Y57823580D01*
X-50809736Y57796019D01*
X-50804152Y57795391D01*
X-50810115Y57786467D01*
X-50887533Y57599565D01*
X-50927000Y57401151D01*
X-50927000Y57198849D01*
X-50887533Y57000435D01*
X-50810115Y56813533D01*
X-50801073Y56800000D01*
X-50810115Y56786467D01*
X-50887533Y56599565D01*
X-50927000Y56401151D01*
X-50927000Y56223352D01*
X-52041834Y55108517D01*
X-52067475Y55087474D01*
X-52151451Y54985148D01*
X-52213851Y54868406D01*
X-52240326Y54781130D01*
X-52252276Y54741735D01*
X-52265251Y54610000D01*
X-55348000Y54610000D01*
X-55348000Y73848000D01*
X55348000Y73848000D01*
X55348001Y-43729932D01*
%TA.AperFunction,Conductor*%
D16*
G36*
X55348001Y-43729932D02*
G01*
X22729934Y-76348000D01*
X-22729933Y-76348000D01*
X-42938651Y-56139282D01*
X-19825270Y-56139282D01*
X-19822019Y-56172289D01*
X-19822018Y-66651536D01*
X-19825270Y-66684553D01*
X-19812295Y-66816288D01*
X-19782768Y-66913623D01*
X-19773869Y-66942960D01*
X-19711469Y-67059702D01*
X-19627493Y-67162028D01*
X-19601853Y-67183070D01*
X-18214420Y-68570503D01*
X-18268721Y-68599527D01*
X-18478397Y-68771603D01*
X-18650473Y-68981279D01*
X-18778337Y-69220495D01*
X-18857075Y-69480061D01*
X-18883662Y-69750000D01*
X-18857075Y-70019939D01*
X-18778337Y-70279505D01*
X-18650473Y-70518721D01*
X-18478397Y-70728397D01*
X-18268721Y-70900473D01*
X-18029505Y-71028337D01*
X-17769939Y-71107075D01*
X-17567640Y-71127000D01*
X-14432360Y-71127000D01*
X-14230061Y-71107075D01*
X-13970495Y-71028337D01*
X-13731279Y-70900473D01*
X-13521603Y-70728397D01*
X-13349527Y-70518721D01*
X-13221663Y-70279505D01*
X-13142925Y-70019939D01*
X-13116338Y-69750000D01*
X-13142925Y-69480061D01*
X-13221663Y-69220495D01*
X-13306375Y-69062010D01*
X-2693625Y-69062010D01*
X-2778337Y-69220495D01*
X-2857075Y-69480061D01*
X-2883662Y-69750000D01*
X-2857075Y-70019939D01*
X-2778337Y-70279505D01*
X-2650473Y-70518721D01*
X-2478397Y-70728397D01*
X-2268721Y-70900473D01*
X-2029505Y-71028337D01*
X-1769939Y-71107075D01*
X-1567640Y-71127000D01*
X1567640Y-71127000D01*
X1769939Y-71107075D01*
X2029505Y-71028337D01*
X2268721Y-70900473D01*
X2478397Y-70728397D01*
X2650473Y-70518721D01*
X2778337Y-70279505D01*
X2857075Y-70019939D01*
X2883662Y-69750000D01*
X2857075Y-69480061D01*
X2778337Y-69220495D01*
X2650473Y-68981279D01*
X2478397Y-68771603D01*
X2268721Y-68599527D01*
X2029505Y-68471663D01*
X1769939Y-68392925D01*
X1567640Y-68373000D01*
X532600Y-68373000D01*
X593851Y-68258407D01*
X632276Y-68131735D01*
X642000Y-68033007D01*
X642000Y-68033006D01*
X644875Y-68003815D01*
X782523Y-68033351D01*
X986377Y-68036413D01*
X1186912Y-67999647D01*
X1376420Y-67924466D01*
X1403981Y-67909736D01*
X1426836Y-67706441D01*
X900000Y-67179605D01*
X885858Y-67193748D01*
X706253Y-67014143D01*
X710891Y-67009504D01*
X798849Y-67027000D01*
X1001151Y-67027000D01*
X1089109Y-67009504D01*
X1606441Y-67526836D01*
X1809736Y-67503981D01*
X1890577Y-67316816D01*
X1933351Y-67117477D01*
X1936413Y-66913623D01*
X1899647Y-66713088D01*
X1824466Y-66523580D01*
X1809736Y-66496019D01*
X1804152Y-66495391D01*
X1810115Y-66486467D01*
X1887533Y-66299565D01*
X1927000Y-66101151D01*
X1927000Y-65898849D01*
X1887533Y-65700435D01*
X1810115Y-65513533D01*
X1801073Y-65500000D01*
X1810115Y-65486467D01*
X1887533Y-65299565D01*
X1927000Y-65101151D01*
X1927000Y-64898849D01*
X1887533Y-64700435D01*
X1810115Y-64513533D01*
X1804152Y-64504609D01*
X1809736Y-64503981D01*
X1890577Y-64316816D01*
X1933351Y-64117477D01*
X1936413Y-63913623D01*
X1899647Y-63713088D01*
X1824466Y-63523580D01*
X1809736Y-63496019D01*
X1804152Y-63495391D01*
X1810115Y-63486467D01*
X1887533Y-63299565D01*
X1927000Y-63101151D01*
X1927000Y-62923351D01*
X2836845Y-62013507D01*
X2862485Y-61992465D01*
X2946461Y-61890139D01*
X3008861Y-61773397D01*
X3047286Y-61646725D01*
X3057010Y-61547997D01*
X3060261Y-61514991D01*
X3057010Y-61481983D01*
X3057010Y-13467361D01*
X7298000Y-17708352D01*
X7298001Y-60336983D01*
X7294749Y-60370000D01*
X7307724Y-60501735D01*
X7337882Y-60601151D01*
X7346150Y-60628407D01*
X7408550Y-60745149D01*
X7492526Y-60847475D01*
X7518166Y-60868517D01*
X14073000Y-67423352D01*
X14073000Y-67601151D01*
X14112467Y-67799565D01*
X14189885Y-67986467D01*
X14302277Y-68154674D01*
X14445326Y-68297723D01*
X14557986Y-68373000D01*
X14432360Y-68373000D01*
X14230061Y-68392925D01*
X13970495Y-68471663D01*
X13731279Y-68599527D01*
X13521603Y-68771603D01*
X13349527Y-68981279D01*
X13221663Y-69220495D01*
X13142925Y-69480061D01*
X13116338Y-69750000D01*
X13142925Y-70019939D01*
X13221663Y-70279505D01*
X13349527Y-70518721D01*
X13521603Y-70728397D01*
X13731279Y-70900473D01*
X13970495Y-71028337D01*
X14230061Y-71107075D01*
X14432360Y-71127000D01*
X17567640Y-71127000D01*
X17769939Y-71107075D01*
X18029505Y-71028337D01*
X18268721Y-70900473D01*
X18478397Y-70728397D01*
X18650473Y-70518721D01*
X18778337Y-70279505D01*
X18857075Y-70019939D01*
X18883662Y-69750000D01*
X18857075Y-69480061D01*
X18778337Y-69220495D01*
X18650473Y-68981279D01*
X18478397Y-68771603D01*
X18268721Y-68599527D01*
X18029505Y-68471663D01*
X17769939Y-68392925D01*
X17567640Y-68373000D01*
X15642014Y-68373000D01*
X15754674Y-68297723D01*
X15897723Y-68154674D01*
X16010115Y-67986467D01*
X16087533Y-67799565D01*
X16106056Y-67706441D01*
X16373164Y-67706441D01*
X16396019Y-67909736D01*
X16583184Y-67990577D01*
X16782523Y-68033351D01*
X16986377Y-68036413D01*
X17186912Y-67999647D01*
X17376420Y-67924466D01*
X17403981Y-67909736D01*
X17426836Y-67706441D01*
X16900000Y-67179605D01*
X16373164Y-67706441D01*
X16106056Y-67706441D01*
X16127000Y-67601151D01*
X16127000Y-67519353D01*
X16193559Y-67526836D01*
X16710891Y-67009504D01*
X16798849Y-67027000D01*
X17001151Y-67027000D01*
X17089109Y-67009504D01*
X17606441Y-67526836D01*
X17809736Y-67503981D01*
X17890577Y-67316816D01*
X17933351Y-67117477D01*
X17936413Y-66913623D01*
X17899647Y-66713088D01*
X17824466Y-66523580D01*
X17809736Y-66496019D01*
X17804152Y-66495391D01*
X17810115Y-66486467D01*
X17887533Y-66299565D01*
X17927000Y-66101151D01*
X17927000Y-65923351D01*
X19016855Y-64833497D01*
X19042495Y-64812455D01*
X19126471Y-64710129D01*
X19188871Y-64593387D01*
X19224352Y-64476420D01*
X19227296Y-64466716D01*
X19240271Y-64334980D01*
X19237020Y-64301973D01*
X19237020Y-55841862D01*
X19240271Y-55808855D01*
X19227296Y-55677119D01*
X19197177Y-55577831D01*
X19188871Y-55550448D01*
X19126471Y-55433706D01*
X19042494Y-55331380D01*
X19016854Y-55310338D01*
X9192000Y-45485484D01*
X9192000Y-39144115D01*
X10223980Y-39144115D01*
X10528264Y-40211592D01*
X11034956Y-41199195D01*
X11724584Y-42068970D01*
X12570646Y-42787493D01*
X13540628Y-43327151D01*
X14597254Y-43667206D01*
X14784272Y-43704407D01*
X15668259Y-43635177D01*
X15668259Y-38260128D01*
X15922259Y-38260128D01*
X15922259Y-43635177D01*
X16806246Y-43704407D01*
X17873723Y-43400123D01*
X18861326Y-42893431D01*
X19731101Y-42203803D01*
X20449624Y-41357741D01*
X20989282Y-40387759D01*
X21329337Y-39331133D01*
X21366538Y-39144115D01*
X21297308Y-38260128D01*
X15922259Y-38260128D01*
X15668259Y-38260128D01*
X10293210Y-38260128D01*
X10223980Y-39144115D01*
X9192000Y-39144115D01*
X9192000Y-37122141D01*
X10223980Y-37122141D01*
X10293210Y-38006128D01*
X15668259Y-38006128D01*
X15668259Y-32631079D01*
X15922259Y-32631079D01*
X15922259Y-38006128D01*
X21297308Y-38006128D01*
X21366538Y-37122141D01*
X21062254Y-36054664D01*
X20555562Y-35067061D01*
X19865934Y-34197286D01*
X19019872Y-33478763D01*
X18049890Y-32939105D01*
X16993264Y-32599050D01*
X16806246Y-32561849D01*
X15922259Y-32631079D01*
X15668259Y-32631079D01*
X14784272Y-32561849D01*
X13716795Y-32866133D01*
X12729192Y-33372825D01*
X11859417Y-34062453D01*
X11140894Y-34908515D01*
X10601236Y-35878497D01*
X10261181Y-36935123D01*
X10223980Y-37122141D01*
X9192000Y-37122141D01*
X9192000Y-16806246D01*
X32561849Y-16806246D01*
X32866133Y-17873723D01*
X33372825Y-18861326D01*
X34062453Y-19731101D01*
X34908515Y-20449624D01*
X35878497Y-20989282D01*
X36935123Y-21329337D01*
X37122141Y-21366538D01*
X38006128Y-21297308D01*
X38006128Y-15922259D01*
X38260128Y-15922259D01*
X38260128Y-21297308D01*
X39144115Y-21366538D01*
X40211592Y-21062254D01*
X41199195Y-20555562D01*
X42068970Y-19865934D01*
X42787493Y-19019872D01*
X43327151Y-18049890D01*
X43667206Y-16993264D01*
X43704407Y-16806246D01*
X43635177Y-15922259D01*
X38260128Y-15922259D01*
X38006128Y-15922259D01*
X32631079Y-15922259D01*
X32561849Y-16806246D01*
X9192000Y-16806246D01*
X9192000Y-14784272D01*
X32561849Y-14784272D01*
X32631079Y-15668259D01*
X38006128Y-15668259D01*
X38006128Y-10293210D01*
X38260128Y-10293210D01*
X38260128Y-15668259D01*
X43635177Y-15668259D01*
X43704407Y-14784272D01*
X43400123Y-13716795D01*
X42893431Y-12729192D01*
X42203803Y-11859417D01*
X41357741Y-11140894D01*
X40387759Y-10601236D01*
X39331133Y-10261181D01*
X39144115Y-10223980D01*
X38260128Y-10293210D01*
X38006128Y-10293210D01*
X37122141Y-10223980D01*
X36054664Y-10528264D01*
X35067061Y-11034956D01*
X34197286Y-11724584D01*
X33478763Y-12570646D01*
X32939105Y-13540628D01*
X32599050Y-14597254D01*
X32561849Y-14784272D01*
X9192000Y-14784272D01*
X9192000Y-11587405D01*
X9195251Y-11554397D01*
X9182276Y-11422662D01*
X9156510Y-11337724D01*
X9143851Y-11295991D01*
X9081451Y-11179249D01*
X9030910Y-11117665D01*
X9018515Y-11102561D01*
X9018513Y-11102559D01*
X8997474Y-11076923D01*
X8971839Y-11055885D01*
X7769122Y-9853169D01*
X7748076Y-9827524D01*
X7645750Y-9743548D01*
X7529008Y-9681148D01*
X7402336Y-9642723D01*
X7303608Y-9632999D01*
X7270601Y-9629748D01*
X7237594Y-9632999D01*
X4192406Y-9632999D01*
X4159399Y-9629748D01*
X4027663Y-9642723D01*
X3998426Y-9651592D01*
X3900992Y-9681148D01*
X3784250Y-9743548D01*
X3681924Y-9827524D01*
X3660877Y-9853170D01*
X3610300Y-9903747D01*
X3492066Y-9854772D01*
X3282060Y-9813000D01*
X3067940Y-9813000D01*
X2857934Y-9854772D01*
X2660112Y-9936713D01*
X2540000Y-10016970D01*
X2419888Y-9936713D01*
X2222066Y-9854772D01*
X2012060Y-9813000D01*
X1797940Y-9813000D01*
X1587934Y-9854772D01*
X1390112Y-9936713D01*
X1270000Y-10016970D01*
X1149888Y-9936713D01*
X952066Y-9854772D01*
X742060Y-9813000D01*
X527940Y-9813000D01*
X317934Y-9854772D01*
X199700Y-9903746D01*
X-245878Y-9458169D01*
X-266924Y-9432524D01*
X-369250Y-9348548D01*
X-485992Y-9286148D01*
X-612664Y-9247723D01*
X-711392Y-9237999D01*
X-744399Y-9234748D01*
X-777406Y-9237999D01*
X-7097166Y-9237999D01*
X-7130174Y-9234748D01*
X-7261909Y-9247723D01*
X-7300334Y-9259379D01*
X-7388580Y-9286148D01*
X-7505322Y-9348548D01*
X-7607648Y-9432524D01*
X-7628690Y-9458164D01*
X-8846846Y-10676321D01*
X-8872486Y-10697363D01*
X-8956462Y-10799689D01*
X-9018862Y-10916431D01*
X-9045631Y-11004677D01*
X-9057287Y-11043102D01*
X-9070262Y-11174837D01*
X-9067011Y-11207845D01*
X-9067009Y-13171973D01*
X-9070261Y-13204990D01*
X-9057286Y-13336725D01*
X-9023127Y-13449331D01*
X-9018860Y-13463397D01*
X-8956460Y-13580139D01*
X-8872484Y-13682465D01*
X-8846844Y-13703507D01*
X-7562030Y-14988322D01*
X-7562029Y-48692534D01*
X-12387477Y-53517982D01*
X-17167715Y-53517982D01*
X-17200720Y-53514731D01*
X-17233725Y-53517982D01*
X-17233726Y-53517982D01*
X-17332454Y-53527706D01*
X-17459126Y-53566131D01*
X-17575868Y-53628531D01*
X-17678194Y-53712507D01*
X-17699241Y-53738153D01*
X-19601853Y-55640765D01*
X-19627494Y-55661808D01*
X-19711470Y-55764134D01*
X-19773870Y-55880876D01*
X-19783693Y-55913259D01*
X-19812295Y-56007547D01*
X-19825270Y-56139282D01*
X-42938651Y-56139282D01*
X-55348000Y-43729934D01*
X-55348000Y-39144115D01*
X-21366538Y-39144115D01*
X-21062254Y-40211592D01*
X-20555562Y-41199195D01*
X-19865934Y-42068970D01*
X-19019872Y-42787493D01*
X-18049890Y-43327151D01*
X-16993264Y-43667206D01*
X-16806246Y-43704407D01*
X-15922259Y-43635177D01*
X-15922259Y-38260128D01*
X-15668259Y-38260128D01*
X-15668259Y-43635177D01*
X-14784272Y-43704407D01*
X-13716795Y-43400123D01*
X-12729192Y-42893431D01*
X-11859417Y-42203803D01*
X-11140894Y-41357741D01*
X-10601236Y-40387759D01*
X-10261181Y-39331133D01*
X-10223980Y-39144115D01*
X-10293210Y-38260128D01*
X-15668259Y-38260128D01*
X-15922259Y-38260128D01*
X-21297308Y-38260128D01*
X-21366538Y-39144115D01*
X-55348000Y-39144115D01*
X-55348000Y-37122141D01*
X-21366538Y-37122141D01*
X-21297308Y-38006128D01*
X-15922259Y-38006128D01*
X-15922259Y-32631079D01*
X-15668259Y-32631079D01*
X-15668259Y-38006128D01*
X-10293210Y-38006128D01*
X-10223980Y-37122141D01*
X-10528264Y-36054664D01*
X-11034956Y-35067061D01*
X-11724584Y-34197286D01*
X-12570646Y-33478763D01*
X-13540628Y-32939105D01*
X-14597254Y-32599050D01*
X-14784272Y-32561849D01*
X-15668259Y-32631079D01*
X-15922259Y-32631079D01*
X-16806246Y-32561849D01*
X-17873723Y-32866133D01*
X-18861326Y-33372825D01*
X-19731101Y-34062453D01*
X-20449624Y-34908515D01*
X-20989282Y-35878497D01*
X-21329337Y-36935123D01*
X-21366538Y-37122141D01*
X-55348000Y-37122141D01*
X-55348000Y-16806246D01*
X-43704407Y-16806246D01*
X-43400123Y-17873723D01*
X-42893431Y-18861326D01*
X-42203803Y-19731101D01*
X-41357741Y-20449624D01*
X-40387759Y-20989282D01*
X-39331133Y-21329337D01*
X-39144115Y-21366538D01*
X-38260128Y-21297308D01*
X-38260128Y-15922259D01*
X-38006128Y-15922259D01*
X-38006128Y-21297308D01*
X-37122141Y-21366538D01*
X-36054664Y-21062254D01*
X-35067061Y-20555562D01*
X-34197286Y-19865934D01*
X-33478763Y-19019872D01*
X-32939105Y-18049890D01*
X-32599050Y-16993264D01*
X-32561849Y-16806246D01*
X-32631079Y-15922259D01*
X-38006128Y-15922259D01*
X-38260128Y-15922259D01*
X-43635177Y-15922259D01*
X-43704407Y-16806246D01*
X-55348000Y-16806246D01*
X-55348000Y-14784272D01*
X-43704407Y-14784272D01*
X-43635177Y-15668259D01*
X-38260128Y-15668259D01*
X-38260128Y-10293210D01*
X-38006128Y-10293210D01*
X-38006128Y-15668259D01*
X-32631079Y-15668259D01*
X-32561849Y-14784272D01*
X-32866133Y-13716795D01*
X-33372825Y-12729192D01*
X-34062453Y-11859417D01*
X-34908515Y-11140894D01*
X-35878497Y-10601236D01*
X-36935123Y-10261181D01*
X-37122141Y-10223980D01*
X-38006128Y-10293210D01*
X-38260128Y-10293210D01*
X-39144115Y-10223980D01*
X-40211592Y-10528264D01*
X-41199195Y-11034956D01*
X-42068970Y-11724584D01*
X-42787493Y-12570646D01*
X-43327151Y-13540628D01*
X-43667206Y-14597254D01*
X-43704407Y-14784272D01*
X-55348000Y-14784272D01*
X-55348000Y14784272D01*
X-43704407Y14784272D01*
X-43400123Y13716795D01*
X-42893431Y12729192D01*
X-42203803Y11859417D01*
X-41357741Y11140894D01*
X-40387759Y10601236D01*
X-39331133Y10261181D01*
X-39144115Y10223980D01*
X-38260128Y10293210D01*
X-38260128Y15668259D01*
X-38006128Y15668259D01*
X-38006128Y10293210D01*
X-37122141Y10223980D01*
X-36054664Y10528264D01*
X-35067061Y11034956D01*
X-34197286Y11724584D01*
X-33478763Y12570646D01*
X-32939105Y13540628D01*
X-32599050Y14597254D01*
X-32561849Y14784272D01*
X-32631079Y15668259D01*
X-38006128Y15668259D01*
X-38260128Y15668259D01*
X-43635177Y15668259D01*
X-43704407Y14784272D01*
X-55348000Y14784272D01*
X-55348000Y16806246D01*
X-43704407Y16806246D01*
X-43635177Y15922259D01*
X-38260128Y15922259D01*
X-38260128Y21297308D01*
X-39144115Y21366538D01*
X-40211592Y21062254D01*
X-41199195Y20555562D01*
X-42068970Y19865934D01*
X-42787493Y19019872D01*
X-43327151Y18049890D01*
X-43667206Y16993264D01*
X-43704407Y16806246D01*
X-55348000Y16806246D01*
X-55348000Y54610000D01*
X-52265251Y54610000D01*
X-52262000Y54576993D01*
X-52261999Y44003016D01*
X-52262000Y44003006D01*
X-52261999Y36623017D01*
X-52265251Y36590000D01*
X-52252276Y36458265D01*
X-52213850Y36331593D01*
X-52151450Y36214851D01*
X-52067474Y36112525D01*
X-52041834Y36091483D01*
X-37302746Y21352394D01*
X-38006128Y21297308D01*
X-38006128Y16101867D01*
X-38118987Y15989008D01*
X-37939379Y15809400D01*
X-37826520Y15922259D01*
X-32631079Y15922259D01*
X-32575459Y16632467D01*
X-19719389Y3776397D01*
X-19698349Y3750760D01*
X-19672715Y3729723D01*
X-19672711Y3729719D01*
X-19596023Y3666784D01*
X-19479282Y3604384D01*
X-19352610Y3565958D01*
X-19220874Y3552983D01*
X-19187857Y3556235D01*
X-12126584Y3556233D01*
X-8702091Y131740D01*
X-8707000Y107060D01*
X-8707000Y-107060D01*
X-8665228Y-317066D01*
X-8583287Y-514888D01*
X-8464328Y-692922D01*
X-8312922Y-844328D01*
X-8134888Y-963287D01*
X-7937066Y-1045228D01*
X-7727060Y-1087000D01*
X-7512940Y-1087000D01*
X-7302934Y-1045228D01*
X-7105112Y-963287D01*
X-6985000Y-883030D01*
X-6864888Y-963287D01*
X-6667066Y-1045228D01*
X-6457060Y-1087000D01*
X-6242940Y-1087000D01*
X-6032934Y-1045228D01*
X-5835112Y-963287D01*
X-5715000Y-883030D01*
X-5594888Y-963287D01*
X-5397066Y-1045228D01*
X-5187060Y-1087000D01*
X-4972940Y-1087000D01*
X-4762934Y-1045228D01*
X-4565112Y-963287D01*
X-4445000Y-883030D01*
X-4324888Y-963287D01*
X-4127066Y-1045228D01*
X-3917060Y-1087000D01*
X-3702940Y-1087000D01*
X-3492934Y-1045228D01*
X-3295112Y-963287D01*
X-3175000Y-883030D01*
X-3054888Y-963287D01*
X-2857066Y-1045228D01*
X-2647060Y-1087000D01*
X-2432940Y-1087000D01*
X-2222934Y-1045228D01*
X-2025112Y-963287D01*
X-1905000Y-883030D01*
X-1784888Y-963287D01*
X-1587066Y-1045228D01*
X-1377060Y-1087000D01*
X-1162940Y-1087000D01*
X-952934Y-1045228D01*
X-755112Y-963287D01*
X-635000Y-883030D01*
X-514888Y-963287D01*
X-317066Y-1045228D01*
X-107060Y-1087000D01*
X107060Y-1087000D01*
X317066Y-1045228D01*
X514888Y-963287D01*
X635000Y-883030D01*
X755112Y-963287D01*
X952934Y-1045228D01*
X1162940Y-1087000D01*
X1377060Y-1087000D01*
X1587066Y-1045228D01*
X1784888Y-963287D01*
X1905000Y-883030D01*
X2025112Y-963287D01*
X2222934Y-1045228D01*
X2432940Y-1087000D01*
X2647060Y-1087000D01*
X2857066Y-1045228D01*
X3054888Y-963287D01*
X3175000Y-883030D01*
X3295112Y-963287D01*
X3492934Y-1045228D01*
X3702940Y-1087000D01*
X3917060Y-1087000D01*
X4127066Y-1045228D01*
X4324888Y-963287D01*
X4445000Y-883030D01*
X4565112Y-963287D01*
X4762934Y-1045228D01*
X4972940Y-1087000D01*
X5187060Y-1087000D01*
X5397066Y-1045228D01*
X5594888Y-963287D01*
X5715000Y-883030D01*
X5835112Y-963287D01*
X6032934Y-1045228D01*
X6242940Y-1087000D01*
X6457060Y-1087000D01*
X6667066Y-1045228D01*
X6864888Y-963287D01*
X6985000Y-883030D01*
X7105112Y-963287D01*
X7302934Y-1045228D01*
X7512940Y-1087000D01*
X7727060Y-1087000D01*
X7937066Y-1045228D01*
X8134888Y-963287D01*
X8312922Y-844328D01*
X8464328Y-692922D01*
X8583287Y-514888D01*
X8665228Y-317066D01*
X8707000Y-107060D01*
X8707000Y107060D01*
X8665228Y317066D01*
X8583287Y514888D01*
X8464328Y692922D01*
X8312922Y844328D01*
X8134888Y963287D01*
X8071338Y989611D01*
X8072000Y992940D01*
X8072000Y1207060D01*
X8030228Y1417066D01*
X7948287Y1614888D01*
X7829328Y1792922D01*
X7677922Y1944328D01*
X7499888Y2063287D01*
X7302066Y2145228D01*
X7092060Y2187000D01*
X6877940Y2187000D01*
X6853260Y2182091D01*
X3531649Y5503702D01*
X3510602Y5529348D01*
X3408276Y5613324D01*
X3291534Y5675724D01*
X3164862Y5714149D01*
X3066134Y5723873D01*
X3033127Y5727124D01*
X3000120Y5723873D01*
X-5809805Y5723873D01*
X-7877792Y7791857D01*
X-7898838Y7817502D01*
X-8001164Y7901478D01*
X-8117906Y7963878D01*
X-8244578Y8002303D01*
X-8343306Y8012027D01*
X-8376313Y8015278D01*
X-8409320Y8012027D01*
X-17570527Y8012027D01*
X-20663501Y11105001D01*
X-8890252Y11105001D01*
X-8887001Y11071995D01*
X-8877277Y10973267D01*
X-8838852Y10846595D01*
X-8776452Y10729853D01*
X-8692476Y10627527D01*
X-8666832Y10606482D01*
X-8638524Y10578174D01*
X-8617475Y10552525D01*
X-8515149Y10468549D01*
X-8398407Y10406149D01*
X-8271735Y10367724D01*
X-8173007Y10358000D01*
X-8173006Y10358000D01*
X-8140001Y10354749D01*
X-8106996Y10358000D01*
X-6083007Y10358000D01*
X-6050000Y10354749D01*
X-6016993Y10358000D01*
X-5918265Y10367724D01*
X-5791593Y10406149D01*
X-5674851Y10468549D01*
X-5572525Y10552525D01*
X-5551479Y10578170D01*
X-5211740Y10917909D01*
X-5187060Y10913000D01*
X-4972940Y10913000D01*
X-4762934Y10954772D01*
X-4565112Y11036713D01*
X-4445000Y11116970D01*
X-4324888Y11036713D01*
X-4127066Y10954772D01*
X-3917060Y10913000D01*
X-3702940Y10913000D01*
X-3492934Y10954772D01*
X-3295112Y11036713D01*
X-3175000Y11116970D01*
X-3054888Y11036713D01*
X-2857066Y10954772D01*
X-2647060Y10913000D01*
X-2432940Y10913000D01*
X-2222934Y10954772D01*
X-2025112Y11036713D01*
X-1905000Y11116970D01*
X-1784888Y11036713D01*
X-1587066Y10954772D01*
X-1377060Y10913000D01*
X-1162940Y10913000D01*
X-952934Y10954772D01*
X-755112Y11036713D01*
X-635000Y11116970D01*
X-514888Y11036713D01*
X-317066Y10954772D01*
X-107060Y10913000D01*
X107060Y10913000D01*
X317066Y10954772D01*
X514888Y11036713D01*
X635000Y11116970D01*
X755112Y11036713D01*
X952934Y10954772D01*
X1162940Y10913000D01*
X1377060Y10913000D01*
X1587066Y10954772D01*
X1784888Y11036713D01*
X1905000Y11116970D01*
X2025112Y11036713D01*
X2222934Y10954772D01*
X2432940Y10913000D01*
X2647060Y10913000D01*
X2857066Y10954772D01*
X3054888Y11036713D01*
X3175000Y11116970D01*
X3295112Y11036713D01*
X3492934Y10954772D01*
X3702940Y10913000D01*
X3917060Y10913000D01*
X4127066Y10954772D01*
X4324888Y11036713D01*
X4445000Y11116970D01*
X4565112Y11036713D01*
X4762934Y10954772D01*
X4972940Y10913000D01*
X5187060Y10913000D01*
X5397066Y10954772D01*
X5594888Y11036713D01*
X5715000Y11116970D01*
X5835112Y11036713D01*
X6032934Y10954772D01*
X6242940Y10913000D01*
X6457060Y10913000D01*
X6667066Y10954772D01*
X6864888Y11036713D01*
X6985000Y11116970D01*
X7105112Y11036713D01*
X7302934Y10954772D01*
X7512940Y10913000D01*
X7727060Y10913000D01*
X7937066Y10954772D01*
X8134888Y11036713D01*
X8312922Y11155672D01*
X8464328Y11307078D01*
X8583287Y11485112D01*
X8665228Y11682934D01*
X8707000Y11892940D01*
X8707000Y12107060D01*
X8665228Y12317066D01*
X8583287Y12514888D01*
X8464328Y12692922D01*
X8312922Y12844328D01*
X8134888Y12963287D01*
X8071338Y12989611D01*
X8072000Y12992940D01*
X8072000Y13207060D01*
X8030228Y13417066D01*
X7948287Y13614888D01*
X7829328Y13792922D01*
X7677922Y13944328D01*
X7657000Y13958308D01*
X7657000Y14784272D01*
X32561849Y14784272D01*
X32866133Y13716795D01*
X33372825Y12729192D01*
X34062453Y11859417D01*
X34908515Y11140894D01*
X35878497Y10601236D01*
X36935123Y10261181D01*
X37122141Y10223980D01*
X38006128Y10293210D01*
X38006128Y15668259D01*
X38260128Y15668259D01*
X38260128Y10293210D01*
X39144115Y10223980D01*
X40211592Y10528264D01*
X41199195Y11034956D01*
X42068970Y11724584D01*
X42787493Y12570646D01*
X43327151Y13540628D01*
X43667206Y14597254D01*
X43704407Y14784272D01*
X43635177Y15668259D01*
X38260128Y15668259D01*
X38006128Y15668259D01*
X32631079Y15668259D01*
X32561849Y14784272D01*
X7657000Y14784272D01*
X7657000Y16806246D01*
X32561849Y16806246D01*
X32631079Y15922259D01*
X38006128Y15922259D01*
X38006128Y21297308D01*
X38260128Y21297308D01*
X38260128Y15922259D01*
X43635177Y15922259D01*
X43704407Y16806246D01*
X43400123Y17873723D01*
X42893431Y18861326D01*
X42203803Y19731101D01*
X41357741Y20449624D01*
X40387759Y20989282D01*
X39331133Y21329337D01*
X39144115Y21366538D01*
X38260128Y21297308D01*
X38006128Y21297308D01*
X37122141Y21366538D01*
X36054664Y21062254D01*
X35067061Y20555562D01*
X34197286Y19865934D01*
X33478763Y19019872D01*
X32939105Y18049890D01*
X32599050Y16993264D01*
X32561849Y16806246D01*
X7657000Y16806246D01*
X7657000Y37122141D01*
X10223980Y37122141D01*
X10528264Y36054664D01*
X11034956Y35067061D01*
X11724584Y34197286D01*
X12570646Y33478763D01*
X13540628Y32939105D01*
X14597254Y32599050D01*
X14784272Y32561849D01*
X15668259Y32631079D01*
X15668259Y38006128D01*
X15922259Y38006128D01*
X15922259Y32631079D01*
X16806246Y32561849D01*
X17873723Y32866133D01*
X18861326Y33372825D01*
X19731101Y34062453D01*
X20449624Y34908515D01*
X20989282Y35878497D01*
X21329337Y36935123D01*
X21366538Y37122141D01*
X21297308Y38006128D01*
X15922259Y38006128D01*
X15668259Y38006128D01*
X10293210Y38006128D01*
X10223980Y37122141D01*
X7657000Y37122141D01*
X7657000Y39144115D01*
X10223980Y39144115D01*
X10293210Y38260128D01*
X15668259Y38260128D01*
X15668259Y43635177D01*
X15922259Y43635177D01*
X15922259Y38260128D01*
X21297308Y38260128D01*
X21366538Y39144115D01*
X21062254Y40211592D01*
X20555562Y41199195D01*
X19865934Y42068970D01*
X19019872Y42787493D01*
X18049890Y43327151D01*
X16993264Y43667206D01*
X16806246Y43704407D01*
X15922259Y43635177D01*
X15668259Y43635177D01*
X14784272Y43704407D01*
X13716795Y43400123D01*
X12729192Y42893431D01*
X11859417Y42203803D01*
X11140894Y41357741D01*
X10601236Y40387759D01*
X10261181Y39331133D01*
X10223980Y39144115D01*
X7657000Y39144115D01*
X7657000Y41406649D01*
X13678303Y47427951D01*
X37476944Y47427951D01*
X37509951Y47424700D01*
X37542958Y47427951D01*
X37641686Y47437675D01*
X37768358Y47476100D01*
X37885100Y47538500D01*
X37987426Y47622476D01*
X38008473Y47648121D01*
X39704655Y49344303D01*
X39730295Y49365345D01*
X39814271Y49467671D01*
X39876671Y49584413D01*
X39907276Y49685306D01*
X39915096Y49711084D01*
X39928071Y49842820D01*
X39924820Y49875827D01*
X39924820Y53624829D01*
X40841483Y52708165D01*
X40862525Y52682525D01*
X40964851Y52598549D01*
X41081593Y52536149D01*
X41153107Y52514456D01*
X41208264Y52497724D01*
X41339999Y52484749D01*
X41373007Y52488000D01*
X51836993Y52488000D01*
X51870000Y52484749D01*
X51903007Y52488000D01*
X52001735Y52497724D01*
X52128407Y52536149D01*
X52245149Y52598549D01*
X52347475Y52682525D01*
X52431451Y52784851D01*
X52493851Y52901593D01*
X52532276Y53028265D01*
X52545251Y53160000D01*
X52542000Y53193007D01*
X52542000Y59863007D01*
X52532276Y59961735D01*
X52493851Y60088407D01*
X52431451Y60205149D01*
X52347475Y60307475D01*
X52321829Y60328522D01*
X50927000Y61723351D01*
X50927000Y61901151D01*
X50887533Y62099565D01*
X50810115Y62286467D01*
X50801073Y62300000D01*
X50810115Y62313533D01*
X50887533Y62500435D01*
X50927000Y62698849D01*
X50927000Y62901151D01*
X50887533Y63099565D01*
X50810115Y63286467D01*
X50801073Y63300000D01*
X50810115Y63313533D01*
X50887533Y63500435D01*
X50927000Y63698849D01*
X50927000Y63901151D01*
X50887533Y64099565D01*
X50810115Y64286467D01*
X50801073Y64300000D01*
X50810115Y64313533D01*
X50887533Y64500435D01*
X50927000Y64698849D01*
X50927000Y64901151D01*
X50887533Y65099565D01*
X50810115Y65286467D01*
X50697723Y65454674D01*
X50554674Y65597723D01*
X50386467Y65710115D01*
X50199565Y65787533D01*
X50001151Y65827000D01*
X49798849Y65827000D01*
X49600435Y65787533D01*
X49413533Y65710115D01*
X49245326Y65597723D01*
X49114018Y65466415D01*
X49087533Y65599565D01*
X49010115Y65786467D01*
X48897723Y65954674D01*
X48754674Y66097723D01*
X48642014Y66173000D01*
X50567640Y66173000D01*
X50769939Y66192925D01*
X51029505Y66271663D01*
X51268721Y66399527D01*
X51478397Y66571603D01*
X51650473Y66781279D01*
X51778337Y67020495D01*
X51857075Y67280061D01*
X51883662Y67550000D01*
X51857075Y67819939D01*
X51778337Y68079505D01*
X51650473Y68318721D01*
X51478397Y68528397D01*
X51268721Y68700473D01*
X51029505Y68828337D01*
X50769939Y68907075D01*
X50567640Y68927000D01*
X47432360Y68927000D01*
X47230061Y68907075D01*
X46970495Y68828337D01*
X46731279Y68700473D01*
X46521603Y68528397D01*
X46349527Y68318721D01*
X46221663Y68079505D01*
X46142925Y67819939D01*
X46116338Y67550000D01*
X46142925Y67280061D01*
X46221663Y67020495D01*
X46349527Y66781279D01*
X46521603Y66571603D01*
X46731279Y66399527D01*
X46970495Y66271663D01*
X47230061Y66192925D01*
X47432360Y66173000D01*
X47557986Y66173000D01*
X47445326Y66097723D01*
X47302277Y65954674D01*
X47189885Y65786467D01*
X47112467Y65599565D01*
X47073000Y65401151D01*
X47073000Y65198849D01*
X47112467Y65000435D01*
X47189885Y64813533D01*
X47195848Y64804609D01*
X47190264Y64803981D01*
X47109423Y64616816D01*
X47066649Y64417477D01*
X47063587Y64213623D01*
X47100353Y64013088D01*
X47175534Y63823580D01*
X47190264Y63796019D01*
X47195848Y63795391D01*
X47189885Y63786467D01*
X47112467Y63599565D01*
X47073000Y63401151D01*
X47073000Y63198849D01*
X47112467Y63000435D01*
X47189885Y62813533D01*
X47198927Y62800000D01*
X47189885Y62786467D01*
X47112467Y62599565D01*
X47073000Y62401151D01*
X47073000Y62198849D01*
X47112467Y62000435D01*
X47189885Y61813533D01*
X47195848Y61804609D01*
X47190264Y61803981D01*
X47109423Y61616816D01*
X47066649Y61417477D01*
X47063587Y61213623D01*
X47100353Y61013088D01*
X47175534Y60823580D01*
X47190264Y60796019D01*
X47195848Y60795391D01*
X47189885Y60786467D01*
X47112467Y60599565D01*
X47073000Y60401151D01*
X47073000Y60198849D01*
X47112467Y60000435D01*
X47189885Y59813533D01*
X47198927Y59800000D01*
X47189885Y59786467D01*
X47112467Y59599565D01*
X47073000Y59401151D01*
X47073000Y59198849D01*
X47112467Y59000435D01*
X47189885Y58813533D01*
X47195848Y58804609D01*
X47190264Y58803981D01*
X47109423Y58616816D01*
X47066649Y58417477D01*
X47063587Y58213623D01*
X47100353Y58013088D01*
X47175534Y57823580D01*
X47190264Y57796019D01*
X47195848Y57795391D01*
X47189885Y57786467D01*
X47112467Y57599565D01*
X47073000Y57401151D01*
X47073000Y57198849D01*
X47112467Y57000435D01*
X47124245Y56972000D01*
X39333007Y56972000D01*
X39299999Y56975251D01*
X39168264Y56962276D01*
X39113107Y56945544D01*
X39041593Y56923851D01*
X38924851Y56861451D01*
X38822525Y56777475D01*
X38801483Y56751835D01*
X37900939Y55851290D01*
X37875299Y55830248D01*
X37800447Y55739040D01*
X37791323Y55727922D01*
X37728923Y55611180D01*
X37690497Y55484508D01*
X37677522Y55352773D01*
X37680774Y55319756D01*
X37680772Y50515696D01*
X36837077Y49672000D01*
X12777392Y49672000D01*
X17478351Y54372959D01*
X24996690Y54372959D01*
X27071483Y52298165D01*
X27092525Y52272525D01*
X27194851Y52188549D01*
X27311593Y52126149D01*
X27383107Y52104456D01*
X27438264Y52087724D01*
X27569999Y52074749D01*
X27603007Y52078000D01*
X32056993Y52078000D01*
X32090000Y52074749D01*
X32123007Y52078000D01*
X32221735Y52087724D01*
X32348407Y52126149D01*
X32465149Y52188549D01*
X32567475Y52272525D01*
X32588522Y52298171D01*
X33321834Y53031483D01*
X33347474Y53052525D01*
X33431451Y53154851D01*
X33493851Y53271593D01*
X33532276Y53398265D01*
X33538598Y53462447D01*
X33545251Y53530000D01*
X33542000Y53563007D01*
X33542000Y59796993D01*
X33545251Y59830000D01*
X33532276Y59961736D01*
X33514078Y60021726D01*
X33493851Y60088407D01*
X33431451Y60205149D01*
X33347475Y60307475D01*
X33321835Y60328517D01*
X31927000Y61723351D01*
X31927000Y61901151D01*
X31887533Y62099565D01*
X31810115Y62286467D01*
X31801073Y62300000D01*
X31810115Y62313533D01*
X31887533Y62500435D01*
X31927000Y62698849D01*
X31927000Y62901151D01*
X31887533Y63099565D01*
X31810115Y63286467D01*
X31801073Y63300000D01*
X31810115Y63313533D01*
X31887533Y63500435D01*
X31927000Y63698849D01*
X31927000Y63901151D01*
X31887533Y64099565D01*
X31810115Y64286467D01*
X31801073Y64300000D01*
X31810115Y64313533D01*
X31887533Y64500435D01*
X31927000Y64698849D01*
X31927000Y64901151D01*
X31887533Y65099565D01*
X31810115Y65286467D01*
X31697723Y65454674D01*
X31554674Y65597723D01*
X31386467Y65710115D01*
X31199565Y65787533D01*
X31001151Y65827000D01*
X30798849Y65827000D01*
X30600435Y65787533D01*
X30413533Y65710115D01*
X30245326Y65597723D01*
X30114018Y65466415D01*
X30087533Y65599565D01*
X30010115Y65786467D01*
X29897723Y65954674D01*
X29754674Y66097723D01*
X29642014Y66173000D01*
X31567640Y66173000D01*
X31769939Y66192925D01*
X32029505Y66271663D01*
X32268721Y66399527D01*
X32478397Y66571603D01*
X32650473Y66781279D01*
X32778337Y67020495D01*
X32857075Y67280061D01*
X32883662Y67550000D01*
X32857075Y67819939D01*
X32778337Y68079505D01*
X32650473Y68318721D01*
X32478397Y68528397D01*
X32268721Y68700473D01*
X32029505Y68828337D01*
X31769939Y68907075D01*
X31567640Y68927000D01*
X28432360Y68927000D01*
X28230061Y68907075D01*
X27970495Y68828337D01*
X27731279Y68700473D01*
X27521603Y68528397D01*
X27349527Y68318721D01*
X27221663Y68079505D01*
X27142925Y67819939D01*
X27116338Y67550000D01*
X27142925Y67280061D01*
X27221663Y67020495D01*
X27349527Y66781279D01*
X27521603Y66571603D01*
X27731279Y66399527D01*
X27970495Y66271663D01*
X28230061Y66192925D01*
X28432360Y66173000D01*
X28557986Y66173000D01*
X28445326Y66097723D01*
X28302277Y65954674D01*
X28189885Y65786467D01*
X28112467Y65599565D01*
X28073000Y65401151D01*
X28073000Y65198849D01*
X28112467Y65000435D01*
X28189885Y64813533D01*
X28195848Y64804609D01*
X28190264Y64803981D01*
X28109423Y64616816D01*
X28066649Y64417477D01*
X28063587Y64213623D01*
X28100353Y64013088D01*
X28175534Y63823580D01*
X28190264Y63796019D01*
X28195848Y63795391D01*
X28189885Y63786467D01*
X28112467Y63599565D01*
X28073000Y63401151D01*
X28073000Y63198849D01*
X28112467Y63000435D01*
X28189885Y62813533D01*
X28198927Y62800000D01*
X28189885Y62786467D01*
X28112467Y62599565D01*
X28073000Y62401151D01*
X28073000Y62198849D01*
X28112467Y62000435D01*
X28189885Y61813533D01*
X28195848Y61804609D01*
X28190264Y61803981D01*
X28109423Y61616816D01*
X28066649Y61417477D01*
X28063587Y61213623D01*
X28100353Y61013088D01*
X28175534Y60823580D01*
X28190264Y60796019D01*
X28195848Y60795391D01*
X28189885Y60786467D01*
X28112467Y60599565D01*
X28073000Y60401151D01*
X28073000Y60198849D01*
X28112467Y60000435D01*
X28189885Y59813533D01*
X28198927Y59800000D01*
X28189885Y59786467D01*
X28112467Y59599565D01*
X28073000Y59401151D01*
X28073000Y59198849D01*
X28112467Y59000435D01*
X28189885Y58813533D01*
X28195848Y58804609D01*
X28190264Y58803981D01*
X28109423Y58616816D01*
X28066649Y58417477D01*
X28063587Y58213623D01*
X28100353Y58013088D01*
X28175534Y57823580D01*
X28190264Y57796019D01*
X28195848Y57795391D01*
X28189885Y57786467D01*
X28112467Y57599565D01*
X28073000Y57401151D01*
X28073000Y57198849D01*
X28112467Y57000435D01*
X28124245Y56972000D01*
X17133004Y56972000D01*
X17099999Y56975251D01*
X17066994Y56972000D01*
X17066993Y56972000D01*
X16968265Y56962276D01*
X16841593Y56923851D01*
X16724851Y56861451D01*
X16622525Y56777475D01*
X16601478Y56751829D01*
X13881915Y54032266D01*
X13883662Y54050000D01*
X13857075Y54319939D01*
X13778337Y54579505D01*
X13650473Y54818721D01*
X13478397Y55028397D01*
X13268721Y55200473D01*
X13060998Y55311503D01*
X13441854Y55692359D01*
X13467494Y55713401D01*
X13551471Y55815727D01*
X13613871Y55932469D01*
X13642857Y56028023D01*
X13652296Y56059140D01*
X13665271Y56190876D01*
X13662020Y56223883D01*
X13662020Y60676973D01*
X13665271Y60709981D01*
X13652296Y60841716D01*
X13637684Y60889885D01*
X13613871Y60968387D01*
X13551471Y61085129D01*
X13467495Y61187455D01*
X13441855Y61208497D01*
X12927000Y61723352D01*
X12927000Y61901151D01*
X12887533Y62099565D01*
X12810115Y62286467D01*
X12801073Y62300000D01*
X12810115Y62313533D01*
X12887533Y62500435D01*
X12927000Y62698849D01*
X12927000Y62901151D01*
X12887533Y63099565D01*
X12810115Y63286467D01*
X12801073Y63300000D01*
X12810115Y63313533D01*
X12887533Y63500435D01*
X12927000Y63698849D01*
X12927000Y63901151D01*
X12887533Y64099565D01*
X12810115Y64286467D01*
X12801073Y64300000D01*
X12810115Y64313533D01*
X12887533Y64500435D01*
X12927000Y64698849D01*
X12927000Y64901151D01*
X12887533Y65099565D01*
X12810115Y65286467D01*
X12697723Y65454674D01*
X12554674Y65597723D01*
X12386467Y65710115D01*
X12199565Y65787533D01*
X12001151Y65827000D01*
X11798849Y65827000D01*
X11600435Y65787533D01*
X11413533Y65710115D01*
X11245326Y65597723D01*
X11114018Y65466415D01*
X11087533Y65599565D01*
X11010115Y65786467D01*
X10897723Y65954674D01*
X10754674Y66097723D01*
X10642014Y66173000D01*
X12567640Y66173000D01*
X12769939Y66192925D01*
X13029505Y66271663D01*
X13268721Y66399527D01*
X13478397Y66571603D01*
X13650473Y66781279D01*
X13778337Y67020495D01*
X13857075Y67280061D01*
X13883662Y67550000D01*
X13857075Y67819939D01*
X13778337Y68079505D01*
X13650473Y68318721D01*
X13478397Y68528397D01*
X13268721Y68700473D01*
X13029505Y68828337D01*
X12769939Y68907075D01*
X12567640Y68927000D01*
X9432360Y68927000D01*
X9230061Y68907075D01*
X8970495Y68828337D01*
X8731279Y68700473D01*
X8521603Y68528397D01*
X8349527Y68318721D01*
X8221663Y68079505D01*
X8142925Y67819939D01*
X8116338Y67550000D01*
X8142925Y67280061D01*
X8221663Y67020495D01*
X8349527Y66781279D01*
X8521603Y66571603D01*
X8731279Y66399527D01*
X8970495Y66271663D01*
X9230061Y66192925D01*
X9432360Y66173000D01*
X9557986Y66173000D01*
X9445326Y66097723D01*
X9302277Y65954674D01*
X9189885Y65786467D01*
X9112467Y65599565D01*
X9073000Y65401151D01*
X9073000Y65198849D01*
X9112467Y65000435D01*
X9189885Y64813533D01*
X9195848Y64804609D01*
X9190264Y64803981D01*
X9109423Y64616816D01*
X9066649Y64417477D01*
X9063587Y64213623D01*
X9100353Y64013088D01*
X9175534Y63823580D01*
X9190264Y63796019D01*
X9195848Y63795391D01*
X9189885Y63786467D01*
X9112467Y63599565D01*
X9073000Y63401151D01*
X9073000Y63198849D01*
X9112467Y63000435D01*
X9189885Y62813533D01*
X9198927Y62800000D01*
X9189885Y62786467D01*
X9112467Y62599565D01*
X9073000Y62401151D01*
X9073000Y62198849D01*
X9112467Y62000435D01*
X9189885Y61813533D01*
X9195848Y61804609D01*
X9190264Y61803981D01*
X9109423Y61616816D01*
X9066649Y61417477D01*
X9063587Y61213623D01*
X9100353Y61013088D01*
X9175534Y60823580D01*
X9190264Y60796019D01*
X9195848Y60795391D01*
X9189885Y60786467D01*
X9112467Y60599565D01*
X9073000Y60401151D01*
X9073000Y60198849D01*
X9112467Y60000435D01*
X9189885Y59813533D01*
X9198927Y59800000D01*
X9189885Y59786467D01*
X9112467Y59599565D01*
X9073000Y59401151D01*
X9073000Y59198849D01*
X9112467Y59000435D01*
X9189885Y58813533D01*
X9195848Y58804609D01*
X9190264Y58803981D01*
X9109423Y58616816D01*
X9066649Y58417477D01*
X9063587Y58213623D01*
X9100353Y58013088D01*
X9175534Y57823580D01*
X9190264Y57796019D01*
X9195848Y57795391D01*
X9189885Y57786467D01*
X9112467Y57599565D01*
X9073000Y57401151D01*
X9073000Y57198849D01*
X9112467Y57000435D01*
X9124245Y56972000D01*
X1133007Y56972000D01*
X1099999Y56975251D01*
X968264Y56962276D01*
X913107Y56945544D01*
X841593Y56923851D01*
X724851Y56861451D01*
X622525Y56777475D01*
X601483Y56751835D01*
X-8071834Y48078517D01*
X-8097474Y48057475D01*
X-8118515Y48031836D01*
X-8181450Y47955149D01*
X-8243850Y47838407D01*
X-8282276Y47711735D01*
X-8295251Y47580000D01*
X-8291999Y47546983D01*
X-8292000Y12858308D01*
X-8312922Y12844328D01*
X-8464328Y12692922D01*
X-8583287Y12514888D01*
X-8665228Y12317066D01*
X-8707000Y12107060D01*
X-8707000Y11892940D01*
X-8665228Y11682934D01*
X-8644177Y11632113D01*
X-8692475Y11592476D01*
X-8776452Y11490150D01*
X-8838852Y11373408D01*
X-8877277Y11246736D01*
X-8887001Y11148008D01*
X-8887001Y11138008D01*
X-8890252Y11105001D01*
X-20663501Y11105001D01*
X-25233855Y15675354D01*
X-25233855Y37122141D01*
X-21366538Y37122141D01*
X-21062254Y36054664D01*
X-20555562Y35067061D01*
X-19865934Y34197286D01*
X-19019872Y33478763D01*
X-18049890Y32939105D01*
X-16993264Y32599050D01*
X-16806246Y32561849D01*
X-15922259Y32631079D01*
X-15922259Y38006128D01*
X-15668259Y38006128D01*
X-15668259Y32631079D01*
X-14784272Y32561849D01*
X-13716795Y32866133D01*
X-12729192Y33372825D01*
X-11859417Y34062453D01*
X-11140894Y34908515D01*
X-10601236Y35878497D01*
X-10261181Y36935123D01*
X-10223980Y37122141D01*
X-10293210Y38006128D01*
X-15668259Y38006128D01*
X-15922259Y38006128D01*
X-21297308Y38006128D01*
X-21366538Y37122141D01*
X-25233855Y37122141D01*
X-25233855Y39144115D01*
X-21366538Y39144115D01*
X-21297308Y38260128D01*
X-15922259Y38260128D01*
X-15922259Y43635177D01*
X-15668259Y43635177D01*
X-15668259Y38260128D01*
X-10293210Y38260128D01*
X-10223980Y39144115D01*
X-10528264Y40211592D01*
X-11034956Y41199195D01*
X-11724584Y42068970D01*
X-12570646Y42787493D01*
X-13540628Y43327151D01*
X-14597254Y43667206D01*
X-14784272Y43704407D01*
X-15668259Y43635177D01*
X-15922259Y43635177D01*
X-16806246Y43704407D01*
X-17873723Y43400123D01*
X-18861326Y42893431D01*
X-19731101Y42203803D01*
X-20449624Y41357741D01*
X-20989282Y40387759D01*
X-21329337Y39331133D01*
X-21366538Y39144115D01*
X-25233855Y39144115D01*
X-25233855Y53119257D01*
X-25224749Y53211709D01*
X-25228000Y53244717D01*
X-25228000Y53321649D01*
X-24286638Y54263010D01*
X-13862682Y54263010D01*
X-13883662Y54050000D01*
X-13857075Y53780061D01*
X-13778337Y53520495D01*
X-13650473Y53281279D01*
X-13478397Y53071603D01*
X-13268721Y52899527D01*
X-13029505Y52771663D01*
X-12769939Y52692925D01*
X-12567640Y52673000D01*
X-9432360Y52673000D01*
X-9230061Y52692925D01*
X-8970495Y52771663D01*
X-8731279Y52899527D01*
X-8521603Y53071603D01*
X-8349527Y53281279D01*
X-8221663Y53520495D01*
X-8142925Y53780061D01*
X-8116338Y54050000D01*
X-8142925Y54319939D01*
X-8221663Y54579505D01*
X-8349527Y54818721D01*
X-8521603Y55028397D01*
X-8731279Y55200473D01*
X-8899901Y55290604D01*
X-8378142Y55812362D01*
X-8352507Y55833400D01*
X-8329501Y55861432D01*
X-8285745Y55914749D01*
X-8268530Y55935726D01*
X-8206130Y56052468D01*
X-8171004Y56168265D01*
X-8167705Y56179139D01*
X-8154730Y56310875D01*
X-8157981Y56343882D01*
X-8157981Y60496974D01*
X-8154730Y60529982D01*
X-8167705Y60661717D01*
X-8192358Y60742987D01*
X-8206130Y60788388D01*
X-8268530Y60905130D01*
X-8352506Y61007456D01*
X-8378146Y61028498D01*
X-9073000Y61723351D01*
X-9073000Y61901151D01*
X-9112467Y62099565D01*
X-9189885Y62286467D01*
X-9198927Y62300000D01*
X-9189885Y62313533D01*
X-9112467Y62500435D01*
X-9073000Y62698849D01*
X-9073000Y62901151D01*
X-9112467Y63099565D01*
X-9189885Y63286467D01*
X-9198927Y63300000D01*
X-9189885Y63313533D01*
X-9112467Y63500435D01*
X-9073000Y63698849D01*
X-9073000Y63901151D01*
X-9112467Y64099565D01*
X-9189885Y64286467D01*
X-9198927Y64300000D01*
X-9189885Y64313533D01*
X-9112467Y64500435D01*
X-9073000Y64698849D01*
X-9073000Y64901151D01*
X-9112467Y65099565D01*
X-9189885Y65286467D01*
X-9302277Y65454674D01*
X-9445326Y65597723D01*
X-9613533Y65710115D01*
X-9800435Y65787533D01*
X-9998849Y65827000D01*
X-10201151Y65827000D01*
X-10399565Y65787533D01*
X-10586467Y65710115D01*
X-10754674Y65597723D01*
X-10885982Y65466415D01*
X-10912467Y65599565D01*
X-10989885Y65786467D01*
X-11102277Y65954674D01*
X-11245326Y66097723D01*
X-11357986Y66173000D01*
X-9432360Y66173000D01*
X-9230061Y66192925D01*
X-8970495Y66271663D01*
X-8731279Y66399527D01*
X-8521603Y66571603D01*
X-8349527Y66781279D01*
X-8221663Y67020495D01*
X-8142925Y67280061D01*
X-8116338Y67550000D01*
X-8142925Y67819939D01*
X-8221663Y68079505D01*
X-8349527Y68318721D01*
X-8521603Y68528397D01*
X-8731279Y68700473D01*
X-8970495Y68828337D01*
X-9230061Y68907075D01*
X-9432360Y68927000D01*
X-12567640Y68927000D01*
X-12769939Y68907075D01*
X-13029505Y68828337D01*
X-13268721Y68700473D01*
X-13478397Y68528397D01*
X-13650473Y68318721D01*
X-13778337Y68079505D01*
X-13857075Y67819939D01*
X-13883662Y67550000D01*
X-13857075Y67280061D01*
X-13778337Y67020495D01*
X-13650473Y66781279D01*
X-13478397Y66571603D01*
X-13268721Y66399527D01*
X-13029505Y66271663D01*
X-12769939Y66192925D01*
X-12567640Y66173000D01*
X-12442014Y66173000D01*
X-12554674Y66097723D01*
X-12697723Y65954674D01*
X-12810115Y65786467D01*
X-12887533Y65599565D01*
X-12927000Y65401151D01*
X-12927000Y65198849D01*
X-12887533Y65000435D01*
X-12810115Y64813533D01*
X-12804152Y64804609D01*
X-12809736Y64803981D01*
X-12890577Y64616816D01*
X-12933351Y64417477D01*
X-12936413Y64213623D01*
X-12899647Y64013088D01*
X-12824466Y63823580D01*
X-12809736Y63796019D01*
X-12804152Y63795391D01*
X-12810115Y63786467D01*
X-12887533Y63599565D01*
X-12927000Y63401151D01*
X-12927000Y63198849D01*
X-12887533Y63000435D01*
X-12810115Y62813533D01*
X-12801073Y62800000D01*
X-12810115Y62786467D01*
X-12887533Y62599565D01*
X-12927000Y62401151D01*
X-12927000Y62198849D01*
X-12887533Y62000435D01*
X-12810115Y61813533D01*
X-12804152Y61804609D01*
X-12809736Y61803981D01*
X-12890577Y61616816D01*
X-12933351Y61417477D01*
X-12936413Y61213623D01*
X-12899647Y61013088D01*
X-12824466Y60823580D01*
X-12809736Y60796019D01*
X-12804152Y60795391D01*
X-12810115Y60786467D01*
X-12887533Y60599565D01*
X-12927000Y60401151D01*
X-12927000Y60198849D01*
X-12887533Y60000435D01*
X-12810115Y59813533D01*
X-12801073Y59800000D01*
X-12810115Y59786467D01*
X-12887533Y59599565D01*
X-12927000Y59401151D01*
X-12927000Y59198849D01*
X-12887533Y59000435D01*
X-12810115Y58813533D01*
X-12804152Y58804609D01*
X-12809736Y58803981D01*
X-12890577Y58616816D01*
X-12933351Y58417477D01*
X-12936413Y58213623D01*
X-12899647Y58013088D01*
X-12824466Y57823580D01*
X-12809736Y57796019D01*
X-12804152Y57795391D01*
X-12810115Y57786467D01*
X-12887533Y57599565D01*
X-12927000Y57401151D01*
X-12927000Y57198849D01*
X-12887533Y57000435D01*
X-12875755Y56972000D01*
X-24466993Y56972000D01*
X-24500000Y56975251D01*
X-24631736Y56962276D01*
X-24644134Y56958515D01*
X-24758407Y56923851D01*
X-24875149Y56861451D01*
X-24977475Y56777475D01*
X-24998517Y56751835D01*
X-26402960Y55347391D01*
X-26402960Y59741953D01*
X-26399709Y59774961D01*
X-26412684Y59906696D01*
X-26431401Y59968398D01*
X-26451109Y60033367D01*
X-26513509Y60150109D01*
X-26562755Y60210115D01*
X-26576445Y60226797D01*
X-26576447Y60226799D01*
X-26597486Y60252435D01*
X-26623121Y60273473D01*
X-28073000Y61723351D01*
X-28073000Y61901151D01*
X-28112467Y62099565D01*
X-28189885Y62286467D01*
X-28198927Y62300000D01*
X-28189885Y62313533D01*
X-28112467Y62500435D01*
X-28073000Y62698849D01*
X-28073000Y62901151D01*
X-28112467Y63099565D01*
X-28189885Y63286467D01*
X-28198927Y63300000D01*
X-28189885Y63313533D01*
X-28112467Y63500435D01*
X-28073000Y63698849D01*
X-28073000Y63901151D01*
X-28112467Y64099565D01*
X-28189885Y64286467D01*
X-28198927Y64300000D01*
X-28189885Y64313533D01*
X-28112467Y64500435D01*
X-28073000Y64698849D01*
X-28073000Y64901151D01*
X-28112467Y65099565D01*
X-28189885Y65286467D01*
X-28302277Y65454674D01*
X-28445326Y65597723D01*
X-28613533Y65710115D01*
X-28800435Y65787533D01*
X-28998849Y65827000D01*
X-29201151Y65827000D01*
X-29399565Y65787533D01*
X-29586467Y65710115D01*
X-29754674Y65597723D01*
X-29885982Y65466415D01*
X-29912467Y65599565D01*
X-29989885Y65786467D01*
X-30102277Y65954674D01*
X-30245326Y66097723D01*
X-30357986Y66173000D01*
X-28432360Y66173000D01*
X-28230061Y66192925D01*
X-27970495Y66271663D01*
X-27731279Y66399527D01*
X-27521603Y66571603D01*
X-27349527Y66781279D01*
X-27221663Y67020495D01*
X-27142925Y67280061D01*
X-27116338Y67550000D01*
X-27142925Y67819939D01*
X-27221663Y68079505D01*
X-27349527Y68318721D01*
X-27521603Y68528397D01*
X-27731279Y68700473D01*
X-27970495Y68828337D01*
X-28230061Y68907075D01*
X-28432360Y68927000D01*
X-31567640Y68927000D01*
X-31769939Y68907075D01*
X-32029505Y68828337D01*
X-32268721Y68700473D01*
X-32478397Y68528397D01*
X-32650473Y68318721D01*
X-32778337Y68079505D01*
X-32857075Y67819939D01*
X-32883662Y67550000D01*
X-32857075Y67280061D01*
X-32778337Y67020495D01*
X-32650473Y66781279D01*
X-32478397Y66571603D01*
X-32268721Y66399527D01*
X-32029505Y66271663D01*
X-31769939Y66192925D01*
X-31567640Y66173000D01*
X-31442014Y66173000D01*
X-31554674Y66097723D01*
X-31697723Y65954674D01*
X-31810115Y65786467D01*
X-31887533Y65599565D01*
X-31927000Y65401151D01*
X-31927000Y65198849D01*
X-31887533Y65000435D01*
X-31810115Y64813533D01*
X-31804152Y64804609D01*
X-31809736Y64803981D01*
X-31890577Y64616816D01*
X-31933351Y64417477D01*
X-31936413Y64213623D01*
X-31899647Y64013088D01*
X-31824466Y63823580D01*
X-31809736Y63796019D01*
X-31804152Y63795391D01*
X-31810115Y63786467D01*
X-31887533Y63599565D01*
X-31927000Y63401151D01*
X-31927000Y63198849D01*
X-31887533Y63000435D01*
X-31810115Y62813533D01*
X-31801073Y62800000D01*
X-31810115Y62786467D01*
X-31887533Y62599565D01*
X-31927000Y62401151D01*
X-31927000Y62198849D01*
X-31887533Y62000435D01*
X-31810115Y61813533D01*
X-31804152Y61804609D01*
X-31809736Y61803981D01*
X-31890577Y61616816D01*
X-31933351Y61417477D01*
X-31936413Y61213623D01*
X-31899647Y61013088D01*
X-31824466Y60823580D01*
X-31809736Y60796019D01*
X-31804152Y60795391D01*
X-31810115Y60786467D01*
X-31887533Y60599565D01*
X-31927000Y60401151D01*
X-31927000Y60198849D01*
X-31887533Y60000435D01*
X-31810115Y59813533D01*
X-31801073Y59800000D01*
X-31810115Y59786467D01*
X-31887533Y59599565D01*
X-31927000Y59401151D01*
X-31927000Y59198849D01*
X-31887533Y59000435D01*
X-31810115Y58813533D01*
X-31804152Y58804609D01*
X-31809736Y58803981D01*
X-31890577Y58616816D01*
X-31933351Y58417477D01*
X-31936413Y58213623D01*
X-31899647Y58013088D01*
X-31824466Y57823580D01*
X-31809736Y57796019D01*
X-31804152Y57795391D01*
X-31810115Y57786467D01*
X-31887533Y57599565D01*
X-31927000Y57401151D01*
X-31927000Y57198849D01*
X-31887533Y57000435D01*
X-31810115Y56813533D01*
X-31801073Y56800000D01*
X-31810115Y56786467D01*
X-31887533Y56599565D01*
X-31927000Y56401151D01*
X-31927000Y56223352D01*
X-33031844Y55118507D01*
X-33057485Y55097464D01*
X-33141461Y54995138D01*
X-33203861Y54878396D01*
X-33228335Y54797716D01*
X-33242286Y54751725D01*
X-33255261Y54619990D01*
X-33252010Y54586983D01*
X-33252009Y20602360D01*
X-45402960Y32753311D01*
X-45402960Y59741953D01*
X-45399709Y59774961D01*
X-45412684Y59906696D01*
X-45431401Y59968399D01*
X-45451109Y60033367D01*
X-45513509Y60150109D01*
X-45597485Y60252435D01*
X-45623125Y60273477D01*
X-47073000Y61723351D01*
X-47073000Y61901151D01*
X-47112467Y62099565D01*
X-47189885Y62286467D01*
X-47198927Y62300000D01*
X-47189885Y62313533D01*
X-47112467Y62500435D01*
X-47073000Y62698849D01*
X-47073000Y62901151D01*
X-47112467Y63099565D01*
X-47189885Y63286467D01*
X-47198927Y63300000D01*
X-47189885Y63313533D01*
X-47112467Y63500435D01*
X-47073000Y63698849D01*
X-47073000Y63901151D01*
X-47112467Y64099565D01*
X-47189885Y64286467D01*
X-47198927Y64300000D01*
X-47189885Y64313533D01*
X-47112467Y64500435D01*
X-47073000Y64698849D01*
X-47073000Y64901151D01*
X-47112467Y65099565D01*
X-47189885Y65286467D01*
X-47302277Y65454674D01*
X-47445326Y65597723D01*
X-47613533Y65710115D01*
X-47800435Y65787533D01*
X-47998849Y65827000D01*
X-48201151Y65827000D01*
X-48399565Y65787533D01*
X-48586467Y65710115D01*
X-48754674Y65597723D01*
X-48885982Y65466415D01*
X-48912467Y65599565D01*
X-48989885Y65786467D01*
X-49102277Y65954674D01*
X-49245326Y66097723D01*
X-49357986Y66173000D01*
X-47432360Y66173000D01*
X-47230061Y66192925D01*
X-46970495Y66271663D01*
X-46731279Y66399527D01*
X-46521603Y66571603D01*
X-46349527Y66781279D01*
X-46221663Y67020495D01*
X-46142925Y67280061D01*
X-46116338Y67550000D01*
X-46142925Y67819939D01*
X-46221663Y68079505D01*
X-46349527Y68318721D01*
X-46521603Y68528397D01*
X-46731279Y68700473D01*
X-46970495Y68828337D01*
X-47230061Y68907075D01*
X-47432360Y68927000D01*
X-50567640Y68927000D01*
X-50769939Y68907075D01*
X-51029505Y68828337D01*
X-51268721Y68700473D01*
X-51478397Y68528397D01*
X-51650473Y68318721D01*
X-51778337Y68079505D01*
X-51857075Y67819939D01*
X-51883662Y67550000D01*
X-51857075Y67280061D01*
X-51778337Y67020495D01*
X-51650473Y66781279D01*
X-51478397Y66571603D01*
X-51268721Y66399527D01*
X-51029505Y66271663D01*
X-50769939Y66192925D01*
X-50567640Y66173000D01*
X-50442014Y66173000D01*
X-50554674Y66097723D01*
X-50697723Y65954674D01*
X-50810115Y65786467D01*
X-50887533Y65599565D01*
X-50927000Y65401151D01*
X-50927000Y65198849D01*
X-50887533Y65000435D01*
X-50810115Y64813533D01*
X-50804152Y64804609D01*
X-50809736Y64803981D01*
X-50890577Y64616816D01*
X-50933351Y64417477D01*
X-50936413Y64213623D01*
X-50899647Y64013088D01*
X-50824466Y63823580D01*
X-50809736Y63796019D01*
X-50804152Y63795391D01*
X-50810115Y63786467D01*
X-50887533Y63599565D01*
X-50927000Y63401151D01*
X-50927000Y63198849D01*
X-50887533Y63000435D01*
X-50810115Y62813533D01*
X-50801073Y62800000D01*
X-50810115Y62786467D01*
X-50887533Y62599565D01*
X-50927000Y62401151D01*
X-50927000Y62198849D01*
X-50887533Y62000435D01*
X-50810115Y61813533D01*
X-50804152Y61804609D01*
X-50809736Y61803981D01*
X-50890577Y61616816D01*
X-50933351Y61417477D01*
X-50936413Y61213623D01*
X-50899647Y61013088D01*
X-50824466Y60823580D01*
X-50809736Y60796019D01*
X-50804152Y60795391D01*
X-50810115Y60786467D01*
X-50887533Y60599565D01*
X-50927000Y60401151D01*
X-50927000Y60198849D01*
X-50887533Y60000435D01*
X-50810115Y59813533D01*
X-50801073Y59800000D01*
X-50810115Y59786467D01*
X-50887533Y59599565D01*
X-50927000Y59401151D01*
X-50927000Y59198849D01*
X-50887533Y59000435D01*
X-50810115Y58813533D01*
X-50804152Y58804609D01*
X-50809736Y58803981D01*
X-50890577Y58616816D01*
X-50933351Y58417477D01*
X-50936413Y58213623D01*
X-50899647Y58013088D01*
X-50824466Y57823580D01*
X-50809736Y57796019D01*
X-50804152Y57795391D01*
X-50810115Y57786467D01*
X-50887533Y57599565D01*
X-50927000Y57401151D01*
X-50927000Y57198849D01*
X-50887533Y57000435D01*
X-50810115Y56813533D01*
X-50801073Y56800000D01*
X-50810115Y56786467D01*
X-50887533Y56599565D01*
X-50927000Y56401151D01*
X-50927000Y56223352D01*
X-52041834Y55108517D01*
X-52067475Y55087474D01*
X-52151451Y54985148D01*
X-52213851Y54868406D01*
X-52240326Y54781130D01*
X-52252276Y54741735D01*
X-52265251Y54610000D01*
X-55348000Y54610000D01*
X-55348000Y73848000D01*
X55348000Y73848000D01*
X55348001Y-43729932D01*
G37*
%TD.AperFunction*%
D15*
X-14906253Y-67014143D02*
X-15085858Y-67193748D01*
X-15100000Y-67179605D01*
X-15114143Y-67193748D01*
X-15287990Y-67019900D01*
X-15287990Y-67009727D01*
X-15201151Y-67027000D01*
X-14998849Y-67027000D01*
X-14910891Y-67009504D01*
X-14906253Y-67014143D01*
%TA.AperFunction,Conductor*%
D16*
G36*
X-14906253Y-67014143D02*
G01*
X-15085858Y-67193748D01*
X-15100000Y-67179605D01*
X-15114143Y-67193748D01*
X-15287990Y-67019900D01*
X-15287990Y-67009727D01*
X-15201151Y-67027000D01*
X-14998849Y-67027000D01*
X-14910891Y-67009504D01*
X-14906253Y-67014143D01*
G37*
%TD.AperFunction*%
D15*
X-29201151Y56773000D02*
X-29023351Y56773000D01*
X-28286990Y56036638D01*
X-28286990Y55412682D01*
X-28432360Y55427000D01*
X-29408442Y55427000D01*
X-29387372Y55496460D01*
X-29377724Y55528264D01*
X-29364749Y55660000D01*
X-29368000Y55693007D01*
X-29368000Y55798948D01*
X-29217477Y55766649D01*
X-29013623Y55763587D01*
X-28813088Y55800353D01*
X-28623580Y55875534D01*
X-28596019Y55890264D01*
X-28573164Y56093559D01*
X-29100000Y56620395D01*
X-29114143Y56606253D01*
X-29293748Y56785858D01*
X-29289109Y56790496D01*
X-29201151Y56773000D01*
%TA.AperFunction,Conductor*%
D16*
G36*
X-29201151Y56773000D02*
G01*
X-29023351Y56773000D01*
X-28286990Y56036638D01*
X-28286990Y55412682D01*
X-28432360Y55427000D01*
X-29408442Y55427000D01*
X-29387372Y55496460D01*
X-29377724Y55528264D01*
X-29364749Y55660000D01*
X-29368000Y55693007D01*
X-29368000Y55798948D01*
X-29217477Y55766649D01*
X-29013623Y55763587D01*
X-28813088Y55800353D01*
X-28623580Y55875534D01*
X-28596019Y55890264D01*
X-28573164Y56093559D01*
X-29100000Y56620395D01*
X-29114143Y56606253D01*
X-29293748Y56785858D01*
X-29289109Y56790496D01*
X-29201151Y56773000D01*
G37*
%TD.AperFunction*%
D15*
X-48201151Y56773000D02*
X-48023351Y56773000D01*
X-47286989Y56036637D01*
X-47286989Y55412682D01*
X-47432360Y55427000D01*
X-48525409Y55427000D01*
X-48497724Y55518265D01*
X-48496301Y55532714D01*
X-48484749Y55649999D01*
X-48488000Y55683007D01*
X-48488000Y55840169D01*
X-48416816Y55809423D01*
X-48217477Y55766649D01*
X-48013623Y55763587D01*
X-47813088Y55800353D01*
X-47623580Y55875534D01*
X-47596019Y55890264D01*
X-47573164Y56093559D01*
X-48100000Y56620395D01*
X-48114143Y56606253D01*
X-48293748Y56785858D01*
X-48289109Y56790496D01*
X-48201151Y56773000D01*
%TA.AperFunction,Conductor*%
D16*
G36*
X-48201151Y56773000D02*
G01*
X-48023351Y56773000D01*
X-47286989Y56036637D01*
X-47286989Y55412682D01*
X-47432360Y55427000D01*
X-48525409Y55427000D01*
X-48497724Y55518265D01*
X-48496301Y55532714D01*
X-48484749Y55649999D01*
X-48488000Y55683007D01*
X-48488000Y55840169D01*
X-48416816Y55809423D01*
X-48217477Y55766649D01*
X-48013623Y55763587D01*
X-47813088Y55800353D01*
X-47623580Y55875534D01*
X-47596019Y55890264D01*
X-47573164Y56093559D01*
X-48100000Y56620395D01*
X-48114143Y56606253D01*
X-48293748Y56785858D01*
X-48289109Y56790496D01*
X-48201151Y56773000D01*
G37*
%TD.AperFunction*%
D15*
X-9906253Y56785858D02*
X-10085858Y56606253D01*
X-10100000Y56620395D01*
X-10114143Y56606253D01*
X-10293748Y56785858D01*
X-10289109Y56790496D01*
X-10201151Y56773000D01*
X-9998849Y56773000D01*
X-9910891Y56790496D01*
X-9906253Y56785858D01*
%TA.AperFunction,Conductor*%
D16*
G36*
X-9906253Y56785858D02*
G01*
X-10085858Y56606253D01*
X-10100000Y56620395D01*
X-10114143Y56606253D01*
X-10293748Y56785858D01*
X-10289109Y56790496D01*
X-10201151Y56773000D01*
X-9998849Y56773000D01*
X-9910891Y56790496D01*
X-9906253Y56785858D01*
G37*
%TD.AperFunction*%
D15*
X50093748Y56785858D02*
X49914143Y56606253D01*
X49900000Y56620395D01*
X49885858Y56606253D01*
X49822009Y56670101D01*
X49822009Y56773000D01*
X50001151Y56773000D01*
X50089109Y56790496D01*
X50093748Y56785858D01*
%TA.AperFunction,Conductor*%
D16*
G36*
X50093748Y56785858D02*
G01*
X49914143Y56606253D01*
X49900000Y56620395D01*
X49885858Y56606253D01*
X49822009Y56670101D01*
X49822009Y56773000D01*
X50001151Y56773000D01*
X50089109Y56790496D01*
X50093748Y56785858D01*
G37*
%TD.AperFunction*%
D15*
X31093748Y56785858D02*
X30914143Y56606253D01*
X30900000Y56620395D01*
X30885858Y56606253D01*
X30706253Y56785858D01*
X30710891Y56790496D01*
X30798849Y56773000D01*
X31001151Y56773000D01*
X31089109Y56790496D01*
X31093748Y56785858D01*
%TA.AperFunction,Conductor*%
D16*
G36*
X31093748Y56785858D02*
G01*
X30914143Y56606253D01*
X30900000Y56620395D01*
X30885858Y56606253D01*
X30706253Y56785858D01*
X30710891Y56790496D01*
X30798849Y56773000D01*
X31001151Y56773000D01*
X31089109Y56790496D01*
X31093748Y56785858D01*
G37*
%TD.AperFunction*%
D15*
X11798849Y56773000D02*
X11958000Y56773000D01*
X11958000Y56650110D01*
X11914143Y56606253D01*
X11900000Y56620395D01*
X11885858Y56606253D01*
X11706253Y56785858D01*
X11710891Y56790496D01*
X11798849Y56773000D01*
%TA.AperFunction,Conductor*%
D16*
G36*
X11798849Y56773000D02*
G01*
X11958000Y56773000D01*
X11958000Y56650110D01*
X11914143Y56606253D01*
X11900000Y56620395D01*
X11885858Y56606253D01*
X11706253Y56785858D01*
X11710891Y56790496D01*
X11798849Y56773000D01*
G37*
%TD.AperFunction*%
%TD*%
M02*
