%TF.GenerationSoftware,KiCad,Pcbnew,(5.1.10)-1*%
%TF.CreationDate,2022-04-08T13:19:25-06:00*%
%TF.ProjectId,VacuumFeedThruHDMI,56616375-756d-4466-9565-645468727548,rev?*%
%TF.SameCoordinates,Original*%
%TF.FileFunction,Other,Fab,Bot*%
%FSLAX46Y46*%
G04 Gerber Fmt 4.6, Leading zero omitted, Abs format (unit mm)*
G04 Created by KiCad (PCBNEW (5.1.10)-1) date 2022-04-08 13:19:25*
%MOMM*%
%LPD*%
G01*
G04 APERTURE LIST*
%ADD10C,0.150000*%
G04 APERTURE END LIST*
%TO.C,M3*%
D10*
X5314285Y-14532857D02*
X5314285Y-13332857D01*
X4914285Y-14190000D01*
X4514285Y-13332857D01*
X4514285Y-14532857D01*
X3428571Y-14532857D02*
X3428571Y-13904285D01*
X3485714Y-13790000D01*
X3599999Y-13732857D01*
X3828571Y-13732857D01*
X3942857Y-13790000D01*
X3428571Y-14475714D02*
X3542857Y-14532857D01*
X3828571Y-14532857D01*
X3942857Y-14475714D01*
X3999999Y-14361428D01*
X3999999Y-14247142D01*
X3942857Y-14132857D01*
X3828571Y-14075714D01*
X3542857Y-14075714D01*
X3428571Y-14018571D01*
X2685714Y-14532857D02*
X2799999Y-14475714D01*
X2857142Y-14361428D01*
X2857142Y-13332857D01*
X1771428Y-14475714D02*
X1885714Y-14532857D01*
X2114285Y-14532857D01*
X2228571Y-14475714D01*
X2285714Y-14361428D01*
X2285714Y-13904285D01*
X2228571Y-13790000D01*
X2114285Y-13732857D01*
X1885714Y-13732857D01*
X1771428Y-13790000D01*
X1714285Y-13904285D01*
X1714285Y-14018571D01*
X2285714Y-14132857D01*
X-571428Y-13275714D02*
X457142Y-14818571D01*
X-1885714Y-14532857D02*
X-1885714Y-13332857D01*
X-2342857Y-13332857D01*
X-2457142Y-13390000D01*
X-2514285Y-13447142D01*
X-2571428Y-13561428D01*
X-2571428Y-13732857D01*
X-2514285Y-13847142D01*
X-2457142Y-13904285D01*
X-2342857Y-13961428D01*
X-1885714Y-13961428D01*
X-3257142Y-14532857D02*
X-3142857Y-14475714D01*
X-3085714Y-14361428D01*
X-3085714Y-13332857D01*
X-4228571Y-13732857D02*
X-4228571Y-14532857D01*
X-3714285Y-13732857D02*
X-3714285Y-14361428D01*
X-3771428Y-14475714D01*
X-3885714Y-14532857D01*
X-4057142Y-14532857D01*
X-4171428Y-14475714D01*
X-4228571Y-14418571D01*
X-5314285Y-13732857D02*
X-5314285Y-14704285D01*
X-5257142Y-14818571D01*
X-5199999Y-14875714D01*
X-5085714Y-14932857D01*
X-4914285Y-14932857D01*
X-4799999Y-14875714D01*
X-5314285Y-14475714D02*
X-5199999Y-14532857D01*
X-4971428Y-14532857D01*
X-4857142Y-14475714D01*
X-4799999Y-14418571D01*
X-4742857Y-14304285D01*
X-4742857Y-13961428D01*
X-4799999Y-13847142D01*
X-4857142Y-13790000D01*
X-4971428Y-13732857D01*
X-5199999Y-13732857D01*
X-5314285Y-13790000D01*
%TO.C,M2*%
X5314285Y-2532857D02*
X5314285Y-1332857D01*
X4914285Y-2190000D01*
X4514285Y-1332857D01*
X4514285Y-2532857D01*
X3428571Y-2532857D02*
X3428571Y-1904285D01*
X3485714Y-1790000D01*
X3599999Y-1732857D01*
X3828571Y-1732857D01*
X3942857Y-1790000D01*
X3428571Y-2475714D02*
X3542857Y-2532857D01*
X3828571Y-2532857D01*
X3942857Y-2475714D01*
X3999999Y-2361428D01*
X3999999Y-2247142D01*
X3942857Y-2132857D01*
X3828571Y-2075714D01*
X3542857Y-2075714D01*
X3428571Y-2018571D01*
X2685714Y-2532857D02*
X2799999Y-2475714D01*
X2857142Y-2361428D01*
X2857142Y-1332857D01*
X1771428Y-2475714D02*
X1885714Y-2532857D01*
X2114285Y-2532857D01*
X2228571Y-2475714D01*
X2285714Y-2361428D01*
X2285714Y-1904285D01*
X2228571Y-1790000D01*
X2114285Y-1732857D01*
X1885714Y-1732857D01*
X1771428Y-1790000D01*
X1714285Y-1904285D01*
X1714285Y-2018571D01*
X2285714Y-2132857D01*
X-571428Y-1275714D02*
X457142Y-2818571D01*
X-1885714Y-2532857D02*
X-1885714Y-1332857D01*
X-2342857Y-1332857D01*
X-2457142Y-1390000D01*
X-2514285Y-1447142D01*
X-2571428Y-1561428D01*
X-2571428Y-1732857D01*
X-2514285Y-1847142D01*
X-2457142Y-1904285D01*
X-2342857Y-1961428D01*
X-1885714Y-1961428D01*
X-3257142Y-2532857D02*
X-3142857Y-2475714D01*
X-3085714Y-2361428D01*
X-3085714Y-1332857D01*
X-4228571Y-1732857D02*
X-4228571Y-2532857D01*
X-3714285Y-1732857D02*
X-3714285Y-2361428D01*
X-3771428Y-2475714D01*
X-3885714Y-2532857D01*
X-4057142Y-2532857D01*
X-4171428Y-2475714D01*
X-4228571Y-2418571D01*
X-5314285Y-1732857D02*
X-5314285Y-2704285D01*
X-5257142Y-2818571D01*
X-5199999Y-2875714D01*
X-5085714Y-2932857D01*
X-4914285Y-2932857D01*
X-4799999Y-2875714D01*
X-5314285Y-2475714D02*
X-5199999Y-2532857D01*
X-4971428Y-2532857D01*
X-4857142Y-2475714D01*
X-4799999Y-2418571D01*
X-4742857Y-2304285D01*
X-4742857Y-1961428D01*
X-4799999Y-1847142D01*
X-4857142Y-1790000D01*
X-4971428Y-1732857D01*
X-5199999Y-1732857D01*
X-5314285Y-1790000D01*
%TO.C,M1*%
X5314285Y9467142D02*
X5314285Y10667142D01*
X4914285Y9810000D01*
X4514285Y10667142D01*
X4514285Y9467142D01*
X3428571Y9467142D02*
X3428571Y10095714D01*
X3485714Y10210000D01*
X3599999Y10267142D01*
X3828571Y10267142D01*
X3942857Y10210000D01*
X3428571Y9524285D02*
X3542857Y9467142D01*
X3828571Y9467142D01*
X3942857Y9524285D01*
X3999999Y9638571D01*
X3999999Y9752857D01*
X3942857Y9867142D01*
X3828571Y9924285D01*
X3542857Y9924285D01*
X3428571Y9981428D01*
X2685714Y9467142D02*
X2799999Y9524285D01*
X2857142Y9638571D01*
X2857142Y10667142D01*
X1771428Y9524285D02*
X1885714Y9467142D01*
X2114285Y9467142D01*
X2228571Y9524285D01*
X2285714Y9638571D01*
X2285714Y10095714D01*
X2228571Y10210000D01*
X2114285Y10267142D01*
X1885714Y10267142D01*
X1771428Y10210000D01*
X1714285Y10095714D01*
X1714285Y9981428D01*
X2285714Y9867142D01*
X-571428Y10724285D02*
X457142Y9181428D01*
X-1885714Y9467142D02*
X-1885714Y10667142D01*
X-2342857Y10667142D01*
X-2457142Y10610000D01*
X-2514285Y10552857D01*
X-2571428Y10438571D01*
X-2571428Y10267142D01*
X-2514285Y10152857D01*
X-2457142Y10095714D01*
X-2342857Y10038571D01*
X-1885714Y10038571D01*
X-3257142Y9467142D02*
X-3142857Y9524285D01*
X-3085714Y9638571D01*
X-3085714Y10667142D01*
X-4228571Y10267142D02*
X-4228571Y9467142D01*
X-3714285Y10267142D02*
X-3714285Y9638571D01*
X-3771428Y9524285D01*
X-3885714Y9467142D01*
X-4057142Y9467142D01*
X-4171428Y9524285D01*
X-4228571Y9581428D01*
X-5314285Y10267142D02*
X-5314285Y9295714D01*
X-5257142Y9181428D01*
X-5199999Y9124285D01*
X-5085714Y9067142D01*
X-4914285Y9067142D01*
X-4799999Y9124285D01*
X-5314285Y9524285D02*
X-5199999Y9467142D01*
X-4971428Y9467142D01*
X-4857142Y9524285D01*
X-4799999Y9581428D01*
X-4742857Y9695714D01*
X-4742857Y10038571D01*
X-4799999Y10152857D01*
X-4857142Y10210000D01*
X-4971428Y10267142D01*
X-5199999Y10267142D01*
X-5314285Y10210000D01*
%TD*%
M02*
