%TF.GenerationSoftware,KiCad,Pcbnew,(5.1.9)-1*%
%TF.CreationDate,2021-08-10T11:53:15-06:00*%
%TF.ProjectId,VacuumFeedThruHDMI,56616375-756d-4466-9565-645468727548,rev?*%
%TF.SameCoordinates,Original*%
%TF.FileFunction,Copper,L3,Inr*%
%TF.FilePolarity,Positive*%
%FSLAX46Y46*%
G04 Gerber Fmt 4.6, Leading zero omitted, Abs format (unit mm)*
G04 Created by KiCad (PCBNEW (5.1.9)-1) date 2021-08-10 11:53:15*
%MOMM*%
%LPD*%
G01*
G04 APERTURE LIST*
%TA.AperFunction,ComponentPad*%
%ADD10O,4.500000X1.500000*%
%TD*%
%TA.AperFunction,ComponentPad*%
%ADD11C,0.800000*%
%TD*%
%TA.AperFunction,ComponentPad*%
%ADD12O,2.810000X2.810000*%
%TD*%
%TA.AperFunction,ComponentPad*%
%ADD13O,0.920000X0.920000*%
%TD*%
%TA.AperFunction,ComponentPad*%
%ADD14O,1.500000X4.500000*%
%TD*%
%TA.AperFunction,ComponentPad*%
%ADD15C,10.000000*%
%TD*%
%TA.AperFunction,Conductor*%
%ADD16C,0.090000*%
%TD*%
%TA.AperFunction,Conductor*%
%ADD17C,0.254000*%
%TD*%
%TA.AperFunction,Conductor*%
%ADD18C,0.100000*%
%TD*%
G04 APERTURE END LIST*
D10*
%TO.N,N/C*%
%TO.C,J3_(9:12)*%
X16000000Y-56250000D03*
X16000000Y-69750000D03*
D11*
%TO.N,Net-(J11-Pad19)*%
X15100000Y-58500000D03*
%TO.N,Net-(J11-Pad18)*%
X16900000Y-59000000D03*
%TO.N,GND*%
X15100000Y-59500000D03*
%TO.N,Net-(J11-Pad16)*%
X16900000Y-60000000D03*
%TO.N,Net-(J11-Pad15)*%
X15100000Y-60500000D03*
%TO.N,Net-(J11-Pad14)*%
X16900000Y-61000000D03*
%TO.N,Net-(J11-Pad13)*%
X15100000Y-61500000D03*
%TO.N,Net-(J11-Pad12)*%
X16900000Y-62000000D03*
%TO.N,GND*%
X15100000Y-62500000D03*
%TO.N,Net-(J11-Pad10)*%
X16900000Y-63000000D03*
%TO.N,Net-(J11-Pad9)*%
X15100000Y-63500000D03*
%TO.N,GND*%
X16900000Y-64000000D03*
%TO.N,Net-(J11-Pad7)*%
X15100000Y-64500000D03*
%TO.N,Net-(J11-Pad6)*%
X16900000Y-65000000D03*
%TO.N,GND*%
X15100000Y-65500000D03*
%TO.N,Net-(J11-Pad4)*%
X16900000Y-66000000D03*
%TO.N,Net-(J11-Pad3)*%
X15100000Y-66500000D03*
%TO.N,GND*%
X16900000Y-67000000D03*
%TO.N,Net-(J11-Pad1)*%
X15100000Y-67500000D03*
%TD*%
D12*
%TO.N,N/C*%
%TO.C,J3*%
X-12275000Y-11450000D03*
X12275000Y-11450000D03*
D13*
%TO.N,Net-(J12-Pad13)*%
X7620000Y-12000000D03*
%TO.N,Net-(J11-Pad12)*%
X6985000Y-10900000D03*
%TO.N,Net-(J11-Pad10)*%
X6350000Y-12000000D03*
%TO.N,Net-(J11-Pad9)*%
X5715000Y-10900000D03*
%TO.N,Net-(J11-Pad7)*%
X5080000Y-12000000D03*
%TO.N,Net-(J11-Pad6)*%
X4445000Y-10900000D03*
%TO.N,Net-(J11-Pad4)*%
X3810000Y-12000000D03*
%TO.N,Net-(J11-Pad3)*%
X3175000Y-10900000D03*
%TO.N,Net-(J11-Pad1)*%
X2540000Y-12000000D03*
%TO.N,Net-(J12-Pad21)*%
X1905000Y-10900000D03*
%TO.N,Net-(J12-Pad8)*%
X1270000Y-12000000D03*
%TO.N,Net-(J12-Pad20)*%
X635000Y-10900000D03*
%TO.N,Net-(J12-Pad7)*%
X0Y-12000000D03*
%TO.N,Net-(J12-Pad19)*%
X-635000Y-10900000D03*
%TO.N,Net-(J12-Pad6)*%
X-1270000Y-12000000D03*
%TO.N,Net-(J12-Pad18)*%
X-1905000Y-10900000D03*
%TO.N,Net-(J12-Pad5)*%
X-2540000Y-12000000D03*
%TO.N,Net-(J10-Pad12)*%
X-3175000Y-10900000D03*
%TO.N,Net-(J10-Pad10)*%
X-3810000Y-12000000D03*
%TO.N,Net-(J10-Pad9)*%
X-4445000Y-10900000D03*
%TO.N,Net-(J10-Pad7)*%
X-5080000Y-12000000D03*
%TO.N,Net-(J10-Pad6)*%
X-5715000Y-10900000D03*
%TO.N,Net-(J10-Pad4)*%
X-6350000Y-12000000D03*
%TO.N,Net-(J10-Pad3)*%
X-6985000Y-10900000D03*
%TO.N,Net-(J10-Pad1)*%
X-7620000Y-12000000D03*
%TD*%
D10*
%TO.N,N/C*%
%TO.C,J3_(1:4)*%
X-16000000Y-56250000D03*
X-16000000Y-69750000D03*
D11*
%TO.N,Net-(J10-Pad19)*%
X-16900000Y-58500000D03*
%TO.N,Net-(J10-Pad18)*%
X-15100000Y-59000000D03*
%TO.N,GND*%
X-16900000Y-59500000D03*
%TO.N,Net-(J10-Pad16)*%
X-15100000Y-60000000D03*
%TO.N,Net-(J10-Pad15)*%
X-16900000Y-60500000D03*
%TO.N,Net-(J10-Pad14)*%
X-15100000Y-61000000D03*
%TO.N,Net-(J10-Pad13)*%
X-16900000Y-61500000D03*
%TO.N,Net-(J10-Pad12)*%
X-15100000Y-62000000D03*
%TO.N,GND*%
X-16900000Y-62500000D03*
%TO.N,Net-(J10-Pad10)*%
X-15100000Y-63000000D03*
%TO.N,Net-(J10-Pad9)*%
X-16900000Y-63500000D03*
%TO.N,GND*%
X-15100000Y-64000000D03*
%TO.N,Net-(J10-Pad7)*%
X-16900000Y-64500000D03*
%TO.N,Net-(J10-Pad6)*%
X-15100000Y-65000000D03*
%TO.N,GND*%
X-16900000Y-65500000D03*
%TO.N,Net-(J10-Pad4)*%
X-15100000Y-66000000D03*
%TO.N,Net-(J10-Pad3)*%
X-16900000Y-66500000D03*
%TO.N,GND*%
X-15100000Y-67000000D03*
%TO.N,Net-(J10-Pad1)*%
X-16900000Y-67500000D03*
%TD*%
D10*
%TO.N,N/C*%
%TO.C,J3_(5:8)*%
X0Y-56250000D03*
X0Y-69750000D03*
D11*
%TO.N,Net-(J9-Pad19)*%
X-900000Y-58500000D03*
%TO.N,Net-(J9-Pad18)*%
X900000Y-59000000D03*
%TO.N,GND*%
X-900000Y-59500000D03*
%TO.N,Net-(J9-Pad16)*%
X900000Y-60000000D03*
%TO.N,Net-(J9-Pad15)*%
X-900000Y-60500000D03*
%TO.N,Net-(J9-Pad14)*%
X900000Y-61000000D03*
%TO.N,Net-(J9-Pad13)*%
X-900000Y-61500000D03*
%TO.N,Net-(J12-Pad21)*%
X900000Y-62000000D03*
%TO.N,GND*%
X-900000Y-62500000D03*
%TO.N,Net-(J12-Pad8)*%
X900000Y-63000000D03*
%TO.N,Net-(J12-Pad20)*%
X-900000Y-63500000D03*
%TO.N,GND*%
X900000Y-64000000D03*
%TO.N,Net-(J12-Pad7)*%
X-900000Y-64500000D03*
%TO.N,Net-(J12-Pad19)*%
X900000Y-65000000D03*
%TO.N,GND*%
X-900000Y-65500000D03*
%TO.N,Net-(J12-Pad6)*%
X900000Y-66000000D03*
%TO.N,Net-(J12-Pad18)*%
X-900000Y-66500000D03*
%TO.N,GND*%
X900000Y-67000000D03*
%TO.N,Net-(J12-Pad5)*%
X-900000Y-67500000D03*
%TD*%
D12*
%TO.N,N/C*%
%TO.C,J1*%
X-12275000Y12550000D03*
X12275000Y12550000D03*
D13*
%TO.N,Net-(J8-Pad13)*%
X7620000Y12000000D03*
%TO.N,Net-(J7-Pad12)*%
X6985000Y13100000D03*
%TO.N,Net-(J7-Pad10)*%
X6350000Y12000000D03*
%TO.N,Net-(J7-Pad9)*%
X5715000Y13100000D03*
%TO.N,Net-(J7-Pad7)*%
X5080000Y12000000D03*
%TO.N,Net-(J7-Pad6)*%
X4445000Y13100000D03*
%TO.N,Net-(J7-Pad4)*%
X3810000Y12000000D03*
%TO.N,Net-(J7-Pad3)*%
X3175000Y13100000D03*
%TO.N,Net-(J7-Pad1)*%
X2540000Y12000000D03*
%TO.N,Net-(J5-Pad12)*%
X1905000Y13100000D03*
%TO.N,Net-(J5-Pad10)*%
X1270000Y12000000D03*
%TO.N,Net-(J5-Pad9)*%
X635000Y13100000D03*
%TO.N,Net-(J5-Pad7)*%
X0Y12000000D03*
%TO.N,Net-(J5-Pad6)*%
X-635000Y13100000D03*
%TO.N,Net-(J5-Pad4)*%
X-1270000Y12000000D03*
%TO.N,Net-(J5-Pad3)*%
X-1905000Y13100000D03*
%TO.N,Net-(J5-Pad1)*%
X-2540000Y12000000D03*
%TO.N,Net-(J6-Pad12)*%
X-3175000Y13100000D03*
%TO.N,Net-(J6-Pad10)*%
X-3810000Y12000000D03*
%TO.N,Net-(J6-Pad9)*%
X-4445000Y13100000D03*
%TO.N,Net-(J6-Pad7)*%
X-5080000Y12000000D03*
%TO.N,Net-(J6-Pad6)*%
X-5715000Y13100000D03*
%TO.N,Net-(J6-Pad4)*%
X-6350000Y12000000D03*
%TO.N,Net-(J6-Pad3)*%
X-6985000Y13100000D03*
%TO.N,Net-(J6-Pad1)*%
X-7620000Y12000000D03*
%TD*%
D10*
%TO.N,N/C*%
%TO.C,J1_(9:12)*%
X16000000Y56250000D03*
X16000000Y69750000D03*
D11*
%TO.N,Net-(J7-Pad19)*%
X16900000Y58500000D03*
%TO.N,Net-(J7-Pad18)*%
X15100000Y59000000D03*
%TO.N,GND*%
X16900000Y59500000D03*
%TO.N,Net-(J7-Pad16)*%
X15100000Y60000000D03*
%TO.N,Net-(J7-Pad15)*%
X16900000Y60500000D03*
%TO.N,Net-(J7-Pad14)*%
X15100000Y61000000D03*
%TO.N,Net-(J7-Pad13)*%
X16900000Y61500000D03*
%TO.N,Net-(J7-Pad12)*%
X15100000Y62000000D03*
%TO.N,GND*%
X16900000Y62500000D03*
%TO.N,Net-(J7-Pad10)*%
X15100000Y63000000D03*
%TO.N,Net-(J7-Pad9)*%
X16900000Y63500000D03*
%TO.N,GND*%
X15100000Y64000000D03*
%TO.N,Net-(J7-Pad7)*%
X16900000Y64500000D03*
%TO.N,Net-(J7-Pad6)*%
X15100000Y65000000D03*
%TO.N,GND*%
X16900000Y65500000D03*
%TO.N,Net-(J7-Pad4)*%
X15100000Y66000000D03*
%TO.N,Net-(J7-Pad3)*%
X16900000Y66500000D03*
%TO.N,GND*%
X15100000Y67000000D03*
%TO.N,Net-(J7-Pad1)*%
X16900000Y67500000D03*
%TD*%
D10*
%TO.N,N/C*%
%TO.C,J1_(1:4)*%
X-16000000Y56250000D03*
X-16000000Y69750000D03*
D11*
%TO.N,Net-(J6-Pad19)*%
X-15100000Y58500000D03*
%TO.N,Net-(J6-Pad18)*%
X-16900000Y59000000D03*
%TO.N,GND*%
X-15100000Y59500000D03*
%TO.N,Net-(J6-Pad16)*%
X-16900000Y60000000D03*
%TO.N,Net-(J6-Pad15)*%
X-15100000Y60500000D03*
%TO.N,Net-(J6-Pad14)*%
X-16900000Y61000000D03*
%TO.N,Net-(J6-Pad13)*%
X-15100000Y61500000D03*
%TO.N,Net-(J6-Pad12)*%
X-16900000Y62000000D03*
%TO.N,GND*%
X-15100000Y62500000D03*
%TO.N,Net-(J6-Pad10)*%
X-16900000Y63000000D03*
%TO.N,Net-(J6-Pad9)*%
X-15100000Y63500000D03*
%TO.N,GND*%
X-16900000Y64000000D03*
%TO.N,Net-(J6-Pad7)*%
X-15100000Y64500000D03*
%TO.N,Net-(J6-Pad6)*%
X-16900000Y65000000D03*
%TO.N,GND*%
X-15100000Y65500000D03*
%TO.N,Net-(J6-Pad4)*%
X-16900000Y66000000D03*
%TO.N,Net-(J6-Pad3)*%
X-15100000Y66500000D03*
%TO.N,GND*%
X-16900000Y67000000D03*
%TO.N,Net-(J6-Pad1)*%
X-15100000Y67500000D03*
%TD*%
D10*
%TO.N,N/C*%
%TO.C,J1_(5:8)*%
X0Y56250000D03*
X0Y69750000D03*
D11*
%TO.N,Net-(J5-Pad19)*%
X900000Y58500000D03*
%TO.N,Net-(J5-Pad18)*%
X-900000Y59000000D03*
%TO.N,GND*%
X900000Y59500000D03*
%TO.N,Net-(J5-Pad16)*%
X-900000Y60000000D03*
%TO.N,Net-(J5-Pad15)*%
X900000Y60500000D03*
%TO.N,Net-(J5-Pad14)*%
X-900000Y61000000D03*
%TO.N,Net-(J5-Pad13)*%
X900000Y61500000D03*
%TO.N,Net-(J5-Pad12)*%
X-900000Y62000000D03*
%TO.N,GND*%
X900000Y62500000D03*
%TO.N,Net-(J5-Pad10)*%
X-900000Y63000000D03*
%TO.N,Net-(J5-Pad9)*%
X900000Y63500000D03*
%TO.N,GND*%
X-900000Y64000000D03*
%TO.N,Net-(J5-Pad7)*%
X900000Y64500000D03*
%TO.N,Net-(J5-Pad6)*%
X-900000Y65000000D03*
%TO.N,GND*%
X900000Y65500000D03*
%TO.N,Net-(J5-Pad4)*%
X-900000Y66000000D03*
%TO.N,Net-(J5-Pad3)*%
X900000Y66500000D03*
%TO.N,GND*%
X-900000Y67000000D03*
%TO.N,Net-(J5-Pad1)*%
X900000Y67500000D03*
%TD*%
D12*
%TO.N,N/C*%
%TO.C,J2*%
X-12275000Y550000D03*
X12275000Y550000D03*
D13*
%TO.N,Net-(J4-Pad13)*%
X7620000Y0D03*
%TO.N,Net-(J3-Pad12)*%
X6985000Y1100000D03*
%TO.N,Net-(J3-Pad10)*%
X6350000Y0D03*
%TO.N,Net-(J3-Pad9)*%
X5715000Y1100000D03*
%TO.N,Net-(J3-Pad7)*%
X5080000Y0D03*
%TO.N,Net-(J3-Pad6)*%
X4445000Y1100000D03*
%TO.N,Net-(J3-Pad4)*%
X3810000Y0D03*
%TO.N,Net-(J3-Pad3)*%
X3175000Y1100000D03*
%TO.N,Net-(J3-Pad1)*%
X2540000Y0D03*
%TO.N,Net-(J1-Pad12)*%
X1905000Y1100000D03*
%TO.N,Net-(J1-Pad10)*%
X1270000Y0D03*
%TO.N,Net-(J1-Pad9)*%
X635000Y1100000D03*
%TO.N,Net-(J1-Pad7)*%
X0Y0D03*
%TO.N,Net-(J1-Pad6)*%
X-635000Y1100000D03*
%TO.N,Net-(J1-Pad4)*%
X-1270000Y0D03*
%TO.N,Net-(J1-Pad3)*%
X-1905000Y1100000D03*
%TO.N,Net-(J1-Pad1)*%
X-2540000Y0D03*
%TO.N,Net-(J2-Pad12)*%
X-3175000Y1100000D03*
%TO.N,Net-(J2-Pad10)*%
X-3810000Y0D03*
%TO.N,Net-(J2-Pad9)*%
X-4445000Y1100000D03*
%TO.N,Net-(J2-Pad7)*%
X-5080000Y0D03*
%TO.N,Net-(J2-Pad6)*%
X-5715000Y1100000D03*
%TO.N,Net-(J2-Pad4)*%
X-6350000Y0D03*
%TO.N,Net-(J2-Pad3)*%
X-6985000Y1100000D03*
%TO.N,Net-(J2-Pad1)*%
X-7620000Y0D03*
%TD*%
D14*
%TO.N,N/C*%
%TO.C,J2_(9:12)*%
X-74750000Y16000000D03*
X-61250000Y16000000D03*
D11*
%TO.N,Net-(J3-Pad19)*%
X-72500000Y15100000D03*
%TO.N,Net-(J3-Pad18)*%
X-72000000Y16900000D03*
%TO.N,GND*%
X-71500000Y15100000D03*
%TO.N,Net-(J3-Pad16)*%
X-71000000Y16900000D03*
%TO.N,Net-(J3-Pad15)*%
X-70500000Y15100000D03*
%TO.N,Net-(J3-Pad14)*%
X-70000000Y16900000D03*
%TO.N,Net-(J3-Pad13)*%
X-69500000Y15100000D03*
%TO.N,Net-(J3-Pad12)*%
X-69000000Y16900000D03*
%TO.N,GND*%
X-68500000Y15100000D03*
%TO.N,Net-(J3-Pad10)*%
X-68000000Y16900000D03*
%TO.N,Net-(J3-Pad9)*%
X-67500000Y15100000D03*
%TO.N,GND*%
X-67000000Y16900000D03*
%TO.N,Net-(J3-Pad7)*%
X-66500000Y15100000D03*
%TO.N,Net-(J3-Pad6)*%
X-66000000Y16900000D03*
%TO.N,GND*%
X-65500000Y15100000D03*
%TO.N,Net-(J3-Pad4)*%
X-65000000Y16900000D03*
%TO.N,Net-(J3-Pad3)*%
X-64500000Y15100000D03*
%TO.N,GND*%
X-64000000Y16900000D03*
%TO.N,Net-(J3-Pad1)*%
X-63500000Y15100000D03*
%TD*%
D14*
%TO.N,N/C*%
%TO.C,J2_(1:4)*%
X-74750000Y-16000000D03*
X-61250000Y-16000000D03*
D11*
%TO.N,Net-(J2-Pad19)*%
X-72500000Y-16900000D03*
%TO.N,Net-(J2-Pad18)*%
X-72000000Y-15100000D03*
%TO.N,GND*%
X-71500000Y-16900000D03*
%TO.N,Net-(J2-Pad16)*%
X-71000000Y-15100000D03*
%TO.N,Net-(J2-Pad15)*%
X-70500000Y-16900000D03*
%TO.N,Net-(J2-Pad14)*%
X-70000000Y-15100000D03*
%TO.N,Net-(J2-Pad13)*%
X-69500000Y-16900000D03*
%TO.N,Net-(J2-Pad12)*%
X-69000000Y-15100000D03*
%TO.N,GND*%
X-68500000Y-16900000D03*
%TO.N,Net-(J2-Pad10)*%
X-68000000Y-15100000D03*
%TO.N,Net-(J2-Pad9)*%
X-67500000Y-16900000D03*
%TO.N,GND*%
X-67000000Y-15100000D03*
%TO.N,Net-(J2-Pad7)*%
X-66500000Y-16900000D03*
%TO.N,Net-(J2-Pad6)*%
X-66000000Y-15100000D03*
%TO.N,GND*%
X-65500000Y-16900000D03*
%TO.N,Net-(J2-Pad4)*%
X-65000000Y-15100000D03*
%TO.N,Net-(J2-Pad3)*%
X-64500000Y-16900000D03*
%TO.N,GND*%
X-64000000Y-15100000D03*
%TO.N,Net-(J2-Pad1)*%
X-63500000Y-16900000D03*
%TD*%
D14*
%TO.N,N/C*%
%TO.C,J2_(5:8)*%
X-74750000Y0D03*
X-61250000Y0D03*
D11*
%TO.N,Net-(J1-Pad19)*%
X-72500000Y-900000D03*
%TO.N,Net-(J1-Pad18)*%
X-72000000Y900000D03*
%TO.N,GND*%
X-71500000Y-900000D03*
%TO.N,Net-(J1-Pad16)*%
X-71000000Y900000D03*
%TO.N,Net-(J1-Pad15)*%
X-70500000Y-900000D03*
%TO.N,Net-(J1-Pad14)*%
X-70000000Y900000D03*
%TO.N,Net-(J1-Pad13)*%
X-69500000Y-900000D03*
%TO.N,Net-(J1-Pad12)*%
X-69000000Y900000D03*
%TO.N,GND*%
X-68500000Y-900000D03*
%TO.N,Net-(J1-Pad10)*%
X-68000000Y900000D03*
%TO.N,Net-(J1-Pad9)*%
X-67500000Y-900000D03*
%TO.N,GND*%
X-67000000Y900000D03*
%TO.N,Net-(J1-Pad7)*%
X-66500000Y-900000D03*
%TO.N,Net-(J1-Pad6)*%
X-66000000Y900000D03*
%TO.N,GND*%
X-65500000Y-900000D03*
%TO.N,Net-(J1-Pad4)*%
X-65000000Y900000D03*
%TO.N,Net-(J1-Pad3)*%
X-64500000Y-900000D03*
%TO.N,GND*%
X-64000000Y900000D03*
%TO.N,Net-(J1-Pad1)*%
X-63500000Y-900000D03*
%TD*%
D15*
%TO.N,GND*%
%TO.C,J2*%
X15795259Y-38133128D03*
X38133128Y-15795259D03*
X38133128Y15795259D03*
X15795259Y38133128D03*
X-15795259Y38133128D03*
X-38133128Y15795259D03*
X-38133128Y-15795259D03*
X-15795259Y-38133128D03*
%TD*%
D16*
%TO.N,Net-(J1-Pad12)*%
X439980Y2565020D02*
X-66354980Y2565020D01*
X1905000Y1100000D02*
X439980Y2565020D01*
X-66354980Y2565020D02*
X-67180000Y1740000D01*
X-68160000Y1740000D02*
X-69000000Y900000D01*
X-67180000Y1740000D02*
X-68160000Y1740000D01*
%TO.N,Net-(J1-Pad9)*%
X635000Y-245602D02*
X-89398Y-970000D01*
X635000Y1100000D02*
X635000Y-245602D01*
X-89398Y-970000D02*
X-980000Y-970000D01*
X-8050000Y-8040000D02*
X-50283835Y-8040000D01*
X-980000Y-970000D02*
X-8050000Y-8040000D01*
X-60808855Y-18565020D02*
X-71644980Y-18565020D01*
X-50283835Y-8040000D02*
X-60808855Y-18565020D01*
X-73035001Y-17174999D02*
X-73035001Y-7415001D01*
X-71644980Y-18565020D02*
X-73035001Y-17174999D01*
X-67500000Y-1880000D02*
X-67500000Y-900000D01*
X-73035001Y-7415001D02*
X-67500000Y-1880000D01*
%TO.N,Net-(J1-Pad6)*%
X-635000Y1100000D02*
X-1915000Y2380000D01*
X-59855010Y2385010D02*
X-63544990Y2385010D01*
X-59850000Y2380000D02*
X-59855010Y2385010D01*
X-1915000Y2380000D02*
X-59850000Y2380000D01*
X-63544990Y2385010D02*
X-64230000Y1700000D01*
X-65200000Y1700000D02*
X-66000000Y900000D01*
X-64230000Y1700000D02*
X-65200000Y1700000D01*
%TO.N,Net-(J1-Pad3)*%
X-7444234Y2055020D02*
X-8940000Y559254D01*
X-2860021Y2055021D02*
X-7444234Y2055020D01*
X-1905000Y1100000D02*
X-2860021Y2055021D01*
X-8940000Y400000D02*
X-16479970Y-7139970D01*
X-8940000Y559254D02*
X-8940000Y400000D01*
X-56861623Y-7139970D02*
X-62541593Y-1460000D01*
X-16479970Y-7139970D02*
X-56861623Y-7139970D01*
X-63940000Y-1460000D02*
X-64500000Y-900000D01*
X-62541593Y-1460000D02*
X-63940000Y-1460000D01*
%TO.N,Net-(J2-Pad3)*%
X-7635538Y1100000D02*
X-8230000Y505538D01*
X-6985000Y1100000D02*
X-7635538Y1100000D01*
X-8230000Y505538D02*
X-8230000Y-610000D01*
X-8230000Y-610000D02*
X-15300000Y-7680000D01*
X-55681593Y-7680000D02*
X-63481593Y-15480000D01*
X-15300000Y-7680000D02*
X-55681593Y-7680000D01*
X-63481593Y-15881593D02*
X-64500000Y-16900000D01*
X-63481593Y-15480000D02*
X-63481593Y-15881593D01*
%TO.N,Net-(J2-Pad6)*%
X-7295109Y1695001D02*
X-8480000Y510110D01*
X-6310001Y1695001D02*
X-7295109Y1695001D01*
X-5715000Y1100000D02*
X-6310001Y1695001D01*
X-8480000Y510110D02*
X-8480000Y170000D01*
X-16149990Y-7499990D02*
X-57169990Y-7499990D01*
X-8480000Y170000D02*
X-16149990Y-7499990D01*
X-57169990Y-7499990D02*
X-64130000Y-14460000D01*
X-65360000Y-14460000D02*
X-66000000Y-15100000D01*
X-64130000Y-14460000D02*
X-65360000Y-14460000D01*
%TO.N,Net-(J2-Pad9)*%
X-4445000Y-245602D02*
X-5139398Y-940000D01*
X-4445000Y1100000D02*
X-4445000Y-245602D01*
X-5139398Y-940000D02*
X-6040000Y-940000D01*
X-6040000Y-940000D02*
X-12960000Y-7860000D01*
X-12960000Y-7860000D02*
X-50358407Y-7860000D01*
X-60883417Y-18385010D02*
X-64994990Y-18385010D01*
X-50358407Y-7860000D02*
X-60883417Y-18385010D01*
X-64994990Y-18385010D02*
X-65830000Y-17550000D01*
X-66850000Y-17550000D02*
X-67500000Y-16900000D01*
X-65830000Y-17550000D02*
X-66850000Y-17550000D01*
%TO.N,Net-(J2-Pad12)*%
X-7369671Y1875011D02*
X-8690000Y554682D01*
X-3950011Y1875011D02*
X-7369671Y1875011D01*
X-3175000Y1100000D02*
X-3950011Y1875011D01*
X-8690000Y554682D02*
X-8690000Y390000D01*
X-16399980Y-7319980D02*
X-59990020Y-7319980D01*
X-8690000Y390000D02*
X-16399980Y-7319980D01*
X-59990020Y-7319980D02*
X-67030040Y-14360000D01*
X-68260000Y-14360000D02*
X-69000000Y-15100000D01*
X-67030040Y-14360000D02*
X-68260000Y-14360000D01*
%TO.N,Net-(J3-Pad3)*%
X3175000Y1100000D02*
X1529970Y2745030D01*
X1529970Y2745030D02*
X-51115030Y2745030D01*
X-51115030Y2745030D02*
X-62340000Y13970000D01*
X-63370000Y13970000D02*
X-64500000Y15100000D01*
X-62340000Y13970000D02*
X-63370000Y13970000D01*
%TO.N,Net-(J3-Pad6)*%
X-65240000Y17660000D02*
X-66000000Y16900000D01*
X-64240020Y17660000D02*
X-65240000Y17660000D01*
X-60883417Y18385010D02*
X-63515010Y18385010D01*
X-45448407Y2950000D02*
X-60883417Y18385010D01*
X2595000Y2950000D02*
X-45448407Y2950000D01*
X-63515010Y18385010D02*
X-64240020Y17660000D01*
X4445000Y1100000D02*
X2595000Y2950000D01*
%TO.N,Net-(J3-Pad9)*%
X6064399Y-595001D02*
X7905601Y-595001D01*
X5715000Y1100000D02*
X5715000Y-245602D01*
X8215001Y750601D02*
X5655602Y3310000D01*
X7905601Y-595001D02*
X8215001Y-285601D01*
X8215001Y-285601D02*
X8215001Y750601D01*
X5715000Y-245602D02*
X6064399Y-595001D01*
X4634572Y3310000D02*
X4634552Y3310020D01*
X5655602Y3310000D02*
X4634572Y3310000D01*
X-60734293Y18745030D02*
X-70934970Y18745030D01*
X-45299283Y3310020D02*
X-60734293Y18745030D01*
X4634552Y3310020D02*
X-45299283Y3310020D01*
X-72535001Y16643199D02*
X-72256801Y16364999D01*
X-72535001Y17144999D02*
X-72535001Y16643199D01*
X-70934970Y18745030D02*
X-72535001Y17144999D01*
X-72256801Y16364999D02*
X-67764999Y16364999D01*
X-67500000Y16100000D02*
X-67500000Y15100000D01*
X-67764999Y16364999D02*
X-67500000Y16100000D01*
%TO.N,Net-(J3-Pad12)*%
X-66344980Y18565020D02*
X-67360000Y17550000D01*
X-45373845Y3130010D02*
X-60808855Y18565020D01*
X4559990Y3130010D02*
X-45373845Y3130010D01*
X-60808855Y18565020D02*
X-66344980Y18565020D01*
X5560000Y2130000D02*
X4559990Y3130010D01*
X-68350000Y17550000D02*
X-69000000Y16900000D01*
X-67360000Y17550000D02*
X-68350000Y17550000D01*
X5955000Y2130000D02*
X5560000Y2130000D01*
X6985000Y1100000D02*
X5955000Y2130000D01*
%TO.N,Net-(J5-Pad3)*%
X-1905000Y13100000D02*
X-2580000Y13775000D01*
X-2580000Y13775000D02*
X-2580000Y13940000D01*
X-2580000Y13940000D02*
X-3200000Y14560000D01*
X-3200000Y14560000D02*
X-3200000Y67900000D01*
X-500000Y67900000D02*
X900000Y66500000D01*
X-3200000Y67900000D02*
X-500000Y67900000D01*
%TO.N,Net-(J5-Pad6)*%
X-1024398Y13100000D02*
X-2960000Y15035602D01*
X-635000Y13100000D02*
X-1024398Y13100000D01*
X-2960000Y15035602D02*
X-2960000Y63930000D01*
X-1890000Y65000000D02*
X-900000Y65000000D01*
X-2960000Y63930000D02*
X-1890000Y65000000D01*
%TO.N,Net-(J5-Pad9)*%
X635000Y11754398D02*
X1159398Y11230000D01*
X635000Y13100000D02*
X635000Y11754398D01*
X1164409Y11224989D02*
X635000Y11754398D01*
X7980163Y11224989D02*
X1164409Y11224989D01*
X10660258Y48150258D02*
X10660258Y13905084D01*
X18385010Y55875010D02*
X10660258Y48150258D01*
X17866583Y70635010D02*
X18385010Y70116583D01*
X7035010Y70635010D02*
X17866583Y70635010D01*
X1560000Y65160000D02*
X7035010Y70635010D01*
X10660258Y13905084D02*
X7980163Y11224989D01*
X1560000Y64160000D02*
X1560000Y65160000D01*
X18385010Y70116583D02*
X18385010Y55875010D01*
X900000Y63500000D02*
X1560000Y64160000D01*
%TO.N,Net-(J5-Pad12)*%
X1905000Y13100000D02*
X1515602Y13100000D01*
X1515602Y13100000D02*
X-2760000Y17375602D01*
X-2760000Y17375602D02*
X-2760000Y61140000D01*
X-1900000Y62000000D02*
X-900000Y62000000D01*
X-2760000Y61140000D02*
X-1900000Y62000000D01*
%TO.N,Net-(J6-Pad12)*%
X-3810000Y13735000D02*
X-3175000Y13100000D01*
X-24020000Y54480000D02*
X-3810000Y34270000D01*
X-3810000Y34270000D02*
X-3810000Y13735000D01*
X-24020000Y61160000D02*
X-24020000Y54480000D01*
X-22180000Y63000000D02*
X-24020000Y61160000D01*
X-17900000Y63000000D02*
X-22180000Y63000000D01*
X-16900000Y62000000D02*
X-17900000Y63000000D01*
%TO.N,Net-(J6-Pad9)*%
X-4445000Y13100000D02*
X-4445000Y11754398D01*
X-4445000Y11754398D02*
X-5169398Y11030000D01*
X-5169398Y11030000D02*
X-8140000Y11030000D01*
X-8140000Y11030000D02*
X-8500000Y11390000D01*
X-8500000Y11390000D02*
X-8500000Y12710000D01*
X-8500000Y12710000D02*
X-8220000Y12990000D01*
X-8220000Y12990000D02*
X-8220000Y37900000D01*
X-8220000Y37900000D02*
X-24620000Y54300000D01*
X-24620000Y54300000D02*
X-24620000Y66960000D01*
X-14250000Y67910000D02*
X-14250000Y64350000D01*
X-24620000Y66960000D02*
X-23190000Y68390000D01*
X-14250000Y64350000D02*
X-15100000Y63500000D01*
X-23190000Y68390000D02*
X-14730000Y68390000D01*
X-14730000Y68390000D02*
X-14250000Y67910000D01*
%TO.N,Net-(J6-Pad6)*%
X-16900000Y65000000D02*
X-17900000Y66000000D01*
X-17900000Y66000000D02*
X-23210000Y66000000D01*
X-23210000Y66000000D02*
X-24240000Y64970000D01*
X-24240000Y54429144D02*
X-6350000Y36539144D01*
X-24240000Y64970000D02*
X-24240000Y54429144D01*
X-6350000Y13735000D02*
X-5715000Y13100000D01*
X-6350000Y36539144D02*
X-6350000Y13735000D01*
%TO.N,Net-(J6-Pad3)*%
X-6985000Y13100000D02*
X-7610000Y13725000D01*
X-7610000Y13725000D02*
X-7610000Y37540000D01*
X-16135001Y67535001D02*
X-23790427Y67535001D01*
X-15100000Y66500000D02*
X-16135001Y67535001D01*
X-23790427Y67535001D02*
X-24439990Y66885438D01*
X-24439990Y66885438D02*
X-24439990Y54374562D01*
X-8039991Y37969991D02*
X-7610000Y37540000D01*
X-8039991Y37974563D02*
X-8039991Y37969991D01*
X-24439990Y54374562D02*
X-8039991Y37974563D01*
%TO.N,Net-(J7-Pad12)*%
X14100000Y63000000D02*
X15100000Y62000000D01*
X10700000Y63000000D02*
X14100000Y63000000D01*
X6350000Y58650000D02*
X10700000Y63000000D01*
X6350000Y13735000D02*
X6350000Y58650000D01*
X6985000Y13100000D02*
X6350000Y13735000D01*
%TO.N,Net-(J7-Pad9)*%
X7905601Y11404999D02*
X6045001Y11404999D01*
X8220000Y11719398D02*
X7905601Y11404999D01*
X8220000Y57390000D02*
X8220000Y11719398D01*
X6045001Y11404999D02*
X5715000Y11735000D01*
X8570000Y57740000D02*
X8220000Y57390000D01*
X14640000Y57740000D02*
X8570000Y57740000D01*
X5715000Y11735000D02*
X5715000Y13100000D01*
X16364999Y59464999D02*
X14640000Y57740000D01*
X16364999Y62964999D02*
X16364999Y59464999D01*
X16900000Y63500000D02*
X16364999Y62964999D01*
%TO.N,Net-(J7-Pad6)*%
X4445000Y13100000D02*
X3810000Y13735000D01*
X3810000Y13735000D02*
X3810000Y60055428D01*
X3810000Y60055428D02*
X9754572Y66000000D01*
X14100000Y66000000D02*
X15100000Y65000000D01*
X9754572Y66000000D02*
X14100000Y66000000D01*
%TO.N,Net-(J7-Pad3)*%
X15490000Y67910000D02*
X16900000Y66500000D01*
X11410000Y67910000D02*
X15490000Y67910000D01*
X2540000Y59040000D02*
X11410000Y67910000D01*
X2540000Y13735000D02*
X2540000Y59040000D01*
X3175000Y13100000D02*
X2540000Y13735000D01*
%TO.N,Net-(J12-Pad21)*%
X1905000Y-10900000D02*
X1905000Y-12635000D01*
X2385010Y-13115010D02*
X2385010Y-61514990D01*
X1905000Y-12635000D02*
X2385010Y-13115010D01*
X1900000Y-62000000D02*
X900000Y-62000000D01*
X2385010Y-61514990D02*
X1900000Y-62000000D01*
%TO.N,Net-(J12-Pad20)*%
X-364999Y-64035001D02*
X-900000Y-63500000D01*
X635000Y-10900000D02*
X-355000Y-9910000D01*
X-8395011Y-11174837D02*
X-8395011Y-13204989D01*
X-355000Y-9910000D02*
X-7130174Y-9910000D01*
X-7130174Y-9910000D02*
X-8395011Y-11174837D01*
X-8395011Y-13204989D02*
X-6900010Y-14699990D01*
X-364999Y-67756801D02*
X-364999Y-64035001D01*
X-6900010Y-14699990D02*
X-6900010Y-48960866D01*
X-6900010Y-48960866D02*
X-11971603Y-48960866D01*
X-17231363Y-68215011D02*
X-823209Y-68215011D01*
X-11971603Y-48960866D02*
X-19150020Y-56139283D01*
X-19150020Y-56139283D02*
X-19150019Y-66296355D01*
X-823209Y-68215011D02*
X-364999Y-67756801D01*
X-19150019Y-66296355D02*
X-17231363Y-68215011D01*
%TO.N,Net-(J12-Pad19)*%
X-635000Y-10900000D02*
X-635000Y-12485000D01*
X-635000Y-12485000D02*
X-1270000Y-13120000D01*
X-1270000Y-13120000D02*
X-1270000Y-54770000D01*
X-1270000Y-54770000D02*
X-1970000Y-54770000D01*
X-1970000Y-54770000D02*
X-2870000Y-55670000D01*
X-2870000Y-55670000D02*
X-2870000Y-56720000D01*
X-2870000Y-56720000D02*
X-2070000Y-57520000D01*
X-2070000Y-57520000D02*
X-640000Y-57520000D01*
X364999Y-58524999D02*
X364999Y-64964999D01*
X-640000Y-57520000D02*
X364999Y-58524999D01*
X400000Y-65000000D02*
X900000Y-65000000D01*
X364999Y-64964999D02*
X400000Y-65000000D01*
%TO.N,Net-(J10-Pad3)*%
X-6985000Y-10900000D02*
X-6985000Y-12615000D01*
X-6985000Y-12615000D02*
X-6540000Y-13060000D01*
X-6540000Y-13060000D02*
X-6540000Y-49110000D01*
X-6540000Y-49110000D02*
X-11980000Y-54550000D01*
X-17051593Y-54550000D02*
X-18790000Y-56288407D01*
X-11980000Y-54550000D02*
X-17051593Y-54550000D01*
X-18790000Y-56288407D02*
X-18790000Y-65400000D01*
X-17690000Y-66500000D02*
X-16900000Y-66500000D01*
X-18790000Y-65400000D02*
X-17690000Y-66500000D01*
%TO.N,Net-(J10-Pad6)*%
X-5715000Y-12245602D02*
X-6359398Y-12890000D01*
X-5715000Y-10900000D02*
X-5715000Y-12245602D01*
X-6359398Y-13309398D02*
X-6359990Y-13309990D01*
X-6359398Y-12890000D02*
X-6359398Y-13309398D01*
X-6359990Y-13309990D02*
X-6359990Y-57259990D01*
X-14100000Y-65000000D02*
X-15100000Y-65000000D01*
X-6359990Y-57259990D02*
X-14100000Y-65000000D01*
%TO.N,Net-(J10-Pad9)*%
X-8215001Y-11249399D02*
X-8215001Y-13114999D01*
X-7270601Y-10304999D02*
X-8215001Y-11249399D01*
X-5040001Y-10304999D02*
X-7270601Y-10304999D01*
X-4445000Y-10900000D02*
X-5040001Y-10304999D01*
X-8215001Y-13114999D02*
X-6720000Y-14610000D01*
X-6720000Y-14610000D02*
X-6720000Y-49035428D01*
X-16364999Y-67756801D02*
X-16364999Y-64035001D01*
X-17156801Y-68035001D02*
X-16643199Y-68035001D01*
X-18970010Y-66221792D02*
X-17156801Y-68035001D01*
X-18970010Y-56213845D02*
X-18970010Y-66221792D01*
X-16643199Y-68035001D02*
X-16364999Y-67756801D01*
X-17126156Y-54369991D02*
X-18970010Y-56213845D01*
X-12054562Y-54369990D02*
X-17126156Y-54369991D01*
X-16364999Y-64035001D02*
X-16900000Y-63500000D01*
X-6720000Y-49035428D02*
X-12054562Y-54369990D01*
%TO.N,Net-(J10-Pad12)*%
X-3175000Y-10900000D02*
X-3175000Y-12415000D01*
X-3175000Y-12415000D02*
X-3810000Y-13050000D01*
X-3810000Y-13050000D02*
X-3810000Y-15130000D01*
X-15635001Y-67256801D02*
X-15635001Y-62535001D01*
X-15356801Y-67535001D02*
X-15635001Y-67256801D01*
X-14843199Y-67535001D02*
X-15356801Y-67535001D01*
X-6179980Y-58871782D02*
X-14843199Y-67535001D01*
X-6179980Y-17499980D02*
X-6179980Y-58871782D01*
X-15635001Y-62535001D02*
X-15100000Y-62000000D01*
X-3810000Y-15130000D02*
X-6179980Y-17499980D01*
%TO.N,Net-(J11-Pad3)*%
X3175000Y-10900000D02*
X3175000Y-12635000D01*
X3175000Y-12635000D02*
X7970000Y-17430000D01*
X7970000Y-17430000D02*
X7970000Y-60350000D01*
X14120000Y-66500000D02*
X15100000Y-66500000D01*
X7970000Y-60350000D02*
X14120000Y-66500000D01*
%TO.N,Net-(J11-Pad6)*%
X8520000Y-11554398D02*
X8520000Y-45763835D01*
X7270601Y-10304999D02*
X8520000Y-11554398D01*
X5040001Y-10304999D02*
X7270601Y-10304999D01*
X4445000Y-10900000D02*
X5040001Y-10304999D01*
X18570010Y-55813845D02*
X18570010Y-64319990D01*
X8520000Y-45763835D02*
X18570010Y-55813845D01*
X17890000Y-65000000D02*
X16900000Y-65000000D01*
X18570010Y-64319990D02*
X17890000Y-65000000D01*
%TO.N,Net-(J11-Pad9)*%
X5715000Y-10900000D02*
X5715000Y-12625000D01*
X5715000Y-12625000D02*
X8150010Y-15060010D01*
X8150010Y-15060010D02*
X8150010Y-57560010D01*
X14090000Y-63500000D02*
X15100000Y-63500000D01*
X8150010Y-57560010D02*
X14090000Y-63500000D01*
%TO.N,Net-(J11-Pad12)*%
X6985000Y-10900000D02*
X6985000Y-12635000D01*
X6985000Y-12635000D02*
X8330020Y-13980020D01*
X8330020Y-45828427D02*
X18390000Y-55888407D01*
X8330020Y-13980020D02*
X8330020Y-45828427D01*
X18390000Y-55888407D02*
X18390000Y-61510000D01*
X17900000Y-62000000D02*
X16900000Y-62000000D01*
X18390000Y-61510000D02*
X17900000Y-62000000D01*
%TO.N,Net-(J12-Pad18)*%
X-1900000Y-66500000D02*
X-900000Y-66500000D01*
X-5990000Y-62410000D02*
X-1900000Y-66500000D01*
X-5990000Y-17570000D02*
X-5990000Y-62410000D01*
X-1905000Y-13485000D02*
X-5990000Y-17570000D01*
X-1905000Y-10900000D02*
X-1905000Y-13485000D01*
%TD*%
D17*
%TO.N,GND*%
X59340001Y39726618D02*
X59340000Y-39726619D01*
X22726620Y-76340000D01*
X-22743562Y-76340000D01*
X-44814716Y-56139283D01*
X-19833310Y-56139283D01*
X-19830020Y-56172688D01*
X-19830018Y-66262941D01*
X-19833309Y-66296355D01*
X-19820180Y-66429658D01*
X-19781297Y-66557838D01*
X-19781296Y-66557839D01*
X-19718153Y-66675971D01*
X-19633177Y-66779514D01*
X-19607229Y-66800809D01*
X-17964465Y-68443573D01*
X-18032581Y-68464236D01*
X-18273188Y-68592843D01*
X-18484081Y-68765919D01*
X-18657157Y-68976812D01*
X-18785764Y-69217419D01*
X-18864960Y-69478493D01*
X-18891701Y-69750000D01*
X-18864960Y-70021507D01*
X-18785764Y-70282581D01*
X-18657157Y-70523188D01*
X-18484081Y-70734081D01*
X-18273188Y-70907157D01*
X-18032581Y-71035764D01*
X-17771507Y-71114960D01*
X-17568037Y-71135000D01*
X-14431963Y-71135000D01*
X-14228493Y-71114960D01*
X-13967419Y-71035764D01*
X-13726812Y-70907157D01*
X-13515919Y-70734081D01*
X-13342843Y-70523188D01*
X-13214236Y-70282581D01*
X-13135040Y-70021507D01*
X-13108299Y-69750000D01*
X-13135040Y-69478493D01*
X-13214236Y-69217419D01*
X-13342843Y-68976812D01*
X-13409976Y-68895011D01*
X-2590024Y-68895011D01*
X-2657157Y-68976812D01*
X-2785764Y-69217419D01*
X-2864960Y-69478493D01*
X-2891701Y-69750000D01*
X-2864960Y-70021507D01*
X-2785764Y-70282581D01*
X-2657157Y-70523188D01*
X-2484081Y-70734081D01*
X-2273188Y-70907157D01*
X-2032581Y-71035764D01*
X-1771507Y-71114960D01*
X-1568037Y-71135000D01*
X1568037Y-71135000D01*
X1771507Y-71114960D01*
X2032581Y-71035764D01*
X2273188Y-70907157D01*
X2484081Y-70734081D01*
X2657157Y-70523188D01*
X2785764Y-70282581D01*
X2864960Y-70021507D01*
X2891701Y-69750000D01*
X2864960Y-69478493D01*
X2785764Y-69217419D01*
X2657157Y-68976812D01*
X2484081Y-68765919D01*
X2273188Y-68592843D01*
X2032581Y-68464236D01*
X1771507Y-68385040D01*
X1568037Y-68365000D01*
X-11533Y-68365000D01*
X92216Y-68261251D01*
X118159Y-68239960D01*
X146718Y-68205162D01*
X154271Y-68195958D01*
X203136Y-68136417D01*
X266279Y-68018285D01*
X305162Y-67890104D01*
X313849Y-67801898D01*
X317798Y-67761810D01*
X373164Y-67706444D01*
X396019Y-67909736D01*
X583184Y-67990577D01*
X782523Y-68033351D01*
X986377Y-68036413D01*
X1186912Y-67999647D01*
X1376420Y-67924466D01*
X1403981Y-67909736D01*
X1426836Y-67706441D01*
X900000Y-67179605D01*
X885858Y-67193748D01*
X709493Y-67017383D01*
X798061Y-67035000D01*
X1001939Y-67035000D01*
X1095913Y-67016308D01*
X1606441Y-67526836D01*
X1809736Y-67503981D01*
X1890577Y-67316816D01*
X1933351Y-67117477D01*
X1936413Y-66913623D01*
X1899647Y-66713088D01*
X1824466Y-66523580D01*
X1811344Y-66499028D01*
X1817205Y-66490256D01*
X1895226Y-66301898D01*
X1935000Y-66101939D01*
X1935000Y-65898061D01*
X1895226Y-65698102D01*
X1817205Y-65509744D01*
X1810694Y-65500000D01*
X1817205Y-65490256D01*
X1895226Y-65301898D01*
X1935000Y-65101939D01*
X1935000Y-64898061D01*
X1895226Y-64698102D01*
X1817205Y-64509744D01*
X1811157Y-64500692D01*
X1890577Y-64316816D01*
X1933351Y-64117477D01*
X1936413Y-63913623D01*
X1899647Y-63713088D01*
X1824466Y-63523580D01*
X1811344Y-63499028D01*
X1817205Y-63490256D01*
X1895226Y-63301898D01*
X1935000Y-63101939D01*
X1935000Y-62898061D01*
X1895226Y-62698102D01*
X1888627Y-62682170D01*
X1900000Y-62683290D01*
X1933404Y-62680000D01*
X2033303Y-62670161D01*
X2161484Y-62631278D01*
X2279616Y-62568135D01*
X2383159Y-62483159D01*
X2404458Y-62457206D01*
X2842225Y-62019441D01*
X2868169Y-61998149D01*
X2889460Y-61972206D01*
X2889463Y-61972203D01*
X2953145Y-61894606D01*
X3016288Y-61776474D01*
X3055171Y-61648293D01*
X3068300Y-61514990D01*
X3065010Y-61481586D01*
X3065010Y-13486674D01*
X7290000Y-17711665D01*
X7290001Y-60316585D01*
X7286710Y-60350000D01*
X7299839Y-60483303D01*
X7338722Y-60611483D01*
X7338723Y-60611484D01*
X7401866Y-60729616D01*
X7486842Y-60833159D01*
X7512790Y-60854454D01*
X13615545Y-66957210D01*
X13636841Y-66983159D01*
X13740384Y-67068135D01*
X13858516Y-67131278D01*
X13986697Y-67170161D01*
X14086596Y-67180000D01*
X14086605Y-67180000D01*
X14111266Y-67182429D01*
X14104774Y-67198102D01*
X14065000Y-67398061D01*
X14065000Y-67601939D01*
X14104774Y-67801898D01*
X14182795Y-67990256D01*
X14296063Y-68159774D01*
X14440226Y-68303937D01*
X14531613Y-68365000D01*
X14431963Y-68365000D01*
X14228493Y-68385040D01*
X13967419Y-68464236D01*
X13726812Y-68592843D01*
X13515919Y-68765919D01*
X13342843Y-68976812D01*
X13214236Y-69217419D01*
X13135040Y-69478493D01*
X13108299Y-69750000D01*
X13135040Y-70021507D01*
X13214236Y-70282581D01*
X13342843Y-70523188D01*
X13515919Y-70734081D01*
X13726812Y-70907157D01*
X13967419Y-71035764D01*
X14228493Y-71114960D01*
X14431963Y-71135000D01*
X17568037Y-71135000D01*
X17771507Y-71114960D01*
X18032581Y-71035764D01*
X18273188Y-70907157D01*
X18484081Y-70734081D01*
X18657157Y-70523188D01*
X18785764Y-70282581D01*
X18864960Y-70021507D01*
X18891701Y-69750000D01*
X18864960Y-69478493D01*
X18785764Y-69217419D01*
X18657157Y-68976812D01*
X18484081Y-68765919D01*
X18273188Y-68592843D01*
X18032581Y-68464236D01*
X17771507Y-68385040D01*
X17568037Y-68365000D01*
X15668387Y-68365000D01*
X15759774Y-68303937D01*
X15903937Y-68159774D01*
X16017205Y-67990256D01*
X16095226Y-67801898D01*
X16114213Y-67706441D01*
X16373164Y-67706441D01*
X16396019Y-67909736D01*
X16583184Y-67990577D01*
X16782523Y-68033351D01*
X16986377Y-68036413D01*
X17186912Y-67999647D01*
X17376420Y-67924466D01*
X17403981Y-67909736D01*
X17426836Y-67706441D01*
X16900000Y-67179605D01*
X16373164Y-67706441D01*
X16114213Y-67706441D01*
X16135000Y-67601939D01*
X16135000Y-67520253D01*
X16193559Y-67526836D01*
X16704087Y-67016308D01*
X16798061Y-67035000D01*
X17001939Y-67035000D01*
X17095913Y-67016308D01*
X17606441Y-67526836D01*
X17809736Y-67503981D01*
X17890577Y-67316816D01*
X17933351Y-67117477D01*
X17936413Y-66913623D01*
X17899647Y-66713088D01*
X17824466Y-66523580D01*
X17811344Y-66499028D01*
X17817205Y-66490256D01*
X17895226Y-66301898D01*
X17935000Y-66101939D01*
X17935000Y-65898061D01*
X17895226Y-65698102D01*
X17889052Y-65683197D01*
X17890000Y-65683290D01*
X17923404Y-65680000D01*
X18023303Y-65670161D01*
X18151484Y-65631278D01*
X18269616Y-65568135D01*
X18373159Y-65483159D01*
X18394459Y-65457205D01*
X19027220Y-64824445D01*
X19053169Y-64803149D01*
X19138145Y-64699606D01*
X19201288Y-64581474D01*
X19240171Y-64453293D01*
X19250010Y-64353394D01*
X19250010Y-64353385D01*
X19253299Y-64319991D01*
X19250010Y-64286597D01*
X19250010Y-55847238D01*
X19253299Y-55813844D01*
X19250010Y-55780450D01*
X19250010Y-55780441D01*
X19240171Y-55680542D01*
X19201288Y-55552361D01*
X19138145Y-55434229D01*
X19053168Y-55330686D01*
X19027225Y-55309395D01*
X9200000Y-45482171D01*
X9200000Y-39144115D01*
X10223980Y-39144115D01*
X10528264Y-40211592D01*
X11034956Y-41199195D01*
X11724584Y-42068970D01*
X12570646Y-42787493D01*
X13540628Y-43327151D01*
X14597254Y-43667206D01*
X14784272Y-43704407D01*
X15668259Y-43635177D01*
X15668259Y-38260128D01*
X15922259Y-38260128D01*
X15922259Y-43635177D01*
X16806246Y-43704407D01*
X17873723Y-43400123D01*
X18861326Y-42893431D01*
X19731101Y-42203803D01*
X20449624Y-41357741D01*
X20989282Y-40387759D01*
X21329337Y-39331133D01*
X21366538Y-39144115D01*
X21297308Y-38260128D01*
X15922259Y-38260128D01*
X15668259Y-38260128D01*
X10293210Y-38260128D01*
X10223980Y-39144115D01*
X9200000Y-39144115D01*
X9200000Y-37122141D01*
X10223980Y-37122141D01*
X10293210Y-38006128D01*
X15668259Y-38006128D01*
X15668259Y-32631079D01*
X15922259Y-32631079D01*
X15922259Y-38006128D01*
X21297308Y-38006128D01*
X21366538Y-37122141D01*
X21062254Y-36054664D01*
X20555562Y-35067061D01*
X19865934Y-34197286D01*
X19019872Y-33478763D01*
X18049890Y-32939105D01*
X16993264Y-32599050D01*
X16806246Y-32561849D01*
X15922259Y-32631079D01*
X15668259Y-32631079D01*
X14784272Y-32561849D01*
X13716795Y-32866133D01*
X12729192Y-33372825D01*
X11859417Y-34062453D01*
X11140894Y-34908515D01*
X10601236Y-35878497D01*
X10261181Y-36935123D01*
X10223980Y-37122141D01*
X9200000Y-37122141D01*
X9200000Y-16806246D01*
X32561849Y-16806246D01*
X32866133Y-17873723D01*
X33372825Y-18861326D01*
X34062453Y-19731101D01*
X34908515Y-20449624D01*
X35878497Y-20989282D01*
X36935123Y-21329337D01*
X37122141Y-21366538D01*
X38006128Y-21297308D01*
X38006128Y-15922259D01*
X38260128Y-15922259D01*
X38260128Y-21297308D01*
X39144115Y-21366538D01*
X40211592Y-21062254D01*
X41199195Y-20555562D01*
X42068970Y-19865934D01*
X42787493Y-19019872D01*
X43327151Y-18049890D01*
X43667206Y-16993264D01*
X43704407Y-16806246D01*
X43635177Y-15922259D01*
X38260128Y-15922259D01*
X38006128Y-15922259D01*
X32631079Y-15922259D01*
X32561849Y-16806246D01*
X9200000Y-16806246D01*
X9200000Y-14784272D01*
X32561849Y-14784272D01*
X32631079Y-15668259D01*
X38006128Y-15668259D01*
X38006128Y-10293210D01*
X38260128Y-10293210D01*
X38260128Y-15668259D01*
X43635177Y-15668259D01*
X43704407Y-14784272D01*
X43400123Y-13716795D01*
X42893431Y-12729192D01*
X42203803Y-11859417D01*
X41357741Y-11140894D01*
X40387759Y-10601236D01*
X39331133Y-10261181D01*
X39144115Y-10223980D01*
X38260128Y-10293210D01*
X38006128Y-10293210D01*
X37122141Y-10223980D01*
X36054664Y-10528264D01*
X35067061Y-11034956D01*
X34197286Y-11724584D01*
X33478763Y-12570646D01*
X32939105Y-13540628D01*
X32599050Y-14597254D01*
X32561849Y-14784272D01*
X9200000Y-14784272D01*
X9200000Y-11587802D01*
X9203290Y-11554397D01*
X9190161Y-11421094D01*
X9151278Y-11292914D01*
X9127848Y-11249078D01*
X10235000Y-11249078D01*
X10235000Y-11650922D01*
X10313396Y-12045046D01*
X10467175Y-12416303D01*
X10690428Y-12750424D01*
X10974576Y-13034572D01*
X11308697Y-13257825D01*
X11679954Y-13411604D01*
X12074078Y-13490000D01*
X12475922Y-13490000D01*
X12870046Y-13411604D01*
X13241303Y-13257825D01*
X13575424Y-13034572D01*
X13859572Y-12750424D01*
X14082825Y-12416303D01*
X14236604Y-12045046D01*
X14315000Y-11650922D01*
X14315000Y-11249078D01*
X14236604Y-10854954D01*
X14082825Y-10483697D01*
X13859572Y-10149576D01*
X13575424Y-9865428D01*
X13241303Y-9642175D01*
X12870046Y-9488396D01*
X12475922Y-9410000D01*
X12074078Y-9410000D01*
X11679954Y-9488396D01*
X11308697Y-9642175D01*
X10974576Y-9865428D01*
X10690428Y-10149576D01*
X10467175Y-10483697D01*
X10313396Y-10854954D01*
X10235000Y-11249078D01*
X9127848Y-11249078D01*
X9088135Y-11174782D01*
X9003158Y-11071239D01*
X8977215Y-11049948D01*
X7775060Y-9847794D01*
X7753760Y-9821840D01*
X7650217Y-9736864D01*
X7532085Y-9673721D01*
X7403904Y-9634838D01*
X7304005Y-9624999D01*
X7270601Y-9621709D01*
X7237197Y-9624999D01*
X5073394Y-9624999D01*
X5040000Y-9621710D01*
X5006606Y-9624999D01*
X5006597Y-9624999D01*
X4906698Y-9634838D01*
X4778517Y-9673721D01*
X4660385Y-9736864D01*
X4572579Y-9808925D01*
X4552848Y-9805000D01*
X4337152Y-9805000D01*
X4125600Y-9847080D01*
X3926323Y-9929624D01*
X3810000Y-10007348D01*
X3693677Y-9929624D01*
X3494400Y-9847080D01*
X3282848Y-9805000D01*
X3067152Y-9805000D01*
X2855600Y-9847080D01*
X2656323Y-9929624D01*
X2540000Y-10007348D01*
X2423677Y-9929624D01*
X2224400Y-9847080D01*
X2012848Y-9805000D01*
X1797152Y-9805000D01*
X1585600Y-9847080D01*
X1386323Y-9929624D01*
X1270000Y-10007348D01*
X1153677Y-9929624D01*
X954400Y-9847080D01*
X742848Y-9805000D01*
X527152Y-9805000D01*
X505893Y-9809229D01*
X149459Y-9452795D01*
X128159Y-9426841D01*
X24616Y-9341865D01*
X-93516Y-9278722D01*
X-221697Y-9239839D01*
X-321596Y-9230000D01*
X-355000Y-9226710D01*
X-388404Y-9230000D01*
X-7096770Y-9230000D01*
X-7130174Y-9226710D01*
X-7263477Y-9239839D01*
X-7391658Y-9278722D01*
X-7509790Y-9341865D01*
X-7587387Y-9405547D01*
X-7587388Y-9405548D01*
X-7613333Y-9426841D01*
X-7634624Y-9452784D01*
X-8852221Y-10670382D01*
X-8878170Y-10691679D01*
X-8963146Y-10795222D01*
X-9019151Y-10900000D01*
X-9026289Y-10913354D01*
X-9065172Y-11041534D01*
X-9078301Y-11174837D01*
X-9075011Y-11208242D01*
X-9075010Y-13171575D01*
X-9078301Y-13204989D01*
X-9065172Y-13338292D01*
X-9026289Y-13466472D01*
X-9011246Y-13494615D01*
X-8963145Y-13584605D01*
X-8878169Y-13688148D01*
X-8852221Y-13709443D01*
X-7580010Y-14981656D01*
X-7580009Y-48280866D01*
X-11938199Y-48280866D01*
X-11971603Y-48277576D01*
X-12104906Y-48290705D01*
X-12233087Y-48329588D01*
X-12351219Y-48392731D01*
X-12428816Y-48456413D01*
X-12428819Y-48456416D01*
X-12454762Y-48477707D01*
X-12476053Y-48503650D01*
X-19607231Y-55634830D01*
X-19633179Y-55656125D01*
X-19718155Y-55759668D01*
X-19758009Y-55834230D01*
X-19781298Y-55877800D01*
X-19820181Y-56005980D01*
X-19833310Y-56139283D01*
X-44814716Y-56139283D01*
X-63383511Y-39144115D01*
X-21366538Y-39144115D01*
X-21062254Y-40211592D01*
X-20555562Y-41199195D01*
X-19865934Y-42068970D01*
X-19019872Y-42787493D01*
X-18049890Y-43327151D01*
X-16993264Y-43667206D01*
X-16806246Y-43704407D01*
X-15922259Y-43635177D01*
X-15922259Y-38260128D01*
X-15668259Y-38260128D01*
X-15668259Y-43635177D01*
X-14784272Y-43704407D01*
X-13716795Y-43400123D01*
X-12729192Y-42893431D01*
X-11859417Y-42203803D01*
X-11140894Y-41357741D01*
X-10601236Y-40387759D01*
X-10261181Y-39331133D01*
X-10223980Y-39144115D01*
X-10293210Y-38260128D01*
X-15668259Y-38260128D01*
X-15922259Y-38260128D01*
X-21297308Y-38260128D01*
X-21366538Y-39144115D01*
X-63383511Y-39144115D01*
X-65592704Y-37122141D01*
X-21366538Y-37122141D01*
X-21297308Y-38006128D01*
X-15922259Y-38006128D01*
X-15922259Y-32631079D01*
X-15668259Y-32631079D01*
X-15668259Y-38006128D01*
X-10293210Y-38006128D01*
X-10223980Y-37122141D01*
X-10528264Y-36054664D01*
X-11034956Y-35067061D01*
X-11724584Y-34197286D01*
X-12570646Y-33478763D01*
X-13540628Y-32939105D01*
X-14597254Y-32599050D01*
X-14784272Y-32561849D01*
X-15668259Y-32631079D01*
X-15922259Y-32631079D01*
X-16806246Y-32561849D01*
X-17873723Y-32866133D01*
X-18861326Y-33372825D01*
X-19731101Y-34062453D01*
X-20449624Y-34908515D01*
X-20989282Y-35878497D01*
X-21329337Y-36935123D01*
X-21366538Y-37122141D01*
X-65592704Y-37122141D01*
X-81340000Y-22709363D01*
X-81340000Y17568036D01*
X-76135000Y17568036D01*
X-76134999Y14431963D01*
X-76114959Y14228493D01*
X-76035763Y13967419D01*
X-75907156Y13726812D01*
X-75734080Y13515919D01*
X-75523187Y13342843D01*
X-75282580Y13214236D01*
X-75021506Y13135040D01*
X-74750000Y13108299D01*
X-74478493Y13135040D01*
X-74217419Y13214236D01*
X-73976812Y13342843D01*
X-73765919Y13515919D01*
X-73592843Y13726812D01*
X-73464236Y13967419D01*
X-73385040Y14228493D01*
X-73365000Y14431963D01*
X-73365000Y14531613D01*
X-73303937Y14440226D01*
X-73159774Y14296063D01*
X-72990256Y14182795D01*
X-72801898Y14104774D01*
X-72601939Y14065000D01*
X-72398061Y14065000D01*
X-72198102Y14104774D01*
X-72009744Y14182795D01*
X-72000692Y14188843D01*
X-71816816Y14109423D01*
X-71617477Y14066649D01*
X-71413623Y14063587D01*
X-71213088Y14100353D01*
X-71023580Y14175534D01*
X-70999028Y14188656D01*
X-70990256Y14182795D01*
X-70801898Y14104774D01*
X-70601939Y14065000D01*
X-70398061Y14065000D01*
X-70198102Y14104774D01*
X-70009744Y14182795D01*
X-70000000Y14189306D01*
X-69990256Y14182795D01*
X-69801898Y14104774D01*
X-69601939Y14065000D01*
X-69398061Y14065000D01*
X-69198102Y14104774D01*
X-69009744Y14182795D01*
X-69000692Y14188843D01*
X-68816816Y14109423D01*
X-68617477Y14066649D01*
X-68413623Y14063587D01*
X-68213088Y14100353D01*
X-68023580Y14175534D01*
X-67999028Y14188656D01*
X-67990256Y14182795D01*
X-67801898Y14104774D01*
X-67601939Y14065000D01*
X-67398061Y14065000D01*
X-67198102Y14104774D01*
X-67009744Y14182795D01*
X-67000000Y14189306D01*
X-66990256Y14182795D01*
X-66801898Y14104774D01*
X-66601939Y14065000D01*
X-66398061Y14065000D01*
X-66198102Y14104774D01*
X-66009744Y14182795D01*
X-66000692Y14188843D01*
X-65816816Y14109423D01*
X-65617477Y14066649D01*
X-65413623Y14063587D01*
X-65213088Y14100353D01*
X-65023580Y14175534D01*
X-64999028Y14188656D01*
X-64990256Y14182795D01*
X-64801898Y14104774D01*
X-64601939Y14065000D01*
X-64426664Y14065000D01*
X-63874455Y13512790D01*
X-63853159Y13486841D01*
X-63749616Y13401865D01*
X-63631484Y13338722D01*
X-63503303Y13299839D01*
X-63403404Y13290000D01*
X-63403395Y13290000D01*
X-63370001Y13286711D01*
X-63336607Y13290000D01*
X-62621664Y13290000D01*
X-52576685Y3245020D01*
X-66321587Y3245020D01*
X-66354981Y3248309D01*
X-66388375Y3245020D01*
X-66388384Y3245020D01*
X-66488283Y3235181D01*
X-66616464Y3196298D01*
X-66734596Y3133155D01*
X-66838139Y3048179D01*
X-66859435Y3022230D01*
X-67461664Y2420000D01*
X-68126607Y2420000D01*
X-68160001Y2423289D01*
X-68193395Y2420000D01*
X-68193404Y2420000D01*
X-68293303Y2410161D01*
X-68421484Y2371278D01*
X-68539616Y2308135D01*
X-68643159Y2223159D01*
X-68664453Y2197212D01*
X-68926665Y1935000D01*
X-69101939Y1935000D01*
X-69301898Y1895226D01*
X-69490256Y1817205D01*
X-69500000Y1810694D01*
X-69509744Y1817205D01*
X-69698102Y1895226D01*
X-69898061Y1935000D01*
X-70101939Y1935000D01*
X-70301898Y1895226D01*
X-70490256Y1817205D01*
X-70500000Y1810694D01*
X-70509744Y1817205D01*
X-70698102Y1895226D01*
X-70898061Y1935000D01*
X-71101939Y1935000D01*
X-71301898Y1895226D01*
X-71490256Y1817205D01*
X-71500000Y1810694D01*
X-71509744Y1817205D01*
X-71698102Y1895226D01*
X-71898061Y1935000D01*
X-72101939Y1935000D01*
X-72301898Y1895226D01*
X-72490256Y1817205D01*
X-72659774Y1703937D01*
X-72803937Y1559774D01*
X-72917205Y1390256D01*
X-72995226Y1201898D01*
X-73035000Y1001939D01*
X-73035000Y798061D01*
X-72995226Y598102D01*
X-72917205Y409744D01*
X-72803937Y240226D01*
X-72682656Y118945D01*
X-72801898Y95226D01*
X-72990256Y17205D01*
X-73159774Y-96063D01*
X-73303937Y-240226D01*
X-73365000Y-331613D01*
X-73365000Y1568037D01*
X-73385040Y1771507D01*
X-73464236Y2032581D01*
X-73592843Y2273188D01*
X-73765920Y2484081D01*
X-73976813Y2657157D01*
X-74217420Y2785764D01*
X-74478494Y2864960D01*
X-74750000Y2891701D01*
X-75021507Y2864960D01*
X-75282581Y2785764D01*
X-75523188Y2657157D01*
X-75734081Y2484080D01*
X-75907157Y2273187D01*
X-76035764Y2032580D01*
X-76114960Y1771506D01*
X-76135000Y1568036D01*
X-76134999Y-1568037D01*
X-76114959Y-1771507D01*
X-76035763Y-2032581D01*
X-75907156Y-2273188D01*
X-75734080Y-2484081D01*
X-75523187Y-2657157D01*
X-75282580Y-2785764D01*
X-75021506Y-2864960D01*
X-74750000Y-2891701D01*
X-74478493Y-2864960D01*
X-74217419Y-2785764D01*
X-73976812Y-2657157D01*
X-73765919Y-2484081D01*
X-73592843Y-2273188D01*
X-73464236Y-2032581D01*
X-73385040Y-1771507D01*
X-73365000Y-1568037D01*
X-73365000Y-1468387D01*
X-73303937Y-1559774D01*
X-73159774Y-1703937D01*
X-72990256Y-1817205D01*
X-72801898Y-1895226D01*
X-72601939Y-1935000D01*
X-72398061Y-1935000D01*
X-72198102Y-1895226D01*
X-72009744Y-1817205D01*
X-72000692Y-1811157D01*
X-71816816Y-1890577D01*
X-71617477Y-1933351D01*
X-71413623Y-1936413D01*
X-71213088Y-1899647D01*
X-71023580Y-1824466D01*
X-70999028Y-1811344D01*
X-70990256Y-1817205D01*
X-70801898Y-1895226D01*
X-70601939Y-1935000D01*
X-70398061Y-1935000D01*
X-70198102Y-1895226D01*
X-70009744Y-1817205D01*
X-70000000Y-1810694D01*
X-69990256Y-1817205D01*
X-69801898Y-1895226D01*
X-69601939Y-1935000D01*
X-69398061Y-1935000D01*
X-69198102Y-1895226D01*
X-69009744Y-1817205D01*
X-69000692Y-1811157D01*
X-68816816Y-1890577D01*
X-68617477Y-1933351D01*
X-68516532Y-1934867D01*
X-73492211Y-6910547D01*
X-73518159Y-6931842D01*
X-73603135Y-7035385D01*
X-73636886Y-7098529D01*
X-73666279Y-7153518D01*
X-73705162Y-7281698D01*
X-73718291Y-7415001D01*
X-73715000Y-7448416D01*
X-73715001Y-13577964D01*
X-73765920Y-13515919D01*
X-73976813Y-13342843D01*
X-74217420Y-13214236D01*
X-74478494Y-13135040D01*
X-74750000Y-13108299D01*
X-75021507Y-13135040D01*
X-75282581Y-13214236D01*
X-75523188Y-13342843D01*
X-75734081Y-13515920D01*
X-75907157Y-13726813D01*
X-76035764Y-13967420D01*
X-76114960Y-14228494D01*
X-76135000Y-14431964D01*
X-76134999Y-17568037D01*
X-76114959Y-17771507D01*
X-76035763Y-18032581D01*
X-75907156Y-18273188D01*
X-75734080Y-18484081D01*
X-75523187Y-18657157D01*
X-75282580Y-18785764D01*
X-75021506Y-18864960D01*
X-74750000Y-18891701D01*
X-74478493Y-18864960D01*
X-74217419Y-18785764D01*
X-73976812Y-18657157D01*
X-73765919Y-18484081D01*
X-73592843Y-18273188D01*
X-73464236Y-18032581D01*
X-73388558Y-17783106D01*
X-72149430Y-19022236D01*
X-72128139Y-19048179D01*
X-72102196Y-19069470D01*
X-72102193Y-19069473D01*
X-72024596Y-19133155D01*
X-71906464Y-19196298D01*
X-71778283Y-19235181D01*
X-71644980Y-19248310D01*
X-71611576Y-19245020D01*
X-60842259Y-19245020D01*
X-60808855Y-19248310D01*
X-60775451Y-19245020D01*
X-60675552Y-19235181D01*
X-60547371Y-19196298D01*
X-60429239Y-19133155D01*
X-60325696Y-19048179D01*
X-60304396Y-19022225D01*
X-58088417Y-16806246D01*
X-43704407Y-16806246D01*
X-43400123Y-17873723D01*
X-42893431Y-18861326D01*
X-42203803Y-19731101D01*
X-41357741Y-20449624D01*
X-40387759Y-20989282D01*
X-39331133Y-21329337D01*
X-39144115Y-21366538D01*
X-38260128Y-21297308D01*
X-38260128Y-15922259D01*
X-38006128Y-15922259D01*
X-38006128Y-21297308D01*
X-37122141Y-21366538D01*
X-36054664Y-21062254D01*
X-35067061Y-20555562D01*
X-34197286Y-19865934D01*
X-33478763Y-19019872D01*
X-32939105Y-18049890D01*
X-32599050Y-16993264D01*
X-32561849Y-16806246D01*
X-32631079Y-15922259D01*
X-38006128Y-15922259D01*
X-38260128Y-15922259D01*
X-43635177Y-15922259D01*
X-43704407Y-16806246D01*
X-58088417Y-16806246D01*
X-56066443Y-14784272D01*
X-43704407Y-14784272D01*
X-43635177Y-15668259D01*
X-38260128Y-15668259D01*
X-38260128Y-10293210D01*
X-38006128Y-10293210D01*
X-38006128Y-15668259D01*
X-32631079Y-15668259D01*
X-32561849Y-14784272D01*
X-32866133Y-13716795D01*
X-33372825Y-12729192D01*
X-34062453Y-11859417D01*
X-34781128Y-11249078D01*
X-14315000Y-11249078D01*
X-14315000Y-11650922D01*
X-14236604Y-12045046D01*
X-14082825Y-12416303D01*
X-13859572Y-12750424D01*
X-13575424Y-13034572D01*
X-13241303Y-13257825D01*
X-12870046Y-13411604D01*
X-12475922Y-13490000D01*
X-12074078Y-13490000D01*
X-11679954Y-13411604D01*
X-11308697Y-13257825D01*
X-10974576Y-13034572D01*
X-10690428Y-12750424D01*
X-10467175Y-12416303D01*
X-10313396Y-12045046D01*
X-10235000Y-11650922D01*
X-10235000Y-11249078D01*
X-10313396Y-10854954D01*
X-10467175Y-10483697D01*
X-10690428Y-10149576D01*
X-10974576Y-9865428D01*
X-11308697Y-9642175D01*
X-11679954Y-9488396D01*
X-12074078Y-9410000D01*
X-12475922Y-9410000D01*
X-12870046Y-9488396D01*
X-13241303Y-9642175D01*
X-13575424Y-9865428D01*
X-13859572Y-10149576D01*
X-14082825Y-10483697D01*
X-14236604Y-10854954D01*
X-14315000Y-11249078D01*
X-34781128Y-11249078D01*
X-34908515Y-11140894D01*
X-35878497Y-10601236D01*
X-36935123Y-10261181D01*
X-37122141Y-10223980D01*
X-38006128Y-10293210D01*
X-38260128Y-10293210D01*
X-39144115Y-10223980D01*
X-40211592Y-10528264D01*
X-41199195Y-11034956D01*
X-42068970Y-11724584D01*
X-42787493Y-12570646D01*
X-43327151Y-13540628D01*
X-43667206Y-14597254D01*
X-43704407Y-14784272D01*
X-56066443Y-14784272D01*
X-50002170Y-8720000D01*
X-8083404Y-8720000D01*
X-8050000Y-8723290D01*
X-8016596Y-8720000D01*
X-7916697Y-8710161D01*
X-7788516Y-8671278D01*
X-7670384Y-8608135D01*
X-7566841Y-8523159D01*
X-7545541Y-8497205D01*
X-698335Y-1650000D01*
X-122802Y-1650000D01*
X-89398Y-1653290D01*
X-55994Y-1650000D01*
X43905Y-1640161D01*
X172086Y-1601278D01*
X290218Y-1538135D01*
X393761Y-1453159D01*
X415061Y-1427205D01*
X836577Y-1005690D01*
X950600Y-1052920D01*
X1162152Y-1095000D01*
X1377848Y-1095000D01*
X1589400Y-1052920D01*
X1788677Y-970376D01*
X1905000Y-892652D01*
X2021323Y-970376D01*
X2220600Y-1052920D01*
X2432152Y-1095000D01*
X2647848Y-1095000D01*
X2859400Y-1052920D01*
X3058677Y-970376D01*
X3175000Y-892652D01*
X3291323Y-970376D01*
X3490600Y-1052920D01*
X3702152Y-1095000D01*
X3917848Y-1095000D01*
X4129400Y-1052920D01*
X4328677Y-970376D01*
X4445000Y-892652D01*
X4561323Y-970376D01*
X4760600Y-1052920D01*
X4972152Y-1095000D01*
X5187848Y-1095000D01*
X5399400Y-1052920D01*
X5513423Y-1005689D01*
X5559940Y-1052206D01*
X5581240Y-1078160D01*
X5684783Y-1163136D01*
X5785211Y-1216816D01*
X5802915Y-1226279D01*
X5931096Y-1265162D01*
X6064399Y-1278291D01*
X6097803Y-1275001D01*
X7872197Y-1275001D01*
X7905601Y-1278291D01*
X7939005Y-1275001D01*
X8038904Y-1265162D01*
X8167085Y-1226279D01*
X8285217Y-1163136D01*
X8388760Y-1078160D01*
X8410059Y-1052207D01*
X8672215Y-790052D01*
X8698159Y-768760D01*
X8783136Y-665217D01*
X8846279Y-547085D01*
X8885162Y-418904D01*
X8895001Y-319005D01*
X8895001Y-319004D01*
X8898291Y-285601D01*
X8895001Y-252197D01*
X8895001Y717197D01*
X8898291Y750601D01*
X8898260Y750922D01*
X10235000Y750922D01*
X10235000Y349078D01*
X10313396Y-45046D01*
X10467175Y-416303D01*
X10690428Y-750424D01*
X10974576Y-1034572D01*
X11308697Y-1257825D01*
X11679954Y-1411604D01*
X12074078Y-1490000D01*
X12475922Y-1490000D01*
X12870046Y-1411604D01*
X13241303Y-1257825D01*
X13575424Y-1034572D01*
X13859572Y-750424D01*
X14082825Y-416303D01*
X14236604Y-45046D01*
X14315000Y349078D01*
X14315000Y750922D01*
X14236604Y1145046D01*
X14082825Y1516303D01*
X13859572Y1850424D01*
X13575424Y2134572D01*
X13241303Y2357825D01*
X12870046Y2511604D01*
X12475922Y2590000D01*
X12074078Y2590000D01*
X11679954Y2511604D01*
X11308697Y2357825D01*
X10974576Y2134572D01*
X10690428Y1850424D01*
X10467175Y1516303D01*
X10313396Y1145046D01*
X10235000Y750922D01*
X8898260Y750922D01*
X8885162Y883904D01*
X8846279Y1012085D01*
X8783136Y1130217D01*
X8770966Y1145046D01*
X8698160Y1233760D01*
X8672211Y1255056D01*
X6160061Y3767205D01*
X6138761Y3793159D01*
X6035218Y3878135D01*
X5917086Y3941278D01*
X5788905Y3980161D01*
X5689006Y3990000D01*
X5655602Y3993290D01*
X5622198Y3990000D01*
X4668160Y3990000D01*
X4634552Y3993310D01*
X4601148Y3990020D01*
X-45017618Y3990020D01*
X-55811870Y14784272D01*
X-43704407Y14784272D01*
X-43400123Y13716795D01*
X-42893431Y12729192D01*
X-42203803Y11859417D01*
X-41357741Y11140894D01*
X-40387759Y10601236D01*
X-39331133Y10261181D01*
X-39144115Y10223980D01*
X-38260128Y10293210D01*
X-38260128Y15668259D01*
X-38006128Y15668259D01*
X-38006128Y10293210D01*
X-37122141Y10223980D01*
X-36054664Y10528264D01*
X-35067061Y11034956D01*
X-34197286Y11724584D01*
X-33478763Y12570646D01*
X-33378465Y12750922D01*
X-14315000Y12750922D01*
X-14315000Y12349078D01*
X-14236604Y11954954D01*
X-14082825Y11583697D01*
X-13859572Y11249576D01*
X-13575424Y10965428D01*
X-13241303Y10742175D01*
X-12870046Y10588396D01*
X-12475922Y10510000D01*
X-12074078Y10510000D01*
X-11679954Y10588396D01*
X-11308697Y10742175D01*
X-10974576Y10965428D01*
X-10690428Y11249576D01*
X-10467175Y11583697D01*
X-10313396Y11954954D01*
X-10235000Y12349078D01*
X-10235000Y12750922D01*
X-10313396Y13145046D01*
X-10467175Y13516303D01*
X-10690428Y13850424D01*
X-10974576Y14134572D01*
X-11308697Y14357825D01*
X-11679954Y14511604D01*
X-12074078Y14590000D01*
X-12475922Y14590000D01*
X-12870046Y14511604D01*
X-13241303Y14357825D01*
X-13575424Y14134572D01*
X-13859572Y13850424D01*
X-14082825Y13516303D01*
X-14236604Y13145046D01*
X-14315000Y12750922D01*
X-33378465Y12750922D01*
X-32939105Y13540628D01*
X-32599050Y14597254D01*
X-32561849Y14784272D01*
X-32631079Y15668259D01*
X-38006128Y15668259D01*
X-38260128Y15668259D01*
X-43635177Y15668259D01*
X-43704407Y14784272D01*
X-55811870Y14784272D01*
X-57833844Y16806246D01*
X-43704407Y16806246D01*
X-43635177Y15922259D01*
X-38260128Y15922259D01*
X-38260128Y21297308D01*
X-38006128Y21297308D01*
X-38006128Y15922259D01*
X-32631079Y15922259D01*
X-32561849Y16806246D01*
X-32866133Y17873723D01*
X-33372825Y18861326D01*
X-34062453Y19731101D01*
X-34908515Y20449624D01*
X-35878497Y20989282D01*
X-36935123Y21329337D01*
X-37122141Y21366538D01*
X-38006128Y21297308D01*
X-38260128Y21297308D01*
X-39144115Y21366538D01*
X-40211592Y21062254D01*
X-41199195Y20555562D01*
X-42068970Y19865934D01*
X-42787493Y19019872D01*
X-43327151Y18049890D01*
X-43667206Y16993264D01*
X-43704407Y16806246D01*
X-57833844Y16806246D01*
X-60229834Y19202235D01*
X-60251134Y19228189D01*
X-60354677Y19313165D01*
X-60472809Y19376308D01*
X-60600990Y19415191D01*
X-60700889Y19425030D01*
X-60734293Y19428320D01*
X-60767697Y19425030D01*
X-70901566Y19425030D01*
X-70934970Y19428320D01*
X-71068273Y19415191D01*
X-71196454Y19376308D01*
X-71314586Y19313165D01*
X-71392183Y19249483D01*
X-71392184Y19249482D01*
X-71418129Y19228189D01*
X-71439420Y19202246D01*
X-72992210Y17649454D01*
X-73018160Y17628157D01*
X-73103136Y17524614D01*
X-73160819Y17416697D01*
X-73166279Y17406482D01*
X-73205162Y17278302D01*
X-73218291Y17144999D01*
X-73215001Y17111595D01*
X-73215001Y16676603D01*
X-73218291Y16643199D01*
X-73215001Y16609795D01*
X-73205162Y16509896D01*
X-73166279Y16381715D01*
X-73103136Y16263583D01*
X-73018159Y16160040D01*
X-72992211Y16138745D01*
X-72905697Y16052231D01*
X-72990256Y16017205D01*
X-73159774Y15903937D01*
X-73303937Y15759774D01*
X-73365000Y15668387D01*
X-73365000Y17568037D01*
X-73385040Y17771507D01*
X-73464236Y18032581D01*
X-73592843Y18273188D01*
X-73765920Y18484081D01*
X-73976813Y18657157D01*
X-74217420Y18785764D01*
X-74478494Y18864960D01*
X-74750000Y18891701D01*
X-75021507Y18864960D01*
X-75282581Y18785764D01*
X-75523188Y18657157D01*
X-75734081Y18484080D01*
X-75907157Y18273187D01*
X-76035764Y18032580D01*
X-76114960Y17771506D01*
X-76135000Y17568036D01*
X-81340000Y17568036D01*
X-81340000Y22709363D01*
X-65592706Y37122141D01*
X-21366538Y37122141D01*
X-21062254Y36054664D01*
X-20555562Y35067061D01*
X-19865934Y34197286D01*
X-19019872Y33478763D01*
X-18049890Y32939105D01*
X-16993264Y32599050D01*
X-16806246Y32561849D01*
X-15922259Y32631079D01*
X-15922259Y38006128D01*
X-15668259Y38006128D01*
X-15668259Y32631079D01*
X-14784272Y32561849D01*
X-13716795Y32866133D01*
X-12729192Y33372825D01*
X-11859417Y34062453D01*
X-11140894Y34908515D01*
X-10601236Y35878497D01*
X-10261181Y36935123D01*
X-10223980Y37122141D01*
X-10293210Y38006128D01*
X-15668259Y38006128D01*
X-15922259Y38006128D01*
X-21297308Y38006128D01*
X-21366538Y37122141D01*
X-65592706Y37122141D01*
X-63383513Y39144115D01*
X-21366538Y39144115D01*
X-21297308Y38260128D01*
X-15922259Y38260128D01*
X-15922259Y43635177D01*
X-16806246Y43704407D01*
X-17873723Y43400123D01*
X-18861326Y42893431D01*
X-19731101Y42203803D01*
X-20449624Y41357741D01*
X-20989282Y40387759D01*
X-21329337Y39331133D01*
X-21366538Y39144115D01*
X-63383513Y39144115D01*
X-32992081Y66960000D01*
X-25303290Y66960000D01*
X-25299999Y66926585D01*
X-25300000Y54333404D01*
X-25303290Y54300000D01*
X-25295265Y54218517D01*
X-25290161Y54166698D01*
X-25251278Y54038517D01*
X-25188135Y53920385D01*
X-25103159Y53816842D01*
X-25077209Y53795545D01*
X-14971415Y43689751D01*
X-15668259Y43635177D01*
X-15668259Y38439736D01*
X-15781118Y38326877D01*
X-15601510Y38147269D01*
X-15488651Y38260128D01*
X-10293210Y38260128D01*
X-10238636Y38956971D01*
X-8899999Y37618334D01*
X-8900000Y13271664D01*
X-8957210Y13214454D01*
X-8983158Y13193159D01*
X-9068134Y13089616D01*
X-9087748Y13052920D01*
X-9131278Y12971483D01*
X-9170161Y12843303D01*
X-9183290Y12710000D01*
X-9179999Y12676586D01*
X-9180000Y11423405D01*
X-9183290Y11390000D01*
X-9170161Y11256697D01*
X-9131278Y11128517D01*
X-9068135Y11010385D01*
X-8983159Y10906842D01*
X-8957209Y10885545D01*
X-8644459Y10572795D01*
X-8623159Y10546841D01*
X-8519616Y10461865D01*
X-8401484Y10398722D01*
X-8273303Y10359839D01*
X-8140000Y10346710D01*
X-8106596Y10350000D01*
X-5202802Y10350000D01*
X-5169398Y10346710D01*
X-5135994Y10350000D01*
X-5036095Y10359839D01*
X-4907914Y10398722D01*
X-4789782Y10461865D01*
X-4686239Y10546841D01*
X-4664939Y10572795D01*
X-4243423Y10994310D01*
X-4129400Y10947080D01*
X-3917848Y10905000D01*
X-3702152Y10905000D01*
X-3490600Y10947080D01*
X-3291323Y11029624D01*
X-3175000Y11107348D01*
X-3058677Y11029624D01*
X-2859400Y10947080D01*
X-2647848Y10905000D01*
X-2432152Y10905000D01*
X-2220600Y10947080D01*
X-2021323Y11029624D01*
X-1905000Y11107348D01*
X-1788677Y11029624D01*
X-1589400Y10947080D01*
X-1377848Y10905000D01*
X-1162152Y10905000D01*
X-950600Y10947080D01*
X-751323Y11029624D01*
X-635000Y11107348D01*
X-518677Y11029624D01*
X-319400Y10947080D01*
X-107848Y10905000D01*
X107848Y10905000D01*
X319400Y10947080D01*
X433423Y10994310D01*
X659954Y10767779D01*
X681250Y10741830D01*
X784793Y10656854D01*
X902925Y10593711D01*
X1031106Y10554828D01*
X1131005Y10544989D01*
X1131014Y10544989D01*
X1164408Y10541700D01*
X1197802Y10544989D01*
X7946759Y10544989D01*
X7980163Y10541699D01*
X8013567Y10544989D01*
X8032382Y10546842D01*
X8113466Y10554828D01*
X8129985Y10559839D01*
X8241647Y10593711D01*
X8359779Y10656854D01*
X8463322Y10741830D01*
X8484622Y10767784D01*
X10235000Y12518161D01*
X10235000Y12349078D01*
X10313396Y11954954D01*
X10467175Y11583697D01*
X10690428Y11249576D01*
X10974576Y10965428D01*
X11308697Y10742175D01*
X11679954Y10588396D01*
X12074078Y10510000D01*
X12475922Y10510000D01*
X12870046Y10588396D01*
X13241303Y10742175D01*
X13575424Y10965428D01*
X13859572Y11249576D01*
X14082825Y11583697D01*
X14236604Y11954954D01*
X14315000Y12349078D01*
X14315000Y12750922D01*
X14236604Y13145046D01*
X14082825Y13516303D01*
X13859572Y13850424D01*
X13575424Y14134572D01*
X13241303Y14357825D01*
X12870046Y14511604D01*
X12475922Y14590000D01*
X12074078Y14590000D01*
X11679954Y14511604D01*
X11340258Y14370898D01*
X11340258Y14784272D01*
X32561849Y14784272D01*
X32866133Y13716795D01*
X33372825Y12729192D01*
X34062453Y11859417D01*
X34908515Y11140894D01*
X35878497Y10601236D01*
X36935123Y10261181D01*
X37122141Y10223980D01*
X38006128Y10293210D01*
X38006128Y15668259D01*
X38260128Y15668259D01*
X38260128Y10293210D01*
X39144115Y10223980D01*
X40211592Y10528264D01*
X41199195Y11034956D01*
X42068970Y11724584D01*
X42787493Y12570646D01*
X43327151Y13540628D01*
X43667206Y14597254D01*
X43704407Y14784272D01*
X43635177Y15668259D01*
X38260128Y15668259D01*
X38006128Y15668259D01*
X32631079Y15668259D01*
X32561849Y14784272D01*
X11340258Y14784272D01*
X11340258Y16806246D01*
X32561849Y16806246D01*
X32631079Y15922259D01*
X38006128Y15922259D01*
X38006128Y21297308D01*
X38260128Y21297308D01*
X38260128Y15922259D01*
X43635177Y15922259D01*
X43704407Y16806246D01*
X43400123Y17873723D01*
X42893431Y18861326D01*
X42203803Y19731101D01*
X41357741Y20449624D01*
X40387759Y20989282D01*
X39331133Y21329337D01*
X39144115Y21366538D01*
X38260128Y21297308D01*
X38006128Y21297308D01*
X37122141Y21366538D01*
X36054664Y21062254D01*
X35067061Y20555562D01*
X34197286Y19865934D01*
X33478763Y19019872D01*
X32939105Y18049890D01*
X32599050Y16993264D01*
X32561849Y16806246D01*
X11340258Y16806246D01*
X11340258Y34682007D01*
X11724584Y34197286D01*
X12570646Y33478763D01*
X13540628Y32939105D01*
X14597254Y32599050D01*
X14784272Y32561849D01*
X15668259Y32631079D01*
X15668259Y38006128D01*
X15922259Y38006128D01*
X15922259Y32631079D01*
X16806246Y32561849D01*
X17873723Y32866133D01*
X18861326Y33372825D01*
X19731101Y34062453D01*
X20449624Y34908515D01*
X20989282Y35878497D01*
X21329337Y36935123D01*
X21366538Y37122141D01*
X21297308Y38006128D01*
X15922259Y38006128D01*
X15668259Y38006128D01*
X11340258Y38006128D01*
X11340258Y38260128D01*
X15668259Y38260128D01*
X15668259Y43635177D01*
X15922259Y43635177D01*
X15922259Y38260128D01*
X21297308Y38260128D01*
X21366538Y39144115D01*
X21062254Y40211592D01*
X20555562Y41199195D01*
X19865934Y42068970D01*
X19019872Y42787493D01*
X18049890Y43327151D01*
X16993264Y43667206D01*
X16806246Y43704407D01*
X15922259Y43635177D01*
X15668259Y43635177D01*
X14784272Y43704407D01*
X13716795Y43400123D01*
X12729192Y42893431D01*
X11859417Y42203803D01*
X11340258Y41592492D01*
X11340258Y47868594D01*
X18842220Y55370555D01*
X18868169Y55391851D01*
X18953145Y55495394D01*
X19016288Y55613526D01*
X19055171Y55741706D01*
X19056543Y55755637D01*
X19065010Y55841606D01*
X19065010Y55841612D01*
X19068299Y55875009D01*
X19065010Y55908406D01*
X19065010Y70083190D01*
X19068299Y70116584D01*
X19065010Y70149978D01*
X19065010Y70149987D01*
X19055171Y70249886D01*
X19016288Y70378067D01*
X18953145Y70496199D01*
X18868168Y70599742D01*
X18842225Y70621033D01*
X18371042Y71092215D01*
X18349742Y71118169D01*
X18246199Y71203145D01*
X18128067Y71266288D01*
X17999886Y71305171D01*
X17899987Y71315010D01*
X17866583Y71318300D01*
X17833179Y71315010D01*
X7068403Y71315010D01*
X7035009Y71318299D01*
X7001615Y71315010D01*
X7001606Y71315010D01*
X6901707Y71305171D01*
X6773526Y71266288D01*
X6655394Y71203145D01*
X6551851Y71118169D01*
X6530555Y71092220D01*
X1935000Y66496664D01*
X1935000Y66601939D01*
X1895226Y66801898D01*
X1817205Y66990256D01*
X1810694Y67000000D01*
X1817205Y67009744D01*
X1895226Y67198102D01*
X1935000Y67398061D01*
X1935000Y67601939D01*
X1895226Y67801898D01*
X1817205Y67990256D01*
X1703937Y68159774D01*
X1559774Y68303937D01*
X1468387Y68365000D01*
X1568037Y68365000D01*
X1771507Y68385040D01*
X2032581Y68464236D01*
X2273188Y68592843D01*
X2484081Y68765919D01*
X2657157Y68976812D01*
X2785764Y69217419D01*
X2864960Y69478493D01*
X2891701Y69750000D01*
X2864960Y70021507D01*
X2785764Y70282581D01*
X2657157Y70523188D01*
X2484081Y70734081D01*
X2273188Y70907157D01*
X2032581Y71035764D01*
X1771507Y71114960D01*
X1568037Y71135000D01*
X-1568037Y71135000D01*
X-1771507Y71114960D01*
X-2032581Y71035764D01*
X-2273188Y70907157D01*
X-2484081Y70734081D01*
X-2657157Y70523188D01*
X-2785764Y70282581D01*
X-2864960Y70021507D01*
X-2891701Y69750000D01*
X-2864960Y69478493D01*
X-2785764Y69217419D01*
X-2657157Y68976812D01*
X-2484081Y68765919D01*
X-2273188Y68592843D01*
X-2249160Y68580000D01*
X-3166596Y68580000D01*
X-3200000Y68583290D01*
X-3233404Y68580000D01*
X-3333303Y68570161D01*
X-3461484Y68531278D01*
X-3579616Y68468135D01*
X-3683159Y68383159D01*
X-3768135Y68279616D01*
X-3831278Y68161484D01*
X-3870161Y68033303D01*
X-3883290Y67900000D01*
X-3879999Y67866585D01*
X-3880000Y35301665D01*
X-23340000Y54761664D01*
X-23340000Y60878336D01*
X-21898335Y62320000D01*
X-18181664Y62320000D01*
X-17935000Y62073335D01*
X-17935000Y61898061D01*
X-17895226Y61698102D01*
X-17817205Y61509744D01*
X-17810694Y61500000D01*
X-17817205Y61490256D01*
X-17895226Y61301898D01*
X-17935000Y61101939D01*
X-17935000Y60898061D01*
X-17895226Y60698102D01*
X-17817205Y60509744D01*
X-17810694Y60500000D01*
X-17817205Y60490256D01*
X-17895226Y60301898D01*
X-17935000Y60101939D01*
X-17935000Y59898061D01*
X-17895226Y59698102D01*
X-17817205Y59509744D01*
X-17810694Y59500000D01*
X-17817205Y59490256D01*
X-17895226Y59301898D01*
X-17935000Y59101939D01*
X-17935000Y58898061D01*
X-17895226Y58698102D01*
X-17817205Y58509744D01*
X-17703937Y58340226D01*
X-17559774Y58196063D01*
X-17390256Y58082795D01*
X-17201898Y58004774D01*
X-17001939Y57965000D01*
X-16798061Y57965000D01*
X-16598102Y58004774D01*
X-16409744Y58082795D01*
X-16240226Y58196063D01*
X-16118945Y58317344D01*
X-16095226Y58198102D01*
X-16017205Y58009744D01*
X-15903937Y57840226D01*
X-15759774Y57696063D01*
X-15668387Y57635000D01*
X-17568037Y57635000D01*
X-17771507Y57614960D01*
X-18032581Y57535764D01*
X-18273188Y57407157D01*
X-18484081Y57234081D01*
X-18657157Y57023188D01*
X-18785764Y56782581D01*
X-18864960Y56521507D01*
X-18891701Y56250000D01*
X-18864960Y55978493D01*
X-18785764Y55717419D01*
X-18657157Y55476812D01*
X-18484081Y55265919D01*
X-18273188Y55092843D01*
X-18032581Y54964236D01*
X-17771507Y54885040D01*
X-17568037Y54865000D01*
X-14431963Y54865000D01*
X-14228493Y54885040D01*
X-13967419Y54964236D01*
X-13726812Y55092843D01*
X-13515919Y55265919D01*
X-13342843Y55476812D01*
X-13214236Y55717419D01*
X-13135040Y55978493D01*
X-13108299Y56250000D01*
X-13135040Y56521507D01*
X-13214236Y56782581D01*
X-13342843Y57023188D01*
X-13515919Y57234081D01*
X-13726812Y57407157D01*
X-13967419Y57535764D01*
X-14228493Y57614960D01*
X-14431963Y57635000D01*
X-14531613Y57635000D01*
X-14440226Y57696063D01*
X-14296063Y57840226D01*
X-14182795Y58009744D01*
X-14104774Y58198102D01*
X-14065000Y58398061D01*
X-14065000Y58601939D01*
X-14104774Y58801898D01*
X-14182795Y58990256D01*
X-14188843Y58999308D01*
X-14109423Y59183184D01*
X-14066649Y59382523D01*
X-14063587Y59586377D01*
X-14100353Y59786912D01*
X-14175534Y59976420D01*
X-14188656Y60000972D01*
X-14182795Y60009744D01*
X-14104774Y60198102D01*
X-14065000Y60398061D01*
X-14065000Y60601939D01*
X-14104774Y60801898D01*
X-14182795Y60990256D01*
X-14189306Y61000000D01*
X-14182795Y61009744D01*
X-14104774Y61198102D01*
X-14065000Y61398061D01*
X-14065000Y61601939D01*
X-14104774Y61801898D01*
X-14182795Y61990256D01*
X-14188843Y61999308D01*
X-14109423Y62183184D01*
X-14066649Y62382523D01*
X-14063587Y62586377D01*
X-14100353Y62786912D01*
X-14175534Y62976420D01*
X-14188656Y63000972D01*
X-14182795Y63009744D01*
X-14104774Y63198102D01*
X-14065000Y63398061D01*
X-14065000Y63573335D01*
X-13792784Y63845550D01*
X-13766841Y63866841D01*
X-13745550Y63892784D01*
X-13745547Y63892787D01*
X-13681865Y63970384D01*
X-13618722Y64088516D01*
X-13579839Y64216697D01*
X-13566710Y64350000D01*
X-13570000Y64383404D01*
X-13570000Y67876596D01*
X-13566710Y67910000D01*
X-13579839Y68043303D01*
X-13618722Y68171484D01*
X-13681865Y68289616D01*
X-13745547Y68367213D01*
X-13745554Y68367220D01*
X-13766842Y68393159D01*
X-13792780Y68414446D01*
X-13886059Y68507724D01*
X-13726812Y68592843D01*
X-13515919Y68765919D01*
X-13342843Y68976812D01*
X-13214236Y69217419D01*
X-13135040Y69478493D01*
X-13108299Y69750000D01*
X-13135040Y70021507D01*
X-13214236Y70282581D01*
X-13342843Y70523188D01*
X-13515919Y70734081D01*
X-13726812Y70907157D01*
X-13967419Y71035764D01*
X-14228493Y71114960D01*
X-14431963Y71135000D01*
X-17568037Y71135000D01*
X-17771507Y71114960D01*
X-18032581Y71035764D01*
X-18273188Y70907157D01*
X-18484081Y70734081D01*
X-18657157Y70523188D01*
X-18785764Y70282581D01*
X-18864960Y70021507D01*
X-18891701Y69750000D01*
X-18864960Y69478493D01*
X-18785764Y69217419D01*
X-18706967Y69070000D01*
X-23156607Y69070000D01*
X-23190001Y69073289D01*
X-23223395Y69070000D01*
X-23223404Y69070000D01*
X-23323303Y69060161D01*
X-23451484Y69021278D01*
X-23569616Y68958135D01*
X-23673159Y68873159D01*
X-23694455Y68847210D01*
X-25077210Y67464454D01*
X-25103158Y67443159D01*
X-25188134Y67339616D01*
X-25192277Y67331865D01*
X-25251278Y67221483D01*
X-25290161Y67093303D01*
X-25303290Y66960000D01*
X-32992081Y66960000D01*
X-22743562Y76340000D01*
X22726620Y76340000D01*
X59340001Y39726618D01*
%TA.AperFunction,Conductor*%
D18*
G36*
X59340001Y39726618D02*
G01*
X59340000Y-39726619D01*
X22726620Y-76340000D01*
X-22743562Y-76340000D01*
X-44814716Y-56139283D01*
X-19833310Y-56139283D01*
X-19830020Y-56172688D01*
X-19830018Y-66262941D01*
X-19833309Y-66296355D01*
X-19820180Y-66429658D01*
X-19781297Y-66557838D01*
X-19781296Y-66557839D01*
X-19718153Y-66675971D01*
X-19633177Y-66779514D01*
X-19607229Y-66800809D01*
X-17964465Y-68443573D01*
X-18032581Y-68464236D01*
X-18273188Y-68592843D01*
X-18484081Y-68765919D01*
X-18657157Y-68976812D01*
X-18785764Y-69217419D01*
X-18864960Y-69478493D01*
X-18891701Y-69750000D01*
X-18864960Y-70021507D01*
X-18785764Y-70282581D01*
X-18657157Y-70523188D01*
X-18484081Y-70734081D01*
X-18273188Y-70907157D01*
X-18032581Y-71035764D01*
X-17771507Y-71114960D01*
X-17568037Y-71135000D01*
X-14431963Y-71135000D01*
X-14228493Y-71114960D01*
X-13967419Y-71035764D01*
X-13726812Y-70907157D01*
X-13515919Y-70734081D01*
X-13342843Y-70523188D01*
X-13214236Y-70282581D01*
X-13135040Y-70021507D01*
X-13108299Y-69750000D01*
X-13135040Y-69478493D01*
X-13214236Y-69217419D01*
X-13342843Y-68976812D01*
X-13409976Y-68895011D01*
X-2590024Y-68895011D01*
X-2657157Y-68976812D01*
X-2785764Y-69217419D01*
X-2864960Y-69478493D01*
X-2891701Y-69750000D01*
X-2864960Y-70021507D01*
X-2785764Y-70282581D01*
X-2657157Y-70523188D01*
X-2484081Y-70734081D01*
X-2273188Y-70907157D01*
X-2032581Y-71035764D01*
X-1771507Y-71114960D01*
X-1568037Y-71135000D01*
X1568037Y-71135000D01*
X1771507Y-71114960D01*
X2032581Y-71035764D01*
X2273188Y-70907157D01*
X2484081Y-70734081D01*
X2657157Y-70523188D01*
X2785764Y-70282581D01*
X2864960Y-70021507D01*
X2891701Y-69750000D01*
X2864960Y-69478493D01*
X2785764Y-69217419D01*
X2657157Y-68976812D01*
X2484081Y-68765919D01*
X2273188Y-68592843D01*
X2032581Y-68464236D01*
X1771507Y-68385040D01*
X1568037Y-68365000D01*
X-11533Y-68365000D01*
X92216Y-68261251D01*
X118159Y-68239960D01*
X146718Y-68205162D01*
X154271Y-68195958D01*
X203136Y-68136417D01*
X266279Y-68018285D01*
X305162Y-67890104D01*
X313849Y-67801898D01*
X317798Y-67761810D01*
X373164Y-67706444D01*
X396019Y-67909736D01*
X583184Y-67990577D01*
X782523Y-68033351D01*
X986377Y-68036413D01*
X1186912Y-67999647D01*
X1376420Y-67924466D01*
X1403981Y-67909736D01*
X1426836Y-67706441D01*
X900000Y-67179605D01*
X885858Y-67193748D01*
X709493Y-67017383D01*
X798061Y-67035000D01*
X1001939Y-67035000D01*
X1095913Y-67016308D01*
X1606441Y-67526836D01*
X1809736Y-67503981D01*
X1890577Y-67316816D01*
X1933351Y-67117477D01*
X1936413Y-66913623D01*
X1899647Y-66713088D01*
X1824466Y-66523580D01*
X1811344Y-66499028D01*
X1817205Y-66490256D01*
X1895226Y-66301898D01*
X1935000Y-66101939D01*
X1935000Y-65898061D01*
X1895226Y-65698102D01*
X1817205Y-65509744D01*
X1810694Y-65500000D01*
X1817205Y-65490256D01*
X1895226Y-65301898D01*
X1935000Y-65101939D01*
X1935000Y-64898061D01*
X1895226Y-64698102D01*
X1817205Y-64509744D01*
X1811157Y-64500692D01*
X1890577Y-64316816D01*
X1933351Y-64117477D01*
X1936413Y-63913623D01*
X1899647Y-63713088D01*
X1824466Y-63523580D01*
X1811344Y-63499028D01*
X1817205Y-63490256D01*
X1895226Y-63301898D01*
X1935000Y-63101939D01*
X1935000Y-62898061D01*
X1895226Y-62698102D01*
X1888627Y-62682170D01*
X1900000Y-62683290D01*
X1933404Y-62680000D01*
X2033303Y-62670161D01*
X2161484Y-62631278D01*
X2279616Y-62568135D01*
X2383159Y-62483159D01*
X2404458Y-62457206D01*
X2842225Y-62019441D01*
X2868169Y-61998149D01*
X2889460Y-61972206D01*
X2889463Y-61972203D01*
X2953145Y-61894606D01*
X3016288Y-61776474D01*
X3055171Y-61648293D01*
X3068300Y-61514990D01*
X3065010Y-61481586D01*
X3065010Y-13486674D01*
X7290000Y-17711665D01*
X7290001Y-60316585D01*
X7286710Y-60350000D01*
X7299839Y-60483303D01*
X7338722Y-60611483D01*
X7338723Y-60611484D01*
X7401866Y-60729616D01*
X7486842Y-60833159D01*
X7512790Y-60854454D01*
X13615545Y-66957210D01*
X13636841Y-66983159D01*
X13740384Y-67068135D01*
X13858516Y-67131278D01*
X13986697Y-67170161D01*
X14086596Y-67180000D01*
X14086605Y-67180000D01*
X14111266Y-67182429D01*
X14104774Y-67198102D01*
X14065000Y-67398061D01*
X14065000Y-67601939D01*
X14104774Y-67801898D01*
X14182795Y-67990256D01*
X14296063Y-68159774D01*
X14440226Y-68303937D01*
X14531613Y-68365000D01*
X14431963Y-68365000D01*
X14228493Y-68385040D01*
X13967419Y-68464236D01*
X13726812Y-68592843D01*
X13515919Y-68765919D01*
X13342843Y-68976812D01*
X13214236Y-69217419D01*
X13135040Y-69478493D01*
X13108299Y-69750000D01*
X13135040Y-70021507D01*
X13214236Y-70282581D01*
X13342843Y-70523188D01*
X13515919Y-70734081D01*
X13726812Y-70907157D01*
X13967419Y-71035764D01*
X14228493Y-71114960D01*
X14431963Y-71135000D01*
X17568037Y-71135000D01*
X17771507Y-71114960D01*
X18032581Y-71035764D01*
X18273188Y-70907157D01*
X18484081Y-70734081D01*
X18657157Y-70523188D01*
X18785764Y-70282581D01*
X18864960Y-70021507D01*
X18891701Y-69750000D01*
X18864960Y-69478493D01*
X18785764Y-69217419D01*
X18657157Y-68976812D01*
X18484081Y-68765919D01*
X18273188Y-68592843D01*
X18032581Y-68464236D01*
X17771507Y-68385040D01*
X17568037Y-68365000D01*
X15668387Y-68365000D01*
X15759774Y-68303937D01*
X15903937Y-68159774D01*
X16017205Y-67990256D01*
X16095226Y-67801898D01*
X16114213Y-67706441D01*
X16373164Y-67706441D01*
X16396019Y-67909736D01*
X16583184Y-67990577D01*
X16782523Y-68033351D01*
X16986377Y-68036413D01*
X17186912Y-67999647D01*
X17376420Y-67924466D01*
X17403981Y-67909736D01*
X17426836Y-67706441D01*
X16900000Y-67179605D01*
X16373164Y-67706441D01*
X16114213Y-67706441D01*
X16135000Y-67601939D01*
X16135000Y-67520253D01*
X16193559Y-67526836D01*
X16704087Y-67016308D01*
X16798061Y-67035000D01*
X17001939Y-67035000D01*
X17095913Y-67016308D01*
X17606441Y-67526836D01*
X17809736Y-67503981D01*
X17890577Y-67316816D01*
X17933351Y-67117477D01*
X17936413Y-66913623D01*
X17899647Y-66713088D01*
X17824466Y-66523580D01*
X17811344Y-66499028D01*
X17817205Y-66490256D01*
X17895226Y-66301898D01*
X17935000Y-66101939D01*
X17935000Y-65898061D01*
X17895226Y-65698102D01*
X17889052Y-65683197D01*
X17890000Y-65683290D01*
X17923404Y-65680000D01*
X18023303Y-65670161D01*
X18151484Y-65631278D01*
X18269616Y-65568135D01*
X18373159Y-65483159D01*
X18394459Y-65457205D01*
X19027220Y-64824445D01*
X19053169Y-64803149D01*
X19138145Y-64699606D01*
X19201288Y-64581474D01*
X19240171Y-64453293D01*
X19250010Y-64353394D01*
X19250010Y-64353385D01*
X19253299Y-64319991D01*
X19250010Y-64286597D01*
X19250010Y-55847238D01*
X19253299Y-55813844D01*
X19250010Y-55780450D01*
X19250010Y-55780441D01*
X19240171Y-55680542D01*
X19201288Y-55552361D01*
X19138145Y-55434229D01*
X19053168Y-55330686D01*
X19027225Y-55309395D01*
X9200000Y-45482171D01*
X9200000Y-39144115D01*
X10223980Y-39144115D01*
X10528264Y-40211592D01*
X11034956Y-41199195D01*
X11724584Y-42068970D01*
X12570646Y-42787493D01*
X13540628Y-43327151D01*
X14597254Y-43667206D01*
X14784272Y-43704407D01*
X15668259Y-43635177D01*
X15668259Y-38260128D01*
X15922259Y-38260128D01*
X15922259Y-43635177D01*
X16806246Y-43704407D01*
X17873723Y-43400123D01*
X18861326Y-42893431D01*
X19731101Y-42203803D01*
X20449624Y-41357741D01*
X20989282Y-40387759D01*
X21329337Y-39331133D01*
X21366538Y-39144115D01*
X21297308Y-38260128D01*
X15922259Y-38260128D01*
X15668259Y-38260128D01*
X10293210Y-38260128D01*
X10223980Y-39144115D01*
X9200000Y-39144115D01*
X9200000Y-37122141D01*
X10223980Y-37122141D01*
X10293210Y-38006128D01*
X15668259Y-38006128D01*
X15668259Y-32631079D01*
X15922259Y-32631079D01*
X15922259Y-38006128D01*
X21297308Y-38006128D01*
X21366538Y-37122141D01*
X21062254Y-36054664D01*
X20555562Y-35067061D01*
X19865934Y-34197286D01*
X19019872Y-33478763D01*
X18049890Y-32939105D01*
X16993264Y-32599050D01*
X16806246Y-32561849D01*
X15922259Y-32631079D01*
X15668259Y-32631079D01*
X14784272Y-32561849D01*
X13716795Y-32866133D01*
X12729192Y-33372825D01*
X11859417Y-34062453D01*
X11140894Y-34908515D01*
X10601236Y-35878497D01*
X10261181Y-36935123D01*
X10223980Y-37122141D01*
X9200000Y-37122141D01*
X9200000Y-16806246D01*
X32561849Y-16806246D01*
X32866133Y-17873723D01*
X33372825Y-18861326D01*
X34062453Y-19731101D01*
X34908515Y-20449624D01*
X35878497Y-20989282D01*
X36935123Y-21329337D01*
X37122141Y-21366538D01*
X38006128Y-21297308D01*
X38006128Y-15922259D01*
X38260128Y-15922259D01*
X38260128Y-21297308D01*
X39144115Y-21366538D01*
X40211592Y-21062254D01*
X41199195Y-20555562D01*
X42068970Y-19865934D01*
X42787493Y-19019872D01*
X43327151Y-18049890D01*
X43667206Y-16993264D01*
X43704407Y-16806246D01*
X43635177Y-15922259D01*
X38260128Y-15922259D01*
X38006128Y-15922259D01*
X32631079Y-15922259D01*
X32561849Y-16806246D01*
X9200000Y-16806246D01*
X9200000Y-14784272D01*
X32561849Y-14784272D01*
X32631079Y-15668259D01*
X38006128Y-15668259D01*
X38006128Y-10293210D01*
X38260128Y-10293210D01*
X38260128Y-15668259D01*
X43635177Y-15668259D01*
X43704407Y-14784272D01*
X43400123Y-13716795D01*
X42893431Y-12729192D01*
X42203803Y-11859417D01*
X41357741Y-11140894D01*
X40387759Y-10601236D01*
X39331133Y-10261181D01*
X39144115Y-10223980D01*
X38260128Y-10293210D01*
X38006128Y-10293210D01*
X37122141Y-10223980D01*
X36054664Y-10528264D01*
X35067061Y-11034956D01*
X34197286Y-11724584D01*
X33478763Y-12570646D01*
X32939105Y-13540628D01*
X32599050Y-14597254D01*
X32561849Y-14784272D01*
X9200000Y-14784272D01*
X9200000Y-11587802D01*
X9203290Y-11554397D01*
X9190161Y-11421094D01*
X9151278Y-11292914D01*
X9127848Y-11249078D01*
X10235000Y-11249078D01*
X10235000Y-11650922D01*
X10313396Y-12045046D01*
X10467175Y-12416303D01*
X10690428Y-12750424D01*
X10974576Y-13034572D01*
X11308697Y-13257825D01*
X11679954Y-13411604D01*
X12074078Y-13490000D01*
X12475922Y-13490000D01*
X12870046Y-13411604D01*
X13241303Y-13257825D01*
X13575424Y-13034572D01*
X13859572Y-12750424D01*
X14082825Y-12416303D01*
X14236604Y-12045046D01*
X14315000Y-11650922D01*
X14315000Y-11249078D01*
X14236604Y-10854954D01*
X14082825Y-10483697D01*
X13859572Y-10149576D01*
X13575424Y-9865428D01*
X13241303Y-9642175D01*
X12870046Y-9488396D01*
X12475922Y-9410000D01*
X12074078Y-9410000D01*
X11679954Y-9488396D01*
X11308697Y-9642175D01*
X10974576Y-9865428D01*
X10690428Y-10149576D01*
X10467175Y-10483697D01*
X10313396Y-10854954D01*
X10235000Y-11249078D01*
X9127848Y-11249078D01*
X9088135Y-11174782D01*
X9003158Y-11071239D01*
X8977215Y-11049948D01*
X7775060Y-9847794D01*
X7753760Y-9821840D01*
X7650217Y-9736864D01*
X7532085Y-9673721D01*
X7403904Y-9634838D01*
X7304005Y-9624999D01*
X7270601Y-9621709D01*
X7237197Y-9624999D01*
X5073394Y-9624999D01*
X5040000Y-9621710D01*
X5006606Y-9624999D01*
X5006597Y-9624999D01*
X4906698Y-9634838D01*
X4778517Y-9673721D01*
X4660385Y-9736864D01*
X4572579Y-9808925D01*
X4552848Y-9805000D01*
X4337152Y-9805000D01*
X4125600Y-9847080D01*
X3926323Y-9929624D01*
X3810000Y-10007348D01*
X3693677Y-9929624D01*
X3494400Y-9847080D01*
X3282848Y-9805000D01*
X3067152Y-9805000D01*
X2855600Y-9847080D01*
X2656323Y-9929624D01*
X2540000Y-10007348D01*
X2423677Y-9929624D01*
X2224400Y-9847080D01*
X2012848Y-9805000D01*
X1797152Y-9805000D01*
X1585600Y-9847080D01*
X1386323Y-9929624D01*
X1270000Y-10007348D01*
X1153677Y-9929624D01*
X954400Y-9847080D01*
X742848Y-9805000D01*
X527152Y-9805000D01*
X505893Y-9809229D01*
X149459Y-9452795D01*
X128159Y-9426841D01*
X24616Y-9341865D01*
X-93516Y-9278722D01*
X-221697Y-9239839D01*
X-321596Y-9230000D01*
X-355000Y-9226710D01*
X-388404Y-9230000D01*
X-7096770Y-9230000D01*
X-7130174Y-9226710D01*
X-7263477Y-9239839D01*
X-7391658Y-9278722D01*
X-7509790Y-9341865D01*
X-7587387Y-9405547D01*
X-7587388Y-9405548D01*
X-7613333Y-9426841D01*
X-7634624Y-9452784D01*
X-8852221Y-10670382D01*
X-8878170Y-10691679D01*
X-8963146Y-10795222D01*
X-9019151Y-10900000D01*
X-9026289Y-10913354D01*
X-9065172Y-11041534D01*
X-9078301Y-11174837D01*
X-9075011Y-11208242D01*
X-9075010Y-13171575D01*
X-9078301Y-13204989D01*
X-9065172Y-13338292D01*
X-9026289Y-13466472D01*
X-9011246Y-13494615D01*
X-8963145Y-13584605D01*
X-8878169Y-13688148D01*
X-8852221Y-13709443D01*
X-7580010Y-14981656D01*
X-7580009Y-48280866D01*
X-11938199Y-48280866D01*
X-11971603Y-48277576D01*
X-12104906Y-48290705D01*
X-12233087Y-48329588D01*
X-12351219Y-48392731D01*
X-12428816Y-48456413D01*
X-12428819Y-48456416D01*
X-12454762Y-48477707D01*
X-12476053Y-48503650D01*
X-19607231Y-55634830D01*
X-19633179Y-55656125D01*
X-19718155Y-55759668D01*
X-19758009Y-55834230D01*
X-19781298Y-55877800D01*
X-19820181Y-56005980D01*
X-19833310Y-56139283D01*
X-44814716Y-56139283D01*
X-63383511Y-39144115D01*
X-21366538Y-39144115D01*
X-21062254Y-40211592D01*
X-20555562Y-41199195D01*
X-19865934Y-42068970D01*
X-19019872Y-42787493D01*
X-18049890Y-43327151D01*
X-16993264Y-43667206D01*
X-16806246Y-43704407D01*
X-15922259Y-43635177D01*
X-15922259Y-38260128D01*
X-15668259Y-38260128D01*
X-15668259Y-43635177D01*
X-14784272Y-43704407D01*
X-13716795Y-43400123D01*
X-12729192Y-42893431D01*
X-11859417Y-42203803D01*
X-11140894Y-41357741D01*
X-10601236Y-40387759D01*
X-10261181Y-39331133D01*
X-10223980Y-39144115D01*
X-10293210Y-38260128D01*
X-15668259Y-38260128D01*
X-15922259Y-38260128D01*
X-21297308Y-38260128D01*
X-21366538Y-39144115D01*
X-63383511Y-39144115D01*
X-65592704Y-37122141D01*
X-21366538Y-37122141D01*
X-21297308Y-38006128D01*
X-15922259Y-38006128D01*
X-15922259Y-32631079D01*
X-15668259Y-32631079D01*
X-15668259Y-38006128D01*
X-10293210Y-38006128D01*
X-10223980Y-37122141D01*
X-10528264Y-36054664D01*
X-11034956Y-35067061D01*
X-11724584Y-34197286D01*
X-12570646Y-33478763D01*
X-13540628Y-32939105D01*
X-14597254Y-32599050D01*
X-14784272Y-32561849D01*
X-15668259Y-32631079D01*
X-15922259Y-32631079D01*
X-16806246Y-32561849D01*
X-17873723Y-32866133D01*
X-18861326Y-33372825D01*
X-19731101Y-34062453D01*
X-20449624Y-34908515D01*
X-20989282Y-35878497D01*
X-21329337Y-36935123D01*
X-21366538Y-37122141D01*
X-65592704Y-37122141D01*
X-81340000Y-22709363D01*
X-81340000Y17568036D01*
X-76135000Y17568036D01*
X-76134999Y14431963D01*
X-76114959Y14228493D01*
X-76035763Y13967419D01*
X-75907156Y13726812D01*
X-75734080Y13515919D01*
X-75523187Y13342843D01*
X-75282580Y13214236D01*
X-75021506Y13135040D01*
X-74750000Y13108299D01*
X-74478493Y13135040D01*
X-74217419Y13214236D01*
X-73976812Y13342843D01*
X-73765919Y13515919D01*
X-73592843Y13726812D01*
X-73464236Y13967419D01*
X-73385040Y14228493D01*
X-73365000Y14431963D01*
X-73365000Y14531613D01*
X-73303937Y14440226D01*
X-73159774Y14296063D01*
X-72990256Y14182795D01*
X-72801898Y14104774D01*
X-72601939Y14065000D01*
X-72398061Y14065000D01*
X-72198102Y14104774D01*
X-72009744Y14182795D01*
X-72000692Y14188843D01*
X-71816816Y14109423D01*
X-71617477Y14066649D01*
X-71413623Y14063587D01*
X-71213088Y14100353D01*
X-71023580Y14175534D01*
X-70999028Y14188656D01*
X-70990256Y14182795D01*
X-70801898Y14104774D01*
X-70601939Y14065000D01*
X-70398061Y14065000D01*
X-70198102Y14104774D01*
X-70009744Y14182795D01*
X-70000000Y14189306D01*
X-69990256Y14182795D01*
X-69801898Y14104774D01*
X-69601939Y14065000D01*
X-69398061Y14065000D01*
X-69198102Y14104774D01*
X-69009744Y14182795D01*
X-69000692Y14188843D01*
X-68816816Y14109423D01*
X-68617477Y14066649D01*
X-68413623Y14063587D01*
X-68213088Y14100353D01*
X-68023580Y14175534D01*
X-67999028Y14188656D01*
X-67990256Y14182795D01*
X-67801898Y14104774D01*
X-67601939Y14065000D01*
X-67398061Y14065000D01*
X-67198102Y14104774D01*
X-67009744Y14182795D01*
X-67000000Y14189306D01*
X-66990256Y14182795D01*
X-66801898Y14104774D01*
X-66601939Y14065000D01*
X-66398061Y14065000D01*
X-66198102Y14104774D01*
X-66009744Y14182795D01*
X-66000692Y14188843D01*
X-65816816Y14109423D01*
X-65617477Y14066649D01*
X-65413623Y14063587D01*
X-65213088Y14100353D01*
X-65023580Y14175534D01*
X-64999028Y14188656D01*
X-64990256Y14182795D01*
X-64801898Y14104774D01*
X-64601939Y14065000D01*
X-64426664Y14065000D01*
X-63874455Y13512790D01*
X-63853159Y13486841D01*
X-63749616Y13401865D01*
X-63631484Y13338722D01*
X-63503303Y13299839D01*
X-63403404Y13290000D01*
X-63403395Y13290000D01*
X-63370001Y13286711D01*
X-63336607Y13290000D01*
X-62621664Y13290000D01*
X-52576685Y3245020D01*
X-66321587Y3245020D01*
X-66354981Y3248309D01*
X-66388375Y3245020D01*
X-66388384Y3245020D01*
X-66488283Y3235181D01*
X-66616464Y3196298D01*
X-66734596Y3133155D01*
X-66838139Y3048179D01*
X-66859435Y3022230D01*
X-67461664Y2420000D01*
X-68126607Y2420000D01*
X-68160001Y2423289D01*
X-68193395Y2420000D01*
X-68193404Y2420000D01*
X-68293303Y2410161D01*
X-68421484Y2371278D01*
X-68539616Y2308135D01*
X-68643159Y2223159D01*
X-68664453Y2197212D01*
X-68926665Y1935000D01*
X-69101939Y1935000D01*
X-69301898Y1895226D01*
X-69490256Y1817205D01*
X-69500000Y1810694D01*
X-69509744Y1817205D01*
X-69698102Y1895226D01*
X-69898061Y1935000D01*
X-70101939Y1935000D01*
X-70301898Y1895226D01*
X-70490256Y1817205D01*
X-70500000Y1810694D01*
X-70509744Y1817205D01*
X-70698102Y1895226D01*
X-70898061Y1935000D01*
X-71101939Y1935000D01*
X-71301898Y1895226D01*
X-71490256Y1817205D01*
X-71500000Y1810694D01*
X-71509744Y1817205D01*
X-71698102Y1895226D01*
X-71898061Y1935000D01*
X-72101939Y1935000D01*
X-72301898Y1895226D01*
X-72490256Y1817205D01*
X-72659774Y1703937D01*
X-72803937Y1559774D01*
X-72917205Y1390256D01*
X-72995226Y1201898D01*
X-73035000Y1001939D01*
X-73035000Y798061D01*
X-72995226Y598102D01*
X-72917205Y409744D01*
X-72803937Y240226D01*
X-72682656Y118945D01*
X-72801898Y95226D01*
X-72990256Y17205D01*
X-73159774Y-96063D01*
X-73303937Y-240226D01*
X-73365000Y-331613D01*
X-73365000Y1568037D01*
X-73385040Y1771507D01*
X-73464236Y2032581D01*
X-73592843Y2273188D01*
X-73765920Y2484081D01*
X-73976813Y2657157D01*
X-74217420Y2785764D01*
X-74478494Y2864960D01*
X-74750000Y2891701D01*
X-75021507Y2864960D01*
X-75282581Y2785764D01*
X-75523188Y2657157D01*
X-75734081Y2484080D01*
X-75907157Y2273187D01*
X-76035764Y2032580D01*
X-76114960Y1771506D01*
X-76135000Y1568036D01*
X-76134999Y-1568037D01*
X-76114959Y-1771507D01*
X-76035763Y-2032581D01*
X-75907156Y-2273188D01*
X-75734080Y-2484081D01*
X-75523187Y-2657157D01*
X-75282580Y-2785764D01*
X-75021506Y-2864960D01*
X-74750000Y-2891701D01*
X-74478493Y-2864960D01*
X-74217419Y-2785764D01*
X-73976812Y-2657157D01*
X-73765919Y-2484081D01*
X-73592843Y-2273188D01*
X-73464236Y-2032581D01*
X-73385040Y-1771507D01*
X-73365000Y-1568037D01*
X-73365000Y-1468387D01*
X-73303937Y-1559774D01*
X-73159774Y-1703937D01*
X-72990256Y-1817205D01*
X-72801898Y-1895226D01*
X-72601939Y-1935000D01*
X-72398061Y-1935000D01*
X-72198102Y-1895226D01*
X-72009744Y-1817205D01*
X-72000692Y-1811157D01*
X-71816816Y-1890577D01*
X-71617477Y-1933351D01*
X-71413623Y-1936413D01*
X-71213088Y-1899647D01*
X-71023580Y-1824466D01*
X-70999028Y-1811344D01*
X-70990256Y-1817205D01*
X-70801898Y-1895226D01*
X-70601939Y-1935000D01*
X-70398061Y-1935000D01*
X-70198102Y-1895226D01*
X-70009744Y-1817205D01*
X-70000000Y-1810694D01*
X-69990256Y-1817205D01*
X-69801898Y-1895226D01*
X-69601939Y-1935000D01*
X-69398061Y-1935000D01*
X-69198102Y-1895226D01*
X-69009744Y-1817205D01*
X-69000692Y-1811157D01*
X-68816816Y-1890577D01*
X-68617477Y-1933351D01*
X-68516532Y-1934867D01*
X-73492211Y-6910547D01*
X-73518159Y-6931842D01*
X-73603135Y-7035385D01*
X-73636886Y-7098529D01*
X-73666279Y-7153518D01*
X-73705162Y-7281698D01*
X-73718291Y-7415001D01*
X-73715000Y-7448416D01*
X-73715001Y-13577964D01*
X-73765920Y-13515919D01*
X-73976813Y-13342843D01*
X-74217420Y-13214236D01*
X-74478494Y-13135040D01*
X-74750000Y-13108299D01*
X-75021507Y-13135040D01*
X-75282581Y-13214236D01*
X-75523188Y-13342843D01*
X-75734081Y-13515920D01*
X-75907157Y-13726813D01*
X-76035764Y-13967420D01*
X-76114960Y-14228494D01*
X-76135000Y-14431964D01*
X-76134999Y-17568037D01*
X-76114959Y-17771507D01*
X-76035763Y-18032581D01*
X-75907156Y-18273188D01*
X-75734080Y-18484081D01*
X-75523187Y-18657157D01*
X-75282580Y-18785764D01*
X-75021506Y-18864960D01*
X-74750000Y-18891701D01*
X-74478493Y-18864960D01*
X-74217419Y-18785764D01*
X-73976812Y-18657157D01*
X-73765919Y-18484081D01*
X-73592843Y-18273188D01*
X-73464236Y-18032581D01*
X-73388558Y-17783106D01*
X-72149430Y-19022236D01*
X-72128139Y-19048179D01*
X-72102196Y-19069470D01*
X-72102193Y-19069473D01*
X-72024596Y-19133155D01*
X-71906464Y-19196298D01*
X-71778283Y-19235181D01*
X-71644980Y-19248310D01*
X-71611576Y-19245020D01*
X-60842259Y-19245020D01*
X-60808855Y-19248310D01*
X-60775451Y-19245020D01*
X-60675552Y-19235181D01*
X-60547371Y-19196298D01*
X-60429239Y-19133155D01*
X-60325696Y-19048179D01*
X-60304396Y-19022225D01*
X-58088417Y-16806246D01*
X-43704407Y-16806246D01*
X-43400123Y-17873723D01*
X-42893431Y-18861326D01*
X-42203803Y-19731101D01*
X-41357741Y-20449624D01*
X-40387759Y-20989282D01*
X-39331133Y-21329337D01*
X-39144115Y-21366538D01*
X-38260128Y-21297308D01*
X-38260128Y-15922259D01*
X-38006128Y-15922259D01*
X-38006128Y-21297308D01*
X-37122141Y-21366538D01*
X-36054664Y-21062254D01*
X-35067061Y-20555562D01*
X-34197286Y-19865934D01*
X-33478763Y-19019872D01*
X-32939105Y-18049890D01*
X-32599050Y-16993264D01*
X-32561849Y-16806246D01*
X-32631079Y-15922259D01*
X-38006128Y-15922259D01*
X-38260128Y-15922259D01*
X-43635177Y-15922259D01*
X-43704407Y-16806246D01*
X-58088417Y-16806246D01*
X-56066443Y-14784272D01*
X-43704407Y-14784272D01*
X-43635177Y-15668259D01*
X-38260128Y-15668259D01*
X-38260128Y-10293210D01*
X-38006128Y-10293210D01*
X-38006128Y-15668259D01*
X-32631079Y-15668259D01*
X-32561849Y-14784272D01*
X-32866133Y-13716795D01*
X-33372825Y-12729192D01*
X-34062453Y-11859417D01*
X-34781128Y-11249078D01*
X-14315000Y-11249078D01*
X-14315000Y-11650922D01*
X-14236604Y-12045046D01*
X-14082825Y-12416303D01*
X-13859572Y-12750424D01*
X-13575424Y-13034572D01*
X-13241303Y-13257825D01*
X-12870046Y-13411604D01*
X-12475922Y-13490000D01*
X-12074078Y-13490000D01*
X-11679954Y-13411604D01*
X-11308697Y-13257825D01*
X-10974576Y-13034572D01*
X-10690428Y-12750424D01*
X-10467175Y-12416303D01*
X-10313396Y-12045046D01*
X-10235000Y-11650922D01*
X-10235000Y-11249078D01*
X-10313396Y-10854954D01*
X-10467175Y-10483697D01*
X-10690428Y-10149576D01*
X-10974576Y-9865428D01*
X-11308697Y-9642175D01*
X-11679954Y-9488396D01*
X-12074078Y-9410000D01*
X-12475922Y-9410000D01*
X-12870046Y-9488396D01*
X-13241303Y-9642175D01*
X-13575424Y-9865428D01*
X-13859572Y-10149576D01*
X-14082825Y-10483697D01*
X-14236604Y-10854954D01*
X-14315000Y-11249078D01*
X-34781128Y-11249078D01*
X-34908515Y-11140894D01*
X-35878497Y-10601236D01*
X-36935123Y-10261181D01*
X-37122141Y-10223980D01*
X-38006128Y-10293210D01*
X-38260128Y-10293210D01*
X-39144115Y-10223980D01*
X-40211592Y-10528264D01*
X-41199195Y-11034956D01*
X-42068970Y-11724584D01*
X-42787493Y-12570646D01*
X-43327151Y-13540628D01*
X-43667206Y-14597254D01*
X-43704407Y-14784272D01*
X-56066443Y-14784272D01*
X-50002170Y-8720000D01*
X-8083404Y-8720000D01*
X-8050000Y-8723290D01*
X-8016596Y-8720000D01*
X-7916697Y-8710161D01*
X-7788516Y-8671278D01*
X-7670384Y-8608135D01*
X-7566841Y-8523159D01*
X-7545541Y-8497205D01*
X-698335Y-1650000D01*
X-122802Y-1650000D01*
X-89398Y-1653290D01*
X-55994Y-1650000D01*
X43905Y-1640161D01*
X172086Y-1601278D01*
X290218Y-1538135D01*
X393761Y-1453159D01*
X415061Y-1427205D01*
X836577Y-1005690D01*
X950600Y-1052920D01*
X1162152Y-1095000D01*
X1377848Y-1095000D01*
X1589400Y-1052920D01*
X1788677Y-970376D01*
X1905000Y-892652D01*
X2021323Y-970376D01*
X2220600Y-1052920D01*
X2432152Y-1095000D01*
X2647848Y-1095000D01*
X2859400Y-1052920D01*
X3058677Y-970376D01*
X3175000Y-892652D01*
X3291323Y-970376D01*
X3490600Y-1052920D01*
X3702152Y-1095000D01*
X3917848Y-1095000D01*
X4129400Y-1052920D01*
X4328677Y-970376D01*
X4445000Y-892652D01*
X4561323Y-970376D01*
X4760600Y-1052920D01*
X4972152Y-1095000D01*
X5187848Y-1095000D01*
X5399400Y-1052920D01*
X5513423Y-1005689D01*
X5559940Y-1052206D01*
X5581240Y-1078160D01*
X5684783Y-1163136D01*
X5785211Y-1216816D01*
X5802915Y-1226279D01*
X5931096Y-1265162D01*
X6064399Y-1278291D01*
X6097803Y-1275001D01*
X7872197Y-1275001D01*
X7905601Y-1278291D01*
X7939005Y-1275001D01*
X8038904Y-1265162D01*
X8167085Y-1226279D01*
X8285217Y-1163136D01*
X8388760Y-1078160D01*
X8410059Y-1052207D01*
X8672215Y-790052D01*
X8698159Y-768760D01*
X8783136Y-665217D01*
X8846279Y-547085D01*
X8885162Y-418904D01*
X8895001Y-319005D01*
X8895001Y-319004D01*
X8898291Y-285601D01*
X8895001Y-252197D01*
X8895001Y717197D01*
X8898291Y750601D01*
X8898260Y750922D01*
X10235000Y750922D01*
X10235000Y349078D01*
X10313396Y-45046D01*
X10467175Y-416303D01*
X10690428Y-750424D01*
X10974576Y-1034572D01*
X11308697Y-1257825D01*
X11679954Y-1411604D01*
X12074078Y-1490000D01*
X12475922Y-1490000D01*
X12870046Y-1411604D01*
X13241303Y-1257825D01*
X13575424Y-1034572D01*
X13859572Y-750424D01*
X14082825Y-416303D01*
X14236604Y-45046D01*
X14315000Y349078D01*
X14315000Y750922D01*
X14236604Y1145046D01*
X14082825Y1516303D01*
X13859572Y1850424D01*
X13575424Y2134572D01*
X13241303Y2357825D01*
X12870046Y2511604D01*
X12475922Y2590000D01*
X12074078Y2590000D01*
X11679954Y2511604D01*
X11308697Y2357825D01*
X10974576Y2134572D01*
X10690428Y1850424D01*
X10467175Y1516303D01*
X10313396Y1145046D01*
X10235000Y750922D01*
X8898260Y750922D01*
X8885162Y883904D01*
X8846279Y1012085D01*
X8783136Y1130217D01*
X8770966Y1145046D01*
X8698160Y1233760D01*
X8672211Y1255056D01*
X6160061Y3767205D01*
X6138761Y3793159D01*
X6035218Y3878135D01*
X5917086Y3941278D01*
X5788905Y3980161D01*
X5689006Y3990000D01*
X5655602Y3993290D01*
X5622198Y3990000D01*
X4668160Y3990000D01*
X4634552Y3993310D01*
X4601148Y3990020D01*
X-45017618Y3990020D01*
X-55811870Y14784272D01*
X-43704407Y14784272D01*
X-43400123Y13716795D01*
X-42893431Y12729192D01*
X-42203803Y11859417D01*
X-41357741Y11140894D01*
X-40387759Y10601236D01*
X-39331133Y10261181D01*
X-39144115Y10223980D01*
X-38260128Y10293210D01*
X-38260128Y15668259D01*
X-38006128Y15668259D01*
X-38006128Y10293210D01*
X-37122141Y10223980D01*
X-36054664Y10528264D01*
X-35067061Y11034956D01*
X-34197286Y11724584D01*
X-33478763Y12570646D01*
X-33378465Y12750922D01*
X-14315000Y12750922D01*
X-14315000Y12349078D01*
X-14236604Y11954954D01*
X-14082825Y11583697D01*
X-13859572Y11249576D01*
X-13575424Y10965428D01*
X-13241303Y10742175D01*
X-12870046Y10588396D01*
X-12475922Y10510000D01*
X-12074078Y10510000D01*
X-11679954Y10588396D01*
X-11308697Y10742175D01*
X-10974576Y10965428D01*
X-10690428Y11249576D01*
X-10467175Y11583697D01*
X-10313396Y11954954D01*
X-10235000Y12349078D01*
X-10235000Y12750922D01*
X-10313396Y13145046D01*
X-10467175Y13516303D01*
X-10690428Y13850424D01*
X-10974576Y14134572D01*
X-11308697Y14357825D01*
X-11679954Y14511604D01*
X-12074078Y14590000D01*
X-12475922Y14590000D01*
X-12870046Y14511604D01*
X-13241303Y14357825D01*
X-13575424Y14134572D01*
X-13859572Y13850424D01*
X-14082825Y13516303D01*
X-14236604Y13145046D01*
X-14315000Y12750922D01*
X-33378465Y12750922D01*
X-32939105Y13540628D01*
X-32599050Y14597254D01*
X-32561849Y14784272D01*
X-32631079Y15668259D01*
X-38006128Y15668259D01*
X-38260128Y15668259D01*
X-43635177Y15668259D01*
X-43704407Y14784272D01*
X-55811870Y14784272D01*
X-57833844Y16806246D01*
X-43704407Y16806246D01*
X-43635177Y15922259D01*
X-38260128Y15922259D01*
X-38260128Y21297308D01*
X-38006128Y21297308D01*
X-38006128Y15922259D01*
X-32631079Y15922259D01*
X-32561849Y16806246D01*
X-32866133Y17873723D01*
X-33372825Y18861326D01*
X-34062453Y19731101D01*
X-34908515Y20449624D01*
X-35878497Y20989282D01*
X-36935123Y21329337D01*
X-37122141Y21366538D01*
X-38006128Y21297308D01*
X-38260128Y21297308D01*
X-39144115Y21366538D01*
X-40211592Y21062254D01*
X-41199195Y20555562D01*
X-42068970Y19865934D01*
X-42787493Y19019872D01*
X-43327151Y18049890D01*
X-43667206Y16993264D01*
X-43704407Y16806246D01*
X-57833844Y16806246D01*
X-60229834Y19202235D01*
X-60251134Y19228189D01*
X-60354677Y19313165D01*
X-60472809Y19376308D01*
X-60600990Y19415191D01*
X-60700889Y19425030D01*
X-60734293Y19428320D01*
X-60767697Y19425030D01*
X-70901566Y19425030D01*
X-70934970Y19428320D01*
X-71068273Y19415191D01*
X-71196454Y19376308D01*
X-71314586Y19313165D01*
X-71392183Y19249483D01*
X-71392184Y19249482D01*
X-71418129Y19228189D01*
X-71439420Y19202246D01*
X-72992210Y17649454D01*
X-73018160Y17628157D01*
X-73103136Y17524614D01*
X-73160819Y17416697D01*
X-73166279Y17406482D01*
X-73205162Y17278302D01*
X-73218291Y17144999D01*
X-73215001Y17111595D01*
X-73215001Y16676603D01*
X-73218291Y16643199D01*
X-73215001Y16609795D01*
X-73205162Y16509896D01*
X-73166279Y16381715D01*
X-73103136Y16263583D01*
X-73018159Y16160040D01*
X-72992211Y16138745D01*
X-72905697Y16052231D01*
X-72990256Y16017205D01*
X-73159774Y15903937D01*
X-73303937Y15759774D01*
X-73365000Y15668387D01*
X-73365000Y17568037D01*
X-73385040Y17771507D01*
X-73464236Y18032581D01*
X-73592843Y18273188D01*
X-73765920Y18484081D01*
X-73976813Y18657157D01*
X-74217420Y18785764D01*
X-74478494Y18864960D01*
X-74750000Y18891701D01*
X-75021507Y18864960D01*
X-75282581Y18785764D01*
X-75523188Y18657157D01*
X-75734081Y18484080D01*
X-75907157Y18273187D01*
X-76035764Y18032580D01*
X-76114960Y17771506D01*
X-76135000Y17568036D01*
X-81340000Y17568036D01*
X-81340000Y22709363D01*
X-65592706Y37122141D01*
X-21366538Y37122141D01*
X-21062254Y36054664D01*
X-20555562Y35067061D01*
X-19865934Y34197286D01*
X-19019872Y33478763D01*
X-18049890Y32939105D01*
X-16993264Y32599050D01*
X-16806246Y32561849D01*
X-15922259Y32631079D01*
X-15922259Y38006128D01*
X-15668259Y38006128D01*
X-15668259Y32631079D01*
X-14784272Y32561849D01*
X-13716795Y32866133D01*
X-12729192Y33372825D01*
X-11859417Y34062453D01*
X-11140894Y34908515D01*
X-10601236Y35878497D01*
X-10261181Y36935123D01*
X-10223980Y37122141D01*
X-10293210Y38006128D01*
X-15668259Y38006128D01*
X-15922259Y38006128D01*
X-21297308Y38006128D01*
X-21366538Y37122141D01*
X-65592706Y37122141D01*
X-63383513Y39144115D01*
X-21366538Y39144115D01*
X-21297308Y38260128D01*
X-15922259Y38260128D01*
X-15922259Y43635177D01*
X-16806246Y43704407D01*
X-17873723Y43400123D01*
X-18861326Y42893431D01*
X-19731101Y42203803D01*
X-20449624Y41357741D01*
X-20989282Y40387759D01*
X-21329337Y39331133D01*
X-21366538Y39144115D01*
X-63383513Y39144115D01*
X-32992081Y66960000D01*
X-25303290Y66960000D01*
X-25299999Y66926585D01*
X-25300000Y54333404D01*
X-25303290Y54300000D01*
X-25295265Y54218517D01*
X-25290161Y54166698D01*
X-25251278Y54038517D01*
X-25188135Y53920385D01*
X-25103159Y53816842D01*
X-25077209Y53795545D01*
X-14971415Y43689751D01*
X-15668259Y43635177D01*
X-15668259Y38439736D01*
X-15781118Y38326877D01*
X-15601510Y38147269D01*
X-15488651Y38260128D01*
X-10293210Y38260128D01*
X-10238636Y38956971D01*
X-8899999Y37618334D01*
X-8900000Y13271664D01*
X-8957210Y13214454D01*
X-8983158Y13193159D01*
X-9068134Y13089616D01*
X-9087748Y13052920D01*
X-9131278Y12971483D01*
X-9170161Y12843303D01*
X-9183290Y12710000D01*
X-9179999Y12676586D01*
X-9180000Y11423405D01*
X-9183290Y11390000D01*
X-9170161Y11256697D01*
X-9131278Y11128517D01*
X-9068135Y11010385D01*
X-8983159Y10906842D01*
X-8957209Y10885545D01*
X-8644459Y10572795D01*
X-8623159Y10546841D01*
X-8519616Y10461865D01*
X-8401484Y10398722D01*
X-8273303Y10359839D01*
X-8140000Y10346710D01*
X-8106596Y10350000D01*
X-5202802Y10350000D01*
X-5169398Y10346710D01*
X-5135994Y10350000D01*
X-5036095Y10359839D01*
X-4907914Y10398722D01*
X-4789782Y10461865D01*
X-4686239Y10546841D01*
X-4664939Y10572795D01*
X-4243423Y10994310D01*
X-4129400Y10947080D01*
X-3917848Y10905000D01*
X-3702152Y10905000D01*
X-3490600Y10947080D01*
X-3291323Y11029624D01*
X-3175000Y11107348D01*
X-3058677Y11029624D01*
X-2859400Y10947080D01*
X-2647848Y10905000D01*
X-2432152Y10905000D01*
X-2220600Y10947080D01*
X-2021323Y11029624D01*
X-1905000Y11107348D01*
X-1788677Y11029624D01*
X-1589400Y10947080D01*
X-1377848Y10905000D01*
X-1162152Y10905000D01*
X-950600Y10947080D01*
X-751323Y11029624D01*
X-635000Y11107348D01*
X-518677Y11029624D01*
X-319400Y10947080D01*
X-107848Y10905000D01*
X107848Y10905000D01*
X319400Y10947080D01*
X433423Y10994310D01*
X659954Y10767779D01*
X681250Y10741830D01*
X784793Y10656854D01*
X902925Y10593711D01*
X1031106Y10554828D01*
X1131005Y10544989D01*
X1131014Y10544989D01*
X1164408Y10541700D01*
X1197802Y10544989D01*
X7946759Y10544989D01*
X7980163Y10541699D01*
X8013567Y10544989D01*
X8032382Y10546842D01*
X8113466Y10554828D01*
X8129985Y10559839D01*
X8241647Y10593711D01*
X8359779Y10656854D01*
X8463322Y10741830D01*
X8484622Y10767784D01*
X10235000Y12518161D01*
X10235000Y12349078D01*
X10313396Y11954954D01*
X10467175Y11583697D01*
X10690428Y11249576D01*
X10974576Y10965428D01*
X11308697Y10742175D01*
X11679954Y10588396D01*
X12074078Y10510000D01*
X12475922Y10510000D01*
X12870046Y10588396D01*
X13241303Y10742175D01*
X13575424Y10965428D01*
X13859572Y11249576D01*
X14082825Y11583697D01*
X14236604Y11954954D01*
X14315000Y12349078D01*
X14315000Y12750922D01*
X14236604Y13145046D01*
X14082825Y13516303D01*
X13859572Y13850424D01*
X13575424Y14134572D01*
X13241303Y14357825D01*
X12870046Y14511604D01*
X12475922Y14590000D01*
X12074078Y14590000D01*
X11679954Y14511604D01*
X11340258Y14370898D01*
X11340258Y14784272D01*
X32561849Y14784272D01*
X32866133Y13716795D01*
X33372825Y12729192D01*
X34062453Y11859417D01*
X34908515Y11140894D01*
X35878497Y10601236D01*
X36935123Y10261181D01*
X37122141Y10223980D01*
X38006128Y10293210D01*
X38006128Y15668259D01*
X38260128Y15668259D01*
X38260128Y10293210D01*
X39144115Y10223980D01*
X40211592Y10528264D01*
X41199195Y11034956D01*
X42068970Y11724584D01*
X42787493Y12570646D01*
X43327151Y13540628D01*
X43667206Y14597254D01*
X43704407Y14784272D01*
X43635177Y15668259D01*
X38260128Y15668259D01*
X38006128Y15668259D01*
X32631079Y15668259D01*
X32561849Y14784272D01*
X11340258Y14784272D01*
X11340258Y16806246D01*
X32561849Y16806246D01*
X32631079Y15922259D01*
X38006128Y15922259D01*
X38006128Y21297308D01*
X38260128Y21297308D01*
X38260128Y15922259D01*
X43635177Y15922259D01*
X43704407Y16806246D01*
X43400123Y17873723D01*
X42893431Y18861326D01*
X42203803Y19731101D01*
X41357741Y20449624D01*
X40387759Y20989282D01*
X39331133Y21329337D01*
X39144115Y21366538D01*
X38260128Y21297308D01*
X38006128Y21297308D01*
X37122141Y21366538D01*
X36054664Y21062254D01*
X35067061Y20555562D01*
X34197286Y19865934D01*
X33478763Y19019872D01*
X32939105Y18049890D01*
X32599050Y16993264D01*
X32561849Y16806246D01*
X11340258Y16806246D01*
X11340258Y34682007D01*
X11724584Y34197286D01*
X12570646Y33478763D01*
X13540628Y32939105D01*
X14597254Y32599050D01*
X14784272Y32561849D01*
X15668259Y32631079D01*
X15668259Y38006128D01*
X15922259Y38006128D01*
X15922259Y32631079D01*
X16806246Y32561849D01*
X17873723Y32866133D01*
X18861326Y33372825D01*
X19731101Y34062453D01*
X20449624Y34908515D01*
X20989282Y35878497D01*
X21329337Y36935123D01*
X21366538Y37122141D01*
X21297308Y38006128D01*
X15922259Y38006128D01*
X15668259Y38006128D01*
X11340258Y38006128D01*
X11340258Y38260128D01*
X15668259Y38260128D01*
X15668259Y43635177D01*
X15922259Y43635177D01*
X15922259Y38260128D01*
X21297308Y38260128D01*
X21366538Y39144115D01*
X21062254Y40211592D01*
X20555562Y41199195D01*
X19865934Y42068970D01*
X19019872Y42787493D01*
X18049890Y43327151D01*
X16993264Y43667206D01*
X16806246Y43704407D01*
X15922259Y43635177D01*
X15668259Y43635177D01*
X14784272Y43704407D01*
X13716795Y43400123D01*
X12729192Y42893431D01*
X11859417Y42203803D01*
X11340258Y41592492D01*
X11340258Y47868594D01*
X18842220Y55370555D01*
X18868169Y55391851D01*
X18953145Y55495394D01*
X19016288Y55613526D01*
X19055171Y55741706D01*
X19056543Y55755637D01*
X19065010Y55841606D01*
X19065010Y55841612D01*
X19068299Y55875009D01*
X19065010Y55908406D01*
X19065010Y70083190D01*
X19068299Y70116584D01*
X19065010Y70149978D01*
X19065010Y70149987D01*
X19055171Y70249886D01*
X19016288Y70378067D01*
X18953145Y70496199D01*
X18868168Y70599742D01*
X18842225Y70621033D01*
X18371042Y71092215D01*
X18349742Y71118169D01*
X18246199Y71203145D01*
X18128067Y71266288D01*
X17999886Y71305171D01*
X17899987Y71315010D01*
X17866583Y71318300D01*
X17833179Y71315010D01*
X7068403Y71315010D01*
X7035009Y71318299D01*
X7001615Y71315010D01*
X7001606Y71315010D01*
X6901707Y71305171D01*
X6773526Y71266288D01*
X6655394Y71203145D01*
X6551851Y71118169D01*
X6530555Y71092220D01*
X1935000Y66496664D01*
X1935000Y66601939D01*
X1895226Y66801898D01*
X1817205Y66990256D01*
X1810694Y67000000D01*
X1817205Y67009744D01*
X1895226Y67198102D01*
X1935000Y67398061D01*
X1935000Y67601939D01*
X1895226Y67801898D01*
X1817205Y67990256D01*
X1703937Y68159774D01*
X1559774Y68303937D01*
X1468387Y68365000D01*
X1568037Y68365000D01*
X1771507Y68385040D01*
X2032581Y68464236D01*
X2273188Y68592843D01*
X2484081Y68765919D01*
X2657157Y68976812D01*
X2785764Y69217419D01*
X2864960Y69478493D01*
X2891701Y69750000D01*
X2864960Y70021507D01*
X2785764Y70282581D01*
X2657157Y70523188D01*
X2484081Y70734081D01*
X2273188Y70907157D01*
X2032581Y71035764D01*
X1771507Y71114960D01*
X1568037Y71135000D01*
X-1568037Y71135000D01*
X-1771507Y71114960D01*
X-2032581Y71035764D01*
X-2273188Y70907157D01*
X-2484081Y70734081D01*
X-2657157Y70523188D01*
X-2785764Y70282581D01*
X-2864960Y70021507D01*
X-2891701Y69750000D01*
X-2864960Y69478493D01*
X-2785764Y69217419D01*
X-2657157Y68976812D01*
X-2484081Y68765919D01*
X-2273188Y68592843D01*
X-2249160Y68580000D01*
X-3166596Y68580000D01*
X-3200000Y68583290D01*
X-3233404Y68580000D01*
X-3333303Y68570161D01*
X-3461484Y68531278D01*
X-3579616Y68468135D01*
X-3683159Y68383159D01*
X-3768135Y68279616D01*
X-3831278Y68161484D01*
X-3870161Y68033303D01*
X-3883290Y67900000D01*
X-3879999Y67866585D01*
X-3880000Y35301665D01*
X-23340000Y54761664D01*
X-23340000Y60878336D01*
X-21898335Y62320000D01*
X-18181664Y62320000D01*
X-17935000Y62073335D01*
X-17935000Y61898061D01*
X-17895226Y61698102D01*
X-17817205Y61509744D01*
X-17810694Y61500000D01*
X-17817205Y61490256D01*
X-17895226Y61301898D01*
X-17935000Y61101939D01*
X-17935000Y60898061D01*
X-17895226Y60698102D01*
X-17817205Y60509744D01*
X-17810694Y60500000D01*
X-17817205Y60490256D01*
X-17895226Y60301898D01*
X-17935000Y60101939D01*
X-17935000Y59898061D01*
X-17895226Y59698102D01*
X-17817205Y59509744D01*
X-17810694Y59500000D01*
X-17817205Y59490256D01*
X-17895226Y59301898D01*
X-17935000Y59101939D01*
X-17935000Y58898061D01*
X-17895226Y58698102D01*
X-17817205Y58509744D01*
X-17703937Y58340226D01*
X-17559774Y58196063D01*
X-17390256Y58082795D01*
X-17201898Y58004774D01*
X-17001939Y57965000D01*
X-16798061Y57965000D01*
X-16598102Y58004774D01*
X-16409744Y58082795D01*
X-16240226Y58196063D01*
X-16118945Y58317344D01*
X-16095226Y58198102D01*
X-16017205Y58009744D01*
X-15903937Y57840226D01*
X-15759774Y57696063D01*
X-15668387Y57635000D01*
X-17568037Y57635000D01*
X-17771507Y57614960D01*
X-18032581Y57535764D01*
X-18273188Y57407157D01*
X-18484081Y57234081D01*
X-18657157Y57023188D01*
X-18785764Y56782581D01*
X-18864960Y56521507D01*
X-18891701Y56250000D01*
X-18864960Y55978493D01*
X-18785764Y55717419D01*
X-18657157Y55476812D01*
X-18484081Y55265919D01*
X-18273188Y55092843D01*
X-18032581Y54964236D01*
X-17771507Y54885040D01*
X-17568037Y54865000D01*
X-14431963Y54865000D01*
X-14228493Y54885040D01*
X-13967419Y54964236D01*
X-13726812Y55092843D01*
X-13515919Y55265919D01*
X-13342843Y55476812D01*
X-13214236Y55717419D01*
X-13135040Y55978493D01*
X-13108299Y56250000D01*
X-13135040Y56521507D01*
X-13214236Y56782581D01*
X-13342843Y57023188D01*
X-13515919Y57234081D01*
X-13726812Y57407157D01*
X-13967419Y57535764D01*
X-14228493Y57614960D01*
X-14431963Y57635000D01*
X-14531613Y57635000D01*
X-14440226Y57696063D01*
X-14296063Y57840226D01*
X-14182795Y58009744D01*
X-14104774Y58198102D01*
X-14065000Y58398061D01*
X-14065000Y58601939D01*
X-14104774Y58801898D01*
X-14182795Y58990256D01*
X-14188843Y58999308D01*
X-14109423Y59183184D01*
X-14066649Y59382523D01*
X-14063587Y59586377D01*
X-14100353Y59786912D01*
X-14175534Y59976420D01*
X-14188656Y60000972D01*
X-14182795Y60009744D01*
X-14104774Y60198102D01*
X-14065000Y60398061D01*
X-14065000Y60601939D01*
X-14104774Y60801898D01*
X-14182795Y60990256D01*
X-14189306Y61000000D01*
X-14182795Y61009744D01*
X-14104774Y61198102D01*
X-14065000Y61398061D01*
X-14065000Y61601939D01*
X-14104774Y61801898D01*
X-14182795Y61990256D01*
X-14188843Y61999308D01*
X-14109423Y62183184D01*
X-14066649Y62382523D01*
X-14063587Y62586377D01*
X-14100353Y62786912D01*
X-14175534Y62976420D01*
X-14188656Y63000972D01*
X-14182795Y63009744D01*
X-14104774Y63198102D01*
X-14065000Y63398061D01*
X-14065000Y63573335D01*
X-13792784Y63845550D01*
X-13766841Y63866841D01*
X-13745550Y63892784D01*
X-13745547Y63892787D01*
X-13681865Y63970384D01*
X-13618722Y64088516D01*
X-13579839Y64216697D01*
X-13566710Y64350000D01*
X-13570000Y64383404D01*
X-13570000Y67876596D01*
X-13566710Y67910000D01*
X-13579839Y68043303D01*
X-13618722Y68171484D01*
X-13681865Y68289616D01*
X-13745547Y68367213D01*
X-13745554Y68367220D01*
X-13766842Y68393159D01*
X-13792780Y68414446D01*
X-13886059Y68507724D01*
X-13726812Y68592843D01*
X-13515919Y68765919D01*
X-13342843Y68976812D01*
X-13214236Y69217419D01*
X-13135040Y69478493D01*
X-13108299Y69750000D01*
X-13135040Y70021507D01*
X-13214236Y70282581D01*
X-13342843Y70523188D01*
X-13515919Y70734081D01*
X-13726812Y70907157D01*
X-13967419Y71035764D01*
X-14228493Y71114960D01*
X-14431963Y71135000D01*
X-17568037Y71135000D01*
X-17771507Y71114960D01*
X-18032581Y71035764D01*
X-18273188Y70907157D01*
X-18484081Y70734081D01*
X-18657157Y70523188D01*
X-18785764Y70282581D01*
X-18864960Y70021507D01*
X-18891701Y69750000D01*
X-18864960Y69478493D01*
X-18785764Y69217419D01*
X-18706967Y69070000D01*
X-23156607Y69070000D01*
X-23190001Y69073289D01*
X-23223395Y69070000D01*
X-23223404Y69070000D01*
X-23323303Y69060161D01*
X-23451484Y69021278D01*
X-23569616Y68958135D01*
X-23673159Y68873159D01*
X-23694455Y68847210D01*
X-25077210Y67464454D01*
X-25103158Y67443159D01*
X-25188134Y67339616D01*
X-25192277Y67331865D01*
X-25251278Y67221483D01*
X-25290161Y67093303D01*
X-25303290Y66960000D01*
X-32992081Y66960000D01*
X-22743562Y76340000D01*
X22726620Y76340000D01*
X59340001Y39726618D01*
G37*
%TD.AperFunction*%
D17*
X-62635000Y1568036D02*
X-62634999Y-331614D01*
X-62696063Y-240226D01*
X-62840226Y-96063D01*
X-63009744Y17205D01*
X-63198102Y95226D01*
X-63398061Y135000D01*
X-63479747Y135000D01*
X-63473164Y193559D01*
X-63983692Y704087D01*
X-63965000Y798061D01*
X-63965000Y900000D01*
X-63820395Y900000D01*
X-63293559Y373164D01*
X-63090264Y396019D01*
X-63009423Y583184D01*
X-62966649Y782523D01*
X-62963587Y986377D01*
X-63000353Y1186912D01*
X-63075534Y1376420D01*
X-63090264Y1403981D01*
X-63293559Y1426836D01*
X-63820395Y900000D01*
X-63965000Y900000D01*
X-63965000Y1001939D01*
X-63977728Y1065928D01*
X-63968516Y1068722D01*
X-63850384Y1131865D01*
X-63746841Y1216841D01*
X-63725541Y1242795D01*
X-63263325Y1705010D01*
X-62621509Y1705010D01*
X-62635000Y1568036D01*
%TA.AperFunction,Conductor*%
D18*
G36*
X-62635000Y1568036D02*
G01*
X-62634999Y-331614D01*
X-62696063Y-240226D01*
X-62840226Y-96063D01*
X-63009744Y17205D01*
X-63198102Y95226D01*
X-63398061Y135000D01*
X-63479747Y135000D01*
X-63473164Y193559D01*
X-63983692Y704087D01*
X-63965000Y798061D01*
X-63965000Y900000D01*
X-63820395Y900000D01*
X-63293559Y373164D01*
X-63090264Y396019D01*
X-63009423Y583184D01*
X-62966649Y782523D01*
X-62963587Y986377D01*
X-63000353Y1186912D01*
X-63075534Y1376420D01*
X-63090264Y1403981D01*
X-63293559Y1426836D01*
X-63820395Y900000D01*
X-63965000Y900000D01*
X-63965000Y1001939D01*
X-63977728Y1065928D01*
X-63968516Y1068722D01*
X-63850384Y1131865D01*
X-63746841Y1216841D01*
X-63725541Y1242795D01*
X-63263325Y1705010D01*
X-62621509Y1705010D01*
X-62635000Y1568036D01*
G37*
%TD.AperFunction*%
D17*
X-62635000Y17568036D02*
X-62634999Y15668386D01*
X-62696063Y15759774D01*
X-62840226Y15903937D01*
X-63009744Y16017205D01*
X-63198102Y16095226D01*
X-63398061Y16135000D01*
X-63479747Y16135000D01*
X-63473164Y16193559D01*
X-63983692Y16704087D01*
X-63965000Y16798061D01*
X-63965000Y16900000D01*
X-63820395Y16900000D01*
X-63293559Y16373164D01*
X-63090264Y16396019D01*
X-63009423Y16583184D01*
X-62966649Y16782523D01*
X-62963587Y16986377D01*
X-63000353Y17186912D01*
X-63075534Y17376420D01*
X-63090264Y17403981D01*
X-63293559Y17426836D01*
X-63820395Y16900000D01*
X-63965000Y16900000D01*
X-63965000Y17001939D01*
X-63971116Y17032688D01*
X-63860404Y17091865D01*
X-63756861Y17176841D01*
X-63735561Y17202795D01*
X-63233345Y17705010D01*
X-62621509Y17705010D01*
X-62635000Y17568036D01*
%TA.AperFunction,Conductor*%
D18*
G36*
X-62635000Y17568036D02*
G01*
X-62634999Y15668386D01*
X-62696063Y15759774D01*
X-62840226Y15903937D01*
X-63009744Y16017205D01*
X-63198102Y16095226D01*
X-63398061Y16135000D01*
X-63479747Y16135000D01*
X-63473164Y16193559D01*
X-63983692Y16704087D01*
X-63965000Y16798061D01*
X-63965000Y16900000D01*
X-63820395Y16900000D01*
X-63293559Y16373164D01*
X-63090264Y16396019D01*
X-63009423Y16583184D01*
X-62966649Y16782523D01*
X-62963587Y16986377D01*
X-63000353Y17186912D01*
X-63075534Y17376420D01*
X-63090264Y17403981D01*
X-63293559Y17426836D01*
X-63820395Y16900000D01*
X-63965000Y16900000D01*
X-63965000Y17001939D01*
X-63971116Y17032688D01*
X-63860404Y17091865D01*
X-63756861Y17176841D01*
X-63735561Y17202795D01*
X-63233345Y17705010D01*
X-62621509Y17705010D01*
X-62635000Y17568036D01*
G37*
%TD.AperFunction*%
D17*
X-709493Y67017383D02*
X-798061Y67035000D01*
X-1001939Y67035000D01*
X-1090507Y67017383D01*
X-914143Y67193748D01*
X-900000Y67179605D01*
X-885858Y67193748D01*
X-709493Y67017383D01*
%TA.AperFunction,Conductor*%
D18*
G36*
X-709493Y67017383D02*
G01*
X-798061Y67035000D01*
X-1001939Y67035000D01*
X-1090507Y67017383D01*
X-914143Y67193748D01*
X-900000Y67179605D01*
X-885858Y67193748D01*
X-709493Y67017383D01*
G37*
%TD.AperFunction*%
D17*
X15290507Y67017383D02*
X15201939Y67035000D01*
X14998061Y67035000D01*
X14909493Y67017383D01*
X15085858Y67193748D01*
X15100000Y67179605D01*
X15114143Y67193748D01*
X15290507Y67017383D01*
%TA.AperFunction,Conductor*%
D18*
G36*
X15290507Y67017383D02*
G01*
X15201939Y67035000D01*
X14998061Y67035000D01*
X14909493Y67017383D01*
X15085858Y67193748D01*
X15100000Y67179605D01*
X15114143Y67193748D01*
X15290507Y67017383D01*
G37*
%TD.AperFunction*%
%TD*%
M02*
