%TF.GenerationSoftware,KiCad,Pcbnew,(5.1.10)-1*%
%TF.CreationDate,2022-04-08T13:19:25-06:00*%
%TF.ProjectId,VacuumFeedThruHDMI,56616375-756d-4466-9565-645468727548,rev?*%
%TF.SameCoordinates,Original*%
%TF.FileFunction,Copper,L3,Inr*%
%TF.FilePolarity,Positive*%
%FSLAX46Y46*%
G04 Gerber Fmt 4.6, Leading zero omitted, Abs format (unit mm)*
G04 Created by KiCad (PCBNEW (5.1.10)-1) date 2022-04-08 13:19:25*
%MOMM*%
%LPD*%
G01*
G04 APERTURE LIST*
%TA.AperFunction,ComponentPad*%
%ADD10O,4.500000X1.500000*%
%TD*%
%TA.AperFunction,ComponentPad*%
%ADD11C,0.800000*%
%TD*%
%TA.AperFunction,ComponentPad*%
%ADD12O,0.920000X0.920000*%
%TD*%
%TA.AperFunction,ComponentPad*%
%ADD13C,10.000000*%
%TD*%
%TA.AperFunction,Conductor*%
%ADD14C,0.090000*%
%TD*%
%TA.AperFunction,Conductor*%
%ADD15C,0.254000*%
%TD*%
%TA.AperFunction,Conductor*%
%ADD16C,0.100000*%
%TD*%
G04 APERTURE END LIST*
D10*
%TO.N,N/C*%
%TO.C,J2*%
X30000000Y67550000D03*
X30000000Y54050000D03*
D11*
%TO.N,Net-(J2-Pad19)*%
X29100000Y65300000D03*
%TO.N,Net-(J2-Pad18)*%
X30900000Y64800000D03*
%TO.N,GND*%
X29100000Y64300000D03*
%TO.N,Net-(J2-Pad16)*%
X30900000Y63800000D03*
%TO.N,Net-(J2-Pad15)*%
X29100000Y63300000D03*
%TO.N,Net-(J2-Pad14)*%
X30900000Y62800000D03*
%TO.N,Net-(J2-Pad13)*%
X29100000Y62300000D03*
%TO.N,Net-(J2-Pad12)*%
X30900000Y61800000D03*
%TO.N,GND*%
X29100000Y61300000D03*
%TO.N,Net-(J2-Pad10)*%
X30900000Y60800000D03*
%TO.N,Net-(J2-Pad9)*%
X29100000Y60300000D03*
%TO.N,GND*%
X30900000Y59800000D03*
%TO.N,Net-(J2-Pad7)*%
X29100000Y59300000D03*
%TO.N,Net-(J2-Pad6)*%
X30900000Y58800000D03*
%TO.N,GND*%
X29100000Y58300000D03*
%TO.N,Net-(J2-Pad4)*%
X30900000Y57800000D03*
%TO.N,Net-(J2-Pad3)*%
X29100000Y57300000D03*
%TO.N,GND*%
X30900000Y56800000D03*
%TO.N,Net-(J2-Pad1)*%
X29100000Y56300000D03*
%TD*%
D10*
%TO.N,N/C*%
%TO.C,J3*%
X49000000Y67550000D03*
X49000000Y54050000D03*
D11*
%TO.N,Net-(J3-Pad19)*%
X48100000Y65300000D03*
%TO.N,Net-(J3-Pad18)*%
X49900000Y64800000D03*
%TO.N,GND*%
X48100000Y64300000D03*
%TO.N,Net-(J3-Pad16)*%
X49900000Y63800000D03*
%TO.N,Net-(J3-Pad15)*%
X48100000Y63300000D03*
%TO.N,Net-(J3-Pad14)*%
X49900000Y62800000D03*
%TO.N,Net-(J3-Pad13)*%
X48100000Y62300000D03*
%TO.N,Net-(J3-Pad12)*%
X49900000Y61800000D03*
%TO.N,GND*%
X48100000Y61300000D03*
%TO.N,Net-(J3-Pad10)*%
X49900000Y60800000D03*
%TO.N,Net-(J3-Pad9)*%
X48100000Y60300000D03*
%TO.N,GND*%
X49900000Y59800000D03*
%TO.N,Net-(J3-Pad7)*%
X48100000Y59300000D03*
%TO.N,Net-(J3-Pad6)*%
X49900000Y58800000D03*
%TO.N,GND*%
X48100000Y58300000D03*
%TO.N,Net-(J3-Pad4)*%
X49900000Y57800000D03*
%TO.N,Net-(J3-Pad3)*%
X48100000Y57300000D03*
%TO.N,GND*%
X49900000Y56800000D03*
%TO.N,Net-(J3-Pad1)*%
X48100000Y56300000D03*
%TD*%
D12*
%TO.N,Net-(M3-Pad13)*%
%TO.C,M3*%
X7620000Y-12000000D03*
%TO.N,Net-(J9-Pad12)*%
X6985000Y-10900000D03*
%TO.N,Net-(J9-Pad10)*%
X6350000Y-12000000D03*
%TO.N,Net-(J9-Pad9)*%
X5715000Y-10900000D03*
%TO.N,Net-(J9-Pad7)*%
X5080000Y-12000000D03*
%TO.N,Net-(J9-Pad6)*%
X4445000Y-10900000D03*
%TO.N,Net-(J9-Pad4)*%
X3810000Y-12000000D03*
%TO.N,Net-(J9-Pad3)*%
X3175000Y-10900000D03*
%TO.N,Net-(J9-Pad1)*%
X2540000Y-12000000D03*
%TO.N,Net-(J8-Pad12)*%
X1905000Y-10900000D03*
%TO.N,Net-(J8-Pad10)*%
X1270000Y-12000000D03*
%TO.N,Net-(J8-Pad9)*%
X635000Y-10900000D03*
%TO.N,Net-(J8-Pad7)*%
X0Y-12000000D03*
%TO.N,Net-(J8-Pad6)*%
X-635000Y-10900000D03*
%TO.N,Net-(J8-Pad4)*%
X-1270000Y-12000000D03*
%TO.N,Net-(J8-Pad3)*%
X-1905000Y-10900000D03*
%TO.N,Net-(J8-Pad1)*%
X-2540000Y-12000000D03*
%TO.N,Net-(J7-Pad12)*%
X-3175000Y-10900000D03*
%TO.N,Net-(J7-Pad10)*%
X-3810000Y-12000000D03*
%TO.N,Net-(J7-Pad9)*%
X-4445000Y-10900000D03*
%TO.N,Net-(J7-Pad7)*%
X-5080000Y-12000000D03*
%TO.N,Net-(J7-Pad6)*%
X-5715000Y-10900000D03*
%TO.N,Net-(J7-Pad4)*%
X-6350000Y-12000000D03*
%TO.N,Net-(J7-Pad3)*%
X-6985000Y-10900000D03*
%TO.N,Net-(J7-Pad1)*%
X-7620000Y-12000000D03*
%TD*%
%TO.N,Net-(M2-Pad13)*%
%TO.C,M2*%
X7620000Y0D03*
%TO.N,Net-(J6-Pad12)*%
X6985000Y1100000D03*
%TO.N,Net-(J6-Pad10)*%
X6350000Y0D03*
%TO.N,Net-(J6-Pad9)*%
X5715000Y1100000D03*
%TO.N,Net-(J6-Pad7)*%
X5080000Y0D03*
%TO.N,Net-(J6-Pad6)*%
X4445000Y1100000D03*
%TO.N,Net-(J6-Pad4)*%
X3810000Y0D03*
%TO.N,Net-(J6-Pad3)*%
X3175000Y1100000D03*
%TO.N,Net-(J6-Pad1)*%
X2540000Y0D03*
%TO.N,Net-(J5-Pad12)*%
X1905000Y1100000D03*
%TO.N,Net-(J5-Pad10)*%
X1270000Y0D03*
%TO.N,Net-(J5-Pad9)*%
X635000Y1100000D03*
%TO.N,Net-(J5-Pad7)*%
X0Y0D03*
%TO.N,Net-(J5-Pad6)*%
X-635000Y1100000D03*
%TO.N,Net-(J5-Pad4)*%
X-1270000Y0D03*
%TO.N,Net-(J5-Pad3)*%
X-1905000Y1100000D03*
%TO.N,Net-(J5-Pad1)*%
X-2540000Y0D03*
%TO.N,Net-(J4-Pad12)*%
X-3175000Y1100000D03*
%TO.N,Net-(J4-Pad10)*%
X-3810000Y0D03*
%TO.N,Net-(J4-Pad9)*%
X-4445000Y1100000D03*
%TO.N,Net-(J4-Pad7)*%
X-5080000Y0D03*
%TO.N,Net-(J4-Pad6)*%
X-5715000Y1100000D03*
%TO.N,Net-(J4-Pad4)*%
X-6350000Y0D03*
%TO.N,Net-(J4-Pad3)*%
X-6985000Y1100000D03*
%TO.N,Net-(J4-Pad1)*%
X-7620000Y0D03*
%TD*%
%TO.N,Net-(M1-Pad13)*%
%TO.C,M1*%
X7620000Y12000000D03*
%TO.N,Net-(J3-Pad12)*%
X6985000Y13100000D03*
%TO.N,Net-(J3-Pad10)*%
X6350000Y12000000D03*
%TO.N,Net-(J3-Pad9)*%
X5715000Y13100000D03*
%TO.N,Net-(J3-Pad7)*%
X5080000Y12000000D03*
%TO.N,Net-(J3-Pad6)*%
X4445000Y13100000D03*
%TO.N,Net-(J3-Pad4)*%
X3810000Y12000000D03*
%TO.N,Net-(J3-Pad3)*%
X3175000Y13100000D03*
%TO.N,Net-(J3-Pad1)*%
X2540000Y12000000D03*
%TO.N,Net-(J2-Pad12)*%
X1905000Y13100000D03*
%TO.N,Net-(J2-Pad10)*%
X1270000Y12000000D03*
%TO.N,Net-(J2-Pad9)*%
X635000Y13100000D03*
%TO.N,Net-(J2-Pad7)*%
X0Y12000000D03*
%TO.N,Net-(J2-Pad6)*%
X-635000Y13100000D03*
%TO.N,Net-(J2-Pad4)*%
X-1270000Y12000000D03*
%TO.N,Net-(J2-Pad3)*%
X-1905000Y13100000D03*
%TO.N,Net-(J2-Pad1)*%
X-2540000Y12000000D03*
%TO.N,Net-(J1-Pad12)*%
X-3175000Y13100000D03*
%TO.N,Net-(J1-Pad10)*%
X-3810000Y12000000D03*
%TO.N,Net-(J1-Pad9)*%
X-4445000Y13100000D03*
%TO.N,Net-(J1-Pad7)*%
X-5080000Y12000000D03*
%TO.N,Net-(J1-Pad6)*%
X-5715000Y13100000D03*
%TO.N,Net-(J1-Pad4)*%
X-6350000Y12000000D03*
%TO.N,Net-(J1-Pad3)*%
X-6985000Y13100000D03*
%TO.N,Net-(J1-Pad1)*%
X-7620000Y12000000D03*
%TD*%
D13*
%TO.N,GND*%
%TO.C,J13*%
X15795259Y-38133128D03*
X38133128Y-15795259D03*
X38133128Y15795259D03*
X15795259Y38133128D03*
X-15795259Y38133128D03*
X-38133128Y15795259D03*
X-38133128Y-15795259D03*
X-15795259Y-38133128D03*
%TD*%
D10*
%TO.N,N/C*%
%TO.C,J4*%
X-49000000Y67550000D03*
X-49000000Y54050000D03*
D11*
%TO.N,Net-(J4-Pad19)*%
X-49900000Y65300000D03*
%TO.N,Net-(J4-Pad18)*%
X-48100000Y64800000D03*
%TO.N,GND*%
X-49900000Y64300000D03*
%TO.N,Net-(J4-Pad16)*%
X-48100000Y63800000D03*
%TO.N,Net-(J4-Pad15)*%
X-49900000Y63300000D03*
%TO.N,Net-(J4-Pad14)*%
X-48100000Y62800000D03*
%TO.N,Net-(J4-Pad13)*%
X-49900000Y62300000D03*
%TO.N,Net-(J4-Pad12)*%
X-48100000Y61800000D03*
%TO.N,GND*%
X-49900000Y61300000D03*
%TO.N,Net-(J4-Pad10)*%
X-48100000Y60800000D03*
%TO.N,Net-(J4-Pad9)*%
X-49900000Y60300000D03*
%TO.N,GND*%
X-48100000Y59800000D03*
%TO.N,Net-(J4-Pad7)*%
X-49900000Y59300000D03*
%TO.N,Net-(J4-Pad6)*%
X-48100000Y58800000D03*
%TO.N,GND*%
X-49900000Y58300000D03*
%TO.N,Net-(J4-Pad4)*%
X-48100000Y57800000D03*
%TO.N,Net-(J4-Pad3)*%
X-49900000Y57300000D03*
%TO.N,GND*%
X-48100000Y56800000D03*
%TO.N,Net-(J4-Pad1)*%
X-49900000Y56300000D03*
%TD*%
D10*
%TO.N,N/C*%
%TO.C,J9*%
X16000000Y-56250000D03*
X16000000Y-69750000D03*
D11*
%TO.N,Net-(J9-Pad19)*%
X15100000Y-58500000D03*
%TO.N,Net-(J9-Pad18)*%
X16900000Y-59000000D03*
%TO.N,GND*%
X15100000Y-59500000D03*
%TO.N,Net-(J9-Pad16)*%
X16900000Y-60000000D03*
%TO.N,Net-(J9-Pad15)*%
X15100000Y-60500000D03*
%TO.N,Net-(J9-Pad14)*%
X16900000Y-61000000D03*
%TO.N,Net-(J9-Pad13)*%
X15100000Y-61500000D03*
%TO.N,Net-(J9-Pad12)*%
X16900000Y-62000000D03*
%TO.N,GND*%
X15100000Y-62500000D03*
%TO.N,Net-(J9-Pad10)*%
X16900000Y-63000000D03*
%TO.N,Net-(J9-Pad9)*%
X15100000Y-63500000D03*
%TO.N,GND*%
X16900000Y-64000000D03*
%TO.N,Net-(J9-Pad7)*%
X15100000Y-64500000D03*
%TO.N,Net-(J9-Pad6)*%
X16900000Y-65000000D03*
%TO.N,GND*%
X15100000Y-65500000D03*
%TO.N,Net-(J9-Pad4)*%
X16900000Y-66000000D03*
%TO.N,Net-(J9-Pad3)*%
X15100000Y-66500000D03*
%TO.N,GND*%
X16900000Y-67000000D03*
%TO.N,Net-(J9-Pad1)*%
X15100000Y-67500000D03*
%TD*%
D10*
%TO.N,N/C*%
%TO.C,J7*%
X-16000000Y-56250000D03*
X-16000000Y-69750000D03*
D11*
%TO.N,Net-(J7-Pad19)*%
X-16900000Y-58500000D03*
%TO.N,Net-(J7-Pad18)*%
X-15100000Y-59000000D03*
%TO.N,GND*%
X-16900000Y-59500000D03*
%TO.N,Net-(J7-Pad16)*%
X-15100000Y-60000000D03*
%TO.N,Net-(J7-Pad15)*%
X-16900000Y-60500000D03*
%TO.N,Net-(J7-Pad14)*%
X-15100000Y-61000000D03*
%TO.N,Net-(J7-Pad13)*%
X-16900000Y-61500000D03*
%TO.N,Net-(J7-Pad12)*%
X-15100000Y-62000000D03*
%TO.N,GND*%
X-16900000Y-62500000D03*
%TO.N,Net-(J7-Pad10)*%
X-15100000Y-63000000D03*
%TO.N,Net-(J7-Pad9)*%
X-16900000Y-63500000D03*
%TO.N,GND*%
X-15100000Y-64000000D03*
%TO.N,Net-(J7-Pad7)*%
X-16900000Y-64500000D03*
%TO.N,Net-(J7-Pad6)*%
X-15100000Y-65000000D03*
%TO.N,GND*%
X-16900000Y-65500000D03*
%TO.N,Net-(J7-Pad4)*%
X-15100000Y-66000000D03*
%TO.N,Net-(J7-Pad3)*%
X-16900000Y-66500000D03*
%TO.N,GND*%
X-15100000Y-67000000D03*
%TO.N,Net-(J7-Pad1)*%
X-16900000Y-67500000D03*
%TD*%
D10*
%TO.N,N/C*%
%TO.C,J8*%
X0Y-56250000D03*
X0Y-69750000D03*
D11*
%TO.N,Net-(J8-Pad19)*%
X-900000Y-58500000D03*
%TO.N,Net-(J8-Pad18)*%
X900000Y-59000000D03*
%TO.N,GND*%
X-900000Y-59500000D03*
%TO.N,Net-(J8-Pad16)*%
X900000Y-60000000D03*
%TO.N,Net-(J8-Pad15)*%
X-900000Y-60500000D03*
%TO.N,Net-(J8-Pad14)*%
X900000Y-61000000D03*
%TO.N,Net-(J8-Pad13)*%
X-900000Y-61500000D03*
%TO.N,Net-(J8-Pad12)*%
X900000Y-62000000D03*
%TO.N,GND*%
X-900000Y-62500000D03*
%TO.N,Net-(J8-Pad10)*%
X900000Y-63000000D03*
%TO.N,Net-(J8-Pad9)*%
X-900000Y-63500000D03*
%TO.N,GND*%
X900000Y-64000000D03*
%TO.N,Net-(J8-Pad7)*%
X-900000Y-64500000D03*
%TO.N,Net-(J8-Pad6)*%
X900000Y-65000000D03*
%TO.N,GND*%
X-900000Y-65500000D03*
%TO.N,Net-(J8-Pad4)*%
X900000Y-66000000D03*
%TO.N,Net-(J8-Pad3)*%
X-900000Y-66500000D03*
%TO.N,GND*%
X900000Y-67000000D03*
%TO.N,Net-(J8-Pad1)*%
X-900000Y-67500000D03*
%TD*%
D10*
%TO.N,N/C*%
%TO.C,J1*%
X11000000Y67550000D03*
X11000000Y54050000D03*
D11*
%TO.N,Net-(J1-Pad19)*%
X10100000Y65300000D03*
%TO.N,Net-(J1-Pad18)*%
X11900000Y64800000D03*
%TO.N,GND*%
X10100000Y64300000D03*
%TO.N,Net-(J1-Pad16)*%
X11900000Y63800000D03*
%TO.N,Net-(J1-Pad15)*%
X10100000Y63300000D03*
%TO.N,Net-(J1-Pad14)*%
X11900000Y62800000D03*
%TO.N,Net-(J1-Pad13)*%
X10100000Y62300000D03*
%TO.N,Net-(J1-Pad12)*%
X11900000Y61800000D03*
%TO.N,GND*%
X10100000Y61300000D03*
%TO.N,Net-(J1-Pad10)*%
X11900000Y60800000D03*
%TO.N,Net-(J1-Pad9)*%
X10100000Y60300000D03*
%TO.N,GND*%
X11900000Y59800000D03*
%TO.N,Net-(J1-Pad7)*%
X10100000Y59300000D03*
%TO.N,Net-(J1-Pad6)*%
X11900000Y58800000D03*
%TO.N,GND*%
X10100000Y58300000D03*
%TO.N,Net-(J1-Pad4)*%
X11900000Y57800000D03*
%TO.N,Net-(J1-Pad3)*%
X10100000Y57300000D03*
%TO.N,GND*%
X11900000Y56800000D03*
%TO.N,Net-(J1-Pad1)*%
X10100000Y56300000D03*
%TD*%
D10*
%TO.N,N/C*%
%TO.C,J6*%
X-11000000Y67550000D03*
X-11000000Y54050000D03*
D11*
%TO.N,Net-(J6-Pad19)*%
X-11900000Y65300000D03*
%TO.N,Net-(J6-Pad18)*%
X-10100000Y64800000D03*
%TO.N,GND*%
X-11900000Y64300000D03*
%TO.N,Net-(J6-Pad16)*%
X-10100000Y63800000D03*
%TO.N,Net-(J6-Pad15)*%
X-11900000Y63300000D03*
%TO.N,Net-(J6-Pad14)*%
X-10100000Y62800000D03*
%TO.N,Net-(J6-Pad13)*%
X-11900000Y62300000D03*
%TO.N,Net-(J6-Pad12)*%
X-10100000Y61800000D03*
%TO.N,GND*%
X-11900000Y61300000D03*
%TO.N,Net-(J6-Pad10)*%
X-10100000Y60800000D03*
%TO.N,Net-(J6-Pad9)*%
X-11900000Y60300000D03*
%TO.N,GND*%
X-10100000Y59800000D03*
%TO.N,Net-(J6-Pad7)*%
X-11900000Y59300000D03*
%TO.N,Net-(J6-Pad6)*%
X-10100000Y58800000D03*
%TO.N,GND*%
X-11900000Y58300000D03*
%TO.N,Net-(J6-Pad4)*%
X-10100000Y57800000D03*
%TO.N,Net-(J6-Pad3)*%
X-11900000Y57300000D03*
%TO.N,GND*%
X-10100000Y56800000D03*
%TO.N,Net-(J6-Pad1)*%
X-11900000Y56300000D03*
%TD*%
D10*
%TO.N,N/C*%
%TO.C,J5*%
X-30000000Y67550000D03*
X-30000000Y54050000D03*
D11*
%TO.N,Net-(J5-Pad19)*%
X-30900000Y65300000D03*
%TO.N,Net-(J5-Pad18)*%
X-29100000Y64800000D03*
%TO.N,GND*%
X-30900000Y64300000D03*
%TO.N,Net-(J5-Pad16)*%
X-29100000Y63800000D03*
%TO.N,Net-(J5-Pad15)*%
X-30900000Y63300000D03*
%TO.N,Net-(J5-Pad14)*%
X-29100000Y62800000D03*
%TO.N,Net-(J5-Pad13)*%
X-30900000Y62300000D03*
%TO.N,Net-(J5-Pad12)*%
X-29100000Y61800000D03*
%TO.N,GND*%
X-30900000Y61300000D03*
%TO.N,Net-(J5-Pad10)*%
X-29100000Y60800000D03*
%TO.N,Net-(J5-Pad9)*%
X-30900000Y60300000D03*
%TO.N,GND*%
X-29100000Y59800000D03*
%TO.N,Net-(J5-Pad7)*%
X-30900000Y59300000D03*
%TO.N,Net-(J5-Pad6)*%
X-29100000Y58800000D03*
%TO.N,GND*%
X-30900000Y58300000D03*
%TO.N,Net-(J5-Pad4)*%
X-29100000Y57800000D03*
%TO.N,Net-(J5-Pad3)*%
X-30900000Y57300000D03*
%TO.N,GND*%
X-29100000Y56800000D03*
%TO.N,Net-(J5-Pad1)*%
X-30900000Y56300000D03*
%TD*%
D14*
%TO.N,Net-(J1-Pad9)*%
X11010000Y59390000D02*
X10635001Y59764999D01*
X10520000Y55350000D02*
X11010000Y55840000D01*
X8160000Y55350000D02*
X10520000Y55350000D01*
X11010000Y55840000D02*
X11010000Y59390000D01*
X-4445000Y42745000D02*
X8160000Y55350000D01*
X10635001Y59764999D02*
X10100000Y60300000D01*
X-4445000Y13100000D02*
X-4445000Y42745000D01*
%TO.N,Net-(J1-Pad7)*%
X-5080000Y44120000D02*
X-5080000Y12000000D01*
X10100000Y59300000D02*
X-5080000Y44120000D01*
%TO.N,Net-(J2-Pad6)*%
X-635000Y13100000D02*
X-1024398Y13100000D01*
%TO.N,Net-(J2-Pad7)*%
X29100000Y59300000D02*
X20700000Y59300000D01*
X0Y13345602D02*
X0Y12000000D01*
X0Y13345602D02*
X0Y38600000D01*
X20700000Y59300000D02*
X0Y38600000D01*
%TO.N,Net-(J2-Pad9)*%
X635000Y38980428D02*
X635000Y13100000D01*
X17419571Y55764999D02*
X635000Y38980428D01*
X17419571Y55764999D02*
X27765001Y55764999D01*
X27765001Y55764999D02*
X28070000Y55460000D01*
X28070000Y55460000D02*
X29580000Y55460000D01*
X29580000Y55460000D02*
X29950000Y55830000D01*
X29950000Y55830000D02*
X29950000Y59450000D01*
X29545000Y59855000D02*
X29635001Y59764999D01*
X29950000Y59450000D02*
X29545000Y59855000D01*
X29100000Y60300000D02*
X29545000Y59855000D01*
%TO.N,Net-(J2-Pad12)*%
X1905000Y13100000D02*
X1515602Y13100000D01*
%TO.N,Net-(J3-Pad7)*%
X48100000Y59300000D02*
X45500000Y59300000D01*
X5040001Y12039999D02*
X5080000Y12000000D01*
X5040001Y18840001D02*
X5040001Y12039999D01*
X45500000Y59300000D02*
X5040001Y18840001D01*
%TO.N,Net-(J3-Pad9)*%
X5715000Y13100000D02*
X5715000Y19260428D01*
X5715000Y19260428D02*
X42219571Y55764999D01*
X42219571Y55764999D02*
X46135001Y55764999D01*
X46135001Y55764999D02*
X46260000Y55640000D01*
X46260000Y55640000D02*
X48660000Y55640000D01*
X48660000Y55640000D02*
X49020000Y56000000D01*
X49020000Y59380000D02*
X48100000Y60300000D01*
X49020000Y56000000D02*
X49020000Y59380000D01*
%TO.N,Net-(J5-Pad7)*%
X0Y1345602D02*
X0Y0D01*
X-3814417Y5160019D02*
X0Y1345602D01*
X-18760020Y5160020D02*
X-3814417Y5160019D01*
X-33000000Y19400000D02*
X-18760020Y5160020D01*
X-33000000Y57200000D02*
X-33000000Y19400000D01*
X-30900000Y59300000D02*
X-33000000Y57200000D01*
%TO.N,Net-(J5-Pad9)*%
X635000Y1100000D02*
X-3612301Y5347301D01*
X-32800000Y53900000D02*
X-32800000Y54001593D01*
X-18692729Y5347301D02*
X-18347301Y5347301D01*
X-32800000Y19454572D02*
X-18692729Y5347301D01*
X-32800000Y53900000D02*
X-32800000Y19454572D01*
X-18347301Y5347301D02*
X-18447301Y5347301D01*
X-3612301Y5347301D02*
X-18347301Y5347301D01*
X-30000000Y55680000D02*
X-30000000Y59400000D01*
X-30580000Y55100000D02*
X-30000000Y55680000D01*
X-32300000Y55100000D02*
X-30580000Y55100000D01*
X-32800000Y54600000D02*
X-32300000Y55100000D01*
X-32800000Y53900000D02*
X-32800000Y54600000D01*
X-30000000Y59400000D02*
X-30900000Y60300000D01*
%TO.N,Net-(J6-Pad9)*%
X1107679Y5707321D02*
X5715000Y1100000D01*
X-18452749Y5707321D02*
X1107679Y5707321D01*
X-32439980Y19694552D02*
X-18452749Y5707321D01*
X-32439980Y38505448D02*
X-32439980Y19694552D01*
X-11180000Y55640000D02*
X-15305428Y55640000D01*
X-11110000Y55710000D02*
X-11180000Y55640000D01*
X-11110000Y59500000D02*
X-11110000Y55710000D01*
X-11364999Y59754999D02*
X-11110000Y59500000D01*
X-15305428Y55640000D02*
X-32439980Y38505448D01*
X-11364999Y59764999D02*
X-11364999Y59754999D01*
X-11900000Y60300000D02*
X-11364999Y59764999D01*
%TO.N,Net-(J6-Pad7)*%
X-11900000Y59300000D02*
X-32619990Y38580010D01*
X-32619990Y19619990D02*
X-18527311Y5527311D01*
X-32619990Y38580010D02*
X-32619990Y19619990D01*
X5080000Y1345602D02*
X5080000Y0D01*
X898291Y5527311D02*
X5080000Y1345602D01*
X-18527311Y5527311D02*
X898291Y5527311D01*
%TO.N,Net-(J7-Pad12)*%
X-3175000Y-12415000D02*
X-3175000Y-10900000D01*
X-3810000Y-13050000D02*
X-3175000Y-12415000D01*
X-6179980Y-17499980D02*
X-3810000Y-15130000D01*
X-6179980Y-59959980D02*
X-6179980Y-17499980D01*
X-6170000Y-59969960D02*
X-6179980Y-59959980D01*
X-6170000Y-60540000D02*
X-6170000Y-59969960D01*
X-3810000Y-15130000D02*
X-3810000Y-13050000D01*
X-13830000Y-68200000D02*
X-6170000Y-60540000D01*
X-15530000Y-68200000D02*
X-13830000Y-68200000D01*
X-15959990Y-62859990D02*
X-15959990Y-67770010D01*
X-15959990Y-67770010D02*
X-15530000Y-68200000D01*
X-15100000Y-62000000D02*
X-15959990Y-62859990D01*
%TO.N,Net-(J7-Pad9)*%
X-5040001Y-10304999D02*
X-4445000Y-10900000D01*
X-7270601Y-10304999D02*
X-5040001Y-10304999D01*
X-16900000Y-63500000D02*
X-16140000Y-64260000D01*
X-17390000Y-68200000D02*
X-18970010Y-66619990D01*
X-6720000Y-14610000D02*
X-8215001Y-13114999D01*
X-16140000Y-64260000D02*
X-16140000Y-67850000D01*
X-16140000Y-67850000D02*
X-16490000Y-68200000D01*
X-16490000Y-68200000D02*
X-17390000Y-68200000D01*
X-8215001Y-11249399D02*
X-7270601Y-10304999D01*
X-18970010Y-66619990D02*
X-18970010Y-56213845D01*
X-6720000Y-49035428D02*
X-6720000Y-14610000D01*
X-8215001Y-13114999D02*
X-8215001Y-11249399D01*
X-18970010Y-56213845D02*
X-17126156Y-54369991D01*
X-12054562Y-54369990D02*
X-6720000Y-49035428D01*
X-17126156Y-54369991D02*
X-12054562Y-54369990D01*
%TO.N,Net-(J7-Pad6)*%
X-5715000Y-12245602D02*
X-6359398Y-12890000D01*
X-5715000Y-10900000D02*
X-5715000Y-12245602D01*
X-6359398Y-13309398D02*
X-6359990Y-13309990D01*
X-6359398Y-12890000D02*
X-6359398Y-13309398D01*
X-6359990Y-13309990D02*
X-6359990Y-57259990D01*
X-14100000Y-65000000D02*
X-15100000Y-65000000D01*
X-6359990Y-57259990D02*
X-14100000Y-65000000D01*
%TO.N,Net-(J7-Pad3)*%
X-6985000Y-10900000D02*
X-6985000Y-12615000D01*
X-6985000Y-12615000D02*
X-6540000Y-13060000D01*
X-6540000Y-13060000D02*
X-6540000Y-49110000D01*
X-6540000Y-49110000D02*
X-11980000Y-54550000D01*
X-17051593Y-54550000D02*
X-18790000Y-56288407D01*
X-11980000Y-54550000D02*
X-17051593Y-54550000D01*
X-18790000Y-56288407D02*
X-18790000Y-65400000D01*
X-17690000Y-66500000D02*
X-16900000Y-66500000D01*
X-18790000Y-65400000D02*
X-17690000Y-66500000D01*
%TO.N,Net-(J4-Pad9)*%
X-18925438Y4980010D02*
X-46219990Y32274562D01*
X-46219990Y54276155D02*
X-46219990Y54180010D01*
X-47423844Y55480009D02*
X-46219990Y54276155D01*
X-48025438Y55480010D02*
X-47423844Y55480009D01*
X-48800000Y56254572D02*
X-48025438Y55480010D01*
X-48800000Y59200000D02*
X-48800000Y56254572D01*
X-49900000Y60300000D02*
X-48800000Y59200000D01*
X-46219990Y32274562D02*
X-46219990Y54180010D01*
X-8325010Y4980010D02*
X-8419990Y4980010D01*
X-4445000Y1100000D02*
X-8325010Y4980010D01*
X-8419990Y4980010D02*
X-18925438Y4980010D01*
%TO.N,Net-(J4-Pad7)*%
X-5119999Y39999D02*
X-5080000Y0D01*
X-46400000Y32200000D02*
X-19000000Y4800000D01*
X-46400000Y54201593D02*
X-46400000Y32200000D01*
X-47198407Y55000000D02*
X-46400000Y54201593D01*
X-8534398Y4800000D02*
X-8800000Y4800000D01*
X-5080000Y1345602D02*
X-8534398Y4800000D01*
X-5080000Y0D02*
X-5080000Y1345602D01*
X-19000000Y4800000D02*
X-8800000Y4800000D01*
X-49120000Y58520000D02*
X-49364999Y58764999D01*
X-49120000Y55730000D02*
X-49120000Y58520000D01*
X-48690000Y55300000D02*
X-49120000Y55730000D01*
X-47498407Y55300000D02*
X-48690000Y55300000D01*
X-49364999Y58764999D02*
X-49900000Y59300000D01*
X-46400000Y54201593D02*
X-47498407Y55300000D01*
%TO.N,Net-(J8-Pad12)*%
X1905000Y-10900000D02*
X1905000Y-12635000D01*
X2385010Y-13115010D02*
X2385010Y-61514990D01*
X1905000Y-12635000D02*
X2385010Y-13115010D01*
X1900000Y-62000000D02*
X900000Y-62000000D01*
X2385010Y-61514990D02*
X1900000Y-62000000D01*
%TO.N,Net-(J8-Pad9)*%
X-364999Y-64035001D02*
X-900000Y-63500000D01*
X635000Y-10900000D02*
X-355000Y-9910000D01*
X-355000Y-9910000D02*
X-7130174Y-9910000D01*
X-60000Y-64340000D02*
X-364999Y-64035001D01*
X-6900010Y-48960866D02*
X-11971603Y-48960866D01*
X-17464562Y-68380010D02*
X-430010Y-68380010D01*
X-430010Y-68380010D02*
X-60000Y-68010000D01*
X-7130174Y-9910000D02*
X-8395011Y-11174837D01*
X-8395011Y-11174837D02*
X-8395011Y-13204989D01*
X-8395011Y-13204989D02*
X-6900010Y-14699990D01*
X-6900010Y-14699990D02*
X-6900010Y-48960866D01*
X-19150020Y-66694552D02*
X-17464562Y-68380010D01*
X-11971603Y-48960866D02*
X-19150020Y-56139283D01*
X-19150020Y-56139283D02*
X-19150020Y-66694552D01*
X-60000Y-68010000D02*
X-60000Y-64340000D01*
%TO.N,Net-(J8-Pad6)*%
X120009Y-64220009D02*
X900000Y-65000000D01*
X120009Y-57990009D02*
X120009Y-64220009D01*
X-2070000Y-57520000D02*
X-350000Y-57520000D01*
X-350000Y-57520000D02*
X120009Y-57990009D01*
X-2870000Y-56720000D02*
X-2070000Y-57520000D01*
X-2870000Y-55670000D02*
X-2870000Y-56720000D01*
X-1970000Y-54770000D02*
X-2870000Y-55670000D01*
X-1270000Y-13120000D02*
X-1270000Y-54770000D01*
X-635000Y-12485000D02*
X-1270000Y-13120000D01*
X-1270000Y-54770000D02*
X-1970000Y-54770000D01*
X-635000Y-10900000D02*
X-635000Y-12485000D01*
%TO.N,Net-(J8-Pad3)*%
X-1900000Y-66500000D02*
X-900000Y-66500000D01*
X-5990000Y-62410000D02*
X-1900000Y-66500000D01*
X-5990000Y-17570000D02*
X-5990000Y-62410000D01*
X-1905000Y-13485000D02*
X-5990000Y-17570000D01*
X-1905000Y-10900000D02*
X-1905000Y-13485000D01*
%TO.N,Net-(J9-Pad12)*%
X6985000Y-10900000D02*
X6985000Y-12635000D01*
X6985000Y-12635000D02*
X8330020Y-13980020D01*
X8330020Y-45828427D02*
X18390000Y-55888407D01*
X8330020Y-13980020D02*
X8330020Y-45828427D01*
X18390000Y-55888407D02*
X18390000Y-61510000D01*
X17900000Y-62000000D02*
X16900000Y-62000000D01*
X18390000Y-61510000D02*
X17900000Y-62000000D01*
%TO.N,Net-(J9-Pad9)*%
X5715000Y-10900000D02*
X5715000Y-12625000D01*
X5715000Y-12625000D02*
X8150010Y-15060010D01*
X8150010Y-15060010D02*
X8150010Y-57560010D01*
X14090000Y-63500000D02*
X15100000Y-63500000D01*
X8150010Y-57560010D02*
X14090000Y-63500000D01*
%TO.N,Net-(J9-Pad6)*%
X8520000Y-11554398D02*
X8520000Y-45763835D01*
X7270601Y-10304999D02*
X8520000Y-11554398D01*
X5040001Y-10304999D02*
X7270601Y-10304999D01*
X4445000Y-10900000D02*
X5040001Y-10304999D01*
X18570010Y-55813845D02*
X18570010Y-64319990D01*
X8520000Y-45763835D02*
X18570010Y-55813845D01*
X17890000Y-65000000D02*
X16900000Y-65000000D01*
X18570010Y-64319990D02*
X17890000Y-65000000D01*
%TO.N,Net-(J9-Pad3)*%
X3175000Y-10900000D02*
X3175000Y-12635000D01*
X3175000Y-12635000D02*
X7970000Y-17430000D01*
X7970000Y-17430000D02*
X7970000Y-60350000D01*
X14120000Y-66500000D02*
X15100000Y-66500000D01*
X7970000Y-60350000D02*
X14120000Y-66500000D01*
%TD*%
D15*
%TO.N,GND*%
X55340001Y-43726618D02*
X22726620Y-76340000D01*
X-22726619Y-76340000D01*
X-42927336Y-56139283D01*
X-19833310Y-56139283D01*
X-19830020Y-56172688D01*
X-19830019Y-66661137D01*
X-19833310Y-66694552D01*
X-19820181Y-66827855D01*
X-19781298Y-66956035D01*
X-19758009Y-66999605D01*
X-19718154Y-67074168D01*
X-19633178Y-67177711D01*
X-19607230Y-67199006D01*
X-18234222Y-68572015D01*
X-18273188Y-68592843D01*
X-18484081Y-68765919D01*
X-18657157Y-68976812D01*
X-18785764Y-69217419D01*
X-18864960Y-69478493D01*
X-18891701Y-69750000D01*
X-18864960Y-70021507D01*
X-18785764Y-70282581D01*
X-18657157Y-70523188D01*
X-18484081Y-70734081D01*
X-18273188Y-70907157D01*
X-18032581Y-71035764D01*
X-17771507Y-71114960D01*
X-17568037Y-71135000D01*
X-14431963Y-71135000D01*
X-14228493Y-71114960D01*
X-13967419Y-71035764D01*
X-13726812Y-70907157D01*
X-13515919Y-70734081D01*
X-13342843Y-70523188D01*
X-13214236Y-70282581D01*
X-13135040Y-70021507D01*
X-13108299Y-69750000D01*
X-13135040Y-69478493D01*
X-13214236Y-69217419D01*
X-13298373Y-69060010D01*
X-2701627Y-69060010D01*
X-2785764Y-69217419D01*
X-2864960Y-69478493D01*
X-2891701Y-69750000D01*
X-2864960Y-70021507D01*
X-2785764Y-70282581D01*
X-2657157Y-70523188D01*
X-2484081Y-70734081D01*
X-2273188Y-70907157D01*
X-2032581Y-71035764D01*
X-1771507Y-71114960D01*
X-1568037Y-71135000D01*
X1568037Y-71135000D01*
X1771507Y-71114960D01*
X2032581Y-71035764D01*
X2273188Y-70907157D01*
X2484081Y-70734081D01*
X2657157Y-70523188D01*
X2785764Y-70282581D01*
X2864960Y-70021507D01*
X2891701Y-69750000D01*
X2864960Y-69478493D01*
X2785764Y-69217419D01*
X2657157Y-68976812D01*
X2484081Y-68765919D01*
X2273188Y-68592843D01*
X2032581Y-68464236D01*
X1771507Y-68385040D01*
X1568037Y-68365000D01*
X521293Y-68365000D01*
X571278Y-68271484D01*
X610161Y-68143303D01*
X620000Y-68043404D01*
X620000Y-68043398D01*
X623289Y-68010001D01*
X622201Y-67998949D01*
X782523Y-68033351D01*
X986377Y-68036413D01*
X1186912Y-67999647D01*
X1376420Y-67924466D01*
X1403981Y-67909736D01*
X1426836Y-67706441D01*
X900000Y-67179605D01*
X885858Y-67193748D01*
X709493Y-67017383D01*
X798061Y-67035000D01*
X1001939Y-67035000D01*
X1095913Y-67016308D01*
X1606441Y-67526836D01*
X1809736Y-67503981D01*
X1890577Y-67316816D01*
X1933351Y-67117477D01*
X1936413Y-66913623D01*
X1899647Y-66713088D01*
X1824466Y-66523580D01*
X1811344Y-66499028D01*
X1817205Y-66490256D01*
X1895226Y-66301898D01*
X1935000Y-66101939D01*
X1935000Y-65898061D01*
X1895226Y-65698102D01*
X1817205Y-65509744D01*
X1810694Y-65500000D01*
X1817205Y-65490256D01*
X1895226Y-65301898D01*
X1935000Y-65101939D01*
X1935000Y-64898061D01*
X1895226Y-64698102D01*
X1817205Y-64509744D01*
X1811157Y-64500692D01*
X1890577Y-64316816D01*
X1933351Y-64117477D01*
X1936413Y-63913623D01*
X1899647Y-63713088D01*
X1824466Y-63523580D01*
X1811344Y-63499028D01*
X1817205Y-63490256D01*
X1895226Y-63301898D01*
X1935000Y-63101939D01*
X1935000Y-62898061D01*
X1895226Y-62698102D01*
X1888627Y-62682170D01*
X1900000Y-62683290D01*
X1933404Y-62680000D01*
X2033303Y-62670161D01*
X2161484Y-62631278D01*
X2279616Y-62568135D01*
X2383159Y-62483159D01*
X2404458Y-62457206D01*
X2842225Y-62019441D01*
X2868169Y-61998149D01*
X2889460Y-61972206D01*
X2889463Y-61972203D01*
X2953145Y-61894606D01*
X3016288Y-61776474D01*
X3055171Y-61648293D01*
X3068300Y-61514990D01*
X3065010Y-61481586D01*
X3065010Y-13486674D01*
X7290000Y-17711665D01*
X7290001Y-60316585D01*
X7286710Y-60350000D01*
X7299839Y-60483303D01*
X7338722Y-60611483D01*
X7338723Y-60611484D01*
X7401866Y-60729616D01*
X7486842Y-60833159D01*
X7512790Y-60854454D01*
X13615545Y-66957210D01*
X13636841Y-66983159D01*
X13740384Y-67068135D01*
X13858516Y-67131278D01*
X13986697Y-67170161D01*
X14086596Y-67180000D01*
X14086605Y-67180000D01*
X14111266Y-67182429D01*
X14104774Y-67198102D01*
X14065000Y-67398061D01*
X14065000Y-67601939D01*
X14104774Y-67801898D01*
X14182795Y-67990256D01*
X14296063Y-68159774D01*
X14440226Y-68303937D01*
X14531613Y-68365000D01*
X14431963Y-68365000D01*
X14228493Y-68385040D01*
X13967419Y-68464236D01*
X13726812Y-68592843D01*
X13515919Y-68765919D01*
X13342843Y-68976812D01*
X13214236Y-69217419D01*
X13135040Y-69478493D01*
X13108299Y-69750000D01*
X13135040Y-70021507D01*
X13214236Y-70282581D01*
X13342843Y-70523188D01*
X13515919Y-70734081D01*
X13726812Y-70907157D01*
X13967419Y-71035764D01*
X14228493Y-71114960D01*
X14431963Y-71135000D01*
X17568037Y-71135000D01*
X17771507Y-71114960D01*
X18032581Y-71035764D01*
X18273188Y-70907157D01*
X18484081Y-70734081D01*
X18657157Y-70523188D01*
X18785764Y-70282581D01*
X18864960Y-70021507D01*
X18891701Y-69750000D01*
X18864960Y-69478493D01*
X18785764Y-69217419D01*
X18657157Y-68976812D01*
X18484081Y-68765919D01*
X18273188Y-68592843D01*
X18032581Y-68464236D01*
X17771507Y-68385040D01*
X17568037Y-68365000D01*
X15668387Y-68365000D01*
X15759774Y-68303937D01*
X15903937Y-68159774D01*
X16017205Y-67990256D01*
X16095226Y-67801898D01*
X16114213Y-67706441D01*
X16373164Y-67706441D01*
X16396019Y-67909736D01*
X16583184Y-67990577D01*
X16782523Y-68033351D01*
X16986377Y-68036413D01*
X17186912Y-67999647D01*
X17376420Y-67924466D01*
X17403981Y-67909736D01*
X17426836Y-67706441D01*
X16900000Y-67179605D01*
X16373164Y-67706441D01*
X16114213Y-67706441D01*
X16135000Y-67601939D01*
X16135000Y-67520253D01*
X16193559Y-67526836D01*
X16704087Y-67016308D01*
X16798061Y-67035000D01*
X17001939Y-67035000D01*
X17095913Y-67016308D01*
X17606441Y-67526836D01*
X17809736Y-67503981D01*
X17890577Y-67316816D01*
X17933351Y-67117477D01*
X17936413Y-66913623D01*
X17899647Y-66713088D01*
X17824466Y-66523580D01*
X17811344Y-66499028D01*
X17817205Y-66490256D01*
X17895226Y-66301898D01*
X17935000Y-66101939D01*
X17935000Y-65898061D01*
X17895226Y-65698102D01*
X17889052Y-65683197D01*
X17890000Y-65683290D01*
X17923404Y-65680000D01*
X18023303Y-65670161D01*
X18151484Y-65631278D01*
X18269616Y-65568135D01*
X18373159Y-65483159D01*
X18394459Y-65457205D01*
X19027220Y-64824445D01*
X19053169Y-64803149D01*
X19138145Y-64699606D01*
X19201288Y-64581474D01*
X19240171Y-64453293D01*
X19250010Y-64353394D01*
X19250010Y-64353385D01*
X19253299Y-64319991D01*
X19250010Y-64286597D01*
X19250010Y-55847238D01*
X19253299Y-55813844D01*
X19250010Y-55780450D01*
X19250010Y-55780441D01*
X19240171Y-55680542D01*
X19201288Y-55552361D01*
X19138145Y-55434229D01*
X19053168Y-55330686D01*
X19027225Y-55309395D01*
X9200000Y-45482171D01*
X9200000Y-39144115D01*
X10223980Y-39144115D01*
X10528264Y-40211592D01*
X11034956Y-41199195D01*
X11724584Y-42068970D01*
X12570646Y-42787493D01*
X13540628Y-43327151D01*
X14597254Y-43667206D01*
X14784272Y-43704407D01*
X15668259Y-43635177D01*
X15668259Y-38260128D01*
X15922259Y-38260128D01*
X15922259Y-43635177D01*
X16806246Y-43704407D01*
X17873723Y-43400123D01*
X18861326Y-42893431D01*
X19731101Y-42203803D01*
X20449624Y-41357741D01*
X20989282Y-40387759D01*
X21329337Y-39331133D01*
X21366538Y-39144115D01*
X21297308Y-38260128D01*
X15922259Y-38260128D01*
X15668259Y-38260128D01*
X10293210Y-38260128D01*
X10223980Y-39144115D01*
X9200000Y-39144115D01*
X9200000Y-37122141D01*
X10223980Y-37122141D01*
X10293210Y-38006128D01*
X15668259Y-38006128D01*
X15668259Y-32631079D01*
X15922259Y-32631079D01*
X15922259Y-38006128D01*
X21297308Y-38006128D01*
X21366538Y-37122141D01*
X21062254Y-36054664D01*
X20555562Y-35067061D01*
X19865934Y-34197286D01*
X19019872Y-33478763D01*
X18049890Y-32939105D01*
X16993264Y-32599050D01*
X16806246Y-32561849D01*
X15922259Y-32631079D01*
X15668259Y-32631079D01*
X14784272Y-32561849D01*
X13716795Y-32866133D01*
X12729192Y-33372825D01*
X11859417Y-34062453D01*
X11140894Y-34908515D01*
X10601236Y-35878497D01*
X10261181Y-36935123D01*
X10223980Y-37122141D01*
X9200000Y-37122141D01*
X9200000Y-16806246D01*
X32561849Y-16806246D01*
X32866133Y-17873723D01*
X33372825Y-18861326D01*
X34062453Y-19731101D01*
X34908515Y-20449624D01*
X35878497Y-20989282D01*
X36935123Y-21329337D01*
X37122141Y-21366538D01*
X38006128Y-21297308D01*
X38006128Y-15922259D01*
X38260128Y-15922259D01*
X38260128Y-21297308D01*
X39144115Y-21366538D01*
X40211592Y-21062254D01*
X41199195Y-20555562D01*
X42068970Y-19865934D01*
X42787493Y-19019872D01*
X43327151Y-18049890D01*
X43667206Y-16993264D01*
X43704407Y-16806246D01*
X43635177Y-15922259D01*
X38260128Y-15922259D01*
X38006128Y-15922259D01*
X32631079Y-15922259D01*
X32561849Y-16806246D01*
X9200000Y-16806246D01*
X9200000Y-14784272D01*
X32561849Y-14784272D01*
X32631079Y-15668259D01*
X38006128Y-15668259D01*
X38006128Y-10293210D01*
X38260128Y-10293210D01*
X38260128Y-15668259D01*
X43635177Y-15668259D01*
X43704407Y-14784272D01*
X43400123Y-13716795D01*
X42893431Y-12729192D01*
X42203803Y-11859417D01*
X41357741Y-11140894D01*
X40387759Y-10601236D01*
X39331133Y-10261181D01*
X39144115Y-10223980D01*
X38260128Y-10293210D01*
X38006128Y-10293210D01*
X37122141Y-10223980D01*
X36054664Y-10528264D01*
X35067061Y-11034956D01*
X34197286Y-11724584D01*
X33478763Y-12570646D01*
X32939105Y-13540628D01*
X32599050Y-14597254D01*
X32561849Y-14784272D01*
X9200000Y-14784272D01*
X9200000Y-11587802D01*
X9203290Y-11554397D01*
X9190161Y-11421094D01*
X9151278Y-11292914D01*
X9088135Y-11174782D01*
X9003158Y-11071239D01*
X8977215Y-11049948D01*
X7775060Y-9847794D01*
X7753760Y-9821840D01*
X7650217Y-9736864D01*
X7532085Y-9673721D01*
X7403904Y-9634838D01*
X7304005Y-9624999D01*
X7270601Y-9621709D01*
X7237197Y-9624999D01*
X5073394Y-9624999D01*
X5040000Y-9621710D01*
X5006606Y-9624999D01*
X5006597Y-9624999D01*
X4906698Y-9634838D01*
X4778517Y-9673721D01*
X4660385Y-9736864D01*
X4572579Y-9808925D01*
X4552848Y-9805000D01*
X4337152Y-9805000D01*
X4125600Y-9847080D01*
X3926323Y-9929624D01*
X3810000Y-10007348D01*
X3693677Y-9929624D01*
X3494400Y-9847080D01*
X3282848Y-9805000D01*
X3067152Y-9805000D01*
X2855600Y-9847080D01*
X2656323Y-9929624D01*
X2540000Y-10007348D01*
X2423677Y-9929624D01*
X2224400Y-9847080D01*
X2012848Y-9805000D01*
X1797152Y-9805000D01*
X1585600Y-9847080D01*
X1386323Y-9929624D01*
X1270000Y-10007348D01*
X1153677Y-9929624D01*
X954400Y-9847080D01*
X742848Y-9805000D01*
X527152Y-9805000D01*
X505893Y-9809229D01*
X149459Y-9452795D01*
X128159Y-9426841D01*
X24616Y-9341865D01*
X-93516Y-9278722D01*
X-221697Y-9239839D01*
X-321596Y-9230000D01*
X-355000Y-9226710D01*
X-388404Y-9230000D01*
X-7096770Y-9230000D01*
X-7130174Y-9226710D01*
X-7263477Y-9239839D01*
X-7391658Y-9278722D01*
X-7509790Y-9341865D01*
X-7587387Y-9405547D01*
X-7587388Y-9405548D01*
X-7613333Y-9426841D01*
X-7634624Y-9452784D01*
X-8852221Y-10670382D01*
X-8878170Y-10691679D01*
X-8963146Y-10795222D01*
X-9019151Y-10900000D01*
X-9026289Y-10913354D01*
X-9065172Y-11041534D01*
X-9078301Y-11174837D01*
X-9075011Y-11208242D01*
X-9075010Y-13171575D01*
X-9078301Y-13204989D01*
X-9065172Y-13338292D01*
X-9026289Y-13466472D01*
X-9011246Y-13494615D01*
X-8963145Y-13584605D01*
X-8878169Y-13688148D01*
X-8852221Y-13709443D01*
X-7580010Y-14981656D01*
X-7580009Y-48280866D01*
X-11938199Y-48280866D01*
X-11971603Y-48277576D01*
X-12104906Y-48290705D01*
X-12233087Y-48329588D01*
X-12351219Y-48392731D01*
X-12428816Y-48456413D01*
X-12428819Y-48456416D01*
X-12454762Y-48477707D01*
X-12476053Y-48503650D01*
X-19607229Y-55634828D01*
X-19633179Y-55656125D01*
X-19718155Y-55759668D01*
X-19758009Y-55834230D01*
X-19781298Y-55877800D01*
X-19820181Y-56005980D01*
X-19833310Y-56139283D01*
X-42927336Y-56139283D01*
X-55340000Y-43726620D01*
X-55340000Y-39144115D01*
X-21366538Y-39144115D01*
X-21062254Y-40211592D01*
X-20555562Y-41199195D01*
X-19865934Y-42068970D01*
X-19019872Y-42787493D01*
X-18049890Y-43327151D01*
X-16993264Y-43667206D01*
X-16806246Y-43704407D01*
X-15922259Y-43635177D01*
X-15922259Y-38260128D01*
X-15668259Y-38260128D01*
X-15668259Y-43635177D01*
X-14784272Y-43704407D01*
X-13716795Y-43400123D01*
X-12729192Y-42893431D01*
X-11859417Y-42203803D01*
X-11140894Y-41357741D01*
X-10601236Y-40387759D01*
X-10261181Y-39331133D01*
X-10223980Y-39144115D01*
X-10293210Y-38260128D01*
X-15668259Y-38260128D01*
X-15922259Y-38260128D01*
X-21297308Y-38260128D01*
X-21366538Y-39144115D01*
X-55340000Y-39144115D01*
X-55340000Y-37122141D01*
X-21366538Y-37122141D01*
X-21297308Y-38006128D01*
X-15922259Y-38006128D01*
X-15922259Y-32631079D01*
X-15668259Y-32631079D01*
X-15668259Y-38006128D01*
X-10293210Y-38006128D01*
X-10223980Y-37122141D01*
X-10528264Y-36054664D01*
X-11034956Y-35067061D01*
X-11724584Y-34197286D01*
X-12570646Y-33478763D01*
X-13540628Y-32939105D01*
X-14597254Y-32599050D01*
X-14784272Y-32561849D01*
X-15668259Y-32631079D01*
X-15922259Y-32631079D01*
X-16806246Y-32561849D01*
X-17873723Y-32866133D01*
X-18861326Y-33372825D01*
X-19731101Y-34062453D01*
X-20449624Y-34908515D01*
X-20989282Y-35878497D01*
X-21329337Y-36935123D01*
X-21366538Y-37122141D01*
X-55340000Y-37122141D01*
X-55340000Y-16806246D01*
X-43704407Y-16806246D01*
X-43400123Y-17873723D01*
X-42893431Y-18861326D01*
X-42203803Y-19731101D01*
X-41357741Y-20449624D01*
X-40387759Y-20989282D01*
X-39331133Y-21329337D01*
X-39144115Y-21366538D01*
X-38260128Y-21297308D01*
X-38260128Y-15922259D01*
X-38006128Y-15922259D01*
X-38006128Y-21297308D01*
X-37122141Y-21366538D01*
X-36054664Y-21062254D01*
X-35067061Y-20555562D01*
X-34197286Y-19865934D01*
X-33478763Y-19019872D01*
X-32939105Y-18049890D01*
X-32599050Y-16993264D01*
X-32561849Y-16806246D01*
X-32631079Y-15922259D01*
X-38006128Y-15922259D01*
X-38260128Y-15922259D01*
X-43635177Y-15922259D01*
X-43704407Y-16806246D01*
X-55340000Y-16806246D01*
X-55340000Y-14784272D01*
X-43704407Y-14784272D01*
X-43635177Y-15668259D01*
X-38260128Y-15668259D01*
X-38260128Y-10293210D01*
X-38006128Y-10293210D01*
X-38006128Y-15668259D01*
X-32631079Y-15668259D01*
X-32561849Y-14784272D01*
X-32866133Y-13716795D01*
X-33372825Y-12729192D01*
X-34062453Y-11859417D01*
X-34908515Y-11140894D01*
X-35878497Y-10601236D01*
X-36935123Y-10261181D01*
X-37122141Y-10223980D01*
X-38006128Y-10293210D01*
X-38260128Y-10293210D01*
X-39144115Y-10223980D01*
X-40211592Y-10528264D01*
X-41199195Y-11034956D01*
X-42068970Y-11724584D01*
X-42787493Y-12570646D01*
X-43327151Y-13540628D01*
X-43667206Y-14597254D01*
X-43704407Y-14784272D01*
X-55340000Y-14784272D01*
X-55340000Y14784272D01*
X-43704407Y14784272D01*
X-43400123Y13716795D01*
X-42893431Y12729192D01*
X-42203803Y11859417D01*
X-41357741Y11140894D01*
X-40387759Y10601236D01*
X-39331133Y10261181D01*
X-39144115Y10223980D01*
X-38260128Y10293210D01*
X-38260128Y15668259D01*
X-38006128Y15668259D01*
X-38006128Y10293210D01*
X-37122141Y10223980D01*
X-36054664Y10528264D01*
X-35067061Y11034956D01*
X-34197286Y11724584D01*
X-33478763Y12570646D01*
X-32939105Y13540628D01*
X-32599050Y14597254D01*
X-32561849Y14784272D01*
X-32631079Y15668259D01*
X-38006128Y15668259D01*
X-38260128Y15668259D01*
X-43635177Y15668259D01*
X-43704407Y14784272D01*
X-55340000Y14784272D01*
X-55340000Y16806246D01*
X-43704407Y16806246D01*
X-43635177Y15922259D01*
X-38260128Y15922259D01*
X-38260128Y21297308D01*
X-39144115Y21366538D01*
X-40211592Y21062254D01*
X-41199195Y20555562D01*
X-42068970Y19865934D01*
X-42787493Y19019872D01*
X-43327151Y18049890D01*
X-43667206Y16993264D01*
X-43704407Y16806246D01*
X-55340000Y16806246D01*
X-55340000Y67550000D01*
X-51891701Y67550000D01*
X-51864960Y67278493D01*
X-51785764Y67017419D01*
X-51657157Y66776812D01*
X-51484081Y66565919D01*
X-51273188Y66392843D01*
X-51032581Y66264236D01*
X-50771507Y66185040D01*
X-50568037Y66165000D01*
X-50468387Y66165000D01*
X-50559774Y66103937D01*
X-50703937Y65959774D01*
X-50817205Y65790256D01*
X-50895226Y65601898D01*
X-50935000Y65401939D01*
X-50935000Y65198061D01*
X-50895226Y64998102D01*
X-50817205Y64809744D01*
X-50811157Y64800692D01*
X-50890577Y64616816D01*
X-50933351Y64417477D01*
X-50936413Y64213623D01*
X-50899647Y64013088D01*
X-50824466Y63823580D01*
X-50811344Y63799028D01*
X-50817205Y63790256D01*
X-50895226Y63601898D01*
X-50935000Y63401939D01*
X-50935000Y63198061D01*
X-50895226Y62998102D01*
X-50817205Y62809744D01*
X-50810694Y62800000D01*
X-50817205Y62790256D01*
X-50895226Y62601898D01*
X-50935000Y62401939D01*
X-50935000Y62198061D01*
X-50895226Y61998102D01*
X-50817205Y61809744D01*
X-50811157Y61800692D01*
X-50890577Y61616816D01*
X-50933351Y61417477D01*
X-50936413Y61213623D01*
X-50899647Y61013088D01*
X-50824466Y60823580D01*
X-50811344Y60799028D01*
X-50817205Y60790256D01*
X-50895226Y60601898D01*
X-50935000Y60401939D01*
X-50935000Y60198061D01*
X-50895226Y59998102D01*
X-50817205Y59809744D01*
X-50810694Y59800000D01*
X-50817205Y59790256D01*
X-50895226Y59601898D01*
X-50935000Y59401939D01*
X-50935000Y59198061D01*
X-50895226Y58998102D01*
X-50817205Y58809744D01*
X-50811157Y58800692D01*
X-50890577Y58616816D01*
X-50933351Y58417477D01*
X-50936413Y58213623D01*
X-50899647Y58013088D01*
X-50824466Y57823580D01*
X-50811344Y57799028D01*
X-50817205Y57790256D01*
X-50895226Y57601898D01*
X-50935000Y57401939D01*
X-50935000Y57198061D01*
X-50895226Y56998102D01*
X-50817205Y56809744D01*
X-50810694Y56800000D01*
X-50817205Y56790256D01*
X-50895226Y56601898D01*
X-50935000Y56401939D01*
X-50935000Y56198061D01*
X-50895226Y55998102D01*
X-50817205Y55809744D01*
X-50703937Y55640226D01*
X-50559774Y55496063D01*
X-50468387Y55435000D01*
X-50568037Y55435000D01*
X-50771507Y55414960D01*
X-51032581Y55335764D01*
X-51273188Y55207157D01*
X-51484081Y55034081D01*
X-51657157Y54823188D01*
X-51785764Y54582581D01*
X-51864960Y54321507D01*
X-51891701Y54050000D01*
X-51864960Y53778493D01*
X-51785764Y53517419D01*
X-51657157Y53276812D01*
X-51484081Y53065919D01*
X-51273188Y52892843D01*
X-51032581Y52764236D01*
X-50771507Y52685040D01*
X-50568037Y52665000D01*
X-47431963Y52665000D01*
X-47228493Y52685040D01*
X-47080000Y52730085D01*
X-47079999Y32233415D01*
X-47083290Y32200000D01*
X-47070161Y32066697D01*
X-47031278Y31938517D01*
X-47031277Y31938516D01*
X-46968134Y31820384D01*
X-46883158Y31716841D01*
X-46857210Y31695546D01*
X-36280240Y21118575D01*
X-36935123Y21329337D01*
X-37122141Y21366538D01*
X-38006128Y21297308D01*
X-38006128Y16101867D01*
X-38118987Y15989008D01*
X-37939379Y15809400D01*
X-37826520Y15922259D01*
X-32631079Y15922259D01*
X-32561849Y16806246D01*
X-32798651Y17636986D01*
X-19504450Y4342784D01*
X-19483159Y4316841D01*
X-19457216Y4295550D01*
X-19457213Y4295547D01*
X-19379616Y4231865D01*
X-19261484Y4168722D01*
X-19133303Y4129839D01*
X-19000000Y4116710D01*
X-18966596Y4120000D01*
X-8816062Y4120000D01*
X-6891063Y2195000D01*
X-7092848Y2195000D01*
X-7304400Y2152920D01*
X-7503677Y2070376D01*
X-7683022Y1950542D01*
X-7835542Y1798022D01*
X-7955376Y1618677D01*
X-8037920Y1419400D01*
X-8080000Y1207848D01*
X-8080000Y994681D01*
X-8138677Y970376D01*
X-8318022Y850542D01*
X-8470542Y698022D01*
X-8590376Y518677D01*
X-8672920Y319400D01*
X-8715000Y107848D01*
X-8715000Y-107848D01*
X-8672920Y-319400D01*
X-8590376Y-518677D01*
X-8470542Y-698022D01*
X-8318022Y-850542D01*
X-8138677Y-970376D01*
X-7939400Y-1052920D01*
X-7727848Y-1095000D01*
X-7512152Y-1095000D01*
X-7300600Y-1052920D01*
X-7101323Y-970376D01*
X-6985000Y-892652D01*
X-6868677Y-970376D01*
X-6669400Y-1052920D01*
X-6457848Y-1095000D01*
X-6242152Y-1095000D01*
X-6030600Y-1052920D01*
X-5831323Y-970376D01*
X-5715000Y-892652D01*
X-5598677Y-970376D01*
X-5399400Y-1052920D01*
X-5187848Y-1095000D01*
X-4972152Y-1095000D01*
X-4760600Y-1052920D01*
X-4561323Y-970376D01*
X-4445000Y-892652D01*
X-4328677Y-970376D01*
X-4129400Y-1052920D01*
X-3917848Y-1095000D01*
X-3702152Y-1095000D01*
X-3490600Y-1052920D01*
X-3291323Y-970376D01*
X-3175000Y-892652D01*
X-3058677Y-970376D01*
X-2859400Y-1052920D01*
X-2647848Y-1095000D01*
X-2432152Y-1095000D01*
X-2220600Y-1052920D01*
X-2021323Y-970376D01*
X-1905000Y-892652D01*
X-1788677Y-970376D01*
X-1589400Y-1052920D01*
X-1377848Y-1095000D01*
X-1162152Y-1095000D01*
X-950600Y-1052920D01*
X-751323Y-970376D01*
X-635000Y-892652D01*
X-518677Y-970376D01*
X-319400Y-1052920D01*
X-107848Y-1095000D01*
X107848Y-1095000D01*
X319400Y-1052920D01*
X518677Y-970376D01*
X635000Y-892652D01*
X751323Y-970376D01*
X950600Y-1052920D01*
X1162152Y-1095000D01*
X1377848Y-1095000D01*
X1589400Y-1052920D01*
X1788677Y-970376D01*
X1905000Y-892652D01*
X2021323Y-970376D01*
X2220600Y-1052920D01*
X2432152Y-1095000D01*
X2647848Y-1095000D01*
X2859400Y-1052920D01*
X3058677Y-970376D01*
X3175000Y-892652D01*
X3291323Y-970376D01*
X3490600Y-1052920D01*
X3702152Y-1095000D01*
X3917848Y-1095000D01*
X4129400Y-1052920D01*
X4328677Y-970376D01*
X4445000Y-892652D01*
X4561323Y-970376D01*
X4760600Y-1052920D01*
X4972152Y-1095000D01*
X5187848Y-1095000D01*
X5399400Y-1052920D01*
X5598677Y-970376D01*
X5715000Y-892652D01*
X5831323Y-970376D01*
X6030600Y-1052920D01*
X6242152Y-1095000D01*
X6457848Y-1095000D01*
X6669400Y-1052920D01*
X6868677Y-970376D01*
X6985000Y-892652D01*
X7101323Y-970376D01*
X7300600Y-1052920D01*
X7512152Y-1095000D01*
X7727848Y-1095000D01*
X7939400Y-1052920D01*
X8138677Y-970376D01*
X8318022Y-850542D01*
X8470542Y-698022D01*
X8590376Y-518677D01*
X8672920Y-319400D01*
X8715000Y-107848D01*
X8715000Y107848D01*
X8672920Y319400D01*
X8590376Y518677D01*
X8470542Y698022D01*
X8318022Y850542D01*
X8138677Y970376D01*
X8080000Y994681D01*
X8080000Y1207848D01*
X8037920Y1419400D01*
X7955376Y1618677D01*
X7835542Y1798022D01*
X7683022Y1950542D01*
X7503677Y2070376D01*
X7304400Y2152920D01*
X7092848Y2195000D01*
X6877152Y2195000D01*
X6665600Y2152920D01*
X6466323Y2070376D01*
X6350000Y1992652D01*
X6233677Y2070376D01*
X6034400Y2152920D01*
X5822848Y2195000D01*
X5607152Y2195000D01*
X5585893Y2190771D01*
X1612138Y6164526D01*
X1590838Y6190480D01*
X1487295Y6275456D01*
X1369163Y6338599D01*
X1240982Y6377482D01*
X1141083Y6387321D01*
X1107679Y6390611D01*
X1074275Y6387321D01*
X-18171084Y6387321D01*
X-23891611Y12107848D01*
X-8715000Y12107848D01*
X-8715000Y11892152D01*
X-8672920Y11680600D01*
X-8590376Y11481323D01*
X-8470542Y11301978D01*
X-8318022Y11149458D01*
X-8138677Y11029624D01*
X-7939400Y10947080D01*
X-7727848Y10905000D01*
X-7512152Y10905000D01*
X-7300600Y10947080D01*
X-7101323Y11029624D01*
X-6985000Y11107348D01*
X-6868677Y11029624D01*
X-6669400Y10947080D01*
X-6457848Y10905000D01*
X-6242152Y10905000D01*
X-6030600Y10947080D01*
X-5831323Y11029624D01*
X-5715000Y11107348D01*
X-5598677Y11029624D01*
X-5399400Y10947080D01*
X-5187848Y10905000D01*
X-4972152Y10905000D01*
X-4760600Y10947080D01*
X-4561323Y11029624D01*
X-4445000Y11107348D01*
X-4328677Y11029624D01*
X-4129400Y10947080D01*
X-3917848Y10905000D01*
X-3702152Y10905000D01*
X-3490600Y10947080D01*
X-3291323Y11029624D01*
X-3175000Y11107348D01*
X-3058677Y11029624D01*
X-2859400Y10947080D01*
X-2647848Y10905000D01*
X-2432152Y10905000D01*
X-2220600Y10947080D01*
X-2021323Y11029624D01*
X-1905000Y11107348D01*
X-1788677Y11029624D01*
X-1589400Y10947080D01*
X-1377848Y10905000D01*
X-1162152Y10905000D01*
X-950600Y10947080D01*
X-751323Y11029624D01*
X-635000Y11107348D01*
X-518677Y11029624D01*
X-319400Y10947080D01*
X-107848Y10905000D01*
X107848Y10905000D01*
X319400Y10947080D01*
X518677Y11029624D01*
X635000Y11107348D01*
X751323Y11029624D01*
X950600Y10947080D01*
X1162152Y10905000D01*
X1377848Y10905000D01*
X1589400Y10947080D01*
X1788677Y11029624D01*
X1905000Y11107348D01*
X2021323Y11029624D01*
X2220600Y10947080D01*
X2432152Y10905000D01*
X2647848Y10905000D01*
X2859400Y10947080D01*
X3058677Y11029624D01*
X3175000Y11107348D01*
X3291323Y11029624D01*
X3490600Y10947080D01*
X3702152Y10905000D01*
X3917848Y10905000D01*
X4129400Y10947080D01*
X4328677Y11029624D01*
X4445000Y11107348D01*
X4561323Y11029624D01*
X4760600Y10947080D01*
X4972152Y10905000D01*
X5187848Y10905000D01*
X5399400Y10947080D01*
X5598677Y11029624D01*
X5715000Y11107348D01*
X5831323Y11029624D01*
X6030600Y10947080D01*
X6242152Y10905000D01*
X6457848Y10905000D01*
X6669400Y10947080D01*
X6868677Y11029624D01*
X6985000Y11107348D01*
X7101323Y11029624D01*
X7300600Y10947080D01*
X7512152Y10905000D01*
X7727848Y10905000D01*
X7939400Y10947080D01*
X8138677Y11029624D01*
X8318022Y11149458D01*
X8470542Y11301978D01*
X8590376Y11481323D01*
X8672920Y11680600D01*
X8715000Y11892152D01*
X8715000Y12107848D01*
X8672920Y12319400D01*
X8590376Y12518677D01*
X8470542Y12698022D01*
X8318022Y12850542D01*
X8138677Y12970376D01*
X8080000Y12994681D01*
X8080000Y13207848D01*
X8037920Y13419400D01*
X7955376Y13618677D01*
X7835542Y13798022D01*
X7683022Y13950542D01*
X7503677Y14070376D01*
X7304400Y14152920D01*
X7092848Y14195000D01*
X6877152Y14195000D01*
X6665600Y14152920D01*
X6466323Y14070376D01*
X6395000Y14022720D01*
X6395000Y14784272D01*
X32561849Y14784272D01*
X32866133Y13716795D01*
X33372825Y12729192D01*
X34062453Y11859417D01*
X34908515Y11140894D01*
X35878497Y10601236D01*
X36935123Y10261181D01*
X37122141Y10223980D01*
X38006128Y10293210D01*
X38006128Y15668259D01*
X38260128Y15668259D01*
X38260128Y10293210D01*
X39144115Y10223980D01*
X40211592Y10528264D01*
X41199195Y11034956D01*
X42068970Y11724584D01*
X42787493Y12570646D01*
X43327151Y13540628D01*
X43667206Y14597254D01*
X43704407Y14784272D01*
X43635177Y15668259D01*
X38260128Y15668259D01*
X38006128Y15668259D01*
X32631079Y15668259D01*
X32561849Y14784272D01*
X6395000Y14784272D01*
X6395000Y16806246D01*
X32561849Y16806246D01*
X32631079Y15922259D01*
X38006128Y15922259D01*
X38006128Y21297308D01*
X38260128Y21297308D01*
X38260128Y15922259D01*
X43635177Y15922259D01*
X43704407Y16806246D01*
X43400123Y17873723D01*
X42893431Y18861326D01*
X42203803Y19731101D01*
X41357741Y20449624D01*
X40387759Y20989282D01*
X39331133Y21329337D01*
X39144115Y21366538D01*
X38260128Y21297308D01*
X38006128Y21297308D01*
X37122141Y21366538D01*
X36054664Y21062254D01*
X35067061Y20555562D01*
X34197286Y19865934D01*
X33478763Y19019872D01*
X32939105Y18049890D01*
X32599050Y16993264D01*
X32561849Y16806246D01*
X6395000Y16806246D01*
X6395000Y18978764D01*
X42501236Y55084999D01*
X45864380Y55084999D01*
X45880384Y55071865D01*
X45998516Y55008722D01*
X46126697Y54969839D01*
X46226596Y54960000D01*
X46226605Y54960000D01*
X46259999Y54956711D01*
X46293393Y54960000D01*
X46455122Y54960000D01*
X46342843Y54823188D01*
X46214236Y54582581D01*
X46135040Y54321507D01*
X46108299Y54050000D01*
X46135040Y53778493D01*
X46214236Y53517419D01*
X46342843Y53276812D01*
X46515919Y53065919D01*
X46726812Y52892843D01*
X46967419Y52764236D01*
X47228493Y52685040D01*
X47431963Y52665000D01*
X50568037Y52665000D01*
X50771507Y52685040D01*
X51032581Y52764236D01*
X51273188Y52892843D01*
X51484081Y53065919D01*
X51657157Y53276812D01*
X51785764Y53517419D01*
X51864960Y53778493D01*
X51891701Y54050000D01*
X51864960Y54321507D01*
X51785764Y54582581D01*
X51657157Y54823188D01*
X51484081Y55034081D01*
X51273188Y55207157D01*
X51032581Y55335764D01*
X50771507Y55414960D01*
X50568037Y55435000D01*
X49416664Y55435000D01*
X49477210Y55495546D01*
X49503158Y55516841D01*
X49588135Y55620384D01*
X49651278Y55738516D01*
X49667311Y55791371D01*
X49782523Y55766649D01*
X49986377Y55763587D01*
X50186912Y55800353D01*
X50376420Y55875534D01*
X50403981Y55890264D01*
X50426836Y56093559D01*
X49900000Y56620395D01*
X49885858Y56606253D01*
X49709493Y56782617D01*
X49798061Y56765000D01*
X50001939Y56765000D01*
X50095913Y56783692D01*
X50606441Y56273164D01*
X50809736Y56296019D01*
X50890577Y56483184D01*
X50933351Y56682523D01*
X50936413Y56886377D01*
X50899647Y57086912D01*
X50824466Y57276420D01*
X50811344Y57300972D01*
X50817205Y57309744D01*
X50895226Y57498102D01*
X50935000Y57698061D01*
X50935000Y57901939D01*
X50895226Y58101898D01*
X50817205Y58290256D01*
X50810694Y58300000D01*
X50817205Y58309744D01*
X50895226Y58498102D01*
X50935000Y58698061D01*
X50935000Y58901939D01*
X50895226Y59101898D01*
X50817205Y59290256D01*
X50811157Y59299308D01*
X50890577Y59483184D01*
X50933351Y59682523D01*
X50936413Y59886377D01*
X50899647Y60086912D01*
X50824466Y60276420D01*
X50811344Y60300972D01*
X50817205Y60309744D01*
X50895226Y60498102D01*
X50935000Y60698061D01*
X50935000Y60901939D01*
X50895226Y61101898D01*
X50817205Y61290256D01*
X50810694Y61300000D01*
X50817205Y61309744D01*
X50895226Y61498102D01*
X50935000Y61698061D01*
X50935000Y61901939D01*
X50895226Y62101898D01*
X50817205Y62290256D01*
X50810694Y62300000D01*
X50817205Y62309744D01*
X50895226Y62498102D01*
X50935000Y62698061D01*
X50935000Y62901939D01*
X50895226Y63101898D01*
X50817205Y63290256D01*
X50810694Y63300000D01*
X50817205Y63309744D01*
X50895226Y63498102D01*
X50935000Y63698061D01*
X50935000Y63901939D01*
X50895226Y64101898D01*
X50817205Y64290256D01*
X50810694Y64300000D01*
X50817205Y64309744D01*
X50895226Y64498102D01*
X50935000Y64698061D01*
X50935000Y64901939D01*
X50895226Y65101898D01*
X50817205Y65290256D01*
X50703937Y65459774D01*
X50559774Y65603937D01*
X50390256Y65717205D01*
X50201898Y65795226D01*
X50001939Y65835000D01*
X49798061Y65835000D01*
X49598102Y65795226D01*
X49409744Y65717205D01*
X49240226Y65603937D01*
X49118945Y65482656D01*
X49095226Y65601898D01*
X49017205Y65790256D01*
X48903937Y65959774D01*
X48759774Y66103937D01*
X48668387Y66165000D01*
X50568037Y66165000D01*
X50771507Y66185040D01*
X51032581Y66264236D01*
X51273188Y66392843D01*
X51484081Y66565919D01*
X51657157Y66776812D01*
X51785764Y67017419D01*
X51864960Y67278493D01*
X51891701Y67550000D01*
X51864960Y67821507D01*
X51785764Y68082581D01*
X51657157Y68323188D01*
X51484081Y68534081D01*
X51273188Y68707157D01*
X51032581Y68835764D01*
X50771507Y68914960D01*
X50568037Y68935000D01*
X47431963Y68935000D01*
X47228493Y68914960D01*
X46967419Y68835764D01*
X46726812Y68707157D01*
X46515919Y68534081D01*
X46342843Y68323188D01*
X46214236Y68082581D01*
X46135040Y67821507D01*
X46108299Y67550000D01*
X46135040Y67278493D01*
X46214236Y67017419D01*
X46342843Y66776812D01*
X46515919Y66565919D01*
X46726812Y66392843D01*
X46967419Y66264236D01*
X47228493Y66185040D01*
X47431963Y66165000D01*
X47531613Y66165000D01*
X47440226Y66103937D01*
X47296063Y65959774D01*
X47182795Y65790256D01*
X47104774Y65601898D01*
X47065000Y65401939D01*
X47065000Y65198061D01*
X47104774Y64998102D01*
X47182795Y64809744D01*
X47188843Y64800692D01*
X47109423Y64616816D01*
X47066649Y64417477D01*
X47063587Y64213623D01*
X47100353Y64013088D01*
X47175534Y63823580D01*
X47188656Y63799028D01*
X47182795Y63790256D01*
X47104774Y63601898D01*
X47065000Y63401939D01*
X47065000Y63198061D01*
X47104774Y62998102D01*
X47182795Y62809744D01*
X47189306Y62800000D01*
X47182795Y62790256D01*
X47104774Y62601898D01*
X47065000Y62401939D01*
X47065000Y62198061D01*
X47104774Y61998102D01*
X47182795Y61809744D01*
X47188843Y61800692D01*
X47109423Y61616816D01*
X47066649Y61417477D01*
X47063587Y61213623D01*
X47100353Y61013088D01*
X47175534Y60823580D01*
X47188656Y60799028D01*
X47182795Y60790256D01*
X47104774Y60601898D01*
X47065000Y60401939D01*
X47065000Y60198061D01*
X47104774Y59998102D01*
X47112272Y59980000D01*
X45533393Y59980000D01*
X45499999Y59983289D01*
X45466605Y59980000D01*
X45466596Y59980000D01*
X45366697Y59970161D01*
X45238516Y59931278D01*
X45120384Y59868135D01*
X45016841Y59783159D01*
X44995546Y59757211D01*
X20829324Y35590989D01*
X20989282Y35878497D01*
X21329337Y36935123D01*
X21366538Y37122141D01*
X21297308Y38006128D01*
X16101867Y38006128D01*
X15989008Y38118987D01*
X15809400Y37939379D01*
X15922259Y37826520D01*
X15922259Y32631079D01*
X16806246Y32561849D01*
X17873723Y32866133D01*
X18347584Y33109249D01*
X4582792Y19344456D01*
X4556842Y19323159D01*
X4471866Y19219616D01*
X4422050Y19126417D01*
X4408723Y19101484D01*
X4369840Y18973304D01*
X4356711Y18840001D01*
X4360001Y18806596D01*
X4360002Y14195000D01*
X4337152Y14195000D01*
X4125600Y14152920D01*
X3926323Y14070376D01*
X3810000Y13992652D01*
X3693677Y14070376D01*
X3494400Y14152920D01*
X3282848Y14195000D01*
X3067152Y14195000D01*
X2855600Y14152920D01*
X2656323Y14070376D01*
X2540000Y13992652D01*
X2423677Y14070376D01*
X2224400Y14152920D01*
X2012848Y14195000D01*
X1797152Y14195000D01*
X1585600Y14152920D01*
X1386323Y14070376D01*
X1315000Y14022720D01*
X1315000Y37122141D01*
X10223980Y37122141D01*
X10528264Y36054664D01*
X11034956Y35067061D01*
X11724584Y34197286D01*
X12570646Y33478763D01*
X13540628Y32939105D01*
X14597254Y32599050D01*
X14784272Y32561849D01*
X15668259Y32631079D01*
X15668259Y38006128D01*
X10293210Y38006128D01*
X10223980Y37122141D01*
X1315000Y37122141D01*
X1315000Y38698764D01*
X1760351Y39144115D01*
X10223980Y39144115D01*
X10293210Y38260128D01*
X15668259Y38260128D01*
X15668259Y43635177D01*
X15922259Y43635177D01*
X15922259Y38260128D01*
X21297308Y38260128D01*
X21366538Y39144115D01*
X21062254Y40211592D01*
X20555562Y41199195D01*
X19865934Y42068970D01*
X19019872Y42787493D01*
X18049890Y43327151D01*
X16993264Y43667206D01*
X16806246Y43704407D01*
X15922259Y43635177D01*
X15668259Y43635177D01*
X14784272Y43704407D01*
X13716795Y43400123D01*
X12729192Y42893431D01*
X11859417Y42203803D01*
X11140894Y41357741D01*
X10601236Y40387759D01*
X10261181Y39331133D01*
X10223980Y39144115D01*
X1760351Y39144115D01*
X17701236Y55084999D01*
X27483336Y55084999D01*
X27525990Y55042346D01*
X27515919Y55034081D01*
X27342843Y54823188D01*
X27214236Y54582581D01*
X27135040Y54321507D01*
X27108299Y54050000D01*
X27135040Y53778493D01*
X27214236Y53517419D01*
X27342843Y53276812D01*
X27515919Y53065919D01*
X27726812Y52892843D01*
X27967419Y52764236D01*
X28228493Y52685040D01*
X28431963Y52665000D01*
X31568037Y52665000D01*
X31771507Y52685040D01*
X32032581Y52764236D01*
X32273188Y52892843D01*
X32484081Y53065919D01*
X32657157Y53276812D01*
X32785764Y53517419D01*
X32864960Y53778493D01*
X32891701Y54050000D01*
X32864960Y54321507D01*
X32785764Y54582581D01*
X32657157Y54823188D01*
X32484081Y55034081D01*
X32273188Y55207157D01*
X32032581Y55335764D01*
X31771507Y55414960D01*
X31568037Y55435000D01*
X30505509Y55435000D01*
X30518135Y55450384D01*
X30581278Y55568516D01*
X30604963Y55646596D01*
X30620161Y55696696D01*
X30626888Y55764999D01*
X30630000Y55796596D01*
X30630000Y55796602D01*
X30630268Y55799320D01*
X30782523Y55766649D01*
X30986377Y55763587D01*
X31186912Y55800353D01*
X31376420Y55875534D01*
X31403981Y55890264D01*
X31426836Y56093559D01*
X30900000Y56620395D01*
X30885858Y56606253D01*
X30709493Y56782617D01*
X30798061Y56765000D01*
X31001939Y56765000D01*
X31095913Y56783692D01*
X31606441Y56273164D01*
X31809736Y56296019D01*
X31890577Y56483184D01*
X31933351Y56682523D01*
X31936413Y56886377D01*
X31899647Y57086912D01*
X31824466Y57276420D01*
X31811344Y57300972D01*
X31817205Y57309744D01*
X31895226Y57498102D01*
X31935000Y57698061D01*
X31935000Y57901939D01*
X31895226Y58101898D01*
X31817205Y58290256D01*
X31810694Y58300000D01*
X31817205Y58309744D01*
X31895226Y58498102D01*
X31935000Y58698061D01*
X31935000Y58901939D01*
X31895226Y59101898D01*
X31817205Y59290256D01*
X31811157Y59299308D01*
X31890577Y59483184D01*
X31933351Y59682523D01*
X31936413Y59886377D01*
X31899647Y60086912D01*
X31824466Y60276420D01*
X31811344Y60300972D01*
X31817205Y60309744D01*
X31895226Y60498102D01*
X31935000Y60698061D01*
X31935000Y60901939D01*
X31895226Y61101898D01*
X31817205Y61290256D01*
X31810694Y61300000D01*
X31817205Y61309744D01*
X31895226Y61498102D01*
X31935000Y61698061D01*
X31935000Y61901939D01*
X31895226Y62101898D01*
X31817205Y62290256D01*
X31810694Y62300000D01*
X31817205Y62309744D01*
X31895226Y62498102D01*
X31935000Y62698061D01*
X31935000Y62901939D01*
X31895226Y63101898D01*
X31817205Y63290256D01*
X31810694Y63300000D01*
X31817205Y63309744D01*
X31895226Y63498102D01*
X31935000Y63698061D01*
X31935000Y63901939D01*
X31895226Y64101898D01*
X31817205Y64290256D01*
X31810694Y64300000D01*
X31817205Y64309744D01*
X31895226Y64498102D01*
X31935000Y64698061D01*
X31935000Y64901939D01*
X31895226Y65101898D01*
X31817205Y65290256D01*
X31703937Y65459774D01*
X31559774Y65603937D01*
X31390256Y65717205D01*
X31201898Y65795226D01*
X31001939Y65835000D01*
X30798061Y65835000D01*
X30598102Y65795226D01*
X30409744Y65717205D01*
X30240226Y65603937D01*
X30118945Y65482656D01*
X30095226Y65601898D01*
X30017205Y65790256D01*
X29903937Y65959774D01*
X29759774Y66103937D01*
X29668387Y66165000D01*
X31568037Y66165000D01*
X31771507Y66185040D01*
X32032581Y66264236D01*
X32273188Y66392843D01*
X32484081Y66565919D01*
X32657157Y66776812D01*
X32785764Y67017419D01*
X32864960Y67278493D01*
X32891701Y67550000D01*
X32864960Y67821507D01*
X32785764Y68082581D01*
X32657157Y68323188D01*
X32484081Y68534081D01*
X32273188Y68707157D01*
X32032581Y68835764D01*
X31771507Y68914960D01*
X31568037Y68935000D01*
X28431963Y68935000D01*
X28228493Y68914960D01*
X27967419Y68835764D01*
X27726812Y68707157D01*
X27515919Y68534081D01*
X27342843Y68323188D01*
X27214236Y68082581D01*
X27135040Y67821507D01*
X27108299Y67550000D01*
X27135040Y67278493D01*
X27214236Y67017419D01*
X27342843Y66776812D01*
X27515919Y66565919D01*
X27726812Y66392843D01*
X27967419Y66264236D01*
X28228493Y66185040D01*
X28431963Y66165000D01*
X28531613Y66165000D01*
X28440226Y66103937D01*
X28296063Y65959774D01*
X28182795Y65790256D01*
X28104774Y65601898D01*
X28065000Y65401939D01*
X28065000Y65198061D01*
X28104774Y64998102D01*
X28182795Y64809744D01*
X28188843Y64800692D01*
X28109423Y64616816D01*
X28066649Y64417477D01*
X28063587Y64213623D01*
X28100353Y64013088D01*
X28175534Y63823580D01*
X28188656Y63799028D01*
X28182795Y63790256D01*
X28104774Y63601898D01*
X28065000Y63401939D01*
X28065000Y63198061D01*
X28104774Y62998102D01*
X28182795Y62809744D01*
X28189306Y62800000D01*
X28182795Y62790256D01*
X28104774Y62601898D01*
X28065000Y62401939D01*
X28065000Y62198061D01*
X28104774Y61998102D01*
X28182795Y61809744D01*
X28188843Y61800692D01*
X28109423Y61616816D01*
X28066649Y61417477D01*
X28063587Y61213623D01*
X28100353Y61013088D01*
X28175534Y60823580D01*
X28188656Y60799028D01*
X28182795Y60790256D01*
X28104774Y60601898D01*
X28065000Y60401939D01*
X28065000Y60198061D01*
X28104774Y59998102D01*
X28112272Y59980000D01*
X20733404Y59980000D01*
X20700000Y59983290D01*
X20666596Y59980000D01*
X20566697Y59970161D01*
X20438516Y59931278D01*
X20320384Y59868135D01*
X20216841Y59783159D01*
X20195546Y59757210D01*
X-457210Y39104454D01*
X-483158Y39083159D01*
X-568134Y38979616D01*
X-577197Y38962660D01*
X-631278Y38861483D01*
X-670161Y38733303D01*
X-683290Y38600000D01*
X-679999Y38566585D01*
X-680000Y14195000D01*
X-742848Y14195000D01*
X-954400Y14152920D01*
X-1153677Y14070376D01*
X-1270000Y13992652D01*
X-1386323Y14070376D01*
X-1585600Y14152920D01*
X-1797152Y14195000D01*
X-2012848Y14195000D01*
X-2224400Y14152920D01*
X-2423677Y14070376D01*
X-2540000Y13992652D01*
X-2656323Y14070376D01*
X-2855600Y14152920D01*
X-3067152Y14195000D01*
X-3282848Y14195000D01*
X-3494400Y14152920D01*
X-3693677Y14070376D01*
X-3765000Y14022720D01*
X-3765000Y42463336D01*
X8153271Y54381606D01*
X8135040Y54321507D01*
X8108299Y54050000D01*
X8135040Y53778493D01*
X8214236Y53517419D01*
X8342843Y53276812D01*
X8515919Y53065919D01*
X8726812Y52892843D01*
X8967419Y52764236D01*
X9228493Y52685040D01*
X9431963Y52665000D01*
X12568037Y52665000D01*
X12771507Y52685040D01*
X13032581Y52764236D01*
X13273188Y52892843D01*
X13484081Y53065919D01*
X13657157Y53276812D01*
X13785764Y53517419D01*
X13864960Y53778493D01*
X13891701Y54050000D01*
X13864960Y54321507D01*
X13785764Y54582581D01*
X13657157Y54823188D01*
X13484081Y55034081D01*
X13273188Y55207157D01*
X13032581Y55335764D01*
X12771507Y55414960D01*
X12568037Y55435000D01*
X11557303Y55435000D01*
X11578135Y55460384D01*
X11641278Y55578516D01*
X11680161Y55706697D01*
X11688062Y55786918D01*
X11782523Y55766649D01*
X11986377Y55763587D01*
X12186912Y55800353D01*
X12376420Y55875534D01*
X12403981Y55890264D01*
X12426836Y56093559D01*
X11900000Y56620395D01*
X11885858Y56606253D01*
X11709493Y56782617D01*
X11798061Y56765000D01*
X12001939Y56765000D01*
X12095913Y56783692D01*
X12606441Y56273164D01*
X12809736Y56296019D01*
X12890577Y56483184D01*
X12933351Y56682523D01*
X12936413Y56886377D01*
X12899647Y57086912D01*
X12824466Y57276420D01*
X12811344Y57300972D01*
X12817205Y57309744D01*
X12895226Y57498102D01*
X12935000Y57698061D01*
X12935000Y57901939D01*
X12895226Y58101898D01*
X12817205Y58290256D01*
X12810694Y58300000D01*
X12817205Y58309744D01*
X12895226Y58498102D01*
X12935000Y58698061D01*
X12935000Y58901939D01*
X12895226Y59101898D01*
X12817205Y59290256D01*
X12811157Y59299308D01*
X12890577Y59483184D01*
X12933351Y59682523D01*
X12936413Y59886377D01*
X12899647Y60086912D01*
X12824466Y60276420D01*
X12811344Y60300972D01*
X12817205Y60309744D01*
X12895226Y60498102D01*
X12935000Y60698061D01*
X12935000Y60901939D01*
X12895226Y61101898D01*
X12817205Y61290256D01*
X12810694Y61300000D01*
X12817205Y61309744D01*
X12895226Y61498102D01*
X12935000Y61698061D01*
X12935000Y61901939D01*
X12895226Y62101898D01*
X12817205Y62290256D01*
X12810694Y62300000D01*
X12817205Y62309744D01*
X12895226Y62498102D01*
X12935000Y62698061D01*
X12935000Y62901939D01*
X12895226Y63101898D01*
X12817205Y63290256D01*
X12810694Y63300000D01*
X12817205Y63309744D01*
X12895226Y63498102D01*
X12935000Y63698061D01*
X12935000Y63901939D01*
X12895226Y64101898D01*
X12817205Y64290256D01*
X12810694Y64300000D01*
X12817205Y64309744D01*
X12895226Y64498102D01*
X12935000Y64698061D01*
X12935000Y64901939D01*
X12895226Y65101898D01*
X12817205Y65290256D01*
X12703937Y65459774D01*
X12559774Y65603937D01*
X12390256Y65717205D01*
X12201898Y65795226D01*
X12001939Y65835000D01*
X11798061Y65835000D01*
X11598102Y65795226D01*
X11409744Y65717205D01*
X11240226Y65603937D01*
X11118945Y65482656D01*
X11095226Y65601898D01*
X11017205Y65790256D01*
X10903937Y65959774D01*
X10759774Y66103937D01*
X10668387Y66165000D01*
X12568037Y66165000D01*
X12771507Y66185040D01*
X13032581Y66264236D01*
X13273188Y66392843D01*
X13484081Y66565919D01*
X13657157Y66776812D01*
X13785764Y67017419D01*
X13864960Y67278493D01*
X13891701Y67550000D01*
X13864960Y67821507D01*
X13785764Y68082581D01*
X13657157Y68323188D01*
X13484081Y68534081D01*
X13273188Y68707157D01*
X13032581Y68835764D01*
X12771507Y68914960D01*
X12568037Y68935000D01*
X9431963Y68935000D01*
X9228493Y68914960D01*
X8967419Y68835764D01*
X8726812Y68707157D01*
X8515919Y68534081D01*
X8342843Y68323188D01*
X8214236Y68082581D01*
X8135040Y67821507D01*
X8108299Y67550000D01*
X8135040Y67278493D01*
X8214236Y67017419D01*
X8342843Y66776812D01*
X8515919Y66565919D01*
X8726812Y66392843D01*
X8967419Y66264236D01*
X9228493Y66185040D01*
X9431963Y66165000D01*
X9531613Y66165000D01*
X9440226Y66103937D01*
X9296063Y65959774D01*
X9182795Y65790256D01*
X9104774Y65601898D01*
X9065000Y65401939D01*
X9065000Y65198061D01*
X9104774Y64998102D01*
X9182795Y64809744D01*
X9188843Y64800692D01*
X9109423Y64616816D01*
X9066649Y64417477D01*
X9063587Y64213623D01*
X9100353Y64013088D01*
X9175534Y63823580D01*
X9188656Y63799028D01*
X9182795Y63790256D01*
X9104774Y63601898D01*
X9065000Y63401939D01*
X9065000Y63198061D01*
X9104774Y62998102D01*
X9182795Y62809744D01*
X9189306Y62800000D01*
X9182795Y62790256D01*
X9104774Y62601898D01*
X9065000Y62401939D01*
X9065000Y62198061D01*
X9104774Y61998102D01*
X9182795Y61809744D01*
X9188843Y61800692D01*
X9109423Y61616816D01*
X9066649Y61417477D01*
X9063587Y61213623D01*
X9100353Y61013088D01*
X9175534Y60823580D01*
X9188656Y60799028D01*
X9182795Y60790256D01*
X9104774Y60601898D01*
X9065000Y60401939D01*
X9065000Y60198061D01*
X9104774Y59998102D01*
X9182795Y59809744D01*
X9189306Y59800000D01*
X9182795Y59790256D01*
X9104774Y59601898D01*
X9065000Y59401939D01*
X9065000Y59226665D01*
X-5537209Y44624455D01*
X-5563159Y44603158D01*
X-5648135Y44499615D01*
X-5711277Y44381484D01*
X-5711278Y44381483D01*
X-5750161Y44253303D01*
X-5763290Y44120000D01*
X-5760000Y44086596D01*
X-5759999Y14195000D01*
X-5822848Y14195000D01*
X-6034400Y14152920D01*
X-6233677Y14070376D01*
X-6350000Y13992652D01*
X-6466323Y14070376D01*
X-6665600Y14152920D01*
X-6877152Y14195000D01*
X-7092848Y14195000D01*
X-7304400Y14152920D01*
X-7503677Y14070376D01*
X-7683022Y13950542D01*
X-7835542Y13798022D01*
X-7955376Y13618677D01*
X-8037920Y13419400D01*
X-8080000Y13207848D01*
X-8080000Y12994681D01*
X-8138677Y12970376D01*
X-8318022Y12850542D01*
X-8470542Y12698022D01*
X-8590376Y12518677D01*
X-8672920Y12319400D01*
X-8715000Y12107848D01*
X-23891611Y12107848D01*
X-31759980Y19976216D01*
X-31759980Y37122141D01*
X-21366538Y37122141D01*
X-21062254Y36054664D01*
X-20555562Y35067061D01*
X-19865934Y34197286D01*
X-19019872Y33478763D01*
X-18049890Y32939105D01*
X-16993264Y32599050D01*
X-16806246Y32561849D01*
X-15922259Y32631079D01*
X-15922259Y38006128D01*
X-15668259Y38006128D01*
X-15668259Y32631079D01*
X-14784272Y32561849D01*
X-13716795Y32866133D01*
X-12729192Y33372825D01*
X-11859417Y34062453D01*
X-11140894Y34908515D01*
X-10601236Y35878497D01*
X-10261181Y36935123D01*
X-10223980Y37122141D01*
X-10293210Y38006128D01*
X-15668259Y38006128D01*
X-15922259Y38006128D01*
X-21297308Y38006128D01*
X-21366538Y37122141D01*
X-31759980Y37122141D01*
X-31759980Y38223784D01*
X-30839649Y39144115D01*
X-21366538Y39144115D01*
X-21297308Y38260128D01*
X-15922259Y38260128D01*
X-15922259Y43635177D01*
X-15668259Y43635177D01*
X-15668259Y38260128D01*
X-10293210Y38260128D01*
X-10223980Y39144115D01*
X-10528264Y40211592D01*
X-11034956Y41199195D01*
X-11724584Y42068970D01*
X-12570646Y42787493D01*
X-13540628Y43327151D01*
X-14597254Y43667206D01*
X-14784272Y43704407D01*
X-15668259Y43635177D01*
X-15922259Y43635177D01*
X-16806246Y43704407D01*
X-17873723Y43400123D01*
X-18861326Y42893431D01*
X-19731101Y42203803D01*
X-20449624Y41357741D01*
X-20989282Y40387759D01*
X-21329337Y39331133D01*
X-21366538Y39144115D01*
X-30839649Y39144115D01*
X-15023763Y54960000D01*
X-13544878Y54960000D01*
X-13657157Y54823188D01*
X-13785764Y54582581D01*
X-13864960Y54321507D01*
X-13891701Y54050000D01*
X-13864960Y53778493D01*
X-13785764Y53517419D01*
X-13657157Y53276812D01*
X-13484081Y53065919D01*
X-13273188Y52892843D01*
X-13032581Y52764236D01*
X-12771507Y52685040D01*
X-12568037Y52665000D01*
X-9431963Y52665000D01*
X-9228493Y52685040D01*
X-8967419Y52764236D01*
X-8726812Y52892843D01*
X-8515919Y53065919D01*
X-8342843Y53276812D01*
X-8214236Y53517419D01*
X-8135040Y53778493D01*
X-8108299Y54050000D01*
X-8135040Y54321507D01*
X-8214236Y54582581D01*
X-8342843Y54823188D01*
X-8515919Y55034081D01*
X-8726812Y55207157D01*
X-8967419Y55335764D01*
X-9228493Y55414960D01*
X-9431963Y55435000D01*
X-10485946Y55435000D01*
X-10478722Y55448516D01*
X-10439839Y55576697D01*
X-10430000Y55676596D01*
X-10426710Y55710000D01*
X-10430000Y55743404D01*
X-10430000Y55815117D01*
X-10416816Y55809423D01*
X-10217477Y55766649D01*
X-10013623Y55763587D01*
X-9813088Y55800353D01*
X-9623580Y55875534D01*
X-9596019Y55890264D01*
X-9573164Y56093559D01*
X-10100000Y56620395D01*
X-10114143Y56606253D01*
X-10290507Y56782617D01*
X-10201939Y56765000D01*
X-9998061Y56765000D01*
X-9904087Y56783692D01*
X-9393559Y56273164D01*
X-9190264Y56296019D01*
X-9109423Y56483184D01*
X-9066649Y56682523D01*
X-9063587Y56886377D01*
X-9100353Y57086912D01*
X-9175534Y57276420D01*
X-9188656Y57300972D01*
X-9182795Y57309744D01*
X-9104774Y57498102D01*
X-9065000Y57698061D01*
X-9065000Y57901939D01*
X-9104774Y58101898D01*
X-9182795Y58290256D01*
X-9189306Y58300000D01*
X-9182795Y58309744D01*
X-9104774Y58498102D01*
X-9065000Y58698061D01*
X-9065000Y58901939D01*
X-9104774Y59101898D01*
X-9182795Y59290256D01*
X-9188843Y59299308D01*
X-9109423Y59483184D01*
X-9066649Y59682523D01*
X-9063587Y59886377D01*
X-9100353Y60086912D01*
X-9175534Y60276420D01*
X-9188656Y60300972D01*
X-9182795Y60309744D01*
X-9104774Y60498102D01*
X-9065000Y60698061D01*
X-9065000Y60901939D01*
X-9104774Y61101898D01*
X-9182795Y61290256D01*
X-9189306Y61300000D01*
X-9182795Y61309744D01*
X-9104774Y61498102D01*
X-9065000Y61698061D01*
X-9065000Y61901939D01*
X-9104774Y62101898D01*
X-9182795Y62290256D01*
X-9189306Y62300000D01*
X-9182795Y62309744D01*
X-9104774Y62498102D01*
X-9065000Y62698061D01*
X-9065000Y62901939D01*
X-9104774Y63101898D01*
X-9182795Y63290256D01*
X-9189306Y63300000D01*
X-9182795Y63309744D01*
X-9104774Y63498102D01*
X-9065000Y63698061D01*
X-9065000Y63901939D01*
X-9104774Y64101898D01*
X-9182795Y64290256D01*
X-9189306Y64300000D01*
X-9182795Y64309744D01*
X-9104774Y64498102D01*
X-9065000Y64698061D01*
X-9065000Y64901939D01*
X-9104774Y65101898D01*
X-9182795Y65290256D01*
X-9296063Y65459774D01*
X-9440226Y65603937D01*
X-9609744Y65717205D01*
X-9798102Y65795226D01*
X-9998061Y65835000D01*
X-10201939Y65835000D01*
X-10401898Y65795226D01*
X-10590256Y65717205D01*
X-10759774Y65603937D01*
X-10881055Y65482656D01*
X-10904774Y65601898D01*
X-10982795Y65790256D01*
X-11096063Y65959774D01*
X-11240226Y66103937D01*
X-11331613Y66165000D01*
X-9431963Y66165000D01*
X-9228493Y66185040D01*
X-8967419Y66264236D01*
X-8726812Y66392843D01*
X-8515919Y66565919D01*
X-8342843Y66776812D01*
X-8214236Y67017419D01*
X-8135040Y67278493D01*
X-8108299Y67550000D01*
X-8135040Y67821507D01*
X-8214236Y68082581D01*
X-8342843Y68323188D01*
X-8515919Y68534081D01*
X-8726812Y68707157D01*
X-8967419Y68835764D01*
X-9228493Y68914960D01*
X-9431963Y68935000D01*
X-12568037Y68935000D01*
X-12771507Y68914960D01*
X-13032581Y68835764D01*
X-13273188Y68707157D01*
X-13484081Y68534081D01*
X-13657157Y68323188D01*
X-13785764Y68082581D01*
X-13864960Y67821507D01*
X-13891701Y67550000D01*
X-13864960Y67278493D01*
X-13785764Y67017419D01*
X-13657157Y66776812D01*
X-13484081Y66565919D01*
X-13273188Y66392843D01*
X-13032581Y66264236D01*
X-12771507Y66185040D01*
X-12568037Y66165000D01*
X-12468387Y66165000D01*
X-12559774Y66103937D01*
X-12703937Y65959774D01*
X-12817205Y65790256D01*
X-12895226Y65601898D01*
X-12935000Y65401939D01*
X-12935000Y65198061D01*
X-12895226Y64998102D01*
X-12817205Y64809744D01*
X-12811157Y64800692D01*
X-12890577Y64616816D01*
X-12933351Y64417477D01*
X-12936413Y64213623D01*
X-12899647Y64013088D01*
X-12824466Y63823580D01*
X-12811344Y63799028D01*
X-12817205Y63790256D01*
X-12895226Y63601898D01*
X-12935000Y63401939D01*
X-12935000Y63198061D01*
X-12895226Y62998102D01*
X-12817205Y62809744D01*
X-12810694Y62800000D01*
X-12817205Y62790256D01*
X-12895226Y62601898D01*
X-12935000Y62401939D01*
X-12935000Y62198061D01*
X-12895226Y61998102D01*
X-12817205Y61809744D01*
X-12811157Y61800692D01*
X-12890577Y61616816D01*
X-12933351Y61417477D01*
X-12936413Y61213623D01*
X-12899647Y61013088D01*
X-12824466Y60823580D01*
X-12811344Y60799028D01*
X-12817205Y60790256D01*
X-12895226Y60601898D01*
X-12935000Y60401939D01*
X-12935000Y60198061D01*
X-12895226Y59998102D01*
X-12817205Y59809744D01*
X-12810694Y59800000D01*
X-12817205Y59790256D01*
X-12895226Y59601898D01*
X-12935000Y59401939D01*
X-12935000Y59226665D01*
X-32120000Y40041664D01*
X-32120000Y52810962D01*
X-32032581Y52764236D01*
X-31771507Y52685040D01*
X-31568037Y52665000D01*
X-28431963Y52665000D01*
X-28228493Y52685040D01*
X-27967419Y52764236D01*
X-27726812Y52892843D01*
X-27515919Y53065919D01*
X-27342843Y53276812D01*
X-27214236Y53517419D01*
X-27135040Y53778493D01*
X-27108299Y54050000D01*
X-27135040Y54321507D01*
X-27214236Y54582581D01*
X-27342843Y54823188D01*
X-27515919Y55034081D01*
X-27726812Y55207157D01*
X-27967419Y55335764D01*
X-28228493Y55414960D01*
X-28431963Y55435000D01*
X-29363722Y55435000D01*
X-29329839Y55546697D01*
X-29322582Y55620384D01*
X-29316710Y55680000D01*
X-29320000Y55713404D01*
X-29320000Y55788648D01*
X-29217477Y55766649D01*
X-29013623Y55763587D01*
X-28813088Y55800353D01*
X-28623580Y55875534D01*
X-28596019Y55890264D01*
X-28573164Y56093559D01*
X-29100000Y56620395D01*
X-29114143Y56606253D01*
X-29290507Y56782617D01*
X-29201939Y56765000D01*
X-28998061Y56765000D01*
X-28904087Y56783692D01*
X-28393559Y56273164D01*
X-28190264Y56296019D01*
X-28109423Y56483184D01*
X-28066649Y56682523D01*
X-28063587Y56886377D01*
X-28100353Y57086912D01*
X-28175534Y57276420D01*
X-28188656Y57300972D01*
X-28182795Y57309744D01*
X-28104774Y57498102D01*
X-28065000Y57698061D01*
X-28065000Y57901939D01*
X-28104774Y58101898D01*
X-28182795Y58290256D01*
X-28189306Y58300000D01*
X-28182795Y58309744D01*
X-28104774Y58498102D01*
X-28065000Y58698061D01*
X-28065000Y58901939D01*
X-28104774Y59101898D01*
X-28182795Y59290256D01*
X-28188843Y59299308D01*
X-28109423Y59483184D01*
X-28066649Y59682523D01*
X-28063587Y59886377D01*
X-28100353Y60086912D01*
X-28175534Y60276420D01*
X-28188656Y60300972D01*
X-28182795Y60309744D01*
X-28104774Y60498102D01*
X-28065000Y60698061D01*
X-28065000Y60901939D01*
X-28104774Y61101898D01*
X-28182795Y61290256D01*
X-28189306Y61300000D01*
X-28182795Y61309744D01*
X-28104774Y61498102D01*
X-28065000Y61698061D01*
X-28065000Y61901939D01*
X-28104774Y62101898D01*
X-28182795Y62290256D01*
X-28189306Y62300000D01*
X-28182795Y62309744D01*
X-28104774Y62498102D01*
X-28065000Y62698061D01*
X-28065000Y62901939D01*
X-28104774Y63101898D01*
X-28182795Y63290256D01*
X-28189306Y63300000D01*
X-28182795Y63309744D01*
X-28104774Y63498102D01*
X-28065000Y63698061D01*
X-28065000Y63901939D01*
X-28104774Y64101898D01*
X-28182795Y64290256D01*
X-28189306Y64300000D01*
X-28182795Y64309744D01*
X-28104774Y64498102D01*
X-28065000Y64698061D01*
X-28065000Y64901939D01*
X-28104774Y65101898D01*
X-28182795Y65290256D01*
X-28296063Y65459774D01*
X-28440226Y65603937D01*
X-28609744Y65717205D01*
X-28798102Y65795226D01*
X-28998061Y65835000D01*
X-29201939Y65835000D01*
X-29401898Y65795226D01*
X-29590256Y65717205D01*
X-29759774Y65603937D01*
X-29881055Y65482656D01*
X-29904774Y65601898D01*
X-29982795Y65790256D01*
X-30096063Y65959774D01*
X-30240226Y66103937D01*
X-30331613Y66165000D01*
X-28431963Y66165000D01*
X-28228493Y66185040D01*
X-27967419Y66264236D01*
X-27726812Y66392843D01*
X-27515919Y66565919D01*
X-27342843Y66776812D01*
X-27214236Y67017419D01*
X-27135040Y67278493D01*
X-27108299Y67550000D01*
X-27135040Y67821507D01*
X-27214236Y68082581D01*
X-27342843Y68323188D01*
X-27515919Y68534081D01*
X-27726812Y68707157D01*
X-27967419Y68835764D01*
X-28228493Y68914960D01*
X-28431963Y68935000D01*
X-31568037Y68935000D01*
X-31771507Y68914960D01*
X-32032581Y68835764D01*
X-32273188Y68707157D01*
X-32484081Y68534081D01*
X-32657157Y68323188D01*
X-32785764Y68082581D01*
X-32864960Y67821507D01*
X-32891701Y67550000D01*
X-32864960Y67278493D01*
X-32785764Y67017419D01*
X-32657157Y66776812D01*
X-32484081Y66565919D01*
X-32273188Y66392843D01*
X-32032581Y66264236D01*
X-31771507Y66185040D01*
X-31568037Y66165000D01*
X-31468387Y66165000D01*
X-31559774Y66103937D01*
X-31703937Y65959774D01*
X-31817205Y65790256D01*
X-31895226Y65601898D01*
X-31935000Y65401939D01*
X-31935000Y65198061D01*
X-31895226Y64998102D01*
X-31817205Y64809744D01*
X-31811157Y64800692D01*
X-31890577Y64616816D01*
X-31933351Y64417477D01*
X-31936413Y64213623D01*
X-31899647Y64013088D01*
X-31824466Y63823580D01*
X-31811344Y63799028D01*
X-31817205Y63790256D01*
X-31895226Y63601898D01*
X-31935000Y63401939D01*
X-31935000Y63198061D01*
X-31895226Y62998102D01*
X-31817205Y62809744D01*
X-31810694Y62800000D01*
X-31817205Y62790256D01*
X-31895226Y62601898D01*
X-31935000Y62401939D01*
X-31935000Y62198061D01*
X-31895226Y61998102D01*
X-31817205Y61809744D01*
X-31811157Y61800692D01*
X-31890577Y61616816D01*
X-31933351Y61417477D01*
X-31936413Y61213623D01*
X-31899647Y61013088D01*
X-31824466Y60823580D01*
X-31811344Y60799028D01*
X-31817205Y60790256D01*
X-31895226Y60601898D01*
X-31935000Y60401939D01*
X-31935000Y60198061D01*
X-31895226Y59998102D01*
X-31817205Y59809744D01*
X-31810694Y59800000D01*
X-31817205Y59790256D01*
X-31895226Y59601898D01*
X-31935000Y59401939D01*
X-31935000Y59226665D01*
X-33457209Y57704455D01*
X-33483159Y57683158D01*
X-33568135Y57579615D01*
X-33631277Y57461484D01*
X-33631278Y57461483D01*
X-33670161Y57333303D01*
X-33683290Y57200000D01*
X-33680000Y57166596D01*
X-33679999Y20696236D01*
X-45539990Y32556226D01*
X-45539990Y54242751D01*
X-45536700Y54276155D01*
X-45549829Y54409458D01*
X-45588712Y54537639D01*
X-45651855Y54655771D01*
X-45715537Y54733368D01*
X-45715544Y54733375D01*
X-45736832Y54759314D01*
X-45762770Y54780601D01*
X-46919390Y55937219D01*
X-46940685Y55963167D01*
X-47044228Y56048143D01*
X-47162359Y56111286D01*
X-47162361Y56111287D01*
X-47282381Y56147695D01*
X-47275234Y56154842D01*
X-47393556Y56273164D01*
X-47190264Y56296019D01*
X-47109423Y56483184D01*
X-47066649Y56682523D01*
X-47063587Y56886377D01*
X-47100353Y57086912D01*
X-47175534Y57276420D01*
X-47188656Y57300972D01*
X-47182795Y57309744D01*
X-47104774Y57498102D01*
X-47065000Y57698061D01*
X-47065000Y57901939D01*
X-47104774Y58101898D01*
X-47182795Y58290256D01*
X-47189306Y58300000D01*
X-47182795Y58309744D01*
X-47104774Y58498102D01*
X-47065000Y58698061D01*
X-47065000Y58901939D01*
X-47104774Y59101898D01*
X-47182795Y59290256D01*
X-47188843Y59299308D01*
X-47109423Y59483184D01*
X-47066649Y59682523D01*
X-47063587Y59886377D01*
X-47100353Y60086912D01*
X-47175534Y60276420D01*
X-47188656Y60300972D01*
X-47182795Y60309744D01*
X-47104774Y60498102D01*
X-47065000Y60698061D01*
X-47065000Y60901939D01*
X-47104774Y61101898D01*
X-47182795Y61290256D01*
X-47189306Y61300000D01*
X-47182795Y61309744D01*
X-47104774Y61498102D01*
X-47065000Y61698061D01*
X-47065000Y61901939D01*
X-47104774Y62101898D01*
X-47182795Y62290256D01*
X-47189306Y62300000D01*
X-47182795Y62309744D01*
X-47104774Y62498102D01*
X-47065000Y62698061D01*
X-47065000Y62901939D01*
X-47104774Y63101898D01*
X-47182795Y63290256D01*
X-47189306Y63300000D01*
X-47182795Y63309744D01*
X-47104774Y63498102D01*
X-47065000Y63698061D01*
X-47065000Y63901939D01*
X-47104774Y64101898D01*
X-47182795Y64290256D01*
X-47189306Y64300000D01*
X-47182795Y64309744D01*
X-47104774Y64498102D01*
X-47065000Y64698061D01*
X-47065000Y64901939D01*
X-47104774Y65101898D01*
X-47182795Y65290256D01*
X-47296063Y65459774D01*
X-47440226Y65603937D01*
X-47609744Y65717205D01*
X-47798102Y65795226D01*
X-47998061Y65835000D01*
X-48201939Y65835000D01*
X-48401898Y65795226D01*
X-48590256Y65717205D01*
X-48759774Y65603937D01*
X-48881055Y65482656D01*
X-48904774Y65601898D01*
X-48982795Y65790256D01*
X-49096063Y65959774D01*
X-49240226Y66103937D01*
X-49331613Y66165000D01*
X-47431963Y66165000D01*
X-47228493Y66185040D01*
X-46967419Y66264236D01*
X-46726812Y66392843D01*
X-46515919Y66565919D01*
X-46342843Y66776812D01*
X-46214236Y67017419D01*
X-46135040Y67278493D01*
X-46108299Y67550000D01*
X-46135040Y67821507D01*
X-46214236Y68082581D01*
X-46342843Y68323188D01*
X-46515919Y68534081D01*
X-46726812Y68707157D01*
X-46967419Y68835764D01*
X-47228493Y68914960D01*
X-47431963Y68935000D01*
X-50568037Y68935000D01*
X-50771507Y68914960D01*
X-51032581Y68835764D01*
X-51273188Y68707157D01*
X-51484081Y68534081D01*
X-51657157Y68323188D01*
X-51785764Y68082581D01*
X-51864960Y67821507D01*
X-51891701Y67550000D01*
X-55340000Y67550000D01*
X-55340000Y73840000D01*
X55340000Y73840000D01*
X55340001Y-43726618D01*
%TA.AperFunction,Conductor*%
D16*
G36*
X55340001Y-43726618D02*
G01*
X22726620Y-76340000D01*
X-22726619Y-76340000D01*
X-42927336Y-56139283D01*
X-19833310Y-56139283D01*
X-19830020Y-56172688D01*
X-19830019Y-66661137D01*
X-19833310Y-66694552D01*
X-19820181Y-66827855D01*
X-19781298Y-66956035D01*
X-19758009Y-66999605D01*
X-19718154Y-67074168D01*
X-19633178Y-67177711D01*
X-19607230Y-67199006D01*
X-18234222Y-68572015D01*
X-18273188Y-68592843D01*
X-18484081Y-68765919D01*
X-18657157Y-68976812D01*
X-18785764Y-69217419D01*
X-18864960Y-69478493D01*
X-18891701Y-69750000D01*
X-18864960Y-70021507D01*
X-18785764Y-70282581D01*
X-18657157Y-70523188D01*
X-18484081Y-70734081D01*
X-18273188Y-70907157D01*
X-18032581Y-71035764D01*
X-17771507Y-71114960D01*
X-17568037Y-71135000D01*
X-14431963Y-71135000D01*
X-14228493Y-71114960D01*
X-13967419Y-71035764D01*
X-13726812Y-70907157D01*
X-13515919Y-70734081D01*
X-13342843Y-70523188D01*
X-13214236Y-70282581D01*
X-13135040Y-70021507D01*
X-13108299Y-69750000D01*
X-13135040Y-69478493D01*
X-13214236Y-69217419D01*
X-13298373Y-69060010D01*
X-2701627Y-69060010D01*
X-2785764Y-69217419D01*
X-2864960Y-69478493D01*
X-2891701Y-69750000D01*
X-2864960Y-70021507D01*
X-2785764Y-70282581D01*
X-2657157Y-70523188D01*
X-2484081Y-70734081D01*
X-2273188Y-70907157D01*
X-2032581Y-71035764D01*
X-1771507Y-71114960D01*
X-1568037Y-71135000D01*
X1568037Y-71135000D01*
X1771507Y-71114960D01*
X2032581Y-71035764D01*
X2273188Y-70907157D01*
X2484081Y-70734081D01*
X2657157Y-70523188D01*
X2785764Y-70282581D01*
X2864960Y-70021507D01*
X2891701Y-69750000D01*
X2864960Y-69478493D01*
X2785764Y-69217419D01*
X2657157Y-68976812D01*
X2484081Y-68765919D01*
X2273188Y-68592843D01*
X2032581Y-68464236D01*
X1771507Y-68385040D01*
X1568037Y-68365000D01*
X521293Y-68365000D01*
X571278Y-68271484D01*
X610161Y-68143303D01*
X620000Y-68043404D01*
X620000Y-68043398D01*
X623289Y-68010001D01*
X622201Y-67998949D01*
X782523Y-68033351D01*
X986377Y-68036413D01*
X1186912Y-67999647D01*
X1376420Y-67924466D01*
X1403981Y-67909736D01*
X1426836Y-67706441D01*
X900000Y-67179605D01*
X885858Y-67193748D01*
X709493Y-67017383D01*
X798061Y-67035000D01*
X1001939Y-67035000D01*
X1095913Y-67016308D01*
X1606441Y-67526836D01*
X1809736Y-67503981D01*
X1890577Y-67316816D01*
X1933351Y-67117477D01*
X1936413Y-66913623D01*
X1899647Y-66713088D01*
X1824466Y-66523580D01*
X1811344Y-66499028D01*
X1817205Y-66490256D01*
X1895226Y-66301898D01*
X1935000Y-66101939D01*
X1935000Y-65898061D01*
X1895226Y-65698102D01*
X1817205Y-65509744D01*
X1810694Y-65500000D01*
X1817205Y-65490256D01*
X1895226Y-65301898D01*
X1935000Y-65101939D01*
X1935000Y-64898061D01*
X1895226Y-64698102D01*
X1817205Y-64509744D01*
X1811157Y-64500692D01*
X1890577Y-64316816D01*
X1933351Y-64117477D01*
X1936413Y-63913623D01*
X1899647Y-63713088D01*
X1824466Y-63523580D01*
X1811344Y-63499028D01*
X1817205Y-63490256D01*
X1895226Y-63301898D01*
X1935000Y-63101939D01*
X1935000Y-62898061D01*
X1895226Y-62698102D01*
X1888627Y-62682170D01*
X1900000Y-62683290D01*
X1933404Y-62680000D01*
X2033303Y-62670161D01*
X2161484Y-62631278D01*
X2279616Y-62568135D01*
X2383159Y-62483159D01*
X2404458Y-62457206D01*
X2842225Y-62019441D01*
X2868169Y-61998149D01*
X2889460Y-61972206D01*
X2889463Y-61972203D01*
X2953145Y-61894606D01*
X3016288Y-61776474D01*
X3055171Y-61648293D01*
X3068300Y-61514990D01*
X3065010Y-61481586D01*
X3065010Y-13486674D01*
X7290000Y-17711665D01*
X7290001Y-60316585D01*
X7286710Y-60350000D01*
X7299839Y-60483303D01*
X7338722Y-60611483D01*
X7338723Y-60611484D01*
X7401866Y-60729616D01*
X7486842Y-60833159D01*
X7512790Y-60854454D01*
X13615545Y-66957210D01*
X13636841Y-66983159D01*
X13740384Y-67068135D01*
X13858516Y-67131278D01*
X13986697Y-67170161D01*
X14086596Y-67180000D01*
X14086605Y-67180000D01*
X14111266Y-67182429D01*
X14104774Y-67198102D01*
X14065000Y-67398061D01*
X14065000Y-67601939D01*
X14104774Y-67801898D01*
X14182795Y-67990256D01*
X14296063Y-68159774D01*
X14440226Y-68303937D01*
X14531613Y-68365000D01*
X14431963Y-68365000D01*
X14228493Y-68385040D01*
X13967419Y-68464236D01*
X13726812Y-68592843D01*
X13515919Y-68765919D01*
X13342843Y-68976812D01*
X13214236Y-69217419D01*
X13135040Y-69478493D01*
X13108299Y-69750000D01*
X13135040Y-70021507D01*
X13214236Y-70282581D01*
X13342843Y-70523188D01*
X13515919Y-70734081D01*
X13726812Y-70907157D01*
X13967419Y-71035764D01*
X14228493Y-71114960D01*
X14431963Y-71135000D01*
X17568037Y-71135000D01*
X17771507Y-71114960D01*
X18032581Y-71035764D01*
X18273188Y-70907157D01*
X18484081Y-70734081D01*
X18657157Y-70523188D01*
X18785764Y-70282581D01*
X18864960Y-70021507D01*
X18891701Y-69750000D01*
X18864960Y-69478493D01*
X18785764Y-69217419D01*
X18657157Y-68976812D01*
X18484081Y-68765919D01*
X18273188Y-68592843D01*
X18032581Y-68464236D01*
X17771507Y-68385040D01*
X17568037Y-68365000D01*
X15668387Y-68365000D01*
X15759774Y-68303937D01*
X15903937Y-68159774D01*
X16017205Y-67990256D01*
X16095226Y-67801898D01*
X16114213Y-67706441D01*
X16373164Y-67706441D01*
X16396019Y-67909736D01*
X16583184Y-67990577D01*
X16782523Y-68033351D01*
X16986377Y-68036413D01*
X17186912Y-67999647D01*
X17376420Y-67924466D01*
X17403981Y-67909736D01*
X17426836Y-67706441D01*
X16900000Y-67179605D01*
X16373164Y-67706441D01*
X16114213Y-67706441D01*
X16135000Y-67601939D01*
X16135000Y-67520253D01*
X16193559Y-67526836D01*
X16704087Y-67016308D01*
X16798061Y-67035000D01*
X17001939Y-67035000D01*
X17095913Y-67016308D01*
X17606441Y-67526836D01*
X17809736Y-67503981D01*
X17890577Y-67316816D01*
X17933351Y-67117477D01*
X17936413Y-66913623D01*
X17899647Y-66713088D01*
X17824466Y-66523580D01*
X17811344Y-66499028D01*
X17817205Y-66490256D01*
X17895226Y-66301898D01*
X17935000Y-66101939D01*
X17935000Y-65898061D01*
X17895226Y-65698102D01*
X17889052Y-65683197D01*
X17890000Y-65683290D01*
X17923404Y-65680000D01*
X18023303Y-65670161D01*
X18151484Y-65631278D01*
X18269616Y-65568135D01*
X18373159Y-65483159D01*
X18394459Y-65457205D01*
X19027220Y-64824445D01*
X19053169Y-64803149D01*
X19138145Y-64699606D01*
X19201288Y-64581474D01*
X19240171Y-64453293D01*
X19250010Y-64353394D01*
X19250010Y-64353385D01*
X19253299Y-64319991D01*
X19250010Y-64286597D01*
X19250010Y-55847238D01*
X19253299Y-55813844D01*
X19250010Y-55780450D01*
X19250010Y-55780441D01*
X19240171Y-55680542D01*
X19201288Y-55552361D01*
X19138145Y-55434229D01*
X19053168Y-55330686D01*
X19027225Y-55309395D01*
X9200000Y-45482171D01*
X9200000Y-39144115D01*
X10223980Y-39144115D01*
X10528264Y-40211592D01*
X11034956Y-41199195D01*
X11724584Y-42068970D01*
X12570646Y-42787493D01*
X13540628Y-43327151D01*
X14597254Y-43667206D01*
X14784272Y-43704407D01*
X15668259Y-43635177D01*
X15668259Y-38260128D01*
X15922259Y-38260128D01*
X15922259Y-43635177D01*
X16806246Y-43704407D01*
X17873723Y-43400123D01*
X18861326Y-42893431D01*
X19731101Y-42203803D01*
X20449624Y-41357741D01*
X20989282Y-40387759D01*
X21329337Y-39331133D01*
X21366538Y-39144115D01*
X21297308Y-38260128D01*
X15922259Y-38260128D01*
X15668259Y-38260128D01*
X10293210Y-38260128D01*
X10223980Y-39144115D01*
X9200000Y-39144115D01*
X9200000Y-37122141D01*
X10223980Y-37122141D01*
X10293210Y-38006128D01*
X15668259Y-38006128D01*
X15668259Y-32631079D01*
X15922259Y-32631079D01*
X15922259Y-38006128D01*
X21297308Y-38006128D01*
X21366538Y-37122141D01*
X21062254Y-36054664D01*
X20555562Y-35067061D01*
X19865934Y-34197286D01*
X19019872Y-33478763D01*
X18049890Y-32939105D01*
X16993264Y-32599050D01*
X16806246Y-32561849D01*
X15922259Y-32631079D01*
X15668259Y-32631079D01*
X14784272Y-32561849D01*
X13716795Y-32866133D01*
X12729192Y-33372825D01*
X11859417Y-34062453D01*
X11140894Y-34908515D01*
X10601236Y-35878497D01*
X10261181Y-36935123D01*
X10223980Y-37122141D01*
X9200000Y-37122141D01*
X9200000Y-16806246D01*
X32561849Y-16806246D01*
X32866133Y-17873723D01*
X33372825Y-18861326D01*
X34062453Y-19731101D01*
X34908515Y-20449624D01*
X35878497Y-20989282D01*
X36935123Y-21329337D01*
X37122141Y-21366538D01*
X38006128Y-21297308D01*
X38006128Y-15922259D01*
X38260128Y-15922259D01*
X38260128Y-21297308D01*
X39144115Y-21366538D01*
X40211592Y-21062254D01*
X41199195Y-20555562D01*
X42068970Y-19865934D01*
X42787493Y-19019872D01*
X43327151Y-18049890D01*
X43667206Y-16993264D01*
X43704407Y-16806246D01*
X43635177Y-15922259D01*
X38260128Y-15922259D01*
X38006128Y-15922259D01*
X32631079Y-15922259D01*
X32561849Y-16806246D01*
X9200000Y-16806246D01*
X9200000Y-14784272D01*
X32561849Y-14784272D01*
X32631079Y-15668259D01*
X38006128Y-15668259D01*
X38006128Y-10293210D01*
X38260128Y-10293210D01*
X38260128Y-15668259D01*
X43635177Y-15668259D01*
X43704407Y-14784272D01*
X43400123Y-13716795D01*
X42893431Y-12729192D01*
X42203803Y-11859417D01*
X41357741Y-11140894D01*
X40387759Y-10601236D01*
X39331133Y-10261181D01*
X39144115Y-10223980D01*
X38260128Y-10293210D01*
X38006128Y-10293210D01*
X37122141Y-10223980D01*
X36054664Y-10528264D01*
X35067061Y-11034956D01*
X34197286Y-11724584D01*
X33478763Y-12570646D01*
X32939105Y-13540628D01*
X32599050Y-14597254D01*
X32561849Y-14784272D01*
X9200000Y-14784272D01*
X9200000Y-11587802D01*
X9203290Y-11554397D01*
X9190161Y-11421094D01*
X9151278Y-11292914D01*
X9088135Y-11174782D01*
X9003158Y-11071239D01*
X8977215Y-11049948D01*
X7775060Y-9847794D01*
X7753760Y-9821840D01*
X7650217Y-9736864D01*
X7532085Y-9673721D01*
X7403904Y-9634838D01*
X7304005Y-9624999D01*
X7270601Y-9621709D01*
X7237197Y-9624999D01*
X5073394Y-9624999D01*
X5040000Y-9621710D01*
X5006606Y-9624999D01*
X5006597Y-9624999D01*
X4906698Y-9634838D01*
X4778517Y-9673721D01*
X4660385Y-9736864D01*
X4572579Y-9808925D01*
X4552848Y-9805000D01*
X4337152Y-9805000D01*
X4125600Y-9847080D01*
X3926323Y-9929624D01*
X3810000Y-10007348D01*
X3693677Y-9929624D01*
X3494400Y-9847080D01*
X3282848Y-9805000D01*
X3067152Y-9805000D01*
X2855600Y-9847080D01*
X2656323Y-9929624D01*
X2540000Y-10007348D01*
X2423677Y-9929624D01*
X2224400Y-9847080D01*
X2012848Y-9805000D01*
X1797152Y-9805000D01*
X1585600Y-9847080D01*
X1386323Y-9929624D01*
X1270000Y-10007348D01*
X1153677Y-9929624D01*
X954400Y-9847080D01*
X742848Y-9805000D01*
X527152Y-9805000D01*
X505893Y-9809229D01*
X149459Y-9452795D01*
X128159Y-9426841D01*
X24616Y-9341865D01*
X-93516Y-9278722D01*
X-221697Y-9239839D01*
X-321596Y-9230000D01*
X-355000Y-9226710D01*
X-388404Y-9230000D01*
X-7096770Y-9230000D01*
X-7130174Y-9226710D01*
X-7263477Y-9239839D01*
X-7391658Y-9278722D01*
X-7509790Y-9341865D01*
X-7587387Y-9405547D01*
X-7587388Y-9405548D01*
X-7613333Y-9426841D01*
X-7634624Y-9452784D01*
X-8852221Y-10670382D01*
X-8878170Y-10691679D01*
X-8963146Y-10795222D01*
X-9019151Y-10900000D01*
X-9026289Y-10913354D01*
X-9065172Y-11041534D01*
X-9078301Y-11174837D01*
X-9075011Y-11208242D01*
X-9075010Y-13171575D01*
X-9078301Y-13204989D01*
X-9065172Y-13338292D01*
X-9026289Y-13466472D01*
X-9011246Y-13494615D01*
X-8963145Y-13584605D01*
X-8878169Y-13688148D01*
X-8852221Y-13709443D01*
X-7580010Y-14981656D01*
X-7580009Y-48280866D01*
X-11938199Y-48280866D01*
X-11971603Y-48277576D01*
X-12104906Y-48290705D01*
X-12233087Y-48329588D01*
X-12351219Y-48392731D01*
X-12428816Y-48456413D01*
X-12428819Y-48456416D01*
X-12454762Y-48477707D01*
X-12476053Y-48503650D01*
X-19607229Y-55634828D01*
X-19633179Y-55656125D01*
X-19718155Y-55759668D01*
X-19758009Y-55834230D01*
X-19781298Y-55877800D01*
X-19820181Y-56005980D01*
X-19833310Y-56139283D01*
X-42927336Y-56139283D01*
X-55340000Y-43726620D01*
X-55340000Y-39144115D01*
X-21366538Y-39144115D01*
X-21062254Y-40211592D01*
X-20555562Y-41199195D01*
X-19865934Y-42068970D01*
X-19019872Y-42787493D01*
X-18049890Y-43327151D01*
X-16993264Y-43667206D01*
X-16806246Y-43704407D01*
X-15922259Y-43635177D01*
X-15922259Y-38260128D01*
X-15668259Y-38260128D01*
X-15668259Y-43635177D01*
X-14784272Y-43704407D01*
X-13716795Y-43400123D01*
X-12729192Y-42893431D01*
X-11859417Y-42203803D01*
X-11140894Y-41357741D01*
X-10601236Y-40387759D01*
X-10261181Y-39331133D01*
X-10223980Y-39144115D01*
X-10293210Y-38260128D01*
X-15668259Y-38260128D01*
X-15922259Y-38260128D01*
X-21297308Y-38260128D01*
X-21366538Y-39144115D01*
X-55340000Y-39144115D01*
X-55340000Y-37122141D01*
X-21366538Y-37122141D01*
X-21297308Y-38006128D01*
X-15922259Y-38006128D01*
X-15922259Y-32631079D01*
X-15668259Y-32631079D01*
X-15668259Y-38006128D01*
X-10293210Y-38006128D01*
X-10223980Y-37122141D01*
X-10528264Y-36054664D01*
X-11034956Y-35067061D01*
X-11724584Y-34197286D01*
X-12570646Y-33478763D01*
X-13540628Y-32939105D01*
X-14597254Y-32599050D01*
X-14784272Y-32561849D01*
X-15668259Y-32631079D01*
X-15922259Y-32631079D01*
X-16806246Y-32561849D01*
X-17873723Y-32866133D01*
X-18861326Y-33372825D01*
X-19731101Y-34062453D01*
X-20449624Y-34908515D01*
X-20989282Y-35878497D01*
X-21329337Y-36935123D01*
X-21366538Y-37122141D01*
X-55340000Y-37122141D01*
X-55340000Y-16806246D01*
X-43704407Y-16806246D01*
X-43400123Y-17873723D01*
X-42893431Y-18861326D01*
X-42203803Y-19731101D01*
X-41357741Y-20449624D01*
X-40387759Y-20989282D01*
X-39331133Y-21329337D01*
X-39144115Y-21366538D01*
X-38260128Y-21297308D01*
X-38260128Y-15922259D01*
X-38006128Y-15922259D01*
X-38006128Y-21297308D01*
X-37122141Y-21366538D01*
X-36054664Y-21062254D01*
X-35067061Y-20555562D01*
X-34197286Y-19865934D01*
X-33478763Y-19019872D01*
X-32939105Y-18049890D01*
X-32599050Y-16993264D01*
X-32561849Y-16806246D01*
X-32631079Y-15922259D01*
X-38006128Y-15922259D01*
X-38260128Y-15922259D01*
X-43635177Y-15922259D01*
X-43704407Y-16806246D01*
X-55340000Y-16806246D01*
X-55340000Y-14784272D01*
X-43704407Y-14784272D01*
X-43635177Y-15668259D01*
X-38260128Y-15668259D01*
X-38260128Y-10293210D01*
X-38006128Y-10293210D01*
X-38006128Y-15668259D01*
X-32631079Y-15668259D01*
X-32561849Y-14784272D01*
X-32866133Y-13716795D01*
X-33372825Y-12729192D01*
X-34062453Y-11859417D01*
X-34908515Y-11140894D01*
X-35878497Y-10601236D01*
X-36935123Y-10261181D01*
X-37122141Y-10223980D01*
X-38006128Y-10293210D01*
X-38260128Y-10293210D01*
X-39144115Y-10223980D01*
X-40211592Y-10528264D01*
X-41199195Y-11034956D01*
X-42068970Y-11724584D01*
X-42787493Y-12570646D01*
X-43327151Y-13540628D01*
X-43667206Y-14597254D01*
X-43704407Y-14784272D01*
X-55340000Y-14784272D01*
X-55340000Y14784272D01*
X-43704407Y14784272D01*
X-43400123Y13716795D01*
X-42893431Y12729192D01*
X-42203803Y11859417D01*
X-41357741Y11140894D01*
X-40387759Y10601236D01*
X-39331133Y10261181D01*
X-39144115Y10223980D01*
X-38260128Y10293210D01*
X-38260128Y15668259D01*
X-38006128Y15668259D01*
X-38006128Y10293210D01*
X-37122141Y10223980D01*
X-36054664Y10528264D01*
X-35067061Y11034956D01*
X-34197286Y11724584D01*
X-33478763Y12570646D01*
X-32939105Y13540628D01*
X-32599050Y14597254D01*
X-32561849Y14784272D01*
X-32631079Y15668259D01*
X-38006128Y15668259D01*
X-38260128Y15668259D01*
X-43635177Y15668259D01*
X-43704407Y14784272D01*
X-55340000Y14784272D01*
X-55340000Y16806246D01*
X-43704407Y16806246D01*
X-43635177Y15922259D01*
X-38260128Y15922259D01*
X-38260128Y21297308D01*
X-39144115Y21366538D01*
X-40211592Y21062254D01*
X-41199195Y20555562D01*
X-42068970Y19865934D01*
X-42787493Y19019872D01*
X-43327151Y18049890D01*
X-43667206Y16993264D01*
X-43704407Y16806246D01*
X-55340000Y16806246D01*
X-55340000Y67550000D01*
X-51891701Y67550000D01*
X-51864960Y67278493D01*
X-51785764Y67017419D01*
X-51657157Y66776812D01*
X-51484081Y66565919D01*
X-51273188Y66392843D01*
X-51032581Y66264236D01*
X-50771507Y66185040D01*
X-50568037Y66165000D01*
X-50468387Y66165000D01*
X-50559774Y66103937D01*
X-50703937Y65959774D01*
X-50817205Y65790256D01*
X-50895226Y65601898D01*
X-50935000Y65401939D01*
X-50935000Y65198061D01*
X-50895226Y64998102D01*
X-50817205Y64809744D01*
X-50811157Y64800692D01*
X-50890577Y64616816D01*
X-50933351Y64417477D01*
X-50936413Y64213623D01*
X-50899647Y64013088D01*
X-50824466Y63823580D01*
X-50811344Y63799028D01*
X-50817205Y63790256D01*
X-50895226Y63601898D01*
X-50935000Y63401939D01*
X-50935000Y63198061D01*
X-50895226Y62998102D01*
X-50817205Y62809744D01*
X-50810694Y62800000D01*
X-50817205Y62790256D01*
X-50895226Y62601898D01*
X-50935000Y62401939D01*
X-50935000Y62198061D01*
X-50895226Y61998102D01*
X-50817205Y61809744D01*
X-50811157Y61800692D01*
X-50890577Y61616816D01*
X-50933351Y61417477D01*
X-50936413Y61213623D01*
X-50899647Y61013088D01*
X-50824466Y60823580D01*
X-50811344Y60799028D01*
X-50817205Y60790256D01*
X-50895226Y60601898D01*
X-50935000Y60401939D01*
X-50935000Y60198061D01*
X-50895226Y59998102D01*
X-50817205Y59809744D01*
X-50810694Y59800000D01*
X-50817205Y59790256D01*
X-50895226Y59601898D01*
X-50935000Y59401939D01*
X-50935000Y59198061D01*
X-50895226Y58998102D01*
X-50817205Y58809744D01*
X-50811157Y58800692D01*
X-50890577Y58616816D01*
X-50933351Y58417477D01*
X-50936413Y58213623D01*
X-50899647Y58013088D01*
X-50824466Y57823580D01*
X-50811344Y57799028D01*
X-50817205Y57790256D01*
X-50895226Y57601898D01*
X-50935000Y57401939D01*
X-50935000Y57198061D01*
X-50895226Y56998102D01*
X-50817205Y56809744D01*
X-50810694Y56800000D01*
X-50817205Y56790256D01*
X-50895226Y56601898D01*
X-50935000Y56401939D01*
X-50935000Y56198061D01*
X-50895226Y55998102D01*
X-50817205Y55809744D01*
X-50703937Y55640226D01*
X-50559774Y55496063D01*
X-50468387Y55435000D01*
X-50568037Y55435000D01*
X-50771507Y55414960D01*
X-51032581Y55335764D01*
X-51273188Y55207157D01*
X-51484081Y55034081D01*
X-51657157Y54823188D01*
X-51785764Y54582581D01*
X-51864960Y54321507D01*
X-51891701Y54050000D01*
X-51864960Y53778493D01*
X-51785764Y53517419D01*
X-51657157Y53276812D01*
X-51484081Y53065919D01*
X-51273188Y52892843D01*
X-51032581Y52764236D01*
X-50771507Y52685040D01*
X-50568037Y52665000D01*
X-47431963Y52665000D01*
X-47228493Y52685040D01*
X-47080000Y52730085D01*
X-47079999Y32233415D01*
X-47083290Y32200000D01*
X-47070161Y32066697D01*
X-47031278Y31938517D01*
X-47031277Y31938516D01*
X-46968134Y31820384D01*
X-46883158Y31716841D01*
X-46857210Y31695546D01*
X-36280240Y21118575D01*
X-36935123Y21329337D01*
X-37122141Y21366538D01*
X-38006128Y21297308D01*
X-38006128Y16101867D01*
X-38118987Y15989008D01*
X-37939379Y15809400D01*
X-37826520Y15922259D01*
X-32631079Y15922259D01*
X-32561849Y16806246D01*
X-32798651Y17636986D01*
X-19504450Y4342784D01*
X-19483159Y4316841D01*
X-19457216Y4295550D01*
X-19457213Y4295547D01*
X-19379616Y4231865D01*
X-19261484Y4168722D01*
X-19133303Y4129839D01*
X-19000000Y4116710D01*
X-18966596Y4120000D01*
X-8816062Y4120000D01*
X-6891063Y2195000D01*
X-7092848Y2195000D01*
X-7304400Y2152920D01*
X-7503677Y2070376D01*
X-7683022Y1950542D01*
X-7835542Y1798022D01*
X-7955376Y1618677D01*
X-8037920Y1419400D01*
X-8080000Y1207848D01*
X-8080000Y994681D01*
X-8138677Y970376D01*
X-8318022Y850542D01*
X-8470542Y698022D01*
X-8590376Y518677D01*
X-8672920Y319400D01*
X-8715000Y107848D01*
X-8715000Y-107848D01*
X-8672920Y-319400D01*
X-8590376Y-518677D01*
X-8470542Y-698022D01*
X-8318022Y-850542D01*
X-8138677Y-970376D01*
X-7939400Y-1052920D01*
X-7727848Y-1095000D01*
X-7512152Y-1095000D01*
X-7300600Y-1052920D01*
X-7101323Y-970376D01*
X-6985000Y-892652D01*
X-6868677Y-970376D01*
X-6669400Y-1052920D01*
X-6457848Y-1095000D01*
X-6242152Y-1095000D01*
X-6030600Y-1052920D01*
X-5831323Y-970376D01*
X-5715000Y-892652D01*
X-5598677Y-970376D01*
X-5399400Y-1052920D01*
X-5187848Y-1095000D01*
X-4972152Y-1095000D01*
X-4760600Y-1052920D01*
X-4561323Y-970376D01*
X-4445000Y-892652D01*
X-4328677Y-970376D01*
X-4129400Y-1052920D01*
X-3917848Y-1095000D01*
X-3702152Y-1095000D01*
X-3490600Y-1052920D01*
X-3291323Y-970376D01*
X-3175000Y-892652D01*
X-3058677Y-970376D01*
X-2859400Y-1052920D01*
X-2647848Y-1095000D01*
X-2432152Y-1095000D01*
X-2220600Y-1052920D01*
X-2021323Y-970376D01*
X-1905000Y-892652D01*
X-1788677Y-970376D01*
X-1589400Y-1052920D01*
X-1377848Y-1095000D01*
X-1162152Y-1095000D01*
X-950600Y-1052920D01*
X-751323Y-970376D01*
X-635000Y-892652D01*
X-518677Y-970376D01*
X-319400Y-1052920D01*
X-107848Y-1095000D01*
X107848Y-1095000D01*
X319400Y-1052920D01*
X518677Y-970376D01*
X635000Y-892652D01*
X751323Y-970376D01*
X950600Y-1052920D01*
X1162152Y-1095000D01*
X1377848Y-1095000D01*
X1589400Y-1052920D01*
X1788677Y-970376D01*
X1905000Y-892652D01*
X2021323Y-970376D01*
X2220600Y-1052920D01*
X2432152Y-1095000D01*
X2647848Y-1095000D01*
X2859400Y-1052920D01*
X3058677Y-970376D01*
X3175000Y-892652D01*
X3291323Y-970376D01*
X3490600Y-1052920D01*
X3702152Y-1095000D01*
X3917848Y-1095000D01*
X4129400Y-1052920D01*
X4328677Y-970376D01*
X4445000Y-892652D01*
X4561323Y-970376D01*
X4760600Y-1052920D01*
X4972152Y-1095000D01*
X5187848Y-1095000D01*
X5399400Y-1052920D01*
X5598677Y-970376D01*
X5715000Y-892652D01*
X5831323Y-970376D01*
X6030600Y-1052920D01*
X6242152Y-1095000D01*
X6457848Y-1095000D01*
X6669400Y-1052920D01*
X6868677Y-970376D01*
X6985000Y-892652D01*
X7101323Y-970376D01*
X7300600Y-1052920D01*
X7512152Y-1095000D01*
X7727848Y-1095000D01*
X7939400Y-1052920D01*
X8138677Y-970376D01*
X8318022Y-850542D01*
X8470542Y-698022D01*
X8590376Y-518677D01*
X8672920Y-319400D01*
X8715000Y-107848D01*
X8715000Y107848D01*
X8672920Y319400D01*
X8590376Y518677D01*
X8470542Y698022D01*
X8318022Y850542D01*
X8138677Y970376D01*
X8080000Y994681D01*
X8080000Y1207848D01*
X8037920Y1419400D01*
X7955376Y1618677D01*
X7835542Y1798022D01*
X7683022Y1950542D01*
X7503677Y2070376D01*
X7304400Y2152920D01*
X7092848Y2195000D01*
X6877152Y2195000D01*
X6665600Y2152920D01*
X6466323Y2070376D01*
X6350000Y1992652D01*
X6233677Y2070376D01*
X6034400Y2152920D01*
X5822848Y2195000D01*
X5607152Y2195000D01*
X5585893Y2190771D01*
X1612138Y6164526D01*
X1590838Y6190480D01*
X1487295Y6275456D01*
X1369163Y6338599D01*
X1240982Y6377482D01*
X1141083Y6387321D01*
X1107679Y6390611D01*
X1074275Y6387321D01*
X-18171084Y6387321D01*
X-23891611Y12107848D01*
X-8715000Y12107848D01*
X-8715000Y11892152D01*
X-8672920Y11680600D01*
X-8590376Y11481323D01*
X-8470542Y11301978D01*
X-8318022Y11149458D01*
X-8138677Y11029624D01*
X-7939400Y10947080D01*
X-7727848Y10905000D01*
X-7512152Y10905000D01*
X-7300600Y10947080D01*
X-7101323Y11029624D01*
X-6985000Y11107348D01*
X-6868677Y11029624D01*
X-6669400Y10947080D01*
X-6457848Y10905000D01*
X-6242152Y10905000D01*
X-6030600Y10947080D01*
X-5831323Y11029624D01*
X-5715000Y11107348D01*
X-5598677Y11029624D01*
X-5399400Y10947080D01*
X-5187848Y10905000D01*
X-4972152Y10905000D01*
X-4760600Y10947080D01*
X-4561323Y11029624D01*
X-4445000Y11107348D01*
X-4328677Y11029624D01*
X-4129400Y10947080D01*
X-3917848Y10905000D01*
X-3702152Y10905000D01*
X-3490600Y10947080D01*
X-3291323Y11029624D01*
X-3175000Y11107348D01*
X-3058677Y11029624D01*
X-2859400Y10947080D01*
X-2647848Y10905000D01*
X-2432152Y10905000D01*
X-2220600Y10947080D01*
X-2021323Y11029624D01*
X-1905000Y11107348D01*
X-1788677Y11029624D01*
X-1589400Y10947080D01*
X-1377848Y10905000D01*
X-1162152Y10905000D01*
X-950600Y10947080D01*
X-751323Y11029624D01*
X-635000Y11107348D01*
X-518677Y11029624D01*
X-319400Y10947080D01*
X-107848Y10905000D01*
X107848Y10905000D01*
X319400Y10947080D01*
X518677Y11029624D01*
X635000Y11107348D01*
X751323Y11029624D01*
X950600Y10947080D01*
X1162152Y10905000D01*
X1377848Y10905000D01*
X1589400Y10947080D01*
X1788677Y11029624D01*
X1905000Y11107348D01*
X2021323Y11029624D01*
X2220600Y10947080D01*
X2432152Y10905000D01*
X2647848Y10905000D01*
X2859400Y10947080D01*
X3058677Y11029624D01*
X3175000Y11107348D01*
X3291323Y11029624D01*
X3490600Y10947080D01*
X3702152Y10905000D01*
X3917848Y10905000D01*
X4129400Y10947080D01*
X4328677Y11029624D01*
X4445000Y11107348D01*
X4561323Y11029624D01*
X4760600Y10947080D01*
X4972152Y10905000D01*
X5187848Y10905000D01*
X5399400Y10947080D01*
X5598677Y11029624D01*
X5715000Y11107348D01*
X5831323Y11029624D01*
X6030600Y10947080D01*
X6242152Y10905000D01*
X6457848Y10905000D01*
X6669400Y10947080D01*
X6868677Y11029624D01*
X6985000Y11107348D01*
X7101323Y11029624D01*
X7300600Y10947080D01*
X7512152Y10905000D01*
X7727848Y10905000D01*
X7939400Y10947080D01*
X8138677Y11029624D01*
X8318022Y11149458D01*
X8470542Y11301978D01*
X8590376Y11481323D01*
X8672920Y11680600D01*
X8715000Y11892152D01*
X8715000Y12107848D01*
X8672920Y12319400D01*
X8590376Y12518677D01*
X8470542Y12698022D01*
X8318022Y12850542D01*
X8138677Y12970376D01*
X8080000Y12994681D01*
X8080000Y13207848D01*
X8037920Y13419400D01*
X7955376Y13618677D01*
X7835542Y13798022D01*
X7683022Y13950542D01*
X7503677Y14070376D01*
X7304400Y14152920D01*
X7092848Y14195000D01*
X6877152Y14195000D01*
X6665600Y14152920D01*
X6466323Y14070376D01*
X6395000Y14022720D01*
X6395000Y14784272D01*
X32561849Y14784272D01*
X32866133Y13716795D01*
X33372825Y12729192D01*
X34062453Y11859417D01*
X34908515Y11140894D01*
X35878497Y10601236D01*
X36935123Y10261181D01*
X37122141Y10223980D01*
X38006128Y10293210D01*
X38006128Y15668259D01*
X38260128Y15668259D01*
X38260128Y10293210D01*
X39144115Y10223980D01*
X40211592Y10528264D01*
X41199195Y11034956D01*
X42068970Y11724584D01*
X42787493Y12570646D01*
X43327151Y13540628D01*
X43667206Y14597254D01*
X43704407Y14784272D01*
X43635177Y15668259D01*
X38260128Y15668259D01*
X38006128Y15668259D01*
X32631079Y15668259D01*
X32561849Y14784272D01*
X6395000Y14784272D01*
X6395000Y16806246D01*
X32561849Y16806246D01*
X32631079Y15922259D01*
X38006128Y15922259D01*
X38006128Y21297308D01*
X38260128Y21297308D01*
X38260128Y15922259D01*
X43635177Y15922259D01*
X43704407Y16806246D01*
X43400123Y17873723D01*
X42893431Y18861326D01*
X42203803Y19731101D01*
X41357741Y20449624D01*
X40387759Y20989282D01*
X39331133Y21329337D01*
X39144115Y21366538D01*
X38260128Y21297308D01*
X38006128Y21297308D01*
X37122141Y21366538D01*
X36054664Y21062254D01*
X35067061Y20555562D01*
X34197286Y19865934D01*
X33478763Y19019872D01*
X32939105Y18049890D01*
X32599050Y16993264D01*
X32561849Y16806246D01*
X6395000Y16806246D01*
X6395000Y18978764D01*
X42501236Y55084999D01*
X45864380Y55084999D01*
X45880384Y55071865D01*
X45998516Y55008722D01*
X46126697Y54969839D01*
X46226596Y54960000D01*
X46226605Y54960000D01*
X46259999Y54956711D01*
X46293393Y54960000D01*
X46455122Y54960000D01*
X46342843Y54823188D01*
X46214236Y54582581D01*
X46135040Y54321507D01*
X46108299Y54050000D01*
X46135040Y53778493D01*
X46214236Y53517419D01*
X46342843Y53276812D01*
X46515919Y53065919D01*
X46726812Y52892843D01*
X46967419Y52764236D01*
X47228493Y52685040D01*
X47431963Y52665000D01*
X50568037Y52665000D01*
X50771507Y52685040D01*
X51032581Y52764236D01*
X51273188Y52892843D01*
X51484081Y53065919D01*
X51657157Y53276812D01*
X51785764Y53517419D01*
X51864960Y53778493D01*
X51891701Y54050000D01*
X51864960Y54321507D01*
X51785764Y54582581D01*
X51657157Y54823188D01*
X51484081Y55034081D01*
X51273188Y55207157D01*
X51032581Y55335764D01*
X50771507Y55414960D01*
X50568037Y55435000D01*
X49416664Y55435000D01*
X49477210Y55495546D01*
X49503158Y55516841D01*
X49588135Y55620384D01*
X49651278Y55738516D01*
X49667311Y55791371D01*
X49782523Y55766649D01*
X49986377Y55763587D01*
X50186912Y55800353D01*
X50376420Y55875534D01*
X50403981Y55890264D01*
X50426836Y56093559D01*
X49900000Y56620395D01*
X49885858Y56606253D01*
X49709493Y56782617D01*
X49798061Y56765000D01*
X50001939Y56765000D01*
X50095913Y56783692D01*
X50606441Y56273164D01*
X50809736Y56296019D01*
X50890577Y56483184D01*
X50933351Y56682523D01*
X50936413Y56886377D01*
X50899647Y57086912D01*
X50824466Y57276420D01*
X50811344Y57300972D01*
X50817205Y57309744D01*
X50895226Y57498102D01*
X50935000Y57698061D01*
X50935000Y57901939D01*
X50895226Y58101898D01*
X50817205Y58290256D01*
X50810694Y58300000D01*
X50817205Y58309744D01*
X50895226Y58498102D01*
X50935000Y58698061D01*
X50935000Y58901939D01*
X50895226Y59101898D01*
X50817205Y59290256D01*
X50811157Y59299308D01*
X50890577Y59483184D01*
X50933351Y59682523D01*
X50936413Y59886377D01*
X50899647Y60086912D01*
X50824466Y60276420D01*
X50811344Y60300972D01*
X50817205Y60309744D01*
X50895226Y60498102D01*
X50935000Y60698061D01*
X50935000Y60901939D01*
X50895226Y61101898D01*
X50817205Y61290256D01*
X50810694Y61300000D01*
X50817205Y61309744D01*
X50895226Y61498102D01*
X50935000Y61698061D01*
X50935000Y61901939D01*
X50895226Y62101898D01*
X50817205Y62290256D01*
X50810694Y62300000D01*
X50817205Y62309744D01*
X50895226Y62498102D01*
X50935000Y62698061D01*
X50935000Y62901939D01*
X50895226Y63101898D01*
X50817205Y63290256D01*
X50810694Y63300000D01*
X50817205Y63309744D01*
X50895226Y63498102D01*
X50935000Y63698061D01*
X50935000Y63901939D01*
X50895226Y64101898D01*
X50817205Y64290256D01*
X50810694Y64300000D01*
X50817205Y64309744D01*
X50895226Y64498102D01*
X50935000Y64698061D01*
X50935000Y64901939D01*
X50895226Y65101898D01*
X50817205Y65290256D01*
X50703937Y65459774D01*
X50559774Y65603937D01*
X50390256Y65717205D01*
X50201898Y65795226D01*
X50001939Y65835000D01*
X49798061Y65835000D01*
X49598102Y65795226D01*
X49409744Y65717205D01*
X49240226Y65603937D01*
X49118945Y65482656D01*
X49095226Y65601898D01*
X49017205Y65790256D01*
X48903937Y65959774D01*
X48759774Y66103937D01*
X48668387Y66165000D01*
X50568037Y66165000D01*
X50771507Y66185040D01*
X51032581Y66264236D01*
X51273188Y66392843D01*
X51484081Y66565919D01*
X51657157Y66776812D01*
X51785764Y67017419D01*
X51864960Y67278493D01*
X51891701Y67550000D01*
X51864960Y67821507D01*
X51785764Y68082581D01*
X51657157Y68323188D01*
X51484081Y68534081D01*
X51273188Y68707157D01*
X51032581Y68835764D01*
X50771507Y68914960D01*
X50568037Y68935000D01*
X47431963Y68935000D01*
X47228493Y68914960D01*
X46967419Y68835764D01*
X46726812Y68707157D01*
X46515919Y68534081D01*
X46342843Y68323188D01*
X46214236Y68082581D01*
X46135040Y67821507D01*
X46108299Y67550000D01*
X46135040Y67278493D01*
X46214236Y67017419D01*
X46342843Y66776812D01*
X46515919Y66565919D01*
X46726812Y66392843D01*
X46967419Y66264236D01*
X47228493Y66185040D01*
X47431963Y66165000D01*
X47531613Y66165000D01*
X47440226Y66103937D01*
X47296063Y65959774D01*
X47182795Y65790256D01*
X47104774Y65601898D01*
X47065000Y65401939D01*
X47065000Y65198061D01*
X47104774Y64998102D01*
X47182795Y64809744D01*
X47188843Y64800692D01*
X47109423Y64616816D01*
X47066649Y64417477D01*
X47063587Y64213623D01*
X47100353Y64013088D01*
X47175534Y63823580D01*
X47188656Y63799028D01*
X47182795Y63790256D01*
X47104774Y63601898D01*
X47065000Y63401939D01*
X47065000Y63198061D01*
X47104774Y62998102D01*
X47182795Y62809744D01*
X47189306Y62800000D01*
X47182795Y62790256D01*
X47104774Y62601898D01*
X47065000Y62401939D01*
X47065000Y62198061D01*
X47104774Y61998102D01*
X47182795Y61809744D01*
X47188843Y61800692D01*
X47109423Y61616816D01*
X47066649Y61417477D01*
X47063587Y61213623D01*
X47100353Y61013088D01*
X47175534Y60823580D01*
X47188656Y60799028D01*
X47182795Y60790256D01*
X47104774Y60601898D01*
X47065000Y60401939D01*
X47065000Y60198061D01*
X47104774Y59998102D01*
X47112272Y59980000D01*
X45533393Y59980000D01*
X45499999Y59983289D01*
X45466605Y59980000D01*
X45466596Y59980000D01*
X45366697Y59970161D01*
X45238516Y59931278D01*
X45120384Y59868135D01*
X45016841Y59783159D01*
X44995546Y59757211D01*
X20829324Y35590989D01*
X20989282Y35878497D01*
X21329337Y36935123D01*
X21366538Y37122141D01*
X21297308Y38006128D01*
X16101867Y38006128D01*
X15989008Y38118987D01*
X15809400Y37939379D01*
X15922259Y37826520D01*
X15922259Y32631079D01*
X16806246Y32561849D01*
X17873723Y32866133D01*
X18347584Y33109249D01*
X4582792Y19344456D01*
X4556842Y19323159D01*
X4471866Y19219616D01*
X4422050Y19126417D01*
X4408723Y19101484D01*
X4369840Y18973304D01*
X4356711Y18840001D01*
X4360001Y18806596D01*
X4360002Y14195000D01*
X4337152Y14195000D01*
X4125600Y14152920D01*
X3926323Y14070376D01*
X3810000Y13992652D01*
X3693677Y14070376D01*
X3494400Y14152920D01*
X3282848Y14195000D01*
X3067152Y14195000D01*
X2855600Y14152920D01*
X2656323Y14070376D01*
X2540000Y13992652D01*
X2423677Y14070376D01*
X2224400Y14152920D01*
X2012848Y14195000D01*
X1797152Y14195000D01*
X1585600Y14152920D01*
X1386323Y14070376D01*
X1315000Y14022720D01*
X1315000Y37122141D01*
X10223980Y37122141D01*
X10528264Y36054664D01*
X11034956Y35067061D01*
X11724584Y34197286D01*
X12570646Y33478763D01*
X13540628Y32939105D01*
X14597254Y32599050D01*
X14784272Y32561849D01*
X15668259Y32631079D01*
X15668259Y38006128D01*
X10293210Y38006128D01*
X10223980Y37122141D01*
X1315000Y37122141D01*
X1315000Y38698764D01*
X1760351Y39144115D01*
X10223980Y39144115D01*
X10293210Y38260128D01*
X15668259Y38260128D01*
X15668259Y43635177D01*
X15922259Y43635177D01*
X15922259Y38260128D01*
X21297308Y38260128D01*
X21366538Y39144115D01*
X21062254Y40211592D01*
X20555562Y41199195D01*
X19865934Y42068970D01*
X19019872Y42787493D01*
X18049890Y43327151D01*
X16993264Y43667206D01*
X16806246Y43704407D01*
X15922259Y43635177D01*
X15668259Y43635177D01*
X14784272Y43704407D01*
X13716795Y43400123D01*
X12729192Y42893431D01*
X11859417Y42203803D01*
X11140894Y41357741D01*
X10601236Y40387759D01*
X10261181Y39331133D01*
X10223980Y39144115D01*
X1760351Y39144115D01*
X17701236Y55084999D01*
X27483336Y55084999D01*
X27525990Y55042346D01*
X27515919Y55034081D01*
X27342843Y54823188D01*
X27214236Y54582581D01*
X27135040Y54321507D01*
X27108299Y54050000D01*
X27135040Y53778493D01*
X27214236Y53517419D01*
X27342843Y53276812D01*
X27515919Y53065919D01*
X27726812Y52892843D01*
X27967419Y52764236D01*
X28228493Y52685040D01*
X28431963Y52665000D01*
X31568037Y52665000D01*
X31771507Y52685040D01*
X32032581Y52764236D01*
X32273188Y52892843D01*
X32484081Y53065919D01*
X32657157Y53276812D01*
X32785764Y53517419D01*
X32864960Y53778493D01*
X32891701Y54050000D01*
X32864960Y54321507D01*
X32785764Y54582581D01*
X32657157Y54823188D01*
X32484081Y55034081D01*
X32273188Y55207157D01*
X32032581Y55335764D01*
X31771507Y55414960D01*
X31568037Y55435000D01*
X30505509Y55435000D01*
X30518135Y55450384D01*
X30581278Y55568516D01*
X30604963Y55646596D01*
X30620161Y55696696D01*
X30626888Y55764999D01*
X30630000Y55796596D01*
X30630000Y55796602D01*
X30630268Y55799320D01*
X30782523Y55766649D01*
X30986377Y55763587D01*
X31186912Y55800353D01*
X31376420Y55875534D01*
X31403981Y55890264D01*
X31426836Y56093559D01*
X30900000Y56620395D01*
X30885858Y56606253D01*
X30709493Y56782617D01*
X30798061Y56765000D01*
X31001939Y56765000D01*
X31095913Y56783692D01*
X31606441Y56273164D01*
X31809736Y56296019D01*
X31890577Y56483184D01*
X31933351Y56682523D01*
X31936413Y56886377D01*
X31899647Y57086912D01*
X31824466Y57276420D01*
X31811344Y57300972D01*
X31817205Y57309744D01*
X31895226Y57498102D01*
X31935000Y57698061D01*
X31935000Y57901939D01*
X31895226Y58101898D01*
X31817205Y58290256D01*
X31810694Y58300000D01*
X31817205Y58309744D01*
X31895226Y58498102D01*
X31935000Y58698061D01*
X31935000Y58901939D01*
X31895226Y59101898D01*
X31817205Y59290256D01*
X31811157Y59299308D01*
X31890577Y59483184D01*
X31933351Y59682523D01*
X31936413Y59886377D01*
X31899647Y60086912D01*
X31824466Y60276420D01*
X31811344Y60300972D01*
X31817205Y60309744D01*
X31895226Y60498102D01*
X31935000Y60698061D01*
X31935000Y60901939D01*
X31895226Y61101898D01*
X31817205Y61290256D01*
X31810694Y61300000D01*
X31817205Y61309744D01*
X31895226Y61498102D01*
X31935000Y61698061D01*
X31935000Y61901939D01*
X31895226Y62101898D01*
X31817205Y62290256D01*
X31810694Y62300000D01*
X31817205Y62309744D01*
X31895226Y62498102D01*
X31935000Y62698061D01*
X31935000Y62901939D01*
X31895226Y63101898D01*
X31817205Y63290256D01*
X31810694Y63300000D01*
X31817205Y63309744D01*
X31895226Y63498102D01*
X31935000Y63698061D01*
X31935000Y63901939D01*
X31895226Y64101898D01*
X31817205Y64290256D01*
X31810694Y64300000D01*
X31817205Y64309744D01*
X31895226Y64498102D01*
X31935000Y64698061D01*
X31935000Y64901939D01*
X31895226Y65101898D01*
X31817205Y65290256D01*
X31703937Y65459774D01*
X31559774Y65603937D01*
X31390256Y65717205D01*
X31201898Y65795226D01*
X31001939Y65835000D01*
X30798061Y65835000D01*
X30598102Y65795226D01*
X30409744Y65717205D01*
X30240226Y65603937D01*
X30118945Y65482656D01*
X30095226Y65601898D01*
X30017205Y65790256D01*
X29903937Y65959774D01*
X29759774Y66103937D01*
X29668387Y66165000D01*
X31568037Y66165000D01*
X31771507Y66185040D01*
X32032581Y66264236D01*
X32273188Y66392843D01*
X32484081Y66565919D01*
X32657157Y66776812D01*
X32785764Y67017419D01*
X32864960Y67278493D01*
X32891701Y67550000D01*
X32864960Y67821507D01*
X32785764Y68082581D01*
X32657157Y68323188D01*
X32484081Y68534081D01*
X32273188Y68707157D01*
X32032581Y68835764D01*
X31771507Y68914960D01*
X31568037Y68935000D01*
X28431963Y68935000D01*
X28228493Y68914960D01*
X27967419Y68835764D01*
X27726812Y68707157D01*
X27515919Y68534081D01*
X27342843Y68323188D01*
X27214236Y68082581D01*
X27135040Y67821507D01*
X27108299Y67550000D01*
X27135040Y67278493D01*
X27214236Y67017419D01*
X27342843Y66776812D01*
X27515919Y66565919D01*
X27726812Y66392843D01*
X27967419Y66264236D01*
X28228493Y66185040D01*
X28431963Y66165000D01*
X28531613Y66165000D01*
X28440226Y66103937D01*
X28296063Y65959774D01*
X28182795Y65790256D01*
X28104774Y65601898D01*
X28065000Y65401939D01*
X28065000Y65198061D01*
X28104774Y64998102D01*
X28182795Y64809744D01*
X28188843Y64800692D01*
X28109423Y64616816D01*
X28066649Y64417477D01*
X28063587Y64213623D01*
X28100353Y64013088D01*
X28175534Y63823580D01*
X28188656Y63799028D01*
X28182795Y63790256D01*
X28104774Y63601898D01*
X28065000Y63401939D01*
X28065000Y63198061D01*
X28104774Y62998102D01*
X28182795Y62809744D01*
X28189306Y62800000D01*
X28182795Y62790256D01*
X28104774Y62601898D01*
X28065000Y62401939D01*
X28065000Y62198061D01*
X28104774Y61998102D01*
X28182795Y61809744D01*
X28188843Y61800692D01*
X28109423Y61616816D01*
X28066649Y61417477D01*
X28063587Y61213623D01*
X28100353Y61013088D01*
X28175534Y60823580D01*
X28188656Y60799028D01*
X28182795Y60790256D01*
X28104774Y60601898D01*
X28065000Y60401939D01*
X28065000Y60198061D01*
X28104774Y59998102D01*
X28112272Y59980000D01*
X20733404Y59980000D01*
X20700000Y59983290D01*
X20666596Y59980000D01*
X20566697Y59970161D01*
X20438516Y59931278D01*
X20320384Y59868135D01*
X20216841Y59783159D01*
X20195546Y59757210D01*
X-457210Y39104454D01*
X-483158Y39083159D01*
X-568134Y38979616D01*
X-577197Y38962660D01*
X-631278Y38861483D01*
X-670161Y38733303D01*
X-683290Y38600000D01*
X-679999Y38566585D01*
X-680000Y14195000D01*
X-742848Y14195000D01*
X-954400Y14152920D01*
X-1153677Y14070376D01*
X-1270000Y13992652D01*
X-1386323Y14070376D01*
X-1585600Y14152920D01*
X-1797152Y14195000D01*
X-2012848Y14195000D01*
X-2224400Y14152920D01*
X-2423677Y14070376D01*
X-2540000Y13992652D01*
X-2656323Y14070376D01*
X-2855600Y14152920D01*
X-3067152Y14195000D01*
X-3282848Y14195000D01*
X-3494400Y14152920D01*
X-3693677Y14070376D01*
X-3765000Y14022720D01*
X-3765000Y42463336D01*
X8153271Y54381606D01*
X8135040Y54321507D01*
X8108299Y54050000D01*
X8135040Y53778493D01*
X8214236Y53517419D01*
X8342843Y53276812D01*
X8515919Y53065919D01*
X8726812Y52892843D01*
X8967419Y52764236D01*
X9228493Y52685040D01*
X9431963Y52665000D01*
X12568037Y52665000D01*
X12771507Y52685040D01*
X13032581Y52764236D01*
X13273188Y52892843D01*
X13484081Y53065919D01*
X13657157Y53276812D01*
X13785764Y53517419D01*
X13864960Y53778493D01*
X13891701Y54050000D01*
X13864960Y54321507D01*
X13785764Y54582581D01*
X13657157Y54823188D01*
X13484081Y55034081D01*
X13273188Y55207157D01*
X13032581Y55335764D01*
X12771507Y55414960D01*
X12568037Y55435000D01*
X11557303Y55435000D01*
X11578135Y55460384D01*
X11641278Y55578516D01*
X11680161Y55706697D01*
X11688062Y55786918D01*
X11782523Y55766649D01*
X11986377Y55763587D01*
X12186912Y55800353D01*
X12376420Y55875534D01*
X12403981Y55890264D01*
X12426836Y56093559D01*
X11900000Y56620395D01*
X11885858Y56606253D01*
X11709493Y56782617D01*
X11798061Y56765000D01*
X12001939Y56765000D01*
X12095913Y56783692D01*
X12606441Y56273164D01*
X12809736Y56296019D01*
X12890577Y56483184D01*
X12933351Y56682523D01*
X12936413Y56886377D01*
X12899647Y57086912D01*
X12824466Y57276420D01*
X12811344Y57300972D01*
X12817205Y57309744D01*
X12895226Y57498102D01*
X12935000Y57698061D01*
X12935000Y57901939D01*
X12895226Y58101898D01*
X12817205Y58290256D01*
X12810694Y58300000D01*
X12817205Y58309744D01*
X12895226Y58498102D01*
X12935000Y58698061D01*
X12935000Y58901939D01*
X12895226Y59101898D01*
X12817205Y59290256D01*
X12811157Y59299308D01*
X12890577Y59483184D01*
X12933351Y59682523D01*
X12936413Y59886377D01*
X12899647Y60086912D01*
X12824466Y60276420D01*
X12811344Y60300972D01*
X12817205Y60309744D01*
X12895226Y60498102D01*
X12935000Y60698061D01*
X12935000Y60901939D01*
X12895226Y61101898D01*
X12817205Y61290256D01*
X12810694Y61300000D01*
X12817205Y61309744D01*
X12895226Y61498102D01*
X12935000Y61698061D01*
X12935000Y61901939D01*
X12895226Y62101898D01*
X12817205Y62290256D01*
X12810694Y62300000D01*
X12817205Y62309744D01*
X12895226Y62498102D01*
X12935000Y62698061D01*
X12935000Y62901939D01*
X12895226Y63101898D01*
X12817205Y63290256D01*
X12810694Y63300000D01*
X12817205Y63309744D01*
X12895226Y63498102D01*
X12935000Y63698061D01*
X12935000Y63901939D01*
X12895226Y64101898D01*
X12817205Y64290256D01*
X12810694Y64300000D01*
X12817205Y64309744D01*
X12895226Y64498102D01*
X12935000Y64698061D01*
X12935000Y64901939D01*
X12895226Y65101898D01*
X12817205Y65290256D01*
X12703937Y65459774D01*
X12559774Y65603937D01*
X12390256Y65717205D01*
X12201898Y65795226D01*
X12001939Y65835000D01*
X11798061Y65835000D01*
X11598102Y65795226D01*
X11409744Y65717205D01*
X11240226Y65603937D01*
X11118945Y65482656D01*
X11095226Y65601898D01*
X11017205Y65790256D01*
X10903937Y65959774D01*
X10759774Y66103937D01*
X10668387Y66165000D01*
X12568037Y66165000D01*
X12771507Y66185040D01*
X13032581Y66264236D01*
X13273188Y66392843D01*
X13484081Y66565919D01*
X13657157Y66776812D01*
X13785764Y67017419D01*
X13864960Y67278493D01*
X13891701Y67550000D01*
X13864960Y67821507D01*
X13785764Y68082581D01*
X13657157Y68323188D01*
X13484081Y68534081D01*
X13273188Y68707157D01*
X13032581Y68835764D01*
X12771507Y68914960D01*
X12568037Y68935000D01*
X9431963Y68935000D01*
X9228493Y68914960D01*
X8967419Y68835764D01*
X8726812Y68707157D01*
X8515919Y68534081D01*
X8342843Y68323188D01*
X8214236Y68082581D01*
X8135040Y67821507D01*
X8108299Y67550000D01*
X8135040Y67278493D01*
X8214236Y67017419D01*
X8342843Y66776812D01*
X8515919Y66565919D01*
X8726812Y66392843D01*
X8967419Y66264236D01*
X9228493Y66185040D01*
X9431963Y66165000D01*
X9531613Y66165000D01*
X9440226Y66103937D01*
X9296063Y65959774D01*
X9182795Y65790256D01*
X9104774Y65601898D01*
X9065000Y65401939D01*
X9065000Y65198061D01*
X9104774Y64998102D01*
X9182795Y64809744D01*
X9188843Y64800692D01*
X9109423Y64616816D01*
X9066649Y64417477D01*
X9063587Y64213623D01*
X9100353Y64013088D01*
X9175534Y63823580D01*
X9188656Y63799028D01*
X9182795Y63790256D01*
X9104774Y63601898D01*
X9065000Y63401939D01*
X9065000Y63198061D01*
X9104774Y62998102D01*
X9182795Y62809744D01*
X9189306Y62800000D01*
X9182795Y62790256D01*
X9104774Y62601898D01*
X9065000Y62401939D01*
X9065000Y62198061D01*
X9104774Y61998102D01*
X9182795Y61809744D01*
X9188843Y61800692D01*
X9109423Y61616816D01*
X9066649Y61417477D01*
X9063587Y61213623D01*
X9100353Y61013088D01*
X9175534Y60823580D01*
X9188656Y60799028D01*
X9182795Y60790256D01*
X9104774Y60601898D01*
X9065000Y60401939D01*
X9065000Y60198061D01*
X9104774Y59998102D01*
X9182795Y59809744D01*
X9189306Y59800000D01*
X9182795Y59790256D01*
X9104774Y59601898D01*
X9065000Y59401939D01*
X9065000Y59226665D01*
X-5537209Y44624455D01*
X-5563159Y44603158D01*
X-5648135Y44499615D01*
X-5711277Y44381484D01*
X-5711278Y44381483D01*
X-5750161Y44253303D01*
X-5763290Y44120000D01*
X-5760000Y44086596D01*
X-5759999Y14195000D01*
X-5822848Y14195000D01*
X-6034400Y14152920D01*
X-6233677Y14070376D01*
X-6350000Y13992652D01*
X-6466323Y14070376D01*
X-6665600Y14152920D01*
X-6877152Y14195000D01*
X-7092848Y14195000D01*
X-7304400Y14152920D01*
X-7503677Y14070376D01*
X-7683022Y13950542D01*
X-7835542Y13798022D01*
X-7955376Y13618677D01*
X-8037920Y13419400D01*
X-8080000Y13207848D01*
X-8080000Y12994681D01*
X-8138677Y12970376D01*
X-8318022Y12850542D01*
X-8470542Y12698022D01*
X-8590376Y12518677D01*
X-8672920Y12319400D01*
X-8715000Y12107848D01*
X-23891611Y12107848D01*
X-31759980Y19976216D01*
X-31759980Y37122141D01*
X-21366538Y37122141D01*
X-21062254Y36054664D01*
X-20555562Y35067061D01*
X-19865934Y34197286D01*
X-19019872Y33478763D01*
X-18049890Y32939105D01*
X-16993264Y32599050D01*
X-16806246Y32561849D01*
X-15922259Y32631079D01*
X-15922259Y38006128D01*
X-15668259Y38006128D01*
X-15668259Y32631079D01*
X-14784272Y32561849D01*
X-13716795Y32866133D01*
X-12729192Y33372825D01*
X-11859417Y34062453D01*
X-11140894Y34908515D01*
X-10601236Y35878497D01*
X-10261181Y36935123D01*
X-10223980Y37122141D01*
X-10293210Y38006128D01*
X-15668259Y38006128D01*
X-15922259Y38006128D01*
X-21297308Y38006128D01*
X-21366538Y37122141D01*
X-31759980Y37122141D01*
X-31759980Y38223784D01*
X-30839649Y39144115D01*
X-21366538Y39144115D01*
X-21297308Y38260128D01*
X-15922259Y38260128D01*
X-15922259Y43635177D01*
X-15668259Y43635177D01*
X-15668259Y38260128D01*
X-10293210Y38260128D01*
X-10223980Y39144115D01*
X-10528264Y40211592D01*
X-11034956Y41199195D01*
X-11724584Y42068970D01*
X-12570646Y42787493D01*
X-13540628Y43327151D01*
X-14597254Y43667206D01*
X-14784272Y43704407D01*
X-15668259Y43635177D01*
X-15922259Y43635177D01*
X-16806246Y43704407D01*
X-17873723Y43400123D01*
X-18861326Y42893431D01*
X-19731101Y42203803D01*
X-20449624Y41357741D01*
X-20989282Y40387759D01*
X-21329337Y39331133D01*
X-21366538Y39144115D01*
X-30839649Y39144115D01*
X-15023763Y54960000D01*
X-13544878Y54960000D01*
X-13657157Y54823188D01*
X-13785764Y54582581D01*
X-13864960Y54321507D01*
X-13891701Y54050000D01*
X-13864960Y53778493D01*
X-13785764Y53517419D01*
X-13657157Y53276812D01*
X-13484081Y53065919D01*
X-13273188Y52892843D01*
X-13032581Y52764236D01*
X-12771507Y52685040D01*
X-12568037Y52665000D01*
X-9431963Y52665000D01*
X-9228493Y52685040D01*
X-8967419Y52764236D01*
X-8726812Y52892843D01*
X-8515919Y53065919D01*
X-8342843Y53276812D01*
X-8214236Y53517419D01*
X-8135040Y53778493D01*
X-8108299Y54050000D01*
X-8135040Y54321507D01*
X-8214236Y54582581D01*
X-8342843Y54823188D01*
X-8515919Y55034081D01*
X-8726812Y55207157D01*
X-8967419Y55335764D01*
X-9228493Y55414960D01*
X-9431963Y55435000D01*
X-10485946Y55435000D01*
X-10478722Y55448516D01*
X-10439839Y55576697D01*
X-10430000Y55676596D01*
X-10426710Y55710000D01*
X-10430000Y55743404D01*
X-10430000Y55815117D01*
X-10416816Y55809423D01*
X-10217477Y55766649D01*
X-10013623Y55763587D01*
X-9813088Y55800353D01*
X-9623580Y55875534D01*
X-9596019Y55890264D01*
X-9573164Y56093559D01*
X-10100000Y56620395D01*
X-10114143Y56606253D01*
X-10290507Y56782617D01*
X-10201939Y56765000D01*
X-9998061Y56765000D01*
X-9904087Y56783692D01*
X-9393559Y56273164D01*
X-9190264Y56296019D01*
X-9109423Y56483184D01*
X-9066649Y56682523D01*
X-9063587Y56886377D01*
X-9100353Y57086912D01*
X-9175534Y57276420D01*
X-9188656Y57300972D01*
X-9182795Y57309744D01*
X-9104774Y57498102D01*
X-9065000Y57698061D01*
X-9065000Y57901939D01*
X-9104774Y58101898D01*
X-9182795Y58290256D01*
X-9189306Y58300000D01*
X-9182795Y58309744D01*
X-9104774Y58498102D01*
X-9065000Y58698061D01*
X-9065000Y58901939D01*
X-9104774Y59101898D01*
X-9182795Y59290256D01*
X-9188843Y59299308D01*
X-9109423Y59483184D01*
X-9066649Y59682523D01*
X-9063587Y59886377D01*
X-9100353Y60086912D01*
X-9175534Y60276420D01*
X-9188656Y60300972D01*
X-9182795Y60309744D01*
X-9104774Y60498102D01*
X-9065000Y60698061D01*
X-9065000Y60901939D01*
X-9104774Y61101898D01*
X-9182795Y61290256D01*
X-9189306Y61300000D01*
X-9182795Y61309744D01*
X-9104774Y61498102D01*
X-9065000Y61698061D01*
X-9065000Y61901939D01*
X-9104774Y62101898D01*
X-9182795Y62290256D01*
X-9189306Y62300000D01*
X-9182795Y62309744D01*
X-9104774Y62498102D01*
X-9065000Y62698061D01*
X-9065000Y62901939D01*
X-9104774Y63101898D01*
X-9182795Y63290256D01*
X-9189306Y63300000D01*
X-9182795Y63309744D01*
X-9104774Y63498102D01*
X-9065000Y63698061D01*
X-9065000Y63901939D01*
X-9104774Y64101898D01*
X-9182795Y64290256D01*
X-9189306Y64300000D01*
X-9182795Y64309744D01*
X-9104774Y64498102D01*
X-9065000Y64698061D01*
X-9065000Y64901939D01*
X-9104774Y65101898D01*
X-9182795Y65290256D01*
X-9296063Y65459774D01*
X-9440226Y65603937D01*
X-9609744Y65717205D01*
X-9798102Y65795226D01*
X-9998061Y65835000D01*
X-10201939Y65835000D01*
X-10401898Y65795226D01*
X-10590256Y65717205D01*
X-10759774Y65603937D01*
X-10881055Y65482656D01*
X-10904774Y65601898D01*
X-10982795Y65790256D01*
X-11096063Y65959774D01*
X-11240226Y66103937D01*
X-11331613Y66165000D01*
X-9431963Y66165000D01*
X-9228493Y66185040D01*
X-8967419Y66264236D01*
X-8726812Y66392843D01*
X-8515919Y66565919D01*
X-8342843Y66776812D01*
X-8214236Y67017419D01*
X-8135040Y67278493D01*
X-8108299Y67550000D01*
X-8135040Y67821507D01*
X-8214236Y68082581D01*
X-8342843Y68323188D01*
X-8515919Y68534081D01*
X-8726812Y68707157D01*
X-8967419Y68835764D01*
X-9228493Y68914960D01*
X-9431963Y68935000D01*
X-12568037Y68935000D01*
X-12771507Y68914960D01*
X-13032581Y68835764D01*
X-13273188Y68707157D01*
X-13484081Y68534081D01*
X-13657157Y68323188D01*
X-13785764Y68082581D01*
X-13864960Y67821507D01*
X-13891701Y67550000D01*
X-13864960Y67278493D01*
X-13785764Y67017419D01*
X-13657157Y66776812D01*
X-13484081Y66565919D01*
X-13273188Y66392843D01*
X-13032581Y66264236D01*
X-12771507Y66185040D01*
X-12568037Y66165000D01*
X-12468387Y66165000D01*
X-12559774Y66103937D01*
X-12703937Y65959774D01*
X-12817205Y65790256D01*
X-12895226Y65601898D01*
X-12935000Y65401939D01*
X-12935000Y65198061D01*
X-12895226Y64998102D01*
X-12817205Y64809744D01*
X-12811157Y64800692D01*
X-12890577Y64616816D01*
X-12933351Y64417477D01*
X-12936413Y64213623D01*
X-12899647Y64013088D01*
X-12824466Y63823580D01*
X-12811344Y63799028D01*
X-12817205Y63790256D01*
X-12895226Y63601898D01*
X-12935000Y63401939D01*
X-12935000Y63198061D01*
X-12895226Y62998102D01*
X-12817205Y62809744D01*
X-12810694Y62800000D01*
X-12817205Y62790256D01*
X-12895226Y62601898D01*
X-12935000Y62401939D01*
X-12935000Y62198061D01*
X-12895226Y61998102D01*
X-12817205Y61809744D01*
X-12811157Y61800692D01*
X-12890577Y61616816D01*
X-12933351Y61417477D01*
X-12936413Y61213623D01*
X-12899647Y61013088D01*
X-12824466Y60823580D01*
X-12811344Y60799028D01*
X-12817205Y60790256D01*
X-12895226Y60601898D01*
X-12935000Y60401939D01*
X-12935000Y60198061D01*
X-12895226Y59998102D01*
X-12817205Y59809744D01*
X-12810694Y59800000D01*
X-12817205Y59790256D01*
X-12895226Y59601898D01*
X-12935000Y59401939D01*
X-12935000Y59226665D01*
X-32120000Y40041664D01*
X-32120000Y52810962D01*
X-32032581Y52764236D01*
X-31771507Y52685040D01*
X-31568037Y52665000D01*
X-28431963Y52665000D01*
X-28228493Y52685040D01*
X-27967419Y52764236D01*
X-27726812Y52892843D01*
X-27515919Y53065919D01*
X-27342843Y53276812D01*
X-27214236Y53517419D01*
X-27135040Y53778493D01*
X-27108299Y54050000D01*
X-27135040Y54321507D01*
X-27214236Y54582581D01*
X-27342843Y54823188D01*
X-27515919Y55034081D01*
X-27726812Y55207157D01*
X-27967419Y55335764D01*
X-28228493Y55414960D01*
X-28431963Y55435000D01*
X-29363722Y55435000D01*
X-29329839Y55546697D01*
X-29322582Y55620384D01*
X-29316710Y55680000D01*
X-29320000Y55713404D01*
X-29320000Y55788648D01*
X-29217477Y55766649D01*
X-29013623Y55763587D01*
X-28813088Y55800353D01*
X-28623580Y55875534D01*
X-28596019Y55890264D01*
X-28573164Y56093559D01*
X-29100000Y56620395D01*
X-29114143Y56606253D01*
X-29290507Y56782617D01*
X-29201939Y56765000D01*
X-28998061Y56765000D01*
X-28904087Y56783692D01*
X-28393559Y56273164D01*
X-28190264Y56296019D01*
X-28109423Y56483184D01*
X-28066649Y56682523D01*
X-28063587Y56886377D01*
X-28100353Y57086912D01*
X-28175534Y57276420D01*
X-28188656Y57300972D01*
X-28182795Y57309744D01*
X-28104774Y57498102D01*
X-28065000Y57698061D01*
X-28065000Y57901939D01*
X-28104774Y58101898D01*
X-28182795Y58290256D01*
X-28189306Y58300000D01*
X-28182795Y58309744D01*
X-28104774Y58498102D01*
X-28065000Y58698061D01*
X-28065000Y58901939D01*
X-28104774Y59101898D01*
X-28182795Y59290256D01*
X-28188843Y59299308D01*
X-28109423Y59483184D01*
X-28066649Y59682523D01*
X-28063587Y59886377D01*
X-28100353Y60086912D01*
X-28175534Y60276420D01*
X-28188656Y60300972D01*
X-28182795Y60309744D01*
X-28104774Y60498102D01*
X-28065000Y60698061D01*
X-28065000Y60901939D01*
X-28104774Y61101898D01*
X-28182795Y61290256D01*
X-28189306Y61300000D01*
X-28182795Y61309744D01*
X-28104774Y61498102D01*
X-28065000Y61698061D01*
X-28065000Y61901939D01*
X-28104774Y62101898D01*
X-28182795Y62290256D01*
X-28189306Y62300000D01*
X-28182795Y62309744D01*
X-28104774Y62498102D01*
X-28065000Y62698061D01*
X-28065000Y62901939D01*
X-28104774Y63101898D01*
X-28182795Y63290256D01*
X-28189306Y63300000D01*
X-28182795Y63309744D01*
X-28104774Y63498102D01*
X-28065000Y63698061D01*
X-28065000Y63901939D01*
X-28104774Y64101898D01*
X-28182795Y64290256D01*
X-28189306Y64300000D01*
X-28182795Y64309744D01*
X-28104774Y64498102D01*
X-28065000Y64698061D01*
X-28065000Y64901939D01*
X-28104774Y65101898D01*
X-28182795Y65290256D01*
X-28296063Y65459774D01*
X-28440226Y65603937D01*
X-28609744Y65717205D01*
X-28798102Y65795226D01*
X-28998061Y65835000D01*
X-29201939Y65835000D01*
X-29401898Y65795226D01*
X-29590256Y65717205D01*
X-29759774Y65603937D01*
X-29881055Y65482656D01*
X-29904774Y65601898D01*
X-29982795Y65790256D01*
X-30096063Y65959774D01*
X-30240226Y66103937D01*
X-30331613Y66165000D01*
X-28431963Y66165000D01*
X-28228493Y66185040D01*
X-27967419Y66264236D01*
X-27726812Y66392843D01*
X-27515919Y66565919D01*
X-27342843Y66776812D01*
X-27214236Y67017419D01*
X-27135040Y67278493D01*
X-27108299Y67550000D01*
X-27135040Y67821507D01*
X-27214236Y68082581D01*
X-27342843Y68323188D01*
X-27515919Y68534081D01*
X-27726812Y68707157D01*
X-27967419Y68835764D01*
X-28228493Y68914960D01*
X-28431963Y68935000D01*
X-31568037Y68935000D01*
X-31771507Y68914960D01*
X-32032581Y68835764D01*
X-32273188Y68707157D01*
X-32484081Y68534081D01*
X-32657157Y68323188D01*
X-32785764Y68082581D01*
X-32864960Y67821507D01*
X-32891701Y67550000D01*
X-32864960Y67278493D01*
X-32785764Y67017419D01*
X-32657157Y66776812D01*
X-32484081Y66565919D01*
X-32273188Y66392843D01*
X-32032581Y66264236D01*
X-31771507Y66185040D01*
X-31568037Y66165000D01*
X-31468387Y66165000D01*
X-31559774Y66103937D01*
X-31703937Y65959774D01*
X-31817205Y65790256D01*
X-31895226Y65601898D01*
X-31935000Y65401939D01*
X-31935000Y65198061D01*
X-31895226Y64998102D01*
X-31817205Y64809744D01*
X-31811157Y64800692D01*
X-31890577Y64616816D01*
X-31933351Y64417477D01*
X-31936413Y64213623D01*
X-31899647Y64013088D01*
X-31824466Y63823580D01*
X-31811344Y63799028D01*
X-31817205Y63790256D01*
X-31895226Y63601898D01*
X-31935000Y63401939D01*
X-31935000Y63198061D01*
X-31895226Y62998102D01*
X-31817205Y62809744D01*
X-31810694Y62800000D01*
X-31817205Y62790256D01*
X-31895226Y62601898D01*
X-31935000Y62401939D01*
X-31935000Y62198061D01*
X-31895226Y61998102D01*
X-31817205Y61809744D01*
X-31811157Y61800692D01*
X-31890577Y61616816D01*
X-31933351Y61417477D01*
X-31936413Y61213623D01*
X-31899647Y61013088D01*
X-31824466Y60823580D01*
X-31811344Y60799028D01*
X-31817205Y60790256D01*
X-31895226Y60601898D01*
X-31935000Y60401939D01*
X-31935000Y60198061D01*
X-31895226Y59998102D01*
X-31817205Y59809744D01*
X-31810694Y59800000D01*
X-31817205Y59790256D01*
X-31895226Y59601898D01*
X-31935000Y59401939D01*
X-31935000Y59226665D01*
X-33457209Y57704455D01*
X-33483159Y57683158D01*
X-33568135Y57579615D01*
X-33631277Y57461484D01*
X-33631278Y57461483D01*
X-33670161Y57333303D01*
X-33683290Y57200000D01*
X-33680000Y57166596D01*
X-33679999Y20696236D01*
X-45539990Y32556226D01*
X-45539990Y54242751D01*
X-45536700Y54276155D01*
X-45549829Y54409458D01*
X-45588712Y54537639D01*
X-45651855Y54655771D01*
X-45715537Y54733368D01*
X-45715544Y54733375D01*
X-45736832Y54759314D01*
X-45762770Y54780601D01*
X-46919390Y55937219D01*
X-46940685Y55963167D01*
X-47044228Y56048143D01*
X-47162359Y56111286D01*
X-47162361Y56111287D01*
X-47282381Y56147695D01*
X-47275234Y56154842D01*
X-47393556Y56273164D01*
X-47190264Y56296019D01*
X-47109423Y56483184D01*
X-47066649Y56682523D01*
X-47063587Y56886377D01*
X-47100353Y57086912D01*
X-47175534Y57276420D01*
X-47188656Y57300972D01*
X-47182795Y57309744D01*
X-47104774Y57498102D01*
X-47065000Y57698061D01*
X-47065000Y57901939D01*
X-47104774Y58101898D01*
X-47182795Y58290256D01*
X-47189306Y58300000D01*
X-47182795Y58309744D01*
X-47104774Y58498102D01*
X-47065000Y58698061D01*
X-47065000Y58901939D01*
X-47104774Y59101898D01*
X-47182795Y59290256D01*
X-47188843Y59299308D01*
X-47109423Y59483184D01*
X-47066649Y59682523D01*
X-47063587Y59886377D01*
X-47100353Y60086912D01*
X-47175534Y60276420D01*
X-47188656Y60300972D01*
X-47182795Y60309744D01*
X-47104774Y60498102D01*
X-47065000Y60698061D01*
X-47065000Y60901939D01*
X-47104774Y61101898D01*
X-47182795Y61290256D01*
X-47189306Y61300000D01*
X-47182795Y61309744D01*
X-47104774Y61498102D01*
X-47065000Y61698061D01*
X-47065000Y61901939D01*
X-47104774Y62101898D01*
X-47182795Y62290256D01*
X-47189306Y62300000D01*
X-47182795Y62309744D01*
X-47104774Y62498102D01*
X-47065000Y62698061D01*
X-47065000Y62901939D01*
X-47104774Y63101898D01*
X-47182795Y63290256D01*
X-47189306Y63300000D01*
X-47182795Y63309744D01*
X-47104774Y63498102D01*
X-47065000Y63698061D01*
X-47065000Y63901939D01*
X-47104774Y64101898D01*
X-47182795Y64290256D01*
X-47189306Y64300000D01*
X-47182795Y64309744D01*
X-47104774Y64498102D01*
X-47065000Y64698061D01*
X-47065000Y64901939D01*
X-47104774Y65101898D01*
X-47182795Y65290256D01*
X-47296063Y65459774D01*
X-47440226Y65603937D01*
X-47609744Y65717205D01*
X-47798102Y65795226D01*
X-47998061Y65835000D01*
X-48201939Y65835000D01*
X-48401898Y65795226D01*
X-48590256Y65717205D01*
X-48759774Y65603937D01*
X-48881055Y65482656D01*
X-48904774Y65601898D01*
X-48982795Y65790256D01*
X-49096063Y65959774D01*
X-49240226Y66103937D01*
X-49331613Y66165000D01*
X-47431963Y66165000D01*
X-47228493Y66185040D01*
X-46967419Y66264236D01*
X-46726812Y66392843D01*
X-46515919Y66565919D01*
X-46342843Y66776812D01*
X-46214236Y67017419D01*
X-46135040Y67278493D01*
X-46108299Y67550000D01*
X-46135040Y67821507D01*
X-46214236Y68082581D01*
X-46342843Y68323188D01*
X-46515919Y68534081D01*
X-46726812Y68707157D01*
X-46967419Y68835764D01*
X-47228493Y68914960D01*
X-47431963Y68935000D01*
X-50568037Y68935000D01*
X-50771507Y68914960D01*
X-51032581Y68835764D01*
X-51273188Y68707157D01*
X-51484081Y68534081D01*
X-51657157Y68323188D01*
X-51785764Y68082581D01*
X-51864960Y67821507D01*
X-51891701Y67550000D01*
X-55340000Y67550000D01*
X-55340000Y73840000D01*
X55340000Y73840000D01*
X55340001Y-43726618D01*
G37*
%TD.AperFunction*%
D15*
X-15085858Y-67193748D02*
X-15100000Y-67179605D01*
X-15114143Y-67193748D01*
X-15279990Y-67027900D01*
X-15279990Y-67019475D01*
X-15201939Y-67035000D01*
X-14998061Y-67035000D01*
X-14909493Y-67017383D01*
X-15085858Y-67193748D01*
%TA.AperFunction,Conductor*%
D16*
G36*
X-15085858Y-67193748D02*
G01*
X-15100000Y-67179605D01*
X-15114143Y-67193748D01*
X-15279990Y-67027900D01*
X-15279990Y-67019475D01*
X-15201939Y-67035000D01*
X-14998061Y-67035000D01*
X-14909493Y-67017383D01*
X-15085858Y-67193748D01*
G37*
%TD.AperFunction*%
D15*
X-48085858Y56606253D02*
X-48100000Y56620395D01*
X-48114143Y56606253D01*
X-48120000Y56612110D01*
X-48120000Y56765000D01*
X-47998061Y56765000D01*
X-47909493Y56782617D01*
X-48085858Y56606253D01*
%TA.AperFunction,Conductor*%
D16*
G36*
X-48085858Y56606253D02*
G01*
X-48100000Y56620395D01*
X-48114143Y56606253D01*
X-48120000Y56612110D01*
X-48120000Y56765000D01*
X-47998061Y56765000D01*
X-47909493Y56782617D01*
X-48085858Y56606253D01*
G37*
%TD.AperFunction*%
%TD*%
M02*
