M48
INCH
T1C0.0217
T2C0.0240
T3C0.0394
T4C0.1106
T5C0.2035
%
G90
G05
T1
X-2.8543Y0.5945
X-2.8543Y-0.0354
X-2.8543Y-0.6654
X-2.8346Y0.6654
X-2.8346Y0.0354
X-2.8346Y-0.5945
X-2.815Y0.5945
X-2.815Y-0.0354
X-2.815Y-0.6654
X-2.7953Y0.6654
X-2.7953Y0.0354
X-2.7953Y-0.5945
X-2.7756Y0.5945
X-2.7756Y-0.0354
X-2.7756Y-0.6654
X-2.7559Y0.6654
X-2.7559Y0.0354
X-2.7559Y-0.5945
X-2.7362Y0.5945
X-2.7362Y-0.0354
X-2.7362Y-0.6654
X-2.7165Y0.6654
X-2.7165Y0.0354
X-2.7165Y-0.5945
X-2.6969Y0.5945
X-2.6969Y-0.0354
X-2.6969Y-0.6654
X-2.6772Y0.6654
X-2.6772Y0.0354
X-2.6772Y-0.5945
X-2.6575Y0.5945
X-2.6575Y-0.0354
X-2.6575Y-0.6654
X-2.6378Y0.6654
X-2.6378Y0.0354
X-2.6378Y-0.5945
X-2.6181Y0.5945
X-2.6181Y-0.0354
X-2.6181Y-0.6654
X-2.5984Y0.6654
X-2.5984Y0.0354
X-2.5984Y-0.5945
X-2.5787Y0.5945
X-2.5787Y-0.0354
X-2.5787Y-0.6654
X-2.5591Y0.6654
X-2.5591Y0.0354
X-2.5591Y-0.5945
X-2.5394Y0.5945
X-2.5394Y-0.0354
X-2.5394Y-0.6654
X-2.5197Y0.6654
X-2.5197Y0.0354
X-2.5197Y-0.5945
X-2.5Y0.5945
X-2.5Y-0.0354
X-2.5Y-0.6654
X-0.6654Y2.6378
X-0.6654Y2.5984
X-0.6654Y2.5591
X-0.6654Y2.5197
X-0.6654Y2.4803
X-0.6654Y2.4409
X-0.6654Y2.4016
X-0.6654Y2.3622
X-0.6654Y2.3228
X-0.6654Y-2.3031
X-0.6654Y-2.3425
X-0.6654Y-2.3819
X-0.6654Y-2.4213
X-0.6654Y-2.4606
X-0.6654Y-2.5
X-0.6654Y-2.5394
X-0.6654Y-2.5787
X-0.6654Y-2.6181
X-0.6654Y-2.6575
X-0.5945Y2.6575
X-0.5945Y2.6181
X-0.5945Y2.5787
X-0.5945Y2.5394
X-0.5945Y2.5
X-0.5945Y2.4606
X-0.5945Y2.4213
X-0.5945Y2.3819
X-0.5945Y2.3425
X-0.5945Y2.3031
X-0.5945Y-2.3228
X-0.5945Y-2.3622
X-0.5945Y-2.4016
X-0.5945Y-2.4409
X-0.5945Y-2.4803
X-0.5945Y-2.5197
X-0.5945Y-2.5591
X-0.5945Y-2.5984
X-0.5945Y-2.6378
X-0.0354Y2.6378
X-0.0354Y2.5984
X-0.0354Y2.5591
X-0.0354Y2.5197
X-0.0354Y2.4803
X-0.0354Y2.4409
X-0.0354Y2.4016
X-0.0354Y2.3622
X-0.0354Y2.3228
X-0.0354Y-2.3031
X-0.0354Y-2.3425
X-0.0354Y-2.3819
X-0.0354Y-2.4213
X-0.0354Y-2.4606
X-0.0354Y-2.5
X-0.0354Y-2.5394
X-0.0354Y-2.5787
X-0.0354Y-2.6181
X-0.0354Y-2.6575
X0.0354Y2.6575
X0.0354Y2.6181
X0.0354Y2.5787
X0.0354Y2.5394
X0.0354Y2.5
X0.0354Y2.4606
X0.0354Y2.4213
X0.0354Y2.3819
X0.0354Y2.3425
X0.0354Y2.3031
X0.0354Y-2.3228
X0.0354Y-2.3622
X0.0354Y-2.4016
X0.0354Y-2.4409
X0.0354Y-2.4803
X0.0354Y-2.5197
X0.0354Y-2.5591
X0.0354Y-2.5984
X0.0354Y-2.6378
X0.5945Y2.6378
X0.5945Y2.5984
X0.5945Y2.5591
X0.5945Y2.5197
X0.5945Y2.4803
X0.5945Y2.4409
X0.5945Y2.4016
X0.5945Y2.3622
X0.5945Y2.3228
X0.5945Y-2.3031
X0.5945Y-2.3425
X0.5945Y-2.3819
X0.5945Y-2.4213
X0.5945Y-2.4606
X0.5945Y-2.5
X0.5945Y-2.5394
X0.5945Y-2.5787
X0.5945Y-2.6181
X0.5945Y-2.6575
X0.6654Y2.6575
X0.6654Y2.6181
X0.6654Y2.5787
X0.6654Y2.5394
X0.6654Y2.5
X0.6654Y2.4606
X0.6654Y2.4213
X0.6654Y2.3819
X0.6654Y2.3425
X0.6654Y2.3031
X0.6654Y-2.3228
X0.6654Y-2.3622
X0.6654Y-2.4016
X0.6654Y-2.4409
X0.6654Y-2.4803
X0.6654Y-2.5197
X0.6654Y-2.5591
X0.6654Y-2.5984
X0.6654Y-2.6378
T2
X-0.3Y0.4724
X-0.3Y0.0
X-0.3Y-0.4724
X-0.275Y0.5157
X-0.275Y0.0433
X-0.275Y-0.4291
X-0.25Y0.4724
X-0.25Y0.0
X-0.25Y-0.4724
X-0.225Y0.5157
X-0.225Y0.0433
X-0.225Y-0.4291
X-0.2Y0.4724
X-0.2Y0.0
X-0.2Y-0.4724
X-0.175Y0.5157
X-0.175Y0.0433
X-0.175Y-0.4291
X-0.15Y0.4724
X-0.15Y0.0
X-0.15Y-0.4724
X-0.125Y0.5157
X-0.125Y0.0433
X-0.125Y-0.4291
X-0.1Y0.4724
X-0.1Y0.0
X-0.1Y-0.4724
X-0.075Y0.5157
X-0.075Y0.0433
X-0.075Y-0.4291
X-0.05Y0.4724
X-0.05Y0.0
X-0.05Y-0.4724
X-0.025Y0.5157
X-0.025Y0.0433
X-0.025Y-0.4291
X0.0Y0.4724
X0.0Y0.0
X0.0Y-0.4724
X0.025Y0.5157
X0.025Y0.0433
X0.025Y-0.4291
X0.05Y0.4724
X0.05Y0.0
X0.05Y-0.4724
X0.075Y0.5157
X0.075Y0.0433
X0.075Y-0.4291
X0.1Y0.4724
X0.1Y0.0
X0.1Y-0.4724
X0.125Y0.5157
X0.125Y0.0433
X0.125Y-0.4291
X0.15Y0.4724
X0.15Y0.0
X0.15Y-0.4724
X0.175Y0.5157
X0.175Y0.0433
X0.175Y-0.4291
X0.2Y0.4724
X0.2Y0.0
X0.2Y-0.4724
X0.225Y0.5157
X0.225Y0.0433
X0.225Y-0.4291
X0.25Y0.4724
X0.25Y0.0
X0.25Y-0.4724
X0.275Y0.5157
X0.275Y0.0433
X0.275Y-0.4291
X0.3Y0.4724
X0.3Y0.0
X0.3Y-0.4724
T4
X-0.4833Y0.4941
X-0.4833Y0.0217
X-0.4833Y-0.4508
X0.4833Y0.4941
X0.4833Y0.0217
X0.4833Y-0.4508
T5
X-1.5013Y0.6219
X-1.5013Y-0.6219
X-0.6219Y1.5013
X-0.6219Y-1.5013
X0.6219Y1.5013
X0.6219Y-1.5013
X1.5013Y0.6219
X1.5013Y-0.6219
T3
G00X-2.9429Y0.687
M15
G01X-2.9429Y0.5728
M16
G05
G00X-2.9429Y0.0571
M15
G01X-2.9429Y-0.0571
M16
G05
G00X-2.9429Y-0.5728
M15
G01X-2.9429Y-0.687
M16
G05
G00X-2.4114Y0.687
M15
G01X-2.4114Y0.5728
M16
G05
G00X-2.4114Y0.0571
M15
G01X-2.4114Y-0.0571
M16
G05
G00X-2.4114Y-0.5728
M15
G01X-2.4114Y-0.687
M16
G05
G00X-0.687Y2.7461
M15
G01X-0.5728Y2.7461
M16
G05
G00X-0.687Y2.2146
M15
G01X-0.5728Y2.2146
M16
G05
G00X-0.5728Y-2.2146
M15
G01X-0.687Y-2.2146
M16
G05
G00X-0.5728Y-2.7461
M15
G01X-0.687Y-2.7461
M16
G05
G00X-0.0571Y2.7461
M15
G01X0.0571Y2.7461
M16
G05
G00X-0.0571Y2.2146
M15
G01X0.0571Y2.2146
M16
G05
G00X0.0571Y-2.2146
M15
G01X-0.0571Y-2.2146
M16
G05
G00X0.0571Y-2.7461
M15
G01X-0.0571Y-2.7461
M16
G05
G00X0.5728Y2.7461
M15
G01X0.687Y2.7461
M16
G05
G00X0.5728Y2.2146
M15
G01X0.687Y2.2146
M16
G05
G00X0.687Y-2.2146
M15
G01X0.5728Y-2.2146
M16
G05
G00X0.687Y-2.7461
M15
G01X0.5728Y-2.7461
M16
G05
T0
M30
