%TF.GenerationSoftware,KiCad,Pcbnew,(5.1.10)-1*%
%TF.CreationDate,2022-07-12T19:08:49-06:00*%
%TF.ProjectId,21to25,3231746f-3235-42e6-9b69-6361645f7063,rev?*%
%TF.SameCoordinates,Original*%
%TF.FileFunction,Legend,Top*%
%TF.FilePolarity,Positive*%
%FSLAX46Y46*%
G04 Gerber Fmt 4.6, Leading zero omitted, Abs format (unit mm)*
G04 Created by KiCad (PCBNEW (5.1.10)-1) date 2022-07-12 19:08:49*
%MOMM*%
%LPD*%
G01*
G04 APERTURE LIST*
%ADD10C,0.100000*%
%ADD11C,0.120000*%
%ADD12C,0.150000*%
G04 APERTURE END LIST*
D10*
X-56900952Y-1380952D02*
X-56672380Y-1380952D01*
X-56786666Y-1780952D02*
X-56786666Y-1380952D01*
X-56539047Y-1780952D02*
X-56539047Y-1514285D01*
X-56539047Y-1590476D02*
X-56520000Y-1552380D01*
X-56500952Y-1533333D01*
X-56462857Y-1514285D01*
X-56424761Y-1514285D01*
X-56291428Y-1780952D02*
X-56291428Y-1514285D01*
X-56291428Y-1380952D02*
X-56310476Y-1400000D01*
X-56291428Y-1419047D01*
X-56272380Y-1400000D01*
X-56291428Y-1380952D01*
X-56291428Y-1419047D01*
X-56100952Y-1780952D02*
X-56100952Y-1380952D01*
X-55967619Y-1666666D01*
X-55834285Y-1380952D01*
X-55834285Y-1780952D01*
X-55643809Y-1780952D02*
X-55643809Y-1514285D01*
X-55643809Y-1380952D02*
X-55662857Y-1400000D01*
X-55643809Y-1419047D01*
X-55624761Y-1400000D01*
X-55643809Y-1380952D01*
X-55643809Y-1419047D01*
X-55281904Y-1761904D02*
X-55320000Y-1780952D01*
X-55396190Y-1780952D01*
X-55434285Y-1761904D01*
X-55453333Y-1742857D01*
X-55472380Y-1704761D01*
X-55472380Y-1590476D01*
X-55453333Y-1552380D01*
X-55434285Y-1533333D01*
X-55396190Y-1514285D01*
X-55320000Y-1514285D01*
X-55281904Y-1533333D01*
X-55110476Y-1780952D02*
X-55110476Y-1514285D01*
X-55110476Y-1590476D02*
X-55091428Y-1552380D01*
X-55072380Y-1533333D01*
X-55034285Y-1514285D01*
X-54996190Y-1514285D01*
X-54805714Y-1780952D02*
X-54843809Y-1761904D01*
X-54862857Y-1742857D01*
X-54881904Y-1704761D01*
X-54881904Y-1590476D01*
X-54862857Y-1552380D01*
X-54843809Y-1533333D01*
X-54805714Y-1514285D01*
X-54748571Y-1514285D01*
X-54710476Y-1533333D01*
X-54691428Y-1552380D01*
X-54672380Y-1590476D01*
X-54672380Y-1704761D01*
X-54691428Y-1742857D01*
X-54710476Y-1761904D01*
X-54748571Y-1780952D01*
X-54805714Y-1780952D01*
X-54500952Y-1780952D02*
X-54500952Y-1380952D01*
X-54405714Y-1380952D01*
X-54348571Y-1400000D01*
X-54310476Y-1438095D01*
X-54291428Y-1476190D01*
X-54272380Y-1552380D01*
X-54272380Y-1609523D01*
X-54291428Y-1685714D01*
X-54310476Y-1723809D01*
X-54348571Y-1761904D01*
X-54405714Y-1780952D01*
X-54500952Y-1780952D01*
X-53872380Y-1742857D02*
X-53891428Y-1761904D01*
X-53948571Y-1780952D01*
X-53986666Y-1780952D01*
X-54043809Y-1761904D01*
X-54081904Y-1723809D01*
X-54100952Y-1685714D01*
X-54120000Y-1609523D01*
X-54120000Y-1552380D01*
X-54100952Y-1476190D01*
X-54081904Y-1438095D01*
X-54043809Y-1400000D01*
X-53986666Y-1380952D01*
X-53948571Y-1380952D01*
X-53891428Y-1400000D01*
X-53872380Y-1419047D01*
X-53643809Y-1780952D02*
X-53681904Y-1761904D01*
X-53700952Y-1742857D01*
X-53720000Y-1704761D01*
X-53720000Y-1590476D01*
X-53700952Y-1552380D01*
X-53681904Y-1533333D01*
X-53643809Y-1514285D01*
X-53586666Y-1514285D01*
X-53548571Y-1533333D01*
X-53529523Y-1552380D01*
X-53510476Y-1590476D01*
X-53510476Y-1704761D01*
X-53529523Y-1742857D01*
X-53548571Y-1761904D01*
X-53586666Y-1780952D01*
X-53643809Y-1780952D01*
X-53339047Y-1514285D02*
X-53339047Y-1780952D01*
X-53339047Y-1552380D02*
X-53320000Y-1533333D01*
X-53281904Y-1514285D01*
X-53224761Y-1514285D01*
X-53186666Y-1533333D01*
X-53167619Y-1571428D01*
X-53167619Y-1780952D01*
X-53015238Y-1514285D02*
X-52920000Y-1780952D01*
X-52824761Y-1514285D01*
X-52520000Y-1761904D02*
X-52558095Y-1780952D01*
X-52634285Y-1780952D01*
X-52672380Y-1761904D01*
X-52691428Y-1723809D01*
X-52691428Y-1571428D01*
X-52672380Y-1533333D01*
X-52634285Y-1514285D01*
X-52558095Y-1514285D01*
X-52520000Y-1533333D01*
X-52500952Y-1571428D01*
X-52500952Y-1609523D01*
X-52691428Y-1647619D01*
X-52329523Y-1780952D02*
X-52329523Y-1514285D01*
X-52329523Y-1590476D02*
X-52310476Y-1552380D01*
X-52291428Y-1533333D01*
X-52253333Y-1514285D01*
X-52215238Y-1514285D01*
X-52139047Y-1514285D02*
X-51986666Y-1514285D01*
X-52081904Y-1380952D02*
X-52081904Y-1723809D01*
X-52062857Y-1761904D01*
X-52024761Y-1780952D01*
X-51986666Y-1780952D01*
X-51948571Y-1819047D02*
X-51643809Y-1819047D01*
X-51567619Y-1419047D02*
X-51548571Y-1400000D01*
X-51510476Y-1380952D01*
X-51415238Y-1380952D01*
X-51377142Y-1400000D01*
X-51358095Y-1419047D01*
X-51339047Y-1457142D01*
X-51339047Y-1495238D01*
X-51358095Y-1552380D01*
X-51586666Y-1780952D01*
X-51339047Y-1780952D01*
X-50958095Y-1780952D02*
X-51186666Y-1780952D01*
X-51072380Y-1780952D02*
X-51072380Y-1380952D01*
X-51110476Y-1438095D01*
X-51148571Y-1476190D01*
X-51186666Y-1495238D01*
X-50786666Y-1780952D02*
X-50786666Y-1380952D01*
X-50634285Y-1380952D01*
X-50596190Y-1400000D01*
X-50577142Y-1419047D01*
X-50558095Y-1457142D01*
X-50558095Y-1514285D01*
X-50577142Y-1552380D01*
X-50596190Y-1571428D01*
X-50634285Y-1590476D01*
X-50786666Y-1590476D01*
X-50386666Y-1780952D02*
X-50386666Y-1514285D01*
X-50386666Y-1380952D02*
X-50405714Y-1400000D01*
X-50386666Y-1419047D01*
X-50367619Y-1400000D01*
X-50386666Y-1380952D01*
X-50386666Y-1419047D01*
X-50196190Y-1514285D02*
X-50196190Y-1780952D01*
X-50196190Y-1552380D02*
X-50177142Y-1533333D01*
X-50139047Y-1514285D01*
X-50081904Y-1514285D01*
X-50043809Y-1533333D01*
X-50024761Y-1571428D01*
X-50024761Y-1780952D01*
X-49929523Y-1819047D02*
X-49624761Y-1819047D01*
X-49586666Y-1380952D02*
X-49453333Y-1780952D01*
X-49320000Y-1380952D01*
X-48977142Y-1780952D02*
X-49205714Y-1780952D01*
X-49091428Y-1780952D02*
X-49091428Y-1380952D01*
X-49129523Y-1438095D01*
X-49167619Y-1476190D01*
X-49205714Y-1495238D01*
X-54748571Y-2366666D02*
X-54558095Y-2366666D01*
X-54786666Y-2480952D02*
X-54653333Y-2080952D01*
X-54520000Y-2480952D01*
X-54215238Y-2214285D02*
X-54215238Y-2480952D01*
X-54386666Y-2214285D02*
X-54386666Y-2423809D01*
X-54367619Y-2461904D01*
X-54329523Y-2480952D01*
X-54272380Y-2480952D01*
X-54234285Y-2461904D01*
X-54215238Y-2442857D01*
X-53853333Y-2214285D02*
X-53853333Y-2538095D01*
X-53872380Y-2576190D01*
X-53891428Y-2595238D01*
X-53929523Y-2614285D01*
X-53986666Y-2614285D01*
X-54024761Y-2595238D01*
X-53853333Y-2461904D02*
X-53891428Y-2480952D01*
X-53967619Y-2480952D01*
X-54005714Y-2461904D01*
X-54024761Y-2442857D01*
X-54043809Y-2404761D01*
X-54043809Y-2290476D01*
X-54024761Y-2252380D01*
X-54005714Y-2233333D01*
X-53967619Y-2214285D01*
X-53891428Y-2214285D01*
X-53853333Y-2233333D01*
X-53491428Y-2214285D02*
X-53491428Y-2480952D01*
X-53662857Y-2214285D02*
X-53662857Y-2423809D01*
X-53643809Y-2461904D01*
X-53605714Y-2480952D01*
X-53548571Y-2480952D01*
X-53510476Y-2461904D01*
X-53491428Y-2442857D01*
X-53320000Y-2461904D02*
X-53281904Y-2480952D01*
X-53205714Y-2480952D01*
X-53167619Y-2461904D01*
X-53148571Y-2423809D01*
X-53148571Y-2404761D01*
X-53167619Y-2366666D01*
X-53205714Y-2347619D01*
X-53262857Y-2347619D01*
X-53300952Y-2328571D01*
X-53320000Y-2290476D01*
X-53320000Y-2271428D01*
X-53300952Y-2233333D01*
X-53262857Y-2214285D01*
X-53205714Y-2214285D01*
X-53167619Y-2233333D01*
X-53034285Y-2214285D02*
X-52881904Y-2214285D01*
X-52977142Y-2080952D02*
X-52977142Y-2423809D01*
X-52958095Y-2461904D01*
X-52920000Y-2480952D01*
X-52881904Y-2480952D01*
X-52462857Y-2119047D02*
X-52443809Y-2100000D01*
X-52405714Y-2080952D01*
X-52310476Y-2080952D01*
X-52272380Y-2100000D01*
X-52253333Y-2119047D01*
X-52234285Y-2157142D01*
X-52234285Y-2195238D01*
X-52253333Y-2252380D01*
X-52481904Y-2480952D01*
X-52234285Y-2480952D01*
X-51986666Y-2080952D02*
X-51948571Y-2080952D01*
X-51910476Y-2100000D01*
X-51891428Y-2119047D01*
X-51872380Y-2157142D01*
X-51853333Y-2233333D01*
X-51853333Y-2328571D01*
X-51872380Y-2404761D01*
X-51891428Y-2442857D01*
X-51910476Y-2461904D01*
X-51948571Y-2480952D01*
X-51986666Y-2480952D01*
X-52024761Y-2461904D01*
X-52043809Y-2442857D01*
X-52062857Y-2404761D01*
X-52081904Y-2328571D01*
X-52081904Y-2233333D01*
X-52062857Y-2157142D01*
X-52043809Y-2119047D01*
X-52024761Y-2100000D01*
X-51986666Y-2080952D01*
X-51700952Y-2119047D02*
X-51681904Y-2100000D01*
X-51643809Y-2080952D01*
X-51548571Y-2080952D01*
X-51510476Y-2100000D01*
X-51491428Y-2119047D01*
X-51472380Y-2157142D01*
X-51472380Y-2195238D01*
X-51491428Y-2252380D01*
X-51720000Y-2480952D01*
X-51472380Y-2480952D01*
X-51091428Y-2480952D02*
X-51320000Y-2480952D01*
X-51205714Y-2480952D02*
X-51205714Y-2080952D01*
X-51243809Y-2138095D01*
X-51281904Y-2176190D01*
X-51320000Y-2195238D01*
X-55281904Y-3180952D02*
X-55415238Y-2990476D01*
X-55510476Y-3180952D02*
X-55510476Y-2780952D01*
X-55358095Y-2780952D01*
X-55320000Y-2800000D01*
X-55300952Y-2819047D01*
X-55281904Y-2857142D01*
X-55281904Y-2914285D01*
X-55300952Y-2952380D01*
X-55320000Y-2971428D01*
X-55358095Y-2990476D01*
X-55510476Y-2990476D01*
X-55148571Y-2914285D02*
X-55053333Y-3180952D01*
X-54958095Y-2914285D02*
X-55053333Y-3180952D01*
X-55091428Y-3276190D01*
X-55110476Y-3295238D01*
X-55148571Y-3314285D01*
X-54634285Y-3180952D02*
X-54634285Y-2971428D01*
X-54653333Y-2933333D01*
X-54691428Y-2914285D01*
X-54767619Y-2914285D01*
X-54805714Y-2933333D01*
X-54634285Y-3161904D02*
X-54672380Y-3180952D01*
X-54767619Y-3180952D01*
X-54805714Y-3161904D01*
X-54824761Y-3123809D01*
X-54824761Y-3085714D01*
X-54805714Y-3047619D01*
X-54767619Y-3028571D01*
X-54672380Y-3028571D01*
X-54634285Y-3009523D01*
X-54443809Y-2914285D02*
X-54443809Y-3180952D01*
X-54443809Y-2952380D02*
X-54424761Y-2933333D01*
X-54386666Y-2914285D01*
X-54329523Y-2914285D01*
X-54291428Y-2933333D01*
X-54272380Y-2971428D01*
X-54272380Y-3180952D01*
X-53777142Y-3180952D02*
X-53777142Y-2780952D01*
X-53643809Y-3066666D01*
X-53510476Y-2780952D01*
X-53510476Y-3180952D01*
X-53262857Y-3180952D02*
X-53300952Y-3161904D01*
X-53320000Y-3142857D01*
X-53339047Y-3104761D01*
X-53339047Y-2990476D01*
X-53320000Y-2952380D01*
X-53300952Y-2933333D01*
X-53262857Y-2914285D01*
X-53205714Y-2914285D01*
X-53167619Y-2933333D01*
X-53148571Y-2952380D01*
X-53129523Y-2990476D01*
X-53129523Y-3104761D01*
X-53148571Y-3142857D01*
X-53167619Y-3161904D01*
X-53205714Y-3180952D01*
X-53262857Y-3180952D01*
X-52958095Y-3180952D02*
X-52958095Y-2914285D01*
X-52958095Y-2990476D02*
X-52939047Y-2952380D01*
X-52920000Y-2933333D01*
X-52881904Y-2914285D01*
X-52843809Y-2914285D01*
X-52539047Y-2914285D02*
X-52539047Y-3238095D01*
X-52558095Y-3276190D01*
X-52577142Y-3295238D01*
X-52615238Y-3314285D01*
X-52672380Y-3314285D01*
X-52710476Y-3295238D01*
X-52539047Y-3161904D02*
X-52577142Y-3180952D01*
X-52653333Y-3180952D01*
X-52691428Y-3161904D01*
X-52710476Y-3142857D01*
X-52729523Y-3104761D01*
X-52729523Y-2990476D01*
X-52710476Y-2952380D01*
X-52691428Y-2933333D01*
X-52653333Y-2914285D01*
X-52577142Y-2914285D01*
X-52539047Y-2933333D01*
X-52196190Y-3161904D02*
X-52234285Y-3180952D01*
X-52310476Y-3180952D01*
X-52348571Y-3161904D01*
X-52367619Y-3123809D01*
X-52367619Y-2971428D01*
X-52348571Y-2933333D01*
X-52310476Y-2914285D01*
X-52234285Y-2914285D01*
X-52196190Y-2933333D01*
X-52177142Y-2971428D01*
X-52177142Y-3009523D01*
X-52367619Y-3047619D01*
X-52005714Y-2914285D02*
X-52005714Y-3180952D01*
X-52005714Y-2952380D02*
X-51986666Y-2933333D01*
X-51948571Y-2914285D01*
X-51891428Y-2914285D01*
X-51853333Y-2933333D01*
X-51834285Y-2971428D01*
X-51834285Y-3180952D01*
X-51662857Y-3161904D02*
X-51624761Y-3180952D01*
X-51548571Y-3180952D01*
X-51510476Y-3161904D01*
X-51491428Y-3123809D01*
X-51491428Y-3104761D01*
X-51510476Y-3066666D01*
X-51548571Y-3047619D01*
X-51605714Y-3047619D01*
X-51643809Y-3028571D01*
X-51662857Y-2990476D01*
X-51662857Y-2971428D01*
X-51643809Y-2933333D01*
X-51605714Y-2914285D01*
X-51548571Y-2914285D01*
X-51510476Y-2933333D01*
X-51377142Y-2914285D02*
X-51224761Y-2914285D01*
X-51320000Y-2780952D02*
X-51320000Y-3123809D01*
X-51300952Y-3161904D01*
X-51262857Y-3180952D01*
X-51224761Y-3180952D01*
X-50939047Y-3161904D02*
X-50977142Y-3180952D01*
X-51053333Y-3180952D01*
X-51091428Y-3161904D01*
X-51110476Y-3123809D01*
X-51110476Y-2971428D01*
X-51091428Y-2933333D01*
X-51053333Y-2914285D01*
X-50977142Y-2914285D01*
X-50939047Y-2933333D01*
X-50920000Y-2971428D01*
X-50920000Y-3009523D01*
X-51110476Y-3047619D01*
X-50748571Y-3180952D02*
X-50748571Y-2914285D01*
X-50748571Y-2990476D02*
X-50729523Y-2952380D01*
X-50710476Y-2933333D01*
X-50672380Y-2914285D01*
X-50634285Y-2914285D01*
X-50500952Y-2914285D02*
X-50500952Y-3180952D01*
X-50500952Y-2952380D02*
X-50481904Y-2933333D01*
X-50443809Y-2914285D01*
X-50386666Y-2914285D01*
X-50348571Y-2933333D01*
X-50329523Y-2971428D01*
X-50329523Y-3180952D01*
D11*
%TO.C,J1*%
X-53340000Y-910000D02*
X-53340000Y-594493D01*
X-53300000Y1694493D02*
X-53300000Y2010000D01*
X-53300000Y394493D02*
X-53300000Y605507D01*
X-54215000Y-910000D02*
X-53340000Y-910000D01*
X-55560000Y2010000D02*
X-53300000Y2010000D01*
X-54215000Y-910000D02*
X-54215000Y-808276D01*
X-55560000Y1694493D02*
X-55560000Y2010000D01*
X-55000000Y-710000D02*
X-55685000Y-710000D01*
X-55685000Y-710000D02*
X-55685000Y0D01*
%TO.C,J2 & J3*%
D12*
X-37085714Y2657142D02*
X-37085714Y1800000D01*
X-37142857Y1628571D01*
X-37257142Y1514285D01*
X-37428571Y1457142D01*
X-37542857Y1457142D01*
X-36571428Y2542857D02*
X-36514285Y2600000D01*
X-36400000Y2657142D01*
X-36114285Y2657142D01*
X-36000000Y2600000D01*
X-35942857Y2542857D01*
X-35885714Y2428571D01*
X-35885714Y2314285D01*
X-35942857Y2142857D01*
X-36628571Y1457142D01*
X-35885714Y1457142D01*
X-33485714Y1457142D02*
X-33542857Y1457142D01*
X-33657142Y1514285D01*
X-33828571Y1685714D01*
X-34114285Y2028571D01*
X-34228571Y2200000D01*
X-34285714Y2371428D01*
X-34285714Y2485714D01*
X-34228571Y2600000D01*
X-34114285Y2657142D01*
X-34057142Y2657142D01*
X-33942857Y2600000D01*
X-33885714Y2485714D01*
X-33885714Y2428571D01*
X-33942857Y2314285D01*
X-34000000Y2257142D01*
X-34342857Y2028571D01*
X-34400000Y1971428D01*
X-34457142Y1857142D01*
X-34457142Y1685714D01*
X-34400000Y1571428D01*
X-34342857Y1514285D01*
X-34228571Y1457142D01*
X-34057142Y1457142D01*
X-33942857Y1514285D01*
X-33885714Y1571428D01*
X-33714285Y1800000D01*
X-33657142Y1971428D01*
X-33657142Y2085714D01*
X-31714285Y2657142D02*
X-31714285Y1800000D01*
X-31771428Y1628571D01*
X-31885714Y1514285D01*
X-32057142Y1457142D01*
X-32171428Y1457142D01*
X-31257142Y2657142D02*
X-30514285Y2657142D01*
X-30914285Y2200000D01*
X-30742857Y2200000D01*
X-30628571Y2142857D01*
X-30571428Y2085714D01*
X-30514285Y1971428D01*
X-30514285Y1685714D01*
X-30571428Y1571428D01*
X-30628571Y1514285D01*
X-30742857Y1457142D01*
X-31085714Y1457142D01*
X-31200000Y1514285D01*
X-31257142Y1571428D01*
%TO.C,J1*%
X-60303333Y1927619D02*
X-60303333Y1213333D01*
X-60350952Y1070476D01*
X-60446190Y975238D01*
X-60589047Y927619D01*
X-60684285Y927619D01*
X-59303333Y927619D02*
X-59874761Y927619D01*
X-59589047Y927619D02*
X-59589047Y1927619D01*
X-59684285Y1784761D01*
X-59779523Y1689523D01*
X-59874761Y1641904D01*
%TD*%
M02*
