%TF.GenerationSoftware,KiCad,Pcbnew,(5.1.10)-1*%
%TF.CreationDate,2022-07-13T17:04:23-06:00*%
%TF.ProjectId,21to25,3231746f-3235-42e6-9b69-6361645f7063,rev?*%
%TF.SameCoordinates,Original*%
%TF.FileFunction,Copper,L1,Top*%
%TF.FilePolarity,Positive*%
%FSLAX46Y46*%
G04 Gerber Fmt 4.6, Leading zero omitted, Abs format (unit mm)*
G04 Created by KiCad (PCBNEW (5.1.10)-1) date 2022-07-13 17:04:23*
%MOMM*%
%LPD*%
G01*
G04 APERTURE LIST*
%TA.AperFunction,ComponentPad*%
%ADD10O,1.700000X1.700000*%
%TD*%
%TA.AperFunction,ComponentPad*%
%ADD11R,1.700000X1.700000*%
%TD*%
%TA.AperFunction,ComponentPad*%
%ADD12C,3.600000*%
%TD*%
%TA.AperFunction,ComponentPad*%
%ADD13O,0.920000X0.920000*%
%TD*%
%TA.AperFunction,ComponentPad*%
%ADD14O,0.850000X0.850000*%
%TD*%
%TA.AperFunction,ComponentPad*%
%ADD15R,0.850000X0.850000*%
%TD*%
%TA.AperFunction,Conductor*%
%ADD16C,0.090000*%
%TD*%
%TA.AperFunction,Conductor*%
%ADD17C,0.150000*%
%TD*%
%TA.AperFunction,Conductor*%
%ADD18C,0.254000*%
%TD*%
%TA.AperFunction,Conductor*%
%ADD19C,0.100000*%
%TD*%
G04 APERTURE END LIST*
D10*
%TO.P,J5,2*%
%TO.N,/22*%
X-64040000Y-2000000D03*
D11*
%TO.P,J5,1*%
%TO.N,/9*%
X-61500000Y-2000000D03*
%TD*%
D10*
%TO.P,J4,2*%
%TO.N,/22*%
X-57540000Y-2000000D03*
D11*
%TO.P,J4,1*%
%TO.N,/9*%
X-55000000Y-2000000D03*
%TD*%
D10*
%TO.P,J11,2*%
%TO.N,/23*%
X-77040000Y2000000D03*
D11*
%TO.P,J11,1*%
%TO.N,/10*%
X-74500000Y2000000D03*
%TD*%
D10*
%TO.P,J10,2*%
%TO.N,/23*%
X-70540000Y2000000D03*
D11*
%TO.P,J10,1*%
%TO.N,/10*%
X-68000000Y2000000D03*
%TD*%
D10*
%TO.P,J9,2*%
%TO.N,/23*%
X-64040000Y2000000D03*
D11*
%TO.P,J9,1*%
%TO.N,/10*%
X-61500000Y2000000D03*
%TD*%
D10*
%TO.P,J8,2*%
%TO.N,/23*%
X-57540000Y2000000D03*
D11*
%TO.P,J8,1*%
%TO.N,/10*%
X-55000000Y2000000D03*
%TD*%
D10*
%TO.P,J7,2*%
%TO.N,/22*%
X-70540000Y-2000000D03*
D11*
%TO.P,J7,1*%
%TO.N,/9*%
X-68000000Y-2000000D03*
%TD*%
D10*
%TO.P,J6,2*%
%TO.N,/22*%
X-77040000Y-2000000D03*
D11*
%TO.P,J6,1*%
%TO.N,/9*%
X-74500000Y-2000000D03*
%TD*%
D12*
%TO.P,J2,0*%
%TO.N,GND*%
X-21175000Y-50000D03*
X-45725000Y-50000D03*
D13*
%TO.P,J2,13*%
%TO.N,Net-(J2-Pad13)*%
X-41070000Y500000D03*
%TO.P,J2,25*%
%TO.N,Net-(J1-Pad4)*%
X-40435000Y-600000D03*
%TO.P,J2,12*%
%TO.N,Net-(J1-Pad3)*%
X-39800000Y500000D03*
%TO.P,J2,24*%
%TO.N,Net-(J1-Pad2)*%
X-39165000Y-600000D03*
%TO.P,J2,11*%
%TO.N,Net-(J1-Pad1)*%
X-38530000Y500000D03*
%TO.P,J2,23*%
%TO.N,/23*%
X-37895000Y-600000D03*
%TO.P,J2,10*%
%TO.N,/10*%
X-37260000Y500000D03*
%TO.P,J2,22*%
%TO.N,/22*%
X-36625000Y-600000D03*
%TO.P,J2,9*%
%TO.N,/9*%
X-35990000Y500000D03*
%TO.P,J2,21*%
%TO.N,Net-(J2-Pad21)*%
X-35355000Y-600000D03*
%TO.P,J2,8*%
%TO.N,Net-(J2-Pad8)*%
X-34720000Y500000D03*
%TO.P,J2,20*%
%TO.N,Net-(J2-Pad20)*%
X-34085000Y-600000D03*
%TO.P,J2,7*%
%TO.N,Net-(J2-Pad7)*%
X-33450000Y500000D03*
%TO.P,J2,19*%
%TO.N,Net-(J2-Pad19)*%
X-32815000Y-600000D03*
%TO.P,J2,6*%
%TO.N,Net-(J2-Pad6)*%
X-32180000Y500000D03*
%TO.P,J2,18*%
%TO.N,Net-(J2-Pad18)*%
X-31545000Y-600000D03*
%TO.P,J2,5*%
%TO.N,Net-(J2-Pad5)*%
X-30910000Y500000D03*
%TO.P,J2,17*%
%TO.N,Net-(J2-Pad17)*%
X-30275000Y-600000D03*
%TO.P,J2,4*%
%TO.N,Net-(J2-Pad4)*%
X-29640000Y500000D03*
%TO.P,J2,16*%
%TO.N,Net-(J2-Pad16)*%
X-29005000Y-600000D03*
%TO.P,J2,3*%
%TO.N,Net-(J2-Pad3)*%
X-28370000Y500000D03*
%TO.P,J2,15*%
%TO.N,Net-(J2-Pad15)*%
X-27735000Y-600000D03*
%TO.P,J2,2*%
%TO.N,Net-(J2-Pad2)*%
X-27100000Y500000D03*
%TO.P,J2,14*%
%TO.N,Net-(J2-Pad14)*%
X-26465000Y-600000D03*
%TO.P,J2,1*%
%TO.N,Net-(J2-Pad1)*%
X-25830000Y500000D03*
%TD*%
D12*
%TO.P,J3,0*%
%TO.N,GND*%
X-10986000Y-170000D03*
X10986000Y-170000D03*
D13*
%TO.P,J3,1*%
%TO.N,Net-(J2-Pad1)*%
X-6350000Y-300000D03*
%TO.P,J3,12*%
%TO.N,Net-(J2-Pad14)*%
X-5710000Y800000D03*
%TO.P,J3,2*%
%TO.N,Net-(J2-Pad2)*%
X-5080000Y-300000D03*
%TO.P,J3,3*%
%TO.N,Net-(J3-Pad3)*%
X-3810000Y-300000D03*
%TO.P,J3,4*%
%TO.N,Net-(J2-Pad3)*%
X-2540000Y-300000D03*
%TO.P,J3,5*%
%TO.N,Net-(J2-Pad4)*%
X-1270000Y-300000D03*
%TO.P,J3,6*%
%TO.N,Net-(J2-Pad5)*%
X0Y-300000D03*
%TO.P,J3,7*%
%TO.N,Net-(J2-Pad6)*%
X1270000Y-300000D03*
%TO.P,J3,8*%
%TO.N,Net-(J2-Pad7)*%
X2540000Y-300000D03*
%TO.P,J3,9*%
%TO.N,Net-(J2-Pad8)*%
X3810000Y-300000D03*
%TO.P,J3,10*%
%TO.N,/9*%
X5080000Y-300000D03*
%TO.P,J3,11*%
%TO.N,/10*%
X6350000Y-300000D03*
%TO.P,J3,13*%
%TO.N,Net-(J2-Pad15)*%
X-4440000Y800000D03*
%TO.P,J3,14*%
%TO.N,Net-(J2-Pad16)*%
X-3170000Y800000D03*
%TO.P,J3,15*%
%TO.N,Net-(J2-Pad17)*%
X-1900000Y800000D03*
%TO.P,J3,16*%
%TO.N,Net-(J2-Pad18)*%
X-630000Y800000D03*
%TO.P,J3,17*%
%TO.N,Net-(J2-Pad19)*%
X640000Y800000D03*
%TO.P,J3,18*%
%TO.N,Net-(J2-Pad20)*%
X1910000Y800000D03*
%TO.P,J3,19*%
%TO.N,Net-(J2-Pad21)*%
X3180000Y800000D03*
%TO.P,J3,20*%
%TO.N,/22*%
X4450000Y800000D03*
%TO.P,J3,21*%
%TO.N,/23*%
X5720000Y800000D03*
%TD*%
D14*
%TO.P,J1,4*%
%TO.N,Net-(J1-Pad4)*%
X-50250000Y500000D03*
%TO.P,J1,3*%
%TO.N,Net-(J1-Pad3)*%
X-50250000Y-500000D03*
%TO.P,J1,2*%
%TO.N,Net-(J1-Pad2)*%
X-51250000Y500000D03*
D15*
%TO.P,J1,1*%
%TO.N,Net-(J1-Pad1)*%
X-51250000Y-500000D03*
%TD*%
D16*
%TO.N,Net-(J1-Pad4)*%
X-50250000Y500000D02*
X-48210000Y2540000D01*
X-40435000Y1115000D02*
X-41860000Y2540000D01*
X-40435000Y-600000D02*
X-40435000Y1115000D01*
X-48210000Y2540000D02*
X-41860000Y2540000D01*
%TO.N,Net-(J1-Pad3)*%
X-50250000Y-500000D02*
X-48320000Y-2430000D01*
X-48320000Y-2430000D02*
X-40800000Y-2430000D01*
X-39760001Y460001D02*
X-39800000Y500000D01*
X-39760001Y-1390001D02*
X-39760001Y460001D01*
X-40800000Y-2430000D02*
X-39760001Y-1390001D01*
%TO.N,Net-(J1-Pad2)*%
X-41139407Y2720009D02*
X-39165000Y745602D01*
X-39165000Y745602D02*
X-39165000Y-600000D01*
X-49029991Y2720009D02*
X-41139407Y2720009D01*
X-51250000Y500000D02*
X-49029991Y2720009D01*
%TO.N,Net-(J1-Pad1)*%
X-38530000Y-925600D02*
X-38530000Y500000D01*
X-40214410Y-2610010D02*
X-38530000Y-925600D01*
X-49654990Y-2610010D02*
X-40214410Y-2610010D01*
X-51250000Y-1015000D02*
X-49654990Y-2610010D01*
X-51250000Y-500000D02*
X-51250000Y-1015000D01*
%TO.N,Net-(J2-Pad8)*%
X-34720000Y-845602D02*
X-34720000Y500000D01*
X-32715532Y-2850070D02*
X-34720000Y-845602D01*
X1259930Y-2850070D02*
X-32715532Y-2850070D01*
X3810000Y-300000D02*
X1259930Y-2850070D01*
%TO.N,Net-(J2-Pad7)*%
X-31625542Y-2670060D02*
X169940Y-2670060D01*
X-33450000Y-845602D02*
X-31625542Y-2670060D01*
X169940Y-2670060D02*
X2540000Y-300000D01*
X-33450000Y500000D02*
X-33450000Y-845602D01*
%TO.N,Net-(J2-Pad6)*%
X-32180000Y-845602D02*
X-32180000Y500000D01*
X-30535552Y-2490050D02*
X-32180000Y-845602D01*
X-920050Y-2490050D02*
X-30535552Y-2490050D01*
X1270000Y-300000D02*
X-920050Y-2490050D01*
%TO.N,Net-(J2-Pad5)*%
X-30910000Y1150538D02*
X-30900000Y1160538D01*
X-30910000Y500000D02*
X-30910000Y1150538D01*
X-30900000Y1160538D02*
X-30900000Y1400000D01*
X-30900000Y1400000D02*
X-29100000Y3200000D01*
X0Y1130600D02*
X0Y-300000D01*
X-2109429Y3240029D02*
X0Y1130600D01*
X-28014543Y3240029D02*
X-2109429Y3240029D01*
X-28054572Y3200000D02*
X-28014543Y3240029D01*
X-29100000Y3200000D02*
X-28054572Y3200000D01*
%TO.N,Net-(J2-Pad4)*%
X-1270000Y1050602D02*
X-3279417Y3060019D01*
X-1270000Y-300000D02*
X-1270000Y1050602D01*
X-3279417Y3060019D02*
X-27939981Y3060019D01*
X-29640000Y1360000D02*
X-29640000Y500000D01*
X-27939981Y3060019D02*
X-29640000Y1360000D01*
%TO.N,Net-(J2-Pad3)*%
X-2540000Y1050602D02*
X-2540000Y-300000D01*
X-4369407Y2880009D02*
X-2540000Y1050602D01*
X-26819991Y2880009D02*
X-4369407Y2880009D01*
X-28370000Y1330000D02*
X-26819991Y2880009D01*
X-28370000Y500000D02*
X-28370000Y1330000D01*
%TO.N,Net-(J2-Pad2)*%
X-5080000Y-300000D02*
X-5080000Y1480000D01*
X-5080000Y1480000D02*
X-6300000Y2700000D01*
X-24319990Y2680010D02*
X-25719990Y2680010D01*
X-24300000Y2700000D02*
X-24319990Y2680010D01*
X-6300000Y2700000D02*
X-24300000Y2700000D01*
X-27100000Y1300000D02*
X-27100000Y500000D01*
X-25719990Y2680010D02*
X-27100000Y1300000D01*
%TO.N,Net-(J2-Pad1)*%
X-25830000Y500000D02*
X-25830000Y1370000D01*
X-25830000Y1370000D02*
X-24700000Y2500000D01*
X-24700000Y2500000D02*
X-7300000Y2500000D01*
X-6350000Y1550000D02*
X-6350000Y-300000D01*
X-7300000Y2500000D02*
X-6350000Y1550000D01*
D17*
%TO.N,/23*%
X3069961Y3450039D02*
X5720000Y800000D01*
X-57540000Y2000000D02*
X-56089961Y3450039D01*
X-63024999Y3015001D02*
X-64040000Y2000000D01*
X-58555001Y3015001D02*
X-63024999Y3015001D01*
X-57540000Y2000000D02*
X-58555001Y3015001D01*
X-69524999Y3015001D02*
X-70540000Y2000000D01*
X-65055001Y3015001D02*
X-69524999Y3015001D01*
X-64040000Y2000000D02*
X-65055001Y3015001D01*
X-76024999Y3015001D02*
X-77040000Y2000000D01*
X-71555001Y3015001D02*
X-76024999Y3015001D01*
X-70540000Y2000000D02*
X-71555001Y3015001D01*
D16*
X-37895000Y2615078D02*
X-37060039Y3450039D01*
X-37895000Y-600000D02*
X-37895000Y2615078D01*
D17*
X-37060039Y3450039D02*
X3069961Y3450039D01*
X-56089961Y3450039D02*
X-37060039Y3450039D01*
%TO.N,/10*%
X-60484999Y984999D02*
X-61500000Y2000000D01*
X-56015001Y984999D02*
X-60484999Y984999D01*
X-55000000Y2000000D02*
X-56015001Y984999D01*
X-66984999Y984999D02*
X-68000000Y2000000D01*
X-62515001Y984999D02*
X-66984999Y984999D01*
X-61500000Y2000000D02*
X-62515001Y984999D01*
X-73484999Y984999D02*
X-74500000Y2000000D01*
X-69015001Y984999D02*
X-73484999Y984999D01*
X-68000000Y2000000D02*
X-69015001Y984999D01*
%TO.N,/22*%
X-71555001Y-3015001D02*
X-70540000Y-2000000D01*
X-76024999Y-3015001D02*
X-71555001Y-3015001D01*
X-77040000Y-2000000D02*
X-76024999Y-3015001D01*
X-65055001Y-3015001D02*
X-64040000Y-2000000D01*
X-69524999Y-3015001D02*
X-65055001Y-3015001D01*
X-70540000Y-2000000D02*
X-69524999Y-3015001D01*
X-58555001Y-3015001D02*
X-57540000Y-2000000D01*
X-63024999Y-3015001D02*
X-58555001Y-3015001D01*
X-64040000Y-2000000D02*
X-63024999Y-3015001D01*
D16*
X4450000Y800000D02*
X4450000Y-850000D01*
D17*
X4450000Y-850000D02*
X4450000Y-940000D01*
X2329920Y-3060080D02*
X4450000Y-940000D01*
X-57540000Y-2000000D02*
X-56479920Y-3060080D01*
D16*
X-36625000Y-2635000D02*
X-36199920Y-3060080D01*
D17*
X-36199920Y-3060080D02*
X2329920Y-3060080D01*
D16*
X-36625000Y-600000D02*
X-36625000Y-2635000D01*
D17*
X-56479920Y-3060080D02*
X-36199920Y-3060080D01*
%TO.N,/9*%
X-73484999Y-984999D02*
X-74500000Y-2000000D01*
X-69015001Y-984999D02*
X-73484999Y-984999D01*
X-68000000Y-2000000D02*
X-69015001Y-984999D01*
X-66984999Y-984999D02*
X-68000000Y-2000000D01*
X-62515001Y-984999D02*
X-66984999Y-984999D01*
X-61500000Y-2000000D02*
X-62515001Y-984999D01*
X-60484999Y-984999D02*
X-61500000Y-2000000D01*
X-56015001Y-984999D02*
X-60484999Y-984999D01*
X-55000000Y-2000000D02*
X-56015001Y-984999D01*
%TD*%
D18*
%TO.N,GND*%
X-57569004Y3653093D02*
X-57517292Y3648000D01*
X-56460514Y3648000D01*
X-57041163Y3067351D01*
X-57196682Y3131769D01*
X-57424076Y3177000D01*
X-57655924Y3177000D01*
X-57883318Y3131769D01*
X-58038837Y3067351D01*
X-58256778Y3285291D01*
X-58269369Y3300633D01*
X-58330581Y3350869D01*
X-58400418Y3388198D01*
X-58476195Y3411184D01*
X-58535254Y3417001D01*
X-58535262Y3417001D01*
X-58555001Y3418945D01*
X-58574740Y3417001D01*
X-63005260Y3417001D01*
X-63025000Y3418945D01*
X-63044739Y3417001D01*
X-63044746Y3417001D01*
X-63103805Y3411184D01*
X-63179582Y3388198D01*
X-63249419Y3350869D01*
X-63310631Y3300633D01*
X-63323218Y3285296D01*
X-63541163Y3067351D01*
X-63696682Y3131769D01*
X-63924076Y3177000D01*
X-64155924Y3177000D01*
X-64383318Y3131769D01*
X-64538837Y3067351D01*
X-64756778Y3285291D01*
X-64769369Y3300633D01*
X-64830581Y3350869D01*
X-64900418Y3388198D01*
X-64976195Y3411184D01*
X-65035254Y3417001D01*
X-65035262Y3417001D01*
X-65055001Y3418945D01*
X-65074740Y3417001D01*
X-69505260Y3417001D01*
X-69525000Y3418945D01*
X-69544739Y3417001D01*
X-69544746Y3417001D01*
X-69603805Y3411184D01*
X-69679582Y3388198D01*
X-69749419Y3350869D01*
X-69810631Y3300633D01*
X-69823218Y3285296D01*
X-70041163Y3067351D01*
X-70196682Y3131769D01*
X-70424076Y3177000D01*
X-70655924Y3177000D01*
X-70883318Y3131769D01*
X-71038837Y3067351D01*
X-71256778Y3285291D01*
X-71269369Y3300633D01*
X-71330581Y3350869D01*
X-71400418Y3388198D01*
X-71476195Y3411184D01*
X-71535254Y3417001D01*
X-71535262Y3417001D01*
X-71555001Y3418945D01*
X-71574740Y3417001D01*
X-76005260Y3417001D01*
X-76025000Y3418945D01*
X-76044739Y3417001D01*
X-76044746Y3417001D01*
X-76103805Y3411184D01*
X-76179582Y3388198D01*
X-76249419Y3350869D01*
X-76310631Y3300633D01*
X-76323218Y3285296D01*
X-76541163Y3067351D01*
X-76696682Y3131769D01*
X-76924076Y3177000D01*
X-77155924Y3177000D01*
X-77383318Y3131769D01*
X-77597519Y3043044D01*
X-77790294Y2914236D01*
X-77954236Y2750294D01*
X-78083044Y2557519D01*
X-78171769Y2343318D01*
X-78217000Y2115924D01*
X-78217000Y1884076D01*
X-78171769Y1656682D01*
X-78083044Y1442481D01*
X-77954236Y1249706D01*
X-77790294Y1085764D01*
X-77597519Y956956D01*
X-77383318Y868231D01*
X-77155924Y823000D01*
X-76924076Y823000D01*
X-76696682Y868231D01*
X-76482481Y956956D01*
X-76289706Y1085764D01*
X-76125764Y1249706D01*
X-75996956Y1442481D01*
X-75908231Y1656682D01*
X-75863000Y1884076D01*
X-75863000Y2115924D01*
X-75908231Y2343318D01*
X-75972649Y2498837D01*
X-75858485Y2613001D01*
X-75678582Y2613001D01*
X-75678582Y1150000D01*
X-75672268Y1085897D01*
X-75653570Y1024257D01*
X-75623206Y967450D01*
X-75582343Y917657D01*
X-75532550Y876794D01*
X-75475743Y846430D01*
X-75414103Y827732D01*
X-75350000Y821418D01*
X-73889932Y821418D01*
X-73783218Y714704D01*
X-73770631Y699367D01*
X-73709419Y649131D01*
X-73639582Y611802D01*
X-73563805Y588816D01*
X-73504746Y582999D01*
X-73504739Y582999D01*
X-73485000Y581055D01*
X-73465260Y582999D01*
X-69034740Y582999D01*
X-69015001Y581055D01*
X-68995262Y582999D01*
X-68995254Y582999D01*
X-68936195Y588816D01*
X-68860418Y611802D01*
X-68790581Y649131D01*
X-68729369Y699367D01*
X-68716778Y714709D01*
X-68610069Y821418D01*
X-67389932Y821418D01*
X-67283218Y714704D01*
X-67270631Y699367D01*
X-67209419Y649131D01*
X-67139582Y611802D01*
X-67063805Y588816D01*
X-67004746Y582999D01*
X-67004739Y582999D01*
X-66985000Y581055D01*
X-66965260Y582999D01*
X-62534740Y582999D01*
X-62515001Y581055D01*
X-62495262Y582999D01*
X-62495254Y582999D01*
X-62436195Y588816D01*
X-62360418Y611802D01*
X-62290581Y649131D01*
X-62229369Y699367D01*
X-62216778Y714709D01*
X-62110069Y821418D01*
X-60889932Y821418D01*
X-60783218Y714704D01*
X-60770631Y699367D01*
X-60709419Y649131D01*
X-60639582Y611802D01*
X-60563805Y588816D01*
X-60504746Y582999D01*
X-60504739Y582999D01*
X-60485000Y581055D01*
X-60465260Y582999D01*
X-56034740Y582999D01*
X-56015001Y581055D01*
X-55995262Y582999D01*
X-55995254Y582999D01*
X-55936195Y588816D01*
X-55860418Y611802D01*
X-55790581Y649131D01*
X-55729369Y699367D01*
X-55716778Y714709D01*
X-55610069Y821418D01*
X-54150000Y821418D01*
X-54085897Y827732D01*
X-54024257Y846430D01*
X-53967450Y876794D01*
X-53917657Y917657D01*
X-53876794Y967450D01*
X-53846430Y1024257D01*
X-53827732Y1085897D01*
X-53821418Y1150000D01*
X-53821418Y2850000D01*
X-53827732Y2914103D01*
X-53846430Y2975743D01*
X-53876794Y3032550D01*
X-53889505Y3048039D01*
X-49205433Y3048039D01*
X-49237663Y3030812D01*
X-49294307Y2984325D01*
X-49305955Y2970132D01*
X-51049280Y1226807D01*
X-51175934Y1252000D01*
X-51324066Y1252000D01*
X-51469350Y1223101D01*
X-51606206Y1166414D01*
X-51729372Y1084117D01*
X-51834117Y979372D01*
X-51916414Y856206D01*
X-51973101Y719350D01*
X-52002000Y574066D01*
X-52002000Y425934D01*
X-51973101Y280650D01*
X-51917101Y145453D01*
X-51948206Y107550D01*
X-51978570Y50743D01*
X-51997268Y-10897D01*
X-52003582Y-75000D01*
X-52003582Y-925000D01*
X-51997268Y-989103D01*
X-51978570Y-1050743D01*
X-51948206Y-1107550D01*
X-51907343Y-1157343D01*
X-51857550Y-1198206D01*
X-51800743Y-1228570D01*
X-51739103Y-1247268D01*
X-51675000Y-1253582D01*
X-51535435Y-1253582D01*
X-51534030Y-1255293D01*
X-51514315Y-1279316D01*
X-51500128Y-1290959D01*
X-50133007Y-2658080D01*
X-53821418Y-2658080D01*
X-53821418Y-1150000D01*
X-53827732Y-1085897D01*
X-53846430Y-1024257D01*
X-53876794Y-967450D01*
X-53917657Y-917657D01*
X-53967450Y-876794D01*
X-54024257Y-846430D01*
X-54085897Y-827732D01*
X-54150000Y-821418D01*
X-55610069Y-821418D01*
X-55716778Y-714709D01*
X-55729369Y-699367D01*
X-55790581Y-649131D01*
X-55860418Y-611802D01*
X-55936195Y-588816D01*
X-55995254Y-582999D01*
X-55995262Y-582999D01*
X-56015001Y-581055D01*
X-56034740Y-582999D01*
X-60465260Y-582999D01*
X-60485000Y-581055D01*
X-60504739Y-582999D01*
X-60504746Y-582999D01*
X-60563805Y-588816D01*
X-60639582Y-611802D01*
X-60709419Y-649131D01*
X-60770631Y-699367D01*
X-60783218Y-714704D01*
X-60889932Y-821418D01*
X-62110069Y-821418D01*
X-62216778Y-714709D01*
X-62229369Y-699367D01*
X-62290581Y-649131D01*
X-62360418Y-611802D01*
X-62436195Y-588816D01*
X-62495254Y-582999D01*
X-62495262Y-582999D01*
X-62515001Y-581055D01*
X-62534740Y-582999D01*
X-66965260Y-582999D01*
X-66985000Y-581055D01*
X-67004739Y-582999D01*
X-67004746Y-582999D01*
X-67063805Y-588816D01*
X-67139582Y-611802D01*
X-67209419Y-649131D01*
X-67270631Y-699367D01*
X-67283218Y-714704D01*
X-67389932Y-821418D01*
X-68610069Y-821418D01*
X-68716778Y-714709D01*
X-68729369Y-699367D01*
X-68790581Y-649131D01*
X-68860418Y-611802D01*
X-68936195Y-588816D01*
X-68995254Y-582999D01*
X-68995262Y-582999D01*
X-69015001Y-581055D01*
X-69034740Y-582999D01*
X-73465260Y-582999D01*
X-73485000Y-581055D01*
X-73504739Y-582999D01*
X-73504746Y-582999D01*
X-73563805Y-588816D01*
X-73639582Y-611802D01*
X-73709419Y-649131D01*
X-73770631Y-699367D01*
X-73783218Y-714704D01*
X-73889932Y-821418D01*
X-75350000Y-821418D01*
X-75414103Y-827732D01*
X-75475743Y-846430D01*
X-75532550Y-876794D01*
X-75582343Y-917657D01*
X-75623206Y-967450D01*
X-75653570Y-1024257D01*
X-75672268Y-1085897D01*
X-75678582Y-1150000D01*
X-75678582Y-2613001D01*
X-75858485Y-2613001D01*
X-75972649Y-2498837D01*
X-75908231Y-2343318D01*
X-75863000Y-2115924D01*
X-75863000Y-1884076D01*
X-75908231Y-1656682D01*
X-75996956Y-1442481D01*
X-76125764Y-1249706D01*
X-76289706Y-1085764D01*
X-76482481Y-956956D01*
X-76696682Y-868231D01*
X-76924076Y-823000D01*
X-77155924Y-823000D01*
X-77383318Y-868231D01*
X-77597519Y-956956D01*
X-77790294Y-1085764D01*
X-77954236Y-1249706D01*
X-78083044Y-1442481D01*
X-78171769Y-1656682D01*
X-78217000Y-1884076D01*
X-78217000Y-2115924D01*
X-78171769Y-2343318D01*
X-78083044Y-2557519D01*
X-77954236Y-2750294D01*
X-77790294Y-2914236D01*
X-77597519Y-3043044D01*
X-77383318Y-3131769D01*
X-77155924Y-3177000D01*
X-76924076Y-3177000D01*
X-76696682Y-3131769D01*
X-76541163Y-3067351D01*
X-76323218Y-3285296D01*
X-76310631Y-3300633D01*
X-76249419Y-3350869D01*
X-76179582Y-3388198D01*
X-76103805Y-3411184D01*
X-76044746Y-3417001D01*
X-76044739Y-3417001D01*
X-76025000Y-3418945D01*
X-76005260Y-3417001D01*
X-71574740Y-3417001D01*
X-71555001Y-3418945D01*
X-71535262Y-3417001D01*
X-71535254Y-3417001D01*
X-71476195Y-3411184D01*
X-71400418Y-3388198D01*
X-71330581Y-3350869D01*
X-71269369Y-3300633D01*
X-71256778Y-3285291D01*
X-71038837Y-3067351D01*
X-70883318Y-3131769D01*
X-70655924Y-3177000D01*
X-70424076Y-3177000D01*
X-70196682Y-3131769D01*
X-70041163Y-3067351D01*
X-69823218Y-3285296D01*
X-69810631Y-3300633D01*
X-69749419Y-3350869D01*
X-69679582Y-3388198D01*
X-69603805Y-3411184D01*
X-69544746Y-3417001D01*
X-69544739Y-3417001D01*
X-69525000Y-3418945D01*
X-69505260Y-3417001D01*
X-65074740Y-3417001D01*
X-65055001Y-3418945D01*
X-65035262Y-3417001D01*
X-65035254Y-3417001D01*
X-64976195Y-3411184D01*
X-64900418Y-3388198D01*
X-64830581Y-3350869D01*
X-64769369Y-3300633D01*
X-64756778Y-3285291D01*
X-64538837Y-3067351D01*
X-64383318Y-3131769D01*
X-64155924Y-3177000D01*
X-63924076Y-3177000D01*
X-63696682Y-3131769D01*
X-63541163Y-3067351D01*
X-63323218Y-3285296D01*
X-63310631Y-3300633D01*
X-63249419Y-3350869D01*
X-63179582Y-3388198D01*
X-63103805Y-3411184D01*
X-63044746Y-3417001D01*
X-63044739Y-3417001D01*
X-63025000Y-3418945D01*
X-63005260Y-3417001D01*
X-58574740Y-3417001D01*
X-58555001Y-3418945D01*
X-58535262Y-3417001D01*
X-58535254Y-3417001D01*
X-58476195Y-3411184D01*
X-58400418Y-3388198D01*
X-58330581Y-3350869D01*
X-58269369Y-3300633D01*
X-58256778Y-3285291D01*
X-58038837Y-3067351D01*
X-57883318Y-3131769D01*
X-57655924Y-3177000D01*
X-57424076Y-3177000D01*
X-57196682Y-3131769D01*
X-57041163Y-3067351D01*
X-56778139Y-3330375D01*
X-56765552Y-3345712D01*
X-56750216Y-3358298D01*
X-56750214Y-3358300D01*
X-56704340Y-3395948D01*
X-56634504Y-3433277D01*
X-56558726Y-3456263D01*
X-56499667Y-3462080D01*
X-56499660Y-3462080D01*
X-56479920Y-3464024D01*
X-56460181Y-3462080D01*
X2310181Y-3462080D01*
X2329920Y-3464024D01*
X2349659Y-3462080D01*
X2349667Y-3462080D01*
X2408726Y-3456263D01*
X2484503Y-3433277D01*
X2554340Y-3395948D01*
X2615552Y-3345712D01*
X2628143Y-3330370D01*
X4720295Y-1238219D01*
X4735632Y-1225632D01*
X4771170Y-1182330D01*
X4785868Y-1164420D01*
X4823196Y-1094584D01*
X4825217Y-1087924D01*
X4836431Y-1050953D01*
X4850441Y-1056756D01*
X5002487Y-1087000D01*
X5157513Y-1087000D01*
X5309559Y-1056756D01*
X5452784Y-997430D01*
X5581683Y-911303D01*
X5691303Y-801683D01*
X5715000Y-766218D01*
X5738697Y-801683D01*
X5848317Y-911303D01*
X5977216Y-997430D01*
X6120441Y-1056756D01*
X6272487Y-1087000D01*
X6427513Y-1087000D01*
X6579559Y-1056756D01*
X6722784Y-997430D01*
X6851683Y-911303D01*
X6961303Y-801683D01*
X7047430Y-672784D01*
X7106756Y-529559D01*
X7137000Y-377513D01*
X7137000Y-222487D01*
X7106756Y-70441D01*
X7047430Y72784D01*
X6961303Y201683D01*
X6851683Y311303D01*
X6722784Y397430D01*
X6579559Y456756D01*
X6441076Y484302D01*
X6476756Y570441D01*
X6507000Y722487D01*
X6507000Y877513D01*
X6476756Y1029559D01*
X6417430Y1172784D01*
X6331303Y1301683D01*
X6221683Y1411303D01*
X6092784Y1497430D01*
X5949559Y1556756D01*
X5797513Y1587000D01*
X5642487Y1587000D01*
X5524903Y1563611D01*
X3440513Y3648000D01*
X13648000Y3648000D01*
X13648001Y-3898000D01*
X-57517292Y-3898000D01*
X-57569004Y-3903093D01*
X-57618145Y-3918000D01*
X-78898000Y-3918000D01*
X-78898000Y3668000D01*
X-57618145Y3668000D01*
X-57569004Y3653093D01*
%TA.AperFunction,Conductor*%
D19*
G36*
X-57569004Y3653093D02*
G01*
X-57517292Y3648000D01*
X-56460514Y3648000D01*
X-57041163Y3067351D01*
X-57196682Y3131769D01*
X-57424076Y3177000D01*
X-57655924Y3177000D01*
X-57883318Y3131769D01*
X-58038837Y3067351D01*
X-58256778Y3285291D01*
X-58269369Y3300633D01*
X-58330581Y3350869D01*
X-58400418Y3388198D01*
X-58476195Y3411184D01*
X-58535254Y3417001D01*
X-58535262Y3417001D01*
X-58555001Y3418945D01*
X-58574740Y3417001D01*
X-63005260Y3417001D01*
X-63025000Y3418945D01*
X-63044739Y3417001D01*
X-63044746Y3417001D01*
X-63103805Y3411184D01*
X-63179582Y3388198D01*
X-63249419Y3350869D01*
X-63310631Y3300633D01*
X-63323218Y3285296D01*
X-63541163Y3067351D01*
X-63696682Y3131769D01*
X-63924076Y3177000D01*
X-64155924Y3177000D01*
X-64383318Y3131769D01*
X-64538837Y3067351D01*
X-64756778Y3285291D01*
X-64769369Y3300633D01*
X-64830581Y3350869D01*
X-64900418Y3388198D01*
X-64976195Y3411184D01*
X-65035254Y3417001D01*
X-65035262Y3417001D01*
X-65055001Y3418945D01*
X-65074740Y3417001D01*
X-69505260Y3417001D01*
X-69525000Y3418945D01*
X-69544739Y3417001D01*
X-69544746Y3417001D01*
X-69603805Y3411184D01*
X-69679582Y3388198D01*
X-69749419Y3350869D01*
X-69810631Y3300633D01*
X-69823218Y3285296D01*
X-70041163Y3067351D01*
X-70196682Y3131769D01*
X-70424076Y3177000D01*
X-70655924Y3177000D01*
X-70883318Y3131769D01*
X-71038837Y3067351D01*
X-71256778Y3285291D01*
X-71269369Y3300633D01*
X-71330581Y3350869D01*
X-71400418Y3388198D01*
X-71476195Y3411184D01*
X-71535254Y3417001D01*
X-71535262Y3417001D01*
X-71555001Y3418945D01*
X-71574740Y3417001D01*
X-76005260Y3417001D01*
X-76025000Y3418945D01*
X-76044739Y3417001D01*
X-76044746Y3417001D01*
X-76103805Y3411184D01*
X-76179582Y3388198D01*
X-76249419Y3350869D01*
X-76310631Y3300633D01*
X-76323218Y3285296D01*
X-76541163Y3067351D01*
X-76696682Y3131769D01*
X-76924076Y3177000D01*
X-77155924Y3177000D01*
X-77383318Y3131769D01*
X-77597519Y3043044D01*
X-77790294Y2914236D01*
X-77954236Y2750294D01*
X-78083044Y2557519D01*
X-78171769Y2343318D01*
X-78217000Y2115924D01*
X-78217000Y1884076D01*
X-78171769Y1656682D01*
X-78083044Y1442481D01*
X-77954236Y1249706D01*
X-77790294Y1085764D01*
X-77597519Y956956D01*
X-77383318Y868231D01*
X-77155924Y823000D01*
X-76924076Y823000D01*
X-76696682Y868231D01*
X-76482481Y956956D01*
X-76289706Y1085764D01*
X-76125764Y1249706D01*
X-75996956Y1442481D01*
X-75908231Y1656682D01*
X-75863000Y1884076D01*
X-75863000Y2115924D01*
X-75908231Y2343318D01*
X-75972649Y2498837D01*
X-75858485Y2613001D01*
X-75678582Y2613001D01*
X-75678582Y1150000D01*
X-75672268Y1085897D01*
X-75653570Y1024257D01*
X-75623206Y967450D01*
X-75582343Y917657D01*
X-75532550Y876794D01*
X-75475743Y846430D01*
X-75414103Y827732D01*
X-75350000Y821418D01*
X-73889932Y821418D01*
X-73783218Y714704D01*
X-73770631Y699367D01*
X-73709419Y649131D01*
X-73639582Y611802D01*
X-73563805Y588816D01*
X-73504746Y582999D01*
X-73504739Y582999D01*
X-73485000Y581055D01*
X-73465260Y582999D01*
X-69034740Y582999D01*
X-69015001Y581055D01*
X-68995262Y582999D01*
X-68995254Y582999D01*
X-68936195Y588816D01*
X-68860418Y611802D01*
X-68790581Y649131D01*
X-68729369Y699367D01*
X-68716778Y714709D01*
X-68610069Y821418D01*
X-67389932Y821418D01*
X-67283218Y714704D01*
X-67270631Y699367D01*
X-67209419Y649131D01*
X-67139582Y611802D01*
X-67063805Y588816D01*
X-67004746Y582999D01*
X-67004739Y582999D01*
X-66985000Y581055D01*
X-66965260Y582999D01*
X-62534740Y582999D01*
X-62515001Y581055D01*
X-62495262Y582999D01*
X-62495254Y582999D01*
X-62436195Y588816D01*
X-62360418Y611802D01*
X-62290581Y649131D01*
X-62229369Y699367D01*
X-62216778Y714709D01*
X-62110069Y821418D01*
X-60889932Y821418D01*
X-60783218Y714704D01*
X-60770631Y699367D01*
X-60709419Y649131D01*
X-60639582Y611802D01*
X-60563805Y588816D01*
X-60504746Y582999D01*
X-60504739Y582999D01*
X-60485000Y581055D01*
X-60465260Y582999D01*
X-56034740Y582999D01*
X-56015001Y581055D01*
X-55995262Y582999D01*
X-55995254Y582999D01*
X-55936195Y588816D01*
X-55860418Y611802D01*
X-55790581Y649131D01*
X-55729369Y699367D01*
X-55716778Y714709D01*
X-55610069Y821418D01*
X-54150000Y821418D01*
X-54085897Y827732D01*
X-54024257Y846430D01*
X-53967450Y876794D01*
X-53917657Y917657D01*
X-53876794Y967450D01*
X-53846430Y1024257D01*
X-53827732Y1085897D01*
X-53821418Y1150000D01*
X-53821418Y2850000D01*
X-53827732Y2914103D01*
X-53846430Y2975743D01*
X-53876794Y3032550D01*
X-53889505Y3048039D01*
X-49205433Y3048039D01*
X-49237663Y3030812D01*
X-49294307Y2984325D01*
X-49305955Y2970132D01*
X-51049280Y1226807D01*
X-51175934Y1252000D01*
X-51324066Y1252000D01*
X-51469350Y1223101D01*
X-51606206Y1166414D01*
X-51729372Y1084117D01*
X-51834117Y979372D01*
X-51916414Y856206D01*
X-51973101Y719350D01*
X-52002000Y574066D01*
X-52002000Y425934D01*
X-51973101Y280650D01*
X-51917101Y145453D01*
X-51948206Y107550D01*
X-51978570Y50743D01*
X-51997268Y-10897D01*
X-52003582Y-75000D01*
X-52003582Y-925000D01*
X-51997268Y-989103D01*
X-51978570Y-1050743D01*
X-51948206Y-1107550D01*
X-51907343Y-1157343D01*
X-51857550Y-1198206D01*
X-51800743Y-1228570D01*
X-51739103Y-1247268D01*
X-51675000Y-1253582D01*
X-51535435Y-1253582D01*
X-51534030Y-1255293D01*
X-51514315Y-1279316D01*
X-51500128Y-1290959D01*
X-50133007Y-2658080D01*
X-53821418Y-2658080D01*
X-53821418Y-1150000D01*
X-53827732Y-1085897D01*
X-53846430Y-1024257D01*
X-53876794Y-967450D01*
X-53917657Y-917657D01*
X-53967450Y-876794D01*
X-54024257Y-846430D01*
X-54085897Y-827732D01*
X-54150000Y-821418D01*
X-55610069Y-821418D01*
X-55716778Y-714709D01*
X-55729369Y-699367D01*
X-55790581Y-649131D01*
X-55860418Y-611802D01*
X-55936195Y-588816D01*
X-55995254Y-582999D01*
X-55995262Y-582999D01*
X-56015001Y-581055D01*
X-56034740Y-582999D01*
X-60465260Y-582999D01*
X-60485000Y-581055D01*
X-60504739Y-582999D01*
X-60504746Y-582999D01*
X-60563805Y-588816D01*
X-60639582Y-611802D01*
X-60709419Y-649131D01*
X-60770631Y-699367D01*
X-60783218Y-714704D01*
X-60889932Y-821418D01*
X-62110069Y-821418D01*
X-62216778Y-714709D01*
X-62229369Y-699367D01*
X-62290581Y-649131D01*
X-62360418Y-611802D01*
X-62436195Y-588816D01*
X-62495254Y-582999D01*
X-62495262Y-582999D01*
X-62515001Y-581055D01*
X-62534740Y-582999D01*
X-66965260Y-582999D01*
X-66985000Y-581055D01*
X-67004739Y-582999D01*
X-67004746Y-582999D01*
X-67063805Y-588816D01*
X-67139582Y-611802D01*
X-67209419Y-649131D01*
X-67270631Y-699367D01*
X-67283218Y-714704D01*
X-67389932Y-821418D01*
X-68610069Y-821418D01*
X-68716778Y-714709D01*
X-68729369Y-699367D01*
X-68790581Y-649131D01*
X-68860418Y-611802D01*
X-68936195Y-588816D01*
X-68995254Y-582999D01*
X-68995262Y-582999D01*
X-69015001Y-581055D01*
X-69034740Y-582999D01*
X-73465260Y-582999D01*
X-73485000Y-581055D01*
X-73504739Y-582999D01*
X-73504746Y-582999D01*
X-73563805Y-588816D01*
X-73639582Y-611802D01*
X-73709419Y-649131D01*
X-73770631Y-699367D01*
X-73783218Y-714704D01*
X-73889932Y-821418D01*
X-75350000Y-821418D01*
X-75414103Y-827732D01*
X-75475743Y-846430D01*
X-75532550Y-876794D01*
X-75582343Y-917657D01*
X-75623206Y-967450D01*
X-75653570Y-1024257D01*
X-75672268Y-1085897D01*
X-75678582Y-1150000D01*
X-75678582Y-2613001D01*
X-75858485Y-2613001D01*
X-75972649Y-2498837D01*
X-75908231Y-2343318D01*
X-75863000Y-2115924D01*
X-75863000Y-1884076D01*
X-75908231Y-1656682D01*
X-75996956Y-1442481D01*
X-76125764Y-1249706D01*
X-76289706Y-1085764D01*
X-76482481Y-956956D01*
X-76696682Y-868231D01*
X-76924076Y-823000D01*
X-77155924Y-823000D01*
X-77383318Y-868231D01*
X-77597519Y-956956D01*
X-77790294Y-1085764D01*
X-77954236Y-1249706D01*
X-78083044Y-1442481D01*
X-78171769Y-1656682D01*
X-78217000Y-1884076D01*
X-78217000Y-2115924D01*
X-78171769Y-2343318D01*
X-78083044Y-2557519D01*
X-77954236Y-2750294D01*
X-77790294Y-2914236D01*
X-77597519Y-3043044D01*
X-77383318Y-3131769D01*
X-77155924Y-3177000D01*
X-76924076Y-3177000D01*
X-76696682Y-3131769D01*
X-76541163Y-3067351D01*
X-76323218Y-3285296D01*
X-76310631Y-3300633D01*
X-76249419Y-3350869D01*
X-76179582Y-3388198D01*
X-76103805Y-3411184D01*
X-76044746Y-3417001D01*
X-76044739Y-3417001D01*
X-76025000Y-3418945D01*
X-76005260Y-3417001D01*
X-71574740Y-3417001D01*
X-71555001Y-3418945D01*
X-71535262Y-3417001D01*
X-71535254Y-3417001D01*
X-71476195Y-3411184D01*
X-71400418Y-3388198D01*
X-71330581Y-3350869D01*
X-71269369Y-3300633D01*
X-71256778Y-3285291D01*
X-71038837Y-3067351D01*
X-70883318Y-3131769D01*
X-70655924Y-3177000D01*
X-70424076Y-3177000D01*
X-70196682Y-3131769D01*
X-70041163Y-3067351D01*
X-69823218Y-3285296D01*
X-69810631Y-3300633D01*
X-69749419Y-3350869D01*
X-69679582Y-3388198D01*
X-69603805Y-3411184D01*
X-69544746Y-3417001D01*
X-69544739Y-3417001D01*
X-69525000Y-3418945D01*
X-69505260Y-3417001D01*
X-65074740Y-3417001D01*
X-65055001Y-3418945D01*
X-65035262Y-3417001D01*
X-65035254Y-3417001D01*
X-64976195Y-3411184D01*
X-64900418Y-3388198D01*
X-64830581Y-3350869D01*
X-64769369Y-3300633D01*
X-64756778Y-3285291D01*
X-64538837Y-3067351D01*
X-64383318Y-3131769D01*
X-64155924Y-3177000D01*
X-63924076Y-3177000D01*
X-63696682Y-3131769D01*
X-63541163Y-3067351D01*
X-63323218Y-3285296D01*
X-63310631Y-3300633D01*
X-63249419Y-3350869D01*
X-63179582Y-3388198D01*
X-63103805Y-3411184D01*
X-63044746Y-3417001D01*
X-63044739Y-3417001D01*
X-63025000Y-3418945D01*
X-63005260Y-3417001D01*
X-58574740Y-3417001D01*
X-58555001Y-3418945D01*
X-58535262Y-3417001D01*
X-58535254Y-3417001D01*
X-58476195Y-3411184D01*
X-58400418Y-3388198D01*
X-58330581Y-3350869D01*
X-58269369Y-3300633D01*
X-58256778Y-3285291D01*
X-58038837Y-3067351D01*
X-57883318Y-3131769D01*
X-57655924Y-3177000D01*
X-57424076Y-3177000D01*
X-57196682Y-3131769D01*
X-57041163Y-3067351D01*
X-56778139Y-3330375D01*
X-56765552Y-3345712D01*
X-56750216Y-3358298D01*
X-56750214Y-3358300D01*
X-56704340Y-3395948D01*
X-56634504Y-3433277D01*
X-56558726Y-3456263D01*
X-56499667Y-3462080D01*
X-56499660Y-3462080D01*
X-56479920Y-3464024D01*
X-56460181Y-3462080D01*
X2310181Y-3462080D01*
X2329920Y-3464024D01*
X2349659Y-3462080D01*
X2349667Y-3462080D01*
X2408726Y-3456263D01*
X2484503Y-3433277D01*
X2554340Y-3395948D01*
X2615552Y-3345712D01*
X2628143Y-3330370D01*
X4720295Y-1238219D01*
X4735632Y-1225632D01*
X4771170Y-1182330D01*
X4785868Y-1164420D01*
X4823196Y-1094584D01*
X4825217Y-1087924D01*
X4836431Y-1050953D01*
X4850441Y-1056756D01*
X5002487Y-1087000D01*
X5157513Y-1087000D01*
X5309559Y-1056756D01*
X5452784Y-997430D01*
X5581683Y-911303D01*
X5691303Y-801683D01*
X5715000Y-766218D01*
X5738697Y-801683D01*
X5848317Y-911303D01*
X5977216Y-997430D01*
X6120441Y-1056756D01*
X6272487Y-1087000D01*
X6427513Y-1087000D01*
X6579559Y-1056756D01*
X6722784Y-997430D01*
X6851683Y-911303D01*
X6961303Y-801683D01*
X7047430Y-672784D01*
X7106756Y-529559D01*
X7137000Y-377513D01*
X7137000Y-222487D01*
X7106756Y-70441D01*
X7047430Y72784D01*
X6961303Y201683D01*
X6851683Y311303D01*
X6722784Y397430D01*
X6579559Y456756D01*
X6441076Y484302D01*
X6476756Y570441D01*
X6507000Y722487D01*
X6507000Y877513D01*
X6476756Y1029559D01*
X6417430Y1172784D01*
X6331303Y1301683D01*
X6221683Y1411303D01*
X6092784Y1497430D01*
X5949559Y1556756D01*
X5797513Y1587000D01*
X5642487Y1587000D01*
X5524903Y1563611D01*
X3440513Y3648000D01*
X13648000Y3648000D01*
X13648001Y-3898000D01*
X-57517292Y-3898000D01*
X-57569004Y-3903093D01*
X-57618145Y-3918000D01*
X-78898000Y-3918000D01*
X-78898000Y3668000D01*
X-57618145Y3668000D01*
X-57569004Y3653093D01*
G37*
%TD.AperFunction*%
D18*
X-6722000Y1395913D02*
X-6721999Y397755D01*
X-6722784Y397430D01*
X-6851683Y311303D01*
X-6961303Y201683D01*
X-7047430Y72784D01*
X-7106756Y-70441D01*
X-7137000Y-222487D01*
X-7137000Y-377513D01*
X-7106756Y-529559D01*
X-7047430Y-672784D01*
X-6961303Y-801683D01*
X-6851683Y-911303D01*
X-6722784Y-997430D01*
X-6579559Y-1056756D01*
X-6427513Y-1087000D01*
X-6272487Y-1087000D01*
X-6120441Y-1056756D01*
X-5977216Y-997430D01*
X-5848317Y-911303D01*
X-5738697Y-801683D01*
X-5715000Y-766218D01*
X-5691303Y-801683D01*
X-5581683Y-911303D01*
X-5452784Y-997430D01*
X-5309559Y-1056756D01*
X-5157513Y-1087000D01*
X-5002487Y-1087000D01*
X-4850441Y-1056756D01*
X-4707216Y-997430D01*
X-4578317Y-911303D01*
X-4468697Y-801683D01*
X-4445000Y-766218D01*
X-4421303Y-801683D01*
X-4311683Y-911303D01*
X-4182784Y-997430D01*
X-4039559Y-1056756D01*
X-3887513Y-1087000D01*
X-3732487Y-1087000D01*
X-3580441Y-1056756D01*
X-3437216Y-997430D01*
X-3308317Y-911303D01*
X-3198697Y-801683D01*
X-3175000Y-766218D01*
X-3151303Y-801683D01*
X-3041683Y-911303D01*
X-2912784Y-997430D01*
X-2769559Y-1056756D01*
X-2617513Y-1087000D01*
X-2462487Y-1087000D01*
X-2310441Y-1056756D01*
X-2167216Y-997430D01*
X-2038317Y-911303D01*
X-1928697Y-801683D01*
X-1905000Y-766218D01*
X-1881303Y-801683D01*
X-1771683Y-911303D01*
X-1642784Y-997430D01*
X-1499559Y-1056756D01*
X-1347513Y-1087000D01*
X-1192487Y-1087000D01*
X-1040441Y-1056756D01*
X-897216Y-997430D01*
X-768317Y-911303D01*
X-658697Y-801683D01*
X-635000Y-766218D01*
X-611303Y-801683D01*
X-501683Y-911303D01*
X-372784Y-997430D01*
X-229559Y-1056756D01*
X-77513Y-1087000D01*
X-43088Y-1087000D01*
X-1074137Y-2118050D01*
X-30381465Y-2118050D01*
X-31193337Y-1306178D01*
X-31172216Y-1297430D01*
X-31043317Y-1211303D01*
X-30933697Y-1101683D01*
X-30910000Y-1066218D01*
X-30886303Y-1101683D01*
X-30776683Y-1211303D01*
X-30647784Y-1297430D01*
X-30504559Y-1356756D01*
X-30352513Y-1387000D01*
X-30197487Y-1387000D01*
X-30045441Y-1356756D01*
X-29902216Y-1297430D01*
X-29773317Y-1211303D01*
X-29663697Y-1101683D01*
X-29640000Y-1066218D01*
X-29616303Y-1101683D01*
X-29506683Y-1211303D01*
X-29377784Y-1297430D01*
X-29234559Y-1356756D01*
X-29082513Y-1387000D01*
X-28927487Y-1387000D01*
X-28775441Y-1356756D01*
X-28632216Y-1297430D01*
X-28503317Y-1211303D01*
X-28393697Y-1101683D01*
X-28370000Y-1066218D01*
X-28346303Y-1101683D01*
X-28236683Y-1211303D01*
X-28107784Y-1297430D01*
X-27964559Y-1356756D01*
X-27812513Y-1387000D01*
X-27657487Y-1387000D01*
X-27505441Y-1356756D01*
X-27362216Y-1297430D01*
X-27233317Y-1211303D01*
X-27123697Y-1101683D01*
X-27100000Y-1066218D01*
X-27076303Y-1101683D01*
X-26966683Y-1211303D01*
X-26837784Y-1297430D01*
X-26694559Y-1356756D01*
X-26542513Y-1387000D01*
X-26387487Y-1387000D01*
X-26235441Y-1356756D01*
X-26092216Y-1297430D01*
X-25963317Y-1211303D01*
X-25853697Y-1101683D01*
X-25767570Y-972784D01*
X-25708244Y-829559D01*
X-25678000Y-677513D01*
X-25678000Y-522487D01*
X-25708244Y-370441D01*
X-25743543Y-285221D01*
X-25600441Y-256756D01*
X-25457216Y-197430D01*
X-25328317Y-111303D01*
X-25218697Y-1683D01*
X-25132570Y127216D01*
X-25073244Y270441D01*
X-25043000Y422487D01*
X-25043000Y577513D01*
X-25073244Y729559D01*
X-25132570Y872784D01*
X-25218697Y1001683D01*
X-25328317Y1111303D01*
X-25457216Y1197430D01*
X-25458000Y1197755D01*
X-25458000Y1215913D01*
X-24545912Y2128000D01*
X-7454087Y2128000D01*
X-6722000Y1395913D01*
%TA.AperFunction,Conductor*%
D19*
G36*
X-6722000Y1395913D02*
G01*
X-6721999Y397755D01*
X-6722784Y397430D01*
X-6851683Y311303D01*
X-6961303Y201683D01*
X-7047430Y72784D01*
X-7106756Y-70441D01*
X-7137000Y-222487D01*
X-7137000Y-377513D01*
X-7106756Y-529559D01*
X-7047430Y-672784D01*
X-6961303Y-801683D01*
X-6851683Y-911303D01*
X-6722784Y-997430D01*
X-6579559Y-1056756D01*
X-6427513Y-1087000D01*
X-6272487Y-1087000D01*
X-6120441Y-1056756D01*
X-5977216Y-997430D01*
X-5848317Y-911303D01*
X-5738697Y-801683D01*
X-5715000Y-766218D01*
X-5691303Y-801683D01*
X-5581683Y-911303D01*
X-5452784Y-997430D01*
X-5309559Y-1056756D01*
X-5157513Y-1087000D01*
X-5002487Y-1087000D01*
X-4850441Y-1056756D01*
X-4707216Y-997430D01*
X-4578317Y-911303D01*
X-4468697Y-801683D01*
X-4445000Y-766218D01*
X-4421303Y-801683D01*
X-4311683Y-911303D01*
X-4182784Y-997430D01*
X-4039559Y-1056756D01*
X-3887513Y-1087000D01*
X-3732487Y-1087000D01*
X-3580441Y-1056756D01*
X-3437216Y-997430D01*
X-3308317Y-911303D01*
X-3198697Y-801683D01*
X-3175000Y-766218D01*
X-3151303Y-801683D01*
X-3041683Y-911303D01*
X-2912784Y-997430D01*
X-2769559Y-1056756D01*
X-2617513Y-1087000D01*
X-2462487Y-1087000D01*
X-2310441Y-1056756D01*
X-2167216Y-997430D01*
X-2038317Y-911303D01*
X-1928697Y-801683D01*
X-1905000Y-766218D01*
X-1881303Y-801683D01*
X-1771683Y-911303D01*
X-1642784Y-997430D01*
X-1499559Y-1056756D01*
X-1347513Y-1087000D01*
X-1192487Y-1087000D01*
X-1040441Y-1056756D01*
X-897216Y-997430D01*
X-768317Y-911303D01*
X-658697Y-801683D01*
X-635000Y-766218D01*
X-611303Y-801683D01*
X-501683Y-911303D01*
X-372784Y-997430D01*
X-229559Y-1056756D01*
X-77513Y-1087000D01*
X-43088Y-1087000D01*
X-1074137Y-2118050D01*
X-30381465Y-2118050D01*
X-31193337Y-1306178D01*
X-31172216Y-1297430D01*
X-31043317Y-1211303D01*
X-30933697Y-1101683D01*
X-30910000Y-1066218D01*
X-30886303Y-1101683D01*
X-30776683Y-1211303D01*
X-30647784Y-1297430D01*
X-30504559Y-1356756D01*
X-30352513Y-1387000D01*
X-30197487Y-1387000D01*
X-30045441Y-1356756D01*
X-29902216Y-1297430D01*
X-29773317Y-1211303D01*
X-29663697Y-1101683D01*
X-29640000Y-1066218D01*
X-29616303Y-1101683D01*
X-29506683Y-1211303D01*
X-29377784Y-1297430D01*
X-29234559Y-1356756D01*
X-29082513Y-1387000D01*
X-28927487Y-1387000D01*
X-28775441Y-1356756D01*
X-28632216Y-1297430D01*
X-28503317Y-1211303D01*
X-28393697Y-1101683D01*
X-28370000Y-1066218D01*
X-28346303Y-1101683D01*
X-28236683Y-1211303D01*
X-28107784Y-1297430D01*
X-27964559Y-1356756D01*
X-27812513Y-1387000D01*
X-27657487Y-1387000D01*
X-27505441Y-1356756D01*
X-27362216Y-1297430D01*
X-27233317Y-1211303D01*
X-27123697Y-1101683D01*
X-27100000Y-1066218D01*
X-27076303Y-1101683D01*
X-26966683Y-1211303D01*
X-26837784Y-1297430D01*
X-26694559Y-1356756D01*
X-26542513Y-1387000D01*
X-26387487Y-1387000D01*
X-26235441Y-1356756D01*
X-26092216Y-1297430D01*
X-25963317Y-1211303D01*
X-25853697Y-1101683D01*
X-25767570Y-972784D01*
X-25708244Y-829559D01*
X-25678000Y-677513D01*
X-25678000Y-522487D01*
X-25708244Y-370441D01*
X-25743543Y-285221D01*
X-25600441Y-256756D01*
X-25457216Y-197430D01*
X-25328317Y-111303D01*
X-25218697Y-1683D01*
X-25132570Y127216D01*
X-25073244Y270441D01*
X-25043000Y422487D01*
X-25043000Y577513D01*
X-25073244Y729559D01*
X-25132570Y872784D01*
X-25218697Y1001683D01*
X-25328317Y1111303D01*
X-25457216Y1197430D01*
X-25458000Y1197755D01*
X-25458000Y1215913D01*
X-24545912Y2128000D01*
X-7454087Y2128000D01*
X-6722000Y1395913D01*
G37*
%TD.AperFunction*%
D18*
X-41133088Y1287000D02*
X-41147513Y1287000D01*
X-41299559Y1256756D01*
X-41442784Y1197430D01*
X-41571683Y1111303D01*
X-41681303Y1001683D01*
X-41767430Y872784D01*
X-41826756Y729559D01*
X-41857000Y577513D01*
X-41857000Y422487D01*
X-41826756Y270441D01*
X-41767430Y127216D01*
X-41681303Y-1683D01*
X-41571683Y-111303D01*
X-41442784Y-197430D01*
X-41299559Y-256756D01*
X-41156457Y-285221D01*
X-41191756Y-370441D01*
X-41222000Y-522487D01*
X-41222000Y-677513D01*
X-41191756Y-829559D01*
X-41132430Y-972784D01*
X-41046303Y-1101683D01*
X-40936683Y-1211303D01*
X-40807784Y-1297430D01*
X-40664559Y-1356756D01*
X-40512513Y-1387000D01*
X-40357487Y-1387000D01*
X-40264613Y-1368526D01*
X-40954087Y-2058000D01*
X-48165912Y-2058000D01*
X-49523193Y-700720D01*
X-49498000Y-574066D01*
X-49498000Y-425934D01*
X-49526899Y-280650D01*
X-49583586Y-143794D01*
X-49665883Y-20628D01*
X-49686511Y0D01*
X-49665883Y20628D01*
X-49583586Y143794D01*
X-49526899Y280650D01*
X-49498000Y425934D01*
X-49498000Y574066D01*
X-49523193Y700720D01*
X-48055913Y2168000D01*
X-42014087Y2168000D01*
X-41133088Y1287000D01*
%TA.AperFunction,Conductor*%
D19*
G36*
X-41133088Y1287000D02*
G01*
X-41147513Y1287000D01*
X-41299559Y1256756D01*
X-41442784Y1197430D01*
X-41571683Y1111303D01*
X-41681303Y1001683D01*
X-41767430Y872784D01*
X-41826756Y729559D01*
X-41857000Y577513D01*
X-41857000Y422487D01*
X-41826756Y270441D01*
X-41767430Y127216D01*
X-41681303Y-1683D01*
X-41571683Y-111303D01*
X-41442784Y-197430D01*
X-41299559Y-256756D01*
X-41156457Y-285221D01*
X-41191756Y-370441D01*
X-41222000Y-522487D01*
X-41222000Y-677513D01*
X-41191756Y-829559D01*
X-41132430Y-972784D01*
X-41046303Y-1101683D01*
X-40936683Y-1211303D01*
X-40807784Y-1297430D01*
X-40664559Y-1356756D01*
X-40512513Y-1387000D01*
X-40357487Y-1387000D01*
X-40264613Y-1368526D01*
X-40954087Y-2058000D01*
X-48165912Y-2058000D01*
X-49523193Y-700720D01*
X-49498000Y-574066D01*
X-49498000Y-425934D01*
X-49526899Y-280650D01*
X-49583586Y-143794D01*
X-49665883Y-20628D01*
X-49686511Y0D01*
X-49665883Y20628D01*
X-49583586Y143794D01*
X-49526899Y280650D01*
X-49498000Y425934D01*
X-49498000Y574066D01*
X-49523193Y700720D01*
X-48055913Y2168000D01*
X-42014087Y2168000D01*
X-41133088Y1287000D01*
G37*
%TD.AperFunction*%
%TD*%
M02*
