%TF.GenerationSoftware,KiCad,Pcbnew,(5.1.10)-1*%
%TF.CreationDate,2022-07-15T13:07:45-06:00*%
%TF.ProjectId,21to25,3231746f-3235-42e6-9b69-6361645f7063,rev?*%
%TF.SameCoordinates,Original*%
%TF.FileFunction,Legend,Top*%
%TF.FilePolarity,Positive*%
%FSLAX46Y46*%
G04 Gerber Fmt 4.6, Leading zero omitted, Abs format (unit mm)*
G04 Created by KiCad (PCBNEW (5.1.10)-1) date 2022-07-15 13:07:45*
%MOMM*%
%LPD*%
G01*
G04 APERTURE LIST*
%ADD10C,0.150000*%
%ADD11C,0.075000*%
%ADD12C,0.120000*%
G04 APERTURE END LIST*
D10*
X-6064285Y-2162380D02*
X-6635714Y-2162380D01*
X-6350000Y-2162380D02*
X-6350000Y-1162380D01*
X-6445238Y-1305238D01*
X-6540476Y-1400476D01*
X-6635714Y-1448095D01*
X-34811904Y-2047619D02*
X-34764285Y-2000000D01*
X-34669047Y-1952380D01*
X-34430952Y-1952380D01*
X-34335714Y-2000000D01*
X-34288095Y-2047619D01*
X-34240476Y-2142857D01*
X-34240476Y-2238095D01*
X-34288095Y-2380952D01*
X-34859523Y-2952380D01*
X-34240476Y-2952380D01*
X-33621428Y-1952380D02*
X-33526190Y-1952380D01*
X-33430952Y-2000000D01*
X-33383333Y-2047619D01*
X-33335714Y-2142857D01*
X-33288095Y-2333333D01*
X-33288095Y-2571428D01*
X-33335714Y-2761904D01*
X-33383333Y-2857142D01*
X-33430952Y-2904761D01*
X-33526190Y-2952380D01*
X-33621428Y-2952380D01*
X-33716666Y-2904761D01*
X-33764285Y-2857142D01*
X-33811904Y-2761904D01*
X-33859523Y-2571428D01*
X-33859523Y-2333333D01*
X-33811904Y-2142857D01*
X-33764285Y-2047619D01*
X-33716666Y-2000000D01*
X-33621428Y-1952380D01*
X-25534285Y2027619D02*
X-26105714Y2027619D01*
X-25820000Y2027619D02*
X-25820000Y3027619D01*
X-25915238Y2884761D01*
X-26010476Y2789523D01*
X-26105714Y2741904D01*
X-67061904Y-91428D02*
X-66300000Y-91428D01*
X-64300000Y-91428D02*
X-63538095Y-91428D01*
X-63919047Y-472380D02*
X-63919047Y289523D01*
D11*
X-17189285Y-3235714D02*
X-17189285Y-3064285D01*
X-16889285Y-3150000D02*
X-17189285Y-3150000D01*
X-16889285Y-2964285D02*
X-17089285Y-2964285D01*
X-17032142Y-2964285D02*
X-17060714Y-2950000D01*
X-17075000Y-2935714D01*
X-17089285Y-2907142D01*
X-17089285Y-2878571D01*
X-16889285Y-2778571D02*
X-17089285Y-2778571D01*
X-17189285Y-2778571D02*
X-17175000Y-2792857D01*
X-17160714Y-2778571D01*
X-17175000Y-2764285D01*
X-17189285Y-2778571D01*
X-17160714Y-2778571D01*
X-16889285Y-2635714D02*
X-17189285Y-2635714D01*
X-16975000Y-2535714D01*
X-17189285Y-2435714D01*
X-16889285Y-2435714D01*
X-16889285Y-2292857D02*
X-17089285Y-2292857D01*
X-17189285Y-2292857D02*
X-17175000Y-2307142D01*
X-17160714Y-2292857D01*
X-17175000Y-2278571D01*
X-17189285Y-2292857D01*
X-17160714Y-2292857D01*
X-16903571Y-2021428D02*
X-16889285Y-2050000D01*
X-16889285Y-2107142D01*
X-16903571Y-2135714D01*
X-16917857Y-2150000D01*
X-16946428Y-2164285D01*
X-17032142Y-2164285D01*
X-17060714Y-2150000D01*
X-17075000Y-2135714D01*
X-17089285Y-2107142D01*
X-17089285Y-2050000D01*
X-17075000Y-2021428D01*
X-16889285Y-1892857D02*
X-17089285Y-1892857D01*
X-17032142Y-1892857D02*
X-17060714Y-1878571D01*
X-17075000Y-1864285D01*
X-17089285Y-1835714D01*
X-17089285Y-1807142D01*
X-16889285Y-1664285D02*
X-16903571Y-1692857D01*
X-16917857Y-1707142D01*
X-16946428Y-1721428D01*
X-17032142Y-1721428D01*
X-17060714Y-1707142D01*
X-17075000Y-1692857D01*
X-17089285Y-1664285D01*
X-17089285Y-1621428D01*
X-17075000Y-1592857D01*
X-17060714Y-1578571D01*
X-17032142Y-1564285D01*
X-16946428Y-1564285D01*
X-16917857Y-1578571D01*
X-16903571Y-1592857D01*
X-16889285Y-1621428D01*
X-16889285Y-1664285D01*
X-16889285Y-1435714D02*
X-17189285Y-1435714D01*
X-17189285Y-1364285D01*
X-17175000Y-1321428D01*
X-17146428Y-1292857D01*
X-17117857Y-1278571D01*
X-17060714Y-1264285D01*
X-17017857Y-1264285D01*
X-16960714Y-1278571D01*
X-16932142Y-1292857D01*
X-16903571Y-1321428D01*
X-16889285Y-1364285D01*
X-16889285Y-1435714D01*
X-16917857Y-964285D02*
X-16903571Y-978571D01*
X-16889285Y-1021428D01*
X-16889285Y-1050000D01*
X-16903571Y-1092857D01*
X-16932142Y-1121428D01*
X-16960714Y-1135714D01*
X-17017857Y-1150000D01*
X-17060714Y-1150000D01*
X-17117857Y-1135714D01*
X-17146428Y-1121428D01*
X-17175000Y-1092857D01*
X-17189285Y-1050000D01*
X-17189285Y-1021428D01*
X-17175000Y-978571D01*
X-17160714Y-964285D01*
X-16889285Y-792857D02*
X-16903571Y-821428D01*
X-16917857Y-835714D01*
X-16946428Y-850000D01*
X-17032142Y-850000D01*
X-17060714Y-835714D01*
X-17075000Y-821428D01*
X-17089285Y-792857D01*
X-17089285Y-750000D01*
X-17075000Y-721428D01*
X-17060714Y-707142D01*
X-17032142Y-692857D01*
X-16946428Y-692857D01*
X-16917857Y-707142D01*
X-16903571Y-721428D01*
X-16889285Y-750000D01*
X-16889285Y-792857D01*
X-17089285Y-564285D02*
X-16889285Y-564285D01*
X-17060714Y-564285D02*
X-17075000Y-550000D01*
X-17089285Y-521428D01*
X-17089285Y-478571D01*
X-17075000Y-450000D01*
X-17046428Y-435714D01*
X-16889285Y-435714D01*
X-17089285Y-321428D02*
X-16889285Y-250000D01*
X-17089285Y-178571D01*
X-16903571Y49999D02*
X-16889285Y21428D01*
X-16889285Y-35714D01*
X-16903571Y-64285D01*
X-16932142Y-78571D01*
X-17046428Y-78571D01*
X-17075000Y-64285D01*
X-17089285Y-35714D01*
X-17089285Y21428D01*
X-17075000Y49999D01*
X-17046428Y64285D01*
X-17017857Y64285D01*
X-16989285Y-78571D01*
X-16889285Y192857D02*
X-17089285Y192857D01*
X-17032142Y192857D02*
X-17060714Y207142D01*
X-17075000Y221428D01*
X-17089285Y249999D01*
X-17089285Y278571D01*
X-17089285Y335714D02*
X-17089285Y449999D01*
X-17189285Y378571D02*
X-16932142Y378571D01*
X-16903571Y392857D01*
X-16889285Y421428D01*
X-16889285Y449999D01*
X-16860714Y478571D02*
X-16860714Y707142D01*
X-17160714Y764285D02*
X-17175000Y778571D01*
X-17189285Y807142D01*
X-17189285Y878571D01*
X-17175000Y907142D01*
X-17160714Y921428D01*
X-17132142Y935714D01*
X-17103571Y935714D01*
X-17060714Y921428D01*
X-16889285Y749999D01*
X-16889285Y935714D01*
X-16889285Y1221428D02*
X-16889285Y1049999D01*
X-16889285Y1135714D02*
X-17189285Y1135714D01*
X-17146428Y1107142D01*
X-17117857Y1078571D01*
X-17103571Y1049999D01*
X-16889285Y1349999D02*
X-17189285Y1349999D01*
X-17189285Y1464285D01*
X-17175000Y1492857D01*
X-17160714Y1507142D01*
X-17132142Y1521428D01*
X-17089285Y1521428D01*
X-17060714Y1507142D01*
X-17046428Y1492857D01*
X-17032142Y1464285D01*
X-17032142Y1349999D01*
X-16889285Y1649999D02*
X-17089285Y1649999D01*
X-17189285Y1649999D02*
X-17175000Y1635714D01*
X-17160714Y1649999D01*
X-17175000Y1664285D01*
X-17189285Y1649999D01*
X-17160714Y1649999D01*
X-17089285Y1792857D02*
X-16889285Y1792857D01*
X-17060714Y1792857D02*
X-17075000Y1807142D01*
X-17089285Y1835714D01*
X-17089285Y1878571D01*
X-17075000Y1907142D01*
X-17046428Y1921428D01*
X-16889285Y1921428D01*
X-16860714Y1992857D02*
X-16860714Y2221428D01*
X-17189285Y2249999D02*
X-16889285Y2349999D01*
X-17189285Y2449999D01*
X-17160714Y2535714D02*
X-17175000Y2549999D01*
X-17189285Y2578571D01*
X-17189285Y2649999D01*
X-17175000Y2678571D01*
X-17160714Y2692857D01*
X-17132142Y2707142D01*
X-17103571Y2707142D01*
X-17060714Y2692857D01*
X-16889285Y2521428D01*
X-16889285Y2707142D01*
X-16664285Y-1221428D02*
X-16450000Y-1221428D01*
X-16407142Y-1235714D01*
X-16378571Y-1264285D01*
X-16364285Y-1307142D01*
X-16364285Y-1335714D01*
X-16564285Y-950000D02*
X-16364285Y-950000D01*
X-16564285Y-1078571D02*
X-16407142Y-1078571D01*
X-16378571Y-1064285D01*
X-16364285Y-1035714D01*
X-16364285Y-992857D01*
X-16378571Y-964285D01*
X-16392857Y-950000D01*
X-16364285Y-764285D02*
X-16378571Y-792857D01*
X-16407142Y-807142D01*
X-16664285Y-807142D01*
X-16564285Y-678571D02*
X-16364285Y-607142D01*
X-16564285Y-535714D02*
X-16364285Y-607142D01*
X-16292857Y-635714D01*
X-16278571Y-650000D01*
X-16264285Y-678571D01*
X-16635714Y-207142D02*
X-16650000Y-192857D01*
X-16664285Y-164285D01*
X-16664285Y-92857D01*
X-16650000Y-64285D01*
X-16635714Y-50000D01*
X-16607142Y-35714D01*
X-16578571Y-35714D01*
X-16535714Y-50000D01*
X-16364285Y-221428D01*
X-16364285Y-35714D01*
X-16664285Y150000D02*
X-16664285Y178571D01*
X-16650000Y207142D01*
X-16635714Y221428D01*
X-16607142Y235714D01*
X-16550000Y250000D01*
X-16478571Y250000D01*
X-16421428Y235714D01*
X-16392857Y221428D01*
X-16378571Y207142D01*
X-16364285Y178571D01*
X-16364285Y150000D01*
X-16378571Y121428D01*
X-16392857Y107142D01*
X-16421428Y92857D01*
X-16478571Y78571D01*
X-16550000Y78571D01*
X-16607142Y92857D01*
X-16635714Y107142D01*
X-16650000Y121428D01*
X-16664285Y150000D01*
X-16635714Y364285D02*
X-16650000Y378571D01*
X-16664285Y407142D01*
X-16664285Y478571D01*
X-16650000Y507142D01*
X-16635714Y521428D01*
X-16607142Y535714D01*
X-16578571Y535714D01*
X-16535714Y521428D01*
X-16364285Y350000D01*
X-16364285Y535714D01*
X-16635714Y650000D02*
X-16650000Y664285D01*
X-16664285Y692857D01*
X-16664285Y764285D01*
X-16650000Y792857D01*
X-16635714Y807142D01*
X-16607142Y821428D01*
X-16578571Y821428D01*
X-16535714Y807142D01*
X-16364285Y635714D01*
X-16364285Y821428D01*
X-15839285Y-2021428D02*
X-15982142Y-2121428D01*
X-15839285Y-2192857D02*
X-16139285Y-2192857D01*
X-16139285Y-2078571D01*
X-16125000Y-2050000D01*
X-16110714Y-2035714D01*
X-16082142Y-2021428D01*
X-16039285Y-2021428D01*
X-16010714Y-2035714D01*
X-15996428Y-2050000D01*
X-15982142Y-2078571D01*
X-15982142Y-2192857D01*
X-16039285Y-1921428D02*
X-15839285Y-1850000D01*
X-16039285Y-1778571D02*
X-15839285Y-1850000D01*
X-15767857Y-1878571D01*
X-15753571Y-1892857D01*
X-15739285Y-1921428D01*
X-15839285Y-1535714D02*
X-15996428Y-1535714D01*
X-16025000Y-1550000D01*
X-16039285Y-1578571D01*
X-16039285Y-1635714D01*
X-16025000Y-1664285D01*
X-15853571Y-1535714D02*
X-15839285Y-1564285D01*
X-15839285Y-1635714D01*
X-15853571Y-1664285D01*
X-15882142Y-1678571D01*
X-15910714Y-1678571D01*
X-15939285Y-1664285D01*
X-15953571Y-1635714D01*
X-15953571Y-1564285D01*
X-15967857Y-1535714D01*
X-16039285Y-1392857D02*
X-15839285Y-1392857D01*
X-16010714Y-1392857D02*
X-16025000Y-1378571D01*
X-16039285Y-1350000D01*
X-16039285Y-1307142D01*
X-16025000Y-1278571D01*
X-15996428Y-1264285D01*
X-15839285Y-1264285D01*
X-15839285Y-892857D02*
X-16139285Y-892857D01*
X-15925000Y-792857D01*
X-16139285Y-692857D01*
X-15839285Y-692857D01*
X-15839285Y-507142D02*
X-15853571Y-535714D01*
X-15867857Y-550000D01*
X-15896428Y-564285D01*
X-15982142Y-564285D01*
X-16010714Y-550000D01*
X-16025000Y-535714D01*
X-16039285Y-507142D01*
X-16039285Y-464285D01*
X-16025000Y-435714D01*
X-16010714Y-421428D01*
X-15982142Y-407142D01*
X-15896428Y-407142D01*
X-15867857Y-421428D01*
X-15853571Y-435714D01*
X-15839285Y-464285D01*
X-15839285Y-507142D01*
X-15839285Y-278571D02*
X-16039285Y-278571D01*
X-15982142Y-278571D02*
X-16010714Y-264285D01*
X-16025000Y-250000D01*
X-16039285Y-221428D01*
X-16039285Y-192857D01*
X-16039285Y35714D02*
X-15796428Y35714D01*
X-15767857Y21428D01*
X-15753571Y7142D01*
X-15739285Y-21428D01*
X-15739285Y-64285D01*
X-15753571Y-92857D01*
X-15853571Y35714D02*
X-15839285Y7142D01*
X-15839285Y-50000D01*
X-15853571Y-78571D01*
X-15867857Y-92857D01*
X-15896428Y-107142D01*
X-15982142Y-107142D01*
X-16010714Y-92857D01*
X-16025000Y-78571D01*
X-16039285Y-50000D01*
X-16039285Y7142D01*
X-16025000Y35714D01*
X-15853571Y292857D02*
X-15839285Y264285D01*
X-15839285Y207142D01*
X-15853571Y178571D01*
X-15882142Y164285D01*
X-15996428Y164285D01*
X-16025000Y178571D01*
X-16039285Y207142D01*
X-16039285Y264285D01*
X-16025000Y292857D01*
X-15996428Y307142D01*
X-15967857Y307142D01*
X-15939285Y164285D01*
X-16039285Y435714D02*
X-15839285Y435714D01*
X-16010714Y435714D02*
X-16025000Y449999D01*
X-16039285Y478571D01*
X-16039285Y521428D01*
X-16025000Y549999D01*
X-15996428Y564285D01*
X-15839285Y564285D01*
X-15853571Y692857D02*
X-15839285Y721428D01*
X-15839285Y778571D01*
X-15853571Y807142D01*
X-15882142Y821428D01*
X-15896428Y821428D01*
X-15925000Y807142D01*
X-15939285Y778571D01*
X-15939285Y735714D01*
X-15953571Y707142D01*
X-15982142Y692857D01*
X-15996428Y692857D01*
X-16025000Y707142D01*
X-16039285Y735714D01*
X-16039285Y778571D01*
X-16025000Y807142D01*
X-16039285Y907142D02*
X-16039285Y1021428D01*
X-16139285Y949999D02*
X-15882142Y949999D01*
X-15853571Y964285D01*
X-15839285Y992857D01*
X-15839285Y1021428D01*
X-15853571Y1235714D02*
X-15839285Y1207142D01*
X-15839285Y1149999D01*
X-15853571Y1121428D01*
X-15882142Y1107142D01*
X-15996428Y1107142D01*
X-16025000Y1121428D01*
X-16039285Y1149999D01*
X-16039285Y1207142D01*
X-16025000Y1235714D01*
X-15996428Y1249999D01*
X-15967857Y1249999D01*
X-15939285Y1107142D01*
X-15839285Y1378571D02*
X-16039285Y1378571D01*
X-15982142Y1378571D02*
X-16010714Y1392857D01*
X-16025000Y1407142D01*
X-16039285Y1435714D01*
X-16039285Y1464285D01*
X-16039285Y1564285D02*
X-15839285Y1564285D01*
X-16010714Y1564285D02*
X-16025000Y1578571D01*
X-16039285Y1607142D01*
X-16039285Y1649999D01*
X-16025000Y1678571D01*
X-15996428Y1692857D01*
X-15839285Y1692857D01*
D12*
%TO.C,J4*%
X-65370000Y-670000D02*
X-65370000Y-3330000D01*
X-65370000Y-670000D02*
X-67970000Y-670000D01*
X-67970000Y-670000D02*
X-67970000Y-3330000D01*
X-65370000Y-3330000D02*
X-67970000Y-3330000D01*
X-62770000Y-3330000D02*
X-64100000Y-3330000D01*
X-62770000Y-2000000D02*
X-62770000Y-3330000D01*
%TO.C,J8*%
X-65370000Y3330000D02*
X-65370000Y670000D01*
X-65370000Y3330000D02*
X-67970000Y3330000D01*
X-67970000Y3330000D02*
X-67970000Y670000D01*
X-65370000Y670000D02*
X-67970000Y670000D01*
X-62770000Y670000D02*
X-64100000Y670000D01*
X-62770000Y2000000D02*
X-62770000Y670000D01*
%TO.C,J1*%
X-56135000Y-1210000D02*
X-56135000Y-500000D01*
X-55450000Y-1210000D02*
X-56135000Y-1210000D01*
X-56010000Y894493D02*
X-56010000Y1210000D01*
X-54765000Y-1210000D02*
X-54765000Y-1108276D01*
X-56010000Y1210000D02*
X-53890000Y1210000D01*
X-54765000Y-1210000D02*
X-53890000Y-1210000D01*
X-53890000Y-105507D02*
X-53890000Y105507D01*
X-53890000Y894493D02*
X-53890000Y1210000D01*
X-53890000Y-1210000D02*
X-53890000Y-894493D01*
%TO.C,J2*%
D10*
X-34400000Y2657142D02*
X-34400000Y1800000D01*
X-34457142Y1628571D01*
X-34571428Y1514285D01*
X-34742857Y1457142D01*
X-34857142Y1457142D01*
X-33885714Y2542857D02*
X-33828571Y2600000D01*
X-33714285Y2657142D01*
X-33428571Y2657142D01*
X-33314285Y2600000D01*
X-33257142Y2542857D01*
X-33199999Y2428571D01*
X-33199999Y2314285D01*
X-33257142Y2142857D01*
X-33942857Y1457142D01*
X-33199999Y1457142D01*
%TO.C,J4*%
X-62083333Y-1852380D02*
X-62083333Y-2566666D01*
X-62130952Y-2709523D01*
X-62226190Y-2804761D01*
X-62369047Y-2852380D01*
X-62464285Y-2852380D01*
X-61178571Y-2185714D02*
X-61178571Y-2852380D01*
X-61416666Y-1804761D02*
X-61654761Y-2519047D01*
X-61035714Y-2519047D01*
%TO.C,J8*%
X-62213333Y3157619D02*
X-62213333Y2443333D01*
X-62260952Y2300476D01*
X-62356190Y2205238D01*
X-62499047Y2157619D01*
X-62594285Y2157619D01*
X-61594285Y2729047D02*
X-61689523Y2776666D01*
X-61737142Y2824285D01*
X-61784761Y2919523D01*
X-61784761Y2967142D01*
X-61737142Y3062380D01*
X-61689523Y3110000D01*
X-61594285Y3157619D01*
X-61403809Y3157619D01*
X-61308571Y3110000D01*
X-61260952Y3062380D01*
X-61213333Y2967142D01*
X-61213333Y2919523D01*
X-61260952Y2824285D01*
X-61308571Y2776666D01*
X-61403809Y2729047D01*
X-61594285Y2729047D01*
X-61689523Y2681428D01*
X-61737142Y2633809D01*
X-61784761Y2538571D01*
X-61784761Y2348095D01*
X-61737142Y2252857D01*
X-61689523Y2205238D01*
X-61594285Y2157619D01*
X-61403809Y2157619D01*
X-61308571Y2205238D01*
X-61260952Y2252857D01*
X-61213333Y2348095D01*
X-61213333Y2538571D01*
X-61260952Y2633809D01*
X-61308571Y2681428D01*
X-61403809Y2729047D01*
%TO.C,J1*%
X-54033333Y2797619D02*
X-54033333Y2083333D01*
X-54080952Y1940476D01*
X-54176190Y1845238D01*
X-54319047Y1797619D01*
X-54414285Y1797619D01*
X-53033333Y1797619D02*
X-53604761Y1797619D01*
X-53319047Y1797619D02*
X-53319047Y2797619D01*
X-53414285Y2654761D01*
X-53509523Y2559523D01*
X-53604761Y2511904D01*
%TD*%
M02*
