%TF.GenerationSoftware,KiCad,Pcbnew,(5.1.10)-1*%
%TF.CreationDate,2022-07-15T13:07:45-06:00*%
%TF.ProjectId,21to25,3231746f-3235-42e6-9b69-6361645f7063,rev?*%
%TF.SameCoordinates,Original*%
%TF.FileFunction,Copper,L1,Top*%
%TF.FilePolarity,Positive*%
%FSLAX46Y46*%
G04 Gerber Fmt 4.6, Leading zero omitted, Abs format (unit mm)*
G04 Created by KiCad (PCBNEW (5.1.10)-1) date 2022-07-15 13:07:45*
%MOMM*%
%LPD*%
G01*
G04 APERTURE LIST*
%TA.AperFunction,ComponentPad*%
%ADD10C,3.600000*%
%TD*%
%TA.AperFunction,ComponentPad*%
%ADD11O,0.920000X0.920000*%
%TD*%
%TA.AperFunction,ComponentPad*%
%ADD12O,1.700000X1.700000*%
%TD*%
%TA.AperFunction,ComponentPad*%
%ADD13R,1.700000X1.700000*%
%TD*%
%TA.AperFunction,ComponentPad*%
%ADD14O,0.850000X0.850000*%
%TD*%
%TA.AperFunction,ComponentPad*%
%ADD15R,0.850000X0.850000*%
%TD*%
%TA.AperFunction,Conductor*%
%ADD16C,0.090000*%
%TD*%
%TA.AperFunction,Conductor*%
%ADD17C,0.135000*%
%TD*%
%TA.AperFunction,Conductor*%
%ADD18C,0.250000*%
%TD*%
%TA.AperFunction,Conductor*%
%ADD19C,0.254000*%
%TD*%
%TA.AperFunction,Conductor*%
%ADD20C,0.100000*%
%TD*%
G04 APERTURE END LIST*
D10*
%TO.P,J2,0*%
%TO.N,GND*%
X-21175000Y-50000D03*
X-45725000Y-50000D03*
D11*
%TO.P,J2,13*%
%TO.N,Net-(J2-Pad13)*%
X-41070000Y500000D03*
%TO.P,J2,25*%
%TO.N,Net-(J1-Pad4)*%
X-40435000Y-600000D03*
%TO.P,J2,12*%
%TO.N,Net-(J1-Pad3)*%
X-39800000Y500000D03*
%TO.P,J2,24*%
%TO.N,Net-(J1-Pad2)*%
X-39165000Y-600000D03*
%TO.P,J2,11*%
%TO.N,Net-(J1-Pad1)*%
X-38530000Y500000D03*
%TO.P,J2,23*%
%TO.N,Net-(J2-Pad23)*%
X-37895000Y-600000D03*
%TO.P,J2,10*%
%TO.N,Net-(J2-Pad10)*%
X-37260000Y500000D03*
%TO.P,J2,22*%
%TO.N,Net-(J2-Pad22)*%
X-36625000Y-600000D03*
%TO.P,J2,9*%
%TO.N,Net-(J2-Pad9)*%
X-35990000Y500000D03*
%TO.P,J2,21*%
%TO.N,Net-(J2-Pad21)*%
X-35355000Y-600000D03*
%TO.P,J2,8*%
%TO.N,Net-(J2-Pad8)*%
X-34720000Y500000D03*
%TO.P,J2,20*%
%TO.N,Net-(J2-Pad20)*%
X-34085000Y-600000D03*
%TO.P,J2,7*%
%TO.N,Net-(J2-Pad7)*%
X-33450000Y500000D03*
%TO.P,J2,19*%
%TO.N,Net-(J2-Pad19)*%
X-32815000Y-600000D03*
%TO.P,J2,6*%
%TO.N,Net-(J2-Pad6)*%
X-32180000Y500000D03*
%TO.P,J2,18*%
%TO.N,Net-(J2-Pad18)*%
X-31545000Y-600000D03*
%TO.P,J2,5*%
%TO.N,Net-(J2-Pad5)*%
X-30910000Y500000D03*
%TO.P,J2,17*%
%TO.N,Net-(J2-Pad17)*%
X-30275000Y-600000D03*
%TO.P,J2,4*%
%TO.N,Net-(J2-Pad4)*%
X-29640000Y500000D03*
%TO.P,J2,16*%
%TO.N,Net-(J2-Pad16)*%
X-29005000Y-600000D03*
%TO.P,J2,3*%
%TO.N,Net-(J2-Pad3)*%
X-28370000Y500000D03*
%TO.P,J2,15*%
%TO.N,Net-(J2-Pad15)*%
X-27735000Y-600000D03*
%TO.P,J2,2*%
%TO.N,Net-(J2-Pad2)*%
X-27100000Y500000D03*
%TO.P,J2,14*%
%TO.N,Net-(J2-Pad14)*%
X-26465000Y-600000D03*
%TO.P,J2,1*%
%TO.N,Net-(J2-Pad1)*%
X-25830000Y500000D03*
%TD*%
D12*
%TO.P,J4,2*%
%TO.N,Net-(J2-Pad22)*%
X-66640000Y-2000000D03*
D13*
%TO.P,J4,1*%
%TO.N,Net-(J2-Pad9)*%
X-64100000Y-2000000D03*
%TD*%
D12*
%TO.P,J8,2*%
%TO.N,Net-(J2-Pad23)*%
X-66640000Y2000000D03*
D13*
%TO.P,J8,1*%
%TO.N,Net-(J2-Pad10)*%
X-64100000Y2000000D03*
%TD*%
D10*
%TO.P,J3,0*%
%TO.N,GND*%
X-10986000Y-170000D03*
X10986000Y-170000D03*
D11*
%TO.P,J3,1*%
%TO.N,Net-(J2-Pad1)*%
X-6350000Y-300000D03*
%TO.P,J3,12*%
%TO.N,Net-(J2-Pad14)*%
X-5710000Y800000D03*
%TO.P,J3,2*%
%TO.N,Net-(J2-Pad2)*%
X-5080000Y-300000D03*
%TO.P,J3,3*%
%TO.N,Net-(J3-Pad3)*%
X-3810000Y-300000D03*
%TO.P,J3,4*%
%TO.N,Net-(J2-Pad3)*%
X-2540000Y-300000D03*
%TO.P,J3,5*%
%TO.N,Net-(J2-Pad4)*%
X-1270000Y-300000D03*
%TO.P,J3,6*%
%TO.N,Net-(J2-Pad5)*%
X0Y-300000D03*
%TO.P,J3,7*%
%TO.N,Net-(J2-Pad6)*%
X1270000Y-300000D03*
%TO.P,J3,8*%
%TO.N,Net-(J2-Pad7)*%
X2540000Y-300000D03*
%TO.P,J3,9*%
%TO.N,Net-(J2-Pad8)*%
X3810000Y-300000D03*
%TO.P,J3,10*%
%TO.N,Net-(J2-Pad9)*%
X5080000Y-300000D03*
%TO.P,J3,11*%
%TO.N,Net-(J2-Pad10)*%
X6350000Y-300000D03*
%TO.P,J3,13*%
%TO.N,Net-(J2-Pad15)*%
X-4440000Y800000D03*
%TO.P,J3,14*%
%TO.N,Net-(J2-Pad16)*%
X-3170000Y800000D03*
%TO.P,J3,15*%
%TO.N,Net-(J2-Pad17)*%
X-1900000Y800000D03*
%TO.P,J3,16*%
%TO.N,Net-(J2-Pad18)*%
X-630000Y800000D03*
%TO.P,J3,17*%
%TO.N,Net-(J2-Pad19)*%
X640000Y800000D03*
%TO.P,J3,18*%
%TO.N,Net-(J2-Pad20)*%
X1910000Y800000D03*
%TO.P,J3,19*%
%TO.N,Net-(J2-Pad21)*%
X3180000Y800000D03*
%TO.P,J3,20*%
%TO.N,Net-(J2-Pad22)*%
X4450000Y800000D03*
%TO.P,J3,21*%
%TO.N,Net-(J2-Pad23)*%
X5720000Y800000D03*
%TD*%
D14*
%TO.P,J1,4*%
%TO.N,Net-(J1-Pad4)*%
X-54450000Y500000D03*
%TO.P,J1,3*%
%TO.N,Net-(J1-Pad3)*%
X-54450000Y-500000D03*
%TO.P,J1,2*%
%TO.N,Net-(J1-Pad2)*%
X-55450000Y500000D03*
D15*
%TO.P,J1,1*%
%TO.N,Net-(J1-Pad1)*%
X-55450000Y-500000D03*
%TD*%
D16*
%TO.N,Net-(J1-Pad4)*%
X-54450000Y1101040D02*
X-53351040Y2200000D01*
X-54450000Y500000D02*
X-54450000Y1101040D01*
X-40435000Y825600D02*
X-40435000Y-600000D01*
X-41809400Y2200000D02*
X-40435000Y825600D01*
X-53351040Y2200000D02*
X-41809400Y2200000D01*
%TO.N,Net-(J1-Pad3)*%
X-39800000Y-845602D02*
X-41254398Y-2300000D01*
X-39800000Y500000D02*
X-39800000Y-845602D01*
X-52650000Y-2300000D02*
X-54450000Y-500000D01*
X-41254398Y-2300000D02*
X-52650000Y-2300000D01*
D17*
%TO.N,Net-(J2-Pad8)*%
X-32818882Y-2780020D02*
X1329980Y-2780020D01*
X1329980Y-2780020D02*
X3810000Y-300000D01*
X-34720000Y-878902D02*
X-32818882Y-2780020D01*
X-34720000Y500000D02*
X-34720000Y-878902D01*
%TO.N,Net-(J2-Pad7)*%
X284990Y-2555010D02*
X2540000Y-300000D01*
X-31773892Y-2555010D02*
X284990Y-2555010D01*
X-33450000Y-878902D02*
X-31773892Y-2555010D01*
X-33450000Y500000D02*
X-33450000Y-878902D01*
%TO.N,Net-(J2-Pad6)*%
X-32180000Y-878902D02*
X-30728902Y-2330000D01*
X-32180000Y500000D02*
X-32180000Y-878902D01*
X-760000Y-2330000D02*
X1270000Y-300000D01*
X-30728902Y-2330000D02*
X-760000Y-2330000D01*
%TO.N,Net-(J2-Pad5)*%
X-28509962Y2900038D02*
X-30910000Y500000D01*
X-1816136Y2900038D02*
X-28509962Y2900038D01*
X0Y1083902D02*
X-1816136Y2900038D01*
X0Y-300000D02*
X0Y1083902D01*
%TO.N,Net-(J2-Pad4)*%
X-2861127Y2675029D02*
X-27464971Y2675029D01*
X-27464971Y2675029D02*
X-29640000Y500000D01*
X-1270000Y1083902D02*
X-2861127Y2675029D01*
X-1270000Y-300000D02*
X-1270000Y1083902D01*
%TO.N,Net-(J2-Pad3)*%
X-3906117Y2450019D02*
X-26419981Y2450019D01*
X-2540000Y1083902D02*
X-3906117Y2450019D01*
X-26419981Y2450019D02*
X-28370000Y500000D01*
X-2540000Y-300000D02*
X-2540000Y1083902D01*
%TO.N,Net-(J2-Pad2)*%
X-5080000Y1083902D02*
X-5080000Y-300000D01*
X-6221107Y2225009D02*
X-5080000Y1083902D01*
X-25374991Y2225009D02*
X-6221107Y2225009D01*
X-27100000Y500000D02*
X-25374991Y2225009D01*
%TO.N,Net-(J2-Pad1)*%
X-6350000Y-300000D02*
X-8650000Y2000000D01*
X-24330000Y2000000D02*
X-25830000Y500000D01*
X-8650000Y2000000D02*
X-24330000Y2000000D01*
D18*
%TO.N,Net-(J2-Pad10)*%
X-64100000Y2000000D02*
X-61000000Y2000000D01*
X-61000000Y2000000D02*
X-60500000Y2500000D01*
X-37260000Y581317D02*
X-37260000Y500000D01*
X-39178683Y2500000D02*
X-37260000Y581317D01*
X-60500000Y2500000D02*
X-39178683Y2500000D01*
X-38496135Y3182548D02*
X-39178683Y2500000D01*
X4517452Y3182548D02*
X-38496135Y3182548D01*
X6809999Y890001D02*
X4517452Y3182548D01*
X6809999Y159999D02*
X6809999Y890001D01*
X6350000Y-300000D02*
X6809999Y159999D01*
D17*
%TO.N,Net-(J2-Pad9)*%
X-35990000Y500000D02*
X-35990000Y-878902D01*
X-35990000Y-878902D02*
X-33863873Y-3005029D01*
D18*
X-33806372Y-3062530D02*
X-33863873Y-3005029D01*
X5080000Y-300000D02*
X2317470Y-3062530D01*
X-64100000Y-2000000D02*
X-62700000Y-3400000D01*
X-32162530Y-3062530D02*
X-33806372Y-3062530D01*
X2317470Y-3062530D02*
X-32162530Y-3062530D01*
X-33806372Y-3062530D02*
X-34162530Y-3062530D01*
X-34500000Y-3400000D02*
X-62700000Y-3400000D01*
X-34162530Y-3062530D02*
X-34500000Y-3400000D01*
%TD*%
D19*
%TO.N,GND*%
X13698001Y-3948000D02*
X-68598000Y-3948000D01*
X-68598000Y-1889000D01*
X-67767000Y-1889000D01*
X-67767000Y-2111000D01*
X-67723690Y-2328734D01*
X-67638734Y-2533835D01*
X-67515398Y-2718421D01*
X-67358421Y-2875398D01*
X-67173835Y-2998734D01*
X-66968734Y-3083690D01*
X-66751000Y-3127000D01*
X-66529000Y-3127000D01*
X-66311266Y-3083690D01*
X-66106165Y-2998734D01*
X-65921579Y-2875398D01*
X-65764602Y-2718421D01*
X-65641266Y-2533835D01*
X-65556310Y-2328734D01*
X-65513000Y-2111000D01*
X-65513000Y-1889000D01*
X-65556310Y-1671266D01*
X-65641266Y-1466165D01*
X-65764602Y-1281579D01*
X-65921579Y-1124602D01*
X-66106165Y-1001266D01*
X-66311266Y-916310D01*
X-66529000Y-873000D01*
X-66751000Y-873000D01*
X-66968734Y-916310D01*
X-67173835Y-1001266D01*
X-67358421Y-1124602D01*
X-67515398Y-1281579D01*
X-67638734Y-1466165D01*
X-67723690Y-1671266D01*
X-67767000Y-1889000D01*
X-68598000Y-1889000D01*
X-68598000Y2111000D01*
X-67767000Y2111000D01*
X-67767000Y1889000D01*
X-67723690Y1671266D01*
X-67638734Y1466165D01*
X-67515398Y1281579D01*
X-67358421Y1124602D01*
X-67173835Y1001266D01*
X-66968734Y916310D01*
X-66751000Y873000D01*
X-66529000Y873000D01*
X-66311266Y916310D01*
X-66106165Y1001266D01*
X-65921579Y1124602D01*
X-65764602Y1281579D01*
X-65641266Y1466165D01*
X-65556310Y1671266D01*
X-65513000Y1889000D01*
X-65513000Y2111000D01*
X-65556310Y2328734D01*
X-65641266Y2533835D01*
X-65764602Y2718421D01*
X-65896181Y2850000D01*
X-65228340Y2850000D01*
X-65228340Y1150000D01*
X-65222992Y1095699D01*
X-65207153Y1043484D01*
X-65181431Y995363D01*
X-65146816Y953184D01*
X-65104637Y918569D01*
X-65056516Y892847D01*
X-65004301Y877008D01*
X-64950000Y871660D01*
X-63250000Y871660D01*
X-63195699Y877008D01*
X-63143484Y892847D01*
X-63095363Y918569D01*
X-63053184Y953184D01*
X-63018569Y995363D01*
X-62992847Y1043484D01*
X-62977008Y1095699D01*
X-62971660Y1150000D01*
X-62971660Y1598000D01*
X-61019739Y1598000D01*
X-61000000Y1596056D01*
X-60980261Y1598000D01*
X-60980253Y1598000D01*
X-60921194Y1603817D01*
X-60845417Y1626803D01*
X-60775580Y1664132D01*
X-60714368Y1714368D01*
X-60701777Y1729710D01*
X-60333486Y2098000D01*
X-53908417Y2098000D01*
X-54666503Y1339913D01*
X-54678789Y1329830D01*
X-54688872Y1317544D01*
X-54688874Y1317542D01*
X-54719028Y1280799D01*
X-54748928Y1224860D01*
X-54767341Y1164163D01*
X-54771013Y1126872D01*
X-54782522Y1122105D01*
X-54897499Y1045279D01*
X-54950000Y992778D01*
X-55002501Y1045279D01*
X-55117478Y1122105D01*
X-55245234Y1175023D01*
X-55380859Y1202000D01*
X-55519141Y1202000D01*
X-55654766Y1175023D01*
X-55782522Y1122105D01*
X-55897499Y1045279D01*
X-55995279Y947499D01*
X-56072105Y832522D01*
X-56125023Y704766D01*
X-56152000Y569141D01*
X-56152000Y430859D01*
X-56125023Y295234D01*
X-56072105Y167478D01*
X-56052297Y137834D01*
X-56071816Y121816D01*
X-56106431Y79637D01*
X-56132153Y31516D01*
X-56147992Y-20699D01*
X-56153340Y-75000D01*
X-56153340Y-925000D01*
X-56147992Y-979301D01*
X-56132153Y-1031516D01*
X-56106431Y-1079637D01*
X-56071816Y-1121816D01*
X-56029637Y-1156431D01*
X-55981516Y-1182153D01*
X-55929301Y-1197992D01*
X-55875000Y-1203340D01*
X-55025000Y-1203340D01*
X-54970699Y-1197992D01*
X-54918484Y-1182153D01*
X-54870363Y-1156431D01*
X-54828184Y-1121816D01*
X-54812166Y-1102297D01*
X-54782522Y-1122105D01*
X-54654766Y-1175023D01*
X-54519141Y-1202000D01*
X-54380859Y-1202000D01*
X-54245234Y-1175023D01*
X-54234712Y-1170664D01*
X-52888877Y-2516499D01*
X-52878790Y-2528790D01*
X-52829759Y-2569029D01*
X-52773820Y-2598929D01*
X-52713123Y-2617341D01*
X-52665819Y-2622000D01*
X-52665810Y-2622000D01*
X-52650001Y-2623557D01*
X-52634192Y-2622000D01*
X-41270209Y-2622000D01*
X-41254398Y-2623557D01*
X-41238587Y-2622000D01*
X-41238579Y-2622000D01*
X-41191275Y-2617341D01*
X-41130578Y-2598929D01*
X-41074639Y-2569029D01*
X-41025608Y-2528790D01*
X-41015521Y-2516499D01*
X-39653149Y-1154127D01*
X-39634810Y-1172465D01*
X-39514100Y-1253121D01*
X-39379975Y-1308677D01*
X-39237588Y-1337000D01*
X-39092412Y-1337000D01*
X-38950025Y-1308677D01*
X-38815900Y-1253121D01*
X-38695190Y-1172465D01*
X-38592535Y-1069810D01*
X-38530000Y-976220D01*
X-38467465Y-1069810D01*
X-38364810Y-1172465D01*
X-38244100Y-1253121D01*
X-38109975Y-1308677D01*
X-37967588Y-1337000D01*
X-37822412Y-1337000D01*
X-37680025Y-1308677D01*
X-37545900Y-1253121D01*
X-37425190Y-1172465D01*
X-37322535Y-1069810D01*
X-37260000Y-976220D01*
X-37197465Y-1069810D01*
X-37094810Y-1172465D01*
X-36974100Y-1253121D01*
X-36839975Y-1308677D01*
X-36697588Y-1337000D01*
X-36552412Y-1337000D01*
X-36410025Y-1308677D01*
X-36275900Y-1253121D01*
X-36172240Y-1183858D01*
X-34512306Y-2843792D01*
X-34666513Y-2998000D01*
X-62533486Y-2998000D01*
X-62971660Y-2559826D01*
X-62971660Y-1150000D01*
X-62977008Y-1095699D01*
X-62992847Y-1043484D01*
X-63018569Y-995363D01*
X-63053184Y-953184D01*
X-63095363Y-918569D01*
X-63143484Y-892847D01*
X-63195699Y-877008D01*
X-63250000Y-871660D01*
X-64950000Y-871660D01*
X-65004301Y-877008D01*
X-65056516Y-892847D01*
X-65104637Y-918569D01*
X-65146816Y-953184D01*
X-65181431Y-995363D01*
X-65207153Y-1043484D01*
X-65222992Y-1095699D01*
X-65228340Y-1150000D01*
X-65228340Y-2850000D01*
X-65222992Y-2904301D01*
X-65207153Y-2956516D01*
X-65181431Y-3004637D01*
X-65146816Y-3046816D01*
X-65104637Y-3081431D01*
X-65056516Y-3107153D01*
X-65004301Y-3122992D01*
X-64950000Y-3128340D01*
X-63540174Y-3128340D01*
X-62998219Y-3670295D01*
X-62985632Y-3685632D01*
X-62924420Y-3735868D01*
X-62854583Y-3773197D01*
X-62778806Y-3796183D01*
X-62719747Y-3802000D01*
X-62719740Y-3802000D01*
X-62700000Y-3803944D01*
X-62680261Y-3802000D01*
X-34519739Y-3802000D01*
X-34500000Y-3803944D01*
X-34480261Y-3802000D01*
X-34480253Y-3802000D01*
X-34421194Y-3796183D01*
X-34345417Y-3773197D01*
X-34275580Y-3735868D01*
X-34214368Y-3685632D01*
X-34201777Y-3670290D01*
X-33996016Y-3464530D01*
X-33826111Y-3464530D01*
X-33806372Y-3466474D01*
X-33786633Y-3464530D01*
X2297731Y-3464530D01*
X2317470Y-3466474D01*
X2337209Y-3464530D01*
X2337217Y-3464530D01*
X2396276Y-3458713D01*
X2472053Y-3435727D01*
X2541890Y-3398398D01*
X2603102Y-3348162D01*
X2615693Y-3332820D01*
X4927424Y-1021089D01*
X5007412Y-1037000D01*
X5152588Y-1037000D01*
X5294975Y-1008677D01*
X5429100Y-953121D01*
X5549810Y-872465D01*
X5652465Y-769810D01*
X5715000Y-676220D01*
X5777535Y-769810D01*
X5880190Y-872465D01*
X6000900Y-953121D01*
X6135025Y-1008677D01*
X6277412Y-1037000D01*
X6422588Y-1037000D01*
X6564975Y-1008677D01*
X6699100Y-953121D01*
X6819810Y-872465D01*
X6922465Y-769810D01*
X7003121Y-649100D01*
X7058677Y-514975D01*
X7087000Y-372588D01*
X7087000Y-227412D01*
X7071089Y-147425D01*
X7080295Y-138219D01*
X7095631Y-125633D01*
X7145867Y-64421D01*
X7183196Y5416D01*
X7206182Y81193D01*
X7211999Y140252D01*
X7211999Y140259D01*
X7213943Y159999D01*
X7211999Y179738D01*
X7211999Y870262D01*
X7213943Y890002D01*
X7211999Y909741D01*
X7211999Y909748D01*
X7206182Y968807D01*
X7183196Y1044584D01*
X7145867Y1114421D01*
X7095631Y1175633D01*
X7080294Y1188220D01*
X4815675Y3452838D01*
X4803084Y3468180D01*
X4741872Y3518416D01*
X4672035Y3555745D01*
X4596258Y3578731D01*
X4537199Y3584548D01*
X4537191Y3584548D01*
X4517452Y3586492D01*
X4497713Y3584548D01*
X-38476396Y3584548D01*
X-38496135Y3586492D01*
X-38515875Y3584548D01*
X-38515882Y3584548D01*
X-38574941Y3578731D01*
X-38650719Y3555745D01*
X-38720555Y3518416D01*
X-38781767Y3468180D01*
X-38794354Y3452843D01*
X-39345196Y2902000D01*
X-60480261Y2902000D01*
X-60500000Y2903944D01*
X-60519740Y2902000D01*
X-60519747Y2902000D01*
X-60578806Y2896183D01*
X-60654583Y2873197D01*
X-60724420Y2835868D01*
X-60785632Y2785632D01*
X-60798219Y2770295D01*
X-61166513Y2402000D01*
X-62971660Y2402000D01*
X-62971660Y2850000D01*
X-62977008Y2904301D01*
X-62992847Y2956516D01*
X-63018569Y3004637D01*
X-63053184Y3046816D01*
X-63095363Y3081431D01*
X-63143484Y3107153D01*
X-63195699Y3122992D01*
X-63250000Y3128340D01*
X-64950000Y3128340D01*
X-65004301Y3122992D01*
X-65056516Y3107153D01*
X-65104637Y3081431D01*
X-65146816Y3046816D01*
X-65181431Y3004637D01*
X-65207153Y2956516D01*
X-65222992Y2904301D01*
X-65228340Y2850000D01*
X-65896181Y2850000D01*
X-65921579Y2875398D01*
X-66106165Y2998734D01*
X-66311266Y3083690D01*
X-66529000Y3127000D01*
X-66751000Y3127000D01*
X-66968734Y3083690D01*
X-67173835Y2998734D01*
X-67358421Y2875398D01*
X-67515398Y2718421D01*
X-67638734Y2533835D01*
X-67723690Y2328734D01*
X-67767000Y2111000D01*
X-68598000Y2111000D01*
X-68598000Y3698000D01*
X13698000Y3698000D01*
X13698001Y-3948000D01*
%TA.AperFunction,Conductor*%
D20*
G36*
X13698001Y-3948000D02*
G01*
X-68598000Y-3948000D01*
X-68598000Y-1889000D01*
X-67767000Y-1889000D01*
X-67767000Y-2111000D01*
X-67723690Y-2328734D01*
X-67638734Y-2533835D01*
X-67515398Y-2718421D01*
X-67358421Y-2875398D01*
X-67173835Y-2998734D01*
X-66968734Y-3083690D01*
X-66751000Y-3127000D01*
X-66529000Y-3127000D01*
X-66311266Y-3083690D01*
X-66106165Y-2998734D01*
X-65921579Y-2875398D01*
X-65764602Y-2718421D01*
X-65641266Y-2533835D01*
X-65556310Y-2328734D01*
X-65513000Y-2111000D01*
X-65513000Y-1889000D01*
X-65556310Y-1671266D01*
X-65641266Y-1466165D01*
X-65764602Y-1281579D01*
X-65921579Y-1124602D01*
X-66106165Y-1001266D01*
X-66311266Y-916310D01*
X-66529000Y-873000D01*
X-66751000Y-873000D01*
X-66968734Y-916310D01*
X-67173835Y-1001266D01*
X-67358421Y-1124602D01*
X-67515398Y-1281579D01*
X-67638734Y-1466165D01*
X-67723690Y-1671266D01*
X-67767000Y-1889000D01*
X-68598000Y-1889000D01*
X-68598000Y2111000D01*
X-67767000Y2111000D01*
X-67767000Y1889000D01*
X-67723690Y1671266D01*
X-67638734Y1466165D01*
X-67515398Y1281579D01*
X-67358421Y1124602D01*
X-67173835Y1001266D01*
X-66968734Y916310D01*
X-66751000Y873000D01*
X-66529000Y873000D01*
X-66311266Y916310D01*
X-66106165Y1001266D01*
X-65921579Y1124602D01*
X-65764602Y1281579D01*
X-65641266Y1466165D01*
X-65556310Y1671266D01*
X-65513000Y1889000D01*
X-65513000Y2111000D01*
X-65556310Y2328734D01*
X-65641266Y2533835D01*
X-65764602Y2718421D01*
X-65896181Y2850000D01*
X-65228340Y2850000D01*
X-65228340Y1150000D01*
X-65222992Y1095699D01*
X-65207153Y1043484D01*
X-65181431Y995363D01*
X-65146816Y953184D01*
X-65104637Y918569D01*
X-65056516Y892847D01*
X-65004301Y877008D01*
X-64950000Y871660D01*
X-63250000Y871660D01*
X-63195699Y877008D01*
X-63143484Y892847D01*
X-63095363Y918569D01*
X-63053184Y953184D01*
X-63018569Y995363D01*
X-62992847Y1043484D01*
X-62977008Y1095699D01*
X-62971660Y1150000D01*
X-62971660Y1598000D01*
X-61019739Y1598000D01*
X-61000000Y1596056D01*
X-60980261Y1598000D01*
X-60980253Y1598000D01*
X-60921194Y1603817D01*
X-60845417Y1626803D01*
X-60775580Y1664132D01*
X-60714368Y1714368D01*
X-60701777Y1729710D01*
X-60333486Y2098000D01*
X-53908417Y2098000D01*
X-54666503Y1339913D01*
X-54678789Y1329830D01*
X-54688872Y1317544D01*
X-54688874Y1317542D01*
X-54719028Y1280799D01*
X-54748928Y1224860D01*
X-54767341Y1164163D01*
X-54771013Y1126872D01*
X-54782522Y1122105D01*
X-54897499Y1045279D01*
X-54950000Y992778D01*
X-55002501Y1045279D01*
X-55117478Y1122105D01*
X-55245234Y1175023D01*
X-55380859Y1202000D01*
X-55519141Y1202000D01*
X-55654766Y1175023D01*
X-55782522Y1122105D01*
X-55897499Y1045279D01*
X-55995279Y947499D01*
X-56072105Y832522D01*
X-56125023Y704766D01*
X-56152000Y569141D01*
X-56152000Y430859D01*
X-56125023Y295234D01*
X-56072105Y167478D01*
X-56052297Y137834D01*
X-56071816Y121816D01*
X-56106431Y79637D01*
X-56132153Y31516D01*
X-56147992Y-20699D01*
X-56153340Y-75000D01*
X-56153340Y-925000D01*
X-56147992Y-979301D01*
X-56132153Y-1031516D01*
X-56106431Y-1079637D01*
X-56071816Y-1121816D01*
X-56029637Y-1156431D01*
X-55981516Y-1182153D01*
X-55929301Y-1197992D01*
X-55875000Y-1203340D01*
X-55025000Y-1203340D01*
X-54970699Y-1197992D01*
X-54918484Y-1182153D01*
X-54870363Y-1156431D01*
X-54828184Y-1121816D01*
X-54812166Y-1102297D01*
X-54782522Y-1122105D01*
X-54654766Y-1175023D01*
X-54519141Y-1202000D01*
X-54380859Y-1202000D01*
X-54245234Y-1175023D01*
X-54234712Y-1170664D01*
X-52888877Y-2516499D01*
X-52878790Y-2528790D01*
X-52829759Y-2569029D01*
X-52773820Y-2598929D01*
X-52713123Y-2617341D01*
X-52665819Y-2622000D01*
X-52665810Y-2622000D01*
X-52650001Y-2623557D01*
X-52634192Y-2622000D01*
X-41270209Y-2622000D01*
X-41254398Y-2623557D01*
X-41238587Y-2622000D01*
X-41238579Y-2622000D01*
X-41191275Y-2617341D01*
X-41130578Y-2598929D01*
X-41074639Y-2569029D01*
X-41025608Y-2528790D01*
X-41015521Y-2516499D01*
X-39653149Y-1154127D01*
X-39634810Y-1172465D01*
X-39514100Y-1253121D01*
X-39379975Y-1308677D01*
X-39237588Y-1337000D01*
X-39092412Y-1337000D01*
X-38950025Y-1308677D01*
X-38815900Y-1253121D01*
X-38695190Y-1172465D01*
X-38592535Y-1069810D01*
X-38530000Y-976220D01*
X-38467465Y-1069810D01*
X-38364810Y-1172465D01*
X-38244100Y-1253121D01*
X-38109975Y-1308677D01*
X-37967588Y-1337000D01*
X-37822412Y-1337000D01*
X-37680025Y-1308677D01*
X-37545900Y-1253121D01*
X-37425190Y-1172465D01*
X-37322535Y-1069810D01*
X-37260000Y-976220D01*
X-37197465Y-1069810D01*
X-37094810Y-1172465D01*
X-36974100Y-1253121D01*
X-36839975Y-1308677D01*
X-36697588Y-1337000D01*
X-36552412Y-1337000D01*
X-36410025Y-1308677D01*
X-36275900Y-1253121D01*
X-36172240Y-1183858D01*
X-34512306Y-2843792D01*
X-34666513Y-2998000D01*
X-62533486Y-2998000D01*
X-62971660Y-2559826D01*
X-62971660Y-1150000D01*
X-62977008Y-1095699D01*
X-62992847Y-1043484D01*
X-63018569Y-995363D01*
X-63053184Y-953184D01*
X-63095363Y-918569D01*
X-63143484Y-892847D01*
X-63195699Y-877008D01*
X-63250000Y-871660D01*
X-64950000Y-871660D01*
X-65004301Y-877008D01*
X-65056516Y-892847D01*
X-65104637Y-918569D01*
X-65146816Y-953184D01*
X-65181431Y-995363D01*
X-65207153Y-1043484D01*
X-65222992Y-1095699D01*
X-65228340Y-1150000D01*
X-65228340Y-2850000D01*
X-65222992Y-2904301D01*
X-65207153Y-2956516D01*
X-65181431Y-3004637D01*
X-65146816Y-3046816D01*
X-65104637Y-3081431D01*
X-65056516Y-3107153D01*
X-65004301Y-3122992D01*
X-64950000Y-3128340D01*
X-63540174Y-3128340D01*
X-62998219Y-3670295D01*
X-62985632Y-3685632D01*
X-62924420Y-3735868D01*
X-62854583Y-3773197D01*
X-62778806Y-3796183D01*
X-62719747Y-3802000D01*
X-62719740Y-3802000D01*
X-62700000Y-3803944D01*
X-62680261Y-3802000D01*
X-34519739Y-3802000D01*
X-34500000Y-3803944D01*
X-34480261Y-3802000D01*
X-34480253Y-3802000D01*
X-34421194Y-3796183D01*
X-34345417Y-3773197D01*
X-34275580Y-3735868D01*
X-34214368Y-3685632D01*
X-34201777Y-3670290D01*
X-33996016Y-3464530D01*
X-33826111Y-3464530D01*
X-33806372Y-3466474D01*
X-33786633Y-3464530D01*
X2297731Y-3464530D01*
X2317470Y-3466474D01*
X2337209Y-3464530D01*
X2337217Y-3464530D01*
X2396276Y-3458713D01*
X2472053Y-3435727D01*
X2541890Y-3398398D01*
X2603102Y-3348162D01*
X2615693Y-3332820D01*
X4927424Y-1021089D01*
X5007412Y-1037000D01*
X5152588Y-1037000D01*
X5294975Y-1008677D01*
X5429100Y-953121D01*
X5549810Y-872465D01*
X5652465Y-769810D01*
X5715000Y-676220D01*
X5777535Y-769810D01*
X5880190Y-872465D01*
X6000900Y-953121D01*
X6135025Y-1008677D01*
X6277412Y-1037000D01*
X6422588Y-1037000D01*
X6564975Y-1008677D01*
X6699100Y-953121D01*
X6819810Y-872465D01*
X6922465Y-769810D01*
X7003121Y-649100D01*
X7058677Y-514975D01*
X7087000Y-372588D01*
X7087000Y-227412D01*
X7071089Y-147425D01*
X7080295Y-138219D01*
X7095631Y-125633D01*
X7145867Y-64421D01*
X7183196Y5416D01*
X7206182Y81193D01*
X7211999Y140252D01*
X7211999Y140259D01*
X7213943Y159999D01*
X7211999Y179738D01*
X7211999Y870262D01*
X7213943Y890002D01*
X7211999Y909741D01*
X7211999Y909748D01*
X7206182Y968807D01*
X7183196Y1044584D01*
X7145867Y1114421D01*
X7095631Y1175633D01*
X7080294Y1188220D01*
X4815675Y3452838D01*
X4803084Y3468180D01*
X4741872Y3518416D01*
X4672035Y3555745D01*
X4596258Y3578731D01*
X4537199Y3584548D01*
X4537191Y3584548D01*
X4517452Y3586492D01*
X4497713Y3584548D01*
X-38476396Y3584548D01*
X-38496135Y3586492D01*
X-38515875Y3584548D01*
X-38515882Y3584548D01*
X-38574941Y3578731D01*
X-38650719Y3555745D01*
X-38720555Y3518416D01*
X-38781767Y3468180D01*
X-38794354Y3452843D01*
X-39345196Y2902000D01*
X-60480261Y2902000D01*
X-60500000Y2903944D01*
X-60519740Y2902000D01*
X-60519747Y2902000D01*
X-60578806Y2896183D01*
X-60654583Y2873197D01*
X-60724420Y2835868D01*
X-60785632Y2785632D01*
X-60798219Y2770295D01*
X-61166513Y2402000D01*
X-62971660Y2402000D01*
X-62971660Y2850000D01*
X-62977008Y2904301D01*
X-62992847Y2956516D01*
X-63018569Y3004637D01*
X-63053184Y3046816D01*
X-63095363Y3081431D01*
X-63143484Y3107153D01*
X-63195699Y3122992D01*
X-63250000Y3128340D01*
X-64950000Y3128340D01*
X-65004301Y3122992D01*
X-65056516Y3107153D01*
X-65104637Y3081431D01*
X-65146816Y3046816D01*
X-65181431Y3004637D01*
X-65207153Y2956516D01*
X-65222992Y2904301D01*
X-65228340Y2850000D01*
X-65896181Y2850000D01*
X-65921579Y2875398D01*
X-66106165Y2998734D01*
X-66311266Y3083690D01*
X-66529000Y3127000D01*
X-66751000Y3127000D01*
X-66968734Y3083690D01*
X-67173835Y2998734D01*
X-67358421Y2875398D01*
X-67515398Y2718421D01*
X-67638734Y2533835D01*
X-67723690Y2328734D01*
X-67767000Y2111000D01*
X-68598000Y2111000D01*
X-68598000Y3698000D01*
X13698000Y3698000D01*
X13698001Y-3948000D01*
G37*
%TD.AperFunction*%
D19*
X-7056772Y-80425D02*
X-7058677Y-85025D01*
X-7087000Y-227412D01*
X-7087000Y-372588D01*
X-7058677Y-514975D01*
X-7003121Y-649100D01*
X-6922465Y-769810D01*
X-6819810Y-872465D01*
X-6699100Y-953121D01*
X-6564975Y-1008677D01*
X-6422588Y-1037000D01*
X-6277412Y-1037000D01*
X-6135025Y-1008677D01*
X-6000900Y-953121D01*
X-5880190Y-872465D01*
X-5777535Y-769810D01*
X-5715000Y-676220D01*
X-5652465Y-769810D01*
X-5549810Y-872465D01*
X-5429100Y-953121D01*
X-5294975Y-1008677D01*
X-5152588Y-1037000D01*
X-5007412Y-1037000D01*
X-4865025Y-1008677D01*
X-4730900Y-953121D01*
X-4610190Y-872465D01*
X-4507535Y-769810D01*
X-4445000Y-676220D01*
X-4382465Y-769810D01*
X-4279810Y-872465D01*
X-4159100Y-953121D01*
X-4024975Y-1008677D01*
X-3882588Y-1037000D01*
X-3737412Y-1037000D01*
X-3595025Y-1008677D01*
X-3460900Y-953121D01*
X-3340190Y-872465D01*
X-3237535Y-769810D01*
X-3175000Y-676220D01*
X-3112465Y-769810D01*
X-3009810Y-872465D01*
X-2889100Y-953121D01*
X-2754975Y-1008677D01*
X-2612588Y-1037000D01*
X-2467412Y-1037000D01*
X-2325025Y-1008677D01*
X-2190900Y-953121D01*
X-2070190Y-872465D01*
X-1967535Y-769810D01*
X-1905000Y-676220D01*
X-1842465Y-769810D01*
X-1739810Y-872465D01*
X-1619100Y-953121D01*
X-1484975Y-1008677D01*
X-1342588Y-1037000D01*
X-1197412Y-1037000D01*
X-1055025Y-1008677D01*
X-920900Y-953121D01*
X-800190Y-872465D01*
X-697535Y-769810D01*
X-635000Y-676220D01*
X-572465Y-769810D01*
X-469810Y-872465D01*
X-349100Y-953121D01*
X-214975Y-1008677D01*
X-72588Y-1037000D01*
X45804Y-1037000D01*
X-902696Y-1985500D01*
X-30586205Y-1985500D01*
X-31282651Y-1289054D01*
X-31195900Y-1253121D01*
X-31075190Y-1172465D01*
X-30972535Y-1069810D01*
X-30910000Y-976220D01*
X-30847465Y-1069810D01*
X-30744810Y-1172465D01*
X-30624100Y-1253121D01*
X-30489975Y-1308677D01*
X-30347588Y-1337000D01*
X-30202412Y-1337000D01*
X-30060025Y-1308677D01*
X-29925900Y-1253121D01*
X-29805190Y-1172465D01*
X-29702535Y-1069810D01*
X-29640000Y-976220D01*
X-29577465Y-1069810D01*
X-29474810Y-1172465D01*
X-29354100Y-1253121D01*
X-29219975Y-1308677D01*
X-29077588Y-1337000D01*
X-28932412Y-1337000D01*
X-28790025Y-1308677D01*
X-28655900Y-1253121D01*
X-28535190Y-1172465D01*
X-28432535Y-1069810D01*
X-28370000Y-976220D01*
X-28307465Y-1069810D01*
X-28204810Y-1172465D01*
X-28084100Y-1253121D01*
X-27949975Y-1308677D01*
X-27807588Y-1337000D01*
X-27662412Y-1337000D01*
X-27520025Y-1308677D01*
X-27385900Y-1253121D01*
X-27265190Y-1172465D01*
X-27162535Y-1069810D01*
X-27100000Y-976220D01*
X-27037465Y-1069810D01*
X-26934810Y-1172465D01*
X-26814100Y-1253121D01*
X-26679975Y-1308677D01*
X-26537588Y-1337000D01*
X-26392412Y-1337000D01*
X-26250025Y-1308677D01*
X-26115900Y-1253121D01*
X-25995190Y-1172465D01*
X-25892535Y-1069810D01*
X-25811879Y-949100D01*
X-25756323Y-814975D01*
X-25728000Y-672588D01*
X-25728000Y-527412D01*
X-25756323Y-385025D01*
X-25811879Y-250900D01*
X-25821167Y-237000D01*
X-25757412Y-237000D01*
X-25615025Y-208677D01*
X-25480900Y-153121D01*
X-25360190Y-72465D01*
X-25257535Y30190D01*
X-25176879Y150900D01*
X-25121323Y285025D01*
X-25093000Y427412D01*
X-25093000Y572588D01*
X-25121323Y714975D01*
X-25123228Y719575D01*
X-24187303Y1655500D01*
X-8792696Y1655500D01*
X-7056772Y-80425D01*
%TA.AperFunction,Conductor*%
D20*
G36*
X-7056772Y-80425D02*
G01*
X-7058677Y-85025D01*
X-7087000Y-227412D01*
X-7087000Y-372588D01*
X-7058677Y-514975D01*
X-7003121Y-649100D01*
X-6922465Y-769810D01*
X-6819810Y-872465D01*
X-6699100Y-953121D01*
X-6564975Y-1008677D01*
X-6422588Y-1037000D01*
X-6277412Y-1037000D01*
X-6135025Y-1008677D01*
X-6000900Y-953121D01*
X-5880190Y-872465D01*
X-5777535Y-769810D01*
X-5715000Y-676220D01*
X-5652465Y-769810D01*
X-5549810Y-872465D01*
X-5429100Y-953121D01*
X-5294975Y-1008677D01*
X-5152588Y-1037000D01*
X-5007412Y-1037000D01*
X-4865025Y-1008677D01*
X-4730900Y-953121D01*
X-4610190Y-872465D01*
X-4507535Y-769810D01*
X-4445000Y-676220D01*
X-4382465Y-769810D01*
X-4279810Y-872465D01*
X-4159100Y-953121D01*
X-4024975Y-1008677D01*
X-3882588Y-1037000D01*
X-3737412Y-1037000D01*
X-3595025Y-1008677D01*
X-3460900Y-953121D01*
X-3340190Y-872465D01*
X-3237535Y-769810D01*
X-3175000Y-676220D01*
X-3112465Y-769810D01*
X-3009810Y-872465D01*
X-2889100Y-953121D01*
X-2754975Y-1008677D01*
X-2612588Y-1037000D01*
X-2467412Y-1037000D01*
X-2325025Y-1008677D01*
X-2190900Y-953121D01*
X-2070190Y-872465D01*
X-1967535Y-769810D01*
X-1905000Y-676220D01*
X-1842465Y-769810D01*
X-1739810Y-872465D01*
X-1619100Y-953121D01*
X-1484975Y-1008677D01*
X-1342588Y-1037000D01*
X-1197412Y-1037000D01*
X-1055025Y-1008677D01*
X-920900Y-953121D01*
X-800190Y-872465D01*
X-697535Y-769810D01*
X-635000Y-676220D01*
X-572465Y-769810D01*
X-469810Y-872465D01*
X-349100Y-953121D01*
X-214975Y-1008677D01*
X-72588Y-1037000D01*
X45804Y-1037000D01*
X-902696Y-1985500D01*
X-30586205Y-1985500D01*
X-31282651Y-1289054D01*
X-31195900Y-1253121D01*
X-31075190Y-1172465D01*
X-30972535Y-1069810D01*
X-30910000Y-976220D01*
X-30847465Y-1069810D01*
X-30744810Y-1172465D01*
X-30624100Y-1253121D01*
X-30489975Y-1308677D01*
X-30347588Y-1337000D01*
X-30202412Y-1337000D01*
X-30060025Y-1308677D01*
X-29925900Y-1253121D01*
X-29805190Y-1172465D01*
X-29702535Y-1069810D01*
X-29640000Y-976220D01*
X-29577465Y-1069810D01*
X-29474810Y-1172465D01*
X-29354100Y-1253121D01*
X-29219975Y-1308677D01*
X-29077588Y-1337000D01*
X-28932412Y-1337000D01*
X-28790025Y-1308677D01*
X-28655900Y-1253121D01*
X-28535190Y-1172465D01*
X-28432535Y-1069810D01*
X-28370000Y-976220D01*
X-28307465Y-1069810D01*
X-28204810Y-1172465D01*
X-28084100Y-1253121D01*
X-27949975Y-1308677D01*
X-27807588Y-1337000D01*
X-27662412Y-1337000D01*
X-27520025Y-1308677D01*
X-27385900Y-1253121D01*
X-27265190Y-1172465D01*
X-27162535Y-1069810D01*
X-27100000Y-976220D01*
X-27037465Y-1069810D01*
X-26934810Y-1172465D01*
X-26814100Y-1253121D01*
X-26679975Y-1308677D01*
X-26537588Y-1337000D01*
X-26392412Y-1337000D01*
X-26250025Y-1308677D01*
X-26115900Y-1253121D01*
X-25995190Y-1172465D01*
X-25892535Y-1069810D01*
X-25811879Y-949100D01*
X-25756323Y-814975D01*
X-25728000Y-672588D01*
X-25728000Y-527412D01*
X-25756323Y-385025D01*
X-25811879Y-250900D01*
X-25821167Y-237000D01*
X-25757412Y-237000D01*
X-25615025Y-208677D01*
X-25480900Y-153121D01*
X-25360190Y-72465D01*
X-25257535Y30190D01*
X-25176879Y150900D01*
X-25121323Y285025D01*
X-25093000Y427412D01*
X-25093000Y572588D01*
X-25121323Y714975D01*
X-25123228Y719575D01*
X-24187303Y1655500D01*
X-8792696Y1655500D01*
X-7056772Y-80425D01*
G37*
%TD.AperFunction*%
D19*
X-41275365Y1210589D02*
X-41284975Y1208677D01*
X-41419100Y1153121D01*
X-41539810Y1072465D01*
X-41642465Y969810D01*
X-41723121Y849100D01*
X-41778677Y714975D01*
X-41807000Y572588D01*
X-41807000Y427412D01*
X-41778677Y285025D01*
X-41723121Y150900D01*
X-41642465Y30190D01*
X-41539810Y-72465D01*
X-41419100Y-153121D01*
X-41284975Y-208677D01*
X-41142588Y-237000D01*
X-41078833Y-237000D01*
X-41088121Y-250900D01*
X-41143677Y-385025D01*
X-41172000Y-527412D01*
X-41172000Y-672588D01*
X-41143677Y-814975D01*
X-41088121Y-949100D01*
X-41007465Y-1069810D01*
X-40904810Y-1172465D01*
X-40784100Y-1253121D01*
X-40698395Y-1288621D01*
X-41387774Y-1978000D01*
X-52516624Y-1978000D01*
X-53779336Y-715288D01*
X-53774977Y-704766D01*
X-53748000Y-569141D01*
X-53748000Y-430859D01*
X-53774977Y-295234D01*
X-53827895Y-167478D01*
X-53904721Y-52501D01*
X-53957222Y0D01*
X-53904721Y52501D01*
X-53827895Y167478D01*
X-53774977Y295234D01*
X-53748000Y430859D01*
X-53748000Y569141D01*
X-53774977Y704766D01*
X-53827895Y832522D01*
X-53904721Y947499D01*
X-54002501Y1045279D01*
X-54031205Y1064459D01*
X-53217663Y1878000D01*
X-41942776Y1878000D01*
X-41275365Y1210589D01*
%TA.AperFunction,Conductor*%
D20*
G36*
X-41275365Y1210589D02*
G01*
X-41284975Y1208677D01*
X-41419100Y1153121D01*
X-41539810Y1072465D01*
X-41642465Y969810D01*
X-41723121Y849100D01*
X-41778677Y714975D01*
X-41807000Y572588D01*
X-41807000Y427412D01*
X-41778677Y285025D01*
X-41723121Y150900D01*
X-41642465Y30190D01*
X-41539810Y-72465D01*
X-41419100Y-153121D01*
X-41284975Y-208677D01*
X-41142588Y-237000D01*
X-41078833Y-237000D01*
X-41088121Y-250900D01*
X-41143677Y-385025D01*
X-41172000Y-527412D01*
X-41172000Y-672588D01*
X-41143677Y-814975D01*
X-41088121Y-949100D01*
X-41007465Y-1069810D01*
X-40904810Y-1172465D01*
X-40784100Y-1253121D01*
X-40698395Y-1288621D01*
X-41387774Y-1978000D01*
X-52516624Y-1978000D01*
X-53779336Y-715288D01*
X-53774977Y-704766D01*
X-53748000Y-569141D01*
X-53748000Y-430859D01*
X-53774977Y-295234D01*
X-53827895Y-167478D01*
X-53904721Y-52501D01*
X-53957222Y0D01*
X-53904721Y52501D01*
X-53827895Y167478D01*
X-53774977Y295234D01*
X-53748000Y430859D01*
X-53748000Y569141D01*
X-53774977Y704766D01*
X-53827895Y832522D01*
X-53904721Y947499D01*
X-54002501Y1045279D01*
X-54031205Y1064459D01*
X-53217663Y1878000D01*
X-41942776Y1878000D01*
X-41275365Y1210589D01*
G37*
%TD.AperFunction*%
%TD*%
M02*
