%TF.GenerationSoftware,KiCad,Pcbnew,(5.1.9)-1*%
%TF.CreationDate,2021-08-06T15:53:26-06:00*%
%TF.ProjectId,21to25,3231746f-3235-42e6-9b69-6361645f7063,rev?*%
%TF.SameCoordinates,Original*%
%TF.FileFunction,Legend,Top*%
%TF.FilePolarity,Positive*%
%FSLAX46Y46*%
G04 Gerber Fmt 4.6, Leading zero omitted, Abs format (unit mm)*
G04 Created by KiCad (PCBNEW (5.1.9)-1) date 2021-08-06 15:53:26*
%MOMM*%
%LPD*%
G01*
G04 APERTURE LIST*
%ADD10C,0.150000*%
%ADD11C,0.120000*%
G04 APERTURE END LIST*
D10*
%TO.C,J2*%
X-42530000Y1460000D02*
X-25370000Y1460000D01*
X-42530000Y-1560000D02*
X-42530000Y1460000D01*
X-24370000Y-1560000D02*
X-42530000Y-1560000D01*
X-24370000Y460000D02*
X-24370000Y-1560000D01*
X-25370000Y1460000D02*
X-24370000Y460000D01*
D11*
%TO.C,J1*%
X-56585000Y-1310000D02*
X-56585000Y-600000D01*
X-55900000Y-1310000D02*
X-56585000Y-1310000D01*
X-56460000Y794493D02*
X-56460000Y1110000D01*
X-55215000Y-1310000D02*
X-55215000Y-1208276D01*
X-56460000Y1110000D02*
X-54340000Y1110000D01*
X-55215000Y-1310000D02*
X-54340000Y-1310000D01*
X-54340000Y-205507D02*
X-54340000Y5507D01*
X-54340000Y794493D02*
X-54340000Y1110000D01*
X-54340000Y-1310000D02*
X-54340000Y-994493D01*
%TO.C,J2*%
D10*
X-51900000Y-2092857D02*
X-51900000Y-2950000D01*
X-51957142Y-3121428D01*
X-52071428Y-3235714D01*
X-52242857Y-3292857D01*
X-52357142Y-3292857D01*
X-51385714Y-2207142D02*
X-51328571Y-2150000D01*
X-51214285Y-2092857D01*
X-50928571Y-2092857D01*
X-50814285Y-2150000D01*
X-50757142Y-2207142D01*
X-50700000Y-2321428D01*
X-50700000Y-2435714D01*
X-50757142Y-2607142D01*
X-51442857Y-3292857D01*
X-50700000Y-3292857D01*
%TO.C,J1*%
X-60297619Y-783333D02*
X-59583333Y-783333D01*
X-59440476Y-830952D01*
X-59345238Y-926190D01*
X-59297619Y-1069047D01*
X-59297619Y-1164285D01*
X-59297619Y216666D02*
X-59297619Y-354761D01*
X-59297619Y-69047D02*
X-60297619Y-69047D01*
X-60154761Y-164285D01*
X-60059523Y-259523D01*
X-60011904Y-354761D01*
%TD*%
M02*
