%TF.GenerationSoftware,KiCad,Pcbnew,(5.1.9)-1*%
%TF.CreationDate,2021-08-06T15:53:26-06:00*%
%TF.ProjectId,21to25,3231746f-3235-42e6-9b69-6361645f7063,rev?*%
%TF.SameCoordinates,Original*%
%TF.FileFunction,Copper,L2,Bot*%
%TF.FilePolarity,Positive*%
%FSLAX46Y46*%
G04 Gerber Fmt 4.6, Leading zero omitted, Abs format (unit mm)*
G04 Created by KiCad (PCBNEW (5.1.9)-1) date 2021-08-06 15:53:26*
%MOMM*%
%LPD*%
G01*
G04 APERTURE LIST*
%TA.AperFunction,ComponentPad*%
%ADD10O,2.810000X2.810000*%
%TD*%
%TA.AperFunction,ComponentPad*%
%ADD11O,0.920000X0.920000*%
%TD*%
%TA.AperFunction,ComponentPad*%
%ADD12O,0.850000X0.850000*%
%TD*%
%TA.AperFunction,ComponentPad*%
%ADD13R,0.850000X0.850000*%
%TD*%
%TA.AperFunction,Conductor*%
%ADD14C,0.090000*%
%TD*%
%TA.AperFunction,NonConductor*%
%ADD15C,0.254000*%
%TD*%
%TA.AperFunction,NonConductor*%
%ADD16C,0.100000*%
%TD*%
G04 APERTURE END LIST*
D10*
%TO.P,J2,27*%
%TO.N,N/C*%
X-21175000Y-50000D03*
%TO.P,J2,26*%
X-45725000Y-50000D03*
D11*
%TO.P,J2,13*%
%TO.N,Net-(J2-Pad13)*%
X-41070000Y500000D03*
%TO.P,J2,25*%
%TO.N,Net-(J1-Pad4)*%
X-40435000Y-600000D03*
%TO.P,J2,12*%
%TO.N,Net-(J1-Pad3)*%
X-39800000Y500000D03*
%TO.P,J2,24*%
%TO.N,Net-(J1-Pad2)*%
X-39165000Y-600000D03*
%TO.P,J2,11*%
%TO.N,Net-(J1-Pad1)*%
X-38530000Y500000D03*
%TO.P,J2,23*%
%TO.N,Net-(J2-Pad23)*%
X-37895000Y-600000D03*
%TO.P,J2,10*%
%TO.N,Net-(J2-Pad10)*%
X-37260000Y500000D03*
%TO.P,J2,22*%
%TO.N,Net-(J2-Pad22)*%
X-36625000Y-600000D03*
%TO.P,J2,9*%
%TO.N,Net-(J2-Pad9)*%
X-35990000Y500000D03*
%TO.P,J2,21*%
%TO.N,Net-(J2-Pad21)*%
X-35355000Y-600000D03*
%TO.P,J2,8*%
%TO.N,Net-(J2-Pad8)*%
X-34720000Y500000D03*
%TO.P,J2,20*%
%TO.N,Net-(J2-Pad20)*%
X-34085000Y-600000D03*
%TO.P,J2,7*%
%TO.N,Net-(J2-Pad7)*%
X-33450000Y500000D03*
%TO.P,J2,19*%
%TO.N,Net-(J2-Pad19)*%
X-32815000Y-600000D03*
%TO.P,J2,6*%
%TO.N,Net-(J2-Pad6)*%
X-32180000Y500000D03*
%TO.P,J2,18*%
%TO.N,Net-(J2-Pad18)*%
X-31545000Y-600000D03*
%TO.P,J2,5*%
%TO.N,Net-(J2-Pad5)*%
X-30910000Y500000D03*
%TO.P,J2,17*%
%TO.N,Net-(J2-Pad17)*%
X-30275000Y-600000D03*
%TO.P,J2,4*%
%TO.N,Net-(J2-Pad4)*%
X-29640000Y500000D03*
%TO.P,J2,16*%
%TO.N,Net-(J2-Pad16)*%
X-29005000Y-600000D03*
%TO.P,J2,3*%
%TO.N,Net-(J2-Pad3)*%
X-28370000Y500000D03*
%TO.P,J2,15*%
%TO.N,Net-(J2-Pad15)*%
X-27735000Y-600000D03*
%TO.P,J2,2*%
%TO.N,Net-(J2-Pad2)*%
X-27100000Y500000D03*
%TO.P,J2,14*%
%TO.N,Net-(J2-Pad14)*%
X-26465000Y-600000D03*
%TO.P,J2,1*%
%TO.N,Net-(J2-Pad1)*%
X-25830000Y500000D03*
%TD*%
%TO.P,M211,21*%
%TO.N,Net-(J2-Pad23)*%
X5720000Y800000D03*
%TO.P,M211,20*%
%TO.N,Net-(J2-Pad22)*%
X4450000Y800000D03*
%TO.P,M211,19*%
%TO.N,Net-(J2-Pad21)*%
X3180000Y800000D03*
%TO.P,M211,18*%
%TO.N,Net-(J2-Pad20)*%
X1910000Y800000D03*
%TO.P,M211,17*%
%TO.N,Net-(J2-Pad19)*%
X640000Y800000D03*
%TO.P,M211,16*%
%TO.N,Net-(J2-Pad18)*%
X-630000Y800000D03*
%TO.P,M211,15*%
%TO.N,Net-(J2-Pad17)*%
X-1900000Y800000D03*
%TO.P,M211,14*%
%TO.N,Net-(J2-Pad16)*%
X-3170000Y800000D03*
%TO.P,M211,13*%
%TO.N,Net-(J2-Pad15)*%
X-4440000Y800000D03*
%TO.P,M211,11*%
%TO.N,Net-(J2-Pad10)*%
X6350000Y-300000D03*
%TO.P,M211,10*%
%TO.N,Net-(J2-Pad9)*%
X5080000Y-300000D03*
%TO.P,M211,9*%
%TO.N,Net-(J2-Pad8)*%
X3810000Y-300000D03*
%TO.P,M211,8*%
%TO.N,Net-(J2-Pad7)*%
X2540000Y-300000D03*
%TO.P,M211,7*%
%TO.N,Net-(J2-Pad6)*%
X1270000Y-300000D03*
%TO.P,M211,6*%
%TO.N,Net-(J2-Pad5)*%
X0Y-300000D03*
%TO.P,M211,5*%
%TO.N,Net-(J2-Pad4)*%
X-1270000Y-300000D03*
%TO.P,M211,4*%
%TO.N,Net-(J2-Pad3)*%
X-2540000Y-300000D03*
%TO.P,M211,3*%
%TO.N,Net-(M211-Pad3)*%
X-3810000Y-300000D03*
%TO.P,M211,2*%
%TO.N,Net-(J2-Pad2)*%
X-5080000Y-300000D03*
%TO.P,M211,12*%
%TO.N,Net-(J2-Pad14)*%
X-5710000Y800000D03*
%TO.P,M211,1*%
%TO.N,Net-(J2-Pad1)*%
X-6350000Y-300000D03*
%TD*%
D12*
%TO.P,J1,4*%
%TO.N,Net-(J1-Pad4)*%
X-54900000Y400000D03*
%TO.P,J1,3*%
%TO.N,Net-(J1-Pad3)*%
X-54900000Y-600000D03*
%TO.P,J1,2*%
%TO.N,Net-(J1-Pad2)*%
X-55900000Y400000D03*
D13*
%TO.P,J1,1*%
%TO.N,Net-(J1-Pad1)*%
X-55900000Y-600000D03*
%TD*%
D14*
%TO.N,Net-(J1-Pad4)*%
X-40435000Y785000D02*
X-40435000Y-600000D01*
X-41140001Y1490001D02*
X-40435000Y785000D01*
X-53809999Y1490001D02*
X-41140001Y1490001D01*
X-54900000Y400000D02*
X-53809999Y1490001D01*
%TO.N,Net-(J1-Pad2)*%
X-39165000Y-600000D02*
X-39165000Y745602D01*
X-39165000Y745602D02*
X-40089409Y1670011D01*
X-40089409Y1670011D02*
X-54629989Y1670011D01*
X-54629989Y1670011D02*
X-55900000Y400000D01*
%TO.N,Net-(J2-Pad23)*%
X3409912Y3110088D02*
X5720000Y800000D01*
X-35530514Y3110088D02*
X3409912Y3110088D01*
X-37895000Y745602D02*
X-35530514Y3110088D01*
X-37895000Y-600000D02*
X-37895000Y745602D01*
%TO.N,Net-(J2-Pad22)*%
X-36625000Y775000D02*
X-36625000Y-600000D01*
X-34469922Y2930078D02*
X-36625000Y775000D01*
X2319922Y2930078D02*
X-34469922Y2930078D01*
X4450000Y800000D02*
X2319922Y2930078D01*
%TO.N,Net-(J2-Pad21)*%
X-33350533Y2750069D02*
X1229931Y2750069D01*
X1229931Y2750069D02*
X3180000Y800000D01*
X-35355000Y745602D02*
X-33350533Y2750069D01*
X-35355000Y-600000D02*
X-35355000Y745602D01*
%TO.N,Net-(J2-Pad20)*%
X-34085000Y745602D02*
X-34085000Y-600000D01*
X-32260543Y2570059D02*
X-34085000Y745602D01*
X139941Y2570059D02*
X-32260543Y2570059D01*
X1910000Y800000D02*
X139941Y2570059D01*
%TO.N,Net-(J2-Pad19)*%
X-950050Y2390050D02*
X640000Y800000D01*
X-32815000Y745602D02*
X-31170552Y2390050D01*
X-31170552Y2390050D02*
X-950050Y2390050D01*
X-32815000Y-600000D02*
X-32815000Y745602D01*
%TO.N,Net-(J2-Pad18)*%
X-31545000Y745602D02*
X-31545000Y-600000D01*
X-30080562Y2210040D02*
X-31545000Y745602D01*
X-2040040Y2210040D02*
X-30080562Y2210040D01*
X-630000Y800000D02*
X-2040040Y2210040D01*
%TO.N,Net-(J2-Pad17)*%
X-3130030Y2030030D02*
X-1900000Y800000D01*
X-28990572Y2030030D02*
X-3130030Y2030030D01*
X-30275000Y745602D02*
X-28990572Y2030030D01*
X-30275000Y-600000D02*
X-30275000Y745602D01*
%TO.N,Net-(J2-Pad16)*%
X-29005000Y745602D02*
X-29005000Y-600000D01*
X-27900582Y1850020D02*
X-29005000Y745602D01*
X-4220020Y1850020D02*
X-27900582Y1850020D01*
X-3170000Y800000D02*
X-4220020Y1850020D01*
%TO.N,Net-(J2-Pad15)*%
X-5310011Y1670011D02*
X-4440000Y800000D01*
X-26810591Y1670011D02*
X-5310011Y1670011D01*
X-27735000Y745602D02*
X-26810591Y1670011D01*
X-27735000Y-600000D02*
X-27735000Y745602D01*
%TO.N,Net-(J2-Pad14)*%
X-26465000Y745602D02*
X-26465000Y-600000D01*
X-25720601Y1490001D02*
X-26465000Y745602D01*
X-6400001Y1490001D02*
X-25720601Y1490001D01*
X-5710000Y800000D02*
X-6400001Y1490001D01*
%TD*%
D15*
X13340001Y-3590000D02*
X-56840000Y-3590000D01*
X-56840000Y-1398426D01*
X-56776185Y-1476185D01*
X-56679494Y-1555537D01*
X-56569180Y-1614502D01*
X-56449482Y-1650812D01*
X-56325000Y-1663072D01*
X-55475000Y-1663072D01*
X-55350518Y-1650812D01*
X-55230820Y-1614502D01*
X-55226397Y-1612138D01*
X-55209191Y-1619265D01*
X-55004401Y-1660000D01*
X-54795599Y-1660000D01*
X-54590809Y-1619265D01*
X-54397902Y-1539360D01*
X-54224289Y-1423356D01*
X-54076644Y-1275711D01*
X-53960640Y-1102098D01*
X-53880735Y-909191D01*
X-53840000Y-704401D01*
X-53840000Y-495599D01*
X-53880735Y-290809D01*
X-53959771Y-100000D01*
X-53880735Y90809D01*
X-53840000Y295599D01*
X-53840000Y498335D01*
X-53528334Y810001D01*
X-47576857Y810001D01*
X-47686604Y545046D01*
X-47765000Y150922D01*
X-47765000Y-250922D01*
X-47686604Y-645046D01*
X-47532825Y-1016303D01*
X-47309572Y-1350424D01*
X-47025424Y-1634572D01*
X-46691303Y-1857825D01*
X-46320046Y-2011604D01*
X-45925922Y-2090000D01*
X-45524078Y-2090000D01*
X-45129954Y-2011604D01*
X-44758697Y-1857825D01*
X-44424576Y-1634572D01*
X-44140428Y-1350424D01*
X-43917175Y-1016303D01*
X-43763396Y-645046D01*
X-43685000Y-250922D01*
X-43685000Y150922D01*
X-43763396Y545046D01*
X-43873143Y810001D01*
X-42124790Y810001D01*
X-42165000Y607848D01*
X-42165000Y392152D01*
X-42122920Y180600D01*
X-42040376Y-18677D01*
X-41920542Y-198022D01*
X-41768022Y-350542D01*
X-41588677Y-470376D01*
X-41530000Y-494681D01*
X-41530000Y-707848D01*
X-41487920Y-919400D01*
X-41405376Y-1118677D01*
X-41285542Y-1298022D01*
X-41133022Y-1450542D01*
X-40953677Y-1570376D01*
X-40754400Y-1652920D01*
X-40542848Y-1695000D01*
X-40327152Y-1695000D01*
X-40115600Y-1652920D01*
X-39916323Y-1570376D01*
X-39800000Y-1492652D01*
X-39683677Y-1570376D01*
X-39484400Y-1652920D01*
X-39272848Y-1695000D01*
X-39057152Y-1695000D01*
X-38845600Y-1652920D01*
X-38646323Y-1570376D01*
X-38530000Y-1492652D01*
X-38413677Y-1570376D01*
X-38214400Y-1652920D01*
X-38002848Y-1695000D01*
X-37787152Y-1695000D01*
X-37575600Y-1652920D01*
X-37376323Y-1570376D01*
X-37260000Y-1492652D01*
X-37143677Y-1570376D01*
X-36944400Y-1652920D01*
X-36732848Y-1695000D01*
X-36517152Y-1695000D01*
X-36305600Y-1652920D01*
X-36106323Y-1570376D01*
X-35990000Y-1492652D01*
X-35873677Y-1570376D01*
X-35674400Y-1652920D01*
X-35462848Y-1695000D01*
X-35247152Y-1695000D01*
X-35035600Y-1652920D01*
X-34836323Y-1570376D01*
X-34720000Y-1492652D01*
X-34603677Y-1570376D01*
X-34404400Y-1652920D01*
X-34192848Y-1695000D01*
X-33977152Y-1695000D01*
X-33765600Y-1652920D01*
X-33566323Y-1570376D01*
X-33450000Y-1492652D01*
X-33333677Y-1570376D01*
X-33134400Y-1652920D01*
X-32922848Y-1695000D01*
X-32707152Y-1695000D01*
X-32495600Y-1652920D01*
X-32296323Y-1570376D01*
X-32180000Y-1492652D01*
X-32063677Y-1570376D01*
X-31864400Y-1652920D01*
X-31652848Y-1695000D01*
X-31437152Y-1695000D01*
X-31225600Y-1652920D01*
X-31026323Y-1570376D01*
X-30910000Y-1492652D01*
X-30793677Y-1570376D01*
X-30594400Y-1652920D01*
X-30382848Y-1695000D01*
X-30167152Y-1695000D01*
X-29955600Y-1652920D01*
X-29756323Y-1570376D01*
X-29640000Y-1492652D01*
X-29523677Y-1570376D01*
X-29324400Y-1652920D01*
X-29112848Y-1695000D01*
X-28897152Y-1695000D01*
X-28685600Y-1652920D01*
X-28486323Y-1570376D01*
X-28370000Y-1492652D01*
X-28253677Y-1570376D01*
X-28054400Y-1652920D01*
X-27842848Y-1695000D01*
X-27627152Y-1695000D01*
X-27415600Y-1652920D01*
X-27216323Y-1570376D01*
X-27100000Y-1492652D01*
X-26983677Y-1570376D01*
X-26784400Y-1652920D01*
X-26572848Y-1695000D01*
X-26357152Y-1695000D01*
X-26145600Y-1652920D01*
X-25946323Y-1570376D01*
X-25766978Y-1450542D01*
X-25614458Y-1298022D01*
X-25494624Y-1118677D01*
X-25412080Y-919400D01*
X-25370000Y-707848D01*
X-25370000Y-494681D01*
X-25311323Y-470376D01*
X-25131978Y-350542D01*
X-24979458Y-198022D01*
X-24859624Y-18677D01*
X-24777080Y180600D01*
X-24735000Y392152D01*
X-24735000Y607848D01*
X-24775210Y810001D01*
X-23026857Y810001D01*
X-23136604Y545046D01*
X-23215000Y150922D01*
X-23215000Y-250922D01*
X-23136604Y-645046D01*
X-22982825Y-1016303D01*
X-22759572Y-1350424D01*
X-22475424Y-1634572D01*
X-22141303Y-1857825D01*
X-21770046Y-2011604D01*
X-21375922Y-2090000D01*
X-20974078Y-2090000D01*
X-20579954Y-2011604D01*
X-20208697Y-1857825D01*
X-19874576Y-1634572D01*
X-19590428Y-1350424D01*
X-19367175Y-1016303D01*
X-19213396Y-645046D01*
X-19135000Y-250922D01*
X-19135000Y150922D01*
X-19213396Y545046D01*
X-19323143Y810001D01*
X-12562174Y810001D01*
X-12629880Y708672D01*
X-12769714Y371084D01*
X-12841000Y12702D01*
X-12841000Y-352702D01*
X-12769714Y-711084D01*
X-12629880Y-1048672D01*
X-12426873Y-1352494D01*
X-12168494Y-1610873D01*
X-11864672Y-1813880D01*
X-11527084Y-1953714D01*
X-11168702Y-2025000D01*
X-10803298Y-2025000D01*
X-10444916Y-1953714D01*
X-10107328Y-1813880D01*
X-9803506Y-1610873D01*
X-9545127Y-1352494D01*
X-9342120Y-1048672D01*
X-9202286Y-711084D01*
X-9131000Y-352702D01*
X-9131000Y12702D01*
X-9202286Y371084D01*
X-9342120Y708672D01*
X-9409826Y810001D01*
X-6805000Y810001D01*
X-6805000Y696752D01*
X-6868677Y670376D01*
X-7048022Y550542D01*
X-7200542Y398022D01*
X-7320376Y218677D01*
X-7402920Y19400D01*
X-7445000Y-192152D01*
X-7445000Y-407848D01*
X-7402920Y-619400D01*
X-7320376Y-818677D01*
X-7200542Y-998022D01*
X-7048022Y-1150542D01*
X-6868677Y-1270376D01*
X-6669400Y-1352920D01*
X-6457848Y-1395000D01*
X-6242152Y-1395000D01*
X-6030600Y-1352920D01*
X-5831323Y-1270376D01*
X-5715000Y-1192652D01*
X-5598677Y-1270376D01*
X-5399400Y-1352920D01*
X-5187848Y-1395000D01*
X-4972152Y-1395000D01*
X-4760600Y-1352920D01*
X-4561323Y-1270376D01*
X-4445000Y-1192652D01*
X-4328677Y-1270376D01*
X-4129400Y-1352920D01*
X-3917848Y-1395000D01*
X-3702152Y-1395000D01*
X-3490600Y-1352920D01*
X-3291323Y-1270376D01*
X-3175000Y-1192652D01*
X-3058677Y-1270376D01*
X-2859400Y-1352920D01*
X-2647848Y-1395000D01*
X-2432152Y-1395000D01*
X-2220600Y-1352920D01*
X-2021323Y-1270376D01*
X-1905000Y-1192652D01*
X-1788677Y-1270376D01*
X-1589400Y-1352920D01*
X-1377848Y-1395000D01*
X-1162152Y-1395000D01*
X-950600Y-1352920D01*
X-751323Y-1270376D01*
X-635000Y-1192652D01*
X-518677Y-1270376D01*
X-319400Y-1352920D01*
X-107848Y-1395000D01*
X107848Y-1395000D01*
X319400Y-1352920D01*
X518677Y-1270376D01*
X635000Y-1192652D01*
X751323Y-1270376D01*
X950600Y-1352920D01*
X1162152Y-1395000D01*
X1377848Y-1395000D01*
X1589400Y-1352920D01*
X1788677Y-1270376D01*
X1905000Y-1192652D01*
X2021323Y-1270376D01*
X2220600Y-1352920D01*
X2432152Y-1395000D01*
X2647848Y-1395000D01*
X2859400Y-1352920D01*
X3058677Y-1270376D01*
X3175000Y-1192652D01*
X3291323Y-1270376D01*
X3490600Y-1352920D01*
X3702152Y-1395000D01*
X3917848Y-1395000D01*
X4129400Y-1352920D01*
X4328677Y-1270376D01*
X4445000Y-1192652D01*
X4561323Y-1270376D01*
X4760600Y-1352920D01*
X4972152Y-1395000D01*
X5187848Y-1395000D01*
X5399400Y-1352920D01*
X5598677Y-1270376D01*
X5715000Y-1192652D01*
X5831323Y-1270376D01*
X6030600Y-1352920D01*
X6242152Y-1395000D01*
X6457848Y-1395000D01*
X6669400Y-1352920D01*
X6868677Y-1270376D01*
X7048022Y-1150542D01*
X7200542Y-998022D01*
X7320376Y-818677D01*
X7402920Y-619400D01*
X7445000Y-407848D01*
X7445000Y-192152D01*
X7404253Y12702D01*
X9131000Y12702D01*
X9131000Y-352702D01*
X9202286Y-711084D01*
X9342120Y-1048672D01*
X9545127Y-1352494D01*
X9803506Y-1610873D01*
X10107328Y-1813880D01*
X10444916Y-1953714D01*
X10803298Y-2025000D01*
X11168702Y-2025000D01*
X11527084Y-1953714D01*
X11864672Y-1813880D01*
X12168494Y-1610873D01*
X12426873Y-1352494D01*
X12629880Y-1048672D01*
X12769714Y-711084D01*
X12841000Y-352702D01*
X12841000Y12702D01*
X12769714Y371084D01*
X12629880Y708672D01*
X12426873Y1012494D01*
X12168494Y1270873D01*
X11864672Y1473880D01*
X11527084Y1613714D01*
X11168702Y1685000D01*
X10803298Y1685000D01*
X10444916Y1613714D01*
X10107328Y1473880D01*
X9803506Y1270873D01*
X9545127Y1012494D01*
X9342120Y708672D01*
X9202286Y371084D01*
X9131000Y12702D01*
X7404253Y12702D01*
X7402920Y19400D01*
X7320376Y218677D01*
X7200542Y398022D01*
X7048022Y550542D01*
X6868677Y670376D01*
X6815000Y692610D01*
X6815000Y907848D01*
X6772920Y1119400D01*
X6690376Y1318677D01*
X6570542Y1498022D01*
X6418022Y1650542D01*
X6238677Y1770376D01*
X6039400Y1852920D01*
X5827848Y1895000D01*
X5612152Y1895000D01*
X5590893Y1890771D01*
X4141664Y3340000D01*
X13340000Y3340000D01*
X13340001Y-3590000D01*
%TA.AperFunction,NonConductor*%
D16*
G36*
X13340001Y-3590000D02*
G01*
X-56840000Y-3590000D01*
X-56840000Y-1398426D01*
X-56776185Y-1476185D01*
X-56679494Y-1555537D01*
X-56569180Y-1614502D01*
X-56449482Y-1650812D01*
X-56325000Y-1663072D01*
X-55475000Y-1663072D01*
X-55350518Y-1650812D01*
X-55230820Y-1614502D01*
X-55226397Y-1612138D01*
X-55209191Y-1619265D01*
X-55004401Y-1660000D01*
X-54795599Y-1660000D01*
X-54590809Y-1619265D01*
X-54397902Y-1539360D01*
X-54224289Y-1423356D01*
X-54076644Y-1275711D01*
X-53960640Y-1102098D01*
X-53880735Y-909191D01*
X-53840000Y-704401D01*
X-53840000Y-495599D01*
X-53880735Y-290809D01*
X-53959771Y-100000D01*
X-53880735Y90809D01*
X-53840000Y295599D01*
X-53840000Y498335D01*
X-53528334Y810001D01*
X-47576857Y810001D01*
X-47686604Y545046D01*
X-47765000Y150922D01*
X-47765000Y-250922D01*
X-47686604Y-645046D01*
X-47532825Y-1016303D01*
X-47309572Y-1350424D01*
X-47025424Y-1634572D01*
X-46691303Y-1857825D01*
X-46320046Y-2011604D01*
X-45925922Y-2090000D01*
X-45524078Y-2090000D01*
X-45129954Y-2011604D01*
X-44758697Y-1857825D01*
X-44424576Y-1634572D01*
X-44140428Y-1350424D01*
X-43917175Y-1016303D01*
X-43763396Y-645046D01*
X-43685000Y-250922D01*
X-43685000Y150922D01*
X-43763396Y545046D01*
X-43873143Y810001D01*
X-42124790Y810001D01*
X-42165000Y607848D01*
X-42165000Y392152D01*
X-42122920Y180600D01*
X-42040376Y-18677D01*
X-41920542Y-198022D01*
X-41768022Y-350542D01*
X-41588677Y-470376D01*
X-41530000Y-494681D01*
X-41530000Y-707848D01*
X-41487920Y-919400D01*
X-41405376Y-1118677D01*
X-41285542Y-1298022D01*
X-41133022Y-1450542D01*
X-40953677Y-1570376D01*
X-40754400Y-1652920D01*
X-40542848Y-1695000D01*
X-40327152Y-1695000D01*
X-40115600Y-1652920D01*
X-39916323Y-1570376D01*
X-39800000Y-1492652D01*
X-39683677Y-1570376D01*
X-39484400Y-1652920D01*
X-39272848Y-1695000D01*
X-39057152Y-1695000D01*
X-38845600Y-1652920D01*
X-38646323Y-1570376D01*
X-38530000Y-1492652D01*
X-38413677Y-1570376D01*
X-38214400Y-1652920D01*
X-38002848Y-1695000D01*
X-37787152Y-1695000D01*
X-37575600Y-1652920D01*
X-37376323Y-1570376D01*
X-37260000Y-1492652D01*
X-37143677Y-1570376D01*
X-36944400Y-1652920D01*
X-36732848Y-1695000D01*
X-36517152Y-1695000D01*
X-36305600Y-1652920D01*
X-36106323Y-1570376D01*
X-35990000Y-1492652D01*
X-35873677Y-1570376D01*
X-35674400Y-1652920D01*
X-35462848Y-1695000D01*
X-35247152Y-1695000D01*
X-35035600Y-1652920D01*
X-34836323Y-1570376D01*
X-34720000Y-1492652D01*
X-34603677Y-1570376D01*
X-34404400Y-1652920D01*
X-34192848Y-1695000D01*
X-33977152Y-1695000D01*
X-33765600Y-1652920D01*
X-33566323Y-1570376D01*
X-33450000Y-1492652D01*
X-33333677Y-1570376D01*
X-33134400Y-1652920D01*
X-32922848Y-1695000D01*
X-32707152Y-1695000D01*
X-32495600Y-1652920D01*
X-32296323Y-1570376D01*
X-32180000Y-1492652D01*
X-32063677Y-1570376D01*
X-31864400Y-1652920D01*
X-31652848Y-1695000D01*
X-31437152Y-1695000D01*
X-31225600Y-1652920D01*
X-31026323Y-1570376D01*
X-30910000Y-1492652D01*
X-30793677Y-1570376D01*
X-30594400Y-1652920D01*
X-30382848Y-1695000D01*
X-30167152Y-1695000D01*
X-29955600Y-1652920D01*
X-29756323Y-1570376D01*
X-29640000Y-1492652D01*
X-29523677Y-1570376D01*
X-29324400Y-1652920D01*
X-29112848Y-1695000D01*
X-28897152Y-1695000D01*
X-28685600Y-1652920D01*
X-28486323Y-1570376D01*
X-28370000Y-1492652D01*
X-28253677Y-1570376D01*
X-28054400Y-1652920D01*
X-27842848Y-1695000D01*
X-27627152Y-1695000D01*
X-27415600Y-1652920D01*
X-27216323Y-1570376D01*
X-27100000Y-1492652D01*
X-26983677Y-1570376D01*
X-26784400Y-1652920D01*
X-26572848Y-1695000D01*
X-26357152Y-1695000D01*
X-26145600Y-1652920D01*
X-25946323Y-1570376D01*
X-25766978Y-1450542D01*
X-25614458Y-1298022D01*
X-25494624Y-1118677D01*
X-25412080Y-919400D01*
X-25370000Y-707848D01*
X-25370000Y-494681D01*
X-25311323Y-470376D01*
X-25131978Y-350542D01*
X-24979458Y-198022D01*
X-24859624Y-18677D01*
X-24777080Y180600D01*
X-24735000Y392152D01*
X-24735000Y607848D01*
X-24775210Y810001D01*
X-23026857Y810001D01*
X-23136604Y545046D01*
X-23215000Y150922D01*
X-23215000Y-250922D01*
X-23136604Y-645046D01*
X-22982825Y-1016303D01*
X-22759572Y-1350424D01*
X-22475424Y-1634572D01*
X-22141303Y-1857825D01*
X-21770046Y-2011604D01*
X-21375922Y-2090000D01*
X-20974078Y-2090000D01*
X-20579954Y-2011604D01*
X-20208697Y-1857825D01*
X-19874576Y-1634572D01*
X-19590428Y-1350424D01*
X-19367175Y-1016303D01*
X-19213396Y-645046D01*
X-19135000Y-250922D01*
X-19135000Y150922D01*
X-19213396Y545046D01*
X-19323143Y810001D01*
X-12562174Y810001D01*
X-12629880Y708672D01*
X-12769714Y371084D01*
X-12841000Y12702D01*
X-12841000Y-352702D01*
X-12769714Y-711084D01*
X-12629880Y-1048672D01*
X-12426873Y-1352494D01*
X-12168494Y-1610873D01*
X-11864672Y-1813880D01*
X-11527084Y-1953714D01*
X-11168702Y-2025000D01*
X-10803298Y-2025000D01*
X-10444916Y-1953714D01*
X-10107328Y-1813880D01*
X-9803506Y-1610873D01*
X-9545127Y-1352494D01*
X-9342120Y-1048672D01*
X-9202286Y-711084D01*
X-9131000Y-352702D01*
X-9131000Y12702D01*
X-9202286Y371084D01*
X-9342120Y708672D01*
X-9409826Y810001D01*
X-6805000Y810001D01*
X-6805000Y696752D01*
X-6868677Y670376D01*
X-7048022Y550542D01*
X-7200542Y398022D01*
X-7320376Y218677D01*
X-7402920Y19400D01*
X-7445000Y-192152D01*
X-7445000Y-407848D01*
X-7402920Y-619400D01*
X-7320376Y-818677D01*
X-7200542Y-998022D01*
X-7048022Y-1150542D01*
X-6868677Y-1270376D01*
X-6669400Y-1352920D01*
X-6457848Y-1395000D01*
X-6242152Y-1395000D01*
X-6030600Y-1352920D01*
X-5831323Y-1270376D01*
X-5715000Y-1192652D01*
X-5598677Y-1270376D01*
X-5399400Y-1352920D01*
X-5187848Y-1395000D01*
X-4972152Y-1395000D01*
X-4760600Y-1352920D01*
X-4561323Y-1270376D01*
X-4445000Y-1192652D01*
X-4328677Y-1270376D01*
X-4129400Y-1352920D01*
X-3917848Y-1395000D01*
X-3702152Y-1395000D01*
X-3490600Y-1352920D01*
X-3291323Y-1270376D01*
X-3175000Y-1192652D01*
X-3058677Y-1270376D01*
X-2859400Y-1352920D01*
X-2647848Y-1395000D01*
X-2432152Y-1395000D01*
X-2220600Y-1352920D01*
X-2021323Y-1270376D01*
X-1905000Y-1192652D01*
X-1788677Y-1270376D01*
X-1589400Y-1352920D01*
X-1377848Y-1395000D01*
X-1162152Y-1395000D01*
X-950600Y-1352920D01*
X-751323Y-1270376D01*
X-635000Y-1192652D01*
X-518677Y-1270376D01*
X-319400Y-1352920D01*
X-107848Y-1395000D01*
X107848Y-1395000D01*
X319400Y-1352920D01*
X518677Y-1270376D01*
X635000Y-1192652D01*
X751323Y-1270376D01*
X950600Y-1352920D01*
X1162152Y-1395000D01*
X1377848Y-1395000D01*
X1589400Y-1352920D01*
X1788677Y-1270376D01*
X1905000Y-1192652D01*
X2021323Y-1270376D01*
X2220600Y-1352920D01*
X2432152Y-1395000D01*
X2647848Y-1395000D01*
X2859400Y-1352920D01*
X3058677Y-1270376D01*
X3175000Y-1192652D01*
X3291323Y-1270376D01*
X3490600Y-1352920D01*
X3702152Y-1395000D01*
X3917848Y-1395000D01*
X4129400Y-1352920D01*
X4328677Y-1270376D01*
X4445000Y-1192652D01*
X4561323Y-1270376D01*
X4760600Y-1352920D01*
X4972152Y-1395000D01*
X5187848Y-1395000D01*
X5399400Y-1352920D01*
X5598677Y-1270376D01*
X5715000Y-1192652D01*
X5831323Y-1270376D01*
X6030600Y-1352920D01*
X6242152Y-1395000D01*
X6457848Y-1395000D01*
X6669400Y-1352920D01*
X6868677Y-1270376D01*
X7048022Y-1150542D01*
X7200542Y-998022D01*
X7320376Y-818677D01*
X7402920Y-619400D01*
X7445000Y-407848D01*
X7445000Y-192152D01*
X7404253Y12702D01*
X9131000Y12702D01*
X9131000Y-352702D01*
X9202286Y-711084D01*
X9342120Y-1048672D01*
X9545127Y-1352494D01*
X9803506Y-1610873D01*
X10107328Y-1813880D01*
X10444916Y-1953714D01*
X10803298Y-2025000D01*
X11168702Y-2025000D01*
X11527084Y-1953714D01*
X11864672Y-1813880D01*
X12168494Y-1610873D01*
X12426873Y-1352494D01*
X12629880Y-1048672D01*
X12769714Y-711084D01*
X12841000Y-352702D01*
X12841000Y12702D01*
X12769714Y371084D01*
X12629880Y708672D01*
X12426873Y1012494D01*
X12168494Y1270873D01*
X11864672Y1473880D01*
X11527084Y1613714D01*
X11168702Y1685000D01*
X10803298Y1685000D01*
X10444916Y1613714D01*
X10107328Y1473880D01*
X9803506Y1270873D01*
X9545127Y1012494D01*
X9342120Y708672D01*
X9202286Y371084D01*
X9131000Y12702D01*
X7404253Y12702D01*
X7402920Y19400D01*
X7320376Y218677D01*
X7200542Y398022D01*
X7048022Y550542D01*
X6868677Y670376D01*
X6815000Y692610D01*
X6815000Y907848D01*
X6772920Y1119400D01*
X6690376Y1318677D01*
X6570542Y1498022D01*
X6418022Y1650542D01*
X6238677Y1770376D01*
X6039400Y1852920D01*
X5827848Y1895000D01*
X5612152Y1895000D01*
X5590893Y1890771D01*
X4141664Y3340000D01*
X13340000Y3340000D01*
X13340001Y-3590000D01*
G37*
%TD.AperFunction*%
D15*
X-38096577Y1505690D02*
X-38210600Y1552920D01*
X-38422152Y1595000D01*
X-38637848Y1595000D01*
X-38849400Y1552920D01*
X-38963423Y1505690D01*
X-39584950Y2127216D01*
X-39606250Y2153170D01*
X-39709793Y2238146D01*
X-39827925Y2301289D01*
X-39956106Y2340172D01*
X-40056005Y2350011D01*
X-40089409Y2353301D01*
X-40122813Y2350011D01*
X-54596585Y2350011D01*
X-54629989Y2353301D01*
X-54663393Y2350011D01*
X-54763292Y2340172D01*
X-54891473Y2301289D01*
X-55009605Y2238146D01*
X-55113148Y2153170D01*
X-55134444Y2127221D01*
X-55801664Y1460000D01*
X-56004401Y1460000D01*
X-56209191Y1419265D01*
X-56402098Y1339360D01*
X-56575711Y1223356D01*
X-56723356Y1075711D01*
X-56839360Y902098D01*
X-56840000Y900553D01*
X-56840000Y3340000D01*
X-36262267Y3340000D01*
X-38096577Y1505690D01*
%TA.AperFunction,NonConductor*%
D16*
G36*
X-38096577Y1505690D02*
G01*
X-38210600Y1552920D01*
X-38422152Y1595000D01*
X-38637848Y1595000D01*
X-38849400Y1552920D01*
X-38963423Y1505690D01*
X-39584950Y2127216D01*
X-39606250Y2153170D01*
X-39709793Y2238146D01*
X-39827925Y2301289D01*
X-39956106Y2340172D01*
X-40056005Y2350011D01*
X-40089409Y2353301D01*
X-40122813Y2350011D01*
X-54596585Y2350011D01*
X-54629989Y2353301D01*
X-54663393Y2350011D01*
X-54763292Y2340172D01*
X-54891473Y2301289D01*
X-55009605Y2238146D01*
X-55113148Y2153170D01*
X-55134444Y2127221D01*
X-55801664Y1460000D01*
X-56004401Y1460000D01*
X-56209191Y1419265D01*
X-56402098Y1339360D01*
X-56575711Y1223356D01*
X-56723356Y1075711D01*
X-56839360Y902098D01*
X-56840000Y900553D01*
X-56840000Y3340000D01*
X-36262267Y3340000D01*
X-38096577Y1505690D01*
G37*
%TD.AperFunction*%
M02*
