%TF.GenerationSoftware,KiCad,Pcbnew,(5.1.10)-1*%
%TF.CreationDate,2022-07-14T13:26:39-06:00*%
%TF.ProjectId,21to25,3231746f-3235-42e6-9b69-6361645f7063,rev?*%
%TF.SameCoordinates,Original*%
%TF.FileFunction,Copper,L2,Bot*%
%TF.FilePolarity,Positive*%
%FSLAX46Y46*%
G04 Gerber Fmt 4.6, Leading zero omitted, Abs format (unit mm)*
G04 Created by KiCad (PCBNEW (5.1.10)-1) date 2022-07-14 13:26:39*
%MOMM*%
%LPD*%
G01*
G04 APERTURE LIST*
%TA.AperFunction,ComponentPad*%
%ADD10C,3.600000*%
%TD*%
%TA.AperFunction,ComponentPad*%
%ADD11O,0.920000X0.920000*%
%TD*%
%TA.AperFunction,ComponentPad*%
%ADD12O,1.700000X1.700000*%
%TD*%
%TA.AperFunction,ComponentPad*%
%ADD13R,1.700000X1.700000*%
%TD*%
%TA.AperFunction,ComponentPad*%
%ADD14O,0.850000X0.850000*%
%TD*%
%TA.AperFunction,ComponentPad*%
%ADD15R,0.850000X0.850000*%
%TD*%
%TA.AperFunction,Conductor*%
%ADD16C,0.135000*%
%TD*%
%TA.AperFunction,Conductor*%
%ADD17C,0.254000*%
%TD*%
%TA.AperFunction,Conductor*%
%ADD18C,0.100000*%
%TD*%
G04 APERTURE END LIST*
D10*
%TO.P,J2,0*%
%TO.N,GND*%
X-21175000Y-50000D03*
X-45725000Y-50000D03*
D11*
%TO.P,J2,13*%
%TO.N,Net-(J2-Pad13)*%
X-41070000Y500000D03*
%TO.P,J2,25*%
%TO.N,Net-(J1-Pad4)*%
X-40435000Y-600000D03*
%TO.P,J2,12*%
%TO.N,Net-(J1-Pad3)*%
X-39800000Y500000D03*
%TO.P,J2,24*%
%TO.N,Net-(J1-Pad2)*%
X-39165000Y-600000D03*
%TO.P,J2,11*%
%TO.N,Net-(J1-Pad1)*%
X-38530000Y500000D03*
%TO.P,J2,23*%
%TO.N,/23*%
X-37895000Y-600000D03*
%TO.P,J2,10*%
%TO.N,/10*%
X-37260000Y500000D03*
%TO.P,J2,22*%
%TO.N,/22*%
X-36625000Y-600000D03*
%TO.P,J2,9*%
%TO.N,/9*%
X-35990000Y500000D03*
%TO.P,J2,21*%
%TO.N,Net-(J2-Pad21)*%
X-35355000Y-600000D03*
%TO.P,J2,8*%
%TO.N,Net-(J2-Pad8)*%
X-34720000Y500000D03*
%TO.P,J2,20*%
%TO.N,Net-(J2-Pad20)*%
X-34085000Y-600000D03*
%TO.P,J2,7*%
%TO.N,Net-(J2-Pad7)*%
X-33450000Y500000D03*
%TO.P,J2,19*%
%TO.N,Net-(J2-Pad19)*%
X-32815000Y-600000D03*
%TO.P,J2,6*%
%TO.N,Net-(J2-Pad6)*%
X-32180000Y500000D03*
%TO.P,J2,18*%
%TO.N,Net-(J2-Pad18)*%
X-31545000Y-600000D03*
%TO.P,J2,5*%
%TO.N,Net-(J2-Pad5)*%
X-30910000Y500000D03*
%TO.P,J2,17*%
%TO.N,Net-(J2-Pad17)*%
X-30275000Y-600000D03*
%TO.P,J2,4*%
%TO.N,Net-(J2-Pad4)*%
X-29640000Y500000D03*
%TO.P,J2,16*%
%TO.N,Net-(J2-Pad16)*%
X-29005000Y-600000D03*
%TO.P,J2,3*%
%TO.N,Net-(J2-Pad3)*%
X-28370000Y500000D03*
%TO.P,J2,15*%
%TO.N,Net-(J2-Pad15)*%
X-27735000Y-600000D03*
%TO.P,J2,2*%
%TO.N,Net-(J2-Pad2)*%
X-27100000Y500000D03*
%TO.P,J2,14*%
%TO.N,Net-(J2-Pad14)*%
X-26465000Y-600000D03*
%TO.P,J2,1*%
%TO.N,Net-(J2-Pad1)*%
X-25830000Y500000D03*
%TD*%
D12*
%TO.P,J5,2*%
%TO.N,/22*%
X-64040000Y-2000000D03*
D13*
%TO.P,J5,1*%
%TO.N,/9*%
X-61500000Y-2000000D03*
%TD*%
D12*
%TO.P,J4,2*%
%TO.N,/22*%
X-57540000Y-2000000D03*
D13*
%TO.P,J4,1*%
%TO.N,/9*%
X-55000000Y-2000000D03*
%TD*%
D12*
%TO.P,J11,2*%
%TO.N,/23*%
X-77040000Y2000000D03*
D13*
%TO.P,J11,1*%
%TO.N,/10*%
X-74500000Y2000000D03*
%TD*%
D12*
%TO.P,J10,2*%
%TO.N,/23*%
X-70540000Y2000000D03*
D13*
%TO.P,J10,1*%
%TO.N,/10*%
X-68000000Y2000000D03*
%TD*%
D12*
%TO.P,J9,2*%
%TO.N,/23*%
X-64040000Y2000000D03*
D13*
%TO.P,J9,1*%
%TO.N,/10*%
X-61500000Y2000000D03*
%TD*%
D12*
%TO.P,J8,2*%
%TO.N,/23*%
X-57540000Y2000000D03*
D13*
%TO.P,J8,1*%
%TO.N,/10*%
X-55000000Y2000000D03*
%TD*%
D12*
%TO.P,J7,2*%
%TO.N,/22*%
X-70540000Y-2000000D03*
D13*
%TO.P,J7,1*%
%TO.N,/9*%
X-68000000Y-2000000D03*
%TD*%
D12*
%TO.P,J6,2*%
%TO.N,/22*%
X-77040000Y-2000000D03*
D13*
%TO.P,J6,1*%
%TO.N,/9*%
X-74500000Y-2000000D03*
%TD*%
D10*
%TO.P,J3,0*%
%TO.N,GND*%
X-10986000Y-170000D03*
X10986000Y-170000D03*
D11*
%TO.P,J3,1*%
%TO.N,Net-(J2-Pad1)*%
X-6350000Y-300000D03*
%TO.P,J3,12*%
%TO.N,Net-(J2-Pad14)*%
X-5710000Y800000D03*
%TO.P,J3,2*%
%TO.N,Net-(J2-Pad2)*%
X-5080000Y-300000D03*
%TO.P,J3,3*%
%TO.N,Net-(J3-Pad3)*%
X-3810000Y-300000D03*
%TO.P,J3,4*%
%TO.N,Net-(J2-Pad3)*%
X-2540000Y-300000D03*
%TO.P,J3,5*%
%TO.N,Net-(J2-Pad4)*%
X-1270000Y-300000D03*
%TO.P,J3,6*%
%TO.N,Net-(J2-Pad5)*%
X0Y-300000D03*
%TO.P,J3,7*%
%TO.N,Net-(J2-Pad6)*%
X1270000Y-300000D03*
%TO.P,J3,8*%
%TO.N,Net-(J2-Pad7)*%
X2540000Y-300000D03*
%TO.P,J3,9*%
%TO.N,Net-(J2-Pad8)*%
X3810000Y-300000D03*
%TO.P,J3,10*%
%TO.N,/9*%
X5080000Y-300000D03*
%TO.P,J3,11*%
%TO.N,/10*%
X6350000Y-300000D03*
%TO.P,J3,13*%
%TO.N,Net-(J2-Pad15)*%
X-4440000Y800000D03*
%TO.P,J3,14*%
%TO.N,Net-(J2-Pad16)*%
X-3170000Y800000D03*
%TO.P,J3,15*%
%TO.N,Net-(J2-Pad17)*%
X-1900000Y800000D03*
%TO.P,J3,16*%
%TO.N,Net-(J2-Pad18)*%
X-630000Y800000D03*
%TO.P,J3,17*%
%TO.N,Net-(J2-Pad19)*%
X640000Y800000D03*
%TO.P,J3,18*%
%TO.N,Net-(J2-Pad20)*%
X1910000Y800000D03*
%TO.P,J3,19*%
%TO.N,Net-(J2-Pad21)*%
X3180000Y800000D03*
%TO.P,J3,20*%
%TO.N,/22*%
X4450000Y800000D03*
%TO.P,J3,21*%
%TO.N,/23*%
X5720000Y800000D03*
%TD*%
D14*
%TO.P,J1,4*%
%TO.N,Net-(J1-Pad4)*%
X-50250000Y500000D03*
%TO.P,J1,3*%
%TO.N,Net-(J1-Pad3)*%
X-50250000Y-500000D03*
%TO.P,J1,2*%
%TO.N,Net-(J1-Pad2)*%
X-51250000Y500000D03*
D15*
%TO.P,J1,1*%
%TO.N,Net-(J1-Pad1)*%
X-51250000Y-500000D03*
%TD*%
D16*
%TO.N,Net-(J2-Pad21)*%
X3180000Y-573902D02*
X3180000Y800000D01*
X953883Y-2800019D02*
X3180000Y-573902D01*
X-33154981Y-2800019D02*
X953883Y-2800019D01*
X-35355000Y-600000D02*
X-33154981Y-2800019D01*
%TO.N,Net-(J2-Pad20)*%
X-32109990Y-2575010D02*
X-34085000Y-600000D01*
X-91108Y-2575010D02*
X-32109990Y-2575010D01*
X1910000Y-573902D02*
X-91108Y-2575010D01*
X1910000Y800000D02*
X1910000Y-573902D01*
%TO.N,Net-(J2-Pad19)*%
X-32815000Y-600000D02*
X-31065000Y-2350000D01*
X640000Y-573902D02*
X640000Y800000D01*
X-1136098Y-2350000D02*
X640000Y-573902D01*
X-31065000Y-2350000D02*
X-1136098Y-2350000D01*
%TO.N,Net-(J2-Pad18)*%
X-2810039Y2980039D02*
X-630000Y800000D01*
X-29343863Y2980039D02*
X-2810039Y2980039D01*
X-31545000Y778902D02*
X-29343863Y2980039D01*
X-31545000Y-600000D02*
X-31545000Y778902D01*
%TO.N,Net-(J2-Pad17)*%
X-3855029Y2755029D02*
X-1900000Y800000D01*
X-28298873Y2755029D02*
X-3855029Y2755029D01*
X-30275000Y778902D02*
X-28298873Y2755029D01*
X-30275000Y-600000D02*
X-30275000Y778902D01*
%TO.N,Net-(J2-Pad16)*%
X-29005000Y778902D02*
X-29005000Y-600000D01*
X-27253883Y2530019D02*
X-29005000Y778902D01*
X-4900019Y2530019D02*
X-27253883Y2530019D01*
X-3170000Y800000D02*
X-4900019Y2530019D01*
%TO.N,Net-(J2-Pad15)*%
X-5945009Y2305009D02*
X-4440000Y800000D01*
X-26208893Y2305009D02*
X-5945009Y2305009D01*
X-27735000Y778902D02*
X-26208893Y2305009D01*
X-27735000Y-600000D02*
X-27735000Y778902D01*
%TO.N,Net-(J2-Pad14)*%
X-5710000Y800000D02*
X-7460000Y800000D01*
X-7460000Y800000D02*
X-8740000Y2080000D01*
X-26465000Y778902D02*
X-26465000Y-600000D01*
X-25163902Y2080000D02*
X-26465000Y778902D01*
X-8740000Y2080000D02*
X-25163902Y2080000D01*
%TO.N,/23*%
X3314951Y3205049D02*
X5720000Y800000D01*
X-35468853Y3205049D02*
X3314951Y3205049D01*
X-37895000Y778902D02*
X-35468853Y3205049D01*
X-37895000Y-600000D02*
X-37895000Y778902D01*
%TO.N,/22*%
X4450000Y-608900D02*
X4450000Y800000D01*
X2033872Y-3025028D02*
X4450000Y-608900D01*
X-34199972Y-3025028D02*
X2033872Y-3025028D01*
X-36625000Y-600000D02*
X-34199972Y-3025028D01*
X-57540000Y-2000000D02*
X-56532499Y-3007501D01*
X-34217499Y-3007501D02*
X-34199972Y-3025028D01*
X-56532499Y-3007501D02*
X-34217499Y-3007501D01*
%TD*%
D17*
%TO.N,GND*%
X-57569004Y3653093D02*
X-57517292Y3648000D01*
X13648000Y3648000D01*
X13648001Y-3898000D01*
X-57517292Y-3898000D01*
X-57569004Y-3903093D01*
X-57618145Y-3918000D01*
X-78898000Y-3918000D01*
X-78898000Y-1884076D01*
X-78217000Y-1884076D01*
X-78217000Y-2115924D01*
X-78171769Y-2343318D01*
X-78083044Y-2557519D01*
X-77954236Y-2750294D01*
X-77790294Y-2914236D01*
X-77597519Y-3043044D01*
X-77383318Y-3131769D01*
X-77155924Y-3177000D01*
X-76924076Y-3177000D01*
X-76696682Y-3131769D01*
X-76482481Y-3043044D01*
X-76289706Y-2914236D01*
X-76125764Y-2750294D01*
X-75996956Y-2557519D01*
X-75908231Y-2343318D01*
X-75863000Y-2115924D01*
X-75863000Y-1884076D01*
X-75908231Y-1656682D01*
X-75996956Y-1442481D01*
X-76125764Y-1249706D01*
X-76225470Y-1150000D01*
X-75678582Y-1150000D01*
X-75678582Y-2850000D01*
X-75672268Y-2914103D01*
X-75653570Y-2975743D01*
X-75623206Y-3032550D01*
X-75582343Y-3082343D01*
X-75532550Y-3123206D01*
X-75475743Y-3153570D01*
X-75414103Y-3172268D01*
X-75350000Y-3178582D01*
X-73650000Y-3178582D01*
X-73585897Y-3172268D01*
X-73524257Y-3153570D01*
X-73467450Y-3123206D01*
X-73417657Y-3082343D01*
X-73376794Y-3032550D01*
X-73346430Y-2975743D01*
X-73327732Y-2914103D01*
X-73321418Y-2850000D01*
X-73321418Y-1884076D01*
X-71717000Y-1884076D01*
X-71717000Y-2115924D01*
X-71671769Y-2343318D01*
X-71583044Y-2557519D01*
X-71454236Y-2750294D01*
X-71290294Y-2914236D01*
X-71097519Y-3043044D01*
X-70883318Y-3131769D01*
X-70655924Y-3177000D01*
X-70424076Y-3177000D01*
X-70196682Y-3131769D01*
X-69982481Y-3043044D01*
X-69789706Y-2914236D01*
X-69625764Y-2750294D01*
X-69496956Y-2557519D01*
X-69408231Y-2343318D01*
X-69363000Y-2115924D01*
X-69363000Y-1884076D01*
X-69408231Y-1656682D01*
X-69496956Y-1442481D01*
X-69625764Y-1249706D01*
X-69725470Y-1150000D01*
X-69178582Y-1150000D01*
X-69178582Y-2850000D01*
X-69172268Y-2914103D01*
X-69153570Y-2975743D01*
X-69123206Y-3032550D01*
X-69082343Y-3082343D01*
X-69032550Y-3123206D01*
X-68975743Y-3153570D01*
X-68914103Y-3172268D01*
X-68850000Y-3178582D01*
X-67150000Y-3178582D01*
X-67085897Y-3172268D01*
X-67024257Y-3153570D01*
X-66967450Y-3123206D01*
X-66917657Y-3082343D01*
X-66876794Y-3032550D01*
X-66846430Y-2975743D01*
X-66827732Y-2914103D01*
X-66821418Y-2850000D01*
X-66821418Y-1884076D01*
X-65217000Y-1884076D01*
X-65217000Y-2115924D01*
X-65171769Y-2343318D01*
X-65083044Y-2557519D01*
X-64954236Y-2750294D01*
X-64790294Y-2914236D01*
X-64597519Y-3043044D01*
X-64383318Y-3131769D01*
X-64155924Y-3177000D01*
X-63924076Y-3177000D01*
X-63696682Y-3131769D01*
X-63482481Y-3043044D01*
X-63289706Y-2914236D01*
X-63125764Y-2750294D01*
X-62996956Y-2557519D01*
X-62908231Y-2343318D01*
X-62863000Y-2115924D01*
X-62863000Y-1884076D01*
X-62908231Y-1656682D01*
X-62996956Y-1442481D01*
X-63125764Y-1249706D01*
X-63225470Y-1150000D01*
X-62678582Y-1150000D01*
X-62678582Y-2850000D01*
X-62672268Y-2914103D01*
X-62653570Y-2975743D01*
X-62623206Y-3032550D01*
X-62582343Y-3082343D01*
X-62532550Y-3123206D01*
X-62475743Y-3153570D01*
X-62414103Y-3172268D01*
X-62350000Y-3178582D01*
X-60650000Y-3178582D01*
X-60585897Y-3172268D01*
X-60524257Y-3153570D01*
X-60467450Y-3123206D01*
X-60417657Y-3082343D01*
X-60376794Y-3032550D01*
X-60346430Y-2975743D01*
X-60327732Y-2914103D01*
X-60321418Y-2850000D01*
X-60321418Y-1884076D01*
X-58717000Y-1884076D01*
X-58717000Y-2115924D01*
X-58671769Y-2343318D01*
X-58583044Y-2557519D01*
X-58454236Y-2750294D01*
X-58290294Y-2914236D01*
X-58097519Y-3043044D01*
X-57883318Y-3131769D01*
X-57655924Y-3177000D01*
X-57424076Y-3177000D01*
X-57196682Y-3131769D01*
X-57033663Y-3064244D01*
X-56825153Y-3272754D01*
X-56812802Y-3287804D01*
X-56780617Y-3314217D01*
X-56752732Y-3337102D01*
X-56719941Y-3354629D01*
X-56684198Y-3373734D01*
X-56609834Y-3396292D01*
X-56551871Y-3402001D01*
X-56551869Y-3402001D01*
X-56532499Y-3403909D01*
X-56513130Y-3402001D01*
X-34316266Y-3402001D01*
X-34277307Y-3413819D01*
X-34219344Y-3419528D01*
X-34219341Y-3419528D01*
X-34199972Y-3421436D01*
X-34180603Y-3419528D01*
X2014503Y-3419528D01*
X2033872Y-3421436D01*
X2053241Y-3419528D01*
X2053244Y-3419528D01*
X2111207Y-3413819D01*
X2185571Y-3391261D01*
X2254104Y-3354629D01*
X2314175Y-3305331D01*
X2326530Y-3290276D01*
X4654560Y-962247D01*
X4707216Y-997430D01*
X4850441Y-1056756D01*
X5002487Y-1087000D01*
X5157513Y-1087000D01*
X5309559Y-1056756D01*
X5452784Y-997430D01*
X5581683Y-911303D01*
X5691303Y-801683D01*
X5715000Y-766218D01*
X5738697Y-801683D01*
X5848317Y-911303D01*
X5977216Y-997430D01*
X6120441Y-1056756D01*
X6272487Y-1087000D01*
X6427513Y-1087000D01*
X6579559Y-1056756D01*
X6722784Y-997430D01*
X6851683Y-911303D01*
X6961303Y-801683D01*
X7047430Y-672784D01*
X7106756Y-529559D01*
X7137000Y-377513D01*
X7137000Y-222487D01*
X7106756Y-70441D01*
X7047430Y72784D01*
X6961303Y201683D01*
X6851683Y311303D01*
X6722784Y397430D01*
X6579559Y456756D01*
X6441076Y484302D01*
X6476756Y570441D01*
X6507000Y722487D01*
X6507000Y877513D01*
X6476756Y1029559D01*
X6417430Y1172784D01*
X6331303Y1301683D01*
X6221683Y1411303D01*
X6092784Y1497430D01*
X5949559Y1556756D01*
X5797513Y1587000D01*
X5642487Y1587000D01*
X5516056Y1561851D01*
X3607609Y3470297D01*
X3595254Y3485352D01*
X3535183Y3534650D01*
X3466650Y3571282D01*
X3392286Y3593840D01*
X3334323Y3599549D01*
X3334320Y3599549D01*
X3314951Y3601457D01*
X3295582Y3599549D01*
X-35449484Y3599549D01*
X-35468853Y3601457D01*
X-35488223Y3599549D01*
X-35488225Y3599549D01*
X-35546188Y3593840D01*
X-35620552Y3571282D01*
X-35689085Y3534650D01*
X-35749156Y3485352D01*
X-35761507Y3470302D01*
X-38083580Y1148228D01*
X-38157216Y1197430D01*
X-38300441Y1256756D01*
X-38452487Y1287000D01*
X-38607513Y1287000D01*
X-38759559Y1256756D01*
X-38902784Y1197430D01*
X-39031683Y1111303D01*
X-39141303Y1001683D01*
X-39165000Y966218D01*
X-39188697Y1001683D01*
X-39298317Y1111303D01*
X-39427216Y1197430D01*
X-39570441Y1256756D01*
X-39722487Y1287000D01*
X-39877513Y1287000D01*
X-40029559Y1256756D01*
X-40172784Y1197430D01*
X-40301683Y1111303D01*
X-40411303Y1001683D01*
X-40435000Y966218D01*
X-40458697Y1001683D01*
X-40568317Y1111303D01*
X-40697216Y1197430D01*
X-40840441Y1256756D01*
X-40992487Y1287000D01*
X-41147513Y1287000D01*
X-41299559Y1256756D01*
X-41442784Y1197430D01*
X-41571683Y1111303D01*
X-41681303Y1001683D01*
X-41767430Y872784D01*
X-41826756Y729559D01*
X-41857000Y577513D01*
X-41857000Y422487D01*
X-41826756Y270441D01*
X-41767430Y127216D01*
X-41681303Y-1683D01*
X-41571683Y-111303D01*
X-41442784Y-197430D01*
X-41299559Y-256756D01*
X-41156457Y-285221D01*
X-41191756Y-370441D01*
X-41222000Y-522487D01*
X-41222000Y-677513D01*
X-41191756Y-829559D01*
X-41132430Y-972784D01*
X-41046303Y-1101683D01*
X-40936683Y-1211303D01*
X-40807784Y-1297430D01*
X-40664559Y-1356756D01*
X-40512513Y-1387000D01*
X-40357487Y-1387000D01*
X-40205441Y-1356756D01*
X-40062216Y-1297430D01*
X-39933317Y-1211303D01*
X-39823697Y-1101683D01*
X-39800000Y-1066218D01*
X-39776303Y-1101683D01*
X-39666683Y-1211303D01*
X-39537784Y-1297430D01*
X-39394559Y-1356756D01*
X-39242513Y-1387000D01*
X-39087487Y-1387000D01*
X-38935441Y-1356756D01*
X-38792216Y-1297430D01*
X-38663317Y-1211303D01*
X-38553697Y-1101683D01*
X-38530000Y-1066218D01*
X-38506303Y-1101683D01*
X-38396683Y-1211303D01*
X-38267784Y-1297430D01*
X-38124559Y-1356756D01*
X-37972513Y-1387000D01*
X-37817487Y-1387000D01*
X-37665441Y-1356756D01*
X-37522216Y-1297430D01*
X-37393317Y-1211303D01*
X-37283697Y-1101683D01*
X-37260000Y-1066218D01*
X-37236303Y-1101683D01*
X-37126683Y-1211303D01*
X-36997784Y-1297430D01*
X-36854559Y-1356756D01*
X-36702513Y-1387000D01*
X-36547487Y-1387000D01*
X-36421055Y-1361851D01*
X-35169906Y-2613001D01*
X-53821418Y-2613001D01*
X-53821418Y-1150000D01*
X-53827732Y-1085897D01*
X-53846430Y-1024257D01*
X-53876794Y-967450D01*
X-53917657Y-917657D01*
X-53967450Y-876794D01*
X-54024257Y-846430D01*
X-54085897Y-827732D01*
X-54150000Y-821418D01*
X-55850000Y-821418D01*
X-55914103Y-827732D01*
X-55975743Y-846430D01*
X-56032550Y-876794D01*
X-56082343Y-917657D01*
X-56123206Y-967450D01*
X-56153570Y-1024257D01*
X-56172268Y-1085897D01*
X-56178582Y-1150000D01*
X-56178582Y-2613001D01*
X-56369092Y-2613001D01*
X-56475756Y-2506337D01*
X-56408231Y-2343318D01*
X-56363000Y-2115924D01*
X-56363000Y-1884076D01*
X-56408231Y-1656682D01*
X-56496956Y-1442481D01*
X-56625764Y-1249706D01*
X-56789706Y-1085764D01*
X-56982481Y-956956D01*
X-57196682Y-868231D01*
X-57424076Y-823000D01*
X-57655924Y-823000D01*
X-57883318Y-868231D01*
X-58097519Y-956956D01*
X-58290294Y-1085764D01*
X-58454236Y-1249706D01*
X-58583044Y-1442481D01*
X-58671769Y-1656682D01*
X-58717000Y-1884076D01*
X-60321418Y-1884076D01*
X-60321418Y-1150000D01*
X-60327732Y-1085897D01*
X-60346430Y-1024257D01*
X-60376794Y-967450D01*
X-60417657Y-917657D01*
X-60467450Y-876794D01*
X-60524257Y-846430D01*
X-60585897Y-827732D01*
X-60650000Y-821418D01*
X-62350000Y-821418D01*
X-62414103Y-827732D01*
X-62475743Y-846430D01*
X-62532550Y-876794D01*
X-62582343Y-917657D01*
X-62623206Y-967450D01*
X-62653570Y-1024257D01*
X-62672268Y-1085897D01*
X-62678582Y-1150000D01*
X-63225470Y-1150000D01*
X-63289706Y-1085764D01*
X-63482481Y-956956D01*
X-63696682Y-868231D01*
X-63924076Y-823000D01*
X-64155924Y-823000D01*
X-64383318Y-868231D01*
X-64597519Y-956956D01*
X-64790294Y-1085764D01*
X-64954236Y-1249706D01*
X-65083044Y-1442481D01*
X-65171769Y-1656682D01*
X-65217000Y-1884076D01*
X-66821418Y-1884076D01*
X-66821418Y-1150000D01*
X-66827732Y-1085897D01*
X-66846430Y-1024257D01*
X-66876794Y-967450D01*
X-66917657Y-917657D01*
X-66967450Y-876794D01*
X-67024257Y-846430D01*
X-67085897Y-827732D01*
X-67150000Y-821418D01*
X-68850000Y-821418D01*
X-68914103Y-827732D01*
X-68975743Y-846430D01*
X-69032550Y-876794D01*
X-69082343Y-917657D01*
X-69123206Y-967450D01*
X-69153570Y-1024257D01*
X-69172268Y-1085897D01*
X-69178582Y-1150000D01*
X-69725470Y-1150000D01*
X-69789706Y-1085764D01*
X-69982481Y-956956D01*
X-70196682Y-868231D01*
X-70424076Y-823000D01*
X-70655924Y-823000D01*
X-70883318Y-868231D01*
X-71097519Y-956956D01*
X-71290294Y-1085764D01*
X-71454236Y-1249706D01*
X-71583044Y-1442481D01*
X-71671769Y-1656682D01*
X-71717000Y-1884076D01*
X-73321418Y-1884076D01*
X-73321418Y-1150000D01*
X-73327732Y-1085897D01*
X-73346430Y-1024257D01*
X-73376794Y-967450D01*
X-73417657Y-917657D01*
X-73467450Y-876794D01*
X-73524257Y-846430D01*
X-73585897Y-827732D01*
X-73650000Y-821418D01*
X-75350000Y-821418D01*
X-75414103Y-827732D01*
X-75475743Y-846430D01*
X-75532550Y-876794D01*
X-75582343Y-917657D01*
X-75623206Y-967450D01*
X-75653570Y-1024257D01*
X-75672268Y-1085897D01*
X-75678582Y-1150000D01*
X-76225470Y-1150000D01*
X-76289706Y-1085764D01*
X-76482481Y-956956D01*
X-76696682Y-868231D01*
X-76924076Y-823000D01*
X-77155924Y-823000D01*
X-77383318Y-868231D01*
X-77597519Y-956956D01*
X-77790294Y-1085764D01*
X-77954236Y-1249706D01*
X-78083044Y-1442481D01*
X-78171769Y-1656682D01*
X-78217000Y-1884076D01*
X-78898000Y-1884076D01*
X-78898000Y-75000D01*
X-52003582Y-75000D01*
X-52003582Y-925000D01*
X-51997268Y-989103D01*
X-51978570Y-1050743D01*
X-51948206Y-1107550D01*
X-51907343Y-1157343D01*
X-51857550Y-1198206D01*
X-51800743Y-1228570D01*
X-51739103Y-1247268D01*
X-51675000Y-1253582D01*
X-50825000Y-1253582D01*
X-50760897Y-1247268D01*
X-50699257Y-1228570D01*
X-50642450Y-1198206D01*
X-50604547Y-1167101D01*
X-50469350Y-1223101D01*
X-50324066Y-1252000D01*
X-50175934Y-1252000D01*
X-50030650Y-1223101D01*
X-49893794Y-1166414D01*
X-49770628Y-1084117D01*
X-49665883Y-979372D01*
X-49583586Y-856206D01*
X-49526899Y-719350D01*
X-49498000Y-574066D01*
X-49498000Y-425934D01*
X-49526899Y-280650D01*
X-49583586Y-143794D01*
X-49665883Y-20628D01*
X-49686511Y0D01*
X-49665883Y20628D01*
X-49583586Y143794D01*
X-49526899Y280650D01*
X-49498000Y425934D01*
X-49498000Y574066D01*
X-49526899Y719350D01*
X-49583586Y856206D01*
X-49665883Y979372D01*
X-49770628Y1084117D01*
X-49893794Y1166414D01*
X-50030650Y1223101D01*
X-50175934Y1252000D01*
X-50324066Y1252000D01*
X-50469350Y1223101D01*
X-50606206Y1166414D01*
X-50729372Y1084117D01*
X-50750000Y1063489D01*
X-50770628Y1084117D01*
X-50893794Y1166414D01*
X-51030650Y1223101D01*
X-51175934Y1252000D01*
X-51324066Y1252000D01*
X-51469350Y1223101D01*
X-51606206Y1166414D01*
X-51729372Y1084117D01*
X-51834117Y979372D01*
X-51916414Y856206D01*
X-51973101Y719350D01*
X-52002000Y574066D01*
X-52002000Y425934D01*
X-51973101Y280650D01*
X-51917101Y145453D01*
X-51948206Y107550D01*
X-51978570Y50743D01*
X-51997268Y-10897D01*
X-52003582Y-75000D01*
X-78898000Y-75000D01*
X-78898000Y2115924D01*
X-78217000Y2115924D01*
X-78217000Y1884076D01*
X-78171769Y1656682D01*
X-78083044Y1442481D01*
X-77954236Y1249706D01*
X-77790294Y1085764D01*
X-77597519Y956956D01*
X-77383318Y868231D01*
X-77155924Y823000D01*
X-76924076Y823000D01*
X-76696682Y868231D01*
X-76482481Y956956D01*
X-76289706Y1085764D01*
X-76125764Y1249706D01*
X-75996956Y1442481D01*
X-75908231Y1656682D01*
X-75863000Y1884076D01*
X-75863000Y2115924D01*
X-75908231Y2343318D01*
X-75996956Y2557519D01*
X-76125764Y2750294D01*
X-76225470Y2850000D01*
X-75678582Y2850000D01*
X-75678582Y1150000D01*
X-75672268Y1085897D01*
X-75653570Y1024257D01*
X-75623206Y967450D01*
X-75582343Y917657D01*
X-75532550Y876794D01*
X-75475743Y846430D01*
X-75414103Y827732D01*
X-75350000Y821418D01*
X-73650000Y821418D01*
X-73585897Y827732D01*
X-73524257Y846430D01*
X-73467450Y876794D01*
X-73417657Y917657D01*
X-73376794Y967450D01*
X-73346430Y1024257D01*
X-73327732Y1085897D01*
X-73321418Y1150000D01*
X-73321418Y2115924D01*
X-71717000Y2115924D01*
X-71717000Y1884076D01*
X-71671769Y1656682D01*
X-71583044Y1442481D01*
X-71454236Y1249706D01*
X-71290294Y1085764D01*
X-71097519Y956956D01*
X-70883318Y868231D01*
X-70655924Y823000D01*
X-70424076Y823000D01*
X-70196682Y868231D01*
X-69982481Y956956D01*
X-69789706Y1085764D01*
X-69625764Y1249706D01*
X-69496956Y1442481D01*
X-69408231Y1656682D01*
X-69363000Y1884076D01*
X-69363000Y2115924D01*
X-69408231Y2343318D01*
X-69496956Y2557519D01*
X-69625764Y2750294D01*
X-69725470Y2850000D01*
X-69178582Y2850000D01*
X-69178582Y1150000D01*
X-69172268Y1085897D01*
X-69153570Y1024257D01*
X-69123206Y967450D01*
X-69082343Y917657D01*
X-69032550Y876794D01*
X-68975743Y846430D01*
X-68914103Y827732D01*
X-68850000Y821418D01*
X-67150000Y821418D01*
X-67085897Y827732D01*
X-67024257Y846430D01*
X-66967450Y876794D01*
X-66917657Y917657D01*
X-66876794Y967450D01*
X-66846430Y1024257D01*
X-66827732Y1085897D01*
X-66821418Y1150000D01*
X-66821418Y2115924D01*
X-65217000Y2115924D01*
X-65217000Y1884076D01*
X-65171769Y1656682D01*
X-65083044Y1442481D01*
X-64954236Y1249706D01*
X-64790294Y1085764D01*
X-64597519Y956956D01*
X-64383318Y868231D01*
X-64155924Y823000D01*
X-63924076Y823000D01*
X-63696682Y868231D01*
X-63482481Y956956D01*
X-63289706Y1085764D01*
X-63125764Y1249706D01*
X-62996956Y1442481D01*
X-62908231Y1656682D01*
X-62863000Y1884076D01*
X-62863000Y2115924D01*
X-62908231Y2343318D01*
X-62996956Y2557519D01*
X-63125764Y2750294D01*
X-63225470Y2850000D01*
X-62678582Y2850000D01*
X-62678582Y1150000D01*
X-62672268Y1085897D01*
X-62653570Y1024257D01*
X-62623206Y967450D01*
X-62582343Y917657D01*
X-62532550Y876794D01*
X-62475743Y846430D01*
X-62414103Y827732D01*
X-62350000Y821418D01*
X-60650000Y821418D01*
X-60585897Y827732D01*
X-60524257Y846430D01*
X-60467450Y876794D01*
X-60417657Y917657D01*
X-60376794Y967450D01*
X-60346430Y1024257D01*
X-60327732Y1085897D01*
X-60321418Y1150000D01*
X-60321418Y2115924D01*
X-58717000Y2115924D01*
X-58717000Y1884076D01*
X-58671769Y1656682D01*
X-58583044Y1442481D01*
X-58454236Y1249706D01*
X-58290294Y1085764D01*
X-58097519Y956956D01*
X-57883318Y868231D01*
X-57655924Y823000D01*
X-57424076Y823000D01*
X-57196682Y868231D01*
X-56982481Y956956D01*
X-56789706Y1085764D01*
X-56625764Y1249706D01*
X-56496956Y1442481D01*
X-56408231Y1656682D01*
X-56363000Y1884076D01*
X-56363000Y2115924D01*
X-56408231Y2343318D01*
X-56496956Y2557519D01*
X-56625764Y2750294D01*
X-56725470Y2850000D01*
X-56178582Y2850000D01*
X-56178582Y1150000D01*
X-56172268Y1085897D01*
X-56153570Y1024257D01*
X-56123206Y967450D01*
X-56082343Y917657D01*
X-56032550Y876794D01*
X-55975743Y846430D01*
X-55914103Y827732D01*
X-55850000Y821418D01*
X-54150000Y821418D01*
X-54085897Y827732D01*
X-54024257Y846430D01*
X-53967450Y876794D01*
X-53917657Y917657D01*
X-53876794Y967450D01*
X-53846430Y1024257D01*
X-53827732Y1085897D01*
X-53821418Y1150000D01*
X-53821418Y2850000D01*
X-53827732Y2914103D01*
X-53846430Y2975743D01*
X-53876794Y3032550D01*
X-53917657Y3082343D01*
X-53967450Y3123206D01*
X-54024257Y3153570D01*
X-54085897Y3172268D01*
X-54150000Y3178582D01*
X-55850000Y3178582D01*
X-55914103Y3172268D01*
X-55975743Y3153570D01*
X-56032550Y3123206D01*
X-56082343Y3082343D01*
X-56123206Y3032550D01*
X-56153570Y2975743D01*
X-56172268Y2914103D01*
X-56178582Y2850000D01*
X-56725470Y2850000D01*
X-56789706Y2914236D01*
X-56982481Y3043044D01*
X-57196682Y3131769D01*
X-57424076Y3177000D01*
X-57655924Y3177000D01*
X-57883318Y3131769D01*
X-58097519Y3043044D01*
X-58290294Y2914236D01*
X-58454236Y2750294D01*
X-58583044Y2557519D01*
X-58671769Y2343318D01*
X-58717000Y2115924D01*
X-60321418Y2115924D01*
X-60321418Y2850000D01*
X-60327732Y2914103D01*
X-60346430Y2975743D01*
X-60376794Y3032550D01*
X-60417657Y3082343D01*
X-60467450Y3123206D01*
X-60524257Y3153570D01*
X-60585897Y3172268D01*
X-60650000Y3178582D01*
X-62350000Y3178582D01*
X-62414103Y3172268D01*
X-62475743Y3153570D01*
X-62532550Y3123206D01*
X-62582343Y3082343D01*
X-62623206Y3032550D01*
X-62653570Y2975743D01*
X-62672268Y2914103D01*
X-62678582Y2850000D01*
X-63225470Y2850000D01*
X-63289706Y2914236D01*
X-63482481Y3043044D01*
X-63696682Y3131769D01*
X-63924076Y3177000D01*
X-64155924Y3177000D01*
X-64383318Y3131769D01*
X-64597519Y3043044D01*
X-64790294Y2914236D01*
X-64954236Y2750294D01*
X-65083044Y2557519D01*
X-65171769Y2343318D01*
X-65217000Y2115924D01*
X-66821418Y2115924D01*
X-66821418Y2850000D01*
X-66827732Y2914103D01*
X-66846430Y2975743D01*
X-66876794Y3032550D01*
X-66917657Y3082343D01*
X-66967450Y3123206D01*
X-67024257Y3153570D01*
X-67085897Y3172268D01*
X-67150000Y3178582D01*
X-68850000Y3178582D01*
X-68914103Y3172268D01*
X-68975743Y3153570D01*
X-69032550Y3123206D01*
X-69082343Y3082343D01*
X-69123206Y3032550D01*
X-69153570Y2975743D01*
X-69172268Y2914103D01*
X-69178582Y2850000D01*
X-69725470Y2850000D01*
X-69789706Y2914236D01*
X-69982481Y3043044D01*
X-70196682Y3131769D01*
X-70424076Y3177000D01*
X-70655924Y3177000D01*
X-70883318Y3131769D01*
X-71097519Y3043044D01*
X-71290294Y2914236D01*
X-71454236Y2750294D01*
X-71583044Y2557519D01*
X-71671769Y2343318D01*
X-71717000Y2115924D01*
X-73321418Y2115924D01*
X-73321418Y2850000D01*
X-73327732Y2914103D01*
X-73346430Y2975743D01*
X-73376794Y3032550D01*
X-73417657Y3082343D01*
X-73467450Y3123206D01*
X-73524257Y3153570D01*
X-73585897Y3172268D01*
X-73650000Y3178582D01*
X-75350000Y3178582D01*
X-75414103Y3172268D01*
X-75475743Y3153570D01*
X-75532550Y3123206D01*
X-75582343Y3082343D01*
X-75623206Y3032550D01*
X-75653570Y2975743D01*
X-75672268Y2914103D01*
X-75678582Y2850000D01*
X-76225470Y2850000D01*
X-76289706Y2914236D01*
X-76482481Y3043044D01*
X-76696682Y3131769D01*
X-76924076Y3177000D01*
X-77155924Y3177000D01*
X-77383318Y3131769D01*
X-77597519Y3043044D01*
X-77790294Y2914236D01*
X-77954236Y2750294D01*
X-78083044Y2557519D01*
X-78171769Y2343318D01*
X-78217000Y2115924D01*
X-78898000Y2115924D01*
X-78898000Y3668000D01*
X-57618145Y3668000D01*
X-57569004Y3653093D01*
%TA.AperFunction,Conductor*%
D18*
G36*
X-57569004Y3653093D02*
G01*
X-57517292Y3648000D01*
X13648000Y3648000D01*
X13648001Y-3898000D01*
X-57517292Y-3898000D01*
X-57569004Y-3903093D01*
X-57618145Y-3918000D01*
X-78898000Y-3918000D01*
X-78898000Y-1884076D01*
X-78217000Y-1884076D01*
X-78217000Y-2115924D01*
X-78171769Y-2343318D01*
X-78083044Y-2557519D01*
X-77954236Y-2750294D01*
X-77790294Y-2914236D01*
X-77597519Y-3043044D01*
X-77383318Y-3131769D01*
X-77155924Y-3177000D01*
X-76924076Y-3177000D01*
X-76696682Y-3131769D01*
X-76482481Y-3043044D01*
X-76289706Y-2914236D01*
X-76125764Y-2750294D01*
X-75996956Y-2557519D01*
X-75908231Y-2343318D01*
X-75863000Y-2115924D01*
X-75863000Y-1884076D01*
X-75908231Y-1656682D01*
X-75996956Y-1442481D01*
X-76125764Y-1249706D01*
X-76225470Y-1150000D01*
X-75678582Y-1150000D01*
X-75678582Y-2850000D01*
X-75672268Y-2914103D01*
X-75653570Y-2975743D01*
X-75623206Y-3032550D01*
X-75582343Y-3082343D01*
X-75532550Y-3123206D01*
X-75475743Y-3153570D01*
X-75414103Y-3172268D01*
X-75350000Y-3178582D01*
X-73650000Y-3178582D01*
X-73585897Y-3172268D01*
X-73524257Y-3153570D01*
X-73467450Y-3123206D01*
X-73417657Y-3082343D01*
X-73376794Y-3032550D01*
X-73346430Y-2975743D01*
X-73327732Y-2914103D01*
X-73321418Y-2850000D01*
X-73321418Y-1884076D01*
X-71717000Y-1884076D01*
X-71717000Y-2115924D01*
X-71671769Y-2343318D01*
X-71583044Y-2557519D01*
X-71454236Y-2750294D01*
X-71290294Y-2914236D01*
X-71097519Y-3043044D01*
X-70883318Y-3131769D01*
X-70655924Y-3177000D01*
X-70424076Y-3177000D01*
X-70196682Y-3131769D01*
X-69982481Y-3043044D01*
X-69789706Y-2914236D01*
X-69625764Y-2750294D01*
X-69496956Y-2557519D01*
X-69408231Y-2343318D01*
X-69363000Y-2115924D01*
X-69363000Y-1884076D01*
X-69408231Y-1656682D01*
X-69496956Y-1442481D01*
X-69625764Y-1249706D01*
X-69725470Y-1150000D01*
X-69178582Y-1150000D01*
X-69178582Y-2850000D01*
X-69172268Y-2914103D01*
X-69153570Y-2975743D01*
X-69123206Y-3032550D01*
X-69082343Y-3082343D01*
X-69032550Y-3123206D01*
X-68975743Y-3153570D01*
X-68914103Y-3172268D01*
X-68850000Y-3178582D01*
X-67150000Y-3178582D01*
X-67085897Y-3172268D01*
X-67024257Y-3153570D01*
X-66967450Y-3123206D01*
X-66917657Y-3082343D01*
X-66876794Y-3032550D01*
X-66846430Y-2975743D01*
X-66827732Y-2914103D01*
X-66821418Y-2850000D01*
X-66821418Y-1884076D01*
X-65217000Y-1884076D01*
X-65217000Y-2115924D01*
X-65171769Y-2343318D01*
X-65083044Y-2557519D01*
X-64954236Y-2750294D01*
X-64790294Y-2914236D01*
X-64597519Y-3043044D01*
X-64383318Y-3131769D01*
X-64155924Y-3177000D01*
X-63924076Y-3177000D01*
X-63696682Y-3131769D01*
X-63482481Y-3043044D01*
X-63289706Y-2914236D01*
X-63125764Y-2750294D01*
X-62996956Y-2557519D01*
X-62908231Y-2343318D01*
X-62863000Y-2115924D01*
X-62863000Y-1884076D01*
X-62908231Y-1656682D01*
X-62996956Y-1442481D01*
X-63125764Y-1249706D01*
X-63225470Y-1150000D01*
X-62678582Y-1150000D01*
X-62678582Y-2850000D01*
X-62672268Y-2914103D01*
X-62653570Y-2975743D01*
X-62623206Y-3032550D01*
X-62582343Y-3082343D01*
X-62532550Y-3123206D01*
X-62475743Y-3153570D01*
X-62414103Y-3172268D01*
X-62350000Y-3178582D01*
X-60650000Y-3178582D01*
X-60585897Y-3172268D01*
X-60524257Y-3153570D01*
X-60467450Y-3123206D01*
X-60417657Y-3082343D01*
X-60376794Y-3032550D01*
X-60346430Y-2975743D01*
X-60327732Y-2914103D01*
X-60321418Y-2850000D01*
X-60321418Y-1884076D01*
X-58717000Y-1884076D01*
X-58717000Y-2115924D01*
X-58671769Y-2343318D01*
X-58583044Y-2557519D01*
X-58454236Y-2750294D01*
X-58290294Y-2914236D01*
X-58097519Y-3043044D01*
X-57883318Y-3131769D01*
X-57655924Y-3177000D01*
X-57424076Y-3177000D01*
X-57196682Y-3131769D01*
X-57033663Y-3064244D01*
X-56825153Y-3272754D01*
X-56812802Y-3287804D01*
X-56780617Y-3314217D01*
X-56752732Y-3337102D01*
X-56719941Y-3354629D01*
X-56684198Y-3373734D01*
X-56609834Y-3396292D01*
X-56551871Y-3402001D01*
X-56551869Y-3402001D01*
X-56532499Y-3403909D01*
X-56513130Y-3402001D01*
X-34316266Y-3402001D01*
X-34277307Y-3413819D01*
X-34219344Y-3419528D01*
X-34219341Y-3419528D01*
X-34199972Y-3421436D01*
X-34180603Y-3419528D01*
X2014503Y-3419528D01*
X2033872Y-3421436D01*
X2053241Y-3419528D01*
X2053244Y-3419528D01*
X2111207Y-3413819D01*
X2185571Y-3391261D01*
X2254104Y-3354629D01*
X2314175Y-3305331D01*
X2326530Y-3290276D01*
X4654560Y-962247D01*
X4707216Y-997430D01*
X4850441Y-1056756D01*
X5002487Y-1087000D01*
X5157513Y-1087000D01*
X5309559Y-1056756D01*
X5452784Y-997430D01*
X5581683Y-911303D01*
X5691303Y-801683D01*
X5715000Y-766218D01*
X5738697Y-801683D01*
X5848317Y-911303D01*
X5977216Y-997430D01*
X6120441Y-1056756D01*
X6272487Y-1087000D01*
X6427513Y-1087000D01*
X6579559Y-1056756D01*
X6722784Y-997430D01*
X6851683Y-911303D01*
X6961303Y-801683D01*
X7047430Y-672784D01*
X7106756Y-529559D01*
X7137000Y-377513D01*
X7137000Y-222487D01*
X7106756Y-70441D01*
X7047430Y72784D01*
X6961303Y201683D01*
X6851683Y311303D01*
X6722784Y397430D01*
X6579559Y456756D01*
X6441076Y484302D01*
X6476756Y570441D01*
X6507000Y722487D01*
X6507000Y877513D01*
X6476756Y1029559D01*
X6417430Y1172784D01*
X6331303Y1301683D01*
X6221683Y1411303D01*
X6092784Y1497430D01*
X5949559Y1556756D01*
X5797513Y1587000D01*
X5642487Y1587000D01*
X5516056Y1561851D01*
X3607609Y3470297D01*
X3595254Y3485352D01*
X3535183Y3534650D01*
X3466650Y3571282D01*
X3392286Y3593840D01*
X3334323Y3599549D01*
X3334320Y3599549D01*
X3314951Y3601457D01*
X3295582Y3599549D01*
X-35449484Y3599549D01*
X-35468853Y3601457D01*
X-35488223Y3599549D01*
X-35488225Y3599549D01*
X-35546188Y3593840D01*
X-35620552Y3571282D01*
X-35689085Y3534650D01*
X-35749156Y3485352D01*
X-35761507Y3470302D01*
X-38083580Y1148228D01*
X-38157216Y1197430D01*
X-38300441Y1256756D01*
X-38452487Y1287000D01*
X-38607513Y1287000D01*
X-38759559Y1256756D01*
X-38902784Y1197430D01*
X-39031683Y1111303D01*
X-39141303Y1001683D01*
X-39165000Y966218D01*
X-39188697Y1001683D01*
X-39298317Y1111303D01*
X-39427216Y1197430D01*
X-39570441Y1256756D01*
X-39722487Y1287000D01*
X-39877513Y1287000D01*
X-40029559Y1256756D01*
X-40172784Y1197430D01*
X-40301683Y1111303D01*
X-40411303Y1001683D01*
X-40435000Y966218D01*
X-40458697Y1001683D01*
X-40568317Y1111303D01*
X-40697216Y1197430D01*
X-40840441Y1256756D01*
X-40992487Y1287000D01*
X-41147513Y1287000D01*
X-41299559Y1256756D01*
X-41442784Y1197430D01*
X-41571683Y1111303D01*
X-41681303Y1001683D01*
X-41767430Y872784D01*
X-41826756Y729559D01*
X-41857000Y577513D01*
X-41857000Y422487D01*
X-41826756Y270441D01*
X-41767430Y127216D01*
X-41681303Y-1683D01*
X-41571683Y-111303D01*
X-41442784Y-197430D01*
X-41299559Y-256756D01*
X-41156457Y-285221D01*
X-41191756Y-370441D01*
X-41222000Y-522487D01*
X-41222000Y-677513D01*
X-41191756Y-829559D01*
X-41132430Y-972784D01*
X-41046303Y-1101683D01*
X-40936683Y-1211303D01*
X-40807784Y-1297430D01*
X-40664559Y-1356756D01*
X-40512513Y-1387000D01*
X-40357487Y-1387000D01*
X-40205441Y-1356756D01*
X-40062216Y-1297430D01*
X-39933317Y-1211303D01*
X-39823697Y-1101683D01*
X-39800000Y-1066218D01*
X-39776303Y-1101683D01*
X-39666683Y-1211303D01*
X-39537784Y-1297430D01*
X-39394559Y-1356756D01*
X-39242513Y-1387000D01*
X-39087487Y-1387000D01*
X-38935441Y-1356756D01*
X-38792216Y-1297430D01*
X-38663317Y-1211303D01*
X-38553697Y-1101683D01*
X-38530000Y-1066218D01*
X-38506303Y-1101683D01*
X-38396683Y-1211303D01*
X-38267784Y-1297430D01*
X-38124559Y-1356756D01*
X-37972513Y-1387000D01*
X-37817487Y-1387000D01*
X-37665441Y-1356756D01*
X-37522216Y-1297430D01*
X-37393317Y-1211303D01*
X-37283697Y-1101683D01*
X-37260000Y-1066218D01*
X-37236303Y-1101683D01*
X-37126683Y-1211303D01*
X-36997784Y-1297430D01*
X-36854559Y-1356756D01*
X-36702513Y-1387000D01*
X-36547487Y-1387000D01*
X-36421055Y-1361851D01*
X-35169906Y-2613001D01*
X-53821418Y-2613001D01*
X-53821418Y-1150000D01*
X-53827732Y-1085897D01*
X-53846430Y-1024257D01*
X-53876794Y-967450D01*
X-53917657Y-917657D01*
X-53967450Y-876794D01*
X-54024257Y-846430D01*
X-54085897Y-827732D01*
X-54150000Y-821418D01*
X-55850000Y-821418D01*
X-55914103Y-827732D01*
X-55975743Y-846430D01*
X-56032550Y-876794D01*
X-56082343Y-917657D01*
X-56123206Y-967450D01*
X-56153570Y-1024257D01*
X-56172268Y-1085897D01*
X-56178582Y-1150000D01*
X-56178582Y-2613001D01*
X-56369092Y-2613001D01*
X-56475756Y-2506337D01*
X-56408231Y-2343318D01*
X-56363000Y-2115924D01*
X-56363000Y-1884076D01*
X-56408231Y-1656682D01*
X-56496956Y-1442481D01*
X-56625764Y-1249706D01*
X-56789706Y-1085764D01*
X-56982481Y-956956D01*
X-57196682Y-868231D01*
X-57424076Y-823000D01*
X-57655924Y-823000D01*
X-57883318Y-868231D01*
X-58097519Y-956956D01*
X-58290294Y-1085764D01*
X-58454236Y-1249706D01*
X-58583044Y-1442481D01*
X-58671769Y-1656682D01*
X-58717000Y-1884076D01*
X-60321418Y-1884076D01*
X-60321418Y-1150000D01*
X-60327732Y-1085897D01*
X-60346430Y-1024257D01*
X-60376794Y-967450D01*
X-60417657Y-917657D01*
X-60467450Y-876794D01*
X-60524257Y-846430D01*
X-60585897Y-827732D01*
X-60650000Y-821418D01*
X-62350000Y-821418D01*
X-62414103Y-827732D01*
X-62475743Y-846430D01*
X-62532550Y-876794D01*
X-62582343Y-917657D01*
X-62623206Y-967450D01*
X-62653570Y-1024257D01*
X-62672268Y-1085897D01*
X-62678582Y-1150000D01*
X-63225470Y-1150000D01*
X-63289706Y-1085764D01*
X-63482481Y-956956D01*
X-63696682Y-868231D01*
X-63924076Y-823000D01*
X-64155924Y-823000D01*
X-64383318Y-868231D01*
X-64597519Y-956956D01*
X-64790294Y-1085764D01*
X-64954236Y-1249706D01*
X-65083044Y-1442481D01*
X-65171769Y-1656682D01*
X-65217000Y-1884076D01*
X-66821418Y-1884076D01*
X-66821418Y-1150000D01*
X-66827732Y-1085897D01*
X-66846430Y-1024257D01*
X-66876794Y-967450D01*
X-66917657Y-917657D01*
X-66967450Y-876794D01*
X-67024257Y-846430D01*
X-67085897Y-827732D01*
X-67150000Y-821418D01*
X-68850000Y-821418D01*
X-68914103Y-827732D01*
X-68975743Y-846430D01*
X-69032550Y-876794D01*
X-69082343Y-917657D01*
X-69123206Y-967450D01*
X-69153570Y-1024257D01*
X-69172268Y-1085897D01*
X-69178582Y-1150000D01*
X-69725470Y-1150000D01*
X-69789706Y-1085764D01*
X-69982481Y-956956D01*
X-70196682Y-868231D01*
X-70424076Y-823000D01*
X-70655924Y-823000D01*
X-70883318Y-868231D01*
X-71097519Y-956956D01*
X-71290294Y-1085764D01*
X-71454236Y-1249706D01*
X-71583044Y-1442481D01*
X-71671769Y-1656682D01*
X-71717000Y-1884076D01*
X-73321418Y-1884076D01*
X-73321418Y-1150000D01*
X-73327732Y-1085897D01*
X-73346430Y-1024257D01*
X-73376794Y-967450D01*
X-73417657Y-917657D01*
X-73467450Y-876794D01*
X-73524257Y-846430D01*
X-73585897Y-827732D01*
X-73650000Y-821418D01*
X-75350000Y-821418D01*
X-75414103Y-827732D01*
X-75475743Y-846430D01*
X-75532550Y-876794D01*
X-75582343Y-917657D01*
X-75623206Y-967450D01*
X-75653570Y-1024257D01*
X-75672268Y-1085897D01*
X-75678582Y-1150000D01*
X-76225470Y-1150000D01*
X-76289706Y-1085764D01*
X-76482481Y-956956D01*
X-76696682Y-868231D01*
X-76924076Y-823000D01*
X-77155924Y-823000D01*
X-77383318Y-868231D01*
X-77597519Y-956956D01*
X-77790294Y-1085764D01*
X-77954236Y-1249706D01*
X-78083044Y-1442481D01*
X-78171769Y-1656682D01*
X-78217000Y-1884076D01*
X-78898000Y-1884076D01*
X-78898000Y-75000D01*
X-52003582Y-75000D01*
X-52003582Y-925000D01*
X-51997268Y-989103D01*
X-51978570Y-1050743D01*
X-51948206Y-1107550D01*
X-51907343Y-1157343D01*
X-51857550Y-1198206D01*
X-51800743Y-1228570D01*
X-51739103Y-1247268D01*
X-51675000Y-1253582D01*
X-50825000Y-1253582D01*
X-50760897Y-1247268D01*
X-50699257Y-1228570D01*
X-50642450Y-1198206D01*
X-50604547Y-1167101D01*
X-50469350Y-1223101D01*
X-50324066Y-1252000D01*
X-50175934Y-1252000D01*
X-50030650Y-1223101D01*
X-49893794Y-1166414D01*
X-49770628Y-1084117D01*
X-49665883Y-979372D01*
X-49583586Y-856206D01*
X-49526899Y-719350D01*
X-49498000Y-574066D01*
X-49498000Y-425934D01*
X-49526899Y-280650D01*
X-49583586Y-143794D01*
X-49665883Y-20628D01*
X-49686511Y0D01*
X-49665883Y20628D01*
X-49583586Y143794D01*
X-49526899Y280650D01*
X-49498000Y425934D01*
X-49498000Y574066D01*
X-49526899Y719350D01*
X-49583586Y856206D01*
X-49665883Y979372D01*
X-49770628Y1084117D01*
X-49893794Y1166414D01*
X-50030650Y1223101D01*
X-50175934Y1252000D01*
X-50324066Y1252000D01*
X-50469350Y1223101D01*
X-50606206Y1166414D01*
X-50729372Y1084117D01*
X-50750000Y1063489D01*
X-50770628Y1084117D01*
X-50893794Y1166414D01*
X-51030650Y1223101D01*
X-51175934Y1252000D01*
X-51324066Y1252000D01*
X-51469350Y1223101D01*
X-51606206Y1166414D01*
X-51729372Y1084117D01*
X-51834117Y979372D01*
X-51916414Y856206D01*
X-51973101Y719350D01*
X-52002000Y574066D01*
X-52002000Y425934D01*
X-51973101Y280650D01*
X-51917101Y145453D01*
X-51948206Y107550D01*
X-51978570Y50743D01*
X-51997268Y-10897D01*
X-52003582Y-75000D01*
X-78898000Y-75000D01*
X-78898000Y2115924D01*
X-78217000Y2115924D01*
X-78217000Y1884076D01*
X-78171769Y1656682D01*
X-78083044Y1442481D01*
X-77954236Y1249706D01*
X-77790294Y1085764D01*
X-77597519Y956956D01*
X-77383318Y868231D01*
X-77155924Y823000D01*
X-76924076Y823000D01*
X-76696682Y868231D01*
X-76482481Y956956D01*
X-76289706Y1085764D01*
X-76125764Y1249706D01*
X-75996956Y1442481D01*
X-75908231Y1656682D01*
X-75863000Y1884076D01*
X-75863000Y2115924D01*
X-75908231Y2343318D01*
X-75996956Y2557519D01*
X-76125764Y2750294D01*
X-76225470Y2850000D01*
X-75678582Y2850000D01*
X-75678582Y1150000D01*
X-75672268Y1085897D01*
X-75653570Y1024257D01*
X-75623206Y967450D01*
X-75582343Y917657D01*
X-75532550Y876794D01*
X-75475743Y846430D01*
X-75414103Y827732D01*
X-75350000Y821418D01*
X-73650000Y821418D01*
X-73585897Y827732D01*
X-73524257Y846430D01*
X-73467450Y876794D01*
X-73417657Y917657D01*
X-73376794Y967450D01*
X-73346430Y1024257D01*
X-73327732Y1085897D01*
X-73321418Y1150000D01*
X-73321418Y2115924D01*
X-71717000Y2115924D01*
X-71717000Y1884076D01*
X-71671769Y1656682D01*
X-71583044Y1442481D01*
X-71454236Y1249706D01*
X-71290294Y1085764D01*
X-71097519Y956956D01*
X-70883318Y868231D01*
X-70655924Y823000D01*
X-70424076Y823000D01*
X-70196682Y868231D01*
X-69982481Y956956D01*
X-69789706Y1085764D01*
X-69625764Y1249706D01*
X-69496956Y1442481D01*
X-69408231Y1656682D01*
X-69363000Y1884076D01*
X-69363000Y2115924D01*
X-69408231Y2343318D01*
X-69496956Y2557519D01*
X-69625764Y2750294D01*
X-69725470Y2850000D01*
X-69178582Y2850000D01*
X-69178582Y1150000D01*
X-69172268Y1085897D01*
X-69153570Y1024257D01*
X-69123206Y967450D01*
X-69082343Y917657D01*
X-69032550Y876794D01*
X-68975743Y846430D01*
X-68914103Y827732D01*
X-68850000Y821418D01*
X-67150000Y821418D01*
X-67085897Y827732D01*
X-67024257Y846430D01*
X-66967450Y876794D01*
X-66917657Y917657D01*
X-66876794Y967450D01*
X-66846430Y1024257D01*
X-66827732Y1085897D01*
X-66821418Y1150000D01*
X-66821418Y2115924D01*
X-65217000Y2115924D01*
X-65217000Y1884076D01*
X-65171769Y1656682D01*
X-65083044Y1442481D01*
X-64954236Y1249706D01*
X-64790294Y1085764D01*
X-64597519Y956956D01*
X-64383318Y868231D01*
X-64155924Y823000D01*
X-63924076Y823000D01*
X-63696682Y868231D01*
X-63482481Y956956D01*
X-63289706Y1085764D01*
X-63125764Y1249706D01*
X-62996956Y1442481D01*
X-62908231Y1656682D01*
X-62863000Y1884076D01*
X-62863000Y2115924D01*
X-62908231Y2343318D01*
X-62996956Y2557519D01*
X-63125764Y2750294D01*
X-63225470Y2850000D01*
X-62678582Y2850000D01*
X-62678582Y1150000D01*
X-62672268Y1085897D01*
X-62653570Y1024257D01*
X-62623206Y967450D01*
X-62582343Y917657D01*
X-62532550Y876794D01*
X-62475743Y846430D01*
X-62414103Y827732D01*
X-62350000Y821418D01*
X-60650000Y821418D01*
X-60585897Y827732D01*
X-60524257Y846430D01*
X-60467450Y876794D01*
X-60417657Y917657D01*
X-60376794Y967450D01*
X-60346430Y1024257D01*
X-60327732Y1085897D01*
X-60321418Y1150000D01*
X-60321418Y2115924D01*
X-58717000Y2115924D01*
X-58717000Y1884076D01*
X-58671769Y1656682D01*
X-58583044Y1442481D01*
X-58454236Y1249706D01*
X-58290294Y1085764D01*
X-58097519Y956956D01*
X-57883318Y868231D01*
X-57655924Y823000D01*
X-57424076Y823000D01*
X-57196682Y868231D01*
X-56982481Y956956D01*
X-56789706Y1085764D01*
X-56625764Y1249706D01*
X-56496956Y1442481D01*
X-56408231Y1656682D01*
X-56363000Y1884076D01*
X-56363000Y2115924D01*
X-56408231Y2343318D01*
X-56496956Y2557519D01*
X-56625764Y2750294D01*
X-56725470Y2850000D01*
X-56178582Y2850000D01*
X-56178582Y1150000D01*
X-56172268Y1085897D01*
X-56153570Y1024257D01*
X-56123206Y967450D01*
X-56082343Y917657D01*
X-56032550Y876794D01*
X-55975743Y846430D01*
X-55914103Y827732D01*
X-55850000Y821418D01*
X-54150000Y821418D01*
X-54085897Y827732D01*
X-54024257Y846430D01*
X-53967450Y876794D01*
X-53917657Y917657D01*
X-53876794Y967450D01*
X-53846430Y1024257D01*
X-53827732Y1085897D01*
X-53821418Y1150000D01*
X-53821418Y2850000D01*
X-53827732Y2914103D01*
X-53846430Y2975743D01*
X-53876794Y3032550D01*
X-53917657Y3082343D01*
X-53967450Y3123206D01*
X-54024257Y3153570D01*
X-54085897Y3172268D01*
X-54150000Y3178582D01*
X-55850000Y3178582D01*
X-55914103Y3172268D01*
X-55975743Y3153570D01*
X-56032550Y3123206D01*
X-56082343Y3082343D01*
X-56123206Y3032550D01*
X-56153570Y2975743D01*
X-56172268Y2914103D01*
X-56178582Y2850000D01*
X-56725470Y2850000D01*
X-56789706Y2914236D01*
X-56982481Y3043044D01*
X-57196682Y3131769D01*
X-57424076Y3177000D01*
X-57655924Y3177000D01*
X-57883318Y3131769D01*
X-58097519Y3043044D01*
X-58290294Y2914236D01*
X-58454236Y2750294D01*
X-58583044Y2557519D01*
X-58671769Y2343318D01*
X-58717000Y2115924D01*
X-60321418Y2115924D01*
X-60321418Y2850000D01*
X-60327732Y2914103D01*
X-60346430Y2975743D01*
X-60376794Y3032550D01*
X-60417657Y3082343D01*
X-60467450Y3123206D01*
X-60524257Y3153570D01*
X-60585897Y3172268D01*
X-60650000Y3178582D01*
X-62350000Y3178582D01*
X-62414103Y3172268D01*
X-62475743Y3153570D01*
X-62532550Y3123206D01*
X-62582343Y3082343D01*
X-62623206Y3032550D01*
X-62653570Y2975743D01*
X-62672268Y2914103D01*
X-62678582Y2850000D01*
X-63225470Y2850000D01*
X-63289706Y2914236D01*
X-63482481Y3043044D01*
X-63696682Y3131769D01*
X-63924076Y3177000D01*
X-64155924Y3177000D01*
X-64383318Y3131769D01*
X-64597519Y3043044D01*
X-64790294Y2914236D01*
X-64954236Y2750294D01*
X-65083044Y2557519D01*
X-65171769Y2343318D01*
X-65217000Y2115924D01*
X-66821418Y2115924D01*
X-66821418Y2850000D01*
X-66827732Y2914103D01*
X-66846430Y2975743D01*
X-66876794Y3032550D01*
X-66917657Y3082343D01*
X-66967450Y3123206D01*
X-67024257Y3153570D01*
X-67085897Y3172268D01*
X-67150000Y3178582D01*
X-68850000Y3178582D01*
X-68914103Y3172268D01*
X-68975743Y3153570D01*
X-69032550Y3123206D01*
X-69082343Y3082343D01*
X-69123206Y3032550D01*
X-69153570Y2975743D01*
X-69172268Y2914103D01*
X-69178582Y2850000D01*
X-69725470Y2850000D01*
X-69789706Y2914236D01*
X-69982481Y3043044D01*
X-70196682Y3131769D01*
X-70424076Y3177000D01*
X-70655924Y3177000D01*
X-70883318Y3131769D01*
X-71097519Y3043044D01*
X-71290294Y2914236D01*
X-71454236Y2750294D01*
X-71583044Y2557519D01*
X-71671769Y2343318D01*
X-71717000Y2115924D01*
X-73321418Y2115924D01*
X-73321418Y2850000D01*
X-73327732Y2914103D01*
X-73346430Y2975743D01*
X-73376794Y3032550D01*
X-73417657Y3082343D01*
X-73467450Y3123206D01*
X-73524257Y3153570D01*
X-73585897Y3172268D01*
X-73650000Y3178582D01*
X-75350000Y3178582D01*
X-75414103Y3172268D01*
X-75475743Y3153570D01*
X-75532550Y3123206D01*
X-75582343Y3082343D01*
X-75623206Y3032550D01*
X-75653570Y2975743D01*
X-75672268Y2914103D01*
X-75678582Y2850000D01*
X-76225470Y2850000D01*
X-76289706Y2914236D01*
X-76482481Y3043044D01*
X-76696682Y3131769D01*
X-76924076Y3177000D01*
X-77155924Y3177000D01*
X-77383318Y3131769D01*
X-77597519Y3043044D01*
X-77790294Y2914236D01*
X-77954236Y2750294D01*
X-78083044Y2557519D01*
X-78171769Y2343318D01*
X-78217000Y2115924D01*
X-78898000Y2115924D01*
X-78898000Y3668000D01*
X-57618145Y3668000D01*
X-57569004Y3653093D01*
G37*
%TD.AperFunction*%
D17*
X-7752654Y534747D02*
X-7740303Y519697D01*
X-7680232Y470399D01*
X-7611699Y433767D01*
X-7537335Y411209D01*
X-7479372Y405500D01*
X-7479370Y405500D01*
X-7460001Y403592D01*
X-7440631Y405500D01*
X-6703301Y405500D01*
X-6722784Y397430D01*
X-6851683Y311303D01*
X-6961303Y201683D01*
X-7047430Y72784D01*
X-7106756Y-70441D01*
X-7137000Y-222487D01*
X-7137000Y-377513D01*
X-7106756Y-529559D01*
X-7047430Y-672784D01*
X-6961303Y-801683D01*
X-6851683Y-911303D01*
X-6722784Y-997430D01*
X-6579559Y-1056756D01*
X-6427513Y-1087000D01*
X-6272487Y-1087000D01*
X-6120441Y-1056756D01*
X-5977216Y-997430D01*
X-5848317Y-911303D01*
X-5738697Y-801683D01*
X-5715000Y-766218D01*
X-5691303Y-801683D01*
X-5581683Y-911303D01*
X-5452784Y-997430D01*
X-5309559Y-1056756D01*
X-5157513Y-1087000D01*
X-5002487Y-1087000D01*
X-4850441Y-1056756D01*
X-4707216Y-997430D01*
X-4578317Y-911303D01*
X-4468697Y-801683D01*
X-4445000Y-766218D01*
X-4421303Y-801683D01*
X-4311683Y-911303D01*
X-4182784Y-997430D01*
X-4039559Y-1056756D01*
X-3887513Y-1087000D01*
X-3732487Y-1087000D01*
X-3580441Y-1056756D01*
X-3437216Y-997430D01*
X-3308317Y-911303D01*
X-3198697Y-801683D01*
X-3175000Y-766218D01*
X-3151303Y-801683D01*
X-3041683Y-911303D01*
X-2912784Y-997430D01*
X-2769559Y-1056756D01*
X-2617513Y-1087000D01*
X-2462487Y-1087000D01*
X-2310441Y-1056756D01*
X-2167216Y-997430D01*
X-2038317Y-911303D01*
X-1928697Y-801683D01*
X-1905000Y-766218D01*
X-1881303Y-801683D01*
X-1771683Y-911303D01*
X-1642784Y-997430D01*
X-1499559Y-1056756D01*
X-1347513Y-1087000D01*
X-1192487Y-1087000D01*
X-1040441Y-1056756D01*
X-897216Y-997430D01*
X-768317Y-911303D01*
X-658697Y-801683D01*
X-635000Y-766218D01*
X-611303Y-801683D01*
X-501683Y-911303D01*
X-372784Y-997430D01*
X-350617Y-1006612D01*
X-1299504Y-1955500D01*
X-30901593Y-1955500D01*
X-31470093Y-1387000D01*
X-31467487Y-1387000D01*
X-31315441Y-1356756D01*
X-31172216Y-1297430D01*
X-31043317Y-1211303D01*
X-30933697Y-1101683D01*
X-30910000Y-1066218D01*
X-30886303Y-1101683D01*
X-30776683Y-1211303D01*
X-30647784Y-1297430D01*
X-30504559Y-1356756D01*
X-30352513Y-1387000D01*
X-30197487Y-1387000D01*
X-30045441Y-1356756D01*
X-29902216Y-1297430D01*
X-29773317Y-1211303D01*
X-29663697Y-1101683D01*
X-29640000Y-1066218D01*
X-29616303Y-1101683D01*
X-29506683Y-1211303D01*
X-29377784Y-1297430D01*
X-29234559Y-1356756D01*
X-29082513Y-1387000D01*
X-28927487Y-1387000D01*
X-28775441Y-1356756D01*
X-28632216Y-1297430D01*
X-28503317Y-1211303D01*
X-28393697Y-1101683D01*
X-28370000Y-1066218D01*
X-28346303Y-1101683D01*
X-28236683Y-1211303D01*
X-28107784Y-1297430D01*
X-27964559Y-1356756D01*
X-27812513Y-1387000D01*
X-27657487Y-1387000D01*
X-27505441Y-1356756D01*
X-27362216Y-1297430D01*
X-27233317Y-1211303D01*
X-27123697Y-1101683D01*
X-27100000Y-1066218D01*
X-27076303Y-1101683D01*
X-26966683Y-1211303D01*
X-26837784Y-1297430D01*
X-26694559Y-1356756D01*
X-26542513Y-1387000D01*
X-26387487Y-1387000D01*
X-26235441Y-1356756D01*
X-26092216Y-1297430D01*
X-25963317Y-1211303D01*
X-25853697Y-1101683D01*
X-25767570Y-972784D01*
X-25708244Y-829559D01*
X-25678000Y-677513D01*
X-25678000Y-522487D01*
X-25708244Y-370441D01*
X-25743543Y-285221D01*
X-25600441Y-256756D01*
X-25457216Y-197430D01*
X-25328317Y-111303D01*
X-25218697Y-1683D01*
X-25132570Y127216D01*
X-25073244Y270441D01*
X-25043000Y422487D01*
X-25043000Y577513D01*
X-25073244Y729559D01*
X-25132570Y872784D01*
X-25218697Y1001683D01*
X-25328317Y1111303D01*
X-25457216Y1197430D01*
X-25479383Y1206612D01*
X-25000495Y1685500D01*
X-8903406Y1685500D01*
X-7752654Y534747D01*
%TA.AperFunction,Conductor*%
D18*
G36*
X-7752654Y534747D02*
G01*
X-7740303Y519697D01*
X-7680232Y470399D01*
X-7611699Y433767D01*
X-7537335Y411209D01*
X-7479372Y405500D01*
X-7479370Y405500D01*
X-7460001Y403592D01*
X-7440631Y405500D01*
X-6703301Y405500D01*
X-6722784Y397430D01*
X-6851683Y311303D01*
X-6961303Y201683D01*
X-7047430Y72784D01*
X-7106756Y-70441D01*
X-7137000Y-222487D01*
X-7137000Y-377513D01*
X-7106756Y-529559D01*
X-7047430Y-672784D01*
X-6961303Y-801683D01*
X-6851683Y-911303D01*
X-6722784Y-997430D01*
X-6579559Y-1056756D01*
X-6427513Y-1087000D01*
X-6272487Y-1087000D01*
X-6120441Y-1056756D01*
X-5977216Y-997430D01*
X-5848317Y-911303D01*
X-5738697Y-801683D01*
X-5715000Y-766218D01*
X-5691303Y-801683D01*
X-5581683Y-911303D01*
X-5452784Y-997430D01*
X-5309559Y-1056756D01*
X-5157513Y-1087000D01*
X-5002487Y-1087000D01*
X-4850441Y-1056756D01*
X-4707216Y-997430D01*
X-4578317Y-911303D01*
X-4468697Y-801683D01*
X-4445000Y-766218D01*
X-4421303Y-801683D01*
X-4311683Y-911303D01*
X-4182784Y-997430D01*
X-4039559Y-1056756D01*
X-3887513Y-1087000D01*
X-3732487Y-1087000D01*
X-3580441Y-1056756D01*
X-3437216Y-997430D01*
X-3308317Y-911303D01*
X-3198697Y-801683D01*
X-3175000Y-766218D01*
X-3151303Y-801683D01*
X-3041683Y-911303D01*
X-2912784Y-997430D01*
X-2769559Y-1056756D01*
X-2617513Y-1087000D01*
X-2462487Y-1087000D01*
X-2310441Y-1056756D01*
X-2167216Y-997430D01*
X-2038317Y-911303D01*
X-1928697Y-801683D01*
X-1905000Y-766218D01*
X-1881303Y-801683D01*
X-1771683Y-911303D01*
X-1642784Y-997430D01*
X-1499559Y-1056756D01*
X-1347513Y-1087000D01*
X-1192487Y-1087000D01*
X-1040441Y-1056756D01*
X-897216Y-997430D01*
X-768317Y-911303D01*
X-658697Y-801683D01*
X-635000Y-766218D01*
X-611303Y-801683D01*
X-501683Y-911303D01*
X-372784Y-997430D01*
X-350617Y-1006612D01*
X-1299504Y-1955500D01*
X-30901593Y-1955500D01*
X-31470093Y-1387000D01*
X-31467487Y-1387000D01*
X-31315441Y-1356756D01*
X-31172216Y-1297430D01*
X-31043317Y-1211303D01*
X-30933697Y-1101683D01*
X-30910000Y-1066218D01*
X-30886303Y-1101683D01*
X-30776683Y-1211303D01*
X-30647784Y-1297430D01*
X-30504559Y-1356756D01*
X-30352513Y-1387000D01*
X-30197487Y-1387000D01*
X-30045441Y-1356756D01*
X-29902216Y-1297430D01*
X-29773317Y-1211303D01*
X-29663697Y-1101683D01*
X-29640000Y-1066218D01*
X-29616303Y-1101683D01*
X-29506683Y-1211303D01*
X-29377784Y-1297430D01*
X-29234559Y-1356756D01*
X-29082513Y-1387000D01*
X-28927487Y-1387000D01*
X-28775441Y-1356756D01*
X-28632216Y-1297430D01*
X-28503317Y-1211303D01*
X-28393697Y-1101683D01*
X-28370000Y-1066218D01*
X-28346303Y-1101683D01*
X-28236683Y-1211303D01*
X-28107784Y-1297430D01*
X-27964559Y-1356756D01*
X-27812513Y-1387000D01*
X-27657487Y-1387000D01*
X-27505441Y-1356756D01*
X-27362216Y-1297430D01*
X-27233317Y-1211303D01*
X-27123697Y-1101683D01*
X-27100000Y-1066218D01*
X-27076303Y-1101683D01*
X-26966683Y-1211303D01*
X-26837784Y-1297430D01*
X-26694559Y-1356756D01*
X-26542513Y-1387000D01*
X-26387487Y-1387000D01*
X-26235441Y-1356756D01*
X-26092216Y-1297430D01*
X-25963317Y-1211303D01*
X-25853697Y-1101683D01*
X-25767570Y-972784D01*
X-25708244Y-829559D01*
X-25678000Y-677513D01*
X-25678000Y-522487D01*
X-25708244Y-370441D01*
X-25743543Y-285221D01*
X-25600441Y-256756D01*
X-25457216Y-197430D01*
X-25328317Y-111303D01*
X-25218697Y-1683D01*
X-25132570Y127216D01*
X-25073244Y270441D01*
X-25043000Y422487D01*
X-25043000Y577513D01*
X-25073244Y729559D01*
X-25132570Y872784D01*
X-25218697Y1001683D01*
X-25328317Y1111303D01*
X-25457216Y1197430D01*
X-25479383Y1206612D01*
X-25000495Y1685500D01*
X-8903406Y1685500D01*
X-7752654Y534747D01*
G37*
%TD.AperFunction*%
%TD*%
M02*
