%TF.GenerationSoftware,KiCad,Pcbnew,(5.1.10)-1*%
%TF.CreationDate,2022-07-15T09:26:10-06:00*%
%TF.ProjectId,21to25,3231746f-3235-42e6-9b69-6361645f7063,rev?*%
%TF.SameCoordinates,Original*%
%TF.FileFunction,Legend,Bot*%
%TF.FilePolarity,Positive*%
%FSLAX46Y46*%
G04 Gerber Fmt 4.6, Leading zero omitted, Abs format (unit mm)*
G04 Created by KiCad (PCBNEW (5.1.10)-1) date 2022-07-15 09:26:10*
%MOMM*%
%LPD*%
G01*
G04 APERTURE LIST*
%ADD10C,0.150000*%
%ADD11C,0.075000*%
%ADD12C,0.120000*%
G04 APERTURE END LIST*
D10*
X-31528571Y2587619D02*
X-31528571Y1873333D01*
X-31480952Y1730476D01*
X-31385714Y1635238D01*
X-31242857Y1587619D01*
X-31147619Y1587619D01*
X-31957142Y2492380D02*
X-32004761Y2540000D01*
X-32100000Y2587619D01*
X-32338095Y2587619D01*
X-32433333Y2540000D01*
X-32480952Y2492380D01*
X-32528571Y2397142D01*
X-32528571Y2301904D01*
X-32480952Y2159047D01*
X-31909523Y1587619D01*
X-32528571Y1587619D01*
X-34528571Y1587619D02*
X-34480952Y1587619D01*
X-34385714Y1635238D01*
X-34242857Y1778095D01*
X-34004761Y2063809D01*
X-33909523Y2206666D01*
X-33861904Y2349523D01*
X-33861904Y2444761D01*
X-33909523Y2540000D01*
X-34004761Y2587619D01*
X-34052380Y2587619D01*
X-34147619Y2540000D01*
X-34195238Y2444761D01*
X-34195238Y2397142D01*
X-34147619Y2301904D01*
X-34100000Y2254285D01*
X-33814285Y2063809D01*
X-33766666Y2016190D01*
X-33719047Y1920952D01*
X-33719047Y1778095D01*
X-33766666Y1682857D01*
X-33814285Y1635238D01*
X-33909523Y1587619D01*
X-34052380Y1587619D01*
X-34147619Y1635238D01*
X-34195238Y1682857D01*
X-34338095Y1873333D01*
X-34385714Y2016190D01*
X-34385714Y2111428D01*
X-36004761Y2587619D02*
X-36004761Y1873333D01*
X-35957142Y1730476D01*
X-35861904Y1635238D01*
X-35719047Y1587619D01*
X-35623809Y1587619D01*
X-36385714Y2587619D02*
X-37004761Y2587619D01*
X-36671428Y2206666D01*
X-36814285Y2206666D01*
X-36909523Y2159047D01*
X-36957142Y2111428D01*
X-37004761Y2016190D01*
X-37004761Y1778095D01*
X-36957142Y1682857D01*
X-36909523Y1635238D01*
X-36814285Y1587619D01*
X-36528571Y1587619D01*
X-36433333Y1635238D01*
X-36385714Y1682857D01*
D11*
X-17169285Y2735714D02*
X-17169285Y2564285D01*
X-16869285Y2649999D02*
X-17169285Y2649999D01*
X-16869285Y2464285D02*
X-17069285Y2464285D01*
X-17012142Y2464285D02*
X-17040714Y2450000D01*
X-17055000Y2435714D01*
X-17069285Y2407142D01*
X-17069285Y2378571D01*
X-16869285Y2278571D02*
X-17069285Y2278571D01*
X-17169285Y2278571D02*
X-17155000Y2292857D01*
X-17140714Y2278571D01*
X-17155000Y2264285D01*
X-17169285Y2278571D01*
X-17140714Y2278571D01*
X-16869285Y2135714D02*
X-17169285Y2135714D01*
X-16955000Y2035714D01*
X-17169285Y1935714D01*
X-16869285Y1935714D01*
X-16869285Y1792857D02*
X-17069285Y1792857D01*
X-17169285Y1792857D02*
X-17155000Y1807142D01*
X-17140714Y1792857D01*
X-17155000Y1778571D01*
X-17169285Y1792857D01*
X-17140714Y1792857D01*
X-16883571Y1521428D02*
X-16869285Y1550000D01*
X-16869285Y1607142D01*
X-16883571Y1635714D01*
X-16897857Y1650000D01*
X-16926428Y1664285D01*
X-17012142Y1664285D01*
X-17040714Y1650000D01*
X-17055000Y1635714D01*
X-17069285Y1607142D01*
X-17069285Y1550000D01*
X-17055000Y1521428D01*
X-16869285Y1392857D02*
X-17069285Y1392857D01*
X-17012142Y1392857D02*
X-17040714Y1378571D01*
X-17055000Y1364285D01*
X-17069285Y1335714D01*
X-17069285Y1307142D01*
X-16869285Y1164285D02*
X-16883571Y1192857D01*
X-16897857Y1207142D01*
X-16926428Y1221428D01*
X-17012142Y1221428D01*
X-17040714Y1207142D01*
X-17055000Y1192857D01*
X-17069285Y1164285D01*
X-17069285Y1121428D01*
X-17055000Y1092857D01*
X-17040714Y1078571D01*
X-17012142Y1064285D01*
X-16926428Y1064285D01*
X-16897857Y1078571D01*
X-16883571Y1092857D01*
X-16869285Y1121428D01*
X-16869285Y1164285D01*
X-16869285Y935714D02*
X-17169285Y935714D01*
X-17169285Y864285D01*
X-17155000Y821428D01*
X-17126428Y792857D01*
X-17097857Y778571D01*
X-17040714Y764285D01*
X-16997857Y764285D01*
X-16940714Y778571D01*
X-16912142Y792857D01*
X-16883571Y821428D01*
X-16869285Y864285D01*
X-16869285Y935714D01*
X-16897857Y464285D02*
X-16883571Y478571D01*
X-16869285Y521428D01*
X-16869285Y550000D01*
X-16883571Y592857D01*
X-16912142Y621428D01*
X-16940714Y635714D01*
X-16997857Y650000D01*
X-17040714Y650000D01*
X-17097857Y635714D01*
X-17126428Y621428D01*
X-17155000Y592857D01*
X-17169285Y550000D01*
X-17169285Y521428D01*
X-17155000Y478571D01*
X-17140714Y464285D01*
X-16869285Y292857D02*
X-16883571Y321428D01*
X-16897857Y335714D01*
X-16926428Y350000D01*
X-17012142Y350000D01*
X-17040714Y335714D01*
X-17055000Y321428D01*
X-17069285Y292857D01*
X-17069285Y250000D01*
X-17055000Y221428D01*
X-17040714Y207142D01*
X-17012142Y192857D01*
X-16926428Y192857D01*
X-16897857Y207142D01*
X-16883571Y221428D01*
X-16869285Y250000D01*
X-16869285Y292857D01*
X-17069285Y64285D02*
X-16869285Y64285D01*
X-17040714Y64285D02*
X-17055000Y50000D01*
X-17069285Y21428D01*
X-17069285Y-21428D01*
X-17055000Y-50000D01*
X-17026428Y-64285D01*
X-16869285Y-64285D01*
X-17069285Y-178571D02*
X-16869285Y-250000D01*
X-17069285Y-321428D01*
X-16883571Y-550000D02*
X-16869285Y-521428D01*
X-16869285Y-464285D01*
X-16883571Y-435714D01*
X-16912142Y-421428D01*
X-17026428Y-421428D01*
X-17055000Y-435714D01*
X-17069285Y-464285D01*
X-17069285Y-521428D01*
X-17055000Y-550000D01*
X-17026428Y-564285D01*
X-16997857Y-564285D01*
X-16969285Y-421428D01*
X-16869285Y-692857D02*
X-17069285Y-692857D01*
X-17012142Y-692857D02*
X-17040714Y-707142D01*
X-17055000Y-721428D01*
X-17069285Y-750000D01*
X-17069285Y-778571D01*
X-17069285Y-835714D02*
X-17069285Y-950000D01*
X-17169285Y-878571D02*
X-16912142Y-878571D01*
X-16883571Y-892857D01*
X-16869285Y-921428D01*
X-16869285Y-950000D01*
X-16840714Y-978571D02*
X-16840714Y-1207142D01*
X-17140714Y-1264285D02*
X-17155000Y-1278571D01*
X-17169285Y-1307142D01*
X-17169285Y-1378571D01*
X-17155000Y-1407142D01*
X-17140714Y-1421428D01*
X-17112142Y-1435714D01*
X-17083571Y-1435714D01*
X-17040714Y-1421428D01*
X-16869285Y-1250000D01*
X-16869285Y-1435714D01*
X-16869285Y-1721428D02*
X-16869285Y-1550000D01*
X-16869285Y-1635714D02*
X-17169285Y-1635714D01*
X-17126428Y-1607142D01*
X-17097857Y-1578571D01*
X-17083571Y-1550000D01*
X-16869285Y-1850000D02*
X-17169285Y-1850000D01*
X-17169285Y-1964285D01*
X-17155000Y-1992857D01*
X-17140714Y-2007142D01*
X-17112142Y-2021428D01*
X-17069285Y-2021428D01*
X-17040714Y-2007142D01*
X-17026428Y-1992857D01*
X-17012142Y-1964285D01*
X-17012142Y-1850000D01*
X-16869285Y-2150000D02*
X-17069285Y-2150000D01*
X-17169285Y-2150000D02*
X-17155000Y-2135714D01*
X-17140714Y-2150000D01*
X-17155000Y-2164285D01*
X-17169285Y-2150000D01*
X-17140714Y-2150000D01*
X-17069285Y-2292857D02*
X-16869285Y-2292857D01*
X-17040714Y-2292857D02*
X-17055000Y-2307142D01*
X-17069285Y-2335714D01*
X-17069285Y-2378571D01*
X-17055000Y-2407142D01*
X-17026428Y-2421428D01*
X-16869285Y-2421428D01*
X-16840714Y-2492857D02*
X-16840714Y-2721428D01*
X-17169285Y-2750000D02*
X-16869285Y-2850000D01*
X-17169285Y-2950000D01*
X-17140714Y-3035714D02*
X-17155000Y-3050000D01*
X-17169285Y-3078571D01*
X-17169285Y-3150000D01*
X-17155000Y-3178571D01*
X-17140714Y-3192857D01*
X-17112142Y-3207142D01*
X-17083571Y-3207142D01*
X-17040714Y-3192857D01*
X-16869285Y-3021428D01*
X-16869285Y-3207142D01*
X-16644285Y721428D02*
X-16430000Y721428D01*
X-16387142Y735714D01*
X-16358571Y764285D01*
X-16344285Y807142D01*
X-16344285Y835714D01*
X-16544285Y450000D02*
X-16344285Y450000D01*
X-16544285Y578571D02*
X-16387142Y578571D01*
X-16358571Y564285D01*
X-16344285Y535714D01*
X-16344285Y492857D01*
X-16358571Y464285D01*
X-16372857Y450000D01*
X-16344285Y264285D02*
X-16358571Y292857D01*
X-16387142Y307142D01*
X-16644285Y307142D01*
X-16544285Y178571D02*
X-16344285Y107142D01*
X-16544285Y35714D02*
X-16344285Y107142D01*
X-16272857Y135714D01*
X-16258571Y150000D01*
X-16244285Y178571D01*
X-16615714Y-292857D02*
X-16630000Y-307142D01*
X-16644285Y-335714D01*
X-16644285Y-407142D01*
X-16630000Y-435714D01*
X-16615714Y-450000D01*
X-16587142Y-464285D01*
X-16558571Y-464285D01*
X-16515714Y-450000D01*
X-16344285Y-278571D01*
X-16344285Y-464285D01*
X-16644285Y-650000D02*
X-16644285Y-678571D01*
X-16630000Y-707142D01*
X-16615714Y-721428D01*
X-16587142Y-735714D01*
X-16530000Y-750000D01*
X-16458571Y-750000D01*
X-16401428Y-735714D01*
X-16372857Y-721428D01*
X-16358571Y-707142D01*
X-16344285Y-678571D01*
X-16344285Y-650000D01*
X-16358571Y-621428D01*
X-16372857Y-607142D01*
X-16401428Y-592857D01*
X-16458571Y-578571D01*
X-16530000Y-578571D01*
X-16587142Y-592857D01*
X-16615714Y-607142D01*
X-16630000Y-621428D01*
X-16644285Y-650000D01*
X-16615714Y-864285D02*
X-16630000Y-878571D01*
X-16644285Y-907142D01*
X-16644285Y-978571D01*
X-16630000Y-1007142D01*
X-16615714Y-1021428D01*
X-16587142Y-1035714D01*
X-16558571Y-1035714D01*
X-16515714Y-1021428D01*
X-16344285Y-850000D01*
X-16344285Y-1035714D01*
X-16615714Y-1150000D02*
X-16630000Y-1164285D01*
X-16644285Y-1192857D01*
X-16644285Y-1264285D01*
X-16630000Y-1292857D01*
X-16615714Y-1307142D01*
X-16587142Y-1321428D01*
X-16558571Y-1321428D01*
X-16515714Y-1307142D01*
X-16344285Y-1135714D01*
X-16344285Y-1321428D01*
X-15819285Y1521428D02*
X-15962142Y1621428D01*
X-15819285Y1692857D02*
X-16119285Y1692857D01*
X-16119285Y1578571D01*
X-16105000Y1549999D01*
X-16090714Y1535714D01*
X-16062142Y1521428D01*
X-16019285Y1521428D01*
X-15990714Y1535714D01*
X-15976428Y1549999D01*
X-15962142Y1578571D01*
X-15962142Y1692857D01*
X-16019285Y1421428D02*
X-15819285Y1349999D01*
X-16019285Y1278571D02*
X-15819285Y1349999D01*
X-15747857Y1378571D01*
X-15733571Y1392857D01*
X-15719285Y1421428D01*
X-15819285Y1035714D02*
X-15976428Y1035714D01*
X-16005000Y1049999D01*
X-16019285Y1078571D01*
X-16019285Y1135714D01*
X-16005000Y1164285D01*
X-15833571Y1035714D02*
X-15819285Y1064285D01*
X-15819285Y1135714D01*
X-15833571Y1164285D01*
X-15862142Y1178571D01*
X-15890714Y1178571D01*
X-15919285Y1164285D01*
X-15933571Y1135714D01*
X-15933571Y1064285D01*
X-15947857Y1035714D01*
X-16019285Y892857D02*
X-15819285Y892857D01*
X-15990714Y892857D02*
X-16005000Y878571D01*
X-16019285Y849999D01*
X-16019285Y807142D01*
X-16005000Y778571D01*
X-15976428Y764285D01*
X-15819285Y764285D01*
X-15819285Y392857D02*
X-16119285Y392857D01*
X-15905000Y292857D01*
X-16119285Y192857D01*
X-15819285Y192857D01*
X-15819285Y7142D02*
X-15833571Y35714D01*
X-15847857Y49999D01*
X-15876428Y64285D01*
X-15962142Y64285D01*
X-15990714Y49999D01*
X-16005000Y35714D01*
X-16019285Y7142D01*
X-16019285Y-35714D01*
X-16005000Y-64285D01*
X-15990714Y-78571D01*
X-15962142Y-92857D01*
X-15876428Y-92857D01*
X-15847857Y-78571D01*
X-15833571Y-64285D01*
X-15819285Y-35714D01*
X-15819285Y7142D01*
X-15819285Y-221428D02*
X-16019285Y-221428D01*
X-15962142Y-221428D02*
X-15990714Y-235714D01*
X-16005000Y-250000D01*
X-16019285Y-278571D01*
X-16019285Y-307142D01*
X-16019285Y-535714D02*
X-15776428Y-535714D01*
X-15747857Y-521428D01*
X-15733571Y-507142D01*
X-15719285Y-478571D01*
X-15719285Y-435714D01*
X-15733571Y-407142D01*
X-15833571Y-535714D02*
X-15819285Y-507142D01*
X-15819285Y-450000D01*
X-15833571Y-421428D01*
X-15847857Y-407142D01*
X-15876428Y-392857D01*
X-15962142Y-392857D01*
X-15990714Y-407142D01*
X-16005000Y-421428D01*
X-16019285Y-450000D01*
X-16019285Y-507142D01*
X-16005000Y-535714D01*
X-15833571Y-792857D02*
X-15819285Y-764285D01*
X-15819285Y-707142D01*
X-15833571Y-678571D01*
X-15862142Y-664285D01*
X-15976428Y-664285D01*
X-16005000Y-678571D01*
X-16019285Y-707142D01*
X-16019285Y-764285D01*
X-16005000Y-792857D01*
X-15976428Y-807142D01*
X-15947857Y-807142D01*
X-15919285Y-664285D01*
X-16019285Y-935714D02*
X-15819285Y-935714D01*
X-15990714Y-935714D02*
X-16005000Y-950000D01*
X-16019285Y-978571D01*
X-16019285Y-1021428D01*
X-16005000Y-1050000D01*
X-15976428Y-1064285D01*
X-15819285Y-1064285D01*
X-15833571Y-1192857D02*
X-15819285Y-1221428D01*
X-15819285Y-1278571D01*
X-15833571Y-1307142D01*
X-15862142Y-1321428D01*
X-15876428Y-1321428D01*
X-15905000Y-1307142D01*
X-15919285Y-1278571D01*
X-15919285Y-1235714D01*
X-15933571Y-1207142D01*
X-15962142Y-1192857D01*
X-15976428Y-1192857D01*
X-16005000Y-1207142D01*
X-16019285Y-1235714D01*
X-16019285Y-1278571D01*
X-16005000Y-1307142D01*
X-16019285Y-1407142D02*
X-16019285Y-1521428D01*
X-16119285Y-1450000D02*
X-15862142Y-1450000D01*
X-15833571Y-1464285D01*
X-15819285Y-1492857D01*
X-15819285Y-1521428D01*
X-15833571Y-1735714D02*
X-15819285Y-1707142D01*
X-15819285Y-1650000D01*
X-15833571Y-1621428D01*
X-15862142Y-1607142D01*
X-15976428Y-1607142D01*
X-16005000Y-1621428D01*
X-16019285Y-1650000D01*
X-16019285Y-1707142D01*
X-16005000Y-1735714D01*
X-15976428Y-1750000D01*
X-15947857Y-1750000D01*
X-15919285Y-1607142D01*
X-15819285Y-1878571D02*
X-16019285Y-1878571D01*
X-15962142Y-1878571D02*
X-15990714Y-1892857D01*
X-16005000Y-1907142D01*
X-16019285Y-1935714D01*
X-16019285Y-1964285D01*
X-16019285Y-2064285D02*
X-15819285Y-2064285D01*
X-15990714Y-2064285D02*
X-16005000Y-2078571D01*
X-16019285Y-2107142D01*
X-16019285Y-2150000D01*
X-16005000Y-2178571D01*
X-15976428Y-2192857D01*
X-15819285Y-2192857D01*
D10*
%TO.C,J2*%
X-42530000Y1460000D02*
X-25370000Y1460000D01*
X-42530000Y-1560000D02*
X-42530000Y1460000D01*
X-24370000Y-1560000D02*
X-42530000Y-1560000D01*
X-24370000Y460000D02*
X-24370000Y-1560000D01*
X-25370000Y1460000D02*
X-24370000Y460000D01*
D12*
%TO.C,J3*%
X-13655000Y-3980000D02*
X-13655000Y3640000D01*
X13655000Y-3980000D02*
X13655000Y3640000D01*
X-13655000Y3640000D02*
X13655000Y3640000D01*
X13655000Y-3980000D02*
X-13655000Y-3980000D01*
D10*
X-6016666Y9377619D02*
X-6016666Y8663333D01*
X-5969047Y8520476D01*
X-5873809Y8425238D01*
X-5730952Y8377619D01*
X-5635714Y8377619D01*
X-6397619Y9377619D02*
X-7016666Y9377619D01*
X-6683333Y8996666D01*
X-6826190Y8996666D01*
X-6921428Y8949047D01*
X-6969047Y8901428D01*
X-7016666Y8806190D01*
X-7016666Y8568095D01*
X-6969047Y8472857D01*
X-6921428Y8425238D01*
X-6826190Y8377619D01*
X-6540476Y8377619D01*
X-6445238Y8425238D01*
X-6397619Y8472857D01*
%TD*%
M02*
