%TF.GenerationSoftware,KiCad,Pcbnew,(5.1.9)-1*%
%TF.CreationDate,2021-08-10T00:38:49-06:00*%
%TF.ProjectId,21to25,3231746f-3235-42e6-9b69-6361645f7063,rev?*%
%TF.SameCoordinates,Original*%
%TF.FileFunction,Legend,Bot*%
%TF.FilePolarity,Positive*%
%FSLAX46Y46*%
G04 Gerber Fmt 4.6, Leading zero omitted, Abs format (unit mm)*
G04 Created by KiCad (PCBNEW (5.1.9)-1) date 2021-08-10 00:38:49*
%MOMM*%
%LPD*%
G01*
G04 APERTURE LIST*
%ADD10C,0.150000*%
%ADD11C,0.120000*%
G04 APERTURE END LIST*
D10*
%TO.C,J2*%
X-42530000Y1460000D02*
X-25370000Y1460000D01*
X-42530000Y-1560000D02*
X-42530000Y1460000D01*
X-24370000Y-1560000D02*
X-42530000Y-1560000D01*
X-24370000Y460000D02*
X-24370000Y-1560000D01*
X-25370000Y1460000D02*
X-24370000Y460000D01*
D11*
%TO.C,M211*%
X13655000Y-3980000D02*
X-13655000Y-3980000D01*
X-13655000Y3640000D02*
X13655000Y3640000D01*
X13655000Y-3980000D02*
X13655000Y3640000D01*
X-13655000Y-3980000D02*
X-13655000Y3640000D01*
%TO.C,J1*%
X-55560000Y-710000D02*
X-55560000Y-394493D01*
X-55560000Y1394493D02*
X-55560000Y1710000D01*
X-55560000Y394493D02*
X-55560000Y605507D01*
X-54685000Y-710000D02*
X-55560000Y-710000D01*
X-53440000Y1710000D02*
X-55560000Y1710000D01*
X-54685000Y-710000D02*
X-54685000Y-608276D01*
X-53440000Y1394493D02*
X-53440000Y1710000D01*
X-54000000Y-710000D02*
X-53315000Y-710000D01*
X-53315000Y-710000D02*
X-53315000Y0D01*
%TO.C,M211*%
D10*
X-4588095Y8377619D02*
X-4588095Y9377619D01*
X-4921428Y8663333D01*
X-5254761Y9377619D01*
X-5254761Y8377619D01*
X-5683333Y9282380D02*
X-5730952Y9330000D01*
X-5826190Y9377619D01*
X-6064285Y9377619D01*
X-6159523Y9330000D01*
X-6207142Y9282380D01*
X-6254761Y9187142D01*
X-6254761Y9091904D01*
X-6207142Y8949047D01*
X-5635714Y8377619D01*
X-6254761Y8377619D01*
X-7207142Y8377619D02*
X-6635714Y8377619D01*
X-6921428Y8377619D02*
X-6921428Y9377619D01*
X-6826190Y9234761D01*
X-6730952Y9139523D01*
X-6635714Y9091904D01*
X-8159523Y8377619D02*
X-7588095Y8377619D01*
X-7873809Y8377619D02*
X-7873809Y9377619D01*
X-7778571Y9234761D01*
X-7683333Y9139523D01*
X-7588095Y9091904D01*
%TO.C,J1*%
X-50697619Y483333D02*
X-49983333Y483333D01*
X-49840476Y530952D01*
X-49745238Y626190D01*
X-49697619Y769047D01*
X-49697619Y864285D01*
X-49697619Y-516666D02*
X-49697619Y54761D01*
X-49697619Y-230952D02*
X-50697619Y-230952D01*
X-50554761Y-135714D01*
X-50459523Y-40476D01*
X-50411904Y54761D01*
%TD*%
M02*
