%TF.GenerationSoftware,KiCad,Pcbnew,(5.1.10)-1*%
%TF.CreationDate,2022-07-12T19:08:49-06:00*%
%TF.ProjectId,21to25,3231746f-3235-42e6-9b69-6361645f7063,rev?*%
%TF.SameCoordinates,Original*%
%TF.FileFunction,Copper,L2,Bot*%
%TF.FilePolarity,Positive*%
%FSLAX46Y46*%
G04 Gerber Fmt 4.6, Leading zero omitted, Abs format (unit mm)*
G04 Created by KiCad (PCBNEW (5.1.10)-1) date 2022-07-12 19:08:49*
%MOMM*%
%LPD*%
G01*
G04 APERTURE LIST*
%TA.AperFunction,ComponentPad*%
%ADD10O,0.920000X0.920000*%
%TD*%
%TA.AperFunction,ComponentPad*%
%ADD11C,3.671240*%
%TD*%
%TA.AperFunction,ComponentPad*%
%ADD12O,1.000000X1.000000*%
%TD*%
%TA.AperFunction,ComponentPad*%
%ADD13R,1.000000X1.000000*%
%TD*%
%TA.AperFunction,Conductor*%
%ADD14C,0.090000*%
%TD*%
%TA.AperFunction,NonConductor*%
%ADD15C,0.254000*%
%TD*%
%TA.AperFunction,NonConductor*%
%ADD16C,0.100000*%
%TD*%
G04 APERTURE END LIST*
D10*
%TO.P,J2 & J3,13*%
%TO.N,Net-(J2-Pad13)*%
X-41070000Y500000D03*
%TO.P,J2 & J3,25*%
%TO.N,Net-(J1-Pad4)*%
X-40435000Y-600000D03*
%TO.P,J2 & J3,12*%
%TO.N,Net-(J1-Pad3)*%
X-39800000Y500000D03*
%TO.P,J2 & J3,24*%
%TO.N,Net-(J1-Pad2)*%
X-39165000Y-600000D03*
%TO.P,J2 & J3,11*%
%TO.N,Net-(J1-Pad1)*%
X-38530000Y500000D03*
%TO.P,J2 & J3,23*%
%TO.N,Net-(J2-Pad23)*%
X-37895000Y-600000D03*
%TO.P,J2 & J3,10*%
%TO.N,Net-(J2-Pad10)*%
X-37260000Y500000D03*
%TO.P,J2 & J3,22*%
%TO.N,Net-(J2-Pad22)*%
X-36625000Y-600000D03*
%TO.P,J2 & J3,9*%
%TO.N,Net-(J2-Pad9)*%
X-35990000Y500000D03*
%TO.P,J2 & J3,21*%
%TO.N,Net-(J2-Pad21)*%
X-35355000Y-600000D03*
%TO.P,J2 & J3,8*%
%TO.N,Net-(J2-Pad8)*%
X-34720000Y500000D03*
%TO.P,J2 & J3,20*%
%TO.N,Net-(J2-Pad20)*%
X-34085000Y-600000D03*
%TO.P,J2 & J3,7*%
%TO.N,Net-(J2-Pad7)*%
X-33450000Y500000D03*
%TO.P,J2 & J3,19*%
%TO.N,Net-(J2-Pad19)*%
X-32815000Y-600000D03*
%TO.P,J2 & J3,6*%
%TO.N,Net-(J2-Pad6)*%
X-32180000Y500000D03*
%TO.P,J2 & J3,18*%
%TO.N,Net-(J2-Pad18)*%
X-31545000Y-600000D03*
%TO.P,J2 & J3,5*%
%TO.N,Net-(J2-Pad5)*%
X-30910000Y500000D03*
%TO.P,J2 & J3,17*%
%TO.N,Net-(J2-Pad17)*%
X-30275000Y-600000D03*
%TO.P,J2 & J3,4*%
%TO.N,Net-(J2-Pad4)*%
X-29640000Y500000D03*
%TO.P,J2 & J3,16*%
%TO.N,Net-(J2-Pad16)*%
X-29005000Y-600000D03*
%TO.P,J2 & J3,3*%
%TO.N,Net-(J2-Pad3)*%
X-28370000Y500000D03*
%TO.P,J2 & J3,15*%
%TO.N,Net-(J2-Pad15)*%
X-27735000Y-600000D03*
%TO.P,J2 & J3,2*%
%TO.N,Net-(J2-Pad2)*%
X-27100000Y500000D03*
%TO.P,J2 & J3,14*%
%TO.N,Net-(J2-Pad14)*%
X-26465000Y-600000D03*
%TO.P,J2 & J3,1*%
%TO.N,Net-(J2-Pad1)*%
X-25830000Y500000D03*
D11*
%TO.P,J2 & J3,28*%
%TO.N,N/C*%
X-45725000Y-50000D03*
X-21175000Y-50000D03*
%TD*%
D10*
%TO.P,M211,21*%
%TO.N,Net-(J2-Pad23)*%
X5720000Y800000D03*
%TO.P,M211,20*%
%TO.N,Net-(J2-Pad22)*%
X4450000Y800000D03*
%TO.P,M211,19*%
%TO.N,Net-(J2-Pad21)*%
X3180000Y800000D03*
%TO.P,M211,18*%
%TO.N,Net-(J2-Pad20)*%
X1910000Y800000D03*
%TO.P,M211,17*%
%TO.N,Net-(J2-Pad19)*%
X640000Y800000D03*
%TO.P,M211,16*%
%TO.N,Net-(J2-Pad18)*%
X-630000Y800000D03*
%TO.P,M211,15*%
%TO.N,Net-(J2-Pad17)*%
X-1900000Y800000D03*
%TO.P,M211,14*%
%TO.N,Net-(J2-Pad16)*%
X-3170000Y800000D03*
%TO.P,M211,13*%
%TO.N,Net-(J2-Pad15)*%
X-4440000Y800000D03*
%TO.P,M211,11*%
%TO.N,Net-(J2-Pad10)*%
X6350000Y-300000D03*
%TO.P,M211,10*%
%TO.N,Net-(J2-Pad9)*%
X5080000Y-300000D03*
%TO.P,M211,9*%
%TO.N,Net-(J2-Pad8)*%
X3810000Y-300000D03*
%TO.P,M211,8*%
%TO.N,Net-(J2-Pad7)*%
X2540000Y-300000D03*
%TO.P,M211,7*%
%TO.N,Net-(J2-Pad6)*%
X1270000Y-300000D03*
%TO.P,M211,6*%
%TO.N,Net-(J2-Pad5)*%
X0Y-300000D03*
%TO.P,M211,5*%
%TO.N,Net-(J2-Pad4)*%
X-1270000Y-300000D03*
%TO.P,M211,4*%
%TO.N,Net-(J2-Pad3)*%
X-2540000Y-300000D03*
%TO.P,M211,3*%
%TO.N,Net-(M211-Pad3)*%
X-3810000Y-300000D03*
%TO.P,M211,2*%
%TO.N,Net-(J2-Pad2)*%
X-5080000Y-300000D03*
%TO.P,M211,12*%
%TO.N,Net-(J2-Pad14)*%
X-5710000Y800000D03*
%TO.P,M211,1*%
%TO.N,Net-(J2-Pad1)*%
X-6350000Y-300000D03*
D11*
%TO.P,M211,22*%
%TO.N,N/C*%
X-10986000Y-170000D03*
X10986000Y-170000D03*
%TD*%
D12*
%TO.P,J1,4*%
%TO.N,Net-(J1-Pad4)*%
X-53800000Y1200000D03*
%TO.P,J1,3*%
%TO.N,Net-(J1-Pad3)*%
X-53800000Y0D03*
%TO.P,J1,2*%
%TO.N,Net-(J1-Pad2)*%
X-55000000Y1200000D03*
D13*
%TO.P,J1,1*%
%TO.N,Net-(J1-Pad1)*%
X-55000000Y0D03*
%TD*%
D14*
%TO.N,Net-(J1-Pad4)*%
X-40435000Y745602D02*
X-40435000Y-600000D01*
X-41179399Y1490001D02*
X-40435000Y745602D01*
X-54000000Y1000000D02*
X-53509999Y1490001D01*
X-41179399Y1490001D02*
X-41190001Y1490001D01*
X-41190001Y1490001D02*
X-41850000Y2150000D01*
X-52850000Y2150000D02*
X-54000000Y1000000D01*
X-41850000Y2150000D02*
X-52850000Y2150000D01*
%TO.N,Net-(J1-Pad2)*%
X-39165000Y745602D02*
X-39165000Y-600000D01*
X-55000000Y1000000D02*
X-54329990Y1670010D01*
X-40749407Y2330009D02*
X-40034699Y1615301D01*
X-55000000Y1000000D02*
X-53669991Y2330009D01*
X-40034699Y1615301D02*
X-39165000Y745602D01*
X-53669991Y2330009D02*
X-40749407Y2330009D01*
X-40089408Y1670010D02*
X-40034699Y1615301D01*
%TO.N,Net-(J2-Pad23)*%
X-34899920Y-3210080D02*
X-37510000Y-600000D01*
X-37510000Y-600000D02*
X-37895000Y-600000D01*
X3439920Y-3210080D02*
X-34899920Y-3210080D01*
X5720000Y-930000D02*
X3439920Y-3210080D01*
X5720000Y800000D02*
X5720000Y-930000D01*
%TO.N,Net-(J2-Pad22)*%
X1334572Y-3030000D02*
X2350000Y-3030000D01*
X4450000Y-930000D02*
X4450000Y800000D01*
X1334502Y-3030070D02*
X1334572Y-3030000D01*
X-33809930Y-3030070D02*
X1334502Y-3030070D01*
X2350000Y-3030000D02*
X4450000Y-930000D01*
X-36240000Y-600000D02*
X-33809930Y-3030070D01*
X-36625000Y-600000D02*
X-36240000Y-600000D01*
%TO.N,Net-(J2-Pad21)*%
X3180000Y-940000D02*
X3180000Y800000D01*
X3170000Y-940000D02*
X3180000Y-940000D01*
X1259940Y-2850060D02*
X3170000Y-940000D01*
X-32719940Y-2850060D02*
X1259940Y-2850060D01*
X-34970000Y-600000D02*
X-32719940Y-2850060D01*
X-35355000Y-600000D02*
X-34970000Y-600000D01*
%TO.N,Net-(J2-Pad20)*%
X170000Y-2670000D02*
X1910000Y-930000D01*
X-845478Y-2670050D02*
X-845428Y-2670000D01*
X-31629950Y-2670050D02*
X-845478Y-2670050D01*
X-845428Y-2670000D02*
X170000Y-2670000D01*
X-33120000Y-1180000D02*
X-31629950Y-2670050D01*
X1910000Y-930000D02*
X1910000Y800000D01*
X-33120000Y-1175602D02*
X-33120000Y-1180000D01*
X-33695602Y-600000D02*
X-33120000Y-1175602D01*
X-34085000Y-600000D02*
X-33695602Y-600000D01*
%TO.N,Net-(J2-Pad19)*%
X640000Y-930000D02*
X640000Y800000D01*
X-920040Y-2490040D02*
X640000Y-930000D01*
X-30539960Y-2490040D02*
X-920040Y-2490040D01*
X-32430000Y-600000D02*
X-30539960Y-2490040D01*
X-32815000Y-600000D02*
X-32430000Y-600000D01*
%TO.N,Net-(J2-Pad18)*%
X-630000Y-930000D02*
X-630000Y800000D01*
X-2010030Y-2310030D02*
X-630000Y-930000D01*
X-29449970Y-2310030D02*
X-2010030Y-2310030D01*
X-31160000Y-600000D02*
X-29449970Y-2310030D01*
X-31545000Y-600000D02*
X-31160000Y-600000D01*
%TO.N,Net-(J2-Pad4)*%
X-27259990Y2880010D02*
X-29640000Y500000D01*
X-1270000Y1050602D02*
X-3099408Y2880010D01*
X-3099408Y2880010D02*
X-27259990Y2880010D01*
X-1270000Y-300000D02*
X-1270000Y1050602D01*
%TO.N,Net-(J2-Pad3)*%
X-2540000Y1050602D02*
X-4189398Y2700000D01*
X-2540000Y-300000D02*
X-2540000Y1050602D01*
X-26170000Y2700000D02*
X-28370000Y500000D01*
X-4189398Y2700000D02*
X-26170000Y2700000D01*
%TD*%
D15*
X13340000Y602980D02*
X13175435Y1000277D01*
X12905056Y1404928D01*
X12560928Y1749056D01*
X12156277Y2019435D01*
X11706653Y2205675D01*
X11229335Y2300620D01*
X10742665Y2300620D01*
X10265347Y2205675D01*
X9815723Y2019435D01*
X9411072Y1749056D01*
X9066944Y1404928D01*
X8796565Y1000277D01*
X8610325Y550653D01*
X8515380Y73335D01*
X8515380Y-413335D01*
X8610325Y-890653D01*
X8796565Y-1340277D01*
X9066944Y-1744928D01*
X9411072Y-2089056D01*
X9815723Y-2359435D01*
X10265347Y-2545675D01*
X10742665Y-2640620D01*
X11229335Y-2640620D01*
X11706653Y-2545675D01*
X12156277Y-2359435D01*
X12560928Y-2089056D01*
X12905056Y-1744928D01*
X13175435Y-1340277D01*
X13340001Y-942980D01*
X13340001Y-3590000D01*
X4021664Y-3590000D01*
X6177210Y-1434455D01*
X6203159Y-1413159D01*
X6221442Y-1390881D01*
X6242152Y-1395000D01*
X6457848Y-1395000D01*
X6669400Y-1352920D01*
X6868677Y-1270376D01*
X7048022Y-1150542D01*
X7200542Y-998022D01*
X7320376Y-818677D01*
X7402920Y-619400D01*
X7445000Y-407848D01*
X7445000Y-192152D01*
X7402920Y19400D01*
X7320376Y218677D01*
X7200542Y398022D01*
X7048022Y550542D01*
X6868677Y670376D01*
X6815000Y692610D01*
X6815000Y907848D01*
X6772920Y1119400D01*
X6690376Y1318677D01*
X6570542Y1498022D01*
X6418022Y1650542D01*
X6238677Y1770376D01*
X6039400Y1852920D01*
X5827848Y1895000D01*
X5612152Y1895000D01*
X5400600Y1852920D01*
X5201323Y1770376D01*
X5085000Y1692652D01*
X4968677Y1770376D01*
X4769400Y1852920D01*
X4557848Y1895000D01*
X4342152Y1895000D01*
X4130600Y1852920D01*
X3931323Y1770376D01*
X3815000Y1692652D01*
X3698677Y1770376D01*
X3499400Y1852920D01*
X3287848Y1895000D01*
X3072152Y1895000D01*
X2860600Y1852920D01*
X2661323Y1770376D01*
X2545000Y1692652D01*
X2428677Y1770376D01*
X2229400Y1852920D01*
X2017848Y1895000D01*
X1802152Y1895000D01*
X1590600Y1852920D01*
X1391323Y1770376D01*
X1275000Y1692652D01*
X1158677Y1770376D01*
X959400Y1852920D01*
X747848Y1895000D01*
X532152Y1895000D01*
X320600Y1852920D01*
X121323Y1770376D01*
X5000Y1692652D01*
X-111323Y1770376D01*
X-310600Y1852920D01*
X-522152Y1895000D01*
X-737848Y1895000D01*
X-949400Y1852920D01*
X-1063422Y1805690D01*
X-2594949Y3337215D01*
X-2597235Y3340000D01*
X13340000Y3340000D01*
X13340000Y602980D01*
%TA.AperFunction,NonConductor*%
D16*
G36*
X13340000Y602980D02*
G01*
X13175435Y1000277D01*
X12905056Y1404928D01*
X12560928Y1749056D01*
X12156277Y2019435D01*
X11706653Y2205675D01*
X11229335Y2300620D01*
X10742665Y2300620D01*
X10265347Y2205675D01*
X9815723Y2019435D01*
X9411072Y1749056D01*
X9066944Y1404928D01*
X8796565Y1000277D01*
X8610325Y550653D01*
X8515380Y73335D01*
X8515380Y-413335D01*
X8610325Y-890653D01*
X8796565Y-1340277D01*
X9066944Y-1744928D01*
X9411072Y-2089056D01*
X9815723Y-2359435D01*
X10265347Y-2545675D01*
X10742665Y-2640620D01*
X11229335Y-2640620D01*
X11706653Y-2545675D01*
X12156277Y-2359435D01*
X12560928Y-2089056D01*
X12905056Y-1744928D01*
X13175435Y-1340277D01*
X13340001Y-942980D01*
X13340001Y-3590000D01*
X4021664Y-3590000D01*
X6177210Y-1434455D01*
X6203159Y-1413159D01*
X6221442Y-1390881D01*
X6242152Y-1395000D01*
X6457848Y-1395000D01*
X6669400Y-1352920D01*
X6868677Y-1270376D01*
X7048022Y-1150542D01*
X7200542Y-998022D01*
X7320376Y-818677D01*
X7402920Y-619400D01*
X7445000Y-407848D01*
X7445000Y-192152D01*
X7402920Y19400D01*
X7320376Y218677D01*
X7200542Y398022D01*
X7048022Y550542D01*
X6868677Y670376D01*
X6815000Y692610D01*
X6815000Y907848D01*
X6772920Y1119400D01*
X6690376Y1318677D01*
X6570542Y1498022D01*
X6418022Y1650542D01*
X6238677Y1770376D01*
X6039400Y1852920D01*
X5827848Y1895000D01*
X5612152Y1895000D01*
X5400600Y1852920D01*
X5201323Y1770376D01*
X5085000Y1692652D01*
X4968677Y1770376D01*
X4769400Y1852920D01*
X4557848Y1895000D01*
X4342152Y1895000D01*
X4130600Y1852920D01*
X3931323Y1770376D01*
X3815000Y1692652D01*
X3698677Y1770376D01*
X3499400Y1852920D01*
X3287848Y1895000D01*
X3072152Y1895000D01*
X2860600Y1852920D01*
X2661323Y1770376D01*
X2545000Y1692652D01*
X2428677Y1770376D01*
X2229400Y1852920D01*
X2017848Y1895000D01*
X1802152Y1895000D01*
X1590600Y1852920D01*
X1391323Y1770376D01*
X1275000Y1692652D01*
X1158677Y1770376D01*
X959400Y1852920D01*
X747848Y1895000D01*
X532152Y1895000D01*
X320600Y1852920D01*
X121323Y1770376D01*
X5000Y1692652D01*
X-111323Y1770376D01*
X-310600Y1852920D01*
X-522152Y1895000D01*
X-737848Y1895000D01*
X-949400Y1852920D01*
X-1063422Y1805690D01*
X-2594949Y3337215D01*
X-2597235Y3340000D01*
X13340000Y3340000D01*
X13340000Y602980D01*
G37*
%TD.AperFunction*%
D15*
X-27764445Y3337220D02*
X-29510893Y1590771D01*
X-29532152Y1595000D01*
X-29747848Y1595000D01*
X-29959400Y1552920D01*
X-30158677Y1470376D01*
X-30275000Y1392652D01*
X-30391323Y1470376D01*
X-30590600Y1552920D01*
X-30802152Y1595000D01*
X-31017848Y1595000D01*
X-31229400Y1552920D01*
X-31428677Y1470376D01*
X-31545000Y1392652D01*
X-31661323Y1470376D01*
X-31860600Y1552920D01*
X-32072152Y1595000D01*
X-32287848Y1595000D01*
X-32499400Y1552920D01*
X-32698677Y1470376D01*
X-32815000Y1392652D01*
X-32931323Y1470376D01*
X-33130600Y1552920D01*
X-33342152Y1595000D01*
X-33557848Y1595000D01*
X-33769400Y1552920D01*
X-33968677Y1470376D01*
X-34085000Y1392652D01*
X-34201323Y1470376D01*
X-34400600Y1552920D01*
X-34612152Y1595000D01*
X-34827848Y1595000D01*
X-35039400Y1552920D01*
X-35238677Y1470376D01*
X-35355000Y1392652D01*
X-35471323Y1470376D01*
X-35670600Y1552920D01*
X-35882152Y1595000D01*
X-36097848Y1595000D01*
X-36309400Y1552920D01*
X-36508677Y1470376D01*
X-36625000Y1392652D01*
X-36741323Y1470376D01*
X-36940600Y1552920D01*
X-37152152Y1595000D01*
X-37367848Y1595000D01*
X-37579400Y1552920D01*
X-37778677Y1470376D01*
X-37895000Y1392652D01*
X-38011323Y1470376D01*
X-38210600Y1552920D01*
X-38422152Y1595000D01*
X-38637848Y1595000D01*
X-38849400Y1552920D01*
X-38963423Y1505690D01*
X-39530243Y2072509D01*
X-39530247Y2072514D01*
X-40244948Y2787214D01*
X-40266248Y2813168D01*
X-40369791Y2898144D01*
X-40487923Y2961287D01*
X-40616104Y3000170D01*
X-40716003Y3010009D01*
X-40749407Y3013299D01*
X-40782811Y3010009D01*
X-53636587Y3010009D01*
X-53669991Y3013299D01*
X-53703395Y3010009D01*
X-53803294Y3000170D01*
X-53931475Y2961287D01*
X-54049607Y2898144D01*
X-54153150Y2813168D01*
X-54174446Y2787219D01*
X-54670058Y2291607D01*
X-54888212Y2335000D01*
X-55111788Y2335000D01*
X-55331067Y2291383D01*
X-55537624Y2205824D01*
X-55723520Y2081612D01*
X-55881612Y1923520D01*
X-56005824Y1737624D01*
X-56091383Y1531067D01*
X-56135000Y1311788D01*
X-56135000Y1088212D01*
X-56091383Y868933D01*
X-56061448Y796664D01*
X-56089502Y744180D01*
X-56125812Y624482D01*
X-56138072Y500000D01*
X-56138072Y-500000D01*
X-56125812Y-624482D01*
X-56089502Y-744180D01*
X-56030537Y-854494D01*
X-55951185Y-951185D01*
X-55854494Y-1030537D01*
X-55744180Y-1089502D01*
X-55624482Y-1125812D01*
X-55500000Y-1138072D01*
X-54500000Y-1138072D01*
X-54375518Y-1125812D01*
X-54255820Y-1089502D01*
X-54203336Y-1061448D01*
X-54131067Y-1091383D01*
X-53911788Y-1135000D01*
X-53688212Y-1135000D01*
X-53468933Y-1091383D01*
X-53262376Y-1005824D01*
X-53076480Y-881612D01*
X-52918388Y-723520D01*
X-52794176Y-537624D01*
X-52708617Y-331067D01*
X-52665000Y-111788D01*
X-52665000Y111788D01*
X-52708617Y331067D01*
X-52794176Y537624D01*
X-52835854Y600000D01*
X-52794176Y662376D01*
X-52708617Y868933D01*
X-52665000Y1088212D01*
X-52665000Y1311788D01*
X-52675211Y1363123D01*
X-52568334Y1470000D01*
X-47680758Y1470000D01*
X-47914435Y1120277D01*
X-48100675Y670653D01*
X-48195620Y193335D01*
X-48195620Y-293335D01*
X-48100675Y-770653D01*
X-47914435Y-1220277D01*
X-47644056Y-1624928D01*
X-47299928Y-1969056D01*
X-46895277Y-2239435D01*
X-46445653Y-2425675D01*
X-45968335Y-2520620D01*
X-45481665Y-2520620D01*
X-45004347Y-2425675D01*
X-44554723Y-2239435D01*
X-44150072Y-1969056D01*
X-43805944Y-1624928D01*
X-43535565Y-1220277D01*
X-43349325Y-770653D01*
X-43254380Y-293335D01*
X-43254380Y193335D01*
X-43349325Y670653D01*
X-43535565Y1120277D01*
X-43769242Y1470000D01*
X-42131665Y1470000D01*
X-41890115Y1228449D01*
X-41920542Y1198022D01*
X-42040376Y1018677D01*
X-42122920Y819400D01*
X-42165000Y607848D01*
X-42165000Y392152D01*
X-42122920Y180600D01*
X-42040376Y-18677D01*
X-41920542Y-198022D01*
X-41768022Y-350542D01*
X-41588677Y-470376D01*
X-41530000Y-494681D01*
X-41530000Y-707848D01*
X-41487920Y-919400D01*
X-41405376Y-1118677D01*
X-41285542Y-1298022D01*
X-41133022Y-1450542D01*
X-40953677Y-1570376D01*
X-40754400Y-1652920D01*
X-40542848Y-1695000D01*
X-40327152Y-1695000D01*
X-40115600Y-1652920D01*
X-39916323Y-1570376D01*
X-39800000Y-1492652D01*
X-39683677Y-1570376D01*
X-39484400Y-1652920D01*
X-39272848Y-1695000D01*
X-39057152Y-1695000D01*
X-38845600Y-1652920D01*
X-38646323Y-1570376D01*
X-38530000Y-1492652D01*
X-38413677Y-1570376D01*
X-38214400Y-1652920D01*
X-38002848Y-1695000D01*
X-37787152Y-1695000D01*
X-37575600Y-1652920D01*
X-37464687Y-1606978D01*
X-35481666Y-3590000D01*
X-56840000Y-3590000D01*
X-56840000Y3340000D01*
X-27762163Y3340000D01*
X-27764445Y3337220D01*
%TA.AperFunction,NonConductor*%
D16*
G36*
X-27764445Y3337220D02*
G01*
X-29510893Y1590771D01*
X-29532152Y1595000D01*
X-29747848Y1595000D01*
X-29959400Y1552920D01*
X-30158677Y1470376D01*
X-30275000Y1392652D01*
X-30391323Y1470376D01*
X-30590600Y1552920D01*
X-30802152Y1595000D01*
X-31017848Y1595000D01*
X-31229400Y1552920D01*
X-31428677Y1470376D01*
X-31545000Y1392652D01*
X-31661323Y1470376D01*
X-31860600Y1552920D01*
X-32072152Y1595000D01*
X-32287848Y1595000D01*
X-32499400Y1552920D01*
X-32698677Y1470376D01*
X-32815000Y1392652D01*
X-32931323Y1470376D01*
X-33130600Y1552920D01*
X-33342152Y1595000D01*
X-33557848Y1595000D01*
X-33769400Y1552920D01*
X-33968677Y1470376D01*
X-34085000Y1392652D01*
X-34201323Y1470376D01*
X-34400600Y1552920D01*
X-34612152Y1595000D01*
X-34827848Y1595000D01*
X-35039400Y1552920D01*
X-35238677Y1470376D01*
X-35355000Y1392652D01*
X-35471323Y1470376D01*
X-35670600Y1552920D01*
X-35882152Y1595000D01*
X-36097848Y1595000D01*
X-36309400Y1552920D01*
X-36508677Y1470376D01*
X-36625000Y1392652D01*
X-36741323Y1470376D01*
X-36940600Y1552920D01*
X-37152152Y1595000D01*
X-37367848Y1595000D01*
X-37579400Y1552920D01*
X-37778677Y1470376D01*
X-37895000Y1392652D01*
X-38011323Y1470376D01*
X-38210600Y1552920D01*
X-38422152Y1595000D01*
X-38637848Y1595000D01*
X-38849400Y1552920D01*
X-38963423Y1505690D01*
X-39530243Y2072509D01*
X-39530247Y2072514D01*
X-40244948Y2787214D01*
X-40266248Y2813168D01*
X-40369791Y2898144D01*
X-40487923Y2961287D01*
X-40616104Y3000170D01*
X-40716003Y3010009D01*
X-40749407Y3013299D01*
X-40782811Y3010009D01*
X-53636587Y3010009D01*
X-53669991Y3013299D01*
X-53703395Y3010009D01*
X-53803294Y3000170D01*
X-53931475Y2961287D01*
X-54049607Y2898144D01*
X-54153150Y2813168D01*
X-54174446Y2787219D01*
X-54670058Y2291607D01*
X-54888212Y2335000D01*
X-55111788Y2335000D01*
X-55331067Y2291383D01*
X-55537624Y2205824D01*
X-55723520Y2081612D01*
X-55881612Y1923520D01*
X-56005824Y1737624D01*
X-56091383Y1531067D01*
X-56135000Y1311788D01*
X-56135000Y1088212D01*
X-56091383Y868933D01*
X-56061448Y796664D01*
X-56089502Y744180D01*
X-56125812Y624482D01*
X-56138072Y500000D01*
X-56138072Y-500000D01*
X-56125812Y-624482D01*
X-56089502Y-744180D01*
X-56030537Y-854494D01*
X-55951185Y-951185D01*
X-55854494Y-1030537D01*
X-55744180Y-1089502D01*
X-55624482Y-1125812D01*
X-55500000Y-1138072D01*
X-54500000Y-1138072D01*
X-54375518Y-1125812D01*
X-54255820Y-1089502D01*
X-54203336Y-1061448D01*
X-54131067Y-1091383D01*
X-53911788Y-1135000D01*
X-53688212Y-1135000D01*
X-53468933Y-1091383D01*
X-53262376Y-1005824D01*
X-53076480Y-881612D01*
X-52918388Y-723520D01*
X-52794176Y-537624D01*
X-52708617Y-331067D01*
X-52665000Y-111788D01*
X-52665000Y111788D01*
X-52708617Y331067D01*
X-52794176Y537624D01*
X-52835854Y600000D01*
X-52794176Y662376D01*
X-52708617Y868933D01*
X-52665000Y1088212D01*
X-52665000Y1311788D01*
X-52675211Y1363123D01*
X-52568334Y1470000D01*
X-47680758Y1470000D01*
X-47914435Y1120277D01*
X-48100675Y670653D01*
X-48195620Y193335D01*
X-48195620Y-293335D01*
X-48100675Y-770653D01*
X-47914435Y-1220277D01*
X-47644056Y-1624928D01*
X-47299928Y-1969056D01*
X-46895277Y-2239435D01*
X-46445653Y-2425675D01*
X-45968335Y-2520620D01*
X-45481665Y-2520620D01*
X-45004347Y-2425675D01*
X-44554723Y-2239435D01*
X-44150072Y-1969056D01*
X-43805944Y-1624928D01*
X-43535565Y-1220277D01*
X-43349325Y-770653D01*
X-43254380Y-293335D01*
X-43254380Y193335D01*
X-43349325Y670653D01*
X-43535565Y1120277D01*
X-43769242Y1470000D01*
X-42131665Y1470000D01*
X-41890115Y1228449D01*
X-41920542Y1198022D01*
X-42040376Y1018677D01*
X-42122920Y819400D01*
X-42165000Y607848D01*
X-42165000Y392152D01*
X-42122920Y180600D01*
X-42040376Y-18677D01*
X-41920542Y-198022D01*
X-41768022Y-350542D01*
X-41588677Y-470376D01*
X-41530000Y-494681D01*
X-41530000Y-707848D01*
X-41487920Y-919400D01*
X-41405376Y-1118677D01*
X-41285542Y-1298022D01*
X-41133022Y-1450542D01*
X-40953677Y-1570376D01*
X-40754400Y-1652920D01*
X-40542848Y-1695000D01*
X-40327152Y-1695000D01*
X-40115600Y-1652920D01*
X-39916323Y-1570376D01*
X-39800000Y-1492652D01*
X-39683677Y-1570376D01*
X-39484400Y-1652920D01*
X-39272848Y-1695000D01*
X-39057152Y-1695000D01*
X-38845600Y-1652920D01*
X-38646323Y-1570376D01*
X-38530000Y-1492652D01*
X-38413677Y-1570376D01*
X-38214400Y-1652920D01*
X-38002848Y-1695000D01*
X-37787152Y-1695000D01*
X-37575600Y-1652920D01*
X-37464687Y-1606978D01*
X-35481666Y-3590000D01*
X-56840000Y-3590000D01*
X-56840000Y3340000D01*
X-27762163Y3340000D01*
X-27764445Y3337220D01*
G37*
%TD.AperFunction*%
D15*
X-12156277Y2019435D02*
X-12560928Y1749056D01*
X-12905056Y1404928D01*
X-13175435Y1000277D01*
X-13361675Y550653D01*
X-13456620Y73335D01*
X-13456620Y-413335D01*
X-13361675Y-890653D01*
X-13175435Y-1340277D01*
X-12981828Y-1630030D01*
X-19261046Y-1630030D01*
X-19255944Y-1624928D01*
X-18985565Y-1220277D01*
X-18799325Y-770653D01*
X-18704380Y-293335D01*
X-18704380Y193335D01*
X-18799325Y670653D01*
X-18985565Y1120277D01*
X-19255944Y1524928D01*
X-19600072Y1869056D01*
X-19825976Y2020000D01*
X-12154913Y2020000D01*
X-12156277Y2019435D01*
%TA.AperFunction,NonConductor*%
D16*
G36*
X-12156277Y2019435D02*
G01*
X-12560928Y1749056D01*
X-12905056Y1404928D01*
X-13175435Y1000277D01*
X-13361675Y550653D01*
X-13456620Y73335D01*
X-13456620Y-413335D01*
X-13361675Y-890653D01*
X-13175435Y-1340277D01*
X-12981828Y-1630030D01*
X-19261046Y-1630030D01*
X-19255944Y-1624928D01*
X-18985565Y-1220277D01*
X-18799325Y-770653D01*
X-18704380Y-293335D01*
X-18704380Y193335D01*
X-18799325Y670653D01*
X-18985565Y1120277D01*
X-19255944Y1524928D01*
X-19600072Y1869056D01*
X-19825976Y2020000D01*
X-12154913Y2020000D01*
X-12156277Y2019435D01*
G37*
%TD.AperFunction*%
D15*
X-26983677Y-1570376D02*
X-26839661Y-1630030D01*
X-27360339Y-1630030D01*
X-27216323Y-1570376D01*
X-27100000Y-1492652D01*
X-26983677Y-1570376D01*
%TA.AperFunction,NonConductor*%
D16*
G36*
X-26983677Y-1570376D02*
G01*
X-26839661Y-1630030D01*
X-27360339Y-1630030D01*
X-27216323Y-1570376D01*
X-27100000Y-1492652D01*
X-26983677Y-1570376D01*
G37*
%TD.AperFunction*%
D15*
X-28253677Y-1570376D02*
X-28109661Y-1630030D01*
X-28630339Y-1630030D01*
X-28486323Y-1570376D01*
X-28370000Y-1492652D01*
X-28253677Y-1570376D01*
%TA.AperFunction,NonConductor*%
D16*
G36*
X-28253677Y-1570376D02*
G01*
X-28109661Y-1630030D01*
X-28630339Y-1630030D01*
X-28486323Y-1570376D01*
X-28370000Y-1492652D01*
X-28253677Y-1570376D01*
G37*
%TD.AperFunction*%
D15*
X-22749928Y1869056D02*
X-23094056Y1524928D01*
X-23364435Y1120277D01*
X-23550675Y670653D01*
X-23645620Y193335D01*
X-23645620Y-293335D01*
X-23550675Y-770653D01*
X-23364435Y-1220277D01*
X-23094056Y-1624928D01*
X-23088954Y-1630030D01*
X-26090339Y-1630030D01*
X-25946323Y-1570376D01*
X-25766978Y-1450542D01*
X-25614458Y-1298022D01*
X-25494624Y-1118677D01*
X-25412080Y-919400D01*
X-25370000Y-707848D01*
X-25370000Y-494681D01*
X-25311323Y-470376D01*
X-25131978Y-350542D01*
X-24979458Y-198022D01*
X-24859624Y-18677D01*
X-24777080Y180600D01*
X-24735000Y392152D01*
X-24735000Y607848D01*
X-24777080Y819400D01*
X-24859624Y1018677D01*
X-24979458Y1198022D01*
X-25131978Y1350542D01*
X-25311323Y1470376D01*
X-25510600Y1552920D01*
X-25722152Y1595000D01*
X-25937848Y1595000D01*
X-26149400Y1552920D01*
X-26348677Y1470376D01*
X-26465000Y1392652D01*
X-26495383Y1412953D01*
X-25888335Y2020000D01*
X-22524024Y2020000D01*
X-22749928Y1869056D01*
%TA.AperFunction,NonConductor*%
D16*
G36*
X-22749928Y1869056D02*
G01*
X-23094056Y1524928D01*
X-23364435Y1120277D01*
X-23550675Y670653D01*
X-23645620Y193335D01*
X-23645620Y-293335D01*
X-23550675Y-770653D01*
X-23364435Y-1220277D01*
X-23094056Y-1624928D01*
X-23088954Y-1630030D01*
X-26090339Y-1630030D01*
X-25946323Y-1570376D01*
X-25766978Y-1450542D01*
X-25614458Y-1298022D01*
X-25494624Y-1118677D01*
X-25412080Y-919400D01*
X-25370000Y-707848D01*
X-25370000Y-494681D01*
X-25311323Y-470376D01*
X-25131978Y-350542D01*
X-24979458Y-198022D01*
X-24859624Y-18677D01*
X-24777080Y180600D01*
X-24735000Y392152D01*
X-24735000Y607848D01*
X-24777080Y819400D01*
X-24859624Y1018677D01*
X-24979458Y1198022D01*
X-25131978Y1350542D01*
X-25311323Y1470376D01*
X-25510600Y1552920D01*
X-25722152Y1595000D01*
X-25937848Y1595000D01*
X-26149400Y1552920D01*
X-26348677Y1470376D01*
X-26465000Y1392652D01*
X-26495383Y1412953D01*
X-25888335Y2020000D01*
X-22524024Y2020000D01*
X-22749928Y1869056D01*
G37*
%TD.AperFunction*%
D15*
X-4346062Y1895000D02*
X-4547848Y1895000D01*
X-4759400Y1852920D01*
X-4958677Y1770376D01*
X-5075000Y1692652D01*
X-5191323Y1770376D01*
X-5390600Y1852920D01*
X-5602152Y1895000D01*
X-5817848Y1895000D01*
X-6029400Y1852920D01*
X-6228677Y1770376D01*
X-6408022Y1650542D01*
X-6560542Y1498022D01*
X-6680376Y1318677D01*
X-6762920Y1119400D01*
X-6805000Y907848D01*
X-6805000Y696752D01*
X-6868677Y670376D01*
X-7048022Y550542D01*
X-7200542Y398022D01*
X-7320376Y218677D01*
X-7402920Y19400D01*
X-7445000Y-192152D01*
X-7445000Y-407848D01*
X-7402920Y-619400D01*
X-7320376Y-818677D01*
X-7200542Y-998022D01*
X-7048022Y-1150542D01*
X-6868677Y-1270376D01*
X-6669400Y-1352920D01*
X-6457848Y-1395000D01*
X-6242152Y-1395000D01*
X-6030600Y-1352920D01*
X-5831323Y-1270376D01*
X-5715000Y-1192652D01*
X-5598677Y-1270376D01*
X-5399400Y-1352920D01*
X-5187848Y-1395000D01*
X-4972152Y-1395000D01*
X-4760600Y-1352920D01*
X-4561323Y-1270376D01*
X-4445000Y-1192652D01*
X-4328677Y-1270376D01*
X-4129400Y-1352920D01*
X-3917848Y-1395000D01*
X-3702152Y-1395000D01*
X-3490600Y-1352920D01*
X-3291323Y-1270376D01*
X-3175000Y-1192652D01*
X-3058677Y-1270376D01*
X-2859400Y-1352920D01*
X-2647848Y-1395000D01*
X-2432152Y-1395000D01*
X-2220600Y-1352920D01*
X-2021323Y-1270376D01*
X-1905000Y-1192652D01*
X-1874617Y-1212953D01*
X-2291694Y-1630030D01*
X-8990172Y-1630030D01*
X-8796565Y-1340277D01*
X-8610325Y-890653D01*
X-8515380Y-413335D01*
X-8515380Y73335D01*
X-8610325Y550653D01*
X-8796565Y1000277D01*
X-9066944Y1404928D01*
X-9411072Y1749056D01*
X-9815723Y2019435D01*
X-9817087Y2020000D01*
X-4471062Y2020000D01*
X-4346062Y1895000D01*
%TA.AperFunction,NonConductor*%
D16*
G36*
X-4346062Y1895000D02*
G01*
X-4547848Y1895000D01*
X-4759400Y1852920D01*
X-4958677Y1770376D01*
X-5075000Y1692652D01*
X-5191323Y1770376D01*
X-5390600Y1852920D01*
X-5602152Y1895000D01*
X-5817848Y1895000D01*
X-6029400Y1852920D01*
X-6228677Y1770376D01*
X-6408022Y1650542D01*
X-6560542Y1498022D01*
X-6680376Y1318677D01*
X-6762920Y1119400D01*
X-6805000Y907848D01*
X-6805000Y696752D01*
X-6868677Y670376D01*
X-7048022Y550542D01*
X-7200542Y398022D01*
X-7320376Y218677D01*
X-7402920Y19400D01*
X-7445000Y-192152D01*
X-7445000Y-407848D01*
X-7402920Y-619400D01*
X-7320376Y-818677D01*
X-7200542Y-998022D01*
X-7048022Y-1150542D01*
X-6868677Y-1270376D01*
X-6669400Y-1352920D01*
X-6457848Y-1395000D01*
X-6242152Y-1395000D01*
X-6030600Y-1352920D01*
X-5831323Y-1270376D01*
X-5715000Y-1192652D01*
X-5598677Y-1270376D01*
X-5399400Y-1352920D01*
X-5187848Y-1395000D01*
X-4972152Y-1395000D01*
X-4760600Y-1352920D01*
X-4561323Y-1270376D01*
X-4445000Y-1192652D01*
X-4328677Y-1270376D01*
X-4129400Y-1352920D01*
X-3917848Y-1395000D01*
X-3702152Y-1395000D01*
X-3490600Y-1352920D01*
X-3291323Y-1270376D01*
X-3175000Y-1192652D01*
X-3058677Y-1270376D01*
X-2859400Y-1352920D01*
X-2647848Y-1395000D01*
X-2432152Y-1395000D01*
X-2220600Y-1352920D01*
X-2021323Y-1270376D01*
X-1905000Y-1192652D01*
X-1874617Y-1212953D01*
X-2291694Y-1630030D01*
X-8990172Y-1630030D01*
X-8796565Y-1340277D01*
X-8610325Y-890653D01*
X-8515380Y-413335D01*
X-8515380Y73335D01*
X-8610325Y550653D01*
X-8796565Y1000277D01*
X-9066944Y1404928D01*
X-9411072Y1749056D01*
X-9815723Y2019435D01*
X-9817087Y2020000D01*
X-4471062Y2020000D01*
X-4346062Y1895000D01*
G37*
%TD.AperFunction*%
M02*
