%TF.GenerationSoftware,KiCad,Pcbnew,(5.1.10)-1*%
%TF.CreationDate,2022-07-12T19:08:49-06:00*%
%TF.ProjectId,21to25,3231746f-3235-42e6-9b69-6361645f7063,rev?*%
%TF.SameCoordinates,Original*%
%TF.FileFunction,Legend,Bot*%
%TF.FilePolarity,Positive*%
%FSLAX46Y46*%
G04 Gerber Fmt 4.6, Leading zero omitted, Abs format (unit mm)*
G04 Created by KiCad (PCBNEW (5.1.10)-1) date 2022-07-12 19:08:49*
%MOMM*%
%LPD*%
G01*
G04 APERTURE LIST*
%ADD10C,0.150000*%
%ADD11C,0.100000*%
%ADD12C,0.120000*%
G04 APERTURE END LIST*
D10*
X-31528571Y2587619D02*
X-31528571Y1873333D01*
X-31480952Y1730476D01*
X-31385714Y1635238D01*
X-31242857Y1587619D01*
X-31147619Y1587619D01*
X-31957142Y2492380D02*
X-32004761Y2540000D01*
X-32100000Y2587619D01*
X-32338095Y2587619D01*
X-32433333Y2540000D01*
X-32480952Y2492380D01*
X-32528571Y2397142D01*
X-32528571Y2301904D01*
X-32480952Y2159047D01*
X-31909523Y1587619D01*
X-32528571Y1587619D01*
X-34528571Y1587619D02*
X-34480952Y1587619D01*
X-34385714Y1635238D01*
X-34242857Y1778095D01*
X-34004761Y2063809D01*
X-33909523Y2206666D01*
X-33861904Y2349523D01*
X-33861904Y2444761D01*
X-33909523Y2540000D01*
X-34004761Y2587619D01*
X-34052380Y2587619D01*
X-34147619Y2540000D01*
X-34195238Y2444761D01*
X-34195238Y2397142D01*
X-34147619Y2301904D01*
X-34100000Y2254285D01*
X-33814285Y2063809D01*
X-33766666Y2016190D01*
X-33719047Y1920952D01*
X-33719047Y1778095D01*
X-33766666Y1682857D01*
X-33814285Y1635238D01*
X-33909523Y1587619D01*
X-34052380Y1587619D01*
X-34147619Y1635238D01*
X-34195238Y1682857D01*
X-34338095Y1873333D01*
X-34385714Y2016190D01*
X-34385714Y2111428D01*
X-36004761Y2587619D02*
X-36004761Y1873333D01*
X-35957142Y1730476D01*
X-35861904Y1635238D01*
X-35719047Y1587619D01*
X-35623809Y1587619D01*
X-36385714Y2587619D02*
X-37004761Y2587619D01*
X-36671428Y2206666D01*
X-36814285Y2206666D01*
X-36909523Y2159047D01*
X-36957142Y2111428D01*
X-37004761Y2016190D01*
X-37004761Y1778095D01*
X-36957142Y1682857D01*
X-36909523Y1635238D01*
X-36814285Y1587619D01*
X-36528571Y1587619D01*
X-36433333Y1635238D01*
X-36385714Y1682857D01*
D11*
X-49029047Y-1460952D02*
X-49257619Y-1460952D01*
X-49143333Y-1860952D02*
X-49143333Y-1460952D01*
X-49390952Y-1860952D02*
X-49390952Y-1594285D01*
X-49390952Y-1670476D02*
X-49410000Y-1632380D01*
X-49429047Y-1613333D01*
X-49467142Y-1594285D01*
X-49505238Y-1594285D01*
X-49638571Y-1860952D02*
X-49638571Y-1594285D01*
X-49638571Y-1460952D02*
X-49619523Y-1480000D01*
X-49638571Y-1499047D01*
X-49657619Y-1480000D01*
X-49638571Y-1460952D01*
X-49638571Y-1499047D01*
X-49829047Y-1860952D02*
X-49829047Y-1460952D01*
X-49962380Y-1746666D01*
X-50095714Y-1460952D01*
X-50095714Y-1860952D01*
X-50286190Y-1860952D02*
X-50286190Y-1594285D01*
X-50286190Y-1460952D02*
X-50267142Y-1480000D01*
X-50286190Y-1499047D01*
X-50305238Y-1480000D01*
X-50286190Y-1460952D01*
X-50286190Y-1499047D01*
X-50648095Y-1841904D02*
X-50610000Y-1860952D01*
X-50533809Y-1860952D01*
X-50495714Y-1841904D01*
X-50476666Y-1822857D01*
X-50457619Y-1784761D01*
X-50457619Y-1670476D01*
X-50476666Y-1632380D01*
X-50495714Y-1613333D01*
X-50533809Y-1594285D01*
X-50610000Y-1594285D01*
X-50648095Y-1613333D01*
X-50819523Y-1860952D02*
X-50819523Y-1594285D01*
X-50819523Y-1670476D02*
X-50838571Y-1632380D01*
X-50857619Y-1613333D01*
X-50895714Y-1594285D01*
X-50933809Y-1594285D01*
X-51124285Y-1860952D02*
X-51086190Y-1841904D01*
X-51067142Y-1822857D01*
X-51048095Y-1784761D01*
X-51048095Y-1670476D01*
X-51067142Y-1632380D01*
X-51086190Y-1613333D01*
X-51124285Y-1594285D01*
X-51181428Y-1594285D01*
X-51219523Y-1613333D01*
X-51238571Y-1632380D01*
X-51257619Y-1670476D01*
X-51257619Y-1784761D01*
X-51238571Y-1822857D01*
X-51219523Y-1841904D01*
X-51181428Y-1860952D01*
X-51124285Y-1860952D01*
X-51429047Y-1860952D02*
X-51429047Y-1460952D01*
X-51524285Y-1460952D01*
X-51581428Y-1480000D01*
X-51619523Y-1518095D01*
X-51638571Y-1556190D01*
X-51657619Y-1632380D01*
X-51657619Y-1689523D01*
X-51638571Y-1765714D01*
X-51619523Y-1803809D01*
X-51581428Y-1841904D01*
X-51524285Y-1860952D01*
X-51429047Y-1860952D01*
X-52057619Y-1822857D02*
X-52038571Y-1841904D01*
X-51981428Y-1860952D01*
X-51943333Y-1860952D01*
X-51886190Y-1841904D01*
X-51848095Y-1803809D01*
X-51829047Y-1765714D01*
X-51810000Y-1689523D01*
X-51810000Y-1632380D01*
X-51829047Y-1556190D01*
X-51848095Y-1518095D01*
X-51886190Y-1480000D01*
X-51943333Y-1460952D01*
X-51981428Y-1460952D01*
X-52038571Y-1480000D01*
X-52057619Y-1499047D01*
X-52286190Y-1860952D02*
X-52248095Y-1841904D01*
X-52229047Y-1822857D01*
X-52210000Y-1784761D01*
X-52210000Y-1670476D01*
X-52229047Y-1632380D01*
X-52248095Y-1613333D01*
X-52286190Y-1594285D01*
X-52343333Y-1594285D01*
X-52381428Y-1613333D01*
X-52400476Y-1632380D01*
X-52419523Y-1670476D01*
X-52419523Y-1784761D01*
X-52400476Y-1822857D01*
X-52381428Y-1841904D01*
X-52343333Y-1860952D01*
X-52286190Y-1860952D01*
X-52590952Y-1594285D02*
X-52590952Y-1860952D01*
X-52590952Y-1632380D02*
X-52610000Y-1613333D01*
X-52648095Y-1594285D01*
X-52705238Y-1594285D01*
X-52743333Y-1613333D01*
X-52762380Y-1651428D01*
X-52762380Y-1860952D01*
X-52914761Y-1594285D02*
X-53010000Y-1860952D01*
X-53105238Y-1594285D01*
X-53410000Y-1841904D02*
X-53371904Y-1860952D01*
X-53295714Y-1860952D01*
X-53257619Y-1841904D01*
X-53238571Y-1803809D01*
X-53238571Y-1651428D01*
X-53257619Y-1613333D01*
X-53295714Y-1594285D01*
X-53371904Y-1594285D01*
X-53410000Y-1613333D01*
X-53429047Y-1651428D01*
X-53429047Y-1689523D01*
X-53238571Y-1727619D01*
X-53600476Y-1860952D02*
X-53600476Y-1594285D01*
X-53600476Y-1670476D02*
X-53619523Y-1632380D01*
X-53638571Y-1613333D01*
X-53676666Y-1594285D01*
X-53714761Y-1594285D01*
X-53790952Y-1594285D02*
X-53943333Y-1594285D01*
X-53848095Y-1460952D02*
X-53848095Y-1803809D01*
X-53867142Y-1841904D01*
X-53905238Y-1860952D01*
X-53943333Y-1860952D01*
X-53981428Y-1899047D02*
X-54286190Y-1899047D01*
X-54362380Y-1499047D02*
X-54381428Y-1480000D01*
X-54419523Y-1460952D01*
X-54514761Y-1460952D01*
X-54552857Y-1480000D01*
X-54571904Y-1499047D01*
X-54590952Y-1537142D01*
X-54590952Y-1575238D01*
X-54571904Y-1632380D01*
X-54343333Y-1860952D01*
X-54590952Y-1860952D01*
X-54971904Y-1860952D02*
X-54743333Y-1860952D01*
X-54857619Y-1860952D02*
X-54857619Y-1460952D01*
X-54819523Y-1518095D01*
X-54781428Y-1556190D01*
X-54743333Y-1575238D01*
X-55143333Y-1860952D02*
X-55143333Y-1460952D01*
X-55295714Y-1460952D01*
X-55333809Y-1480000D01*
X-55352857Y-1499047D01*
X-55371904Y-1537142D01*
X-55371904Y-1594285D01*
X-55352857Y-1632380D01*
X-55333809Y-1651428D01*
X-55295714Y-1670476D01*
X-55143333Y-1670476D01*
X-55543333Y-1860952D02*
X-55543333Y-1594285D01*
X-55543333Y-1460952D02*
X-55524285Y-1480000D01*
X-55543333Y-1499047D01*
X-55562380Y-1480000D01*
X-55543333Y-1460952D01*
X-55543333Y-1499047D01*
X-55733809Y-1594285D02*
X-55733809Y-1860952D01*
X-55733809Y-1632380D02*
X-55752857Y-1613333D01*
X-55790952Y-1594285D01*
X-55848095Y-1594285D01*
X-55886190Y-1613333D01*
X-55905238Y-1651428D01*
X-55905238Y-1860952D01*
X-56000476Y-1899047D02*
X-56305238Y-1899047D01*
X-56343333Y-1460952D02*
X-56476666Y-1860952D01*
X-56610000Y-1460952D01*
X-56952857Y-1860952D02*
X-56724285Y-1860952D01*
X-56838571Y-1860952D02*
X-56838571Y-1460952D01*
X-56800476Y-1518095D01*
X-56762380Y-1556190D01*
X-56724285Y-1575238D01*
X-51181428Y-2446666D02*
X-51371904Y-2446666D01*
X-51143333Y-2560952D02*
X-51276666Y-2160952D01*
X-51410000Y-2560952D01*
X-51714761Y-2294285D02*
X-51714761Y-2560952D01*
X-51543333Y-2294285D02*
X-51543333Y-2503809D01*
X-51562380Y-2541904D01*
X-51600476Y-2560952D01*
X-51657619Y-2560952D01*
X-51695714Y-2541904D01*
X-51714761Y-2522857D01*
X-52076666Y-2294285D02*
X-52076666Y-2618095D01*
X-52057619Y-2656190D01*
X-52038571Y-2675238D01*
X-52000476Y-2694285D01*
X-51943333Y-2694285D01*
X-51905238Y-2675238D01*
X-52076666Y-2541904D02*
X-52038571Y-2560952D01*
X-51962380Y-2560952D01*
X-51924285Y-2541904D01*
X-51905238Y-2522857D01*
X-51886190Y-2484761D01*
X-51886190Y-2370476D01*
X-51905238Y-2332380D01*
X-51924285Y-2313333D01*
X-51962380Y-2294285D01*
X-52038571Y-2294285D01*
X-52076666Y-2313333D01*
X-52438571Y-2294285D02*
X-52438571Y-2560952D01*
X-52267142Y-2294285D02*
X-52267142Y-2503809D01*
X-52286190Y-2541904D01*
X-52324285Y-2560952D01*
X-52381428Y-2560952D01*
X-52419523Y-2541904D01*
X-52438571Y-2522857D01*
X-52610000Y-2541904D02*
X-52648095Y-2560952D01*
X-52724285Y-2560952D01*
X-52762380Y-2541904D01*
X-52781428Y-2503809D01*
X-52781428Y-2484761D01*
X-52762380Y-2446666D01*
X-52724285Y-2427619D01*
X-52667142Y-2427619D01*
X-52629047Y-2408571D01*
X-52610000Y-2370476D01*
X-52610000Y-2351428D01*
X-52629047Y-2313333D01*
X-52667142Y-2294285D01*
X-52724285Y-2294285D01*
X-52762380Y-2313333D01*
X-52895714Y-2294285D02*
X-53048095Y-2294285D01*
X-52952857Y-2160952D02*
X-52952857Y-2503809D01*
X-52971904Y-2541904D01*
X-53010000Y-2560952D01*
X-53048095Y-2560952D01*
X-53467142Y-2199047D02*
X-53486190Y-2180000D01*
X-53524285Y-2160952D01*
X-53619523Y-2160952D01*
X-53657619Y-2180000D01*
X-53676666Y-2199047D01*
X-53695714Y-2237142D01*
X-53695714Y-2275238D01*
X-53676666Y-2332380D01*
X-53448095Y-2560952D01*
X-53695714Y-2560952D01*
X-53943333Y-2160952D02*
X-53981428Y-2160952D01*
X-54019523Y-2180000D01*
X-54038571Y-2199047D01*
X-54057619Y-2237142D01*
X-54076666Y-2313333D01*
X-54076666Y-2408571D01*
X-54057619Y-2484761D01*
X-54038571Y-2522857D01*
X-54019523Y-2541904D01*
X-53981428Y-2560952D01*
X-53943333Y-2560952D01*
X-53905238Y-2541904D01*
X-53886190Y-2522857D01*
X-53867142Y-2484761D01*
X-53848095Y-2408571D01*
X-53848095Y-2313333D01*
X-53867142Y-2237142D01*
X-53886190Y-2199047D01*
X-53905238Y-2180000D01*
X-53943333Y-2160952D01*
X-54229047Y-2199047D02*
X-54248095Y-2180000D01*
X-54286190Y-2160952D01*
X-54381428Y-2160952D01*
X-54419523Y-2180000D01*
X-54438571Y-2199047D01*
X-54457619Y-2237142D01*
X-54457619Y-2275238D01*
X-54438571Y-2332380D01*
X-54210000Y-2560952D01*
X-54457619Y-2560952D01*
X-54838571Y-2560952D02*
X-54610000Y-2560952D01*
X-54724285Y-2560952D02*
X-54724285Y-2160952D01*
X-54686190Y-2218095D01*
X-54648095Y-2256190D01*
X-54610000Y-2275238D01*
X-50648095Y-3260952D02*
X-50514761Y-3070476D01*
X-50419523Y-3260952D02*
X-50419523Y-2860952D01*
X-50571904Y-2860952D01*
X-50610000Y-2880000D01*
X-50629047Y-2899047D01*
X-50648095Y-2937142D01*
X-50648095Y-2994285D01*
X-50629047Y-3032380D01*
X-50610000Y-3051428D01*
X-50571904Y-3070476D01*
X-50419523Y-3070476D01*
X-50781428Y-2994285D02*
X-50876666Y-3260952D01*
X-50971904Y-2994285D02*
X-50876666Y-3260952D01*
X-50838571Y-3356190D01*
X-50819523Y-3375238D01*
X-50781428Y-3394285D01*
X-51295714Y-3260952D02*
X-51295714Y-3051428D01*
X-51276666Y-3013333D01*
X-51238571Y-2994285D01*
X-51162380Y-2994285D01*
X-51124285Y-3013333D01*
X-51295714Y-3241904D02*
X-51257619Y-3260952D01*
X-51162380Y-3260952D01*
X-51124285Y-3241904D01*
X-51105238Y-3203809D01*
X-51105238Y-3165714D01*
X-51124285Y-3127619D01*
X-51162380Y-3108571D01*
X-51257619Y-3108571D01*
X-51295714Y-3089523D01*
X-51486190Y-2994285D02*
X-51486190Y-3260952D01*
X-51486190Y-3032380D02*
X-51505238Y-3013333D01*
X-51543333Y-2994285D01*
X-51600476Y-2994285D01*
X-51638571Y-3013333D01*
X-51657619Y-3051428D01*
X-51657619Y-3260952D01*
X-52152857Y-3260952D02*
X-52152857Y-2860952D01*
X-52286190Y-3146666D01*
X-52419523Y-2860952D01*
X-52419523Y-3260952D01*
X-52667142Y-3260952D02*
X-52629047Y-3241904D01*
X-52610000Y-3222857D01*
X-52590952Y-3184761D01*
X-52590952Y-3070476D01*
X-52610000Y-3032380D01*
X-52629047Y-3013333D01*
X-52667142Y-2994285D01*
X-52724285Y-2994285D01*
X-52762380Y-3013333D01*
X-52781428Y-3032380D01*
X-52800476Y-3070476D01*
X-52800476Y-3184761D01*
X-52781428Y-3222857D01*
X-52762380Y-3241904D01*
X-52724285Y-3260952D01*
X-52667142Y-3260952D01*
X-52971904Y-3260952D02*
X-52971904Y-2994285D01*
X-52971904Y-3070476D02*
X-52990952Y-3032380D01*
X-53010000Y-3013333D01*
X-53048095Y-2994285D01*
X-53086190Y-2994285D01*
X-53390952Y-2994285D02*
X-53390952Y-3318095D01*
X-53371904Y-3356190D01*
X-53352857Y-3375238D01*
X-53314761Y-3394285D01*
X-53257619Y-3394285D01*
X-53219523Y-3375238D01*
X-53390952Y-3241904D02*
X-53352857Y-3260952D01*
X-53276666Y-3260952D01*
X-53238571Y-3241904D01*
X-53219523Y-3222857D01*
X-53200476Y-3184761D01*
X-53200476Y-3070476D01*
X-53219523Y-3032380D01*
X-53238571Y-3013333D01*
X-53276666Y-2994285D01*
X-53352857Y-2994285D01*
X-53390952Y-3013333D01*
X-53733809Y-3241904D02*
X-53695714Y-3260952D01*
X-53619523Y-3260952D01*
X-53581428Y-3241904D01*
X-53562380Y-3203809D01*
X-53562380Y-3051428D01*
X-53581428Y-3013333D01*
X-53619523Y-2994285D01*
X-53695714Y-2994285D01*
X-53733809Y-3013333D01*
X-53752857Y-3051428D01*
X-53752857Y-3089523D01*
X-53562380Y-3127619D01*
X-53924285Y-2994285D02*
X-53924285Y-3260952D01*
X-53924285Y-3032380D02*
X-53943333Y-3013333D01*
X-53981428Y-2994285D01*
X-54038571Y-2994285D01*
X-54076666Y-3013333D01*
X-54095714Y-3051428D01*
X-54095714Y-3260952D01*
X-54267142Y-3241904D02*
X-54305238Y-3260952D01*
X-54381428Y-3260952D01*
X-54419523Y-3241904D01*
X-54438571Y-3203809D01*
X-54438571Y-3184761D01*
X-54419523Y-3146666D01*
X-54381428Y-3127619D01*
X-54324285Y-3127619D01*
X-54286190Y-3108571D01*
X-54267142Y-3070476D01*
X-54267142Y-3051428D01*
X-54286190Y-3013333D01*
X-54324285Y-2994285D01*
X-54381428Y-2994285D01*
X-54419523Y-3013333D01*
X-54552857Y-2994285D02*
X-54705238Y-2994285D01*
X-54610000Y-2860952D02*
X-54610000Y-3203809D01*
X-54629047Y-3241904D01*
X-54667142Y-3260952D01*
X-54705238Y-3260952D01*
X-54990952Y-3241904D02*
X-54952857Y-3260952D01*
X-54876666Y-3260952D01*
X-54838571Y-3241904D01*
X-54819523Y-3203809D01*
X-54819523Y-3051428D01*
X-54838571Y-3013333D01*
X-54876666Y-2994285D01*
X-54952857Y-2994285D01*
X-54990952Y-3013333D01*
X-55010000Y-3051428D01*
X-55010000Y-3089523D01*
X-54819523Y-3127619D01*
X-55181428Y-3260952D02*
X-55181428Y-2994285D01*
X-55181428Y-3070476D02*
X-55200476Y-3032380D01*
X-55219523Y-3013333D01*
X-55257619Y-2994285D01*
X-55295714Y-2994285D01*
X-55429047Y-2994285D02*
X-55429047Y-3260952D01*
X-55429047Y-3032380D02*
X-55448095Y-3013333D01*
X-55486190Y-2994285D01*
X-55543333Y-2994285D01*
X-55581428Y-3013333D01*
X-55600476Y-3051428D01*
X-55600476Y-3260952D01*
D10*
%TO.C,J2 & J3*%
X-42530000Y1460000D02*
X-25370000Y1460000D01*
X-42530000Y-1560000D02*
X-42530000Y1460000D01*
X-24370000Y-1560000D02*
X-42530000Y-1560000D01*
X-24370000Y460000D02*
X-24370000Y-1560000D01*
X-25370000Y1460000D02*
X-24370000Y460000D01*
D12*
%TO.C,M211*%
X13655000Y-3980000D02*
X-13655000Y-3980000D01*
X-13655000Y3640000D02*
X13655000Y3640000D01*
X13655000Y-3980000D02*
X13655000Y3640000D01*
X-13655000Y-3980000D02*
X-13655000Y3640000D01*
D10*
X-4588095Y8377619D02*
X-4588095Y9377619D01*
X-4921428Y8663333D01*
X-5254761Y9377619D01*
X-5254761Y8377619D01*
X-5683333Y9282380D02*
X-5730952Y9330000D01*
X-5826190Y9377619D01*
X-6064285Y9377619D01*
X-6159523Y9330000D01*
X-6207142Y9282380D01*
X-6254761Y9187142D01*
X-6254761Y9091904D01*
X-6207142Y8949047D01*
X-5635714Y8377619D01*
X-6254761Y8377619D01*
X-7207142Y8377619D02*
X-6635714Y8377619D01*
X-6921428Y8377619D02*
X-6921428Y9377619D01*
X-6826190Y9234761D01*
X-6730952Y9139523D01*
X-6635714Y9091904D01*
X-8159523Y8377619D02*
X-7588095Y8377619D01*
X-7873809Y8377619D02*
X-7873809Y9377619D01*
X-7778571Y9234761D01*
X-7683333Y9139523D01*
X-7588095Y9091904D01*
%TD*%
M02*
