%TF.GenerationSoftware,KiCad,Pcbnew,(5.1.9)-1*%
%TF.CreationDate,2021-08-10T00:38:49-06:00*%
%TF.ProjectId,21to25,3231746f-3235-42e6-9b69-6361645f7063,rev?*%
%TF.SameCoordinates,Original*%
%TF.FileFunction,Copper,L2,Bot*%
%TF.FilePolarity,Positive*%
%FSLAX46Y46*%
G04 Gerber Fmt 4.6, Leading zero omitted, Abs format (unit mm)*
G04 Created by KiCad (PCBNEW (5.1.9)-1) date 2021-08-10 00:38:49*
%MOMM*%
%LPD*%
G01*
G04 APERTURE LIST*
%TA.AperFunction,ComponentPad*%
%ADD10O,2.810000X2.810000*%
%TD*%
%TA.AperFunction,ComponentPad*%
%ADD11O,0.920000X0.920000*%
%TD*%
%TA.AperFunction,ComponentPad*%
%ADD12O,0.850000X0.850000*%
%TD*%
%TA.AperFunction,ComponentPad*%
%ADD13R,0.850000X0.850000*%
%TD*%
%TA.AperFunction,Conductor*%
%ADD14C,0.090000*%
%TD*%
%TA.AperFunction,NonConductor*%
%ADD15C,0.254000*%
%TD*%
%TA.AperFunction,NonConductor*%
%ADD16C,0.100000*%
%TD*%
G04 APERTURE END LIST*
D10*
%TO.P,J2,27*%
%TO.N,N/C*%
X-21175000Y-50000D03*
%TO.P,J2,26*%
X-45725000Y-50000D03*
D11*
%TO.P,J2,13*%
%TO.N,Net-(J2-Pad13)*%
X-41070000Y500000D03*
%TO.P,J2,25*%
%TO.N,Net-(J1-Pad4)*%
X-40435000Y-600000D03*
%TO.P,J2,12*%
%TO.N,Net-(J1-Pad3)*%
X-39800000Y500000D03*
%TO.P,J2,24*%
%TO.N,Net-(J1-Pad2)*%
X-39165000Y-600000D03*
%TO.P,J2,11*%
%TO.N,Net-(J1-Pad1)*%
X-38530000Y500000D03*
%TO.P,J2,23*%
%TO.N,Net-(J2-Pad23)*%
X-37895000Y-600000D03*
%TO.P,J2,10*%
%TO.N,Net-(J2-Pad10)*%
X-37260000Y500000D03*
%TO.P,J2,22*%
%TO.N,Net-(J2-Pad22)*%
X-36625000Y-600000D03*
%TO.P,J2,9*%
%TO.N,Net-(J2-Pad9)*%
X-35990000Y500000D03*
%TO.P,J2,21*%
%TO.N,Net-(J2-Pad21)*%
X-35355000Y-600000D03*
%TO.P,J2,8*%
%TO.N,Net-(J2-Pad8)*%
X-34720000Y500000D03*
%TO.P,J2,20*%
%TO.N,Net-(J2-Pad20)*%
X-34085000Y-600000D03*
%TO.P,J2,7*%
%TO.N,Net-(J2-Pad7)*%
X-33450000Y500000D03*
%TO.P,J2,19*%
%TO.N,Net-(J2-Pad19)*%
X-32815000Y-600000D03*
%TO.P,J2,6*%
%TO.N,Net-(J2-Pad6)*%
X-32180000Y500000D03*
%TO.P,J2,18*%
%TO.N,Net-(J2-Pad18)*%
X-31545000Y-600000D03*
%TO.P,J2,5*%
%TO.N,Net-(J2-Pad5)*%
X-30910000Y500000D03*
%TO.P,J2,17*%
%TO.N,Net-(J2-Pad17)*%
X-30275000Y-600000D03*
%TO.P,J2,4*%
%TO.N,Net-(J2-Pad4)*%
X-29640000Y500000D03*
%TO.P,J2,16*%
%TO.N,Net-(J2-Pad16)*%
X-29005000Y-600000D03*
%TO.P,J2,3*%
%TO.N,Net-(J2-Pad3)*%
X-28370000Y500000D03*
%TO.P,J2,15*%
%TO.N,Net-(J2-Pad15)*%
X-27735000Y-600000D03*
%TO.P,J2,2*%
%TO.N,Net-(J2-Pad2)*%
X-27100000Y500000D03*
%TO.P,J2,14*%
%TO.N,Net-(J2-Pad14)*%
X-26465000Y-600000D03*
%TO.P,J2,1*%
%TO.N,Net-(J2-Pad1)*%
X-25830000Y500000D03*
%TD*%
%TO.P,M211,21*%
%TO.N,Net-(J2-Pad23)*%
X5720000Y800000D03*
%TO.P,M211,20*%
%TO.N,Net-(J2-Pad22)*%
X4450000Y800000D03*
%TO.P,M211,19*%
%TO.N,Net-(J2-Pad21)*%
X3180000Y800000D03*
%TO.P,M211,18*%
%TO.N,Net-(J2-Pad20)*%
X1910000Y800000D03*
%TO.P,M211,17*%
%TO.N,Net-(J2-Pad19)*%
X640000Y800000D03*
%TO.P,M211,16*%
%TO.N,Net-(J2-Pad18)*%
X-630000Y800000D03*
%TO.P,M211,15*%
%TO.N,Net-(J2-Pad17)*%
X-1900000Y800000D03*
%TO.P,M211,14*%
%TO.N,Net-(J2-Pad16)*%
X-3170000Y800000D03*
%TO.P,M211,13*%
%TO.N,Net-(J2-Pad15)*%
X-4440000Y800000D03*
%TO.P,M211,11*%
%TO.N,Net-(J2-Pad10)*%
X6350000Y-300000D03*
%TO.P,M211,10*%
%TO.N,Net-(J2-Pad9)*%
X5080000Y-300000D03*
%TO.P,M211,9*%
%TO.N,Net-(J2-Pad8)*%
X3810000Y-300000D03*
%TO.P,M211,8*%
%TO.N,Net-(J2-Pad7)*%
X2540000Y-300000D03*
%TO.P,M211,7*%
%TO.N,Net-(J2-Pad6)*%
X1270000Y-300000D03*
%TO.P,M211,6*%
%TO.N,Net-(J2-Pad5)*%
X0Y-300000D03*
%TO.P,M211,5*%
%TO.N,Net-(J2-Pad4)*%
X-1270000Y-300000D03*
%TO.P,M211,4*%
%TO.N,Net-(J2-Pad3)*%
X-2540000Y-300000D03*
%TO.P,M211,3*%
%TO.N,Net-(M211-Pad3)*%
X-3810000Y-300000D03*
%TO.P,M211,2*%
%TO.N,Net-(J2-Pad2)*%
X-5080000Y-300000D03*
%TO.P,M211,12*%
%TO.N,Net-(J2-Pad14)*%
X-5710000Y800000D03*
%TO.P,M211,1*%
%TO.N,Net-(J2-Pad1)*%
X-6350000Y-300000D03*
%TD*%
D12*
%TO.P,J1,4*%
%TO.N,Net-(J1-Pad4)*%
X-55000000Y1000000D03*
%TO.P,J1,3*%
%TO.N,Net-(J1-Pad3)*%
X-55000000Y0D03*
%TO.P,J1,2*%
%TO.N,Net-(J1-Pad2)*%
X-54000000Y1000000D03*
D13*
%TO.P,J1,1*%
%TO.N,Net-(J1-Pad1)*%
X-54000000Y0D03*
%TD*%
D14*
%TO.N,Net-(J1-Pad4)*%
X-40435000Y-600000D02*
X-39800000Y-600000D01*
X-39800000Y-600000D02*
X-39800000Y-850000D01*
X-40540001Y-1590001D02*
X-54009999Y-1590001D01*
X-39800000Y-850000D02*
X-40540001Y-1590001D01*
X-55560001Y439999D02*
X-55000000Y1000000D01*
X-55560001Y-268801D02*
X-55560001Y439999D01*
X-55268801Y-560001D02*
X-55560001Y-268801D01*
X-55039999Y-560001D02*
X-55268801Y-560001D01*
X-54009999Y-1590001D02*
X-55039999Y-560001D01*
%TO.N,Net-(J1-Pad2)*%
X-39165000Y-600000D02*
X-39165000Y1125000D01*
X-39165000Y1125000D02*
X-39520000Y1480000D01*
X-44975798Y1480000D02*
X-44985799Y1490001D01*
X-44985799Y1490001D02*
X-52509999Y1490001D01*
X-39520000Y1480000D02*
X-44975798Y1480000D01*
X-53000000Y1000000D02*
X-54000000Y1000000D01*
X-52509999Y1490001D02*
X-53000000Y1000000D01*
%TO.N,Net-(J2-Pad23)*%
X-34899920Y-3210080D02*
X-37510000Y-600000D01*
X-37510000Y-600000D02*
X-37895000Y-600000D01*
X3439920Y-3210080D02*
X-34899920Y-3210080D01*
X5720000Y-930000D02*
X3439920Y-3210080D01*
X5720000Y800000D02*
X5720000Y-930000D01*
%TO.N,Net-(J2-Pad22)*%
X1334572Y-3030000D02*
X2350000Y-3030000D01*
X4450000Y-930000D02*
X4450000Y800000D01*
X1334502Y-3030070D02*
X1334572Y-3030000D01*
X-33809930Y-3030070D02*
X1334502Y-3030070D01*
X2350000Y-3030000D02*
X4450000Y-930000D01*
X-36240000Y-600000D02*
X-33809930Y-3030070D01*
X-36625000Y-600000D02*
X-36240000Y-600000D01*
%TO.N,Net-(J2-Pad21)*%
X3180000Y-940000D02*
X3180000Y800000D01*
X3170000Y-940000D02*
X3180000Y-940000D01*
X1259940Y-2850060D02*
X3170000Y-940000D01*
X-32719940Y-2850060D02*
X1259940Y-2850060D01*
X-34970000Y-600000D02*
X-32719940Y-2850060D01*
X-35355000Y-600000D02*
X-34970000Y-600000D01*
%TO.N,Net-(J2-Pad20)*%
X170000Y-2670000D02*
X1910000Y-930000D01*
X-845478Y-2670050D02*
X-845428Y-2670000D01*
X-31629950Y-2670050D02*
X-845478Y-2670050D01*
X-845428Y-2670000D02*
X170000Y-2670000D01*
X-33120000Y-1180000D02*
X-31629950Y-2670050D01*
X1910000Y-930000D02*
X1910000Y800000D01*
X-33120000Y-1175602D02*
X-33120000Y-1180000D01*
X-33695602Y-600000D02*
X-33120000Y-1175602D01*
X-34085000Y-600000D02*
X-33695602Y-600000D01*
%TO.N,Net-(J2-Pad19)*%
X640000Y-930000D02*
X640000Y800000D01*
X-920040Y-2490040D02*
X640000Y-930000D01*
X-30539960Y-2490040D02*
X-920040Y-2490040D01*
X-32430000Y-600000D02*
X-30539960Y-2490040D01*
X-32815000Y-600000D02*
X-32430000Y-600000D01*
%TO.N,Net-(J2-Pad18)*%
X-630000Y-930000D02*
X-630000Y800000D01*
X-2010030Y-2310030D02*
X-630000Y-930000D01*
X-29449970Y-2310030D02*
X-2010030Y-2310030D01*
X-31160000Y-600000D02*
X-29449970Y-2310030D01*
X-31545000Y-600000D02*
X-31160000Y-600000D01*
%TO.N,Net-(J2-Pad17)*%
X-1900000Y-940000D02*
X-1900000Y800000D01*
X-3090020Y-2130020D02*
X-1900000Y-940000D01*
X-28319980Y-2130020D02*
X-3090020Y-2130020D01*
X-29850000Y-600000D02*
X-28319980Y-2130020D01*
X-30275000Y-600000D02*
X-29850000Y-600000D01*
%TO.N,Net-(J2-Pad16)*%
X-3170000Y-930000D02*
X-3170000Y800000D01*
X-4190010Y-1950010D02*
X-3170000Y-930000D01*
X-27259990Y-1950010D02*
X-4190010Y-1950010D01*
X-28610000Y-600000D02*
X-27259990Y-1950010D01*
X-29005000Y-600000D02*
X-28610000Y-600000D01*
%TO.N,Net-(J2-Pad15)*%
X-4440000Y-540602D02*
X-4440000Y800000D01*
X-5669398Y-1770000D02*
X-4440000Y-540602D01*
X-26175602Y-1770000D02*
X-5669398Y-1770000D01*
X-27345602Y-600000D02*
X-26175602Y-1770000D01*
X-27735000Y-600000D02*
X-27345602Y-600000D01*
%TO.N,Net-(J2-Pad14)*%
X-5710000Y-540602D02*
X-6759398Y-1590000D01*
X-5710000Y800000D02*
X-5710000Y-540602D01*
X-6759398Y-1590000D02*
X-23740000Y-1590000D01*
X-24730000Y-600000D02*
X-26465000Y-600000D01*
X-23740000Y-1590000D02*
X-24730000Y-600000D01*
%TD*%
D15*
X13340001Y-3590000D02*
X4021664Y-3590000D01*
X6177210Y-1434455D01*
X6203159Y-1413159D01*
X6221442Y-1390881D01*
X6242152Y-1395000D01*
X6457848Y-1395000D01*
X6669400Y-1352920D01*
X6868677Y-1270376D01*
X7048022Y-1150542D01*
X7200542Y-998022D01*
X7320376Y-818677D01*
X7402920Y-619400D01*
X7445000Y-407848D01*
X7445000Y-192152D01*
X7404253Y12702D01*
X9131000Y12702D01*
X9131000Y-352702D01*
X9202286Y-711084D01*
X9342120Y-1048672D01*
X9545127Y-1352494D01*
X9803506Y-1610873D01*
X10107328Y-1813880D01*
X10444916Y-1953714D01*
X10803298Y-2025000D01*
X11168702Y-2025000D01*
X11527084Y-1953714D01*
X11864672Y-1813880D01*
X12168494Y-1610873D01*
X12426873Y-1352494D01*
X12629880Y-1048672D01*
X12769714Y-711084D01*
X12841000Y-352702D01*
X12841000Y12702D01*
X12769714Y371084D01*
X12629880Y708672D01*
X12426873Y1012494D01*
X12168494Y1270873D01*
X11864672Y1473880D01*
X11527084Y1613714D01*
X11168702Y1685000D01*
X10803298Y1685000D01*
X10444916Y1613714D01*
X10107328Y1473880D01*
X9803506Y1270873D01*
X9545127Y1012494D01*
X9342120Y708672D01*
X9202286Y371084D01*
X9131000Y12702D01*
X7404253Y12702D01*
X7402920Y19400D01*
X7320376Y218677D01*
X7200542Y398022D01*
X7048022Y550542D01*
X6868677Y670376D01*
X6815000Y692610D01*
X6815000Y907848D01*
X6772920Y1119400D01*
X6690376Y1318677D01*
X6570542Y1498022D01*
X6418022Y1650542D01*
X6238677Y1770376D01*
X6039400Y1852920D01*
X5827848Y1895000D01*
X5612152Y1895000D01*
X5400600Y1852920D01*
X5201323Y1770376D01*
X5085000Y1692652D01*
X4968677Y1770376D01*
X4769400Y1852920D01*
X4557848Y1895000D01*
X4342152Y1895000D01*
X4130600Y1852920D01*
X3931323Y1770376D01*
X3815000Y1692652D01*
X3698677Y1770376D01*
X3499400Y1852920D01*
X3287848Y1895000D01*
X3072152Y1895000D01*
X2860600Y1852920D01*
X2661323Y1770376D01*
X2545000Y1692652D01*
X2428677Y1770376D01*
X2229400Y1852920D01*
X2017848Y1895000D01*
X1802152Y1895000D01*
X1590600Y1852920D01*
X1391323Y1770376D01*
X1275000Y1692652D01*
X1158677Y1770376D01*
X959400Y1852920D01*
X747848Y1895000D01*
X532152Y1895000D01*
X320600Y1852920D01*
X121323Y1770376D01*
X5000Y1692652D01*
X-111323Y1770376D01*
X-310600Y1852920D01*
X-522152Y1895000D01*
X-737848Y1895000D01*
X-949400Y1852920D01*
X-1148677Y1770376D01*
X-1265000Y1692652D01*
X-1381323Y1770376D01*
X-1580600Y1852920D01*
X-1792152Y1895000D01*
X-2007848Y1895000D01*
X-2219400Y1852920D01*
X-2418677Y1770376D01*
X-2535000Y1692652D01*
X-2651323Y1770376D01*
X-2850600Y1852920D01*
X-3062152Y1895000D01*
X-3277848Y1895000D01*
X-3489400Y1852920D01*
X-3688677Y1770376D01*
X-3805000Y1692652D01*
X-3921323Y1770376D01*
X-4120600Y1852920D01*
X-4332152Y1895000D01*
X-4547848Y1895000D01*
X-4759400Y1852920D01*
X-4958677Y1770376D01*
X-5075000Y1692652D01*
X-5191323Y1770376D01*
X-5390600Y1852920D01*
X-5602152Y1895000D01*
X-5817848Y1895000D01*
X-6029400Y1852920D01*
X-6228677Y1770376D01*
X-6408022Y1650542D01*
X-6560542Y1498022D01*
X-6680376Y1318677D01*
X-6762920Y1119400D01*
X-6805000Y907848D01*
X-6805000Y696752D01*
X-6868677Y670376D01*
X-7048022Y550542D01*
X-7200542Y398022D01*
X-7320376Y218677D01*
X-7402920Y19400D01*
X-7445000Y-192152D01*
X-7445000Y-407848D01*
X-7402920Y-619400D01*
X-7320376Y-818677D01*
X-7259356Y-910000D01*
X-9284680Y-910000D01*
X-9202286Y-711084D01*
X-9131000Y-352702D01*
X-9131000Y12702D01*
X-9202286Y371084D01*
X-9342120Y708672D01*
X-9545127Y1012494D01*
X-9803506Y1270873D01*
X-10107328Y1473880D01*
X-10444916Y1613714D01*
X-10803298Y1685000D01*
X-11168702Y1685000D01*
X-11527084Y1613714D01*
X-11864672Y1473880D01*
X-12168494Y1270873D01*
X-12426873Y1012494D01*
X-12629880Y708672D01*
X-12769714Y371084D01*
X-12841000Y12702D01*
X-12841000Y-352702D01*
X-12769714Y-711084D01*
X-12687320Y-910000D01*
X-19323143Y-910000D01*
X-19213396Y-645046D01*
X-19135000Y-250922D01*
X-19135000Y150922D01*
X-19213396Y545046D01*
X-19367175Y916303D01*
X-19590428Y1250424D01*
X-19874576Y1534572D01*
X-20208697Y1757825D01*
X-20579954Y1911604D01*
X-20974078Y1990000D01*
X-21375922Y1990000D01*
X-21770046Y1911604D01*
X-22141303Y1757825D01*
X-22475424Y1534572D01*
X-22759572Y1250424D01*
X-22982825Y916303D01*
X-23136604Y545046D01*
X-23215000Y150922D01*
X-23215000Y-250922D01*
X-23136604Y-645046D01*
X-23026857Y-910000D01*
X-23458335Y-910000D01*
X-24225541Y-142795D01*
X-24246841Y-116841D01*
X-24350384Y-31865D01*
X-24468516Y31278D01*
X-24596697Y70161D01*
X-24696596Y80000D01*
X-24730000Y83290D01*
X-24763404Y80000D01*
X-24818750Y80000D01*
X-24777080Y180600D01*
X-24735000Y392152D01*
X-24735000Y607848D01*
X-24777080Y819400D01*
X-24859624Y1018677D01*
X-24979458Y1198022D01*
X-25131978Y1350542D01*
X-25311323Y1470376D01*
X-25510600Y1552920D01*
X-25722152Y1595000D01*
X-25937848Y1595000D01*
X-26149400Y1552920D01*
X-26348677Y1470376D01*
X-26465000Y1392652D01*
X-26581323Y1470376D01*
X-26780600Y1552920D01*
X-26992152Y1595000D01*
X-27207848Y1595000D01*
X-27419400Y1552920D01*
X-27618677Y1470376D01*
X-27735000Y1392652D01*
X-27851323Y1470376D01*
X-28050600Y1552920D01*
X-28262152Y1595000D01*
X-28477848Y1595000D01*
X-28689400Y1552920D01*
X-28888677Y1470376D01*
X-29005000Y1392652D01*
X-29121323Y1470376D01*
X-29320600Y1552920D01*
X-29532152Y1595000D01*
X-29747848Y1595000D01*
X-29959400Y1552920D01*
X-30158677Y1470376D01*
X-30275000Y1392652D01*
X-30391323Y1470376D01*
X-30590600Y1552920D01*
X-30802152Y1595000D01*
X-31017848Y1595000D01*
X-31229400Y1552920D01*
X-31428677Y1470376D01*
X-31545000Y1392652D01*
X-31661323Y1470376D01*
X-31860600Y1552920D01*
X-32072152Y1595000D01*
X-32287848Y1595000D01*
X-32499400Y1552920D01*
X-32698677Y1470376D01*
X-32815000Y1392652D01*
X-32931323Y1470376D01*
X-33130600Y1552920D01*
X-33342152Y1595000D01*
X-33557848Y1595000D01*
X-33769400Y1552920D01*
X-33968677Y1470376D01*
X-34085000Y1392652D01*
X-34201323Y1470376D01*
X-34400600Y1552920D01*
X-34612152Y1595000D01*
X-34827848Y1595000D01*
X-35039400Y1552920D01*
X-35238677Y1470376D01*
X-35355000Y1392652D01*
X-35471323Y1470376D01*
X-35670600Y1552920D01*
X-35882152Y1595000D01*
X-36097848Y1595000D01*
X-36309400Y1552920D01*
X-36508677Y1470376D01*
X-36625000Y1392652D01*
X-36741323Y1470376D01*
X-36940600Y1552920D01*
X-37152152Y1595000D01*
X-37367848Y1595000D01*
X-37579400Y1552920D01*
X-37778677Y1470376D01*
X-37895000Y1392652D01*
X-38011323Y1470376D01*
X-38210600Y1552920D01*
X-38422152Y1595000D01*
X-38637848Y1595000D01*
X-38666383Y1589324D01*
X-38681841Y1608159D01*
X-38707795Y1629459D01*
X-39015541Y1937205D01*
X-39036841Y1963159D01*
X-39140384Y2048135D01*
X-39258516Y2111278D01*
X-39386697Y2150161D01*
X-39486596Y2160000D01*
X-39520000Y2163290D01*
X-39553404Y2160000D01*
X-44851962Y2160000D01*
X-44852496Y2160162D01*
X-44952395Y2170001D01*
X-44985799Y2173291D01*
X-45019203Y2170001D01*
X-52476603Y2170001D01*
X-52510000Y2173290D01*
X-52543397Y2170001D01*
X-52543403Y2170001D01*
X-52629372Y2161534D01*
X-52643303Y2160162D01*
X-52771483Y2121279D01*
X-52889615Y2058136D01*
X-52993158Y1973160D01*
X-53014454Y1947211D01*
X-53231299Y1730366D01*
X-53324289Y1823356D01*
X-53497902Y1939360D01*
X-53690809Y2019265D01*
X-53895599Y2060000D01*
X-54104401Y2060000D01*
X-54309191Y2019265D01*
X-54500000Y1940229D01*
X-54690809Y2019265D01*
X-54895599Y2060000D01*
X-55104401Y2060000D01*
X-55309191Y2019265D01*
X-55502098Y1939360D01*
X-55675711Y1823356D01*
X-55823356Y1675711D01*
X-55939360Y1502098D01*
X-56019265Y1309191D01*
X-56060000Y1104401D01*
X-56060000Y902637D01*
X-56128135Y819615D01*
X-56133360Y809839D01*
X-56191279Y701482D01*
X-56230162Y573302D01*
X-56243291Y439999D01*
X-56240001Y406595D01*
X-56240001Y-235397D01*
X-56243291Y-268801D01*
X-56230162Y-402104D01*
X-56199829Y-502098D01*
X-56191279Y-530284D01*
X-56128136Y-648416D01*
X-56043160Y-751959D01*
X-56017210Y-773256D01*
X-55773260Y-1017206D01*
X-55751960Y-1043160D01*
X-55648417Y-1128136D01*
X-55559616Y-1175601D01*
X-55530285Y-1191279D01*
X-55402105Y-1230162D01*
X-55323789Y-1237875D01*
X-54514454Y-2047211D01*
X-54493158Y-2073160D01*
X-54389615Y-2158136D01*
X-54271487Y-2221277D01*
X-54271483Y-2221279D01*
X-54143303Y-2260162D01*
X-54009999Y-2273291D01*
X-53976595Y-2270001D01*
X-40573405Y-2270001D01*
X-40540001Y-2273291D01*
X-40506597Y-2270001D01*
X-40506586Y-2270000D01*
X-40406698Y-2260162D01*
X-40302510Y-2228557D01*
X-40278517Y-2221279D01*
X-40160385Y-2158136D01*
X-40056842Y-2073160D01*
X-40035542Y-2047206D01*
X-39595313Y-1606978D01*
X-39484400Y-1652920D01*
X-39272848Y-1695000D01*
X-39057152Y-1695000D01*
X-38845600Y-1652920D01*
X-38646323Y-1570376D01*
X-38530000Y-1492652D01*
X-38413677Y-1570376D01*
X-38214400Y-1652920D01*
X-38002848Y-1695000D01*
X-37787152Y-1695000D01*
X-37575600Y-1652920D01*
X-37464687Y-1606978D01*
X-35481666Y-3590000D01*
X-56840000Y-3590000D01*
X-56840000Y3340000D01*
X13340000Y3340000D01*
X13340001Y-3590000D01*
%TA.AperFunction,NonConductor*%
D16*
G36*
X13340001Y-3590000D02*
G01*
X4021664Y-3590000D01*
X6177210Y-1434455D01*
X6203159Y-1413159D01*
X6221442Y-1390881D01*
X6242152Y-1395000D01*
X6457848Y-1395000D01*
X6669400Y-1352920D01*
X6868677Y-1270376D01*
X7048022Y-1150542D01*
X7200542Y-998022D01*
X7320376Y-818677D01*
X7402920Y-619400D01*
X7445000Y-407848D01*
X7445000Y-192152D01*
X7404253Y12702D01*
X9131000Y12702D01*
X9131000Y-352702D01*
X9202286Y-711084D01*
X9342120Y-1048672D01*
X9545127Y-1352494D01*
X9803506Y-1610873D01*
X10107328Y-1813880D01*
X10444916Y-1953714D01*
X10803298Y-2025000D01*
X11168702Y-2025000D01*
X11527084Y-1953714D01*
X11864672Y-1813880D01*
X12168494Y-1610873D01*
X12426873Y-1352494D01*
X12629880Y-1048672D01*
X12769714Y-711084D01*
X12841000Y-352702D01*
X12841000Y12702D01*
X12769714Y371084D01*
X12629880Y708672D01*
X12426873Y1012494D01*
X12168494Y1270873D01*
X11864672Y1473880D01*
X11527084Y1613714D01*
X11168702Y1685000D01*
X10803298Y1685000D01*
X10444916Y1613714D01*
X10107328Y1473880D01*
X9803506Y1270873D01*
X9545127Y1012494D01*
X9342120Y708672D01*
X9202286Y371084D01*
X9131000Y12702D01*
X7404253Y12702D01*
X7402920Y19400D01*
X7320376Y218677D01*
X7200542Y398022D01*
X7048022Y550542D01*
X6868677Y670376D01*
X6815000Y692610D01*
X6815000Y907848D01*
X6772920Y1119400D01*
X6690376Y1318677D01*
X6570542Y1498022D01*
X6418022Y1650542D01*
X6238677Y1770376D01*
X6039400Y1852920D01*
X5827848Y1895000D01*
X5612152Y1895000D01*
X5400600Y1852920D01*
X5201323Y1770376D01*
X5085000Y1692652D01*
X4968677Y1770376D01*
X4769400Y1852920D01*
X4557848Y1895000D01*
X4342152Y1895000D01*
X4130600Y1852920D01*
X3931323Y1770376D01*
X3815000Y1692652D01*
X3698677Y1770376D01*
X3499400Y1852920D01*
X3287848Y1895000D01*
X3072152Y1895000D01*
X2860600Y1852920D01*
X2661323Y1770376D01*
X2545000Y1692652D01*
X2428677Y1770376D01*
X2229400Y1852920D01*
X2017848Y1895000D01*
X1802152Y1895000D01*
X1590600Y1852920D01*
X1391323Y1770376D01*
X1275000Y1692652D01*
X1158677Y1770376D01*
X959400Y1852920D01*
X747848Y1895000D01*
X532152Y1895000D01*
X320600Y1852920D01*
X121323Y1770376D01*
X5000Y1692652D01*
X-111323Y1770376D01*
X-310600Y1852920D01*
X-522152Y1895000D01*
X-737848Y1895000D01*
X-949400Y1852920D01*
X-1148677Y1770376D01*
X-1265000Y1692652D01*
X-1381323Y1770376D01*
X-1580600Y1852920D01*
X-1792152Y1895000D01*
X-2007848Y1895000D01*
X-2219400Y1852920D01*
X-2418677Y1770376D01*
X-2535000Y1692652D01*
X-2651323Y1770376D01*
X-2850600Y1852920D01*
X-3062152Y1895000D01*
X-3277848Y1895000D01*
X-3489400Y1852920D01*
X-3688677Y1770376D01*
X-3805000Y1692652D01*
X-3921323Y1770376D01*
X-4120600Y1852920D01*
X-4332152Y1895000D01*
X-4547848Y1895000D01*
X-4759400Y1852920D01*
X-4958677Y1770376D01*
X-5075000Y1692652D01*
X-5191323Y1770376D01*
X-5390600Y1852920D01*
X-5602152Y1895000D01*
X-5817848Y1895000D01*
X-6029400Y1852920D01*
X-6228677Y1770376D01*
X-6408022Y1650542D01*
X-6560542Y1498022D01*
X-6680376Y1318677D01*
X-6762920Y1119400D01*
X-6805000Y907848D01*
X-6805000Y696752D01*
X-6868677Y670376D01*
X-7048022Y550542D01*
X-7200542Y398022D01*
X-7320376Y218677D01*
X-7402920Y19400D01*
X-7445000Y-192152D01*
X-7445000Y-407848D01*
X-7402920Y-619400D01*
X-7320376Y-818677D01*
X-7259356Y-910000D01*
X-9284680Y-910000D01*
X-9202286Y-711084D01*
X-9131000Y-352702D01*
X-9131000Y12702D01*
X-9202286Y371084D01*
X-9342120Y708672D01*
X-9545127Y1012494D01*
X-9803506Y1270873D01*
X-10107328Y1473880D01*
X-10444916Y1613714D01*
X-10803298Y1685000D01*
X-11168702Y1685000D01*
X-11527084Y1613714D01*
X-11864672Y1473880D01*
X-12168494Y1270873D01*
X-12426873Y1012494D01*
X-12629880Y708672D01*
X-12769714Y371084D01*
X-12841000Y12702D01*
X-12841000Y-352702D01*
X-12769714Y-711084D01*
X-12687320Y-910000D01*
X-19323143Y-910000D01*
X-19213396Y-645046D01*
X-19135000Y-250922D01*
X-19135000Y150922D01*
X-19213396Y545046D01*
X-19367175Y916303D01*
X-19590428Y1250424D01*
X-19874576Y1534572D01*
X-20208697Y1757825D01*
X-20579954Y1911604D01*
X-20974078Y1990000D01*
X-21375922Y1990000D01*
X-21770046Y1911604D01*
X-22141303Y1757825D01*
X-22475424Y1534572D01*
X-22759572Y1250424D01*
X-22982825Y916303D01*
X-23136604Y545046D01*
X-23215000Y150922D01*
X-23215000Y-250922D01*
X-23136604Y-645046D01*
X-23026857Y-910000D01*
X-23458335Y-910000D01*
X-24225541Y-142795D01*
X-24246841Y-116841D01*
X-24350384Y-31865D01*
X-24468516Y31278D01*
X-24596697Y70161D01*
X-24696596Y80000D01*
X-24730000Y83290D01*
X-24763404Y80000D01*
X-24818750Y80000D01*
X-24777080Y180600D01*
X-24735000Y392152D01*
X-24735000Y607848D01*
X-24777080Y819400D01*
X-24859624Y1018677D01*
X-24979458Y1198022D01*
X-25131978Y1350542D01*
X-25311323Y1470376D01*
X-25510600Y1552920D01*
X-25722152Y1595000D01*
X-25937848Y1595000D01*
X-26149400Y1552920D01*
X-26348677Y1470376D01*
X-26465000Y1392652D01*
X-26581323Y1470376D01*
X-26780600Y1552920D01*
X-26992152Y1595000D01*
X-27207848Y1595000D01*
X-27419400Y1552920D01*
X-27618677Y1470376D01*
X-27735000Y1392652D01*
X-27851323Y1470376D01*
X-28050600Y1552920D01*
X-28262152Y1595000D01*
X-28477848Y1595000D01*
X-28689400Y1552920D01*
X-28888677Y1470376D01*
X-29005000Y1392652D01*
X-29121323Y1470376D01*
X-29320600Y1552920D01*
X-29532152Y1595000D01*
X-29747848Y1595000D01*
X-29959400Y1552920D01*
X-30158677Y1470376D01*
X-30275000Y1392652D01*
X-30391323Y1470376D01*
X-30590600Y1552920D01*
X-30802152Y1595000D01*
X-31017848Y1595000D01*
X-31229400Y1552920D01*
X-31428677Y1470376D01*
X-31545000Y1392652D01*
X-31661323Y1470376D01*
X-31860600Y1552920D01*
X-32072152Y1595000D01*
X-32287848Y1595000D01*
X-32499400Y1552920D01*
X-32698677Y1470376D01*
X-32815000Y1392652D01*
X-32931323Y1470376D01*
X-33130600Y1552920D01*
X-33342152Y1595000D01*
X-33557848Y1595000D01*
X-33769400Y1552920D01*
X-33968677Y1470376D01*
X-34085000Y1392652D01*
X-34201323Y1470376D01*
X-34400600Y1552920D01*
X-34612152Y1595000D01*
X-34827848Y1595000D01*
X-35039400Y1552920D01*
X-35238677Y1470376D01*
X-35355000Y1392652D01*
X-35471323Y1470376D01*
X-35670600Y1552920D01*
X-35882152Y1595000D01*
X-36097848Y1595000D01*
X-36309400Y1552920D01*
X-36508677Y1470376D01*
X-36625000Y1392652D01*
X-36741323Y1470376D01*
X-36940600Y1552920D01*
X-37152152Y1595000D01*
X-37367848Y1595000D01*
X-37579400Y1552920D01*
X-37778677Y1470376D01*
X-37895000Y1392652D01*
X-38011323Y1470376D01*
X-38210600Y1552920D01*
X-38422152Y1595000D01*
X-38637848Y1595000D01*
X-38666383Y1589324D01*
X-38681841Y1608159D01*
X-38707795Y1629459D01*
X-39015541Y1937205D01*
X-39036841Y1963159D01*
X-39140384Y2048135D01*
X-39258516Y2111278D01*
X-39386697Y2150161D01*
X-39486596Y2160000D01*
X-39520000Y2163290D01*
X-39553404Y2160000D01*
X-44851962Y2160000D01*
X-44852496Y2160162D01*
X-44952395Y2170001D01*
X-44985799Y2173291D01*
X-45019203Y2170001D01*
X-52476603Y2170001D01*
X-52510000Y2173290D01*
X-52543397Y2170001D01*
X-52543403Y2170001D01*
X-52629372Y2161534D01*
X-52643303Y2160162D01*
X-52771483Y2121279D01*
X-52889615Y2058136D01*
X-52993158Y1973160D01*
X-53014454Y1947211D01*
X-53231299Y1730366D01*
X-53324289Y1823356D01*
X-53497902Y1939360D01*
X-53690809Y2019265D01*
X-53895599Y2060000D01*
X-54104401Y2060000D01*
X-54309191Y2019265D01*
X-54500000Y1940229D01*
X-54690809Y2019265D01*
X-54895599Y2060000D01*
X-55104401Y2060000D01*
X-55309191Y2019265D01*
X-55502098Y1939360D01*
X-55675711Y1823356D01*
X-55823356Y1675711D01*
X-55939360Y1502098D01*
X-56019265Y1309191D01*
X-56060000Y1104401D01*
X-56060000Y902637D01*
X-56128135Y819615D01*
X-56133360Y809839D01*
X-56191279Y701482D01*
X-56230162Y573302D01*
X-56243291Y439999D01*
X-56240001Y406595D01*
X-56240001Y-235397D01*
X-56243291Y-268801D01*
X-56230162Y-402104D01*
X-56199829Y-502098D01*
X-56191279Y-530284D01*
X-56128136Y-648416D01*
X-56043160Y-751959D01*
X-56017210Y-773256D01*
X-55773260Y-1017206D01*
X-55751960Y-1043160D01*
X-55648417Y-1128136D01*
X-55559616Y-1175601D01*
X-55530285Y-1191279D01*
X-55402105Y-1230162D01*
X-55323789Y-1237875D01*
X-54514454Y-2047211D01*
X-54493158Y-2073160D01*
X-54389615Y-2158136D01*
X-54271487Y-2221277D01*
X-54271483Y-2221279D01*
X-54143303Y-2260162D01*
X-54009999Y-2273291D01*
X-53976595Y-2270001D01*
X-40573405Y-2270001D01*
X-40540001Y-2273291D01*
X-40506597Y-2270001D01*
X-40506586Y-2270000D01*
X-40406698Y-2260162D01*
X-40302510Y-2228557D01*
X-40278517Y-2221279D01*
X-40160385Y-2158136D01*
X-40056842Y-2073160D01*
X-40035542Y-2047206D01*
X-39595313Y-1606978D01*
X-39484400Y-1652920D01*
X-39272848Y-1695000D01*
X-39057152Y-1695000D01*
X-38845600Y-1652920D01*
X-38646323Y-1570376D01*
X-38530000Y-1492652D01*
X-38413677Y-1570376D01*
X-38214400Y-1652920D01*
X-38002848Y-1695000D01*
X-37787152Y-1695000D01*
X-37575600Y-1652920D01*
X-37464687Y-1606978D01*
X-35481666Y-3590000D01*
X-56840000Y-3590000D01*
X-56840000Y3340000D01*
X13340000Y3340000D01*
X13340001Y-3590000D01*
G37*
%TD.AperFunction*%
D15*
X-42165000Y607848D02*
X-42165000Y392152D01*
X-42122920Y180600D01*
X-42040376Y-18677D01*
X-41920542Y-198022D01*
X-41768022Y-350542D01*
X-41588677Y-470376D01*
X-41530000Y-494681D01*
X-41530000Y-707848D01*
X-41489790Y-910001D01*
X-43873143Y-910001D01*
X-43763396Y-645046D01*
X-43685000Y-250922D01*
X-43685000Y150922D01*
X-43763396Y545046D01*
X-43869001Y800000D01*
X-42126779Y800000D01*
X-42165000Y607848D01*
%TA.AperFunction,NonConductor*%
D16*
G36*
X-42165000Y607848D02*
G01*
X-42165000Y392152D01*
X-42122920Y180600D01*
X-42040376Y-18677D01*
X-41920542Y-198022D01*
X-41768022Y-350542D01*
X-41588677Y-470376D01*
X-41530000Y-494681D01*
X-41530000Y-707848D01*
X-41489790Y-910001D01*
X-43873143Y-910001D01*
X-43763396Y-645046D01*
X-43685000Y-250922D01*
X-43685000Y150922D01*
X-43763396Y545046D01*
X-43869001Y800000D01*
X-42126779Y800000D01*
X-42165000Y607848D01*
G37*
%TD.AperFunction*%
D15*
X-47686604Y545046D02*
X-47765000Y150922D01*
X-47765000Y-250922D01*
X-47686604Y-645046D01*
X-47576857Y-910001D01*
X-53165020Y-910001D01*
X-53123815Y-876185D01*
X-53044463Y-779494D01*
X-52985498Y-669180D01*
X-52949188Y-549482D01*
X-52936928Y-425000D01*
X-52936928Y322922D01*
X-52866697Y329839D01*
X-52738516Y368722D01*
X-52620384Y431865D01*
X-52516841Y516841D01*
X-52495541Y542795D01*
X-52228334Y810001D01*
X-47576857Y810001D01*
X-47686604Y545046D01*
%TA.AperFunction,NonConductor*%
D16*
G36*
X-47686604Y545046D02*
G01*
X-47765000Y150922D01*
X-47765000Y-250922D01*
X-47686604Y-645046D01*
X-47576857Y-910001D01*
X-53165020Y-910001D01*
X-53123815Y-876185D01*
X-53044463Y-779494D01*
X-52985498Y-669180D01*
X-52949188Y-549482D01*
X-52936928Y-425000D01*
X-52936928Y322922D01*
X-52866697Y329839D01*
X-52738516Y368722D01*
X-52620384Y431865D01*
X-52516841Y516841D01*
X-52495541Y542795D01*
X-52228334Y810001D01*
X-47576857Y810001D01*
X-47686604Y545046D01*
G37*
%TD.AperFunction*%
M02*
