%TF.GenerationSoftware,KiCad,Pcbnew,(5.1.10)-1*%
%TF.CreationDate,2022-07-14T13:26:39-06:00*%
%TF.ProjectId,21to25,3231746f-3235-42e6-9b69-6361645f7063,rev?*%
%TF.SameCoordinates,Original*%
%TF.FileFunction,Copper,L1,Top*%
%TF.FilePolarity,Positive*%
%FSLAX46Y46*%
G04 Gerber Fmt 4.6, Leading zero omitted, Abs format (unit mm)*
G04 Created by KiCad (PCBNEW (5.1.10)-1) date 2022-07-14 13:26:39*
%MOMM*%
%LPD*%
G01*
G04 APERTURE LIST*
%TA.AperFunction,ComponentPad*%
%ADD10C,3.600000*%
%TD*%
%TA.AperFunction,ComponentPad*%
%ADD11O,0.920000X0.920000*%
%TD*%
%TA.AperFunction,ComponentPad*%
%ADD12O,1.700000X1.700000*%
%TD*%
%TA.AperFunction,ComponentPad*%
%ADD13R,1.700000X1.700000*%
%TD*%
%TA.AperFunction,ComponentPad*%
%ADD14O,0.850000X0.850000*%
%TD*%
%TA.AperFunction,ComponentPad*%
%ADD15R,0.850000X0.850000*%
%TD*%
%TA.AperFunction,Conductor*%
%ADD16C,0.135000*%
%TD*%
%TA.AperFunction,Conductor*%
%ADD17C,0.254000*%
%TD*%
%TA.AperFunction,Conductor*%
%ADD18C,0.100000*%
%TD*%
G04 APERTURE END LIST*
D10*
%TO.P,J2,0*%
%TO.N,GND*%
X-21175000Y-50000D03*
X-45725000Y-50000D03*
D11*
%TO.P,J2,13*%
%TO.N,Net-(J2-Pad13)*%
X-41070000Y500000D03*
%TO.P,J2,25*%
%TO.N,Net-(J1-Pad4)*%
X-40435000Y-600000D03*
%TO.P,J2,12*%
%TO.N,Net-(J1-Pad3)*%
X-39800000Y500000D03*
%TO.P,J2,24*%
%TO.N,Net-(J1-Pad2)*%
X-39165000Y-600000D03*
%TO.P,J2,11*%
%TO.N,Net-(J1-Pad1)*%
X-38530000Y500000D03*
%TO.P,J2,23*%
%TO.N,/23*%
X-37895000Y-600000D03*
%TO.P,J2,10*%
%TO.N,/10*%
X-37260000Y500000D03*
%TO.P,J2,22*%
%TO.N,/22*%
X-36625000Y-600000D03*
%TO.P,J2,9*%
%TO.N,/9*%
X-35990000Y500000D03*
%TO.P,J2,21*%
%TO.N,Net-(J2-Pad21)*%
X-35355000Y-600000D03*
%TO.P,J2,8*%
%TO.N,Net-(J2-Pad8)*%
X-34720000Y500000D03*
%TO.P,J2,20*%
%TO.N,Net-(J2-Pad20)*%
X-34085000Y-600000D03*
%TO.P,J2,7*%
%TO.N,Net-(J2-Pad7)*%
X-33450000Y500000D03*
%TO.P,J2,19*%
%TO.N,Net-(J2-Pad19)*%
X-32815000Y-600000D03*
%TO.P,J2,6*%
%TO.N,Net-(J2-Pad6)*%
X-32180000Y500000D03*
%TO.P,J2,18*%
%TO.N,Net-(J2-Pad18)*%
X-31545000Y-600000D03*
%TO.P,J2,5*%
%TO.N,Net-(J2-Pad5)*%
X-30910000Y500000D03*
%TO.P,J2,17*%
%TO.N,Net-(J2-Pad17)*%
X-30275000Y-600000D03*
%TO.P,J2,4*%
%TO.N,Net-(J2-Pad4)*%
X-29640000Y500000D03*
%TO.P,J2,16*%
%TO.N,Net-(J2-Pad16)*%
X-29005000Y-600000D03*
%TO.P,J2,3*%
%TO.N,Net-(J2-Pad3)*%
X-28370000Y500000D03*
%TO.P,J2,15*%
%TO.N,Net-(J2-Pad15)*%
X-27735000Y-600000D03*
%TO.P,J2,2*%
%TO.N,Net-(J2-Pad2)*%
X-27100000Y500000D03*
%TO.P,J2,14*%
%TO.N,Net-(J2-Pad14)*%
X-26465000Y-600000D03*
%TO.P,J2,1*%
%TO.N,Net-(J2-Pad1)*%
X-25830000Y500000D03*
%TD*%
D12*
%TO.P,J5,2*%
%TO.N,/22*%
X-64040000Y-2000000D03*
D13*
%TO.P,J5,1*%
%TO.N,/9*%
X-61500000Y-2000000D03*
%TD*%
D12*
%TO.P,J4,2*%
%TO.N,/22*%
X-57540000Y-2000000D03*
D13*
%TO.P,J4,1*%
%TO.N,/9*%
X-55000000Y-2000000D03*
%TD*%
D12*
%TO.P,J11,2*%
%TO.N,/23*%
X-77040000Y2000000D03*
D13*
%TO.P,J11,1*%
%TO.N,/10*%
X-74500000Y2000000D03*
%TD*%
D12*
%TO.P,J10,2*%
%TO.N,/23*%
X-70540000Y2000000D03*
D13*
%TO.P,J10,1*%
%TO.N,/10*%
X-68000000Y2000000D03*
%TD*%
D12*
%TO.P,J9,2*%
%TO.N,/23*%
X-64040000Y2000000D03*
D13*
%TO.P,J9,1*%
%TO.N,/10*%
X-61500000Y2000000D03*
%TD*%
D12*
%TO.P,J8,2*%
%TO.N,/23*%
X-57540000Y2000000D03*
D13*
%TO.P,J8,1*%
%TO.N,/10*%
X-55000000Y2000000D03*
%TD*%
D12*
%TO.P,J7,2*%
%TO.N,/22*%
X-70540000Y-2000000D03*
D13*
%TO.P,J7,1*%
%TO.N,/9*%
X-68000000Y-2000000D03*
%TD*%
D12*
%TO.P,J6,2*%
%TO.N,/22*%
X-77040000Y-2000000D03*
D13*
%TO.P,J6,1*%
%TO.N,/9*%
X-74500000Y-2000000D03*
%TD*%
D10*
%TO.P,J3,0*%
%TO.N,GND*%
X-10986000Y-170000D03*
X10986000Y-170000D03*
D11*
%TO.P,J3,1*%
%TO.N,Net-(J2-Pad1)*%
X-6350000Y-300000D03*
%TO.P,J3,12*%
%TO.N,Net-(J2-Pad14)*%
X-5710000Y800000D03*
%TO.P,J3,2*%
%TO.N,Net-(J2-Pad2)*%
X-5080000Y-300000D03*
%TO.P,J3,3*%
%TO.N,Net-(J3-Pad3)*%
X-3810000Y-300000D03*
%TO.P,J3,4*%
%TO.N,Net-(J2-Pad3)*%
X-2540000Y-300000D03*
%TO.P,J3,5*%
%TO.N,Net-(J2-Pad4)*%
X-1270000Y-300000D03*
%TO.P,J3,6*%
%TO.N,Net-(J2-Pad5)*%
X0Y-300000D03*
%TO.P,J3,7*%
%TO.N,Net-(J2-Pad6)*%
X1270000Y-300000D03*
%TO.P,J3,8*%
%TO.N,Net-(J2-Pad7)*%
X2540000Y-300000D03*
%TO.P,J3,9*%
%TO.N,Net-(J2-Pad8)*%
X3810000Y-300000D03*
%TO.P,J3,10*%
%TO.N,/9*%
X5080000Y-300000D03*
%TO.P,J3,11*%
%TO.N,/10*%
X6350000Y-300000D03*
%TO.P,J3,13*%
%TO.N,Net-(J2-Pad15)*%
X-4440000Y800000D03*
%TO.P,J3,14*%
%TO.N,Net-(J2-Pad16)*%
X-3170000Y800000D03*
%TO.P,J3,15*%
%TO.N,Net-(J2-Pad17)*%
X-1900000Y800000D03*
%TO.P,J3,16*%
%TO.N,Net-(J2-Pad18)*%
X-630000Y800000D03*
%TO.P,J3,17*%
%TO.N,Net-(J2-Pad19)*%
X640000Y800000D03*
%TO.P,J3,18*%
%TO.N,Net-(J2-Pad20)*%
X1910000Y800000D03*
%TO.P,J3,19*%
%TO.N,Net-(J2-Pad21)*%
X3180000Y800000D03*
%TO.P,J3,20*%
%TO.N,/22*%
X4450000Y800000D03*
%TO.P,J3,21*%
%TO.N,/23*%
X5720000Y800000D03*
%TD*%
D14*
%TO.P,J1,4*%
%TO.N,Net-(J1-Pad4)*%
X-50250000Y500000D03*
%TO.P,J1,3*%
%TO.N,Net-(J1-Pad3)*%
X-50250000Y-500000D03*
%TO.P,J1,2*%
%TO.N,Net-(J1-Pad2)*%
X-51250000Y500000D03*
D15*
%TO.P,J1,1*%
%TO.N,Net-(J1-Pad1)*%
X-51250000Y-500000D03*
%TD*%
D16*
%TO.N,Net-(J1-Pad4)*%
X-41085538Y-600000D02*
X-43805538Y2120000D01*
X-40435000Y-600000D02*
X-41085538Y-600000D01*
X-48630000Y2120000D02*
X-50250000Y500000D01*
X-43805538Y2120000D02*
X-48630000Y2120000D01*
%TO.N,Net-(J1-Pad3)*%
X-50250000Y-500000D02*
X-48530000Y-2220000D01*
X-41141098Y-2220000D02*
X-48530000Y-2220000D01*
X-39800000Y-878902D02*
X-41141098Y-2220000D01*
X-39800000Y500000D02*
X-39800000Y-878902D01*
%TO.N,Net-(J1-Pad2)*%
X-40405009Y2345009D02*
X-39165000Y1105000D01*
X-49404991Y2345009D02*
X-40405009Y2345009D01*
X-51250000Y500000D02*
X-49404991Y2345009D01*
X-39165000Y-600000D02*
X-39165000Y1105000D01*
%TO.N,Net-(J1-Pad1)*%
X-38530000Y-1730000D02*
X-38530000Y500000D01*
X-39245010Y-2445010D02*
X-38530000Y-1730000D01*
X-49304990Y-2445010D02*
X-39245010Y-2445010D01*
X-51250000Y-500000D02*
X-49304990Y-2445010D01*
%TO.N,Net-(J2-Pad8)*%
X-32818882Y-2780020D02*
X1329980Y-2780020D01*
X1329980Y-2780020D02*
X3810000Y-300000D01*
X-34720000Y-878902D02*
X-32818882Y-2780020D01*
X-34720000Y500000D02*
X-34720000Y-878902D01*
%TO.N,Net-(J2-Pad7)*%
X284990Y-2555010D02*
X2540000Y-300000D01*
X-31773892Y-2555010D02*
X284990Y-2555010D01*
X-33450000Y-878902D02*
X-31773892Y-2555010D01*
X-33450000Y500000D02*
X-33450000Y-878902D01*
%TO.N,Net-(J2-Pad6)*%
X-32180000Y-878902D02*
X-30728902Y-2330000D01*
X-32180000Y500000D02*
X-32180000Y-878902D01*
X-760000Y-2330000D02*
X1270000Y-300000D01*
X-30728902Y-2330000D02*
X-760000Y-2330000D01*
%TO.N,Net-(J2-Pad5)*%
X-28509962Y2900038D02*
X-30910000Y500000D01*
X-1816136Y2900038D02*
X-28509962Y2900038D01*
X0Y1083902D02*
X-1816136Y2900038D01*
X0Y-300000D02*
X0Y1083902D01*
%TO.N,Net-(J2-Pad4)*%
X-2861127Y2675029D02*
X-27464971Y2675029D01*
X-27464971Y2675029D02*
X-29640000Y500000D01*
X-1270000Y1083902D02*
X-2861127Y2675029D01*
X-1270000Y-300000D02*
X-1270000Y1083902D01*
%TO.N,Net-(J2-Pad3)*%
X-3906117Y2450019D02*
X-26419981Y2450019D01*
X-2540000Y1083902D02*
X-3906117Y2450019D01*
X-26419981Y2450019D02*
X-28370000Y500000D01*
X-2540000Y-300000D02*
X-2540000Y1083902D01*
%TO.N,Net-(J2-Pad2)*%
X-5080000Y1083902D02*
X-5080000Y-300000D01*
X-6221107Y2225009D02*
X-5080000Y1083902D01*
X-25374991Y2225009D02*
X-6221107Y2225009D01*
X-27100000Y500000D02*
X-25374991Y2225009D01*
%TO.N,Net-(J2-Pad1)*%
X-6350000Y-300000D02*
X-8650000Y2000000D01*
X-24330000Y2000000D02*
X-25830000Y500000D01*
X-8650000Y2000000D02*
X-24330000Y2000000D01*
%TO.N,/23*%
X-63032499Y992499D02*
X-64040000Y2000000D01*
X-58547501Y992499D02*
X-63032499Y992499D01*
X-57540000Y2000000D02*
X-58547501Y992499D01*
X-69532499Y992499D02*
X-70540000Y2000000D01*
X-65047501Y992499D02*
X-69532499Y992499D01*
X-64040000Y2000000D02*
X-65047501Y992499D01*
X-76032499Y992499D02*
X-77040000Y2000000D01*
X-71547501Y992499D02*
X-76032499Y992499D01*
X-70540000Y2000000D02*
X-71547501Y992499D01*
X-52229981Y2570019D02*
X-53807501Y992499D01*
X-39648231Y2570019D02*
X-52229981Y2570019D01*
X-53807501Y992499D02*
X-56532499Y992499D01*
X-39246098Y2167886D02*
X-39648231Y2570019D01*
X-39246098Y2130000D02*
X-39246098Y2167886D01*
X-56532499Y992499D02*
X-57540000Y2000000D01*
X-37895000Y778902D02*
X-39246098Y2130000D01*
X-37895000Y-600000D02*
X-37895000Y778902D01*
%TO.N,/10*%
X-55000000Y2000000D02*
X-54644990Y2355010D01*
X-69007501Y3007501D02*
X-68000000Y2000000D01*
X-73492499Y3007501D02*
X-69007501Y3007501D01*
X-74500000Y2000000D02*
X-73492499Y3007501D01*
X-62507501Y3007501D02*
X-61500000Y2000000D01*
X-66992499Y3007501D02*
X-62507501Y3007501D01*
X-68000000Y2000000D02*
X-66992499Y3007501D01*
X-56007501Y3007501D02*
X-55000000Y2000000D01*
X-60492499Y3007501D02*
X-56007501Y3007501D01*
X-61500000Y2000000D02*
X-60492499Y3007501D01*
X6350000Y1083902D02*
X6350000Y-300000D01*
X4308855Y3125047D02*
X6350000Y1083902D01*
X-34634953Y3125047D02*
X4308855Y3125047D01*
X-37260000Y500000D02*
X-34634953Y3125047D01*
X-54204972Y2795028D02*
X-55000000Y2000000D01*
X-39555028Y2795028D02*
X-54204972Y2795028D01*
X-37260000Y500000D02*
X-39555028Y2795028D01*
%TO.N,/22*%
X-63032499Y-992499D02*
X-64040000Y-2000000D01*
X-58547501Y-992499D02*
X-63032499Y-992499D01*
X-57540000Y-2000000D02*
X-58547501Y-992499D01*
X-69532499Y-992499D02*
X-70540000Y-2000000D01*
X-65047501Y-992499D02*
X-69532499Y-992499D01*
X-64040000Y-2000000D02*
X-65047501Y-992499D01*
X-76032499Y-992499D02*
X-77040000Y-2000000D01*
X-71547501Y-992499D02*
X-76032499Y-992499D01*
X-70540000Y-2000000D02*
X-71547501Y-992499D01*
%TO.N,/9*%
X2374971Y-3005029D02*
X5080000Y-300000D01*
X-33863873Y-3005029D02*
X2374971Y-3005029D01*
X-35990000Y-878902D02*
X-33863873Y-3005029D01*
X-35990000Y500000D02*
X-35990000Y-878902D01*
X-53994970Y-3005030D02*
X-32354971Y-3005030D01*
X-55000000Y-2000000D02*
X-53994970Y-3005030D01*
X-60492499Y-3007501D02*
X-61500000Y-2000000D01*
X-56007501Y-3007501D02*
X-60492499Y-3007501D01*
X-55000000Y-2000000D02*
X-56007501Y-3007501D01*
X-66992499Y-3007501D02*
X-68000000Y-2000000D01*
X-62507501Y-3007501D02*
X-66992499Y-3007501D01*
X-61500000Y-2000000D02*
X-62507501Y-3007501D01*
X-73492499Y-3007501D02*
X-74500000Y-2000000D01*
X-69992501Y-3007501D02*
X-73492499Y-3007501D01*
X-68985000Y-2000000D02*
X-69992501Y-3007501D01*
X-68000000Y-2000000D02*
X-68985000Y-2000000D01*
%TD*%
D17*
%TO.N,GND*%
X-57569004Y3653093D02*
X-57517292Y3648000D01*
X13648000Y3648000D01*
X13648001Y-3898000D01*
X-57517292Y-3898000D01*
X-57569004Y-3903093D01*
X-57618145Y-3918000D01*
X-78898000Y-3918000D01*
X-78898000Y2115924D01*
X-78217000Y2115924D01*
X-78217000Y1884076D01*
X-78171769Y1656682D01*
X-78083044Y1442481D01*
X-77954236Y1249706D01*
X-77790294Y1085764D01*
X-77597519Y956956D01*
X-77383318Y868231D01*
X-77155924Y823000D01*
X-76924076Y823000D01*
X-76696682Y868231D01*
X-76533663Y935756D01*
X-76325153Y727246D01*
X-76312802Y712196D01*
X-76282702Y687494D01*
X-76252732Y662898D01*
X-76185953Y627204D01*
X-76184198Y626266D01*
X-76109834Y603708D01*
X-76051871Y597999D01*
X-76051869Y597999D01*
X-76032499Y596091D01*
X-76013130Y597999D01*
X-71566870Y597999D01*
X-71547501Y596091D01*
X-71528132Y597999D01*
X-71528129Y597999D01*
X-71470166Y603708D01*
X-71395802Y626266D01*
X-71327269Y662898D01*
X-71267198Y712196D01*
X-71254843Y727251D01*
X-71046338Y935756D01*
X-70883318Y868231D01*
X-70655924Y823000D01*
X-70424076Y823000D01*
X-70196682Y868231D01*
X-70033663Y935756D01*
X-69825153Y727246D01*
X-69812802Y712196D01*
X-69782702Y687494D01*
X-69752732Y662898D01*
X-69685953Y627204D01*
X-69684198Y626266D01*
X-69609834Y603708D01*
X-69551871Y597999D01*
X-69551869Y597999D01*
X-69532499Y596091D01*
X-69513130Y597999D01*
X-65066870Y597999D01*
X-65047501Y596091D01*
X-65028132Y597999D01*
X-65028129Y597999D01*
X-64970166Y603708D01*
X-64895802Y626266D01*
X-64827269Y662898D01*
X-64767198Y712196D01*
X-64754843Y727251D01*
X-64546338Y935756D01*
X-64383318Y868231D01*
X-64155924Y823000D01*
X-63924076Y823000D01*
X-63696682Y868231D01*
X-63533663Y935756D01*
X-63325153Y727246D01*
X-63312802Y712196D01*
X-63282702Y687494D01*
X-63252732Y662898D01*
X-63185953Y627204D01*
X-63184198Y626266D01*
X-63109834Y603708D01*
X-63051871Y597999D01*
X-63051869Y597999D01*
X-63032499Y596091D01*
X-63013130Y597999D01*
X-58566870Y597999D01*
X-58547501Y596091D01*
X-58528132Y597999D01*
X-58528129Y597999D01*
X-58470166Y603708D01*
X-58395802Y626266D01*
X-58327269Y662898D01*
X-58267198Y712196D01*
X-58254843Y727251D01*
X-58046338Y935756D01*
X-57883318Y868231D01*
X-57655924Y823000D01*
X-57424076Y823000D01*
X-57196682Y868231D01*
X-57033663Y935756D01*
X-56825153Y727246D01*
X-56812802Y712196D01*
X-56782702Y687494D01*
X-56752732Y662898D01*
X-56685953Y627204D01*
X-56684198Y626266D01*
X-56609834Y603708D01*
X-56551871Y597999D01*
X-56551869Y597999D01*
X-56532499Y596091D01*
X-56513130Y597999D01*
X-53826870Y597999D01*
X-53807501Y596091D01*
X-53788132Y597999D01*
X-53788129Y597999D01*
X-53730166Y603708D01*
X-53655802Y626266D01*
X-53587269Y662898D01*
X-53527198Y712196D01*
X-53514843Y727251D01*
X-52066574Y2175519D01*
X-50132388Y2175519D01*
X-51075820Y1232086D01*
X-51175934Y1252000D01*
X-51324066Y1252000D01*
X-51469350Y1223101D01*
X-51606206Y1166414D01*
X-51729372Y1084117D01*
X-51834117Y979372D01*
X-51916414Y856206D01*
X-51973101Y719350D01*
X-52002000Y574066D01*
X-52002000Y425934D01*
X-51973101Y280650D01*
X-51917101Y145453D01*
X-51948206Y107550D01*
X-51978570Y50743D01*
X-51997268Y-10897D01*
X-52003582Y-75000D01*
X-52003582Y-925000D01*
X-51997268Y-989103D01*
X-51978570Y-1050743D01*
X-51948206Y-1107550D01*
X-51907343Y-1157343D01*
X-51857550Y-1198206D01*
X-51800743Y-1228570D01*
X-51739103Y-1247268D01*
X-51675000Y-1253582D01*
X-51054324Y-1253582D01*
X-49697378Y-2610530D01*
X-53821418Y-2610530D01*
X-53821418Y-1150000D01*
X-53827732Y-1085897D01*
X-53846430Y-1024257D01*
X-53876794Y-967450D01*
X-53917657Y-917657D01*
X-53967450Y-876794D01*
X-54024257Y-846430D01*
X-54085897Y-827732D01*
X-54150000Y-821418D01*
X-55850000Y-821418D01*
X-55914103Y-827732D01*
X-55975743Y-846430D01*
X-56032550Y-876794D01*
X-56082343Y-917657D01*
X-56123206Y-967450D01*
X-56153570Y-1024257D01*
X-56172268Y-1085897D01*
X-56178582Y-1150000D01*
X-56178582Y-2613001D01*
X-56534028Y-2613001D01*
X-56496956Y-2557519D01*
X-56408231Y-2343318D01*
X-56363000Y-2115924D01*
X-56363000Y-1884076D01*
X-56408231Y-1656682D01*
X-56496956Y-1442481D01*
X-56625764Y-1249706D01*
X-56789706Y-1085764D01*
X-56982481Y-956956D01*
X-57196682Y-868231D01*
X-57424076Y-823000D01*
X-57655924Y-823000D01*
X-57883318Y-868231D01*
X-58046338Y-935756D01*
X-58254843Y-727251D01*
X-58267198Y-712196D01*
X-58327269Y-662898D01*
X-58395802Y-626266D01*
X-58470166Y-603708D01*
X-58528129Y-597999D01*
X-58528132Y-597999D01*
X-58547501Y-596091D01*
X-58566870Y-597999D01*
X-63013130Y-597999D01*
X-63032499Y-596091D01*
X-63051869Y-597999D01*
X-63051871Y-597999D01*
X-63109834Y-603708D01*
X-63161471Y-619372D01*
X-63184198Y-626266D01*
X-63252732Y-662898D01*
X-63270322Y-677334D01*
X-63312802Y-712196D01*
X-63325153Y-727246D01*
X-63533663Y-935756D01*
X-63696682Y-868231D01*
X-63924076Y-823000D01*
X-64155924Y-823000D01*
X-64383318Y-868231D01*
X-64546338Y-935756D01*
X-64754843Y-727251D01*
X-64767198Y-712196D01*
X-64827269Y-662898D01*
X-64895802Y-626266D01*
X-64970166Y-603708D01*
X-65028129Y-597999D01*
X-65028132Y-597999D01*
X-65047501Y-596091D01*
X-65066870Y-597999D01*
X-69513130Y-597999D01*
X-69532499Y-596091D01*
X-69551869Y-597999D01*
X-69551871Y-597999D01*
X-69609834Y-603708D01*
X-69661471Y-619372D01*
X-69684198Y-626266D01*
X-69752732Y-662898D01*
X-69770322Y-677334D01*
X-69812802Y-712196D01*
X-69825153Y-727246D01*
X-70033663Y-935756D01*
X-70196682Y-868231D01*
X-70424076Y-823000D01*
X-70655924Y-823000D01*
X-70883318Y-868231D01*
X-71046338Y-935756D01*
X-71254843Y-727251D01*
X-71267198Y-712196D01*
X-71327269Y-662898D01*
X-71395802Y-626266D01*
X-71470166Y-603708D01*
X-71528129Y-597999D01*
X-71528132Y-597999D01*
X-71547501Y-596091D01*
X-71566870Y-597999D01*
X-76013130Y-597999D01*
X-76032499Y-596091D01*
X-76051869Y-597999D01*
X-76051871Y-597999D01*
X-76109834Y-603708D01*
X-76161471Y-619372D01*
X-76184198Y-626266D01*
X-76252732Y-662898D01*
X-76270322Y-677334D01*
X-76312802Y-712196D01*
X-76325153Y-727246D01*
X-76533663Y-935756D01*
X-76696682Y-868231D01*
X-76924076Y-823000D01*
X-77155924Y-823000D01*
X-77383318Y-868231D01*
X-77597519Y-956956D01*
X-77790294Y-1085764D01*
X-77954236Y-1249706D01*
X-78083044Y-1442481D01*
X-78171769Y-1656682D01*
X-78217000Y-1884076D01*
X-78217000Y-2115924D01*
X-78171769Y-2343318D01*
X-78083044Y-2557519D01*
X-77954236Y-2750294D01*
X-77790294Y-2914236D01*
X-77597519Y-3043044D01*
X-77383318Y-3131769D01*
X-77155924Y-3177000D01*
X-76924076Y-3177000D01*
X-76696682Y-3131769D01*
X-76482481Y-3043044D01*
X-76289706Y-2914236D01*
X-76125764Y-2750294D01*
X-75996956Y-2557519D01*
X-75908231Y-2343318D01*
X-75863000Y-2115924D01*
X-75863000Y-1884076D01*
X-75908231Y-1656682D01*
X-75975756Y-1493663D01*
X-75869092Y-1386999D01*
X-75678582Y-1386999D01*
X-75678582Y-2850000D01*
X-75672268Y-2914103D01*
X-75653570Y-2975743D01*
X-75623206Y-3032550D01*
X-75582343Y-3082343D01*
X-75532550Y-3123206D01*
X-75475743Y-3153570D01*
X-75414103Y-3172268D01*
X-75350000Y-3178582D01*
X-73879325Y-3178582D01*
X-73785153Y-3272754D01*
X-73772802Y-3287804D01*
X-73740617Y-3314217D01*
X-73712732Y-3337102D01*
X-73648823Y-3371262D01*
X-73644198Y-3373734D01*
X-73569834Y-3396292D01*
X-73511871Y-3402001D01*
X-73511869Y-3402001D01*
X-73492499Y-3403909D01*
X-73473130Y-3402001D01*
X-70011870Y-3402001D01*
X-69992501Y-3403909D01*
X-69973132Y-3402001D01*
X-69973129Y-3402001D01*
X-69915166Y-3396292D01*
X-69840802Y-3373734D01*
X-69772269Y-3337102D01*
X-69712198Y-3287804D01*
X-69699843Y-3272749D01*
X-69178582Y-2751489D01*
X-69178582Y-2850000D01*
X-69172268Y-2914103D01*
X-69153570Y-2975743D01*
X-69123206Y-3032550D01*
X-69082343Y-3082343D01*
X-69032550Y-3123206D01*
X-68975743Y-3153570D01*
X-68914103Y-3172268D01*
X-68850000Y-3178582D01*
X-67379325Y-3178582D01*
X-67285153Y-3272754D01*
X-67272802Y-3287804D01*
X-67240617Y-3314217D01*
X-67212732Y-3337102D01*
X-67148823Y-3371262D01*
X-67144198Y-3373734D01*
X-67069834Y-3396292D01*
X-67011871Y-3402001D01*
X-67011869Y-3402001D01*
X-66992499Y-3403909D01*
X-66973130Y-3402001D01*
X-62526870Y-3402001D01*
X-62507501Y-3403909D01*
X-62488132Y-3402001D01*
X-62488129Y-3402001D01*
X-62430166Y-3396292D01*
X-62355802Y-3373734D01*
X-62287269Y-3337102D01*
X-62227198Y-3287804D01*
X-62214843Y-3272749D01*
X-62120676Y-3178582D01*
X-60879325Y-3178582D01*
X-60785153Y-3272754D01*
X-60772802Y-3287804D01*
X-60740617Y-3314217D01*
X-60712732Y-3337102D01*
X-60648823Y-3371262D01*
X-60644198Y-3373734D01*
X-60569834Y-3396292D01*
X-60511871Y-3402001D01*
X-60511869Y-3402001D01*
X-60492499Y-3403909D01*
X-60473130Y-3402001D01*
X-56026870Y-3402001D01*
X-56007501Y-3403909D01*
X-55988132Y-3402001D01*
X-55988129Y-3402001D01*
X-55930166Y-3396292D01*
X-55855802Y-3373734D01*
X-55787269Y-3337102D01*
X-55727198Y-3287804D01*
X-55714843Y-3272749D01*
X-55620676Y-3178582D01*
X-54379325Y-3178582D01*
X-54287624Y-3270283D01*
X-54275273Y-3285333D01*
X-54215202Y-3334631D01*
X-54146669Y-3371263D01*
X-54072305Y-3393821D01*
X-54014342Y-3399530D01*
X-54014340Y-3399530D01*
X-53994971Y-3401438D01*
X-53975601Y-3399530D01*
X-33883232Y-3399530D01*
X-33863873Y-3401437D01*
X-33844514Y-3399530D01*
X-32335599Y-3399530D01*
X-32335589Y-3399529D01*
X2355602Y-3399529D01*
X2374971Y-3401437D01*
X2394340Y-3399529D01*
X2394343Y-3399529D01*
X2452306Y-3393820D01*
X2526670Y-3371262D01*
X2595203Y-3334630D01*
X2655274Y-3285332D01*
X2667629Y-3270277D01*
X4876056Y-1061851D01*
X5002487Y-1087000D01*
X5157513Y-1087000D01*
X5309559Y-1056756D01*
X5452784Y-997430D01*
X5581683Y-911303D01*
X5691303Y-801683D01*
X5715000Y-766218D01*
X5738697Y-801683D01*
X5848317Y-911303D01*
X5977216Y-997430D01*
X6120441Y-1056756D01*
X6272487Y-1087000D01*
X6427513Y-1087000D01*
X6579559Y-1056756D01*
X6722784Y-997430D01*
X6851683Y-911303D01*
X6961303Y-801683D01*
X7047430Y-672784D01*
X7106756Y-529559D01*
X7137000Y-377513D01*
X7137000Y-222487D01*
X7106756Y-70441D01*
X7047430Y72784D01*
X6961303Y201683D01*
X6851683Y311303D01*
X6744500Y382920D01*
X6744500Y1064533D01*
X6746408Y1083902D01*
X6743709Y1111303D01*
X6738791Y1161237D01*
X6716233Y1235601D01*
X6679601Y1304134D01*
X6630303Y1364205D01*
X6615254Y1376555D01*
X4601513Y3390295D01*
X4589158Y3405350D01*
X4529087Y3454648D01*
X4460554Y3491280D01*
X4386190Y3513838D01*
X4328227Y3519547D01*
X4328224Y3519547D01*
X4308855Y3521455D01*
X4289486Y3519547D01*
X-34615584Y3519547D01*
X-34634954Y3521455D01*
X-34654323Y3519547D01*
X-34654325Y3519547D01*
X-34712288Y3513838D01*
X-34786652Y3491280D01*
X-34855185Y3454648D01*
X-34915256Y3405350D01*
X-34927607Y3390300D01*
X-37056055Y1261851D01*
X-37182487Y1287000D01*
X-37337513Y1287000D01*
X-37463944Y1261851D01*
X-39262370Y3060276D01*
X-39274725Y3075331D01*
X-39334796Y3124629D01*
X-39403329Y3161261D01*
X-39477693Y3183819D01*
X-39535656Y3189528D01*
X-39535659Y3189528D01*
X-39555028Y3191436D01*
X-39574397Y3189528D01*
X-54185603Y3189528D01*
X-54204973Y3191436D01*
X-54224342Y3189528D01*
X-54224344Y3189528D01*
X-54282307Y3183819D01*
X-54299571Y3178582D01*
X-55620676Y3178582D01*
X-55714843Y3272749D01*
X-55727198Y3287804D01*
X-55787269Y3337102D01*
X-55855802Y3373734D01*
X-55930166Y3396292D01*
X-55988129Y3402001D01*
X-55988132Y3402001D01*
X-56007501Y3403909D01*
X-56026870Y3402001D01*
X-60473130Y3402001D01*
X-60492499Y3403909D01*
X-60511869Y3402001D01*
X-60511871Y3402001D01*
X-60569834Y3396292D01*
X-60644198Y3373734D01*
X-60712732Y3337102D01*
X-60740617Y3314217D01*
X-60772802Y3287804D01*
X-60785153Y3272754D01*
X-60879325Y3178582D01*
X-62120676Y3178582D01*
X-62214843Y3272749D01*
X-62227198Y3287804D01*
X-62287269Y3337102D01*
X-62355802Y3373734D01*
X-62430166Y3396292D01*
X-62488129Y3402001D01*
X-62488132Y3402001D01*
X-62507501Y3403909D01*
X-62526870Y3402001D01*
X-66973130Y3402001D01*
X-66992499Y3403909D01*
X-67011869Y3402001D01*
X-67011871Y3402001D01*
X-67069834Y3396292D01*
X-67144198Y3373734D01*
X-67212732Y3337102D01*
X-67240617Y3314217D01*
X-67272802Y3287804D01*
X-67285153Y3272754D01*
X-67379325Y3178582D01*
X-68620676Y3178582D01*
X-68714843Y3272749D01*
X-68727198Y3287804D01*
X-68787269Y3337102D01*
X-68855802Y3373734D01*
X-68930166Y3396292D01*
X-68988129Y3402001D01*
X-68988132Y3402001D01*
X-69007501Y3403909D01*
X-69026870Y3402001D01*
X-73473130Y3402001D01*
X-73492499Y3403909D01*
X-73511869Y3402001D01*
X-73511871Y3402001D01*
X-73569834Y3396292D01*
X-73644198Y3373734D01*
X-73712732Y3337102D01*
X-73740617Y3314217D01*
X-73772802Y3287804D01*
X-73785153Y3272754D01*
X-73879325Y3178582D01*
X-75350000Y3178582D01*
X-75414103Y3172268D01*
X-75475743Y3153570D01*
X-75532550Y3123206D01*
X-75582343Y3082343D01*
X-75623206Y3032550D01*
X-75653570Y2975743D01*
X-75672268Y2914103D01*
X-75678582Y2850000D01*
X-75678582Y1386999D01*
X-75869092Y1386999D01*
X-75975756Y1493663D01*
X-75908231Y1656682D01*
X-75863000Y1884076D01*
X-75863000Y2115924D01*
X-75908231Y2343318D01*
X-75996956Y2557519D01*
X-76125764Y2750294D01*
X-76289706Y2914236D01*
X-76482481Y3043044D01*
X-76696682Y3131769D01*
X-76924076Y3177000D01*
X-77155924Y3177000D01*
X-77383318Y3131769D01*
X-77597519Y3043044D01*
X-77790294Y2914236D01*
X-77954236Y2750294D01*
X-78083044Y2557519D01*
X-78171769Y2343318D01*
X-78217000Y2115924D01*
X-78898000Y2115924D01*
X-78898000Y3668000D01*
X-57618145Y3668000D01*
X-57569004Y3653093D01*
%TA.AperFunction,Conductor*%
D18*
G36*
X-57569004Y3653093D02*
G01*
X-57517292Y3648000D01*
X13648000Y3648000D01*
X13648001Y-3898000D01*
X-57517292Y-3898000D01*
X-57569004Y-3903093D01*
X-57618145Y-3918000D01*
X-78898000Y-3918000D01*
X-78898000Y2115924D01*
X-78217000Y2115924D01*
X-78217000Y1884076D01*
X-78171769Y1656682D01*
X-78083044Y1442481D01*
X-77954236Y1249706D01*
X-77790294Y1085764D01*
X-77597519Y956956D01*
X-77383318Y868231D01*
X-77155924Y823000D01*
X-76924076Y823000D01*
X-76696682Y868231D01*
X-76533663Y935756D01*
X-76325153Y727246D01*
X-76312802Y712196D01*
X-76282702Y687494D01*
X-76252732Y662898D01*
X-76185953Y627204D01*
X-76184198Y626266D01*
X-76109834Y603708D01*
X-76051871Y597999D01*
X-76051869Y597999D01*
X-76032499Y596091D01*
X-76013130Y597999D01*
X-71566870Y597999D01*
X-71547501Y596091D01*
X-71528132Y597999D01*
X-71528129Y597999D01*
X-71470166Y603708D01*
X-71395802Y626266D01*
X-71327269Y662898D01*
X-71267198Y712196D01*
X-71254843Y727251D01*
X-71046338Y935756D01*
X-70883318Y868231D01*
X-70655924Y823000D01*
X-70424076Y823000D01*
X-70196682Y868231D01*
X-70033663Y935756D01*
X-69825153Y727246D01*
X-69812802Y712196D01*
X-69782702Y687494D01*
X-69752732Y662898D01*
X-69685953Y627204D01*
X-69684198Y626266D01*
X-69609834Y603708D01*
X-69551871Y597999D01*
X-69551869Y597999D01*
X-69532499Y596091D01*
X-69513130Y597999D01*
X-65066870Y597999D01*
X-65047501Y596091D01*
X-65028132Y597999D01*
X-65028129Y597999D01*
X-64970166Y603708D01*
X-64895802Y626266D01*
X-64827269Y662898D01*
X-64767198Y712196D01*
X-64754843Y727251D01*
X-64546338Y935756D01*
X-64383318Y868231D01*
X-64155924Y823000D01*
X-63924076Y823000D01*
X-63696682Y868231D01*
X-63533663Y935756D01*
X-63325153Y727246D01*
X-63312802Y712196D01*
X-63282702Y687494D01*
X-63252732Y662898D01*
X-63185953Y627204D01*
X-63184198Y626266D01*
X-63109834Y603708D01*
X-63051871Y597999D01*
X-63051869Y597999D01*
X-63032499Y596091D01*
X-63013130Y597999D01*
X-58566870Y597999D01*
X-58547501Y596091D01*
X-58528132Y597999D01*
X-58528129Y597999D01*
X-58470166Y603708D01*
X-58395802Y626266D01*
X-58327269Y662898D01*
X-58267198Y712196D01*
X-58254843Y727251D01*
X-58046338Y935756D01*
X-57883318Y868231D01*
X-57655924Y823000D01*
X-57424076Y823000D01*
X-57196682Y868231D01*
X-57033663Y935756D01*
X-56825153Y727246D01*
X-56812802Y712196D01*
X-56782702Y687494D01*
X-56752732Y662898D01*
X-56685953Y627204D01*
X-56684198Y626266D01*
X-56609834Y603708D01*
X-56551871Y597999D01*
X-56551869Y597999D01*
X-56532499Y596091D01*
X-56513130Y597999D01*
X-53826870Y597999D01*
X-53807501Y596091D01*
X-53788132Y597999D01*
X-53788129Y597999D01*
X-53730166Y603708D01*
X-53655802Y626266D01*
X-53587269Y662898D01*
X-53527198Y712196D01*
X-53514843Y727251D01*
X-52066574Y2175519D01*
X-50132388Y2175519D01*
X-51075820Y1232086D01*
X-51175934Y1252000D01*
X-51324066Y1252000D01*
X-51469350Y1223101D01*
X-51606206Y1166414D01*
X-51729372Y1084117D01*
X-51834117Y979372D01*
X-51916414Y856206D01*
X-51973101Y719350D01*
X-52002000Y574066D01*
X-52002000Y425934D01*
X-51973101Y280650D01*
X-51917101Y145453D01*
X-51948206Y107550D01*
X-51978570Y50743D01*
X-51997268Y-10897D01*
X-52003582Y-75000D01*
X-52003582Y-925000D01*
X-51997268Y-989103D01*
X-51978570Y-1050743D01*
X-51948206Y-1107550D01*
X-51907343Y-1157343D01*
X-51857550Y-1198206D01*
X-51800743Y-1228570D01*
X-51739103Y-1247268D01*
X-51675000Y-1253582D01*
X-51054324Y-1253582D01*
X-49697378Y-2610530D01*
X-53821418Y-2610530D01*
X-53821418Y-1150000D01*
X-53827732Y-1085897D01*
X-53846430Y-1024257D01*
X-53876794Y-967450D01*
X-53917657Y-917657D01*
X-53967450Y-876794D01*
X-54024257Y-846430D01*
X-54085897Y-827732D01*
X-54150000Y-821418D01*
X-55850000Y-821418D01*
X-55914103Y-827732D01*
X-55975743Y-846430D01*
X-56032550Y-876794D01*
X-56082343Y-917657D01*
X-56123206Y-967450D01*
X-56153570Y-1024257D01*
X-56172268Y-1085897D01*
X-56178582Y-1150000D01*
X-56178582Y-2613001D01*
X-56534028Y-2613001D01*
X-56496956Y-2557519D01*
X-56408231Y-2343318D01*
X-56363000Y-2115924D01*
X-56363000Y-1884076D01*
X-56408231Y-1656682D01*
X-56496956Y-1442481D01*
X-56625764Y-1249706D01*
X-56789706Y-1085764D01*
X-56982481Y-956956D01*
X-57196682Y-868231D01*
X-57424076Y-823000D01*
X-57655924Y-823000D01*
X-57883318Y-868231D01*
X-58046338Y-935756D01*
X-58254843Y-727251D01*
X-58267198Y-712196D01*
X-58327269Y-662898D01*
X-58395802Y-626266D01*
X-58470166Y-603708D01*
X-58528129Y-597999D01*
X-58528132Y-597999D01*
X-58547501Y-596091D01*
X-58566870Y-597999D01*
X-63013130Y-597999D01*
X-63032499Y-596091D01*
X-63051869Y-597999D01*
X-63051871Y-597999D01*
X-63109834Y-603708D01*
X-63161471Y-619372D01*
X-63184198Y-626266D01*
X-63252732Y-662898D01*
X-63270322Y-677334D01*
X-63312802Y-712196D01*
X-63325153Y-727246D01*
X-63533663Y-935756D01*
X-63696682Y-868231D01*
X-63924076Y-823000D01*
X-64155924Y-823000D01*
X-64383318Y-868231D01*
X-64546338Y-935756D01*
X-64754843Y-727251D01*
X-64767198Y-712196D01*
X-64827269Y-662898D01*
X-64895802Y-626266D01*
X-64970166Y-603708D01*
X-65028129Y-597999D01*
X-65028132Y-597999D01*
X-65047501Y-596091D01*
X-65066870Y-597999D01*
X-69513130Y-597999D01*
X-69532499Y-596091D01*
X-69551869Y-597999D01*
X-69551871Y-597999D01*
X-69609834Y-603708D01*
X-69661471Y-619372D01*
X-69684198Y-626266D01*
X-69752732Y-662898D01*
X-69770322Y-677334D01*
X-69812802Y-712196D01*
X-69825153Y-727246D01*
X-70033663Y-935756D01*
X-70196682Y-868231D01*
X-70424076Y-823000D01*
X-70655924Y-823000D01*
X-70883318Y-868231D01*
X-71046338Y-935756D01*
X-71254843Y-727251D01*
X-71267198Y-712196D01*
X-71327269Y-662898D01*
X-71395802Y-626266D01*
X-71470166Y-603708D01*
X-71528129Y-597999D01*
X-71528132Y-597999D01*
X-71547501Y-596091D01*
X-71566870Y-597999D01*
X-76013130Y-597999D01*
X-76032499Y-596091D01*
X-76051869Y-597999D01*
X-76051871Y-597999D01*
X-76109834Y-603708D01*
X-76161471Y-619372D01*
X-76184198Y-626266D01*
X-76252732Y-662898D01*
X-76270322Y-677334D01*
X-76312802Y-712196D01*
X-76325153Y-727246D01*
X-76533663Y-935756D01*
X-76696682Y-868231D01*
X-76924076Y-823000D01*
X-77155924Y-823000D01*
X-77383318Y-868231D01*
X-77597519Y-956956D01*
X-77790294Y-1085764D01*
X-77954236Y-1249706D01*
X-78083044Y-1442481D01*
X-78171769Y-1656682D01*
X-78217000Y-1884076D01*
X-78217000Y-2115924D01*
X-78171769Y-2343318D01*
X-78083044Y-2557519D01*
X-77954236Y-2750294D01*
X-77790294Y-2914236D01*
X-77597519Y-3043044D01*
X-77383318Y-3131769D01*
X-77155924Y-3177000D01*
X-76924076Y-3177000D01*
X-76696682Y-3131769D01*
X-76482481Y-3043044D01*
X-76289706Y-2914236D01*
X-76125764Y-2750294D01*
X-75996956Y-2557519D01*
X-75908231Y-2343318D01*
X-75863000Y-2115924D01*
X-75863000Y-1884076D01*
X-75908231Y-1656682D01*
X-75975756Y-1493663D01*
X-75869092Y-1386999D01*
X-75678582Y-1386999D01*
X-75678582Y-2850000D01*
X-75672268Y-2914103D01*
X-75653570Y-2975743D01*
X-75623206Y-3032550D01*
X-75582343Y-3082343D01*
X-75532550Y-3123206D01*
X-75475743Y-3153570D01*
X-75414103Y-3172268D01*
X-75350000Y-3178582D01*
X-73879325Y-3178582D01*
X-73785153Y-3272754D01*
X-73772802Y-3287804D01*
X-73740617Y-3314217D01*
X-73712732Y-3337102D01*
X-73648823Y-3371262D01*
X-73644198Y-3373734D01*
X-73569834Y-3396292D01*
X-73511871Y-3402001D01*
X-73511869Y-3402001D01*
X-73492499Y-3403909D01*
X-73473130Y-3402001D01*
X-70011870Y-3402001D01*
X-69992501Y-3403909D01*
X-69973132Y-3402001D01*
X-69973129Y-3402001D01*
X-69915166Y-3396292D01*
X-69840802Y-3373734D01*
X-69772269Y-3337102D01*
X-69712198Y-3287804D01*
X-69699843Y-3272749D01*
X-69178582Y-2751489D01*
X-69178582Y-2850000D01*
X-69172268Y-2914103D01*
X-69153570Y-2975743D01*
X-69123206Y-3032550D01*
X-69082343Y-3082343D01*
X-69032550Y-3123206D01*
X-68975743Y-3153570D01*
X-68914103Y-3172268D01*
X-68850000Y-3178582D01*
X-67379325Y-3178582D01*
X-67285153Y-3272754D01*
X-67272802Y-3287804D01*
X-67240617Y-3314217D01*
X-67212732Y-3337102D01*
X-67148823Y-3371262D01*
X-67144198Y-3373734D01*
X-67069834Y-3396292D01*
X-67011871Y-3402001D01*
X-67011869Y-3402001D01*
X-66992499Y-3403909D01*
X-66973130Y-3402001D01*
X-62526870Y-3402001D01*
X-62507501Y-3403909D01*
X-62488132Y-3402001D01*
X-62488129Y-3402001D01*
X-62430166Y-3396292D01*
X-62355802Y-3373734D01*
X-62287269Y-3337102D01*
X-62227198Y-3287804D01*
X-62214843Y-3272749D01*
X-62120676Y-3178582D01*
X-60879325Y-3178582D01*
X-60785153Y-3272754D01*
X-60772802Y-3287804D01*
X-60740617Y-3314217D01*
X-60712732Y-3337102D01*
X-60648823Y-3371262D01*
X-60644198Y-3373734D01*
X-60569834Y-3396292D01*
X-60511871Y-3402001D01*
X-60511869Y-3402001D01*
X-60492499Y-3403909D01*
X-60473130Y-3402001D01*
X-56026870Y-3402001D01*
X-56007501Y-3403909D01*
X-55988132Y-3402001D01*
X-55988129Y-3402001D01*
X-55930166Y-3396292D01*
X-55855802Y-3373734D01*
X-55787269Y-3337102D01*
X-55727198Y-3287804D01*
X-55714843Y-3272749D01*
X-55620676Y-3178582D01*
X-54379325Y-3178582D01*
X-54287624Y-3270283D01*
X-54275273Y-3285333D01*
X-54215202Y-3334631D01*
X-54146669Y-3371263D01*
X-54072305Y-3393821D01*
X-54014342Y-3399530D01*
X-54014340Y-3399530D01*
X-53994971Y-3401438D01*
X-53975601Y-3399530D01*
X-33883232Y-3399530D01*
X-33863873Y-3401437D01*
X-33844514Y-3399530D01*
X-32335599Y-3399530D01*
X-32335589Y-3399529D01*
X2355602Y-3399529D01*
X2374971Y-3401437D01*
X2394340Y-3399529D01*
X2394343Y-3399529D01*
X2452306Y-3393820D01*
X2526670Y-3371262D01*
X2595203Y-3334630D01*
X2655274Y-3285332D01*
X2667629Y-3270277D01*
X4876056Y-1061851D01*
X5002487Y-1087000D01*
X5157513Y-1087000D01*
X5309559Y-1056756D01*
X5452784Y-997430D01*
X5581683Y-911303D01*
X5691303Y-801683D01*
X5715000Y-766218D01*
X5738697Y-801683D01*
X5848317Y-911303D01*
X5977216Y-997430D01*
X6120441Y-1056756D01*
X6272487Y-1087000D01*
X6427513Y-1087000D01*
X6579559Y-1056756D01*
X6722784Y-997430D01*
X6851683Y-911303D01*
X6961303Y-801683D01*
X7047430Y-672784D01*
X7106756Y-529559D01*
X7137000Y-377513D01*
X7137000Y-222487D01*
X7106756Y-70441D01*
X7047430Y72784D01*
X6961303Y201683D01*
X6851683Y311303D01*
X6744500Y382920D01*
X6744500Y1064533D01*
X6746408Y1083902D01*
X6743709Y1111303D01*
X6738791Y1161237D01*
X6716233Y1235601D01*
X6679601Y1304134D01*
X6630303Y1364205D01*
X6615254Y1376555D01*
X4601513Y3390295D01*
X4589158Y3405350D01*
X4529087Y3454648D01*
X4460554Y3491280D01*
X4386190Y3513838D01*
X4328227Y3519547D01*
X4328224Y3519547D01*
X4308855Y3521455D01*
X4289486Y3519547D01*
X-34615584Y3519547D01*
X-34634954Y3521455D01*
X-34654323Y3519547D01*
X-34654325Y3519547D01*
X-34712288Y3513838D01*
X-34786652Y3491280D01*
X-34855185Y3454648D01*
X-34915256Y3405350D01*
X-34927607Y3390300D01*
X-37056055Y1261851D01*
X-37182487Y1287000D01*
X-37337513Y1287000D01*
X-37463944Y1261851D01*
X-39262370Y3060276D01*
X-39274725Y3075331D01*
X-39334796Y3124629D01*
X-39403329Y3161261D01*
X-39477693Y3183819D01*
X-39535656Y3189528D01*
X-39535659Y3189528D01*
X-39555028Y3191436D01*
X-39574397Y3189528D01*
X-54185603Y3189528D01*
X-54204973Y3191436D01*
X-54224342Y3189528D01*
X-54224344Y3189528D01*
X-54282307Y3183819D01*
X-54299571Y3178582D01*
X-55620676Y3178582D01*
X-55714843Y3272749D01*
X-55727198Y3287804D01*
X-55787269Y3337102D01*
X-55855802Y3373734D01*
X-55930166Y3396292D01*
X-55988129Y3402001D01*
X-55988132Y3402001D01*
X-56007501Y3403909D01*
X-56026870Y3402001D01*
X-60473130Y3402001D01*
X-60492499Y3403909D01*
X-60511869Y3402001D01*
X-60511871Y3402001D01*
X-60569834Y3396292D01*
X-60644198Y3373734D01*
X-60712732Y3337102D01*
X-60740617Y3314217D01*
X-60772802Y3287804D01*
X-60785153Y3272754D01*
X-60879325Y3178582D01*
X-62120676Y3178582D01*
X-62214843Y3272749D01*
X-62227198Y3287804D01*
X-62287269Y3337102D01*
X-62355802Y3373734D01*
X-62430166Y3396292D01*
X-62488129Y3402001D01*
X-62488132Y3402001D01*
X-62507501Y3403909D01*
X-62526870Y3402001D01*
X-66973130Y3402001D01*
X-66992499Y3403909D01*
X-67011869Y3402001D01*
X-67011871Y3402001D01*
X-67069834Y3396292D01*
X-67144198Y3373734D01*
X-67212732Y3337102D01*
X-67240617Y3314217D01*
X-67272802Y3287804D01*
X-67285153Y3272754D01*
X-67379325Y3178582D01*
X-68620676Y3178582D01*
X-68714843Y3272749D01*
X-68727198Y3287804D01*
X-68787269Y3337102D01*
X-68855802Y3373734D01*
X-68930166Y3396292D01*
X-68988129Y3402001D01*
X-68988132Y3402001D01*
X-69007501Y3403909D01*
X-69026870Y3402001D01*
X-73473130Y3402001D01*
X-73492499Y3403909D01*
X-73511869Y3402001D01*
X-73511871Y3402001D01*
X-73569834Y3396292D01*
X-73644198Y3373734D01*
X-73712732Y3337102D01*
X-73740617Y3314217D01*
X-73772802Y3287804D01*
X-73785153Y3272754D01*
X-73879325Y3178582D01*
X-75350000Y3178582D01*
X-75414103Y3172268D01*
X-75475743Y3153570D01*
X-75532550Y3123206D01*
X-75582343Y3082343D01*
X-75623206Y3032550D01*
X-75653570Y2975743D01*
X-75672268Y2914103D01*
X-75678582Y2850000D01*
X-75678582Y1386999D01*
X-75869092Y1386999D01*
X-75975756Y1493663D01*
X-75908231Y1656682D01*
X-75863000Y1884076D01*
X-75863000Y2115924D01*
X-75908231Y2343318D01*
X-75996956Y2557519D01*
X-76125764Y2750294D01*
X-76289706Y2914236D01*
X-76482481Y3043044D01*
X-76696682Y3131769D01*
X-76924076Y3177000D01*
X-77155924Y3177000D01*
X-77383318Y3131769D01*
X-77597519Y3043044D01*
X-77790294Y2914236D01*
X-77954236Y2750294D01*
X-78083044Y2557519D01*
X-78171769Y2343318D01*
X-78217000Y2115924D01*
X-78898000Y2115924D01*
X-78898000Y3668000D01*
X-57618145Y3668000D01*
X-57569004Y3653093D01*
G37*
%TD.AperFunction*%
D17*
X-7111851Y-96056D02*
X-7137000Y-222487D01*
X-7137000Y-377513D01*
X-7106756Y-529559D01*
X-7047430Y-672784D01*
X-6961303Y-801683D01*
X-6851683Y-911303D01*
X-6722784Y-997430D01*
X-6579559Y-1056756D01*
X-6427513Y-1087000D01*
X-6272487Y-1087000D01*
X-6120441Y-1056756D01*
X-5977216Y-997430D01*
X-5848317Y-911303D01*
X-5738697Y-801683D01*
X-5715000Y-766218D01*
X-5691303Y-801683D01*
X-5581683Y-911303D01*
X-5452784Y-997430D01*
X-5309559Y-1056756D01*
X-5157513Y-1087000D01*
X-5002487Y-1087000D01*
X-4850441Y-1056756D01*
X-4707216Y-997430D01*
X-4578317Y-911303D01*
X-4468697Y-801683D01*
X-4445000Y-766218D01*
X-4421303Y-801683D01*
X-4311683Y-911303D01*
X-4182784Y-997430D01*
X-4039559Y-1056756D01*
X-3887513Y-1087000D01*
X-3732487Y-1087000D01*
X-3580441Y-1056756D01*
X-3437216Y-997430D01*
X-3308317Y-911303D01*
X-3198697Y-801683D01*
X-3175000Y-766218D01*
X-3151303Y-801683D01*
X-3041683Y-911303D01*
X-2912784Y-997430D01*
X-2769559Y-1056756D01*
X-2617513Y-1087000D01*
X-2462487Y-1087000D01*
X-2310441Y-1056756D01*
X-2167216Y-997430D01*
X-2038317Y-911303D01*
X-1928697Y-801683D01*
X-1905000Y-766218D01*
X-1881303Y-801683D01*
X-1771683Y-911303D01*
X-1642784Y-997430D01*
X-1499559Y-1056756D01*
X-1347513Y-1087000D01*
X-1192487Y-1087000D01*
X-1040441Y-1056756D01*
X-897216Y-997430D01*
X-768317Y-911303D01*
X-658697Y-801683D01*
X-635000Y-766218D01*
X-611303Y-801683D01*
X-501683Y-911303D01*
X-372784Y-997430D01*
X-229559Y-1056756D01*
X-77513Y-1087000D01*
X-74907Y-1087000D01*
X-923406Y-1935500D01*
X-30565495Y-1935500D01*
X-31194383Y-1306612D01*
X-31172216Y-1297430D01*
X-31043317Y-1211303D01*
X-30933697Y-1101683D01*
X-30910000Y-1066218D01*
X-30886303Y-1101683D01*
X-30776683Y-1211303D01*
X-30647784Y-1297430D01*
X-30504559Y-1356756D01*
X-30352513Y-1387000D01*
X-30197487Y-1387000D01*
X-30045441Y-1356756D01*
X-29902216Y-1297430D01*
X-29773317Y-1211303D01*
X-29663697Y-1101683D01*
X-29640000Y-1066218D01*
X-29616303Y-1101683D01*
X-29506683Y-1211303D01*
X-29377784Y-1297430D01*
X-29234559Y-1356756D01*
X-29082513Y-1387000D01*
X-28927487Y-1387000D01*
X-28775441Y-1356756D01*
X-28632216Y-1297430D01*
X-28503317Y-1211303D01*
X-28393697Y-1101683D01*
X-28370000Y-1066218D01*
X-28346303Y-1101683D01*
X-28236683Y-1211303D01*
X-28107784Y-1297430D01*
X-27964559Y-1356756D01*
X-27812513Y-1387000D01*
X-27657487Y-1387000D01*
X-27505441Y-1356756D01*
X-27362216Y-1297430D01*
X-27233317Y-1211303D01*
X-27123697Y-1101683D01*
X-27100000Y-1066218D01*
X-27076303Y-1101683D01*
X-26966683Y-1211303D01*
X-26837784Y-1297430D01*
X-26694559Y-1356756D01*
X-26542513Y-1387000D01*
X-26387487Y-1387000D01*
X-26235441Y-1356756D01*
X-26092216Y-1297430D01*
X-25963317Y-1211303D01*
X-25853697Y-1101683D01*
X-25767570Y-972784D01*
X-25708244Y-829559D01*
X-25678000Y-677513D01*
X-25678000Y-522487D01*
X-25708244Y-370441D01*
X-25743543Y-285221D01*
X-25600441Y-256756D01*
X-25457216Y-197430D01*
X-25328317Y-111303D01*
X-25218697Y-1683D01*
X-25132570Y127216D01*
X-25073244Y270441D01*
X-25043000Y422487D01*
X-25043000Y577513D01*
X-25068149Y703945D01*
X-24166593Y1605500D01*
X-8813406Y1605500D01*
X-7111851Y-96056D01*
%TA.AperFunction,Conductor*%
D18*
G36*
X-7111851Y-96056D02*
G01*
X-7137000Y-222487D01*
X-7137000Y-377513D01*
X-7106756Y-529559D01*
X-7047430Y-672784D01*
X-6961303Y-801683D01*
X-6851683Y-911303D01*
X-6722784Y-997430D01*
X-6579559Y-1056756D01*
X-6427513Y-1087000D01*
X-6272487Y-1087000D01*
X-6120441Y-1056756D01*
X-5977216Y-997430D01*
X-5848317Y-911303D01*
X-5738697Y-801683D01*
X-5715000Y-766218D01*
X-5691303Y-801683D01*
X-5581683Y-911303D01*
X-5452784Y-997430D01*
X-5309559Y-1056756D01*
X-5157513Y-1087000D01*
X-5002487Y-1087000D01*
X-4850441Y-1056756D01*
X-4707216Y-997430D01*
X-4578317Y-911303D01*
X-4468697Y-801683D01*
X-4445000Y-766218D01*
X-4421303Y-801683D01*
X-4311683Y-911303D01*
X-4182784Y-997430D01*
X-4039559Y-1056756D01*
X-3887513Y-1087000D01*
X-3732487Y-1087000D01*
X-3580441Y-1056756D01*
X-3437216Y-997430D01*
X-3308317Y-911303D01*
X-3198697Y-801683D01*
X-3175000Y-766218D01*
X-3151303Y-801683D01*
X-3041683Y-911303D01*
X-2912784Y-997430D01*
X-2769559Y-1056756D01*
X-2617513Y-1087000D01*
X-2462487Y-1087000D01*
X-2310441Y-1056756D01*
X-2167216Y-997430D01*
X-2038317Y-911303D01*
X-1928697Y-801683D01*
X-1905000Y-766218D01*
X-1881303Y-801683D01*
X-1771683Y-911303D01*
X-1642784Y-997430D01*
X-1499559Y-1056756D01*
X-1347513Y-1087000D01*
X-1192487Y-1087000D01*
X-1040441Y-1056756D01*
X-897216Y-997430D01*
X-768317Y-911303D01*
X-658697Y-801683D01*
X-635000Y-766218D01*
X-611303Y-801683D01*
X-501683Y-911303D01*
X-372784Y-997430D01*
X-229559Y-1056756D01*
X-77513Y-1087000D01*
X-74907Y-1087000D01*
X-923406Y-1935500D01*
X-30565495Y-1935500D01*
X-31194383Y-1306612D01*
X-31172216Y-1297430D01*
X-31043317Y-1211303D01*
X-30933697Y-1101683D01*
X-30910000Y-1066218D01*
X-30886303Y-1101683D01*
X-30776683Y-1211303D01*
X-30647784Y-1297430D01*
X-30504559Y-1356756D01*
X-30352513Y-1387000D01*
X-30197487Y-1387000D01*
X-30045441Y-1356756D01*
X-29902216Y-1297430D01*
X-29773317Y-1211303D01*
X-29663697Y-1101683D01*
X-29640000Y-1066218D01*
X-29616303Y-1101683D01*
X-29506683Y-1211303D01*
X-29377784Y-1297430D01*
X-29234559Y-1356756D01*
X-29082513Y-1387000D01*
X-28927487Y-1387000D01*
X-28775441Y-1356756D01*
X-28632216Y-1297430D01*
X-28503317Y-1211303D01*
X-28393697Y-1101683D01*
X-28370000Y-1066218D01*
X-28346303Y-1101683D01*
X-28236683Y-1211303D01*
X-28107784Y-1297430D01*
X-27964559Y-1356756D01*
X-27812513Y-1387000D01*
X-27657487Y-1387000D01*
X-27505441Y-1356756D01*
X-27362216Y-1297430D01*
X-27233317Y-1211303D01*
X-27123697Y-1101683D01*
X-27100000Y-1066218D01*
X-27076303Y-1101683D01*
X-26966683Y-1211303D01*
X-26837784Y-1297430D01*
X-26694559Y-1356756D01*
X-26542513Y-1387000D01*
X-26387487Y-1387000D01*
X-26235441Y-1356756D01*
X-26092216Y-1297430D01*
X-25963317Y-1211303D01*
X-25853697Y-1101683D01*
X-25767570Y-972784D01*
X-25708244Y-829559D01*
X-25678000Y-677513D01*
X-25678000Y-522487D01*
X-25708244Y-370441D01*
X-25743543Y-285221D01*
X-25600441Y-256756D01*
X-25457216Y-197430D01*
X-25328317Y-111303D01*
X-25218697Y-1683D01*
X-25132570Y127216D01*
X-25073244Y270441D01*
X-25043000Y422487D01*
X-25043000Y577513D01*
X-25068149Y703945D01*
X-24166593Y1605500D01*
X-8813406Y1605500D01*
X-7111851Y-96056D01*
G37*
%TD.AperFunction*%
D17*
X-41378192Y-865253D02*
X-41365841Y-880303D01*
X-41305770Y-929601D01*
X-41237237Y-966233D01*
X-41162873Y-988791D01*
X-41118836Y-993128D01*
X-41046303Y-1101683D01*
X-40936683Y-1211303D01*
X-40807784Y-1297430D01*
X-40785617Y-1306612D01*
X-41304504Y-1825500D01*
X-48366593Y-1825500D01*
X-49517914Y-674180D01*
X-49498000Y-574066D01*
X-49498000Y-425934D01*
X-49526899Y-280650D01*
X-49583586Y-143794D01*
X-49665883Y-20628D01*
X-49686511Y0D01*
X-49665883Y20628D01*
X-49583586Y143794D01*
X-49526899Y280650D01*
X-49498000Y425934D01*
X-49498000Y574066D01*
X-49517914Y674180D01*
X-48466593Y1725500D01*
X-43968944Y1725500D01*
X-41378192Y-865253D01*
%TA.AperFunction,Conductor*%
D18*
G36*
X-41378192Y-865253D02*
G01*
X-41365841Y-880303D01*
X-41305770Y-929601D01*
X-41237237Y-966233D01*
X-41162873Y-988791D01*
X-41118836Y-993128D01*
X-41046303Y-1101683D01*
X-40936683Y-1211303D01*
X-40807784Y-1297430D01*
X-40785617Y-1306612D01*
X-41304504Y-1825500D01*
X-48366593Y-1825500D01*
X-49517914Y-674180D01*
X-49498000Y-574066D01*
X-49498000Y-425934D01*
X-49526899Y-280650D01*
X-49583586Y-143794D01*
X-49665883Y-20628D01*
X-49686511Y0D01*
X-49665883Y20628D01*
X-49583586Y143794D01*
X-49526899Y280650D01*
X-49498000Y425934D01*
X-49498000Y574066D01*
X-49517914Y674180D01*
X-48466593Y1725500D01*
X-43968944Y1725500D01*
X-41378192Y-865253D01*
G37*
%TD.AperFunction*%
%TD*%
M02*
