M48
INCH
T1C0.0197
T2C0.0240
T3C0.1106
T4C0.0961
%
G90
G05
T1
X-2.1654Y0.0394
X-2.1654Y0.0
X-2.126Y0.0394
X-2.126Y0.0
T2
X-1.6169Y0.0197
X-1.5919Y-0.0236
X-1.5669Y0.0197
X-1.5419Y-0.0236
X-1.5169Y0.0197
X-1.4919Y-0.0236
X-1.4669Y0.0197
X-1.4419Y-0.0236
X-1.4169Y0.0197
X-1.3919Y-0.0236
X-1.3669Y0.0197
X-1.3419Y-0.0236
X-1.3169Y0.0197
X-1.2919Y-0.0236
X-1.2669Y0.0197
X-1.2419Y-0.0236
X-1.2169Y0.0197
X-1.1919Y-0.0236
X-1.1669Y0.0197
X-1.1419Y-0.0236
X-1.1169Y0.0197
X-1.0919Y-0.0236
X-1.0669Y0.0197
X-1.0419Y-0.0236
X-1.0169Y0.0197
X-0.25Y-0.0118
X-0.2248Y0.0315
X-0.2Y-0.0118
X-0.1748Y0.0315
X-0.15Y-0.0118
X-0.1248Y0.0315
X-0.1Y-0.0118
X-0.0748Y0.0315
X-0.05Y-0.0118
X-0.0248Y0.0315
X0.0Y-0.0118
X0.0252Y0.0315
X0.05Y-0.0118
X0.0752Y0.0315
X0.1Y-0.0118
X0.1252Y0.0315
X0.15Y-0.0118
X0.1752Y0.0315
X0.2Y-0.0118
X0.2252Y0.0315
X0.25Y-0.0118
T3
X-1.8002Y-0.002
X-0.8337Y-0.002
T4
X-0.4325Y-0.0067
X0.4325Y-0.0067
T0
M30
