%TF.GenerationSoftware,KiCad,Pcbnew,(5.1.10)-1*%
%TF.CreationDate,2022-07-13T17:07:52-06:00*%
%TF.ProjectId,15to25,3135746f-3235-42e6-9b69-6361645f7063,rev?*%
%TF.SameCoordinates,Original*%
%TF.FileFunction,Copper,L1,Top*%
%TF.FilePolarity,Positive*%
%FSLAX46Y46*%
G04 Gerber Fmt 4.6, Leading zero omitted, Abs format (unit mm)*
G04 Created by KiCad (PCBNEW (5.1.10)-1) date 2022-07-13 17:07:52*
%MOMM*%
%LPD*%
G01*
G04 APERTURE LIST*
%TA.AperFunction,ComponentPad*%
%ADD10O,1.200000X1.750000*%
%TD*%
%TA.AperFunction,ComponentPad*%
%ADD11O,0.850000X0.850000*%
%TD*%
%TA.AperFunction,ComponentPad*%
%ADD12R,0.850000X0.850000*%
%TD*%
%TA.AperFunction,ComponentPad*%
%ADD13C,3.600000*%
%TD*%
%TA.AperFunction,ComponentPad*%
%ADD14O,0.920000X0.920000*%
%TD*%
%TA.AperFunction,ComponentPad*%
%ADD15C,1.117600*%
%TD*%
%TA.AperFunction,Conductor*%
%ADD16C,0.090000*%
%TD*%
%TA.AperFunction,Conductor*%
%ADD17C,0.254000*%
%TD*%
%TA.AperFunction,Conductor*%
%ADD18C,0.100000*%
%TD*%
G04 APERTURE END LIST*
D10*
%TO.P,J3,4*%
%TO.N,Net-(J3-Pad4)*%
X-56500000Y0D03*
%TO.P,J3,3*%
%TO.N,Net-(J3-Pad3)*%
X-58500000Y0D03*
%TO.P,J3,2*%
%TO.N,Net-(J3-Pad2)*%
X-60500000Y0D03*
%TO.P,J3,1*%
%TO.N,Net-(J3-Pad1)*%
%TA.AperFunction,ComponentPad*%
G36*
G01*
X-63100000Y-625001D02*
X-63100000Y625001D01*
G75*
G02*
X-62850001Y875000I249999J0D01*
G01*
X-62149999Y875000D01*
G75*
G02*
X-61900000Y625001I0J-249999D01*
G01*
X-61900000Y-625001D01*
G75*
G02*
X-62149999Y-875000I-249999J0D01*
G01*
X-62850001Y-875000D01*
G75*
G02*
X-63100000Y-625001I0J249999D01*
G01*
G37*
%TD.AperFunction*%
%TD*%
%TO.P,J1,4*%
%TO.N,Net-(J1-Pad4)*%
X-69500000Y0D03*
%TO.P,J1,3*%
%TO.N,Net-(J1-Pad3)*%
X-71500000Y0D03*
%TO.P,J1,2*%
%TO.N,Net-(J1-Pad2)*%
X-73500000Y0D03*
%TO.P,J1,1*%
%TO.N,Net-(J1-Pad1)*%
%TA.AperFunction,ComponentPad*%
G36*
G01*
X-76100000Y-625001D02*
X-76100000Y625001D01*
G75*
G02*
X-75850001Y875000I249999J0D01*
G01*
X-75149999Y875000D01*
G75*
G02*
X-74900000Y625001I0J-249999D01*
G01*
X-74900000Y-625001D01*
G75*
G02*
X-75149999Y-875000I-249999J0D01*
G01*
X-75850001Y-875000D01*
G75*
G02*
X-76100000Y-625001I0J249999D01*
G01*
G37*
%TD.AperFunction*%
%TD*%
D11*
%TO.P,J5,2*%
%TO.N,Net-(J4-Pad25)*%
X-51150000Y-1010000D03*
D12*
%TO.P,J5,1*%
%TO.N,Net-(J4-Pad12)*%
X-51150000Y-10000D03*
%TD*%
D13*
%TO.P,J4,0*%
%TO.N,GND*%
X-19725000Y-550000D03*
X-44275000Y-550000D03*
D14*
%TO.P,J4,13*%
%TO.N,Net-(J4-Pad13)*%
X-39620000Y0D03*
%TO.P,J4,25*%
%TO.N,Net-(J4-Pad25)*%
X-38985000Y-1100000D03*
%TO.P,J4,12*%
%TO.N,Net-(J4-Pad12)*%
X-38350000Y0D03*
%TO.P,J4,24*%
%TO.N,Net-(J3-Pad4)*%
X-37715000Y-1100000D03*
%TO.P,J4,11*%
%TO.N,Net-(J3-Pad3)*%
X-37080000Y0D03*
%TO.P,J4,23*%
%TO.N,Net-(J3-Pad2)*%
X-36445000Y-1100000D03*
%TO.P,J4,10*%
%TO.N,Net-(J3-Pad1)*%
X-35810000Y0D03*
%TO.P,J4,22*%
%TO.N,Net-(J1-Pad4)*%
X-35175000Y-1100000D03*
%TO.P,J4,9*%
%TO.N,Net-(J1-Pad3)*%
X-34540000Y0D03*
%TO.P,J4,21*%
%TO.N,Net-(J1-Pad2)*%
X-33905000Y-1100000D03*
%TO.P,J4,8*%
%TO.N,Net-(J1-Pad1)*%
X-33270000Y0D03*
%TO.P,J4,20*%
%TO.N,Net-(J2-Pad15)*%
X-32635000Y-1100000D03*
%TO.P,J4,7*%
%TO.N,Net-(J2-Pad8)*%
X-32000000Y0D03*
%TO.P,J4,19*%
%TO.N,Net-(J2-Pad14)*%
X-31365000Y-1100000D03*
%TO.P,J4,6*%
%TO.N,Net-(J2-Pad7)*%
X-30730000Y0D03*
%TO.P,J4,18*%
%TO.N,Net-(J2-Pad13)*%
X-30095000Y-1100000D03*
%TO.P,J4,5*%
%TO.N,Net-(J2-Pad6)*%
X-29460000Y0D03*
%TO.P,J4,17*%
%TO.N,Net-(J2-Pad12)*%
X-28825000Y-1100000D03*
%TO.P,J4,4*%
%TO.N,Net-(J2-Pad5)*%
X-28190000Y0D03*
%TO.P,J4,16*%
%TO.N,Net-(J2-Pad11)*%
X-27555000Y-1100000D03*
%TO.P,J4,3*%
%TO.N,Net-(J2-Pad4)*%
X-26920000Y0D03*
%TO.P,J4,15*%
%TO.N,Net-(J2-Pad10)*%
X-26285000Y-1100000D03*
%TO.P,J4,2*%
%TO.N,Net-(J2-Pad2)*%
X-25650000Y0D03*
%TO.P,J4,14*%
%TO.N,Net-(J2-Pad9)*%
X-25015000Y-1100000D03*
%TO.P,J4,1*%
%TO.N,Net-(J2-Pad1)*%
X-24380000Y0D03*
%TD*%
D13*
%TO.P,J2,0*%
%TO.N,GND*%
X9105900Y-546100D03*
X-9105900Y-546100D03*
D15*
%TO.P,J2,15*%
%TO.N,Net-(J2-Pad15)*%
X3810000Y0D03*
%TO.P,J2,14*%
%TO.N,Net-(J2-Pad14)*%
X2540000Y0D03*
%TO.P,J2,13*%
%TO.N,Net-(J2-Pad13)*%
X1270000Y0D03*
%TO.P,J2,12*%
%TO.N,Net-(J2-Pad12)*%
X0Y0D03*
%TO.P,J2,11*%
%TO.N,Net-(J2-Pad11)*%
X-1270000Y0D03*
%TO.P,J2,10*%
%TO.N,Net-(J2-Pad10)*%
X-2540000Y0D03*
%TO.P,J2,9*%
%TO.N,Net-(J2-Pad9)*%
X-3810000Y0D03*
%TO.P,J2,8*%
%TO.N,Net-(J2-Pad8)*%
X4445000Y-1092200D03*
%TO.P,J2,7*%
%TO.N,Net-(J2-Pad7)*%
X3175000Y-1092200D03*
%TO.P,J2,6*%
%TO.N,Net-(J2-Pad6)*%
X1905000Y-1092200D03*
%TO.P,J2,5*%
%TO.N,Net-(J2-Pad5)*%
X635000Y-1092200D03*
%TO.P,J2,4*%
%TO.N,Net-(J2-Pad4)*%
X-635000Y-1092200D03*
%TO.P,J2,3*%
%TO.N,Net-(J2-Pad3)*%
X-1905000Y-1092200D03*
%TO.P,J2,2*%
%TO.N,Net-(J2-Pad2)*%
X-3175000Y-1092200D03*
%TO.P,J2,1*%
%TO.N,Net-(J2-Pad1)*%
X-4445000Y-1092200D03*
%TD*%
D16*
%TO.N,Net-(J1-Pad1)*%
X-35690039Y2420039D02*
X-33270000Y0D01*
X-73079961Y2420039D02*
X-35690039Y2420039D01*
X-75500000Y0D02*
X-73079961Y2420039D01*
%TO.N,Net-(J1-Pad2)*%
X-69979964Y-3520036D02*
X-73500000Y0D01*
X-36325036Y-3520036D02*
X-69979964Y-3520036D01*
X-33905000Y-1100000D02*
X-36325036Y-3520036D01*
%TO.N,Net-(J1-Pad3)*%
X-36780029Y2240029D02*
X-34540000Y0D01*
X-69259971Y2240029D02*
X-36780029Y2240029D01*
X-71500000Y0D02*
X-69259971Y2240029D01*
%TO.N,Net-(J1-Pad4)*%
X-66159973Y-3340027D02*
X-69500000Y0D01*
X-37415027Y-3340027D02*
X-66159973Y-3340027D01*
X-35175000Y-1100000D02*
X-37415027Y-3340027D01*
%TO.N,Net-(J2-Pad8)*%
X1657141Y-3880059D02*
X4445000Y-1092200D01*
X1657141Y-3880059D02*
X-4607199Y-3880059D01*
X-29445602Y-3900000D02*
X-8700000Y-3900000D01*
X-32000000Y-1345602D02*
X-29445602Y-3900000D01*
X-32000000Y0D02*
X-32000000Y-1345602D01*
X-8700000Y-3900000D02*
X-8900000Y-3880059D01*
X-4607199Y-3880059D02*
X-8700000Y-3900000D01*
%TO.N,Net-(J2-Pad7)*%
X3175000Y-1092200D02*
X567151Y-3700049D01*
X567151Y-3700049D02*
X-9300000Y-3700049D01*
X-28375553Y-3700049D02*
X-9200000Y-3700049D01*
X-30730000Y-1345602D02*
X-28375553Y-3700049D01*
X-30730000Y0D02*
X-30730000Y-1345602D01*
%TO.N,Net-(J2-Pad6)*%
X1905000Y-1092200D02*
X-522839Y-3520039D01*
X-522839Y-3520039D02*
X-9279961Y-3520039D01*
X-27285563Y-3520039D02*
X-9279961Y-3520039D01*
X-29460000Y-1345602D02*
X-27285563Y-3520039D01*
X-29460000Y0D02*
X-29460000Y-1345602D01*
X-9279961Y-3520039D02*
X-9500000Y-3520039D01*
%TO.N,Net-(J2-Pad5)*%
X635000Y-1092200D02*
X-1612829Y-3340029D01*
X-1612829Y-3340029D02*
X-9900000Y-3340029D01*
X-28190000Y-1345602D02*
X-26195573Y-3340029D01*
X-28190000Y0D02*
X-28190000Y-1345602D01*
X-26195573Y-3340029D02*
X-9800000Y-3340029D01*
%TO.N,Net-(J2-Pad4)*%
X-2702819Y-3160019D02*
X-635000Y-1092200D01*
X-26920000Y-1345602D02*
X-25105583Y-3160019D01*
X-25105583Y-3160019D02*
X-2702819Y-3160019D01*
X-26920000Y0D02*
X-26920000Y-1345602D01*
%TO.N,Net-(J2-Pad2)*%
X-25650000Y-1345602D02*
X-25650000Y0D01*
X-25650000Y-1345602D02*
X-24015593Y-2980009D01*
X-4980009Y-2980009D02*
X-4200000Y-2200000D01*
X-24015593Y-2980009D02*
X-4980009Y-2980009D01*
X-3175000Y-1092200D02*
X-4200000Y-2200000D01*
%TO.N,Net-(J2-Pad1)*%
X-21580000Y-2800000D02*
X-24380000Y0D01*
X-6152800Y-2800000D02*
X-21580000Y-2800000D01*
X-4445000Y-1092200D02*
X-6152800Y-2800000D01*
%TO.N,Net-(J3-Pad4)*%
X-39595009Y-2980009D02*
X-37715000Y-1100000D01*
X-53519991Y-2980009D02*
X-39595009Y-2980009D01*
X-56500000Y0D02*
X-53519991Y-2980009D01*
%TO.N,Net-(J3-Pad3)*%
X-38960010Y1880010D02*
X-37080000Y0D01*
X-56619990Y1880010D02*
X-38960010Y1880010D01*
X-58500000Y0D02*
X-56619990Y1880010D01*
%TO.N,Net-(J3-Pad2)*%
X-57339982Y-3160018D02*
X-60500000Y0D01*
X-38505018Y-3160018D02*
X-57339982Y-3160018D01*
X-36445000Y-1100000D02*
X-38505018Y-3160018D01*
%TO.N,Net-(J3-Pad1)*%
X-37870019Y2060019D02*
X-35810000Y0D01*
X-60439981Y2060019D02*
X-37870019Y2060019D01*
X-62500000Y0D02*
X-60439981Y2060019D01*
%TO.N,Net-(J4-Pad25)*%
X-51150000Y-1010000D02*
X-49360000Y-2800000D01*
X-40685000Y-2800000D02*
X-40292500Y-2407500D01*
X-49360000Y-2800000D02*
X-40685000Y-2800000D01*
X-40292500Y-2407500D02*
X-40370001Y-2485001D01*
X-38985000Y-1100000D02*
X-40292500Y-2407500D01*
%TO.N,Net-(J4-Pad12)*%
X-38350000Y0D02*
X-40050000Y1700000D01*
X-49440000Y1700000D02*
X-51150000Y-10000D01*
X-40050000Y1700000D02*
X-49440000Y1700000D01*
%TD*%
D17*
%TO.N,GND*%
X-56331490Y3241134D02*
X-56218012Y3206711D01*
X-56129566Y3198000D01*
X12398000Y3198000D01*
X12398001Y-4298000D01*
X2049527Y-4298000D01*
X2063563Y-4286481D01*
X2081478Y-4264651D01*
X4196322Y-2149807D01*
X4338058Y-2178000D01*
X4551942Y-2178000D01*
X4761716Y-2136274D01*
X4959319Y-2054424D01*
X5137157Y-1935596D01*
X5288396Y-1784357D01*
X5407224Y-1606519D01*
X5489074Y-1408916D01*
X5530800Y-1199142D01*
X5530800Y-985258D01*
X5489074Y-775484D01*
X5407224Y-577881D01*
X5288396Y-400043D01*
X5137157Y-248804D01*
X4959319Y-129976D01*
X4895800Y-103666D01*
X4895800Y106942D01*
X4854074Y316716D01*
X4772224Y514319D01*
X4653396Y692157D01*
X4502157Y843396D01*
X4324319Y962224D01*
X4126716Y1044074D01*
X3916942Y1085800D01*
X3703058Y1085800D01*
X3493284Y1044074D01*
X3295681Y962224D01*
X3175000Y881587D01*
X3054319Y962224D01*
X2856716Y1044074D01*
X2646942Y1085800D01*
X2433058Y1085800D01*
X2223284Y1044074D01*
X2025681Y962224D01*
X1905000Y881587D01*
X1784319Y962224D01*
X1586716Y1044074D01*
X1376942Y1085800D01*
X1163058Y1085800D01*
X953284Y1044074D01*
X755681Y962224D01*
X635000Y881587D01*
X514319Y962224D01*
X316716Y1044074D01*
X106942Y1085800D01*
X-106942Y1085800D01*
X-316716Y1044074D01*
X-514319Y962224D01*
X-635000Y881587D01*
X-755681Y962224D01*
X-953284Y1044074D01*
X-1163058Y1085800D01*
X-1376942Y1085800D01*
X-1586716Y1044074D01*
X-1784319Y962224D01*
X-1905000Y881587D01*
X-2025681Y962224D01*
X-2223284Y1044074D01*
X-2433058Y1085800D01*
X-2646942Y1085800D01*
X-2856716Y1044074D01*
X-3054319Y962224D01*
X-3175000Y881587D01*
X-3295681Y962224D01*
X-3493284Y1044074D01*
X-3703058Y1085800D01*
X-3916942Y1085800D01*
X-4126716Y1044074D01*
X-4324319Y962224D01*
X-4502157Y843396D01*
X-4653396Y692157D01*
X-4772224Y514319D01*
X-4854074Y316716D01*
X-4895800Y106942D01*
X-4895800Y-103666D01*
X-4959319Y-129976D01*
X-5137157Y-248804D01*
X-5288396Y-400043D01*
X-5407224Y-577881D01*
X-5489074Y-775484D01*
X-5530800Y-985258D01*
X-5530800Y-1199142D01*
X-5502607Y-1340878D01*
X-6389729Y-2228000D01*
X-21343070Y-2228000D01*
X-23406416Y-164655D01*
X-23393000Y-97211D01*
X-23393000Y97211D01*
X-23430930Y287897D01*
X-23505332Y467520D01*
X-23613347Y629176D01*
X-23750824Y766653D01*
X-23912480Y874668D01*
X-24092103Y949070D01*
X-24282789Y987000D01*
X-24477211Y987000D01*
X-24667897Y949070D01*
X-24847520Y874668D01*
X-25009176Y766653D01*
X-25015000Y760829D01*
X-25020824Y766653D01*
X-25182480Y874668D01*
X-25362103Y949070D01*
X-25552789Y987000D01*
X-25747211Y987000D01*
X-25937897Y949070D01*
X-26117520Y874668D01*
X-26279176Y766653D01*
X-26285000Y760829D01*
X-26290824Y766653D01*
X-26452480Y874668D01*
X-26632103Y949070D01*
X-26822789Y987000D01*
X-27017211Y987000D01*
X-27207897Y949070D01*
X-27387520Y874668D01*
X-27549176Y766653D01*
X-27555000Y760829D01*
X-27560824Y766653D01*
X-27722480Y874668D01*
X-27902103Y949070D01*
X-28092789Y987000D01*
X-28287211Y987000D01*
X-28477897Y949070D01*
X-28657520Y874668D01*
X-28819176Y766653D01*
X-28825000Y760829D01*
X-28830824Y766653D01*
X-28992480Y874668D01*
X-29172103Y949070D01*
X-29362789Y987000D01*
X-29557211Y987000D01*
X-29747897Y949070D01*
X-29927520Y874668D01*
X-30089176Y766653D01*
X-30095000Y760829D01*
X-30100824Y766653D01*
X-30262480Y874668D01*
X-30442103Y949070D01*
X-30632789Y987000D01*
X-30827211Y987000D01*
X-31017897Y949070D01*
X-31197520Y874668D01*
X-31359176Y766653D01*
X-31365000Y760829D01*
X-31370824Y766653D01*
X-31532480Y874668D01*
X-31712103Y949070D01*
X-31902789Y987000D01*
X-32097211Y987000D01*
X-32287897Y949070D01*
X-32467520Y874668D01*
X-32629176Y766653D01*
X-32635000Y760829D01*
X-32640824Y766653D01*
X-32802480Y874668D01*
X-32982103Y949070D01*
X-33172789Y987000D01*
X-33367211Y987000D01*
X-33434655Y973585D01*
X-35265702Y2804631D01*
X-35283617Y2826461D01*
X-35370716Y2897940D01*
X-35470085Y2951054D01*
X-35577908Y2983762D01*
X-35661945Y2992039D01*
X-35661948Y2992039D01*
X-35690039Y2994806D01*
X-35718130Y2992039D01*
X-73051870Y2992039D01*
X-73079961Y2994806D01*
X-73108052Y2992039D01*
X-73108055Y2992039D01*
X-73192092Y2983762D01*
X-73299915Y2951054D01*
X-73399284Y2897940D01*
X-73486383Y2826461D01*
X-73504294Y2804636D01*
X-74937643Y1371286D01*
X-74997917Y1389570D01*
X-75149999Y1404549D01*
X-75850001Y1404549D01*
X-76002083Y1389570D01*
X-76148321Y1345209D01*
X-76283095Y1273171D01*
X-76401225Y1176225D01*
X-76498171Y1058095D01*
X-76570209Y923321D01*
X-76614570Y777083D01*
X-76629549Y625001D01*
X-76629549Y-625001D01*
X-76614570Y-777083D01*
X-76570209Y-923321D01*
X-76498171Y-1058095D01*
X-76401225Y-1176225D01*
X-76283095Y-1273171D01*
X-76148321Y-1345209D01*
X-76002083Y-1389570D01*
X-75850001Y-1404549D01*
X-75149999Y-1404549D01*
X-74997917Y-1389570D01*
X-74851679Y-1345209D01*
X-74716905Y-1273171D01*
X-74598775Y-1176225D01*
X-74501829Y-1058095D01*
X-74429791Y-923321D01*
X-74428733Y-919834D01*
X-74300764Y-1075765D01*
X-74129156Y-1216600D01*
X-73933370Y-1321250D01*
X-73720930Y-1385693D01*
X-73500000Y-1407453D01*
X-73279069Y-1385693D01*
X-73066629Y-1321250D01*
X-73015180Y-1293750D01*
X-70404297Y-3904633D01*
X-70386386Y-3926458D01*
X-70339057Y-3965299D01*
X-70299288Y-3997937D01*
X-70208911Y-4046244D01*
X-70199918Y-4051051D01*
X-70092095Y-4083759D01*
X-70008058Y-4092036D01*
X-70008055Y-4092036D01*
X-69979964Y-4094803D01*
X-69951873Y-4092036D01*
X-36353127Y-4092036D01*
X-36325036Y-4094803D01*
X-36296945Y-4092036D01*
X-36296942Y-4092036D01*
X-36212905Y-4083759D01*
X-36105082Y-4051051D01*
X-36005713Y-3997937D01*
X-35918614Y-3926458D01*
X-35900699Y-3904628D01*
X-34069655Y-2073585D01*
X-34002211Y-2087000D01*
X-33807789Y-2087000D01*
X-33617103Y-2049070D01*
X-33437480Y-1974668D01*
X-33275824Y-1866653D01*
X-33270000Y-1860829D01*
X-33264176Y-1866653D01*
X-33102520Y-1974668D01*
X-32922897Y-2049070D01*
X-32732211Y-2087000D01*
X-32537789Y-2087000D01*
X-32347103Y-2049070D01*
X-32176236Y-1978295D01*
X-29869935Y-4284597D01*
X-29858936Y-4298000D01*
X-56129566Y-4298000D01*
X-56218012Y-4306711D01*
X-56331490Y-4341134D01*
X-56344335Y-4348000D01*
X-78298000Y-4348000D01*
X-78298000Y3248000D01*
X-56344335Y3248000D01*
X-56331490Y3241134D01*
%TA.AperFunction,Conductor*%
D18*
G36*
X-56331490Y3241134D02*
G01*
X-56218012Y3206711D01*
X-56129566Y3198000D01*
X12398000Y3198000D01*
X12398001Y-4298000D01*
X2049527Y-4298000D01*
X2063563Y-4286481D01*
X2081478Y-4264651D01*
X4196322Y-2149807D01*
X4338058Y-2178000D01*
X4551942Y-2178000D01*
X4761716Y-2136274D01*
X4959319Y-2054424D01*
X5137157Y-1935596D01*
X5288396Y-1784357D01*
X5407224Y-1606519D01*
X5489074Y-1408916D01*
X5530800Y-1199142D01*
X5530800Y-985258D01*
X5489074Y-775484D01*
X5407224Y-577881D01*
X5288396Y-400043D01*
X5137157Y-248804D01*
X4959319Y-129976D01*
X4895800Y-103666D01*
X4895800Y106942D01*
X4854074Y316716D01*
X4772224Y514319D01*
X4653396Y692157D01*
X4502157Y843396D01*
X4324319Y962224D01*
X4126716Y1044074D01*
X3916942Y1085800D01*
X3703058Y1085800D01*
X3493284Y1044074D01*
X3295681Y962224D01*
X3175000Y881587D01*
X3054319Y962224D01*
X2856716Y1044074D01*
X2646942Y1085800D01*
X2433058Y1085800D01*
X2223284Y1044074D01*
X2025681Y962224D01*
X1905000Y881587D01*
X1784319Y962224D01*
X1586716Y1044074D01*
X1376942Y1085800D01*
X1163058Y1085800D01*
X953284Y1044074D01*
X755681Y962224D01*
X635000Y881587D01*
X514319Y962224D01*
X316716Y1044074D01*
X106942Y1085800D01*
X-106942Y1085800D01*
X-316716Y1044074D01*
X-514319Y962224D01*
X-635000Y881587D01*
X-755681Y962224D01*
X-953284Y1044074D01*
X-1163058Y1085800D01*
X-1376942Y1085800D01*
X-1586716Y1044074D01*
X-1784319Y962224D01*
X-1905000Y881587D01*
X-2025681Y962224D01*
X-2223284Y1044074D01*
X-2433058Y1085800D01*
X-2646942Y1085800D01*
X-2856716Y1044074D01*
X-3054319Y962224D01*
X-3175000Y881587D01*
X-3295681Y962224D01*
X-3493284Y1044074D01*
X-3703058Y1085800D01*
X-3916942Y1085800D01*
X-4126716Y1044074D01*
X-4324319Y962224D01*
X-4502157Y843396D01*
X-4653396Y692157D01*
X-4772224Y514319D01*
X-4854074Y316716D01*
X-4895800Y106942D01*
X-4895800Y-103666D01*
X-4959319Y-129976D01*
X-5137157Y-248804D01*
X-5288396Y-400043D01*
X-5407224Y-577881D01*
X-5489074Y-775484D01*
X-5530800Y-985258D01*
X-5530800Y-1199142D01*
X-5502607Y-1340878D01*
X-6389729Y-2228000D01*
X-21343070Y-2228000D01*
X-23406416Y-164655D01*
X-23393000Y-97211D01*
X-23393000Y97211D01*
X-23430930Y287897D01*
X-23505332Y467520D01*
X-23613347Y629176D01*
X-23750824Y766653D01*
X-23912480Y874668D01*
X-24092103Y949070D01*
X-24282789Y987000D01*
X-24477211Y987000D01*
X-24667897Y949070D01*
X-24847520Y874668D01*
X-25009176Y766653D01*
X-25015000Y760829D01*
X-25020824Y766653D01*
X-25182480Y874668D01*
X-25362103Y949070D01*
X-25552789Y987000D01*
X-25747211Y987000D01*
X-25937897Y949070D01*
X-26117520Y874668D01*
X-26279176Y766653D01*
X-26285000Y760829D01*
X-26290824Y766653D01*
X-26452480Y874668D01*
X-26632103Y949070D01*
X-26822789Y987000D01*
X-27017211Y987000D01*
X-27207897Y949070D01*
X-27387520Y874668D01*
X-27549176Y766653D01*
X-27555000Y760829D01*
X-27560824Y766653D01*
X-27722480Y874668D01*
X-27902103Y949070D01*
X-28092789Y987000D01*
X-28287211Y987000D01*
X-28477897Y949070D01*
X-28657520Y874668D01*
X-28819176Y766653D01*
X-28825000Y760829D01*
X-28830824Y766653D01*
X-28992480Y874668D01*
X-29172103Y949070D01*
X-29362789Y987000D01*
X-29557211Y987000D01*
X-29747897Y949070D01*
X-29927520Y874668D01*
X-30089176Y766653D01*
X-30095000Y760829D01*
X-30100824Y766653D01*
X-30262480Y874668D01*
X-30442103Y949070D01*
X-30632789Y987000D01*
X-30827211Y987000D01*
X-31017897Y949070D01*
X-31197520Y874668D01*
X-31359176Y766653D01*
X-31365000Y760829D01*
X-31370824Y766653D01*
X-31532480Y874668D01*
X-31712103Y949070D01*
X-31902789Y987000D01*
X-32097211Y987000D01*
X-32287897Y949070D01*
X-32467520Y874668D01*
X-32629176Y766653D01*
X-32635000Y760829D01*
X-32640824Y766653D01*
X-32802480Y874668D01*
X-32982103Y949070D01*
X-33172789Y987000D01*
X-33367211Y987000D01*
X-33434655Y973585D01*
X-35265702Y2804631D01*
X-35283617Y2826461D01*
X-35370716Y2897940D01*
X-35470085Y2951054D01*
X-35577908Y2983762D01*
X-35661945Y2992039D01*
X-35661948Y2992039D01*
X-35690039Y2994806D01*
X-35718130Y2992039D01*
X-73051870Y2992039D01*
X-73079961Y2994806D01*
X-73108052Y2992039D01*
X-73108055Y2992039D01*
X-73192092Y2983762D01*
X-73299915Y2951054D01*
X-73399284Y2897940D01*
X-73486383Y2826461D01*
X-73504294Y2804636D01*
X-74937643Y1371286D01*
X-74997917Y1389570D01*
X-75149999Y1404549D01*
X-75850001Y1404549D01*
X-76002083Y1389570D01*
X-76148321Y1345209D01*
X-76283095Y1273171D01*
X-76401225Y1176225D01*
X-76498171Y1058095D01*
X-76570209Y923321D01*
X-76614570Y777083D01*
X-76629549Y625001D01*
X-76629549Y-625001D01*
X-76614570Y-777083D01*
X-76570209Y-923321D01*
X-76498171Y-1058095D01*
X-76401225Y-1176225D01*
X-76283095Y-1273171D01*
X-76148321Y-1345209D01*
X-76002083Y-1389570D01*
X-75850001Y-1404549D01*
X-75149999Y-1404549D01*
X-74997917Y-1389570D01*
X-74851679Y-1345209D01*
X-74716905Y-1273171D01*
X-74598775Y-1176225D01*
X-74501829Y-1058095D01*
X-74429791Y-923321D01*
X-74428733Y-919834D01*
X-74300764Y-1075765D01*
X-74129156Y-1216600D01*
X-73933370Y-1321250D01*
X-73720930Y-1385693D01*
X-73500000Y-1407453D01*
X-73279069Y-1385693D01*
X-73066629Y-1321250D01*
X-73015180Y-1293750D01*
X-70404297Y-3904633D01*
X-70386386Y-3926458D01*
X-70339057Y-3965299D01*
X-70299288Y-3997937D01*
X-70208911Y-4046244D01*
X-70199918Y-4051051D01*
X-70092095Y-4083759D01*
X-70008058Y-4092036D01*
X-70008055Y-4092036D01*
X-69979964Y-4094803D01*
X-69951873Y-4092036D01*
X-36353127Y-4092036D01*
X-36325036Y-4094803D01*
X-36296945Y-4092036D01*
X-36296942Y-4092036D01*
X-36212905Y-4083759D01*
X-36105082Y-4051051D01*
X-36005713Y-3997937D01*
X-35918614Y-3926458D01*
X-35900699Y-3904628D01*
X-34069655Y-2073585D01*
X-34002211Y-2087000D01*
X-33807789Y-2087000D01*
X-33617103Y-2049070D01*
X-33437480Y-1974668D01*
X-33275824Y-1866653D01*
X-33270000Y-1860829D01*
X-33264176Y-1866653D01*
X-33102520Y-1974668D01*
X-32922897Y-2049070D01*
X-32732211Y-2087000D01*
X-32537789Y-2087000D01*
X-32347103Y-2049070D01*
X-32176236Y-1978295D01*
X-29869935Y-4284597D01*
X-29858936Y-4298000D01*
X-56129566Y-4298000D01*
X-56218012Y-4306711D01*
X-56331490Y-4341134D01*
X-56344335Y-4348000D01*
X-78298000Y-4348000D01*
X-78298000Y3248000D01*
X-56344335Y3248000D01*
X-56331490Y3241134D01*
G37*
%TD.AperFunction*%
D17*
X-40049391Y890462D02*
X-40087520Y874668D01*
X-40249176Y766653D01*
X-40386653Y629176D01*
X-40494668Y467520D01*
X-40569070Y287897D01*
X-40607000Y97211D01*
X-40607000Y-97211D01*
X-40569070Y-287897D01*
X-40494668Y-467520D01*
X-40386653Y-629176D01*
X-40249176Y-766653D01*
X-40087520Y-874668D01*
X-39957248Y-928628D01*
X-39972000Y-1002789D01*
X-39972000Y-1197211D01*
X-39958584Y-1264655D01*
X-40677095Y-1983166D01*
X-40677100Y-1983170D01*
X-40921929Y-2228000D01*
X-49123070Y-2228000D01*
X-50206181Y-1144890D01*
X-50198000Y-1103764D01*
X-50198000Y-916236D01*
X-50234585Y-732312D01*
X-50257189Y-677740D01*
X-50235761Y-637650D01*
X-50205626Y-538310D01*
X-50195451Y-435000D01*
X-50195451Y135620D01*
X-49203070Y1128000D01*
X-40286929Y1128000D01*
X-40049391Y890462D01*
%TA.AperFunction,Conductor*%
D18*
G36*
X-40049391Y890462D02*
G01*
X-40087520Y874668D01*
X-40249176Y766653D01*
X-40386653Y629176D01*
X-40494668Y467520D01*
X-40569070Y287897D01*
X-40607000Y97211D01*
X-40607000Y-97211D01*
X-40569070Y-287897D01*
X-40494668Y-467520D01*
X-40386653Y-629176D01*
X-40249176Y-766653D01*
X-40087520Y-874668D01*
X-39957248Y-928628D01*
X-39972000Y-1002789D01*
X-39972000Y-1197211D01*
X-39958584Y-1264655D01*
X-40677095Y-1983166D01*
X-40677100Y-1983170D01*
X-40921929Y-2228000D01*
X-49123070Y-2228000D01*
X-50206181Y-1144890D01*
X-50198000Y-1103764D01*
X-50198000Y-916236D01*
X-50234585Y-732312D01*
X-50257189Y-677740D01*
X-50235761Y-637650D01*
X-50205626Y-538310D01*
X-50195451Y-435000D01*
X-50195451Y135620D01*
X-49203070Y1128000D01*
X-40286929Y1128000D01*
X-40049391Y890462D01*
G37*
%TD.AperFunction*%
%TD*%
M02*
