%TF.GenerationSoftware,KiCad,Pcbnew,(5.1.9)-1*%
%TF.CreationDate,2021-08-06T15:52:58-06:00*%
%TF.ProjectId,15to25,3135746f-3235-42e6-9b69-6361645f7063,rev?*%
%TF.SameCoordinates,Original*%
%TF.FileFunction,Copper,L2,Bot*%
%TF.FilePolarity,Positive*%
%FSLAX46Y46*%
G04 Gerber Fmt 4.6, Leading zero omitted, Abs format (unit mm)*
G04 Created by KiCad (PCBNEW (5.1.9)-1) date 2021-08-06 15:52:58*
%MOMM*%
%LPD*%
G01*
G04 APERTURE LIST*
%TA.AperFunction,ComponentPad*%
%ADD10O,2.810000X2.810000*%
%TD*%
%TA.AperFunction,ComponentPad*%
%ADD11O,0.920000X0.920000*%
%TD*%
%TA.AperFunction,ComponentPad*%
%ADD12R,0.850000X0.850000*%
%TD*%
%TA.AperFunction,ComponentPad*%
%ADD13O,0.850000X0.850000*%
%TD*%
%TA.AperFunction,ComponentPad*%
%ADD14C,2.997200*%
%TD*%
%TA.AperFunction,ComponentPad*%
%ADD15C,1.117600*%
%TD*%
%TA.AperFunction,Conductor*%
%ADD16C,0.090000*%
%TD*%
%TA.AperFunction,NonConductor*%
%ADD17C,0.254000*%
%TD*%
%TA.AperFunction,NonConductor*%
%ADD18C,0.100000*%
%TD*%
G04 APERTURE END LIST*
D10*
%TO.P,J4,27*%
%TO.N,N/C*%
X-19725000Y-550000D03*
%TO.P,J4,26*%
X-44275000Y-550000D03*
D11*
%TO.P,J4,13*%
%TO.N,Net-(J4-Pad13)*%
X-39620000Y0D03*
%TO.P,J4,25*%
%TO.N,Net-(J1-Pad10)*%
X-38985000Y-1100000D03*
%TO.P,J4,12*%
%TO.N,Net-(J1-Pad9)*%
X-38350000Y0D03*
%TO.P,J4,24*%
%TO.N,Net-(J1-Pad8)*%
X-37715000Y-1100000D03*
%TO.P,J4,11*%
%TO.N,Net-(J1-Pad7)*%
X-37080000Y0D03*
%TO.P,J4,23*%
%TO.N,Net-(J1-Pad6)*%
X-36445000Y-1100000D03*
%TO.P,J4,10*%
%TO.N,Net-(J1-Pad5)*%
X-35810000Y0D03*
%TO.P,J4,22*%
%TO.N,Net-(J1-Pad4)*%
X-35175000Y-1100000D03*
%TO.P,J4,9*%
%TO.N,Net-(J1-Pad3)*%
X-34540000Y0D03*
%TO.P,J4,21*%
%TO.N,Net-(J1-Pad2)*%
X-33905000Y-1100000D03*
%TO.P,J4,8*%
%TO.N,Net-(J1-Pad1)*%
X-33270000Y0D03*
%TO.P,J4,20*%
%TO.N,Net-(J2-Pad15)*%
X-32635000Y-1100000D03*
%TO.P,J4,7*%
%TO.N,Net-(J2-Pad8)*%
X-32000000Y0D03*
%TO.P,J4,19*%
%TO.N,Net-(J2-Pad14)*%
X-31365000Y-1100000D03*
%TO.P,J4,6*%
%TO.N,Net-(J2-Pad6)*%
X-30730000Y0D03*
%TO.P,J4,18*%
%TO.N,Net-(J2-Pad13)*%
X-30095000Y-1100000D03*
%TO.P,J4,5*%
%TO.N,Net-(J2-Pad5)*%
X-29460000Y0D03*
%TO.P,J4,17*%
%TO.N,Net-(J2-Pad12)*%
X-28825000Y-1100000D03*
%TO.P,J4,4*%
%TO.N,Net-(J2-Pad4)*%
X-28190000Y0D03*
%TO.P,J4,16*%
%TO.N,Net-(J2-Pad11)*%
X-27555000Y-1100000D03*
%TO.P,J4,3*%
%TO.N,Net-(J2-Pad3)*%
X-26920000Y0D03*
%TO.P,J4,15*%
%TO.N,Net-(J2-Pad10)*%
X-26285000Y-1100000D03*
%TO.P,J4,2*%
%TO.N,Net-(J2-Pad2)*%
X-25650000Y0D03*
%TO.P,J4,14*%
%TO.N,Net-(J2-Pad9)*%
X-25015000Y-1100000D03*
%TO.P,J4,1*%
%TO.N,Net-(J2-Pad1)*%
X-24380000Y0D03*
%TD*%
D12*
%TO.P,J1,1*%
%TO.N,Net-(J1-Pad1)*%
X-54500000Y-1000000D03*
D13*
%TO.P,J1,2*%
%TO.N,Net-(J1-Pad2)*%
X-54500000Y0D03*
%TO.P,J1,3*%
%TO.N,Net-(J1-Pad3)*%
X-53500000Y-1000000D03*
%TO.P,J1,4*%
%TO.N,Net-(J1-Pad4)*%
X-53500000Y0D03*
%TO.P,J1,5*%
%TO.N,Net-(J1-Pad5)*%
X-52500000Y-1000000D03*
%TO.P,J1,6*%
%TO.N,Net-(J1-Pad6)*%
X-52500000Y0D03*
%TO.P,J1,7*%
%TO.N,Net-(J1-Pad7)*%
X-51500000Y-1000000D03*
%TO.P,J1,8*%
%TO.N,Net-(J1-Pad8)*%
X-51500000Y0D03*
%TO.P,J1,9*%
%TO.N,Net-(J1-Pad9)*%
X-50500000Y-1000000D03*
%TO.P,J1,10*%
%TO.N,Net-(J1-Pad10)*%
X-50500000Y0D03*
%TD*%
D14*
%TO.P,J2,17*%
%TO.N,N/C*%
X9105900Y-546100D03*
%TO.P,J2,16*%
X-9105900Y-546100D03*
D15*
%TO.P,J2,15*%
%TO.N,Net-(J2-Pad15)*%
X3810000Y0D03*
%TO.P,J2,14*%
%TO.N,Net-(J2-Pad14)*%
X2540000Y0D03*
%TO.P,J2,13*%
%TO.N,Net-(J2-Pad13)*%
X1270000Y0D03*
%TO.P,J2,12*%
%TO.N,Net-(J2-Pad12)*%
X0Y0D03*
%TO.P,J2,11*%
%TO.N,Net-(J2-Pad11)*%
X-1270000Y0D03*
%TO.P,J2,10*%
%TO.N,Net-(J2-Pad10)*%
X-2540000Y0D03*
%TO.P,J2,9*%
%TO.N,Net-(J2-Pad9)*%
X-3810000Y0D03*
%TO.P,J2,8*%
%TO.N,Net-(J2-Pad8)*%
X4445000Y-1092200D03*
%TO.P,J2,7*%
%TO.N,Net-(J2-Pad7)*%
X3175000Y-1092200D03*
%TO.P,J2,6*%
%TO.N,Net-(J2-Pad6)*%
X1905000Y-1092200D03*
%TO.P,J2,5*%
%TO.N,Net-(J2-Pad5)*%
X635000Y-1092200D03*
%TO.P,J2,4*%
%TO.N,Net-(J2-Pad4)*%
X-635000Y-1092200D03*
%TO.P,J2,3*%
%TO.N,Net-(J2-Pad3)*%
X-1905000Y-1092200D03*
%TO.P,J2,2*%
%TO.N,Net-(J2-Pad2)*%
X-3175000Y-1092200D03*
%TO.P,J2,1*%
%TO.N,Net-(J2-Pad1)*%
X-4445000Y-1092200D03*
%TD*%
D16*
%TO.N,Net-(J1-Pad2)*%
X-33905000Y245602D02*
X-33905000Y-1100000D01*
X-35369437Y1710039D02*
X-33905000Y245602D01*
X-52789961Y1710039D02*
X-35369437Y1710039D01*
X-54500000Y0D02*
X-52789961Y1710039D01*
%TO.N,Net-(J1-Pad4)*%
X-36459428Y1530030D02*
X-51969970Y1530030D01*
X-35175000Y245602D02*
X-36459428Y1530030D01*
X-51969970Y1530030D02*
X-53500000Y0D01*
X-35175000Y-1100000D02*
X-35175000Y245602D01*
%TO.N,Net-(J1-Pad6)*%
X-36445000Y245602D02*
X-36445000Y-1100000D01*
X-37549419Y1350021D02*
X-36445000Y245602D01*
X-52328802Y0D02*
X-50978781Y1350021D01*
X-50978781Y1350021D02*
X-37549419Y1350021D01*
X-52500000Y0D02*
X-52328802Y0D01*
%TO.N,Net-(J1-Pad8)*%
X-50329989Y1170011D02*
X-51500000Y0D01*
X-38639409Y1170011D02*
X-50329989Y1170011D01*
X-37715000Y245602D02*
X-38639409Y1170011D01*
X-37715000Y-1100000D02*
X-37715000Y245602D01*
%TO.N,Net-(J1-Pad10)*%
X-38985000Y285000D02*
X-38985000Y-1100000D01*
X-39690001Y990001D02*
X-38985000Y285000D01*
X-49509999Y990001D02*
X-39690001Y990001D01*
X-50500000Y0D02*
X-49509999Y990001D01*
%TO.N,Net-(J2-Pad15)*%
X-32635000Y325600D02*
X-32635000Y-1100000D01*
X-30793041Y2167559D02*
X-32635000Y325600D01*
X1642441Y2167559D02*
X-30793041Y2167559D01*
X3810000Y0D02*
X1642441Y2167559D01*
%TO.N,Net-(J2-Pad14)*%
X552450Y1987550D02*
X2540000Y0D01*
X-29623052Y1987550D02*
X552450Y1987550D01*
X-31365000Y245602D02*
X-29623052Y1987550D01*
X-31365000Y-1100000D02*
X-31365000Y245602D01*
%TO.N,Net-(J2-Pad13)*%
X-30095000Y245602D02*
X-30095000Y-1100000D01*
X-28533062Y1807540D02*
X-30095000Y245602D01*
X-537540Y1807540D02*
X-28533062Y1807540D01*
X1270000Y0D02*
X-537540Y1807540D01*
%TO.N,Net-(J2-Pad12)*%
X-1627531Y1627531D02*
X0Y0D01*
X-28825000Y245602D02*
X-27443071Y1627531D01*
X-27443071Y1627531D02*
X-1627531Y1627531D01*
X-28825000Y-1100000D02*
X-28825000Y245602D01*
%TO.N,Net-(J2-Pad11)*%
X-27555000Y245602D02*
X-27555000Y-1100000D01*
X-26353081Y1447521D02*
X-27555000Y245602D01*
X-2717521Y1447521D02*
X-26353081Y1447521D01*
X-1270000Y0D02*
X-2717521Y1447521D01*
%TO.N,Net-(J2-Pad10)*%
X-3807511Y1267511D02*
X-2540000Y0D01*
X-25263091Y1267511D02*
X-3807511Y1267511D01*
X-26285000Y245602D02*
X-25263091Y1267511D01*
X-26285000Y-1100000D02*
X-26285000Y245602D01*
%TO.N,Net-(J2-Pad9)*%
X-25015000Y285000D02*
X-25015000Y-1100000D01*
X-24212499Y1087501D02*
X-25015000Y285000D01*
X-4897501Y1087501D02*
X-24212499Y1087501D01*
X-3810000Y0D02*
X-4897501Y1087501D01*
%TD*%
D17*
X12290001Y-4190000D02*
X-55390000Y-4190000D01*
X-55390000Y-1859351D01*
X-55376185Y-1876185D01*
X-55279494Y-1955537D01*
X-55169180Y-2014502D01*
X-55049482Y-2050812D01*
X-54925000Y-2063072D01*
X-54075000Y-2063072D01*
X-53950518Y-2050812D01*
X-53830820Y-2014502D01*
X-53826397Y-2012138D01*
X-53809191Y-2019265D01*
X-53604401Y-2060000D01*
X-53395599Y-2060000D01*
X-53190809Y-2019265D01*
X-53000000Y-1940229D01*
X-52809191Y-2019265D01*
X-52604401Y-2060000D01*
X-52395599Y-2060000D01*
X-52190809Y-2019265D01*
X-52000000Y-1940229D01*
X-51809191Y-2019265D01*
X-51604401Y-2060000D01*
X-51395599Y-2060000D01*
X-51190809Y-2019265D01*
X-51000000Y-1940229D01*
X-50809191Y-2019265D01*
X-50604401Y-2060000D01*
X-50395599Y-2060000D01*
X-50190809Y-2019265D01*
X-49997902Y-1939360D01*
X-49824289Y-1823356D01*
X-49676644Y-1675711D01*
X-49560640Y-1502098D01*
X-49480735Y-1309191D01*
X-49440000Y-1104401D01*
X-49440000Y-895599D01*
X-49480735Y-690809D01*
X-49559771Y-500000D01*
X-49480735Y-309191D01*
X-49440000Y-104401D01*
X-49440000Y98335D01*
X-49228334Y310001D01*
X-46126857Y310001D01*
X-46236604Y45046D01*
X-46315000Y-349078D01*
X-46315000Y-750922D01*
X-46236604Y-1145046D01*
X-46082825Y-1516303D01*
X-45859572Y-1850424D01*
X-45575424Y-2134572D01*
X-45241303Y-2357825D01*
X-44870046Y-2511604D01*
X-44475922Y-2590000D01*
X-44074078Y-2590000D01*
X-43679954Y-2511604D01*
X-43308697Y-2357825D01*
X-42974576Y-2134572D01*
X-42690428Y-1850424D01*
X-42467175Y-1516303D01*
X-42313396Y-1145046D01*
X-42235000Y-750922D01*
X-42235000Y-349078D01*
X-42313396Y45046D01*
X-42423143Y310001D01*
X-40674790Y310001D01*
X-40715000Y107848D01*
X-40715000Y-107848D01*
X-40672920Y-319400D01*
X-40590376Y-518677D01*
X-40470542Y-698022D01*
X-40318022Y-850542D01*
X-40138677Y-970376D01*
X-40080000Y-994681D01*
X-40080000Y-1207848D01*
X-40037920Y-1419400D01*
X-39955376Y-1618677D01*
X-39835542Y-1798022D01*
X-39683022Y-1950542D01*
X-39503677Y-2070376D01*
X-39304400Y-2152920D01*
X-39092848Y-2195000D01*
X-38877152Y-2195000D01*
X-38665600Y-2152920D01*
X-38466323Y-2070376D01*
X-38350000Y-1992652D01*
X-38233677Y-2070376D01*
X-38034400Y-2152920D01*
X-37822848Y-2195000D01*
X-37607152Y-2195000D01*
X-37395600Y-2152920D01*
X-37196323Y-2070376D01*
X-37080000Y-1992652D01*
X-36963677Y-2070376D01*
X-36764400Y-2152920D01*
X-36552848Y-2195000D01*
X-36337152Y-2195000D01*
X-36125600Y-2152920D01*
X-35926323Y-2070376D01*
X-35810000Y-1992652D01*
X-35693677Y-2070376D01*
X-35494400Y-2152920D01*
X-35282848Y-2195000D01*
X-35067152Y-2195000D01*
X-34855600Y-2152920D01*
X-34656323Y-2070376D01*
X-34540000Y-1992652D01*
X-34423677Y-2070376D01*
X-34224400Y-2152920D01*
X-34012848Y-2195000D01*
X-33797152Y-2195000D01*
X-33585600Y-2152920D01*
X-33386323Y-2070376D01*
X-33270000Y-1992652D01*
X-33153677Y-2070376D01*
X-32954400Y-2152920D01*
X-32742848Y-2195000D01*
X-32527152Y-2195000D01*
X-32315600Y-2152920D01*
X-32116323Y-2070376D01*
X-32000000Y-1992652D01*
X-31883677Y-2070376D01*
X-31684400Y-2152920D01*
X-31472848Y-2195000D01*
X-31257152Y-2195000D01*
X-31045600Y-2152920D01*
X-30846323Y-2070376D01*
X-30730000Y-1992652D01*
X-30613677Y-2070376D01*
X-30414400Y-2152920D01*
X-30202848Y-2195000D01*
X-29987152Y-2195000D01*
X-29775600Y-2152920D01*
X-29576323Y-2070376D01*
X-29460000Y-1992652D01*
X-29343677Y-2070376D01*
X-29144400Y-2152920D01*
X-28932848Y-2195000D01*
X-28717152Y-2195000D01*
X-28505600Y-2152920D01*
X-28306323Y-2070376D01*
X-28190000Y-1992652D01*
X-28073677Y-2070376D01*
X-27874400Y-2152920D01*
X-27662848Y-2195000D01*
X-27447152Y-2195000D01*
X-27235600Y-2152920D01*
X-27036323Y-2070376D01*
X-26920000Y-1992652D01*
X-26803677Y-2070376D01*
X-26604400Y-2152920D01*
X-26392848Y-2195000D01*
X-26177152Y-2195000D01*
X-25965600Y-2152920D01*
X-25766323Y-2070376D01*
X-25650000Y-1992652D01*
X-25533677Y-2070376D01*
X-25334400Y-2152920D01*
X-25122848Y-2195000D01*
X-24907152Y-2195000D01*
X-24695600Y-2152920D01*
X-24496323Y-2070376D01*
X-24316978Y-1950542D01*
X-24164458Y-1798022D01*
X-24044624Y-1618677D01*
X-23962080Y-1419400D01*
X-23920000Y-1207848D01*
X-23920000Y-994681D01*
X-23861323Y-970376D01*
X-23681978Y-850542D01*
X-23529458Y-698022D01*
X-23409624Y-518677D01*
X-23327080Y-319400D01*
X-23285000Y-107848D01*
X-23285000Y107848D01*
X-23327080Y319400D01*
X-23363573Y407501D01*
X-21536471Y407501D01*
X-21686604Y45046D01*
X-21765000Y-349078D01*
X-21765000Y-750922D01*
X-21686604Y-1145046D01*
X-21532825Y-1516303D01*
X-21309572Y-1850424D01*
X-21025424Y-2134572D01*
X-20691303Y-2357825D01*
X-20320046Y-2511604D01*
X-19925922Y-2590000D01*
X-19524078Y-2590000D01*
X-19129954Y-2511604D01*
X-18758697Y-2357825D01*
X-18424576Y-2134572D01*
X-18140428Y-1850424D01*
X-17917175Y-1516303D01*
X-17763396Y-1145046D01*
X-17685000Y-750922D01*
X-17685000Y-349078D01*
X-17763396Y45046D01*
X-17913529Y407501D01*
X-11020298Y407501D01*
X-11157507Y76248D01*
X-11239500Y-335959D01*
X-11239500Y-756241D01*
X-11157507Y-1168448D01*
X-10996672Y-1556739D01*
X-10763176Y-1906191D01*
X-10465991Y-2203376D01*
X-10116539Y-2436872D01*
X-9728248Y-2597707D01*
X-9316041Y-2679700D01*
X-8895759Y-2679700D01*
X-8483552Y-2597707D01*
X-8095261Y-2436872D01*
X-7745809Y-2203376D01*
X-7448624Y-1906191D01*
X-7215128Y-1556739D01*
X-7054293Y-1168448D01*
X-6972300Y-756241D01*
X-6972300Y-335959D01*
X-7054293Y76248D01*
X-7191502Y407501D01*
X-5179165Y407501D01*
X-4984794Y213129D01*
X-5003800Y117579D01*
X-5003800Y-31503D01*
X-5010476Y-34268D01*
X-5206003Y-164915D01*
X-5372285Y-331197D01*
X-5502932Y-526724D01*
X-5592923Y-743981D01*
X-5638800Y-974621D01*
X-5638800Y-1209779D01*
X-5592923Y-1440419D01*
X-5502932Y-1657676D01*
X-5372285Y-1853203D01*
X-5206003Y-2019485D01*
X-5010476Y-2150132D01*
X-4793219Y-2240123D01*
X-4562579Y-2286000D01*
X-4327421Y-2286000D01*
X-4096781Y-2240123D01*
X-3879524Y-2150132D01*
X-3810000Y-2103678D01*
X-3740476Y-2150132D01*
X-3523219Y-2240123D01*
X-3292579Y-2286000D01*
X-3057421Y-2286000D01*
X-2826781Y-2240123D01*
X-2609524Y-2150132D01*
X-2540000Y-2103678D01*
X-2470476Y-2150132D01*
X-2253219Y-2240123D01*
X-2022579Y-2286000D01*
X-1787421Y-2286000D01*
X-1556781Y-2240123D01*
X-1339524Y-2150132D01*
X-1270000Y-2103678D01*
X-1200476Y-2150132D01*
X-983219Y-2240123D01*
X-752579Y-2286000D01*
X-517421Y-2286000D01*
X-286781Y-2240123D01*
X-69524Y-2150132D01*
X0Y-2103678D01*
X69524Y-2150132D01*
X286781Y-2240123D01*
X517421Y-2286000D01*
X752579Y-2286000D01*
X983219Y-2240123D01*
X1200476Y-2150132D01*
X1270000Y-2103678D01*
X1339524Y-2150132D01*
X1556781Y-2240123D01*
X1787421Y-2286000D01*
X2022579Y-2286000D01*
X2253219Y-2240123D01*
X2470476Y-2150132D01*
X2540000Y-2103678D01*
X2609524Y-2150132D01*
X2826781Y-2240123D01*
X3057421Y-2286000D01*
X3292579Y-2286000D01*
X3523219Y-2240123D01*
X3740476Y-2150132D01*
X3810000Y-2103678D01*
X3879524Y-2150132D01*
X4096781Y-2240123D01*
X4327421Y-2286000D01*
X4562579Y-2286000D01*
X4793219Y-2240123D01*
X5010476Y-2150132D01*
X5206003Y-2019485D01*
X5372285Y-1853203D01*
X5502932Y-1657676D01*
X5592923Y-1440419D01*
X5638800Y-1209779D01*
X5638800Y-974621D01*
X5592923Y-743981D01*
X5502932Y-526724D01*
X5375467Y-335959D01*
X6972300Y-335959D01*
X6972300Y-756241D01*
X7054293Y-1168448D01*
X7215128Y-1556739D01*
X7448624Y-1906191D01*
X7745809Y-2203376D01*
X8095261Y-2436872D01*
X8483552Y-2597707D01*
X8895759Y-2679700D01*
X9316041Y-2679700D01*
X9728248Y-2597707D01*
X10116539Y-2436872D01*
X10465991Y-2203376D01*
X10763176Y-1906191D01*
X10996672Y-1556739D01*
X11157507Y-1168448D01*
X11239500Y-756241D01*
X11239500Y-335959D01*
X11157507Y76248D01*
X10996672Y464539D01*
X10763176Y813991D01*
X10465991Y1111176D01*
X10116539Y1344672D01*
X9728248Y1505507D01*
X9316041Y1587500D01*
X8895759Y1587500D01*
X8483552Y1505507D01*
X8095261Y1344672D01*
X7745809Y1111176D01*
X7448624Y813991D01*
X7215128Y464539D01*
X7054293Y76248D01*
X6972300Y-335959D01*
X5375467Y-335959D01*
X5372285Y-331197D01*
X5206003Y-164915D01*
X5010476Y-34268D01*
X5003800Y-31503D01*
X5003800Y117579D01*
X4957923Y348219D01*
X4867932Y565476D01*
X4737285Y761003D01*
X4571003Y927285D01*
X4375476Y1057932D01*
X4158219Y1147923D01*
X3927579Y1193800D01*
X3692421Y1193800D01*
X3596871Y1174794D01*
X2146900Y2624764D01*
X2125600Y2650718D01*
X2022057Y2735694D01*
X1903925Y2798837D01*
X1775744Y2837720D01*
X1675845Y2847559D01*
X1642441Y2850849D01*
X1609037Y2847559D01*
X-30759648Y2847559D01*
X-30793042Y2850848D01*
X-30826436Y2847559D01*
X-30826445Y2847559D01*
X-30926344Y2837720D01*
X-31054525Y2798837D01*
X-31172657Y2735694D01*
X-31276200Y2650718D01*
X-31297496Y2624769D01*
X-32893144Y1029121D01*
X-32950600Y1052920D01*
X-33162152Y1095000D01*
X-33377848Y1095000D01*
X-33589400Y1052920D01*
X-33703422Y1005690D01*
X-34864978Y2167244D01*
X-34886278Y2193198D01*
X-34989821Y2278174D01*
X-35107953Y2341317D01*
X-35236134Y2380200D01*
X-35336033Y2390039D01*
X-35369437Y2393329D01*
X-35402841Y2390039D01*
X-52756568Y2390039D01*
X-52789962Y2393328D01*
X-52823356Y2390039D01*
X-52823365Y2390039D01*
X-52923264Y2380200D01*
X-53051445Y2341317D01*
X-53169577Y2278174D01*
X-53273120Y2193198D01*
X-53294416Y2167249D01*
X-54401664Y1060000D01*
X-54604401Y1060000D01*
X-54809191Y1019265D01*
X-55002098Y939360D01*
X-55175711Y823356D01*
X-55323356Y675711D01*
X-55390000Y575971D01*
X-55390000Y3090000D01*
X12290000Y3090000D01*
X12290001Y-4190000D01*
%TA.AperFunction,NonConductor*%
D18*
G36*
X12290001Y-4190000D02*
G01*
X-55390000Y-4190000D01*
X-55390000Y-1859351D01*
X-55376185Y-1876185D01*
X-55279494Y-1955537D01*
X-55169180Y-2014502D01*
X-55049482Y-2050812D01*
X-54925000Y-2063072D01*
X-54075000Y-2063072D01*
X-53950518Y-2050812D01*
X-53830820Y-2014502D01*
X-53826397Y-2012138D01*
X-53809191Y-2019265D01*
X-53604401Y-2060000D01*
X-53395599Y-2060000D01*
X-53190809Y-2019265D01*
X-53000000Y-1940229D01*
X-52809191Y-2019265D01*
X-52604401Y-2060000D01*
X-52395599Y-2060000D01*
X-52190809Y-2019265D01*
X-52000000Y-1940229D01*
X-51809191Y-2019265D01*
X-51604401Y-2060000D01*
X-51395599Y-2060000D01*
X-51190809Y-2019265D01*
X-51000000Y-1940229D01*
X-50809191Y-2019265D01*
X-50604401Y-2060000D01*
X-50395599Y-2060000D01*
X-50190809Y-2019265D01*
X-49997902Y-1939360D01*
X-49824289Y-1823356D01*
X-49676644Y-1675711D01*
X-49560640Y-1502098D01*
X-49480735Y-1309191D01*
X-49440000Y-1104401D01*
X-49440000Y-895599D01*
X-49480735Y-690809D01*
X-49559771Y-500000D01*
X-49480735Y-309191D01*
X-49440000Y-104401D01*
X-49440000Y98335D01*
X-49228334Y310001D01*
X-46126857Y310001D01*
X-46236604Y45046D01*
X-46315000Y-349078D01*
X-46315000Y-750922D01*
X-46236604Y-1145046D01*
X-46082825Y-1516303D01*
X-45859572Y-1850424D01*
X-45575424Y-2134572D01*
X-45241303Y-2357825D01*
X-44870046Y-2511604D01*
X-44475922Y-2590000D01*
X-44074078Y-2590000D01*
X-43679954Y-2511604D01*
X-43308697Y-2357825D01*
X-42974576Y-2134572D01*
X-42690428Y-1850424D01*
X-42467175Y-1516303D01*
X-42313396Y-1145046D01*
X-42235000Y-750922D01*
X-42235000Y-349078D01*
X-42313396Y45046D01*
X-42423143Y310001D01*
X-40674790Y310001D01*
X-40715000Y107848D01*
X-40715000Y-107848D01*
X-40672920Y-319400D01*
X-40590376Y-518677D01*
X-40470542Y-698022D01*
X-40318022Y-850542D01*
X-40138677Y-970376D01*
X-40080000Y-994681D01*
X-40080000Y-1207848D01*
X-40037920Y-1419400D01*
X-39955376Y-1618677D01*
X-39835542Y-1798022D01*
X-39683022Y-1950542D01*
X-39503677Y-2070376D01*
X-39304400Y-2152920D01*
X-39092848Y-2195000D01*
X-38877152Y-2195000D01*
X-38665600Y-2152920D01*
X-38466323Y-2070376D01*
X-38350000Y-1992652D01*
X-38233677Y-2070376D01*
X-38034400Y-2152920D01*
X-37822848Y-2195000D01*
X-37607152Y-2195000D01*
X-37395600Y-2152920D01*
X-37196323Y-2070376D01*
X-37080000Y-1992652D01*
X-36963677Y-2070376D01*
X-36764400Y-2152920D01*
X-36552848Y-2195000D01*
X-36337152Y-2195000D01*
X-36125600Y-2152920D01*
X-35926323Y-2070376D01*
X-35810000Y-1992652D01*
X-35693677Y-2070376D01*
X-35494400Y-2152920D01*
X-35282848Y-2195000D01*
X-35067152Y-2195000D01*
X-34855600Y-2152920D01*
X-34656323Y-2070376D01*
X-34540000Y-1992652D01*
X-34423677Y-2070376D01*
X-34224400Y-2152920D01*
X-34012848Y-2195000D01*
X-33797152Y-2195000D01*
X-33585600Y-2152920D01*
X-33386323Y-2070376D01*
X-33270000Y-1992652D01*
X-33153677Y-2070376D01*
X-32954400Y-2152920D01*
X-32742848Y-2195000D01*
X-32527152Y-2195000D01*
X-32315600Y-2152920D01*
X-32116323Y-2070376D01*
X-32000000Y-1992652D01*
X-31883677Y-2070376D01*
X-31684400Y-2152920D01*
X-31472848Y-2195000D01*
X-31257152Y-2195000D01*
X-31045600Y-2152920D01*
X-30846323Y-2070376D01*
X-30730000Y-1992652D01*
X-30613677Y-2070376D01*
X-30414400Y-2152920D01*
X-30202848Y-2195000D01*
X-29987152Y-2195000D01*
X-29775600Y-2152920D01*
X-29576323Y-2070376D01*
X-29460000Y-1992652D01*
X-29343677Y-2070376D01*
X-29144400Y-2152920D01*
X-28932848Y-2195000D01*
X-28717152Y-2195000D01*
X-28505600Y-2152920D01*
X-28306323Y-2070376D01*
X-28190000Y-1992652D01*
X-28073677Y-2070376D01*
X-27874400Y-2152920D01*
X-27662848Y-2195000D01*
X-27447152Y-2195000D01*
X-27235600Y-2152920D01*
X-27036323Y-2070376D01*
X-26920000Y-1992652D01*
X-26803677Y-2070376D01*
X-26604400Y-2152920D01*
X-26392848Y-2195000D01*
X-26177152Y-2195000D01*
X-25965600Y-2152920D01*
X-25766323Y-2070376D01*
X-25650000Y-1992652D01*
X-25533677Y-2070376D01*
X-25334400Y-2152920D01*
X-25122848Y-2195000D01*
X-24907152Y-2195000D01*
X-24695600Y-2152920D01*
X-24496323Y-2070376D01*
X-24316978Y-1950542D01*
X-24164458Y-1798022D01*
X-24044624Y-1618677D01*
X-23962080Y-1419400D01*
X-23920000Y-1207848D01*
X-23920000Y-994681D01*
X-23861323Y-970376D01*
X-23681978Y-850542D01*
X-23529458Y-698022D01*
X-23409624Y-518677D01*
X-23327080Y-319400D01*
X-23285000Y-107848D01*
X-23285000Y107848D01*
X-23327080Y319400D01*
X-23363573Y407501D01*
X-21536471Y407501D01*
X-21686604Y45046D01*
X-21765000Y-349078D01*
X-21765000Y-750922D01*
X-21686604Y-1145046D01*
X-21532825Y-1516303D01*
X-21309572Y-1850424D01*
X-21025424Y-2134572D01*
X-20691303Y-2357825D01*
X-20320046Y-2511604D01*
X-19925922Y-2590000D01*
X-19524078Y-2590000D01*
X-19129954Y-2511604D01*
X-18758697Y-2357825D01*
X-18424576Y-2134572D01*
X-18140428Y-1850424D01*
X-17917175Y-1516303D01*
X-17763396Y-1145046D01*
X-17685000Y-750922D01*
X-17685000Y-349078D01*
X-17763396Y45046D01*
X-17913529Y407501D01*
X-11020298Y407501D01*
X-11157507Y76248D01*
X-11239500Y-335959D01*
X-11239500Y-756241D01*
X-11157507Y-1168448D01*
X-10996672Y-1556739D01*
X-10763176Y-1906191D01*
X-10465991Y-2203376D01*
X-10116539Y-2436872D01*
X-9728248Y-2597707D01*
X-9316041Y-2679700D01*
X-8895759Y-2679700D01*
X-8483552Y-2597707D01*
X-8095261Y-2436872D01*
X-7745809Y-2203376D01*
X-7448624Y-1906191D01*
X-7215128Y-1556739D01*
X-7054293Y-1168448D01*
X-6972300Y-756241D01*
X-6972300Y-335959D01*
X-7054293Y76248D01*
X-7191502Y407501D01*
X-5179165Y407501D01*
X-4984794Y213129D01*
X-5003800Y117579D01*
X-5003800Y-31503D01*
X-5010476Y-34268D01*
X-5206003Y-164915D01*
X-5372285Y-331197D01*
X-5502932Y-526724D01*
X-5592923Y-743981D01*
X-5638800Y-974621D01*
X-5638800Y-1209779D01*
X-5592923Y-1440419D01*
X-5502932Y-1657676D01*
X-5372285Y-1853203D01*
X-5206003Y-2019485D01*
X-5010476Y-2150132D01*
X-4793219Y-2240123D01*
X-4562579Y-2286000D01*
X-4327421Y-2286000D01*
X-4096781Y-2240123D01*
X-3879524Y-2150132D01*
X-3810000Y-2103678D01*
X-3740476Y-2150132D01*
X-3523219Y-2240123D01*
X-3292579Y-2286000D01*
X-3057421Y-2286000D01*
X-2826781Y-2240123D01*
X-2609524Y-2150132D01*
X-2540000Y-2103678D01*
X-2470476Y-2150132D01*
X-2253219Y-2240123D01*
X-2022579Y-2286000D01*
X-1787421Y-2286000D01*
X-1556781Y-2240123D01*
X-1339524Y-2150132D01*
X-1270000Y-2103678D01*
X-1200476Y-2150132D01*
X-983219Y-2240123D01*
X-752579Y-2286000D01*
X-517421Y-2286000D01*
X-286781Y-2240123D01*
X-69524Y-2150132D01*
X0Y-2103678D01*
X69524Y-2150132D01*
X286781Y-2240123D01*
X517421Y-2286000D01*
X752579Y-2286000D01*
X983219Y-2240123D01*
X1200476Y-2150132D01*
X1270000Y-2103678D01*
X1339524Y-2150132D01*
X1556781Y-2240123D01*
X1787421Y-2286000D01*
X2022579Y-2286000D01*
X2253219Y-2240123D01*
X2470476Y-2150132D01*
X2540000Y-2103678D01*
X2609524Y-2150132D01*
X2826781Y-2240123D01*
X3057421Y-2286000D01*
X3292579Y-2286000D01*
X3523219Y-2240123D01*
X3740476Y-2150132D01*
X3810000Y-2103678D01*
X3879524Y-2150132D01*
X4096781Y-2240123D01*
X4327421Y-2286000D01*
X4562579Y-2286000D01*
X4793219Y-2240123D01*
X5010476Y-2150132D01*
X5206003Y-2019485D01*
X5372285Y-1853203D01*
X5502932Y-1657676D01*
X5592923Y-1440419D01*
X5638800Y-1209779D01*
X5638800Y-974621D01*
X5592923Y-743981D01*
X5502932Y-526724D01*
X5375467Y-335959D01*
X6972300Y-335959D01*
X6972300Y-756241D01*
X7054293Y-1168448D01*
X7215128Y-1556739D01*
X7448624Y-1906191D01*
X7745809Y-2203376D01*
X8095261Y-2436872D01*
X8483552Y-2597707D01*
X8895759Y-2679700D01*
X9316041Y-2679700D01*
X9728248Y-2597707D01*
X10116539Y-2436872D01*
X10465991Y-2203376D01*
X10763176Y-1906191D01*
X10996672Y-1556739D01*
X11157507Y-1168448D01*
X11239500Y-756241D01*
X11239500Y-335959D01*
X11157507Y76248D01*
X10996672Y464539D01*
X10763176Y813991D01*
X10465991Y1111176D01*
X10116539Y1344672D01*
X9728248Y1505507D01*
X9316041Y1587500D01*
X8895759Y1587500D01*
X8483552Y1505507D01*
X8095261Y1344672D01*
X7745809Y1111176D01*
X7448624Y813991D01*
X7215128Y464539D01*
X7054293Y76248D01*
X6972300Y-335959D01*
X5375467Y-335959D01*
X5372285Y-331197D01*
X5206003Y-164915D01*
X5010476Y-34268D01*
X5003800Y-31503D01*
X5003800Y117579D01*
X4957923Y348219D01*
X4867932Y565476D01*
X4737285Y761003D01*
X4571003Y927285D01*
X4375476Y1057932D01*
X4158219Y1147923D01*
X3927579Y1193800D01*
X3692421Y1193800D01*
X3596871Y1174794D01*
X2146900Y2624764D01*
X2125600Y2650718D01*
X2022057Y2735694D01*
X1903925Y2798837D01*
X1775744Y2837720D01*
X1675845Y2847559D01*
X1642441Y2850849D01*
X1609037Y2847559D01*
X-30759648Y2847559D01*
X-30793042Y2850848D01*
X-30826436Y2847559D01*
X-30826445Y2847559D01*
X-30926344Y2837720D01*
X-31054525Y2798837D01*
X-31172657Y2735694D01*
X-31276200Y2650718D01*
X-31297496Y2624769D01*
X-32893144Y1029121D01*
X-32950600Y1052920D01*
X-33162152Y1095000D01*
X-33377848Y1095000D01*
X-33589400Y1052920D01*
X-33703422Y1005690D01*
X-34864978Y2167244D01*
X-34886278Y2193198D01*
X-34989821Y2278174D01*
X-35107953Y2341317D01*
X-35236134Y2380200D01*
X-35336033Y2390039D01*
X-35369437Y2393329D01*
X-35402841Y2390039D01*
X-52756568Y2390039D01*
X-52789962Y2393328D01*
X-52823356Y2390039D01*
X-52823365Y2390039D01*
X-52923264Y2380200D01*
X-53051445Y2341317D01*
X-53169577Y2278174D01*
X-53273120Y2193198D01*
X-53294416Y2167249D01*
X-54401664Y1060000D01*
X-54604401Y1060000D01*
X-54809191Y1019265D01*
X-55002098Y939360D01*
X-55175711Y823356D01*
X-55323356Y675711D01*
X-55390000Y575971D01*
X-55390000Y3090000D01*
X12290000Y3090000D01*
X12290001Y-4190000D01*
G37*
%TD.AperFunction*%
M02*
