%TF.GenerationSoftware,KiCad,Pcbnew,(5.1.10)-1*%
%TF.CreationDate,2022-07-12T19:07:44-06:00*%
%TF.ProjectId,15to25,3135746f-3235-42e6-9b69-6361645f7063,rev?*%
%TF.SameCoordinates,Original*%
%TF.FileFunction,Legend,Bot*%
%TF.FilePolarity,Positive*%
%FSLAX46Y46*%
G04 Gerber Fmt 4.6, Leading zero omitted, Abs format (unit mm)*
G04 Created by KiCad (PCBNEW (5.1.10)-1) date 2022-07-12 19:07:44*
%MOMM*%
%LPD*%
G01*
G04 APERTURE LIST*
%ADD10C,0.100000*%
%ADD11C,0.120000*%
%ADD12C,0.150000*%
G04 APERTURE END LIST*
D10*
X-47679047Y-2490952D02*
X-47907619Y-2490952D01*
X-47793333Y-2890952D02*
X-47793333Y-2490952D01*
X-48040952Y-2890952D02*
X-48040952Y-2624285D01*
X-48040952Y-2700476D02*
X-48060000Y-2662380D01*
X-48079047Y-2643333D01*
X-48117142Y-2624285D01*
X-48155238Y-2624285D01*
X-48288571Y-2890952D02*
X-48288571Y-2624285D01*
X-48288571Y-2490952D02*
X-48269523Y-2510000D01*
X-48288571Y-2529047D01*
X-48307619Y-2510000D01*
X-48288571Y-2490952D01*
X-48288571Y-2529047D01*
X-48479047Y-2890952D02*
X-48479047Y-2490952D01*
X-48612380Y-2776666D01*
X-48745714Y-2490952D01*
X-48745714Y-2890952D01*
X-48936190Y-2890952D02*
X-48936190Y-2624285D01*
X-48936190Y-2490952D02*
X-48917142Y-2510000D01*
X-48936190Y-2529047D01*
X-48955238Y-2510000D01*
X-48936190Y-2490952D01*
X-48936190Y-2529047D01*
X-49298095Y-2871904D02*
X-49260000Y-2890952D01*
X-49183809Y-2890952D01*
X-49145714Y-2871904D01*
X-49126666Y-2852857D01*
X-49107619Y-2814761D01*
X-49107619Y-2700476D01*
X-49126666Y-2662380D01*
X-49145714Y-2643333D01*
X-49183809Y-2624285D01*
X-49260000Y-2624285D01*
X-49298095Y-2643333D01*
X-49469523Y-2890952D02*
X-49469523Y-2624285D01*
X-49469523Y-2700476D02*
X-49488571Y-2662380D01*
X-49507619Y-2643333D01*
X-49545714Y-2624285D01*
X-49583809Y-2624285D01*
X-49774285Y-2890952D02*
X-49736190Y-2871904D01*
X-49717142Y-2852857D01*
X-49698095Y-2814761D01*
X-49698095Y-2700476D01*
X-49717142Y-2662380D01*
X-49736190Y-2643333D01*
X-49774285Y-2624285D01*
X-49831428Y-2624285D01*
X-49869523Y-2643333D01*
X-49888571Y-2662380D01*
X-49907619Y-2700476D01*
X-49907619Y-2814761D01*
X-49888571Y-2852857D01*
X-49869523Y-2871904D01*
X-49831428Y-2890952D01*
X-49774285Y-2890952D01*
X-50079047Y-2890952D02*
X-50079047Y-2490952D01*
X-50174285Y-2490952D01*
X-50231428Y-2510000D01*
X-50269523Y-2548095D01*
X-50288571Y-2586190D01*
X-50307619Y-2662380D01*
X-50307619Y-2719523D01*
X-50288571Y-2795714D01*
X-50269523Y-2833809D01*
X-50231428Y-2871904D01*
X-50174285Y-2890952D01*
X-50079047Y-2890952D01*
X-50707619Y-2852857D02*
X-50688571Y-2871904D01*
X-50631428Y-2890952D01*
X-50593333Y-2890952D01*
X-50536190Y-2871904D01*
X-50498095Y-2833809D01*
X-50479047Y-2795714D01*
X-50460000Y-2719523D01*
X-50460000Y-2662380D01*
X-50479047Y-2586190D01*
X-50498095Y-2548095D01*
X-50536190Y-2510000D01*
X-50593333Y-2490952D01*
X-50631428Y-2490952D01*
X-50688571Y-2510000D01*
X-50707619Y-2529047D01*
X-50936190Y-2890952D02*
X-50898095Y-2871904D01*
X-50879047Y-2852857D01*
X-50860000Y-2814761D01*
X-50860000Y-2700476D01*
X-50879047Y-2662380D01*
X-50898095Y-2643333D01*
X-50936190Y-2624285D01*
X-50993333Y-2624285D01*
X-51031428Y-2643333D01*
X-51050476Y-2662380D01*
X-51069523Y-2700476D01*
X-51069523Y-2814761D01*
X-51050476Y-2852857D01*
X-51031428Y-2871904D01*
X-50993333Y-2890952D01*
X-50936190Y-2890952D01*
X-51240952Y-2624285D02*
X-51240952Y-2890952D01*
X-51240952Y-2662380D02*
X-51260000Y-2643333D01*
X-51298095Y-2624285D01*
X-51355238Y-2624285D01*
X-51393333Y-2643333D01*
X-51412380Y-2681428D01*
X-51412380Y-2890952D01*
X-51564761Y-2624285D02*
X-51660000Y-2890952D01*
X-51755238Y-2624285D01*
X-52060000Y-2871904D02*
X-52021904Y-2890952D01*
X-51945714Y-2890952D01*
X-51907619Y-2871904D01*
X-51888571Y-2833809D01*
X-51888571Y-2681428D01*
X-51907619Y-2643333D01*
X-51945714Y-2624285D01*
X-52021904Y-2624285D01*
X-52060000Y-2643333D01*
X-52079047Y-2681428D01*
X-52079047Y-2719523D01*
X-51888571Y-2757619D01*
X-52250476Y-2890952D02*
X-52250476Y-2624285D01*
X-52250476Y-2700476D02*
X-52269523Y-2662380D01*
X-52288571Y-2643333D01*
X-52326666Y-2624285D01*
X-52364761Y-2624285D01*
X-52440952Y-2624285D02*
X-52593333Y-2624285D01*
X-52498095Y-2490952D02*
X-52498095Y-2833809D01*
X-52517142Y-2871904D01*
X-52555238Y-2890952D01*
X-52593333Y-2890952D01*
X-52631428Y-2929047D02*
X-52936190Y-2929047D01*
X-53240952Y-2890952D02*
X-53012380Y-2890952D01*
X-53126666Y-2890952D02*
X-53126666Y-2490952D01*
X-53088571Y-2548095D01*
X-53050476Y-2586190D01*
X-53012380Y-2605238D01*
X-53602857Y-2490952D02*
X-53412380Y-2490952D01*
X-53393333Y-2681428D01*
X-53412380Y-2662380D01*
X-53450476Y-2643333D01*
X-53545714Y-2643333D01*
X-53583809Y-2662380D01*
X-53602857Y-2681428D01*
X-53621904Y-2719523D01*
X-53621904Y-2814761D01*
X-53602857Y-2852857D01*
X-53583809Y-2871904D01*
X-53545714Y-2890952D01*
X-53450476Y-2890952D01*
X-53412380Y-2871904D01*
X-53393333Y-2852857D01*
X-53793333Y-2890952D02*
X-53793333Y-2490952D01*
X-53945714Y-2490952D01*
X-53983809Y-2510000D01*
X-54002857Y-2529047D01*
X-54021904Y-2567142D01*
X-54021904Y-2624285D01*
X-54002857Y-2662380D01*
X-53983809Y-2681428D01*
X-53945714Y-2700476D01*
X-53793333Y-2700476D01*
X-54193333Y-2890952D02*
X-54193333Y-2624285D01*
X-54193333Y-2490952D02*
X-54174285Y-2510000D01*
X-54193333Y-2529047D01*
X-54212380Y-2510000D01*
X-54193333Y-2490952D01*
X-54193333Y-2529047D01*
X-54383809Y-2624285D02*
X-54383809Y-2890952D01*
X-54383809Y-2662380D02*
X-54402857Y-2643333D01*
X-54440952Y-2624285D01*
X-54498095Y-2624285D01*
X-54536190Y-2643333D01*
X-54555238Y-2681428D01*
X-54555238Y-2890952D01*
X-54650476Y-2929047D02*
X-54955238Y-2929047D01*
X-54993333Y-2490952D02*
X-55126666Y-2890952D01*
X-55260000Y-2490952D01*
X-55602857Y-2890952D02*
X-55374285Y-2890952D01*
X-55488571Y-2890952D02*
X-55488571Y-2490952D01*
X-55450476Y-2548095D01*
X-55412380Y-2586190D01*
X-55374285Y-2605238D01*
X-49831428Y-3476666D02*
X-50021904Y-3476666D01*
X-49793333Y-3590952D02*
X-49926666Y-3190952D01*
X-50060000Y-3590952D01*
X-50364761Y-3324285D02*
X-50364761Y-3590952D01*
X-50193333Y-3324285D02*
X-50193333Y-3533809D01*
X-50212380Y-3571904D01*
X-50250476Y-3590952D01*
X-50307619Y-3590952D01*
X-50345714Y-3571904D01*
X-50364761Y-3552857D01*
X-50726666Y-3324285D02*
X-50726666Y-3648095D01*
X-50707619Y-3686190D01*
X-50688571Y-3705238D01*
X-50650476Y-3724285D01*
X-50593333Y-3724285D01*
X-50555238Y-3705238D01*
X-50726666Y-3571904D02*
X-50688571Y-3590952D01*
X-50612380Y-3590952D01*
X-50574285Y-3571904D01*
X-50555238Y-3552857D01*
X-50536190Y-3514761D01*
X-50536190Y-3400476D01*
X-50555238Y-3362380D01*
X-50574285Y-3343333D01*
X-50612380Y-3324285D01*
X-50688571Y-3324285D01*
X-50726666Y-3343333D01*
X-51088571Y-3324285D02*
X-51088571Y-3590952D01*
X-50917142Y-3324285D02*
X-50917142Y-3533809D01*
X-50936190Y-3571904D01*
X-50974285Y-3590952D01*
X-51031428Y-3590952D01*
X-51069523Y-3571904D01*
X-51088571Y-3552857D01*
X-51260000Y-3571904D02*
X-51298095Y-3590952D01*
X-51374285Y-3590952D01*
X-51412380Y-3571904D01*
X-51431428Y-3533809D01*
X-51431428Y-3514761D01*
X-51412380Y-3476666D01*
X-51374285Y-3457619D01*
X-51317142Y-3457619D01*
X-51279047Y-3438571D01*
X-51260000Y-3400476D01*
X-51260000Y-3381428D01*
X-51279047Y-3343333D01*
X-51317142Y-3324285D01*
X-51374285Y-3324285D01*
X-51412380Y-3343333D01*
X-51545714Y-3324285D02*
X-51698095Y-3324285D01*
X-51602857Y-3190952D02*
X-51602857Y-3533809D01*
X-51621904Y-3571904D01*
X-51660000Y-3590952D01*
X-51698095Y-3590952D01*
X-52117142Y-3229047D02*
X-52136190Y-3210000D01*
X-52174285Y-3190952D01*
X-52269523Y-3190952D01*
X-52307619Y-3210000D01*
X-52326666Y-3229047D01*
X-52345714Y-3267142D01*
X-52345714Y-3305238D01*
X-52326666Y-3362380D01*
X-52098095Y-3590952D01*
X-52345714Y-3590952D01*
X-52593333Y-3190952D02*
X-52631428Y-3190952D01*
X-52669523Y-3210000D01*
X-52688571Y-3229047D01*
X-52707619Y-3267142D01*
X-52726666Y-3343333D01*
X-52726666Y-3438571D01*
X-52707619Y-3514761D01*
X-52688571Y-3552857D01*
X-52669523Y-3571904D01*
X-52631428Y-3590952D01*
X-52593333Y-3590952D01*
X-52555238Y-3571904D01*
X-52536190Y-3552857D01*
X-52517142Y-3514761D01*
X-52498095Y-3438571D01*
X-52498095Y-3343333D01*
X-52517142Y-3267142D01*
X-52536190Y-3229047D01*
X-52555238Y-3210000D01*
X-52593333Y-3190952D01*
X-52879047Y-3229047D02*
X-52898095Y-3210000D01*
X-52936190Y-3190952D01*
X-53031428Y-3190952D01*
X-53069523Y-3210000D01*
X-53088571Y-3229047D01*
X-53107619Y-3267142D01*
X-53107619Y-3305238D01*
X-53088571Y-3362380D01*
X-52860000Y-3590952D01*
X-53107619Y-3590952D01*
X-53488571Y-3590952D02*
X-53260000Y-3590952D01*
X-53374285Y-3590952D02*
X-53374285Y-3190952D01*
X-53336190Y-3248095D01*
X-53298095Y-3286190D01*
X-53260000Y-3305238D01*
X-49298095Y-4290952D02*
X-49164761Y-4100476D01*
X-49069523Y-4290952D02*
X-49069523Y-3890952D01*
X-49221904Y-3890952D01*
X-49260000Y-3910000D01*
X-49279047Y-3929047D01*
X-49298095Y-3967142D01*
X-49298095Y-4024285D01*
X-49279047Y-4062380D01*
X-49260000Y-4081428D01*
X-49221904Y-4100476D01*
X-49069523Y-4100476D01*
X-49431428Y-4024285D02*
X-49526666Y-4290952D01*
X-49621904Y-4024285D02*
X-49526666Y-4290952D01*
X-49488571Y-4386190D01*
X-49469523Y-4405238D01*
X-49431428Y-4424285D01*
X-49945714Y-4290952D02*
X-49945714Y-4081428D01*
X-49926666Y-4043333D01*
X-49888571Y-4024285D01*
X-49812380Y-4024285D01*
X-49774285Y-4043333D01*
X-49945714Y-4271904D02*
X-49907619Y-4290952D01*
X-49812380Y-4290952D01*
X-49774285Y-4271904D01*
X-49755238Y-4233809D01*
X-49755238Y-4195714D01*
X-49774285Y-4157619D01*
X-49812380Y-4138571D01*
X-49907619Y-4138571D01*
X-49945714Y-4119523D01*
X-50136190Y-4024285D02*
X-50136190Y-4290952D01*
X-50136190Y-4062380D02*
X-50155238Y-4043333D01*
X-50193333Y-4024285D01*
X-50250476Y-4024285D01*
X-50288571Y-4043333D01*
X-50307619Y-4081428D01*
X-50307619Y-4290952D01*
X-50802857Y-4290952D02*
X-50802857Y-3890952D01*
X-50936190Y-4176666D01*
X-51069523Y-3890952D01*
X-51069523Y-4290952D01*
X-51317142Y-4290952D02*
X-51279047Y-4271904D01*
X-51260000Y-4252857D01*
X-51240952Y-4214761D01*
X-51240952Y-4100476D01*
X-51260000Y-4062380D01*
X-51279047Y-4043333D01*
X-51317142Y-4024285D01*
X-51374285Y-4024285D01*
X-51412380Y-4043333D01*
X-51431428Y-4062380D01*
X-51450476Y-4100476D01*
X-51450476Y-4214761D01*
X-51431428Y-4252857D01*
X-51412380Y-4271904D01*
X-51374285Y-4290952D01*
X-51317142Y-4290952D01*
X-51621904Y-4290952D02*
X-51621904Y-4024285D01*
X-51621904Y-4100476D02*
X-51640952Y-4062380D01*
X-51660000Y-4043333D01*
X-51698095Y-4024285D01*
X-51736190Y-4024285D01*
X-52040952Y-4024285D02*
X-52040952Y-4348095D01*
X-52021904Y-4386190D01*
X-52002857Y-4405238D01*
X-51964761Y-4424285D01*
X-51907619Y-4424285D01*
X-51869523Y-4405238D01*
X-52040952Y-4271904D02*
X-52002857Y-4290952D01*
X-51926666Y-4290952D01*
X-51888571Y-4271904D01*
X-51869523Y-4252857D01*
X-51850476Y-4214761D01*
X-51850476Y-4100476D01*
X-51869523Y-4062380D01*
X-51888571Y-4043333D01*
X-51926666Y-4024285D01*
X-52002857Y-4024285D01*
X-52040952Y-4043333D01*
X-52383809Y-4271904D02*
X-52345714Y-4290952D01*
X-52269523Y-4290952D01*
X-52231428Y-4271904D01*
X-52212380Y-4233809D01*
X-52212380Y-4081428D01*
X-52231428Y-4043333D01*
X-52269523Y-4024285D01*
X-52345714Y-4024285D01*
X-52383809Y-4043333D01*
X-52402857Y-4081428D01*
X-52402857Y-4119523D01*
X-52212380Y-4157619D01*
X-52574285Y-4024285D02*
X-52574285Y-4290952D01*
X-52574285Y-4062380D02*
X-52593333Y-4043333D01*
X-52631428Y-4024285D01*
X-52688571Y-4024285D01*
X-52726666Y-4043333D01*
X-52745714Y-4081428D01*
X-52745714Y-4290952D01*
X-52917142Y-4271904D02*
X-52955238Y-4290952D01*
X-53031428Y-4290952D01*
X-53069523Y-4271904D01*
X-53088571Y-4233809D01*
X-53088571Y-4214761D01*
X-53069523Y-4176666D01*
X-53031428Y-4157619D01*
X-52974285Y-4157619D01*
X-52936190Y-4138571D01*
X-52917142Y-4100476D01*
X-52917142Y-4081428D01*
X-52936190Y-4043333D01*
X-52974285Y-4024285D01*
X-53031428Y-4024285D01*
X-53069523Y-4043333D01*
X-53202857Y-4024285D02*
X-53355238Y-4024285D01*
X-53260000Y-3890952D02*
X-53260000Y-4233809D01*
X-53279047Y-4271904D01*
X-53317142Y-4290952D01*
X-53355238Y-4290952D01*
X-53640952Y-4271904D02*
X-53602857Y-4290952D01*
X-53526666Y-4290952D01*
X-53488571Y-4271904D01*
X-53469523Y-4233809D01*
X-53469523Y-4081428D01*
X-53488571Y-4043333D01*
X-53526666Y-4024285D01*
X-53602857Y-4024285D01*
X-53640952Y-4043333D01*
X-53660000Y-4081428D01*
X-53660000Y-4119523D01*
X-53469523Y-4157619D01*
X-53831428Y-4290952D02*
X-53831428Y-4024285D01*
X-53831428Y-4100476D02*
X-53850476Y-4062380D01*
X-53869523Y-4043333D01*
X-53907619Y-4024285D01*
X-53945714Y-4024285D01*
X-54079047Y-4024285D02*
X-54079047Y-4290952D01*
X-54079047Y-4062380D02*
X-54098095Y-4043333D01*
X-54136190Y-4024285D01*
X-54193333Y-4024285D01*
X-54231428Y-4043333D01*
X-54250476Y-4081428D01*
X-54250476Y-4290952D01*
D11*
%TO.C,J2*%
X-127000Y-4419600D02*
X-127000Y-4165600D01*
X127000Y-4419600D02*
X-127000Y-4419600D01*
X127000Y-4165600D02*
X127000Y-4419600D01*
X-127000Y-4165600D02*
X127000Y-4165600D01*
X-11874500Y-4419600D02*
X-11874500Y3327400D01*
X11874500Y-4419600D02*
X-11874500Y-4419600D01*
X11874500Y3327400D02*
X11874500Y-4419600D01*
X-11874500Y3327400D02*
X11874500Y3327400D01*
D12*
%TO.C,J4*%
X-23920000Y960000D02*
X-22920000Y-40000D01*
X-22920000Y-40000D02*
X-22920000Y-2060000D01*
X-22920000Y-2060000D02*
X-41080000Y-2060000D01*
X-41080000Y-2060000D02*
X-41080000Y960000D01*
X-41080000Y960000D02*
X-23920000Y960000D01*
%TO.C,J2*%
X333333Y-544580D02*
X333333Y-1258866D01*
X380952Y-1401723D01*
X476190Y-1496961D01*
X619047Y-1544580D01*
X714285Y-1544580D01*
X-95238Y-639819D02*
X-142857Y-592200D01*
X-238095Y-544580D01*
X-476190Y-544580D01*
X-571428Y-592200D01*
X-619047Y-639819D01*
X-666666Y-735057D01*
X-666666Y-830295D01*
X-619047Y-973152D01*
X-47619Y-1544580D01*
X-666666Y-1544580D01*
X3364523Y-6544580D02*
X3364523Y-5544580D01*
X3126428Y-5544580D01*
X2983571Y-5592200D01*
X2888333Y-5687438D01*
X2840714Y-5782676D01*
X2793095Y-5973152D01*
X2793095Y-6116009D01*
X2840714Y-6306485D01*
X2888333Y-6401723D01*
X2983571Y-6496961D01*
X3126428Y-6544580D01*
X3364523Y-6544580D01*
X2031190Y-6020771D02*
X1888333Y-6068390D01*
X1840714Y-6116009D01*
X1793095Y-6211247D01*
X1793095Y-6354104D01*
X1840714Y-6449342D01*
X1888333Y-6496961D01*
X1983571Y-6544580D01*
X2364523Y-6544580D01*
X2364523Y-5544580D01*
X2031190Y-5544580D01*
X1935952Y-5592200D01*
X1888333Y-5639819D01*
X1840714Y-5735057D01*
X1840714Y-5830295D01*
X1888333Y-5925533D01*
X1935952Y-5973152D01*
X2031190Y-6020771D01*
X2364523Y-6020771D01*
X840714Y-6544580D02*
X1412142Y-6544580D01*
X1126428Y-6544580D02*
X1126428Y-5544580D01*
X1221666Y-5687438D01*
X1316904Y-5782676D01*
X1412142Y-5830295D01*
X-64047Y-5544580D02*
X412142Y-5544580D01*
X459761Y-6020771D01*
X412142Y-5973152D01*
X316904Y-5925533D01*
X78809Y-5925533D01*
X-16428Y-5973152D01*
X-64047Y-6020771D01*
X-111666Y-6116009D01*
X-111666Y-6354104D01*
X-64047Y-6449342D01*
X-16428Y-6496961D01*
X78809Y-6544580D01*
X316904Y-6544580D01*
X412142Y-6496961D01*
X459761Y-6449342D01*
X-302142Y-6639819D02*
X-1064047Y-6639819D01*
X-1302142Y-6544580D02*
X-1302142Y-5544580D01*
X-1635476Y-6258866D01*
X-1968809Y-5544580D01*
X-1968809Y-6544580D01*
X-2873571Y-6544580D02*
X-2873571Y-6020771D01*
X-2825952Y-5925533D01*
X-2730714Y-5877914D01*
X-2540238Y-5877914D01*
X-2445000Y-5925533D01*
X-2873571Y-6496961D02*
X-2778333Y-6544580D01*
X-2540238Y-6544580D01*
X-2445000Y-6496961D01*
X-2397380Y-6401723D01*
X-2397380Y-6306485D01*
X-2445000Y-6211247D01*
X-2540238Y-6163628D01*
X-2778333Y-6163628D01*
X-2873571Y-6116009D01*
X-3492619Y-6544580D02*
X-3397380Y-6496961D01*
X-3349761Y-6401723D01*
X-3349761Y-5544580D01*
X-4254523Y-6496961D02*
X-4159285Y-6544580D01*
X-3968809Y-6544580D01*
X-3873571Y-6496961D01*
X-3825952Y-6401723D01*
X-3825952Y-6020771D01*
X-3873571Y-5925533D01*
X-3968809Y-5877914D01*
X-4159285Y-5877914D01*
X-4254523Y-5925533D01*
X-4302142Y-6020771D01*
X-4302142Y-6116009D01*
X-3825952Y-6211247D01*
X-6985000Y-544580D02*
X-6985000Y-782676D01*
X-6746904Y-687438D02*
X-6985000Y-782676D01*
X-7223095Y-687438D01*
X-6842142Y-973152D02*
X-6985000Y-782676D01*
X-7127857Y-973152D01*
X-6985000Y-544580D02*
X-6985000Y-782676D01*
X-6746904Y-687438D02*
X-6985000Y-782676D01*
X-7223095Y-687438D01*
X-6842142Y-973152D02*
X-6985000Y-782676D01*
X-7127857Y-973152D01*
%TO.C,J4*%
X-31600000Y-2602857D02*
X-31600000Y-3460000D01*
X-31542857Y-3631428D01*
X-31428571Y-3745714D01*
X-31257142Y-3802857D01*
X-31142857Y-3802857D01*
X-32685714Y-3002857D02*
X-32685714Y-3802857D01*
X-32400000Y-2545714D02*
X-32114285Y-3402857D01*
X-32857142Y-3402857D01*
%TD*%
M02*
