%TF.GenerationSoftware,KiCad,Pcbnew,(5.1.10)-1*%
%TF.CreationDate,2022-07-14T12:48:38-06:00*%
%TF.ProjectId,15to25,3135746f-3235-42e6-9b69-6361645f7063,rev?*%
%TF.SameCoordinates,Original*%
%TF.FileFunction,Copper,L2,Bot*%
%TF.FilePolarity,Positive*%
%FSLAX46Y46*%
G04 Gerber Fmt 4.6, Leading zero omitted, Abs format (unit mm)*
G04 Created by KiCad (PCBNEW (5.1.10)-1) date 2022-07-14 12:48:38*
%MOMM*%
%LPD*%
G01*
G04 APERTURE LIST*
%TA.AperFunction,ComponentPad*%
%ADD10O,1.200000X1.750000*%
%TD*%
%TA.AperFunction,ComponentPad*%
%ADD11O,0.850000X0.850000*%
%TD*%
%TA.AperFunction,ComponentPad*%
%ADD12R,0.850000X0.850000*%
%TD*%
%TA.AperFunction,ComponentPad*%
%ADD13C,3.600000*%
%TD*%
%TA.AperFunction,ComponentPad*%
%ADD14O,0.920000X0.920000*%
%TD*%
%TA.AperFunction,ComponentPad*%
%ADD15C,1.117600*%
%TD*%
%TA.AperFunction,Conductor*%
%ADD16C,0.135000*%
%TD*%
%TA.AperFunction,Conductor*%
%ADD17C,0.254000*%
%TD*%
%TA.AperFunction,Conductor*%
%ADD18C,0.100000*%
%TD*%
G04 APERTURE END LIST*
D10*
%TO.P,J3,4*%
%TO.N,Net-(J3-Pad4)*%
X-56500000Y0D03*
%TO.P,J3,3*%
%TO.N,Net-(J3-Pad3)*%
X-58500000Y0D03*
%TO.P,J3,2*%
%TO.N,Net-(J3-Pad2)*%
X-60500000Y0D03*
%TO.P,J3,1*%
%TO.N,Net-(J3-Pad1)*%
%TA.AperFunction,ComponentPad*%
G36*
G01*
X-63100000Y-625001D02*
X-63100000Y625001D01*
G75*
G02*
X-62850001Y875000I249999J0D01*
G01*
X-62149999Y875000D01*
G75*
G02*
X-61900000Y625001I0J-249999D01*
G01*
X-61900000Y-625001D01*
G75*
G02*
X-62149999Y-875000I-249999J0D01*
G01*
X-62850001Y-875000D01*
G75*
G02*
X-63100000Y-625001I0J249999D01*
G01*
G37*
%TD.AperFunction*%
%TD*%
%TO.P,J1,4*%
%TO.N,Net-(J1-Pad4)*%
X-69500000Y0D03*
%TO.P,J1,3*%
%TO.N,Net-(J1-Pad3)*%
X-71500000Y0D03*
%TO.P,J1,2*%
%TO.N,Net-(J1-Pad2)*%
X-73500000Y0D03*
%TO.P,J1,1*%
%TO.N,Net-(J1-Pad1)*%
%TA.AperFunction,ComponentPad*%
G36*
G01*
X-76100000Y-625001D02*
X-76100000Y625001D01*
G75*
G02*
X-75850001Y875000I249999J0D01*
G01*
X-75149999Y875000D01*
G75*
G02*
X-74900000Y625001I0J-249999D01*
G01*
X-74900000Y-625001D01*
G75*
G02*
X-75149999Y-875000I-249999J0D01*
G01*
X-75850001Y-875000D01*
G75*
G02*
X-76100000Y-625001I0J249999D01*
G01*
G37*
%TD.AperFunction*%
%TD*%
D11*
%TO.P,J5,2*%
%TO.N,Net-(J4-Pad25)*%
X-51150000Y-1010000D03*
D12*
%TO.P,J5,1*%
%TO.N,Net-(J4-Pad12)*%
X-51150000Y-10000D03*
%TD*%
D13*
%TO.P,J4,0*%
%TO.N,GND*%
X-19725000Y-550000D03*
X-44275000Y-550000D03*
D14*
%TO.P,J4,13*%
%TO.N,Net-(J4-Pad13)*%
X-39620000Y0D03*
%TO.P,J4,25*%
%TO.N,Net-(J4-Pad25)*%
X-38985000Y-1100000D03*
%TO.P,J4,12*%
%TO.N,Net-(J4-Pad12)*%
X-38350000Y0D03*
%TO.P,J4,24*%
%TO.N,Net-(J3-Pad4)*%
X-37715000Y-1100000D03*
%TO.P,J4,11*%
%TO.N,Net-(J3-Pad3)*%
X-37080000Y0D03*
%TO.P,J4,23*%
%TO.N,Net-(J3-Pad2)*%
X-36445000Y-1100000D03*
%TO.P,J4,10*%
%TO.N,Net-(J3-Pad1)*%
X-35810000Y0D03*
%TO.P,J4,22*%
%TO.N,Net-(J1-Pad4)*%
X-35175000Y-1100000D03*
%TO.P,J4,9*%
%TO.N,Net-(J1-Pad3)*%
X-34540000Y0D03*
%TO.P,J4,21*%
%TO.N,Net-(J1-Pad2)*%
X-33905000Y-1100000D03*
%TO.P,J4,8*%
%TO.N,Net-(J1-Pad1)*%
X-33270000Y0D03*
%TO.P,J4,20*%
%TO.N,Net-(J2-Pad15)*%
X-32635000Y-1100000D03*
%TO.P,J4,7*%
%TO.N,Net-(J2-Pad8)*%
X-32000000Y0D03*
%TO.P,J4,19*%
%TO.N,Net-(J2-Pad14)*%
X-31365000Y-1100000D03*
%TO.P,J4,6*%
%TO.N,Net-(J2-Pad7)*%
X-30730000Y0D03*
%TO.P,J4,18*%
%TO.N,Net-(J2-Pad13)*%
X-30095000Y-1100000D03*
%TO.P,J4,5*%
%TO.N,Net-(J2-Pad6)*%
X-29460000Y0D03*
%TO.P,J4,17*%
%TO.N,Net-(J2-Pad12)*%
X-28825000Y-1100000D03*
%TO.P,J4,4*%
%TO.N,Net-(J2-Pad5)*%
X-28190000Y0D03*
%TO.P,J4,16*%
%TO.N,Net-(J2-Pad11)*%
X-27555000Y-1100000D03*
%TO.P,J4,3*%
%TO.N,Net-(J2-Pad4)*%
X-26920000Y0D03*
%TO.P,J4,15*%
%TO.N,Net-(J2-Pad10)*%
X-26285000Y-1100000D03*
%TO.P,J4,2*%
%TO.N,Net-(J2-Pad2)*%
X-25650000Y0D03*
%TO.P,J4,14*%
%TO.N,Net-(J2-Pad9)*%
X-25015000Y-1100000D03*
%TO.P,J4,1*%
%TO.N,Net-(J2-Pad1)*%
X-24380000Y0D03*
%TD*%
D13*
%TO.P,J2,0*%
%TO.N,GND*%
X9105900Y-546100D03*
X-9105900Y-546100D03*
D15*
%TO.P,J2,15*%
%TO.N,Net-(J2-Pad15)*%
X3810000Y0D03*
%TO.P,J2,14*%
%TO.N,Net-(J2-Pad14)*%
X2540000Y0D03*
%TO.P,J2,13*%
%TO.N,Net-(J2-Pad13)*%
X1270000Y0D03*
%TO.P,J2,12*%
%TO.N,Net-(J2-Pad12)*%
X0Y0D03*
%TO.P,J2,11*%
%TO.N,Net-(J2-Pad11)*%
X-1270000Y0D03*
%TO.P,J2,10*%
%TO.N,Net-(J2-Pad10)*%
X-2540000Y0D03*
%TO.P,J2,9*%
%TO.N,Net-(J2-Pad9)*%
X-3810000Y0D03*
%TO.P,J2,8*%
%TO.N,Net-(J2-Pad8)*%
X4445000Y-1092200D03*
%TO.P,J2,7*%
%TO.N,Net-(J2-Pad7)*%
X3175000Y-1092200D03*
%TO.P,J2,6*%
%TO.N,Net-(J2-Pad6)*%
X1905000Y-1092200D03*
%TO.P,J2,5*%
%TO.N,Net-(J2-Pad5)*%
X635000Y-1092200D03*
%TO.P,J2,4*%
%TO.N,Net-(J2-Pad4)*%
X-635000Y-1092200D03*
%TO.P,J2,3*%
%TO.N,Net-(J2-Pad3)*%
X-1905000Y-1092200D03*
%TO.P,J2,2*%
%TO.N,Net-(J2-Pad2)*%
X-3175000Y-1092200D03*
%TO.P,J2,1*%
%TO.N,Net-(J2-Pad1)*%
X-4445000Y-1092200D03*
%TD*%
D16*
%TO.N,Net-(J1-Pad1)*%
X-35295009Y2025009D02*
X-33270000Y0D01*
X-73474991Y2025009D02*
X-35295009Y2025009D01*
X-75500000Y0D02*
X-73474991Y2025009D01*
%TO.N,Net-(J1-Pad2)*%
X-70374990Y-3125010D02*
X-73500000Y0D01*
X-35930010Y-3125010D02*
X-70374990Y-3125010D01*
X-33905000Y-1100000D02*
X-35930010Y-3125010D01*
%TO.N,Net-(J1-Pad3)*%
X-71500000Y0D02*
X-69700000Y1800000D01*
X-36340000Y1800000D02*
X-34540000Y0D01*
X-69700000Y1800000D02*
X-36340000Y1800000D01*
%TO.N,Net-(J1-Pad4)*%
X-35175000Y-1100000D02*
X-36975000Y-2900000D01*
X-66600000Y-2900000D02*
X-69500000Y0D01*
X-36975000Y-2900000D02*
X-66600000Y-2900000D01*
%TO.N,Net-(J2-Pad15)*%
X-32635000Y278902D02*
X-32635000Y-1100000D01*
X-30538872Y2375030D02*
X-32635000Y278902D01*
X1434970Y2375030D02*
X-30538872Y2375030D01*
X3810000Y0D02*
X1434970Y2375030D01*
%TO.N,Net-(J2-Pad11)*%
X-3420020Y2150020D02*
X-1270000Y0D01*
X-25683882Y2150020D02*
X-3420020Y2150020D01*
X-27555000Y278902D02*
X-25683882Y2150020D01*
X-27555000Y-1100000D02*
X-27555000Y278902D01*
%TO.N,Net-(J2-Pad10)*%
X-4465010Y1925010D02*
X-2540000Y0D01*
X-24638892Y1925010D02*
X-4465010Y1925010D01*
X-26285000Y278902D02*
X-24638892Y1925010D01*
X-26285000Y-1100000D02*
X-26285000Y278902D01*
%TO.N,Net-(J2-Pad9)*%
X-25015000Y278902D02*
X-23593902Y1700000D01*
X-25015000Y-1100000D02*
X-25015000Y278902D01*
X-5510000Y1700000D02*
X-3810000Y0D01*
X-23593902Y1700000D02*
X-5510000Y1700000D01*
%TO.N,Net-(J2-Pad8)*%
X-32000000Y-1378902D02*
X-32000000Y0D01*
X-30003873Y-3375029D02*
X-32000000Y-1378902D01*
X2162171Y-3375029D02*
X-30003873Y-3375029D01*
X4445000Y-1092200D02*
X2162171Y-3375029D01*
%TO.N,Net-(J2-Pad7)*%
X1117181Y-3150019D02*
X3175000Y-1092200D01*
X-28958883Y-3150019D02*
X1117181Y-3150019D01*
X-30730000Y-1378902D02*
X-28958883Y-3150019D01*
X-30730000Y0D02*
X-30730000Y-1378902D01*
%TO.N,Net-(J2-Pad6)*%
X-29460000Y-1378902D02*
X-29460000Y0D01*
X-27913893Y-2925009D02*
X-29460000Y-1378902D01*
X72191Y-2925009D02*
X-27913893Y-2925009D01*
X1905000Y-1092200D02*
X72191Y-2925009D01*
%TO.N,Net-(J2-Pad5)*%
X-28190000Y-1378902D02*
X-26868902Y-2700000D01*
X-28190000Y0D02*
X-28190000Y-1378902D01*
X-972800Y-2700000D02*
X635000Y-1092200D01*
X-26868902Y-2700000D02*
X-972800Y-2700000D01*
%TD*%
D17*
%TO.N,Net-(J2-Pad12)*%
X-28698000Y-973000D02*
X-28678000Y-973000D01*
X-28678000Y-1227000D01*
X-28698000Y-1227000D01*
X-28698000Y-1247000D01*
X-28952000Y-1247000D01*
X-28952000Y-1227000D01*
X-28972000Y-1227000D01*
X-28972000Y-973000D01*
X-28952000Y-973000D01*
X-28952000Y-953000D01*
X-28698000Y-953000D01*
X-28698000Y-973000D01*
%TA.AperFunction,Conductor*%
D18*
G36*
X-28698000Y-973000D02*
G01*
X-28678000Y-973000D01*
X-28678000Y-1227000D01*
X-28698000Y-1227000D01*
X-28698000Y-1247000D01*
X-28952000Y-1247000D01*
X-28952000Y-1227000D01*
X-28972000Y-1227000D01*
X-28972000Y-973000D01*
X-28952000Y-973000D01*
X-28952000Y-953000D01*
X-28698000Y-953000D01*
X-28698000Y-973000D01*
G37*
%TD.AperFunction*%
D17*
X2380639Y871455D02*
X2281622Y851759D01*
X2120416Y784986D01*
X1975335Y688046D01*
X1905000Y617711D01*
X1834665Y688046D01*
X1689584Y784986D01*
X1528378Y851759D01*
X1357244Y885800D01*
X1182756Y885800D01*
X1011622Y851759D01*
X850416Y784986D01*
X705335Y688046D01*
X581954Y564665D01*
X485014Y419584D01*
X418241Y258378D01*
X413339Y233733D01*
X179605Y0D01*
X193748Y-14142D01*
X14142Y-193748D01*
X0Y-179605D01*
X-14142Y-193748D01*
X-193748Y-14142D01*
X-179605Y0D01*
X-413339Y233733D01*
X-418241Y258378D01*
X-485014Y419584D01*
X-581954Y564665D01*
X-705335Y688046D01*
X-850416Y784986D01*
X-935621Y820279D01*
X-640673Y820279D01*
X0Y179605D01*
X640673Y820279D01*
X598385Y1039672D01*
X384057Y1136434D01*
X154970Y1189524D01*
X-80072Y1196901D01*
X-312037Y1158281D01*
X-532011Y1075149D01*
X-598385Y1039672D01*
X-640673Y820279D01*
X-935621Y820279D01*
X-1011622Y851759D01*
X-1182756Y885800D01*
X-1357244Y885800D01*
X-1528378Y851759D01*
X-1553462Y841369D01*
X-2692624Y1980530D01*
X1271564Y1980530D01*
X2380639Y871455D01*
%TA.AperFunction,Conductor*%
D18*
G36*
X2380639Y871455D02*
G01*
X2281622Y851759D01*
X2120416Y784986D01*
X1975335Y688046D01*
X1905000Y617711D01*
X1834665Y688046D01*
X1689584Y784986D01*
X1528378Y851759D01*
X1357244Y885800D01*
X1182756Y885800D01*
X1011622Y851759D01*
X850416Y784986D01*
X705335Y688046D01*
X581954Y564665D01*
X485014Y419584D01*
X418241Y258378D01*
X413339Y233733D01*
X179605Y0D01*
X193748Y-14142D01*
X14142Y-193748D01*
X0Y-179605D01*
X-14142Y-193748D01*
X-193748Y-14142D01*
X-179605Y0D01*
X-413339Y233733D01*
X-418241Y258378D01*
X-485014Y419584D01*
X-581954Y564665D01*
X-705335Y688046D01*
X-850416Y784986D01*
X-935621Y820279D01*
X-640673Y820279D01*
X0Y179605D01*
X640673Y820279D01*
X598385Y1039672D01*
X384057Y1136434D01*
X154970Y1189524D01*
X-80072Y1196901D01*
X-312037Y1158281D01*
X-532011Y1075149D01*
X-598385Y1039672D01*
X-640673Y820279D01*
X-935621Y820279D01*
X-1011622Y851759D01*
X-1182756Y885800D01*
X-1357244Y885800D01*
X-1528378Y851759D01*
X-1553462Y841369D01*
X-2692624Y1980530D01*
X1271564Y1980530D01*
X2380639Y871455D01*
G37*
%TD.AperFunction*%
%TD*%
M02*
