%TF.GenerationSoftware,KiCad,Pcbnew,(5.1.9)-1*%
%TF.CreationDate,2021-08-10T11:08:19-06:00*%
%TF.ProjectId,15to25,3135746f-3235-42e6-9b69-6361645f7063,rev?*%
%TF.SameCoordinates,Original*%
%TF.FileFunction,Copper,L1,Top*%
%TF.FilePolarity,Positive*%
%FSLAX46Y46*%
G04 Gerber Fmt 4.6, Leading zero omitted, Abs format (unit mm)*
G04 Created by KiCad (PCBNEW (5.1.9)-1) date 2021-08-10 11:08:19*
%MOMM*%
%LPD*%
G01*
G04 APERTURE LIST*
%TA.AperFunction,ComponentPad*%
%ADD10O,2.810000X2.810000*%
%TD*%
%TA.AperFunction,ComponentPad*%
%ADD11O,0.920000X0.920000*%
%TD*%
%TA.AperFunction,ComponentPad*%
%ADD12R,0.850000X0.850000*%
%TD*%
%TA.AperFunction,ComponentPad*%
%ADD13O,0.850000X0.850000*%
%TD*%
%TA.AperFunction,ComponentPad*%
%ADD14C,2.997200*%
%TD*%
%TA.AperFunction,ComponentPad*%
%ADD15C,1.117600*%
%TD*%
%TA.AperFunction,Conductor*%
%ADD16C,0.090000*%
%TD*%
%TA.AperFunction,NonConductor*%
%ADD17C,0.254000*%
%TD*%
%TA.AperFunction,NonConductor*%
%ADD18C,0.100000*%
%TD*%
G04 APERTURE END LIST*
D10*
%TO.P,J1,27*%
%TO.N,N/C*%
X-19725000Y-550000D03*
%TO.P,J1,26*%
X-44275000Y-550000D03*
D11*
%TO.P,J1,13*%
%TO.N,Net-(J4-Pad13)*%
X-39620000Y0D03*
%TO.P,J1,25*%
%TO.N,Net-(J1-Pad10)*%
X-38985000Y-1100000D03*
%TO.P,J1,12*%
%TO.N,Net-(J1-Pad9)*%
X-38350000Y0D03*
%TO.P,J1,24*%
%TO.N,Net-(J1-Pad8)*%
X-37715000Y-1100000D03*
%TO.P,J1,11*%
%TO.N,Net-(J1-Pad7)*%
X-37080000Y0D03*
%TO.P,J1,23*%
%TO.N,Net-(J1-Pad6)*%
X-36445000Y-1100000D03*
%TO.P,J1,10*%
%TO.N,Net-(J1-Pad5)*%
X-35810000Y0D03*
%TO.P,J1,22*%
%TO.N,Net-(J1-Pad4)*%
X-35175000Y-1100000D03*
%TO.P,J1,9*%
%TO.N,Net-(J1-Pad3)*%
X-34540000Y0D03*
%TO.P,J1,21*%
%TO.N,Net-(J1-Pad2)*%
X-33905000Y-1100000D03*
%TO.P,J1,8*%
%TO.N,Net-(J1-Pad1)*%
X-33270000Y0D03*
%TO.P,J1,20*%
%TO.N,Net-(J2-Pad15)*%
X-32635000Y-1100000D03*
%TO.P,J1,7*%
%TO.N,Net-(J2-Pad8)*%
X-32000000Y0D03*
%TO.P,J1,19*%
%TO.N,Net-(J2-Pad14)*%
X-31365000Y-1100000D03*
%TO.P,J1,6*%
%TO.N,Net-(J2-Pad6)*%
X-30730000Y0D03*
%TO.P,J1,18*%
%TO.N,Net-(J2-Pad13)*%
X-30095000Y-1100000D03*
%TO.P,J1,5*%
%TO.N,Net-(J2-Pad5)*%
X-29460000Y0D03*
%TO.P,J1,17*%
%TO.N,Net-(J2-Pad12)*%
X-28825000Y-1100000D03*
%TO.P,J1,4*%
%TO.N,Net-(J2-Pad4)*%
X-28190000Y0D03*
%TO.P,J1,16*%
%TO.N,Net-(J2-Pad11)*%
X-27555000Y-1100000D03*
%TO.P,J1,3*%
%TO.N,Net-(J2-Pad3)*%
X-26920000Y0D03*
%TO.P,J1,15*%
%TO.N,Net-(J2-Pad10)*%
X-26285000Y-1100000D03*
%TO.P,J1,2*%
%TO.N,Net-(J2-Pad2)*%
X-25650000Y0D03*
%TO.P,J1,14*%
%TO.N,Net-(J2-Pad9)*%
X-25015000Y-1100000D03*
%TO.P,J1,1*%
%TO.N,Net-(J2-Pad1)*%
X-24380000Y0D03*
%TD*%
D12*
%TO.P,J1,1*%
%TO.N,Net-(J1-Pad1)*%
X-54500000Y-1000000D03*
D13*
%TO.P,J1,2*%
%TO.N,Net-(J1-Pad2)*%
X-54500000Y0D03*
%TO.P,J1,3*%
%TO.N,Net-(J1-Pad3)*%
X-53500000Y-1000000D03*
%TO.P,J1,4*%
%TO.N,Net-(J1-Pad4)*%
X-53500000Y0D03*
%TO.P,J1,5*%
%TO.N,Net-(J1-Pad5)*%
X-52500000Y-1000000D03*
%TO.P,J1,6*%
%TO.N,Net-(J1-Pad6)*%
X-52500000Y0D03*
%TO.P,J1,7*%
%TO.N,Net-(J1-Pad7)*%
X-51500000Y-1000000D03*
%TO.P,J1,8*%
%TO.N,Net-(J1-Pad8)*%
X-51500000Y0D03*
%TO.P,J1,9*%
%TO.N,Net-(J1-Pad9)*%
X-50500000Y-1000000D03*
%TO.P,J1,10*%
%TO.N,Net-(J1-Pad10)*%
X-50500000Y0D03*
%TD*%
D14*
%TO.P,J2,17*%
%TO.N,N/C*%
X9105900Y-546100D03*
%TO.P,J2,16*%
X-9105900Y-546100D03*
D15*
%TO.P,J2,15*%
%TO.N,Net-(J2-Pad15)*%
X3810000Y0D03*
%TO.P,J2,14*%
%TO.N,Net-(J2-Pad14)*%
X2540000Y0D03*
%TO.P,J2,13*%
%TO.N,Net-(J2-Pad13)*%
X1270000Y0D03*
%TO.P,J2,12*%
%TO.N,Net-(J2-Pad12)*%
X0Y0D03*
%TO.P,J2,11*%
%TO.N,Net-(J2-Pad11)*%
X-1270000Y0D03*
%TO.P,J2,10*%
%TO.N,Net-(J2-Pad10)*%
X-2540000Y0D03*
%TO.P,J2,9*%
%TO.N,Net-(J2-Pad9)*%
X-3810000Y0D03*
%TO.P,J2,8*%
%TO.N,Net-(J2-Pad8)*%
X4445000Y-1092200D03*
%TO.P,J2,7*%
%TO.N,Net-(J2-Pad7)*%
X3175000Y-1092200D03*
%TO.P,J2,6*%
%TO.N,Net-(J2-Pad6)*%
X1905000Y-1092200D03*
%TO.P,J2,5*%
%TO.N,Net-(J2-Pad5)*%
X635000Y-1092200D03*
%TO.P,J2,4*%
%TO.N,Net-(J2-Pad4)*%
X-635000Y-1092200D03*
%TO.P,J2,3*%
%TO.N,Net-(J2-Pad3)*%
X-1905000Y-1092200D03*
%TO.P,J2,2*%
%TO.N,Net-(J2-Pad2)*%
X-3175000Y-1092200D03*
%TO.P,J2,1*%
%TO.N,Net-(J2-Pad1)*%
X-4445000Y-1092200D03*
%TD*%
D16*
%TO.N,Net-(J1-Pad1)*%
X-33270000Y-1345602D02*
X-33270000Y0D01*
X-52689961Y-2810039D02*
X-34734437Y-2810039D01*
X-34734437Y-2810039D02*
X-33270000Y-1345602D01*
X-54500000Y-1000000D02*
X-52689961Y-2810039D01*
%TO.N,Net-(J1-Pad3)*%
X-51869970Y-2630030D02*
X-53500000Y-1000000D01*
X-35824428Y-2630030D02*
X-51869970Y-2630030D01*
X-34540000Y-1345602D02*
X-35824428Y-2630030D01*
X-34540000Y0D02*
X-34540000Y-1345602D01*
%TO.N,Net-(J1-Pad5)*%
X-35810000Y-1345602D02*
X-35810000Y0D01*
X-36914418Y-2450020D02*
X-35810000Y-1345602D01*
X-51049980Y-2450020D02*
X-36914418Y-2450020D01*
X-52500000Y-1000000D02*
X-51049980Y-2450020D01*
%TO.N,Net-(J1-Pad7)*%
X-50229989Y-2270011D02*
X-51500000Y-1000000D01*
X-38004409Y-2270011D02*
X-50229989Y-2270011D01*
X-37080000Y-1345602D02*
X-38004409Y-2270011D01*
X-37080000Y0D02*
X-37080000Y-1345602D01*
%TO.N,Net-(J1-Pad9)*%
X-38350000Y-1345602D02*
X-38350000Y0D01*
X-39094399Y-2090001D02*
X-38350000Y-1345602D01*
X-49409999Y-2090001D02*
X-39094399Y-2090001D01*
X-50500000Y-1000000D02*
X-49409999Y-2090001D01*
%TO.N,Net-(J2-Pad8)*%
X2277442Y-3259758D02*
X4445000Y-1092200D01*
X-30085844Y-3259758D02*
X2277442Y-3259758D01*
X-32000000Y-1345602D02*
X-30085844Y-3259758D01*
X-32000000Y0D02*
X-32000000Y-1345602D01*
%TO.N,Net-(J2-Pad6)*%
X-28995854Y-3079748D02*
X-30730000Y-1345602D01*
X-82548Y-3079748D02*
X-28995854Y-3079748D01*
X-30730000Y-1345602D02*
X-30730000Y0D01*
X1905000Y-1092200D02*
X-82548Y-3079748D01*
%TO.N,Net-(J2-Pad5)*%
X-1172539Y-2899739D02*
X635000Y-1092200D01*
X-27905863Y-2899739D02*
X-1172539Y-2899739D01*
X-29460000Y-1345602D02*
X-27905863Y-2899739D01*
X-29460000Y0D02*
X-29460000Y-1345602D01*
%TO.N,Net-(J2-Pad4)*%
X-28190000Y-2110000D02*
X-28190000Y0D01*
X-27580271Y-2719729D02*
X-28190000Y-2110000D01*
X-2262529Y-2719729D02*
X-27580271Y-2719729D01*
X-635000Y-1092200D02*
X-2262529Y-2719729D01*
%TO.N,Net-(J2-Pad3)*%
X-3352519Y-2539719D02*
X-1905000Y-1092200D01*
X-25725883Y-2539719D02*
X-3352519Y-2539719D01*
X-26920000Y-1345602D02*
X-25725883Y-2539719D01*
X-26920000Y0D02*
X-26920000Y-1345602D01*
%TO.N,Net-(J2-Pad2)*%
X-25650000Y-1345602D02*
X-25650000Y0D01*
X-24635892Y-2359710D02*
X-25650000Y-1345602D01*
X-4442510Y-2359710D02*
X-24635892Y-2359710D01*
X-3175000Y-1092200D02*
X-4442510Y-2359710D01*
%TO.N,Net-(J2-Pad1)*%
X-22200299Y-2179701D02*
X-24380000Y0D01*
X-5532501Y-2179701D02*
X-22200299Y-2179701D01*
X-4445000Y-1092200D02*
X-5532501Y-2179701D01*
%TD*%
D17*
X12290001Y-4190000D02*
X-55390000Y-4190000D01*
X-55390000Y-1859351D01*
X-55376185Y-1876185D01*
X-55279494Y-1955537D01*
X-55169180Y-2014502D01*
X-55049482Y-2050812D01*
X-54925000Y-2063072D01*
X-54398593Y-2063072D01*
X-53194411Y-3267255D01*
X-53173120Y-3293198D01*
X-53147177Y-3314489D01*
X-53147174Y-3314492D01*
X-53069577Y-3378174D01*
X-52951445Y-3441317D01*
X-52823264Y-3480200D01*
X-52689961Y-3493329D01*
X-52656557Y-3490039D01*
X-34767841Y-3490039D01*
X-34734437Y-3493329D01*
X-34701033Y-3490039D01*
X-34601134Y-3480200D01*
X-34472953Y-3441317D01*
X-34354821Y-3378174D01*
X-34251278Y-3293198D01*
X-34229978Y-3267244D01*
X-33068422Y-2105690D01*
X-32954400Y-2152920D01*
X-32742848Y-2195000D01*
X-32527152Y-2195000D01*
X-32315600Y-2152920D01*
X-32201577Y-2105690D01*
X-30590299Y-3716968D01*
X-30569003Y-3742917D01*
X-30465460Y-3827893D01*
X-30347328Y-3891036D01*
X-30219147Y-3929919D01*
X-30119248Y-3939758D01*
X-30119239Y-3939758D01*
X-30085845Y-3943047D01*
X-30052451Y-3939758D01*
X2244038Y-3939758D01*
X2277442Y-3943048D01*
X2310846Y-3939758D01*
X2410745Y-3929919D01*
X2538926Y-3891036D01*
X2657058Y-3827893D01*
X2760601Y-3742917D01*
X2781901Y-3716963D01*
X4231871Y-2266994D01*
X4327421Y-2286000D01*
X4562579Y-2286000D01*
X4793219Y-2240123D01*
X5010476Y-2150132D01*
X5206003Y-2019485D01*
X5372285Y-1853203D01*
X5502932Y-1657676D01*
X5592923Y-1440419D01*
X5638800Y-1209779D01*
X5638800Y-974621D01*
X5592923Y-743981D01*
X5502932Y-526724D01*
X5375467Y-335959D01*
X6972300Y-335959D01*
X6972300Y-756241D01*
X7054293Y-1168448D01*
X7215128Y-1556739D01*
X7448624Y-1906191D01*
X7745809Y-2203376D01*
X8095261Y-2436872D01*
X8483552Y-2597707D01*
X8895759Y-2679700D01*
X9316041Y-2679700D01*
X9728248Y-2597707D01*
X10116539Y-2436872D01*
X10465991Y-2203376D01*
X10763176Y-1906191D01*
X10996672Y-1556739D01*
X11157507Y-1168448D01*
X11239500Y-756241D01*
X11239500Y-335959D01*
X11157507Y76248D01*
X10996672Y464539D01*
X10763176Y813991D01*
X10465991Y1111176D01*
X10116539Y1344672D01*
X9728248Y1505507D01*
X9316041Y1587500D01*
X8895759Y1587500D01*
X8483552Y1505507D01*
X8095261Y1344672D01*
X7745809Y1111176D01*
X7448624Y813991D01*
X7215128Y464539D01*
X7054293Y76248D01*
X6972300Y-335959D01*
X5375467Y-335959D01*
X5372285Y-331197D01*
X5206003Y-164915D01*
X5010476Y-34268D01*
X5003800Y-31503D01*
X5003800Y117579D01*
X4957923Y348219D01*
X4867932Y565476D01*
X4737285Y761003D01*
X4571003Y927285D01*
X4375476Y1057932D01*
X4158219Y1147923D01*
X3927579Y1193800D01*
X3692421Y1193800D01*
X3461781Y1147923D01*
X3244524Y1057932D01*
X3175000Y1011478D01*
X3105476Y1057932D01*
X2888219Y1147923D01*
X2657579Y1193800D01*
X2422421Y1193800D01*
X2191781Y1147923D01*
X1974524Y1057932D01*
X1905000Y1011478D01*
X1835476Y1057932D01*
X1618219Y1147923D01*
X1387579Y1193800D01*
X1152421Y1193800D01*
X921781Y1147923D01*
X704524Y1057932D01*
X635000Y1011478D01*
X565476Y1057932D01*
X348219Y1147923D01*
X117579Y1193800D01*
X-117579Y1193800D01*
X-348219Y1147923D01*
X-565476Y1057932D01*
X-635000Y1011478D01*
X-704524Y1057932D01*
X-921781Y1147923D01*
X-1152421Y1193800D01*
X-1387579Y1193800D01*
X-1618219Y1147923D01*
X-1835476Y1057932D01*
X-1905000Y1011478D01*
X-1974524Y1057932D01*
X-2191781Y1147923D01*
X-2422421Y1193800D01*
X-2657579Y1193800D01*
X-2888219Y1147923D01*
X-3105476Y1057932D01*
X-3175000Y1011478D01*
X-3244524Y1057932D01*
X-3461781Y1147923D01*
X-3692421Y1193800D01*
X-3927579Y1193800D01*
X-4158219Y1147923D01*
X-4375476Y1057932D01*
X-4571003Y927285D01*
X-4737285Y761003D01*
X-4867932Y565476D01*
X-4957923Y348219D01*
X-5003800Y117579D01*
X-5003800Y-31503D01*
X-5010476Y-34268D01*
X-5206003Y-164915D01*
X-5372285Y-331197D01*
X-5502932Y-526724D01*
X-5592923Y-743981D01*
X-5638800Y-974621D01*
X-5638800Y-1209779D01*
X-5619794Y-1305329D01*
X-5814165Y-1499701D01*
X-7191502Y-1499701D01*
X-7054293Y-1168448D01*
X-6972300Y-756241D01*
X-6972300Y-335959D01*
X-7054293Y76248D01*
X-7215128Y464539D01*
X-7448624Y813991D01*
X-7745809Y1111176D01*
X-8095261Y1344672D01*
X-8483552Y1505507D01*
X-8895759Y1587500D01*
X-9316041Y1587500D01*
X-9728248Y1505507D01*
X-10116539Y1344672D01*
X-10465991Y1111176D01*
X-10763176Y813991D01*
X-10996672Y464539D01*
X-11157507Y76248D01*
X-11239500Y-335959D01*
X-11239500Y-756241D01*
X-11157507Y-1168448D01*
X-11020298Y-1499701D01*
X-17910298Y-1499701D01*
X-17763396Y-1145046D01*
X-17685000Y-750922D01*
X-17685000Y-349078D01*
X-17763396Y45046D01*
X-17917175Y416303D01*
X-18140428Y750424D01*
X-18424576Y1034572D01*
X-18758697Y1257825D01*
X-19129954Y1411604D01*
X-19524078Y1490000D01*
X-19925922Y1490000D01*
X-20320046Y1411604D01*
X-20691303Y1257825D01*
X-21025424Y1034572D01*
X-21309572Y750424D01*
X-21532825Y416303D01*
X-21686604Y45046D01*
X-21765000Y-349078D01*
X-21765000Y-750922D01*
X-21686604Y-1145046D01*
X-21539702Y-1499701D01*
X-21918633Y-1499701D01*
X-23289229Y-129107D01*
X-23285000Y-107848D01*
X-23285000Y107848D01*
X-23327080Y319400D01*
X-23409624Y518677D01*
X-23529458Y698022D01*
X-23681978Y850542D01*
X-23861323Y970376D01*
X-24060600Y1052920D01*
X-24272152Y1095000D01*
X-24487848Y1095000D01*
X-24699400Y1052920D01*
X-24898677Y970376D01*
X-25015000Y892652D01*
X-25131323Y970376D01*
X-25330600Y1052920D01*
X-25542152Y1095000D01*
X-25757848Y1095000D01*
X-25969400Y1052920D01*
X-26168677Y970376D01*
X-26285000Y892652D01*
X-26401323Y970376D01*
X-26600600Y1052920D01*
X-26812152Y1095000D01*
X-27027848Y1095000D01*
X-27239400Y1052920D01*
X-27438677Y970376D01*
X-27555000Y892652D01*
X-27671323Y970376D01*
X-27870600Y1052920D01*
X-28082152Y1095000D01*
X-28297848Y1095000D01*
X-28509400Y1052920D01*
X-28708677Y970376D01*
X-28825000Y892652D01*
X-28941323Y970376D01*
X-29140600Y1052920D01*
X-29352152Y1095000D01*
X-29567848Y1095000D01*
X-29779400Y1052920D01*
X-29978677Y970376D01*
X-30095000Y892652D01*
X-30211323Y970376D01*
X-30410600Y1052920D01*
X-30622152Y1095000D01*
X-30837848Y1095000D01*
X-31049400Y1052920D01*
X-31248677Y970376D01*
X-31365000Y892652D01*
X-31481323Y970376D01*
X-31680600Y1052920D01*
X-31892152Y1095000D01*
X-32107848Y1095000D01*
X-32319400Y1052920D01*
X-32518677Y970376D01*
X-32635000Y892652D01*
X-32751323Y970376D01*
X-32950600Y1052920D01*
X-33162152Y1095000D01*
X-33377848Y1095000D01*
X-33589400Y1052920D01*
X-33788677Y970376D01*
X-33905000Y892652D01*
X-34021323Y970376D01*
X-34220600Y1052920D01*
X-34432152Y1095000D01*
X-34647848Y1095000D01*
X-34859400Y1052920D01*
X-35058677Y970376D01*
X-35175000Y892652D01*
X-35291323Y970376D01*
X-35490600Y1052920D01*
X-35702152Y1095000D01*
X-35917848Y1095000D01*
X-36129400Y1052920D01*
X-36328677Y970376D01*
X-36445000Y892652D01*
X-36561323Y970376D01*
X-36760600Y1052920D01*
X-36972152Y1095000D01*
X-37187848Y1095000D01*
X-37399400Y1052920D01*
X-37598677Y970376D01*
X-37715000Y892652D01*
X-37831323Y970376D01*
X-38030600Y1052920D01*
X-38242152Y1095000D01*
X-38457848Y1095000D01*
X-38669400Y1052920D01*
X-38868677Y970376D01*
X-38985000Y892652D01*
X-39101323Y970376D01*
X-39300600Y1052920D01*
X-39512152Y1095000D01*
X-39727848Y1095000D01*
X-39939400Y1052920D01*
X-40138677Y970376D01*
X-40318022Y850542D01*
X-40470542Y698022D01*
X-40590376Y518677D01*
X-40672920Y319400D01*
X-40715000Y107848D01*
X-40715000Y-107848D01*
X-40672920Y-319400D01*
X-40590376Y-518677D01*
X-40470542Y-698022D01*
X-40318022Y-850542D01*
X-40138677Y-970376D01*
X-40080000Y-994681D01*
X-40080000Y-1207848D01*
X-40039790Y-1410001D01*
X-42423143Y-1410001D01*
X-42313396Y-1145046D01*
X-42235000Y-750922D01*
X-42235000Y-349078D01*
X-42313396Y45046D01*
X-42467175Y416303D01*
X-42690428Y750424D01*
X-42974576Y1034572D01*
X-43308697Y1257825D01*
X-43679954Y1411604D01*
X-44074078Y1490000D01*
X-44475922Y1490000D01*
X-44870046Y1411604D01*
X-45241303Y1257825D01*
X-45575424Y1034572D01*
X-45859572Y750424D01*
X-46082825Y416303D01*
X-46236604Y45046D01*
X-46315000Y-349078D01*
X-46315000Y-750922D01*
X-46236604Y-1145046D01*
X-46126857Y-1410001D01*
X-49128334Y-1410001D01*
X-49440000Y-1098335D01*
X-49440000Y-895599D01*
X-49480735Y-690809D01*
X-49559771Y-500000D01*
X-49480735Y-309191D01*
X-49440000Y-104401D01*
X-49440000Y104401D01*
X-49480735Y309191D01*
X-49560640Y502098D01*
X-49676644Y675711D01*
X-49824289Y823356D01*
X-49997902Y939360D01*
X-50190809Y1019265D01*
X-50395599Y1060000D01*
X-50604401Y1060000D01*
X-50809191Y1019265D01*
X-51000000Y940229D01*
X-51190809Y1019265D01*
X-51395599Y1060000D01*
X-51604401Y1060000D01*
X-51809191Y1019265D01*
X-52000000Y940229D01*
X-52190809Y1019265D01*
X-52395599Y1060000D01*
X-52604401Y1060000D01*
X-52809191Y1019265D01*
X-53000000Y940229D01*
X-53190809Y1019265D01*
X-53395599Y1060000D01*
X-53604401Y1060000D01*
X-53809191Y1019265D01*
X-54000000Y940229D01*
X-54190809Y1019265D01*
X-54395599Y1060000D01*
X-54604401Y1060000D01*
X-54809191Y1019265D01*
X-55002098Y939360D01*
X-55175711Y823356D01*
X-55323356Y675711D01*
X-55390000Y575971D01*
X-55390000Y3090000D01*
X12290000Y3090000D01*
X12290001Y-4190000D01*
%TA.AperFunction,NonConductor*%
D18*
G36*
X12290001Y-4190000D02*
G01*
X-55390000Y-4190000D01*
X-55390000Y-1859351D01*
X-55376185Y-1876185D01*
X-55279494Y-1955537D01*
X-55169180Y-2014502D01*
X-55049482Y-2050812D01*
X-54925000Y-2063072D01*
X-54398593Y-2063072D01*
X-53194411Y-3267255D01*
X-53173120Y-3293198D01*
X-53147177Y-3314489D01*
X-53147174Y-3314492D01*
X-53069577Y-3378174D01*
X-52951445Y-3441317D01*
X-52823264Y-3480200D01*
X-52689961Y-3493329D01*
X-52656557Y-3490039D01*
X-34767841Y-3490039D01*
X-34734437Y-3493329D01*
X-34701033Y-3490039D01*
X-34601134Y-3480200D01*
X-34472953Y-3441317D01*
X-34354821Y-3378174D01*
X-34251278Y-3293198D01*
X-34229978Y-3267244D01*
X-33068422Y-2105690D01*
X-32954400Y-2152920D01*
X-32742848Y-2195000D01*
X-32527152Y-2195000D01*
X-32315600Y-2152920D01*
X-32201577Y-2105690D01*
X-30590299Y-3716968D01*
X-30569003Y-3742917D01*
X-30465460Y-3827893D01*
X-30347328Y-3891036D01*
X-30219147Y-3929919D01*
X-30119248Y-3939758D01*
X-30119239Y-3939758D01*
X-30085845Y-3943047D01*
X-30052451Y-3939758D01*
X2244038Y-3939758D01*
X2277442Y-3943048D01*
X2310846Y-3939758D01*
X2410745Y-3929919D01*
X2538926Y-3891036D01*
X2657058Y-3827893D01*
X2760601Y-3742917D01*
X2781901Y-3716963D01*
X4231871Y-2266994D01*
X4327421Y-2286000D01*
X4562579Y-2286000D01*
X4793219Y-2240123D01*
X5010476Y-2150132D01*
X5206003Y-2019485D01*
X5372285Y-1853203D01*
X5502932Y-1657676D01*
X5592923Y-1440419D01*
X5638800Y-1209779D01*
X5638800Y-974621D01*
X5592923Y-743981D01*
X5502932Y-526724D01*
X5375467Y-335959D01*
X6972300Y-335959D01*
X6972300Y-756241D01*
X7054293Y-1168448D01*
X7215128Y-1556739D01*
X7448624Y-1906191D01*
X7745809Y-2203376D01*
X8095261Y-2436872D01*
X8483552Y-2597707D01*
X8895759Y-2679700D01*
X9316041Y-2679700D01*
X9728248Y-2597707D01*
X10116539Y-2436872D01*
X10465991Y-2203376D01*
X10763176Y-1906191D01*
X10996672Y-1556739D01*
X11157507Y-1168448D01*
X11239500Y-756241D01*
X11239500Y-335959D01*
X11157507Y76248D01*
X10996672Y464539D01*
X10763176Y813991D01*
X10465991Y1111176D01*
X10116539Y1344672D01*
X9728248Y1505507D01*
X9316041Y1587500D01*
X8895759Y1587500D01*
X8483552Y1505507D01*
X8095261Y1344672D01*
X7745809Y1111176D01*
X7448624Y813991D01*
X7215128Y464539D01*
X7054293Y76248D01*
X6972300Y-335959D01*
X5375467Y-335959D01*
X5372285Y-331197D01*
X5206003Y-164915D01*
X5010476Y-34268D01*
X5003800Y-31503D01*
X5003800Y117579D01*
X4957923Y348219D01*
X4867932Y565476D01*
X4737285Y761003D01*
X4571003Y927285D01*
X4375476Y1057932D01*
X4158219Y1147923D01*
X3927579Y1193800D01*
X3692421Y1193800D01*
X3461781Y1147923D01*
X3244524Y1057932D01*
X3175000Y1011478D01*
X3105476Y1057932D01*
X2888219Y1147923D01*
X2657579Y1193800D01*
X2422421Y1193800D01*
X2191781Y1147923D01*
X1974524Y1057932D01*
X1905000Y1011478D01*
X1835476Y1057932D01*
X1618219Y1147923D01*
X1387579Y1193800D01*
X1152421Y1193800D01*
X921781Y1147923D01*
X704524Y1057932D01*
X635000Y1011478D01*
X565476Y1057932D01*
X348219Y1147923D01*
X117579Y1193800D01*
X-117579Y1193800D01*
X-348219Y1147923D01*
X-565476Y1057932D01*
X-635000Y1011478D01*
X-704524Y1057932D01*
X-921781Y1147923D01*
X-1152421Y1193800D01*
X-1387579Y1193800D01*
X-1618219Y1147923D01*
X-1835476Y1057932D01*
X-1905000Y1011478D01*
X-1974524Y1057932D01*
X-2191781Y1147923D01*
X-2422421Y1193800D01*
X-2657579Y1193800D01*
X-2888219Y1147923D01*
X-3105476Y1057932D01*
X-3175000Y1011478D01*
X-3244524Y1057932D01*
X-3461781Y1147923D01*
X-3692421Y1193800D01*
X-3927579Y1193800D01*
X-4158219Y1147923D01*
X-4375476Y1057932D01*
X-4571003Y927285D01*
X-4737285Y761003D01*
X-4867932Y565476D01*
X-4957923Y348219D01*
X-5003800Y117579D01*
X-5003800Y-31503D01*
X-5010476Y-34268D01*
X-5206003Y-164915D01*
X-5372285Y-331197D01*
X-5502932Y-526724D01*
X-5592923Y-743981D01*
X-5638800Y-974621D01*
X-5638800Y-1209779D01*
X-5619794Y-1305329D01*
X-5814165Y-1499701D01*
X-7191502Y-1499701D01*
X-7054293Y-1168448D01*
X-6972300Y-756241D01*
X-6972300Y-335959D01*
X-7054293Y76248D01*
X-7215128Y464539D01*
X-7448624Y813991D01*
X-7745809Y1111176D01*
X-8095261Y1344672D01*
X-8483552Y1505507D01*
X-8895759Y1587500D01*
X-9316041Y1587500D01*
X-9728248Y1505507D01*
X-10116539Y1344672D01*
X-10465991Y1111176D01*
X-10763176Y813991D01*
X-10996672Y464539D01*
X-11157507Y76248D01*
X-11239500Y-335959D01*
X-11239500Y-756241D01*
X-11157507Y-1168448D01*
X-11020298Y-1499701D01*
X-17910298Y-1499701D01*
X-17763396Y-1145046D01*
X-17685000Y-750922D01*
X-17685000Y-349078D01*
X-17763396Y45046D01*
X-17917175Y416303D01*
X-18140428Y750424D01*
X-18424576Y1034572D01*
X-18758697Y1257825D01*
X-19129954Y1411604D01*
X-19524078Y1490000D01*
X-19925922Y1490000D01*
X-20320046Y1411604D01*
X-20691303Y1257825D01*
X-21025424Y1034572D01*
X-21309572Y750424D01*
X-21532825Y416303D01*
X-21686604Y45046D01*
X-21765000Y-349078D01*
X-21765000Y-750922D01*
X-21686604Y-1145046D01*
X-21539702Y-1499701D01*
X-21918633Y-1499701D01*
X-23289229Y-129107D01*
X-23285000Y-107848D01*
X-23285000Y107848D01*
X-23327080Y319400D01*
X-23409624Y518677D01*
X-23529458Y698022D01*
X-23681978Y850542D01*
X-23861323Y970376D01*
X-24060600Y1052920D01*
X-24272152Y1095000D01*
X-24487848Y1095000D01*
X-24699400Y1052920D01*
X-24898677Y970376D01*
X-25015000Y892652D01*
X-25131323Y970376D01*
X-25330600Y1052920D01*
X-25542152Y1095000D01*
X-25757848Y1095000D01*
X-25969400Y1052920D01*
X-26168677Y970376D01*
X-26285000Y892652D01*
X-26401323Y970376D01*
X-26600600Y1052920D01*
X-26812152Y1095000D01*
X-27027848Y1095000D01*
X-27239400Y1052920D01*
X-27438677Y970376D01*
X-27555000Y892652D01*
X-27671323Y970376D01*
X-27870600Y1052920D01*
X-28082152Y1095000D01*
X-28297848Y1095000D01*
X-28509400Y1052920D01*
X-28708677Y970376D01*
X-28825000Y892652D01*
X-28941323Y970376D01*
X-29140600Y1052920D01*
X-29352152Y1095000D01*
X-29567848Y1095000D01*
X-29779400Y1052920D01*
X-29978677Y970376D01*
X-30095000Y892652D01*
X-30211323Y970376D01*
X-30410600Y1052920D01*
X-30622152Y1095000D01*
X-30837848Y1095000D01*
X-31049400Y1052920D01*
X-31248677Y970376D01*
X-31365000Y892652D01*
X-31481323Y970376D01*
X-31680600Y1052920D01*
X-31892152Y1095000D01*
X-32107848Y1095000D01*
X-32319400Y1052920D01*
X-32518677Y970376D01*
X-32635000Y892652D01*
X-32751323Y970376D01*
X-32950600Y1052920D01*
X-33162152Y1095000D01*
X-33377848Y1095000D01*
X-33589400Y1052920D01*
X-33788677Y970376D01*
X-33905000Y892652D01*
X-34021323Y970376D01*
X-34220600Y1052920D01*
X-34432152Y1095000D01*
X-34647848Y1095000D01*
X-34859400Y1052920D01*
X-35058677Y970376D01*
X-35175000Y892652D01*
X-35291323Y970376D01*
X-35490600Y1052920D01*
X-35702152Y1095000D01*
X-35917848Y1095000D01*
X-36129400Y1052920D01*
X-36328677Y970376D01*
X-36445000Y892652D01*
X-36561323Y970376D01*
X-36760600Y1052920D01*
X-36972152Y1095000D01*
X-37187848Y1095000D01*
X-37399400Y1052920D01*
X-37598677Y970376D01*
X-37715000Y892652D01*
X-37831323Y970376D01*
X-38030600Y1052920D01*
X-38242152Y1095000D01*
X-38457848Y1095000D01*
X-38669400Y1052920D01*
X-38868677Y970376D01*
X-38985000Y892652D01*
X-39101323Y970376D01*
X-39300600Y1052920D01*
X-39512152Y1095000D01*
X-39727848Y1095000D01*
X-39939400Y1052920D01*
X-40138677Y970376D01*
X-40318022Y850542D01*
X-40470542Y698022D01*
X-40590376Y518677D01*
X-40672920Y319400D01*
X-40715000Y107848D01*
X-40715000Y-107848D01*
X-40672920Y-319400D01*
X-40590376Y-518677D01*
X-40470542Y-698022D01*
X-40318022Y-850542D01*
X-40138677Y-970376D01*
X-40080000Y-994681D01*
X-40080000Y-1207848D01*
X-40039790Y-1410001D01*
X-42423143Y-1410001D01*
X-42313396Y-1145046D01*
X-42235000Y-750922D01*
X-42235000Y-349078D01*
X-42313396Y45046D01*
X-42467175Y416303D01*
X-42690428Y750424D01*
X-42974576Y1034572D01*
X-43308697Y1257825D01*
X-43679954Y1411604D01*
X-44074078Y1490000D01*
X-44475922Y1490000D01*
X-44870046Y1411604D01*
X-45241303Y1257825D01*
X-45575424Y1034572D01*
X-45859572Y750424D01*
X-46082825Y416303D01*
X-46236604Y45046D01*
X-46315000Y-349078D01*
X-46315000Y-750922D01*
X-46236604Y-1145046D01*
X-46126857Y-1410001D01*
X-49128334Y-1410001D01*
X-49440000Y-1098335D01*
X-49440000Y-895599D01*
X-49480735Y-690809D01*
X-49559771Y-500000D01*
X-49480735Y-309191D01*
X-49440000Y-104401D01*
X-49440000Y104401D01*
X-49480735Y309191D01*
X-49560640Y502098D01*
X-49676644Y675711D01*
X-49824289Y823356D01*
X-49997902Y939360D01*
X-50190809Y1019265D01*
X-50395599Y1060000D01*
X-50604401Y1060000D01*
X-50809191Y1019265D01*
X-51000000Y940229D01*
X-51190809Y1019265D01*
X-51395599Y1060000D01*
X-51604401Y1060000D01*
X-51809191Y1019265D01*
X-52000000Y940229D01*
X-52190809Y1019265D01*
X-52395599Y1060000D01*
X-52604401Y1060000D01*
X-52809191Y1019265D01*
X-53000000Y940229D01*
X-53190809Y1019265D01*
X-53395599Y1060000D01*
X-53604401Y1060000D01*
X-53809191Y1019265D01*
X-54000000Y940229D01*
X-54190809Y1019265D01*
X-54395599Y1060000D01*
X-54604401Y1060000D01*
X-54809191Y1019265D01*
X-55002098Y939360D01*
X-55175711Y823356D01*
X-55323356Y675711D01*
X-55390000Y575971D01*
X-55390000Y3090000D01*
X12290000Y3090000D01*
X12290001Y-4190000D01*
G37*
%TD.AperFunction*%
D17*
X1995778Y-2579758D02*
X1379106Y-2579758D01*
X1691871Y-2266994D01*
X1787421Y-2286000D01*
X2022579Y-2286000D01*
X2253219Y-2240123D01*
X2393533Y-2182003D01*
X1995778Y-2579758D01*
%TA.AperFunction,NonConductor*%
D18*
G36*
X1995778Y-2579758D02*
G01*
X1379106Y-2579758D01*
X1691871Y-2266994D01*
X1787421Y-2286000D01*
X2022579Y-2286000D01*
X2253219Y-2240123D01*
X2393533Y-2182003D01*
X1995778Y-2579758D01*
G37*
%TD.AperFunction*%
D17*
X-23661955Y-1679710D02*
X-24085405Y-1679710D01*
X-24044624Y-1618677D01*
X-23962080Y-1419400D01*
X-23955474Y-1386191D01*
X-23661955Y-1679710D01*
%TA.AperFunction,NonConductor*%
D18*
G36*
X-23661955Y-1679710D02*
G01*
X-24085405Y-1679710D01*
X-24044624Y-1618677D01*
X-23962080Y-1419400D01*
X-23955474Y-1386191D01*
X-23661955Y-1679710D01*
G37*
%TD.AperFunction*%
M02*
