%TF.GenerationSoftware,KiCad,Pcbnew,(5.1.10)-1*%
%TF.CreationDate,2022-07-14T13:29:55-06:00*%
%TF.ProjectId,15to25,3135746f-3235-42e6-9b69-6361645f7063,rev?*%
%TF.SameCoordinates,Original*%
%TF.FileFunction,Legend,Top*%
%TF.FilePolarity,Positive*%
%FSLAX46Y46*%
G04 Gerber Fmt 4.6, Leading zero omitted, Abs format (unit mm)*
G04 Created by KiCad (PCBNEW (5.1.10)-1) date 2022-07-14 13:29:55*
%MOMM*%
%LPD*%
G01*
G04 APERTURE LIST*
%ADD10C,0.100000*%
%ADD11C,0.120000*%
%ADD12C,0.150000*%
G04 APERTURE END LIST*
D10*
X-18080952Y2419047D02*
X-17852380Y2419047D01*
X-17966666Y2019047D02*
X-17966666Y2419047D01*
X-17719047Y2019047D02*
X-17719047Y2285714D01*
X-17719047Y2209523D02*
X-17700000Y2247619D01*
X-17680952Y2266666D01*
X-17642857Y2285714D01*
X-17604761Y2285714D01*
X-17471428Y2019047D02*
X-17471428Y2285714D01*
X-17471428Y2419047D02*
X-17490476Y2400000D01*
X-17471428Y2380952D01*
X-17452380Y2400000D01*
X-17471428Y2419047D01*
X-17471428Y2380952D01*
X-17280952Y2019047D02*
X-17280952Y2419047D01*
X-17147619Y2133333D01*
X-17014285Y2419047D01*
X-17014285Y2019047D01*
X-16823809Y2019047D02*
X-16823809Y2285714D01*
X-16823809Y2419047D02*
X-16842857Y2400000D01*
X-16823809Y2380952D01*
X-16804761Y2400000D01*
X-16823809Y2419047D01*
X-16823809Y2380952D01*
X-16461904Y2038095D02*
X-16500000Y2019047D01*
X-16576190Y2019047D01*
X-16614285Y2038095D01*
X-16633333Y2057142D01*
X-16652380Y2095238D01*
X-16652380Y2209523D01*
X-16633333Y2247619D01*
X-16614285Y2266666D01*
X-16576190Y2285714D01*
X-16500000Y2285714D01*
X-16461904Y2266666D01*
X-16290476Y2019047D02*
X-16290476Y2285714D01*
X-16290476Y2209523D02*
X-16271428Y2247619D01*
X-16252380Y2266666D01*
X-16214285Y2285714D01*
X-16176190Y2285714D01*
X-15985714Y2019047D02*
X-16023809Y2038095D01*
X-16042857Y2057142D01*
X-16061904Y2095238D01*
X-16061904Y2209523D01*
X-16042857Y2247619D01*
X-16023809Y2266666D01*
X-15985714Y2285714D01*
X-15928571Y2285714D01*
X-15890476Y2266666D01*
X-15871428Y2247619D01*
X-15852380Y2209523D01*
X-15852380Y2095238D01*
X-15871428Y2057142D01*
X-15890476Y2038095D01*
X-15928571Y2019047D01*
X-15985714Y2019047D01*
X-15680952Y2019047D02*
X-15680952Y2419047D01*
X-15585714Y2419047D01*
X-15528571Y2400000D01*
X-15490476Y2361904D01*
X-15471428Y2323809D01*
X-15452380Y2247619D01*
X-15452380Y2190476D01*
X-15471428Y2114285D01*
X-15490476Y2076190D01*
X-15528571Y2038095D01*
X-15585714Y2019047D01*
X-15680952Y2019047D01*
X-15052380Y2057142D02*
X-15071428Y2038095D01*
X-15128571Y2019047D01*
X-15166666Y2019047D01*
X-15223809Y2038095D01*
X-15261904Y2076190D01*
X-15280952Y2114285D01*
X-15300000Y2190476D01*
X-15300000Y2247619D01*
X-15280952Y2323809D01*
X-15261904Y2361904D01*
X-15223809Y2400000D01*
X-15166666Y2419047D01*
X-15128571Y2419047D01*
X-15071428Y2400000D01*
X-15052380Y2380952D01*
X-14823809Y2019047D02*
X-14861904Y2038095D01*
X-14880952Y2057142D01*
X-14900000Y2095238D01*
X-14900000Y2209523D01*
X-14880952Y2247619D01*
X-14861904Y2266666D01*
X-14823809Y2285714D01*
X-14766666Y2285714D01*
X-14728571Y2266666D01*
X-14709523Y2247619D01*
X-14690476Y2209523D01*
X-14690476Y2095238D01*
X-14709523Y2057142D01*
X-14728571Y2038095D01*
X-14766666Y2019047D01*
X-14823809Y2019047D01*
X-14519047Y2285714D02*
X-14519047Y2019047D01*
X-14519047Y2247619D02*
X-14500000Y2266666D01*
X-14461904Y2285714D01*
X-14404761Y2285714D01*
X-14366666Y2266666D01*
X-14347619Y2228571D01*
X-14347619Y2019047D01*
X-14195238Y2285714D02*
X-14100000Y2019047D01*
X-14004761Y2285714D01*
X-13700000Y2038095D02*
X-13738095Y2019047D01*
X-13814285Y2019047D01*
X-13852380Y2038095D01*
X-13871428Y2076190D01*
X-13871428Y2228571D01*
X-13852380Y2266666D01*
X-13814285Y2285714D01*
X-13738095Y2285714D01*
X-13700000Y2266666D01*
X-13680952Y2228571D01*
X-13680952Y2190476D01*
X-13871428Y2152380D01*
X-13509523Y2019047D02*
X-13509523Y2285714D01*
X-13509523Y2209523D02*
X-13490476Y2247619D01*
X-13471428Y2266666D01*
X-13433333Y2285714D01*
X-13395238Y2285714D01*
X-13319047Y2285714D02*
X-13166666Y2285714D01*
X-13261904Y2419047D02*
X-13261904Y2076190D01*
X-13242857Y2038095D01*
X-13204761Y2019047D01*
X-13166666Y2019047D01*
X-13128571Y1980952D02*
X-12823809Y1980952D01*
X-12519047Y2019047D02*
X-12747619Y2019047D01*
X-12633333Y2019047D02*
X-12633333Y2419047D01*
X-12671428Y2361904D01*
X-12709523Y2323809D01*
X-12747619Y2304761D01*
X-12157142Y2419047D02*
X-12347619Y2419047D01*
X-12366666Y2228571D01*
X-12347619Y2247619D01*
X-12309523Y2266666D01*
X-12214285Y2266666D01*
X-12176190Y2247619D01*
X-12157142Y2228571D01*
X-12138095Y2190476D01*
X-12138095Y2095238D01*
X-12157142Y2057142D01*
X-12176190Y2038095D01*
X-12214285Y2019047D01*
X-12309523Y2019047D01*
X-12347619Y2038095D01*
X-12366666Y2057142D01*
X-11966666Y2019047D02*
X-11966666Y2419047D01*
X-11814285Y2419047D01*
X-11776190Y2400000D01*
X-11757142Y2380952D01*
X-11738095Y2342857D01*
X-11738095Y2285714D01*
X-11757142Y2247619D01*
X-11776190Y2228571D01*
X-11814285Y2209523D01*
X-11966666Y2209523D01*
X-11566666Y2019047D02*
X-11566666Y2285714D01*
X-11566666Y2419047D02*
X-11585714Y2400000D01*
X-11566666Y2380952D01*
X-11547619Y2400000D01*
X-11566666Y2419047D01*
X-11566666Y2380952D01*
X-11376190Y2285714D02*
X-11376190Y2019047D01*
X-11376190Y2247619D02*
X-11357142Y2266666D01*
X-11319047Y2285714D01*
X-11261904Y2285714D01*
X-11223809Y2266666D01*
X-11204761Y2228571D01*
X-11204761Y2019047D01*
X-11109523Y1980952D02*
X-10804761Y1980952D01*
X-10766666Y2419047D02*
X-10633333Y2019047D01*
X-10500000Y2419047D01*
X-10385714Y2380952D02*
X-10366666Y2400000D01*
X-10328571Y2419047D01*
X-10233333Y2419047D01*
X-10195238Y2400000D01*
X-10176190Y2380952D01*
X-10157142Y2342857D01*
X-10157142Y2304761D01*
X-10176190Y2247619D01*
X-10404761Y2019047D01*
X-10157142Y2019047D01*
X-15395238Y1719047D02*
X-15395238Y1433333D01*
X-15414285Y1376190D01*
X-15452380Y1338095D01*
X-15509523Y1319047D01*
X-15547619Y1319047D01*
X-15033333Y1585714D02*
X-15033333Y1319047D01*
X-15204761Y1585714D02*
X-15204761Y1376190D01*
X-15185714Y1338095D01*
X-15147619Y1319047D01*
X-15090476Y1319047D01*
X-15052380Y1338095D01*
X-15033333Y1357142D01*
X-14785714Y1319047D02*
X-14823809Y1338095D01*
X-14842857Y1376190D01*
X-14842857Y1719047D01*
X-14671428Y1585714D02*
X-14576190Y1319047D01*
X-14480952Y1585714D02*
X-14576190Y1319047D01*
X-14614285Y1223809D01*
X-14633333Y1204761D01*
X-14671428Y1185714D01*
X-14042857Y1680952D02*
X-14023809Y1700000D01*
X-13985714Y1719047D01*
X-13890476Y1719047D01*
X-13852380Y1700000D01*
X-13833333Y1680952D01*
X-13814285Y1642857D01*
X-13814285Y1604761D01*
X-13833333Y1547619D01*
X-14061904Y1319047D01*
X-13814285Y1319047D01*
X-13566666Y1719047D02*
X-13528571Y1719047D01*
X-13490476Y1700000D01*
X-13471428Y1680952D01*
X-13452380Y1642857D01*
X-13433333Y1566666D01*
X-13433333Y1471428D01*
X-13452380Y1395238D01*
X-13471428Y1357142D01*
X-13490476Y1338095D01*
X-13528571Y1319047D01*
X-13566666Y1319047D01*
X-13604761Y1338095D01*
X-13623809Y1357142D01*
X-13642857Y1395238D01*
X-13661904Y1471428D01*
X-13661904Y1566666D01*
X-13642857Y1642857D01*
X-13623809Y1680952D01*
X-13604761Y1700000D01*
X-13566666Y1719047D01*
X-13280952Y1680952D02*
X-13261904Y1700000D01*
X-13223809Y1719047D01*
X-13128571Y1719047D01*
X-13090476Y1700000D01*
X-13071428Y1680952D01*
X-13052380Y1642857D01*
X-13052380Y1604761D01*
X-13071428Y1547619D01*
X-13300000Y1319047D01*
X-13052380Y1319047D01*
X-12900000Y1680952D02*
X-12880952Y1700000D01*
X-12842857Y1719047D01*
X-12747619Y1719047D01*
X-12709523Y1700000D01*
X-12690476Y1680952D01*
X-12671428Y1642857D01*
X-12671428Y1604761D01*
X-12690476Y1547619D01*
X-12919047Y1319047D01*
X-12671428Y1319047D01*
X-16461904Y619047D02*
X-16595238Y809523D01*
X-16690476Y619047D02*
X-16690476Y1019047D01*
X-16538095Y1019047D01*
X-16500000Y1000000D01*
X-16480952Y980952D01*
X-16461904Y942857D01*
X-16461904Y885714D01*
X-16480952Y847619D01*
X-16500000Y828571D01*
X-16538095Y809523D01*
X-16690476Y809523D01*
X-16328571Y885714D02*
X-16233333Y619047D01*
X-16138095Y885714D02*
X-16233333Y619047D01*
X-16271428Y523809D01*
X-16290476Y504761D01*
X-16328571Y485714D01*
X-15814285Y619047D02*
X-15814285Y828571D01*
X-15833333Y866666D01*
X-15871428Y885714D01*
X-15947619Y885714D01*
X-15985714Y866666D01*
X-15814285Y638095D02*
X-15852380Y619047D01*
X-15947619Y619047D01*
X-15985714Y638095D01*
X-16004761Y676190D01*
X-16004761Y714285D01*
X-15985714Y752380D01*
X-15947619Y771428D01*
X-15852380Y771428D01*
X-15814285Y790476D01*
X-15623809Y885714D02*
X-15623809Y619047D01*
X-15623809Y847619D02*
X-15604761Y866666D01*
X-15566666Y885714D01*
X-15509523Y885714D01*
X-15471428Y866666D01*
X-15452380Y828571D01*
X-15452380Y619047D01*
X-14957142Y619047D02*
X-14957142Y1019047D01*
X-14823809Y733333D01*
X-14690476Y1019047D01*
X-14690476Y619047D01*
X-14442857Y619047D02*
X-14480952Y638095D01*
X-14500000Y657142D01*
X-14519047Y695238D01*
X-14519047Y809523D01*
X-14500000Y847619D01*
X-14480952Y866666D01*
X-14442857Y885714D01*
X-14385714Y885714D01*
X-14347619Y866666D01*
X-14328571Y847619D01*
X-14309523Y809523D01*
X-14309523Y695238D01*
X-14328571Y657142D01*
X-14347619Y638095D01*
X-14385714Y619047D01*
X-14442857Y619047D01*
X-14138095Y619047D02*
X-14138095Y885714D01*
X-14138095Y809523D02*
X-14119047Y847619D01*
X-14100000Y866666D01*
X-14061904Y885714D01*
X-14023809Y885714D01*
X-13719047Y885714D02*
X-13719047Y561904D01*
X-13738095Y523809D01*
X-13757142Y504761D01*
X-13795238Y485714D01*
X-13852380Y485714D01*
X-13890476Y504761D01*
X-13719047Y638095D02*
X-13757142Y619047D01*
X-13833333Y619047D01*
X-13871428Y638095D01*
X-13890476Y657142D01*
X-13909523Y695238D01*
X-13909523Y809523D01*
X-13890476Y847619D01*
X-13871428Y866666D01*
X-13833333Y885714D01*
X-13757142Y885714D01*
X-13719047Y866666D01*
X-13376190Y638095D02*
X-13414285Y619047D01*
X-13490476Y619047D01*
X-13528571Y638095D01*
X-13547619Y676190D01*
X-13547619Y828571D01*
X-13528571Y866666D01*
X-13490476Y885714D01*
X-13414285Y885714D01*
X-13376190Y866666D01*
X-13357142Y828571D01*
X-13357142Y790476D01*
X-13547619Y752380D01*
X-13185714Y885714D02*
X-13185714Y619047D01*
X-13185714Y847619D02*
X-13166666Y866666D01*
X-13128571Y885714D01*
X-13071428Y885714D01*
X-13033333Y866666D01*
X-13014285Y828571D01*
X-13014285Y619047D01*
X-12842857Y638095D02*
X-12804761Y619047D01*
X-12728571Y619047D01*
X-12690476Y638095D01*
X-12671428Y676190D01*
X-12671428Y695238D01*
X-12690476Y733333D01*
X-12728571Y752380D01*
X-12785714Y752380D01*
X-12823809Y771428D01*
X-12842857Y809523D01*
X-12842857Y828571D01*
X-12823809Y866666D01*
X-12785714Y885714D01*
X-12728571Y885714D01*
X-12690476Y866666D01*
X-12557142Y885714D02*
X-12404761Y885714D01*
X-12500000Y1019047D02*
X-12500000Y676190D01*
X-12480952Y638095D01*
X-12442857Y619047D01*
X-12404761Y619047D01*
X-12119047Y638095D02*
X-12157142Y619047D01*
X-12233333Y619047D01*
X-12271428Y638095D01*
X-12290476Y676190D01*
X-12290476Y828571D01*
X-12271428Y866666D01*
X-12233333Y885714D01*
X-12157142Y885714D01*
X-12119047Y866666D01*
X-12100000Y828571D01*
X-12100000Y790476D01*
X-12290476Y752380D01*
X-11928571Y619047D02*
X-11928571Y885714D01*
X-11928571Y809523D02*
X-11909523Y847619D01*
X-11890476Y866666D01*
X-11852380Y885714D01*
X-11814285Y885714D01*
X-11680952Y885714D02*
X-11680952Y619047D01*
X-11680952Y847619D02*
X-11661904Y866666D01*
X-11623809Y885714D01*
X-11566666Y885714D01*
X-11528571Y866666D01*
X-11509523Y828571D01*
X-11509523Y619047D01*
D11*
%TO.C,J3*%
X-64560000Y1810000D02*
X-64560000Y-2910000D01*
X-64560000Y-2910000D02*
X-54440000Y-2910000D01*
X-54440000Y-2910000D02*
X-54440000Y1810000D01*
X-54440000Y1810000D02*
X-64560000Y1810000D01*
X-62800000Y1810000D02*
X-62800000Y2010000D01*
X-62800000Y2010000D02*
X-63100000Y2010000D01*
X-63100000Y2010000D02*
X-63100000Y1810000D01*
X-62800000Y1910000D02*
X-63100000Y1910000D01*
X-62000000Y1810000D02*
X-62000000Y1200000D01*
X-62000000Y1200000D02*
X-63950000Y1200000D01*
X-63950000Y1200000D02*
X-63950000Y-2300000D01*
X-63950000Y-2300000D02*
X-55050000Y-2300000D01*
X-55050000Y-2300000D02*
X-55050000Y1200000D01*
X-55050000Y1200000D02*
X-57000000Y1200000D01*
X-57000000Y1200000D02*
X-57000000Y1810000D01*
X-64560000Y500000D02*
X-63950000Y500000D01*
X-64560000Y-800000D02*
X-63950000Y-800000D01*
X-54440000Y500000D02*
X-55050000Y500000D01*
X-54440000Y-800000D02*
X-55050000Y-800000D01*
X-61600000Y-2300000D02*
X-61600000Y-1800000D01*
X-61600000Y-1800000D02*
X-61400000Y-1800000D01*
X-61400000Y-1800000D02*
X-61400000Y-2300000D01*
X-61500000Y-2300000D02*
X-61500000Y-1800000D01*
X-59600000Y-2300000D02*
X-59600000Y-1800000D01*
X-59600000Y-1800000D02*
X-59400000Y-1800000D01*
X-59400000Y-1800000D02*
X-59400000Y-2300000D01*
X-59500000Y-2300000D02*
X-59500000Y-1800000D01*
X-57600000Y-2300000D02*
X-57600000Y-1800000D01*
X-57600000Y-1800000D02*
X-57400000Y-1800000D01*
X-57400000Y-1800000D02*
X-57400000Y-2300000D01*
X-57500000Y-2300000D02*
X-57500000Y-1800000D01*
X-63610000Y2110000D02*
X-64860000Y2110000D01*
X-64860000Y2110000D02*
X-64860000Y860000D01*
%TO.C,J1*%
X-77560000Y1810000D02*
X-77560000Y-2910000D01*
X-77560000Y-2910000D02*
X-67440000Y-2910000D01*
X-67440000Y-2910000D02*
X-67440000Y1810000D01*
X-67440000Y1810000D02*
X-77560000Y1810000D01*
X-75800000Y1810000D02*
X-75800000Y2010000D01*
X-75800000Y2010000D02*
X-76100000Y2010000D01*
X-76100000Y2010000D02*
X-76100000Y1810000D01*
X-75800000Y1910000D02*
X-76100000Y1910000D01*
X-75000000Y1810000D02*
X-75000000Y1200000D01*
X-75000000Y1200000D02*
X-76950000Y1200000D01*
X-76950000Y1200000D02*
X-76950000Y-2300000D01*
X-76950000Y-2300000D02*
X-68050000Y-2300000D01*
X-68050000Y-2300000D02*
X-68050000Y1200000D01*
X-68050000Y1200000D02*
X-70000000Y1200000D01*
X-70000000Y1200000D02*
X-70000000Y1810000D01*
X-77560000Y500000D02*
X-76950000Y500000D01*
X-77560000Y-800000D02*
X-76950000Y-800000D01*
X-67440000Y500000D02*
X-68050000Y500000D01*
X-67440000Y-800000D02*
X-68050000Y-800000D01*
X-74600000Y-2300000D02*
X-74600000Y-1800000D01*
X-74600000Y-1800000D02*
X-74400000Y-1800000D01*
X-74400000Y-1800000D02*
X-74400000Y-2300000D01*
X-74500000Y-2300000D02*
X-74500000Y-1800000D01*
X-72600000Y-2300000D02*
X-72600000Y-1800000D01*
X-72600000Y-1800000D02*
X-72400000Y-1800000D01*
X-72400000Y-1800000D02*
X-72400000Y-2300000D01*
X-72500000Y-2300000D02*
X-72500000Y-1800000D01*
X-70600000Y-2300000D02*
X-70600000Y-1800000D01*
X-70600000Y-1800000D02*
X-70400000Y-1800000D01*
X-70400000Y-1800000D02*
X-70400000Y-2300000D01*
X-70500000Y-2300000D02*
X-70500000Y-1800000D01*
X-76610000Y2110000D02*
X-77860000Y2110000D01*
X-77860000Y2110000D02*
X-77860000Y860000D01*
%TO.C,J5*%
X-51845000Y675000D02*
X-51150000Y675000D01*
X-51845000Y-10000D02*
X-51845000Y675000D01*
X-50541724Y-695000D02*
X-50455000Y-695000D01*
X-51845000Y-695000D02*
X-51758276Y-695000D01*
X-50455000Y-695000D02*
X-50455000Y-1570000D01*
X-51845000Y-695000D02*
X-51845000Y-1570000D01*
X-50755507Y-1570000D02*
X-50455000Y-1570000D01*
X-51845000Y-1570000D02*
X-51544493Y-1570000D01*
%TO.C,J3*%
D12*
X-59833333Y3447619D02*
X-59833333Y2733333D01*
X-59880952Y2590476D01*
X-59976190Y2495238D01*
X-60119047Y2447619D01*
X-60214285Y2447619D01*
X-59452380Y3447619D02*
X-58833333Y3447619D01*
X-59166666Y3066666D01*
X-59023809Y3066666D01*
X-58928571Y3019047D01*
X-58880952Y2971428D01*
X-58833333Y2876190D01*
X-58833333Y2638095D01*
X-58880952Y2542857D01*
X-58928571Y2495238D01*
X-59023809Y2447619D01*
X-59309523Y2447619D01*
X-59404761Y2495238D01*
X-59452380Y2542857D01*
%TO.C,J1*%
X-72833333Y3447619D02*
X-72833333Y2733333D01*
X-72880952Y2590476D01*
X-72976190Y2495238D01*
X-73119047Y2447619D01*
X-73214285Y2447619D01*
X-71833333Y2447619D02*
X-72404761Y2447619D01*
X-72119047Y2447619D02*
X-72119047Y3447619D01*
X-72214285Y3304761D01*
X-72309523Y3209523D01*
X-72404761Y3161904D01*
%TO.C,J5*%
X-51483333Y2097619D02*
X-51483333Y1383333D01*
X-51530952Y1240476D01*
X-51626190Y1145238D01*
X-51769047Y1097619D01*
X-51864285Y1097619D01*
X-50530952Y2097619D02*
X-51007142Y2097619D01*
X-51054761Y1621428D01*
X-51007142Y1669047D01*
X-50911904Y1716666D01*
X-50673809Y1716666D01*
X-50578571Y1669047D01*
X-50530952Y1621428D01*
X-50483333Y1526190D01*
X-50483333Y1288095D01*
X-50530952Y1192857D01*
X-50578571Y1145238D01*
X-50673809Y1097619D01*
X-50911904Y1097619D01*
X-51007142Y1145238D01*
X-51054761Y1192857D01*
%TD*%
M02*
