%TF.GenerationSoftware,KiCad,Pcbnew,(5.1.10)-1*%
%TF.CreationDate,2022-07-14T12:48:38-06:00*%
%TF.ProjectId,15to25,3135746f-3235-42e6-9b69-6361645f7063,rev?*%
%TF.SameCoordinates,Original*%
%TF.FileFunction,Copper,L1,Top*%
%TF.FilePolarity,Positive*%
%FSLAX46Y46*%
G04 Gerber Fmt 4.6, Leading zero omitted, Abs format (unit mm)*
G04 Created by KiCad (PCBNEW (5.1.10)-1) date 2022-07-14 12:48:38*
%MOMM*%
%LPD*%
G01*
G04 APERTURE LIST*
%TA.AperFunction,ComponentPad*%
%ADD10O,1.200000X1.750000*%
%TD*%
%TA.AperFunction,ComponentPad*%
%ADD11O,0.850000X0.850000*%
%TD*%
%TA.AperFunction,ComponentPad*%
%ADD12R,0.850000X0.850000*%
%TD*%
%TA.AperFunction,ComponentPad*%
%ADD13C,3.600000*%
%TD*%
%TA.AperFunction,ComponentPad*%
%ADD14O,0.920000X0.920000*%
%TD*%
%TA.AperFunction,ComponentPad*%
%ADD15C,1.117600*%
%TD*%
%TA.AperFunction,Conductor*%
%ADD16C,0.135000*%
%TD*%
%TA.AperFunction,Conductor*%
%ADD17C,0.254000*%
%TD*%
%TA.AperFunction,Conductor*%
%ADD18C,0.100000*%
%TD*%
G04 APERTURE END LIST*
D10*
%TO.P,J3,4*%
%TO.N,Net-(J3-Pad4)*%
X-56500000Y0D03*
%TO.P,J3,3*%
%TO.N,Net-(J3-Pad3)*%
X-58500000Y0D03*
%TO.P,J3,2*%
%TO.N,Net-(J3-Pad2)*%
X-60500000Y0D03*
%TO.P,J3,1*%
%TO.N,Net-(J3-Pad1)*%
%TA.AperFunction,ComponentPad*%
G36*
G01*
X-63100000Y-625001D02*
X-63100000Y625001D01*
G75*
G02*
X-62850001Y875000I249999J0D01*
G01*
X-62149999Y875000D01*
G75*
G02*
X-61900000Y625001I0J-249999D01*
G01*
X-61900000Y-625001D01*
G75*
G02*
X-62149999Y-875000I-249999J0D01*
G01*
X-62850001Y-875000D01*
G75*
G02*
X-63100000Y-625001I0J249999D01*
G01*
G37*
%TD.AperFunction*%
%TD*%
%TO.P,J1,4*%
%TO.N,Net-(J1-Pad4)*%
X-69500000Y0D03*
%TO.P,J1,3*%
%TO.N,Net-(J1-Pad3)*%
X-71500000Y0D03*
%TO.P,J1,2*%
%TO.N,Net-(J1-Pad2)*%
X-73500000Y0D03*
%TO.P,J1,1*%
%TO.N,Net-(J1-Pad1)*%
%TA.AperFunction,ComponentPad*%
G36*
G01*
X-76100000Y-625001D02*
X-76100000Y625001D01*
G75*
G02*
X-75850001Y875000I249999J0D01*
G01*
X-75149999Y875000D01*
G75*
G02*
X-74900000Y625001I0J-249999D01*
G01*
X-74900000Y-625001D01*
G75*
G02*
X-75149999Y-875000I-249999J0D01*
G01*
X-75850001Y-875000D01*
G75*
G02*
X-76100000Y-625001I0J249999D01*
G01*
G37*
%TD.AperFunction*%
%TD*%
D11*
%TO.P,J5,2*%
%TO.N,Net-(J4-Pad25)*%
X-51150000Y-1010000D03*
D12*
%TO.P,J5,1*%
%TO.N,Net-(J4-Pad12)*%
X-51150000Y-10000D03*
%TD*%
D13*
%TO.P,J4,0*%
%TO.N,GND*%
X-19725000Y-550000D03*
X-44275000Y-550000D03*
D14*
%TO.P,J4,13*%
%TO.N,Net-(J4-Pad13)*%
X-39620000Y0D03*
%TO.P,J4,25*%
%TO.N,Net-(J4-Pad25)*%
X-38985000Y-1100000D03*
%TO.P,J4,12*%
%TO.N,Net-(J4-Pad12)*%
X-38350000Y0D03*
%TO.P,J4,24*%
%TO.N,Net-(J3-Pad4)*%
X-37715000Y-1100000D03*
%TO.P,J4,11*%
%TO.N,Net-(J3-Pad3)*%
X-37080000Y0D03*
%TO.P,J4,23*%
%TO.N,Net-(J3-Pad2)*%
X-36445000Y-1100000D03*
%TO.P,J4,10*%
%TO.N,Net-(J3-Pad1)*%
X-35810000Y0D03*
%TO.P,J4,22*%
%TO.N,Net-(J1-Pad4)*%
X-35175000Y-1100000D03*
%TO.P,J4,9*%
%TO.N,Net-(J1-Pad3)*%
X-34540000Y0D03*
%TO.P,J4,21*%
%TO.N,Net-(J1-Pad2)*%
X-33905000Y-1100000D03*
%TO.P,J4,8*%
%TO.N,Net-(J1-Pad1)*%
X-33270000Y0D03*
%TO.P,J4,20*%
%TO.N,Net-(J2-Pad15)*%
X-32635000Y-1100000D03*
%TO.P,J4,7*%
%TO.N,Net-(J2-Pad8)*%
X-32000000Y0D03*
%TO.P,J4,19*%
%TO.N,Net-(J2-Pad14)*%
X-31365000Y-1100000D03*
%TO.P,J4,6*%
%TO.N,Net-(J2-Pad7)*%
X-30730000Y0D03*
%TO.P,J4,18*%
%TO.N,Net-(J2-Pad13)*%
X-30095000Y-1100000D03*
%TO.P,J4,5*%
%TO.N,Net-(J2-Pad6)*%
X-29460000Y0D03*
%TO.P,J4,17*%
%TO.N,Net-(J2-Pad12)*%
X-28825000Y-1100000D03*
%TO.P,J4,4*%
%TO.N,Net-(J2-Pad5)*%
X-28190000Y0D03*
%TO.P,J4,16*%
%TO.N,Net-(J2-Pad11)*%
X-27555000Y-1100000D03*
%TO.P,J4,3*%
%TO.N,Net-(J2-Pad4)*%
X-26920000Y0D03*
%TO.P,J4,15*%
%TO.N,Net-(J2-Pad10)*%
X-26285000Y-1100000D03*
%TO.P,J4,2*%
%TO.N,Net-(J2-Pad2)*%
X-25650000Y0D03*
%TO.P,J4,14*%
%TO.N,Net-(J2-Pad9)*%
X-25015000Y-1100000D03*
%TO.P,J4,1*%
%TO.N,Net-(J2-Pad1)*%
X-24380000Y0D03*
%TD*%
D13*
%TO.P,J2,0*%
%TO.N,GND*%
X9105900Y-546100D03*
X-9105900Y-546100D03*
D15*
%TO.P,J2,15*%
%TO.N,Net-(J2-Pad15)*%
X3810000Y0D03*
%TO.P,J2,14*%
%TO.N,Net-(J2-Pad14)*%
X2540000Y0D03*
%TO.P,J2,13*%
%TO.N,Net-(J2-Pad13)*%
X1270000Y0D03*
%TO.P,J2,12*%
%TO.N,Net-(J2-Pad12)*%
X0Y0D03*
%TO.P,J2,11*%
%TO.N,Net-(J2-Pad11)*%
X-1270000Y0D03*
%TO.P,J2,10*%
%TO.N,Net-(J2-Pad10)*%
X-2540000Y0D03*
%TO.P,J2,9*%
%TO.N,Net-(J2-Pad9)*%
X-3810000Y0D03*
%TO.P,J2,8*%
%TO.N,Net-(J2-Pad8)*%
X4445000Y-1092200D03*
%TO.P,J2,7*%
%TO.N,Net-(J2-Pad7)*%
X3175000Y-1092200D03*
%TO.P,J2,6*%
%TO.N,Net-(J2-Pad6)*%
X1905000Y-1092200D03*
%TO.P,J2,5*%
%TO.N,Net-(J2-Pad5)*%
X635000Y-1092200D03*
%TO.P,J2,4*%
%TO.N,Net-(J2-Pad4)*%
X-635000Y-1092200D03*
%TO.P,J2,3*%
%TO.N,Net-(J2-Pad3)*%
X-1905000Y-1092200D03*
%TO.P,J2,2*%
%TO.N,Net-(J2-Pad2)*%
X-3175000Y-1092200D03*
%TO.P,J2,1*%
%TO.N,Net-(J2-Pad1)*%
X-4445000Y-1092200D03*
%TD*%
D16*
%TO.N,Net-(J2-Pad14)*%
X339982Y2200018D02*
X2540000Y0D01*
X-31365000Y278902D02*
X-29443884Y2200018D01*
X-29443884Y2200018D02*
X339982Y2200018D01*
X-31365000Y-1100000D02*
X-31365000Y278902D01*
%TO.N,Net-(J2-Pad13)*%
X-705009Y1975009D02*
X1270000Y0D01*
X-28398893Y1975009D02*
X-705009Y1975009D01*
X-30095000Y278902D02*
X-28398893Y1975009D01*
X-30095000Y-1100000D02*
X-30095000Y278902D01*
%TO.N,Net-(J2-Pad12)*%
X-28825000Y278902D02*
X-27353902Y1750000D01*
X-28825000Y-1100000D02*
X-28825000Y278902D01*
X-1750000Y1750000D02*
X0Y0D01*
X-27353902Y1750000D02*
X-1750000Y1750000D01*
%TO.N,Net-(J2-Pad4)*%
X-26920000Y-1378902D02*
X-26920000Y0D01*
X-25148884Y-3150018D02*
X-26920000Y-1378902D01*
X-2692818Y-3150018D02*
X-25148884Y-3150018D01*
X-635000Y-1092200D02*
X-2692818Y-3150018D01*
%TO.N,Net-(J2-Pad2)*%
X-5007809Y-2925009D02*
X-3175000Y-1092200D01*
X-24103893Y-2925009D02*
X-5007809Y-2925009D01*
X-25650000Y-1378902D02*
X-24103893Y-2925009D01*
X-25650000Y0D02*
X-25650000Y-1378902D01*
%TO.N,Net-(J2-Pad1)*%
X-4445000Y-1092200D02*
X-6052800Y-2700000D01*
X-21680000Y-2700000D02*
X-24380000Y0D01*
X-6052800Y-2700000D02*
X-21680000Y-2700000D01*
%TO.N,Net-(J3-Pad4)*%
X-39740010Y-3125010D02*
X-37715000Y-1100000D01*
X-53374990Y-3125010D02*
X-39740010Y-3125010D01*
X-56500000Y0D02*
X-53374990Y-3125010D01*
%TO.N,Net-(J3-Pad3)*%
X-56474991Y2025009D02*
X-58500000Y0D01*
X-39105009Y2025009D02*
X-56474991Y2025009D01*
X-37080000Y0D02*
X-39105009Y2025009D01*
%TO.N,Net-(J3-Pad2)*%
X-38695019Y-3350019D02*
X-36445000Y-1100000D01*
X-57149981Y-3350019D02*
X-38695019Y-3350019D01*
X-60500000Y0D02*
X-57149981Y-3350019D01*
%TO.N,Net-(J3-Pad1)*%
X-60249982Y2250018D02*
X-62500000Y0D01*
X-38060018Y2250018D02*
X-60249982Y2250018D01*
X-35810000Y0D02*
X-38060018Y2250018D01*
%TO.N,Net-(J4-Pad25)*%
X-38985000Y-1100000D02*
X-40785000Y-2900000D01*
X-49260000Y-2900000D02*
X-51150000Y-1010000D01*
X-40785000Y-2900000D02*
X-49260000Y-2900000D01*
%TO.N,Net-(J4-Pad12)*%
X-38350000Y0D02*
X-40150000Y1800000D01*
X-49340000Y1800000D02*
X-51150000Y-10000D01*
X-40150000Y1800000D02*
X-49340000Y1800000D01*
%TD*%
D17*
%TO.N,GND*%
X-56254583Y3426803D02*
X-56178806Y3403817D01*
X-56119747Y3398000D01*
X12598000Y3398000D01*
X12598001Y-4498000D01*
X-56119747Y-4498000D01*
X-56178806Y-4503817D01*
X-56254583Y-4526803D01*
X-56294239Y-4548000D01*
X-78498000Y-4548000D01*
X-78498000Y625001D01*
X-76428582Y625001D01*
X-76428582Y-625001D01*
X-76417465Y-737877D01*
X-76384540Y-846414D01*
X-76331074Y-946443D01*
X-76259120Y-1034120D01*
X-76171443Y-1106074D01*
X-76071414Y-1159540D01*
X-75962877Y-1192465D01*
X-75850001Y-1203582D01*
X-75149999Y-1203582D01*
X-75037123Y-1192465D01*
X-74928586Y-1159540D01*
X-74828557Y-1106074D01*
X-74740880Y-1034120D01*
X-74668926Y-946443D01*
X-74615460Y-846414D01*
X-74582535Y-737877D01*
X-74571418Y-625001D01*
X-74571418Y320537D01*
X-74427000Y320537D01*
X-74427000Y-320538D01*
X-74413587Y-456724D01*
X-74360580Y-631464D01*
X-74274500Y-792505D01*
X-74158658Y-933659D01*
X-74017504Y-1049501D01*
X-73856463Y-1135580D01*
X-73681723Y-1188587D01*
X-73500000Y-1206485D01*
X-73318276Y-1188587D01*
X-73143536Y-1135580D01*
X-72982495Y-1049501D01*
X-72841341Y-933659D01*
X-72725499Y-792505D01*
X-72639420Y-631464D01*
X-72586413Y-456724D01*
X-72573000Y-320538D01*
X-72573000Y320537D01*
X-72427000Y320537D01*
X-72427000Y-320538D01*
X-72413587Y-456724D01*
X-72360580Y-631464D01*
X-72274500Y-792505D01*
X-72158658Y-933659D01*
X-72017504Y-1049501D01*
X-71856463Y-1135580D01*
X-71681723Y-1188587D01*
X-71500000Y-1206485D01*
X-71318276Y-1188587D01*
X-71143536Y-1135580D01*
X-70982495Y-1049501D01*
X-70841341Y-933659D01*
X-70725499Y-792505D01*
X-70639420Y-631464D01*
X-70586413Y-456724D01*
X-70573000Y-320538D01*
X-70573000Y320537D01*
X-70427000Y320537D01*
X-70427000Y-320538D01*
X-70413587Y-456724D01*
X-70360580Y-631464D01*
X-70274500Y-792505D01*
X-70158658Y-933659D01*
X-70017504Y-1049501D01*
X-69856463Y-1135580D01*
X-69681723Y-1188587D01*
X-69500000Y-1206485D01*
X-69318276Y-1188587D01*
X-69143536Y-1135580D01*
X-68982495Y-1049501D01*
X-68841341Y-933659D01*
X-68725499Y-792505D01*
X-68639420Y-631464D01*
X-68586413Y-456724D01*
X-68573000Y-320538D01*
X-68573000Y320538D01*
X-68586413Y456724D01*
X-68637459Y625001D01*
X-63428582Y625001D01*
X-63428582Y-625001D01*
X-63417465Y-737877D01*
X-63384540Y-846414D01*
X-63331074Y-946443D01*
X-63259120Y-1034120D01*
X-63171443Y-1106074D01*
X-63071414Y-1159540D01*
X-62962877Y-1192465D01*
X-62850001Y-1203582D01*
X-62149999Y-1203582D01*
X-62037123Y-1192465D01*
X-61928586Y-1159540D01*
X-61828557Y-1106074D01*
X-61740880Y-1034120D01*
X-61668926Y-946443D01*
X-61615460Y-846414D01*
X-61582535Y-737877D01*
X-61571418Y-625001D01*
X-61571418Y370676D01*
X-61382330Y559764D01*
X-61413587Y456723D01*
X-61427000Y320537D01*
X-61427000Y-320538D01*
X-61413587Y-456724D01*
X-61360580Y-631464D01*
X-61274500Y-792505D01*
X-61158658Y-933659D01*
X-61017504Y-1049501D01*
X-60856463Y-1135580D01*
X-60681723Y-1188587D01*
X-60500000Y-1206485D01*
X-60318276Y-1188587D01*
X-60143536Y-1135580D01*
X-59999380Y-1058526D01*
X-57442635Y-3615272D01*
X-57430284Y-3630322D01*
X-57370213Y-3679620D01*
X-57301680Y-3716252D01*
X-57227316Y-3738810D01*
X-57169353Y-3744519D01*
X-57169351Y-3744519D01*
X-57149982Y-3746427D01*
X-57130612Y-3744519D01*
X-38714388Y-3744519D01*
X-38695019Y-3746427D01*
X-38675650Y-3744519D01*
X-38675647Y-3744519D01*
X-38617684Y-3738810D01*
X-38543320Y-3716252D01*
X-38474787Y-3679620D01*
X-38414716Y-3630322D01*
X-38402361Y-3615267D01*
X-36648944Y-1861851D01*
X-36522513Y-1887000D01*
X-36367487Y-1887000D01*
X-36215441Y-1856756D01*
X-36072216Y-1797430D01*
X-35943317Y-1711303D01*
X-35833697Y-1601683D01*
X-35810000Y-1566218D01*
X-35786303Y-1601683D01*
X-35676683Y-1711303D01*
X-35547784Y-1797430D01*
X-35404559Y-1856756D01*
X-35252513Y-1887000D01*
X-35097487Y-1887000D01*
X-34945441Y-1856756D01*
X-34802216Y-1797430D01*
X-34673317Y-1711303D01*
X-34563697Y-1601683D01*
X-34540000Y-1566218D01*
X-34516303Y-1601683D01*
X-34406683Y-1711303D01*
X-34277784Y-1797430D01*
X-34134559Y-1856756D01*
X-33982513Y-1887000D01*
X-33827487Y-1887000D01*
X-33675441Y-1856756D01*
X-33532216Y-1797430D01*
X-33403317Y-1711303D01*
X-33293697Y-1601683D01*
X-33270000Y-1566218D01*
X-33246303Y-1601683D01*
X-33136683Y-1711303D01*
X-33007784Y-1797430D01*
X-32864559Y-1856756D01*
X-32712513Y-1887000D01*
X-32557487Y-1887000D01*
X-32405441Y-1856756D01*
X-32262216Y-1797430D01*
X-32133317Y-1711303D01*
X-32023697Y-1601683D01*
X-32000000Y-1566218D01*
X-31976303Y-1601683D01*
X-31866683Y-1711303D01*
X-31737784Y-1797430D01*
X-31594559Y-1856756D01*
X-31442513Y-1887000D01*
X-31287487Y-1887000D01*
X-31135441Y-1856756D01*
X-30992216Y-1797430D01*
X-30863317Y-1711303D01*
X-30753697Y-1601683D01*
X-30730000Y-1566218D01*
X-30706303Y-1601683D01*
X-30596683Y-1711303D01*
X-30467784Y-1797430D01*
X-30324559Y-1856756D01*
X-30172513Y-1887000D01*
X-30017487Y-1887000D01*
X-29865441Y-1856756D01*
X-29722216Y-1797430D01*
X-29593317Y-1711303D01*
X-29483697Y-1601683D01*
X-29460000Y-1566218D01*
X-29436303Y-1601683D01*
X-29326683Y-1711303D01*
X-29197784Y-1797430D01*
X-29054559Y-1856756D01*
X-28902513Y-1887000D01*
X-28747487Y-1887000D01*
X-28595441Y-1856756D01*
X-28452216Y-1797430D01*
X-28323317Y-1711303D01*
X-28213697Y-1601683D01*
X-28190000Y-1566218D01*
X-28166303Y-1601683D01*
X-28056683Y-1711303D01*
X-27927784Y-1797430D01*
X-27784559Y-1856756D01*
X-27632513Y-1887000D01*
X-27477487Y-1887000D01*
X-27325441Y-1856756D01*
X-27182216Y-1797430D01*
X-27108580Y-1748228D01*
X-25441538Y-3415271D01*
X-25429187Y-3430321D01*
X-25369116Y-3479619D01*
X-25300583Y-3516251D01*
X-25226219Y-3538809D01*
X-25168256Y-3544518D01*
X-25168254Y-3544518D01*
X-25148885Y-3546426D01*
X-25129515Y-3544518D01*
X-2712187Y-3544518D01*
X-2692818Y-3546426D01*
X-2673449Y-3544518D01*
X-2673446Y-3544518D01*
X-2615483Y-3538809D01*
X-2541119Y-3516251D01*
X-2472586Y-3479619D01*
X-2412515Y-3430321D01*
X-2400160Y-3415266D01*
X-918462Y-1933569D01*
X-893378Y-1943959D01*
X-722244Y-1978000D01*
X-547756Y-1978000D01*
X-376622Y-1943959D01*
X-215416Y-1877186D01*
X-70335Y-1780246D01*
X0Y-1709911D01*
X70335Y-1780246D01*
X215416Y-1877186D01*
X376622Y-1943959D01*
X547756Y-1978000D01*
X722244Y-1978000D01*
X893378Y-1943959D01*
X1054584Y-1877186D01*
X1199665Y-1780246D01*
X1270000Y-1709911D01*
X1340335Y-1780246D01*
X1485416Y-1877186D01*
X1646622Y-1943959D01*
X1817756Y-1978000D01*
X1992244Y-1978000D01*
X2163378Y-1943959D01*
X2324584Y-1877186D01*
X2469665Y-1780246D01*
X2540000Y-1709911D01*
X2610335Y-1780246D01*
X2755416Y-1877186D01*
X2916622Y-1943959D01*
X3087756Y-1978000D01*
X3262244Y-1978000D01*
X3433378Y-1943959D01*
X3594584Y-1877186D01*
X3739665Y-1780246D01*
X3810000Y-1709911D01*
X3880335Y-1780246D01*
X4025416Y-1877186D01*
X4186622Y-1943959D01*
X4357756Y-1978000D01*
X4532244Y-1978000D01*
X4703378Y-1943959D01*
X4864584Y-1877186D01*
X5009665Y-1780246D01*
X5133046Y-1656865D01*
X5229986Y-1511784D01*
X5296759Y-1350578D01*
X5330800Y-1179444D01*
X5330800Y-1004956D01*
X5296759Y-833822D01*
X5229986Y-672616D01*
X5133046Y-527535D01*
X5009665Y-404154D01*
X4864584Y-307214D01*
X4703378Y-240441D01*
X4666775Y-233160D01*
X4695800Y-87244D01*
X4695800Y87244D01*
X4661759Y258378D01*
X4594986Y419584D01*
X4498046Y564665D01*
X4374665Y688046D01*
X4229584Y784986D01*
X4068378Y851759D01*
X3897244Y885800D01*
X3722756Y885800D01*
X3551622Y851759D01*
X3390416Y784986D01*
X3245335Y688046D01*
X3175000Y617711D01*
X3104665Y688046D01*
X2959584Y784986D01*
X2798378Y851759D01*
X2627244Y885800D01*
X2452756Y885800D01*
X2281622Y851759D01*
X2256538Y841369D01*
X632640Y2465266D01*
X620285Y2480321D01*
X560214Y2529619D01*
X491681Y2566251D01*
X417317Y2588809D01*
X359354Y2594518D01*
X359351Y2594518D01*
X339982Y2596426D01*
X320613Y2594518D01*
X-29424515Y2594518D01*
X-29443885Y2596426D01*
X-29463254Y2594518D01*
X-29463256Y2594518D01*
X-29521219Y2588809D01*
X-29595583Y2566251D01*
X-29664116Y2529619D01*
X-29724187Y2480321D01*
X-29736538Y2465271D01*
X-31553580Y648228D01*
X-31627216Y697430D01*
X-31770441Y756756D01*
X-31922487Y787000D01*
X-32077513Y787000D01*
X-32229559Y756756D01*
X-32372784Y697430D01*
X-32501683Y611303D01*
X-32611303Y501683D01*
X-32635000Y466218D01*
X-32658697Y501683D01*
X-32768317Y611303D01*
X-32897216Y697430D01*
X-33040441Y756756D01*
X-33192487Y787000D01*
X-33347513Y787000D01*
X-33499559Y756756D01*
X-33642784Y697430D01*
X-33771683Y611303D01*
X-33881303Y501683D01*
X-33905000Y466218D01*
X-33928697Y501683D01*
X-34038317Y611303D01*
X-34167216Y697430D01*
X-34310441Y756756D01*
X-34462487Y787000D01*
X-34617513Y787000D01*
X-34769559Y756756D01*
X-34912784Y697430D01*
X-35041683Y611303D01*
X-35151303Y501683D01*
X-35175000Y466218D01*
X-35198697Y501683D01*
X-35308317Y611303D01*
X-35437216Y697430D01*
X-35580441Y756756D01*
X-35732487Y787000D01*
X-35887513Y787000D01*
X-36013944Y761851D01*
X-37767360Y2515266D01*
X-37779715Y2530321D01*
X-37839786Y2579619D01*
X-37908319Y2616251D01*
X-37982683Y2638809D01*
X-38040646Y2644518D01*
X-38040649Y2644518D01*
X-38060018Y2646426D01*
X-38079387Y2644518D01*
X-60230613Y2644518D01*
X-60249982Y2646426D01*
X-60269352Y2644518D01*
X-60269354Y2644518D01*
X-60327317Y2638809D01*
X-60401681Y2616251D01*
X-60470214Y2579619D01*
X-60530285Y2530321D01*
X-60542636Y2515271D01*
X-61908893Y1149014D01*
X-61928586Y1159540D01*
X-62037123Y1192465D01*
X-62149999Y1203582D01*
X-62850001Y1203582D01*
X-62962877Y1192465D01*
X-63071414Y1159540D01*
X-63171443Y1106074D01*
X-63259120Y1034120D01*
X-63331074Y946443D01*
X-63384540Y846414D01*
X-63417465Y737877D01*
X-63428582Y625001D01*
X-68637459Y625001D01*
X-68639420Y631464D01*
X-68725499Y792505D01*
X-68841341Y933659D01*
X-68982496Y1049501D01*
X-69143537Y1135580D01*
X-69318277Y1188587D01*
X-69500000Y1206485D01*
X-69681724Y1188587D01*
X-69856464Y1135580D01*
X-70017505Y1049501D01*
X-70158659Y933659D01*
X-70274501Y792504D01*
X-70360580Y631463D01*
X-70413587Y456723D01*
X-70427000Y320537D01*
X-70573000Y320537D01*
X-70573000Y320538D01*
X-70586413Y456724D01*
X-70639420Y631464D01*
X-70725499Y792505D01*
X-70841341Y933659D01*
X-70982496Y1049501D01*
X-71143537Y1135580D01*
X-71318277Y1188587D01*
X-71500000Y1206485D01*
X-71681724Y1188587D01*
X-71856464Y1135580D01*
X-72017505Y1049501D01*
X-72158659Y933659D01*
X-72274501Y792504D01*
X-72360580Y631463D01*
X-72413587Y456723D01*
X-72427000Y320537D01*
X-72573000Y320537D01*
X-72573000Y320538D01*
X-72586413Y456724D01*
X-72639420Y631464D01*
X-72725499Y792505D01*
X-72841341Y933659D01*
X-72982496Y1049501D01*
X-73143537Y1135580D01*
X-73318277Y1188587D01*
X-73500000Y1206485D01*
X-73681724Y1188587D01*
X-73856464Y1135580D01*
X-74017505Y1049501D01*
X-74158659Y933659D01*
X-74274501Y792504D01*
X-74360580Y631463D01*
X-74413587Y456723D01*
X-74427000Y320537D01*
X-74571418Y320537D01*
X-74571418Y625001D01*
X-74582535Y737877D01*
X-74615460Y846414D01*
X-74668926Y946443D01*
X-74740880Y1034120D01*
X-74828557Y1106074D01*
X-74928586Y1159540D01*
X-75037123Y1192465D01*
X-75149999Y1203582D01*
X-75850001Y1203582D01*
X-75962877Y1192465D01*
X-76071414Y1159540D01*
X-76171443Y1106074D01*
X-76259120Y1034120D01*
X-76331074Y946443D01*
X-76384540Y846414D01*
X-76417465Y737877D01*
X-76428582Y625001D01*
X-78498000Y625001D01*
X-78498000Y3448000D01*
X-56294239Y3448000D01*
X-56254583Y3426803D01*
%TA.AperFunction,Conductor*%
D18*
G36*
X-56254583Y3426803D02*
G01*
X-56178806Y3403817D01*
X-56119747Y3398000D01*
X12598000Y3398000D01*
X12598001Y-4498000D01*
X-56119747Y-4498000D01*
X-56178806Y-4503817D01*
X-56254583Y-4526803D01*
X-56294239Y-4548000D01*
X-78498000Y-4548000D01*
X-78498000Y625001D01*
X-76428582Y625001D01*
X-76428582Y-625001D01*
X-76417465Y-737877D01*
X-76384540Y-846414D01*
X-76331074Y-946443D01*
X-76259120Y-1034120D01*
X-76171443Y-1106074D01*
X-76071414Y-1159540D01*
X-75962877Y-1192465D01*
X-75850001Y-1203582D01*
X-75149999Y-1203582D01*
X-75037123Y-1192465D01*
X-74928586Y-1159540D01*
X-74828557Y-1106074D01*
X-74740880Y-1034120D01*
X-74668926Y-946443D01*
X-74615460Y-846414D01*
X-74582535Y-737877D01*
X-74571418Y-625001D01*
X-74571418Y320537D01*
X-74427000Y320537D01*
X-74427000Y-320538D01*
X-74413587Y-456724D01*
X-74360580Y-631464D01*
X-74274500Y-792505D01*
X-74158658Y-933659D01*
X-74017504Y-1049501D01*
X-73856463Y-1135580D01*
X-73681723Y-1188587D01*
X-73500000Y-1206485D01*
X-73318276Y-1188587D01*
X-73143536Y-1135580D01*
X-72982495Y-1049501D01*
X-72841341Y-933659D01*
X-72725499Y-792505D01*
X-72639420Y-631464D01*
X-72586413Y-456724D01*
X-72573000Y-320538D01*
X-72573000Y320537D01*
X-72427000Y320537D01*
X-72427000Y-320538D01*
X-72413587Y-456724D01*
X-72360580Y-631464D01*
X-72274500Y-792505D01*
X-72158658Y-933659D01*
X-72017504Y-1049501D01*
X-71856463Y-1135580D01*
X-71681723Y-1188587D01*
X-71500000Y-1206485D01*
X-71318276Y-1188587D01*
X-71143536Y-1135580D01*
X-70982495Y-1049501D01*
X-70841341Y-933659D01*
X-70725499Y-792505D01*
X-70639420Y-631464D01*
X-70586413Y-456724D01*
X-70573000Y-320538D01*
X-70573000Y320537D01*
X-70427000Y320537D01*
X-70427000Y-320538D01*
X-70413587Y-456724D01*
X-70360580Y-631464D01*
X-70274500Y-792505D01*
X-70158658Y-933659D01*
X-70017504Y-1049501D01*
X-69856463Y-1135580D01*
X-69681723Y-1188587D01*
X-69500000Y-1206485D01*
X-69318276Y-1188587D01*
X-69143536Y-1135580D01*
X-68982495Y-1049501D01*
X-68841341Y-933659D01*
X-68725499Y-792505D01*
X-68639420Y-631464D01*
X-68586413Y-456724D01*
X-68573000Y-320538D01*
X-68573000Y320538D01*
X-68586413Y456724D01*
X-68637459Y625001D01*
X-63428582Y625001D01*
X-63428582Y-625001D01*
X-63417465Y-737877D01*
X-63384540Y-846414D01*
X-63331074Y-946443D01*
X-63259120Y-1034120D01*
X-63171443Y-1106074D01*
X-63071414Y-1159540D01*
X-62962877Y-1192465D01*
X-62850001Y-1203582D01*
X-62149999Y-1203582D01*
X-62037123Y-1192465D01*
X-61928586Y-1159540D01*
X-61828557Y-1106074D01*
X-61740880Y-1034120D01*
X-61668926Y-946443D01*
X-61615460Y-846414D01*
X-61582535Y-737877D01*
X-61571418Y-625001D01*
X-61571418Y370676D01*
X-61382330Y559764D01*
X-61413587Y456723D01*
X-61427000Y320537D01*
X-61427000Y-320538D01*
X-61413587Y-456724D01*
X-61360580Y-631464D01*
X-61274500Y-792505D01*
X-61158658Y-933659D01*
X-61017504Y-1049501D01*
X-60856463Y-1135580D01*
X-60681723Y-1188587D01*
X-60500000Y-1206485D01*
X-60318276Y-1188587D01*
X-60143536Y-1135580D01*
X-59999380Y-1058526D01*
X-57442635Y-3615272D01*
X-57430284Y-3630322D01*
X-57370213Y-3679620D01*
X-57301680Y-3716252D01*
X-57227316Y-3738810D01*
X-57169353Y-3744519D01*
X-57169351Y-3744519D01*
X-57149982Y-3746427D01*
X-57130612Y-3744519D01*
X-38714388Y-3744519D01*
X-38695019Y-3746427D01*
X-38675650Y-3744519D01*
X-38675647Y-3744519D01*
X-38617684Y-3738810D01*
X-38543320Y-3716252D01*
X-38474787Y-3679620D01*
X-38414716Y-3630322D01*
X-38402361Y-3615267D01*
X-36648944Y-1861851D01*
X-36522513Y-1887000D01*
X-36367487Y-1887000D01*
X-36215441Y-1856756D01*
X-36072216Y-1797430D01*
X-35943317Y-1711303D01*
X-35833697Y-1601683D01*
X-35810000Y-1566218D01*
X-35786303Y-1601683D01*
X-35676683Y-1711303D01*
X-35547784Y-1797430D01*
X-35404559Y-1856756D01*
X-35252513Y-1887000D01*
X-35097487Y-1887000D01*
X-34945441Y-1856756D01*
X-34802216Y-1797430D01*
X-34673317Y-1711303D01*
X-34563697Y-1601683D01*
X-34540000Y-1566218D01*
X-34516303Y-1601683D01*
X-34406683Y-1711303D01*
X-34277784Y-1797430D01*
X-34134559Y-1856756D01*
X-33982513Y-1887000D01*
X-33827487Y-1887000D01*
X-33675441Y-1856756D01*
X-33532216Y-1797430D01*
X-33403317Y-1711303D01*
X-33293697Y-1601683D01*
X-33270000Y-1566218D01*
X-33246303Y-1601683D01*
X-33136683Y-1711303D01*
X-33007784Y-1797430D01*
X-32864559Y-1856756D01*
X-32712513Y-1887000D01*
X-32557487Y-1887000D01*
X-32405441Y-1856756D01*
X-32262216Y-1797430D01*
X-32133317Y-1711303D01*
X-32023697Y-1601683D01*
X-32000000Y-1566218D01*
X-31976303Y-1601683D01*
X-31866683Y-1711303D01*
X-31737784Y-1797430D01*
X-31594559Y-1856756D01*
X-31442513Y-1887000D01*
X-31287487Y-1887000D01*
X-31135441Y-1856756D01*
X-30992216Y-1797430D01*
X-30863317Y-1711303D01*
X-30753697Y-1601683D01*
X-30730000Y-1566218D01*
X-30706303Y-1601683D01*
X-30596683Y-1711303D01*
X-30467784Y-1797430D01*
X-30324559Y-1856756D01*
X-30172513Y-1887000D01*
X-30017487Y-1887000D01*
X-29865441Y-1856756D01*
X-29722216Y-1797430D01*
X-29593317Y-1711303D01*
X-29483697Y-1601683D01*
X-29460000Y-1566218D01*
X-29436303Y-1601683D01*
X-29326683Y-1711303D01*
X-29197784Y-1797430D01*
X-29054559Y-1856756D01*
X-28902513Y-1887000D01*
X-28747487Y-1887000D01*
X-28595441Y-1856756D01*
X-28452216Y-1797430D01*
X-28323317Y-1711303D01*
X-28213697Y-1601683D01*
X-28190000Y-1566218D01*
X-28166303Y-1601683D01*
X-28056683Y-1711303D01*
X-27927784Y-1797430D01*
X-27784559Y-1856756D01*
X-27632513Y-1887000D01*
X-27477487Y-1887000D01*
X-27325441Y-1856756D01*
X-27182216Y-1797430D01*
X-27108580Y-1748228D01*
X-25441538Y-3415271D01*
X-25429187Y-3430321D01*
X-25369116Y-3479619D01*
X-25300583Y-3516251D01*
X-25226219Y-3538809D01*
X-25168256Y-3544518D01*
X-25168254Y-3544518D01*
X-25148885Y-3546426D01*
X-25129515Y-3544518D01*
X-2712187Y-3544518D01*
X-2692818Y-3546426D01*
X-2673449Y-3544518D01*
X-2673446Y-3544518D01*
X-2615483Y-3538809D01*
X-2541119Y-3516251D01*
X-2472586Y-3479619D01*
X-2412515Y-3430321D01*
X-2400160Y-3415266D01*
X-918462Y-1933569D01*
X-893378Y-1943959D01*
X-722244Y-1978000D01*
X-547756Y-1978000D01*
X-376622Y-1943959D01*
X-215416Y-1877186D01*
X-70335Y-1780246D01*
X0Y-1709911D01*
X70335Y-1780246D01*
X215416Y-1877186D01*
X376622Y-1943959D01*
X547756Y-1978000D01*
X722244Y-1978000D01*
X893378Y-1943959D01*
X1054584Y-1877186D01*
X1199665Y-1780246D01*
X1270000Y-1709911D01*
X1340335Y-1780246D01*
X1485416Y-1877186D01*
X1646622Y-1943959D01*
X1817756Y-1978000D01*
X1992244Y-1978000D01*
X2163378Y-1943959D01*
X2324584Y-1877186D01*
X2469665Y-1780246D01*
X2540000Y-1709911D01*
X2610335Y-1780246D01*
X2755416Y-1877186D01*
X2916622Y-1943959D01*
X3087756Y-1978000D01*
X3262244Y-1978000D01*
X3433378Y-1943959D01*
X3594584Y-1877186D01*
X3739665Y-1780246D01*
X3810000Y-1709911D01*
X3880335Y-1780246D01*
X4025416Y-1877186D01*
X4186622Y-1943959D01*
X4357756Y-1978000D01*
X4532244Y-1978000D01*
X4703378Y-1943959D01*
X4864584Y-1877186D01*
X5009665Y-1780246D01*
X5133046Y-1656865D01*
X5229986Y-1511784D01*
X5296759Y-1350578D01*
X5330800Y-1179444D01*
X5330800Y-1004956D01*
X5296759Y-833822D01*
X5229986Y-672616D01*
X5133046Y-527535D01*
X5009665Y-404154D01*
X4864584Y-307214D01*
X4703378Y-240441D01*
X4666775Y-233160D01*
X4695800Y-87244D01*
X4695800Y87244D01*
X4661759Y258378D01*
X4594986Y419584D01*
X4498046Y564665D01*
X4374665Y688046D01*
X4229584Y784986D01*
X4068378Y851759D01*
X3897244Y885800D01*
X3722756Y885800D01*
X3551622Y851759D01*
X3390416Y784986D01*
X3245335Y688046D01*
X3175000Y617711D01*
X3104665Y688046D01*
X2959584Y784986D01*
X2798378Y851759D01*
X2627244Y885800D01*
X2452756Y885800D01*
X2281622Y851759D01*
X2256538Y841369D01*
X632640Y2465266D01*
X620285Y2480321D01*
X560214Y2529619D01*
X491681Y2566251D01*
X417317Y2588809D01*
X359354Y2594518D01*
X359351Y2594518D01*
X339982Y2596426D01*
X320613Y2594518D01*
X-29424515Y2594518D01*
X-29443885Y2596426D01*
X-29463254Y2594518D01*
X-29463256Y2594518D01*
X-29521219Y2588809D01*
X-29595583Y2566251D01*
X-29664116Y2529619D01*
X-29724187Y2480321D01*
X-29736538Y2465271D01*
X-31553580Y648228D01*
X-31627216Y697430D01*
X-31770441Y756756D01*
X-31922487Y787000D01*
X-32077513Y787000D01*
X-32229559Y756756D01*
X-32372784Y697430D01*
X-32501683Y611303D01*
X-32611303Y501683D01*
X-32635000Y466218D01*
X-32658697Y501683D01*
X-32768317Y611303D01*
X-32897216Y697430D01*
X-33040441Y756756D01*
X-33192487Y787000D01*
X-33347513Y787000D01*
X-33499559Y756756D01*
X-33642784Y697430D01*
X-33771683Y611303D01*
X-33881303Y501683D01*
X-33905000Y466218D01*
X-33928697Y501683D01*
X-34038317Y611303D01*
X-34167216Y697430D01*
X-34310441Y756756D01*
X-34462487Y787000D01*
X-34617513Y787000D01*
X-34769559Y756756D01*
X-34912784Y697430D01*
X-35041683Y611303D01*
X-35151303Y501683D01*
X-35175000Y466218D01*
X-35198697Y501683D01*
X-35308317Y611303D01*
X-35437216Y697430D01*
X-35580441Y756756D01*
X-35732487Y787000D01*
X-35887513Y787000D01*
X-36013944Y761851D01*
X-37767360Y2515266D01*
X-37779715Y2530321D01*
X-37839786Y2579619D01*
X-37908319Y2616251D01*
X-37982683Y2638809D01*
X-38040646Y2644518D01*
X-38040649Y2644518D01*
X-38060018Y2646426D01*
X-38079387Y2644518D01*
X-60230613Y2644518D01*
X-60249982Y2646426D01*
X-60269352Y2644518D01*
X-60269354Y2644518D01*
X-60327317Y2638809D01*
X-60401681Y2616251D01*
X-60470214Y2579619D01*
X-60530285Y2530321D01*
X-60542636Y2515271D01*
X-61908893Y1149014D01*
X-61928586Y1159540D01*
X-62037123Y1192465D01*
X-62149999Y1203582D01*
X-62850001Y1203582D01*
X-62962877Y1192465D01*
X-63071414Y1159540D01*
X-63171443Y1106074D01*
X-63259120Y1034120D01*
X-63331074Y946443D01*
X-63384540Y846414D01*
X-63417465Y737877D01*
X-63428582Y625001D01*
X-68637459Y625001D01*
X-68639420Y631464D01*
X-68725499Y792505D01*
X-68841341Y933659D01*
X-68982496Y1049501D01*
X-69143537Y1135580D01*
X-69318277Y1188587D01*
X-69500000Y1206485D01*
X-69681724Y1188587D01*
X-69856464Y1135580D01*
X-70017505Y1049501D01*
X-70158659Y933659D01*
X-70274501Y792504D01*
X-70360580Y631463D01*
X-70413587Y456723D01*
X-70427000Y320537D01*
X-70573000Y320537D01*
X-70573000Y320538D01*
X-70586413Y456724D01*
X-70639420Y631464D01*
X-70725499Y792505D01*
X-70841341Y933659D01*
X-70982496Y1049501D01*
X-71143537Y1135580D01*
X-71318277Y1188587D01*
X-71500000Y1206485D01*
X-71681724Y1188587D01*
X-71856464Y1135580D01*
X-72017505Y1049501D01*
X-72158659Y933659D01*
X-72274501Y792504D01*
X-72360580Y631463D01*
X-72413587Y456723D01*
X-72427000Y320537D01*
X-72573000Y320537D01*
X-72573000Y320538D01*
X-72586413Y456724D01*
X-72639420Y631464D01*
X-72725499Y792505D01*
X-72841341Y933659D01*
X-72982496Y1049501D01*
X-73143537Y1135580D01*
X-73318277Y1188587D01*
X-73500000Y1206485D01*
X-73681724Y1188587D01*
X-73856464Y1135580D01*
X-74017505Y1049501D01*
X-74158659Y933659D01*
X-74274501Y792504D01*
X-74360580Y631463D01*
X-74413587Y456723D01*
X-74427000Y320537D01*
X-74571418Y320537D01*
X-74571418Y625001D01*
X-74582535Y737877D01*
X-74615460Y846414D01*
X-74668926Y946443D01*
X-74740880Y1034120D01*
X-74828557Y1106074D01*
X-74928586Y1159540D01*
X-75037123Y1192465D01*
X-75149999Y1203582D01*
X-75850001Y1203582D01*
X-75962877Y1192465D01*
X-76071414Y1159540D01*
X-76171443Y1106074D01*
X-76259120Y1034120D01*
X-76331074Y946443D01*
X-76384540Y846414D01*
X-76417465Y737877D01*
X-76428582Y625001D01*
X-78498000Y625001D01*
X-78498000Y3448000D01*
X-56294239Y3448000D01*
X-56254583Y3426803D01*
G37*
%TD.AperFunction*%
D17*
X-39694906Y787000D02*
X-39697513Y787000D01*
X-39849559Y756756D01*
X-39992784Y697430D01*
X-40121683Y611303D01*
X-40231303Y501683D01*
X-40317430Y372784D01*
X-40376756Y229559D01*
X-40407000Y77513D01*
X-40407000Y-77513D01*
X-40376756Y-229559D01*
X-40317430Y-372784D01*
X-40231303Y-501683D01*
X-40121683Y-611303D01*
X-39992784Y-697430D01*
X-39849559Y-756756D01*
X-39706457Y-785221D01*
X-39741756Y-870441D01*
X-39772000Y-1022487D01*
X-39772000Y-1177513D01*
X-39746851Y-1303944D01*
X-40948406Y-2505500D01*
X-49096593Y-2505500D01*
X-50417914Y-1184180D01*
X-50398000Y-1084066D01*
X-50398000Y-935934D01*
X-50426899Y-790650D01*
X-50482899Y-655453D01*
X-50451794Y-617550D01*
X-50421430Y-560743D01*
X-50402732Y-499103D01*
X-50396418Y-435000D01*
X-50396418Y185675D01*
X-49176592Y1405500D01*
X-40313406Y1405500D01*
X-39694906Y787000D01*
%TA.AperFunction,Conductor*%
D18*
G36*
X-39694906Y787000D02*
G01*
X-39697513Y787000D01*
X-39849559Y756756D01*
X-39992784Y697430D01*
X-40121683Y611303D01*
X-40231303Y501683D01*
X-40317430Y372784D01*
X-40376756Y229559D01*
X-40407000Y77513D01*
X-40407000Y-77513D01*
X-40376756Y-229559D01*
X-40317430Y-372784D01*
X-40231303Y-501683D01*
X-40121683Y-611303D01*
X-39992784Y-697430D01*
X-39849559Y-756756D01*
X-39706457Y-785221D01*
X-39741756Y-870441D01*
X-39772000Y-1022487D01*
X-39772000Y-1177513D01*
X-39746851Y-1303944D01*
X-40948406Y-2505500D01*
X-49096593Y-2505500D01*
X-50417914Y-1184180D01*
X-50398000Y-1084066D01*
X-50398000Y-935934D01*
X-50426899Y-790650D01*
X-50482899Y-655453D01*
X-50451794Y-617550D01*
X-50421430Y-560743D01*
X-50402732Y-499103D01*
X-50396418Y-435000D01*
X-50396418Y185675D01*
X-49176592Y1405500D01*
X-40313406Y1405500D01*
X-39694906Y787000D01*
G37*
%TD.AperFunction*%
D17*
X-1429361Y871455D02*
X-1528378Y851759D01*
X-1689584Y784986D01*
X-1834665Y688046D01*
X-1905000Y617711D01*
X-1975335Y688046D01*
X-2120416Y784986D01*
X-2281622Y851759D01*
X-2452756Y885800D01*
X-2627244Y885800D01*
X-2798378Y851759D01*
X-2959584Y784986D01*
X-3104665Y688046D01*
X-3175000Y617711D01*
X-3245335Y688046D01*
X-3390416Y784986D01*
X-3551622Y851759D01*
X-3722756Y885800D01*
X-3897244Y885800D01*
X-4068378Y851759D01*
X-4229584Y784986D01*
X-4374665Y688046D01*
X-4498046Y564665D01*
X-4594986Y419584D01*
X-4661759Y258378D01*
X-4695800Y87244D01*
X-4695800Y-87244D01*
X-4666775Y-233160D01*
X-4703378Y-240441D01*
X-4864584Y-307214D01*
X-5009665Y-404154D01*
X-5133046Y-527535D01*
X-5229986Y-672616D01*
X-5296759Y-833822D01*
X-5330800Y-1004956D01*
X-5330800Y-1179444D01*
X-5296759Y-1350578D01*
X-5286369Y-1375662D01*
X-6216206Y-2305500D01*
X-21516593Y-2305500D01*
X-23618149Y-203945D01*
X-23593000Y-77513D01*
X-23593000Y77513D01*
X-23623244Y229559D01*
X-23682570Y372784D01*
X-23768697Y501683D01*
X-23878317Y611303D01*
X-24007216Y697430D01*
X-24150441Y756756D01*
X-24302487Y787000D01*
X-24457513Y787000D01*
X-24609559Y756756D01*
X-24752784Y697430D01*
X-24881683Y611303D01*
X-24991303Y501683D01*
X-25015000Y466218D01*
X-25038697Y501683D01*
X-25148317Y611303D01*
X-25277216Y697430D01*
X-25420441Y756756D01*
X-25572487Y787000D01*
X-25727513Y787000D01*
X-25879559Y756756D01*
X-26022784Y697430D01*
X-26151683Y611303D01*
X-26261303Y501683D01*
X-26285000Y466218D01*
X-26308697Y501683D01*
X-26418317Y611303D01*
X-26547216Y697430D01*
X-26690441Y756756D01*
X-26842487Y787000D01*
X-26997513Y787000D01*
X-27149559Y756756D01*
X-27292784Y697430D01*
X-27421683Y611303D01*
X-27531303Y501683D01*
X-27555000Y466218D01*
X-27578697Y501683D01*
X-27688317Y611303D01*
X-27817216Y697430D01*
X-27839383Y706612D01*
X-27190495Y1355500D01*
X-1913406Y1355500D01*
X-1429361Y871455D01*
%TA.AperFunction,Conductor*%
D18*
G36*
X-1429361Y871455D02*
G01*
X-1528378Y851759D01*
X-1689584Y784986D01*
X-1834665Y688046D01*
X-1905000Y617711D01*
X-1975335Y688046D01*
X-2120416Y784986D01*
X-2281622Y851759D01*
X-2452756Y885800D01*
X-2627244Y885800D01*
X-2798378Y851759D01*
X-2959584Y784986D01*
X-3104665Y688046D01*
X-3175000Y617711D01*
X-3245335Y688046D01*
X-3390416Y784986D01*
X-3551622Y851759D01*
X-3722756Y885800D01*
X-3897244Y885800D01*
X-4068378Y851759D01*
X-4229584Y784986D01*
X-4374665Y688046D01*
X-4498046Y564665D01*
X-4594986Y419584D01*
X-4661759Y258378D01*
X-4695800Y87244D01*
X-4695800Y-87244D01*
X-4666775Y-233160D01*
X-4703378Y-240441D01*
X-4864584Y-307214D01*
X-5009665Y-404154D01*
X-5133046Y-527535D01*
X-5229986Y-672616D01*
X-5296759Y-833822D01*
X-5330800Y-1004956D01*
X-5330800Y-1179444D01*
X-5296759Y-1350578D01*
X-5286369Y-1375662D01*
X-6216206Y-2305500D01*
X-21516593Y-2305500D01*
X-23618149Y-203945D01*
X-23593000Y-77513D01*
X-23593000Y77513D01*
X-23623244Y229559D01*
X-23682570Y372784D01*
X-23768697Y501683D01*
X-23878317Y611303D01*
X-24007216Y697430D01*
X-24150441Y756756D01*
X-24302487Y787000D01*
X-24457513Y787000D01*
X-24609559Y756756D01*
X-24752784Y697430D01*
X-24881683Y611303D01*
X-24991303Y501683D01*
X-25015000Y466218D01*
X-25038697Y501683D01*
X-25148317Y611303D01*
X-25277216Y697430D01*
X-25420441Y756756D01*
X-25572487Y787000D01*
X-25727513Y787000D01*
X-25879559Y756756D01*
X-26022784Y697430D01*
X-26151683Y611303D01*
X-26261303Y501683D01*
X-26285000Y466218D01*
X-26308697Y501683D01*
X-26418317Y611303D01*
X-26547216Y697430D01*
X-26690441Y756756D01*
X-26842487Y787000D01*
X-26997513Y787000D01*
X-27149559Y756756D01*
X-27292784Y697430D01*
X-27421683Y611303D01*
X-27531303Y501683D01*
X-27555000Y466218D01*
X-27578697Y501683D01*
X-27688317Y611303D01*
X-27817216Y697430D01*
X-27839383Y706612D01*
X-27190495Y1355500D01*
X-1913406Y1355500D01*
X-1429361Y871455D01*
G37*
%TD.AperFunction*%
%TD*%
M02*
