%TF.GenerationSoftware,KiCad,Pcbnew,(5.1.10)-1*%
%TF.CreationDate,2022-08-10T16:23:39-06:00*%
%TF.ProjectId,15to25,3135746f-3235-42e6-9b69-6361645f7063,rev?*%
%TF.SameCoordinates,Original*%
%TF.FileFunction,Copper,L1,Top*%
%TF.FilePolarity,Positive*%
%FSLAX46Y46*%
G04 Gerber Fmt 4.6, Leading zero omitted, Abs format (unit mm)*
G04 Created by KiCad (PCBNEW (5.1.10)-1) date 2022-08-10 16:23:39*
%MOMM*%
%LPD*%
G01*
G04 APERTURE LIST*
%TA.AperFunction,ComponentPad*%
%ADD10C,3.600000*%
%TD*%
%TA.AperFunction,ComponentPad*%
%ADD11O,0.920000X0.920000*%
%TD*%
%TA.AperFunction,ComponentPad*%
%ADD12O,1.200000X1.750000*%
%TD*%
%TA.AperFunction,ComponentPad*%
%ADD13O,0.850000X0.850000*%
%TD*%
%TA.AperFunction,ComponentPad*%
%ADD14R,0.850000X0.850000*%
%TD*%
%TA.AperFunction,ComponentPad*%
%ADD15C,1.117600*%
%TD*%
%TA.AperFunction,Conductor*%
%ADD16C,0.135000*%
%TD*%
%TA.AperFunction,Conductor*%
%ADD17C,0.254000*%
%TD*%
%TA.AperFunction,Conductor*%
%ADD18C,0.100000*%
%TD*%
G04 APERTURE END LIST*
D10*
%TO.P,J4,0*%
%TO.N,GND*%
X-19725000Y-550000D03*
X-44275000Y-550000D03*
D11*
%TO.P,J4,13*%
%TO.N,Net-(J4-Pad13)*%
X-39620000Y0D03*
%TO.P,J4,25*%
%TO.N,Net-(J3-Pad4)*%
X-38985000Y-1100000D03*
%TO.P,J4,12*%
%TO.N,Net-(J3-Pad3)*%
X-38350000Y0D03*
%TO.P,J4,24*%
%TO.N,Net-(J3-Pad2)*%
X-37715000Y-1100000D03*
%TO.P,J4,11*%
%TO.N,Net-(J3-Pad1)*%
X-37080000Y0D03*
%TO.P,J4,23*%
%TO.N,Net-(J1-Pad4)*%
X-36445000Y-1100000D03*
%TO.P,J4,10*%
%TO.N,Net-(J1-Pad3)*%
X-35810000Y0D03*
%TO.P,J4,22*%
%TO.N,Net-(J1-Pad2)*%
X-35175000Y-1100000D03*
%TO.P,J4,9*%
%TO.N,Net-(J1-Pad1)*%
X-34540000Y0D03*
%TO.P,J4,21*%
%TO.N,Net-(J4-Pad21)*%
X-33905000Y-1100000D03*
%TO.P,J4,8*%
%TO.N,Net-(J4-Pad8)*%
X-33270000Y0D03*
%TO.P,J4,20*%
%TO.N,Net-(J2-Pad15)*%
X-32635000Y-1100000D03*
%TO.P,J4,7*%
%TO.N,Net-(J2-Pad8)*%
X-32000000Y0D03*
%TO.P,J4,19*%
%TO.N,Net-(J2-Pad14)*%
X-31365000Y-1100000D03*
%TO.P,J4,6*%
%TO.N,Net-(J2-Pad7)*%
X-30730000Y0D03*
%TO.P,J4,18*%
%TO.N,Net-(J2-Pad13)*%
X-30095000Y-1100000D03*
%TO.P,J4,5*%
%TO.N,Net-(J2-Pad6)*%
X-29460000Y0D03*
%TO.P,J4,17*%
%TO.N,Net-(J2-Pad12)*%
X-28825000Y-1100000D03*
%TO.P,J4,4*%
%TO.N,Net-(J2-Pad5)*%
X-28190000Y0D03*
%TO.P,J4,16*%
%TO.N,Net-(J2-Pad11)*%
X-27555000Y-1100000D03*
%TO.P,J4,3*%
%TO.N,Net-(J2-Pad4)*%
X-26920000Y0D03*
%TO.P,J4,15*%
%TO.N,Net-(J2-Pad10)*%
X-26285000Y-1100000D03*
%TO.P,J4,2*%
%TO.N,Net-(J2-Pad2)*%
X-25650000Y0D03*
%TO.P,J4,14*%
%TO.N,Net-(J2-Pad9)*%
X-25015000Y-1100000D03*
%TO.P,J4,1*%
%TO.N,Net-(J2-Pad1)*%
X-24380000Y0D03*
%TD*%
D12*
%TO.P,J3,4*%
%TO.N,Net-(J3-Pad4)*%
X-56500000Y0D03*
%TO.P,J3,3*%
%TO.N,Net-(J3-Pad3)*%
X-58500000Y0D03*
%TO.P,J3,2*%
%TO.N,Net-(J3-Pad2)*%
X-60500000Y0D03*
%TO.P,J3,1*%
%TO.N,Net-(J3-Pad1)*%
%TA.AperFunction,ComponentPad*%
G36*
G01*
X-63100000Y-625001D02*
X-63100000Y625001D01*
G75*
G02*
X-62850001Y875000I249999J0D01*
G01*
X-62149999Y875000D01*
G75*
G02*
X-61900000Y625001I0J-249999D01*
G01*
X-61900000Y-625001D01*
G75*
G02*
X-62149999Y-875000I-249999J0D01*
G01*
X-62850001Y-875000D01*
G75*
G02*
X-63100000Y-625001I0J249999D01*
G01*
G37*
%TD.AperFunction*%
%TD*%
%TO.P,J1,4*%
%TO.N,Net-(J1-Pad4)*%
X-69500000Y0D03*
%TO.P,J1,3*%
%TO.N,Net-(J1-Pad3)*%
X-71500000Y0D03*
%TO.P,J1,2*%
%TO.N,Net-(J1-Pad2)*%
X-73500000Y0D03*
%TO.P,J1,1*%
%TO.N,Net-(J1-Pad1)*%
%TA.AperFunction,ComponentPad*%
G36*
G01*
X-76100000Y-625001D02*
X-76100000Y625001D01*
G75*
G02*
X-75850001Y875000I249999J0D01*
G01*
X-75149999Y875000D01*
G75*
G02*
X-74900000Y625001I0J-249999D01*
G01*
X-74900000Y-625001D01*
G75*
G02*
X-75149999Y-875000I-249999J0D01*
G01*
X-75850001Y-875000D01*
G75*
G02*
X-76100000Y-625001I0J249999D01*
G01*
G37*
%TD.AperFunction*%
%TD*%
D13*
%TO.P,J5,2*%
%TO.N,Net-(J4-Pad21)*%
X-51150000Y-1010000D03*
D14*
%TO.P,J5,1*%
%TO.N,Net-(J4-Pad8)*%
X-51150000Y-10000D03*
%TD*%
D10*
%TO.P,J2,0*%
%TO.N,GND*%
X9105900Y-546100D03*
X-9105900Y-546100D03*
D15*
%TO.P,J2,15*%
%TO.N,Net-(J2-Pad15)*%
X3810000Y0D03*
%TO.P,J2,14*%
%TO.N,Net-(J2-Pad14)*%
X2540000Y0D03*
%TO.P,J2,13*%
%TO.N,Net-(J2-Pad13)*%
X1270000Y0D03*
%TO.P,J2,12*%
%TO.N,Net-(J2-Pad12)*%
X0Y0D03*
%TO.P,J2,11*%
%TO.N,Net-(J2-Pad11)*%
X-1270000Y0D03*
%TO.P,J2,10*%
%TO.N,Net-(J2-Pad10)*%
X-2540000Y0D03*
%TO.P,J2,9*%
%TO.N,Net-(J2-Pad9)*%
X-3810000Y0D03*
%TO.P,J2,8*%
%TO.N,Net-(J2-Pad8)*%
X4445000Y-1092200D03*
%TO.P,J2,7*%
%TO.N,Net-(J2-Pad7)*%
X3175000Y-1092200D03*
%TO.P,J2,6*%
%TO.N,Net-(J2-Pad6)*%
X1905000Y-1092200D03*
%TO.P,J2,5*%
%TO.N,Net-(J2-Pad5)*%
X635000Y-1092200D03*
%TO.P,J2,4*%
%TO.N,Net-(J2-Pad4)*%
X-635000Y-1092200D03*
%TO.P,J2,3*%
%TO.N,Net-(J2-Pad3)*%
X-1905000Y-1092200D03*
%TO.P,J2,2*%
%TO.N,Net-(J2-Pad2)*%
X-3175000Y-1092200D03*
%TO.P,J2,1*%
%TO.N,Net-(J2-Pad1)*%
X-4445000Y-1092200D03*
%TD*%
D16*
%TO.N,Net-(J1-Pad1)*%
X-37315028Y2775028D02*
X-34540000Y0D01*
X-72724972Y2775028D02*
X-37315028Y2775028D01*
X-75500000Y0D02*
X-72724972Y2775028D01*
%TO.N,Net-(J1-Pad2)*%
X-37750030Y-3675030D02*
X-35175000Y-1100000D01*
X-70834970Y-3675030D02*
X-37750030Y-3675030D01*
X-73500000Y-1010000D02*
X-70834970Y-3675030D01*
X-73500000Y0D02*
X-73500000Y-1010000D01*
%TO.N,Net-(J1-Pad3)*%
X-38360019Y2550019D02*
X-35810000Y0D01*
X-68949981Y2550019D02*
X-38360019Y2550019D01*
X-71500000Y0D02*
X-68949981Y2550019D01*
%TO.N,Net-(J1-Pad4)*%
X-38795020Y-3450020D02*
X-36445000Y-1100000D01*
X-66049980Y-3450020D02*
X-38795020Y-3450020D01*
X-69500000Y0D02*
X-66049980Y-3450020D01*
%TO.N,Net-(J2-Pad14)*%
X339982Y2200018D02*
X2540000Y0D01*
X-31365000Y278902D02*
X-29443884Y2200018D01*
X-29443884Y2200018D02*
X339982Y2200018D01*
X-31365000Y-1100000D02*
X-31365000Y278902D01*
%TO.N,Net-(J2-Pad13)*%
X-705009Y1975009D02*
X1270000Y0D01*
X-28398893Y1975009D02*
X-705009Y1975009D01*
X-30095000Y278902D02*
X-28398893Y1975009D01*
X-30095000Y-1100000D02*
X-30095000Y278902D01*
%TO.N,Net-(J2-Pad12)*%
X-28825000Y278902D02*
X-27353902Y1750000D01*
X-28825000Y-1100000D02*
X-28825000Y278902D01*
X-1750000Y1750000D02*
X0Y0D01*
X-27353902Y1750000D02*
X-1750000Y1750000D01*
%TO.N,Net-(J2-Pad4)*%
X-26920000Y-1378902D02*
X-26920000Y0D01*
X-25148884Y-3150018D02*
X-26920000Y-1378902D01*
X-2692818Y-3150018D02*
X-25148884Y-3150018D01*
X-635000Y-1092200D02*
X-2692818Y-3150018D01*
%TO.N,Net-(J2-Pad2)*%
X-5007809Y-2925009D02*
X-3175000Y-1092200D01*
X-24103893Y-2925009D02*
X-5007809Y-2925009D01*
X-25650000Y-1378902D02*
X-24103893Y-2925009D01*
X-25650000Y0D02*
X-25650000Y-1378902D01*
%TO.N,Net-(J2-Pad1)*%
X-4445000Y-1092200D02*
X-6052800Y-2700000D01*
X-21680000Y-2700000D02*
X-24380000Y0D01*
X-6052800Y-2700000D02*
X-21680000Y-2700000D01*
%TO.N,Net-(J3-Pad4)*%
X-56500000Y0D02*
X-56500000Y-1500000D01*
X-56500000Y-1500000D02*
X-55000000Y-3000000D01*
X-40885000Y-3000000D02*
X-38985000Y-1100000D01*
X-55000000Y-3000000D02*
X-40885000Y-3000000D01*
%TO.N,Net-(J3-Pad3)*%
X-58500000Y0D02*
X-56400000Y2100000D01*
X-40450000Y2100000D02*
X-38350000Y0D01*
X-56400000Y2100000D02*
X-40450000Y2100000D01*
%TO.N,Net-(J3-Pad2)*%
X-39840010Y-3225010D02*
X-37715000Y-1100000D01*
X-57274990Y-3225010D02*
X-39840010Y-3225010D01*
X-60500000Y0D02*
X-57274990Y-3225010D01*
%TO.N,Net-(J3-Pad1)*%
X-39405010Y2325010D02*
X-37080000Y0D01*
X-60174990Y2325010D02*
X-39405010Y2325010D01*
X-62500000Y0D02*
X-60174990Y2325010D01*
%TD*%
D17*
%TO.N,GND*%
X-56254583Y3426803D02*
X-56178806Y3403817D01*
X-56119747Y3398000D01*
X12598000Y3398000D01*
X12598001Y-4498000D01*
X-56119747Y-4498000D01*
X-56178806Y-4503817D01*
X-56254583Y-4526803D01*
X-56294239Y-4548000D01*
X-78498000Y-4548000D01*
X-78498000Y625001D01*
X-76428582Y625001D01*
X-76428582Y-625001D01*
X-76417465Y-737877D01*
X-76384540Y-846414D01*
X-76331074Y-946443D01*
X-76259120Y-1034120D01*
X-76171443Y-1106074D01*
X-76071414Y-1159540D01*
X-75962877Y-1192465D01*
X-75850001Y-1203582D01*
X-75149999Y-1203582D01*
X-75037123Y-1192465D01*
X-74928586Y-1159540D01*
X-74828557Y-1106074D01*
X-74740880Y-1034120D01*
X-74668926Y-946443D01*
X-74615460Y-846414D01*
X-74582535Y-737877D01*
X-74571418Y-625001D01*
X-74571418Y370676D01*
X-74382330Y559764D01*
X-74413587Y456723D01*
X-74427000Y320537D01*
X-74427000Y-320538D01*
X-74413587Y-456724D01*
X-74360580Y-631464D01*
X-74274500Y-792505D01*
X-74158658Y-933659D01*
X-74017504Y-1049501D01*
X-73877579Y-1124293D01*
X-73866233Y-1161698D01*
X-73856747Y-1179444D01*
X-73829600Y-1230232D01*
X-73780302Y-1290303D01*
X-73765252Y-1302654D01*
X-71127619Y-3940289D01*
X-71115273Y-3955333D01*
X-71100229Y-3967679D01*
X-71100226Y-3967682D01*
X-71055203Y-4004631D01*
X-70986669Y-4041263D01*
X-70912305Y-4063821D01*
X-70854342Y-4069530D01*
X-70854340Y-4069530D01*
X-70834970Y-4071438D01*
X-70815601Y-4069530D01*
X-37769399Y-4069530D01*
X-37750030Y-4071438D01*
X-37730661Y-4069530D01*
X-37730658Y-4069530D01*
X-37672695Y-4063821D01*
X-37598331Y-4041263D01*
X-37529798Y-4004631D01*
X-37469727Y-3955333D01*
X-37457372Y-3940278D01*
X-35378944Y-1861851D01*
X-35252513Y-1887000D01*
X-35097487Y-1887000D01*
X-34945441Y-1856756D01*
X-34802216Y-1797430D01*
X-34673317Y-1711303D01*
X-34563697Y-1601683D01*
X-34540000Y-1566218D01*
X-34516303Y-1601683D01*
X-34406683Y-1711303D01*
X-34277784Y-1797430D01*
X-34134559Y-1856756D01*
X-33982513Y-1887000D01*
X-33827487Y-1887000D01*
X-33675441Y-1856756D01*
X-33532216Y-1797430D01*
X-33403317Y-1711303D01*
X-33293697Y-1601683D01*
X-33270000Y-1566218D01*
X-33246303Y-1601683D01*
X-33136683Y-1711303D01*
X-33007784Y-1797430D01*
X-32864559Y-1856756D01*
X-32712513Y-1887000D01*
X-32557487Y-1887000D01*
X-32405441Y-1856756D01*
X-32262216Y-1797430D01*
X-32133317Y-1711303D01*
X-32023697Y-1601683D01*
X-32000000Y-1566218D01*
X-31976303Y-1601683D01*
X-31866683Y-1711303D01*
X-31737784Y-1797430D01*
X-31594559Y-1856756D01*
X-31442513Y-1887000D01*
X-31287487Y-1887000D01*
X-31135441Y-1856756D01*
X-30992216Y-1797430D01*
X-30863317Y-1711303D01*
X-30753697Y-1601683D01*
X-30730000Y-1566218D01*
X-30706303Y-1601683D01*
X-30596683Y-1711303D01*
X-30467784Y-1797430D01*
X-30324559Y-1856756D01*
X-30172513Y-1887000D01*
X-30017487Y-1887000D01*
X-29865441Y-1856756D01*
X-29722216Y-1797430D01*
X-29593317Y-1711303D01*
X-29483697Y-1601683D01*
X-29460000Y-1566218D01*
X-29436303Y-1601683D01*
X-29326683Y-1711303D01*
X-29197784Y-1797430D01*
X-29054559Y-1856756D01*
X-28902513Y-1887000D01*
X-28747487Y-1887000D01*
X-28595441Y-1856756D01*
X-28452216Y-1797430D01*
X-28323317Y-1711303D01*
X-28213697Y-1601683D01*
X-28190000Y-1566218D01*
X-28166303Y-1601683D01*
X-28056683Y-1711303D01*
X-27927784Y-1797430D01*
X-27784559Y-1856756D01*
X-27632513Y-1887000D01*
X-27477487Y-1887000D01*
X-27325441Y-1856756D01*
X-27182216Y-1797430D01*
X-27108580Y-1748228D01*
X-25441538Y-3415271D01*
X-25429187Y-3430321D01*
X-25369116Y-3479619D01*
X-25300583Y-3516251D01*
X-25226219Y-3538809D01*
X-25168256Y-3544518D01*
X-25168254Y-3544518D01*
X-25148885Y-3546426D01*
X-25129515Y-3544518D01*
X-2712187Y-3544518D01*
X-2692818Y-3546426D01*
X-2673449Y-3544518D01*
X-2673446Y-3544518D01*
X-2615483Y-3538809D01*
X-2541119Y-3516251D01*
X-2472586Y-3479619D01*
X-2412515Y-3430321D01*
X-2400160Y-3415266D01*
X-918462Y-1933569D01*
X-893378Y-1943959D01*
X-722244Y-1978000D01*
X-547756Y-1978000D01*
X-376622Y-1943959D01*
X-215416Y-1877186D01*
X-70335Y-1780246D01*
X0Y-1709911D01*
X70335Y-1780246D01*
X215416Y-1877186D01*
X376622Y-1943959D01*
X547756Y-1978000D01*
X722244Y-1978000D01*
X893378Y-1943959D01*
X1054584Y-1877186D01*
X1199665Y-1780246D01*
X1270000Y-1709911D01*
X1340335Y-1780246D01*
X1485416Y-1877186D01*
X1646622Y-1943959D01*
X1817756Y-1978000D01*
X1992244Y-1978000D01*
X2163378Y-1943959D01*
X2324584Y-1877186D01*
X2469665Y-1780246D01*
X2540000Y-1709911D01*
X2610335Y-1780246D01*
X2755416Y-1877186D01*
X2916622Y-1943959D01*
X3087756Y-1978000D01*
X3262244Y-1978000D01*
X3433378Y-1943959D01*
X3594584Y-1877186D01*
X3739665Y-1780246D01*
X3810000Y-1709911D01*
X3880335Y-1780246D01*
X4025416Y-1877186D01*
X4186622Y-1943959D01*
X4357756Y-1978000D01*
X4532244Y-1978000D01*
X4703378Y-1943959D01*
X4864584Y-1877186D01*
X5009665Y-1780246D01*
X5133046Y-1656865D01*
X5229986Y-1511784D01*
X5296759Y-1350578D01*
X5330800Y-1179444D01*
X5330800Y-1004956D01*
X5296759Y-833822D01*
X5229986Y-672616D01*
X5133046Y-527535D01*
X5009665Y-404154D01*
X4864584Y-307214D01*
X4703378Y-240441D01*
X4666775Y-233160D01*
X4695800Y-87244D01*
X4695800Y87244D01*
X4661759Y258378D01*
X4594986Y419584D01*
X4498046Y564665D01*
X4374665Y688046D01*
X4229584Y784986D01*
X4068378Y851759D01*
X3897244Y885800D01*
X3722756Y885800D01*
X3551622Y851759D01*
X3390416Y784986D01*
X3245335Y688046D01*
X3175000Y617711D01*
X3104665Y688046D01*
X2959584Y784986D01*
X2798378Y851759D01*
X2627244Y885800D01*
X2452756Y885800D01*
X2281622Y851759D01*
X2256538Y841369D01*
X632640Y2465266D01*
X620285Y2480321D01*
X560214Y2529619D01*
X491681Y2566251D01*
X417317Y2588809D01*
X359354Y2594518D01*
X359351Y2594518D01*
X339982Y2596426D01*
X320613Y2594518D01*
X-29424515Y2594518D01*
X-29443885Y2596426D01*
X-29463254Y2594518D01*
X-29463256Y2594518D01*
X-29521219Y2588809D01*
X-29595583Y2566251D01*
X-29664116Y2529619D01*
X-29724187Y2480321D01*
X-29736538Y2465271D01*
X-31553580Y648228D01*
X-31627216Y697430D01*
X-31770441Y756756D01*
X-31922487Y787000D01*
X-32077513Y787000D01*
X-32229559Y756756D01*
X-32372784Y697430D01*
X-32501683Y611303D01*
X-32611303Y501683D01*
X-32635000Y466218D01*
X-32658697Y501683D01*
X-32768317Y611303D01*
X-32897216Y697430D01*
X-33040441Y756756D01*
X-33192487Y787000D01*
X-33347513Y787000D01*
X-33499559Y756756D01*
X-33642784Y697430D01*
X-33771683Y611303D01*
X-33881303Y501683D01*
X-33905000Y466218D01*
X-33928697Y501683D01*
X-34038317Y611303D01*
X-34167216Y697430D01*
X-34310441Y756756D01*
X-34462487Y787000D01*
X-34617513Y787000D01*
X-34743944Y761851D01*
X-37022370Y3040276D01*
X-37034725Y3055331D01*
X-37094796Y3104629D01*
X-37163329Y3141261D01*
X-37237693Y3163819D01*
X-37295656Y3169528D01*
X-37295659Y3169528D01*
X-37315028Y3171436D01*
X-37334397Y3169528D01*
X-72705603Y3169528D01*
X-72724973Y3171436D01*
X-72744342Y3169528D01*
X-72744344Y3169528D01*
X-72802307Y3163819D01*
X-72876671Y3141261D01*
X-72945204Y3104629D01*
X-73005275Y3055331D01*
X-73017626Y3040281D01*
X-74908893Y1149014D01*
X-74928586Y1159540D01*
X-75037123Y1192465D01*
X-75149999Y1203582D01*
X-75850001Y1203582D01*
X-75962877Y1192465D01*
X-76071414Y1159540D01*
X-76171443Y1106074D01*
X-76259120Y1034120D01*
X-76331074Y946443D01*
X-76384540Y846414D01*
X-76417465Y737877D01*
X-76428582Y625001D01*
X-78498000Y625001D01*
X-78498000Y3448000D01*
X-56294239Y3448000D01*
X-56254583Y3426803D01*
%TA.AperFunction,Conductor*%
D18*
G36*
X-56254583Y3426803D02*
G01*
X-56178806Y3403817D01*
X-56119747Y3398000D01*
X12598000Y3398000D01*
X12598001Y-4498000D01*
X-56119747Y-4498000D01*
X-56178806Y-4503817D01*
X-56254583Y-4526803D01*
X-56294239Y-4548000D01*
X-78498000Y-4548000D01*
X-78498000Y625001D01*
X-76428582Y625001D01*
X-76428582Y-625001D01*
X-76417465Y-737877D01*
X-76384540Y-846414D01*
X-76331074Y-946443D01*
X-76259120Y-1034120D01*
X-76171443Y-1106074D01*
X-76071414Y-1159540D01*
X-75962877Y-1192465D01*
X-75850001Y-1203582D01*
X-75149999Y-1203582D01*
X-75037123Y-1192465D01*
X-74928586Y-1159540D01*
X-74828557Y-1106074D01*
X-74740880Y-1034120D01*
X-74668926Y-946443D01*
X-74615460Y-846414D01*
X-74582535Y-737877D01*
X-74571418Y-625001D01*
X-74571418Y370676D01*
X-74382330Y559764D01*
X-74413587Y456723D01*
X-74427000Y320537D01*
X-74427000Y-320538D01*
X-74413587Y-456724D01*
X-74360580Y-631464D01*
X-74274500Y-792505D01*
X-74158658Y-933659D01*
X-74017504Y-1049501D01*
X-73877579Y-1124293D01*
X-73866233Y-1161698D01*
X-73856747Y-1179444D01*
X-73829600Y-1230232D01*
X-73780302Y-1290303D01*
X-73765252Y-1302654D01*
X-71127619Y-3940289D01*
X-71115273Y-3955333D01*
X-71100229Y-3967679D01*
X-71100226Y-3967682D01*
X-71055203Y-4004631D01*
X-70986669Y-4041263D01*
X-70912305Y-4063821D01*
X-70854342Y-4069530D01*
X-70854340Y-4069530D01*
X-70834970Y-4071438D01*
X-70815601Y-4069530D01*
X-37769399Y-4069530D01*
X-37750030Y-4071438D01*
X-37730661Y-4069530D01*
X-37730658Y-4069530D01*
X-37672695Y-4063821D01*
X-37598331Y-4041263D01*
X-37529798Y-4004631D01*
X-37469727Y-3955333D01*
X-37457372Y-3940278D01*
X-35378944Y-1861851D01*
X-35252513Y-1887000D01*
X-35097487Y-1887000D01*
X-34945441Y-1856756D01*
X-34802216Y-1797430D01*
X-34673317Y-1711303D01*
X-34563697Y-1601683D01*
X-34540000Y-1566218D01*
X-34516303Y-1601683D01*
X-34406683Y-1711303D01*
X-34277784Y-1797430D01*
X-34134559Y-1856756D01*
X-33982513Y-1887000D01*
X-33827487Y-1887000D01*
X-33675441Y-1856756D01*
X-33532216Y-1797430D01*
X-33403317Y-1711303D01*
X-33293697Y-1601683D01*
X-33270000Y-1566218D01*
X-33246303Y-1601683D01*
X-33136683Y-1711303D01*
X-33007784Y-1797430D01*
X-32864559Y-1856756D01*
X-32712513Y-1887000D01*
X-32557487Y-1887000D01*
X-32405441Y-1856756D01*
X-32262216Y-1797430D01*
X-32133317Y-1711303D01*
X-32023697Y-1601683D01*
X-32000000Y-1566218D01*
X-31976303Y-1601683D01*
X-31866683Y-1711303D01*
X-31737784Y-1797430D01*
X-31594559Y-1856756D01*
X-31442513Y-1887000D01*
X-31287487Y-1887000D01*
X-31135441Y-1856756D01*
X-30992216Y-1797430D01*
X-30863317Y-1711303D01*
X-30753697Y-1601683D01*
X-30730000Y-1566218D01*
X-30706303Y-1601683D01*
X-30596683Y-1711303D01*
X-30467784Y-1797430D01*
X-30324559Y-1856756D01*
X-30172513Y-1887000D01*
X-30017487Y-1887000D01*
X-29865441Y-1856756D01*
X-29722216Y-1797430D01*
X-29593317Y-1711303D01*
X-29483697Y-1601683D01*
X-29460000Y-1566218D01*
X-29436303Y-1601683D01*
X-29326683Y-1711303D01*
X-29197784Y-1797430D01*
X-29054559Y-1856756D01*
X-28902513Y-1887000D01*
X-28747487Y-1887000D01*
X-28595441Y-1856756D01*
X-28452216Y-1797430D01*
X-28323317Y-1711303D01*
X-28213697Y-1601683D01*
X-28190000Y-1566218D01*
X-28166303Y-1601683D01*
X-28056683Y-1711303D01*
X-27927784Y-1797430D01*
X-27784559Y-1856756D01*
X-27632513Y-1887000D01*
X-27477487Y-1887000D01*
X-27325441Y-1856756D01*
X-27182216Y-1797430D01*
X-27108580Y-1748228D01*
X-25441538Y-3415271D01*
X-25429187Y-3430321D01*
X-25369116Y-3479619D01*
X-25300583Y-3516251D01*
X-25226219Y-3538809D01*
X-25168256Y-3544518D01*
X-25168254Y-3544518D01*
X-25148885Y-3546426D01*
X-25129515Y-3544518D01*
X-2712187Y-3544518D01*
X-2692818Y-3546426D01*
X-2673449Y-3544518D01*
X-2673446Y-3544518D01*
X-2615483Y-3538809D01*
X-2541119Y-3516251D01*
X-2472586Y-3479619D01*
X-2412515Y-3430321D01*
X-2400160Y-3415266D01*
X-918462Y-1933569D01*
X-893378Y-1943959D01*
X-722244Y-1978000D01*
X-547756Y-1978000D01*
X-376622Y-1943959D01*
X-215416Y-1877186D01*
X-70335Y-1780246D01*
X0Y-1709911D01*
X70335Y-1780246D01*
X215416Y-1877186D01*
X376622Y-1943959D01*
X547756Y-1978000D01*
X722244Y-1978000D01*
X893378Y-1943959D01*
X1054584Y-1877186D01*
X1199665Y-1780246D01*
X1270000Y-1709911D01*
X1340335Y-1780246D01*
X1485416Y-1877186D01*
X1646622Y-1943959D01*
X1817756Y-1978000D01*
X1992244Y-1978000D01*
X2163378Y-1943959D01*
X2324584Y-1877186D01*
X2469665Y-1780246D01*
X2540000Y-1709911D01*
X2610335Y-1780246D01*
X2755416Y-1877186D01*
X2916622Y-1943959D01*
X3087756Y-1978000D01*
X3262244Y-1978000D01*
X3433378Y-1943959D01*
X3594584Y-1877186D01*
X3739665Y-1780246D01*
X3810000Y-1709911D01*
X3880335Y-1780246D01*
X4025416Y-1877186D01*
X4186622Y-1943959D01*
X4357756Y-1978000D01*
X4532244Y-1978000D01*
X4703378Y-1943959D01*
X4864584Y-1877186D01*
X5009665Y-1780246D01*
X5133046Y-1656865D01*
X5229986Y-1511784D01*
X5296759Y-1350578D01*
X5330800Y-1179444D01*
X5330800Y-1004956D01*
X5296759Y-833822D01*
X5229986Y-672616D01*
X5133046Y-527535D01*
X5009665Y-404154D01*
X4864584Y-307214D01*
X4703378Y-240441D01*
X4666775Y-233160D01*
X4695800Y-87244D01*
X4695800Y87244D01*
X4661759Y258378D01*
X4594986Y419584D01*
X4498046Y564665D01*
X4374665Y688046D01*
X4229584Y784986D01*
X4068378Y851759D01*
X3897244Y885800D01*
X3722756Y885800D01*
X3551622Y851759D01*
X3390416Y784986D01*
X3245335Y688046D01*
X3175000Y617711D01*
X3104665Y688046D01*
X2959584Y784986D01*
X2798378Y851759D01*
X2627244Y885800D01*
X2452756Y885800D01*
X2281622Y851759D01*
X2256538Y841369D01*
X632640Y2465266D01*
X620285Y2480321D01*
X560214Y2529619D01*
X491681Y2566251D01*
X417317Y2588809D01*
X359354Y2594518D01*
X359351Y2594518D01*
X339982Y2596426D01*
X320613Y2594518D01*
X-29424515Y2594518D01*
X-29443885Y2596426D01*
X-29463254Y2594518D01*
X-29463256Y2594518D01*
X-29521219Y2588809D01*
X-29595583Y2566251D01*
X-29664116Y2529619D01*
X-29724187Y2480321D01*
X-29736538Y2465271D01*
X-31553580Y648228D01*
X-31627216Y697430D01*
X-31770441Y756756D01*
X-31922487Y787000D01*
X-32077513Y787000D01*
X-32229559Y756756D01*
X-32372784Y697430D01*
X-32501683Y611303D01*
X-32611303Y501683D01*
X-32635000Y466218D01*
X-32658697Y501683D01*
X-32768317Y611303D01*
X-32897216Y697430D01*
X-33040441Y756756D01*
X-33192487Y787000D01*
X-33347513Y787000D01*
X-33499559Y756756D01*
X-33642784Y697430D01*
X-33771683Y611303D01*
X-33881303Y501683D01*
X-33905000Y466218D01*
X-33928697Y501683D01*
X-34038317Y611303D01*
X-34167216Y697430D01*
X-34310441Y756756D01*
X-34462487Y787000D01*
X-34617513Y787000D01*
X-34743944Y761851D01*
X-37022370Y3040276D01*
X-37034725Y3055331D01*
X-37094796Y3104629D01*
X-37163329Y3141261D01*
X-37237693Y3163819D01*
X-37295656Y3169528D01*
X-37295659Y3169528D01*
X-37315028Y3171436D01*
X-37334397Y3169528D01*
X-72705603Y3169528D01*
X-72724973Y3171436D01*
X-72744342Y3169528D01*
X-72744344Y3169528D01*
X-72802307Y3163819D01*
X-72876671Y3141261D01*
X-72945204Y3104629D01*
X-73005275Y3055331D01*
X-73017626Y3040281D01*
X-74908893Y1149014D01*
X-74928586Y1159540D01*
X-75037123Y1192465D01*
X-75149999Y1203582D01*
X-75850001Y1203582D01*
X-75962877Y1192465D01*
X-76071414Y1159540D01*
X-76171443Y1106074D01*
X-76259120Y1034120D01*
X-76331074Y946443D01*
X-76384540Y846414D01*
X-76417465Y737877D01*
X-76428582Y625001D01*
X-78498000Y625001D01*
X-78498000Y3448000D01*
X-56294239Y3448000D01*
X-56254583Y3426803D01*
G37*
%TD.AperFunction*%
D17*
X-39694906Y787000D02*
X-39697513Y787000D01*
X-39849559Y756756D01*
X-39992784Y697430D01*
X-40121683Y611303D01*
X-40231303Y501683D01*
X-40317430Y372784D01*
X-40376756Y229559D01*
X-40407000Y77513D01*
X-40407000Y-77513D01*
X-40376756Y-229559D01*
X-40317430Y-372784D01*
X-40231303Y-501683D01*
X-40121683Y-611303D01*
X-39992784Y-697430D01*
X-39849559Y-756756D01*
X-39706457Y-785221D01*
X-39741756Y-870441D01*
X-39772000Y-1022487D01*
X-39772000Y-1177513D01*
X-39746851Y-1303944D01*
X-41048406Y-2605500D01*
X-54836593Y-2605500D01*
X-56105500Y-1336594D01*
X-56105500Y-1115249D01*
X-55982495Y-1049501D01*
X-55841341Y-933659D01*
X-55725499Y-792505D01*
X-55639420Y-631464D01*
X-55586413Y-456724D01*
X-55573000Y-320538D01*
X-55573000Y320538D01*
X-55582303Y415000D01*
X-51903582Y415000D01*
X-51903582Y-435000D01*
X-51897268Y-499103D01*
X-51878570Y-560743D01*
X-51848206Y-617550D01*
X-51817101Y-655453D01*
X-51873101Y-790650D01*
X-51902000Y-935934D01*
X-51902000Y-1084066D01*
X-51873101Y-1229350D01*
X-51816414Y-1366206D01*
X-51734117Y-1489372D01*
X-51629372Y-1594117D01*
X-51506206Y-1676414D01*
X-51369350Y-1733101D01*
X-51224066Y-1762000D01*
X-51075934Y-1762000D01*
X-50930650Y-1733101D01*
X-50793794Y-1676414D01*
X-50670628Y-1594117D01*
X-50565883Y-1489372D01*
X-50483586Y-1366206D01*
X-50426899Y-1229350D01*
X-50398000Y-1084066D01*
X-50398000Y-935934D01*
X-50426899Y-790650D01*
X-50482899Y-655453D01*
X-50451794Y-617550D01*
X-50421430Y-560743D01*
X-50402732Y-499103D01*
X-50396418Y-435000D01*
X-50396418Y415000D01*
X-50402732Y479103D01*
X-50421430Y540743D01*
X-50451794Y597550D01*
X-50492657Y647343D01*
X-50542450Y688206D01*
X-50599257Y718570D01*
X-50660897Y737268D01*
X-50725000Y743582D01*
X-51575000Y743582D01*
X-51639103Y737268D01*
X-51700743Y718570D01*
X-51757550Y688206D01*
X-51807343Y647343D01*
X-51848206Y597550D01*
X-51878570Y540743D01*
X-51897268Y479103D01*
X-51903582Y415000D01*
X-55582303Y415000D01*
X-55586413Y456724D01*
X-55639420Y631464D01*
X-55725499Y792505D01*
X-55841341Y933659D01*
X-55982496Y1049501D01*
X-56143537Y1135580D01*
X-56318277Y1188587D01*
X-56500000Y1206485D01*
X-56681724Y1188587D01*
X-56784763Y1157330D01*
X-56236593Y1705500D01*
X-40613406Y1705500D01*
X-39694906Y787000D01*
%TA.AperFunction,Conductor*%
D18*
G36*
X-39694906Y787000D02*
G01*
X-39697513Y787000D01*
X-39849559Y756756D01*
X-39992784Y697430D01*
X-40121683Y611303D01*
X-40231303Y501683D01*
X-40317430Y372784D01*
X-40376756Y229559D01*
X-40407000Y77513D01*
X-40407000Y-77513D01*
X-40376756Y-229559D01*
X-40317430Y-372784D01*
X-40231303Y-501683D01*
X-40121683Y-611303D01*
X-39992784Y-697430D01*
X-39849559Y-756756D01*
X-39706457Y-785221D01*
X-39741756Y-870441D01*
X-39772000Y-1022487D01*
X-39772000Y-1177513D01*
X-39746851Y-1303944D01*
X-41048406Y-2605500D01*
X-54836593Y-2605500D01*
X-56105500Y-1336594D01*
X-56105500Y-1115249D01*
X-55982495Y-1049501D01*
X-55841341Y-933659D01*
X-55725499Y-792505D01*
X-55639420Y-631464D01*
X-55586413Y-456724D01*
X-55573000Y-320538D01*
X-55573000Y320538D01*
X-55582303Y415000D01*
X-51903582Y415000D01*
X-51903582Y-435000D01*
X-51897268Y-499103D01*
X-51878570Y-560743D01*
X-51848206Y-617550D01*
X-51817101Y-655453D01*
X-51873101Y-790650D01*
X-51902000Y-935934D01*
X-51902000Y-1084066D01*
X-51873101Y-1229350D01*
X-51816414Y-1366206D01*
X-51734117Y-1489372D01*
X-51629372Y-1594117D01*
X-51506206Y-1676414D01*
X-51369350Y-1733101D01*
X-51224066Y-1762000D01*
X-51075934Y-1762000D01*
X-50930650Y-1733101D01*
X-50793794Y-1676414D01*
X-50670628Y-1594117D01*
X-50565883Y-1489372D01*
X-50483586Y-1366206D01*
X-50426899Y-1229350D01*
X-50398000Y-1084066D01*
X-50398000Y-935934D01*
X-50426899Y-790650D01*
X-50482899Y-655453D01*
X-50451794Y-617550D01*
X-50421430Y-560743D01*
X-50402732Y-499103D01*
X-50396418Y-435000D01*
X-50396418Y415000D01*
X-50402732Y479103D01*
X-50421430Y540743D01*
X-50451794Y597550D01*
X-50492657Y647343D01*
X-50542450Y688206D01*
X-50599257Y718570D01*
X-50660897Y737268D01*
X-50725000Y743582D01*
X-51575000Y743582D01*
X-51639103Y737268D01*
X-51700743Y718570D01*
X-51757550Y688206D01*
X-51807343Y647343D01*
X-51848206Y597550D01*
X-51878570Y540743D01*
X-51897268Y479103D01*
X-51903582Y415000D01*
X-55582303Y415000D01*
X-55586413Y456724D01*
X-55639420Y631464D01*
X-55725499Y792505D01*
X-55841341Y933659D01*
X-55982496Y1049501D01*
X-56143537Y1135580D01*
X-56318277Y1188587D01*
X-56500000Y1206485D01*
X-56681724Y1188587D01*
X-56784763Y1157330D01*
X-56236593Y1705500D01*
X-40613406Y1705500D01*
X-39694906Y787000D01*
G37*
%TD.AperFunction*%
D17*
X-1429361Y871455D02*
X-1528378Y851759D01*
X-1689584Y784986D01*
X-1834665Y688046D01*
X-1905000Y617711D01*
X-1975335Y688046D01*
X-2120416Y784986D01*
X-2281622Y851759D01*
X-2452756Y885800D01*
X-2627244Y885800D01*
X-2798378Y851759D01*
X-2959584Y784986D01*
X-3104665Y688046D01*
X-3175000Y617711D01*
X-3245335Y688046D01*
X-3390416Y784986D01*
X-3551622Y851759D01*
X-3722756Y885800D01*
X-3897244Y885800D01*
X-4068378Y851759D01*
X-4229584Y784986D01*
X-4374665Y688046D01*
X-4498046Y564665D01*
X-4594986Y419584D01*
X-4661759Y258378D01*
X-4695800Y87244D01*
X-4695800Y-87244D01*
X-4666775Y-233160D01*
X-4703378Y-240441D01*
X-4864584Y-307214D01*
X-5009665Y-404154D01*
X-5133046Y-527535D01*
X-5229986Y-672616D01*
X-5296759Y-833822D01*
X-5330800Y-1004956D01*
X-5330800Y-1179444D01*
X-5296759Y-1350578D01*
X-5286369Y-1375662D01*
X-6216206Y-2305500D01*
X-21516593Y-2305500D01*
X-23618149Y-203945D01*
X-23593000Y-77513D01*
X-23593000Y77513D01*
X-23623244Y229559D01*
X-23682570Y372784D01*
X-23768697Y501683D01*
X-23878317Y611303D01*
X-24007216Y697430D01*
X-24150441Y756756D01*
X-24302487Y787000D01*
X-24457513Y787000D01*
X-24609559Y756756D01*
X-24752784Y697430D01*
X-24881683Y611303D01*
X-24991303Y501683D01*
X-25015000Y466218D01*
X-25038697Y501683D01*
X-25148317Y611303D01*
X-25277216Y697430D01*
X-25420441Y756756D01*
X-25572487Y787000D01*
X-25727513Y787000D01*
X-25879559Y756756D01*
X-26022784Y697430D01*
X-26151683Y611303D01*
X-26261303Y501683D01*
X-26285000Y466218D01*
X-26308697Y501683D01*
X-26418317Y611303D01*
X-26547216Y697430D01*
X-26690441Y756756D01*
X-26842487Y787000D01*
X-26997513Y787000D01*
X-27149559Y756756D01*
X-27292784Y697430D01*
X-27421683Y611303D01*
X-27531303Y501683D01*
X-27555000Y466218D01*
X-27578697Y501683D01*
X-27688317Y611303D01*
X-27817216Y697430D01*
X-27839383Y706612D01*
X-27190495Y1355500D01*
X-1913406Y1355500D01*
X-1429361Y871455D01*
%TA.AperFunction,Conductor*%
D18*
G36*
X-1429361Y871455D02*
G01*
X-1528378Y851759D01*
X-1689584Y784986D01*
X-1834665Y688046D01*
X-1905000Y617711D01*
X-1975335Y688046D01*
X-2120416Y784986D01*
X-2281622Y851759D01*
X-2452756Y885800D01*
X-2627244Y885800D01*
X-2798378Y851759D01*
X-2959584Y784986D01*
X-3104665Y688046D01*
X-3175000Y617711D01*
X-3245335Y688046D01*
X-3390416Y784986D01*
X-3551622Y851759D01*
X-3722756Y885800D01*
X-3897244Y885800D01*
X-4068378Y851759D01*
X-4229584Y784986D01*
X-4374665Y688046D01*
X-4498046Y564665D01*
X-4594986Y419584D01*
X-4661759Y258378D01*
X-4695800Y87244D01*
X-4695800Y-87244D01*
X-4666775Y-233160D01*
X-4703378Y-240441D01*
X-4864584Y-307214D01*
X-5009665Y-404154D01*
X-5133046Y-527535D01*
X-5229986Y-672616D01*
X-5296759Y-833822D01*
X-5330800Y-1004956D01*
X-5330800Y-1179444D01*
X-5296759Y-1350578D01*
X-5286369Y-1375662D01*
X-6216206Y-2305500D01*
X-21516593Y-2305500D01*
X-23618149Y-203945D01*
X-23593000Y-77513D01*
X-23593000Y77513D01*
X-23623244Y229559D01*
X-23682570Y372784D01*
X-23768697Y501683D01*
X-23878317Y611303D01*
X-24007216Y697430D01*
X-24150441Y756756D01*
X-24302487Y787000D01*
X-24457513Y787000D01*
X-24609559Y756756D01*
X-24752784Y697430D01*
X-24881683Y611303D01*
X-24991303Y501683D01*
X-25015000Y466218D01*
X-25038697Y501683D01*
X-25148317Y611303D01*
X-25277216Y697430D01*
X-25420441Y756756D01*
X-25572487Y787000D01*
X-25727513Y787000D01*
X-25879559Y756756D01*
X-26022784Y697430D01*
X-26151683Y611303D01*
X-26261303Y501683D01*
X-26285000Y466218D01*
X-26308697Y501683D01*
X-26418317Y611303D01*
X-26547216Y697430D01*
X-26690441Y756756D01*
X-26842487Y787000D01*
X-26997513Y787000D01*
X-27149559Y756756D01*
X-27292784Y697430D01*
X-27421683Y611303D01*
X-27531303Y501683D01*
X-27555000Y466218D01*
X-27578697Y501683D01*
X-27688317Y611303D01*
X-27817216Y697430D01*
X-27839383Y706612D01*
X-27190495Y1355500D01*
X-1913406Y1355500D01*
X-1429361Y871455D01*
G37*
%TD.AperFunction*%
%TD*%
M02*
