%TF.GenerationSoftware,KiCad,Pcbnew,(5.1.10)-1*%
%TF.CreationDate,2022-07-12T19:07:44-06:00*%
%TF.ProjectId,15to25,3135746f-3235-42e6-9b69-6361645f7063,rev?*%
%TF.SameCoordinates,Original*%
%TF.FileFunction,Copper,L2,Bot*%
%TF.FilePolarity,Positive*%
%FSLAX46Y46*%
G04 Gerber Fmt 4.6, Leading zero omitted, Abs format (unit mm)*
G04 Created by KiCad (PCBNEW (5.1.10)-1) date 2022-07-12 19:07:44*
%MOMM*%
%LPD*%
G01*
G04 APERTURE LIST*
%TA.AperFunction,ComponentPad*%
%ADD10C,1.117600*%
%TD*%
%TA.AperFunction,ComponentPad*%
%ADD11C,3.671240*%
%TD*%
%TA.AperFunction,ComponentPad*%
%ADD12O,0.920000X0.920000*%
%TD*%
%TA.AperFunction,ComponentPad*%
%ADD13R,1.000000X1.000000*%
%TD*%
%TA.AperFunction,ComponentPad*%
%ADD14O,1.000000X1.000000*%
%TD*%
%TA.AperFunction,NonConductor*%
%ADD15C,0.254000*%
%TD*%
%TA.AperFunction,NonConductor*%
%ADD16C,0.100000*%
%TD*%
G04 APERTURE END LIST*
D10*
%TO.P,J2,15*%
%TO.N,Net-(J2-Pad15)*%
X3810000Y0D03*
%TO.P,J2,14*%
%TO.N,Net-(J2-Pad14)*%
X2540000Y0D03*
%TO.P,J2,13*%
%TO.N,Net-(J2-Pad13)*%
X1270000Y0D03*
%TO.P,J2,12*%
%TO.N,Net-(J2-Pad12)*%
X0Y0D03*
%TO.P,J2,11*%
%TO.N,Net-(J2-Pad11)*%
X-1270000Y0D03*
%TO.P,J2,10*%
%TO.N,Net-(J2-Pad10)*%
X-2540000Y0D03*
%TO.P,J2,9*%
%TO.N,Net-(J2-Pad9)*%
X-3810000Y0D03*
%TO.P,J2,8*%
%TO.N,Net-(J2-Pad8)*%
X4445000Y-1092200D03*
%TO.P,J2,7*%
%TO.N,Net-(J2-Pad7)*%
X3175000Y-1092200D03*
%TO.P,J2,6*%
%TO.N,Net-(J2-Pad6)*%
X1905000Y-1092200D03*
%TO.P,J2,5*%
%TO.N,Net-(J2-Pad5)*%
X635000Y-1092200D03*
%TO.P,J2,4*%
%TO.N,Net-(J2-Pad4)*%
X-635000Y-1092200D03*
%TO.P,J2,3*%
%TO.N,Net-(J2-Pad3)*%
X-1905000Y-1092200D03*
%TO.P,J2,2*%
%TO.N,Net-(J2-Pad2)*%
X-3175000Y-1092200D03*
%TO.P,J2,1*%
%TO.N,Net-(J2-Pad1)*%
X-4445000Y-1092200D03*
D11*
%TO.P,J2,18*%
%TO.N,N/C*%
X9105900Y-546100D03*
X-9105900Y-546100D03*
%TD*%
D12*
%TO.P,J4,13*%
%TO.N,Net-(J4-Pad13)*%
X-39620000Y0D03*
%TO.P,J4,25*%
%TO.N,Net-(J1-Pad10)*%
X-38985000Y-1100000D03*
%TO.P,J4,12*%
%TO.N,Net-(J1-Pad9)*%
X-38350000Y0D03*
%TO.P,J4,24*%
%TO.N,Net-(J1-Pad8)*%
X-37715000Y-1100000D03*
%TO.P,J4,11*%
%TO.N,Net-(J1-Pad7)*%
X-37080000Y0D03*
%TO.P,J4,23*%
%TO.N,Net-(J1-Pad6)*%
X-36445000Y-1100000D03*
%TO.P,J4,10*%
%TO.N,Net-(J1-Pad5)*%
X-35810000Y0D03*
%TO.P,J4,22*%
%TO.N,Net-(J1-Pad4)*%
X-35175000Y-1100000D03*
%TO.P,J4,9*%
%TO.N,Net-(J1-Pad3)*%
X-34540000Y0D03*
%TO.P,J4,21*%
%TO.N,Net-(J1-Pad2)*%
X-33905000Y-1100000D03*
%TO.P,J4,8*%
%TO.N,Net-(J1-Pad1)*%
X-33270000Y0D03*
%TO.P,J4,20*%
%TO.N,Net-(J2-Pad15)*%
X-32635000Y-1100000D03*
%TO.P,J4,7*%
%TO.N,Net-(J2-Pad8)*%
X-32000000Y0D03*
%TO.P,J4,19*%
%TO.N,Net-(J2-Pad14)*%
X-31365000Y-1100000D03*
%TO.P,J4,6*%
%TO.N,Net-(J2-Pad7)*%
X-30730000Y0D03*
%TO.P,J4,18*%
%TO.N,Net-(J2-Pad13)*%
X-30095000Y-1100000D03*
%TO.P,J4,5*%
%TO.N,Net-(J2-Pad6)*%
X-29460000Y0D03*
%TO.P,J4,17*%
%TO.N,Net-(J2-Pad12)*%
X-28825000Y-1100000D03*
%TO.P,J4,4*%
%TO.N,Net-(J2-Pad5)*%
X-28190000Y0D03*
%TO.P,J4,16*%
%TO.N,Net-(J2-Pad11)*%
X-27555000Y-1100000D03*
%TO.P,J4,3*%
%TO.N,Net-(J2-Pad4)*%
X-26920000Y0D03*
%TO.P,J4,15*%
%TO.N,Net-(J2-Pad10)*%
X-26285000Y-1100000D03*
%TO.P,J4,2*%
%TO.N,Net-(J2-Pad2)*%
X-25650000Y0D03*
%TO.P,J4,14*%
%TO.N,Net-(J2-Pad9)*%
X-25015000Y-1100000D03*
%TO.P,J4,1*%
%TO.N,Net-(J2-Pad1)*%
X-24380000Y0D03*
D11*
%TO.P,J4,28*%
%TO.N,N/C*%
X-44275000Y-550000D03*
X-19725000Y-550000D03*
%TD*%
D13*
%TO.P,J1,1*%
%TO.N,Net-(J1-Pad1)*%
X-54500000Y-1000000D03*
D14*
%TO.P,J1,2*%
%TO.N,Net-(J1-Pad2)*%
X-54500000Y300000D03*
%TO.P,J1,3*%
%TO.N,Net-(J1-Pad3)*%
X-53200000Y-1000000D03*
%TO.P,J1,4*%
%TO.N,Net-(J1-Pad4)*%
X-53200000Y300000D03*
%TO.P,J1,5*%
%TO.N,Net-(J1-Pad5)*%
X-51900000Y-1000000D03*
%TO.P,J1,6*%
%TO.N,Net-(J1-Pad6)*%
X-51900000Y300000D03*
%TO.P,J1,7*%
%TO.N,Net-(J1-Pad7)*%
X-50600000Y-1000000D03*
%TO.P,J1,8*%
%TO.N,Net-(J1-Pad8)*%
X-50600000Y300000D03*
%TO.P,J1,9*%
%TO.N,Net-(J1-Pad9)*%
X-49300000Y-1000000D03*
%TO.P,J1,10*%
%TO.N,Net-(J1-Pad10)*%
X-49300000Y300000D03*
%TD*%
D15*
X12290001Y-4190000D02*
X-55390000Y-4190000D01*
X-55390000Y-2001398D01*
X-55354494Y-2030537D01*
X-55244180Y-2089502D01*
X-55124482Y-2125812D01*
X-55000000Y-2138072D01*
X-54000000Y-2138072D01*
X-53875518Y-2125812D01*
X-53755820Y-2089502D01*
X-53659676Y-2038111D01*
X-53531067Y-2091383D01*
X-53311788Y-2135000D01*
X-53088212Y-2135000D01*
X-52868933Y-2091383D01*
X-52662376Y-2005824D01*
X-52550000Y-1930737D01*
X-52437624Y-2005824D01*
X-52231067Y-2091383D01*
X-52011788Y-2135000D01*
X-51788212Y-2135000D01*
X-51568933Y-2091383D01*
X-51362376Y-2005824D01*
X-51250000Y-1930737D01*
X-51137624Y-2005824D01*
X-50931067Y-2091383D01*
X-50711788Y-2135000D01*
X-50488212Y-2135000D01*
X-50268933Y-2091383D01*
X-50062376Y-2005824D01*
X-49950000Y-1930737D01*
X-49837624Y-2005824D01*
X-49631067Y-2091383D01*
X-49411788Y-2135000D01*
X-49188212Y-2135000D01*
X-48968933Y-2091383D01*
X-48762376Y-2005824D01*
X-48576480Y-1881612D01*
X-48418388Y-1723520D01*
X-48294176Y-1537624D01*
X-48208617Y-1331067D01*
X-48165000Y-1111788D01*
X-48165000Y-888212D01*
X-48208617Y-668933D01*
X-48294176Y-462376D01*
X-48369263Y-350000D01*
X-48340308Y-306665D01*
X-46745620Y-306665D01*
X-46745620Y-793335D01*
X-46650675Y-1270653D01*
X-46464435Y-1720277D01*
X-46194056Y-2124928D01*
X-45849928Y-2469056D01*
X-45445277Y-2739435D01*
X-44995653Y-2925675D01*
X-44518335Y-3020620D01*
X-44031665Y-3020620D01*
X-43554347Y-2925675D01*
X-43104723Y-2739435D01*
X-42700072Y-2469056D01*
X-42355944Y-2124928D01*
X-42085565Y-1720277D01*
X-41899325Y-1270653D01*
X-41804380Y-793335D01*
X-41804380Y-306665D01*
X-41886832Y107848D01*
X-40715000Y107848D01*
X-40715000Y-107848D01*
X-40672920Y-319400D01*
X-40590376Y-518677D01*
X-40470542Y-698022D01*
X-40318022Y-850542D01*
X-40138677Y-970376D01*
X-40080000Y-994681D01*
X-40080000Y-1207848D01*
X-40037920Y-1419400D01*
X-39955376Y-1618677D01*
X-39835542Y-1798022D01*
X-39683022Y-1950542D01*
X-39503677Y-2070376D01*
X-39304400Y-2152920D01*
X-39092848Y-2195000D01*
X-38877152Y-2195000D01*
X-38665600Y-2152920D01*
X-38466323Y-2070376D01*
X-38350000Y-1992652D01*
X-38233677Y-2070376D01*
X-38034400Y-2152920D01*
X-37822848Y-2195000D01*
X-37607152Y-2195000D01*
X-37395600Y-2152920D01*
X-37196323Y-2070376D01*
X-37080000Y-1992652D01*
X-36963677Y-2070376D01*
X-36764400Y-2152920D01*
X-36552848Y-2195000D01*
X-36337152Y-2195000D01*
X-36125600Y-2152920D01*
X-35926323Y-2070376D01*
X-35810000Y-1992652D01*
X-35693677Y-2070376D01*
X-35494400Y-2152920D01*
X-35282848Y-2195000D01*
X-35067152Y-2195000D01*
X-34855600Y-2152920D01*
X-34656323Y-2070376D01*
X-34540000Y-1992652D01*
X-34423677Y-2070376D01*
X-34224400Y-2152920D01*
X-34012848Y-2195000D01*
X-33797152Y-2195000D01*
X-33585600Y-2152920D01*
X-33386323Y-2070376D01*
X-33270000Y-1992652D01*
X-33153677Y-2070376D01*
X-32954400Y-2152920D01*
X-32742848Y-2195000D01*
X-32527152Y-2195000D01*
X-32315600Y-2152920D01*
X-32116323Y-2070376D01*
X-32000000Y-1992652D01*
X-31883677Y-2070376D01*
X-31684400Y-2152920D01*
X-31472848Y-2195000D01*
X-31257152Y-2195000D01*
X-31045600Y-2152920D01*
X-30846323Y-2070376D01*
X-30730000Y-1992652D01*
X-30613677Y-2070376D01*
X-30414400Y-2152920D01*
X-30202848Y-2195000D01*
X-29987152Y-2195000D01*
X-29775600Y-2152920D01*
X-29576323Y-2070376D01*
X-29460000Y-1992652D01*
X-29343677Y-2070376D01*
X-29144400Y-2152920D01*
X-28932848Y-2195000D01*
X-28717152Y-2195000D01*
X-28505600Y-2152920D01*
X-28306323Y-2070376D01*
X-28190000Y-1992652D01*
X-28073677Y-2070376D01*
X-27874400Y-2152920D01*
X-27662848Y-2195000D01*
X-27447152Y-2195000D01*
X-27235600Y-2152920D01*
X-27036323Y-2070376D01*
X-26920000Y-1992652D01*
X-26803677Y-2070376D01*
X-26604400Y-2152920D01*
X-26392848Y-2195000D01*
X-26177152Y-2195000D01*
X-25965600Y-2152920D01*
X-25766323Y-2070376D01*
X-25650000Y-1992652D01*
X-25533677Y-2070376D01*
X-25334400Y-2152920D01*
X-25122848Y-2195000D01*
X-24907152Y-2195000D01*
X-24695600Y-2152920D01*
X-24496323Y-2070376D01*
X-24316978Y-1950542D01*
X-24164458Y-1798022D01*
X-24044624Y-1618677D01*
X-23962080Y-1419400D01*
X-23920000Y-1207848D01*
X-23920000Y-994681D01*
X-23861323Y-970376D01*
X-23681978Y-850542D01*
X-23529458Y-698022D01*
X-23409624Y-518677D01*
X-23327080Y-319400D01*
X-23324547Y-306665D01*
X-22195620Y-306665D01*
X-22195620Y-793335D01*
X-22100675Y-1270653D01*
X-21914435Y-1720277D01*
X-21644056Y-2124928D01*
X-21299928Y-2469056D01*
X-20895277Y-2739435D01*
X-20445653Y-2925675D01*
X-19968335Y-3020620D01*
X-19481665Y-3020620D01*
X-19004347Y-2925675D01*
X-18554723Y-2739435D01*
X-18150072Y-2469056D01*
X-17805944Y-2124928D01*
X-17535565Y-1720277D01*
X-17349325Y-1270653D01*
X-17254380Y-793335D01*
X-17254380Y-306665D01*
X-17255155Y-302765D01*
X-11576520Y-302765D01*
X-11576520Y-789435D01*
X-11481575Y-1266753D01*
X-11295335Y-1716377D01*
X-11024956Y-2121028D01*
X-10680828Y-2465156D01*
X-10276177Y-2735535D01*
X-9826553Y-2921775D01*
X-9349235Y-3016720D01*
X-8862565Y-3016720D01*
X-8385247Y-2921775D01*
X-7935623Y-2735535D01*
X-7530972Y-2465156D01*
X-7186844Y-2121028D01*
X-6916465Y-1716377D01*
X-6730225Y-1266753D01*
X-6672116Y-974621D01*
X-5638800Y-974621D01*
X-5638800Y-1209779D01*
X-5592923Y-1440419D01*
X-5502932Y-1657676D01*
X-5372285Y-1853203D01*
X-5206003Y-2019485D01*
X-5010476Y-2150132D01*
X-4793219Y-2240123D01*
X-4562579Y-2286000D01*
X-4327421Y-2286000D01*
X-4096781Y-2240123D01*
X-3879524Y-2150132D01*
X-3810000Y-2103678D01*
X-3740476Y-2150132D01*
X-3523219Y-2240123D01*
X-3292579Y-2286000D01*
X-3057421Y-2286000D01*
X-2826781Y-2240123D01*
X-2609524Y-2150132D01*
X-2540000Y-2103678D01*
X-2470476Y-2150132D01*
X-2253219Y-2240123D01*
X-2022579Y-2286000D01*
X-1787421Y-2286000D01*
X-1556781Y-2240123D01*
X-1339524Y-2150132D01*
X-1270000Y-2103678D01*
X-1200476Y-2150132D01*
X-983219Y-2240123D01*
X-752579Y-2286000D01*
X-517421Y-2286000D01*
X-286781Y-2240123D01*
X-69524Y-2150132D01*
X0Y-2103678D01*
X69524Y-2150132D01*
X286781Y-2240123D01*
X517421Y-2286000D01*
X752579Y-2286000D01*
X983219Y-2240123D01*
X1200476Y-2150132D01*
X1270000Y-2103678D01*
X1339524Y-2150132D01*
X1556781Y-2240123D01*
X1787421Y-2286000D01*
X2022579Y-2286000D01*
X2253219Y-2240123D01*
X2470476Y-2150132D01*
X2540000Y-2103678D01*
X2609524Y-2150132D01*
X2826781Y-2240123D01*
X3057421Y-2286000D01*
X3292579Y-2286000D01*
X3523219Y-2240123D01*
X3740476Y-2150132D01*
X3810000Y-2103678D01*
X3879524Y-2150132D01*
X4096781Y-2240123D01*
X4327421Y-2286000D01*
X4562579Y-2286000D01*
X4793219Y-2240123D01*
X5010476Y-2150132D01*
X5206003Y-2019485D01*
X5372285Y-1853203D01*
X5502932Y-1657676D01*
X5592923Y-1440419D01*
X5638800Y-1209779D01*
X5638800Y-974621D01*
X5592923Y-743981D01*
X5502932Y-526724D01*
X5372285Y-331197D01*
X5343853Y-302765D01*
X6635280Y-302765D01*
X6635280Y-789435D01*
X6730225Y-1266753D01*
X6916465Y-1716377D01*
X7186844Y-2121028D01*
X7530972Y-2465156D01*
X7935623Y-2735535D01*
X8385247Y-2921775D01*
X8862565Y-3016720D01*
X9349235Y-3016720D01*
X9826553Y-2921775D01*
X10276177Y-2735535D01*
X10680828Y-2465156D01*
X11024956Y-2121028D01*
X11295335Y-1716377D01*
X11481575Y-1266753D01*
X11576520Y-789435D01*
X11576520Y-302765D01*
X11481575Y174553D01*
X11295335Y624177D01*
X11024956Y1028828D01*
X10680828Y1372956D01*
X10276177Y1643335D01*
X9826553Y1829575D01*
X9349235Y1924520D01*
X8862565Y1924520D01*
X8385247Y1829575D01*
X7935623Y1643335D01*
X7530972Y1372956D01*
X7186844Y1028828D01*
X6916465Y624177D01*
X6730225Y174553D01*
X6635280Y-302765D01*
X5343853Y-302765D01*
X5206003Y-164915D01*
X5010476Y-34268D01*
X5003800Y-31503D01*
X5003800Y117579D01*
X4957923Y348219D01*
X4867932Y565476D01*
X4737285Y761003D01*
X4571003Y927285D01*
X4375476Y1057932D01*
X4158219Y1147923D01*
X3927579Y1193800D01*
X3692421Y1193800D01*
X3461781Y1147923D01*
X3244524Y1057932D01*
X3175000Y1011478D01*
X3105476Y1057932D01*
X2888219Y1147923D01*
X2657579Y1193800D01*
X2422421Y1193800D01*
X2191781Y1147923D01*
X1974524Y1057932D01*
X1905000Y1011478D01*
X1835476Y1057932D01*
X1618219Y1147923D01*
X1387579Y1193800D01*
X1152421Y1193800D01*
X921781Y1147923D01*
X704524Y1057932D01*
X635000Y1011478D01*
X565476Y1057932D01*
X348219Y1147923D01*
X117579Y1193800D01*
X-117579Y1193800D01*
X-348219Y1147923D01*
X-565476Y1057932D01*
X-635000Y1011478D01*
X-704524Y1057932D01*
X-921781Y1147923D01*
X-1152421Y1193800D01*
X-1387579Y1193800D01*
X-1618219Y1147923D01*
X-1835476Y1057932D01*
X-1905000Y1011478D01*
X-1974524Y1057932D01*
X-2191781Y1147923D01*
X-2422421Y1193800D01*
X-2657579Y1193800D01*
X-2888219Y1147923D01*
X-3105476Y1057932D01*
X-3175000Y1011478D01*
X-3244524Y1057932D01*
X-3461781Y1147923D01*
X-3692421Y1193800D01*
X-3927579Y1193800D01*
X-4158219Y1147923D01*
X-4375476Y1057932D01*
X-4571003Y927285D01*
X-4737285Y761003D01*
X-4867932Y565476D01*
X-4957923Y348219D01*
X-5003800Y117579D01*
X-5003800Y-31503D01*
X-5010476Y-34268D01*
X-5206003Y-164915D01*
X-5372285Y-331197D01*
X-5502932Y-526724D01*
X-5592923Y-743981D01*
X-5638800Y-974621D01*
X-6672116Y-974621D01*
X-6635280Y-789435D01*
X-6635280Y-302765D01*
X-6730225Y174553D01*
X-6916465Y624177D01*
X-7186844Y1028828D01*
X-7530972Y1372956D01*
X-7935623Y1643335D01*
X-8385247Y1829575D01*
X-8862565Y1924520D01*
X-9349235Y1924520D01*
X-9826553Y1829575D01*
X-10276177Y1643335D01*
X-10680828Y1372956D01*
X-11024956Y1028828D01*
X-11295335Y624177D01*
X-11481575Y174553D01*
X-11576520Y-302765D01*
X-17255155Y-302765D01*
X-17349325Y170653D01*
X-17535565Y620277D01*
X-17805944Y1024928D01*
X-18150072Y1369056D01*
X-18554723Y1639435D01*
X-19004347Y1825675D01*
X-19481665Y1920620D01*
X-19968335Y1920620D01*
X-20445653Y1825675D01*
X-20895277Y1639435D01*
X-21299928Y1369056D01*
X-21644056Y1024928D01*
X-21914435Y620277D01*
X-22100675Y170653D01*
X-22195620Y-306665D01*
X-23324547Y-306665D01*
X-23285000Y-107848D01*
X-23285000Y107848D01*
X-23327080Y319400D01*
X-23409624Y518677D01*
X-23529458Y698022D01*
X-23681978Y850542D01*
X-23861323Y970376D01*
X-24060600Y1052920D01*
X-24272152Y1095000D01*
X-24487848Y1095000D01*
X-24699400Y1052920D01*
X-24898677Y970376D01*
X-25015000Y892652D01*
X-25131323Y970376D01*
X-25330600Y1052920D01*
X-25542152Y1095000D01*
X-25757848Y1095000D01*
X-25969400Y1052920D01*
X-26168677Y970376D01*
X-26285000Y892652D01*
X-26401323Y970376D01*
X-26600600Y1052920D01*
X-26812152Y1095000D01*
X-27027848Y1095000D01*
X-27239400Y1052920D01*
X-27438677Y970376D01*
X-27555000Y892652D01*
X-27671323Y970376D01*
X-27870600Y1052920D01*
X-28082152Y1095000D01*
X-28297848Y1095000D01*
X-28509400Y1052920D01*
X-28708677Y970376D01*
X-28825000Y892652D01*
X-28941323Y970376D01*
X-29140600Y1052920D01*
X-29352152Y1095000D01*
X-29567848Y1095000D01*
X-29779400Y1052920D01*
X-29978677Y970376D01*
X-30095000Y892652D01*
X-30211323Y970376D01*
X-30410600Y1052920D01*
X-30622152Y1095000D01*
X-30837848Y1095000D01*
X-31049400Y1052920D01*
X-31248677Y970376D01*
X-31365000Y892652D01*
X-31481323Y970376D01*
X-31680600Y1052920D01*
X-31892152Y1095000D01*
X-32107848Y1095000D01*
X-32319400Y1052920D01*
X-32518677Y970376D01*
X-32635000Y892652D01*
X-32751323Y970376D01*
X-32950600Y1052920D01*
X-33162152Y1095000D01*
X-33377848Y1095000D01*
X-33589400Y1052920D01*
X-33788677Y970376D01*
X-33905000Y892652D01*
X-34021323Y970376D01*
X-34220600Y1052920D01*
X-34432152Y1095000D01*
X-34647848Y1095000D01*
X-34859400Y1052920D01*
X-35058677Y970376D01*
X-35175000Y892652D01*
X-35291323Y970376D01*
X-35490600Y1052920D01*
X-35702152Y1095000D01*
X-35917848Y1095000D01*
X-36129400Y1052920D01*
X-36328677Y970376D01*
X-36445000Y892652D01*
X-36561323Y970376D01*
X-36760600Y1052920D01*
X-36972152Y1095000D01*
X-37187848Y1095000D01*
X-37399400Y1052920D01*
X-37598677Y970376D01*
X-37715000Y892652D01*
X-37831323Y970376D01*
X-38030600Y1052920D01*
X-38242152Y1095000D01*
X-38457848Y1095000D01*
X-38669400Y1052920D01*
X-38868677Y970376D01*
X-38985000Y892652D01*
X-39101323Y970376D01*
X-39300600Y1052920D01*
X-39512152Y1095000D01*
X-39727848Y1095000D01*
X-39939400Y1052920D01*
X-40138677Y970376D01*
X-40318022Y850542D01*
X-40470542Y698022D01*
X-40590376Y518677D01*
X-40672920Y319400D01*
X-40715000Y107848D01*
X-41886832Y107848D01*
X-41899325Y170653D01*
X-42085565Y620277D01*
X-42355944Y1024928D01*
X-42700072Y1369056D01*
X-43104723Y1639435D01*
X-43554347Y1825675D01*
X-44031665Y1920620D01*
X-44518335Y1920620D01*
X-44995653Y1825675D01*
X-45445277Y1639435D01*
X-45849928Y1369056D01*
X-46194056Y1024928D01*
X-46464435Y620277D01*
X-46650675Y170653D01*
X-46745620Y-306665D01*
X-48340308Y-306665D01*
X-48294176Y-237624D01*
X-48208617Y-31067D01*
X-48165000Y188212D01*
X-48165000Y411788D01*
X-48208617Y631067D01*
X-48294176Y837624D01*
X-48418388Y1023520D01*
X-48576480Y1181612D01*
X-48762376Y1305824D01*
X-48968933Y1391383D01*
X-49188212Y1435000D01*
X-49411788Y1435000D01*
X-49631067Y1391383D01*
X-49837624Y1305824D01*
X-49950000Y1230737D01*
X-50062376Y1305824D01*
X-50268933Y1391383D01*
X-50488212Y1435000D01*
X-50711788Y1435000D01*
X-50931067Y1391383D01*
X-51137624Y1305824D01*
X-51250000Y1230737D01*
X-51362376Y1305824D01*
X-51568933Y1391383D01*
X-51788212Y1435000D01*
X-52011788Y1435000D01*
X-52231067Y1391383D01*
X-52437624Y1305824D01*
X-52550000Y1230737D01*
X-52662376Y1305824D01*
X-52868933Y1391383D01*
X-53088212Y1435000D01*
X-53311788Y1435000D01*
X-53531067Y1391383D01*
X-53737624Y1305824D01*
X-53850000Y1230737D01*
X-53962376Y1305824D01*
X-54168933Y1391383D01*
X-54388212Y1435000D01*
X-54611788Y1435000D01*
X-54831067Y1391383D01*
X-55037624Y1305824D01*
X-55223520Y1181612D01*
X-55381612Y1023520D01*
X-55390000Y1010966D01*
X-55390000Y3090000D01*
X12290000Y3090000D01*
X12290001Y-4190000D01*
%TA.AperFunction,NonConductor*%
D16*
G36*
X12290001Y-4190000D02*
G01*
X-55390000Y-4190000D01*
X-55390000Y-2001398D01*
X-55354494Y-2030537D01*
X-55244180Y-2089502D01*
X-55124482Y-2125812D01*
X-55000000Y-2138072D01*
X-54000000Y-2138072D01*
X-53875518Y-2125812D01*
X-53755820Y-2089502D01*
X-53659676Y-2038111D01*
X-53531067Y-2091383D01*
X-53311788Y-2135000D01*
X-53088212Y-2135000D01*
X-52868933Y-2091383D01*
X-52662376Y-2005824D01*
X-52550000Y-1930737D01*
X-52437624Y-2005824D01*
X-52231067Y-2091383D01*
X-52011788Y-2135000D01*
X-51788212Y-2135000D01*
X-51568933Y-2091383D01*
X-51362376Y-2005824D01*
X-51250000Y-1930737D01*
X-51137624Y-2005824D01*
X-50931067Y-2091383D01*
X-50711788Y-2135000D01*
X-50488212Y-2135000D01*
X-50268933Y-2091383D01*
X-50062376Y-2005824D01*
X-49950000Y-1930737D01*
X-49837624Y-2005824D01*
X-49631067Y-2091383D01*
X-49411788Y-2135000D01*
X-49188212Y-2135000D01*
X-48968933Y-2091383D01*
X-48762376Y-2005824D01*
X-48576480Y-1881612D01*
X-48418388Y-1723520D01*
X-48294176Y-1537624D01*
X-48208617Y-1331067D01*
X-48165000Y-1111788D01*
X-48165000Y-888212D01*
X-48208617Y-668933D01*
X-48294176Y-462376D01*
X-48369263Y-350000D01*
X-48340308Y-306665D01*
X-46745620Y-306665D01*
X-46745620Y-793335D01*
X-46650675Y-1270653D01*
X-46464435Y-1720277D01*
X-46194056Y-2124928D01*
X-45849928Y-2469056D01*
X-45445277Y-2739435D01*
X-44995653Y-2925675D01*
X-44518335Y-3020620D01*
X-44031665Y-3020620D01*
X-43554347Y-2925675D01*
X-43104723Y-2739435D01*
X-42700072Y-2469056D01*
X-42355944Y-2124928D01*
X-42085565Y-1720277D01*
X-41899325Y-1270653D01*
X-41804380Y-793335D01*
X-41804380Y-306665D01*
X-41886832Y107848D01*
X-40715000Y107848D01*
X-40715000Y-107848D01*
X-40672920Y-319400D01*
X-40590376Y-518677D01*
X-40470542Y-698022D01*
X-40318022Y-850542D01*
X-40138677Y-970376D01*
X-40080000Y-994681D01*
X-40080000Y-1207848D01*
X-40037920Y-1419400D01*
X-39955376Y-1618677D01*
X-39835542Y-1798022D01*
X-39683022Y-1950542D01*
X-39503677Y-2070376D01*
X-39304400Y-2152920D01*
X-39092848Y-2195000D01*
X-38877152Y-2195000D01*
X-38665600Y-2152920D01*
X-38466323Y-2070376D01*
X-38350000Y-1992652D01*
X-38233677Y-2070376D01*
X-38034400Y-2152920D01*
X-37822848Y-2195000D01*
X-37607152Y-2195000D01*
X-37395600Y-2152920D01*
X-37196323Y-2070376D01*
X-37080000Y-1992652D01*
X-36963677Y-2070376D01*
X-36764400Y-2152920D01*
X-36552848Y-2195000D01*
X-36337152Y-2195000D01*
X-36125600Y-2152920D01*
X-35926323Y-2070376D01*
X-35810000Y-1992652D01*
X-35693677Y-2070376D01*
X-35494400Y-2152920D01*
X-35282848Y-2195000D01*
X-35067152Y-2195000D01*
X-34855600Y-2152920D01*
X-34656323Y-2070376D01*
X-34540000Y-1992652D01*
X-34423677Y-2070376D01*
X-34224400Y-2152920D01*
X-34012848Y-2195000D01*
X-33797152Y-2195000D01*
X-33585600Y-2152920D01*
X-33386323Y-2070376D01*
X-33270000Y-1992652D01*
X-33153677Y-2070376D01*
X-32954400Y-2152920D01*
X-32742848Y-2195000D01*
X-32527152Y-2195000D01*
X-32315600Y-2152920D01*
X-32116323Y-2070376D01*
X-32000000Y-1992652D01*
X-31883677Y-2070376D01*
X-31684400Y-2152920D01*
X-31472848Y-2195000D01*
X-31257152Y-2195000D01*
X-31045600Y-2152920D01*
X-30846323Y-2070376D01*
X-30730000Y-1992652D01*
X-30613677Y-2070376D01*
X-30414400Y-2152920D01*
X-30202848Y-2195000D01*
X-29987152Y-2195000D01*
X-29775600Y-2152920D01*
X-29576323Y-2070376D01*
X-29460000Y-1992652D01*
X-29343677Y-2070376D01*
X-29144400Y-2152920D01*
X-28932848Y-2195000D01*
X-28717152Y-2195000D01*
X-28505600Y-2152920D01*
X-28306323Y-2070376D01*
X-28190000Y-1992652D01*
X-28073677Y-2070376D01*
X-27874400Y-2152920D01*
X-27662848Y-2195000D01*
X-27447152Y-2195000D01*
X-27235600Y-2152920D01*
X-27036323Y-2070376D01*
X-26920000Y-1992652D01*
X-26803677Y-2070376D01*
X-26604400Y-2152920D01*
X-26392848Y-2195000D01*
X-26177152Y-2195000D01*
X-25965600Y-2152920D01*
X-25766323Y-2070376D01*
X-25650000Y-1992652D01*
X-25533677Y-2070376D01*
X-25334400Y-2152920D01*
X-25122848Y-2195000D01*
X-24907152Y-2195000D01*
X-24695600Y-2152920D01*
X-24496323Y-2070376D01*
X-24316978Y-1950542D01*
X-24164458Y-1798022D01*
X-24044624Y-1618677D01*
X-23962080Y-1419400D01*
X-23920000Y-1207848D01*
X-23920000Y-994681D01*
X-23861323Y-970376D01*
X-23681978Y-850542D01*
X-23529458Y-698022D01*
X-23409624Y-518677D01*
X-23327080Y-319400D01*
X-23324547Y-306665D01*
X-22195620Y-306665D01*
X-22195620Y-793335D01*
X-22100675Y-1270653D01*
X-21914435Y-1720277D01*
X-21644056Y-2124928D01*
X-21299928Y-2469056D01*
X-20895277Y-2739435D01*
X-20445653Y-2925675D01*
X-19968335Y-3020620D01*
X-19481665Y-3020620D01*
X-19004347Y-2925675D01*
X-18554723Y-2739435D01*
X-18150072Y-2469056D01*
X-17805944Y-2124928D01*
X-17535565Y-1720277D01*
X-17349325Y-1270653D01*
X-17254380Y-793335D01*
X-17254380Y-306665D01*
X-17255155Y-302765D01*
X-11576520Y-302765D01*
X-11576520Y-789435D01*
X-11481575Y-1266753D01*
X-11295335Y-1716377D01*
X-11024956Y-2121028D01*
X-10680828Y-2465156D01*
X-10276177Y-2735535D01*
X-9826553Y-2921775D01*
X-9349235Y-3016720D01*
X-8862565Y-3016720D01*
X-8385247Y-2921775D01*
X-7935623Y-2735535D01*
X-7530972Y-2465156D01*
X-7186844Y-2121028D01*
X-6916465Y-1716377D01*
X-6730225Y-1266753D01*
X-6672116Y-974621D01*
X-5638800Y-974621D01*
X-5638800Y-1209779D01*
X-5592923Y-1440419D01*
X-5502932Y-1657676D01*
X-5372285Y-1853203D01*
X-5206003Y-2019485D01*
X-5010476Y-2150132D01*
X-4793219Y-2240123D01*
X-4562579Y-2286000D01*
X-4327421Y-2286000D01*
X-4096781Y-2240123D01*
X-3879524Y-2150132D01*
X-3810000Y-2103678D01*
X-3740476Y-2150132D01*
X-3523219Y-2240123D01*
X-3292579Y-2286000D01*
X-3057421Y-2286000D01*
X-2826781Y-2240123D01*
X-2609524Y-2150132D01*
X-2540000Y-2103678D01*
X-2470476Y-2150132D01*
X-2253219Y-2240123D01*
X-2022579Y-2286000D01*
X-1787421Y-2286000D01*
X-1556781Y-2240123D01*
X-1339524Y-2150132D01*
X-1270000Y-2103678D01*
X-1200476Y-2150132D01*
X-983219Y-2240123D01*
X-752579Y-2286000D01*
X-517421Y-2286000D01*
X-286781Y-2240123D01*
X-69524Y-2150132D01*
X0Y-2103678D01*
X69524Y-2150132D01*
X286781Y-2240123D01*
X517421Y-2286000D01*
X752579Y-2286000D01*
X983219Y-2240123D01*
X1200476Y-2150132D01*
X1270000Y-2103678D01*
X1339524Y-2150132D01*
X1556781Y-2240123D01*
X1787421Y-2286000D01*
X2022579Y-2286000D01*
X2253219Y-2240123D01*
X2470476Y-2150132D01*
X2540000Y-2103678D01*
X2609524Y-2150132D01*
X2826781Y-2240123D01*
X3057421Y-2286000D01*
X3292579Y-2286000D01*
X3523219Y-2240123D01*
X3740476Y-2150132D01*
X3810000Y-2103678D01*
X3879524Y-2150132D01*
X4096781Y-2240123D01*
X4327421Y-2286000D01*
X4562579Y-2286000D01*
X4793219Y-2240123D01*
X5010476Y-2150132D01*
X5206003Y-2019485D01*
X5372285Y-1853203D01*
X5502932Y-1657676D01*
X5592923Y-1440419D01*
X5638800Y-1209779D01*
X5638800Y-974621D01*
X5592923Y-743981D01*
X5502932Y-526724D01*
X5372285Y-331197D01*
X5343853Y-302765D01*
X6635280Y-302765D01*
X6635280Y-789435D01*
X6730225Y-1266753D01*
X6916465Y-1716377D01*
X7186844Y-2121028D01*
X7530972Y-2465156D01*
X7935623Y-2735535D01*
X8385247Y-2921775D01*
X8862565Y-3016720D01*
X9349235Y-3016720D01*
X9826553Y-2921775D01*
X10276177Y-2735535D01*
X10680828Y-2465156D01*
X11024956Y-2121028D01*
X11295335Y-1716377D01*
X11481575Y-1266753D01*
X11576520Y-789435D01*
X11576520Y-302765D01*
X11481575Y174553D01*
X11295335Y624177D01*
X11024956Y1028828D01*
X10680828Y1372956D01*
X10276177Y1643335D01*
X9826553Y1829575D01*
X9349235Y1924520D01*
X8862565Y1924520D01*
X8385247Y1829575D01*
X7935623Y1643335D01*
X7530972Y1372956D01*
X7186844Y1028828D01*
X6916465Y624177D01*
X6730225Y174553D01*
X6635280Y-302765D01*
X5343853Y-302765D01*
X5206003Y-164915D01*
X5010476Y-34268D01*
X5003800Y-31503D01*
X5003800Y117579D01*
X4957923Y348219D01*
X4867932Y565476D01*
X4737285Y761003D01*
X4571003Y927285D01*
X4375476Y1057932D01*
X4158219Y1147923D01*
X3927579Y1193800D01*
X3692421Y1193800D01*
X3461781Y1147923D01*
X3244524Y1057932D01*
X3175000Y1011478D01*
X3105476Y1057932D01*
X2888219Y1147923D01*
X2657579Y1193800D01*
X2422421Y1193800D01*
X2191781Y1147923D01*
X1974524Y1057932D01*
X1905000Y1011478D01*
X1835476Y1057932D01*
X1618219Y1147923D01*
X1387579Y1193800D01*
X1152421Y1193800D01*
X921781Y1147923D01*
X704524Y1057932D01*
X635000Y1011478D01*
X565476Y1057932D01*
X348219Y1147923D01*
X117579Y1193800D01*
X-117579Y1193800D01*
X-348219Y1147923D01*
X-565476Y1057932D01*
X-635000Y1011478D01*
X-704524Y1057932D01*
X-921781Y1147923D01*
X-1152421Y1193800D01*
X-1387579Y1193800D01*
X-1618219Y1147923D01*
X-1835476Y1057932D01*
X-1905000Y1011478D01*
X-1974524Y1057932D01*
X-2191781Y1147923D01*
X-2422421Y1193800D01*
X-2657579Y1193800D01*
X-2888219Y1147923D01*
X-3105476Y1057932D01*
X-3175000Y1011478D01*
X-3244524Y1057932D01*
X-3461781Y1147923D01*
X-3692421Y1193800D01*
X-3927579Y1193800D01*
X-4158219Y1147923D01*
X-4375476Y1057932D01*
X-4571003Y927285D01*
X-4737285Y761003D01*
X-4867932Y565476D01*
X-4957923Y348219D01*
X-5003800Y117579D01*
X-5003800Y-31503D01*
X-5010476Y-34268D01*
X-5206003Y-164915D01*
X-5372285Y-331197D01*
X-5502932Y-526724D01*
X-5592923Y-743981D01*
X-5638800Y-974621D01*
X-6672116Y-974621D01*
X-6635280Y-789435D01*
X-6635280Y-302765D01*
X-6730225Y174553D01*
X-6916465Y624177D01*
X-7186844Y1028828D01*
X-7530972Y1372956D01*
X-7935623Y1643335D01*
X-8385247Y1829575D01*
X-8862565Y1924520D01*
X-9349235Y1924520D01*
X-9826553Y1829575D01*
X-10276177Y1643335D01*
X-10680828Y1372956D01*
X-11024956Y1028828D01*
X-11295335Y624177D01*
X-11481575Y174553D01*
X-11576520Y-302765D01*
X-17255155Y-302765D01*
X-17349325Y170653D01*
X-17535565Y620277D01*
X-17805944Y1024928D01*
X-18150072Y1369056D01*
X-18554723Y1639435D01*
X-19004347Y1825675D01*
X-19481665Y1920620D01*
X-19968335Y1920620D01*
X-20445653Y1825675D01*
X-20895277Y1639435D01*
X-21299928Y1369056D01*
X-21644056Y1024928D01*
X-21914435Y620277D01*
X-22100675Y170653D01*
X-22195620Y-306665D01*
X-23324547Y-306665D01*
X-23285000Y-107848D01*
X-23285000Y107848D01*
X-23327080Y319400D01*
X-23409624Y518677D01*
X-23529458Y698022D01*
X-23681978Y850542D01*
X-23861323Y970376D01*
X-24060600Y1052920D01*
X-24272152Y1095000D01*
X-24487848Y1095000D01*
X-24699400Y1052920D01*
X-24898677Y970376D01*
X-25015000Y892652D01*
X-25131323Y970376D01*
X-25330600Y1052920D01*
X-25542152Y1095000D01*
X-25757848Y1095000D01*
X-25969400Y1052920D01*
X-26168677Y970376D01*
X-26285000Y892652D01*
X-26401323Y970376D01*
X-26600600Y1052920D01*
X-26812152Y1095000D01*
X-27027848Y1095000D01*
X-27239400Y1052920D01*
X-27438677Y970376D01*
X-27555000Y892652D01*
X-27671323Y970376D01*
X-27870600Y1052920D01*
X-28082152Y1095000D01*
X-28297848Y1095000D01*
X-28509400Y1052920D01*
X-28708677Y970376D01*
X-28825000Y892652D01*
X-28941323Y970376D01*
X-29140600Y1052920D01*
X-29352152Y1095000D01*
X-29567848Y1095000D01*
X-29779400Y1052920D01*
X-29978677Y970376D01*
X-30095000Y892652D01*
X-30211323Y970376D01*
X-30410600Y1052920D01*
X-30622152Y1095000D01*
X-30837848Y1095000D01*
X-31049400Y1052920D01*
X-31248677Y970376D01*
X-31365000Y892652D01*
X-31481323Y970376D01*
X-31680600Y1052920D01*
X-31892152Y1095000D01*
X-32107848Y1095000D01*
X-32319400Y1052920D01*
X-32518677Y970376D01*
X-32635000Y892652D01*
X-32751323Y970376D01*
X-32950600Y1052920D01*
X-33162152Y1095000D01*
X-33377848Y1095000D01*
X-33589400Y1052920D01*
X-33788677Y970376D01*
X-33905000Y892652D01*
X-34021323Y970376D01*
X-34220600Y1052920D01*
X-34432152Y1095000D01*
X-34647848Y1095000D01*
X-34859400Y1052920D01*
X-35058677Y970376D01*
X-35175000Y892652D01*
X-35291323Y970376D01*
X-35490600Y1052920D01*
X-35702152Y1095000D01*
X-35917848Y1095000D01*
X-36129400Y1052920D01*
X-36328677Y970376D01*
X-36445000Y892652D01*
X-36561323Y970376D01*
X-36760600Y1052920D01*
X-36972152Y1095000D01*
X-37187848Y1095000D01*
X-37399400Y1052920D01*
X-37598677Y970376D01*
X-37715000Y892652D01*
X-37831323Y970376D01*
X-38030600Y1052920D01*
X-38242152Y1095000D01*
X-38457848Y1095000D01*
X-38669400Y1052920D01*
X-38868677Y970376D01*
X-38985000Y892652D01*
X-39101323Y970376D01*
X-39300600Y1052920D01*
X-39512152Y1095000D01*
X-39727848Y1095000D01*
X-39939400Y1052920D01*
X-40138677Y970376D01*
X-40318022Y850542D01*
X-40470542Y698022D01*
X-40590376Y518677D01*
X-40672920Y319400D01*
X-40715000Y107848D01*
X-41886832Y107848D01*
X-41899325Y170653D01*
X-42085565Y620277D01*
X-42355944Y1024928D01*
X-42700072Y1369056D01*
X-43104723Y1639435D01*
X-43554347Y1825675D01*
X-44031665Y1920620D01*
X-44518335Y1920620D01*
X-44995653Y1825675D01*
X-45445277Y1639435D01*
X-45849928Y1369056D01*
X-46194056Y1024928D01*
X-46464435Y620277D01*
X-46650675Y170653D01*
X-46745620Y-306665D01*
X-48340308Y-306665D01*
X-48294176Y-237624D01*
X-48208617Y-31067D01*
X-48165000Y188212D01*
X-48165000Y411788D01*
X-48208617Y631067D01*
X-48294176Y837624D01*
X-48418388Y1023520D01*
X-48576480Y1181612D01*
X-48762376Y1305824D01*
X-48968933Y1391383D01*
X-49188212Y1435000D01*
X-49411788Y1435000D01*
X-49631067Y1391383D01*
X-49837624Y1305824D01*
X-49950000Y1230737D01*
X-50062376Y1305824D01*
X-50268933Y1391383D01*
X-50488212Y1435000D01*
X-50711788Y1435000D01*
X-50931067Y1391383D01*
X-51137624Y1305824D01*
X-51250000Y1230737D01*
X-51362376Y1305824D01*
X-51568933Y1391383D01*
X-51788212Y1435000D01*
X-52011788Y1435000D01*
X-52231067Y1391383D01*
X-52437624Y1305824D01*
X-52550000Y1230737D01*
X-52662376Y1305824D01*
X-52868933Y1391383D01*
X-53088212Y1435000D01*
X-53311788Y1435000D01*
X-53531067Y1391383D01*
X-53737624Y1305824D01*
X-53850000Y1230737D01*
X-53962376Y1305824D01*
X-54168933Y1391383D01*
X-54388212Y1435000D01*
X-54611788Y1435000D01*
X-54831067Y1391383D01*
X-55037624Y1305824D01*
X-55223520Y1181612D01*
X-55381612Y1023520D01*
X-55390000Y1010966D01*
X-55390000Y3090000D01*
X12290000Y3090000D01*
X12290001Y-4190000D01*
G37*
%TD.AperFunction*%
M02*
