%TF.GenerationSoftware,KiCad,Pcbnew,(5.1.10)-1*%
%TF.CreationDate,2022-07-14T12:48:38-06:00*%
%TF.ProjectId,15to25,3135746f-3235-42e6-9b69-6361645f7063,rev?*%
%TF.SameCoordinates,Original*%
%TF.FileFunction,Soldermask,Bot*%
%TF.FilePolarity,Negative*%
%FSLAX46Y46*%
G04 Gerber Fmt 4.6, Leading zero omitted, Abs format (unit mm)*
G04 Created by KiCad (PCBNEW (5.1.10)-1) date 2022-07-14 12:48:38*
%MOMM*%
%LPD*%
G01*
G04 APERTURE LIST*
%ADD10O,1.200000X1.750000*%
%ADD11O,0.850000X0.850000*%
%ADD12R,0.850000X0.850000*%
%ADD13C,3.600000*%
%ADD14O,0.920000X0.920000*%
%ADD15C,1.117600*%
G04 APERTURE END LIST*
D10*
%TO.C,J3*%
X-56500000Y0D03*
X-58500000Y0D03*
X-60500000Y0D03*
G36*
G01*
X-63100000Y-625001D02*
X-63100000Y625001D01*
G75*
G02*
X-62850001Y875000I249999J0D01*
G01*
X-62149999Y875000D01*
G75*
G02*
X-61900000Y625001I0J-249999D01*
G01*
X-61900000Y-625001D01*
G75*
G02*
X-62149999Y-875000I-249999J0D01*
G01*
X-62850001Y-875000D01*
G75*
G02*
X-63100000Y-625001I0J249999D01*
G01*
G37*
%TD*%
%TO.C,J1*%
X-69500000Y0D03*
X-71500000Y0D03*
X-73500000Y0D03*
G36*
G01*
X-76100000Y-625001D02*
X-76100000Y625001D01*
G75*
G02*
X-75850001Y875000I249999J0D01*
G01*
X-75149999Y875000D01*
G75*
G02*
X-74900000Y625001I0J-249999D01*
G01*
X-74900000Y-625001D01*
G75*
G02*
X-75149999Y-875000I-249999J0D01*
G01*
X-75850001Y-875000D01*
G75*
G02*
X-76100000Y-625001I0J249999D01*
G01*
G37*
%TD*%
D11*
%TO.C,J5*%
X-51150000Y-1010000D03*
D12*
X-51150000Y-10000D03*
%TD*%
D13*
%TO.C,J4*%
X-19725000Y-550000D03*
X-44275000Y-550000D03*
D14*
X-39620000Y0D03*
X-38985000Y-1100000D03*
X-38350000Y0D03*
X-37715000Y-1100000D03*
X-37080000Y0D03*
X-36445000Y-1100000D03*
X-35810000Y0D03*
X-35175000Y-1100000D03*
X-34540000Y0D03*
X-33905000Y-1100000D03*
X-33270000Y0D03*
X-32635000Y-1100000D03*
X-32000000Y0D03*
X-31365000Y-1100000D03*
X-30730000Y0D03*
X-30095000Y-1100000D03*
X-29460000Y0D03*
X-28825000Y-1100000D03*
X-28190000Y0D03*
X-27555000Y-1100000D03*
X-26920000Y0D03*
X-26285000Y-1100000D03*
X-25650000Y0D03*
X-25015000Y-1100000D03*
X-24380000Y0D03*
%TD*%
D13*
%TO.C,J2*%
X9105900Y-546100D03*
X-9105900Y-546100D03*
D15*
X3810000Y0D03*
X2540000Y0D03*
X1270000Y0D03*
X0Y0D03*
X-1270000Y0D03*
X-2540000Y0D03*
X-3810000Y0D03*
X4445000Y-1092200D03*
X3175000Y-1092200D03*
X1905000Y-1092200D03*
X635000Y-1092200D03*
X-635000Y-1092200D03*
X-1905000Y-1092200D03*
X-3175000Y-1092200D03*
X-4445000Y-1092200D03*
%TD*%
M02*
