M48
INCH
T1C0.0197
T2C0.0240
T3C0.0240
T4C0.1106
T5C0.1180
%
G90
G05
T1
X-2.1457Y0.0
X-2.1457Y-0.0394
X-2.1063Y0.0
X-2.1063Y-0.0394
X-2.0669Y0.0
X-2.0669Y-0.0394
X-2.0276Y0.0
X-2.0276Y-0.0394
X-1.9882Y0.0
X-1.9882Y-0.0394
T2
X-0.175Y-0.043
X-0.15Y0.0
X-0.125Y-0.043
X-0.1Y0.0
X-0.075Y-0.043
X-0.05Y0.0
X-0.025Y-0.043
X0.0Y0.0
X0.025Y-0.043
X0.05Y0.0
X0.075Y-0.043
X0.1Y0.0
X0.125Y-0.043
X0.15Y0.0
X0.175Y-0.043
T3
X-1.5598Y0.0
X-1.5348Y-0.0433
X-1.5098Y0.0
X-1.4848Y-0.0433
X-1.4598Y0.0
X-1.4348Y-0.0433
X-1.4098Y0.0
X-1.3848Y-0.0433
X-1.3598Y0.0
X-1.3348Y-0.0433
X-1.3098Y0.0
X-1.2848Y-0.0433
X-1.2598Y0.0
X-1.2348Y-0.0433
X-1.2098Y0.0
X-1.1848Y-0.0433
X-1.1598Y0.0
X-1.1348Y-0.0433
X-1.1098Y0.0
X-1.0848Y-0.0433
X-1.0598Y0.0
X-1.0348Y-0.0433
X-1.0098Y0.0
X-0.9848Y-0.0433
X-0.9598Y0.0
T4
X-1.7431Y-0.0217
X-0.7766Y-0.0217
T5
X-0.3585Y-0.0215
X0.3585Y-0.0215
T0
M30
