%TF.GenerationSoftware,KiCad,Pcbnew,7.0.2*%
%TF.CreationDate,2023-11-30T16:19:12-07:00*%
%TF.ProjectId,thermo_adap_pcb,74686572-6d6f-45f6-9164-61705f706362,rev?*%
%TF.SameCoordinates,Original*%
%TF.FileFunction,Soldermask,Top*%
%TF.FilePolarity,Negative*%
%FSLAX46Y46*%
G04 Gerber Fmt 4.6, Leading zero omitted, Abs format (unit mm)*
G04 Created by KiCad (PCBNEW 7.0.2) date 2023-11-30 16:19:12*
%MOMM*%
%LPD*%
G01*
G04 APERTURE LIST*
%ADD10C,0.100000*%
%ADD11C,0.810345*%
%ADD12C,1.500000*%
%ADD13R,1.700000X1.700000*%
%ADD14O,1.700000X1.700000*%
G04 APERTURE END LIST*
D10*
%TO.C,J2*%
X-4660000Y-4900000D02*
X-2960000Y-4900000D01*
X-2960000Y-4900000D02*
X-2960000Y-8125000D01*
X-2960000Y-8125000D02*
X-4660000Y-8125000D01*
X-4660000Y-8125000D02*
X-4660000Y-4900000D01*
G36*
X-4660000Y-4900000D02*
G01*
X-2960000Y-4900000D01*
X-2960000Y-8125000D01*
X-4660000Y-8125000D01*
X-4660000Y-4900000D01*
G37*
X-2120000Y-4900000D02*
X-420000Y-4900000D01*
X-420000Y-4900000D02*
X-420000Y-8125000D01*
X-420000Y-8125000D02*
X-2120000Y-8125000D01*
X-2120000Y-8125000D02*
X-2120000Y-4900000D01*
G36*
X-2120000Y-4900000D02*
G01*
X-420000Y-4900000D01*
X-420000Y-8125000D01*
X-2120000Y-8125000D01*
X-2120000Y-4900000D01*
G37*
X420000Y-4900000D02*
X2120000Y-4900000D01*
X2120000Y-4900000D02*
X2120000Y-8125000D01*
X2120000Y-8125000D02*
X420000Y-8125000D01*
X420000Y-8125000D02*
X420000Y-4900000D01*
G36*
X420000Y-4900000D02*
G01*
X2120000Y-4900000D01*
X2120000Y-8125000D01*
X420000Y-8125000D01*
X420000Y-4900000D01*
G37*
X2960000Y-4900000D02*
X4660000Y-4900000D01*
X4660000Y-4900000D02*
X4660000Y-8125000D01*
X4660000Y-8125000D02*
X2960000Y-8125000D01*
X2960000Y-8125000D02*
X2960000Y-4900000D01*
G36*
X2960000Y-4900000D02*
G01*
X4660000Y-4900000D01*
X4660000Y-8125000D01*
X2960000Y-8125000D01*
X2960000Y-4900000D01*
G37*
D11*
X-3404828Y-5000000D02*
G75*
G03*
X-3404828Y-5000000I-405172J0D01*
G01*
X-864828Y-5000000D02*
G75*
G03*
X-864828Y-5000000I-405172J0D01*
G01*
X1675172Y-5000000D02*
G75*
G03*
X1675172Y-5000000I-405172J0D01*
G01*
X4215172Y-5000000D02*
G75*
G03*
X4215172Y-5000000I-405172J0D01*
G01*
%TD*%
D12*
%TO.C,J2*%
X-3810000Y-5000000D03*
X-1270000Y-5000000D03*
X1270000Y-5000000D03*
X3810000Y-5000000D03*
%TD*%
D13*
%TO.C,J1*%
X-3810000Y0D03*
D14*
X-1270000Y0D03*
X1270000Y0D03*
X3810000Y0D03*
%TD*%
M02*
