%TF.GenerationSoftware,KiCad,Pcbnew,7.0.2*%
%TF.CreationDate,2023-11-30T16:19:12-07:00*%
%TF.ProjectId,thermo_adap_pcb,74686572-6d6f-45f6-9164-61705f706362,rev?*%
%TF.SameCoordinates,Original*%
%TF.FileFunction,Copper,L2,Bot*%
%TF.FilePolarity,Positive*%
%FSLAX46Y46*%
G04 Gerber Fmt 4.6, Leading zero omitted, Abs format (unit mm)*
G04 Created by KiCad (PCBNEW 7.0.2) date 2023-11-30 16:19:12*
%MOMM*%
%LPD*%
G01*
G04 APERTURE LIST*
%TA.AperFunction,ComponentPad*%
%ADD10C,1.500000*%
%TD*%
%TA.AperFunction,ComponentPad*%
%ADD11R,1.700000X1.700000*%
%TD*%
%TA.AperFunction,ComponentPad*%
%ADD12O,1.700000X1.700000*%
%TD*%
G04 APERTURE END LIST*
D10*
%TO.P,J2,1,Pin_1*%
%TO.N,/I+*%
X-3810000Y-5000000D03*
%TO.P,J2,2,Pin_2*%
%TO.N,/V+*%
X-1270000Y-5000000D03*
%TO.P,J2,3,Pin_3*%
%TO.N,/I-*%
X1270000Y-5000000D03*
%TO.P,J2,4,Pin_4*%
%TO.N,/V-*%
X3810000Y-5000000D03*
%TD*%
D11*
%TO.P,J1,1,Pin_1*%
%TO.N,/I+*%
X-3810000Y0D03*
D12*
%TO.P,J1,2,Pin_2*%
%TO.N,/V+*%
X-1270000Y0D03*
%TO.P,J1,3,Pin_3*%
%TO.N,/I-*%
X1270000Y0D03*
%TO.P,J1,4,Pin_4*%
%TO.N,/V-*%
X3810000Y0D03*
%TD*%
%TA.AperFunction,NonConductor*%
G36*
X7006922Y3998720D02*
G01*
X7026353Y3996530D01*
X7048805Y3993574D01*
X7105858Y3986063D01*
X7130583Y3980174D01*
X7163094Y3968798D01*
X7169591Y3966318D01*
X7222180Y3944536D01*
X7240702Y3934967D01*
X7273053Y3914639D01*
X7282567Y3908021D01*
X7324980Y3875476D01*
X7337174Y3864782D01*
X7364782Y3837174D01*
X7375476Y3824980D01*
X7408021Y3782567D01*
X7414639Y3773053D01*
X7434967Y3740702D01*
X7444536Y3722180D01*
X7466318Y3669591D01*
X7468798Y3663094D01*
X7480169Y3630597D01*
X7486066Y3605829D01*
X7496530Y3526353D01*
X7496531Y3526346D01*
X7498736Y3506773D01*
X7499499Y3493090D01*
X7499500Y-15493033D01*
X7498720Y-15506920D01*
X7496530Y-15526352D01*
X7493131Y-15552174D01*
X7486063Y-15605858D01*
X7480174Y-15630583D01*
X7468798Y-15663094D01*
X7466318Y-15669591D01*
X7444536Y-15722180D01*
X7434967Y-15740702D01*
X7414639Y-15773053D01*
X7408021Y-15782567D01*
X7375476Y-15824980D01*
X7364782Y-15837174D01*
X7337174Y-15864782D01*
X7324980Y-15875476D01*
X7282567Y-15908021D01*
X7273053Y-15914639D01*
X7240702Y-15934967D01*
X7222180Y-15944536D01*
X7169591Y-15966318D01*
X7163094Y-15968798D01*
X7130597Y-15980169D01*
X7105829Y-15986066D01*
X7026353Y-15996530D01*
X7024458Y-15996744D01*
X7006766Y-15998737D01*
X6993090Y-15999500D01*
X-6993034Y-15999500D01*
X-7006922Y-15998720D01*
X-7026353Y-15996530D01*
X-7048805Y-15993574D01*
X-7105858Y-15986063D01*
X-7130583Y-15980174D01*
X-7163094Y-15968798D01*
X-7169591Y-15966318D01*
X-7222180Y-15944536D01*
X-7240702Y-15934967D01*
X-7273053Y-15914639D01*
X-7282567Y-15908021D01*
X-7324980Y-15875476D01*
X-7337174Y-15864782D01*
X-7364782Y-15837174D01*
X-7375476Y-15824980D01*
X-7408021Y-15782567D01*
X-7414639Y-15773053D01*
X-7434967Y-15740702D01*
X-7444536Y-15722180D01*
X-7466318Y-15669591D01*
X-7468798Y-15663094D01*
X-7480169Y-15630597D01*
X-7486066Y-15605829D01*
X-7496530Y-15526353D01*
X-7496744Y-15524458D01*
X-7498737Y-15506766D01*
X-7499500Y-15493090D01*
X-7499499Y-5000000D01*
X-5065277Y-5000000D01*
X-5046207Y-5217977D01*
X-4989575Y-5429330D01*
X-4897102Y-5627639D01*
X-4771598Y-5806877D01*
X-4616877Y-5961598D01*
X-4437639Y-6087102D01*
X-4239330Y-6179575D01*
X-4027977Y-6236207D01*
X-3810000Y-6255277D01*
X-3592023Y-6236207D01*
X-3380670Y-6179575D01*
X-3182361Y-6087102D01*
X-3003123Y-5961598D01*
X-2848402Y-5806877D01*
X-2722898Y-5627639D01*
X-2652382Y-5476417D01*
X-2606210Y-5423978D01*
X-2539016Y-5404826D01*
X-2472135Y-5425042D01*
X-2427617Y-5476417D01*
X-2357102Y-5627639D01*
X-2231598Y-5806877D01*
X-2076877Y-5961598D01*
X-1897639Y-6087102D01*
X-1699330Y-6179575D01*
X-1487977Y-6236207D01*
X-1270000Y-6255277D01*
X-1052023Y-6236207D01*
X-840670Y-6179575D01*
X-642361Y-6087102D01*
X-463123Y-5961598D01*
X-308402Y-5806877D01*
X-182898Y-5627639D01*
X-112382Y-5476417D01*
X-66210Y-5423978D01*
X984Y-5404826D01*
X67865Y-5425042D01*
X112382Y-5476417D01*
X182898Y-5627639D01*
X308402Y-5806877D01*
X463123Y-5961598D01*
X642361Y-6087102D01*
X840670Y-6179575D01*
X1052023Y-6236207D01*
X1270000Y-6255277D01*
X1487977Y-6236207D01*
X1699330Y-6179575D01*
X1897639Y-6087102D01*
X2076877Y-5961598D01*
X2231598Y-5806877D01*
X2357102Y-5627639D01*
X2427617Y-5476417D01*
X2473790Y-5423978D01*
X2540984Y-5404826D01*
X2607865Y-5425042D01*
X2652382Y-5476417D01*
X2722898Y-5627639D01*
X2848402Y-5806877D01*
X3003123Y-5961598D01*
X3182361Y-6087102D01*
X3380670Y-6179575D01*
X3592023Y-6236207D01*
X3810000Y-6255277D01*
X4027977Y-6236207D01*
X4239330Y-6179575D01*
X4437639Y-6087102D01*
X4616877Y-5961598D01*
X4771598Y-5806877D01*
X4897102Y-5627639D01*
X4989575Y-5429330D01*
X5046207Y-5217977D01*
X5065277Y-5000000D01*
X5046207Y-4782023D01*
X4989575Y-4570670D01*
X4897102Y-4372362D01*
X4771598Y-4193123D01*
X4616877Y-4038402D01*
X4437639Y-3912898D01*
X4346205Y-3870261D01*
X4239331Y-3820425D01*
X4027974Y-3763792D01*
X3810000Y-3744722D01*
X3592025Y-3763792D01*
X3380668Y-3820425D01*
X3182361Y-3912898D01*
X3003122Y-4038402D01*
X2848402Y-4193122D01*
X2722898Y-4372361D01*
X2652382Y-4523583D01*
X2606209Y-4576022D01*
X2539016Y-4595174D01*
X2472135Y-4574958D01*
X2427618Y-4523583D01*
X2413118Y-4492488D01*
X2357102Y-4372362D01*
X2231598Y-4193123D01*
X2076877Y-4038402D01*
X1897639Y-3912898D01*
X1806205Y-3870261D01*
X1699331Y-3820425D01*
X1487974Y-3763792D01*
X1270000Y-3744722D01*
X1052025Y-3763792D01*
X840668Y-3820425D01*
X642361Y-3912898D01*
X463122Y-4038402D01*
X308402Y-4193122D01*
X182898Y-4372361D01*
X112382Y-4523583D01*
X66209Y-4576022D01*
X-984Y-4595174D01*
X-67865Y-4574958D01*
X-112382Y-4523583D01*
X-182898Y-4372361D01*
X-308402Y-4193122D01*
X-463119Y-4038405D01*
X-463123Y-4038402D01*
X-642361Y-3912898D01*
X-642363Y-3912897D01*
X-840668Y-3820425D01*
X-1052025Y-3763792D01*
X-1270000Y-3744722D01*
X-1487974Y-3763792D01*
X-1699331Y-3820425D01*
X-1897637Y-3912897D01*
X-1897638Y-3912898D01*
X-2076877Y-4038402D01*
X-2231598Y-4193123D01*
X-2357102Y-4372362D01*
X-2413118Y-4492488D01*
X-2427618Y-4523583D01*
X-2473791Y-4576022D01*
X-2540984Y-4595174D01*
X-2607865Y-4574958D01*
X-2652382Y-4523583D01*
X-2722898Y-4372361D01*
X-2848402Y-4193122D01*
X-3003119Y-4038405D01*
X-3003123Y-4038402D01*
X-3182361Y-3912898D01*
X-3182363Y-3912897D01*
X-3380668Y-3820425D01*
X-3592025Y-3763792D01*
X-3810000Y-3744722D01*
X-4027974Y-3763792D01*
X-4239331Y-3820425D01*
X-4437637Y-3912897D01*
X-4437638Y-3912898D01*
X-4616877Y-4038402D01*
X-4771598Y-4193123D01*
X-4897102Y-4372362D01*
X-4989575Y-4570670D01*
X-5046207Y-4782023D01*
X-5065277Y-5000000D01*
X-7499499Y-5000000D01*
X-7499499Y897873D01*
X-5160500Y897873D01*
X-5160499Y-897872D01*
X-5154091Y-957483D01*
X-5103796Y-1092331D01*
X-5017546Y-1207546D01*
X-4902331Y-1293796D01*
X-4767483Y-1344091D01*
X-4707873Y-1350500D01*
X-2912128Y-1350499D01*
X-2852517Y-1344091D01*
X-2717669Y-1293796D01*
X-2602454Y-1207546D01*
X-2516204Y-1092331D01*
X-2467189Y-960916D01*
X-2425317Y-904983D01*
X-2359853Y-880566D01*
X-2291580Y-895418D01*
X-2263332Y-916563D01*
X-2141401Y-1038495D01*
X-1947830Y-1174035D01*
X-1733663Y-1273903D01*
X-1505408Y-1335063D01*
X-1270000Y-1355659D01*
X-1034592Y-1335063D01*
X-1034592Y-1335062D01*
X-806337Y-1273903D01*
X-592170Y-1174035D01*
X-398599Y-1038495D01*
X-231505Y-871401D01*
X-101573Y-685839D01*
X-46998Y-642216D01*
X22500Y-635022D01*
X84855Y-666545D01*
X101571Y-685837D01*
X231505Y-871401D01*
X398599Y-1038495D01*
X592170Y-1174035D01*
X806337Y-1273903D01*
X1034592Y-1335063D01*
X1270000Y-1355659D01*
X1505408Y-1335063D01*
X1733663Y-1273903D01*
X1947830Y-1174035D01*
X2141401Y-1038495D01*
X2308495Y-871401D01*
X2438426Y-685839D01*
X2493002Y-642216D01*
X2562500Y-635022D01*
X2624855Y-666545D01*
X2641571Y-685837D01*
X2771505Y-871401D01*
X2938599Y-1038495D01*
X3132170Y-1174035D01*
X3346337Y-1273903D01*
X3574592Y-1335063D01*
X3809999Y-1355659D01*
X3809999Y-1355658D01*
X3810000Y-1355659D01*
X4045408Y-1335063D01*
X4273663Y-1273903D01*
X4487830Y-1174035D01*
X4681401Y-1038495D01*
X4848495Y-871401D01*
X4984035Y-677830D01*
X5083903Y-463663D01*
X5145063Y-235408D01*
X5165659Y0D01*
X5145063Y235408D01*
X5083903Y463663D01*
X4984035Y677829D01*
X4848495Y871401D01*
X4681401Y1038495D01*
X4487830Y1174035D01*
X4273663Y1273903D01*
X4045408Y1335063D01*
X3810000Y1355659D01*
X3809999Y1355658D01*
X3809999Y1355659D01*
X3574592Y1335063D01*
X3346337Y1273903D01*
X3132171Y1174035D01*
X2938599Y1038495D01*
X2771505Y871401D01*
X2641573Y685838D01*
X2586998Y642215D01*
X2517500Y635021D01*
X2455145Y666544D01*
X2438428Y685836D01*
X2308495Y871401D01*
X2141401Y1038495D01*
X1947830Y1174035D01*
X1733663Y1273903D01*
X1505408Y1335063D01*
X1270000Y1355659D01*
X1034592Y1335063D01*
X806337Y1273903D01*
X592171Y1174035D01*
X398599Y1038495D01*
X231505Y871401D01*
X101573Y685838D01*
X46998Y642215D01*
X-22500Y635021D01*
X-84855Y666544D01*
X-101571Y685836D01*
X-231505Y871401D01*
X-398599Y1038495D01*
X-592170Y1174035D01*
X-806337Y1273903D01*
X-1034592Y1335063D01*
X-1270000Y1355659D01*
X-1505408Y1335063D01*
X-1733663Y1273903D01*
X-1947829Y1174035D01*
X-2141401Y1038495D01*
X-2263329Y916566D01*
X-2324648Y883084D01*
X-2394340Y888068D01*
X-2450274Y929939D01*
X-2467189Y960916D01*
X-2496124Y1038494D01*
X-2516204Y1092331D01*
X-2602454Y1207546D01*
X-2717669Y1293796D01*
X-2852517Y1344091D01*
X-2912127Y1350500D01*
X-4707872Y1350499D01*
X-4767483Y1344091D01*
X-4902331Y1293796D01*
X-5017546Y1207546D01*
X-5103796Y1092331D01*
X-5154091Y957483D01*
X-5160500Y897873D01*
X-7499499Y897873D01*
X-7499499Y3493033D01*
X-7498720Y3506914D01*
X-7496531Y3526346D01*
X-7493867Y3546583D01*
X-7486063Y3605858D01*
X-7480174Y3630583D01*
X-7468798Y3663094D01*
X-7466318Y3669591D01*
X-7444536Y3722180D01*
X-7434967Y3740702D01*
X-7414639Y3773053D01*
X-7408021Y3782567D01*
X-7375476Y3824980D01*
X-7364782Y3837174D01*
X-7337174Y3864782D01*
X-7324980Y3875476D01*
X-7282567Y3908021D01*
X-7273053Y3914639D01*
X-7240702Y3934967D01*
X-7222180Y3944536D01*
X-7169591Y3966318D01*
X-7163094Y3968798D01*
X-7130597Y3980169D01*
X-7105829Y3986066D01*
X-7026353Y3996530D01*
X-7024458Y3996744D01*
X-7006766Y3998737D01*
X-6993090Y3999500D01*
X6993034Y3999500D01*
X7006922Y3998720D01*
G37*
%TD.AperFunction*%
M02*
