%TF.GenerationSoftware,KiCad,Pcbnew,7.0.2*%
%TF.CreationDate,2023-11-30T16:26:43-07:00*%
%TF.ProjectId,heater_adapt_pcb,68656174-6572-45f6-9164-6170745f7063,rev?*%
%TF.SameCoordinates,Original*%
%TF.FileFunction,Legend,Top*%
%TF.FilePolarity,Positive*%
%FSLAX46Y46*%
G04 Gerber Fmt 4.6, Leading zero omitted, Abs format (unit mm)*
G04 Created by KiCad (PCBNEW 7.0.2) date 2023-11-30 16:26:43*
%MOMM*%
%LPD*%
G01*
G04 APERTURE LIST*
%ADD10C,0.150000*%
%ADD11C,0.100000*%
%ADD12C,0.120000*%
%ADD13C,0.810345*%
%ADD14R,1.700000X1.700000*%
%ADD15O,1.700000X1.700000*%
%ADD16C,1.500000*%
G04 APERTURE END LIST*
D10*
%TO.C,J1*%
X-4077380Y4051666D02*
X-3363095Y4051666D01*
X-3363095Y4051666D02*
X-3220238Y4004047D01*
X-3220238Y4004047D02*
X-3125000Y3908809D01*
X-3125000Y3908809D02*
X-3077380Y3765952D01*
X-3077380Y3765952D02*
X-3077380Y3670714D01*
X-3077380Y5051666D02*
X-3077380Y4480238D01*
X-3077380Y4765952D02*
X-4077380Y4765952D01*
X-4077380Y4765952D02*
X-3934523Y4670714D01*
X-3934523Y4670714D02*
X-3839285Y4575476D01*
X-3839285Y4575476D02*
X-3791666Y4480238D01*
D11*
%TO.C,J2*%
X-1653333Y6837380D02*
X-1653333Y6123095D01*
X-1653333Y6123095D02*
X-1700952Y5980238D01*
X-1700952Y5980238D02*
X-1796190Y5885000D01*
X-1796190Y5885000D02*
X-1939047Y5837380D01*
X-1939047Y5837380D02*
X-2034285Y5837380D01*
X-1224761Y6742142D02*
X-1177142Y6789761D01*
X-1177142Y6789761D02*
X-1081904Y6837380D01*
X-1081904Y6837380D02*
X-843809Y6837380D01*
X-843809Y6837380D02*
X-748571Y6789761D01*
X-748571Y6789761D02*
X-700952Y6742142D01*
X-700952Y6742142D02*
X-653333Y6646904D01*
X-653333Y6646904D02*
X-653333Y6551666D01*
X-653333Y6551666D02*
X-700952Y6408809D01*
X-700952Y6408809D02*
X-1272380Y5837380D01*
X-1272380Y5837380D02*
X-653333Y5837380D01*
D12*
%TO.C,J1*%
X-2540000Y-1270000D02*
X-2540000Y0D01*
X-1270000Y-1270000D02*
X-2540000Y-1270000D01*
X890000Y1042929D02*
X890000Y1440000D01*
X1650000Y1042929D02*
X1650000Y1440000D01*
X-1650000Y1110000D02*
X-1650000Y1440000D01*
X-890000Y1110000D02*
X-890000Y1440000D01*
X-2600000Y1440000D02*
X2600000Y1440000D01*
X0Y1440000D02*
X0Y4100000D01*
X2600000Y1440000D02*
X2600000Y4100000D01*
X-2600000Y4100000D02*
X-2600000Y1440000D01*
X-1650000Y4100000D02*
X-1650000Y10100000D01*
X-1590000Y4100000D02*
X-1590000Y10100000D01*
X-1470000Y4100000D02*
X-1470000Y10100000D01*
X-1350000Y4100000D02*
X-1350000Y10100000D01*
X-1230000Y4100000D02*
X-1230000Y10100000D01*
X-1110000Y4100000D02*
X-1110000Y10100000D01*
X-990000Y4100000D02*
X-990000Y10100000D01*
X890000Y4100000D02*
X890000Y10100000D01*
X2600000Y4100000D02*
X-2600000Y4100000D01*
X-1650000Y10100000D02*
X-890000Y10100000D01*
X-890000Y10100000D02*
X-890000Y4100000D01*
X890000Y10100000D02*
X1650000Y10100000D01*
X1650000Y10100000D02*
X1650000Y4100000D01*
%TD*%
%LPC*%
D11*
%TO.C,J2*%
X-2120000Y-4900000D02*
X-420000Y-4900000D01*
X-420000Y-4900000D02*
X-420000Y-8125000D01*
X-420000Y-8125000D02*
X-2120000Y-8125000D01*
X-2120000Y-8125000D02*
X-2120000Y-4900000D01*
G36*
X-2120000Y-4900000D02*
G01*
X-420000Y-4900000D01*
X-420000Y-8125000D01*
X-2120000Y-8125000D01*
X-2120000Y-4900000D01*
G37*
X420000Y-4900000D02*
X2120000Y-4900000D01*
X2120000Y-4900000D02*
X2120000Y-8125000D01*
X2120000Y-8125000D02*
X420000Y-8125000D01*
X420000Y-8125000D02*
X420000Y-4900000D01*
G36*
X420000Y-4900000D02*
G01*
X2120000Y-4900000D01*
X2120000Y-8125000D01*
X420000Y-8125000D01*
X420000Y-4900000D01*
G37*
D13*
X-864828Y-5000000D02*
G75*
G03*
X-864828Y-5000000I-405172J0D01*
G01*
X1675172Y-5000000D02*
G75*
G03*
X1675172Y-5000000I-405172J0D01*
G01*
%TD*%
D14*
%TO.C,J1*%
X-1270000Y0D03*
D15*
X1270000Y0D03*
%TD*%
D16*
%TO.C,J2*%
X-1270000Y-5000000D03*
X1270000Y-5000000D03*
%TD*%
%LPD*%
M02*
