%TF.GenerationSoftware,KiCad,Pcbnew,(6.0.5)*%
%TF.CreationDate,2022-07-15T10:42:52-06:00*%
%TF.ProjectId,25to25,3235746f-3235-42e6-9b69-6361645f7063,rev?*%
%TF.SameCoordinates,Original*%
%TF.FileFunction,Soldermask,Bot*%
%TF.FilePolarity,Negative*%
%FSLAX46Y46*%
G04 Gerber Fmt 4.6, Leading zero omitted, Abs format (unit mm)*
G04 Created by KiCad (PCBNEW (6.0.5)) date 2022-07-15 10:42:52*
%MOMM*%
%LPD*%
G01*
G04 APERTURE LIST*
%ADD10C,2.440000*%
%ADD11C,1.530000*%
%ADD12R,1.700000X1.700000*%
%ADD13O,1.700000X1.700000*%
%ADD14C,3.200400*%
%ADD15C,0.965200*%
G04 APERTURE END LIST*
D10*
%TO.C,J4*%
X137277033Y-75975276D03*
X161813033Y-75975276D03*
D11*
X139385033Y-76483276D03*
X140655033Y-79023276D03*
X143195033Y-79023276D03*
X145735033Y-79023276D03*
X147005033Y-76483276D03*
X148275033Y-79023276D03*
X149545033Y-76483276D03*
X150815033Y-79023276D03*
X152085033Y-76483276D03*
X153355033Y-79023276D03*
X155895033Y-79023276D03*
X158435033Y-79023276D03*
X159705033Y-76483276D03*
X140655033Y-73943276D03*
X141925033Y-76483276D03*
X143195033Y-73943276D03*
X144465033Y-76483276D03*
X145735033Y-73943276D03*
X148275033Y-73943276D03*
X150815033Y-73943276D03*
X153355033Y-73943276D03*
X154625033Y-76483276D03*
X155895033Y-73943276D03*
X157165033Y-76483276D03*
X158435033Y-73943276D03*
%TD*%
D12*
%TO.C,J2*%
X117550000Y-62600000D03*
D13*
X120090000Y-62600000D03*
%TD*%
D12*
%TO.C,J1*%
X126450000Y-62600000D03*
D13*
X128990000Y-62600000D03*
%TD*%
D14*
%TO.C,J3*%
X161550001Y-63490000D03*
X137049999Y-63490000D03*
D15*
X141680000Y-67300000D03*
X142950000Y-67300000D03*
X144220000Y-67300000D03*
X145490000Y-67300000D03*
X146760000Y-67300000D03*
X148030000Y-67300000D03*
X149300000Y-67300000D03*
X150570000Y-67300000D03*
X151840000Y-67300000D03*
X153110000Y-67300000D03*
X154380000Y-67300000D03*
X155650000Y-67300000D03*
X156920000Y-67300000D03*
X142315000Y-64760000D03*
X143585000Y-64760000D03*
X144855000Y-64760000D03*
X146125000Y-64760000D03*
X147395000Y-64760000D03*
X148665000Y-64760000D03*
X149935000Y-64760000D03*
X151205000Y-64760000D03*
X152475000Y-64760000D03*
X153745000Y-64760000D03*
X155015000Y-64760000D03*
X156285000Y-64760000D03*
%TD*%
M02*
