%TF.GenerationSoftware,KiCad,Pcbnew,(6.0.5)*%
%TF.CreationDate,2022-07-15T10:42:52-06:00*%
%TF.ProjectId,25to25,3235746f-3235-42e6-9b69-6361645f7063,rev?*%
%TF.SameCoordinates,Original*%
%TF.FileFunction,Legend,Bot*%
%TF.FilePolarity,Positive*%
%FSLAX46Y46*%
G04 Gerber Fmt 4.6, Leading zero omitted, Abs format (unit mm)*
G04 Created by KiCad (PCBNEW (6.0.5)) date 2022-07-15 10:42:52*
%MOMM*%
%LPD*%
G01*
G04 APERTURE LIST*
%ADD10C,0.150000*%
%ADD11C,0.120000*%
G04 APERTURE END LIST*
D10*
%TO.C,J3*%
X149633333Y-64812380D02*
X149633333Y-65526666D01*
X149680952Y-65669523D01*
X149776190Y-65764761D01*
X149919047Y-65812380D01*
X150014285Y-65812380D01*
X149252380Y-64812380D02*
X148633333Y-64812380D01*
X148966666Y-65193333D01*
X148823809Y-65193333D01*
X148728571Y-65240952D01*
X148680952Y-65288571D01*
X148633333Y-65383809D01*
X148633333Y-65621904D01*
X148680952Y-65717142D01*
X148728571Y-65764761D01*
X148823809Y-65812380D01*
X149109523Y-65812380D01*
X149204761Y-65764761D01*
X149252380Y-65717142D01*
X158919047Y-65812380D02*
X158919047Y-64812380D01*
X158680952Y-64812380D01*
X158538095Y-64860000D01*
X158442857Y-64955238D01*
X158395238Y-65050476D01*
X158347619Y-65240952D01*
X158347619Y-65383809D01*
X158395238Y-65574285D01*
X158442857Y-65669523D01*
X158538095Y-65764761D01*
X158680952Y-65812380D01*
X158919047Y-65812380D01*
X157585714Y-65288571D02*
X157442857Y-65336190D01*
X157395238Y-65383809D01*
X157347619Y-65479047D01*
X157347619Y-65621904D01*
X157395238Y-65717142D01*
X157442857Y-65764761D01*
X157538095Y-65812380D01*
X157919047Y-65812380D01*
X157919047Y-64812380D01*
X157585714Y-64812380D01*
X157490476Y-64860000D01*
X157442857Y-64907619D01*
X157395238Y-65002857D01*
X157395238Y-65098095D01*
X157442857Y-65193333D01*
X157490476Y-65240952D01*
X157585714Y-65288571D01*
X157919047Y-65288571D01*
X156966666Y-64907619D02*
X156919047Y-64860000D01*
X156823809Y-64812380D01*
X156585714Y-64812380D01*
X156490476Y-64860000D01*
X156442857Y-64907619D01*
X156395238Y-65002857D01*
X156395238Y-65098095D01*
X156442857Y-65240952D01*
X157014285Y-65812380D01*
X156395238Y-65812380D01*
X155490476Y-64812380D02*
X155966666Y-64812380D01*
X156014285Y-65288571D01*
X155966666Y-65240952D01*
X155871428Y-65193333D01*
X155633333Y-65193333D01*
X155538095Y-65240952D01*
X155490476Y-65288571D01*
X155442857Y-65383809D01*
X155442857Y-65621904D01*
X155490476Y-65717142D01*
X155538095Y-65764761D01*
X155633333Y-65812380D01*
X155871428Y-65812380D01*
X155966666Y-65764761D01*
X156014285Y-65717142D01*
X155252380Y-65907619D02*
X154490476Y-65907619D01*
X154252380Y-65812380D02*
X154252380Y-64812380D01*
X153919047Y-65526666D01*
X153585714Y-64812380D01*
X153585714Y-65812380D01*
X152680952Y-65812380D02*
X152680952Y-65288571D01*
X152728571Y-65193333D01*
X152823809Y-65145714D01*
X153014285Y-65145714D01*
X153109523Y-65193333D01*
X152680952Y-65764761D02*
X152776190Y-65812380D01*
X153014285Y-65812380D01*
X153109523Y-65764761D01*
X153157142Y-65669523D01*
X153157142Y-65574285D01*
X153109523Y-65479047D01*
X153014285Y-65431428D01*
X152776190Y-65431428D01*
X152680952Y-65383809D01*
X152061904Y-65812380D02*
X152157142Y-65764761D01*
X152204761Y-65669523D01*
X152204761Y-64812380D01*
X151300000Y-65764761D02*
X151395238Y-65812380D01*
X151585714Y-65812380D01*
X151680952Y-65764761D01*
X151728571Y-65669523D01*
X151728571Y-65288571D01*
X151680952Y-65193333D01*
X151585714Y-65145714D01*
X151395238Y-65145714D01*
X151300000Y-65193333D01*
X151252380Y-65288571D01*
X151252380Y-65383809D01*
X151728571Y-65479047D01*
X151061904Y-65907619D02*
X150300000Y-65907619D01*
X150061904Y-65812380D02*
X150061904Y-64812380D01*
X149728571Y-65526666D01*
X149395238Y-64812380D01*
X149395238Y-65812380D01*
X148776190Y-65812380D02*
X148871428Y-65764761D01*
X148919047Y-65717142D01*
X148966666Y-65621904D01*
X148966666Y-65336190D01*
X148919047Y-65240952D01*
X148871428Y-65193333D01*
X148776190Y-65145714D01*
X148633333Y-65145714D01*
X148538095Y-65193333D01*
X148490476Y-65240952D01*
X148442857Y-65336190D01*
X148442857Y-65621904D01*
X148490476Y-65717142D01*
X148538095Y-65764761D01*
X148633333Y-65812380D01*
X148776190Y-65812380D01*
X147585714Y-65145714D02*
X147585714Y-65812380D01*
X148014285Y-65145714D02*
X148014285Y-65669523D01*
X147966666Y-65764761D01*
X147871428Y-65812380D01*
X147728571Y-65812380D01*
X147633333Y-65764761D01*
X147585714Y-65717142D01*
X147109523Y-65145714D02*
X147109523Y-65812380D01*
X147109523Y-65240952D02*
X147061904Y-65193333D01*
X146966666Y-65145714D01*
X146823809Y-65145714D01*
X146728571Y-65193333D01*
X146680952Y-65288571D01*
X146680952Y-65812380D01*
X146347619Y-65145714D02*
X145966666Y-65145714D01*
X146204761Y-64812380D02*
X146204761Y-65669523D01*
X146157142Y-65764761D01*
X146061904Y-65812380D01*
X145966666Y-65812380D01*
X145633333Y-65812380D02*
X145633333Y-65145714D01*
X145633333Y-64812380D02*
X145680952Y-64860000D01*
X145633333Y-64907619D01*
X145585714Y-64860000D01*
X145633333Y-64812380D01*
X145633333Y-64907619D01*
X145157142Y-65145714D02*
X145157142Y-65812380D01*
X145157142Y-65240952D02*
X145109523Y-65193333D01*
X145014285Y-65145714D01*
X144871428Y-65145714D01*
X144776190Y-65193333D01*
X144728571Y-65288571D01*
X144728571Y-65812380D01*
X143823809Y-65145714D02*
X143823809Y-65955238D01*
X143871428Y-66050476D01*
X143919047Y-66098095D01*
X144014285Y-66145714D01*
X144157142Y-66145714D01*
X144252380Y-66098095D01*
X143823809Y-65764761D02*
X143919047Y-65812380D01*
X144109523Y-65812380D01*
X144204761Y-65764761D01*
X144252380Y-65717142D01*
X144300000Y-65621904D01*
X144300000Y-65336190D01*
X144252380Y-65240952D01*
X144204761Y-65193333D01*
X144109523Y-65145714D01*
X143919047Y-65145714D01*
X143823809Y-65193333D01*
X143347619Y-65812380D02*
X143347619Y-64812380D01*
X143347619Y-65288571D02*
X142776190Y-65288571D01*
X142776190Y-65812380D02*
X142776190Y-64812380D01*
X142157142Y-65812380D02*
X142252380Y-65764761D01*
X142300000Y-65717142D01*
X142347619Y-65621904D01*
X142347619Y-65336190D01*
X142300000Y-65240952D01*
X142252380Y-65193333D01*
X142157142Y-65145714D01*
X142014285Y-65145714D01*
X141919047Y-65193333D01*
X141871428Y-65240952D01*
X141823809Y-65336190D01*
X141823809Y-65621904D01*
X141871428Y-65717142D01*
X141919047Y-65764761D01*
X142014285Y-65812380D01*
X142157142Y-65812380D01*
X141252380Y-65812380D02*
X141347619Y-65764761D01*
X141395238Y-65669523D01*
X141395238Y-64812380D01*
X140490476Y-65764761D02*
X140585714Y-65812380D01*
X140776190Y-65812380D01*
X140871428Y-65764761D01*
X140919047Y-65669523D01*
X140919047Y-65288571D01*
X140871428Y-65193333D01*
X140776190Y-65145714D01*
X140585714Y-65145714D01*
X140490476Y-65193333D01*
X140442857Y-65288571D01*
X140442857Y-65383809D01*
X140919047Y-65479047D01*
X140061904Y-65764761D02*
X139966666Y-65812380D01*
X139776190Y-65812380D01*
X139680952Y-65764761D01*
X139633333Y-65669523D01*
X139633333Y-65621904D01*
X139680952Y-65526666D01*
X139776190Y-65479047D01*
X139919047Y-65479047D01*
X140014285Y-65431428D01*
X140061904Y-65336190D01*
X140061904Y-65288571D01*
X140014285Y-65193333D01*
X139919047Y-65145714D01*
X139776190Y-65145714D01*
X139680952Y-65193333D01*
X141680000Y-66752380D02*
X141680000Y-66990476D01*
X141918095Y-66895238D02*
X141680000Y-66990476D01*
X141441904Y-66895238D01*
X141822857Y-67180952D02*
X141680000Y-66990476D01*
X141537142Y-67180952D01*
D11*
X145120879Y-68027000D02*
X144589121Y-68027000D01*
X156550879Y-68027000D02*
X156019121Y-68027000D01*
X154010879Y-68027000D02*
X153479121Y-68027000D01*
X150200879Y-68027000D02*
X149669121Y-68027000D01*
X134047300Y-68027000D02*
X134047300Y-52863200D01*
X164552700Y-68027000D02*
X157289121Y-68027000D01*
X142580879Y-68027000D02*
X142049121Y-68027000D01*
X147660879Y-68027000D02*
X147129121Y-68027000D01*
X141310879Y-68027000D02*
X134047300Y-68027000D01*
X152740879Y-68027000D02*
X152209121Y-68027000D01*
X146390879Y-68027000D02*
X145859121Y-68027000D01*
X155280879Y-68027000D02*
X154749121Y-68027000D01*
X134047300Y-52863200D02*
X164552700Y-52863200D01*
X164552700Y-52863200D02*
X164552700Y-68027000D01*
X151470879Y-68027000D02*
X150939121Y-68027000D01*
X143850879Y-68027000D02*
X143319121Y-68027000D01*
X148930879Y-68027000D02*
X148399121Y-68027000D01*
X132650300Y-66630000D02*
G75*
G03*
X132650300Y-66630000I-381000J0D01*
G01*
%TD*%
M02*
