%TF.GenerationSoftware,KiCad,Pcbnew,(6.0.5)*%
%TF.CreationDate,2022-07-15T13:10:31-06:00*%
%TF.ProjectId,25to25,3235746f-3235-42e6-9b69-6361645f7063,rev?*%
%TF.SameCoordinates,Original*%
%TF.FileFunction,Legend,Top*%
%TF.FilePolarity,Positive*%
%FSLAX46Y46*%
G04 Gerber Fmt 4.6, Leading zero omitted, Abs format (unit mm)*
G04 Created by KiCad (PCBNEW (6.0.5)) date 2022-07-15 13:10:31*
%MOMM*%
%LPD*%
G01*
G04 APERTURE LIST*
%ADD10C,0.150000*%
%ADD11C,0.125000*%
%ADD12C,0.120000*%
G04 APERTURE END LIST*
D10*
X117338095Y-64371428D02*
X118100000Y-64371428D01*
X117719047Y-64752380D02*
X117719047Y-63990476D01*
X120100000Y-64371428D02*
X120861904Y-64371428D01*
D11*
X125364285Y-64992857D02*
X125364285Y-65326190D01*
X125245238Y-64802380D02*
X125126190Y-65159523D01*
X125435714Y-65159523D01*
X126007142Y-65326190D02*
X126007142Y-64826190D01*
X126197619Y-64826190D01*
X126245238Y-64850000D01*
X126269047Y-64873809D01*
X126292857Y-64921428D01*
X126292857Y-64992857D01*
X126269047Y-65040476D01*
X126245238Y-65064285D01*
X126197619Y-65088095D01*
X126007142Y-65088095D01*
X126721428Y-64992857D02*
X126721428Y-65326190D01*
X126507142Y-64992857D02*
X126507142Y-65254761D01*
X126530952Y-65302380D01*
X126578571Y-65326190D01*
X126650000Y-65326190D01*
X126697619Y-65302380D01*
X126721428Y-65278571D01*
X126959523Y-65326190D02*
X126959523Y-64992857D01*
X126959523Y-65040476D02*
X126983333Y-65016666D01*
X127030952Y-64992857D01*
X127102380Y-64992857D01*
X127150000Y-65016666D01*
X127173809Y-65064285D01*
X127173809Y-65326190D01*
X127173809Y-65064285D02*
X127197619Y-65016666D01*
X127245238Y-64992857D01*
X127316666Y-64992857D01*
X127364285Y-65016666D01*
X127388095Y-65064285D01*
X127388095Y-65326190D01*
X127626190Y-64992857D02*
X127626190Y-65492857D01*
X127626190Y-65016666D02*
X127673809Y-64992857D01*
X127769047Y-64992857D01*
X127816666Y-65016666D01*
X127840476Y-65040476D01*
X127864285Y-65088095D01*
X127864285Y-65230952D01*
X127840476Y-65278571D01*
X127816666Y-65302380D01*
X127769047Y-65326190D01*
X127673809Y-65326190D01*
X127626190Y-65302380D01*
X128459523Y-65326190D02*
X128459523Y-64826190D01*
X128459523Y-65064285D02*
X128745238Y-65064285D01*
X128745238Y-65326190D02*
X128745238Y-64826190D01*
X129173809Y-65302380D02*
X129126190Y-65326190D01*
X129030952Y-65326190D01*
X128983333Y-65302380D01*
X128959523Y-65254761D01*
X128959523Y-65064285D01*
X128983333Y-65016666D01*
X129030952Y-64992857D01*
X129126190Y-64992857D01*
X129173809Y-65016666D01*
X129197619Y-65064285D01*
X129197619Y-65111904D01*
X128959523Y-65159523D01*
X129626190Y-65326190D02*
X129626190Y-65064285D01*
X129602380Y-65016666D01*
X129554761Y-64992857D01*
X129459523Y-64992857D01*
X129411904Y-65016666D01*
X129626190Y-65302380D02*
X129578571Y-65326190D01*
X129459523Y-65326190D01*
X129411904Y-65302380D01*
X129388095Y-65254761D01*
X129388095Y-65207142D01*
X129411904Y-65159523D01*
X129459523Y-65135714D01*
X129578571Y-65135714D01*
X129626190Y-65111904D01*
X129792857Y-64992857D02*
X129983333Y-64992857D01*
X129864285Y-64826190D02*
X129864285Y-65254761D01*
X129888095Y-65302380D01*
X129935714Y-65326190D01*
X129983333Y-65326190D01*
X130340476Y-65302380D02*
X130292857Y-65326190D01*
X130197619Y-65326190D01*
X130150000Y-65302380D01*
X130126190Y-65254761D01*
X130126190Y-65064285D01*
X130150000Y-65016666D01*
X130197619Y-64992857D01*
X130292857Y-64992857D01*
X130340476Y-65016666D01*
X130364285Y-65064285D01*
X130364285Y-65111904D01*
X130126190Y-65159523D01*
X130578571Y-65326190D02*
X130578571Y-64992857D01*
X130578571Y-65088095D02*
X130602380Y-65040476D01*
X130626190Y-65016666D01*
X130673809Y-64992857D01*
X130721428Y-64992857D01*
X115802380Y-64826190D02*
X116111904Y-64826190D01*
X115945238Y-65016666D01*
X116016666Y-65016666D01*
X116064285Y-65040476D01*
X116088095Y-65064285D01*
X116111904Y-65111904D01*
X116111904Y-65230952D01*
X116088095Y-65278571D01*
X116064285Y-65302380D01*
X116016666Y-65326190D01*
X115873809Y-65326190D01*
X115826190Y-65302380D01*
X115802380Y-65278571D01*
X116707142Y-65326190D02*
X116707142Y-64826190D01*
X116897619Y-64826190D01*
X116945238Y-64850000D01*
X116969047Y-64873809D01*
X116992857Y-64921428D01*
X116992857Y-64992857D01*
X116969047Y-65040476D01*
X116945238Y-65064285D01*
X116897619Y-65088095D01*
X116707142Y-65088095D01*
X117421428Y-64992857D02*
X117421428Y-65326190D01*
X117207142Y-64992857D02*
X117207142Y-65254761D01*
X117230952Y-65302380D01*
X117278571Y-65326190D01*
X117350000Y-65326190D01*
X117397619Y-65302380D01*
X117421428Y-65278571D01*
X117659523Y-65326190D02*
X117659523Y-64992857D01*
X117659523Y-65040476D02*
X117683333Y-65016666D01*
X117730952Y-64992857D01*
X117802380Y-64992857D01*
X117850000Y-65016666D01*
X117873809Y-65064285D01*
X117873809Y-65326190D01*
X117873809Y-65064285D02*
X117897619Y-65016666D01*
X117945238Y-64992857D01*
X118016666Y-64992857D01*
X118064285Y-65016666D01*
X118088095Y-65064285D01*
X118088095Y-65326190D01*
X118326190Y-64992857D02*
X118326190Y-65492857D01*
X118326190Y-65016666D02*
X118373809Y-64992857D01*
X118469047Y-64992857D01*
X118516666Y-65016666D01*
X118540476Y-65040476D01*
X118564285Y-65088095D01*
X118564285Y-65230952D01*
X118540476Y-65278571D01*
X118516666Y-65302380D01*
X118469047Y-65326190D01*
X118373809Y-65326190D01*
X118326190Y-65302380D01*
X119159523Y-65326190D02*
X119159523Y-64826190D01*
X119159523Y-65064285D02*
X119445238Y-65064285D01*
X119445238Y-65326190D02*
X119445238Y-64826190D01*
X119873809Y-65302380D02*
X119826190Y-65326190D01*
X119730952Y-65326190D01*
X119683333Y-65302380D01*
X119659523Y-65254761D01*
X119659523Y-65064285D01*
X119683333Y-65016666D01*
X119730952Y-64992857D01*
X119826190Y-64992857D01*
X119873809Y-65016666D01*
X119897619Y-65064285D01*
X119897619Y-65111904D01*
X119659523Y-65159523D01*
X120326190Y-65326190D02*
X120326190Y-65064285D01*
X120302380Y-65016666D01*
X120254761Y-64992857D01*
X120159523Y-64992857D01*
X120111904Y-65016666D01*
X120326190Y-65302380D02*
X120278571Y-65326190D01*
X120159523Y-65326190D01*
X120111904Y-65302380D01*
X120088095Y-65254761D01*
X120088095Y-65207142D01*
X120111904Y-65159523D01*
X120159523Y-65135714D01*
X120278571Y-65135714D01*
X120326190Y-65111904D01*
X120492857Y-64992857D02*
X120683333Y-64992857D01*
X120564285Y-64826190D02*
X120564285Y-65254761D01*
X120588095Y-65302380D01*
X120635714Y-65326190D01*
X120683333Y-65326190D01*
X121040476Y-65302380D02*
X120992857Y-65326190D01*
X120897619Y-65326190D01*
X120850000Y-65302380D01*
X120826190Y-65254761D01*
X120826190Y-65064285D01*
X120850000Y-65016666D01*
X120897619Y-64992857D01*
X120992857Y-64992857D01*
X121040476Y-65016666D01*
X121064285Y-65064285D01*
X121064285Y-65111904D01*
X120826190Y-65159523D01*
X121278571Y-65326190D02*
X121278571Y-64992857D01*
X121278571Y-65088095D02*
X121302380Y-65040476D01*
X121326190Y-65016666D01*
X121373809Y-64992857D01*
X121421428Y-64992857D01*
D10*
X126338095Y-64271428D02*
X127100000Y-64271428D01*
X126719047Y-64652380D02*
X126719047Y-63890476D01*
X129100000Y-64271428D02*
X129861904Y-64271428D01*
X145428571Y-60152380D02*
X145428571Y-59485714D01*
X145428571Y-59580952D02*
X145476190Y-59533333D01*
X145571428Y-59485714D01*
X145714285Y-59485714D01*
X145809523Y-59533333D01*
X145857142Y-59628571D01*
X145857142Y-60152380D01*
X145857142Y-59628571D02*
X145904761Y-59533333D01*
X146000000Y-59485714D01*
X146142857Y-59485714D01*
X146238095Y-59533333D01*
X146285714Y-59628571D01*
X146285714Y-60152380D01*
X147190476Y-60152380D02*
X147190476Y-59628571D01*
X147142857Y-59533333D01*
X147047619Y-59485714D01*
X146857142Y-59485714D01*
X146761904Y-59533333D01*
X147190476Y-60104761D02*
X147095238Y-60152380D01*
X146857142Y-60152380D01*
X146761904Y-60104761D01*
X146714285Y-60009523D01*
X146714285Y-59914285D01*
X146761904Y-59819047D01*
X146857142Y-59771428D01*
X147095238Y-59771428D01*
X147190476Y-59723809D01*
X147809523Y-60152380D02*
X147714285Y-60104761D01*
X147666666Y-60009523D01*
X147666666Y-59152380D01*
X148571428Y-60104761D02*
X148476190Y-60152380D01*
X148285714Y-60152380D01*
X148190476Y-60104761D01*
X148142857Y-60009523D01*
X148142857Y-59628571D01*
X148190476Y-59533333D01*
X148285714Y-59485714D01*
X148476190Y-59485714D01*
X148571428Y-59533333D01*
X148619047Y-59628571D01*
X148619047Y-59723809D01*
X148142857Y-59819047D01*
X149809523Y-59485714D02*
X149809523Y-60485714D01*
X149809523Y-59533333D02*
X149904761Y-59485714D01*
X150095238Y-59485714D01*
X150190476Y-59533333D01*
X150238095Y-59580952D01*
X150285714Y-59676190D01*
X150285714Y-59961904D01*
X150238095Y-60057142D01*
X150190476Y-60104761D01*
X150095238Y-60152380D01*
X149904761Y-60152380D01*
X149809523Y-60104761D01*
X150857142Y-60152380D02*
X150761904Y-60104761D01*
X150714285Y-60009523D01*
X150714285Y-59152380D01*
X151666666Y-59485714D02*
X151666666Y-60152380D01*
X151238095Y-59485714D02*
X151238095Y-60009523D01*
X151285714Y-60104761D01*
X151380952Y-60152380D01*
X151523809Y-60152380D01*
X151619047Y-60104761D01*
X151666666Y-60057142D01*
X152571428Y-59485714D02*
X152571428Y-60295238D01*
X152523809Y-60390476D01*
X152476190Y-60438095D01*
X152380952Y-60485714D01*
X152238095Y-60485714D01*
X152142857Y-60438095D01*
X152571428Y-60104761D02*
X152476190Y-60152380D01*
X152285714Y-60152380D01*
X152190476Y-60104761D01*
X152142857Y-60057142D01*
X152095238Y-59961904D01*
X152095238Y-59676190D01*
X152142857Y-59580952D01*
X152190476Y-59533333D01*
X152285714Y-59485714D01*
X152476190Y-59485714D01*
X152571428Y-59533333D01*
%TO.C,J2*%
X121966666Y-59302380D02*
X121966666Y-60016666D01*
X121919047Y-60159523D01*
X121823809Y-60254761D01*
X121680952Y-60302380D01*
X121585714Y-60302380D01*
X122395238Y-59397619D02*
X122442857Y-59350000D01*
X122538095Y-59302380D01*
X122776190Y-59302380D01*
X122871428Y-59350000D01*
X122919047Y-59397619D01*
X122966666Y-59492857D01*
X122966666Y-59588095D01*
X122919047Y-59730952D01*
X122347619Y-60302380D01*
X122966666Y-60302380D01*
%TO.C,J3*%
X148526666Y-60812380D02*
X148526666Y-61526666D01*
X148479047Y-61669523D01*
X148383809Y-61764761D01*
X148240952Y-61812380D01*
X148145714Y-61812380D01*
X148907619Y-60812380D02*
X149526666Y-60812380D01*
X149193333Y-61193333D01*
X149336190Y-61193333D01*
X149431428Y-61240952D01*
X149479047Y-61288571D01*
X149526666Y-61383809D01*
X149526666Y-61621904D01*
X149479047Y-61717142D01*
X149431428Y-61764761D01*
X149336190Y-61812380D01*
X149050476Y-61812380D01*
X148955238Y-61764761D01*
X148907619Y-61717142D01*
X139440952Y-63612380D02*
X139440952Y-62612380D01*
X139679047Y-62612380D01*
X139821904Y-62660000D01*
X139917142Y-62755238D01*
X139964761Y-62850476D01*
X140012380Y-63040952D01*
X140012380Y-63183809D01*
X139964761Y-63374285D01*
X139917142Y-63469523D01*
X139821904Y-63564761D01*
X139679047Y-63612380D01*
X139440952Y-63612380D01*
X140774285Y-63088571D02*
X140917142Y-63136190D01*
X140964761Y-63183809D01*
X141012380Y-63279047D01*
X141012380Y-63421904D01*
X140964761Y-63517142D01*
X140917142Y-63564761D01*
X140821904Y-63612380D01*
X140440952Y-63612380D01*
X140440952Y-62612380D01*
X140774285Y-62612380D01*
X140869523Y-62660000D01*
X140917142Y-62707619D01*
X140964761Y-62802857D01*
X140964761Y-62898095D01*
X140917142Y-62993333D01*
X140869523Y-63040952D01*
X140774285Y-63088571D01*
X140440952Y-63088571D01*
X141393333Y-62707619D02*
X141440952Y-62660000D01*
X141536190Y-62612380D01*
X141774285Y-62612380D01*
X141869523Y-62660000D01*
X141917142Y-62707619D01*
X141964761Y-62802857D01*
X141964761Y-62898095D01*
X141917142Y-63040952D01*
X141345714Y-63612380D01*
X141964761Y-63612380D01*
X142869523Y-62612380D02*
X142393333Y-62612380D01*
X142345714Y-63088571D01*
X142393333Y-63040952D01*
X142488571Y-62993333D01*
X142726666Y-62993333D01*
X142821904Y-63040952D01*
X142869523Y-63088571D01*
X142917142Y-63183809D01*
X142917142Y-63421904D01*
X142869523Y-63517142D01*
X142821904Y-63564761D01*
X142726666Y-63612380D01*
X142488571Y-63612380D01*
X142393333Y-63564761D01*
X142345714Y-63517142D01*
X143107619Y-63707619D02*
X143869523Y-63707619D01*
X144107619Y-63612380D02*
X144107619Y-62612380D01*
X144440952Y-63326666D01*
X144774285Y-62612380D01*
X144774285Y-63612380D01*
X145679047Y-63612380D02*
X145679047Y-63088571D01*
X145631428Y-62993333D01*
X145536190Y-62945714D01*
X145345714Y-62945714D01*
X145250476Y-62993333D01*
X145679047Y-63564761D02*
X145583809Y-63612380D01*
X145345714Y-63612380D01*
X145250476Y-63564761D01*
X145202857Y-63469523D01*
X145202857Y-63374285D01*
X145250476Y-63279047D01*
X145345714Y-63231428D01*
X145583809Y-63231428D01*
X145679047Y-63183809D01*
X146298095Y-63612380D02*
X146202857Y-63564761D01*
X146155238Y-63469523D01*
X146155238Y-62612380D01*
X147060000Y-63564761D02*
X146964761Y-63612380D01*
X146774285Y-63612380D01*
X146679047Y-63564761D01*
X146631428Y-63469523D01*
X146631428Y-63088571D01*
X146679047Y-62993333D01*
X146774285Y-62945714D01*
X146964761Y-62945714D01*
X147060000Y-62993333D01*
X147107619Y-63088571D01*
X147107619Y-63183809D01*
X146631428Y-63279047D01*
X147298095Y-63707619D02*
X148060000Y-63707619D01*
X148298095Y-63612380D02*
X148298095Y-62612380D01*
X148631428Y-63326666D01*
X148964761Y-62612380D01*
X148964761Y-63612380D01*
X149583809Y-63612380D02*
X149488571Y-63564761D01*
X149440952Y-63517142D01*
X149393333Y-63421904D01*
X149393333Y-63136190D01*
X149440952Y-63040952D01*
X149488571Y-62993333D01*
X149583809Y-62945714D01*
X149726666Y-62945714D01*
X149821904Y-62993333D01*
X149869523Y-63040952D01*
X149917142Y-63136190D01*
X149917142Y-63421904D01*
X149869523Y-63517142D01*
X149821904Y-63564761D01*
X149726666Y-63612380D01*
X149583809Y-63612380D01*
X150774285Y-62945714D02*
X150774285Y-63612380D01*
X150345714Y-62945714D02*
X150345714Y-63469523D01*
X150393333Y-63564761D01*
X150488571Y-63612380D01*
X150631428Y-63612380D01*
X150726666Y-63564761D01*
X150774285Y-63517142D01*
X151250476Y-62945714D02*
X151250476Y-63612380D01*
X151250476Y-63040952D02*
X151298095Y-62993333D01*
X151393333Y-62945714D01*
X151536190Y-62945714D01*
X151631428Y-62993333D01*
X151679047Y-63088571D01*
X151679047Y-63612380D01*
X152012380Y-62945714D02*
X152393333Y-62945714D01*
X152155238Y-62612380D02*
X152155238Y-63469523D01*
X152202857Y-63564761D01*
X152298095Y-63612380D01*
X152393333Y-63612380D01*
X152726666Y-63612380D02*
X152726666Y-62945714D01*
X152726666Y-62612380D02*
X152679047Y-62660000D01*
X152726666Y-62707619D01*
X152774285Y-62660000D01*
X152726666Y-62612380D01*
X152726666Y-62707619D01*
X153202857Y-62945714D02*
X153202857Y-63612380D01*
X153202857Y-63040952D02*
X153250476Y-62993333D01*
X153345714Y-62945714D01*
X153488571Y-62945714D01*
X153583809Y-62993333D01*
X153631428Y-63088571D01*
X153631428Y-63612380D01*
X154536190Y-62945714D02*
X154536190Y-63755238D01*
X154488571Y-63850476D01*
X154440952Y-63898095D01*
X154345714Y-63945714D01*
X154202857Y-63945714D01*
X154107619Y-63898095D01*
X154536190Y-63564761D02*
X154440952Y-63612380D01*
X154250476Y-63612380D01*
X154155238Y-63564761D01*
X154107619Y-63517142D01*
X154060000Y-63421904D01*
X154060000Y-63136190D01*
X154107619Y-63040952D01*
X154155238Y-62993333D01*
X154250476Y-62945714D01*
X154440952Y-62945714D01*
X154536190Y-62993333D01*
X155012380Y-63612380D02*
X155012380Y-62612380D01*
X155012380Y-63088571D02*
X155583809Y-63088571D01*
X155583809Y-63612380D02*
X155583809Y-62612380D01*
X156202857Y-63612380D02*
X156107619Y-63564761D01*
X156060000Y-63517142D01*
X156012380Y-63421904D01*
X156012380Y-63136190D01*
X156060000Y-63040952D01*
X156107619Y-62993333D01*
X156202857Y-62945714D01*
X156345714Y-62945714D01*
X156440952Y-62993333D01*
X156488571Y-63040952D01*
X156536190Y-63136190D01*
X156536190Y-63421904D01*
X156488571Y-63517142D01*
X156440952Y-63564761D01*
X156345714Y-63612380D01*
X156202857Y-63612380D01*
X157107619Y-63612380D02*
X157012380Y-63564761D01*
X156964761Y-63469523D01*
X156964761Y-62612380D01*
X157869523Y-63564761D02*
X157774285Y-63612380D01*
X157583809Y-63612380D01*
X157488571Y-63564761D01*
X157440952Y-63469523D01*
X157440952Y-63088571D01*
X157488571Y-62993333D01*
X157583809Y-62945714D01*
X157774285Y-62945714D01*
X157869523Y-62993333D01*
X157917142Y-63088571D01*
X157917142Y-63183809D01*
X157440952Y-63279047D01*
X158298095Y-63564761D02*
X158393333Y-63612380D01*
X158583809Y-63612380D01*
X158679047Y-63564761D01*
X158726666Y-63469523D01*
X158726666Y-63421904D01*
X158679047Y-63326666D01*
X158583809Y-63279047D01*
X158440952Y-63279047D01*
X158345714Y-63231428D01*
X158298095Y-63136190D01*
X158298095Y-63088571D01*
X158345714Y-62993333D01*
X158440952Y-62945714D01*
X158583809Y-62945714D01*
X158679047Y-62993333D01*
X156880000Y-66752380D02*
X156880000Y-66990476D01*
X156641904Y-66895238D02*
X156880000Y-66990476D01*
X157118095Y-66895238D01*
X156737142Y-67180952D02*
X156880000Y-66990476D01*
X157022857Y-67180952D01*
%TO.C,J1*%
X131266666Y-59402380D02*
X131266666Y-60116666D01*
X131219047Y-60259523D01*
X131123809Y-60354761D01*
X130980952Y-60402380D01*
X130885714Y-60402380D01*
X132266666Y-60402380D02*
X131695238Y-60402380D01*
X131980952Y-60402380D02*
X131980952Y-59402380D01*
X131885714Y-59545238D01*
X131790476Y-59640476D01*
X131695238Y-59688095D01*
D12*
%TO.C,J2*%
X117710000Y-58500000D02*
X117710000Y-52500000D01*
X117590000Y-58500000D02*
X117590000Y-52500000D01*
X117350000Y-58500000D02*
X117350000Y-52500000D01*
X117230000Y-58500000D02*
X117230000Y-52500000D01*
X119710000Y-52500000D02*
X120470000Y-52500000D01*
X119710000Y-58500000D02*
X119710000Y-52500000D01*
X117470000Y-58500000D02*
X117470000Y-52500000D01*
X117930000Y-52500000D02*
X117930000Y-58500000D01*
X117930000Y-61490000D02*
X117930000Y-61160000D01*
X117830000Y-58500000D02*
X117830000Y-52500000D01*
X116220000Y-61160000D02*
X121420000Y-61160000D01*
X120470000Y-52500000D02*
X120470000Y-58500000D01*
X117170000Y-61490000D02*
X117170000Y-61160000D01*
X117170000Y-52500000D02*
X117930000Y-52500000D01*
X121420000Y-61160000D02*
X121420000Y-58500000D01*
X116280000Y-63870000D02*
X116280000Y-62600000D01*
X117550000Y-63870000D02*
X116280000Y-63870000D01*
X118820000Y-61160000D02*
X118820000Y-58500000D01*
X121420000Y-58500000D02*
X116220000Y-58500000D01*
X116220000Y-58500000D02*
X116220000Y-61160000D01*
X117170000Y-58500000D02*
X117170000Y-52500000D01*
X119710000Y-61557071D02*
X119710000Y-61160000D01*
X120470000Y-61557071D02*
X120470000Y-61160000D01*
%TO.C,J3*%
X153439121Y-68027000D02*
X153970879Y-68027000D01*
X142009121Y-68027000D02*
X142540879Y-68027000D01*
X144549121Y-68027000D02*
X145080879Y-68027000D01*
X148359121Y-68027000D02*
X148890879Y-68027000D01*
X164512700Y-68027000D02*
X164512700Y-52863200D01*
X134007300Y-68027000D02*
X141270879Y-68027000D01*
X155979121Y-68027000D02*
X156510879Y-68027000D01*
X150899121Y-68027000D02*
X151430879Y-68027000D01*
X157249121Y-68027000D02*
X164512700Y-68027000D01*
X145819121Y-68027000D02*
X146350879Y-68027000D01*
X152169121Y-68027000D02*
X152700879Y-68027000D01*
X143279121Y-68027000D02*
X143810879Y-68027000D01*
X164512700Y-52863200D02*
X134007300Y-52863200D01*
X134007300Y-52863200D02*
X134007300Y-68027000D01*
X147089121Y-68027000D02*
X147620879Y-68027000D01*
X154709121Y-68027000D02*
X155240879Y-68027000D01*
X149629121Y-68027000D02*
X150160879Y-68027000D01*
X166671700Y-66630000D02*
G75*
G03*
X166671700Y-66630000I-381000J0D01*
G01*
%TO.C,J1*%
X126250000Y-58500000D02*
X126250000Y-52500000D01*
X126610000Y-58500000D02*
X126610000Y-52500000D01*
X129370000Y-52500000D02*
X129370000Y-58500000D01*
X128610000Y-61557071D02*
X128610000Y-61160000D01*
X127720000Y-61160000D02*
X127720000Y-58500000D01*
X126450000Y-63870000D02*
X125180000Y-63870000D01*
X126490000Y-58500000D02*
X126490000Y-52500000D01*
X125120000Y-61160000D02*
X130320000Y-61160000D01*
X130320000Y-58500000D02*
X125120000Y-58500000D01*
X126070000Y-58500000D02*
X126070000Y-52500000D01*
X126130000Y-58500000D02*
X126130000Y-52500000D01*
X125180000Y-63870000D02*
X125180000Y-62600000D01*
X126070000Y-61490000D02*
X126070000Y-61160000D01*
X126830000Y-61490000D02*
X126830000Y-61160000D01*
X126370000Y-58500000D02*
X126370000Y-52500000D01*
X128610000Y-58500000D02*
X128610000Y-52500000D01*
X129370000Y-61557071D02*
X129370000Y-61160000D01*
X126730000Y-58500000D02*
X126730000Y-52500000D01*
X125120000Y-58500000D02*
X125120000Y-61160000D01*
X128610000Y-52500000D02*
X129370000Y-52500000D01*
X126830000Y-52500000D02*
X126830000Y-58500000D01*
X126070000Y-52500000D02*
X126830000Y-52500000D01*
X130320000Y-61160000D02*
X130320000Y-58500000D01*
%TD*%
M02*
