M48
; DRILL file {KiCad (6.0.5)} date Fri Jul 15 11:56:53 2022
; FORMAT={-:-/ absolute / inch / decimal}
; #@! TF.CreationDate,2022-07-15T11:56:53-06:00
; #@! TF.GenerationSoftware,Kicad,Pcbnew,(6.0.5)
; #@! TF.FileFunction,Plated,1,2,PTH
FMAT,2
INCH
; #@! TA.AperFunction,Plated,PTH,ComponentDrill
T1C0.0280
; #@! TA.AperFunction,Plated,PTH,ComponentDrill
T2C0.0394
; #@! TA.AperFunction,Plated,PTH,ComponentDrill
T3C0.0402
; #@! TA.AperFunction,Plated,PTH,ComponentDrill
T4C0.1060
%
G90
G05
T1
X5.5764Y-2.6496
X5.6014Y-2.5496
X5.6264Y-2.6496
X5.6514Y-2.5496
X5.6764Y-2.6496
X5.7014Y-2.5496
X5.7264Y-2.6496
X5.7514Y-2.5496
X5.7764Y-2.6496
X5.8014Y-2.5496
X5.8264Y-2.6496
X5.8514Y-2.5496
X5.8764Y-2.6496
X5.9014Y-2.5496
X5.9264Y-2.6496
X5.9514Y-2.5496
X5.9764Y-2.6496
X6.0014Y-2.5496
X6.0264Y-2.6496
X6.0514Y-2.5496
X6.0764Y-2.6496
X6.1014Y-2.5496
X6.1264Y-2.6496
X6.1514Y-2.5496
X6.1764Y-2.6496
T2
X4.628Y-2.4646
X4.728Y-2.4646
X4.9783Y-2.4646
X5.0783Y-2.4646
T3
X5.4876Y-3.1371
X5.5376Y-3.0371
X5.5376Y-3.2371
X5.5876Y-3.1371
X5.6376Y-3.0371
X5.6376Y-3.2371
X5.6876Y-3.1371
X5.7376Y-3.0371
X5.7376Y-3.2371
X5.7876Y-3.1371
X5.8376Y-3.0371
X5.8376Y-3.2371
X5.8876Y-3.1371
X5.9376Y-3.0371
X5.9376Y-3.2371
X5.9876Y-3.1371
X6.0376Y-3.0371
X6.0376Y-3.2371
X6.0876Y-3.1371
X6.1376Y-3.0371
X6.1376Y-3.2371
X6.1876Y-3.1371
X6.2376Y-3.0371
X6.2376Y-3.2371
X6.2876Y-3.1371
T4
X5.3941Y-2.4996
X6.3587Y-2.4996
T0
M30
