%TF.GenerationSoftware,KiCad,Pcbnew,(6.0.5)*%
%TF.CreationDate,2022-07-15T10:42:52-06:00*%
%TF.ProjectId,25to25,3235746f-3235-42e6-9b69-6361645f7063,rev?*%
%TF.SameCoordinates,Original*%
%TF.FileFunction,Copper,L2,Bot*%
%TF.FilePolarity,Positive*%
%FSLAX46Y46*%
G04 Gerber Fmt 4.6, Leading zero omitted, Abs format (unit mm)*
G04 Created by KiCad (PCBNEW (6.0.5)) date 2022-07-15 10:42:52*
%MOMM*%
%LPD*%
G01*
G04 APERTURE LIST*
%TA.AperFunction,ComponentPad*%
%ADD10C,1.530000*%
%TD*%
%TA.AperFunction,ComponentPad*%
%ADD11R,1.700000X1.700000*%
%TD*%
%TA.AperFunction,ComponentPad*%
%ADD12O,1.700000X1.700000*%
%TD*%
%TA.AperFunction,ComponentPad*%
%ADD13C,3.200400*%
%TD*%
%TA.AperFunction,ComponentPad*%
%ADD14C,0.965200*%
%TD*%
%TA.AperFunction,Conductor*%
%ADD15C,0.127000*%
%TD*%
G04 APERTURE END LIST*
D10*
%TO.P,J4,1,1*%
%TO.N,Net-(J3-Pad1)*%
X139385033Y-76483276D03*
%TO.P,J4,2,2*%
%TO.N,Net-(J3-Pad2)*%
X140655033Y-79023276D03*
%TO.P,J4,3,3*%
%TO.N,Net-(J3-Pad3)*%
X143195033Y-79023276D03*
%TO.P,J4,4,4*%
%TO.N,Net-(J3-Pad4)*%
X145735033Y-79023276D03*
%TO.P,J4,5,5*%
%TO.N,Net-(J3-Pad5)*%
X147005033Y-76483276D03*
%TO.P,J4,6,6*%
%TO.N,Net-(J3-Pad6)*%
X148275033Y-79023276D03*
%TO.P,J4,7,7*%
%TO.N,Net-(J3-Pad7)*%
X149545033Y-76483276D03*
%TO.P,J4,8,8*%
%TO.N,Net-(J3-Pad8)*%
X150815033Y-79023276D03*
%TO.P,J4,9,9*%
%TO.N,Net-(J1-Pad1)*%
X152085033Y-76483276D03*
%TO.P,J4,10,10*%
%TO.N,Net-(J2-Pad1)*%
X153355033Y-79023276D03*
%TO.P,J4,11,11*%
%TO.N,Net-(J3-Pad11)*%
X155895033Y-79023276D03*
%TO.P,J4,12,12*%
%TO.N,Net-(J3-Pad12)*%
X158435033Y-79023276D03*
%TO.P,J4,13,13*%
%TO.N,Net-(J3-Pad13)*%
X159705033Y-76483276D03*
%TO.P,J4,14,P14*%
%TO.N,Net-(J3-Pad14)*%
X140655033Y-73943276D03*
%TO.P,J4,15,P15*%
%TO.N,Net-(J3-Pad15)*%
X141925033Y-76483276D03*
%TO.P,J4,16,P16*%
%TO.N,Net-(J3-Pad16)*%
X143195033Y-73943276D03*
%TO.P,J4,17,P17*%
%TO.N,Net-(J3-Pad17)*%
X144465033Y-76483276D03*
%TO.P,J4,18,P18*%
%TO.N,Net-(J3-Pad18)*%
X145735033Y-73943276D03*
%TO.P,J4,19,P19*%
%TO.N,Net-(J3-Pad19)*%
X148275033Y-73943276D03*
%TO.P,J4,20,P20*%
%TO.N,Net-(J3-Pad20)*%
X150815033Y-73943276D03*
%TO.P,J4,21,P21*%
%TO.N,Net-(J3-Pad21)*%
X153355033Y-73943276D03*
%TO.P,J4,22,P22*%
%TO.N,Net-(J1-Pad2)*%
X154625033Y-76483276D03*
%TO.P,J4,23,P23*%
%TO.N,Net-(J2-Pad2)*%
X155895033Y-73943276D03*
%TO.P,J4,24,P24*%
%TO.N,Net-(J3-Pad24)*%
X157165033Y-76483276D03*
%TO.P,J4,25,P25*%
%TO.N,Net-(J3-Pad25)*%
X158435033Y-73943276D03*
%TD*%
D11*
%TO.P,J2,1,Pin_1*%
%TO.N,Net-(J2-Pad1)*%
X117550000Y-62600000D03*
D12*
%TO.P,J2,2,Pin_2*%
%TO.N,Net-(J2-Pad2)*%
X120090000Y-62600000D03*
%TD*%
D11*
%TO.P,J1,1,Pin_1*%
%TO.N,Net-(J1-Pad1)*%
X126450000Y-62600000D03*
D12*
%TO.P,J1,2,Pin_2*%
%TO.N,Net-(J1-Pad2)*%
X128990000Y-62600000D03*
%TD*%
D13*
%TO.P,J3,0,PAD*%
%TO.N,GND*%
X161550001Y-63490000D03*
X137049999Y-63490000D03*
D14*
%TO.P,J3,1,1*%
%TO.N,Net-(J3-Pad1)*%
X141680000Y-67300000D03*
%TO.P,J3,2,2*%
%TO.N,Net-(J3-Pad2)*%
X142950000Y-67300000D03*
%TO.P,J3,3,3*%
%TO.N,Net-(J3-Pad3)*%
X144220000Y-67300000D03*
%TO.P,J3,4,4*%
%TO.N,Net-(J3-Pad4)*%
X145490000Y-67300000D03*
%TO.P,J3,5,5*%
%TO.N,Net-(J3-Pad5)*%
X146760000Y-67300000D03*
%TO.P,J3,6,6*%
%TO.N,Net-(J3-Pad6)*%
X148030000Y-67300000D03*
%TO.P,J3,7,7*%
%TO.N,Net-(J3-Pad7)*%
X149300000Y-67300000D03*
%TO.P,J3,8,8*%
%TO.N,Net-(J3-Pad8)*%
X150570000Y-67300000D03*
%TO.P,J3,9,9*%
%TO.N,Net-(J1-Pad1)*%
X151840000Y-67300000D03*
%TO.P,J3,10,10*%
%TO.N,Net-(J2-Pad1)*%
X153110000Y-67300000D03*
%TO.P,J3,11,11*%
%TO.N,Net-(J3-Pad11)*%
X154380000Y-67300000D03*
%TO.P,J3,12,12*%
%TO.N,Net-(J3-Pad12)*%
X155650000Y-67300000D03*
%TO.P,J3,13,13*%
%TO.N,Net-(J3-Pad13)*%
X156920000Y-67300000D03*
%TO.P,J3,14,P14*%
%TO.N,Net-(J3-Pad14)*%
X142315000Y-64760000D03*
%TO.P,J3,15,P15*%
%TO.N,Net-(J3-Pad15)*%
X143585000Y-64760000D03*
%TO.P,J3,16,P16*%
%TO.N,Net-(J3-Pad16)*%
X144855000Y-64760000D03*
%TO.P,J3,17,P17*%
%TO.N,Net-(J3-Pad17)*%
X146125000Y-64760000D03*
%TO.P,J3,18,P18*%
%TO.N,Net-(J3-Pad18)*%
X147395000Y-64760000D03*
%TO.P,J3,19,P19*%
%TO.N,Net-(J3-Pad19)*%
X148665000Y-64760000D03*
%TO.P,J3,20,P20*%
%TO.N,Net-(J3-Pad20)*%
X149935000Y-64760000D03*
%TO.P,J3,21,P21*%
%TO.N,Net-(J3-Pad21)*%
X151205000Y-64760000D03*
%TO.P,J3,22,P22*%
%TO.N,Net-(J1-Pad2)*%
X152475000Y-64760000D03*
%TO.P,J3,23,P23*%
%TO.N,Net-(J2-Pad2)*%
X153745000Y-64760000D03*
%TO.P,J3,24,P24*%
%TO.N,Net-(J3-Pad24)*%
X155015000Y-64760000D03*
%TO.P,J3,25,P25*%
%TO.N,Net-(J3-Pad25)*%
X156285000Y-64760000D03*
%TD*%
D15*
%TO.N,Net-(J2-Pad2)*%
X121316520Y-61373480D02*
X120090000Y-62600000D01*
X153745000Y-64760000D02*
X150358480Y-61373480D01*
X150358480Y-61373480D02*
X121316520Y-61373480D01*
%TO.N,Net-(J1-Pad2)*%
X129990000Y-61600000D02*
X128990000Y-62600000D01*
X149315000Y-61600000D02*
X129990000Y-61600000D01*
X152475000Y-64760000D02*
X149315000Y-61600000D01*
%TO.N,Net-(J3-Pad14)*%
X141705230Y-64760000D02*
X142315000Y-64760000D01*
X139901789Y-66563441D02*
X141705230Y-64760000D01*
X139901789Y-68442484D02*
X139901789Y-66563441D01*
X140655033Y-69195729D02*
X139901789Y-68442484D01*
X140655033Y-73943276D02*
X140655033Y-69195729D01*
%TO.N,Net-(J3-Pad15)*%
X141192268Y-65593309D02*
X142751691Y-65593309D01*
X140128309Y-68348657D02*
X140128309Y-66657268D01*
X140128309Y-66657268D02*
X141192268Y-65593309D01*
X141925033Y-70145381D02*
X140128309Y-68348657D01*
X141925033Y-76483276D02*
X141925033Y-70145381D01*
X143585000Y-64760000D02*
X142751691Y-65593309D01*
%TO.N,Net-(J3-Pad16)*%
X143195033Y-70404967D02*
X142790066Y-70000000D01*
X142790066Y-70000000D02*
X142100000Y-70000000D01*
X143195033Y-73943276D02*
X143195033Y-70404967D01*
X140354829Y-68254829D02*
X142100000Y-70000000D01*
X140354829Y-66751095D02*
X140354829Y-68254829D01*
X141286095Y-65819829D02*
X140354829Y-66751095D01*
X144855000Y-65819829D02*
X141286095Y-65819829D01*
X144855000Y-64760000D02*
X144855000Y-65819829D01*
%TO.N,Net-(J3-Pad25)*%
X158800000Y-68450000D02*
X158435033Y-68814967D01*
X158800000Y-66600000D02*
X158800000Y-68450000D01*
X157716789Y-65516789D02*
X158800000Y-66600000D01*
X157041789Y-65516789D02*
X157716789Y-65516789D01*
X156285000Y-64760000D02*
X157041789Y-65516789D01*
X158435033Y-73943276D02*
X158435033Y-68814967D01*
%TO.N,Net-(J3-Pad24)*%
X157557731Y-65743309D02*
X155998309Y-65743309D01*
X155998309Y-65743309D02*
X155015000Y-64760000D01*
X158471691Y-66657270D02*
X157557731Y-65743309D01*
X158471691Y-68278309D02*
X158471691Y-66657270D01*
X157165033Y-69584967D02*
X158471691Y-68278309D01*
X157165033Y-76483276D02*
X157165033Y-69584967D01*
%TO.N,Net-(J2-Pad2)*%
X158245171Y-68075177D02*
X155895033Y-70425315D01*
X158245171Y-66751097D02*
X158245171Y-68075177D01*
X155895033Y-70425315D02*
X155895033Y-73943276D01*
X153745000Y-65969829D02*
X157463903Y-65969829D01*
X153745000Y-64760000D02*
X153745000Y-65969829D01*
X157463903Y-65969829D02*
X158245171Y-66751097D01*
%TO.N,Net-(J3-Pad17)*%
X146125000Y-65875000D02*
X146125000Y-64760000D01*
X145798651Y-66201349D02*
X146125000Y-65875000D01*
X141224923Y-66201349D02*
X145798651Y-66201349D01*
X140581349Y-68151696D02*
X140581349Y-66844923D01*
X144226520Y-69726520D02*
X142156172Y-69726520D01*
X142156172Y-69726520D02*
X140581349Y-68151696D01*
X144465033Y-69965033D02*
X144226520Y-69726520D01*
X140581349Y-66844923D02*
X141224923Y-66201349D01*
X144465033Y-76483276D02*
X144465033Y-69965033D01*
%TO.N,Net-(J1-Pad2)*%
X154625033Y-70124967D02*
X155000000Y-69750000D01*
X154625033Y-76483276D02*
X154625033Y-70124967D01*
X158018651Y-66844924D02*
X158018651Y-67981349D01*
X156250000Y-69750000D02*
X155000000Y-69750000D01*
X152701349Y-66201349D02*
X157375076Y-66201349D01*
X152475000Y-65975000D02*
X152701349Y-66201349D01*
X157375076Y-66201349D02*
X158018651Y-66844924D01*
X152475000Y-64760000D02*
X152475000Y-65975000D01*
X158018651Y-67981349D02*
X156250000Y-69750000D01*
%TO.N,Net-(J3-Pad18)*%
X147395000Y-66105000D02*
X147395000Y-64760000D01*
X141318751Y-66427869D02*
X147072131Y-66427869D01*
X140807869Y-66938751D02*
X141318751Y-66427869D01*
X147072131Y-66427869D02*
X147395000Y-66105000D01*
X140807869Y-68057869D02*
X140807869Y-66938751D01*
X145000000Y-69500000D02*
X142250000Y-69500000D01*
X145735033Y-70235033D02*
X145000000Y-69500000D01*
X142250000Y-69500000D02*
X140807869Y-68057869D01*
X145735033Y-73943276D02*
X145735033Y-70235033D01*
%TO.N,Net-(J3-Pad21)*%
X153355033Y-70394967D02*
X154250000Y-69500000D01*
X153355033Y-73943276D02*
X153355033Y-70394967D01*
X157281249Y-66427869D02*
X157792131Y-66938751D01*
X156070348Y-69500000D02*
X154250000Y-69500000D01*
X151500000Y-66427869D02*
X157281249Y-66427869D01*
X151205000Y-66132869D02*
X151500000Y-66427869D01*
X157792131Y-66938751D02*
X157792131Y-67778217D01*
X151205000Y-64760000D02*
X151205000Y-66132869D01*
X157792131Y-67778217D02*
X156070348Y-69500000D01*
%TO.N,Net-(J3-Pad20)*%
X150815033Y-69684967D02*
X151250000Y-69250000D01*
X151250000Y-69250000D02*
X156000000Y-69250000D01*
X150815033Y-73943276D02*
X150815033Y-69684967D01*
X157565611Y-67684389D02*
X156000000Y-69250000D01*
X157187422Y-66654389D02*
X157565611Y-67032578D01*
X157565611Y-67032578D02*
X157565611Y-67684389D01*
X150904389Y-66654389D02*
X157187422Y-66654389D01*
X149935000Y-64760000D02*
X149935000Y-65685000D01*
X149935000Y-65685000D02*
X150904389Y-66654389D01*
%TO.N,Net-(J3-Pad19)*%
X148275033Y-73943276D02*
X148275033Y-69775033D01*
X148275033Y-69775033D02*
X147750000Y-69250000D01*
X142500000Y-69250000D02*
X147750000Y-69250000D01*
X141034389Y-67784389D02*
X142500000Y-69250000D01*
X141034389Y-67032578D02*
X141034389Y-67784389D01*
X141412578Y-66654389D02*
X141034389Y-67032578D01*
X148665000Y-65751967D02*
X147762578Y-66654389D01*
X147762578Y-66654389D02*
X141412578Y-66654389D01*
X148665000Y-64760000D02*
X148665000Y-65751967D01*
%TD*%
%TA.AperFunction,Conductor*%
%TO.N,GND*%
G36*
X164933621Y-59028502D02*
G01*
X164980114Y-59082158D01*
X164991500Y-59134500D01*
X164991500Y-82165500D01*
X164971498Y-82233621D01*
X164917842Y-82280114D01*
X164865500Y-82291500D01*
X133834500Y-82291500D01*
X133766379Y-82271498D01*
X133719886Y-82217842D01*
X133708500Y-82165500D01*
X133708500Y-79023276D01*
X139376668Y-79023276D01*
X139396089Y-79245262D01*
X139453763Y-79460503D01*
X139456085Y-79465484D01*
X139456086Y-79465485D01*
X139545610Y-79657471D01*
X139545613Y-79657476D01*
X139547936Y-79662458D01*
X139675749Y-79844993D01*
X139833316Y-80002560D01*
X140015850Y-80130373D01*
X140020832Y-80132696D01*
X140020837Y-80132699D01*
X140212824Y-80222223D01*
X140217806Y-80224546D01*
X140223114Y-80225968D01*
X140223116Y-80225969D01*
X140289498Y-80243756D01*
X140433047Y-80282220D01*
X140655033Y-80301641D01*
X140877019Y-80282220D01*
X141020568Y-80243756D01*
X141086950Y-80225969D01*
X141086952Y-80225968D01*
X141092260Y-80224546D01*
X141097242Y-80222223D01*
X141289229Y-80132699D01*
X141289234Y-80132696D01*
X141294216Y-80130373D01*
X141476750Y-80002560D01*
X141634317Y-79844993D01*
X141762130Y-79662458D01*
X141764453Y-79657476D01*
X141764456Y-79657471D01*
X141810838Y-79558003D01*
X141857755Y-79504718D01*
X141926032Y-79485257D01*
X141993992Y-79505799D01*
X142039228Y-79558003D01*
X142085610Y-79657471D01*
X142085613Y-79657476D01*
X142087936Y-79662458D01*
X142215749Y-79844993D01*
X142373316Y-80002560D01*
X142555850Y-80130373D01*
X142560832Y-80132696D01*
X142560837Y-80132699D01*
X142752824Y-80222223D01*
X142757806Y-80224546D01*
X142763114Y-80225968D01*
X142763116Y-80225969D01*
X142829498Y-80243756D01*
X142973047Y-80282220D01*
X143195033Y-80301641D01*
X143417019Y-80282220D01*
X143560568Y-80243756D01*
X143626950Y-80225969D01*
X143626952Y-80225968D01*
X143632260Y-80224546D01*
X143637242Y-80222223D01*
X143829229Y-80132699D01*
X143829234Y-80132696D01*
X143834216Y-80130373D01*
X144016750Y-80002560D01*
X144174317Y-79844993D01*
X144302130Y-79662458D01*
X144304453Y-79657476D01*
X144304456Y-79657471D01*
X144350838Y-79558003D01*
X144397755Y-79504718D01*
X144466032Y-79485257D01*
X144533992Y-79505799D01*
X144579228Y-79558003D01*
X144625610Y-79657471D01*
X144625613Y-79657476D01*
X144627936Y-79662458D01*
X144755749Y-79844993D01*
X144913316Y-80002560D01*
X145095850Y-80130373D01*
X145100832Y-80132696D01*
X145100837Y-80132699D01*
X145292824Y-80222223D01*
X145297806Y-80224546D01*
X145303114Y-80225968D01*
X145303116Y-80225969D01*
X145369498Y-80243756D01*
X145513047Y-80282220D01*
X145735033Y-80301641D01*
X145957019Y-80282220D01*
X146100568Y-80243756D01*
X146166950Y-80225969D01*
X146166952Y-80225968D01*
X146172260Y-80224546D01*
X146177242Y-80222223D01*
X146369229Y-80132699D01*
X146369234Y-80132696D01*
X146374216Y-80130373D01*
X146556750Y-80002560D01*
X146714317Y-79844993D01*
X146842130Y-79662458D01*
X146844453Y-79657476D01*
X146844456Y-79657471D01*
X146890838Y-79558003D01*
X146937755Y-79504718D01*
X147006032Y-79485257D01*
X147073992Y-79505799D01*
X147119228Y-79558003D01*
X147165610Y-79657471D01*
X147165613Y-79657476D01*
X147167936Y-79662458D01*
X147295749Y-79844993D01*
X147453316Y-80002560D01*
X147635850Y-80130373D01*
X147640832Y-80132696D01*
X147640837Y-80132699D01*
X147832824Y-80222223D01*
X147837806Y-80224546D01*
X147843114Y-80225968D01*
X147843116Y-80225969D01*
X147909498Y-80243756D01*
X148053047Y-80282220D01*
X148275033Y-80301641D01*
X148497019Y-80282220D01*
X148640568Y-80243756D01*
X148706950Y-80225969D01*
X148706952Y-80225968D01*
X148712260Y-80224546D01*
X148717242Y-80222223D01*
X148909229Y-80132699D01*
X148909234Y-80132696D01*
X148914216Y-80130373D01*
X149096750Y-80002560D01*
X149254317Y-79844993D01*
X149382130Y-79662458D01*
X149384453Y-79657476D01*
X149384456Y-79657471D01*
X149430838Y-79558003D01*
X149477755Y-79504718D01*
X149546032Y-79485257D01*
X149613992Y-79505799D01*
X149659228Y-79558003D01*
X149705610Y-79657471D01*
X149705613Y-79657476D01*
X149707936Y-79662458D01*
X149835749Y-79844993D01*
X149993316Y-80002560D01*
X150175850Y-80130373D01*
X150180832Y-80132696D01*
X150180837Y-80132699D01*
X150372824Y-80222223D01*
X150377806Y-80224546D01*
X150383114Y-80225968D01*
X150383116Y-80225969D01*
X150449498Y-80243756D01*
X150593047Y-80282220D01*
X150815033Y-80301641D01*
X151037019Y-80282220D01*
X151180568Y-80243756D01*
X151246950Y-80225969D01*
X151246952Y-80225968D01*
X151252260Y-80224546D01*
X151257242Y-80222223D01*
X151449229Y-80132699D01*
X151449234Y-80132696D01*
X151454216Y-80130373D01*
X151636750Y-80002560D01*
X151794317Y-79844993D01*
X151922130Y-79662458D01*
X151924453Y-79657476D01*
X151924456Y-79657471D01*
X151970838Y-79558003D01*
X152017755Y-79504718D01*
X152086032Y-79485257D01*
X152153992Y-79505799D01*
X152199228Y-79558003D01*
X152245610Y-79657471D01*
X152245613Y-79657476D01*
X152247936Y-79662458D01*
X152375749Y-79844993D01*
X152533316Y-80002560D01*
X152715850Y-80130373D01*
X152720832Y-80132696D01*
X152720837Y-80132699D01*
X152912824Y-80222223D01*
X152917806Y-80224546D01*
X152923114Y-80225968D01*
X152923116Y-80225969D01*
X152989498Y-80243756D01*
X153133047Y-80282220D01*
X153355033Y-80301641D01*
X153577019Y-80282220D01*
X153720568Y-80243756D01*
X153786950Y-80225969D01*
X153786952Y-80225968D01*
X153792260Y-80224546D01*
X153797242Y-80222223D01*
X153989229Y-80132699D01*
X153989234Y-80132696D01*
X153994216Y-80130373D01*
X154176750Y-80002560D01*
X154334317Y-79844993D01*
X154462130Y-79662458D01*
X154464453Y-79657476D01*
X154464456Y-79657471D01*
X154510838Y-79558003D01*
X154557755Y-79504718D01*
X154626032Y-79485257D01*
X154693992Y-79505799D01*
X154739228Y-79558003D01*
X154785610Y-79657471D01*
X154785613Y-79657476D01*
X154787936Y-79662458D01*
X154915749Y-79844993D01*
X155073316Y-80002560D01*
X155255850Y-80130373D01*
X155260832Y-80132696D01*
X155260837Y-80132699D01*
X155452824Y-80222223D01*
X155457806Y-80224546D01*
X155463114Y-80225968D01*
X155463116Y-80225969D01*
X155529498Y-80243756D01*
X155673047Y-80282220D01*
X155895033Y-80301641D01*
X156117019Y-80282220D01*
X156260568Y-80243756D01*
X156326950Y-80225969D01*
X156326952Y-80225968D01*
X156332260Y-80224546D01*
X156337242Y-80222223D01*
X156529229Y-80132699D01*
X156529234Y-80132696D01*
X156534216Y-80130373D01*
X156716750Y-80002560D01*
X156874317Y-79844993D01*
X157002130Y-79662458D01*
X157004453Y-79657476D01*
X157004456Y-79657471D01*
X157050838Y-79558003D01*
X157097755Y-79504718D01*
X157166032Y-79485257D01*
X157233992Y-79505799D01*
X157279228Y-79558003D01*
X157325610Y-79657471D01*
X157325613Y-79657476D01*
X157327936Y-79662458D01*
X157455749Y-79844993D01*
X157613316Y-80002560D01*
X157795850Y-80130373D01*
X157800832Y-80132696D01*
X157800837Y-80132699D01*
X157992824Y-80222223D01*
X157997806Y-80224546D01*
X158003114Y-80225968D01*
X158003116Y-80225969D01*
X158069498Y-80243756D01*
X158213047Y-80282220D01*
X158435033Y-80301641D01*
X158657019Y-80282220D01*
X158800568Y-80243756D01*
X158866950Y-80225969D01*
X158866952Y-80225968D01*
X158872260Y-80224546D01*
X158877242Y-80222223D01*
X159069229Y-80132699D01*
X159069234Y-80132696D01*
X159074216Y-80130373D01*
X159256750Y-80002560D01*
X159414317Y-79844993D01*
X159542130Y-79662458D01*
X159544453Y-79657476D01*
X159544456Y-79657471D01*
X159633980Y-79465485D01*
X159633981Y-79465484D01*
X159636303Y-79460503D01*
X159693977Y-79245262D01*
X159713398Y-79023276D01*
X159693977Y-78801290D01*
X159636303Y-78586049D01*
X159590838Y-78488549D01*
X159544456Y-78389081D01*
X159544453Y-78389076D01*
X159542130Y-78384094D01*
X159414317Y-78201559D01*
X159256750Y-78043992D01*
X159074216Y-77916179D01*
X159069234Y-77913856D01*
X159069229Y-77913853D01*
X158877242Y-77824329D01*
X158877241Y-77824329D01*
X158872260Y-77822006D01*
X158866952Y-77820584D01*
X158866950Y-77820583D01*
X158800569Y-77802796D01*
X158657019Y-77764332D01*
X158435033Y-77744911D01*
X158213047Y-77764332D01*
X158069497Y-77802796D01*
X158003116Y-77820583D01*
X158003114Y-77820584D01*
X157997806Y-77822006D01*
X157992825Y-77824328D01*
X157992824Y-77824329D01*
X157800838Y-77913853D01*
X157800833Y-77913856D01*
X157795851Y-77916179D01*
X157613316Y-78043992D01*
X157455749Y-78201559D01*
X157327936Y-78384094D01*
X157325613Y-78389076D01*
X157325610Y-78389081D01*
X157279228Y-78488549D01*
X157232311Y-78541834D01*
X157164034Y-78561295D01*
X157096074Y-78540753D01*
X157050838Y-78488549D01*
X157004456Y-78389081D01*
X157004453Y-78389076D01*
X157002130Y-78384094D01*
X156874317Y-78201559D01*
X156716750Y-78043992D01*
X156534216Y-77916179D01*
X156529234Y-77913856D01*
X156529229Y-77913853D01*
X156337242Y-77824329D01*
X156337241Y-77824329D01*
X156332260Y-77822006D01*
X156326952Y-77820584D01*
X156326950Y-77820583D01*
X156260569Y-77802796D01*
X156117019Y-77764332D01*
X155895033Y-77744911D01*
X155673047Y-77764332D01*
X155529497Y-77802796D01*
X155463116Y-77820583D01*
X155463114Y-77820584D01*
X155457806Y-77822006D01*
X155452825Y-77824328D01*
X155452824Y-77824329D01*
X155260838Y-77913853D01*
X155260833Y-77913856D01*
X155255851Y-77916179D01*
X155073316Y-78043992D01*
X154915749Y-78201559D01*
X154787936Y-78384094D01*
X154785613Y-78389076D01*
X154785610Y-78389081D01*
X154739228Y-78488549D01*
X154692311Y-78541834D01*
X154624034Y-78561295D01*
X154556074Y-78540753D01*
X154510838Y-78488549D01*
X154464456Y-78389081D01*
X154464453Y-78389076D01*
X154462130Y-78384094D01*
X154334317Y-78201559D01*
X154176750Y-78043992D01*
X153994216Y-77916179D01*
X153989234Y-77913856D01*
X153989229Y-77913853D01*
X153797242Y-77824329D01*
X153797241Y-77824329D01*
X153792260Y-77822006D01*
X153786952Y-77820584D01*
X153786950Y-77820583D01*
X153720569Y-77802796D01*
X153577019Y-77764332D01*
X153355033Y-77744911D01*
X153133047Y-77764332D01*
X152989497Y-77802796D01*
X152923116Y-77820583D01*
X152923114Y-77820584D01*
X152917806Y-77822006D01*
X152912825Y-77824328D01*
X152912824Y-77824329D01*
X152720838Y-77913853D01*
X152720833Y-77913856D01*
X152715851Y-77916179D01*
X152533316Y-78043992D01*
X152375749Y-78201559D01*
X152247936Y-78384094D01*
X152245613Y-78389076D01*
X152245610Y-78389081D01*
X152199228Y-78488549D01*
X152152311Y-78541834D01*
X152084034Y-78561295D01*
X152016074Y-78540753D01*
X151970838Y-78488549D01*
X151924456Y-78389081D01*
X151924453Y-78389076D01*
X151922130Y-78384094D01*
X151794317Y-78201559D01*
X151636750Y-78043992D01*
X151454216Y-77916179D01*
X151449234Y-77913856D01*
X151449229Y-77913853D01*
X151257242Y-77824329D01*
X151257241Y-77824329D01*
X151252260Y-77822006D01*
X151246952Y-77820584D01*
X151246950Y-77820583D01*
X151180569Y-77802796D01*
X151037019Y-77764332D01*
X150815033Y-77744911D01*
X150593047Y-77764332D01*
X150449497Y-77802796D01*
X150383116Y-77820583D01*
X150383114Y-77820584D01*
X150377806Y-77822006D01*
X150372825Y-77824328D01*
X150372824Y-77824329D01*
X150180838Y-77913853D01*
X150180833Y-77913856D01*
X150175851Y-77916179D01*
X149993316Y-78043992D01*
X149835749Y-78201559D01*
X149707936Y-78384094D01*
X149705613Y-78389076D01*
X149705610Y-78389081D01*
X149659228Y-78488549D01*
X149612311Y-78541834D01*
X149544034Y-78561295D01*
X149476074Y-78540753D01*
X149430838Y-78488549D01*
X149384456Y-78389081D01*
X149384453Y-78389076D01*
X149382130Y-78384094D01*
X149254317Y-78201559D01*
X149096750Y-78043992D01*
X148914216Y-77916179D01*
X148909234Y-77913856D01*
X148909229Y-77913853D01*
X148717242Y-77824329D01*
X148717241Y-77824329D01*
X148712260Y-77822006D01*
X148706952Y-77820584D01*
X148706950Y-77820583D01*
X148640569Y-77802796D01*
X148497019Y-77764332D01*
X148275033Y-77744911D01*
X148053047Y-77764332D01*
X147909497Y-77802796D01*
X147843116Y-77820583D01*
X147843114Y-77820584D01*
X147837806Y-77822006D01*
X147832825Y-77824328D01*
X147832824Y-77824329D01*
X147640838Y-77913853D01*
X147640833Y-77913856D01*
X147635851Y-77916179D01*
X147453316Y-78043992D01*
X147295749Y-78201559D01*
X147167936Y-78384094D01*
X147165613Y-78389076D01*
X147165610Y-78389081D01*
X147119228Y-78488549D01*
X147072311Y-78541834D01*
X147004034Y-78561295D01*
X146936074Y-78540753D01*
X146890838Y-78488549D01*
X146844456Y-78389081D01*
X146844453Y-78389076D01*
X146842130Y-78384094D01*
X146714317Y-78201559D01*
X146556750Y-78043992D01*
X146374216Y-77916179D01*
X146369234Y-77913856D01*
X146369229Y-77913853D01*
X146177242Y-77824329D01*
X146177241Y-77824329D01*
X146172260Y-77822006D01*
X146166952Y-77820584D01*
X146166950Y-77820583D01*
X146100569Y-77802796D01*
X145957019Y-77764332D01*
X145735033Y-77744911D01*
X145513047Y-77764332D01*
X145369497Y-77802796D01*
X145303116Y-77820583D01*
X145303114Y-77820584D01*
X145297806Y-77822006D01*
X145292825Y-77824328D01*
X145292824Y-77824329D01*
X145100838Y-77913853D01*
X145100833Y-77913856D01*
X145095851Y-77916179D01*
X144913316Y-78043992D01*
X144755749Y-78201559D01*
X144627936Y-78384094D01*
X144625613Y-78389076D01*
X144625610Y-78389081D01*
X144579228Y-78488549D01*
X144532311Y-78541834D01*
X144464034Y-78561295D01*
X144396074Y-78540753D01*
X144350838Y-78488549D01*
X144304456Y-78389081D01*
X144304453Y-78389076D01*
X144302130Y-78384094D01*
X144174317Y-78201559D01*
X144016750Y-78043992D01*
X143834216Y-77916179D01*
X143829234Y-77913856D01*
X143829229Y-77913853D01*
X143637242Y-77824329D01*
X143637241Y-77824329D01*
X143632260Y-77822006D01*
X143626952Y-77820584D01*
X143626950Y-77820583D01*
X143560569Y-77802796D01*
X143417019Y-77764332D01*
X143195033Y-77744911D01*
X142973047Y-77764332D01*
X142829497Y-77802796D01*
X142763116Y-77820583D01*
X142763114Y-77820584D01*
X142757806Y-77822006D01*
X142752825Y-77824328D01*
X142752824Y-77824329D01*
X142560838Y-77913853D01*
X142560833Y-77913856D01*
X142555851Y-77916179D01*
X142373316Y-78043992D01*
X142215749Y-78201559D01*
X142087936Y-78384094D01*
X142085613Y-78389076D01*
X142085610Y-78389081D01*
X142039228Y-78488549D01*
X141992311Y-78541834D01*
X141924034Y-78561295D01*
X141856074Y-78540753D01*
X141810838Y-78488549D01*
X141764456Y-78389081D01*
X141764453Y-78389076D01*
X141762130Y-78384094D01*
X141634317Y-78201559D01*
X141476750Y-78043992D01*
X141294216Y-77916179D01*
X141289234Y-77913856D01*
X141289229Y-77913853D01*
X141097242Y-77824329D01*
X141097241Y-77824329D01*
X141092260Y-77822006D01*
X141086952Y-77820584D01*
X141086950Y-77820583D01*
X141020569Y-77802796D01*
X140877019Y-77764332D01*
X140655033Y-77744911D01*
X140433047Y-77764332D01*
X140289497Y-77802796D01*
X140223116Y-77820583D01*
X140223114Y-77820584D01*
X140217806Y-77822006D01*
X140212825Y-77824328D01*
X140212824Y-77824329D01*
X140020838Y-77913853D01*
X140020833Y-77913856D01*
X140015851Y-77916179D01*
X139833316Y-78043992D01*
X139675749Y-78201559D01*
X139547936Y-78384094D01*
X139545613Y-78389076D01*
X139545610Y-78389081D01*
X139499228Y-78488549D01*
X139453763Y-78586049D01*
X139396089Y-78801290D01*
X139376668Y-79023276D01*
X133708500Y-79023276D01*
X133708500Y-65708623D01*
X133708502Y-65707853D01*
X133708921Y-65639254D01*
X133708976Y-65630279D01*
X133700850Y-65601847D01*
X133697272Y-65585085D01*
X133694352Y-65564698D01*
X133693080Y-65555813D01*
X133682451Y-65532436D01*
X133676004Y-65514913D01*
X133671416Y-65498862D01*
X133668949Y-65490229D01*
X133664156Y-65482632D01*
X133653170Y-65465220D01*
X133645030Y-65450135D01*
X133632792Y-65423218D01*
X133616030Y-65403765D01*
X133604927Y-65388761D01*
X133591224Y-65367042D01*
X133584499Y-65361103D01*
X133584496Y-65361099D01*
X133569062Y-65347468D01*
X133557018Y-65335276D01*
X133543573Y-65319673D01*
X133543570Y-65319671D01*
X133537713Y-65312873D01*
X133516165Y-65298906D01*
X133501291Y-65287615D01*
X133488783Y-65276569D01*
X133488782Y-65276568D01*
X133482049Y-65270622D01*
X133455287Y-65258057D01*
X133440309Y-65249737D01*
X133423017Y-65238529D01*
X133423012Y-65238527D01*
X133415485Y-65233648D01*
X133406892Y-65231078D01*
X133406887Y-65231076D01*
X133390880Y-65226289D01*
X133373436Y-65219628D01*
X133358324Y-65212533D01*
X133358322Y-65212532D01*
X133350200Y-65208719D01*
X133341333Y-65207338D01*
X133341332Y-65207338D01*
X133331690Y-65205837D01*
X133320983Y-65204170D01*
X133304268Y-65200387D01*
X133284534Y-65194485D01*
X133284528Y-65194484D01*
X133275934Y-65191914D01*
X133266963Y-65191859D01*
X133266962Y-65191859D01*
X133256903Y-65191798D01*
X133241494Y-65191704D01*
X133240711Y-65191671D01*
X133239614Y-65191500D01*
X133208623Y-65191500D01*
X133207853Y-65191498D01*
X133134215Y-65191048D01*
X133134214Y-65191048D01*
X133130279Y-65191024D01*
X133128935Y-65191408D01*
X133127590Y-65191500D01*
X115384500Y-65191500D01*
X115316379Y-65171498D01*
X115298434Y-65150788D01*
X135754483Y-65150788D01*
X135761538Y-65160761D01*
X135804640Y-65196800D01*
X135811573Y-65201837D01*
X136047800Y-65350022D01*
X136055352Y-65354071D01*
X136309510Y-65468829D01*
X136317541Y-65471815D01*
X136584922Y-65551017D01*
X136593274Y-65552884D01*
X136868936Y-65595066D01*
X136877469Y-65595782D01*
X137156300Y-65600163D01*
X137164851Y-65599714D01*
X137441701Y-65566212D01*
X137450102Y-65564610D01*
X137719857Y-65493841D01*
X137727959Y-65491114D01*
X137985604Y-65384394D01*
X137993272Y-65380588D01*
X138234049Y-65239889D01*
X138241130Y-65235076D01*
X138336024Y-65160671D01*
X138344494Y-65148812D01*
X138337977Y-65137188D01*
X137062811Y-63862022D01*
X137048867Y-63854408D01*
X137047034Y-63854539D01*
X137040419Y-63858790D01*
X135761775Y-65137434D01*
X135754483Y-65150788D01*
X115298434Y-65150788D01*
X115269886Y-65117842D01*
X115258500Y-65065500D01*
X115258500Y-63498134D01*
X116191500Y-63498134D01*
X116198255Y-63560316D01*
X116249385Y-63696705D01*
X116336739Y-63813261D01*
X116453295Y-63900615D01*
X116589684Y-63951745D01*
X116651866Y-63958500D01*
X118448134Y-63958500D01*
X118510316Y-63951745D01*
X118646705Y-63900615D01*
X118763261Y-63813261D01*
X118850615Y-63696705D01*
X118872799Y-63637529D01*
X118894598Y-63579382D01*
X118937240Y-63522618D01*
X119003802Y-63497918D01*
X119073150Y-63513126D01*
X119107817Y-63541114D01*
X119136250Y-63573938D01*
X119308126Y-63716632D01*
X119501000Y-63829338D01*
X119505825Y-63831180D01*
X119505826Y-63831181D01*
X119533949Y-63841920D01*
X119709692Y-63909030D01*
X119714760Y-63910061D01*
X119714763Y-63910062D01*
X119815362Y-63930529D01*
X119928597Y-63953567D01*
X119933772Y-63953757D01*
X119933774Y-63953757D01*
X120146673Y-63961564D01*
X120146677Y-63961564D01*
X120151837Y-63961753D01*
X120156957Y-63961097D01*
X120156959Y-63961097D01*
X120368288Y-63934025D01*
X120368289Y-63934025D01*
X120373416Y-63933368D01*
X120379849Y-63931438D01*
X120582429Y-63870661D01*
X120582434Y-63870659D01*
X120587384Y-63869174D01*
X120787994Y-63770896D01*
X120969860Y-63641173D01*
X121128096Y-63483489D01*
X121136243Y-63472152D01*
X121255435Y-63306277D01*
X121258453Y-63302077D01*
X121347843Y-63121210D01*
X121355136Y-63106453D01*
X121355137Y-63106451D01*
X121357430Y-63101811D01*
X121422370Y-62888069D01*
X121451529Y-62666590D01*
X121451817Y-62654817D01*
X121453074Y-62603365D01*
X121453074Y-62603361D01*
X121453156Y-62600000D01*
X121434852Y-62377361D01*
X121389360Y-62196250D01*
X121392164Y-62125311D01*
X121422469Y-62076461D01*
X121516545Y-61982385D01*
X121578857Y-61948359D01*
X121605640Y-61945480D01*
X124965500Y-61945480D01*
X125033621Y-61965482D01*
X125080114Y-62019138D01*
X125091500Y-62071480D01*
X125091500Y-63498134D01*
X125098255Y-63560316D01*
X125149385Y-63696705D01*
X125236739Y-63813261D01*
X125353295Y-63900615D01*
X125489684Y-63951745D01*
X125551866Y-63958500D01*
X127348134Y-63958500D01*
X127410316Y-63951745D01*
X127546705Y-63900615D01*
X127663261Y-63813261D01*
X127750615Y-63696705D01*
X127772799Y-63637529D01*
X127794598Y-63579382D01*
X127837240Y-63522618D01*
X127903802Y-63497918D01*
X127973150Y-63513126D01*
X128007817Y-63541114D01*
X128036250Y-63573938D01*
X128208126Y-63716632D01*
X128401000Y-63829338D01*
X128405825Y-63831180D01*
X128405826Y-63831181D01*
X128433949Y-63841920D01*
X128609692Y-63909030D01*
X128614760Y-63910061D01*
X128614763Y-63910062D01*
X128715362Y-63930529D01*
X128828597Y-63953567D01*
X128833772Y-63953757D01*
X128833774Y-63953757D01*
X129046673Y-63961564D01*
X129046677Y-63961564D01*
X129051837Y-63961753D01*
X129056957Y-63961097D01*
X129056959Y-63961097D01*
X129268288Y-63934025D01*
X129268289Y-63934025D01*
X129273416Y-63933368D01*
X129279849Y-63931438D01*
X129482429Y-63870661D01*
X129482434Y-63870659D01*
X129487384Y-63869174D01*
X129687994Y-63770896D01*
X129869860Y-63641173D01*
X130028096Y-63483489D01*
X130036243Y-63472152D01*
X130155435Y-63306277D01*
X130158453Y-63302077D01*
X130247843Y-63121210D01*
X130255136Y-63106453D01*
X130255137Y-63106451D01*
X130257430Y-63101811D01*
X130322370Y-62888069D01*
X130351529Y-62666590D01*
X130351817Y-62654817D01*
X130353074Y-62603365D01*
X130353074Y-62603361D01*
X130353156Y-62600000D01*
X130334852Y-62377361D01*
X130322628Y-62328695D01*
X130325432Y-62257754D01*
X130366145Y-62199591D01*
X130431841Y-62172672D01*
X130444832Y-62172000D01*
X135155303Y-62172000D01*
X135223424Y-62192002D01*
X135269917Y-62245658D01*
X135280021Y-62315932D01*
X135258571Y-62369178D01*
X135258836Y-62369342D01*
X135257891Y-62370866D01*
X135257625Y-62371527D01*
X135256579Y-62372983D01*
X135252055Y-62380280D01*
X135121573Y-62626717D01*
X135118087Y-62634545D01*
X135022252Y-62896426D01*
X135019863Y-62904649D01*
X134960455Y-63177122D01*
X134959206Y-63185578D01*
X134937325Y-63463601D01*
X134937236Y-63472152D01*
X134953289Y-63750558D01*
X134954362Y-63759058D01*
X135008051Y-64032710D01*
X135010264Y-64040972D01*
X135100597Y-64304813D01*
X135103913Y-64312700D01*
X135229216Y-64561838D01*
X135233573Y-64569204D01*
X135377287Y-64778311D01*
X135387540Y-64786654D01*
X135401281Y-64779508D01*
X136960904Y-63219885D01*
X137023216Y-63185859D01*
X137094031Y-63190924D01*
X137139094Y-63219885D01*
X138697406Y-64778197D01*
X138709616Y-64784864D01*
X138721115Y-64776175D01*
X138831632Y-64625725D01*
X138836216Y-64618502D01*
X138969279Y-64373430D01*
X138972847Y-64365636D01*
X139071418Y-64104779D01*
X139073895Y-64096573D01*
X139136151Y-63824750D01*
X139137491Y-63816289D01*
X139162442Y-63536719D01*
X139162688Y-63531780D01*
X139163099Y-63492485D01*
X139162956Y-63487519D01*
X139143866Y-63207493D01*
X139142705Y-63199019D01*
X139086152Y-62925936D01*
X139083853Y-62917701D01*
X138990761Y-62654817D01*
X138987364Y-62646967D01*
X138859456Y-62399151D01*
X138855023Y-62391832D01*
X138839996Y-62370450D01*
X138817191Y-62303216D01*
X138834356Y-62234326D01*
X138886041Y-62185651D01*
X138943083Y-62172000D01*
X149025880Y-62172000D01*
X149094001Y-62192002D01*
X149114975Y-62208905D01*
X150640012Y-63733942D01*
X150674038Y-63796254D01*
X150668973Y-63867069D01*
X150626426Y-63923905D01*
X150559906Y-63948716D01*
X150490988Y-63933873D01*
X150472392Y-63923818D01*
X150320925Y-63841920D01*
X150173402Y-63796254D01*
X150141140Y-63786267D01*
X150141137Y-63786266D01*
X150135253Y-63784445D01*
X150129128Y-63783801D01*
X150129127Y-63783801D01*
X149948081Y-63764772D01*
X149948080Y-63764772D01*
X149941953Y-63764128D01*
X149867586Y-63770896D01*
X149754527Y-63781185D01*
X149754524Y-63781186D01*
X149748388Y-63781744D01*
X149742482Y-63783482D01*
X149742478Y-63783483D01*
X149641302Y-63813261D01*
X149561931Y-63836621D01*
X149556473Y-63839474D01*
X149556469Y-63839476D01*
X149462364Y-63888674D01*
X149389684Y-63926670D01*
X149384886Y-63930528D01*
X149384878Y-63930533D01*
X149379841Y-63934583D01*
X149314219Y-63961680D01*
X149244364Y-63948997D01*
X149230429Y-63940844D01*
X149226642Y-63938290D01*
X149221898Y-63934365D01*
X149050925Y-63841920D01*
X148903402Y-63796254D01*
X148871140Y-63786267D01*
X148871137Y-63786266D01*
X148865253Y-63784445D01*
X148859128Y-63783801D01*
X148859127Y-63783801D01*
X148678081Y-63764772D01*
X148678080Y-63764772D01*
X148671953Y-63764128D01*
X148597586Y-63770896D01*
X148484527Y-63781185D01*
X148484524Y-63781186D01*
X148478388Y-63781744D01*
X148472482Y-63783482D01*
X148472478Y-63783483D01*
X148371302Y-63813261D01*
X148291931Y-63836621D01*
X148286473Y-63839474D01*
X148286469Y-63839476D01*
X148192364Y-63888674D01*
X148119684Y-63926670D01*
X148114886Y-63930528D01*
X148114878Y-63930533D01*
X148109841Y-63934583D01*
X148044219Y-63961680D01*
X147974364Y-63948997D01*
X147960429Y-63940844D01*
X147956642Y-63938290D01*
X147951898Y-63934365D01*
X147780925Y-63841920D01*
X147633402Y-63796254D01*
X147601140Y-63786267D01*
X147601137Y-63786266D01*
X147595253Y-63784445D01*
X147589128Y-63783801D01*
X147589127Y-63783801D01*
X147408081Y-63764772D01*
X147408080Y-63764772D01*
X147401953Y-63764128D01*
X147327586Y-63770896D01*
X147214527Y-63781185D01*
X147214524Y-63781186D01*
X147208388Y-63781744D01*
X147202482Y-63783482D01*
X147202478Y-63783483D01*
X147101302Y-63813261D01*
X147021931Y-63836621D01*
X147016473Y-63839474D01*
X147016469Y-63839476D01*
X146922364Y-63888674D01*
X146849684Y-63926670D01*
X146844886Y-63930528D01*
X146844878Y-63930533D01*
X146839841Y-63934583D01*
X146774219Y-63961680D01*
X146704364Y-63948997D01*
X146690429Y-63940844D01*
X146686642Y-63938290D01*
X146681898Y-63934365D01*
X146510925Y-63841920D01*
X146363402Y-63796254D01*
X146331140Y-63786267D01*
X146331137Y-63786266D01*
X146325253Y-63784445D01*
X146319128Y-63783801D01*
X146319127Y-63783801D01*
X146138081Y-63764772D01*
X146138080Y-63764772D01*
X146131953Y-63764128D01*
X146057586Y-63770896D01*
X145944527Y-63781185D01*
X145944524Y-63781186D01*
X145938388Y-63781744D01*
X145932482Y-63783482D01*
X145932478Y-63783483D01*
X145831302Y-63813261D01*
X145751931Y-63836621D01*
X145746473Y-63839474D01*
X145746469Y-63839476D01*
X145652364Y-63888674D01*
X145579684Y-63926670D01*
X145574886Y-63930528D01*
X145574878Y-63930533D01*
X145569841Y-63934583D01*
X145504219Y-63961680D01*
X145434364Y-63948997D01*
X145420429Y-63940844D01*
X145416642Y-63938290D01*
X145411898Y-63934365D01*
X145240925Y-63841920D01*
X145093402Y-63796254D01*
X145061140Y-63786267D01*
X145061137Y-63786266D01*
X145055253Y-63784445D01*
X145049128Y-63783801D01*
X145049127Y-63783801D01*
X144868081Y-63764772D01*
X144868080Y-63764772D01*
X144861953Y-63764128D01*
X144787586Y-63770896D01*
X144674527Y-63781185D01*
X144674524Y-63781186D01*
X144668388Y-63781744D01*
X144662482Y-63783482D01*
X144662478Y-63783483D01*
X144561302Y-63813261D01*
X144481931Y-63836621D01*
X144476473Y-63839474D01*
X144476469Y-63839476D01*
X144382364Y-63888674D01*
X144309684Y-63926670D01*
X144304886Y-63930528D01*
X144304878Y-63930533D01*
X144299841Y-63934583D01*
X144234219Y-63961680D01*
X144164364Y-63948997D01*
X144150429Y-63940844D01*
X144146642Y-63938290D01*
X144141898Y-63934365D01*
X143970925Y-63841920D01*
X143823402Y-63796254D01*
X143791140Y-63786267D01*
X143791137Y-63786266D01*
X143785253Y-63784445D01*
X143779128Y-63783801D01*
X143779127Y-63783801D01*
X143598081Y-63764772D01*
X143598080Y-63764772D01*
X143591953Y-63764128D01*
X143517586Y-63770896D01*
X143404527Y-63781185D01*
X143404524Y-63781186D01*
X143398388Y-63781744D01*
X143392482Y-63783482D01*
X143392478Y-63783483D01*
X143291302Y-63813261D01*
X143211931Y-63836621D01*
X143206473Y-63839474D01*
X143206469Y-63839476D01*
X143112364Y-63888674D01*
X143039684Y-63926670D01*
X143034886Y-63930528D01*
X143034878Y-63930533D01*
X143029841Y-63934583D01*
X142964219Y-63961680D01*
X142894364Y-63948997D01*
X142880429Y-63940844D01*
X142876642Y-63938290D01*
X142871898Y-63934365D01*
X142700925Y-63841920D01*
X142553402Y-63796254D01*
X142521140Y-63786267D01*
X142521137Y-63786266D01*
X142515253Y-63784445D01*
X142509128Y-63783801D01*
X142509127Y-63783801D01*
X142328081Y-63764772D01*
X142328080Y-63764772D01*
X142321953Y-63764128D01*
X142247586Y-63770896D01*
X142134527Y-63781185D01*
X142134524Y-63781186D01*
X142128388Y-63781744D01*
X142122482Y-63783482D01*
X142122478Y-63783483D01*
X142021302Y-63813261D01*
X141941931Y-63836621D01*
X141936473Y-63839474D01*
X141936469Y-63839476D01*
X141842364Y-63888674D01*
X141769684Y-63926670D01*
X141764886Y-63930528D01*
X141764884Y-63930529D01*
X141693946Y-63987565D01*
X141618208Y-64048460D01*
X141493273Y-64197352D01*
X141490306Y-64202749D01*
X141486822Y-64207837D01*
X141484874Y-64206503D01*
X141441965Y-64249178D01*
X141430100Y-64254834D01*
X141427048Y-64256098D01*
X141416762Y-64260359D01*
X141297275Y-64352045D01*
X141292249Y-64358595D01*
X141279281Y-64375495D01*
X141268414Y-64387886D01*
X139529675Y-66126625D01*
X139517284Y-66137492D01*
X139493834Y-66155486D01*
X139470814Y-66185486D01*
X139470813Y-66185487D01*
X139466367Y-66191281D01*
X139427237Y-66242276D01*
X139427237Y-66242277D01*
X139402148Y-66274973D01*
X139398989Y-66282599D01*
X139398988Y-66282601D01*
X139384270Y-66318135D01*
X139344512Y-66414119D01*
X139329789Y-66525949D01*
X139329789Y-66525955D01*
X139324854Y-66563441D01*
X139325932Y-66571629D01*
X139325932Y-66571630D01*
X139328711Y-66592739D01*
X139329789Y-66609185D01*
X139329789Y-68396740D01*
X139328711Y-68413186D01*
X139324854Y-68442484D01*
X139329789Y-68479970D01*
X139329789Y-68479976D01*
X139344512Y-68591806D01*
X139402148Y-68730952D01*
X139414615Y-68747199D01*
X139488805Y-68843886D01*
X139488808Y-68843889D01*
X139493834Y-68850439D01*
X139500384Y-68855465D01*
X139500385Y-68855466D01*
X139517283Y-68868432D01*
X139529675Y-68879300D01*
X140046129Y-69395755D01*
X140080154Y-69458067D01*
X140083033Y-69484850D01*
X140083033Y-72725199D01*
X140063031Y-72793320D01*
X140020216Y-72834144D01*
X140015851Y-72836179D01*
X140011347Y-72839332D01*
X140011343Y-72839335D01*
X139837827Y-72960833D01*
X139833316Y-72963992D01*
X139675749Y-73121559D01*
X139547936Y-73304094D01*
X139545613Y-73309076D01*
X139545610Y-73309081D01*
X139499228Y-73408549D01*
X139453763Y-73506049D01*
X139396089Y-73721290D01*
X139376668Y-73943276D01*
X139396089Y-74165262D01*
X139453763Y-74380503D01*
X139456085Y-74385484D01*
X139456086Y-74385485D01*
X139545610Y-74577471D01*
X139545613Y-74577476D01*
X139547936Y-74582458D01*
X139675749Y-74764993D01*
X139833316Y-74922560D01*
X140015850Y-75050373D01*
X140020832Y-75052696D01*
X140020837Y-75052699D01*
X140200583Y-75136515D01*
X140217806Y-75144546D01*
X140223114Y-75145968D01*
X140223116Y-75145969D01*
X140247882Y-75152605D01*
X140433047Y-75202220D01*
X140655033Y-75221641D01*
X140877019Y-75202220D01*
X141062184Y-75152605D01*
X141086950Y-75145969D01*
X141086952Y-75145968D01*
X141092260Y-75144546D01*
X141173784Y-75106531D01*
X141243974Y-75095870D01*
X141308787Y-75124850D01*
X141347644Y-75184269D01*
X141353033Y-75220726D01*
X141353033Y-75265199D01*
X141333031Y-75333320D01*
X141290216Y-75374144D01*
X141285851Y-75376179D01*
X141281347Y-75379332D01*
X141281343Y-75379335D01*
X141281342Y-75379336D01*
X141103316Y-75503992D01*
X140945749Y-75661559D01*
X140817936Y-75844094D01*
X140815613Y-75849076D01*
X140815610Y-75849081D01*
X140769228Y-75948549D01*
X140722311Y-76001834D01*
X140654034Y-76021295D01*
X140586074Y-76000753D01*
X140540838Y-75948549D01*
X140494456Y-75849081D01*
X140494453Y-75849076D01*
X140492130Y-75844094D01*
X140364317Y-75661559D01*
X140206750Y-75503992D01*
X140024216Y-75376179D01*
X140019234Y-75373856D01*
X140019229Y-75373853D01*
X139827242Y-75284329D01*
X139827241Y-75284329D01*
X139822260Y-75282006D01*
X139816952Y-75280584D01*
X139816950Y-75280583D01*
X139739338Y-75259787D01*
X139607019Y-75224332D01*
X139385033Y-75204911D01*
X139163047Y-75224332D01*
X139030728Y-75259787D01*
X138973005Y-75275254D01*
X138972717Y-75275331D01*
X138901741Y-75273641D01*
X138842945Y-75233847D01*
X138828292Y-75211707D01*
X138799588Y-75156451D01*
X138750396Y-75061752D01*
X138595263Y-74849401D01*
X138409794Y-74662959D01*
X138198259Y-74506716D01*
X137965523Y-74384269D01*
X137716944Y-74298433D01*
X137597862Y-74276685D01*
X137462213Y-74251911D01*
X137462210Y-74251911D01*
X137458242Y-74251186D01*
X137374096Y-74246776D01*
X137210159Y-74246776D01*
X137207780Y-74246957D01*
X137207779Y-74246957D01*
X137019576Y-74261273D01*
X137019571Y-74261274D01*
X137014809Y-74261636D01*
X137010155Y-74262715D01*
X137010153Y-74262715D01*
X136859765Y-74297573D01*
X136758620Y-74321017D01*
X136514360Y-74418467D01*
X136287651Y-74551742D01*
X136083710Y-74717776D01*
X135907231Y-74912748D01*
X135762273Y-75132171D01*
X135760272Y-75136511D01*
X135760270Y-75136515D01*
X135654179Y-75366644D01*
X135652173Y-75370996D01*
X135650849Y-75375597D01*
X135650849Y-75375598D01*
X135649775Y-75379333D01*
X135579465Y-75623727D01*
X135545822Y-75884547D01*
X135552018Y-76147455D01*
X135552852Y-76152160D01*
X135594589Y-76387662D01*
X135597910Y-76406402D01*
X135682442Y-76655427D01*
X135803670Y-76888800D01*
X135958803Y-77101151D01*
X136144272Y-77287593D01*
X136355807Y-77443836D01*
X136588543Y-77566283D01*
X136837122Y-77652119D01*
X136956204Y-77673867D01*
X137091853Y-77698641D01*
X137091856Y-77698641D01*
X137095824Y-77699366D01*
X137179970Y-77703776D01*
X137343907Y-77703776D01*
X137346286Y-77703595D01*
X137346287Y-77703595D01*
X137534490Y-77689279D01*
X137534495Y-77689278D01*
X137539257Y-77688916D01*
X137543911Y-77687837D01*
X137543913Y-77687837D01*
X137790782Y-77630616D01*
X137790781Y-77630616D01*
X137795446Y-77629535D01*
X138039706Y-77532085D01*
X138266415Y-77398810D01*
X138270135Y-77395782D01*
X138306722Y-77365995D01*
X138372178Y-77338498D01*
X138442109Y-77350754D01*
X138475368Y-77374612D01*
X138563316Y-77462560D01*
X138745850Y-77590373D01*
X138750832Y-77592696D01*
X138750837Y-77592699D01*
X138942824Y-77682223D01*
X138947806Y-77684546D01*
X138953114Y-77685968D01*
X138953116Y-77685969D01*
X139003902Y-77699577D01*
X139163047Y-77742220D01*
X139385033Y-77761641D01*
X139607019Y-77742220D01*
X139766164Y-77699577D01*
X139816950Y-77685969D01*
X139816952Y-77685968D01*
X139822260Y-77684546D01*
X139827242Y-77682223D01*
X140019229Y-77592699D01*
X140019234Y-77592696D01*
X140024216Y-77590373D01*
X140206750Y-77462560D01*
X140364317Y-77304993D01*
X140370969Y-77295494D01*
X140488973Y-77126966D01*
X140492130Y-77122458D01*
X140494453Y-77117476D01*
X140494456Y-77117471D01*
X140540838Y-77018003D01*
X140587755Y-76964718D01*
X140656032Y-76945257D01*
X140723992Y-76965799D01*
X140769228Y-77018003D01*
X140815610Y-77117471D01*
X140815613Y-77117476D01*
X140817936Y-77122458D01*
X140821093Y-77126966D01*
X140939098Y-77295494D01*
X140945749Y-77304993D01*
X141103316Y-77462560D01*
X141285850Y-77590373D01*
X141290832Y-77592696D01*
X141290837Y-77592699D01*
X141482824Y-77682223D01*
X141487806Y-77684546D01*
X141493114Y-77685968D01*
X141493116Y-77685969D01*
X141543902Y-77699577D01*
X141703047Y-77742220D01*
X141925033Y-77761641D01*
X142147019Y-77742220D01*
X142306164Y-77699577D01*
X142356950Y-77685969D01*
X142356952Y-77685968D01*
X142362260Y-77684546D01*
X142367242Y-77682223D01*
X142559229Y-77592699D01*
X142559234Y-77592696D01*
X142564216Y-77590373D01*
X142746750Y-77462560D01*
X142904317Y-77304993D01*
X142910969Y-77295494D01*
X143028973Y-77126966D01*
X143032130Y-77122458D01*
X143034453Y-77117476D01*
X143034456Y-77117471D01*
X143080838Y-77018003D01*
X143127755Y-76964718D01*
X143196032Y-76945257D01*
X143263992Y-76965799D01*
X143309228Y-77018003D01*
X143355610Y-77117471D01*
X143355613Y-77117476D01*
X143357936Y-77122458D01*
X143361093Y-77126966D01*
X143479098Y-77295494D01*
X143485749Y-77304993D01*
X143643316Y-77462560D01*
X143825850Y-77590373D01*
X143830832Y-77592696D01*
X143830837Y-77592699D01*
X144022824Y-77682223D01*
X144027806Y-77684546D01*
X144033114Y-77685968D01*
X144033116Y-77685969D01*
X144083902Y-77699577D01*
X144243047Y-77742220D01*
X144465033Y-77761641D01*
X144687019Y-77742220D01*
X144846164Y-77699577D01*
X144896950Y-77685969D01*
X144896952Y-77685968D01*
X144902260Y-77684546D01*
X144907242Y-77682223D01*
X145099229Y-77592699D01*
X145099234Y-77592696D01*
X145104216Y-77590373D01*
X145286750Y-77462560D01*
X145444317Y-77304993D01*
X145450969Y-77295494D01*
X145568973Y-77126966D01*
X145572130Y-77122458D01*
X145574453Y-77117476D01*
X145574456Y-77117471D01*
X145620838Y-77018003D01*
X145667755Y-76964718D01*
X145736032Y-76945257D01*
X145803992Y-76965799D01*
X145849228Y-77018003D01*
X145895610Y-77117471D01*
X145895613Y-77117476D01*
X145897936Y-77122458D01*
X145901093Y-77126966D01*
X146019098Y-77295494D01*
X146025749Y-77304993D01*
X146183316Y-77462560D01*
X146365850Y-77590373D01*
X146370832Y-77592696D01*
X146370837Y-77592699D01*
X146562824Y-77682223D01*
X146567806Y-77684546D01*
X146573114Y-77685968D01*
X146573116Y-77685969D01*
X146623902Y-77699577D01*
X146783047Y-77742220D01*
X147005033Y-77761641D01*
X147227019Y-77742220D01*
X147386164Y-77699577D01*
X147436950Y-77685969D01*
X147436952Y-77685968D01*
X147442260Y-77684546D01*
X147447242Y-77682223D01*
X147639229Y-77592699D01*
X147639234Y-77592696D01*
X147644216Y-77590373D01*
X147826750Y-77462560D01*
X147984317Y-77304993D01*
X147990969Y-77295494D01*
X148108973Y-77126966D01*
X148112130Y-77122458D01*
X148114453Y-77117476D01*
X148114456Y-77117471D01*
X148160838Y-77018003D01*
X148207755Y-76964718D01*
X148276032Y-76945257D01*
X148343992Y-76965799D01*
X148389228Y-77018003D01*
X148435610Y-77117471D01*
X148435613Y-77117476D01*
X148437936Y-77122458D01*
X148441093Y-77126966D01*
X148559098Y-77295494D01*
X148565749Y-77304993D01*
X148723316Y-77462560D01*
X148905850Y-77590373D01*
X148910832Y-77592696D01*
X148910837Y-77592699D01*
X149102824Y-77682223D01*
X149107806Y-77684546D01*
X149113114Y-77685968D01*
X149113116Y-77685969D01*
X149163902Y-77699577D01*
X149323047Y-77742220D01*
X149545033Y-77761641D01*
X149767019Y-77742220D01*
X149926164Y-77699577D01*
X149976950Y-77685969D01*
X149976952Y-77685968D01*
X149982260Y-77684546D01*
X149987242Y-77682223D01*
X150179229Y-77592699D01*
X150179234Y-77592696D01*
X150184216Y-77590373D01*
X150366750Y-77462560D01*
X150524317Y-77304993D01*
X150530969Y-77295494D01*
X150648973Y-77126966D01*
X150652130Y-77122458D01*
X150654453Y-77117476D01*
X150654456Y-77117471D01*
X150700838Y-77018003D01*
X150747755Y-76964718D01*
X150816032Y-76945257D01*
X150883992Y-76965799D01*
X150929228Y-77018003D01*
X150975610Y-77117471D01*
X150975613Y-77117476D01*
X150977936Y-77122458D01*
X150981093Y-77126966D01*
X151099098Y-77295494D01*
X151105749Y-77304993D01*
X151263316Y-77462560D01*
X151445850Y-77590373D01*
X151450832Y-77592696D01*
X151450837Y-77592699D01*
X151642824Y-77682223D01*
X151647806Y-77684546D01*
X151653114Y-77685968D01*
X151653116Y-77685969D01*
X151703902Y-77699577D01*
X151863047Y-77742220D01*
X152085033Y-77761641D01*
X152307019Y-77742220D01*
X152466164Y-77699577D01*
X152516950Y-77685969D01*
X152516952Y-77685968D01*
X152522260Y-77684546D01*
X152527242Y-77682223D01*
X152719229Y-77592699D01*
X152719234Y-77592696D01*
X152724216Y-77590373D01*
X152906750Y-77462560D01*
X153064317Y-77304993D01*
X153070969Y-77295494D01*
X153188973Y-77126966D01*
X153192130Y-77122458D01*
X153194453Y-77117476D01*
X153194456Y-77117471D01*
X153240838Y-77018003D01*
X153287755Y-76964718D01*
X153356032Y-76945257D01*
X153423992Y-76965799D01*
X153469228Y-77018003D01*
X153515610Y-77117471D01*
X153515613Y-77117476D01*
X153517936Y-77122458D01*
X153521093Y-77126966D01*
X153639098Y-77295494D01*
X153645749Y-77304993D01*
X153803316Y-77462560D01*
X153985850Y-77590373D01*
X153990832Y-77592696D01*
X153990837Y-77592699D01*
X154182824Y-77682223D01*
X154187806Y-77684546D01*
X154193114Y-77685968D01*
X154193116Y-77685969D01*
X154243902Y-77699577D01*
X154403047Y-77742220D01*
X154625033Y-77761641D01*
X154847019Y-77742220D01*
X155006164Y-77699577D01*
X155056950Y-77685969D01*
X155056952Y-77685968D01*
X155062260Y-77684546D01*
X155067242Y-77682223D01*
X155259229Y-77592699D01*
X155259234Y-77592696D01*
X155264216Y-77590373D01*
X155446750Y-77462560D01*
X155604317Y-77304993D01*
X155610969Y-77295494D01*
X155728973Y-77126966D01*
X155732130Y-77122458D01*
X155734453Y-77117476D01*
X155734456Y-77117471D01*
X155780838Y-77018003D01*
X155827755Y-76964718D01*
X155896032Y-76945257D01*
X155963992Y-76965799D01*
X156009228Y-77018003D01*
X156055610Y-77117471D01*
X156055613Y-77117476D01*
X156057936Y-77122458D01*
X156061093Y-77126966D01*
X156179098Y-77295494D01*
X156185749Y-77304993D01*
X156343316Y-77462560D01*
X156525850Y-77590373D01*
X156530832Y-77592696D01*
X156530837Y-77592699D01*
X156722824Y-77682223D01*
X156727806Y-77684546D01*
X156733114Y-77685968D01*
X156733116Y-77685969D01*
X156783902Y-77699577D01*
X156943047Y-77742220D01*
X157165033Y-77761641D01*
X157387019Y-77742220D01*
X157546164Y-77699577D01*
X157596950Y-77685969D01*
X157596952Y-77685968D01*
X157602260Y-77684546D01*
X157607242Y-77682223D01*
X157799229Y-77592699D01*
X157799234Y-77592696D01*
X157804216Y-77590373D01*
X157986750Y-77462560D01*
X158144317Y-77304993D01*
X158150969Y-77295494D01*
X158268973Y-77126966D01*
X158272130Y-77122458D01*
X158274453Y-77117476D01*
X158274456Y-77117471D01*
X158320838Y-77018003D01*
X158367755Y-76964718D01*
X158436032Y-76945257D01*
X158503992Y-76965799D01*
X158549228Y-77018003D01*
X158595610Y-77117471D01*
X158595613Y-77117476D01*
X158597936Y-77122458D01*
X158601093Y-77126966D01*
X158719098Y-77295494D01*
X158725749Y-77304993D01*
X158883316Y-77462560D01*
X159065850Y-77590373D01*
X159070832Y-77592696D01*
X159070837Y-77592699D01*
X159262824Y-77682223D01*
X159267806Y-77684546D01*
X159273114Y-77685968D01*
X159273116Y-77685969D01*
X159323902Y-77699577D01*
X159483047Y-77742220D01*
X159705033Y-77761641D01*
X159927019Y-77742220D01*
X160086164Y-77699577D01*
X160136950Y-77685969D01*
X160136952Y-77685968D01*
X160142260Y-77684546D01*
X160147242Y-77682223D01*
X160339229Y-77592699D01*
X160339234Y-77592696D01*
X160344216Y-77590373D01*
X160526750Y-77462560D01*
X160615905Y-77373405D01*
X160678217Y-77339379D01*
X160749032Y-77344444D01*
X160779854Y-77361146D01*
X160891807Y-77443836D01*
X160896037Y-77446061D01*
X160896041Y-77446064D01*
X161062916Y-77533860D01*
X161124543Y-77566283D01*
X161373122Y-77652119D01*
X161492204Y-77673867D01*
X161627853Y-77698641D01*
X161627856Y-77698641D01*
X161631824Y-77699366D01*
X161715970Y-77703776D01*
X161879907Y-77703776D01*
X161882286Y-77703595D01*
X161882287Y-77703595D01*
X162070490Y-77689279D01*
X162070495Y-77689278D01*
X162075257Y-77688916D01*
X162079911Y-77687837D01*
X162079913Y-77687837D01*
X162326782Y-77630616D01*
X162326781Y-77630616D01*
X162331446Y-77629535D01*
X162575706Y-77532085D01*
X162802415Y-77398810D01*
X163006356Y-77232776D01*
X163182835Y-77037804D01*
X163327793Y-76818381D01*
X163405004Y-76650899D01*
X163435887Y-76583908D01*
X163435888Y-76583905D01*
X163437893Y-76579556D01*
X163510601Y-76326825D01*
X163544244Y-76066005D01*
X163538048Y-75803097D01*
X163492156Y-75544150D01*
X163407624Y-75295125D01*
X163286396Y-75061752D01*
X163131263Y-74849401D01*
X162945794Y-74662959D01*
X162734259Y-74506716D01*
X162501523Y-74384269D01*
X162252944Y-74298433D01*
X162133862Y-74276685D01*
X161998213Y-74251911D01*
X161998210Y-74251911D01*
X161994242Y-74251186D01*
X161910096Y-74246776D01*
X161746159Y-74246776D01*
X161743780Y-74246957D01*
X161743779Y-74246957D01*
X161555576Y-74261273D01*
X161555571Y-74261274D01*
X161550809Y-74261636D01*
X161546155Y-74262715D01*
X161546153Y-74262715D01*
X161395765Y-74297573D01*
X161294620Y-74321017D01*
X161050360Y-74418467D01*
X160823651Y-74551742D01*
X160619710Y-74717776D01*
X160443231Y-74912748D01*
X160298273Y-75132171D01*
X160296272Y-75136511D01*
X160296270Y-75136515D01*
X160264100Y-75206298D01*
X160217416Y-75259787D01*
X160149224Y-75279546D01*
X160117063Y-75275254D01*
X160017257Y-75248511D01*
X159927019Y-75224332D01*
X159705033Y-75204911D01*
X159483047Y-75224332D01*
X159350728Y-75259787D01*
X159273116Y-75280583D01*
X159273114Y-75280584D01*
X159267806Y-75282006D01*
X159262825Y-75284328D01*
X159262824Y-75284329D01*
X159070838Y-75373853D01*
X159070833Y-75373856D01*
X159065851Y-75376179D01*
X158883316Y-75503992D01*
X158725749Y-75661559D01*
X158597936Y-75844094D01*
X158595613Y-75849076D01*
X158595610Y-75849081D01*
X158549228Y-75948549D01*
X158502311Y-76001834D01*
X158434034Y-76021295D01*
X158366074Y-76000753D01*
X158320838Y-75948549D01*
X158274456Y-75849081D01*
X158274453Y-75849076D01*
X158272130Y-75844094D01*
X158144317Y-75661559D01*
X157986750Y-75503992D01*
X157804216Y-75376179D01*
X157799879Y-75374157D01*
X157751039Y-75322932D01*
X157737033Y-75265198D01*
X157737033Y-75220726D01*
X157757035Y-75152605D01*
X157810691Y-75106112D01*
X157880965Y-75096008D01*
X157916280Y-75106530D01*
X157997806Y-75144546D01*
X158003114Y-75145968D01*
X158003116Y-75145969D01*
X158027882Y-75152605D01*
X158213047Y-75202220D01*
X158435033Y-75221641D01*
X158657019Y-75202220D01*
X158842184Y-75152605D01*
X158866950Y-75145969D01*
X158866952Y-75145968D01*
X158872260Y-75144546D01*
X158889483Y-75136515D01*
X159069229Y-75052699D01*
X159069234Y-75052696D01*
X159074216Y-75050373D01*
X159256750Y-74922560D01*
X159414317Y-74764993D01*
X159542130Y-74582458D01*
X159544453Y-74577476D01*
X159544456Y-74577471D01*
X159633980Y-74385485D01*
X159633981Y-74385484D01*
X159636303Y-74380503D01*
X159693977Y-74165262D01*
X159713398Y-73943276D01*
X159693977Y-73721290D01*
X159636303Y-73506049D01*
X159590838Y-73408549D01*
X159544456Y-73309081D01*
X159544453Y-73309076D01*
X159542130Y-73304094D01*
X159414317Y-73121559D01*
X159256750Y-72963992D01*
X159074216Y-72836179D01*
X159069879Y-72834157D01*
X159021039Y-72782932D01*
X159007033Y-72725198D01*
X159007033Y-69104087D01*
X159027035Y-69035966D01*
X159043938Y-69014992D01*
X159172114Y-68886816D01*
X159184505Y-68875949D01*
X159201402Y-68862984D01*
X159201405Y-68862981D01*
X159207955Y-68857955D01*
X159238787Y-68817775D01*
X159299641Y-68738468D01*
X159357277Y-68599322D01*
X159372000Y-68487492D01*
X159372000Y-68487486D01*
X159376935Y-68450000D01*
X159374868Y-68434295D01*
X159373078Y-68420702D01*
X159372000Y-68404256D01*
X159372000Y-66645751D01*
X159373078Y-66629304D01*
X159375858Y-66608188D01*
X159376936Y-66600000D01*
X159369278Y-66541829D01*
X159357277Y-66450678D01*
X159299641Y-66311532D01*
X159285670Y-66293324D01*
X159271588Y-66274973D01*
X159266562Y-66268423D01*
X159230976Y-66222046D01*
X159230975Y-66222045D01*
X159207955Y-66192045D01*
X159184505Y-66174051D01*
X159172114Y-66163184D01*
X158159718Y-65150788D01*
X160254485Y-65150788D01*
X160261540Y-65160761D01*
X160304642Y-65196800D01*
X160311575Y-65201837D01*
X160547802Y-65350022D01*
X160555354Y-65354071D01*
X160809512Y-65468829D01*
X160817543Y-65471815D01*
X161084924Y-65551017D01*
X161093276Y-65552884D01*
X161368938Y-65595066D01*
X161377471Y-65595782D01*
X161656302Y-65600163D01*
X161664853Y-65599714D01*
X161941703Y-65566212D01*
X161950104Y-65564610D01*
X162219859Y-65493841D01*
X162227961Y-65491114D01*
X162485606Y-65384394D01*
X162493274Y-65380588D01*
X162734051Y-65239889D01*
X162741132Y-65235076D01*
X162836026Y-65160671D01*
X162844496Y-65148812D01*
X162837979Y-65137188D01*
X161562813Y-63862022D01*
X161548869Y-63854408D01*
X161547036Y-63854539D01*
X161540421Y-63858790D01*
X160261777Y-65137434D01*
X160254485Y-65150788D01*
X158159718Y-65150788D01*
X158153605Y-65144675D01*
X158142738Y-65132284D01*
X158129770Y-65115384D01*
X158124744Y-65108834D01*
X158005257Y-65017148D01*
X157866111Y-64959512D01*
X157835414Y-64955471D01*
X157754292Y-64944790D01*
X157754283Y-64944789D01*
X157754280Y-64944789D01*
X157754268Y-64944788D01*
X157724978Y-64940932D01*
X157724977Y-64940932D01*
X157716789Y-64939854D01*
X157708601Y-64940932D01*
X157708600Y-64940932D01*
X157687491Y-64943711D01*
X157671045Y-64944789D01*
X157403595Y-64944789D01*
X157335474Y-64924787D01*
X157288981Y-64871131D01*
X157278589Y-64802997D01*
X157280066Y-64791309D01*
X157280067Y-64791302D01*
X157280508Y-64787807D01*
X157280896Y-64760000D01*
X157261929Y-64566563D01*
X157260148Y-64560664D01*
X157260147Y-64560659D01*
X157227039Y-64451001D01*
X157205752Y-64380494D01*
X157114503Y-64208880D01*
X157022908Y-64096573D01*
X156995554Y-64063033D01*
X156995551Y-64063030D01*
X156991659Y-64058258D01*
X156985520Y-64053179D01*
X156846648Y-63938294D01*
X156846644Y-63938292D01*
X156841898Y-63934365D01*
X156670925Y-63841920D01*
X156523402Y-63796254D01*
X156491140Y-63786267D01*
X156491137Y-63786266D01*
X156485253Y-63784445D01*
X156479128Y-63783801D01*
X156479127Y-63783801D01*
X156298081Y-63764772D01*
X156298080Y-63764772D01*
X156291953Y-63764128D01*
X156217586Y-63770896D01*
X156104527Y-63781185D01*
X156104524Y-63781186D01*
X156098388Y-63781744D01*
X156092482Y-63783482D01*
X156092478Y-63783483D01*
X155991302Y-63813261D01*
X155911931Y-63836621D01*
X155906473Y-63839474D01*
X155906469Y-63839476D01*
X155812364Y-63888674D01*
X155739684Y-63926670D01*
X155734886Y-63930528D01*
X155734878Y-63930533D01*
X155729841Y-63934583D01*
X155664219Y-63961680D01*
X155594364Y-63948997D01*
X155580429Y-63940844D01*
X155576642Y-63938290D01*
X155571898Y-63934365D01*
X155400925Y-63841920D01*
X155253402Y-63796254D01*
X155221140Y-63786267D01*
X155221137Y-63786266D01*
X155215253Y-63784445D01*
X155209128Y-63783801D01*
X155209127Y-63783801D01*
X155028081Y-63764772D01*
X155028080Y-63764772D01*
X155021953Y-63764128D01*
X154947586Y-63770896D01*
X154834527Y-63781185D01*
X154834524Y-63781186D01*
X154828388Y-63781744D01*
X154822482Y-63783482D01*
X154822478Y-63783483D01*
X154721302Y-63813261D01*
X154641931Y-63836621D01*
X154636473Y-63839474D01*
X154636469Y-63839476D01*
X154542364Y-63888674D01*
X154469684Y-63926670D01*
X154464886Y-63930528D01*
X154464878Y-63930533D01*
X154459841Y-63934583D01*
X154394219Y-63961680D01*
X154324364Y-63948997D01*
X154310429Y-63940844D01*
X154306642Y-63938290D01*
X154301898Y-63934365D01*
X154130925Y-63841920D01*
X153983402Y-63796254D01*
X153951140Y-63786267D01*
X153951137Y-63786266D01*
X153945253Y-63784445D01*
X153939128Y-63783801D01*
X153939127Y-63783801D01*
X153758081Y-63764772D01*
X153758080Y-63764772D01*
X153751953Y-63764128D01*
X153633010Y-63774953D01*
X153563359Y-63761208D01*
X153532497Y-63738567D01*
X153266082Y-63472152D01*
X159437238Y-63472152D01*
X159453291Y-63750558D01*
X159454364Y-63759058D01*
X159508053Y-64032710D01*
X159510266Y-64040972D01*
X159600599Y-64304813D01*
X159603915Y-64312700D01*
X159729218Y-64561838D01*
X159733575Y-64569204D01*
X159877289Y-64778311D01*
X159887542Y-64786654D01*
X159901283Y-64779508D01*
X161177979Y-63502812D01*
X161184357Y-63491132D01*
X161914409Y-63491132D01*
X161914540Y-63492965D01*
X161918791Y-63499580D01*
X163197408Y-64778197D01*
X163209618Y-64784864D01*
X163221117Y-64776175D01*
X163331634Y-64625725D01*
X163336218Y-64618502D01*
X163469281Y-64373430D01*
X163472849Y-64365636D01*
X163571420Y-64104779D01*
X163573897Y-64096573D01*
X163636153Y-63824750D01*
X163637493Y-63816289D01*
X163662444Y-63536719D01*
X163662690Y-63531780D01*
X163663101Y-63492485D01*
X163662958Y-63487519D01*
X163643868Y-63207493D01*
X163642707Y-63199019D01*
X163586154Y-62925936D01*
X163583855Y-62917701D01*
X163490763Y-62654817D01*
X163487366Y-62646967D01*
X163359458Y-62399151D01*
X163355030Y-62391839D01*
X163221955Y-62202492D01*
X163211434Y-62194113D01*
X163198046Y-62201165D01*
X161922023Y-63477188D01*
X161914409Y-63491132D01*
X161184357Y-63491132D01*
X161185593Y-63488868D01*
X161185462Y-63487035D01*
X161181211Y-63480420D01*
X159902018Y-62201227D01*
X159890008Y-62194668D01*
X159878269Y-62203636D01*
X159756579Y-62372986D01*
X159752057Y-62380280D01*
X159621575Y-62626717D01*
X159618089Y-62634545D01*
X159522254Y-62896426D01*
X159519865Y-62904649D01*
X159460457Y-63177122D01*
X159459208Y-63185578D01*
X159437327Y-63463601D01*
X159437238Y-63472152D01*
X153266082Y-63472152D01*
X151625146Y-61831216D01*
X160255301Y-61831216D01*
X160261697Y-61842486D01*
X161537189Y-63117978D01*
X161551133Y-63125592D01*
X161552966Y-63125461D01*
X161559581Y-63121210D01*
X162837810Y-61842981D01*
X162845001Y-61829812D01*
X162837678Y-61819575D01*
X162777413Y-61770247D01*
X162770441Y-61765293D01*
X162532661Y-61619581D01*
X162525070Y-61615613D01*
X162269729Y-61503526D01*
X162261669Y-61500624D01*
X161993475Y-61424228D01*
X161985097Y-61422446D01*
X161709014Y-61383154D01*
X161700467Y-61382527D01*
X161421603Y-61381066D01*
X161413069Y-61381603D01*
X161136582Y-61418003D01*
X161128184Y-61419696D01*
X160859210Y-61493280D01*
X160851114Y-61496099D01*
X160594604Y-61605509D01*
X160586981Y-61609394D01*
X160347695Y-61752603D01*
X160340663Y-61757490D01*
X160263770Y-61819093D01*
X160255301Y-61831216D01*
X151625146Y-61831216D01*
X150795296Y-61001366D01*
X150784429Y-60988975D01*
X150771461Y-60972075D01*
X150766435Y-60965525D01*
X150646948Y-60873839D01*
X150507802Y-60816203D01*
X150477105Y-60812162D01*
X150395983Y-60801481D01*
X150395974Y-60801480D01*
X150395971Y-60801480D01*
X150395959Y-60801479D01*
X150366669Y-60797623D01*
X150366668Y-60797623D01*
X150358480Y-60796545D01*
X150350292Y-60797623D01*
X150350291Y-60797623D01*
X150329182Y-60800402D01*
X150312736Y-60801480D01*
X121362264Y-60801480D01*
X121345818Y-60800402D01*
X121324709Y-60797623D01*
X121324708Y-60797623D01*
X121316520Y-60796545D01*
X121308332Y-60797623D01*
X121308331Y-60797623D01*
X121279041Y-60801479D01*
X121279029Y-60801480D01*
X121279026Y-60801480D01*
X121279017Y-60801481D01*
X121197895Y-60812162D01*
X121167198Y-60816203D01*
X121028052Y-60873839D01*
X120908565Y-60965525D01*
X120903539Y-60972075D01*
X120890571Y-60988975D01*
X120879704Y-61001366D01*
X120613168Y-61267902D01*
X120550856Y-61301928D01*
X120482014Y-61297580D01*
X120443084Y-61283794D01*
X120443081Y-61283793D01*
X120438212Y-61282069D01*
X120433123Y-61281162D01*
X120433121Y-61281162D01*
X120223373Y-61243800D01*
X120223367Y-61243799D01*
X120218284Y-61242894D01*
X120144452Y-61241992D01*
X120000081Y-61240228D01*
X120000079Y-61240228D01*
X119994911Y-61240165D01*
X119774091Y-61273955D01*
X119561756Y-61343357D01*
X119557164Y-61345747D01*
X119557165Y-61345747D01*
X119418363Y-61418003D01*
X119363607Y-61446507D01*
X119359474Y-61449610D01*
X119359471Y-61449612D01*
X119189100Y-61577530D01*
X119184965Y-61580635D01*
X119128537Y-61639684D01*
X119104283Y-61665064D01*
X119042759Y-61700494D01*
X118971846Y-61697037D01*
X118914060Y-61655791D01*
X118895207Y-61622243D01*
X118853767Y-61511703D01*
X118850615Y-61503295D01*
X118763261Y-61386739D01*
X118646705Y-61299385D01*
X118510316Y-61248255D01*
X118448134Y-61241500D01*
X116651866Y-61241500D01*
X116589684Y-61248255D01*
X116453295Y-61299385D01*
X116336739Y-61386739D01*
X116249385Y-61503295D01*
X116198255Y-61639684D01*
X116191500Y-61701866D01*
X116191500Y-63498134D01*
X115258500Y-63498134D01*
X115258500Y-59134500D01*
X115278502Y-59066379D01*
X115332158Y-59019886D01*
X115384500Y-59008500D01*
X164865500Y-59008500D01*
X164933621Y-59028502D01*
G37*
%TD.AperFunction*%
%TD*%
M02*
