M48
; DRILL file {KiCad (6.0.5)} date Fri Jul 15 10:42:53 2022
; FORMAT={-:-/ absolute / inch / decimal}
; #@! TF.CreationDate,2022-07-15T10:42:53-06:00
; #@! TF.GenerationSoftware,Kicad,Pcbnew,(6.0.5)
; #@! TF.FileFunction,Plated,1,2,PTH
FMAT,2
INCH
; #@! TA.AperFunction,Plated,PTH,ComponentDrill
T1C0.0280
; #@! TA.AperFunction,Plated,PTH,ComponentDrill
T2C0.0394
; #@! TA.AperFunction,Plated,PTH,ComponentDrill
T3C0.0402
; #@! TA.AperFunction,Plated,PTH,ComponentDrill
T4C0.1060
%
G90
G05
T1
X5.578Y-2.6496
X5.603Y-2.5496
X5.628Y-2.6496
X5.653Y-2.5496
X5.678Y-2.6496
X5.703Y-2.5496
X5.728Y-2.6496
X5.753Y-2.5496
X5.778Y-2.6496
X5.803Y-2.5496
X5.828Y-2.6496
X5.853Y-2.5496
X5.878Y-2.6496
X5.903Y-2.5496
X5.928Y-2.6496
X5.953Y-2.5496
X5.978Y-2.6496
X6.003Y-2.5496
X6.028Y-2.6496
X6.053Y-2.5496
X6.078Y-2.6496
X6.103Y-2.5496
X6.128Y-2.6496
X6.153Y-2.5496
X6.178Y-2.6496
T2
X4.628Y-2.4646
X4.728Y-2.4646
X4.9783Y-2.4646
X5.0783Y-2.4646
T3
X5.4876Y-3.0112
X5.5376Y-2.9112
X5.5376Y-3.1112
X5.5876Y-3.0112
X5.6376Y-2.9112
X5.6376Y-3.1112
X5.6876Y-3.0112
X5.7376Y-2.9112
X5.7376Y-3.1112
X5.7876Y-3.0112
X5.8376Y-2.9112
X5.8376Y-3.1112
X5.8876Y-3.0112
X5.9376Y-2.9112
X5.9376Y-3.1112
X5.9876Y-3.0112
X6.0376Y-2.9112
X6.0376Y-3.1112
X6.0876Y-3.0112
X6.1376Y-2.9112
X6.1376Y-3.1112
X6.1876Y-3.0112
X6.2376Y-2.9112
X6.2376Y-3.1112
X6.2876Y-3.0112
T4
X5.3957Y-2.4996
X6.3602Y-2.4996
T0
M30
