%TF.GenerationSoftware,KiCad,Pcbnew,(6.0.5)*%
%TF.CreationDate,2022-07-15T11:56:51-06:00*%
%TF.ProjectId,25to25,3235746f-3235-42e6-9b69-6361645f7063,rev?*%
%TF.SameCoordinates,Original*%
%TF.FileFunction,Copper,L2,Bot*%
%TF.FilePolarity,Positive*%
%FSLAX46Y46*%
G04 Gerber Fmt 4.6, Leading zero omitted, Abs format (unit mm)*
G04 Created by KiCad (PCBNEW (6.0.5)) date 2022-07-15 11:56:51*
%MOMM*%
%LPD*%
G01*
G04 APERTURE LIST*
%TA.AperFunction,ComponentPad*%
%ADD10R,1.700000X1.700000*%
%TD*%
%TA.AperFunction,ComponentPad*%
%ADD11O,1.700000X1.700000*%
%TD*%
%TA.AperFunction,ComponentPad*%
%ADD12C,1.530000*%
%TD*%
%TA.AperFunction,ComponentPad*%
%ADD13C,0.965200*%
%TD*%
%TA.AperFunction,ComponentPad*%
%ADD14C,3.200400*%
%TD*%
%TA.AperFunction,Conductor*%
%ADD15C,0.127000*%
%TD*%
%TA.AperFunction,Conductor*%
%ADD16C,0.250000*%
%TD*%
G04 APERTURE END LIST*
D10*
%TO.P,J1,1,Pin_1*%
%TO.N,Net-(J1-Pad1)*%
X126450000Y-62600000D03*
D11*
%TO.P,J1,2,Pin_2*%
%TO.N,Net-(J1-Pad2)*%
X128990000Y-62600000D03*
%TD*%
D12*
%TO.P,J4,25,P25*%
%TO.N,Net-(J3-Pad25)*%
X140655033Y-77143276D03*
%TO.P,J4,24,P24*%
%TO.N,Net-(J3-Pad24)*%
X141925033Y-79683276D03*
%TO.P,J4,23,P23*%
%TO.N,Net-(J2-Pad2)*%
X143195033Y-77143276D03*
%TO.P,J4,22,P22*%
%TO.N,Net-(J1-Pad2)*%
X144465033Y-79683276D03*
%TO.P,J4,21,P21*%
%TO.N,Net-(J3-Pad21)*%
X145735033Y-77143276D03*
%TO.P,J4,20,P20*%
%TO.N,Net-(J3-Pad20)*%
X148275033Y-77143276D03*
%TO.P,J4,19,P19*%
%TO.N,Net-(J3-Pad19)*%
X150815033Y-77143276D03*
%TO.P,J4,18,P18*%
%TO.N,Net-(J3-Pad18)*%
X153355033Y-77143276D03*
%TO.P,J4,17,P17*%
%TO.N,Net-(J3-Pad17)*%
X154625033Y-79683276D03*
%TO.P,J4,16,P16*%
%TO.N,Net-(J3-Pad16)*%
X155895033Y-77143276D03*
%TO.P,J4,15,P15*%
%TO.N,Net-(J3-Pad15)*%
X157165033Y-79683276D03*
%TO.P,J4,14,P14*%
%TO.N,Net-(J3-Pad14)*%
X158435033Y-77143276D03*
%TO.P,J4,13,13*%
%TO.N,Net-(J3-Pad13)*%
X139385033Y-79683276D03*
%TO.P,J4,12,12*%
%TO.N,Net-(J3-Pad12)*%
X140655033Y-82223276D03*
%TO.P,J4,11,11*%
%TO.N,Net-(J3-Pad11)*%
X143195033Y-82223276D03*
%TO.P,J4,10,10*%
%TO.N,Net-(J2-Pad1)*%
X145735033Y-82223276D03*
%TO.P,J4,9,9*%
%TO.N,Net-(J1-Pad1)*%
X147005033Y-79683276D03*
%TO.P,J4,8,8*%
%TO.N,Net-(J3-Pad8)*%
X148275033Y-82223276D03*
%TO.P,J4,7,7*%
%TO.N,Net-(J3-Pad7)*%
X149545033Y-79683276D03*
%TO.P,J4,6,6*%
%TO.N,Net-(J3-Pad6)*%
X150815033Y-82223276D03*
%TO.P,J4,5,5*%
%TO.N,Net-(J3-Pad5)*%
X152085033Y-79683276D03*
%TO.P,J4,4,4*%
%TO.N,Net-(J3-Pad4)*%
X153355033Y-82223276D03*
%TO.P,J4,3,3*%
%TO.N,Net-(J3-Pad3)*%
X155895033Y-82223276D03*
%TO.P,J4,2,2*%
%TO.N,Net-(J3-Pad2)*%
X158435033Y-82223276D03*
%TO.P,J4,1,1*%
%TO.N,Net-(J3-Pad1)*%
X159705033Y-79683276D03*
%TD*%
D10*
%TO.P,J2,1,Pin_1*%
%TO.N,Net-(J2-Pad1)*%
X117550000Y-62600000D03*
D11*
%TO.P,J2,2,Pin_2*%
%TO.N,Net-(J2-Pad2)*%
X120090000Y-62600000D03*
%TD*%
D13*
%TO.P,J3,25,P25*%
%TO.N,Net-(J3-Pad25)*%
X142275000Y-64760000D03*
%TO.P,J3,24,P24*%
%TO.N,Net-(J3-Pad24)*%
X143545000Y-64760000D03*
%TO.P,J3,23,P23*%
%TO.N,Net-(J2-Pad2)*%
X144815000Y-64760000D03*
%TO.P,J3,22,P22*%
%TO.N,Net-(J1-Pad2)*%
X146085000Y-64760000D03*
%TO.P,J3,21,P21*%
%TO.N,Net-(J3-Pad21)*%
X147355000Y-64760000D03*
%TO.P,J3,20,P20*%
%TO.N,Net-(J3-Pad20)*%
X148625000Y-64760000D03*
%TO.P,J3,19,P19*%
%TO.N,Net-(J3-Pad19)*%
X149895000Y-64760000D03*
%TO.P,J3,18,P18*%
%TO.N,Net-(J3-Pad18)*%
X151165000Y-64760000D03*
%TO.P,J3,17,P17*%
%TO.N,Net-(J3-Pad17)*%
X152435000Y-64760000D03*
%TO.P,J3,16,P16*%
%TO.N,Net-(J3-Pad16)*%
X153705000Y-64760000D03*
%TO.P,J3,15,P15*%
%TO.N,Net-(J3-Pad15)*%
X154975000Y-64760000D03*
%TO.P,J3,14,P14*%
%TO.N,Net-(J3-Pad14)*%
X156245000Y-64760000D03*
%TO.P,J3,13,13*%
%TO.N,Net-(J3-Pad13)*%
X141640000Y-67300000D03*
%TO.P,J3,12,12*%
%TO.N,Net-(J3-Pad12)*%
X142910000Y-67300000D03*
%TO.P,J3,11,11*%
%TO.N,Net-(J3-Pad11)*%
X144180000Y-67300000D03*
%TO.P,J3,10,10*%
%TO.N,Net-(J2-Pad1)*%
X145450000Y-67300000D03*
%TO.P,J3,9,9*%
%TO.N,Net-(J1-Pad1)*%
X146720000Y-67300000D03*
%TO.P,J3,8,8*%
%TO.N,Net-(J3-Pad8)*%
X147990000Y-67300000D03*
%TO.P,J3,7,7*%
%TO.N,Net-(J3-Pad7)*%
X149260000Y-67300000D03*
%TO.P,J3,6,6*%
%TO.N,Net-(J3-Pad6)*%
X150530000Y-67300000D03*
%TO.P,J3,5,5*%
%TO.N,Net-(J3-Pad5)*%
X151800000Y-67300000D03*
%TO.P,J3,4,4*%
%TO.N,Net-(J3-Pad4)*%
X153070000Y-67300000D03*
%TO.P,J3,3,3*%
%TO.N,Net-(J3-Pad3)*%
X154340000Y-67300000D03*
%TO.P,J3,2,2*%
%TO.N,Net-(J3-Pad2)*%
X155610000Y-67300000D03*
%TO.P,J3,1,1*%
%TO.N,Net-(J3-Pad1)*%
X156880000Y-67300000D03*
D14*
%TO.P,J3,0,PAD*%
%TO.N,GND*%
X161510001Y-63490000D03*
X137009999Y-63490000D03*
%TD*%
D15*
%TO.N,Net-(J3-Pad17)*%
X154625033Y-68674967D02*
X154846960Y-68453040D01*
X154625033Y-79683276D02*
X154625033Y-68674967D01*
X154846960Y-68453040D02*
X156946960Y-68453040D01*
%TO.N,Net-(J1-Pad2)*%
X146085000Y-66015000D02*
X146085000Y-64760000D01*
X141186273Y-68400000D02*
X140400000Y-67613727D01*
X143701349Y-68400000D02*
X141186273Y-68400000D01*
X140400000Y-66986272D02*
X141239312Y-66146960D01*
X144465033Y-69163684D02*
X143701349Y-68400000D01*
X140400000Y-67613727D02*
X140400000Y-66986272D01*
X141239312Y-66146960D02*
X145953040Y-66146960D01*
X144465033Y-79683276D02*
X144465033Y-69163684D01*
X145953040Y-66146960D02*
X146085000Y-66015000D01*
%TO.N,Net-(J3-Pad24)*%
X141925033Y-69278073D02*
X141925033Y-79683276D01*
X141045578Y-68900000D02*
X141546960Y-68900000D01*
X139946960Y-67801382D02*
X141045578Y-68900000D01*
X141051656Y-65693920D02*
X139946960Y-66798616D01*
X141546960Y-68900000D02*
X141925033Y-69278073D01*
X143545000Y-65442499D02*
X143293579Y-65693920D01*
X143545000Y-64760000D02*
X143545000Y-65442499D01*
X143293579Y-65693920D02*
X141051656Y-65693920D01*
X139946960Y-66798616D02*
X139946960Y-67801382D01*
%TO.N,Net-(J3-Pad25)*%
X140655033Y-68855033D02*
X140655033Y-77143276D01*
X139720440Y-67920440D02*
X140655033Y-68855033D01*
X139720440Y-66704788D02*
X139720440Y-67920440D01*
X141665228Y-64760000D02*
X139720440Y-66704788D01*
X142275000Y-64760000D02*
X141665228Y-64760000D01*
%TO.N,Net-(J2-Pad2)*%
X143195033Y-69221553D02*
X143195033Y-77143276D01*
X141092445Y-68626520D02*
X142600000Y-68626520D01*
X140173480Y-67707555D02*
X141092445Y-68626520D01*
X142600000Y-68626520D02*
X143195033Y-69221553D01*
X141145484Y-65920440D02*
X140173480Y-66892444D01*
X140173480Y-66892444D02*
X140173480Y-67707555D01*
X144479560Y-65920440D02*
X141145484Y-65920440D01*
X144815000Y-65585000D02*
X144479560Y-65920440D01*
X144815000Y-64760000D02*
X144815000Y-65585000D01*
%TO.N,Net-(J3-Pad21)*%
X147355000Y-66018480D02*
X147355000Y-64760000D01*
X141333139Y-66373480D02*
X147000000Y-66373480D01*
X141278751Y-68172131D02*
X140673480Y-67566860D01*
X140673480Y-67033140D02*
X141333139Y-66373480D01*
X145227869Y-68172131D02*
X141278751Y-68172131D01*
X147000000Y-66373480D02*
X147355000Y-66018480D01*
X145735033Y-68679295D02*
X145227869Y-68172131D01*
X140673480Y-67566860D02*
X140673480Y-67033140D01*
X145735033Y-77143276D02*
X145735033Y-68679295D01*
%TO.N,Net-(J3-Pad20)*%
X148275033Y-68575033D02*
X148275033Y-77143276D01*
X147645611Y-67945611D02*
X148275033Y-68575033D01*
X140900000Y-67473033D02*
X141372578Y-67945611D01*
X148400000Y-66600000D02*
X141426967Y-66600000D01*
X148625000Y-66375000D02*
X148400000Y-66600000D01*
X141426967Y-66600000D02*
X140900000Y-67126967D01*
X140900000Y-67126967D02*
X140900000Y-67473033D01*
X141372578Y-67945611D02*
X147645611Y-67945611D01*
X148625000Y-64760000D02*
X148625000Y-66375000D01*
%TO.N,Net-(J3-Pad19)*%
X150815033Y-68984967D02*
X150815033Y-77143276D01*
X157100000Y-68000000D02*
X151800000Y-68000000D01*
X151800000Y-68000000D02*
X150815033Y-68984967D01*
X157525611Y-67574389D02*
X157100000Y-68000000D01*
X157525611Y-67032578D02*
X157525611Y-67574389D01*
X157093033Y-66600000D02*
X157525611Y-67032578D01*
X150100000Y-66600000D02*
X157093033Y-66600000D01*
X149895000Y-64760000D02*
X149895000Y-66395000D01*
X149895000Y-66395000D02*
X150100000Y-66600000D01*
%TO.N,Net-(J3-Pad18)*%
X153355033Y-68771487D02*
X153355033Y-77143276D01*
X153900000Y-68226520D02*
X153355033Y-68771487D01*
X157193828Y-68226520D02*
X153900000Y-68226520D01*
X157752131Y-67668217D02*
X157193828Y-68226520D01*
%TO.N,Net-(J3-Pad16)*%
X155895033Y-68984527D02*
X155895033Y-77143276D01*
X156200000Y-68679560D02*
X155895033Y-68984527D01*
%TO.N,Net-(J3-Pad15)*%
X157165033Y-69234967D02*
X157165033Y-79683276D01*
X158431691Y-66657270D02*
X158431691Y-67968309D01*
X157468342Y-65693920D02*
X158431691Y-66657270D01*
X155908920Y-65693920D02*
X157468342Y-65693920D01*
X158431691Y-67968309D02*
X157165033Y-69234967D01*
X154975000Y-64760000D02*
X155908920Y-65693920D01*
%TO.N,Net-(J3-Pad14)*%
X158435033Y-73943276D02*
X158435033Y-77143276D01*
X159200033Y-73178276D02*
X158435033Y-73943276D01*
D16*
%TO.N,Net-(J1-Pad2)*%
X142220480Y-60895480D02*
X146085000Y-64760000D01*
X133810225Y-60895480D02*
X142220480Y-60895480D01*
X132105704Y-62600000D02*
X133810225Y-60895480D01*
X128990000Y-62600000D02*
X132105704Y-62600000D01*
%TO.N,Net-(J2-Pad2)*%
X130800000Y-64400000D02*
X121890000Y-64400000D01*
X121890000Y-64400000D02*
X120090000Y-62600000D01*
X133955000Y-61245000D02*
X130800000Y-64400000D01*
X141300000Y-61245000D02*
X133955000Y-61245000D01*
X144815000Y-64760000D02*
X141300000Y-61245000D01*
D15*
%TO.N,Net-(J3-Pad14)*%
X156860000Y-64760000D02*
X156245000Y-64760000D01*
X159200033Y-67100033D02*
X156860000Y-64760000D01*
X159200033Y-73178276D02*
X159200033Y-67100033D01*
%TO.N,Net-(J3-Pad16)*%
X156200000Y-68679560D02*
X156300000Y-68679560D01*
X157374514Y-65920440D02*
X158205171Y-66751097D01*
X154000000Y-65920440D02*
X157374514Y-65920440D01*
X158205171Y-66751097D02*
X158205171Y-67855873D01*
X153705000Y-65625440D02*
X154000000Y-65920440D01*
X157381484Y-68679560D02*
X156200000Y-68679560D01*
X158205171Y-67855873D02*
X157381484Y-68679560D01*
X153705000Y-64760000D02*
X153705000Y-65625440D01*
%TO.N,Net-(J3-Pad17)*%
X157280688Y-66146960D02*
X157978651Y-66844924D01*
X152646960Y-66146960D02*
X157280688Y-66146960D01*
X157978651Y-67762045D02*
X157287656Y-68453040D01*
X152435000Y-65935000D02*
X152646960Y-66146960D01*
X157978651Y-66844924D02*
X157978651Y-67762045D01*
X152435000Y-64760000D02*
X152435000Y-65935000D01*
X157287656Y-68453040D02*
X156800000Y-68453040D01*
%TO.N,Net-(J3-Pad18)*%
X157752131Y-67668217D02*
X157752131Y-67647869D01*
X157752131Y-66938751D02*
X157752131Y-67668217D01*
X157186860Y-66373480D02*
X157752131Y-66938751D01*
X151300000Y-66373480D02*
X152700000Y-66373480D01*
X152700000Y-66373480D02*
X157186860Y-66373480D01*
X151165000Y-64760000D02*
X151165000Y-66238480D01*
X151165000Y-66238480D02*
X151300000Y-66373480D01*
%TD*%
%TA.AperFunction,Conductor*%
%TO.N,GND*%
G36*
X164433621Y-59028502D02*
G01*
X164480114Y-59082158D01*
X164491500Y-59134500D01*
X164491500Y-84865500D01*
X164471498Y-84933621D01*
X164417842Y-84980114D01*
X164365500Y-84991500D01*
X134234500Y-84991500D01*
X134166379Y-84971498D01*
X134119886Y-84917842D01*
X134108500Y-84865500D01*
X134108500Y-82223276D01*
X139376668Y-82223276D01*
X139396089Y-82445262D01*
X139453763Y-82660503D01*
X139456085Y-82665484D01*
X139456086Y-82665485D01*
X139545610Y-82857471D01*
X139545613Y-82857476D01*
X139547936Y-82862458D01*
X139675749Y-83044993D01*
X139833316Y-83202560D01*
X140015850Y-83330373D01*
X140020832Y-83332696D01*
X140020837Y-83332699D01*
X140212824Y-83422223D01*
X140217806Y-83424546D01*
X140223114Y-83425968D01*
X140223116Y-83425969D01*
X140289498Y-83443756D01*
X140433047Y-83482220D01*
X140655033Y-83501641D01*
X140877019Y-83482220D01*
X141020568Y-83443756D01*
X141086950Y-83425969D01*
X141086952Y-83425968D01*
X141092260Y-83424546D01*
X141097242Y-83422223D01*
X141289229Y-83332699D01*
X141289234Y-83332696D01*
X141294216Y-83330373D01*
X141476750Y-83202560D01*
X141634317Y-83044993D01*
X141762130Y-82862458D01*
X141764453Y-82857476D01*
X141764456Y-82857471D01*
X141810838Y-82758003D01*
X141857755Y-82704718D01*
X141926032Y-82685257D01*
X141993992Y-82705799D01*
X142039228Y-82758003D01*
X142085610Y-82857471D01*
X142085613Y-82857476D01*
X142087936Y-82862458D01*
X142215749Y-83044993D01*
X142373316Y-83202560D01*
X142555850Y-83330373D01*
X142560832Y-83332696D01*
X142560837Y-83332699D01*
X142752824Y-83422223D01*
X142757806Y-83424546D01*
X142763114Y-83425968D01*
X142763116Y-83425969D01*
X142829498Y-83443756D01*
X142973047Y-83482220D01*
X143195033Y-83501641D01*
X143417019Y-83482220D01*
X143560568Y-83443756D01*
X143626950Y-83425969D01*
X143626952Y-83425968D01*
X143632260Y-83424546D01*
X143637242Y-83422223D01*
X143829229Y-83332699D01*
X143829234Y-83332696D01*
X143834216Y-83330373D01*
X144016750Y-83202560D01*
X144174317Y-83044993D01*
X144302130Y-82862458D01*
X144304453Y-82857476D01*
X144304456Y-82857471D01*
X144350838Y-82758003D01*
X144397755Y-82704718D01*
X144466032Y-82685257D01*
X144533992Y-82705799D01*
X144579228Y-82758003D01*
X144625610Y-82857471D01*
X144625613Y-82857476D01*
X144627936Y-82862458D01*
X144755749Y-83044993D01*
X144913316Y-83202560D01*
X145095850Y-83330373D01*
X145100832Y-83332696D01*
X145100837Y-83332699D01*
X145292824Y-83422223D01*
X145297806Y-83424546D01*
X145303114Y-83425968D01*
X145303116Y-83425969D01*
X145369498Y-83443756D01*
X145513047Y-83482220D01*
X145735033Y-83501641D01*
X145957019Y-83482220D01*
X146100568Y-83443756D01*
X146166950Y-83425969D01*
X146166952Y-83425968D01*
X146172260Y-83424546D01*
X146177242Y-83422223D01*
X146369229Y-83332699D01*
X146369234Y-83332696D01*
X146374216Y-83330373D01*
X146556750Y-83202560D01*
X146714317Y-83044993D01*
X146842130Y-82862458D01*
X146844453Y-82857476D01*
X146844456Y-82857471D01*
X146890838Y-82758003D01*
X146937755Y-82704718D01*
X147006032Y-82685257D01*
X147073992Y-82705799D01*
X147119228Y-82758003D01*
X147165610Y-82857471D01*
X147165613Y-82857476D01*
X147167936Y-82862458D01*
X147295749Y-83044993D01*
X147453316Y-83202560D01*
X147635850Y-83330373D01*
X147640832Y-83332696D01*
X147640837Y-83332699D01*
X147832824Y-83422223D01*
X147837806Y-83424546D01*
X147843114Y-83425968D01*
X147843116Y-83425969D01*
X147909498Y-83443756D01*
X148053047Y-83482220D01*
X148275033Y-83501641D01*
X148497019Y-83482220D01*
X148640568Y-83443756D01*
X148706950Y-83425969D01*
X148706952Y-83425968D01*
X148712260Y-83424546D01*
X148717242Y-83422223D01*
X148909229Y-83332699D01*
X148909234Y-83332696D01*
X148914216Y-83330373D01*
X149096750Y-83202560D01*
X149254317Y-83044993D01*
X149382130Y-82862458D01*
X149384453Y-82857476D01*
X149384456Y-82857471D01*
X149430838Y-82758003D01*
X149477755Y-82704718D01*
X149546032Y-82685257D01*
X149613992Y-82705799D01*
X149659228Y-82758003D01*
X149705610Y-82857471D01*
X149705613Y-82857476D01*
X149707936Y-82862458D01*
X149835749Y-83044993D01*
X149993316Y-83202560D01*
X150175850Y-83330373D01*
X150180832Y-83332696D01*
X150180837Y-83332699D01*
X150372824Y-83422223D01*
X150377806Y-83424546D01*
X150383114Y-83425968D01*
X150383116Y-83425969D01*
X150449498Y-83443756D01*
X150593047Y-83482220D01*
X150815033Y-83501641D01*
X151037019Y-83482220D01*
X151180568Y-83443756D01*
X151246950Y-83425969D01*
X151246952Y-83425968D01*
X151252260Y-83424546D01*
X151257242Y-83422223D01*
X151449229Y-83332699D01*
X151449234Y-83332696D01*
X151454216Y-83330373D01*
X151636750Y-83202560D01*
X151794317Y-83044993D01*
X151922130Y-82862458D01*
X151924453Y-82857476D01*
X151924456Y-82857471D01*
X151970838Y-82758003D01*
X152017755Y-82704718D01*
X152086032Y-82685257D01*
X152153992Y-82705799D01*
X152199228Y-82758003D01*
X152245610Y-82857471D01*
X152245613Y-82857476D01*
X152247936Y-82862458D01*
X152375749Y-83044993D01*
X152533316Y-83202560D01*
X152715850Y-83330373D01*
X152720832Y-83332696D01*
X152720837Y-83332699D01*
X152912824Y-83422223D01*
X152917806Y-83424546D01*
X152923114Y-83425968D01*
X152923116Y-83425969D01*
X152989498Y-83443756D01*
X153133047Y-83482220D01*
X153355033Y-83501641D01*
X153577019Y-83482220D01*
X153720568Y-83443756D01*
X153786950Y-83425969D01*
X153786952Y-83425968D01*
X153792260Y-83424546D01*
X153797242Y-83422223D01*
X153989229Y-83332699D01*
X153989234Y-83332696D01*
X153994216Y-83330373D01*
X154176750Y-83202560D01*
X154334317Y-83044993D01*
X154462130Y-82862458D01*
X154464453Y-82857476D01*
X154464456Y-82857471D01*
X154510838Y-82758003D01*
X154557755Y-82704718D01*
X154626032Y-82685257D01*
X154693992Y-82705799D01*
X154739228Y-82758003D01*
X154785610Y-82857471D01*
X154785613Y-82857476D01*
X154787936Y-82862458D01*
X154915749Y-83044993D01*
X155073316Y-83202560D01*
X155255850Y-83330373D01*
X155260832Y-83332696D01*
X155260837Y-83332699D01*
X155452824Y-83422223D01*
X155457806Y-83424546D01*
X155463114Y-83425968D01*
X155463116Y-83425969D01*
X155529498Y-83443756D01*
X155673047Y-83482220D01*
X155895033Y-83501641D01*
X156117019Y-83482220D01*
X156260568Y-83443756D01*
X156326950Y-83425969D01*
X156326952Y-83425968D01*
X156332260Y-83424546D01*
X156337242Y-83422223D01*
X156529229Y-83332699D01*
X156529234Y-83332696D01*
X156534216Y-83330373D01*
X156716750Y-83202560D01*
X156874317Y-83044993D01*
X157002130Y-82862458D01*
X157004453Y-82857476D01*
X157004456Y-82857471D01*
X157050838Y-82758003D01*
X157097755Y-82704718D01*
X157166032Y-82685257D01*
X157233992Y-82705799D01*
X157279228Y-82758003D01*
X157325610Y-82857471D01*
X157325613Y-82857476D01*
X157327936Y-82862458D01*
X157455749Y-83044993D01*
X157613316Y-83202560D01*
X157795850Y-83330373D01*
X157800832Y-83332696D01*
X157800837Y-83332699D01*
X157992824Y-83422223D01*
X157997806Y-83424546D01*
X158003114Y-83425968D01*
X158003116Y-83425969D01*
X158069498Y-83443756D01*
X158213047Y-83482220D01*
X158435033Y-83501641D01*
X158657019Y-83482220D01*
X158800568Y-83443756D01*
X158866950Y-83425969D01*
X158866952Y-83425968D01*
X158872260Y-83424546D01*
X158877242Y-83422223D01*
X159069229Y-83332699D01*
X159069234Y-83332696D01*
X159074216Y-83330373D01*
X159256750Y-83202560D01*
X159414317Y-83044993D01*
X159542130Y-82862458D01*
X159544453Y-82857476D01*
X159544456Y-82857471D01*
X159633980Y-82665485D01*
X159633981Y-82665484D01*
X159636303Y-82660503D01*
X159693977Y-82445262D01*
X159713398Y-82223276D01*
X159693977Y-82001290D01*
X159636303Y-81786049D01*
X159590838Y-81688549D01*
X159544456Y-81589081D01*
X159544453Y-81589076D01*
X159542130Y-81584094D01*
X159414317Y-81401559D01*
X159256750Y-81243992D01*
X159074216Y-81116179D01*
X159069234Y-81113856D01*
X159069229Y-81113853D01*
X158877242Y-81024329D01*
X158877241Y-81024329D01*
X158872260Y-81022006D01*
X158866952Y-81020584D01*
X158866950Y-81020583D01*
X158800569Y-81002796D01*
X158657019Y-80964332D01*
X158435033Y-80944911D01*
X158213047Y-80964332D01*
X158069497Y-81002796D01*
X158003116Y-81020583D01*
X158003114Y-81020584D01*
X157997806Y-81022006D01*
X157992825Y-81024328D01*
X157992824Y-81024329D01*
X157800838Y-81113853D01*
X157800833Y-81113856D01*
X157795851Y-81116179D01*
X157613316Y-81243992D01*
X157455749Y-81401559D01*
X157327936Y-81584094D01*
X157325613Y-81589076D01*
X157325610Y-81589081D01*
X157279228Y-81688549D01*
X157232311Y-81741834D01*
X157164034Y-81761295D01*
X157096074Y-81740753D01*
X157050838Y-81688549D01*
X157004456Y-81589081D01*
X157004453Y-81589076D01*
X157002130Y-81584094D01*
X156874317Y-81401559D01*
X156716750Y-81243992D01*
X156534216Y-81116179D01*
X156529234Y-81113856D01*
X156529229Y-81113853D01*
X156337242Y-81024329D01*
X156337241Y-81024329D01*
X156332260Y-81022006D01*
X156326952Y-81020584D01*
X156326950Y-81020583D01*
X156260569Y-81002796D01*
X156117019Y-80964332D01*
X155895033Y-80944911D01*
X155673047Y-80964332D01*
X155529497Y-81002796D01*
X155463116Y-81020583D01*
X155463114Y-81020584D01*
X155457806Y-81022006D01*
X155452825Y-81024328D01*
X155452824Y-81024329D01*
X155260838Y-81113853D01*
X155260833Y-81113856D01*
X155255851Y-81116179D01*
X155073316Y-81243992D01*
X154915749Y-81401559D01*
X154787936Y-81584094D01*
X154785613Y-81589076D01*
X154785610Y-81589081D01*
X154739228Y-81688549D01*
X154692311Y-81741834D01*
X154624034Y-81761295D01*
X154556074Y-81740753D01*
X154510838Y-81688549D01*
X154464456Y-81589081D01*
X154464453Y-81589076D01*
X154462130Y-81584094D01*
X154334317Y-81401559D01*
X154176750Y-81243992D01*
X153994216Y-81116179D01*
X153989234Y-81113856D01*
X153989229Y-81113853D01*
X153797242Y-81024329D01*
X153797241Y-81024329D01*
X153792260Y-81022006D01*
X153786952Y-81020584D01*
X153786950Y-81020583D01*
X153720569Y-81002796D01*
X153577019Y-80964332D01*
X153355033Y-80944911D01*
X153133047Y-80964332D01*
X152989497Y-81002796D01*
X152923116Y-81020583D01*
X152923114Y-81020584D01*
X152917806Y-81022006D01*
X152912825Y-81024328D01*
X152912824Y-81024329D01*
X152720838Y-81113853D01*
X152720833Y-81113856D01*
X152715851Y-81116179D01*
X152533316Y-81243992D01*
X152375749Y-81401559D01*
X152247936Y-81584094D01*
X152245613Y-81589076D01*
X152245610Y-81589081D01*
X152199228Y-81688549D01*
X152152311Y-81741834D01*
X152084034Y-81761295D01*
X152016074Y-81740753D01*
X151970838Y-81688549D01*
X151924456Y-81589081D01*
X151924453Y-81589076D01*
X151922130Y-81584094D01*
X151794317Y-81401559D01*
X151636750Y-81243992D01*
X151454216Y-81116179D01*
X151449234Y-81113856D01*
X151449229Y-81113853D01*
X151257242Y-81024329D01*
X151257241Y-81024329D01*
X151252260Y-81022006D01*
X151246952Y-81020584D01*
X151246950Y-81020583D01*
X151180569Y-81002796D01*
X151037019Y-80964332D01*
X150815033Y-80944911D01*
X150593047Y-80964332D01*
X150449497Y-81002796D01*
X150383116Y-81020583D01*
X150383114Y-81020584D01*
X150377806Y-81022006D01*
X150372825Y-81024328D01*
X150372824Y-81024329D01*
X150180838Y-81113853D01*
X150180833Y-81113856D01*
X150175851Y-81116179D01*
X149993316Y-81243992D01*
X149835749Y-81401559D01*
X149707936Y-81584094D01*
X149705613Y-81589076D01*
X149705610Y-81589081D01*
X149659228Y-81688549D01*
X149612311Y-81741834D01*
X149544034Y-81761295D01*
X149476074Y-81740753D01*
X149430838Y-81688549D01*
X149384456Y-81589081D01*
X149384453Y-81589076D01*
X149382130Y-81584094D01*
X149254317Y-81401559D01*
X149096750Y-81243992D01*
X148914216Y-81116179D01*
X148909234Y-81113856D01*
X148909229Y-81113853D01*
X148717242Y-81024329D01*
X148717241Y-81024329D01*
X148712260Y-81022006D01*
X148706952Y-81020584D01*
X148706950Y-81020583D01*
X148640569Y-81002796D01*
X148497019Y-80964332D01*
X148275033Y-80944911D01*
X148053047Y-80964332D01*
X147909497Y-81002796D01*
X147843116Y-81020583D01*
X147843114Y-81020584D01*
X147837806Y-81022006D01*
X147832825Y-81024328D01*
X147832824Y-81024329D01*
X147640838Y-81113853D01*
X147640833Y-81113856D01*
X147635851Y-81116179D01*
X147453316Y-81243992D01*
X147295749Y-81401559D01*
X147167936Y-81584094D01*
X147165613Y-81589076D01*
X147165610Y-81589081D01*
X147119228Y-81688549D01*
X147072311Y-81741834D01*
X147004034Y-81761295D01*
X146936074Y-81740753D01*
X146890838Y-81688549D01*
X146844456Y-81589081D01*
X146844453Y-81589076D01*
X146842130Y-81584094D01*
X146714317Y-81401559D01*
X146556750Y-81243992D01*
X146374216Y-81116179D01*
X146369234Y-81113856D01*
X146369229Y-81113853D01*
X146177242Y-81024329D01*
X146177241Y-81024329D01*
X146172260Y-81022006D01*
X146166952Y-81020584D01*
X146166950Y-81020583D01*
X146100569Y-81002796D01*
X145957019Y-80964332D01*
X145735033Y-80944911D01*
X145513047Y-80964332D01*
X145369497Y-81002796D01*
X145303116Y-81020583D01*
X145303114Y-81020584D01*
X145297806Y-81022006D01*
X145292825Y-81024328D01*
X145292824Y-81024329D01*
X145100838Y-81113853D01*
X145100833Y-81113856D01*
X145095851Y-81116179D01*
X144913316Y-81243992D01*
X144755749Y-81401559D01*
X144627936Y-81584094D01*
X144625613Y-81589076D01*
X144625610Y-81589081D01*
X144579228Y-81688549D01*
X144532311Y-81741834D01*
X144464034Y-81761295D01*
X144396074Y-81740753D01*
X144350838Y-81688549D01*
X144304456Y-81589081D01*
X144304453Y-81589076D01*
X144302130Y-81584094D01*
X144174317Y-81401559D01*
X144016750Y-81243992D01*
X143834216Y-81116179D01*
X143829234Y-81113856D01*
X143829229Y-81113853D01*
X143637242Y-81024329D01*
X143637241Y-81024329D01*
X143632260Y-81022006D01*
X143626952Y-81020584D01*
X143626950Y-81020583D01*
X143560569Y-81002796D01*
X143417019Y-80964332D01*
X143195033Y-80944911D01*
X142973047Y-80964332D01*
X142829497Y-81002796D01*
X142763116Y-81020583D01*
X142763114Y-81020584D01*
X142757806Y-81022006D01*
X142752825Y-81024328D01*
X142752824Y-81024329D01*
X142560838Y-81113853D01*
X142560833Y-81113856D01*
X142555851Y-81116179D01*
X142373316Y-81243992D01*
X142215749Y-81401559D01*
X142087936Y-81584094D01*
X142085613Y-81589076D01*
X142085610Y-81589081D01*
X142039228Y-81688549D01*
X141992311Y-81741834D01*
X141924034Y-81761295D01*
X141856074Y-81740753D01*
X141810838Y-81688549D01*
X141764456Y-81589081D01*
X141764453Y-81589076D01*
X141762130Y-81584094D01*
X141634317Y-81401559D01*
X141476750Y-81243992D01*
X141294216Y-81116179D01*
X141289234Y-81113856D01*
X141289229Y-81113853D01*
X141097242Y-81024329D01*
X141097241Y-81024329D01*
X141092260Y-81022006D01*
X141086952Y-81020584D01*
X141086950Y-81020583D01*
X141020569Y-81002796D01*
X140877019Y-80964332D01*
X140655033Y-80944911D01*
X140433047Y-80964332D01*
X140289497Y-81002796D01*
X140223116Y-81020583D01*
X140223114Y-81020584D01*
X140217806Y-81022006D01*
X140212825Y-81024328D01*
X140212824Y-81024329D01*
X140020838Y-81113853D01*
X140020833Y-81113856D01*
X140015851Y-81116179D01*
X139833316Y-81243992D01*
X139675749Y-81401559D01*
X139547936Y-81584094D01*
X139545613Y-81589076D01*
X139545610Y-81589081D01*
X139499228Y-81688549D01*
X139453763Y-81786049D01*
X139396089Y-82001290D01*
X139376668Y-82223276D01*
X134108500Y-82223276D01*
X134108500Y-65708623D01*
X134108502Y-65707853D01*
X134108921Y-65639254D01*
X134108976Y-65630279D01*
X134100850Y-65601847D01*
X134097272Y-65585085D01*
X134094352Y-65564698D01*
X134093080Y-65555813D01*
X134082451Y-65532436D01*
X134076004Y-65514913D01*
X134071416Y-65498862D01*
X134068949Y-65490229D01*
X134064156Y-65482632D01*
X134053170Y-65465220D01*
X134045030Y-65450135D01*
X134032792Y-65423218D01*
X134016030Y-65403765D01*
X134004927Y-65388761D01*
X133991224Y-65367042D01*
X133984499Y-65361103D01*
X133984496Y-65361099D01*
X133969062Y-65347468D01*
X133957018Y-65335276D01*
X133943573Y-65319673D01*
X133943570Y-65319671D01*
X133937713Y-65312873D01*
X133916165Y-65298906D01*
X133901291Y-65287615D01*
X133888783Y-65276569D01*
X133888782Y-65276568D01*
X133882049Y-65270622D01*
X133855287Y-65258057D01*
X133840309Y-65249737D01*
X133823017Y-65238529D01*
X133823012Y-65238527D01*
X133815485Y-65233648D01*
X133806892Y-65231078D01*
X133806887Y-65231076D01*
X133790880Y-65226289D01*
X133773436Y-65219628D01*
X133758324Y-65212533D01*
X133758322Y-65212532D01*
X133750200Y-65208719D01*
X133741333Y-65207338D01*
X133741332Y-65207338D01*
X133731690Y-65205837D01*
X133720983Y-65204170D01*
X133704268Y-65200387D01*
X133684534Y-65194485D01*
X133684528Y-65194484D01*
X133675934Y-65191914D01*
X133666963Y-65191859D01*
X133666962Y-65191859D01*
X133656903Y-65191798D01*
X133641494Y-65191704D01*
X133640711Y-65191671D01*
X133639614Y-65191500D01*
X133608623Y-65191500D01*
X133607853Y-65191498D01*
X133534215Y-65191048D01*
X133534214Y-65191048D01*
X133530279Y-65191024D01*
X133528935Y-65191408D01*
X133527590Y-65191500D01*
X131174380Y-65191500D01*
X131106259Y-65171498D01*
X131088314Y-65150788D01*
X135714483Y-65150788D01*
X135721538Y-65160761D01*
X135764640Y-65196800D01*
X135771573Y-65201837D01*
X136007800Y-65350022D01*
X136015352Y-65354071D01*
X136269510Y-65468829D01*
X136277541Y-65471815D01*
X136544922Y-65551017D01*
X136553274Y-65552884D01*
X136828936Y-65595066D01*
X136837469Y-65595782D01*
X137116300Y-65600163D01*
X137124851Y-65599714D01*
X137401701Y-65566212D01*
X137410102Y-65564610D01*
X137679857Y-65493841D01*
X137687959Y-65491114D01*
X137945604Y-65384394D01*
X137953272Y-65380588D01*
X138194049Y-65239889D01*
X138201130Y-65235076D01*
X138296024Y-65160671D01*
X138304494Y-65148812D01*
X138297977Y-65137188D01*
X137022811Y-63862022D01*
X137008867Y-63854408D01*
X137007034Y-63854539D01*
X137000419Y-63858790D01*
X135721775Y-65137434D01*
X135714483Y-65150788D01*
X131088314Y-65150788D01*
X131059766Y-65117842D01*
X131049662Y-65047568D01*
X131079156Y-64982988D01*
X131107816Y-64959826D01*
X131107617Y-64959552D01*
X131112943Y-64955683D01*
X131112949Y-64955678D01*
X131143387Y-64933564D01*
X131153307Y-64927048D01*
X131184535Y-64908580D01*
X131184538Y-64908578D01*
X131191362Y-64904542D01*
X131205683Y-64890221D01*
X131220717Y-64877380D01*
X131222432Y-64876134D01*
X131237107Y-64865472D01*
X131265298Y-64831395D01*
X131273288Y-64822616D01*
X134180500Y-61915405D01*
X134242812Y-61881379D01*
X134269595Y-61878500D01*
X135339576Y-61878500D01*
X135407697Y-61898502D01*
X135454190Y-61952158D01*
X135464294Y-62022432D01*
X135430973Y-62091233D01*
X135384757Y-62139934D01*
X135379307Y-62146523D01*
X135216577Y-62372986D01*
X135212055Y-62380280D01*
X135081573Y-62626717D01*
X135078087Y-62634545D01*
X134982252Y-62896426D01*
X134979863Y-62904649D01*
X134920455Y-63177122D01*
X134919206Y-63185578D01*
X134897325Y-63463601D01*
X134897236Y-63472152D01*
X134913289Y-63750558D01*
X134914362Y-63759058D01*
X134968051Y-64032710D01*
X134970264Y-64040972D01*
X135060597Y-64304813D01*
X135063913Y-64312700D01*
X135189216Y-64561838D01*
X135193573Y-64569204D01*
X135337287Y-64778311D01*
X135347540Y-64786654D01*
X135361281Y-64779508D01*
X136920904Y-63219885D01*
X136983216Y-63185859D01*
X137054031Y-63190924D01*
X137099094Y-63219885D01*
X138657406Y-64778197D01*
X138669616Y-64784864D01*
X138681115Y-64776175D01*
X138791632Y-64625725D01*
X138796216Y-64618502D01*
X138929279Y-64373430D01*
X138932847Y-64365636D01*
X139031418Y-64104779D01*
X139033895Y-64096573D01*
X139096151Y-63824750D01*
X139097491Y-63816289D01*
X139122442Y-63536719D01*
X139122688Y-63531780D01*
X139123099Y-63492485D01*
X139122956Y-63487519D01*
X139103866Y-63207493D01*
X139102705Y-63199019D01*
X139046152Y-62925936D01*
X139043853Y-62917701D01*
X138950761Y-62654817D01*
X138947364Y-62646967D01*
X138819456Y-62399151D01*
X138815028Y-62391839D01*
X138654673Y-62163677D01*
X138649287Y-62157026D01*
X138587255Y-62090271D01*
X138555537Y-62026753D01*
X138563193Y-61956171D01*
X138607794Y-61900932D01*
X138679556Y-61878500D01*
X140985406Y-61878500D01*
X141053527Y-61898502D01*
X141074501Y-61915405D01*
X142794657Y-63635561D01*
X142828683Y-63697873D01*
X142823618Y-63768688D01*
X142781071Y-63825524D01*
X142714551Y-63850335D01*
X142661048Y-63841522D01*
X142660925Y-63841920D01*
X142658040Y-63841027D01*
X142585726Y-63818642D01*
X142481140Y-63786267D01*
X142481137Y-63786266D01*
X142475253Y-63784445D01*
X142469128Y-63783801D01*
X142469127Y-63783801D01*
X142288081Y-63764772D01*
X142288080Y-63764772D01*
X142281953Y-63764128D01*
X142201331Y-63771465D01*
X142094527Y-63781185D01*
X142094524Y-63781186D01*
X142088388Y-63781744D01*
X142082482Y-63783482D01*
X142082478Y-63783483D01*
X141981302Y-63813261D01*
X141901931Y-63836621D01*
X141896473Y-63839474D01*
X141896469Y-63839476D01*
X141802364Y-63888674D01*
X141729684Y-63926670D01*
X141724886Y-63930528D01*
X141724884Y-63930529D01*
X141653946Y-63987565D01*
X141578208Y-64048460D01*
X141453273Y-64197352D01*
X141450302Y-64202756D01*
X141446824Y-64207836D01*
X141444876Y-64206502D01*
X141401961Y-64249179D01*
X141390107Y-64254831D01*
X141376760Y-64260359D01*
X141257273Y-64352045D01*
X141252247Y-64358595D01*
X141239279Y-64375495D01*
X141228412Y-64387886D01*
X139348326Y-66267972D01*
X139335935Y-66278839D01*
X139312485Y-66296833D01*
X139289465Y-66326833D01*
X139289464Y-66326834D01*
X139275308Y-66345283D01*
X139220799Y-66416320D01*
X139163163Y-66555466D01*
X139148440Y-66667296D01*
X139148440Y-66667302D01*
X139143505Y-66704788D01*
X139144583Y-66712976D01*
X139144583Y-66712977D01*
X139147362Y-66734086D01*
X139148440Y-66750532D01*
X139148440Y-67874696D01*
X139147362Y-67891142D01*
X139143505Y-67920440D01*
X139148440Y-67957926D01*
X139148440Y-67957932D01*
X139157969Y-68030310D01*
X139163163Y-68069762D01*
X139220799Y-68208908D01*
X139225826Y-68215459D01*
X139225827Y-68215461D01*
X139288975Y-68297756D01*
X139300460Y-68312723D01*
X139312485Y-68328395D01*
X139319035Y-68333421D01*
X139335935Y-68346389D01*
X139348326Y-68357256D01*
X140046128Y-69055058D01*
X140080154Y-69117370D01*
X140083033Y-69144153D01*
X140083033Y-75925199D01*
X140063031Y-75993320D01*
X140020216Y-76034144D01*
X140015851Y-76036179D01*
X140011347Y-76039332D01*
X140011343Y-76039335D01*
X139837827Y-76160833D01*
X139833316Y-76163992D01*
X139675749Y-76321559D01*
X139547936Y-76504094D01*
X139545613Y-76509076D01*
X139545610Y-76509081D01*
X139499228Y-76608549D01*
X139453763Y-76706049D01*
X139396089Y-76921290D01*
X139376668Y-77143276D01*
X139396089Y-77365262D01*
X139453763Y-77580503D01*
X139456085Y-77585484D01*
X139456086Y-77585485D01*
X139545610Y-77777471D01*
X139545613Y-77777476D01*
X139547936Y-77782458D01*
X139675749Y-77964993D01*
X139833316Y-78122560D01*
X140015850Y-78250373D01*
X140020832Y-78252696D01*
X140020837Y-78252699D01*
X140200583Y-78336515D01*
X140217806Y-78344546D01*
X140223114Y-78345968D01*
X140223116Y-78345969D01*
X140247882Y-78352605D01*
X140433047Y-78402220D01*
X140655033Y-78421641D01*
X140877019Y-78402220D01*
X141062184Y-78352605D01*
X141086950Y-78345969D01*
X141086952Y-78345968D01*
X141092260Y-78344546D01*
X141173784Y-78306531D01*
X141243974Y-78295870D01*
X141308787Y-78324850D01*
X141347644Y-78384269D01*
X141353033Y-78420726D01*
X141353033Y-78465199D01*
X141333031Y-78533320D01*
X141290216Y-78574144D01*
X141285851Y-78576179D01*
X141281347Y-78579332D01*
X141281343Y-78579335D01*
X141281342Y-78579336D01*
X141103316Y-78703992D01*
X140945749Y-78861559D01*
X140817936Y-79044094D01*
X140815613Y-79049076D01*
X140815610Y-79049081D01*
X140769228Y-79148549D01*
X140722311Y-79201834D01*
X140654034Y-79221295D01*
X140586074Y-79200753D01*
X140540838Y-79148549D01*
X140494456Y-79049081D01*
X140494453Y-79049076D01*
X140492130Y-79044094D01*
X140364317Y-78861559D01*
X140206750Y-78703992D01*
X140024216Y-78576179D01*
X140019234Y-78573856D01*
X140019229Y-78573853D01*
X139827242Y-78484329D01*
X139827241Y-78484329D01*
X139822260Y-78482006D01*
X139816952Y-78480584D01*
X139816950Y-78480583D01*
X139739338Y-78459787D01*
X139607019Y-78424332D01*
X139385033Y-78404911D01*
X139163047Y-78424332D01*
X139030728Y-78459787D01*
X138973005Y-78475254D01*
X138972717Y-78475331D01*
X138901741Y-78473641D01*
X138842945Y-78433847D01*
X138828292Y-78411707D01*
X138799588Y-78356451D01*
X138750396Y-78261752D01*
X138595263Y-78049401D01*
X138409794Y-77862959D01*
X138198259Y-77706716D01*
X137965523Y-77584269D01*
X137716944Y-77498433D01*
X137597862Y-77476685D01*
X137462213Y-77451911D01*
X137462210Y-77451911D01*
X137458242Y-77451186D01*
X137374096Y-77446776D01*
X137210159Y-77446776D01*
X137207780Y-77446957D01*
X137207779Y-77446957D01*
X137019576Y-77461273D01*
X137019571Y-77461274D01*
X137014809Y-77461636D01*
X137010155Y-77462715D01*
X137010153Y-77462715D01*
X136859765Y-77497573D01*
X136758620Y-77521017D01*
X136514360Y-77618467D01*
X136287651Y-77751742D01*
X136083710Y-77917776D01*
X135907231Y-78112748D01*
X135762273Y-78332171D01*
X135760272Y-78336511D01*
X135760270Y-78336515D01*
X135654179Y-78566644D01*
X135652173Y-78570996D01*
X135650849Y-78575597D01*
X135650849Y-78575598D01*
X135649775Y-78579333D01*
X135579465Y-78823727D01*
X135545822Y-79084547D01*
X135552018Y-79347455D01*
X135552852Y-79352160D01*
X135594589Y-79587662D01*
X135597910Y-79606402D01*
X135682442Y-79855427D01*
X135803670Y-80088800D01*
X135958803Y-80301151D01*
X136144272Y-80487593D01*
X136355807Y-80643836D01*
X136588543Y-80766283D01*
X136837122Y-80852119D01*
X136956204Y-80873867D01*
X137091853Y-80898641D01*
X137091856Y-80898641D01*
X137095824Y-80899366D01*
X137179970Y-80903776D01*
X137343907Y-80903776D01*
X137346286Y-80903595D01*
X137346287Y-80903595D01*
X137534490Y-80889279D01*
X137534495Y-80889278D01*
X137539257Y-80888916D01*
X137543911Y-80887837D01*
X137543913Y-80887837D01*
X137790782Y-80830616D01*
X137790781Y-80830616D01*
X137795446Y-80829535D01*
X138039706Y-80732085D01*
X138266415Y-80598810D01*
X138270135Y-80595782D01*
X138306722Y-80565995D01*
X138372178Y-80538498D01*
X138442109Y-80550754D01*
X138475368Y-80574612D01*
X138563316Y-80662560D01*
X138745850Y-80790373D01*
X138750832Y-80792696D01*
X138750837Y-80792699D01*
X138942824Y-80882223D01*
X138947806Y-80884546D01*
X138953114Y-80885968D01*
X138953116Y-80885969D01*
X139003902Y-80899577D01*
X139163047Y-80942220D01*
X139385033Y-80961641D01*
X139607019Y-80942220D01*
X139766164Y-80899577D01*
X139816950Y-80885969D01*
X139816952Y-80885968D01*
X139822260Y-80884546D01*
X139827242Y-80882223D01*
X140019229Y-80792699D01*
X140019234Y-80792696D01*
X140024216Y-80790373D01*
X140206750Y-80662560D01*
X140364317Y-80504993D01*
X140370969Y-80495494D01*
X140488973Y-80326966D01*
X140492130Y-80322458D01*
X140494453Y-80317476D01*
X140494456Y-80317471D01*
X140540838Y-80218003D01*
X140587755Y-80164718D01*
X140656032Y-80145257D01*
X140723992Y-80165799D01*
X140769228Y-80218003D01*
X140815610Y-80317471D01*
X140815613Y-80317476D01*
X140817936Y-80322458D01*
X140821093Y-80326966D01*
X140939098Y-80495494D01*
X140945749Y-80504993D01*
X141103316Y-80662560D01*
X141285850Y-80790373D01*
X141290832Y-80792696D01*
X141290837Y-80792699D01*
X141482824Y-80882223D01*
X141487806Y-80884546D01*
X141493114Y-80885968D01*
X141493116Y-80885969D01*
X141543902Y-80899577D01*
X141703047Y-80942220D01*
X141925033Y-80961641D01*
X142147019Y-80942220D01*
X142306164Y-80899577D01*
X142356950Y-80885969D01*
X142356952Y-80885968D01*
X142362260Y-80884546D01*
X142367242Y-80882223D01*
X142559229Y-80792699D01*
X142559234Y-80792696D01*
X142564216Y-80790373D01*
X142746750Y-80662560D01*
X142904317Y-80504993D01*
X142910969Y-80495494D01*
X143028973Y-80326966D01*
X143032130Y-80322458D01*
X143034453Y-80317476D01*
X143034456Y-80317471D01*
X143080838Y-80218003D01*
X143127755Y-80164718D01*
X143196032Y-80145257D01*
X143263992Y-80165799D01*
X143309228Y-80218003D01*
X143355610Y-80317471D01*
X143355613Y-80317476D01*
X143357936Y-80322458D01*
X143361093Y-80326966D01*
X143479098Y-80495494D01*
X143485749Y-80504993D01*
X143643316Y-80662560D01*
X143825850Y-80790373D01*
X143830832Y-80792696D01*
X143830837Y-80792699D01*
X144022824Y-80882223D01*
X144027806Y-80884546D01*
X144033114Y-80885968D01*
X144033116Y-80885969D01*
X144083902Y-80899577D01*
X144243047Y-80942220D01*
X144465033Y-80961641D01*
X144687019Y-80942220D01*
X144846164Y-80899577D01*
X144896950Y-80885969D01*
X144896952Y-80885968D01*
X144902260Y-80884546D01*
X144907242Y-80882223D01*
X145099229Y-80792699D01*
X145099234Y-80792696D01*
X145104216Y-80790373D01*
X145286750Y-80662560D01*
X145444317Y-80504993D01*
X145450969Y-80495494D01*
X145568973Y-80326966D01*
X145572130Y-80322458D01*
X145574453Y-80317476D01*
X145574456Y-80317471D01*
X145620838Y-80218003D01*
X145667755Y-80164718D01*
X145736032Y-80145257D01*
X145803992Y-80165799D01*
X145849228Y-80218003D01*
X145895610Y-80317471D01*
X145895613Y-80317476D01*
X145897936Y-80322458D01*
X145901093Y-80326966D01*
X146019098Y-80495494D01*
X146025749Y-80504993D01*
X146183316Y-80662560D01*
X146365850Y-80790373D01*
X146370832Y-80792696D01*
X146370837Y-80792699D01*
X146562824Y-80882223D01*
X146567806Y-80884546D01*
X146573114Y-80885968D01*
X146573116Y-80885969D01*
X146623902Y-80899577D01*
X146783047Y-80942220D01*
X147005033Y-80961641D01*
X147227019Y-80942220D01*
X147386164Y-80899577D01*
X147436950Y-80885969D01*
X147436952Y-80885968D01*
X147442260Y-80884546D01*
X147447242Y-80882223D01*
X147639229Y-80792699D01*
X147639234Y-80792696D01*
X147644216Y-80790373D01*
X147826750Y-80662560D01*
X147984317Y-80504993D01*
X147990969Y-80495494D01*
X148108973Y-80326966D01*
X148112130Y-80322458D01*
X148114453Y-80317476D01*
X148114456Y-80317471D01*
X148160838Y-80218003D01*
X148207755Y-80164718D01*
X148276032Y-80145257D01*
X148343992Y-80165799D01*
X148389228Y-80218003D01*
X148435610Y-80317471D01*
X148435613Y-80317476D01*
X148437936Y-80322458D01*
X148441093Y-80326966D01*
X148559098Y-80495494D01*
X148565749Y-80504993D01*
X148723316Y-80662560D01*
X148905850Y-80790373D01*
X148910832Y-80792696D01*
X148910837Y-80792699D01*
X149102824Y-80882223D01*
X149107806Y-80884546D01*
X149113114Y-80885968D01*
X149113116Y-80885969D01*
X149163902Y-80899577D01*
X149323047Y-80942220D01*
X149545033Y-80961641D01*
X149767019Y-80942220D01*
X149926164Y-80899577D01*
X149976950Y-80885969D01*
X149976952Y-80885968D01*
X149982260Y-80884546D01*
X149987242Y-80882223D01*
X150179229Y-80792699D01*
X150179234Y-80792696D01*
X150184216Y-80790373D01*
X150366750Y-80662560D01*
X150524317Y-80504993D01*
X150530969Y-80495494D01*
X150648973Y-80326966D01*
X150652130Y-80322458D01*
X150654453Y-80317476D01*
X150654456Y-80317471D01*
X150700838Y-80218003D01*
X150747755Y-80164718D01*
X150816032Y-80145257D01*
X150883992Y-80165799D01*
X150929228Y-80218003D01*
X150975610Y-80317471D01*
X150975613Y-80317476D01*
X150977936Y-80322458D01*
X150981093Y-80326966D01*
X151099098Y-80495494D01*
X151105749Y-80504993D01*
X151263316Y-80662560D01*
X151445850Y-80790373D01*
X151450832Y-80792696D01*
X151450837Y-80792699D01*
X151642824Y-80882223D01*
X151647806Y-80884546D01*
X151653114Y-80885968D01*
X151653116Y-80885969D01*
X151703902Y-80899577D01*
X151863047Y-80942220D01*
X152085033Y-80961641D01*
X152307019Y-80942220D01*
X152466164Y-80899577D01*
X152516950Y-80885969D01*
X152516952Y-80885968D01*
X152522260Y-80884546D01*
X152527242Y-80882223D01*
X152719229Y-80792699D01*
X152719234Y-80792696D01*
X152724216Y-80790373D01*
X152906750Y-80662560D01*
X153064317Y-80504993D01*
X153070969Y-80495494D01*
X153188973Y-80326966D01*
X153192130Y-80322458D01*
X153194453Y-80317476D01*
X153194456Y-80317471D01*
X153240838Y-80218003D01*
X153287755Y-80164718D01*
X153356032Y-80145257D01*
X153423992Y-80165799D01*
X153469228Y-80218003D01*
X153515610Y-80317471D01*
X153515613Y-80317476D01*
X153517936Y-80322458D01*
X153521093Y-80326966D01*
X153639098Y-80495494D01*
X153645749Y-80504993D01*
X153803316Y-80662560D01*
X153985850Y-80790373D01*
X153990832Y-80792696D01*
X153990837Y-80792699D01*
X154182824Y-80882223D01*
X154187806Y-80884546D01*
X154193114Y-80885968D01*
X154193116Y-80885969D01*
X154243902Y-80899577D01*
X154403047Y-80942220D01*
X154625033Y-80961641D01*
X154847019Y-80942220D01*
X155006164Y-80899577D01*
X155056950Y-80885969D01*
X155056952Y-80885968D01*
X155062260Y-80884546D01*
X155067242Y-80882223D01*
X155259229Y-80792699D01*
X155259234Y-80792696D01*
X155264216Y-80790373D01*
X155446750Y-80662560D01*
X155604317Y-80504993D01*
X155610969Y-80495494D01*
X155728973Y-80326966D01*
X155732130Y-80322458D01*
X155734453Y-80317476D01*
X155734456Y-80317471D01*
X155780838Y-80218003D01*
X155827755Y-80164718D01*
X155896032Y-80145257D01*
X155963992Y-80165799D01*
X156009228Y-80218003D01*
X156055610Y-80317471D01*
X156055613Y-80317476D01*
X156057936Y-80322458D01*
X156061093Y-80326966D01*
X156179098Y-80495494D01*
X156185749Y-80504993D01*
X156343316Y-80662560D01*
X156525850Y-80790373D01*
X156530832Y-80792696D01*
X156530837Y-80792699D01*
X156722824Y-80882223D01*
X156727806Y-80884546D01*
X156733114Y-80885968D01*
X156733116Y-80885969D01*
X156783902Y-80899577D01*
X156943047Y-80942220D01*
X157165033Y-80961641D01*
X157387019Y-80942220D01*
X157546164Y-80899577D01*
X157596950Y-80885969D01*
X157596952Y-80885968D01*
X157602260Y-80884546D01*
X157607242Y-80882223D01*
X157799229Y-80792699D01*
X157799234Y-80792696D01*
X157804216Y-80790373D01*
X157986750Y-80662560D01*
X158144317Y-80504993D01*
X158150969Y-80495494D01*
X158268973Y-80326966D01*
X158272130Y-80322458D01*
X158274453Y-80317476D01*
X158274456Y-80317471D01*
X158320838Y-80218003D01*
X158367755Y-80164718D01*
X158436032Y-80145257D01*
X158503992Y-80165799D01*
X158549228Y-80218003D01*
X158595610Y-80317471D01*
X158595613Y-80317476D01*
X158597936Y-80322458D01*
X158601093Y-80326966D01*
X158719098Y-80495494D01*
X158725749Y-80504993D01*
X158883316Y-80662560D01*
X159065850Y-80790373D01*
X159070832Y-80792696D01*
X159070837Y-80792699D01*
X159262824Y-80882223D01*
X159267806Y-80884546D01*
X159273114Y-80885968D01*
X159273116Y-80885969D01*
X159323902Y-80899577D01*
X159483047Y-80942220D01*
X159705033Y-80961641D01*
X159927019Y-80942220D01*
X160086164Y-80899577D01*
X160136950Y-80885969D01*
X160136952Y-80885968D01*
X160142260Y-80884546D01*
X160147242Y-80882223D01*
X160339229Y-80792699D01*
X160339234Y-80792696D01*
X160344216Y-80790373D01*
X160526750Y-80662560D01*
X160615905Y-80573405D01*
X160678217Y-80539379D01*
X160749032Y-80544444D01*
X160779854Y-80561146D01*
X160891807Y-80643836D01*
X160896037Y-80646061D01*
X160896041Y-80646064D01*
X161062916Y-80733860D01*
X161124543Y-80766283D01*
X161373122Y-80852119D01*
X161492204Y-80873867D01*
X161627853Y-80898641D01*
X161627856Y-80898641D01*
X161631824Y-80899366D01*
X161715970Y-80903776D01*
X161879907Y-80903776D01*
X161882286Y-80903595D01*
X161882287Y-80903595D01*
X162070490Y-80889279D01*
X162070495Y-80889278D01*
X162075257Y-80888916D01*
X162079911Y-80887837D01*
X162079913Y-80887837D01*
X162326782Y-80830616D01*
X162326781Y-80830616D01*
X162331446Y-80829535D01*
X162575706Y-80732085D01*
X162802415Y-80598810D01*
X163006356Y-80432776D01*
X163182835Y-80237804D01*
X163327793Y-80018381D01*
X163405004Y-79850899D01*
X163435887Y-79783908D01*
X163435888Y-79783905D01*
X163437893Y-79779556D01*
X163510601Y-79526825D01*
X163544244Y-79266005D01*
X163538048Y-79003097D01*
X163492156Y-78744150D01*
X163407624Y-78495125D01*
X163286396Y-78261752D01*
X163131263Y-78049401D01*
X162945794Y-77862959D01*
X162734259Y-77706716D01*
X162501523Y-77584269D01*
X162252944Y-77498433D01*
X162133862Y-77476685D01*
X161998213Y-77451911D01*
X161998210Y-77451911D01*
X161994242Y-77451186D01*
X161910096Y-77446776D01*
X161746159Y-77446776D01*
X161743780Y-77446957D01*
X161743779Y-77446957D01*
X161555576Y-77461273D01*
X161555571Y-77461274D01*
X161550809Y-77461636D01*
X161546155Y-77462715D01*
X161546153Y-77462715D01*
X161395765Y-77497573D01*
X161294620Y-77521017D01*
X161050360Y-77618467D01*
X160823651Y-77751742D01*
X160619710Y-77917776D01*
X160443231Y-78112748D01*
X160298273Y-78332171D01*
X160296272Y-78336511D01*
X160296270Y-78336515D01*
X160264100Y-78406298D01*
X160217416Y-78459787D01*
X160149224Y-78479546D01*
X160117063Y-78475254D01*
X160017257Y-78448511D01*
X159927019Y-78424332D01*
X159705033Y-78404911D01*
X159483047Y-78424332D01*
X159350728Y-78459787D01*
X159273116Y-78480583D01*
X159273114Y-78480584D01*
X159267806Y-78482006D01*
X159262825Y-78484328D01*
X159262824Y-78484329D01*
X159070838Y-78573853D01*
X159070833Y-78573856D01*
X159065851Y-78576179D01*
X158883316Y-78703992D01*
X158725749Y-78861559D01*
X158597936Y-79044094D01*
X158595613Y-79049076D01*
X158595610Y-79049081D01*
X158549228Y-79148549D01*
X158502311Y-79201834D01*
X158434034Y-79221295D01*
X158366074Y-79200753D01*
X158320838Y-79148549D01*
X158274456Y-79049081D01*
X158274453Y-79049076D01*
X158272130Y-79044094D01*
X158144317Y-78861559D01*
X157986750Y-78703992D01*
X157804216Y-78576179D01*
X157799879Y-78574157D01*
X157751039Y-78522932D01*
X157737033Y-78465198D01*
X157737033Y-78420726D01*
X157757035Y-78352605D01*
X157810691Y-78306112D01*
X157880965Y-78296008D01*
X157916280Y-78306530D01*
X157997806Y-78344546D01*
X158003114Y-78345968D01*
X158003116Y-78345969D01*
X158027882Y-78352605D01*
X158213047Y-78402220D01*
X158435033Y-78421641D01*
X158657019Y-78402220D01*
X158842184Y-78352605D01*
X158866950Y-78345969D01*
X158866952Y-78345968D01*
X158872260Y-78344546D01*
X158889483Y-78336515D01*
X159069229Y-78252699D01*
X159069234Y-78252696D01*
X159074216Y-78250373D01*
X159256750Y-78122560D01*
X159414317Y-77964993D01*
X159542130Y-77782458D01*
X159544453Y-77777476D01*
X159544456Y-77777471D01*
X159633980Y-77585485D01*
X159633981Y-77585484D01*
X159636303Y-77580503D01*
X159693977Y-77365262D01*
X159713398Y-77143276D01*
X159693977Y-76921290D01*
X159636303Y-76706049D01*
X159590838Y-76608549D01*
X159544456Y-76509081D01*
X159544453Y-76509076D01*
X159542130Y-76504094D01*
X159414317Y-76321559D01*
X159256750Y-76163992D01*
X159074216Y-76036179D01*
X159069879Y-76034157D01*
X159021039Y-75982932D01*
X159007033Y-75925198D01*
X159007033Y-74232396D01*
X159027035Y-74164275D01*
X159043938Y-74143301D01*
X159572147Y-73615092D01*
X159584538Y-73604225D01*
X159601438Y-73591257D01*
X159607988Y-73586231D01*
X159699674Y-73466744D01*
X159757310Y-73327598D01*
X159772033Y-73215768D01*
X159772033Y-73215762D01*
X159776968Y-73178276D01*
X159773111Y-73148978D01*
X159772033Y-73132532D01*
X159772033Y-67145777D01*
X159773111Y-67129331D01*
X159775890Y-67108222D01*
X159775890Y-67108221D01*
X159776968Y-67100033D01*
X159772033Y-67062547D01*
X159772033Y-67062541D01*
X159757310Y-66950711D01*
X159699674Y-66811565D01*
X159687544Y-66795757D01*
X159674133Y-66778279D01*
X159631032Y-66722107D01*
X159631021Y-66722094D01*
X159631009Y-66722078D01*
X159631004Y-66722073D01*
X159607988Y-66692078D01*
X159584543Y-66674088D01*
X159572152Y-66663221D01*
X158059718Y-65150788D01*
X160214485Y-65150788D01*
X160221540Y-65160761D01*
X160264642Y-65196800D01*
X160271575Y-65201837D01*
X160507802Y-65350022D01*
X160515354Y-65354071D01*
X160769512Y-65468829D01*
X160777543Y-65471815D01*
X161044924Y-65551017D01*
X161053276Y-65552884D01*
X161328938Y-65595066D01*
X161337471Y-65595782D01*
X161616302Y-65600163D01*
X161624853Y-65599714D01*
X161901703Y-65566212D01*
X161910104Y-65564610D01*
X162179859Y-65493841D01*
X162187961Y-65491114D01*
X162445606Y-65384394D01*
X162453274Y-65380588D01*
X162694051Y-65239889D01*
X162701132Y-65235076D01*
X162796026Y-65160671D01*
X162804496Y-65148812D01*
X162797979Y-65137188D01*
X161522813Y-63862022D01*
X161508869Y-63854408D01*
X161507036Y-63854539D01*
X161500421Y-63858790D01*
X160221777Y-65137434D01*
X160214485Y-65150788D01*
X158059718Y-65150788D01*
X157296816Y-64387886D01*
X157285949Y-64375495D01*
X157272984Y-64358598D01*
X157272981Y-64358595D01*
X157267955Y-64352045D01*
X157200273Y-64300110D01*
X157148468Y-64260359D01*
X157128088Y-64251917D01*
X157075148Y-64208354D01*
X157074503Y-64208880D01*
X157073652Y-64207836D01*
X156982908Y-64096573D01*
X156955554Y-64063033D01*
X156955551Y-64063030D01*
X156951659Y-64058258D01*
X156945520Y-64053179D01*
X156806648Y-63938294D01*
X156806644Y-63938292D01*
X156801898Y-63934365D01*
X156630925Y-63841920D01*
X156515148Y-63806081D01*
X156451140Y-63786267D01*
X156451137Y-63786266D01*
X156445253Y-63784445D01*
X156439128Y-63783801D01*
X156439127Y-63783801D01*
X156258081Y-63764772D01*
X156258080Y-63764772D01*
X156251953Y-63764128D01*
X156171331Y-63771465D01*
X156064527Y-63781185D01*
X156064524Y-63781186D01*
X156058388Y-63781744D01*
X156052482Y-63783482D01*
X156052478Y-63783483D01*
X155951302Y-63813261D01*
X155871931Y-63836621D01*
X155866473Y-63839474D01*
X155866469Y-63839476D01*
X155772364Y-63888674D01*
X155699684Y-63926670D01*
X155694886Y-63930528D01*
X155694878Y-63930533D01*
X155689841Y-63934583D01*
X155624219Y-63961680D01*
X155554364Y-63948997D01*
X155540429Y-63940844D01*
X155536642Y-63938290D01*
X155531898Y-63934365D01*
X155360925Y-63841920D01*
X155245148Y-63806081D01*
X155181140Y-63786267D01*
X155181137Y-63786266D01*
X155175253Y-63784445D01*
X155169128Y-63783801D01*
X155169127Y-63783801D01*
X154988081Y-63764772D01*
X154988080Y-63764772D01*
X154981953Y-63764128D01*
X154901331Y-63771465D01*
X154794527Y-63781185D01*
X154794524Y-63781186D01*
X154788388Y-63781744D01*
X154782482Y-63783482D01*
X154782478Y-63783483D01*
X154681302Y-63813261D01*
X154601931Y-63836621D01*
X154596473Y-63839474D01*
X154596469Y-63839476D01*
X154502364Y-63888674D01*
X154429684Y-63926670D01*
X154424886Y-63930528D01*
X154424878Y-63930533D01*
X154419841Y-63934583D01*
X154354219Y-63961680D01*
X154284364Y-63948997D01*
X154270429Y-63940844D01*
X154266642Y-63938290D01*
X154261898Y-63934365D01*
X154090925Y-63841920D01*
X153975148Y-63806081D01*
X153911140Y-63786267D01*
X153911137Y-63786266D01*
X153905253Y-63784445D01*
X153899128Y-63783801D01*
X153899127Y-63783801D01*
X153718081Y-63764772D01*
X153718080Y-63764772D01*
X153711953Y-63764128D01*
X153631331Y-63771465D01*
X153524527Y-63781185D01*
X153524524Y-63781186D01*
X153518388Y-63781744D01*
X153512482Y-63783482D01*
X153512478Y-63783483D01*
X153411302Y-63813261D01*
X153331931Y-63836621D01*
X153326473Y-63839474D01*
X153326469Y-63839476D01*
X153232364Y-63888674D01*
X153159684Y-63926670D01*
X153154886Y-63930528D01*
X153154878Y-63930533D01*
X153149841Y-63934583D01*
X153084219Y-63961680D01*
X153014364Y-63948997D01*
X153000429Y-63940844D01*
X152996642Y-63938290D01*
X152991898Y-63934365D01*
X152820925Y-63841920D01*
X152705148Y-63806081D01*
X152641140Y-63786267D01*
X152641137Y-63786266D01*
X152635253Y-63784445D01*
X152629128Y-63783801D01*
X152629127Y-63783801D01*
X152448081Y-63764772D01*
X152448080Y-63764772D01*
X152441953Y-63764128D01*
X152361331Y-63771465D01*
X152254527Y-63781185D01*
X152254524Y-63781186D01*
X152248388Y-63781744D01*
X152242482Y-63783482D01*
X152242478Y-63783483D01*
X152141302Y-63813261D01*
X152061931Y-63836621D01*
X152056473Y-63839474D01*
X152056469Y-63839476D01*
X151962364Y-63888674D01*
X151889684Y-63926670D01*
X151884886Y-63930528D01*
X151884878Y-63930533D01*
X151879841Y-63934583D01*
X151814219Y-63961680D01*
X151744364Y-63948997D01*
X151730429Y-63940844D01*
X151726642Y-63938290D01*
X151721898Y-63934365D01*
X151550925Y-63841920D01*
X151435148Y-63806081D01*
X151371140Y-63786267D01*
X151371137Y-63786266D01*
X151365253Y-63784445D01*
X151359128Y-63783801D01*
X151359127Y-63783801D01*
X151178081Y-63764772D01*
X151178080Y-63764772D01*
X151171953Y-63764128D01*
X151091331Y-63771465D01*
X150984527Y-63781185D01*
X150984524Y-63781186D01*
X150978388Y-63781744D01*
X150972482Y-63783482D01*
X150972478Y-63783483D01*
X150871302Y-63813261D01*
X150791931Y-63836621D01*
X150786473Y-63839474D01*
X150786469Y-63839476D01*
X150692364Y-63888674D01*
X150619684Y-63926670D01*
X150614886Y-63930528D01*
X150614878Y-63930533D01*
X150609841Y-63934583D01*
X150544219Y-63961680D01*
X150474364Y-63948997D01*
X150460429Y-63940844D01*
X150456642Y-63938290D01*
X150451898Y-63934365D01*
X150280925Y-63841920D01*
X150165148Y-63806081D01*
X150101140Y-63786267D01*
X150101137Y-63786266D01*
X150095253Y-63784445D01*
X150089128Y-63783801D01*
X150089127Y-63783801D01*
X149908081Y-63764772D01*
X149908080Y-63764772D01*
X149901953Y-63764128D01*
X149821331Y-63771465D01*
X149714527Y-63781185D01*
X149714524Y-63781186D01*
X149708388Y-63781744D01*
X149702482Y-63783482D01*
X149702478Y-63783483D01*
X149601302Y-63813261D01*
X149521931Y-63836621D01*
X149516473Y-63839474D01*
X149516469Y-63839476D01*
X149422364Y-63888674D01*
X149349684Y-63926670D01*
X149344886Y-63930528D01*
X149344878Y-63930533D01*
X149339841Y-63934583D01*
X149274219Y-63961680D01*
X149204364Y-63948997D01*
X149190429Y-63940844D01*
X149186642Y-63938290D01*
X149181898Y-63934365D01*
X149010925Y-63841920D01*
X148895148Y-63806081D01*
X148831140Y-63786267D01*
X148831137Y-63786266D01*
X148825253Y-63784445D01*
X148819128Y-63783801D01*
X148819127Y-63783801D01*
X148638081Y-63764772D01*
X148638080Y-63764772D01*
X148631953Y-63764128D01*
X148551331Y-63771465D01*
X148444527Y-63781185D01*
X148444524Y-63781186D01*
X148438388Y-63781744D01*
X148432482Y-63783482D01*
X148432478Y-63783483D01*
X148331302Y-63813261D01*
X148251931Y-63836621D01*
X148246473Y-63839474D01*
X148246469Y-63839476D01*
X148152364Y-63888674D01*
X148079684Y-63926670D01*
X148074886Y-63930528D01*
X148074878Y-63930533D01*
X148069841Y-63934583D01*
X148004219Y-63961680D01*
X147934364Y-63948997D01*
X147920429Y-63940844D01*
X147916642Y-63938290D01*
X147911898Y-63934365D01*
X147740925Y-63841920D01*
X147625148Y-63806081D01*
X147561140Y-63786267D01*
X147561137Y-63786266D01*
X147555253Y-63784445D01*
X147549128Y-63783801D01*
X147549127Y-63783801D01*
X147368081Y-63764772D01*
X147368080Y-63764772D01*
X147361953Y-63764128D01*
X147281331Y-63771465D01*
X147174527Y-63781185D01*
X147174524Y-63781186D01*
X147168388Y-63781744D01*
X147162482Y-63783482D01*
X147162478Y-63783483D01*
X147061302Y-63813261D01*
X146981931Y-63836621D01*
X146976473Y-63839474D01*
X146976469Y-63839476D01*
X146882364Y-63888674D01*
X146809684Y-63926670D01*
X146804886Y-63930528D01*
X146804878Y-63930533D01*
X146799841Y-63934583D01*
X146734219Y-63961680D01*
X146664364Y-63948997D01*
X146650429Y-63940844D01*
X146646642Y-63938290D01*
X146641898Y-63934365D01*
X146470925Y-63841920D01*
X146355148Y-63806081D01*
X146291140Y-63786267D01*
X146291137Y-63786266D01*
X146285253Y-63784445D01*
X146279128Y-63783801D01*
X146279127Y-63783801D01*
X146098081Y-63764772D01*
X146098080Y-63764772D01*
X146091953Y-63764128D01*
X146052730Y-63767698D01*
X145983079Y-63753953D01*
X145952216Y-63731312D01*
X145693056Y-63472152D01*
X159397238Y-63472152D01*
X159413291Y-63750558D01*
X159414364Y-63759058D01*
X159468053Y-64032710D01*
X159470266Y-64040972D01*
X159560599Y-64304813D01*
X159563915Y-64312700D01*
X159689218Y-64561838D01*
X159693575Y-64569204D01*
X159837289Y-64778311D01*
X159847542Y-64786654D01*
X159861283Y-64779508D01*
X161137979Y-63502812D01*
X161144357Y-63491132D01*
X161874409Y-63491132D01*
X161874540Y-63492965D01*
X161878791Y-63499580D01*
X163157408Y-64778197D01*
X163169618Y-64784864D01*
X163181117Y-64776175D01*
X163291634Y-64625725D01*
X163296218Y-64618502D01*
X163429281Y-64373430D01*
X163432849Y-64365636D01*
X163531420Y-64104779D01*
X163533897Y-64096573D01*
X163596153Y-63824750D01*
X163597493Y-63816289D01*
X163622444Y-63536719D01*
X163622690Y-63531780D01*
X163623101Y-63492485D01*
X163622958Y-63487519D01*
X163603868Y-63207493D01*
X163602707Y-63199019D01*
X163546154Y-62925936D01*
X163543855Y-62917701D01*
X163450763Y-62654817D01*
X163447366Y-62646967D01*
X163319458Y-62399151D01*
X163315030Y-62391839D01*
X163181955Y-62202492D01*
X163171434Y-62194113D01*
X163158046Y-62201165D01*
X161882023Y-63477188D01*
X161874409Y-63491132D01*
X161144357Y-63491132D01*
X161145593Y-63488868D01*
X161145462Y-63487035D01*
X161141211Y-63480420D01*
X159862018Y-62201227D01*
X159850008Y-62194668D01*
X159838269Y-62203636D01*
X159716579Y-62372986D01*
X159712057Y-62380280D01*
X159581575Y-62626717D01*
X159578089Y-62634545D01*
X159482254Y-62896426D01*
X159479865Y-62904649D01*
X159420457Y-63177122D01*
X159419208Y-63185578D01*
X159397327Y-63463601D01*
X159397238Y-63472152D01*
X145693056Y-63472152D01*
X144052121Y-61831216D01*
X160215301Y-61831216D01*
X160221697Y-61842486D01*
X161497189Y-63117978D01*
X161511133Y-63125592D01*
X161512966Y-63125461D01*
X161519581Y-63121210D01*
X162797810Y-61842981D01*
X162805001Y-61829812D01*
X162797678Y-61819575D01*
X162737413Y-61770247D01*
X162730441Y-61765293D01*
X162492661Y-61619581D01*
X162485070Y-61615613D01*
X162229729Y-61503526D01*
X162221669Y-61500624D01*
X161953475Y-61424228D01*
X161945097Y-61422446D01*
X161669014Y-61383154D01*
X161660467Y-61382527D01*
X161381603Y-61381066D01*
X161373069Y-61381603D01*
X161096582Y-61418003D01*
X161088184Y-61419696D01*
X160819210Y-61493280D01*
X160811114Y-61496099D01*
X160554604Y-61605509D01*
X160546981Y-61609394D01*
X160307695Y-61752603D01*
X160300663Y-61757490D01*
X160223770Y-61819093D01*
X160215301Y-61831216D01*
X144052121Y-61831216D01*
X142724132Y-60503227D01*
X142716592Y-60494941D01*
X142712480Y-60488462D01*
X142662828Y-60441836D01*
X142659987Y-60439082D01*
X142640250Y-60419345D01*
X142637053Y-60416865D01*
X142628031Y-60409160D01*
X142614602Y-60396549D01*
X142595801Y-60378894D01*
X142588855Y-60375075D01*
X142588852Y-60375073D01*
X142578046Y-60369132D01*
X142561527Y-60358281D01*
X142561063Y-60357921D01*
X142545521Y-60345866D01*
X142538252Y-60342721D01*
X142538248Y-60342718D01*
X142504943Y-60328306D01*
X142494293Y-60323089D01*
X142455540Y-60301785D01*
X142435917Y-60296747D01*
X142417214Y-60290343D01*
X142405900Y-60285447D01*
X142405899Y-60285447D01*
X142398625Y-60282299D01*
X142390802Y-60281060D01*
X142390792Y-60281057D01*
X142354956Y-60275381D01*
X142343336Y-60272975D01*
X142308191Y-60263952D01*
X142308190Y-60263952D01*
X142300510Y-60261980D01*
X142280256Y-60261980D01*
X142260545Y-60260429D01*
X142248366Y-60258500D01*
X142240537Y-60257260D01*
X142211266Y-60260027D01*
X142196519Y-60261421D01*
X142184661Y-60261980D01*
X133888993Y-60261980D01*
X133877810Y-60261453D01*
X133870317Y-60259778D01*
X133862391Y-60260027D01*
X133862390Y-60260027D01*
X133802227Y-60261918D01*
X133798269Y-60261980D01*
X133770369Y-60261980D01*
X133766379Y-60262484D01*
X133754545Y-60263416D01*
X133710336Y-60264806D01*
X133702722Y-60267018D01*
X133702717Y-60267019D01*
X133690884Y-60270457D01*
X133671521Y-60274468D01*
X133651428Y-60277006D01*
X133644061Y-60279923D01*
X133644056Y-60279924D01*
X133610317Y-60293282D01*
X133599090Y-60297126D01*
X133556632Y-60309462D01*
X133549806Y-60313499D01*
X133539197Y-60319773D01*
X133521449Y-60328468D01*
X133502608Y-60335928D01*
X133496192Y-60340590D01*
X133496191Y-60340590D01*
X133466838Y-60361916D01*
X133456918Y-60368432D01*
X133425690Y-60386900D01*
X133425687Y-60386902D01*
X133418863Y-60390938D01*
X133404542Y-60405259D01*
X133389509Y-60418099D01*
X133373118Y-60430008D01*
X133364442Y-60440496D01*
X133344927Y-60464085D01*
X133336937Y-60472864D01*
X131880205Y-61929595D01*
X131817893Y-61963621D01*
X131791110Y-61966500D01*
X130266805Y-61966500D01*
X130198684Y-61946498D01*
X130161013Y-61908940D01*
X130072822Y-61772617D01*
X130072820Y-61772614D01*
X130070014Y-61768277D01*
X129919670Y-61603051D01*
X129915619Y-61599852D01*
X129915615Y-61599848D01*
X129748414Y-61467800D01*
X129748410Y-61467798D01*
X129744359Y-61464598D01*
X129548789Y-61356638D01*
X129543920Y-61354914D01*
X129543916Y-61354912D01*
X129343087Y-61283795D01*
X129343083Y-61283794D01*
X129338212Y-61282069D01*
X129333119Y-61281162D01*
X129333116Y-61281161D01*
X129123373Y-61243800D01*
X129123367Y-61243799D01*
X129118284Y-61242894D01*
X129044452Y-61241992D01*
X128900081Y-61240228D01*
X128900079Y-61240228D01*
X128894911Y-61240165D01*
X128674091Y-61273955D01*
X128461756Y-61343357D01*
X128431443Y-61359137D01*
X128318363Y-61418003D01*
X128263607Y-61446507D01*
X128259474Y-61449610D01*
X128259471Y-61449612D01*
X128089100Y-61577530D01*
X128084965Y-61580635D01*
X128028537Y-61639684D01*
X128004283Y-61665064D01*
X127942759Y-61700494D01*
X127871846Y-61697037D01*
X127814060Y-61655791D01*
X127795207Y-61622243D01*
X127753767Y-61511703D01*
X127750615Y-61503295D01*
X127663261Y-61386739D01*
X127546705Y-61299385D01*
X127410316Y-61248255D01*
X127348134Y-61241500D01*
X125551866Y-61241500D01*
X125489684Y-61248255D01*
X125353295Y-61299385D01*
X125236739Y-61386739D01*
X125149385Y-61503295D01*
X125098255Y-61639684D01*
X125091500Y-61701866D01*
X125091500Y-63498134D01*
X125098255Y-63560316D01*
X125111734Y-63596272D01*
X125116917Y-63667076D01*
X125082997Y-63729446D01*
X125020742Y-63763575D01*
X124993752Y-63766500D01*
X122204595Y-63766500D01*
X122136474Y-63746498D01*
X122115500Y-63729595D01*
X121441218Y-63055313D01*
X121407192Y-62993001D01*
X121409755Y-62929589D01*
X121417333Y-62904649D01*
X121422370Y-62888069D01*
X121451529Y-62666590D01*
X121451817Y-62654817D01*
X121453074Y-62603365D01*
X121453074Y-62603361D01*
X121453156Y-62600000D01*
X121434852Y-62377361D01*
X121380431Y-62160702D01*
X121291354Y-61955840D01*
X121243183Y-61881379D01*
X121172822Y-61772617D01*
X121172820Y-61772614D01*
X121170014Y-61768277D01*
X121019670Y-61603051D01*
X121015619Y-61599852D01*
X121015615Y-61599848D01*
X120848414Y-61467800D01*
X120848410Y-61467798D01*
X120844359Y-61464598D01*
X120648789Y-61356638D01*
X120643920Y-61354914D01*
X120643916Y-61354912D01*
X120443087Y-61283795D01*
X120443083Y-61283794D01*
X120438212Y-61282069D01*
X120433119Y-61281162D01*
X120433116Y-61281161D01*
X120223373Y-61243800D01*
X120223367Y-61243799D01*
X120218284Y-61242894D01*
X120144452Y-61241992D01*
X120000081Y-61240228D01*
X120000079Y-61240228D01*
X119994911Y-61240165D01*
X119774091Y-61273955D01*
X119561756Y-61343357D01*
X119531443Y-61359137D01*
X119418363Y-61418003D01*
X119363607Y-61446507D01*
X119359474Y-61449610D01*
X119359471Y-61449612D01*
X119189100Y-61577530D01*
X119184965Y-61580635D01*
X119128537Y-61639684D01*
X119104283Y-61665064D01*
X119042759Y-61700494D01*
X118971846Y-61697037D01*
X118914060Y-61655791D01*
X118895207Y-61622243D01*
X118853767Y-61511703D01*
X118850615Y-61503295D01*
X118763261Y-61386739D01*
X118646705Y-61299385D01*
X118510316Y-61248255D01*
X118448134Y-61241500D01*
X116651866Y-61241500D01*
X116589684Y-61248255D01*
X116453295Y-61299385D01*
X116336739Y-61386739D01*
X116249385Y-61503295D01*
X116198255Y-61639684D01*
X116191500Y-61701866D01*
X116191500Y-63498134D01*
X116198255Y-63560316D01*
X116249385Y-63696705D01*
X116336739Y-63813261D01*
X116453295Y-63900615D01*
X116589684Y-63951745D01*
X116651866Y-63958500D01*
X118448134Y-63958500D01*
X118510316Y-63951745D01*
X118646705Y-63900615D01*
X118763261Y-63813261D01*
X118850615Y-63696705D01*
X118855346Y-63684086D01*
X118894598Y-63579382D01*
X118937240Y-63522618D01*
X119003802Y-63497918D01*
X119073150Y-63513126D01*
X119107817Y-63541114D01*
X119136250Y-63573938D01*
X119308126Y-63716632D01*
X119501000Y-63829338D01*
X119505825Y-63831180D01*
X119505826Y-63831181D01*
X119566652Y-63854408D01*
X119709692Y-63909030D01*
X119714760Y-63910061D01*
X119714763Y-63910062D01*
X119815362Y-63930529D01*
X119928597Y-63953567D01*
X119933772Y-63953757D01*
X119933774Y-63953757D01*
X120146673Y-63961564D01*
X120146677Y-63961564D01*
X120151837Y-63961753D01*
X120156957Y-63961097D01*
X120156959Y-63961097D01*
X120368288Y-63934025D01*
X120368289Y-63934025D01*
X120373416Y-63933368D01*
X120378367Y-63931883D01*
X120378370Y-63931882D01*
X120419829Y-63919444D01*
X120490825Y-63919028D01*
X120545131Y-63951035D01*
X121386343Y-64792247D01*
X121393887Y-64800537D01*
X121398000Y-64807018D01*
X121403777Y-64812443D01*
X121447667Y-64853658D01*
X121450509Y-64856413D01*
X121470230Y-64876134D01*
X121473425Y-64878612D01*
X121482447Y-64886318D01*
X121514679Y-64916586D01*
X121521628Y-64920406D01*
X121532432Y-64926346D01*
X121548956Y-64937199D01*
X121564959Y-64949613D01*
X121572239Y-64952763D01*
X121579056Y-64956795D01*
X121577345Y-64959688D01*
X121620113Y-64995276D01*
X121641472Y-65062983D01*
X121622834Y-65131490D01*
X121570118Y-65179045D01*
X121515497Y-65191500D01*
X115384500Y-65191500D01*
X115316379Y-65171498D01*
X115269886Y-65117842D01*
X115258500Y-65065500D01*
X115258500Y-59134500D01*
X115278502Y-59066379D01*
X115332158Y-59019886D01*
X115384500Y-59008500D01*
X164365500Y-59008500D01*
X164433621Y-59028502D01*
G37*
%TD.AperFunction*%
%TD*%
M02*
