%TF.GenerationSoftware,KiCad,Pcbnew,(6.0.5)*%
%TF.CreationDate,2022-07-15T10:42:52-06:00*%
%TF.ProjectId,25to25,3235746f-3235-42e6-9b69-6361645f7063,rev?*%
%TF.SameCoordinates,Original*%
%TF.FileFunction,Copper,L1,Top*%
%TF.FilePolarity,Positive*%
%FSLAX46Y46*%
G04 Gerber Fmt 4.6, Leading zero omitted, Abs format (unit mm)*
G04 Created by KiCad (PCBNEW (6.0.5)) date 2022-07-15 10:42:52*
%MOMM*%
%LPD*%
G01*
G04 APERTURE LIST*
%TA.AperFunction,ComponentPad*%
%ADD10C,1.530000*%
%TD*%
%TA.AperFunction,ComponentPad*%
%ADD11R,1.700000X1.700000*%
%TD*%
%TA.AperFunction,ComponentPad*%
%ADD12O,1.700000X1.700000*%
%TD*%
%TA.AperFunction,ComponentPad*%
%ADD13C,3.200400*%
%TD*%
%TA.AperFunction,ComponentPad*%
%ADD14C,0.965200*%
%TD*%
%TA.AperFunction,Conductor*%
%ADD15C,0.127000*%
%TD*%
G04 APERTURE END LIST*
D10*
%TO.P,J4,1,1*%
%TO.N,Net-(J3-Pad1)*%
X139385033Y-76483276D03*
%TO.P,J4,2,2*%
%TO.N,Net-(J3-Pad2)*%
X140655033Y-79023276D03*
%TO.P,J4,3,3*%
%TO.N,Net-(J3-Pad3)*%
X143195033Y-79023276D03*
%TO.P,J4,4,4*%
%TO.N,Net-(J3-Pad4)*%
X145735033Y-79023276D03*
%TO.P,J4,5,5*%
%TO.N,Net-(J3-Pad5)*%
X147005033Y-76483276D03*
%TO.P,J4,6,6*%
%TO.N,Net-(J3-Pad6)*%
X148275033Y-79023276D03*
%TO.P,J4,7,7*%
%TO.N,Net-(J3-Pad7)*%
X149545033Y-76483276D03*
%TO.P,J4,8,8*%
%TO.N,Net-(J3-Pad8)*%
X150815033Y-79023276D03*
%TO.P,J4,9,9*%
%TO.N,Net-(J1-Pad1)*%
X152085033Y-76483276D03*
%TO.P,J4,10,10*%
%TO.N,Net-(J2-Pad1)*%
X153355033Y-79023276D03*
%TO.P,J4,11,11*%
%TO.N,Net-(J3-Pad11)*%
X155895033Y-79023276D03*
%TO.P,J4,12,12*%
%TO.N,Net-(J3-Pad12)*%
X158435033Y-79023276D03*
%TO.P,J4,13,13*%
%TO.N,Net-(J3-Pad13)*%
X159705033Y-76483276D03*
%TO.P,J4,14,P14*%
%TO.N,Net-(J3-Pad14)*%
X140655033Y-73943276D03*
%TO.P,J4,15,P15*%
%TO.N,Net-(J3-Pad15)*%
X141925033Y-76483276D03*
%TO.P,J4,16,P16*%
%TO.N,Net-(J3-Pad16)*%
X143195033Y-73943276D03*
%TO.P,J4,17,P17*%
%TO.N,Net-(J3-Pad17)*%
X144465033Y-76483276D03*
%TO.P,J4,18,P18*%
%TO.N,Net-(J3-Pad18)*%
X145735033Y-73943276D03*
%TO.P,J4,19,P19*%
%TO.N,Net-(J3-Pad19)*%
X148275033Y-73943276D03*
%TO.P,J4,20,P20*%
%TO.N,Net-(J3-Pad20)*%
X150815033Y-73943276D03*
%TO.P,J4,21,P21*%
%TO.N,Net-(J3-Pad21)*%
X153355033Y-73943276D03*
%TO.P,J4,22,P22*%
%TO.N,Net-(J1-Pad2)*%
X154625033Y-76483276D03*
%TO.P,J4,23,P23*%
%TO.N,Net-(J2-Pad2)*%
X155895033Y-73943276D03*
%TO.P,J4,24,P24*%
%TO.N,Net-(J3-Pad24)*%
X157165033Y-76483276D03*
%TO.P,J4,25,P25*%
%TO.N,Net-(J3-Pad25)*%
X158435033Y-73943276D03*
%TD*%
D11*
%TO.P,J2,1,Pin_1*%
%TO.N,Net-(J2-Pad1)*%
X117550000Y-62600000D03*
D12*
%TO.P,J2,2,Pin_2*%
%TO.N,Net-(J2-Pad2)*%
X120090000Y-62600000D03*
%TD*%
D11*
%TO.P,J1,1,Pin_1*%
%TO.N,Net-(J1-Pad1)*%
X126450000Y-62600000D03*
D12*
%TO.P,J1,2,Pin_2*%
%TO.N,Net-(J1-Pad2)*%
X128990000Y-62600000D03*
%TD*%
D13*
%TO.P,J3,0,PAD*%
%TO.N,GND*%
X161550001Y-63490000D03*
X137049999Y-63490000D03*
D14*
%TO.P,J3,1,1*%
%TO.N,Net-(J3-Pad1)*%
X141680000Y-67300000D03*
%TO.P,J3,2,2*%
%TO.N,Net-(J3-Pad2)*%
X142950000Y-67300000D03*
%TO.P,J3,3,3*%
%TO.N,Net-(J3-Pad3)*%
X144220000Y-67300000D03*
%TO.P,J3,4,4*%
%TO.N,Net-(J3-Pad4)*%
X145490000Y-67300000D03*
%TO.P,J3,5,5*%
%TO.N,Net-(J3-Pad5)*%
X146760000Y-67300000D03*
%TO.P,J3,6,6*%
%TO.N,Net-(J3-Pad6)*%
X148030000Y-67300000D03*
%TO.P,J3,7,7*%
%TO.N,Net-(J3-Pad7)*%
X149300000Y-67300000D03*
%TO.P,J3,8,8*%
%TO.N,Net-(J3-Pad8)*%
X150570000Y-67300000D03*
%TO.P,J3,9,9*%
%TO.N,Net-(J1-Pad1)*%
X151840000Y-67300000D03*
%TO.P,J3,10,10*%
%TO.N,Net-(J2-Pad1)*%
X153110000Y-67300000D03*
%TO.P,J3,11,11*%
%TO.N,Net-(J3-Pad11)*%
X154380000Y-67300000D03*
%TO.P,J3,12,12*%
%TO.N,Net-(J3-Pad12)*%
X155650000Y-67300000D03*
%TO.P,J3,13,13*%
%TO.N,Net-(J3-Pad13)*%
X156920000Y-67300000D03*
%TO.P,J3,14,P14*%
%TO.N,Net-(J3-Pad14)*%
X142315000Y-64760000D03*
%TO.P,J3,15,P15*%
%TO.N,Net-(J3-Pad15)*%
X143585000Y-64760000D03*
%TO.P,J3,16,P16*%
%TO.N,Net-(J3-Pad16)*%
X144855000Y-64760000D03*
%TO.P,J3,17,P17*%
%TO.N,Net-(J3-Pad17)*%
X146125000Y-64760000D03*
%TO.P,J3,18,P18*%
%TO.N,Net-(J3-Pad18)*%
X147395000Y-64760000D03*
%TO.P,J3,19,P19*%
%TO.N,Net-(J3-Pad19)*%
X148665000Y-64760000D03*
%TO.P,J3,20,P20*%
%TO.N,Net-(J3-Pad20)*%
X149935000Y-64760000D03*
%TO.P,J3,21,P21*%
%TO.N,Net-(J3-Pad21)*%
X151205000Y-64760000D03*
%TO.P,J3,22,P22*%
%TO.N,Net-(J1-Pad2)*%
X152475000Y-64760000D03*
%TO.P,J3,23,P23*%
%TO.N,Net-(J2-Pad2)*%
X153745000Y-64760000D03*
%TO.P,J3,24,P24*%
%TO.N,Net-(J3-Pad24)*%
X155015000Y-64760000D03*
%TO.P,J3,25,P25*%
%TO.N,Net-(J3-Pad25)*%
X156285000Y-64760000D03*
%TD*%
D15*
%TO.N,Net-(J2-Pad1)*%
X118750000Y-61400000D02*
X131420348Y-61400000D01*
X131420348Y-61400000D02*
X136393828Y-66373480D01*
X117550000Y-62600000D02*
X118750000Y-61400000D01*
X152183480Y-66373480D02*
X136393828Y-66373480D01*
X153110000Y-67300000D02*
X152183480Y-66373480D01*
%TO.N,Net-(J1-Pad1)*%
X129255611Y-65405611D02*
X126450000Y-62600000D01*
X135105611Y-65405611D02*
X129255611Y-65405611D01*
X136300000Y-66600000D02*
X135105611Y-65405611D01*
X151840000Y-67300000D02*
X151140000Y-66600000D01*
X151140000Y-66600000D02*
X136300000Y-66600000D01*
%TO.N,Net-(J3-Pad13)*%
X159705033Y-70085033D02*
X156920000Y-67300000D01*
X159705033Y-76483276D02*
X159705033Y-70085033D01*
%TO.N,Net-(J3-Pad12)*%
X158435033Y-76440869D02*
X158435033Y-79023276D01*
X157305265Y-75311101D02*
X158435033Y-76440869D01*
X157305265Y-68955265D02*
X157305265Y-75311101D01*
X155650000Y-67300000D02*
X157305265Y-68955265D01*
%TO.N,Net-(J3-Pad11)*%
X155895033Y-76440869D02*
X155895033Y-79023276D01*
X154380000Y-74925836D02*
X155895033Y-76440869D01*
X154380000Y-67300000D02*
X154380000Y-74925836D01*
%TO.N,Net-(J2-Pad1)*%
X153355033Y-76440869D02*
X153355033Y-79023276D01*
X152427022Y-75512858D02*
X153355033Y-76440869D01*
X153110000Y-67300000D02*
X152427022Y-67982978D01*
X152427022Y-67982978D02*
X152427022Y-75512858D01*
%TO.N,Net-(J1-Pad1)*%
X151840000Y-76238243D02*
X152085033Y-76483276D01*
X151840000Y-67300000D02*
X151840000Y-76238243D01*
%TO.N,Net-(J3-Pad8)*%
X150815033Y-76440869D02*
X150815033Y-79023276D01*
X149887022Y-75512858D02*
X150815033Y-76440869D01*
X149887022Y-67982978D02*
X149887022Y-75512858D01*
X150570000Y-67300000D02*
X149887022Y-67982978D01*
%TO.N,Net-(J3-Pad7)*%
X149545033Y-67545033D02*
X149300000Y-67300000D01*
X149545033Y-76483276D02*
X149545033Y-67545033D01*
%TO.N,Net-(J3-Pad6)*%
X147347022Y-75512858D02*
X148275033Y-76440869D01*
X147347022Y-67982978D02*
X147347022Y-75512858D01*
X148275033Y-76440869D02*
X148275033Y-79023276D01*
X148030000Y-67300000D02*
X147347022Y-67982978D01*
%TO.N,Net-(J3-Pad5)*%
X147005033Y-67545033D02*
X146760000Y-67300000D01*
X147005033Y-76483276D02*
X147005033Y-67545033D01*
%TO.N,Net-(J3-Pad4)*%
X146663044Y-75512858D02*
X145735033Y-76440869D01*
X145735033Y-76440869D02*
X145735033Y-79023276D01*
X146663044Y-68473044D02*
X146663044Y-75512858D01*
X145490000Y-67300000D02*
X146663044Y-68473044D01*
%TO.N,Net-(J3-Pad3)*%
X144220000Y-75415902D02*
X143195033Y-76440869D01*
X143195033Y-76440869D02*
X143195033Y-79023276D01*
X144220000Y-67300000D02*
X144220000Y-75415902D01*
%TO.N,Net-(J3-Pad2)*%
X142267022Y-67982978D02*
X142950000Y-67300000D01*
X142267022Y-73643694D02*
X142267022Y-67982978D01*
X140655033Y-75255683D02*
X142267022Y-73643694D01*
X140655033Y-79023276D02*
X140655033Y-75255683D01*
%TO.N,Net-(J3-Pad1)*%
X139385033Y-69594967D02*
X141680000Y-67300000D01*
X139385033Y-76483276D02*
X139385033Y-69594967D01*
%TD*%
%TA.AperFunction,Conductor*%
%TO.N,GND*%
G36*
X164933621Y-59028502D02*
G01*
X164980114Y-59082158D01*
X164991500Y-59134500D01*
X164991500Y-82165500D01*
X164971498Y-82233621D01*
X164917842Y-82280114D01*
X164865500Y-82291500D01*
X133834500Y-82291500D01*
X133766379Y-82271498D01*
X133719886Y-82217842D01*
X133708500Y-82165500D01*
X133708500Y-66103611D01*
X133728502Y-66035490D01*
X133782158Y-65988997D01*
X133834500Y-65977611D01*
X134816491Y-65977611D01*
X134884612Y-65997613D01*
X134905586Y-66014516D01*
X135863180Y-66972110D01*
X135874047Y-66984500D01*
X135892045Y-67007955D01*
X135898595Y-67012981D01*
X135898598Y-67012984D01*
X135922045Y-67030975D01*
X135922046Y-67030976D01*
X135999825Y-67090658D01*
X136011532Y-67099641D01*
X136150678Y-67157277D01*
X136181375Y-67161318D01*
X136262497Y-67171999D01*
X136262506Y-67172000D01*
X136262509Y-67172000D01*
X136262521Y-67172001D01*
X136291811Y-67175857D01*
X136291812Y-67175857D01*
X136300000Y-67176935D01*
X136308188Y-67175857D01*
X136308189Y-67175857D01*
X136329298Y-67173078D01*
X136345744Y-67172000D01*
X140558757Y-67172000D01*
X140626878Y-67192002D01*
X140673371Y-67245658D01*
X140684315Y-67287457D01*
X140694860Y-67413034D01*
X140680628Y-67482589D01*
X140658397Y-67512672D01*
X139012919Y-69158151D01*
X139000528Y-69169018D01*
X138977078Y-69187012D01*
X138885392Y-69306499D01*
X138827756Y-69445645D01*
X138813033Y-69557475D01*
X138813033Y-69557481D01*
X138808098Y-69594967D01*
X138809176Y-69603155D01*
X138809176Y-69603156D01*
X138811955Y-69624265D01*
X138813033Y-69640711D01*
X138813033Y-74763398D01*
X138793031Y-74831519D01*
X138739375Y-74878012D01*
X138669101Y-74888116D01*
X138604521Y-74858622D01*
X138595314Y-74849350D01*
X138595263Y-74849401D01*
X138530826Y-74784626D01*
X138409794Y-74662959D01*
X138198259Y-74506716D01*
X137965523Y-74384269D01*
X137716944Y-74298433D01*
X137597862Y-74276685D01*
X137462213Y-74251911D01*
X137462210Y-74251911D01*
X137458242Y-74251186D01*
X137374096Y-74246776D01*
X137210159Y-74246776D01*
X137207780Y-74246957D01*
X137207779Y-74246957D01*
X137019576Y-74261273D01*
X137019571Y-74261274D01*
X137014809Y-74261636D01*
X137010155Y-74262715D01*
X137010153Y-74262715D01*
X136859765Y-74297573D01*
X136758620Y-74321017D01*
X136514360Y-74418467D01*
X136287651Y-74551742D01*
X136083710Y-74717776D01*
X135907231Y-74912748D01*
X135904590Y-74916746D01*
X135904589Y-74916747D01*
X135865151Y-74976445D01*
X135762273Y-75132171D01*
X135760272Y-75136511D01*
X135760270Y-75136515D01*
X135664162Y-75344990D01*
X135652173Y-75370996D01*
X135650849Y-75375597D01*
X135650849Y-75375598D01*
X135630274Y-75447118D01*
X135579465Y-75623727D01*
X135545822Y-75884547D01*
X135552018Y-76147455D01*
X135597910Y-76406402D01*
X135682442Y-76655427D01*
X135803670Y-76888800D01*
X135958803Y-77101151D01*
X136144272Y-77287593D01*
X136355807Y-77443836D01*
X136588543Y-77566283D01*
X136837122Y-77652119D01*
X136906831Y-77664850D01*
X137091853Y-77698641D01*
X137091856Y-77698641D01*
X137095824Y-77699366D01*
X137179970Y-77703776D01*
X137343907Y-77703776D01*
X137346286Y-77703595D01*
X137346287Y-77703595D01*
X137534490Y-77689279D01*
X137534495Y-77689278D01*
X137539257Y-77688916D01*
X137543911Y-77687837D01*
X137543913Y-77687837D01*
X137790782Y-77630616D01*
X137790781Y-77630616D01*
X137795446Y-77629535D01*
X138039706Y-77532085D01*
X138266415Y-77398810D01*
X138270135Y-77395782D01*
X138306722Y-77365995D01*
X138372178Y-77338498D01*
X138442109Y-77350754D01*
X138475368Y-77374612D01*
X138563316Y-77462560D01*
X138745850Y-77590373D01*
X138750832Y-77592696D01*
X138750837Y-77592699D01*
X138942824Y-77682223D01*
X138947806Y-77684546D01*
X138953114Y-77685968D01*
X138953116Y-77685969D01*
X139003902Y-77699577D01*
X139163047Y-77742220D01*
X139385033Y-77761641D01*
X139607019Y-77742220D01*
X139766164Y-77699577D01*
X139816950Y-77685969D01*
X139816952Y-77685968D01*
X139822260Y-77684546D01*
X139903784Y-77646531D01*
X139973974Y-77635870D01*
X140038787Y-77664850D01*
X140077644Y-77724269D01*
X140083033Y-77760726D01*
X140083033Y-77805199D01*
X140063031Y-77873320D01*
X140020216Y-77914144D01*
X140015851Y-77916179D01*
X140011347Y-77919332D01*
X140011343Y-77919335D01*
X139837827Y-78040833D01*
X139833316Y-78043992D01*
X139675749Y-78201559D01*
X139547936Y-78384094D01*
X139545613Y-78389076D01*
X139545610Y-78389081D01*
X139499228Y-78488549D01*
X139453763Y-78586049D01*
X139396089Y-78801290D01*
X139376668Y-79023276D01*
X139396089Y-79245262D01*
X139453763Y-79460503D01*
X139456085Y-79465484D01*
X139456086Y-79465485D01*
X139545610Y-79657471D01*
X139545613Y-79657476D01*
X139547936Y-79662458D01*
X139675749Y-79844993D01*
X139833316Y-80002560D01*
X140015850Y-80130373D01*
X140020832Y-80132696D01*
X140020837Y-80132699D01*
X140212824Y-80222223D01*
X140217806Y-80224546D01*
X140223114Y-80225968D01*
X140223116Y-80225969D01*
X140289498Y-80243756D01*
X140433047Y-80282220D01*
X140655033Y-80301641D01*
X140877019Y-80282220D01*
X141020568Y-80243756D01*
X141086950Y-80225969D01*
X141086952Y-80225968D01*
X141092260Y-80224546D01*
X141097242Y-80222223D01*
X141289229Y-80132699D01*
X141289234Y-80132696D01*
X141294216Y-80130373D01*
X141476750Y-80002560D01*
X141634317Y-79844993D01*
X141762130Y-79662458D01*
X141764453Y-79657476D01*
X141764456Y-79657471D01*
X141810838Y-79558003D01*
X141857755Y-79504718D01*
X141926032Y-79485257D01*
X141993992Y-79505799D01*
X142039228Y-79558003D01*
X142085610Y-79657471D01*
X142085613Y-79657476D01*
X142087936Y-79662458D01*
X142215749Y-79844993D01*
X142373316Y-80002560D01*
X142555850Y-80130373D01*
X142560832Y-80132696D01*
X142560837Y-80132699D01*
X142752824Y-80222223D01*
X142757806Y-80224546D01*
X142763114Y-80225968D01*
X142763116Y-80225969D01*
X142829498Y-80243756D01*
X142973047Y-80282220D01*
X143195033Y-80301641D01*
X143417019Y-80282220D01*
X143560568Y-80243756D01*
X143626950Y-80225969D01*
X143626952Y-80225968D01*
X143632260Y-80224546D01*
X143637242Y-80222223D01*
X143829229Y-80132699D01*
X143829234Y-80132696D01*
X143834216Y-80130373D01*
X144016750Y-80002560D01*
X144174317Y-79844993D01*
X144302130Y-79662458D01*
X144304453Y-79657476D01*
X144304456Y-79657471D01*
X144350838Y-79558003D01*
X144397755Y-79504718D01*
X144466032Y-79485257D01*
X144533992Y-79505799D01*
X144579228Y-79558003D01*
X144625610Y-79657471D01*
X144625613Y-79657476D01*
X144627936Y-79662458D01*
X144755749Y-79844993D01*
X144913316Y-80002560D01*
X145095850Y-80130373D01*
X145100832Y-80132696D01*
X145100837Y-80132699D01*
X145292824Y-80222223D01*
X145297806Y-80224546D01*
X145303114Y-80225968D01*
X145303116Y-80225969D01*
X145369498Y-80243756D01*
X145513047Y-80282220D01*
X145735033Y-80301641D01*
X145957019Y-80282220D01*
X146100568Y-80243756D01*
X146166950Y-80225969D01*
X146166952Y-80225968D01*
X146172260Y-80224546D01*
X146177242Y-80222223D01*
X146369229Y-80132699D01*
X146369234Y-80132696D01*
X146374216Y-80130373D01*
X146556750Y-80002560D01*
X146714317Y-79844993D01*
X146842130Y-79662458D01*
X146844453Y-79657476D01*
X146844456Y-79657471D01*
X146890838Y-79558003D01*
X146937755Y-79504718D01*
X147006032Y-79485257D01*
X147073992Y-79505799D01*
X147119228Y-79558003D01*
X147165610Y-79657471D01*
X147165613Y-79657476D01*
X147167936Y-79662458D01*
X147295749Y-79844993D01*
X147453316Y-80002560D01*
X147635850Y-80130373D01*
X147640832Y-80132696D01*
X147640837Y-80132699D01*
X147832824Y-80222223D01*
X147837806Y-80224546D01*
X147843114Y-80225968D01*
X147843116Y-80225969D01*
X147909498Y-80243756D01*
X148053047Y-80282220D01*
X148275033Y-80301641D01*
X148497019Y-80282220D01*
X148640568Y-80243756D01*
X148706950Y-80225969D01*
X148706952Y-80225968D01*
X148712260Y-80224546D01*
X148717242Y-80222223D01*
X148909229Y-80132699D01*
X148909234Y-80132696D01*
X148914216Y-80130373D01*
X149096750Y-80002560D01*
X149254317Y-79844993D01*
X149382130Y-79662458D01*
X149384453Y-79657476D01*
X149384456Y-79657471D01*
X149430838Y-79558003D01*
X149477755Y-79504718D01*
X149546032Y-79485257D01*
X149613992Y-79505799D01*
X149659228Y-79558003D01*
X149705610Y-79657471D01*
X149705613Y-79657476D01*
X149707936Y-79662458D01*
X149835749Y-79844993D01*
X149993316Y-80002560D01*
X150175850Y-80130373D01*
X150180832Y-80132696D01*
X150180837Y-80132699D01*
X150372824Y-80222223D01*
X150377806Y-80224546D01*
X150383114Y-80225968D01*
X150383116Y-80225969D01*
X150449498Y-80243756D01*
X150593047Y-80282220D01*
X150815033Y-80301641D01*
X151037019Y-80282220D01*
X151180568Y-80243756D01*
X151246950Y-80225969D01*
X151246952Y-80225968D01*
X151252260Y-80224546D01*
X151257242Y-80222223D01*
X151449229Y-80132699D01*
X151449234Y-80132696D01*
X151454216Y-80130373D01*
X151636750Y-80002560D01*
X151794317Y-79844993D01*
X151922130Y-79662458D01*
X151924453Y-79657476D01*
X151924456Y-79657471D01*
X151970838Y-79558003D01*
X152017755Y-79504718D01*
X152086032Y-79485257D01*
X152153992Y-79505799D01*
X152199228Y-79558003D01*
X152245610Y-79657471D01*
X152245613Y-79657476D01*
X152247936Y-79662458D01*
X152375749Y-79844993D01*
X152533316Y-80002560D01*
X152715850Y-80130373D01*
X152720832Y-80132696D01*
X152720837Y-80132699D01*
X152912824Y-80222223D01*
X152917806Y-80224546D01*
X152923114Y-80225968D01*
X152923116Y-80225969D01*
X152989498Y-80243756D01*
X153133047Y-80282220D01*
X153355033Y-80301641D01*
X153577019Y-80282220D01*
X153720568Y-80243756D01*
X153786950Y-80225969D01*
X153786952Y-80225968D01*
X153792260Y-80224546D01*
X153797242Y-80222223D01*
X153989229Y-80132699D01*
X153989234Y-80132696D01*
X153994216Y-80130373D01*
X154176750Y-80002560D01*
X154334317Y-79844993D01*
X154462130Y-79662458D01*
X154464453Y-79657476D01*
X154464456Y-79657471D01*
X154510838Y-79558003D01*
X154557755Y-79504718D01*
X154626032Y-79485257D01*
X154693992Y-79505799D01*
X154739228Y-79558003D01*
X154785610Y-79657471D01*
X154785613Y-79657476D01*
X154787936Y-79662458D01*
X154915749Y-79844993D01*
X155073316Y-80002560D01*
X155255850Y-80130373D01*
X155260832Y-80132696D01*
X155260837Y-80132699D01*
X155452824Y-80222223D01*
X155457806Y-80224546D01*
X155463114Y-80225968D01*
X155463116Y-80225969D01*
X155529498Y-80243756D01*
X155673047Y-80282220D01*
X155895033Y-80301641D01*
X156117019Y-80282220D01*
X156260568Y-80243756D01*
X156326950Y-80225969D01*
X156326952Y-80225968D01*
X156332260Y-80224546D01*
X156337242Y-80222223D01*
X156529229Y-80132699D01*
X156529234Y-80132696D01*
X156534216Y-80130373D01*
X156716750Y-80002560D01*
X156874317Y-79844993D01*
X157002130Y-79662458D01*
X157004453Y-79657476D01*
X157004456Y-79657471D01*
X157050838Y-79558003D01*
X157097755Y-79504718D01*
X157166032Y-79485257D01*
X157233992Y-79505799D01*
X157279228Y-79558003D01*
X157325610Y-79657471D01*
X157325613Y-79657476D01*
X157327936Y-79662458D01*
X157455749Y-79844993D01*
X157613316Y-80002560D01*
X157795850Y-80130373D01*
X157800832Y-80132696D01*
X157800837Y-80132699D01*
X157992824Y-80222223D01*
X157997806Y-80224546D01*
X158003114Y-80225968D01*
X158003116Y-80225969D01*
X158069498Y-80243756D01*
X158213047Y-80282220D01*
X158435033Y-80301641D01*
X158657019Y-80282220D01*
X158800568Y-80243756D01*
X158866950Y-80225969D01*
X158866952Y-80225968D01*
X158872260Y-80224546D01*
X158877242Y-80222223D01*
X159069229Y-80132699D01*
X159069234Y-80132696D01*
X159074216Y-80130373D01*
X159256750Y-80002560D01*
X159414317Y-79844993D01*
X159542130Y-79662458D01*
X159544453Y-79657476D01*
X159544456Y-79657471D01*
X159633980Y-79465485D01*
X159633981Y-79465484D01*
X159636303Y-79460503D01*
X159693977Y-79245262D01*
X159713398Y-79023276D01*
X159693977Y-78801290D01*
X159636303Y-78586049D01*
X159590838Y-78488549D01*
X159544456Y-78389081D01*
X159544453Y-78389076D01*
X159542130Y-78384094D01*
X159414317Y-78201559D01*
X159256750Y-78043992D01*
X159074216Y-77916179D01*
X159069879Y-77914157D01*
X159021039Y-77862932D01*
X159007033Y-77805198D01*
X159007033Y-77760726D01*
X159027035Y-77692605D01*
X159080691Y-77646112D01*
X159150965Y-77636008D01*
X159186280Y-77646530D01*
X159267806Y-77684546D01*
X159273114Y-77685968D01*
X159273116Y-77685969D01*
X159323902Y-77699577D01*
X159483047Y-77742220D01*
X159705033Y-77761641D01*
X159927019Y-77742220D01*
X160086164Y-77699577D01*
X160136950Y-77685969D01*
X160136952Y-77685968D01*
X160142260Y-77684546D01*
X160147242Y-77682223D01*
X160339229Y-77592699D01*
X160339234Y-77592696D01*
X160344216Y-77590373D01*
X160526750Y-77462560D01*
X160615905Y-77373405D01*
X160678217Y-77339379D01*
X160749032Y-77344444D01*
X160779854Y-77361146D01*
X160891807Y-77443836D01*
X160896037Y-77446061D01*
X160896041Y-77446064D01*
X161062916Y-77533860D01*
X161124543Y-77566283D01*
X161373122Y-77652119D01*
X161442831Y-77664850D01*
X161627853Y-77698641D01*
X161627856Y-77698641D01*
X161631824Y-77699366D01*
X161715970Y-77703776D01*
X161879907Y-77703776D01*
X161882286Y-77703595D01*
X161882287Y-77703595D01*
X162070490Y-77689279D01*
X162070495Y-77689278D01*
X162075257Y-77688916D01*
X162079911Y-77687837D01*
X162079913Y-77687837D01*
X162326782Y-77630616D01*
X162326781Y-77630616D01*
X162331446Y-77629535D01*
X162575706Y-77532085D01*
X162802415Y-77398810D01*
X163006356Y-77232776D01*
X163182835Y-77037804D01*
X163327793Y-76818381D01*
X163405004Y-76650899D01*
X163435887Y-76583908D01*
X163435888Y-76583905D01*
X163437893Y-76579556D01*
X163510601Y-76326825D01*
X163544244Y-76066005D01*
X163539856Y-75879810D01*
X163538161Y-75807877D01*
X163538161Y-75807872D01*
X163538048Y-75803097D01*
X163492156Y-75544150D01*
X163407624Y-75295125D01*
X163286396Y-75061752D01*
X163131263Y-74849401D01*
X163113475Y-74831519D01*
X162949172Y-74666355D01*
X162945794Y-74662959D01*
X162734259Y-74506716D01*
X162501523Y-74384269D01*
X162252944Y-74298433D01*
X162133862Y-74276685D01*
X161998213Y-74251911D01*
X161998210Y-74251911D01*
X161994242Y-74251186D01*
X161910096Y-74246776D01*
X161746159Y-74246776D01*
X161743780Y-74246957D01*
X161743779Y-74246957D01*
X161555576Y-74261273D01*
X161555571Y-74261274D01*
X161550809Y-74261636D01*
X161546155Y-74262715D01*
X161546153Y-74262715D01*
X161395765Y-74297573D01*
X161294620Y-74321017D01*
X161050360Y-74418467D01*
X160823651Y-74551742D01*
X160619710Y-74717776D01*
X160559201Y-74784626D01*
X160496448Y-74853954D01*
X160435905Y-74891035D01*
X160364925Y-74889498D01*
X160306044Y-74849830D01*
X160277956Y-74784626D01*
X160277033Y-74769399D01*
X160277033Y-70130777D01*
X160278111Y-70114331D01*
X160280890Y-70093222D01*
X160280890Y-70093221D01*
X160281968Y-70085033D01*
X160277033Y-70047547D01*
X160277033Y-70047541D01*
X160262310Y-69935711D01*
X160204674Y-69796565D01*
X160199645Y-69790011D01*
X160136032Y-69707107D01*
X160136021Y-69707094D01*
X160136009Y-69707078D01*
X160136004Y-69707073D01*
X160112988Y-69677078D01*
X160089543Y-69659088D01*
X160077152Y-69648221D01*
X157941347Y-67512417D01*
X157907322Y-67450105D01*
X157905436Y-67407533D01*
X157915508Y-67327807D01*
X157915896Y-67300000D01*
X157896929Y-67106563D01*
X157895148Y-67100664D01*
X157895147Y-67100659D01*
X157842533Y-66926394D01*
X157840752Y-66920494D01*
X157749503Y-66748880D01*
X157703682Y-66692698D01*
X157630554Y-66603033D01*
X157630551Y-66603030D01*
X157626659Y-66598258D01*
X157621910Y-66594329D01*
X157481648Y-66478294D01*
X157481644Y-66478292D01*
X157476898Y-66474365D01*
X157305925Y-66381920D01*
X157213089Y-66353183D01*
X157126140Y-66326267D01*
X157126137Y-66326266D01*
X157120253Y-66324445D01*
X157114128Y-66323801D01*
X157114127Y-66323801D01*
X156933081Y-66304772D01*
X156933080Y-66304772D01*
X156926953Y-66304128D01*
X156846331Y-66311465D01*
X156739527Y-66321185D01*
X156739524Y-66321186D01*
X156733388Y-66321744D01*
X156727482Y-66323482D01*
X156727478Y-66323483D01*
X156625139Y-66353603D01*
X156546931Y-66376621D01*
X156541473Y-66379474D01*
X156541469Y-66379476D01*
X156531190Y-66384850D01*
X156374684Y-66466670D01*
X156369886Y-66470528D01*
X156369878Y-66470533D01*
X156364841Y-66474583D01*
X156299219Y-66501680D01*
X156229364Y-66488997D01*
X156215429Y-66480844D01*
X156211642Y-66478290D01*
X156206898Y-66474365D01*
X156035925Y-66381920D01*
X155943089Y-66353183D01*
X155856140Y-66326267D01*
X155856137Y-66326266D01*
X155850253Y-66324445D01*
X155844128Y-66323801D01*
X155844127Y-66323801D01*
X155663081Y-66304772D01*
X155663080Y-66304772D01*
X155656953Y-66304128D01*
X155576331Y-66311465D01*
X155469527Y-66321185D01*
X155469524Y-66321186D01*
X155463388Y-66321744D01*
X155457482Y-66323482D01*
X155457478Y-66323483D01*
X155355139Y-66353603D01*
X155276931Y-66376621D01*
X155271473Y-66379474D01*
X155271469Y-66379476D01*
X155261190Y-66384850D01*
X155104684Y-66466670D01*
X155099886Y-66470528D01*
X155099878Y-66470533D01*
X155094841Y-66474583D01*
X155029219Y-66501680D01*
X154959364Y-66488997D01*
X154945429Y-66480844D01*
X154941642Y-66478290D01*
X154936898Y-66474365D01*
X154765925Y-66381920D01*
X154673089Y-66353183D01*
X154586140Y-66326267D01*
X154586137Y-66326266D01*
X154580253Y-66324445D01*
X154574128Y-66323801D01*
X154574127Y-66323801D01*
X154393081Y-66304772D01*
X154393080Y-66304772D01*
X154386953Y-66304128D01*
X154306331Y-66311465D01*
X154199527Y-66321185D01*
X154199524Y-66321186D01*
X154193388Y-66321744D01*
X154187482Y-66323482D01*
X154187478Y-66323483D01*
X154085139Y-66353603D01*
X154006931Y-66376621D01*
X154001473Y-66379474D01*
X154001469Y-66379476D01*
X153991190Y-66384850D01*
X153834684Y-66466670D01*
X153829886Y-66470528D01*
X153829878Y-66470533D01*
X153824841Y-66474583D01*
X153759219Y-66501680D01*
X153689364Y-66488997D01*
X153675429Y-66480844D01*
X153671642Y-66478290D01*
X153666898Y-66474365D01*
X153495925Y-66381920D01*
X153403089Y-66353183D01*
X153316140Y-66326267D01*
X153316137Y-66326266D01*
X153310253Y-66324445D01*
X153304128Y-66323801D01*
X153304127Y-66323801D01*
X153123081Y-66304772D01*
X153123080Y-66304772D01*
X153116953Y-66304128D01*
X152998010Y-66314953D01*
X152928359Y-66301208D01*
X152897497Y-66278567D01*
X152620296Y-66001366D01*
X152609429Y-65988975D01*
X152596464Y-65972078D01*
X152596461Y-65972075D01*
X152591435Y-65965525D01*
X152584885Y-65960499D01*
X152579043Y-65954657D01*
X152581344Y-65952356D01*
X152548484Y-65907359D01*
X152544259Y-65836489D01*
X152579020Y-65774584D01*
X152644402Y-65741038D01*
X152647936Y-65740766D01*
X152835140Y-65688498D01*
X153008628Y-65600863D01*
X153030650Y-65583658D01*
X153096643Y-65557480D01*
X153166314Y-65571137D01*
X153174961Y-65576359D01*
X153176629Y-65577779D01*
X153346294Y-65672602D01*
X153531146Y-65732664D01*
X153724144Y-65755678D01*
X153730279Y-65755206D01*
X153730281Y-65755206D01*
X153911795Y-65741239D01*
X153911800Y-65741238D01*
X153917936Y-65740766D01*
X153923866Y-65739110D01*
X153923868Y-65739110D01*
X154071458Y-65697902D01*
X154105140Y-65688498D01*
X154278628Y-65600863D01*
X154300650Y-65583658D01*
X154366643Y-65557480D01*
X154436314Y-65571137D01*
X154444961Y-65576359D01*
X154446629Y-65577779D01*
X154616294Y-65672602D01*
X154801146Y-65732664D01*
X154994144Y-65755678D01*
X155000279Y-65755206D01*
X155000281Y-65755206D01*
X155181795Y-65741239D01*
X155181800Y-65741238D01*
X155187936Y-65740766D01*
X155193866Y-65739110D01*
X155193868Y-65739110D01*
X155341458Y-65697902D01*
X155375140Y-65688498D01*
X155548628Y-65600863D01*
X155570650Y-65583658D01*
X155636643Y-65557480D01*
X155706314Y-65571137D01*
X155714961Y-65576359D01*
X155716629Y-65577779D01*
X155886294Y-65672602D01*
X156071146Y-65732664D01*
X156264144Y-65755678D01*
X156270279Y-65755206D01*
X156270281Y-65755206D01*
X156451795Y-65741239D01*
X156451800Y-65741238D01*
X156457936Y-65740766D01*
X156463866Y-65739110D01*
X156463868Y-65739110D01*
X156611458Y-65697902D01*
X156645140Y-65688498D01*
X156818628Y-65600863D01*
X156825132Y-65595782D01*
X156874155Y-65557480D01*
X156971789Y-65481200D01*
X156975815Y-65476536D01*
X156975818Y-65476533D01*
X157094763Y-65338733D01*
X157098791Y-65334067D01*
X157101834Y-65328710D01*
X157101837Y-65328706D01*
X157152291Y-65239889D01*
X157194796Y-65165067D01*
X157199547Y-65150788D01*
X160254485Y-65150788D01*
X160261540Y-65160761D01*
X160304642Y-65196800D01*
X160311575Y-65201837D01*
X160547802Y-65350022D01*
X160555354Y-65354071D01*
X160809512Y-65468829D01*
X160817543Y-65471815D01*
X161084924Y-65551017D01*
X161093276Y-65552884D01*
X161368938Y-65595066D01*
X161377471Y-65595782D01*
X161656302Y-65600163D01*
X161664853Y-65599714D01*
X161941703Y-65566212D01*
X161950104Y-65564610D01*
X162219859Y-65493841D01*
X162227961Y-65491114D01*
X162485606Y-65384394D01*
X162493274Y-65380588D01*
X162734051Y-65239889D01*
X162741132Y-65235076D01*
X162836026Y-65160671D01*
X162844496Y-65148812D01*
X162837979Y-65137188D01*
X161562813Y-63862022D01*
X161548869Y-63854408D01*
X161547036Y-63854539D01*
X161540421Y-63858790D01*
X160261777Y-65137434D01*
X160254485Y-65150788D01*
X157199547Y-65150788D01*
X157200204Y-65148812D01*
X157225373Y-65073149D01*
X157256147Y-64980639D01*
X157263233Y-64924547D01*
X157280066Y-64791309D01*
X157280067Y-64791302D01*
X157280508Y-64787807D01*
X157280896Y-64760000D01*
X157261929Y-64566563D01*
X157260148Y-64560664D01*
X157260147Y-64560659D01*
X157207533Y-64386394D01*
X157205752Y-64380494D01*
X157114503Y-64208880D01*
X157022908Y-64096573D01*
X156995554Y-64063033D01*
X156995551Y-64063030D01*
X156991659Y-64058258D01*
X156985520Y-64053179D01*
X156846648Y-63938294D01*
X156846644Y-63938292D01*
X156841898Y-63934365D01*
X156670925Y-63841920D01*
X156555148Y-63806081D01*
X156491140Y-63786267D01*
X156491137Y-63786266D01*
X156485253Y-63784445D01*
X156479128Y-63783801D01*
X156479127Y-63783801D01*
X156298081Y-63764772D01*
X156298080Y-63764772D01*
X156291953Y-63764128D01*
X156217586Y-63770896D01*
X156104527Y-63781185D01*
X156104524Y-63781186D01*
X156098388Y-63781744D01*
X156092482Y-63783482D01*
X156092478Y-63783483D01*
X155991302Y-63813261D01*
X155911931Y-63836621D01*
X155906473Y-63839474D01*
X155906469Y-63839476D01*
X155830030Y-63879438D01*
X155739684Y-63926670D01*
X155734886Y-63930528D01*
X155734878Y-63930533D01*
X155729841Y-63934583D01*
X155664219Y-63961680D01*
X155594364Y-63948997D01*
X155580429Y-63940844D01*
X155576642Y-63938290D01*
X155571898Y-63934365D01*
X155400925Y-63841920D01*
X155285148Y-63806081D01*
X155221140Y-63786267D01*
X155221137Y-63786266D01*
X155215253Y-63784445D01*
X155209128Y-63783801D01*
X155209127Y-63783801D01*
X155028081Y-63764772D01*
X155028080Y-63764772D01*
X155021953Y-63764128D01*
X154947586Y-63770896D01*
X154834527Y-63781185D01*
X154834524Y-63781186D01*
X154828388Y-63781744D01*
X154822482Y-63783482D01*
X154822478Y-63783483D01*
X154721302Y-63813261D01*
X154641931Y-63836621D01*
X154636473Y-63839474D01*
X154636469Y-63839476D01*
X154560030Y-63879438D01*
X154469684Y-63926670D01*
X154464886Y-63930528D01*
X154464878Y-63930533D01*
X154459841Y-63934583D01*
X154394219Y-63961680D01*
X154324364Y-63948997D01*
X154310429Y-63940844D01*
X154306642Y-63938290D01*
X154301898Y-63934365D01*
X154130925Y-63841920D01*
X154015148Y-63806081D01*
X153951140Y-63786267D01*
X153951137Y-63786266D01*
X153945253Y-63784445D01*
X153939128Y-63783801D01*
X153939127Y-63783801D01*
X153758081Y-63764772D01*
X153758080Y-63764772D01*
X153751953Y-63764128D01*
X153677586Y-63770896D01*
X153564527Y-63781185D01*
X153564524Y-63781186D01*
X153558388Y-63781744D01*
X153552482Y-63783482D01*
X153552478Y-63783483D01*
X153451302Y-63813261D01*
X153371931Y-63836621D01*
X153366473Y-63839474D01*
X153366469Y-63839476D01*
X153290030Y-63879438D01*
X153199684Y-63926670D01*
X153194886Y-63930528D01*
X153194878Y-63930533D01*
X153189841Y-63934583D01*
X153124219Y-63961680D01*
X153054364Y-63948997D01*
X153040429Y-63940844D01*
X153036642Y-63938290D01*
X153031898Y-63934365D01*
X152860925Y-63841920D01*
X152745148Y-63806081D01*
X152681140Y-63786267D01*
X152681137Y-63786266D01*
X152675253Y-63784445D01*
X152669128Y-63783801D01*
X152669127Y-63783801D01*
X152488081Y-63764772D01*
X152488080Y-63764772D01*
X152481953Y-63764128D01*
X152407586Y-63770896D01*
X152294527Y-63781185D01*
X152294524Y-63781186D01*
X152288388Y-63781744D01*
X152282482Y-63783482D01*
X152282478Y-63783483D01*
X152181302Y-63813261D01*
X152101931Y-63836621D01*
X152096473Y-63839474D01*
X152096469Y-63839476D01*
X152020030Y-63879438D01*
X151929684Y-63926670D01*
X151924886Y-63930528D01*
X151924878Y-63930533D01*
X151919841Y-63934583D01*
X151854219Y-63961680D01*
X151784364Y-63948997D01*
X151770429Y-63940844D01*
X151766642Y-63938290D01*
X151761898Y-63934365D01*
X151590925Y-63841920D01*
X151475148Y-63806081D01*
X151411140Y-63786267D01*
X151411137Y-63786266D01*
X151405253Y-63784445D01*
X151399128Y-63783801D01*
X151399127Y-63783801D01*
X151218081Y-63764772D01*
X151218080Y-63764772D01*
X151211953Y-63764128D01*
X151137586Y-63770896D01*
X151024527Y-63781185D01*
X151024524Y-63781186D01*
X151018388Y-63781744D01*
X151012482Y-63783482D01*
X151012478Y-63783483D01*
X150911302Y-63813261D01*
X150831931Y-63836621D01*
X150826473Y-63839474D01*
X150826469Y-63839476D01*
X150750030Y-63879438D01*
X150659684Y-63926670D01*
X150654886Y-63930528D01*
X150654878Y-63930533D01*
X150649841Y-63934583D01*
X150584219Y-63961680D01*
X150514364Y-63948997D01*
X150500429Y-63940844D01*
X150496642Y-63938290D01*
X150491898Y-63934365D01*
X150320925Y-63841920D01*
X150205148Y-63806081D01*
X150141140Y-63786267D01*
X150141137Y-63786266D01*
X150135253Y-63784445D01*
X150129128Y-63783801D01*
X150129127Y-63783801D01*
X149948081Y-63764772D01*
X149948080Y-63764772D01*
X149941953Y-63764128D01*
X149867586Y-63770896D01*
X149754527Y-63781185D01*
X149754524Y-63781186D01*
X149748388Y-63781744D01*
X149742482Y-63783482D01*
X149742478Y-63783483D01*
X149641302Y-63813261D01*
X149561931Y-63836621D01*
X149556473Y-63839474D01*
X149556469Y-63839476D01*
X149480030Y-63879438D01*
X149389684Y-63926670D01*
X149384886Y-63930528D01*
X149384878Y-63930533D01*
X149379841Y-63934583D01*
X149314219Y-63961680D01*
X149244364Y-63948997D01*
X149230429Y-63940844D01*
X149226642Y-63938290D01*
X149221898Y-63934365D01*
X149050925Y-63841920D01*
X148935148Y-63806081D01*
X148871140Y-63786267D01*
X148871137Y-63786266D01*
X148865253Y-63784445D01*
X148859128Y-63783801D01*
X148859127Y-63783801D01*
X148678081Y-63764772D01*
X148678080Y-63764772D01*
X148671953Y-63764128D01*
X148597586Y-63770896D01*
X148484527Y-63781185D01*
X148484524Y-63781186D01*
X148478388Y-63781744D01*
X148472482Y-63783482D01*
X148472478Y-63783483D01*
X148371302Y-63813261D01*
X148291931Y-63836621D01*
X148286473Y-63839474D01*
X148286469Y-63839476D01*
X148210030Y-63879438D01*
X148119684Y-63926670D01*
X148114886Y-63930528D01*
X148114878Y-63930533D01*
X148109841Y-63934583D01*
X148044219Y-63961680D01*
X147974364Y-63948997D01*
X147960429Y-63940844D01*
X147956642Y-63938290D01*
X147951898Y-63934365D01*
X147780925Y-63841920D01*
X147665148Y-63806081D01*
X147601140Y-63786267D01*
X147601137Y-63786266D01*
X147595253Y-63784445D01*
X147589128Y-63783801D01*
X147589127Y-63783801D01*
X147408081Y-63764772D01*
X147408080Y-63764772D01*
X147401953Y-63764128D01*
X147327586Y-63770896D01*
X147214527Y-63781185D01*
X147214524Y-63781186D01*
X147208388Y-63781744D01*
X147202482Y-63783482D01*
X147202478Y-63783483D01*
X147101302Y-63813261D01*
X147021931Y-63836621D01*
X147016473Y-63839474D01*
X147016469Y-63839476D01*
X146940030Y-63879438D01*
X146849684Y-63926670D01*
X146844886Y-63930528D01*
X146844878Y-63930533D01*
X146839841Y-63934583D01*
X146774219Y-63961680D01*
X146704364Y-63948997D01*
X146690429Y-63940844D01*
X146686642Y-63938290D01*
X146681898Y-63934365D01*
X146510925Y-63841920D01*
X146395148Y-63806081D01*
X146331140Y-63786267D01*
X146331137Y-63786266D01*
X146325253Y-63784445D01*
X146319128Y-63783801D01*
X146319127Y-63783801D01*
X146138081Y-63764772D01*
X146138080Y-63764772D01*
X146131953Y-63764128D01*
X146057586Y-63770896D01*
X145944527Y-63781185D01*
X145944524Y-63781186D01*
X145938388Y-63781744D01*
X145932482Y-63783482D01*
X145932478Y-63783483D01*
X145831302Y-63813261D01*
X145751931Y-63836621D01*
X145746473Y-63839474D01*
X145746469Y-63839476D01*
X145670030Y-63879438D01*
X145579684Y-63926670D01*
X145574886Y-63930528D01*
X145574878Y-63930533D01*
X145569841Y-63934583D01*
X145504219Y-63961680D01*
X145434364Y-63948997D01*
X145420429Y-63940844D01*
X145416642Y-63938290D01*
X145411898Y-63934365D01*
X145240925Y-63841920D01*
X145125148Y-63806081D01*
X145061140Y-63786267D01*
X145061137Y-63786266D01*
X145055253Y-63784445D01*
X145049128Y-63783801D01*
X145049127Y-63783801D01*
X144868081Y-63764772D01*
X144868080Y-63764772D01*
X144861953Y-63764128D01*
X144787586Y-63770896D01*
X144674527Y-63781185D01*
X144674524Y-63781186D01*
X144668388Y-63781744D01*
X144662482Y-63783482D01*
X144662478Y-63783483D01*
X144561302Y-63813261D01*
X144481931Y-63836621D01*
X144476473Y-63839474D01*
X144476469Y-63839476D01*
X144400030Y-63879438D01*
X144309684Y-63926670D01*
X144304886Y-63930528D01*
X144304878Y-63930533D01*
X144299841Y-63934583D01*
X144234219Y-63961680D01*
X144164364Y-63948997D01*
X144150429Y-63940844D01*
X144146642Y-63938290D01*
X144141898Y-63934365D01*
X143970925Y-63841920D01*
X143855148Y-63806081D01*
X143791140Y-63786267D01*
X143791137Y-63786266D01*
X143785253Y-63784445D01*
X143779128Y-63783801D01*
X143779127Y-63783801D01*
X143598081Y-63764772D01*
X143598080Y-63764772D01*
X143591953Y-63764128D01*
X143517586Y-63770896D01*
X143404527Y-63781185D01*
X143404524Y-63781186D01*
X143398388Y-63781744D01*
X143392482Y-63783482D01*
X143392478Y-63783483D01*
X143291302Y-63813261D01*
X143211931Y-63836621D01*
X143206473Y-63839474D01*
X143206469Y-63839476D01*
X143130030Y-63879438D01*
X143039684Y-63926670D01*
X143034886Y-63930528D01*
X143034878Y-63930533D01*
X143029841Y-63934583D01*
X142964219Y-63961680D01*
X142894364Y-63948997D01*
X142880429Y-63940844D01*
X142876642Y-63938290D01*
X142871898Y-63934365D01*
X142700925Y-63841920D01*
X142585148Y-63806081D01*
X142521140Y-63786267D01*
X142521137Y-63786266D01*
X142515253Y-63784445D01*
X142509128Y-63783801D01*
X142509127Y-63783801D01*
X142328081Y-63764772D01*
X142328080Y-63764772D01*
X142321953Y-63764128D01*
X142247586Y-63770896D01*
X142134527Y-63781185D01*
X142134524Y-63781186D01*
X142128388Y-63781744D01*
X142122482Y-63783482D01*
X142122478Y-63783483D01*
X142021302Y-63813261D01*
X141941931Y-63836621D01*
X141936473Y-63839474D01*
X141936469Y-63839476D01*
X141860030Y-63879438D01*
X141769684Y-63926670D01*
X141764886Y-63930528D01*
X141764884Y-63930529D01*
X141705218Y-63978502D01*
X141618208Y-64048460D01*
X141493273Y-64197352D01*
X141490309Y-64202744D01*
X141490306Y-64202748D01*
X141486935Y-64208880D01*
X141399637Y-64367675D01*
X141397776Y-64373542D01*
X141397775Y-64373544D01*
X141393699Y-64386394D01*
X141340867Y-64552942D01*
X141319201Y-64746095D01*
X141319717Y-64752239D01*
X141324440Y-64808479D01*
X141335465Y-64939778D01*
X141337164Y-64945702D01*
X141386524Y-65117842D01*
X141389039Y-65126614D01*
X141391858Y-65132099D01*
X141475065Y-65294003D01*
X141475068Y-65294008D01*
X141477883Y-65299485D01*
X141598612Y-65451807D01*
X141603305Y-65455801D01*
X141603306Y-65455802D01*
X141746629Y-65577779D01*
X141745292Y-65579350D01*
X141783908Y-65627309D01*
X141791469Y-65697902D01*
X141759664Y-65761376D01*
X141698592Y-65797579D01*
X141667480Y-65801480D01*
X137524029Y-65801480D01*
X137455908Y-65781478D01*
X137409415Y-65727822D01*
X137399311Y-65657548D01*
X137428805Y-65592968D01*
X137492055Y-65553604D01*
X137719857Y-65493841D01*
X137727959Y-65491114D01*
X137985604Y-65384394D01*
X137993272Y-65380588D01*
X138234049Y-65239889D01*
X138241130Y-65235076D01*
X138336024Y-65160671D01*
X138344494Y-65148812D01*
X138337977Y-65137188D01*
X136691921Y-63491132D01*
X137414407Y-63491132D01*
X137414538Y-63492965D01*
X137418789Y-63499580D01*
X138697406Y-64778197D01*
X138709616Y-64784864D01*
X138721115Y-64776175D01*
X138831632Y-64625725D01*
X138836216Y-64618502D01*
X138969279Y-64373430D01*
X138972847Y-64365636D01*
X139071418Y-64104779D01*
X139073895Y-64096573D01*
X139136151Y-63824750D01*
X139137491Y-63816289D01*
X139162442Y-63536719D01*
X139162688Y-63531780D01*
X139163099Y-63492485D01*
X139162956Y-63487519D01*
X139161908Y-63472152D01*
X159437238Y-63472152D01*
X159453291Y-63750558D01*
X159454364Y-63759058D01*
X159508053Y-64032710D01*
X159510266Y-64040972D01*
X159600599Y-64304813D01*
X159603915Y-64312700D01*
X159729218Y-64561838D01*
X159733575Y-64569204D01*
X159877289Y-64778311D01*
X159887542Y-64786654D01*
X159901283Y-64779508D01*
X161177979Y-63502812D01*
X161184357Y-63491132D01*
X161914409Y-63491132D01*
X161914540Y-63492965D01*
X161918791Y-63499580D01*
X163197408Y-64778197D01*
X163209618Y-64784864D01*
X163221117Y-64776175D01*
X163331634Y-64625725D01*
X163336218Y-64618502D01*
X163469281Y-64373430D01*
X163472849Y-64365636D01*
X163571420Y-64104779D01*
X163573897Y-64096573D01*
X163636153Y-63824750D01*
X163637493Y-63816289D01*
X163662444Y-63536719D01*
X163662690Y-63531780D01*
X163663101Y-63492485D01*
X163662958Y-63487519D01*
X163643868Y-63207493D01*
X163642707Y-63199019D01*
X163586154Y-62925936D01*
X163583855Y-62917701D01*
X163490763Y-62654817D01*
X163487366Y-62646967D01*
X163359458Y-62399151D01*
X163355030Y-62391839D01*
X163221955Y-62202492D01*
X163211434Y-62194113D01*
X163198046Y-62201165D01*
X161922023Y-63477188D01*
X161914409Y-63491132D01*
X161184357Y-63491132D01*
X161185593Y-63488868D01*
X161185462Y-63487035D01*
X161181211Y-63480420D01*
X159902018Y-62201227D01*
X159890008Y-62194668D01*
X159878269Y-62203636D01*
X159756579Y-62372986D01*
X159752057Y-62380280D01*
X159621575Y-62626717D01*
X159618089Y-62634545D01*
X159522254Y-62896426D01*
X159519865Y-62904649D01*
X159460457Y-63177122D01*
X159459208Y-63185578D01*
X159437327Y-63463601D01*
X159437238Y-63472152D01*
X139161908Y-63472152D01*
X139143866Y-63207493D01*
X139142705Y-63199019D01*
X139086152Y-62925936D01*
X139083853Y-62917701D01*
X138990761Y-62654817D01*
X138987364Y-62646967D01*
X138859456Y-62399151D01*
X138855028Y-62391839D01*
X138721953Y-62202492D01*
X138711432Y-62194113D01*
X138698044Y-62201165D01*
X137422021Y-63477188D01*
X137414407Y-63491132D01*
X136691921Y-63491132D01*
X135402016Y-62201227D01*
X135390006Y-62194668D01*
X135378267Y-62203636D01*
X135256577Y-62372986D01*
X135252055Y-62380280D01*
X135121573Y-62626717D01*
X135118087Y-62634545D01*
X135022252Y-62896426D01*
X135019863Y-62904649D01*
X134960455Y-63177122D01*
X134959206Y-63185578D01*
X134937325Y-63463601D01*
X134937236Y-63472152D01*
X134953289Y-63750558D01*
X134954362Y-63759058D01*
X134964110Y-63808741D01*
X134957597Y-63879438D01*
X134913896Y-63935391D01*
X134846882Y-63958836D01*
X134777831Y-63942328D01*
X134751372Y-63922094D01*
X132660494Y-61831216D01*
X135755299Y-61831216D01*
X135761695Y-61842486D01*
X137037187Y-63117978D01*
X137051131Y-63125592D01*
X137052964Y-63125461D01*
X137059579Y-63121210D01*
X138337808Y-61842981D01*
X138344232Y-61831216D01*
X160255301Y-61831216D01*
X160261697Y-61842486D01*
X161537189Y-63117978D01*
X161551133Y-63125592D01*
X161552966Y-63125461D01*
X161559581Y-63121210D01*
X162837810Y-61842981D01*
X162845001Y-61829812D01*
X162837678Y-61819575D01*
X162777413Y-61770247D01*
X162770441Y-61765293D01*
X162532661Y-61619581D01*
X162525070Y-61615613D01*
X162269729Y-61503526D01*
X162261669Y-61500624D01*
X161993475Y-61424228D01*
X161985097Y-61422446D01*
X161709014Y-61383154D01*
X161700467Y-61382527D01*
X161421603Y-61381066D01*
X161413069Y-61381603D01*
X161136582Y-61418003D01*
X161128184Y-61419696D01*
X160859210Y-61493280D01*
X160851114Y-61496099D01*
X160594604Y-61605509D01*
X160586981Y-61609394D01*
X160347695Y-61752603D01*
X160340663Y-61757490D01*
X160263770Y-61819093D01*
X160255301Y-61831216D01*
X138344232Y-61831216D01*
X138344999Y-61829812D01*
X138337676Y-61819575D01*
X138277411Y-61770247D01*
X138270439Y-61765293D01*
X138032659Y-61619581D01*
X138025068Y-61615613D01*
X137769727Y-61503526D01*
X137761667Y-61500624D01*
X137493473Y-61424228D01*
X137485095Y-61422446D01*
X137209012Y-61383154D01*
X137200465Y-61382527D01*
X136921601Y-61381066D01*
X136913067Y-61381603D01*
X136636580Y-61418003D01*
X136628182Y-61419696D01*
X136359208Y-61493280D01*
X136351112Y-61496099D01*
X136094602Y-61605509D01*
X136086979Y-61609394D01*
X135847693Y-61752603D01*
X135840661Y-61757490D01*
X135763768Y-61819093D01*
X135755299Y-61831216D01*
X132660494Y-61831216D01*
X131857164Y-61027886D01*
X131846297Y-61015495D01*
X131833329Y-60998595D01*
X131828303Y-60992045D01*
X131708816Y-60900359D01*
X131569670Y-60842723D01*
X131538973Y-60838682D01*
X131457851Y-60828001D01*
X131457842Y-60828000D01*
X131457839Y-60828000D01*
X131457827Y-60827999D01*
X131428537Y-60824143D01*
X131428536Y-60824143D01*
X131420348Y-60823065D01*
X131412160Y-60824143D01*
X131412159Y-60824143D01*
X131391050Y-60826922D01*
X131374604Y-60828000D01*
X118795744Y-60828000D01*
X118779298Y-60826922D01*
X118758189Y-60824143D01*
X118758188Y-60824143D01*
X118750000Y-60823065D01*
X118741812Y-60824143D01*
X118741811Y-60824143D01*
X118712521Y-60827999D01*
X118712509Y-60828000D01*
X118712506Y-60828000D01*
X118712497Y-60828001D01*
X118631375Y-60838682D01*
X118600678Y-60842723D01*
X118461532Y-60900359D01*
X118342045Y-60992045D01*
X118337019Y-60998595D01*
X118324051Y-61015495D01*
X118313184Y-61027886D01*
X118136475Y-61204595D01*
X118074163Y-61238621D01*
X118047380Y-61241500D01*
X116651866Y-61241500D01*
X116589684Y-61248255D01*
X116453295Y-61299385D01*
X116336739Y-61386739D01*
X116249385Y-61503295D01*
X116198255Y-61639684D01*
X116191500Y-61701866D01*
X116191500Y-63498134D01*
X116198255Y-63560316D01*
X116249385Y-63696705D01*
X116336739Y-63813261D01*
X116453295Y-63900615D01*
X116589684Y-63951745D01*
X116651866Y-63958500D01*
X118448134Y-63958500D01*
X118510316Y-63951745D01*
X118646705Y-63900615D01*
X118763261Y-63813261D01*
X118850615Y-63696705D01*
X118872799Y-63637529D01*
X118894598Y-63579382D01*
X118937240Y-63522618D01*
X119003802Y-63497918D01*
X119073150Y-63513126D01*
X119107817Y-63541114D01*
X119136250Y-63573938D01*
X119308126Y-63716632D01*
X119501000Y-63829338D01*
X119505825Y-63831180D01*
X119505826Y-63831181D01*
X119533949Y-63841920D01*
X119709692Y-63909030D01*
X119714760Y-63910061D01*
X119714763Y-63910062D01*
X119815362Y-63930529D01*
X119928597Y-63953567D01*
X119933772Y-63953757D01*
X119933774Y-63953757D01*
X120146673Y-63961564D01*
X120146677Y-63961564D01*
X120151837Y-63961753D01*
X120156957Y-63961097D01*
X120156959Y-63961097D01*
X120368288Y-63934025D01*
X120368289Y-63934025D01*
X120373416Y-63933368D01*
X120379849Y-63931438D01*
X120582429Y-63870661D01*
X120582434Y-63870659D01*
X120587384Y-63869174D01*
X120787994Y-63770896D01*
X120969860Y-63641173D01*
X121128096Y-63483489D01*
X121136243Y-63472152D01*
X121255435Y-63306277D01*
X121258453Y-63302077D01*
X121347843Y-63121210D01*
X121355136Y-63106453D01*
X121355137Y-63106451D01*
X121357430Y-63101811D01*
X121422370Y-62888069D01*
X121451529Y-62666590D01*
X121451817Y-62654817D01*
X121453074Y-62603365D01*
X121453074Y-62603361D01*
X121453156Y-62600000D01*
X121434852Y-62377361D01*
X121380431Y-62160702D01*
X121375014Y-62148244D01*
X121366193Y-62077798D01*
X121396859Y-62013765D01*
X121457274Y-61976477D01*
X121490563Y-61972000D01*
X124965500Y-61972000D01*
X125033621Y-61992002D01*
X125080114Y-62045658D01*
X125091500Y-62098000D01*
X125091500Y-63498134D01*
X125098255Y-63560316D01*
X125149385Y-63696705D01*
X125236739Y-63813261D01*
X125353295Y-63900615D01*
X125489684Y-63951745D01*
X125551866Y-63958500D01*
X126947380Y-63958500D01*
X127015501Y-63978502D01*
X127036475Y-63995405D01*
X128017475Y-64976405D01*
X128051501Y-65038717D01*
X128046436Y-65109532D01*
X128003889Y-65166368D01*
X127937369Y-65191179D01*
X127928380Y-65191500D01*
X115384500Y-65191500D01*
X115316379Y-65171498D01*
X115269886Y-65117842D01*
X115258500Y-65065500D01*
X115258500Y-59134500D01*
X115278502Y-59066379D01*
X115332158Y-59019886D01*
X115384500Y-59008500D01*
X164865500Y-59008500D01*
X164933621Y-59028502D01*
G37*
%TD.AperFunction*%
%TD*%
M02*
